<?xml version="1.0" standalone="no"?>
<!DOCTYPE svg PUBLIC "-//W3C//DTD SVG 20010904//EN"
 "http://www.w3.org/TR/2001/REC-SVG-20010904/DTD/svg10.dtd">
<svg version="1.0" xmlns="http://www.w3.org/2000/svg"
 width="300.000000pt" height="300.000000pt" viewBox="0 0 300.000000 300.000000"
 preserveAspectRatio="xMidYMid meet">
<metadata>
Created by potrace 1.10, written by Peter Selinger 2001-2011
</metadata>
<g transform="translate(0.000000,300.000000) scale(0.100000,-0.100000)"
fill="#000000" stroke="none">
<path d="M659 2972 c-13 -23 -24 -29 -53 -30 -50 -2 -71 -15 -85 -54 -7 -18
-18 -42 -24 -53 -6 -11 -19 -36 -29 -56 -9 -20 -25 -39 -35 -43 -41 -14 -65
-34 -53 -41 8 -5 19 0 29 13 9 11 28 24 44 27 19 5 27 14 27 29 0 11 13 37 30
56 17 20 28 42 25 51 -10 31 73 66 90 38 9 -14 40 15 60 54 18 36 18 37 3 37
-7 0 -20 -13 -29 -28z"/>
<path d="M1186 2984 c-22 -16 -17 -26 16 -28 15 -1 22 -7 20 -16 -2 -9 6 -6
22 9 14 14 26 25 26 26 0 1 -13 0 -29 -3 -20 -3 -30 1 -33 11 -3 14 -5 14 -22
1z"/>
<path d="M1556 2967 c5 -30 3 -38 -8 -35 -7 2 -13 -1 -13 -7 0 -5 4 -9 9 -7
25 8 83 8 100 0 32 -17 107 -90 122 -120 9 -17 12 -38 8 -50 -5 -17 -3 -20 11
-15 9 4 19 7 21 7 13 0 1 64 -14 78 -10 10 -11 13 -3 7 12 -8 12 -7 2 12 -13
26 -90 89 -102 86 -5 -2 -9 1 -9 7 0 5 -6 7 -14 4 -20 -8 -29 11 -12 25 11 9
27 4 75 -24 71 -42 114 -92 107 -127 -17 -85 -17 -90 7 -83 13 4 17 3 10 -2
-9 -6 -3 -19 22 -46 38 -41 81 -52 70 -17 -5 15 -2 20 12 21 16 0 16 1 -2 9
-11 5 -29 9 -40 9 -19 0 -19 0 -2 -13 17 -13 23 -36 9 -36 -11 0 -72 127 -72
150 0 23 8 24 44 10 24 -9 26 -7 26 18 0 20 -5 28 -19 29 -12 1 -18 -3 -15
-11 3 -7 -4 -12 -16 -12 -14 0 -18 5 -15 17 4 11 -6 27 -27 44 -18 15 -33 31
-33 36 0 4 -4 11 -9 16 -5 5 -6 3 -2 -4 10 -18 7 -17 -63 18 l-62 31 -25 -23
c-31 -29 -64 -35 -64 -11 0 9 -5 24 -11 32 -7 11 -8 4 -3 -23z"/>
<path d="M1810 2968 c108 -61 130 -79 130 -107 0 -18 12 -39 36 -62 20 -18 49
-52 65 -73 16 -21 29 -36 29 -32 0 18 -32 65 -69 101 -28 26 -41 48 -41 66 0
34 -31 73 -72 90 -18 7 -40 21 -49 31 -10 11 -30 18 -50 18 l-34 0 55 -32z"/>
<path d="M1423 2966 c-23 -6 -48 -18 -55 -26 -11 -12 -11 -12 4 -1 16 12 75
16 137 9 14 -2 26 3 29 12 3 8 2 12 -2 9 -4 -4 -21 -4 -39 0 -18 4 -51 3 -74
-3z"/>
<path d="M1125 2950 c-8 -13 62 -43 76 -34 6 3 -3 15 -20 25 -36 22 -47 23
-56 9z"/>
<path d="M1081 2926 c-8 -10 -5 -15 12 -23 28 -13 55 -2 35 14 -27 21 -36 22
-47 9z"/>
<path d="M1034 2886 c-23 -17 -20 -20 32 -42 l39 -16 -25 27 -25 27 39 -16
c53 -22 55 -20 12 9 -43 29 -46 30 -72 11z"/>
<path d="M1247 2885 c-21 -8 -63 -34 -92 -57 -65 -52 -228 -245 -261 -310 -22
-43 -22 -49 -9 -75 8 -15 15 -45 15 -65 0 -48 11 -48 34 -1 17 35 17 38 0 50
-10 7 -21 13 -25 13 -14 0 -15 35 -2 51 8 9 15 25 18 37 2 11 10 33 19 49 18
34 86 101 86 84 0 -6 5 -11 11 -11 8 0 8 4 0 14 -9 10 -2 25 30 65 71 88 162
137 280 148 71 7 120 -17 178 -86 23 -27 51 -53 62 -56 22 -7 42 -50 65 -139
9 -34 20 -65 25 -70 15 -16 10 -36 -10 -36 -10 0 -34 6 -52 14 -43 18 -158 41
-165 33 -10 -10 23 -37 43 -35 10 1 42 -1 71 -6 41 -6 52 -12 50 -25 -2 -9
-13 -17 -25 -17 -12 -1 -33 -8 -46 -16 -21 -15 -25 -14 -52 5 l-30 21 19 -22
c10 -12 27 -24 38 -27 10 -4 29 -28 43 -54 31 -63 62 -75 178 -73 49 1 92 4
96 6 19 12 34 -19 44 -93 l11 -81 31 6 c42 7 115 -12 115 -31 0 -17 -16 -20
-25 -5 -9 14 -45 12 -45 -2 0 -9 -3 -9 -12 0 -7 7 -23 12 -36 12 -19 0 -23 -5
-20 -22 2 -14 9 -22 18 -19 56 13 88 12 103 -4 9 -9 17 -23 17 -31 0 -12 -4
-12 -26 2 -23 16 -28 16 -60 1 -22 -11 -34 -24 -34 -37 0 -20 1 -20 22 -6 31
22 75 20 88 -3 14 -27 13 -28 -17 -24 -20 3 -37 -4 -58 -22 l-30 -27 37 20
c33 18 38 19 58 5 12 -8 24 -12 28 -9 5 5 19 163 22 246 0 19 2 22 10 10 6
-10 9 -2 8 28 0 23 -3 42 -7 42 -16 0 -38 -40 -34 -61 2 -13 -2 -33 -10 -44
-14 -18 -15 -14 -13 39 1 49 5 61 21 67 14 5 15 8 5 8 -9 1 -23 13 -32 29 -9
15 -45 54 -80 87 -34 33 -46 42 -25 20 37 -41 48 -62 25 -50 -7 4 -6 1 3 -7 9
-7 19 -23 23 -36 4 -12 12 -22 18 -22 6 0 8 -9 5 -20 -3 -11 -1 -20 4 -20 13
0 11 -74 -2 -87 -12 -12 -54 -6 -68 11 -5 6 -12 35 -16 65 -10 78 -59 120
-115 98 -25 -10 -121 -14 -126 -5 -3 4 -13 8 -22 8 -20 0 -82 53 -82 70 0 6 4
9 9 5 5 -3 12 -1 16 4 3 5 -3 14 -12 20 -17 9 -16 10 2 9 11 0 48 4 82 11 53
10 67 9 95 -4 18 -8 24 -10 14 -3 -37 25 -71 57 -60 58 6 0 11 7 11 15 0 8 -4
12 -8 10 -9 -6 -20 48 -11 57 4 4 25 -2 47 -12 22 -11 45 -19 50 -19 6 0 -17
14 -50 30 -53 26 -47 34 10 15 11 -4 7 0 -8 9 -16 9 -25 21 -21 27 5 8 2 9 -9
5 -10 -4 -24 -10 -33 -14 -14 -5 -15 -3 -4 17 8 15 8 20 1 16 -6 -4 -11 -3
-11 3 0 5 -3 18 -6 28 -6 17 -6 17 8 -1 8 -10 20 -16 26 -12 26 16 -87 182
-116 171 -7 -2 -10 0 -7 5 3 5 -12 18 -34 30 -23 11 -42 16 -46 10 -3 -5 5
-12 19 -16 14 -3 24 -9 23 -13 -4 -12 78 -99 105 -112 20 -9 24 -14 15 -24 -9
-9 -27 4 -81 62 -89 95 -124 113 -218 112 -40 0 -90 -7 -111 -14z"/>
<path d="M1000 2856 c0 -9 -6 -16 -14 -16 -29 0 -24 -17 8 -33 32 -15 34 -15
39 2 2 9 -4 28 -14 40 -15 18 -19 19 -19 7z"/>
<path d="M937 2804 c-3 -3 -4 -11 -1 -18 3 -7 -8 -19 -23 -26 l-28 -14 40 -6
c22 -4 46 -9 54 -11 7 -2 16 2 19 10 2 8 0 11 -5 8 -5 -3 -15 -1 -23 4 -13 8
-12 12 5 25 17 13 18 16 5 24 -17 11 -34 13 -43 4z"/>
<path d="M899 2712 c-13 -10 -33 -22 -44 -27 -18 -7 -17 -9 10 -14 l30 -7 -25
-14 c-14 -8 -34 -19 -44 -25 -32 -17 -30 -32 4 -27 33 5 87 63 75 82 -4 6 4
19 17 30 29 25 9 26 -23 2z"/>
<path d="M954 2663 c-51 -64 -57 -73 -52 -73 3 0 26 27 51 60 26 33 45 60 43
60 -3 0 -22 -21 -42 -47z"/>
<path d="M1990 2653 c0 -2 6 -14 14 -26 17 -26 24 -77 12 -95 -6 -10 11 -242
19 -250 14 -15 76 157 74 208 -1 14 -9 -3 -19 -40 -13 -47 -18 -57 -19 -35 0
17 4 48 9 70 7 30 5 47 -5 69 -8 16 -15 44 -15 61 0 30 -3 33 -35 37 -19 2
-35 2 -35 1z"/>
<path d="M1873 2625 c3 -25 9 -30 26 -23 12 4 -6 48 -19 48 -6 0 -9 -11 -7
-25z"/>
<path d="M435 2620 c-3 -5 -1 -10 5 -10 6 0 8 -4 5 -10 -3 -5 1 -10 11 -10 26
0 45 -31 31 -49 -10 -12 -9 -13 3 -6 23 14 49 13 55 -2 2 -8 9 -11 15 -8 18
11 -9 45 -35 45 -14 0 -25 6 -25 13 0 16 -32 47 -48 47 -6 0 -14 -4 -17 -10z"/>
<path d="M998 2619 c-13 -7 -18 -23 -18 -55 0 -25 -4 -53 -9 -62 -13 -25 -23
-132 -9 -109 5 11 10 35 10 55 0 46 63 151 81 133 6 -6 23 -11 39 -11 30 0 58
-39 58 -80 0 -38 -30 -95 -68 -128 -35 -31 -35 -32 -6 -15 40 21 73 70 81 117
3 20 10 36 15 36 5 0 4 6 -2 13 -5 6 -19 24 -31 39 -12 17 -34 30 -55 34 -30
6 -33 8 -22 23 12 15 11 15 -7 1 -11 -8 -24 -21 -28 -27 -4 -7 -12 -13 -17
-13 -11 0 -9 28 3 48 10 14 8 15 -15 1z"/>
<path d="M1471 2624 c4 -23 -2 -33 -20 -29 -11 2 -27 -5 -37 -16 -15 -17 -15
-19 -2 -14 9 4 32 2 50 -3 24 -7 39 -6 50 2 19 14 7 43 -12 31 -8 -5 -11 -4
-7 2 4 6 0 17 -9 24 -8 7 -14 8 -13 3z"/>
<path d="M1237 2584 c-4 -4 7 -21 23 -37 36 -37 44 -95 11 -77 -28 14 -71 30
-71 26 0 -3 23 -18 50 -35 49 -30 50 -32 50 -80 0 -46 3 -51 35 -71 45 -28 53
-43 56 -110 3 -51 1 -54 -24 -63 -21 -7 -27 -15 -27 -38 0 -45 -23 -91 -64
-127 -20 -17 -41 -32 -46 -32 -4 0 -22 -14 -39 -31 -22 -21 -31 -26 -31 -15 0
23 -25 20 -27 -4 -2 -18 3 -19 56 -13 93 9 349 -37 708 -128 78 -19 113 -35
113 -49 0 -13 -18 -22 -22 -10 -1 5 -3 -20 -4 -55 -1 -74 11 -89 15 -18 1 25
6 54 12 64 10 20 12 72 2 82 -3 4 -12 2 -19 -4 -7 -6 -19 -9 -26 -6 -8 3 -2
10 15 17 43 21 31 29 -17 12 l-43 -16 -114 56 c-121 60 -194 86 -129 48 45
-27 31 -23 -112 36 -72 29 -115 51 -111 58 3 6 0 5 -8 -2 -12 -12 -11 -16 9
-29 12 -9 22 -19 22 -24 0 -14 -33 -10 -54 6 -23 17 -36 12 -29 -13 4 -16 -2
-18 -64 -14 -111 7 -114 11 -50 65 30 26 60 61 67 77 16 38 30 29 30 -18 0
-20 8 -46 16 -57 16 -19 16 -19 10 10 -3 17 -9 51 -12 78 -4 30 -12 47 -20 47
-8 0 -14 7 -14 16 0 12 7 15 23 12 21 -4 23 -1 23 36 0 22 5 41 10 43 9 3 10
24 2 77 -2 11 6 21 20 27 20 8 25 5 29 -12 4 -12 9 -16 12 -10 5 7 26 4 65
-10 76 -26 96 -10 26 20 -29 12 -61 23 -71 24 -10 1 -19 5 -19 9 0 4 -7 4 -17
1 -11 -4 -14 -3 -9 6 6 9 0 10 -21 6 -21 -5 -24 -4 -13 4 11 8 5 9 -24 4 l-38
-6 16 31 c22 42 21 46 -18 65 l-35 16 -4 -27 c-2 -15 -5 0 -6 32 -1 53 -4 62
-35 92 -19 18 -31 35 -28 38 3 3 3 6 0 6 -2 0 -8 -3 -11 -6z m113 -248 c0 -18
-1 -19 -20 -1 -11 10 -20 24 -20 32 0 11 4 11 20 1 11 -7 20 -21 20 -32z"/>
<path d="M795 2562 c-28 -18 -63 -52 -52 -52 2 0 21 7 41 15 20 9 42 13 48 9
6 -4 8 -3 4 4 -3 6 -2 13 4 17 14 9 13 25 -2 25 -7 0 -26 -8 -43 -18z"/>
<path d="M1869 2563 c17 -32 101 -108 101 -92 0 9 -11 26 -25 39 -14 13 -25
29 -25 36 0 14 -30 34 -50 34 -7 0 -8 -6 -1 -17z"/>
<path d="M2110 2577 c0 -4 18 -40 40 -79 38 -66 40 -72 24 -89 -9 -10 -27 -41
-39 -68 -19 -40 -29 -50 -52 -53 -25 -3 -26 -4 -6 -9 33 -10 57 13 92 86 l32
66 -35 62 c-43 75 -56 94 -56 84z"/>
<path d="M653 2528 c-35 -40 -35 -49 0 -28 31 19 36 19 50 5 11 -11 18 -12 23
-4 4 7 -4 20 -17 30 -30 24 -32 23 -56 -3z"/>
<path d="M1097 2506 c9 -43 -5 -70 -48 -96 -23 -14 -50 -37 -61 -52 l-19 -28
21 0 c16 0 20 4 16 18 -5 15 4 24 40 42 25 13 50 33 56 44 13 24 13 75 0 88
-6 6 -8 0 -5 -16z"/>
<path d="M771 2495 c-47 -24 -74 -55 -47 -55 9 0 21 9 28 20 17 27 32 25 24
-2 -21 -70 -16 -95 5 -30 6 20 20 49 31 65 23 32 18 32 -41 2z"/>
<path d="M822 2448 c-42 -89 -47 -108 -28 -108 11 0 16 9 16 30 0 17 12 53 26
81 14 28 23 53 21 56 -3 2 -19 -24 -35 -59z"/>
<path d="M1383 2488 c3 -9 1 -18 -4 -20 -5 -2 -3 -12 5 -23 15 -20 15 -19 16
5 0 14 -5 32 -11 40 -9 13 -10 13 -6 -2z"/>
<path d="M1166 2404 l-18 -25 22 13 c18 10 24 10 27 1 3 -8 22 -13 46 -13 39
1 41 2 23 15 -11 8 -29 15 -41 15 -12 0 -25 4 -30 9 -6 6 -17 0 -29 -15z"/>
<path d="M712 2400 c-13 -11 -22 -27 -20 -36 2 -13 8 -11 31 11 42 43 34 62
-11 25z"/>
<path d="M20 2380 c14 -11 29 -20 33 -20 5 0 29 -16 53 -36 31 -25 44 -32 44
-21 0 18 -65 72 -104 87 -42 16 -53 11 -26 -10z"/>
<path d="M1470 2372 c0 -23 39 -37 55 -20 7 7 7 9 -1 5 -6 -4 -21 3 -32 14
-21 19 -22 19 -22 1z"/>
<path d="M736 2340 c-9 -22 -16 -46 -16 -53 0 -6 -8 -24 -18 -39 -17 -26 -20
-26 -45 -13 -33 17 -46 2 -22 -26 24 -26 95 -25 88 2 -3 10 5 50 17 90 24 79
22 103 -4 39z"/>
<path d="M927 2344 c-11 -14 -16 -28 -13 -31 8 -9 46 27 46 44 0 20 -13 15
-33 -13z"/>
<path d="M1213 2323 c-79 -75 -168 -137 -213 -149 l-45 -13 35 0 c38 -1 46 4
178 107 73 56 116 82 84 50 -7 -7 -12 -19 -12 -27 1 -13 3 -13 15 3 7 10 18
15 24 11 6 -3 11 -2 11 3 0 6 -7 13 -16 16 -9 4 -14 13 -10 21 9 25 -9 17 -51
-22z"/>
<path d="M300 2343 c19 -2 65 -10 102 -18 70 -16 116 -19 105 -9 -11 11 -88
24 -167 28 -41 2 -59 2 -40 -1z"/>
<path d="M666 2315 c-8 -9 -13 -22 -10 -30 5 -12 10 -12 27 -3 21 11 21 11 2
18 -19 7 -19 7 0 18 11 6 15 12 8 12 -6 0 -18 -7 -27 -15z"/>
<path d="M1135 2308 c-16 -12 -46 -36 -65 -54 -19 -18 -51 -40 -70 -48 -19 -8
-28 -15 -19 -16 19 0 91 47 149 99 49 44 51 52 5 19z"/>
<path d="M182 2308 c-7 -7 -12 -20 -12 -30 0 -23 26 -13 33 13 3 12 11 17 20
13 8 -3 18 -1 22 5 9 15 -48 14 -63 -1z"/>
<path d="M1025 2295 c-32 -14 -54 -19 -61 -14 -8 6 -14 4 -18 -7 -4 -9 -13
-14 -21 -10 -8 3 -15 1 -15 -4 0 -26 103 3 155 44 26 20 20 19 -40 -9z"/>
<path d="M540 2285 c0 -6 62 -45 71 -45 4 0 10 7 13 16 5 12 2 15 -10 10 -8
-3 -25 1 -37 9 -22 15 -37 19 -37 10z"/>
<path d="M1310 2281 c0 -5 6 -14 14 -20 7 -6 12 -24 10 -41 -4 -32 13 -51 22
-25 7 17 -25 95 -38 95 -5 0 -8 -4 -8 -9z"/>
<path d="M250 2272 c0 -6 10 -13 23 -15 13 -3 9 -5 -13 -5 -92 2 -109 -2 -144
-33 -19 -16 -39 -29 -43 -28 -10 3 -57 -90 -50 -98 7 -7 37 22 37 35 0 21 90
91 132 103 54 14 171 6 224 -16 46 -19 176 -96 171 -101 -2 -2 31 -39 72 -83
92 -95 124 -131 116 -131 -3 0 6 -11 21 -25 18 -17 27 -36 27 -55 0 -22 5 -30
18 -30 10 0 21 -4 24 -10 3 -6 -4 -10 -16 -10 -18 0 -20 -2 -10 -12 6 -7 17
-13 24 -13 10 0 56 -70 57 -87 0 -4 -10 -16 -22 -28 -30 -28 -80 -26 -115 4
-27 24 -28 24 -9 45 23 25 8 27 -34 6 -31 -16 -41 -29 -15 -19 9 4 15 0 15 -9
0 -55 44 -88 113 -86 l42 2 -35 7 -35 7 30 4 c17 1 41 3 55 4 27 1 28 5 19 90
-4 43 -39 110 -100 192 -41 54 -48 69 -26 57 8 -5 7 -2 -2 9 -8 10 -16 15 -19
12 -7 -7 -32 15 -32 27 0 6 8 4 18 -3 15 -13 16 -12 3 3 -7 10 -16 16 -20 14
-4 -3 -33 24 -65 59 -105 118 -257 208 -373 221 -42 4 -63 3 -63 -4z"/>
<path d="M1716 2250 c14 -14 86 -15 110 -2 15 9 6 11 -50 12 -47 0 -67 -3 -60
-10z"/>
<path d="M797 2217 c-10 -16 -25 -26 -35 -25 -29 5 -14 -34 26 -69 20 -18 69
-45 107 -60 79 -31 154 -97 179 -157 8 -20 22 -36 30 -36 23 0 19 38 -4 45
-11 3 -20 14 -20 24 0 10 -11 30 -25 45 -14 15 -25 31 -25 37 0 5 -5 9 -10 9
-6 0 -32 15 -58 33 -26 18 -67 39 -90 46 -28 10 -41 19 -38 28 3 7 2 12 -2 11
-13 -3 -52 13 -52 22 0 5 9 15 21 24 11 8 19 22 17 32 -3 15 -6 14 -21 -9z"/>
<path d="M210 2211 c0 -6 -11 -11 -24 -11 -33 0 -82 -43 -108 -93 -22 -44 -78
-178 -78 -188 0 -3 33 5 73 19 56 19 85 23 130 19 33 -3 55 -1 51 4 -3 5 -26
9 -52 9 -34 0 -43 3 -32 10 26 17 -31 12 -65 -6 -20 -10 -31 -12 -33 -4 -3 8
-8 7 -18 -1 -21 -17 -24 -8 -9 29 8 17 24 36 37 41 13 5 34 24 47 42 l24 34
-30 -28 c-42 -39 -53 -17 -17 34 24 36 84 80 84 63 0 -4 6 -1 14 5 41 34 194
13 284 -39 36 -21 36 -21 12 -1 -53 44 -112 64 -202 69 -61 3 -88 1 -88 -7z"/>
<path d="M1503 2165 c-16 -12 -22 -12 -26 -2 -3 8 -7 6 -12 -6 -10 -23 -6 -26
27 -20 15 3 29 13 31 22 3 13 5 13 12 -4 5 -11 15 -26 22 -33 11 -11 13 -11
13 3 0 24 -19 55 -33 55 -7 0 -22 -7 -34 -15z"/>
<path d="M277 2136 c-39 -21 -107 -76 -107 -86 0 -4 27 -10 60 -12 49 -3 65
-9 90 -33 35 -33 49 -28 25 9 -10 15 -30 28 -51 32 -20 4 -34 12 -34 21 0 8
-4 11 -10 8 -5 -3 -10 0 -10 8 0 16 26 31 33 19 2 -4 2 -2 1 5 -3 13 31 27 45
19 5 -4 21 -1 34 5 21 9 34 7 79 -13 58 -27 135 -87 155 -121 7 -12 24 -44 38
-72 14 -27 23 -40 21 -27 -6 30 2 28 15 -4 5 -15 12 -24 15 -21 10 10 -44 103
-89 152 -67 74 -143 116 -219 122 -45 3 -71 0 -91 -11z"/>
<path d="M793 2065 c115 -139 186 -243 202 -298 22 -75 21 -80 -20 -75 -36 4
-50 -14 -19 -26 20 -8 66 3 59 14 -11 17 13 19 27 2 25 -28 32 -61 14 -68 -8
-3 -22 -17 -31 -31 -10 -14 -12 -22 -6 -19 7 4 9 1 5 -8 -3 -8 -12 -12 -19
-10 -10 4 -12 -1 -8 -17 5 -18 3 -21 -11 -16 -9 4 -15 3 -11 -2 3 -5 -6 -18
-20 -29 -45 -36 -26 -33 24 4 33 23 54 47 61 70 8 24 25 42 56 60 50 29 57 38
17 23 -20 -7 -29 -7 -31 1 -2 5 -19 33 -38 60 -24 35 -29 47 -16 43 14 -6 15
-4 4 9 -10 13 -10 17 0 21 10 4 10 6 1 6 -7 1 -13 5 -13 10 0 4 11 6 25 3 14
-2 24 -7 21 -10 -5 -5 21 -62 28 -62 2 0 -3 23 -12 50 -12 38 -13 53 -4 62 16
16 21 8 37 -49 7 -26 14 -40 14 -30 1 9 6 17 12 17 5 0 7 6 3 12 -5 7 -9 21
-9 32 -3 28 -34 49 -52 34 -10 -8 -17 -8 -25 0 -7 7 -31 12 -54 12 -40 0 -43
2 -107 88 -36 48 -91 114 -122 147 -47 50 -44 44 18 -30z"/>
<path d="M1467 2113 c-4 -3 -7 -15 -7 -27 0 -19 1 -19 13 -2 11 15 18 16 33 8
18 -10 56 0 44 11 -10 9 -77 17 -83 10z"/>
<path d="M1871 2090 c0 -14 4 -43 8 -65 17 -76 21 -115 11 -115 -6 0 -10 -20
-10 -45 0 -38 4 -47 23 -54 27 -11 26 -12 20 21 -3 15 -9 25 -14 22 -5 -3 -9
7 -9 23 0 22 2 25 10 13 13 -20 13 -22 -15 110 -13 63 -24 104 -24 90z"/>
<path d="M2971 2056 c-7 -8 -13 -30 -13 -48 -1 -18 -12 -50 -25 -71 -23 -37
-24 -37 -53 -22 -16 8 -40 15 -54 15 -16 0 -27 7 -31 20 -10 33 -25 23 -18
-12 8 -43 9 -44 41 -32 39 15 72 1 72 -31 0 -34 19 -32 31 5 6 17 15 30 20 30
5 0 9 8 9 19 0 10 7 24 15 31 9 8 12 22 8 41 -3 17 0 35 7 44 7 9 11 18 8 20
-3 3 -11 -1 -17 -9z"/>
<path d="M1451 2037 c-1 -31 24 -47 146 -92 65 -23 144 -55 176 -69 65 -29
106 -35 85 -12 -7 8 -14 13 -16 11 -15 -14 -312 117 -312 138 0 9 -2 9 -8 0
-11 -18 -48 -5 -60 20 -9 19 -11 19 -11 4z"/>
<path d="M190 2000 c32 -25 54 -27 41 -2 -5 10 -22 18 -38 20 l-28 2 25 -20z"/>
<path d="M278 1993 c12 -17 19 -33 15 -37 -3 -3 5 -6 18 -6 13 0 35 -3 49 -6
20 -4 22 -3 9 5 -14 9 -27 13 -69 20 -3 1 1 5 7 9 9 6 3 14 -19 27 l-32 18 22
-30z"/>
<path d="M930 2016 c0 -3 18 -25 40 -50 21 -26 43 -54 49 -64 5 -9 13 -14 17
-10 12 13 -52 100 -88 119 -10 5 -18 8 -18 5z"/>
<path d="M2390 2010 c-11 -7 -2 -8 27 -4 48 7 71 -4 122 -58 l30 -32 30 28
c26 25 39 29 90 30 61 2 98 15 45 17 -76 3 -106 -2 -133 -22 l-28 -21 -47 36
c-49 37 -103 47 -136 26z"/>
<path d="M671 1955 c26 -46 30 -54 59 -117 12 -27 26 -48 31 -48 5 0 9 2 9 5
0 15 -72 144 -95 170 l-27 30 23 -40z"/>
<path d="M2071 1910 l-2 -65 -35 38 -35 38 -29 -18 c-35 -20 -39 -36 -8 -31
29 4 34 -18 6 -27 -13 -4 -26 -7 -29 -6 -4 0 -5 -9 -2 -19 5 -20 6 -20 37 -1
42 25 56 17 57 -32 0 -32 2 -37 9 -22 4 12 15 27 24 34 9 7 13 17 10 22 -3 5
2 9 10 9 15 0 14 27 -4 110 -7 30 -8 26 -9 -30z"/>
<path d="M207 1935 c-79 -17 -82 -25 -10 -24 40 1 72 -5 99 -17 21 -10 50 -19
64 -19 27 0 87 -33 94 -51 3 -7 -4 -10 -17 -7 -19 4 -20 3 -5 -7 10 -6 34 -11
55 -12 23 0 48 -9 64 -22 14 -11 5 -1 -20 23 -56 53 -166 108 -186 91 -9 -8
-15 -8 -20 0 -3 5 -1 10 5 10 7 0 6 5 -2 13 -14 13 -56 38 -60 36 -2 -1 -29
-7 -61 -14z"/>
<path d="M2302 1927 c-54 -29 -144 -106 -137 -117 4 -7 84 -2 94 6 2 2 4 13 5
25 0 12 10 27 21 33 11 6 24 17 30 25 6 7 32 15 56 18 45 5 46 5 81 -43 42
-58 98 -209 98 -264 0 -26 -6 -43 -18 -52 -44 -31 -55 -96 -23 -137 18 -24 19
-24 25 -4 8 25 66 46 66 23 0 -25 121 -177 229 -288 50 -52 89 -97 86 -101 -2
-4 14 -25 37 -47 33 -32 37 -34 23 -11 -10 15 -26 32 -37 38 -10 5 -16 14 -13
19 3 4 -35 52 -85 106 -119 129 -170 203 -159 229 5 14 8 16 9 5 2 -8 2 -18 1
-23 0 -4 4 -6 11 -5 6 2 26 -20 43 -49 33 -53 178 -216 191 -213 4 1 11 -4 15
-12 5 -7 9 -8 9 -3 0 6 -36 46 -81 90 -44 44 -105 115 -135 157 -30 43 -60 76
-67 73 -6 -2 -34 23 -60 56 -47 58 -71 73 -48 30 9 -16 7 -23 -11 -35 -12 -9
-26 -16 -30 -16 -18 0 -7 69 16 103 21 30 24 44 20 89 -9 105 -59 234 -112
291 -33 35 -89 37 -150 4z"/>
<path d="M2570 1886 c0 -5 60 -36 68 -36 3 0 -4 9 -16 20 -19 18 -52 28 -52
16z"/>
<path d="M654 1853 c2 -12 -1 -24 -8 -26 -7 -3 -5 -11 7 -23 16 -18 17 -17 16
6 0 14 -5 34 -10 45 -9 19 -9 19 -5 -2z"/>
<path d="M1387 1814 c2 -7 12 -10 20 -7 12 5 14 3 8 -6 -5 -10 -2 -11 14 -6
11 3 26 3 33 -2 22 -13 37 -12 31 3 -3 8 -10 14 -17 14 -6 1 -30 4 -53 9 -32
6 -40 5 -36 -5z"/>
<path d="M2117 1771 c3 -20 15 -44 27 -53 23 -19 51 -24 41 -8 -3 6 0 10 8 10
26 0 147 -152 147 -183 0 -5 -15 -7 -34 -4 -25 4 -33 2 -30 -6 2 -7 25 -12 50
-12 39 -1 50 -5 69 -29 13 -16 26 -43 30 -60 4 -17 9 -25 12 -18 2 6 10 9 16
5 13 -8 -16 41 -43 72 -9 11 -34 55 -55 98 -42 87 -101 147 -190 195 l-53 29
5 -36z"/>
<path d="M2600 1802 c0 -4 5 -23 11 -42 11 -38 13 -166 2 -207 -4 -18 -2 -24
6 -19 6 4 11 20 11 36 0 31 19 53 21 23 1 -13 3 -11 9 7 7 24 5 74 -6 147 -3
18 -12 39 -20 48 -16 16 -34 20 -34 7z"/>
<path d="M2245 1765 c17 -14 41 -25 56 -25 14 0 30 -5 37 -12 7 -7 12 -8 12
-2 0 12 -72 49 -110 58 -24 5 -24 4 5 -19z"/>
<path d="M395 1770 c-19 -31 24 -76 80 -85 l40 -6 -31 14 c-34 16 -77 65 -68
78 3 5 1 9 -5 9 -5 0 -13 -5 -16 -10z"/>
<path d="M691 1762 c0 -13 -5 -20 -11 -17 -5 3 -10 -1 -10 -10 0 -9 -7 -27
-16 -40 -19 -30 -15 -128 6 -148 10 -10 11 -8 5 8 -5 11 -11 43 -13 72 -3 46
-1 55 23 79 19 18 25 34 22 53 -4 23 -4 23 -6 3z"/>
<path d="M2375 1753 c27 -30 38 -112 13 -97 -10 5 -10 4 -1 -6 7 -7 9 -25 6
-41 -4 -20 4 -44 28 -88 19 -34 37 -61 42 -61 4 0 5 -6 1 -12 -4 -7 -3 -10 1
-5 11 10 14 47 4 47 -13 0 -39 57 -39 85 0 15 -4 24 -10 20 -13 -8 -13 44 1
84 14 39 24 39 49 -1 l20 -33 0 31 c0 31 -19 55 -52 67 -12 4 -18 1 -18 -9 0
-8 -5 -12 -10 -9 -6 4 -8 10 -5 15 3 4 -6 15 -20 24 -36 23 -39 20 -10 -11z"/>
<path d="M490 1753 c19 -8 40 -22 47 -31 7 -10 13 -12 13 -6 0 19 -46 54 -71
53 -21 -1 -20 -2 11 -16z"/>
<path d="M1664 1751 c22 -12 56 -21 76 -21 20 0 54 -9 75 -20 41 -21 95 -28
133 -15 32 9 27 25 -5 19 -16 -3 -73 6 -128 20 -55 14 -120 28 -145 31 l-45 6
39 -20z"/>
<path d="M581 1728 c0 -9 -17 -26 -37 -38 -32 -21 -43 -22 -127 -16 -64 5 -87
4 -77 -3 8 -6 24 -11 35 -11 11 0 27 -5 35 -10 13 -9 12 -13 -9 -30 -31 -26
-47 -25 -116 6 -52 24 -64 26 -136 19 -71 -6 -83 -4 -114 15 -41 25 -46 12 -9
-25 22 -22 32 -25 63 -20 74 12 108 8 167 -20 38 -19 71 -27 94 -25 113 10
127 7 167 -33 21 -21 47 -57 58 -80 18 -38 25 -43 65 -49 58 -9 127 0 146 19
21 21 16 23 -41 12 -52 -10 -100 -6 -141 13 -34 16 -30 28 9 28 18 0 42 7 53
16 18 14 16 15 -28 11 -35 -3 -48 -1 -48 8 0 18 -65 73 -96 81 -14 4 -44 4
-67 0 l-42 -6 38 24 c21 13 58 26 83 30 57 7 104 32 104 53 0 14 -3 13 -16 -5
-8 -12 -20 -22 -26 -22 -6 0 -3 9 6 19 10 11 16 28 13 38 -4 15 -5 15 -6 1z"/>
<path d="M130 1720 c0 -18 37 -29 116 -34 74 -5 76 -5 19 4 -33 5 -77 16 -97
24 -21 9 -38 12 -38 6z"/>
<path d="M722 1722 c-28 -9 -62 -59 -62 -93 0 -64 74 -169 118 -169 11 0 4 10
-20 30 -20 17 -48 55 -63 85 -23 50 -24 57 -11 83 8 15 32 35 55 45 39 17 41
17 83 -2 l43 -21 -28 25 c-28 25 -66 30 -115 17z"/>
<path d="M1087 1688 c-8 -28 -2 -34 17 -19 8 7 12 19 9 27 -8 21 -20 17 -26
-8z"/>
<path d="M2080 1699 c-21 -4 -26 -7 -13 -8 12 0 23 -7 26 -13 3 -10 9 -9 22 3
21 21 10 27 -35 18z"/>
<path d="M1445 1669 c22 -6 47 -11 55 -13 29 -6 75 -18 90 -23 8 -3 22 -7 30
-8 8 -1 29 -5 45 -9 29 -6 29 -6 -5 10 -40 19 -194 54 -230 53 -18 -1 -13 -4
15 -10z"/>
<path d="M705 1611 c2 -24 8 -48 14 -54 10 -10 8 -1 -13 78 -3 11 -4 0 -1 -24z"/>
<path d="M1301 1605 c65 -51 97 -64 149 -58 49 5 241 -26 359 -58 107 -30 160
-55 196 -94 l33 -34 6 61 c4 33 5 63 2 66 -3 3 -6 -7 -6 -22 0 -15 -7 -34 -15
-42 -12 -13 -18 -11 -43 16 -16 16 -38 30 -49 30 -11 0 -23 3 -27 7 -3 4 -12
8 -19 9 -7 1 -79 19 -160 39 -108 26 -171 36 -230 37 -45 0 -86 3 -92 6 -5 4
-18 8 -28 9 -11 2 -35 17 -55 33 -20 17 -43 30 -51 30 -7 0 6 -16 30 -35z"/>
<path d="M1132 1590 c-18 -11 -54 -42 -80 -68 -26 -27 -60 -56 -75 -66 -38
-24 -27 -32 14 -11 21 12 -1 -14 -66 -78 -61 -58 -95 -99 -91 -106 4 -7 15 -9
25 -6 9 3 50 -6 91 -20 130 -45 132 -45 128 -32 -2 7 -19 18 -36 26 -18 8 -32
19 -32 23 0 5 5 6 12 2 7 -4 8 -3 4 4 -10 17 -26 15 -26 -3 0 -11 -5 -12 -26
-5 -14 6 -39 10 -55 10 -19 0 -29 5 -29 15 0 16 8 25 129 153 l78 84 42 -22
c63 -31 74 -18 13 15 -29 15 -52 31 -52 35 0 3 18 17 40 30 36 23 51 40 33 40
-5 0 -23 -9 -41 -20z"/>
<path d="M2195 1595 c11 -8 25 -19 31 -24 6 -5 16 -6 23 -2 17 11 -6 28 -44
35 -28 5 -29 4 -10 -9z"/>
<path d="M1250 1592 c0 -27 62 -54 74 -33 4 5 -3 7 -14 4 -12 -3 -20 0 -20 6
0 7 -4 9 -10 6 -5 -3 -10 1 -10 9 0 9 -4 16 -10 16 -5 0 -10 -4 -10 -8z"/>
<path d="M2670 1577 c0 -12 -8 -33 -17 -47 -15 -21 -15 -23 0 -17 12 4 30 -15
71 -79 31 -46 58 -84 61 -84 6 0 -16 63 -26 75 -13 14 -11 27 4 19 6 -3 -9 14
-35 38 -34 32 -48 52 -48 71 0 29 9 34 28 15 6 -6 14 -9 18 -6 3 4 -8 14 -25
23 -30 15 -31 15 -31 -8z"/>
<path d="M2070 1571 c0 -11 -4 -23 -10 -26 -17 -10 -11 -32 10 -38 17 -4 18
-2 9 14 -5 10 -6 19 -2 19 4 0 9 11 9 25 1 14 -2 25 -7 25 -5 0 -9 -9 -9 -19z"/>
<path d="M145 1554 c-52 -56 -38 -144 28 -185 45 -27 102 -43 124 -34 15 6 11
10 -22 25 -22 10 -47 19 -57 19 -20 1 -66 54 -74 87 -7 29 16 99 33 99 6 0 15
3 19 8 4 4 0 7 -10 7 -9 0 -28 -12 -41 -26z"/>
<path d="M1997 1516 c5 -49 22 -84 23 -45 0 14 -4 29 -9 35 -5 5 -11 18 -14
29 -2 11 -3 2 0 -19z"/>
<path d="M2205 1531 c0 -15 5 -34 11 -42 21 -27 32 -94 18 -109 -3 -2 -16 9
-29 25 -14 15 -28 25 -33 21 -4 -4 2 -14 12 -22 21 -15 56 -64 56 -77 0 -12
-24 4 -71 48 -24 22 -45 39 -46 38 -2 -2 -4 -3 -5 -2 -36 11 -40 5 -13 -17 17
-14 46 -36 65 -48 19 -13 44 -33 54 -45 11 -11 28 -21 39 -21 16 0 18 4 12 23
-5 12 -9 56 -10 97 -2 80 -12 115 -41 142 -18 16 -19 15 -19 -11z"/>
<path d="M1190 1531 c0 -6 10 -17 22 -26 26 -17 37 -3 18 20 -14 17 -40 20
-40 6z"/>
<path d="M2745 1530 c-3 -5 -3 -14 0 -20 3 -5 1 -10 -5 -10 -6 0 -8 -5 -5 -11
4 -6 9 -8 12 -5 4 3 17 -7 29 -22 22 -25 28 -37 26 -54 -1 -3 5 -9 13 -12 19
-7 19 -1 -1 29 -9 14 -12 25 -7 25 25 0 132 -142 175 -230 9 -19 17 -29 17
-22 1 7 -15 44 -34 82 -38 75 -40 92 -5 35 12 -19 26 -35 31 -35 18 0 -8 33
-95 124 -73 77 -87 88 -100 76 -14 -11 -16 -9 -16 9 0 26 -26 56 -35 41z"/>
<path d="M190 1496 c0 -49 7 -63 47 -87 27 -17 37 -19 46 -10 9 10 7 16 -8 26
-39 27 -65 60 -65 82 0 13 -4 23 -10 23 -5 0 -10 -15 -10 -34z"/>
<path d="M263 1519 c-15 -15 -17 -35 -4 -43 5 -3 23 2 41 11 45 22 85 8 85
-30 -1 -30 12 -34 40 -13 16 12 18 19 9 43 -7 19 -16 27 -28 25 -10 -2 -16 0
-13 5 9 14 -117 15 -130 2z"/>
<path d="M526 1503 c4 -10 9 -34 11 -53 4 -28 -1 -40 -21 -59 -32 -30 -105
-39 -162 -18 -37 12 -42 12 -39 -2 5 -38 163 -41 213 -4 33 24 41 77 17 122
-16 33 -33 43 -19 14z"/>
<path d="M1320 1513 c0 -6 7 -17 17 -24 9 -8 22 -27 29 -44 13 -30 13 -30 14
-4 0 15 -12 36 -30 54 -16 16 -30 24 -30 18z"/>
<path d="M0 1484 c0 -7 17 -18 38 -23 46 -13 62 -14 62 -2 0 14 -11 19 -58 30
-33 7 -42 6 -42 -5z"/>
<path d="M2360 1472 c0 -24 8 -32 26 -25 20 7 17 20 -6 33 -17 9 -20 8 -20 -8z"/>
<path d="M1658 1470 c-1 -5 -46 -14 -98 -20 -97 -12 -140 -31 -111 -49 8 -5
24 -5 36 -1 61 23 141 30 225 19 69 -9 246 -59 333 -94 12 -5 16 -3 12 7 -10
26 -215 95 -337 113 -34 5 -45 11 -41 21 3 8 1 14 -5 14 -6 0 -12 -4 -14 -10z"/>
<path d="M1238 1449 c33 -22 49 -56 38 -86 -3 -10 5 -5 18 11 22 27 27 29 50
18 33 -15 33 -6 1 41 -28 40 -37 44 -57 24 -11 -12 -16 -12 -26 0 -7 7 -23 13
-35 13 -19 0 -18 -3 11 -21z"/>
<path d="M865 1436 c-21 -24 -110 -87 -116 -83 -2 2 -20 -12 -39 -31 l-35 -34
32 21 c17 11 34 21 38 21 9 0 116 84 139 109 11 11 15 21 10 20 -5 0 -18 -10
-29 -23z"/>
<path d="M1199 1433 c-1 -4 -1 -16 0 -25 1 -10 -3 -18 -9 -18 -6 0 -8 5 -5 10
3 6 -3 10 -14 10 -11 0 -23 -4 -26 -10 -3 -5 0 -10 8 -10 7 0 30 -18 51 -40
34 -37 83 -56 73 -27 -2 6 -10 11 -18 10 -8 -2 -20 9 -26 24 -15 32 -11 40 11
18 15 -15 16 -15 16 4 0 19 -59 71 -61 54z"/>
<path d="M2350 1382 c0 -15 17 -28 55 -45 l41 -18 -4 -71 c-3 -48 -1 -69 6
-64 13 8 6 -304 -7 -317 -8 -8 -22 7 -96 102 -22 29 -69 76 -105 105 -78 63
-226 163 -215 146 5 -8 3 -11 -6 -8 -8 3 -13 10 -12 15 1 5 -3 10 -10 10 -7 0
-60 24 -119 52 -132 63 -172 70 -265 43 l-70 -20 -54 34 c-60 38 -81 41 -100
18 -7 -8 -25 -22 -41 -30 -16 -8 -37 -23 -46 -32 -17 -17 -69 -87 -65 -87 1 0
0 -10 -4 -23 -3 -15 -11 -21 -20 -18 -8 3 -28 6 -45 6 -28 0 -30 2 -23 27 3
15 12 31 18 35 6 4 8 11 3 15 -8 8 -66 -50 -66 -67 0 -6 7 -13 15 -15 8 -3 21
-7 29 -9 10 -3 12 -13 9 -27 -6 -21 -7 -21 -13 -5 -5 15 -16 5 -53 -52 -47
-72 -52 -83 -49 -135 3 -38 13 -29 68 55 42 66 216 250 273 290 23 16 27 16
74 -2 50 -19 51 -19 111 1 34 11 86 23 116 26 51 5 63 2 137 -35 54 -27 94
-56 119 -86 36 -41 132 -120 193 -157 14 -9 28 -24 30 -35 3 -19 18 -34 35
-34 4 0 1 11 -8 25 -23 36 -20 42 9 15 16 -15 23 -30 20 -41 -6 -17 94 -233
103 -225 4 5 -37 124 -48 141 -4 6 -10 18 -14 29 -5 14 -2 17 9 12 28 -10 15
9 -43 67 -32 32 -62 54 -67 50 -4 -5 -5 -3 -1 4 6 11 -49 60 -204 186 -31 25
-32 26 -5 10 17 -9 44 -28 61 -40 37 -27 52 -30 33 -5 -13 15 -12 16 3 3 10
-7 16 -17 13 -21 -3 -4 17 -24 43 -44 26 -20 93 -82 150 -138 56 -55 102 -95
102 -87 0 7 -17 30 -37 51 -20 21 -34 40 -32 43 3 2 38 -31 78 -75 40 -44 78
-80 85 -80 7 0 13 -8 13 -17 -1 -10 1 -31 2 -48 l3 -30 9 30 c4 16 11 117 15
224 6 190 19 276 41 276 6 0 34 -22 64 -48 29 -26 59 -45 66 -42 8 3 13 -1 11
-9 -3 -14 65 -111 148 -211 23 -27 47 -60 53 -72 6 -13 17 -23 24 -23 7 0 8 3
2 8 -5 4 -20 28 -33 53 -13 25 -40 67 -62 93 -21 26 -42 56 -45 66 -3 11 -18
33 -33 49 -40 43 -49 56 -55 77 -4 16 -5 17 -6 2 0 -10 -8 -18 -17 -18 -10 0
-13 6 -10 18 4 13 -6 28 -36 53 -60 49 -73 56 -65 36 3 -10 4 -17 1 -17 -9 0
-109 52 -124 65 -17 14 -60 26 -60 17z m-874 -43 c19 -11 34 -22 34 -24 0 -9
-60 18 -71 31 -16 20 -2 17 37 -7z"/>
<path d="M2849 1374 c-16 -20 -20 -125 -4 -131 6 -2 9 16 7 46 -2 27 1 58 6
68 9 16 11 15 17 -10 4 -15 11 -27 16 -27 14 0 10 23 -9 48 -17 22 -19 22 -33
6z"/>
<path d="M1505 1366 c24 -19 48 -21 43 -3 -3 6 -18 13 -34 15 -28 3 -28 3 -9
-12z"/>
<path d="M795 1340 c-11 -10 -54 -39 -96 -63 -66 -37 -93 -46 -190 -62 l-114
-18 -109 37 c-59 21 -148 55 -197 76 l-89 39 0 -28 c0 -26 7 -31 73 -59 39
-17 127 -50 194 -72 l121 -41 94 10 c51 5 113 17 138 26 25 10 57 19 72 21 37
5 128 51 128 65 0 6 9 24 21 40 27 38 20 37 -32 -7 -48 -40 -100 -68 -144 -78
-22 -4 -16 1 20 19 41 20 152 115 134 115 -2 0 -13 -9 -24 -20z"/>
<path d="M1177 1309 c-23 -13 -22 -35 3 -42 17 -4 19 -9 10 -32 -11 -30 -4
-53 12 -37 16 16 18 83 4 103 -8 13 -16 15 -29 8z"/>
<path d="M386 1291 c-3 -4 1 -16 8 -26 15 -21 46 -14 46 9 0 10 -6 13 -15 10
-8 -4 -15 -1 -15 5 0 13 -17 15 -24 2z"/>
<path d="M2015 1286 c24 -19 48 -21 43 -3 -3 6 -18 13 -34 15 -28 3 -28 3 -9
-12z"/>
<path d="M2110 1290 l-34 -5 54 -47 c30 -27 63 -48 74 -48 17 0 16 3 -8 25
-15 14 -32 25 -37 25 -6 0 -9 6 -6 13 2 6 9 11 14 10 5 -1 10 4 10 12 0 17
-22 22 -67 15z"/>
<path d="M2276 1244 c-4 -10 1 -25 10 -36 23 -25 12 -33 -41 -29 -25 1 -45 -1
-45 -6 1 -12 87 -73 103 -73 19 0 67 38 67 53 0 13 -40 43 -52 39 -4 -1 -10
14 -14 33 -7 38 -18 45 -28 19z m58 -89 c18 -8 18 -9 0 -22 -25 -18 -52 -16
-63 6 -6 10 -8 21 -5 24 7 6 43 2 68 -8z"/>
<path d="M905 1164 c26 -36 45 -68 42 -70 -2 -3 -22 19 -43 48 -49 69 -60 80
-40 41 9 -18 29 -47 44 -65 52 -61 91 -133 80 -151 -5 -9 -15 -17 -21 -17 -7
0 -30 -27 -51 -60 -31 -48 -44 -60 -64 -60 -14 0 -23 -3 -19 -6 3 -4 21 -3 39
0 25 5 41 19 66 55 21 30 42 51 58 54 13 2 24 1 24 -3 0 -12 -79 -118 -92
-122 -57 -20 -223 9 -383 67 -135 48 -319 102 -429 126 -102 21 -116 22 -116
11 0 -4 42 -16 92 -26 51 -10 119 -29 150 -42 32 -13 76 -24 98 -24 25 0 39
-4 35 -10 -3 -6 1 -7 9 -4 10 4 16 1 16 -7 0 -7 3 -9 7 -6 3 4 11 3 17 -2 16
-13 254 -80 341 -96 48 -9 59 -13 35 -14 -41 -1 -158 26 -285 64 -229 69 -297
88 -399 111 -60 13 -112 22 -114 19 -8 -8 1 -13 38 -19 57 -9 131 -25 139 -30
4 -3 21 -8 37 -10 48 -9 65 -14 159 -45 210 -68 299 -93 380 -104 47 -6 85
-14 85 -18 0 -3 11 -4 25 -1 16 3 25 0 25 -8 0 -9 4 -9 17 1 15 13 16 11 9
-13 -10 -44 8 -33 33 20 12 26 36 68 52 93 42 65 39 103 -13 178 -23 33 -39
63 -36 67 4 3 19 -13 34 -35 29 -44 34 -48 34 -28 0 17 -139 207 -152 207 -5
0 11 -30 37 -66z"/>
<path d="M2931 1208 c-13 -33 -12 -43 1 -43 6 0 12 15 12 33 1 38 -1 40 -13
10z"/>
<path d="M2586 1134 c-7 -72 -6 -76 22 -112 15 -20 43 -60 60 -88 23 -36 41
-53 60 -57 15 -3 36 -9 46 -13 16 -6 18 -4 13 9 -4 10 -2 16 6 14 7 -1 11 4 9
11 -1 8 2 11 7 8 5 -3 11 -17 13 -30 4 -18 1 -23 -10 -19 -12 5 -12 2 1 -23
19 -39 32 -85 18 -64 -19 27 -13 -11 10 -60 12 -25 27 -83 35 -130 l13 -85 -5
75 c-3 41 -10 95 -16 120 -10 44 -37 193 -40 217 -2 16 -44 25 -82 18 -23 -5
-27 -4 -16 4 13 9 13 11 -1 11 -52 0 -129 119 -129 199 l0 51 25 -16 c35 -23
32 -10 -4 15 l-28 20 -7 -75z"/>
<path d="M795 1165 c37 -59 68 -105 72 -105 6 0 -17 41 -46 80 -34 48 -49 61
-26 25z"/>
<path d="M1520 1170 c-19 -35 2 -51 35 -26 16 12 17 16 6 30 -18 21 -28 20
-41 -4z"/>
<path d="M1838 1158 c-17 -17 -17 -18 12 -18 31 0 39 11 18 27 -9 7 -19 4 -30
-9z"/>
<path d="M2940 1145 c0 -9 53 -65 58 -61 6 7 -38 66 -49 66 -5 0 -9 -2 -9 -5z"/>
<path d="M1658 1123 c23 -2 59 -2 80 0 20 2 1 4 -43 4 -44 0 -61 -2 -37 -4z"/>
<path d="M1872 1072 c-48 -2 -70 -6 -66 -13 4 -8 -52 -9 -187 -4 -136 4 -190
3 -179 -4 13 -9 13 -11 -2 -11 -10 0 -18 5 -18 10 0 6 -16 10 -35 10 -19 0
-35 -2 -35 -5 0 -3 9 -24 20 -46 l21 -39 63 6 c68 7 84 1 169 -56 25 -16 49
-30 53 -30 5 1 27 23 49 50 25 31 48 50 61 50 12 0 37 2 55 5 26 4 30 3 14 -4
-18 -9 -17 -10 8 -10 16 -1 26 3 22 9 -3 5 11 25 32 44 21 19 36 36 33 38 -3
2 -38 2 -78 0z m-190 -66 c5 -8 11 -7 20 2 6 6 23 12 37 12 24 0 23 -2 -19
-45 -49 -50 -65 -55 -73 -24 -3 12 -10 18 -16 14 -6 -3 -11 -1 -11 5 0 6 -4 9
-9 6 -5 -3 -14 1 -21 9 -10 12 -9 16 4 21 9 3 23 1 30 -5 12 -10 13 -8 9 10
-5 19 -3 20 18 14 13 -4 27 -13 31 -19z"/>
<path d="M868 1027 c12 -13 22 -31 22 -40 0 -21 27 -34 42 -19 6 6 3 15 -12
25 -20 14 -21 16 -3 20 15 4 15 5 -3 6 -12 0 -24 8 -28 16 -3 8 -13 15 -22 15
-15 0 -15 -3 4 -23z"/>
<path d="M1260 1026 c0 -8 -5 -16 -12 -18 -7 -3 -4 -12 11 -27 12 -12 20 -29
17 -37 -6 -17 6 -18 21 -3 6 6 9 19 6 28 -5 13 -3 14 8 4 14 -14 39 -17 39 -5
-1 4 -21 22 -45 40 -31 22 -45 28 -45 18z"/>
<path d="M2547 1008 c-7 -24 8 -48 29 -48 16 0 19 26 5 34 -5 4 -12 0 -15 -6
-3 -7 -3 -3 -1 9 3 12 2 24 -3 27 -6 3 -12 -4 -15 -16z"/>
<path d="M472 1001 c-10 -6 -10 -11 3 -21 11 -9 14 -22 10 -39 l-5 -26 19 23
19 22 71 -17 c68 -16 71 -18 71 -46 0 -23 4 -28 22 -25 12 2 23 8 25 15 3 7
-4 9 -18 6 -19 -5 -21 -3 -15 20 5 22 2 27 -29 37 -19 6 -40 8 -46 4 -7 -4 -9
-3 -6 3 7 11 -66 53 -91 53 -10 0 -23 -4 -30 -9z m88 -27 c30 -16 9 -18 -42
-3 -21 5 -38 14 -38 20 0 11 44 2 80 -17z"/>
<path d="M1400 944 c-19 -8 -49 -26 -66 -39 -18 -14 -35 -21 -39 -16 -3 6 3
14 12 20 11 6 13 11 5 11 -7 0 -33 -21 -57 -46 l-45 -46 6 31 c6 27 4 31 -15
31 -25 0 -29 -31 -6 -50 13 -11 14 -15 1 -29 -18 -20 -48 -92 -41 -99 2 -3 8
4 12 14 8 21 83 134 89 134 2 0 -17 -41 -42 -91 -36 -71 -48 -88 -58 -79 -10
8 -15 7 -19 -4 -4 -9 3 -16 19 -19 23 -4 29 3 69 82 49 98 66 117 150 160 81
41 114 47 156 26 65 -34 139 -87 139 -101 0 -17 -5 -17 -31 -3 -11 5 -17 14
-14 20 4 5 2 9 -4 9 -12 0 -18 -20 -25 -85 l-5 -50 11 40 c13 49 14 51 32 36
8 -6 12 -20 9 -30 -3 -11 2 -21 11 -24 11 -4 16 -1 17 11 0 9 4 41 8 69 4 29
5 51 3 48 -3 -2 -43 16 -90 40 -93 49 -133 55 -192 29z"/>
<path d="M2039 910 l-24 -19 40 1 c38 0 39 1 10 8 -30 8 -30 8 8 9 23 1 36 5
32 11 -10 16 -41 12 -66 -10z"/>
<path d="M2014 858 c-5 -8 3 -9 28 -5 21 3 40 1 47 -6 8 -8 11 -7 11 6 0 13
-9 17 -39 17 -22 0 -43 -5 -47 -12z"/>
<path d="M2491 810 c-12 -59 -29 -77 -48 -47 -5 7 -10 -2 -14 -26 -5 -33 -2
-43 19 -64 l25 -25 -24 -19 c-13 -10 -28 -19 -32 -19 -5 0 -49 -27 -97 -60
-49 -32 -104 -65 -122 -73 -18 -8 -40 -22 -48 -32 -14 -17 -14 -18 10 -5 14 7
21 8 15 2 -24 -25 -184 -146 -222 -169 -24 -14 -43 -26 -43 -27 0 -1 12 -1 28
0 15 0 31 -4 35 -10 6 -7 7 -5 4 6 -8 23 31 60 145 134 53 35 120 84 150 107
29 24 84 65 121 90 77 53 90 52 126 -9 12 -20 24 -34 27 -32 9 10 -97 178
-109 172 -7 -3 3 7 20 23 24 21 36 42 44 81 6 29 9 55 6 58 -2 3 -10 -23 -16
-56z"/>
<path d="M2895 800 c2 -25 3 -48 4 -52 1 -5 8 -8 16 -8 11 0 13 4 6 18 -5 9
-14 33 -19 52 l-10 35 3 -45z"/>
<path d="M2057 812 c-21 -24 -22 -48 -1 -56 12 -4 15 -2 10 9 -3 8 -1 26 4 40
11 30 9 31 -13 7z"/>
<path d="M1117 793 c-13 -12 -7 -53 7 -53 18 0 28 27 14 36 -8 5 -5 10 8 15
18 7 18 8 -2 8 -11 1 -24 -2 -27 -6z"/>
<path d="M2609 769 c-9 -17 -8 -20 3 -13 7 5 23 7 36 5 15 -1 22 3 22 13 0 24
-47 20 -61 -5z"/>
<path d="M1553 756 c3 -8 1 -32 -5 -53 -14 -50 -17 -83 -8 -83 6 0 30 110 30
139 0 6 -5 11 -11 11 -6 0 -9 -6 -6 -14z"/>
<path d="M2040 727 c0 -4 10 -7 23 -5 19 3 22 -2 26 -37 2 -31 5 -35 11 -20 4
11 3 32 -2 47 -7 21 -16 27 -34 26 -13 -1 -24 -6 -24 -11z"/>
<path d="M2906 707 c3 -12 7 -22 8 -22 12 0 46 -29 64 -55 22 -33 22 -33 22
-7 0 14 -8 32 -18 39 -10 7 -22 19 -27 27 -6 11 -4 13 11 7 12 -4 15 -4 9 2
-5 5 -25 14 -43 20 -32 11 -33 10 -26 -11z"/>
<path d="M1082 700 c-20 -21 -28 -40 -19 -40 12 0 48 41 45 51 -3 8 -12 4 -26
-11z"/>
<path d="M15 683 c9 -16 38 -53 65 -83 40 -46 50 -52 55 -37 5 12 -9 35 -50
82 -60 68 -101 90 -70 38z"/>
<path d="M2033 704 c10 -3 17 -15 17 -29 0 -12 6 -25 14 -28 10 -4 12 2 7 26
-5 25 -12 32 -31 34 -15 1 -18 0 -7 -3z"/>
<path d="M1026 678 c5 -8 0 -9 -15 -5 -17 4 -21 2 -17 -10 3 -8 6 -19 6 -24 0
-5 10 -4 23 2 26 12 34 49 11 49 -9 0 -12 -5 -8 -12z"/>
<path d="M817 638 c-23 -31 -56 -89 -44 -78 10 9 76 110 72 110 -2 0 -15 -15
-28 -32z"/>
<path d="M1030 619 c-41 -22 -86 -49 -101 -60 -22 -15 -33 -17 -53 -9 -14 5
-26 6 -26 1 0 -16 54 -19 76 -4 13 8 26 14 29 12 10 -3 175 84 175 93 0 16
-26 7 -100 -33z"/>
<path d="M250 621 c-25 -15 -53 -37 -62 -48 -17 -19 -16 -20 73 -37 86 -16
229 -66 257 -88 26 -22 22 1 -4 26 -45 41 -206 106 -251 101 -35 -4 -36 -4 -8
4 17 5 22 9 13 10 -51 3 11 40 70 42 33 1 34 2 12 9 -41 13 -53 11 -100 -19z"/>
<path d="M1630 632 c0 -12 -3 -22 -7 -22 -5 0 -9 -18 -10 -40 -2 -23 1 -39 6
-35 11 6 26 104 17 112 -3 4 -6 -3 -6 -15z"/>
<path d="M0 610 c0 -28 11 -45 59 -94 33 -34 73 -74 88 -91 96 -101 73 -49
-30 68 -39 45 -75 84 -79 85 -5 2 -8 9 -8 15 0 7 -7 21 -15 31 -14 19 -15 18
-15 -14z"/>
<path d="M943 615 c-33 -32 -28 -37 12 -14 19 12 35 25 35 30 0 16 -24 8 -47
-16z"/>
<path d="M2903 585 c0 -33 2 -45 4 -27 2 18 2 45 0 60 -2 15 -4 0 -4 -33z"/>
<path d="M2330 476 c-114 -86 -300 -258 -210 -194 96 68 249 183 278 209 18
16 46 36 63 45 30 15 32 15 58 -10 15 -14 31 -26 36 -26 15 0 -69 69 -85 70
-9 0 -72 -42 -140 -94z"/>
<path d="M140 532 c0 -19 37 -40 80 -46 41 -5 42 -5 12 5 -18 5 -38 18 -45 29
-12 20 -47 28 -47 12z"/>
<path d="M2580 500 c0 -22 45 -90 60 -90 13 0 13 1 0 10 -8 5 -19 26 -25 46
-9 35 -35 60 -35 34z"/>
<path d="M187 459 c7 -7 35 -14 62 -17 50 -4 51 -5 51 -37 0 -19 -6 -36 -12
-38 -8 -3 -6 -6 5 -6 13 -1 17 7 17 38 l0 40 38 -16 c148 -61 206 -104 217
-161 6 -30 8 -34 17 -19 13 24 -46 103 -101 137 -34 21 -38 26 -24 33 13 5 11
6 -6 3 -13 -3 -40 2 -60 10 -35 15 -166 44 -199 44 -12 0 -13 -3 -5 -11z"/>
<path d="M2990 460 c0 -6 -16 -20 -35 -31 -40 -24 -72 -68 -39 -54 11 4 34 13
52 19 27 9 32 16 32 43 0 18 -2 33 -5 33 -3 0 -5 -5 -5 -10z"/>
<path d="M2450 443 c-14 -8 -45 -40 -70 -69 -25 -29 -71 -75 -102 -101 -31
-26 -54 -51 -51 -56 3 -4 51 37 106 92 119 116 151 143 162 133 5 -4 5 -1 1 6
-9 16 -16 15 -46 -5z"/>
<path d="M2075 393 c-83 -56 -195 -112 -358 -177 -162 -66 -170 -68 -212 -57
-54 14 -58 14 -50 1 4 -6 11 -8 16 -5 5 4 9 -1 9 -10 0 -9 6 -15 13 -14 32 4
38 -1 27 -21 -8 -14 -8 -20 0 -20 6 0 118 54 248 121 201 103 299 159 347 201
19 17 -2 7 -40 -19z"/>
<path d="M820 386 c14 -13 28 -22 32 -20 4 3 9 0 12 -5 4 -5 30 -17 59 -27 28
-9 63 -22 77 -29 84 -44 130 -65 130 -60 0 3 12 -1 28 -8 29 -15 120 -30 106
-18 -5 4 -52 23 -104 41 -107 38 -320 127 -334 141 -6 5 -15 9 -20 9 -6 0 1
-11 14 -24z"/>
<path d="M2695 388 c7 -16 63 -53 95 -62 24 -7 24 -6 6 8 -11 9 -25 16 -32 16
-6 0 -17 7 -24 16 -19 22 -51 38 -45 22z"/>
<path d="M2379 291 c-82 -83 -86 -88 -66 -100 17 -11 19 -11 14 3 -5 12 1 20
18 26 14 5 25 16 25 24 0 16 21 26 54 26 12 0 33 11 46 25 13 14 18 25 12 25
-6 0 -18 -9 -26 -21 -16 -23 -36 -18 -36 10 0 10 13 22 36 30 32 12 42 31 18
37 -5 2 -48 -37 -95 -85z"/>
<path d="M2682 354 c2 -10 16 -25 31 -32 15 -7 27 -16 27 -20 0 -9 47 -8 57 1
3 4 -4 7 -16 7 -13 0 -41 14 -63 32 -33 26 -39 28 -36 12z"/>
<path d="M410 343 c31 -3 40 -7 30 -14 -13 -7 -12 -9 2 -9 9 0 24 -10 32 -22
9 -12 19 -19 23 -15 3 4 -2 14 -13 21 -10 8 -19 20 -19 28 0 9 -16 13 -50 14
-49 1 -49 1 -5 -3z"/>
<path d="M0 300 c0 -6 14 -19 32 -28 17 -9 67 -41 110 -69 83 -56 99 -63 77
-37 -11 13 -10 17 5 26 21 12 7 33 -29 42 -13 3 -41 16 -62 29 -66 39 -133 57
-133 37z"/>
<path d="M2490 275 c0 -16 3 -25 7 -22 3 4 15 -1 26 -10 19 -17 20 -17 8 5 -7
12 -9 28 -5 35 4 6 4 9 -1 5 -4 -4 -14 -3 -22 3 -10 9 -13 6 -13 -16z"/>
<path d="M2985 256 c-6 -8 -26 -34 -45 -58 -19 -23 -27 -37 -17 -29 9 7 17 10
17 7 0 -4 14 7 30 24 17 17 30 40 30 50 0 24 -2 24 -15 6z"/>
<path d="M905 240 c3 -5 10 -10 15 -10 5 0 21 -5 37 -12 54 -22 128 -47 138
-47 6 0 -34 18 -89 39 -108 44 -110 45 -101 30z"/>
<path d="M330 227 c0 -21 23 -58 42 -68 19 -10 21 -10 12 2 -6 8 -20 27 -32
43 -12 16 -22 26 -22 23z"/>
<path d="M2545 204 c3 -12 1 -32 -4 -46 -5 -14 -6 -31 -1 -39 7 -11 10 -10 15
3 4 10 4 21 1 27 -4 5 -2 12 4 16 14 9 13 18 -6 41 -15 19 -15 19 -9 -2z"/>
<path d="M0 171 c0 -23 4 -41 8 -41 5 0 46 -22 90 -49 87 -52 123 -53 47 -1
-25 17 -45 33 -45 36 0 9 94 -49 133 -82 26 -22 49 -32 69 -32 18 1 24 4 17 9
-7 4 -16 6 -20 4 -3 -3 -16 7 -29 20 -13 13 -46 36 -73 51 -77 40 -89 47 -114
69 -13 12 -37 29 -53 39 l-30 17 0 -40z"/>
<path d="M1845 201 c3 -5 -4 -13 -16 -16 -12 -4 -76 -33 -143 -65 -158 -75
-158 -75 -188 -49 -29 26 -130 36 -121 12 3 -7 9 -13 14 -13 4 0 23 -14 40
-31 30 -29 33 -30 45 -14 9 12 22 16 39 13 14 -3 25 -2 25 2 0 3 24 12 52 19
60 13 271 128 262 142 -3 5 -7 9 -10 9 -3 0 -3 -4 1 -9z m-366 -130 c12 -21 5
-31 -20 -31 -21 0 -31 24 -16 39 16 16 25 14 36 -8z"/>
<path d="M2276 171 c-3 -5 5 -12 19 -15 14 -4 25 -14 25 -23 0 -9 3 -13 7 -10
3 4 0 18 -7 32 -13 25 -34 33 -44 16z"/>
<path d="M2345 135 c6 -43 1 -55 -30 -73 -25 -14 -1 -16 26 -2 21 12 27 73 9
100 -7 11 -9 4 -5 -25z"/>
<path d="M2214 136 c-11 -11 -36 -33 -54 -47 -22 -16 -30 -28 -23 -32 7 -4 28
7 47 24 20 17 36 26 36 20 0 -11 49 -35 57 -28 8 9 -10 35 -22 31 -7 -3 -15 2
-18 10 -4 9 -2 16 3 16 6 0 10 7 10 15 0 20 -11 17 -36 -9z"/>
<path d="M1100 80 c-18 -5 -21 -9 -10 -13 37 -15 154 -37 190 -35 43 1 47 8 8
12 -47 6 -104 19 -133 31 -17 7 -41 9 -55 5z"/>
<path d="M340 35 c18 -19 35 -33 36 -32 10 10 -12 46 -32 56 -39 18 -40 13 -4
-24z"/>
<path d="M2351 47 c-6 -8 -8 -17 -4 -21 4 -4 -15 -4 -42 -1 -37 5 -55 3 -70
-8 -18 -14 -14 -15 45 -11 98 5 100 6 90 25 -5 9 -6 19 -3 23 3 3 4 6 1 6 -3
0 -11 -6 -17 -13z"/>
<path d="M1005 43 c10 -3 29 -12 42 -20 20 -14 23 -14 23 0 0 8 -13 17 -31 21
-36 7 -64 6 -34 -1z"/>
<path d="M2182 33 c6 -7 16 -13 22 -13 7 0 20 6 29 13 15 10 12 12 -22 12 -30
0 -37 -3 -29 -12z"/>
<path d="M1090 20 c0 -16 11 -18 103 -18 56 0 89 2 72 5 -16 2 -63 10 -102 17
-68 13 -73 12 -73 -4z"/>
<path d="M1340 30 c-11 -7 -3 -10 30 -10 33 0 41 3 30 10 -19 12 -41 12 -60 0z"/>
</g>
</svg>
