<?xml version="1.0" standalone="no"?>
<!DOCTYPE svg PUBLIC "-//W3C//DTD SVG 20010904//EN"
 "http://www.w3.org/TR/2001/REC-SVG-20010904/DTD/svg10.dtd">
<svg version="1.0" xmlns="http://www.w3.org/2000/svg"
 width="300.000000pt" height="300.000000pt" viewBox="0 0 300.000000 300.000000"
 preserveAspectRatio="xMidYMid meet">
<metadata>
Created by potrace 1.10, written by Peter Selinger 2001-2011
</metadata>
<g transform="translate(0.000000,300.000000) scale(0.100000,-0.100000)"
fill="#000000" stroke="none">
<path d="M183 2978 c10 -15 17 -33 17 -41 0 -8 11 -19 25 -25 41 -19 29 -59
-27 -96 -16 -10 -28 -25 -28 -32 0 -8 -5 -14 -12 -14 -6 0 -9 -3 -5 -6 9 -10
75 18 71 30 -2 6 15 31 39 54 48 47 77 49 77 4 l0 -25 25 23 24 23 91 -33 c58
-21 109 -47 138 -71 50 -42 68 -49 53 -21 -17 32 -66 70 -116 91 -58 24 -159
51 -192 51 -12 0 -26 6 -30 13 -4 6 -17 20 -29 29 -20 18 -20 17 -16 -12 2
-17 1 -30 -4 -30 -4 0 -32 26 -62 58 -31 31 -48 45 -39 30z"/>
<path d="M334 2984 c18 -17 47 -16 54 4 2 8 -8 12 -33 12 -33 0 -35 -1 -21
-16z"/>
<path d="M507 2990 c12 -5 58 -46 101 -91 44 -45 85 -80 92 -77 8 2 -23 40
-73 91 -69 69 -92 87 -114 86 -27 0 -27 -1 -6 -9z"/>
<path d="M656 2980 c31 -12 54 -28 57 -39 5 -21 54 -57 64 -48 3 4 -5 15 -17
25 -31 25 -18 45 23 37 26 -6 30 -5 20 6 -12 12 -39 18 -158 34 l-40 5 51 -20z"/>
<path d="M856 2989 c-17 -11 -17 -12 5 -23 19 -9 25 -21 27 -53 2 -31 9 -45
28 -57 20 -14 24 -14 24 -2 0 8 -4 18 -10 21 -5 3 -10 15 -10 25 0 24 -30 100
-39 100 -3 0 -14 -5 -25 -11z"/>
<path d="M1384 2987 c-6 -7 -27 -26 -46 -44 -48 -41 -87 -104 -112 -181 -21
-63 -22 -64 -89 -100 -69 -35 -69 -36 -111 -20 -91 34 -101 -35 -19 -120 7 -7
35 -59 63 -115 55 -109 64 -123 58 -92 -2 13 3 21 17 23 11 2 25 8 31 13 16
13 10 65 -8 87 -38 43 -63 140 -34 129 7 -3 20 3 29 14 24 27 40 24 35 -6 -4
-16 -1 -25 8 -25 7 0 13 8 13 18 1 9 3 35 6 57 4 33 3 37 -6 19 -6 -12 -40
-34 -75 -50 -35 -16 -63 -31 -61 -34 1 -3 19 -39 39 -80 48 -99 55 -130 28
-130 -11 0 -23 0 -27 -1 -4 0 -15 21 -24 48 -23 69 -69 151 -106 191 -54 57
-43 67 31 26 l46 -26 28 24 c15 12 51 34 79 47 45 20 52 28 58 60 8 45 68 160
103 198 15 17 45 42 67 56 36 25 37 27 15 27 -14 -1 -30 -6 -36 -13z"/>
<path d="M1630 2940 c0 -33 4 -60 10 -60 6 0 10 27 10 60 0 33 -4 60 -10 60
-6 0 -10 -27 -10 -60z"/>
<path d="M1864 2966 c82 -58 128 -128 161 -239 13 -46 22 -60 48 -73 18 -9 47
-30 64 -47 l33 -31 47 27 c26 14 49 32 52 39 2 8 -5 5 -17 -5 -11 -11 -36 -20
-54 -20 -28 -2 -35 3 -49 30 -10 21 -19 29 -26 22 -13 -13 -63 26 -63 49 0 9
-13 45 -30 80 -31 67 -31 88 3 95 14 3 10 5 -12 6 -26 1 -49 14 -92 51 -39 34
-66 50 -85 50 -26 0 -25 -2 20 -34z"/>
<path d="M2435 2988 c11 -6 21 -12 23 -14 2 -1 -4 -16 -13 -33 -20 -39 -50
-41 -59 -5 l-7 27 -25 -23 c-31 -30 -30 -36 3 -35 14 0 28 -6 31 -14 3 -10 0
-12 -11 -8 -9 3 -25 -2 -36 -11 -17 -14 -21 -31 -22 -92 -2 -95 -5 -103 -31
-89 -17 9 -20 18 -16 54 4 34 2 42 -8 38 -17 -6 -19 -75 -4 -104 6 -10 17 -19
25 -19 31 0 23 -22 -34 -86 -39 -45 -57 -73 -53 -86 6 -23 19 -23 26 0 7 22
72 92 85 92 16 0 23 -34 36 -201 5 -64 4 -77 -9 -82 -24 -10 -19 -23 13 -37
27 -11 48 -46 31 -52 -13 -5 16 -166 48 -263 l10 -30 1 29 c1 15 -5 54 -13 85
-25 101 -28 118 -16 101 8 -11 9 -7 3 15 -4 17 -8 52 -7 78 1 31 -2 44 -8 35
-5 -8 -7 0 -3 22 3 19 -2 73 -10 120 l-14 85 5 -85 c3 -47 3 -82 -1 -79 -9 10
-34 450 -28 497 6 41 7 42 44 42 41 0 39 4 65 -104 4 -16 15 -31 25 -33 12 -3
19 -14 19 -28 0 -45 79 -199 107 -209 7 -3 29 2 49 10 20 8 39 12 42 9 4 -4
-2 -23 -14 -44 l-20 -37 24 -18 c30 -23 36 -16 35 45 -1 71 -17 85 -68 59 -21
-11 -40 -19 -41 -17 -1 1 -5 12 -8 25 -5 16 -3 24 10 29 16 6 16 7 -1 19 -24
18 -12 44 20 44 37 0 31 11 -25 45 -36 21 -49 35 -46 47 3 14 0 16 -13 9 -13
-7 -24 -1 -48 29 -18 20 -34 48 -35 61 -2 13 -10 35 -18 49 -8 14 -13 28 -12
33 1 4 -2 7 -8 7 -5 0 2 11 16 25 34 34 31 85 -6 85 -24 -1 -24 -1 -5 -12z
m143 -337 c16 -10 12 -53 -5 -58 -15 -5 -36 34 -29 53 6 16 15 17 34 5z"/>
<path d="M2594 2977 c0 -14 4 -23 9 -20 11 7 8 -22 -4 -34 -7 -7 -3 -19 15
-41 14 -16 26 -38 26 -47 0 -14 3 -15 14 -6 31 26 180 -95 192 -158 4 -19 10
-29 16 -23 5 5 5 20 -2 36 -5 15 -10 39 -10 53 0 18 -4 24 -15 19 -24 -9 -41
3 -69 44 -14 21 -36 41 -48 45 -76 21 -117 52 -102 76 11 18 60 9 82 -16 29
-33 47 -32 25 1 -9 15 -33 33 -53 41 -19 8 -45 24 -56 35 l-22 20 2 -25z"/>
<path d="M2802 2967 c48 -37 61 -77 33 -106 -14 -16 -14 -19 0 -31 8 -7 15
-24 15 -39 0 -19 3 -22 9 -12 6 10 11 5 16 -19 11 -48 25 -18 25 55 0 33 7 88
14 123 l14 62 -29 0 c-21 0 -29 -5 -29 -17 0 -15 2 -16 10 -3 7 11 10 4 10
-27 0 -30 -4 -43 -14 -43 -8 0 -12 9 -11 25 2 18 -2 25 -14 25 -10 0 -26 9
-36 20 -10 11 -27 20 -37 20 -14 0 -8 -9 24 -33z m78 -112 c0 -25 -4 -45 -10
-45 -11 0 -13 33 -4 68 10 34 14 27 14 -23z"/>
<path d="M2243 2969 c33 -25 34 -35 5 -45 -21 -6 -21 -7 -4 -20 20 -14 42 -2
44 26 0 8 2 24 4 35 2 16 -4 20 -37 22 l-40 3 28 -21z"/>
<path d="M1773 2961 c-1 -17 27 -35 49 -32 4 0 15 -10 23 -23 14 -21 14 -28 0
-67 -8 -24 -16 -46 -17 -49 -1 -3 2 -27 6 -55 7 -39 10 -46 17 -30 7 18 8 18
9 -5 2 -14 2 -31 1 -39 -2 -7 2 -10 8 -6 6 3 11 1 11 -4 0 -6 -7 -11 -16 -11
-15 0 -16 -10 -10 -84 6 -75 4 -90 -19 -151 -14 -37 -25 -71 -25 -76 0 -19 31
-8 42 16 6 13 14 22 19 20 4 -3 11 0 15 6 4 8 3 9 -4 5 -16 -10 -15 -1 3 33
11 22 13 52 9 126 -4 68 -2 95 5 90 19 -11 12 24 -16 83 -25 53 -26 59 -13
111 20 89 19 106 -7 104 -15 -2 -23 3 -23 12 0 8 -13 21 -30 30 -36 19 -35 19
-37 -4z"/>
<path d="M1422 2939 c-17 -12 -29 -25 -26 -30 3 -5 10 -7 15 -4 5 3 6 -1 3 -9
-8 -22 -21 -20 -27 4 -3 11 -11 20 -17 20 -7 0 -10 -7 -6 -16 3 -9 9 -27 12
-40 6 -23 5 -24 -20 -14 -14 5 -26 6 -26 1 0 -5 11 -12 25 -15 37 -9 37 -64 0
-136 -13 -26 -26 -62 -30 -82 -6 -30 -4 -36 15 -41 17 -4 20 -2 15 14 -7 21
10 27 18 7 2 -7 8 3 12 23 4 21 2 45 -3 56 -8 14 -6 29 7 59 11 24 16 55 13
81 -3 33 1 49 18 70 12 15 24 27 26 26 17 -11 25 1 10 12 -18 14 -17 15 23 13
30 -1 46 -7 57 -22 11 -16 14 -17 14 -4 0 41 -79 57 -128 27z"/>
<path d="M760 2828 c1 -38 2 -41 14 -26 20 27 26 11 26 -65 0 -73 7 -88 12
-24 3 53 24 45 46 -18 10 -29 10 -29 11 -5 1 14 -9 44 -20 65 -12 22 -24 56
-28 75 -5 29 -11 36 -34 38 -26 3 -27 1 -27 -40z"/>
<path d="M1569 2858 c10 -13 26 -18 60 -16 l46 1 -45 4 c-24 3 -51 10 -60 16
-13 11 -13 10 -1 -5z"/>
<path d="M1438 2831 c-18 -16 -30 -32 -27 -35 3 -3 21 10 39 29 41 42 33 46
-12 6z"/>
<path d="M1489 2808 c-19 -29 -44 -66 -54 -83 l-19 -30 22 19 c29 26 94 124
90 137 -2 5 -19 -14 -39 -43z"/>
<path d="M2184 2810 c-1 -24 2 -28 15 -20 23 12 25 50 3 50 -12 0 -17 -9 -18
-30z"/>
<path d="M895 2823 c-24 -6 -44 -23 -27 -23 6 0 14 -16 18 -35 7 -39 24 -38
24 1 0 14 5 34 10 45 11 19 10 20 -25 12z"/>
<path d="M1570 2748 c-18 -29 -51 -72 -74 -95 -22 -24 -37 -46 -33 -50 8 -8
129 118 148 154 9 16 9 27 2 34 -7 7 -20 -6 -43 -43z"/>
<path d="M2963 2755 c-26 -34 -37 -42 -54 -38 -22 6 -22 6 -15 -113 6 -127 13
-172 28 -191 5 -6 11 -35 13 -63 2 -28 7 -64 10 -80 3 -15 2 -31 -4 -34 -10
-6 -41 19 -41 34 0 5 -8 16 -17 26 -15 15 -18 37 -18 135 0 81 -4 122 -12 130
-7 7 -13 21 -13 30 0 10 -8 20 -17 23 -10 4 -28 22 -41 41 -12 19 -29 35 -37
35 -25 0 -17 -17 20 -46 19 -14 35 -32 35 -38 0 -7 11 -27 25 -46 28 -38 35
-96 10 -86 -21 8 -19 -10 6 -44 22 -28 22 -29 3 -57 -29 -45 -27 -61 11 -85
36 -24 42 -33 25 -43 -20 -12 -9 -23 34 -34 62 -15 71 -15 55 6 -12 15 -12 16
8 11 l21 -6 -19 32 c-27 44 -26 130 1 153 11 10 20 24 20 31 0 9 -7 6 -18 -9
-35 -43 -47 -21 -60 110 -13 128 -7 165 28 174 22 6 53 51 48 70 -2 9 -15 -1
-35 -28z"/>
<path d="M711 2763 c-11 -22 -20 -103 -22 -188 -1 -5 4 -41 9 -80 5 -38 7 -88
4 -110 -2 -22 -1 -37 4 -32 6 6 25 426 19 435 -1 1 -7 -10 -14 -25z"/>
<path d="M321 2761 l21 -17 -23 -27 -24 -27 -42 21 c-81 40 -88 -10 -8 -60 30
-19 55 -38 55 -42 0 -14 95 -99 117 -105 23 -6 37 -29 27 -45 -7 -12 -41 -12
-49 0 -3 6 -24 9 -46 9 -22 0 -46 5 -52 11 -15 15 -55 13 -92 -4 l-30 -13 37
-1 c20 -1 39 -5 43 -10 3 -5 21 -7 40 -4 49 8 122 -13 164 -47 32 -27 36 -28
52 -14 17 15 16 20 -22 79 -45 72 -47 81 -16 89 47 12 86 6 101 -16 9 -12 18
-19 22 -15 3 3 -4 19 -17 36 -27 33 -64 40 -95 16 -10 -8 -28 -15 -40 -15 -21
0 -64 38 -64 56 0 6 19 26 43 44 23 19 48 42 55 52 7 10 21 18 30 18 27 0 82
-38 100 -69 17 -30 50 -56 59 -47 10 10 -51 88 -88 113 -37 25 -115 41 -221
48 -56 3 -57 3 -37 -14z m137 -26 c12 -10 9 -16 -13 -31 -15 -11 -38 -29 -52
-41 -29 -27 -31 -28 -55 -6 -24 22 -23 26 13 67 26 30 35 34 62 29 18 -3 38
-11 45 -18z"/>
<path d="M2408 2766 c-10 -7 -15 -16 -11 -20 4 -3 7 -32 8 -64 1 -31 6 -90 10
-130 l8 -74 13 39 c19 54 29 170 16 185 -6 7 -14 27 -19 45 -7 28 -10 30 -25
19z"/>
<path d="M2590 2763 c0 -6 -3 -18 -6 -27 -5 -12 0 -16 20 -16 15 0 29 -7 32
-15 8 -20 22 -19 20 2 -1 12 9 19 29 23 l30 6 -38 13 c-21 7 -44 11 -51 8 -8
-3 -19 0 -25 6 -8 8 -11 8 -11 0z"/>
<path d="M1623 2749 c-7 -7 -13 -19 -13 -26 0 -7 -4 -13 -9 -13 -16 0 -104
-123 -123 -173 -11 -29 -22 -85 -25 -125 -7 -86 -23 -101 -60 -58 -13 15 -28
26 -33 24 -18 -6 40 -58 64 -58 34 0 49 24 42 63 -7 39 7 127 22 136 6 4 24
37 41 74 17 37 37 70 46 73 8 3 15 13 15 21 0 8 5 11 10 8 6 -3 10 -1 10 5 0
6 5 8 10 5 6 -4 7 -12 4 -18 -5 -9 -4 -9 5 -1 7 6 11 26 9 43 -2 26 -5 30 -15
20z"/>
<path d="M1651 2712 c-1 -24 3 -41 8 -37 11 6 47 -37 56 -66 7 -20 25 -26 25
-8 0 6 -15 31 -32 57 -18 26 -38 58 -45 72 -11 24 -11 23 -12 -18z"/>
<path d="M1696 2718 c5 -7 21 -33 37 -56 17 -24 38 -74 47 -110 10 -37 19 -56
19 -43 2 42 -22 104 -61 164 -21 31 -41 57 -44 57 -3 0 -2 -6 2 -12z"/>
<path d="M777 2673 c-4 -3 -7 -62 -7 -130 0 -122 0 -123 36 -190 20 -37 41
-71 47 -75 9 -6 8 -8 -1 -8 -7 0 -11 -4 -8 -9 3 -4 0 -16 -8 -26 -11 -16 -15
-14 -38 26 -14 24 -28 53 -30 64 -3 11 -8 -29 -12 -90 -3 -60 -9 -137 -11
-170 -3 -47 -2 -52 4 -22 8 36 17 55 25 46 9 -11 -16 -169 -47 -299 -42 -171
-44 -184 -33 -272 13 -109 29 -71 21 51 -5 86 -3 113 9 144 9 20 13 37 9 37
-4 0 -2 5 5 12 7 7 12 21 12 33 0 11 10 56 21 100 20 79 29 220 16 242 -4 6
-1 13 8 15 12 2 11 10 -7 45 -12 24 -19 46 -15 50 11 10 36 -28 37 -54 0 -32
11 -28 38 12 13 21 22 50 22 72 0 22 -4 33 -8 26 -5 -8 -22 19 -45 71 -36 83
-37 84 -32 195 2 61 3 111 1 111 -1 0 -6 -3 -9 -7z"/>
<path d="M1975 2638 c9 -38 25 -72 31 -65 3 3 -2 22 -10 42 -9 20 -13 41 -10
46 3 5 0 9 -6 9 -8 0 -9 -11 -5 -32z"/>
<path d="M140 2629 c0 -6 -9 -9 -20 -6 -26 7 -25 1 5 -35 26 -31 32 -48 15
-48 -5 0 -10 -9 -10 -20 0 -10 -8 -24 -17 -30 -16 -10 -16 -10 2 -8 14 2 20
-2 19 -14 -1 -10 0 -18 2 -18 6 0 25 40 29 62 3 11 12 27 22 34 17 14 17 14
-2 12 -17 -3 -20 4 -23 40 -2 23 -7 42 -13 42 -5 0 -9 -5 -9 -11z"/>
<path d="M2044 2601 c3 -18 6 -53 6 -77 0 -59 15 -56 27 5 9 45 8 52 -14 78
l-24 28 5 -34z"/>
<path d="M1620 2613 c5 -2 7 -15 4 -27 -3 -13 -6 -47 -7 -77 -2 -48 -4 -54
-22 -51 -17 2 -18 1 -4 -7 12 -8 15 -21 12 -52 -3 -27 -1 -39 6 -34 7 4 8 0 4
-11 -4 -11 -2 -15 4 -11 6 4 13 16 16 28 4 15 2 19 -10 15 -9 -4 -13 -1 -10 6
2 7 10 12 16 11 7 -2 10 29 8 104 -1 76 -6 107 -15 109 -7 1 -8 0 -2 -3z"/>
<path d="M612 2490 c-42 -56 -51 -71 -25 -45 21 23 48 54 61 70 l22 30 -15
-38 c-8 -21 -32 -59 -54 -85 -22 -25 -37 -49 -34 -52 3 -3 8 1 10 8 3 6 9 10
14 6 5 -3 9 1 9 8 0 12 35 47 68 67 9 5 12 26 10 62 l-3 54 -63 -85z"/>
<path d="M1330 2522 c0 -40 30 -132 43 -132 2 0 -3 30 -11 66 -12 50 -13 69
-5 84 10 15 9 19 -8 23 -17 5 -19 0 -19 -41z"/>
<path d="M1954 2556 c-3 -8 -4 -27 -2 -43 2 -22 9 -29 31 -31 26 -3 37 11 18
22 -4 3 -11 19 -14 36 -7 32 -24 40 -33 16z"/>
<path d="M2134 2552 c-14 -8 -61 -100 -80 -155 -24 -68 8 -37 41 40 17 39 38
82 48 97 17 25 13 33 -9 18z"/>
<path d="M1277 2523 c4 -11 3 -14 -5 -9 -7 4 -12 2 -12 -4 0 -7 -7 -10 -15 -6
-8 3 -15 1 -15 -4 0 -11 21 -13 44 -4 17 7 22 44 6 44 -5 0 -6 -7 -3 -17z"/>
<path d="M2510 2500 c0 -5 5 -12 10 -15 6 -3 10 -11 10 -16 0 -6 -4 -8 -8 -5
-4 2 -8 -4 -8 -15 0 -11 5 -17 11 -15 5 2 9 10 7 17 -2 8 8 3 22 -10 14 -13
23 -29 19 -35 -3 -6 -2 -8 2 -4 5 5 23 -9 41 -29 25 -28 30 -40 22 -50 -7 -9
-7 -13 0 -13 14 0 27 41 16 49 -5 3 -39 38 -76 78 -38 39 -68 67 -68 63z"/>
<path d="M744 2380 c0 -63 1 -89 3 -57 2 31 2 83 0 115 -2 31 -3 5 -3 -58z"/>
<path d="M2148 2414 c-16 -26 -33 -42 -39 -39 -6 4 -5 -2 3 -14 l13 -21 12 24
c12 23 14 24 60 12 40 -10 49 -16 51 -37 3 -23 0 -25 -26 -21 -20 3 -31 -1
-35 -12 -4 -9 -2 -16 3 -16 6 0 10 4 10 8 0 4 9 8 20 9 11 1 20 -2 20 -7 0 -4
7 -11 16 -14 14 -5 15 -4 5 8 -9 11 -9 17 2 27 11 11 11 20 2 42 -6 15 -14 25
-17 21 -4 -3 -23 0 -43 7 -32 12 -35 16 -30 41 4 15 5 28 3 28 -2 0 -15 -21
-30 -46z"/>
<path d="M2473 2405 c1 -30 -1 -55 -5 -55 -4 0 -2 -15 4 -32 6 -18 14 -51 19
-73 7 -33 7 -28 4 24 -3 35 -5 93 -5 127 0 35 -4 64 -9 64 -5 0 -8 -25 -8 -55z"/>
<path d="M1790 2424 c0 -14 -4 -34 -10 -44 -7 -12 -6 -21 3 -28 9 -8 12 -4 12
16 0 15 4 39 8 55 5 16 3 27 -3 27 -5 0 -10 -12 -10 -26z"/>
<path d="M139 2413 c0 -15 -2 -39 -4 -53 -2 -14 -1 -44 2 -68 5 -37 7 -41 18
-25 9 12 10 25 4 41 -12 30 -12 99 0 104 5 2 3 9 -5 16 -12 11 -14 8 -15 -15z"/>
<path d="M213 2392 c-7 -5 -2 -18 17 -41 27 -32 50 -35 50 -5 0 8 -9 14 -20
14 -11 0 -24 9 -28 20 -4 11 -12 16 -19 12z"/>
<path d="M1981 2371 c10 -21 9 -23 -4 -18 -10 4 -25 -5 -42 -24 -14 -17 -40
-35 -59 -40 -34 -9 -131 -87 -121 -97 2 -3 13 2 24 12 10 9 29 19 42 21 20 3
14 -5 -29 -45 -51 -48 -70 -62 -57 -40 3 6 2 10 -4 10 -14 0 -51 -73 -51 -100
0 -29 14 -25 44 13 39 48 147 154 181 179 33 23 99 97 75 83 -11 -6 -10 -3 2
11 16 19 16 22 2 40 -14 18 -14 18 -3 -5z"/>
<path d="M967 2353 c4 -11 3 -14 -5 -9 -7 4 -12 2 -12 -3 0 -6 -9 -11 -20 -11
-44 0 -17 -18 36 -23 30 -3 66 -13 80 -22 44 -29 23 -1 -31 42 -30 23 -51 35
-48 26z"/>
<path d="M405 2294 c-46 -34 -49 -35 -110 -29 -114 13 -149 -23 -44 -45 57
-12 63 -12 100 9 21 12 39 20 39 16 0 -3 17 6 37 20 21 14 43 25 50 25 6 0 15
5 18 11 5 7 -5 8 -32 4 -36 -7 -37 -6 -18 9 11 8 17 16 13 16 -3 0 -28 -16
-53 -36z"/>
<path d="M1457 2289 c-10 -6 -26 -8 -35 -5 -9 3 -3 -4 13 -16 17 -13 45 -39
62 -58 18 -19 33 -30 33 -24 0 6 -9 19 -21 30 -11 10 -25 26 -30 36 -15 27 32
14 59 -18 13 -14 25 -24 28 -21 7 6 -70 87 -82 87 -5 0 -17 -5 -27 -11z"/>
<path d="M1702 2279 c-47 -30 -40 -54 9 -29 27 15 25 0 -11 -63 -44 -78 -37
-92 11 -20 22 35 54 72 71 84 32 23 28 30 -22 42 -16 4 -36 -1 -58 -14z"/>
<path d="M934 2279 c-18 -5 -34 -16 -38 -24 -7 -18 2 -18 34 0 37 21 48 18 65
-16 13 -25 19 -28 31 -18 21 18 17 36 -11 43 -14 4 -25 11 -25 16 0 12 -14 11
-56 -1z"/>
<path d="M1359 2283 c14 -3 45 -24 70 -48 25 -24 47 -42 50 -40 2 2 -18 25
-45 49 -33 30 -57 45 -74 44 l-25 -1 24 -4z"/>
<path d="M2439 2254 c-6 -21 3 -113 22 -222 18 -100 21 -65 5 54 -9 60 -17
127 -18 149 -2 28 -5 34 -9 19z"/>
<path d="M698 2250 c-3 -8 -6 -22 -7 -30 0 -8 -2 -42 -5 -75 l-6 -60 15 50
c14 47 17 148 3 115z"/>
<path d="M2756 2238 c3 -4 -1 -8 -9 -8 -8 0 -21 -8 -28 -17 -11 -15 -11 -16 1
-5 21 18 53 15 73 -8 9 -11 17 -22 17 -25 0 -12 -44 -43 -54 -38 -6 3 -8 2 -3
-2 4 -5 -5 -22 -20 -37 -37 -39 -8 -28 66 24 30 21 63 38 73 38 10 0 18 4 18
10 0 13 -38 32 -50 25 -6 -3 -10 -1 -10 5 0 6 -3 9 -8 6 -10 -6 -45 21 -39 31
3 5 -3 9 -13 9 -10 0 -16 -4 -14 -8z"/>
<path d="M138 2234 c-5 -4 -8 -23 -8 -43 1 -30 2 -33 11 -18 11 19 8 73 -3 61z"/>
<path d="M1617 2229 c-16 -9 -16 -11 -1 -27 13 -12 15 -28 11 -72 -4 -30 -2
-62 3 -70 7 -11 10 0 10 36 0 28 3 72 6 98 7 47 2 53 -29 35z"/>
<path d="M1879 2131 c-47 -47 -93 -100 -102 -117 -9 -17 -29 -37 -46 -44 -16
-6 -36 -19 -44 -28 -18 -20 -39 -112 -25 -112 10 0 12 6 28 67 8 31 19 47 40
58 35 18 44 19 34 3 -4 -7 -3 -8 4 -4 6 4 9 12 7 19 -5 14 74 129 94 135 8 3
2 -12 -14 -34 -23 -32 -20 -30 15 9 44 50 110 141 98 136 -2 -1 -42 -40 -89
-88z"/>
<path d="M201 2154 c-66 -45 -111 -84 -111 -97 0 -6 10 -1 23 10 23 20 86 50
99 45 4 -1 23 9 43 22 30 21 41 23 64 15 37 -13 91 -66 91 -90 0 -10 5 -21 11
-25 8 -4 9 1 4 17 -19 65 -44 100 -71 98 -3 0 -11 7 -18 17 -9 11 -21 15 -39
12 -15 -3 -24 -1 -21 3 12 20 -25 7 -75 -27z"/>
<path d="M2177 2173 c-23 -24 -75 -90 -112 -142 -58 -82 -107 -143 -111 -138
-4 4 36 104 56 139 12 22 13 38 2 38 -5 0 -26 -33 -47 -72 -20 -40 -42 -79
-47 -85 -26 -32 -78 4 -78 54 0 25 49 88 50 62 0 -8 -5 -20 -12 -27 -7 -7 -9
-12 -6 -12 4 0 14 7 23 16 11 12 13 20 5 29 -8 9 0 19 30 39 22 14 40 32 40
39 0 8 -3 8 -8 1 -4 -5 -24 -20 -44 -33 -36 -22 -76 -66 -114 -126 l-18 -30
20 18 c20 17 21 16 33 -10 12 -26 10 -30 -31 -66 -39 -34 -40 -37 -12 -23 17
8 34 22 37 31 7 17 77 22 77 5 0 -5 7 -7 15 -4 23 9 18 0 -24 -45 -53 -56 -86
-65 -152 -40 -29 11 -61 18 -73 16 -44 -8 55 -39 125 -39 87 -1 116 17 190
117 32 44 78 107 103 140 42 57 109 165 102 165 -1 0 -10 -8 -19 -17z"/>
<path d="M855 2139 c13 -44 87 -204 95 -207 5 -2 14 -18 20 -37 10 -31 40 -57
40 -35 0 6 -4 10 -9 10 -5 0 -12 13 -16 28 -3 16 -23 58 -44 95 -21 36 -47 86
-56 111 -19 49 -43 76 -30 35z"/>
<path d="M2870 2110 c0 -5 6 -13 13 -17 8 -4 16 -16 20 -25 3 -10 11 -18 17
-18 17 0 24 30 11 43 -9 9 -11 7 -6 -8 4 -11 -1 -8 -10 8 -15 26 -45 38 -45
17z"/>
<path d="M948 2102 c-31 -4 -35 -14 -13 -32 17 -14 55 -4 55 15 0 18 -9 21
-42 17z"/>
<path d="M2240 2095 c-10 -12 -10 -15 4 -15 10 0 2 -13 -24 -36 -46 -41 -53
-63 -13 -37 17 11 24 13 19 4 -5 -7 -24 -20 -43 -28 -19 -8 -37 -23 -40 -34
-8 -29 -20 -23 -34 16 l-13 36 -17 -33 c-20 -39 -12 -61 30 -82 27 -14 31 -13
74 14 25 16 50 37 56 47 27 46 28 48 48 33 15 -12 16 -12 6 0 -18 20 -16 30 5
30 11 0 25 14 35 35 35 74 10 76 -37 3 -46 -71 -119 -146 -151 -154 -31 -8
-77 29 -68 53 5 12 9 9 20 -11 16 -31 20 -31 53 -9 49 32 92 79 116 125 13 25
29 48 36 51 7 3 -1 6 -18 6 -17 1 -37 -6 -44 -14z"/>
<path d="M2770 2045 c-14 -17 -6 -65 11 -65 6 0 9 7 5 15 -7 19 3 45 18 45 6
0 22 -9 36 -20 20 -15 22 -22 13 -31 -10 -10 -14 -9 -19 4 -3 9 -10 17 -15 17
-5 0 -4 -9 3 -20 11 -17 10 -22 -2 -30 -13 -8 -13 -10 1 -10 19 0 69 37 69 51
0 6 -11 21 -25 34 -27 28 -76 33 -95 10z"/>
<path d="M345 2043 c-11 -3 -28 -12 -39 -22 -10 -9 -20 -14 -23 -13 -3 2 -8 0
-11 -4 -4 -4 -1 -4 6 0 8 5 12 0 12 -13 0 -17 3 -16 29 10 35 34 67 38 76 8 9
-28 1 -34 -19 -13 -9 9 -19 14 -22 11 -9 -9 6 -27 22 -27 37 0 -1 -49 -46 -60
l-35 -8 37 -1 c43 -1 78 34 78 79 0 23 -27 63 -41 59 -2 -1 -13 -4 -24 -6z"/>
<path d="M1647 2040 c-17 -50 -32 -240 -17 -205 5 11 9 42 9 69 1 34 7 56 20
70 16 18 17 25 5 51 -8 21 -14 25 -17 15z"/>
<path d="M60 2030 c0 -5 -12 -10 -27 -11 -26 0 -27 -1 -9 -12 11 -7 36 -30 55
-52 70 -78 123 -130 114 -113 -4 9 -28 38 -53 65 -59 62 -81 98 -74 117 3 9 3
16 0 16 -3 0 -6 -4 -6 -10z"/>
<path d="M966 2028 c25 -41 74 -92 107 -109 36 -19 48 -32 26 -26 -6 1 -14 -4
-16 -10 -8 -22 35 -15 47 7 6 11 7 20 3 19 -20 -3 -24 2 -12 19 11 14 11 15
-1 5 -22 -20 -38 -15 -54 15 -8 15 -26 33 -40 40 -18 8 -24 17 -20 29 5 15 4
16 -5 3 -9 -13 -11 -13 -11 3 0 9 -7 17 -16 17 -9 0 -12 -5 -8 -12z"/>
<path d="M2738 2034 c-5 -4 -8 -22 -8 -40 0 -39 29 -63 88 -75 l37 -7 -43 -1
c-34 -1 -48 4 -70 26 -15 15 -30 27 -34 25 -5 -1 -8 8 -9 21 -1 21 -1 21 -9
-3 l-8 -25 -1 28 c-1 20 5 30 22 37 16 6 18 9 5 9 -23 1 -50 -41 -41 -65 5
-14 78 -140 88 -152 1 -1 13 2 26 7 19 8 20 10 5 10 -13 1 -17 6 -13 22 4 15
2 18 -6 10 -9 -7 -17 -1 -30 21 -17 30 -17 30 5 23 13 -4 40 -9 60 -12 31 -4
41 -1 63 22 14 16 25 37 25 48 0 20 0 20 -20 -1 -12 -12 -31 -22 -44 -22 -35
0 -74 36 -78 71 -2 17 -6 27 -10 23z"/>
<path d="M2963 2022 c-14 -2 -20 -8 -16 -18 3 -7 9 -11 14 -8 5 3 9 -1 9 -8 0
-8 5 -6 11 5 14 24 8 33 -18 29z"/>
<path d="M431 1987 c-1 -10 -8 -32 -17 -50 l-17 -32 22 19 c11 11 21 14 21 9
0 -18 -23 -30 -68 -37 -41 -6 -88 7 -78 22 2 4 -2 16 -10 27 -14 18 -14 18
-14 -2 0 -11 9 -32 21 -47 17 -22 28 -26 73 -26 38 0 59 5 75 19 12 11 22 22
21 25 0 4 7 20 15 36 9 17 13 35 10 40 -10 17 -35 11 -36 -7 0 -15 -2 -15 -9
2 -8 18 -9 18 -9 2z"/>
<path d="M2456 1945 c12 -91 59 -255 95 -334 22 -46 42 -82 45 -79 3 3 -6 29
-20 57 -15 28 -44 115 -66 193 -22 79 -44 157 -50 173 -8 27 -8 26 -4 -10z"/>
<path d="M0 1964 c0 -11 121 -125 154 -145 17 -10 38 -19 46 -19 8 0 0 8 -18
18 -17 9 -66 48 -107 85 -41 38 -75 65 -75 61z"/>
<path d="M476 1897 c-35 -75 -38 -87 -20 -80 8 3 14 11 14 19 0 7 6 17 13 21
16 9 28 38 33 76 6 44 -9 31 -40 -36z"/>
<path d="M865 1910 c3 -25 17 -78 32 -117 22 -58 31 -72 44 -68 10 3 20 1 24
-6 4 -6 21 -17 39 -24 l31 -14 -46 -12 c-37 -10 -52 -21 -73 -53 -14 -22 -26
-47 -26 -55 0 -19 8 -10 28 31 14 27 28 37 77 53 33 11 73 29 89 40 17 11 46
19 71 20 32 0 47 6 61 23 17 20 22 22 51 12 18 -7 40 -10 50 -7 13 3 8 9 -21
21 -55 25 -194 19 -210 -8 -28 -46 -28 -46 -84 -24 -58 22 -73 44 -119 168
-23 64 -23 64 -18 20z m326 -174 c-6 -7 -23 -13 -36 -13 -23 0 -24 1 -8 13 10
7 26 14 37 14 14 0 16 -3 7 -14z"/>
<path d="M1155 1939 c4 -8 19 -29 32 -47 28 -37 26 -89 -3 -78 -21 8 -34 -1
-28 -18 7 -18 74 12 74 34 0 19 -52 104 -71 115 -8 6 -10 4 -4 -6z"/>
<path d="M2335 1873 c-33 -92 -45 -107 -108 -140 l-48 -24 -27 29 -27 28 31
15 c21 10 36 12 46 5 24 -14 50 0 46 26 -4 28 -45 38 -54 13 -13 -34 -64 -49
-157 -46 -49 1 -104 -3 -124 -10 -31 -10 -33 -13 -20 -26 12 -13 21 -13 48 -4
42 14 49 14 49 -3 0 -8 -22 -27 -50 -42 -44 -24 -52 -33 -50 -60 1 -3 -26 -19
-58 -34 -69 -32 -84 -49 -57 -64 10 -6 45 -34 79 -61 92 -75 108 -84 41 -22
-33 31 -75 64 -92 74 -18 10 -33 20 -33 23 0 4 31 21 70 40 38 18 66 38 63 43
-4 6 1 8 11 4 9 -4 14 -3 11 2 -3 5 3 12 14 16 11 3 36 19 56 35 44 35 69 37
127 11 24 -11 77 -30 118 -43 67 -20 77 -27 96 -62 12 -21 24 -34 27 -29 8 12
-44 87 -62 91 -8 2 -30 10 -50 18 -35 15 -35 16 -16 30 18 14 22 13 42 -11 28
-32 40 -33 19 0 -21 32 -20 37 7 33 15 -2 23 -11 25 -28 5 -34 22 -51 22 -22
0 13 -7 33 -16 47 -11 16 -13 29 -6 42 12 23 45 173 39 179 -2 2 -17 -31 -32
-73z"/>
<path d="M2977 1920 c-9 -11 -12 -20 -7 -20 6 0 9 -5 8 -11 -2 -6 3 -14 9 -16
9 -3 12 7 11 31 -1 20 -2 36 -2 36 -1 0 -9 -9 -19 -20z"/>
<path d="M2562 1848 c10 -45 18 -61 18 -36 0 30 -13 78 -20 78 -4 0 -4 -19 2
-42z"/>
<path d="M2022 1841 l-24 -6 21 -19 c23 -21 54 -15 49 11 -4 20 -15 23 -46 14z"/>
<path d="M1020 1831 c0 -5 -9 -11 -21 -14 -27 -7 -22 -41 7 -45 24 -3 57 29
37 35 -7 2 -9 11 -6 19 3 8 0 14 -6 14 -6 0 -11 -4 -11 -9z"/>
<path d="M2910 1819 c-113 -12 -230 -30 -272 -40 -33 -9 -38 -14 -38 -39 0
-34 36 -67 86 -76 27 -5 39 -1 65 20 17 14 35 26 40 26 12 0 11 -34 -2 -47 -7
-7 0 -7 25 1 19 6 30 13 25 17 -5 3 -7 13 -3 22 3 10 1 24 -6 32 -9 10 -9 15
-1 15 6 0 11 10 11 23 0 14 3 18 8 10 4 -7 36 -13 72 -15 l65 -3 6 -35 c5 -27
7 -19 8 33 0 37 -2 66 -6 66 -5 -1 -42 -5 -83 -10z m-132 -56 c2 -14 -7 -29
-31 -47 -19 -14 -36 -26 -38 -26 -3 0 -5 12 -4 28 0 22 -4 26 -22 24 -13 -2
-23 2 -23 7 0 6 -6 11 -12 11 -7 -1 -2 -9 10 -20 13 -11 22 -25 20 -31 -2 -7
-15 -2 -33 13 -33 29 -27 48 18 49 18 1 43 5 57 9 37 12 55 7 58 -17z"/>
<path d="M2598 1798 c-16 -5 -28 -14 -28 -20 0 -7 4 -7 13 0 7 6 35 15 62 20
43 8 45 10 15 10 -19 0 -47 -4 -62 -10z"/>
<path d="M350 1779 c-30 -4 -85 -7 -122 -8 -93 -1 -228 -33 -228 -53 0 -12 85
-2 155 18 28 8 98 17 158 21 l107 6 0 -26 c0 -25 -4 -27 -42 -28 l-43 -2 50
-6 c28 -3 61 -14 75 -24 15 -10 43 -17 71 -17 37 0 52 5 73 26 30 30 33 49 10
58 -11 4 -14 1 -10 -12 9 -26 -21 -50 -69 -57 -43 -6 -81 8 -99 37 -16 26 3
39 63 42 76 4 74 16 -3 16 -37 0 -65 4 -62 8 6 10 -15 10 -84 1z"/>
<path d="M1729 1736 c14 -17 51 -28 51 -15 0 5 -12 14 -26 19 -34 13 -39 13
-25 -4z"/>
<path d="M1430 1721 c0 -11 -4 -23 -10 -26 -5 -3 -10 1 -10 10 0 10 -7 15 -17
13 -27 -5 -22 -32 6 -36 17 -3 30 4 42 20 14 18 20 21 30 11 10 -10 10 -13 1
-13 -7 0 -12 -4 -12 -10 0 -18 19 -10 25 11 8 24 8 24 -27 33 -23 5 -28 3 -28
-13z"/>
<path d="M1796 1732 c-3 -6 -2 -13 4 -17 6 -4 8 -10 6 -14 -7 -11 35 -11 55 0
10 5 16 15 13 23 -6 15 -35 16 -46 1 -5 -6 -11 -5 -17 4 -5 8 -11 9 -15 3z"/>
<path d="M1600 1719 c0 -9 -9 -24 -20 -34 -11 -10 -17 -22 -14 -26 3 -5 0 -9
-7 -9 -7 0 -9 -3 -6 -6 3 -4 -9 -25 -28 -47 -42 -49 -38 -60 8 -21 47 41 90
120 78 142 -9 15 -10 15 -11 1z"/>
<path d="M1230 1701 c0 -5 -6 -11 -12 -14 -7 -2 -5 -3 5 -1 12 2 17 -2 13 -11
-3 -8 0 -17 6 -21 6 -4 8 -3 4 4 -3 6 -2 13 3 17 12 7 62 -35 56 -46 -3 -4 31
-28 75 -54 l79 -46 -73 -72 c-40 -40 -76 -82 -80 -95 -4 -12 -12 -20 -17 -17
-16 11 -9 -21 10 -43 25 -30 27 -28 23 16 -3 33 2 45 41 93 25 29 61 69 81 88
l37 33 -73 42 c-59 33 -72 45 -70 63 2 15 -4 23 -20 29 -13 4 -34 15 -47 25
-26 21 -41 24 -41 10z"/>
<path d="M1630 1684 c0 -10 53 -75 58 -70 6 7 -38 76 -49 76 -5 0 -9 -3 -9 -6z"/>
<path d="M2020 1686 c0 -10 131 -86 147 -86 15 0 15 2 3 9 -8 6 -18 7 -22 5
-4 -3 -8 2 -8 10 0 14 -12 20 -32 17 -5 0 -8 4 -8 11 0 6 -3 8 -7 5 -3 -4 -13
-1 -22 6 -16 14 -51 29 -51 23z"/>
<path d="M1150 1653 c-14 -10 -51 -32 -82 -48 l-57 -31 30 -18 c31 -18 31 -18
21 0 -9 17 -4 22 40 44 28 14 57 35 66 48 17 27 14 27 -18 5z"/>
<path d="M2798 1644 c-16 -8 -28 -17 -28 -20 0 -2 9 0 20 6 21 11 40 6 40 -11
0 -5 -6 -9 -14 -9 -7 0 -16 -10 -19 -22 -8 -30 0 -36 17 -12 8 10 18 16 22 11
10 -10 -28 -38 -43 -32 -7 2 -13 0 -13 -5 0 -14 -15 -12 -58 5 -29 13 -34 18
-22 25 13 9 13 10 0 10 -9 0 -21 -5 -27 -11 -7 -7 -10 -4 -9 13 1 19 6 23 34
22 17 -1 29 2 26 7 -8 13 -58 11 -72 -3 -7 -7 -12 -23 -12 -36 0 -18 10 -27
43 -41 68 -30 112 -33 133 -10 22 25 30 24 38 -3 4 -18 8 -20 18 -10 13 13 21
45 9 38 -4 -3 -14 11 -23 30 -9 19 -13 36 -9 39 4 2 25 0 47 -4 104 -22 104
-22 104 3 0 29 -21 36 -110 35 -38 0 -76 -6 -92 -15z"/>
<path d="M287 1633 c-71 -11 -263 -75 -281 -93 -13 -13 -7 -16 34 -24 26 -5
31 -4 20 3 -12 8 -7 11 20 12 19 1 38 1 42 0 5 0 8 5 8 13 0 7 15 19 33 26 17
6 39 15 48 20 8 4 50 14 93 21 63 10 79 10 86 -1 6 -10 10 -9 16 3 5 8 20 17
34 19 15 2 3 6 -28 9 -29 2 -85 -1 -125 -8z"/>
<path d="M771 1574 c-1 -67 2 -83 15 -88 15 -6 16 1 11 54 -3 35 -1 58 4 54
11 -6 11 4 -1 31 -9 20 -9 20 -10 0 -2 -17 -3 -16 -10 5 -6 17 -8 0 -9 -56z"/>
<path d="M1618 1630 c-12 -39 -10 -76 3 -63 6 6 9 28 7 49 -3 35 -4 36 -10 14z"/>
<path d="M520 1621 c72 -13 37 -81 -41 -81 -26 0 -47 8 -70 27 -25 22 -30 23
-21 7 20 -38 84 -58 136 -42 34 11 46 29 46 76 0 20 -5 22 -42 21 l-43 -2 35
-6z"/>
<path d="M2200 1570 c0 -5 6 -10 13 -13 9 -3 7 -13 -7 -41 -21 -40 -18 -51 12
-42 14 5 18 13 14 31 -4 21 -1 25 21 25 14 0 27 5 29 11 3 9 9 9 25 0 12 -6
30 -11 40 -11 12 1 6 7 -17 19 -37 19 -130 34 -130 21z"/>
<path d="M1546 1551 c-15 -17 -15 -19 -1 -25 41 -15 62 7 32 33 -11 8 -18 6
-31 -8z"/>
<path d="M1647 1563 c-15 -14 -6 -33 16 -33 30 0 40 10 26 27 -12 14 -32 17
-42 6z"/>
<path d="M903 1534 c-55 -27 -86 -54 -61 -54 8 0 18 4 24 9 13 14 103 61 116
61 7 0 7 -4 -1 -14 -9 -11 -6 -12 14 -8 18 3 25 0 25 -12 0 -9 4 -16 9 -16 18
0 20 17 5 38 -20 29 -65 28 -131 -4z"/>
<path d="M584 1539 c-3 -6 -27 -20 -51 -31 -25 -11 -43 -22 -40 -24 7 -7 94
35 108 52 7 9 8 14 1 14 -6 0 -14 -5 -18 -11z"/>
<path d="M2170 1535 c-7 -9 -10 -28 -6 -47 3 -18 8 -44 10 -58 7 -36 -12 -101
-37 -129 -33 -35 -79 -51 -149 -50 -86 0 -128 17 -154 59 -12 19 -35 47 -51
63 l-28 27 26 0 c32 0 74 -40 91 -86 14 -40 32 -40 36 0 3 21 0 26 -9 20 -9
-5 -10 -2 -6 10 4 9 3 14 -2 11 -5 -3 -12 4 -16 14 -3 11 -22 30 -41 42 -30
18 -39 20 -62 9 -25 -11 -30 -8 -88 52 l-62 64 -33 -36 c-18 -19 -72 -76 -121
-126 -48 -50 -88 -94 -88 -98 0 -3 15 -6 33 -6 17 0 47 -4 65 -9 25 -8 32 -7
29 2 -2 7 -20 13 -41 15 l-38 3 24 23 c13 12 28 31 34 42 7 10 15 16 18 13 4
-4 22 -78 41 -166 42 -195 73 -299 86 -286 13 13 66 198 78 273 21 127 9 138
-14 15 -9 -43 -19 -83 -24 -89 -5 -6 -12 -27 -16 -46 -16 -83 -20 -65 -25 110
l-6 185 -2 -190 c-3 -193 -10 -211 -31 -80 -6 39 -24 112 -40 164 -16 51 -26
101 -23 111 12 29 76 109 89 110 6 0 18 -9 26 -20 8 -11 16 -17 19 -14 11 10
68 -84 62 -100 -3 -9 -10 -16 -15 -16 -4 0 -6 -7 -3 -15 9 -23 24 -18 24 9 0
38 17 40 36 5 16 -31 16 -33 -7 -50 -19 -14 -22 -20 -11 -30 10 -11 12 -10 12
1 0 7 7 22 17 32 15 17 18 16 50 -22 40 -46 81 -60 156 -53 l53 5 14 -41 c7
-22 16 -38 21 -36 4 3 10 -1 12 -7 4 -9 6 -8 6 2 1 8 -8 30 -20 49 -23 38 -23
38 30 62 l40 18 4 -32 c3 -26 4 -23 5 12 1 31 9 52 24 68 15 16 22 37 23 63 0
46 4 48 29 19 13 -16 20 -19 26 -9 4 7 14 17 21 22 10 6 3 8 -20 6 -21 -2 -36
2 -38 10 -8 21 56 14 111 -13 l51 -26 -30 25 c-16 14 -49 32 -72 40 -35 12
-44 12 -60 0 -20 -15 -37 -18 -29 -5 3 5 1 23 -5 41 -8 23 -9 38 0 56 12 27 9
31 -9 9z m-391 -184 c29 -40 26 -44 -9 -13 -30 27 -38 42 -21 42 5 0 19 -13
30 -29z"/>
<path d="M2930 1503 c-30 -8 -89 -20 -130 -25 l-75 -11 53 -17 c29 -10 54 -19
55 -21 24 -33 37 -62 37 -79 0 -12 5 -18 10 -15 16 10 12 40 -10 68 -11 14
-20 28 -20 31 0 3 21 6 48 7 78 2 97 10 100 47 2 18 0 32 -5 31 -4 -1 -33 -8
-63 -16z"/>
<path d="M57 1458 c-33 -67 -57 -127 -57 -142 0 -19 49 67 65 116 9 25 24 52
33 60 15 11 15 11 6 -2 -21 -28 -23 -48 -7 -62 14 -11 15 -10 8 11 -5 16 -4
21 4 17 7 -5 10 -2 9 6 -3 14 24 15 96 6 21 -3 50 -2 65 2 23 7 22 8 -14 9
-22 1 -56 5 -75 10 -19 5 -51 12 -71 15 -35 6 -36 5 -62 -46z"/>
<path d="M372 1468 c7 -4 42 -7 78 -7 75 1 63 6 -28 12 -34 2 -57 0 -50 -5z"/>
<path d="M1000 1441 c0 -5 13 -12 30 -16 28 -6 52 -25 31 -25 -16 0 0 -73 20
-96 14 -15 19 -37 20 -85 1 -67 15 -133 19 -94 5 36 4 59 -3 94 -6 29 -5 32
11 26 27 -12 107 -33 111 -29 8 7 -12 24 -30 24 -10 0 -19 4 -19 8 0 4 -16 14
-36 21 -19 7 -43 26 -53 42 -10 16 -21 26 -25 21 -4 -4 -5 5 -1 21 10 40 -2
77 -25 77 -11 0 -20 5 -20 10 0 6 -7 10 -15 10 -8 0 -15 -4 -15 -9z"/>
<path d="M935 1416 c-35 -13 -87 -47 -82 -53 5 -4 127 55 127 62 0 7 -9 5 -45
-9z"/>
<path d="M1407 1395 c-34 -24 -74 -81 -64 -91 2 -3 27 18 55 46 28 28 59 50
71 50 12 0 21 5 21 10 0 19 -45 10 -83 -15z"/>
<path d="M1617 1398 c-4 -15 -22 -36 -43 -48 -19 -12 -33 -24 -30 -27 7 -8 64
26 75 44 8 15 11 15 28 3 17 -14 17 -14 2 5 -9 11 -18 27 -21 35 -3 10 -7 5
-11 -12z"/>
<path d="M1115 1366 c2 -22 14 -49 25 -60 l21 -21 -19 45 c-11 25 -22 52 -26
60 -3 8 -4 -3 -1 -24z"/>
<path d="M1936 1374 c-10 -25 -7 -33 13 -44 25 -13 51 -3 51 19 0 37 -52 57
-64 25z"/>
<path d="M130 1377 c0 -10 75 -89 94 -99 10 -5 17 -6 15 -1 -5 11 -109 107
-109 100z"/>
<path d="M387 1356 c-7 -18 8 -81 34 -147 22 -58 15 -99 -17 -99 -12 0 -15 -6
-11 -21 6 -21 -36 -122 -62 -150 -9 -10 -29 -19 -46 -22 -27 -4 -26 -4 8 -6
34 -1 40 3 67 46 17 26 30 52 30 59 0 6 14 39 32 74 l32 62 -23 66 c-34 96
-40 129 -28 141 8 8 8 11 0 11 -6 0 -13 -6 -16 -14z"/>
<path d="M2831 1370 c-2 -3 -5 -16 -7 -30 -3 -14 -16 -57 -29 -97 -31 -90 -31
-97 4 -133 16 -18 38 -60 51 -100 12 -38 28 -74 35 -80 18 -15 107 -17 112 -2
3 8 -6 12 -25 12 -45 0 -92 11 -92 22 0 25 -56 146 -77 168 -13 13 -22 31 -19
40 2 8 16 48 31 88 14 41 24 83 22 95 -2 12 -5 20 -6 17z"/>
<path d="M2928 1347 c0 -7 -2 -16 -2 -22 -1 -5 -5 -16 -10 -23 -4 -7 -6 -15
-4 -18 3 -2 11 8 19 24 8 15 18 30 22 33 5 3 2 9 -7 12 -9 4 -17 1 -18 -6z"/>
<path d="M72 1289 c-11 -24 -22 -55 -27 -69 -14 -49 21 2 39 54 20 63 12 73
-12 15z"/>
<path d="M2978 1313 c-13 -15 -14 -31 -8 -83 5 -36 7 -67 4 -69 -2 -2 1 -10 7
-17 9 -11 6 -16 -12 -23 -13 -5 -19 -10 -12 -10 6 -1 18 -4 27 -7 13 -5 15 8
13 90 -1 53 -4 91 -5 86 -2 -6 -8 -7 -13 -4 -6 3 -4 16 6 30 18 28 15 31 -7 7z"/>
<path d="M2446 1279 c-2 -13 -11 -59 -20 -102 -18 -89 -21 -153 -6 -162 6 -4
10 21 10 67 0 74 15 152 28 144 8 -5 7 63 -2 71 -3 3 -7 -5 -10 -18z"/>
<path d="M1328 1263 c-15 -4 -14 -8 10 -28 22 -20 24 -24 10 -25 -10 0 -18 -4
-18 -10 0 -16 17 -11 46 13 25 22 25 24 10 40 -17 17 -26 19 -58 10z"/>
<path d="M1483 1188 c-35 -59 -47 -130 -34 -193 7 -35 8 -30 8 34 -1 49 3 76
11 79 7 2 12 10 12 17 0 8 5 17 12 21 6 4 8 3 4 -4 -3 -6 0 -15 9 -19 9 -5 16
-29 19 -65 6 -59 48 -177 68 -189 16 -10 24 -139 9 -139 -7 0 -7 -7 1 -25 21
-46 28 -26 28 74 0 77 -3 100 -14 104 -25 10 -44 59 -70 188 -14 68 -27 135
-28 147 -3 20 -8 16 -35 -30z"/>
<path d="M1790 1165 c24 -45 30 -70 30 -116 0 -99 -58 -240 -137 -333 -38 -46
-36 -58 4 -26 27 20 78 102 126 200 31 65 31 185 -2 257 -13 29 -30 58 -37 64
-8 7 -1 -14 16 -46z"/>
<path d="M2343 1185 c2 -21 47 -35 47 -15 0 6 -4 8 -10 5 -5 -3 -10 -1 -10 5
0 6 -4 9 -9 6 -5 -4 -12 0 -15 6 -3 7 -5 4 -3 -7z"/>
<path d="M2460 1184 c0 -12 9 -31 20 -44 25 -29 25 -16 0 30 -15 28 -19 31
-20 14z"/>
<path d="M2140 1152 c0 -12 -3 -22 -8 -22 -4 0 -13 -9 -20 -20 -11 -17 -10
-20 7 -20 15 0 22 9 27 35 3 20 4 39 0 42 -3 4 -6 -3 -6 -15z"/>
<path d="M1408 1115 c-12 -13 8 -171 24 -181 6 -4 7 11 2 42 -4 27 -7 70 -6
97 1 42 -5 56 -20 42z"/>
<path d="M1114 1025 c8 -106 45 -185 128 -272 35 -36 72 -70 83 -75 11 -6 -5
12 -36 40 -102 92 -156 200 -161 321 -1 22 -5 46 -10 53 -6 8 -7 -17 -4 -67z"/>
<path d="M2523 1093 c-8 -3 7 -41 44 -111 30 -59 60 -111 65 -117 14 -15 -28
76 -66 143 -29 52 -32 62 -19 74 14 15 4 20 -24 11z"/>
<path d="M2109 1043 c-1 -16 -1 -36 0 -45 8 -74 -88 -245 -182 -326 -101 -88
-288 -195 -287 -165 1 4 35 24 77 43 43 19 107 60 143 90 37 30 81 66 99 80
l33 25 -35 1 c-28 1 -33 -3 -30 -17 3 -11 -5 -24 -24 -35 -15 -10 -47 -33 -70
-52 -22 -18 -79 -53 -124 -78 l-83 -45 -96 46 c-99 48 -115 48 -22 0 29 -15
51 -29 48 -32 -6 -6 -72 23 -106 47 -15 11 -32 20 -37 20 -14 -1 101 -71 127
-77 14 -3 42 -14 63 -25 l38 -19 87 46 c163 85 299 204 350 307 39 79 61 163
55 206 -6 39 -23 43 -24 5z"/>
<path d="M660 953 c-19 -42 -51 -102 -71 -132 -53 -84 -55 -88 -30 -67 48 43
169 276 143 276 -4 0 -23 -35 -42 -77z"/>
<path d="M728 996 c-10 -10 -18 -24 -18 -32 0 -16 70 -97 78 -89 3 3 -3 14
-13 25 -10 11 -15 26 -11 36 3 9 2 22 -3 28 -5 6 -10 20 -12 30 -4 19 -5 19
-21 2z"/>
<path d="M2046 960 c-12 -53 -46 -131 -73 -167 -13 -18 -19 -33 -14 -33 6 0
18 12 28 26 10 14 31 42 48 61 19 23 25 38 18 40 -8 3 -9 12 -2 33 6 16 9 39
7 52 -3 19 -5 17 -12 -12z"/>
<path d="M2477 971 c-5 -21 9 -41 31 -41 12 0 11 -4 -2 -25 -20 -31 -14 -32
14 -3 24 26 27 73 4 82 -27 11 -42 7 -47 -13z"/>
<path d="M165 943 c-38 -2 -74 -8 -79 -13 -11 -11 183 -2 204 10 16 10 18 10
-125 3z"/>
<path d="M2361 863 c-12 -32 -36 -76 -54 -99 -71 -90 -201 -223 -228 -234 -33
-14 -64 -6 -56 13 8 20 -3 32 -48 54 -22 11 -39 25 -37 31 3 16 -13 15 -27 -2
-9 -11 -5 -17 21 -29 18 -8 42 -17 53 -19 15 -2 21 -12 23 -41 4 -43 15 -46
73 -16 23 11 43 18 45 16 11 -10 -71 -47 -148 -68 -77 -20 -138 -44 -138 -54
0 -6 37 2 59 14 11 6 31 11 45 11 14 0 50 11 81 24 50 22 56 23 70 9 14 -14
14 -17 -2 -37 -10 -11 -11 -15 -3 -8 17 14 34 16 25 2 -3 -5 -2 -10 2 -10 5 0
10 19 10 42 1 24 7 44 12 46 8 3 8 10 1 23 -7 13 -7 19 0 19 5 0 9 3 8 8 -2 4
35 43 82 86 80 74 87 85 123 174 21 52 36 96 34 98 -2 3 -14 -21 -26 -53z"/>
<path d="M2451 892 c-8 -19 -20 -31 -29 -30 -9 2 -18 -8 -23 -26 -12 -43 -3
-44 37 -5 28 28 35 43 32 65 l-3 29 -14 -33z"/>
<path d="M2660 877 c0 -12 42 -87 53 -94 6 -4 -2 16 -17 43 -32 55 -36 60 -36
51z"/>
<path d="M901 865 c-1 -6 10 -39 22 -75 13 -36 22 -71 19 -79 -3 -8 0 -11 6
-7 6 4 16 -3 22 -14 6 -11 16 -20 23 -20 7 0 31 -22 54 -49 23 -26 51 -51 62
-54 14 -3 -4 22 -50 73 -80 88 -112 132 -139 193 -10 23 -19 37 -19 32z"/>
<path d="M2520 851 c0 -12 71 -53 79 -46 7 8 -49 55 -66 55 -7 0 -13 -4 -13
-9z"/>
<path d="M272 809 c3 -10 114 -59 133 -59 16 1 -27 31 -73 51 -49 22 -65 24
-60 8z"/>
<path d="M195 780 c3 -5 11 -10 17 -10 6 0 40 -13 75 -30 69 -33 109 -41 83
-16 -18 16 -143 66 -166 66 -8 0 -12 -4 -9 -10z"/>
<path d="M2698 734 c-22 -22 -5 -53 55 -101 34 -27 72 -55 83 -61 12 -6 24
-22 28 -34 7 -26 63 -89 100 -113 16 -10 26 -29 29 -48 3 -27 4 -25 5 11 1 23
-2 42 -6 42 -13 0 -40 27 -112 110 -36 41 -69 77 -74 79 -20 9 -94 88 -97 104
-2 11 -7 15 -11 11z"/>
<path d="M176 719 c3 -5 10 -9 15 -9 6 0 29 -9 51 -20 47 -23 48 -23 48 -12 0
13 -43 35 -82 42 -21 4 -35 3 -32 -1z"/>
<path d="M518 707 c-4 -21 29 -77 47 -77 16 0 2 59 -19 79 l-23 22 -5 -24z"/>
<path d="M1550 704 c0 -13 48 -59 55 -52 3 2 -9 17 -25 33 -17 16 -30 24 -30
19z"/>
<path d="M2580 661 c0 -5 8 -11 18 -15 9 -3 27 -10 39 -15 35 -16 38 6 4 24
-33 17 -61 20 -61 6z"/>
<path d="M2395 635 c31 -25 55 -32 55 -16 0 15 -42 41 -65 41 -17 0 -16 -3 10
-25z"/>
<path d="M500 642 c0 -6 5 -14 10 -17 18 -11 10 -25 -22 -39 -21 -9 -26 -15
-15 -15 26 -1 79 28 75 41 -6 16 -48 43 -48 30z"/>
<path d="M880 641 c0 -13 74 -41 79 -29 2 5 -1 13 -5 18 -14 11 -74 21 -74 11z"/>
<path d="M1860 579 c-14 -11 -64 -40 -112 -64 -49 -25 -88 -49 -88 -54 0 -14
164 72 206 107 40 35 35 45 -6 11z"/>
<path d="M1080 539 c18 -25 21 -38 15 -74 -3 -25 -10 -47 -16 -50 -5 -4 -7
-10 -4 -14 2 -5 -7 -19 -20 -31 -25 -24 -33 -50 -16 -50 15 0 83 88 77 99 -11
16 6 43 22 36 14 -5 14 -4 0 12 -20 23 -31 67 -14 56 6 -4 -2 4 -19 19 -40 36
-51 35 -25 -3z"/>
<path d="M403 537 c-6 -13 -32 -34 -57 -48 -25 -13 -46 -29 -46 -35 0 -6 -12
-16 -26 -23 -15 -6 -24 -14 -21 -17 7 -7 64 22 74 38 4 7 24 21 44 30 24 11
40 27 47 47 13 36 0 42 -15 8z"/>
<path d="M1230 536 c0 -25 -27 -30 -58 -12 l-27 17 24 -20 c30 -27 58 -27 66
0 4 11 4 23 1 26 -3 4 -6 -1 -6 -11z"/>
<path d="M2536 532 c16 -15 62 -31 68 -25 19 19 3 33 -36 33 -23 0 -38 -4 -32
-8z"/>
<path d="M865 416 c-18 -31 -18 -31 2 -13 19 16 21 16 51 -22 18 -22 32 -50
32 -63 0 -15 3 -19 8 -11 4 7 18 11 30 8 14 -2 22 1 22 10 0 21 -19 28 -35 15
-12 -10 -15 -9 -15 5 0 10 -17 37 -39 60 l-39 42 -17 -31z"/>
<path d="M2120 404 c0 -9 52 -78 62 -82 15 -7 8 -21 -7 -16 -8 4 -15 12 -15
18 0 13 -78 52 -86 43 -4 -4 120 -97 130 -97 6 0 5 66 -2 75 -11 16 -82 67
-82 59z"/>
<path d="M2401 395 c0 -11 7 -36 15 -55 l14 -35 -5 45 c-6 45 -26 82 -24 45z"/>
<path d="M1935 380 c-10 -11 -37 -29 -61 -41 -43 -20 -75 -49 -41 -36 34 13
15 -3 -78 -62 -52 -34 -105 -61 -118 -61 -21 0 -23 -4 -22 -45 1 -25 -2 -45
-7 -45 -5 0 -63 28 -129 61 -66 34 -122 59 -125 56 -3 -3 60 -38 140 -77 80
-40 143 -76 140 -81 -18 -29 114 34 220 105 37 25 65 39 62 30 -3 -9 -2 -12 4
-9 6 3 13 -1 16 -9 3 -9 11 -16 16 -16 5 0 38 -21 71 -46 65 -47 37 -19 -59
62 l-48 41 37 43 c20 24 37 47 37 52 0 4 6 8 13 8 8 0 24 12 38 27 13 15 16
21 7 14 -21 -15 -24 -2 -5 19 6 7 -4 1 -23 -14 -19 -16 -39 -36 -45 -45 -26
-44 -71 -94 -97 -107 -15 -8 -27 -19 -25 -25 1 -6 -9 -18 -23 -26 l-25 -15 25
21 c47 39 -4 16 -130 -58 -8 -5 -14 -14 -13 -19 3 -12 -35 -27 -45 -18 -3 4
-7 26 -8 50 l-3 44 62 32 c82 43 172 108 227 164 24 25 42 46 39 46 -3 0 -14
-9 -24 -20z"/>
<path d="M224 368 c3 -13 6 -32 6 -43 1 -19 1 -19 11 -2 12 21 4 67 -12 67 -7
0 -9 -9 -5 -22z"/>
<path d="M2311 353 c-27 -34 -30 -35 -31 -16 0 12 8 27 18 32 9 6 12 11 7 11
-19 0 -62 -55 -99 -125 -51 -98 -91 -170 -113 -202 -30 -43 -35 -53 -26 -53 4
0 26 27 47 61 29 45 41 57 48 47 7 -9 8 -8 4 5 -4 12 12 52 43 109 32 60 50
84 53 72 3 -18 4 -18 18 0 8 10 30 34 48 53 34 37 37 43 23 43 -5 0 -23 -17
-40 -37z"/>
<path d="M826 361 c-10 -16 -3 -79 8 -75 6 2 20 -17 31 -43 29 -69 29 -74 0
-20 -27 50 -40 62 -26 24 13 -32 51 -94 51 -82 0 6 9 -3 20 -20 l20 -30 -2 35
c-2 19 -8 40 -15 45 -17 14 -54 115 -47 126 3 6 12 8 20 5 8 -3 14 -1 14 5 0
6 7 9 15 5 23 -8 18 12 -6 25 -18 9 -25 6 -51 -23 l-29 -33 4 33 c4 33 2 38
-7 23z"/>
<path d="M2780 351 c0 -20 25 -35 41 -25 13 8 -9 44 -26 44 -8 0 -15 -9 -15
-19z"/>
<path d="M1736 309 c-33 -21 -52 -39 -43 -39 19 0 89 46 100 66 10 18 12 19
-57 -27z"/>
<path d="M2322 304 c-18 -20 -32 -47 -32 -59 0 -13 -8 -29 -17 -34 -17 -10
-17 -10 0 -11 22 0 22 -22 0 -63 -9 -18 -17 -35 -18 -39 0 -4 -9 -14 -20 -23
-11 -9 -15 -14 -8 -11 6 4 13 1 15 -5 2 -6 16 14 32 45 28 54 46 78 46 58 0
-6 7 -12 15 -16 20 -7 77 105 73 142 -4 35 -22 38 -36 7 -7 -15 -8 -24 -2 -20
5 3 10 2 10 -2 0 -5 -9 -14 -20 -21 -23 -14 -27 -37 -5 -28 20 7 20 -18 0 -34
-21 -17 -34 -3 -42 45 -6 36 -3 41 33 72 24 20 33 33 23 33 -8 0 -30 -16 -47
-36z"/>
<path d="M2980 312 c-18 -5 -49 -42 -50 -58 0 -6 16 -38 35 -70 l35 -58 0 37
c0 20 -4 37 -8 37 -5 0 -14 11 -21 24 -12 21 -10 28 10 55 24 32 24 41 -1 33z"/>
<path d="M230 287 c0 -2 7 -18 16 -36 16 -32 16 -33 -15 -63 -17 -17 -31 -34
-31 -39 0 -5 -6 -9 -13 -9 -12 0 -53 -50 -96 -114 -7 -12 34 28 92 89 59 61
106 115 107 121 0 13 -38 54 -50 54 -6 0 -10 -2 -10 -3z"/>
<path d="M2007 245 c10 -20 27 -38 40 -41 45 -12 43 2 -7 39 l-50 37 17 -35z"/>
<path d="M350 195 c0 -16 27 -32 37 -21 7 7 -16 36 -28 36 -5 0 -9 -7 -9 -15z"/>
<path d="M1070 181 c0 -13 48 -111 55 -111 4 0 -43 111 -51 119 -2 2 -4 -1 -4
-8z"/>
<path d="M2835 159 c56 -11 97 -11 90 1 -3 6 -34 9 -68 9 -59 -1 -60 -2 -22
-10z"/>
<path d="M30 147 c0 -8 -7 -20 -15 -27 -20 -17 -19 -60 3 -76 29 -22 37 -16
13 10 -35 37 -10 86 35 69 13 -5 15 -15 11 -46 -4 -27 -2 -36 4 -26 19 30 10
67 -21 89 -23 16 -30 18 -30 7z"/>
<path d="M2376 132 c6 -4 26 -34 44 -67 40 -72 39 -70 45 -63 6 5 -1 19 -51
105 -11 18 -26 33 -34 33 -10 0 -11 -3 -4 -8z"/>
<path d="M2310 90 c-11 -23 -18 -45 -15 -51 4 -5 1 -16 -5 -24 -7 -8 -9 -15
-5 -15 4 0 15 10 26 23 16 19 20 20 28 7 6 -9 6 -17 1 -20 -6 -3 6 -6 26 -7
29 -1 33 1 23 13 -6 8 -15 11 -20 8 -5 -3 -8 -2 -7 3 1 4 -6 20 -16 36 -10 15
-16 36 -13 47 8 31 -1 24 -23 -20z"/>
<path d="M1768 78 c-43 -23 -76 -44 -73 -46 4 -4 155 77 155 84 0 6 0 6 -82
-38z"/>
<path d="M795 60 c-29 -36 -44 -48 -57 -44 -10 3 -18 1 -18 -5 0 -6 8 -11 19
-11 19 0 111 83 111 100 0 21 -17 8 -55 -40z"/>
</g>
</svg>
