<?xml version="1.0" standalone="no"?>
<!DOCTYPE svg PUBLIC "-//W3C//DTD SVG 20010904//EN"
 "http://www.w3.org/TR/2001/REC-SVG-20010904/DTD/svg10.dtd">
<svg version="1.0" xmlns="http://www.w3.org/2000/svg"
 width="300.000000pt" height="300.000000pt" viewBox="0 0 300.000000 300.000000"
 preserveAspectRatio="xMidYMid meet">
<metadata>
Created by potrace 1.10, written by Peter Selinger 2001-2011
</metadata>
<g transform="translate(0.000000,300.000000) scale(0.100000,-0.100000)"
fill="#000000" stroke="none">
<path d="M1088 2975 c-6 -14 -16 -25 -22 -25 -11 -1 -49 -71 -42 -77 2 -2 27
26 55 62 34 43 46 65 36 65 -9 0 -21 -11 -27 -25z"/>
<path d="M1118 2923 c-68 -73 -82 -105 -52 -117 9 -4 14 -9 11 -13 -4 -3 -19
0 -36 6 -23 10 -28 17 -23 34 5 20 4 20 -11 8 -9 -7 -14 -17 -11 -22 3 -5 0
-9 -6 -9 -7 0 -9 -7 -6 -16 3 -9 -2 -30 -13 -48 -11 -17 -32 -62 -47 -101 -15
-38 -32 -76 -37 -83 -7 -9 -7 -16 1 -24 15 -15 29 -3 37 31 9 40 62 121 79
121 8 0 31 20 52 45 20 25 40 45 45 45 5 0 8 -18 7 -40 -1 -22 -5 -40 -9 -40
-4 0 -10 -12 -13 -26 -6 -23 -11 -26 -41 -22 -46 5 -45 -9 0 -18 19 -3 35 -9
36 -13 0 -3 3 -18 5 -33 4 -22 0 -27 -18 -30 -19 -2 -24 -12 -33 -59 -8 -43
-14 -55 -25 -51 -13 5 -13 3 -1 -11 24 -30 41 -20 41 24 0 48 14 79 37 79 13
0 15 9 10 53 -4 34 -3 44 3 30 16 -41 10 -155 -12 -213 -15 -40 -21 -84 -23
-160 -4 -111 -17 -162 -61 -238 -20 -33 -29 -41 -38 -32 -8 8 -7 15 7 24 25
19 21 26 -8 13 -13 -7 -27 -22 -30 -34 -7 -29 -75 -77 -89 -63 -19 19 -26 10
-10 -15 13 -20 20 -23 35 -14 16 8 19 6 19 -10 0 -11 -5 -21 -12 -23 -8 -3 1
-29 25 -76 21 -40 36 -72 34 -72 -2 0 -21 27 -42 60 -21 33 -40 58 -42 56 -2
-2 20 -50 49 -107 33 -64 54 -96 56 -84 3 14 6 15 12 4 11 -17 -4 -45 -54 -98
-28 -30 -33 -39 -15 -27 14 9 35 28 48 42 12 14 28 23 36 20 9 -3 15 4 17 20
l3 26 27 -29 c36 -37 25 -61 -18 -38 l-29 16 -53 -58 c-30 -32 -70 -82 -89
-110 -20 -29 -42 -53 -49 -53 -7 0 -34 25 -59 55 -45 52 -65 66 -65 45 0 -5
10 -20 23 -34 12 -14 35 -41 51 -61 27 -34 28 -36 12 -60 -13 -20 -20 -23 -35
-15 -10 5 -22 17 -26 27 -7 17 -8 17 -15 -2 -8 -19 -9 -19 -9 -1 -1 19 -1 19
-14 1 -11 -13 -21 -16 -43 -11 -16 4 -24 3 -18 -1 14 -10 24 -39 17 -47 -3 -3
-11 1 -17 10 -10 13 -12 11 -14 -10 -1 -14 -11 -43 -23 -66 -30 -58 -17 -60
24 -3 73 98 77 103 100 99 12 -3 25 -5 30 -5 4 -1 7 -8 7 -16 0 -19 24 -20 39
-1 6 7 23 12 39 9 26 -3 26 -3 5 8 -22 12 -22 12 15 56 20 24 61 70 89 101 29
31 58 72 64 90 12 37 17 39 34 15 12 -16 16 -15 58 7 l46 25 28 -26 c45 -40
184 -127 232 -144 24 -8 50 -20 57 -26 7 -6 25 -9 41 -8 79 6 98 -4 67 -35
-14 -15 -14 -16 5 -16 16 0 21 6 21 25 0 34 20 32 21 -2 l1 -28 7 29 c6 28 11
30 95 47 l89 19 85 87 c47 48 82 78 78 68 -6 -16 -5 -18 6 -7 7 7 13 18 13 25
4 64 19 137 27 129 6 -6 4 -30 -5 -65 -7 -31 -10 -54 -6 -51 14 8 29 77 29
134 0 49 -1 52 -13 35 -8 -11 -21 -42 -30 -69 -18 -53 -42 -86 -63 -86 -7 0
-38 25 -69 56 -41 42 -55 63 -55 85 0 16 -4 29 -10 29 -18 0 -10 -37 16 -75
14 -21 23 -44 20 -51 -3 -8 0 -11 9 -7 8 3 18 -2 21 -11 4 -9 19 -23 35 -31
l28 -15 -19 -33 c-26 -44 -97 -101 -103 -84 -3 6 -6 3 -6 -8 -1 -12 -13 -25
-32 -34 -56 -25 -118 -40 -144 -35 -14 2 -25 0 -25 -4 0 -5 -12 -7 -27 -5 -16
2 -43 4 -62 4 -37 -1 -157 53 -237 106 -47 31 -53 39 -59 81 -4 26 -13 62 -20
80 -8 17 -11 32 -8 32 3 0 32 -20 65 -45 67 -50 74 -52 100 -28 16 14 23 15
38 5 22 -13 115 -14 200 -2 44 6 34 7 -57 6 -61 0 -115 2 -119 6 -4 5 -1 16 7
25 8 10 16 32 18 48 3 29 2 29 -34 -17 -20 -27 -38 -48 -41 -48 -6 0 -5 2 42
73 55 84 58 103 35 214 -23 113 -83 286 -100 289 -7 2 -7 0 -1 -3 5 -2 10 -12
10 -21 0 -9 12 -44 26 -77 14 -33 36 -109 49 -169 l24 -110 -23 -56 c-28 -69
-94 -162 -112 -158 -28 6 -243 211 -254 241 -7 23 -13 28 -21 20 -16 -16 -4
-55 26 -91 13 -16 22 -32 18 -35 -3 -4 -5 -27 -5 -54 1 -33 7 -53 22 -67 l21
-21 -5 40 c-3 22 -7 50 -10 63 -3 13 0 22 8 22 16 0 40 -114 25 -119 -5 -1 -2
-10 8 -18 10 -8 12 -11 4 -7 -7 3 -17 1 -21 -6 -10 -16 -42 1 -64 35 -9 14
-23 25 -30 25 -7 0 -19 20 -26 45 -7 25 -28 71 -46 101 l-33 55 34 30 c48 42
114 142 135 204 10 29 21 92 25 141 4 49 18 123 31 165 19 61 22 88 17 141
l-6 66 59 17 c90 27 92 27 74 32 -8 2 -37 -3 -65 -11 -27 -9 -53 -12 -57 -8
-5 5 -11 37 -14 73 -5 48 -2 74 10 104 24 58 59 105 77 105 16 0 59 51 59 70
0 15 -6 13 -50 -15 -22 -14 -40 -21 -40 -16 0 5 19 21 43 35 l42 25 -40 -1
c-36 -1 -46 -8 -107 -75z m45 -7 c3 -7 -8 -33 -25 -57 -23 -34 -29 -38 -25
-19 l6 25 -16 -22 c-19 -28 -45 -31 -36 -5 7 19 73 92 84 92 4 0 9 -6 12 -14z
m-126 -177 c-18 -21 -33 -36 -35 -34 -7 7 42 72 54 72 7 0 -2 -17 -19 -38z
m100 -1071 c2 -13 9 -43 18 -67 8 -24 15 -49 15 -55 -1 -20 -29 37 -45 91 -8
29 -18 60 -22 70 -6 17 -5 17 13 1 11 -9 20 -28 21 -40z"/>
<path d="M1304 2984 c3 -8 1 -24 -5 -35 -7 -15 -7 -24 2 -35 19 -24 40 -17 34
11 -3 14 -7 36 -10 50 -3 14 -10 25 -16 25 -6 0 -8 -7 -5 -16z"/>
<path d="M1516 2912 c8 -116 -1 -139 -67 -174 -61 -32 -60 -14 2 22 l44 26 2
105 c2 76 0 99 -8 87 -5 -10 -17 -18 -26 -18 -13 0 -13 -3 -3 -15 9 -11 16
-12 20 -5 3 5 6 -23 6 -64 -1 -75 -10 -97 -41 -102 -9 -1 -18 11 -25 34 -8 29
-6 41 7 62 28 42 23 54 -8 19 -32 -36 -41 -99 -14 -99 12 0 11 -6 -5 -32 -11
-18 -20 -41 -20 -50 0 -27 40 -22 73 10 l29 27 -7 -25 c-4 -14 -14 -31 -24
-39 -14 -12 -13 -13 9 -7 14 3 38 6 53 6 16 0 26 4 22 10 -3 6 -15 10 -26 10
-23 0 -25 15 -4 24 8 3 15 16 15 28 0 13 5 30 10 38 7 11 10 0 10 -37 0 -29 5
-53 10 -53 13 0 13 -5 -10 151 -25 165 -32 181 -24 61z"/>
<path d="M1541 2973 c0 -16 4 -46 8 -68 8 -37 9 -35 10 28 1 39 -3 67 -9 67
-5 0 -10 -12 -9 -27z"/>
<path d="M1628 2995 c-7 -8 3 -54 13 -61 11 -7 12 36 1 54 -5 7 -11 10 -14 7z"/>
<path d="M1884 2988 c22 -55 29 -92 18 -96 -17 -5 7 -27 40 -35 l27 -7 -16 37
c-28 69 -53 113 -64 113 -6 0 -8 -6 -5 -12z"/>
<path d="M1741 2950 c-2 -25 -2 -60 -1 -78 1 -20 -5 -41 -16 -53 -15 -17 -16
-19 -1 -19 22 0 29 31 24 120 -2 52 -4 61 -6 30z"/>
<path d="M1830 2978 c0 -7 9 -26 20 -43 16 -24 20 -26 26 -12 8 23 -1 43 -25
57 -16 8 -21 8 -21 -2z"/>
<path d="M1771 2925 c-6 -101 0 -169 16 -194 8 -13 10 -20 4 -17 -6 4 -11 2
-11 -3 0 -6 5 -11 12 -11 7 0 22 -12 35 -27 19 -24 24 -26 33 -13 15 24 12 60
-7 67 -10 4 -29 20 -43 37 -22 26 -26 42 -31 125 -4 83 -6 88 -8 36z"/>
<path d="M1350 2941 c0 -24 14 -41 35 -41 30 0 41 16 25 35 -14 16 -60 21 -60
6z"/>
<path d="M1987 2872 c1 -8 3 -15 3 -18 0 -7 62 -36 66 -31 3 3 -11 14 -30 26
-19 12 -36 25 -39 29 -2 4 -2 1 0 -6z"/>
<path d="M1226 2843 c-4 -9 0 -23 8 -32 20 -19 26 -13 19 22 -6 31 -18 35 -27
10z"/>
<path d="M1920 2832 c0 -10 25 -46 54 -77 30 -32 66 -33 66 -2 0 32 -10 42
-64 66 -55 24 -56 24 -56 13z"/>
<path d="M1571 2798 c0 -34 16 -105 19 -88 2 13 2 25 -1 65 -1 6 2 18 6 28 5
12 2 17 -9 17 -10 0 -16 -8 -15 -22z"/>
<path d="M1315 2800 c-3 -5 -3 -15 1 -22 4 -7 3 -8 -4 -4 -17 10 -15 -13 3
-31 8 -8 12 -20 8 -26 -4 -7 1 -6 10 2 9 7 14 17 11 22 -3 5 2 12 10 15 20 8
20 18 0 38 -18 18 -30 20 -39 6z"/>
<path d="M1901 2771 c-15 -26 -8 -51 13 -51 23 0 28 17 13 47 l-14 27 -12 -23z"/>
<path d="M1706 2754 l-26 -27 -1 24 c-1 13 -5 -10 -10 -51 -9 -86 -3 -109 7
-29 4 31 10 46 13 36 5 -12 11 -5 27 28 11 25 20 45 19 45 -1 0 -14 -12 -29
-26z"/>
<path d="M1643 2675 c0 -33 2 -45 4 -27 2 18 2 45 0 60 -2 15 -4 0 -4 -33z"/>
<path d="M1985 2683 c2 -23 6 -46 9 -51 3 -5 6 -25 8 -45 1 -21 6 -37 11 -37
14 0 2 99 -17 140 l-15 35 4 -42z"/>
<path d="M2056 2658 c27 -28 41 -48 31 -44 -13 4 -17 2 -14 -6 2 -7 11 -12 21
-10 13 2 16 -6 17 -40 2 -34 3 -37 6 -13 6 40 -14 105 -33 105 -8 0 -20 12
-27 28 -7 15 -20 28 -31 29 -13 1 -5 -13 30 -49z"/>
<path d="M1367 2673 c-3 -5 1 -21 8 -38 l13 -30 1 32 c1 30 -12 52 -22 36z"/>
<path d="M1537 2650 c-3 -11 -1 -23 4 -26 5 -3 9 -15 9 -27 1 -12 7 -33 16
-47 15 -25 15 -25 8 -1 -11 42 -12 56 -2 74 6 11 5 17 -3 17 -8 0 -8 4 1 15
10 12 9 15 -8 15 -11 0 -22 -8 -25 -20z"/>
<path d="M1736 2632 c16 -15 32 -26 36 -24 4 1 11 -15 14 -37 9 -54 24 -43 17
12 -7 53 -28 77 -66 77 l-30 0 29 -28z"/>
<path d="M1220 2599 c-65 -18 -65 -18 -44 -33 10 -8 21 -11 24 -7 7 12 67 41
82 41 7 0 18 -10 23 -22 12 -27 42 -39 32 -14 -6 14 -3 16 16 11 l22 -7 -23
17 c-29 21 -86 27 -132 14z"/>
<path d="M946 2568 c-12 -48 3 -118 27 -118 5 0 4 7 -3 15 -8 10 -11 35 -8 70
5 55 -5 74 -16 33z"/>
<path d="M1870 2548 l-23 -33 26 24 c14 13 41 27 59 31 l33 8 -36 1 c-29 1
-39 -5 -59 -31z"/>
<path d="M2047 2557 c-4 -11 -5 -23 -1 -28 7 -11 44 8 44 23 0 7 -5 7 -14 -1
-11 -10 -15 -8 -18 6 -3 17 -4 17 -11 0z"/>
<path d="M1878 2519 c-48 -50 -34 -68 16 -20 36 35 57 39 82 14 10 -10 21 -19
26 -19 4 -1 13 -2 18 -3 6 0 10 -8 10 -18 0 -22 6 -14 14 20 4 19 3 26 -3 22
-6 -3 -23 3 -38 14 -16 11 -41 23 -56 27 -24 5 -34 0 -69 -37z"/>
<path d="M1273 2533 c-58 -23 84 -138 182 -148 17 -2 67 -17 113 -34 l82 -30
-1 27 c0 20 -2 23 -7 10 -7 -17 -9 -17 -39 1 -17 11 -44 22 -59 24 -104 18
-266 108 -241 134 3 2 10 -5 17 -16 6 -12 19 -21 28 -21 10 0 22 -4 28 -8 5
-5 29 -14 54 -21 44 -12 64 -19 125 -47 43 -19 105 -29 105 -16 0 6 -10 14
-22 17 -13 4 -57 22 -98 40 -100 44 -233 95 -245 94 -5 0 -16 -3 -22 -6z"/>
<path d="M1663 2480 c0 -36 2 -50 4 -32 2 17 2 47 0 65 -2 17 -4 3 -4 -33z"/>
<path d="M2061 2483 c-2 -21 -4 -51 -5 -68 -1 -16 -3 -43 -4 -59 -3 -41 -15
-24 -23 32 l-6 47 -2 -56 c-1 -37 -6 -61 -16 -69 -8 -7 -15 -9 -15 -5 0 3 -12
-3 -26 -14 -15 -11 -30 -19 -34 -16 -4 3 -10 -2 -14 -10 -3 -8 -11 -12 -18
-10 -9 4 -14 -7 -15 -37 -2 -38 -1 -41 10 -22 18 33 98 95 116 92 27 -5 50 29
57 84 4 29 11 62 15 73 7 14 7 11 3 -12 -6 -34 0 -40 26 -23 10 6 11 10 3 10
-7 0 -13 8 -13 19 0 10 -7 24 -15 31 -11 9 -12 16 -5 25 5 6 7 15 3 18 -14 14
-20 6 -22 -30z"/>
<path d="M825 2490 c-3 -10 -1 -29 5 -41 8 -14 8 -25 2 -31 -6 -6 -6 -24 -1
-46 5 -20 12 -91 16 -157 l7 -120 11 60 c6 33 8 65 3 71 -4 6 -10 35 -13 65
-2 30 -7 71 -11 92 -17 105 27 -21 52 -148 l13 -70 -2 68 c-3 63 3 81 19 56 4
-8 9 -7 16 2 7 11 8 11 6 -1 -1 -8 6 -29 15 -47 22 -41 22 -78 -1 -101 -45
-45 -71 -102 -30 -66 22 19 17 5 -9 -25 -7 -9 -24 -29 -37 -46 -19 -23 -31
-29 -60 -28 -20 1 -36 -3 -36 -9 0 -5 -5 -6 -12 -2 -7 5 -8 3 -3 -6 5 -9 2
-10 -14 -5 -16 5 -20 3 -15 -9 3 -9 12 -16 20 -16 8 0 14 -4 14 -10 0 -5 7
-10 15 -10 8 0 15 -8 16 -17 0 -11 3 -13 6 -6 2 7 -3 23 -11 35 -23 33 -20 38
22 38 74 0 182 128 182 215 -1 52 -45 201 -59 197 -6 -1 -10 3 -9 9 2 6 -3 14
-9 16 -18 6 -16 -13 3 -43 30 -44 3 -40 -37 6 -45 52 -73 122 -56 139 8 8 8
11 0 11 -7 0 -14 -9 -18 -20z"/>
<path d="M1896 2473 c-21 -14 -47 -23 -57 -20 -10 3 -22 1 -25 -4 -3 -5 -11
-9 -19 -9 -8 0 -39 -9 -70 -21 -51 -19 -55 -23 -54 -52 0 -18 3 -26 6 -19 2 6
8 10 12 8 4 -3 25 1 47 9 47 17 87 20 64 5 -24 -16 -5 -12 43 9 51 22 87 56
87 83 0 10 5 18 10 18 6 0 10 -13 10 -29 0 -28 -71 -137 -109 -169 -14 -11
-13 -12 5 -3 14 7 24 7 32 -1 8 -8 16 -1 31 23 12 19 21 38 21 42 0 5 5 5 12
1 7 -5 8 -3 3 5 -4 7 1 20 12 30 14 14 18 28 15 60 -6 56 -26 66 -76 34z m4
-27 c0 -2 -18 -19 -41 -37 -32 -25 -43 -29 -52 -19 -9 10 -9 11 0 6 7 -4 27 7
45 23 30 28 48 38 48 27z m-77 -21 c-29 -20 -111 -55 -130 -55 -34 0 -3 25 58
46 76 27 103 31 72 9z"/>
<path d="M2120 2493 c0 -5 4 -13 9 -18 5 -6 11 -23 14 -40 4 -28 4 -28 6 6 0
22 -5 42 -14 49 -8 7 -15 8 -15 3z"/>
<path d="M2827 2456 c-4 -9 -19 -22 -34 -28 -24 -11 -98 -63 -228 -161 -16
-12 -41 -35 -55 -50 -14 -16 -45 -47 -70 -70 -79 -74 -111 -112 -99 -116 6 -2
48 34 93 81 122 127 338 299 354 283 6 -5 -23 -131 -44 -191 -5 -15 -1 -13 20
8 14 15 23 33 20 42 -3 8 0 25 7 38 7 13 11 44 10 69 -2 40 1 49 23 65 17 13
23 23 17 32 -7 11 -9 11 -14 -2z"/>
<path d="M1250 2432 c0 -28 39 -105 64 -124 29 -24 43 -22 21 2 -16 17 -10 16
30 -6 27 -15 45 -23 41 -16 -3 6 -24 21 -45 33 -25 14 -49 39 -66 70 -29 55
-45 69 -45 41z"/>
<path d="M1186 2424 c-3 -9 -6 -34 -6 -56 0 -32 -4 -41 -20 -45 -19 -5 -17 -9
20 -46 38 -39 49 -57 33 -57 -4 0 -24 17 -45 37 -42 41 -51 33 -15 -13 12 -16
22 -30 22 -33 0 -2 11 -6 25 -7 14 -2 34 -5 45 -6 33 -5 25 34 -11 52 -17 8
-29 21 -27 28 3 7 -1 19 -7 27 -8 10 -11 35 -7 75 6 61 4 73 -7 44z"/>
<path d="M1725 2344 c-22 -8 -44 -19 -49 -24 -6 -6 -19 -10 -30 -11 -12 0 -15
-3 -8 -6 6 -2 31 4 55 15 23 10 53 24 67 30 37 16 11 13 -35 -4z"/>
<path d="M1022 2293 c-5 -10 -7 -24 -5 -30 6 -16 33 -17 33 -2 0 5 -5 7 -11 3
-9 -5 -10 1 -5 20 7 30 1 34 -12 9z"/>
<path d="M2610 2240 c-30 -28 -50 -50 -43 -50 7 0 31 18 55 40 24 22 46 40 51
40 4 0 7 5 7 10 0 18 -14 10 -70 -40z"/>
<path d="M2052 2263 c-6 -12 -12 -23 -12 -25 0 -2 20 -25 45 -51 25 -27 45
-42 45 -35 0 15 -27 57 -46 73 -7 6 -14 21 -16 35 l-3 25 -13 -22z"/>
<path d="M1963 2238 c-28 -29 -30 -34 -14 -35 24 -2 54 30 49 52 -2 13 -10 9
-35 -17z"/>
<path d="M370 2252 c0 -14 40 -94 67 -132 11 -15 25 -24 35 -22 12 2 21 -5 27
-21 8 -21 38 -43 47 -34 2 1 -20 27 -47 57 -28 30 -47 48 -43 40 7 -13 6 -13
-10 -1 -10 8 -31 40 -46 70 -16 31 -29 50 -30 43z"/>
<path d="M1480 2251 c0 -5 11 -12 24 -15 13 -3 26 -12 29 -20 8 -20 -11 -414
-22 -458 -8 -36 -7 -39 35 -78 24 -22 52 -40 63 -40 11 0 38 17 60 38 l41 37
-10 100 -9 100 4 -97 3 -96 -39 -31 -38 -31 -51 36 c-51 37 -58 48 -39 60 7 4
9 21 6 40 -3 19 -2 34 3 34 5 0 7 7 4 15 -4 8 -1 15 5 15 6 0 16 -11 21 -24 5
-13 18 -27 28 -31 18 -5 19 -12 15 -66 -6 -59 -5 -61 13 -49 15 9 20 23 19 55
0 24 -3 41 -7 39 -17 -11 -13 24 6 46 18 21 18 22 2 10 -12 -9 -17 -10 -12 -3
4 7 9 46 12 85 3 40 9 108 15 151 6 44 7 92 4 107 -5 21 -2 31 11 38 12 7 13
11 5 17 -7 4 -14 5 -17 3 -9 -10 -24 -120 -34 -263 -6 -82 -13 -151 -15 -154
-2 -2 -19 9 -37 25 l-33 29 3 171 3 172 -29 21 c-33 23 -42 26 -42 12z"/>
<path d="M1999 2197 c-41 -51 -69 -111 -59 -127 10 -16 3 -33 -9 -25 -5 2 -4
-17 1 -43 12 -64 13 -73 5 -104 -7 -25 -11 -27 -40 -21 -44 8 -79 41 -72 67 5
19 5 19 -5 4 -17 -28 32 -96 62 -85 7 2 23 0 35 -4 20 -7 24 -4 31 24 l9 32 4
-37 c6 -47 -5 -80 -25 -72 -8 3 -19 -3 -25 -15 -16 -28 -14 -39 9 -51 16 -9
22 -6 34 19 9 16 18 47 22 70 4 22 10 38 15 35 5 -3 4 7 -1 21 -6 15 -10 65
-10 113 0 48 -4 93 -9 101 -11 17 8 60 40 92 11 11 19 24 17 30 -2 5 -15 -6
-29 -24z"/>
<path d="M1167 2164 c-3 -10 -10 -44 -16 -74 -5 -30 -12 -64 -15 -75 -4 -11 0
-8 7 8 7 15 16 25 19 22 4 -5 13 22 22 75 1 3 4 10 8 16 4 6 1 19 -6 29 -13
18 -14 18 -19 -1z"/>
<path d="M2531 2167 c-6 -8 -8 -17 -4 -21 9 -9 -30 -36 -42 -28 -5 3 -4 -2 3
-10 8 -9 19 -15 25 -12 13 5 47 60 47 75 0 13 -16 11 -29 -4z"/>
<path d="M2010 2148 c0 -14 -3 -34 -6 -42 -4 -12 -2 -15 9 -10 11 4 20 -9 35
-48 24 -63 81 -178 89 -178 3 0 3 9 0 20 -6 24 1 25 28 4 18 -14 22 -12 48 18
l28 33 -16 -32 c-24 -50 -11 -40 34 27 44 64 47 70 31 70 -5 0 -10 -6 -10 -14
0 -13 -51 -46 -72 -46 -4 0 -26 11 -48 25 -40 25 -40 26 -40 88 l0 62 -42 0
c-35 0 -44 4 -55 25 l-13 25 0 -27z"/>
<path d="M240 2135 c-5 -14 -17 -28 -25 -31 -24 -10 -17 -33 13 -40 15 -4 45
-23 67 -42 41 -36 144 -178 145 -199 0 -18 59 -82 89 -97 18 -10 33 -11 51 -4
14 5 42 13 62 16 l38 7 -41 60 c-23 33 -38 51 -34 40 4 -11 8 -28 10 -38 2
-10 7 -28 11 -40 6 -21 6 -21 -12 -5 -16 14 -23 14 -42 4 -12 -7 -19 -16 -15
-21 4 -4 2 -5 -5 -1 -7 5 -43 69 -79 143 -36 74 -72 137 -80 140 -7 3 -11 9
-8 13 2 4 -8 26 -24 48 -54 73 -104 93 -121 47z m84 -42 c14 -12 32 -38 40
-58 8 -19 20 -35 25 -35 9 0 42 -51 41 -65 0 -3 9 -21 21 -41 11 -20 18 -39
15 -41 -8 -8 -51 70 -48 85 2 8 -1 12 -5 9 -5 -3 -33 21 -62 54 -29 32 -59 59
-68 59 -25 0 -41 23 -32 48 10 25 32 21 73 -15z"/>
<path d="M900 2146 c-13 -13 -13 -56 0 -56 6 0 10 8 10 17 0 9 7 24 15 33 13
15 13 17 0 17 -8 0 -19 -5 -25 -11z"/>
<path d="M2701 2109 c-17 -48 -13 -57 9 -24 21 32 26 55 11 55 -5 0 -14 -14
-20 -31z"/>
<path d="M30 2113 c0 -7 -7 -13 -15 -13 -8 0 -15 -4 -15 -10 0 -5 19 -10 43
-10 36 1 39 2 22 12 -11 6 -23 16 -27 22 -5 8 -8 7 -8 -1z"/>
<path d="M2539 2069 c-11 -23 -16 -38 -11 -35 5 3 15 19 22 36 10 24 15 28 27
19 15 -13 28 -6 18 10 -13 22 -35 10 -56 -30z"/>
<path d="M836 2058 c-27 -38 -17 -49 14 -16 34 35 35 38 16 38 -8 0 -22 -10
-30 -22z"/>
<path d="M2854 2072 c3 -5 -9 -16 -25 -26 -38 -22 -30 -33 11 -16 21 9 52 11
95 6 60 -6 65 -5 65 13 0 11 -9 21 -22 25 -34 9 -130 7 -124 -2z"/>
<path d="M733 2045 c23 -22 34 -25 55 -19 l27 7 -30 7 c-16 3 -41 12 -55 19
-24 13 -24 12 3 -14z"/>
<path d="M2490 2055 c-14 -8 -32 -14 -41 -15 -23 0 -34 -30 -12 -30 19 0 83
41 83 53 0 9 0 9 -30 -8z"/>
<path d="M2789 2047 c-34 -23 -73 -91 -161 -284 -21 -44 -53 -97 -71 -117 -19
-20 -32 -36 -30 -36 3 0 -2 -12 -12 -26 -9 -15 -12 -23 -6 -20 10 7 16 -30 13
-92 -1 -12 3 -20 8 -17 9 6 14 -8 11 -27 0 -5 3 -8 9 -8 5 0 10 -5 10 -11 0
-11 44 -50 55 -49 3 0 14 -8 24 -17 43 -39 56 -49 85 -61 l31 -12 -35 4 c-19
2 -44 7 -55 10 -11 4 5 -5 35 -20 60 -28 70 -38 70 -71 0 -12 4 -24 10 -28 5
-3 7 9 5 30 -3 21 -1 35 6 35 5 0 7 5 4 11 -4 6 1 13 12 15 10 3 26 18 35 35
17 29 17 29 -3 19 -11 -6 -17 -15 -14 -20 3 -5 0 -12 -6 -16 -8 -4 -9 -3 -5 4
4 7 2 12 -4 12 -19 0 53 81 95 106 22 13 36 24 30 24 -31 0 -152 -114 -153
-145 0 -5 -6 -11 -13 -14 -6 -2 -9 1 -5 7 3 5 0 12 -8 15 -34 13 -183 138
-195 164 -8 15 -15 60 -17 98 -2 49 -1 58 4 30 l7 -40 59 130 c32 72 72 161
87 199 35 84 63 131 103 174 35 38 31 40 -15 9z"/>
<path d="M3 2041 c-1 -16 6 -18 66 -18 126 0 187 -29 264 -124 l27 -34 -29 50
c-30 50 -98 134 -86 105 4 -9 0 -7 -9 3 -19 24 -74 36 -161 37 -62 0 -71 -2
-72 -19z"/>
<path d="M2536 1904 c-73 -142 -81 -153 -102 -148 -21 5 -24 3 -24 -21 0 -15
-21 -87 -46 -161 -25 -74 -44 -140 -42 -146 2 -6 19 34 38 88 36 108 95 234
109 234 16 0 33 -28 21 -35 -5 -3 -10 0 -10 7 0 22 -25 -24 -74 -137 -62 -141
-64 -148 -32 -103 14 20 37 67 51 105 13 37 30 72 37 78 7 6 18 19 24 30 7 12
21 19 34 17 25 -2 77 25 85 46 3 10 -1 12 -16 7 -18 -6 -16 1 16 65 20 40 39
70 41 67 3 -3 0 -15 -6 -27 -6 -12 -10 -24 -7 -26 4 -5 39 64 58 114 6 17 6
21 -3 16 -8 -5 -9 5 -4 37 4 24 5 41 3 39 -3 -3 -31 -62 -62 -133 -63 -140
-88 -179 -110 -171 -18 7 -15 28 10 74 11 19 18 38 17 43 -1 4 3 7 8 7 6 0 10
7 10 15 0 8 5 15 10 15 6 0 10 6 10 13 0 8 9 42 21 76 11 35 19 65 17 66 -2 2
-39 -66 -82 -151z"/>
<path d="M2492 1988 c-43 -71 -131 -248 -123 -248 5 0 41 63 80 140 68 133 86
178 43 108z"/>
<path d="M583 2003 c-30 -4 -42 -20 -27 -35 9 -10 74 15 74 29 0 7 -3 12 -7
11 -5 0 -23 -3 -40 -5z"/>
<path d="M1255 1979 c-18 -60 -110 -103 -134 -61 -10 16 -10 16 -11 0 -1 -58
124 -25 160 43 5 8 5 21 0 28 -6 10 -10 7 -15 -10z"/>
<path d="M2355 1980 c-9 -15 13 -40 35 -40 17 0 47 27 39 34 -12 11 -68 16
-74 6z"/>
<path d="M1047 1947 c-6 -39 5 -87 22 -87 4 0 14 7 21 15 10 12 9 15 -6 15
-12 0 -15 3 -8 8 6 4 14 21 18 37 4 19 3 25 -2 17 -14 -20 -26 -16 -33 10 -4
19 -6 17 -12 -15z"/>
<path d="M2019 1965 c15 -30 60 -82 61 -69 0 6 -16 28 -35 50 -20 21 -31 30
-26 19z"/>
<path d="M600 1910 c0 -20 39 -72 40 -52 0 7 5 10 10 7 6 -4 8 -11 5 -16 -4
-5 4 -9 16 -9 21 0 21 1 -6 24 -15 13 -25 28 -22 33 3 4 -6 13 -19 20 -21 10
-24 9 -24 -7z"/>
<path d="M2186 1848 c-10 -15 -14 -17 -10 -5 4 9 3 17 0 17 -4 0 -21 -30 -38
-67 l-32 -67 -43 49 c-42 48 -57 45 -28 -5 26 -46 16 -190 -14 -190 -13 0 -13
-2 -3 -9 10 -6 11 -13 4 -27 -6 -11 -13 -31 -17 -47 -7 -33 -41 -70 -56 -61
-6 3 -21 -4 -34 -16 -14 -13 -41 -33 -62 -46 -52 -32 -25 -30 50 4 34 16 88
52 120 81 46 43 60 51 71 41 12 -10 12 -17 -6 -48 -12 -20 -35 -50 -52 -65
-21 -19 -25 -27 -12 -23 12 4 24 0 32 -11 7 -10 14 -13 14 -6 0 6 -4 15 -10
18 -6 4 2 22 19 43 39 50 45 81 20 101 -21 17 -18 51 5 51 6 0 47 -40 91 -90
69 -79 105 -111 105 -94 0 16 -28 55 -71 99 -26 28 -71 76 -99 108 l-51 59 6
-35 c5 -28 2 -42 -16 -66 -12 -17 -24 -29 -26 -27 -2 2 3 29 12 62 8 32 15 79
15 105 0 42 2 47 20 42 18 -5 18 -7 5 -39 -26 -63 4 -35 42 39 70 135 85 175
49 125z"/>
<path d="M1826 1828 c18 -38 34 -42 34 -7 0 12 -4 17 -11 14 -6 -4 -17 1 -25
11 -10 14 -10 9 2 -18z"/>
<path d="M1160 1804 c0 -6 6 -17 14 -23 11 -9 14 -7 18 12 3 17 0 23 -14 23
-10 0 -18 -6 -18 -12z"/>
<path d="M401 1785 c2 -6 30 -62 63 -125 32 -62 67 -136 77 -164 9 -28 18 -42
18 -31 0 11 -8 40 -19 64 -36 78 -19 102 18 26 27 -56 31 -130 6 -121 -14 5
-15 4 -4 -9 20 -24 -15 -64 -91 -102 -76 -39 -68 -42 26 -9 80 28 94 50 102
159 4 58 2 72 -15 90 -10 12 -31 42 -45 67 -15 25 -38 59 -52 75 l-26 30 16
-38 c22 -55 3 -37 -30 25 -25 48 -54 89 -44 63z"/>
<path d="M1795 1750 c-6 -9 38 -80 50 -80 7 0 -13 49 -29 72 -9 13 -16 16 -21
8z"/>
<path d="M696 1710 c4 -14 29 -88 56 -165 28 -77 50 -148 51 -157 1 -10 2 -18
3 -18 1 0 12 17 24 38 20 33 20 35 3 19 -20 -17 -21 -16 -37 30 -10 27 -24 63
-32 82 -14 32 -14 34 1 21 15 -12 16 -11 9 16 -4 16 -10 31 -14 34 -4 3 -22
32 -39 65 -17 33 -29 49 -25 35z"/>
<path d="M2344 1706 c-4 -18 -11 -25 -20 -22 -10 4 -14 -2 -14 -19 0 -14 -11
-54 -25 -90 -27 -72 -19 -90 11 -22 10 23 22 45 27 48 10 7 40 119 33 126 -3
3 -8 -7 -12 -21z"/>
<path d="M2940 1720 c0 -6 -5 -8 -11 -5 -6 4 -5 -2 3 -14 7 -11 18 -23 25 -25
18 -7 16 22 -2 40 -9 9 -15 11 -15 4z"/>
<path d="M620 1714 c0 -10 52 -95 56 -91 3 2 -7 25 -22 50 -24 43 -34 56 -34
41z"/>
<path d="M2161 1689 c-13 -5 -21 -12 -18 -15 9 -9 57 5 57 16 0 12 -7 12 -39
-1z"/>
<path d="M565 1675 c-3 -8 -7 -22 -10 -31 -6 -19 41 -64 68 -64 9 0 17 -5 17
-10 0 -6 10 -21 23 -33 25 -24 56 -69 74 -107 6 -14 12 -19 12 -13 1 20 -56
136 -78 160 -11 12 -39 32 -61 44 -34 19 -40 27 -35 46 6 25 -3 32 -10 8z"/>
<path d="M2490 1677 c0 -7 7 -22 15 -33 12 -16 14 -17 15 -2 0 23 -11 48 -21
48 -5 0 -9 -6 -9 -13z"/>
<path d="M2763 1650 c-6 -24 -21 -26 -30 -4 -4 12 -8 13 -14 3 -4 -7 -3 -22 3
-32 8 -16 12 -17 19 -6 6 11 17 9 55 -9 25 -13 49 -21 52 -18 3 3 -3 8 -12 12
-9 3 -13 11 -9 17 3 6 1 7 -5 3 -18 -11 -53 16 -46 36 3 10 2 18 -1 18 -4 0
-9 -9 -12 -20z"/>
<path d="M2249 1651 c9 -6 11 -18 7 -35 -7 -30 -18 -33 -36 -11 -27 33 -43 -3
-17 -39 17 -23 39 -13 61 29 21 38 16 65 -11 65 -14 0 -15 -2 -4 -9z"/>
<path d="M115 1633 c-11 -8 -29 -21 -40 -29 -16 -11 -17 -16 -6 -26 11 -10 12
-10 7 0 -4 7 -2 12 7 12 14 0 63 47 56 54 -2 2 -13 -2 -24 -11z"/>
<path d="M813 1633 c-17 -6 -16 -32 3 -63 15 -25 15 -25 8 -1 -4 16 -3 21 5
17 18 -12 12 6 -6 20 -17 12 -16 13 7 23 14 5 18 10 10 10 -8 -1 -21 -3 -27
-6z"/>
<path d="M2697 1563 c-9 -9 -9 -43 1 -43 11 0 32 37 25 44 -8 8 -18 8 -26 -1z"/>
<path d="M2737 1540 c-3 -13 0 -20 8 -20 7 0 15 -4 17 -9 2 -4 12 -5 23 0 19
7 19 8 -2 8 -16 1 -23 7 -23 21 0 11 -4 20 -9 20 -5 0 -11 -9 -14 -20z"/>
<path d="M1081 1512 c15 -25 158 -116 167 -107 4 4 -3 14 -16 24 -12 9 -48 35
-79 59 -60 45 -92 56 -72 24z"/>
<path d="M1030 1497 c0 -12 69 -72 102 -90 32 -17 32 -17 8 0 -14 10 -44 35
-67 57 -24 21 -43 36 -43 33z"/>
<path d="M2956 1484 c-22 -8 -42 -17 -45 -21 -3 -3 2 -3 11 0 10 3 20 2 23 -2
7 -12 55 11 55 27 0 6 -1 12 -2 11 -2 0 -21 -7 -42 -15z"/>
<path d="M2669 1473 c-1 -5 -1 -11 -1 -15 1 -3 -5 -12 -13 -18 -16 -14 -50 -6
-40 9 3 6 12 8 20 4 8 -3 15 -1 15 4 0 5 -13 9 -29 9 -25 0 -28 -2 -20 -17 5
-10 19 -25 31 -34 21 -14 23 -14 30 4 3 10 11 22 17 26 14 8 14 35 1 35 -5 0
-11 -3 -11 -7z"/>
<path d="M2824 1463 c-10 -10 -33 -30 -52 -45 -19 -16 -30 -28 -24 -28 6 0 23
11 39 24 15 13 44 33 63 45 29 17 31 21 13 21 -12 0 -29 -8 -39 -17z"/>
<path d="M29 1422 c-9 -26 -20 -56 -23 -67 -4 -11 0 -7 9 8 22 38 46 107 37
107 -4 0 -14 -22 -23 -48z"/>
<path d="M435 1437 c-4 -16 -1 -35 10 -50 16 -25 16 -26 -13 -41 -29 -15 -29
-15 -24 11 3 18 1 24 -7 19 -14 -9 -14 -43 0 -52 6 -3 24 3 40 15 15 11 33 21
38 21 18 0 41 44 40 75 l-1 30 -13 -35 c-9 -24 -14 -29 -15 -15 -1 20 -1 20
-15 1 -8 -11 -18 -17 -21 -13 -4 4 -2 13 5 20 9 11 8 17 -3 27 -13 10 -16 7
-21 -13z"/>
<path d="M2854 1431 c-22 -15 -52 -43 -67 -61 -17 -19 -33 -30 -42 -26 -9 3
-15 0 -15 -9 0 -30 39 -14 89 38 98 99 104 108 35 58z"/>
<path d="M60 1428 c0 -14 8 -18 38 -18 20 0 67 -11 104 -23 37 -13 69 -19 71
-14 1 5 32 -15 67 -44 63 -51 64 -51 25 -10 -67 72 -133 103 -247 120 -53 7
-58 6 -58 -11z"/>
<path d="M1000 1421 c0 -3 4 -12 9 -20 8 -12 12 -12 25 -2 22 19 20 26 -9 27
-14 1 -25 -1 -25 -5z"/>
<path d="M2120 1424 c0 -3 10 -19 23 -34 12 -16 34 -46 49 -67 27 -40 73 -72
85 -59 4 4 0 12 -10 17 -9 6 -17 14 -17 20 0 17 40 -11 52 -37 9 -20 8 -27 -6
-37 -16 -12 -17 -15 -3 -29 9 -8 20 -34 27 -57 13 -48 25 -46 41 9 10 34 10
43 -4 58 -21 23 -22 46 -1 66 21 22 70 21 78 -1 12 -34 56 -106 56 -91 0 20
-41 121 -53 129 -15 11 -79 1 -94 -14 -13 -13 -19 -12 -51 4 -22 10 -41 14
-46 9 -10 -10 -66 47 -91 93 -14 24 -35 37 -35 21z"/>
<path d="M31 1353 c-25 -52 -21 -56 8 -8 19 33 61 50 61 24 0 -7 12 -9 33 -6
17 2 43 0 57 -6 14 -5 33 -12 44 -14 10 -2 35 -16 55 -31 55 -43 70 -48 30 -9
-41 40 -117 71 -205 84 l-62 9 -21 -43z"/>
<path d="M1960 1331 c-66 -48 -275 -91 -435 -91 -115 0 -342 51 -370 83 -18
21 -55 13 -69 -15 -7 -14 -31 -50 -53 -79 -55 -75 -61 -91 -17 -44 27 29 32
33 20 13 -38 -65 -50 -79 -62 -74 -7 3 -18 -2 -25 -10 -12 -15 -90 -54 -107
-54 -6 0 -12 7 -16 15 -7 19 -26 20 -26 2 0 -25 43 -36 84 -22 59 21 172 105
159 119 -3 3 0 12 6 20 7 8 10 19 7 24 -5 9 66 82 80 82 4 0 37 -11 74 -24 98
-36 259 -57 416 -55 74 1 134 5 134 9 0 4 26 12 58 19 31 7 81 24 111 37 29
13 58 24 64 24 6 0 29 -17 50 -37 l39 -38 -21 42 c-12 23 -21 49 -21 58 0 17
-25 20 -36 4 -4 -7 -9 -8 -13 -1 -4 7 -15 4 -31 -7z"/>
<path d="M1675 1325 l-40 -13 45 5 c25 3 54 9 65 14 36 14 -25 9 -70 -6z"/>
<path d="M2561 1298 c-8 -13 -20 -32 -28 -44 -11 -18 -11 -23 1 -33 12 -10 14
-9 10 6 -5 20 32 67 46 58 5 -3 14 -22 21 -43 15 -46 42 -99 68 -132 l20 -25
-6 23 c-4 17 -2 23 8 22 25 -4 39 0 39 10 0 6 -11 10 -24 10 -19 0 -27 10 -45
60 -12 32 -26 62 -31 65 -5 3 -2 -11 6 -31 24 -57 10 -50 -17 9 -33 72 -46 81
-68 45z"/>
<path d="M2471 1300 c-2 -22 62 -176 67 -161 2 7 13 1 28 -16 37 -43 29 -22
-21 51 -25 37 -45 74 -45 82 0 8 -4 14 -9 14 -5 0 -12 10 -14 23 -2 12 -5 15
-6 7z"/>
<path d="M480 1280 c-30 -11 -65 -19 -77 -19 -13 -1 -23 -5 -23 -11 0 -12 71
-7 91 6 8 5 30 16 49 26 46 21 29 21 -40 -2z"/>
<path d="M55 1279 c4 -6 26 -9 48 -7 36 2 42 0 48 -22 6 -21 7 -22 8 -5 1 18
6 20 41 17 43 -4 55 12 18 22 -41 10 -170 7 -163 -5z"/>
<path d="M303 1254 c44 -23 47 -27 47 -64 0 -22 5 -40 11 -40 7 0 8 14 4 43
-4 23 -8 43 -9 43 -6 7 -87 44 -93 44 -4 -1 13 -12 40 -26z"/>
<path d="M0 1253 c0 -5 22 -8 49 -8 27 0 47 3 44 8 -2 4 -24 7 -49 7 -24 0
-44 -3 -44 -7z"/>
<path d="M2143 1237 c4 -10 7 -24 7 -29 0 -6 3 -8 7 -5 3 4 12 2 19 -4 8 -6
14 -6 18 0 4 5 2 12 -4 16 -5 3 -10 3 -10 -1 0 -4 -10 4 -22 17 -16 18 -19 19
-15 6z"/>
<path d="M2934 1219 c-33 -17 -66 -36 -74 -44 -8 -7 -44 -30 -80 -50 -52 -29
-59 -36 -33 -31 17 3 61 25 98 50 37 25 87 53 111 63 24 10 44 24 44 31 0 16
0 16 -66 -19z"/>
<path d="M860 1220 c0 -24 23 -26 41 -3 13 15 12 16 -9 11 -12 -4 -20 -2 -16
3 3 5 0 9 -5 9 -6 0 -11 -9 -11 -20z"/>
<path d="M633 1199 c-9 -9 0 -27 37 -78 50 -69 53 -86 14 -78 -13 2 -24 0 -24
-4 0 -10 63 -12 73 -3 8 8 -8 39 -45 85 -16 20 -32 48 -36 63 -6 20 -10 24
-19 15z"/>
<path d="M750 1180 c0 -11 4 -20 9 -20 5 0 11 -9 14 -20 7 -26 37 -26 37 0 0
19 -36 60 -52 60 -4 0 -8 -9 -8 -20z"/>
<path d="M2104 1193 c4 -7 9 -23 11 -34 3 -12 7 -24 11 -28 4 -3 4 2 1 12 -12
31 28 19 63 -20 18 -21 31 -39 29 -40 -2 0 8 -11 24 -23 36 -29 34 -40 -8 -40
-19 0 -35 -4 -35 -10 0 -5 -7 -10 -15 -10 -8 0 -15 -8 -15 -18 0 -10 -6 -24
-12 -31 -11 -11 -10 -12 2 -6 40 22 70 47 65 56 -4 5 1 6 10 3 17 -7 88 42 80
56 -3 5 -18 11 -34 15 -16 3 -32 13 -35 21 -3 8 -13 14 -21 14 -9 0 -13 5 -10
10 3 6 -1 10 -10 10 -8 0 -18 7 -21 15 -3 8 -16 17 -27 21 -12 3 -31 14 -41
23 -11 9 -16 10 -12 4z"/>
<path d="M579 1135 c-25 -55 -40 -179 -19 -159 6 7 13 31 15 55 5 89 5 85 14
70 7 -11 11 -5 16 22 11 59 -1 65 -26 12z"/>
<path d="M2421 1115 c-31 -82 -28 -93 14 -56 20 17 42 31 50 31 12 0 9 10 -11
40 -15 22 -28 40 -30 40 -1 0 -12 -25 -23 -55z"/>
<path d="M286 1128 c22 -42 45 -60 59 -46 7 7 6 12 -3 15 -6 3 -10 9 -7 14 4
5 -2 6 -11 2 -11 -4 -15 -2 -11 4 4 6 -5 18 -19 28 l-25 16 17 -33z"/>
<path d="M0 1108 c0 -4 19 -8 43 -8 26 0 37 -3 29 -9 -8 -5 4 -8 32 -7 25 1
39 4 31 9 -21 11 -135 25 -135 15z"/>
<path d="M621 1097 c-14 -36 -14 -47 0 -47 5 0 7 4 4 10 -3 5 0 7 8 4 20 -7
28 21 12 43 -13 17 -14 16 -24 -10z"/>
<path d="M2960 1063 c-73 -26 -126 -56 -127 -72 -1 -14 4 -17 18 -14 22 6 25
19 7 26 -9 4 -8 6 3 6 8 1 20 -4 26 -10 8 -8 11 -7 10 2 -1 8 3 15 8 16 6 0 9
-3 8 -8 -2 -5 2 -9 7 -9 6 0 10 7 10 15 0 8 14 18 32 23 17 4 33 13 36 20 4
12 -12 14 -38 5z"/>
<path d="M210 1040 c27 -23 26 -23 -40 -4 -39 11 -19 -4 25 -20 25 -8 43 -11
40 -5 -4 5 -2 9 4 9 5 0 11 -10 13 -22 2 -11 10 -22 18 -24 8 -1 24 -5 35 -9
19 -6 19 -6 1 5 -11 8 -14 15 -8 19 6 3 -18 21 -51 39 -40 21 -53 25 -37 12z"/>
<path d="M0 1009 c0 -7 2 -10 5 -7 3 3 35 -3 70 -12 36 -10 67 -14 70 -10 2 4
-21 12 -53 19 -31 7 -65 15 -74 17 -10 3 -18 0 -18 -7z"/>
<path d="M0 984 c0 -7 48 -23 83 -29 18 -3 44 -8 60 -11 47 -10 29 4 -20 15
-27 6 -65 15 -85 20 -21 5 -38 7 -38 5z"/>
<path d="M470 977 c0 -5 11 -24 25 -44 22 -34 25 -61 5 -48 -11 7 -24 -39 -17
-57 3 -7 6 -2 6 12 1 14 10 31 21 38 28 17 25 35 -10 74 -16 18 -30 29 -30 25z"/>
<path d="M953 966 c0 -6 7 -12 16 -13 9 0 43 -12 76 -26 34 -15 81 -29 105
-32 34 -4 27 -1 -26 14 -40 11 -94 31 -121 45 -32 16 -50 20 -50 12z"/>
<path d="M2292 952 c-33 -28 -40 -42 -21 -42 12 0 59 50 59 63 0 10 -1 9 -38
-21z"/>
<path d="M2625 935 c18 -44 89 -168 80 -140 -3 11 -12 37 -18 58 -7 20 -18 37
-25 37 -8 0 -12 6 -9 13 5 14 -23 67 -35 67 -5 0 -2 -16 7 -35z"/>
<path d="M0 949 c0 -9 14 -13 39 -10 7 2 11 -4 9 -11 -3 -7 -15 -12 -26 -10
-12 2 -22 -1 -22 -5 0 -13 50 -10 58 4 5 9 19 9 47 3 22 -5 43 -10 48 -10 13
0 8 17 -5 17 -27 2 -84 13 -115 22 -20 6 -33 6 -33 0z"/>
<path d="M647 940 c3 -12 0 -20 -8 -20 -8 0 -6 -5 6 -13 11 -9 14 -16 7 -21
-6 -3 -14 -2 -17 4 -5 8 -11 7 -21 -1 -7 -6 -11 -15 -8 -20 3 -5 -2 -6 -10 -3
-10 4 -16 1 -16 -7 0 -7 -8 -21 -17 -32 -13 -15 -8 -13 22 6 22 15 44 27 48
27 5 0 19 8 32 18 l24 19 -20 31 c-22 37 -29 41 -22 12z"/>
<path d="M2890 945 c-19 -7 -27 -14 -17 -14 19 -1 23 -21 6 -38 -9 -9 -7 -11
8 -7 14 4 19 12 16 28 -3 16 2 24 24 33 15 6 21 11 13 11 -8 0 -31 -6 -50 -13z"/>
<path d="M2201 911 c-8 -5 -20 -7 -28 -4 -7 3 -13 -1 -13 -10 0 -11 7 -13 32
-8 17 4 33 12 36 19 4 14 -7 15 -27 3z"/>
<path d="M2533 901 c-10 -16 -21 -18 -75 -14 -35 3 -90 0 -122 -6 -52 -10 -60
-9 -72 7 -11 15 -13 15 -19 -10 -6 -23 -69 -75 -118 -96 -4 -2 -30 13 -57 33
-28 20 -50 32 -50 26 0 -7 7 -14 15 -17 8 -4 15 -14 15 -23 0 -22 33 -41 59
-34 27 7 26 -1 -2 -40 -13 -18 -29 -56 -35 -85 -19 -87 -13 -92 13 -12 31 95
66 137 151 181 63 32 75 34 181 38 l113 3 72 -37 c55 -28 68 -31 54 -16 -11
12 -45 34 -77 50 -52 26 -56 30 -41 45 9 8 14 18 11 20 -3 3 -10 -3 -16 -13z"/>
<path d="M1599 908 c0 -2 -2 -54 -3 -116 -2 -62 -6 -115 -9 -119 -4 -3 -2 -12
4 -20 9 -10 8 -13 0 -13 -7 0 -10 -8 -7 -18 12 -38 14 -88 3 -101 -9 -11 -9
-13 0 -8 6 4 14 3 18 -3 3 -5 1 -10 -6 -10 -8 0 -8 -4 -2 -12 6 -7 13 -26 17
-42 4 -15 10 -26 13 -22 13 13 -5 486 -18 486 -5 0 -9 -1 -10 -2z"/>
<path d="M2950 887 c-19 -7 -39 -14 -45 -14 -12 -2 -20 -23 -8 -22 13 1 109
47 98 48 -5 0 -26 -6 -45 -12z"/>
<path d="M774 862 c5 -8 -5 -12 -31 -12 -61 -1 -197 -73 -190 -102 1 -6 -4
-13 -12 -16 -8 -3 -11 0 -7 7 11 17 0 13 -15 -6 -10 -11 -10 -14 -1 -9 18 10
15 -4 -5 -26 -10 -11 11 -1 45 22 67 45 76 55 36 40 -62 -24 -30 10 39 41 44
19 68 23 157 22 65 -1 106 -6 108 -12 2 -6 8 -9 13 -5 5 3 9 1 9 -5 0 -6 7 -8
15 -5 8 4 15 2 15 -3 0 -8 53 -44 65 -43 11 0 115 -121 110 -129 -3 -5 0 -11
6 -13 6 -2 17 -26 24 -53 9 -32 14 -41 14 -25 1 14 -4 41 -10 60 -5 19 -12 43
-14 54 -5 21 -13 31 -24 31 -4 0 -37 29 -73 65 -37 36 -91 78 -120 93 -58 29
-167 49 -154 29z"/>
<path d="M980 836 c0 -14 36 -46 52 -46 5 0 8 9 8 20 0 12 -5 17 -14 14 -7 -3
-21 2 -30 11 -14 14 -16 14 -16 1z"/>
<path d="M1295 839 c-3 -3 -9 -19 -15 -35 -9 -27 -9 -28 5 -10 8 11 15 23 15
28 0 4 14 8 30 8 17 0 30 5 30 10 0 11 -59 10 -65 -1z"/>
<path d="M482 793 c-12 -25 -20 -48 -17 -51 3 -4 8 4 12 17 3 12 11 20 17 18
8 -3 12 7 13 29 1 19 0 34 0 34 -1 -1 -12 -22 -25 -47z"/>
<path d="M1891 824 c-1 -11 6 -29 14 -40 8 -10 15 -15 15 -11 0 5 7 1 16 -7
25 -25 44 -19 60 20 19 46 13 52 -25 24 l-31 -21 0 21 c0 12 -4 18 -10 15 -5
-3 -10 0 -10 7 0 10 -2 10 -9 -1 -7 -11 -9 -11 -14 0 -3 9 -6 6 -6 -7z"/>
<path d="M170 812 c0 -10 -7 -13 -27 -8 -57 13 -93 16 -93 8 0 -4 8 -8 18 -8
9 -1 38 -4 65 -9 31 -5 47 -4 47 3 0 6 12 12 28 14 26 3 26 4 -5 9 -25 4 -33
2 -33 -9z"/>
<path d="M1183 810 c-18 -11 -33 -17 -33 -14 0 3 -14 -6 -31 -20 -17 -14 -37
-26 -44 -26 -18 0 -28 17 -15 23 7 4 6 5 0 4 -18 -4 -16 -19 3 -31 14 -9 26
-6 57 12 47 26 63 27 96 6 33 -22 56 -4 31 24 -9 10 -17 24 -17 30 0 17 -10
15 -47 -8z"/>
<path d="M1831 795 c0 -22 4 -71 9 -109 l10 -69 -93 -96 c-93 -94 -133 -151
-124 -174 3 -7 8 -4 13 8 4 11 54 65 111 119 57 55 103 107 103 117 0 30 17
31 39 3 22 -27 71 -59 71 -45 0 4 -18 25 -41 46 -48 47 -81 102 -55 92 13 -5
13 0 -4 36 -10 23 -23 58 -28 77 l-10 35 -1 -40z"/>
<path d="M1351 804 c-3 -49 -24 -85 -64 -109 l-42 -25 33 0 c18 0 40 8 51 19
22 22 35 75 28 112 -4 21 -4 21 -6 3z"/>
<path d="M10 791 c13 -9 13 -12 1 -20 -10 -6 -5 -11 20 -16 70 -16 186 -29
178 -21 -3 4 -28 9 -55 12 -27 3 -58 6 -69 8 -11 2 -28 4 -37 5 -10 0 -18 6
-18 11 0 10 73 6 91 -6 5 -3 9 0 9 5 0 6 -8 11 -17 12 -26 1 -54 5 -88 13 -23
6 -26 5 -15 -3z"/>
<path d="M2948 733 c17 -7 15 -23 -3 -23 -8 0 -15 -6 -15 -14 0 -8 -6 -17 -12
-19 -10 -4 -10 -6 0 -6 7 -1 15 6 18 14 4 8 12 15 19 15 7 0 15 8 17 18 4 13
-1 18 -16 19 -12 1 -15 -1 -8 -4z"/>
<path d="M30 700 c8 -5 31 -9 50 -9 l35 1 -30 8 c-16 4 -39 8 -50 9 -16 1 -17
-1 -5 -9z"/>
<path d="M25 675 c17 -8 46 -14 65 -13 34 0 34 0 -9 9 -23 4 -53 11 -65 14
-12 2 -8 -2 9 -10z"/>
<path d="M1175 670 c2 -12 7 -30 10 -41 4 -11 2 -19 -5 -19 -8 0 -8 -6 0 -20
13 -25 30 -17 30 14 0 12 6 28 13 35 10 11 9 12 -1 6 -10 -5 -13 -1 -10 16 2
18 -2 25 -19 27 -18 3 -21 -1 -18 -18z"/>
<path d="M1341 677 c-6 -8 -8 -16 -5 -20 3 -3 -3 -18 -13 -33 -12 -19 -13 -25
-4 -20 12 8 13 -2 8 -58 -7 -77 -24 -108 -95 -180 l-48 -50 12 -89 c7 -48 15
-91 19 -95 4 -4 5 4 2 18 -3 14 -9 55 -13 92 l-7 67 56 60 c34 37 63 81 75
113 11 29 26 52 32 50 7 -1 8 2 4 10 -13 21 -15 50 -3 43 6 -4 8 -13 5 -21 -3
-8 0 -14 7 -14 7 0 49 -29 92 -64 81 -64 133 -96 157 -96 7 0 1 8 -14 18 -14
9 -67 52 -116 94 -49 43 -101 83 -115 89 -24 11 -26 16 -20 55 6 46 3 53 -16
31z"/>
<path d="M2215 675 c-42 -16 -115 -76 -115 -95 0 -6 17 6 38 26 40 39 104 74
137 73 15 0 17 -2 5 -7 -14 -6 -16 -15 -11 -38 0 -3 13 3 28 14 27 19 27 19
95 -4 65 -22 68 -22 58 -3 -10 18 -6 23 13 20 5 -1 6 3 2 8 -3 6 -13 7 -22 4
-9 -4 -14 -2 -11 3 10 16 -173 15 -217 -1z"/>
<path d="M820 666 c-73 -27 -180 -88 -122 -70 14 5 14 3 -2 -10 -24 -19 -40
-21 -30 -3 4 7 3 9 -2 4 -5 -5 -9 -14 -9 -20 0 -7 -9 -12 -20 -12 -11 0 -20
-7 -20 -15 0 -8 -9 -15 -20 -15 -11 0 -20 -5 -20 -10 0 -6 -4 -16 -8 -22 -4
-7 29 11 75 39 115 71 203 111 228 103 11 -3 20 -11 20 -16 0 -5 13 -9 28 -9
19 0 39 -11 62 -35 19 -19 30 -35 25 -35 -5 0 1 -7 13 -16 12 -8 22 -22 22
-30 0 -8 4 -14 9 -14 5 0 11 -15 15 -32 21 -115 19 -131 -9 -77 -9 17 -19 29
-21 26 -3 -3 1 -18 9 -34 8 -15 27 -82 41 -148 43 -194 50 -221 54 -203 2 10
9 18 15 18 7 0 6 4 -3 10 -10 7 -11 10 -2 10 10 0 9 5 -2 23 -8 12 -22 61 -30
110 -8 48 -18 92 -21 97 -3 6 1 10 10 10 12 0 15 5 10 18 -21 51 -30 117 -15
107 6 -3 10 -1 10 4 0 6 -5 11 -11 11 -5 0 -8 4 -4 10 8 13 -39 102 -77 145
-27 32 -134 96 -155 94 -4 0 -24 -6 -43 -13z"/>
<path d="M2060 674 c0 -5 -14 -25 -31 -44 -17 -19 -28 -30 -25 -23 4 6 2 14
-4 18 -6 4 -10 -5 -10 -19 0 -14 5 -26 10 -26 6 0 10 -10 11 -22 0 -14 8 -2
20 31 10 29 24 60 30 67 7 8 9 17 5 21 -3 3 -6 2 -6 -3z"/>
<path d="M2514 644 c21 -20 20 -26 -2 -22 -10 1 -24 -3 -32 -9 -74 -61 -97
-84 -129 -128 -64 -86 -66 -96 -8 -40 20 19 43 35 51 35 8 0 20 12 27 28 6 15
23 36 37 46 23 18 26 18 37 3 7 -10 17 -17 24 -17 18 0 13 24 -9 38 -22 13
-27 32 -9 32 6 0 36 -20 68 -45 63 -50 82 -56 74 -24 -6 21 -116 119 -134 119
-6 0 -3 -7 5 -16z"/>
<path d="M1104 565 c-3 -8 1 -22 10 -31 9 -8 14 -19 11 -24 -3 -4 2 -10 10
-14 11 -4 13 2 9 27 -8 48 -12 57 -24 57 -6 0 -13 -7 -16 -15z"/>
<path d="M887 539 c3 -11 13 -23 22 -27 8 -3 31 -22 51 -42 40 -41 70 -65 70
-57 0 3 -6 12 -12 19 -7 7 -26 30 -41 51 -16 20 -33 35 -38 32 -5 -4 -9 -1 -9
5 0 6 -4 9 -9 5 -5 -3 -12 4 -16 15 -8 27 -25 26 -18 -1z"/>
<path d="M1765 446 c-55 -52 -97 -97 -94 -100 7 -7 169 122 169 135 0 5 7 9
15 9 8 0 15 5 15 12 0 6 7 3 15 -8 13 -17 13 -16 3 14 -7 17 -15 32 -18 32 -3
0 -50 -42 -105 -94z"/>
<path d="M2550 518 c0 -7 5 -20 10 -28 8 -13 10 -12 10 3 0 9 8 17 18 17 14 0
15 2 2 10 -21 14 -40 12 -40 -2z"/>
<path d="M1387 503 c6 -18 43 -59 43 -48 0 3 19 -13 42 -35 24 -22 49 -40 56
-40 7 0 11 -4 8 -9 -3 -5 10 -18 29 -30 19 -11 35 -17 35 -12 0 15 -196 191
-213 191 -4 0 -4 -8 0 -17z"/>
<path d="M699 494 c-1 -10 -1 -23 0 -28 1 -4 -3 -14 -9 -21 -8 -9 -2 -19 24
-38 18 -14 36 -23 40 -20 17 17 -6 83 -29 83 -4 0 -2 -7 5 -15 9 -10 9 -15 1
-15 -6 0 -11 3 -12 8 0 4 -2 17 -3 29 -3 30 -16 42 -17 17z"/>
<path d="M10 481 c8 -5 35 -11 60 -15 30 -4 36 -3 20 3 -41 13 -97 22 -80 12z"/>
<path d="M1139 478 c-6 -20 -3 -52 7 -66 12 -15 13 -14 14 10 0 15 -5 30 -10
33 -6 4 -8 11 -5 16 4 5 4 9 1 9 -3 0 -6 -1 -7 -2z"/>
<path d="M2445 454 c-16 -18 -24 -37 -23 -59 l1 -32 34 43 c50 66 40 104 -12
48z"/>
<path d="M873 452 c-22 -3 -33 -22 -14 -22 4 0 29 -19 55 -41 48 -42 66 -46
47 -11 -16 30 -14 34 12 21 21 -11 21 -10 -3 13 -14 14 -27 24 -30 24 -3 0
-14 4 -25 10 -11 5 -30 8 -42 6z"/>
<path d="M2720 450 c0 -5 4 -10 8 -10 5 0 14 -12 21 -27 7 -15 21 -33 32 -41
10 -7 19 -19 19 -27 0 -7 3 -15 8 -17 8 -3 44 -75 48 -95 1 -7 9 -20 18 -29 9
-8 16 -22 16 -29 0 -7 10 -26 23 -42 13 -15 26 -36 30 -45 3 -10 12 -18 19
-18 22 0 41 17 34 29 -4 6 -12 9 -17 6 -5 -4 -9 1 -9 9 0 9 -4 16 -10 16 -5 0
-12 11 -16 25 -3 14 -9 25 -13 25 -4 0 -22 28 -40 63 -55 106 -77 140 -117
179 -39 38 -54 46 -54 28z"/>
<path d="M226 394 c-26 -25 -58 -65 -73 -87 -14 -23 -30 -46 -37 -52 -18 -16
-66 -111 -66 -131 1 -22 33 -64 49 -64 6 0 11 -3 11 -8 0 -12 96 -54 116 -50
12 2 -6 19 -59 54 -42 29 -82 54 -89 57 -9 3 -7 11 10 29 12 13 22 32 22 41 0
9 4 17 9 17 5 0 14 13 21 29 6 16 19 32 27 35 9 4 13 14 10 26 -3 12 0 20 7
20 7 0 18 11 24 25 6 14 18 25 26 25 7 0 19 14 26 30 15 37 28 38 36 5 9 -36
17 -23 9 14 -4 17 -12 31 -20 31 -7 0 -34 -21 -59 -46z"/>
<path d="M800 420 c-24 -24 -27 -67 -5 -67 8 0 17 9 21 19 7 24 13 23 51 -10
62 -53 72 -61 75 -54 2 4 -25 35 -60 69 -62 62 -62 63 -82 43z"/>
<path d="M2689 422 c-1 -4 -4 -38 -5 -77 -2 -38 -5 -77 -5 -85 -1 -8 -13 -62
-26 -120 -33 -142 -33 -140 -23 -140 17 0 89 287 93 370 2 43 -1 53 -15 55
-10 2 -19 0 -19 -3z"/>
<path d="M315 352 c-12 -86 63 -378 90 -351 2 3 -5 39 -16 80 -11 40 -18 84
-16 96 2 13 1 23 -3 23 -10 0 -32 108 -29 140 7 73 -16 84 -26 12z"/>
<path d="M505 323 c72 -131 203 -311 234 -321 8 -3 -2 13 -22 34 -53 58 -153
199 -198 281 -22 40 -43 73 -46 73 -2 0 12 -30 32 -67z"/>
<path d="M1144 255 c10 -88 25 -164 43 -213 26 -70 31 -47 6 28 -13 38 -28
107 -34 152 -13 96 -25 122 -15 33z"/>
<path d="M2615 203 c-26 -64 -60 -129 -93 -180 -12 -19 -12 -23 -1 -22 18 0
138 254 126 266 -2 2 -16 -27 -32 -64z"/>
<path d="M2530 98 c-25 -44 -46 -86 -48 -92 -5 -17 46 63 74 117 41 80 23 61
-26 -25z"/>
<path d="M2121 94 c-15 -61 -8 -68 9 -9 7 25 10 48 8 51 -3 2 -11 -16 -17 -42z"/>
<path d="M930 90 c0 -5 3 -10 8 -10 4 0 31 -18 61 -41 72 -54 76 -44 5 15 -56
46 -74 55 -74 36z"/>
<path d="M0 84 c0 -2 15 -11 33 -20 19 -10 27 -19 19 -22 -10 -3 -9 -8 4 -23
19 -21 34 -25 34 -8 0 5 -4 7 -10 4 -5 -3 -10 -1 -10 4 0 6 5 11 10 11 24 0
-11 37 -44 47 -20 6 -36 9 -36 7z"/>
<path d="M920 57 c0 -14 22 -37 50 -52 8 -5 5 3 -6 16 -12 13 -19 30 -17 37 3
6 -2 12 -11 12 -9 0 -16 -6 -16 -13z"/>
<path d="M2248 53 c-27 -32 -33 -49 -10 -29 12 11 22 16 22 12 0 -4 9 -2 20 4
11 6 20 15 20 21 0 6 -7 3 -16 -5 -20 -20 -28 -20 -20 -1 7 20 2 19 -16 -2z"/>
<path d="M1427 53 c-2 -5 16 -18 41 -31 25 -13 40 -17 34 -10 -17 20 -70 49
-75 41z"/>
<path d="M2941 27 l-55 -27 46 0 c46 0 73 17 66 42 -2 9 -18 6 -57 -15z"/>
<path d="M1775 20 c-18 -20 -17 -20 8 -20 20 0 27 5 27 20 0 25 -12 25 -35 0z"/>
<path d="M1400 15 c0 -10 10 -15 32 -15 30 0 31 1 12 15 -25 19 -44 19 -44 0z"/>
<path d="M2120 18 c0 -8 16 -14 43 -15 l42 -2 -30 14 c-38 18 -55 18 -55 3z"/>
</g>
</svg>
