<?xml version="1.0" standalone="no"?>
<!DOCTYPE svg PUBLIC "-//W3C//DTD SVG 20010904//EN"
 "http://www.w3.org/TR/2001/REC-SVG-20010904/DTD/svg10.dtd">
<svg version="1.0" xmlns="http://www.w3.org/2000/svg"
 width="300.000000pt" height="300.000000pt" viewBox="0 0 300.000000 300.000000"
 preserveAspectRatio="xMidYMid meet">
<metadata>
Created by potrace 1.10, written by Peter Selinger 2001-2011
</metadata>
<g transform="translate(0.000000,300.000000) scale(0.100000,-0.100000)"
fill="#000000" stroke="none">
<path d="M590 2993 c0 -6 5 -15 10 -18 7 -4 6 -13 -1 -27 -13 -24 3 -90 29
-120 8 -10 11 -18 7 -18 -5 0 2 -11 15 -25 39 -41 42 -28 6 28 -58 92 -65 137
-19 137 19 0 24 4 19 16 -3 9 -6 20 -6 25 0 5 -4 9 -10 9 -5 0 -10 -7 -10 -15
0 -20 -10 -19 -26 3 -7 9 -14 12 -14 5z"/>
<path d="M706 2990 c13 -5 27 -25 34 -45 7 -20 14 -34 16 -32 3 3 -3 23 -12
46 -12 31 -22 41 -38 40 l-21 0 21 -9z"/>
<path d="M2856 2920 c-42 -38 -70 -70 -62 -70 7 0 26 16 41 36 15 20 33 33 41
30 8 -3 11 0 8 9 -3 7 3 16 14 19 22 7 60 46 45 46 -5 0 -44 -31 -87 -70z"/>
<path d="M676 2920 c4 -8 20 -33 35 -55 15 -22 29 -54 32 -70 l4 -30 2 33 c0
18 -4 42 -9 52 -7 13 -7 21 0 25 17 11 11 23 -9 18 -11 -3 -28 4 -41 19 -13
12 -19 16 -14 8z"/>
<path d="M1919 2898 c-12 -23 -12 -23 9 -4 41 36 71 -6 35 -47 -17 -19 -17
-20 5 -8 38 20 24 81 -20 81 -9 0 -23 -10 -29 -22z"/>
<path d="M1509 2832 c-4 -54 4 -58 14 -7 3 17 2 37 -3 44 -5 9 -9 -5 -11 -37z"/>
<path d="M2422 2758 c-7 -7 -11 -23 -11 -37 1 -21 2 -22 6 -6 11 43 54 62 67
30 6 -18 -2 -45 -15 -45 -5 0 -9 -10 -9 -21 0 -18 3 -19 14 -10 21 18 30 69
16 86 -15 18 -52 19 -68 3z"/>
<path d="M1396 2671 c-4 -5 2 -7 13 -4 14 3 22 -4 31 -29 10 -25 14 -29 17
-15 8 33 -45 74 -61 48z"/>
<path d="M710 2500 c-12 -8 -12 -10 -1 -10 8 0 20 -8 27 -17 13 -17 13 -17 14
0 0 20 20 22 39 5 10 -11 11 -10 6 4 -8 20 -32 31 -41 17 -4 -7 -10 -7 -18 0
-7 6 -17 6 -26 1z"/>
<path d="M668 2478 c-9 -22 5 -71 23 -76 11 -4 12 -2 2 9 -6 8 -13 30 -15 49
-2 24 -5 30 -10 18z"/>
<path d="M2918 2383 c23 -9 11 -38 -29 -66 -23 -16 -39 -30 -36 -33 3 -3 25 9
50 27 47 33 77 34 77 1 0 -12 -32 -37 -97 -77 -143 -87 -178 -113 -156 -117
10 -2 33 7 52 19 38 26 51 29 51 12 0 -7 24 10 53 37 28 27 67 60 84 74 39 30
41 57 8 89 -14 13 -25 27 -25 32 0 5 -10 9 -22 8 -13 0 -17 -3 -10 -6z"/>
<path d="M0 2305 c0 -3 47 -28 105 -55 74 -36 109 -59 120 -78 l14 -27 1 27
c0 22 -10 34 -52 62 -81 53 -188 94 -188 71z"/>
<path d="M0 2213 c0 -24 8 -31 50 -50 34 -15 50 -18 54 -10 3 9 5 8 5 0 1 -7
8 -13 16 -13 8 0 24 -6 35 -12 17 -11 22 -10 30 2 8 12 -9 24 -83 62 -51 26
-95 47 -99 47 -5 1 -8 -11 -8 -26z"/>
<path d="M2177 2202 c-8 -12 -4 -81 4 -76 4 2 9 -2 12 -8 3 -7 5 -2 4 12 0 14
-5 31 -10 38 -7 9 -2 12 19 12 28 1 28 1 10 15 -22 17 -33 19 -39 7z"/>
<path d="M2940 2188 c0 -10 4 -18 9 -18 12 0 31 -56 23 -65 -4 -3 1 -3 11 1 9
3 17 15 17 26 0 10 -4 16 -10 13 -5 -3 -10 -3 -10 2 0 4 -9 19 -20 33 -16 20
-20 22 -20 8z"/>
<path d="M2055 2148 c-4 -18 -14 -41 -23 -50 -10 -12 -11 -18 -3 -18 6 0 16
12 22 28 6 15 15 35 20 44 11 22 11 28 0 28 -5 0 -13 -15 -16 -32z"/>
<path d="M0 2114 c0 -7 16 -20 35 -28 19 -8 35 -22 35 -30 0 -10 9 -16 26 -16
15 0 23 4 19 11 -4 6 -9 8 -12 5 -3 -3 -14 6 -25 19 -10 13 -32 30 -48 39 -25
12 -30 12 -30 0z"/>
<path d="M2665 2095 c-17 -13 -26 -27 -22 -31 4 -4 20 4 34 19 35 34 26 43
-12 12z"/>
<path d="M2930 2034 l-45 -46 55 37 c57 38 72 55 48 55 -8 0 -34 -21 -58 -46z"/>
<path d="M2346 2035 c-16 -24 -16 -25 1 -16 10 5 26 12 36 15 10 3 15 10 12
16 -11 17 -32 11 -49 -15z"/>
<path d="M370 1971 c0 -18 60 -40 83 -31 22 9 10 14 -24 11 -9 -1 -22 5 -29
14 -14 17 -30 20 -30 6z"/>
<path d="M1076 1944 c-9 -24 -4 -26 55 -13 43 9 50 13 34 20 -36 14 -82 10
-89 -7z"/>
<path d="M2900 1950 c0 -5 4 -10 9 -10 13 0 21 -53 9 -67 -7 -9 -7 -13 1 -13
12 0 13 1 16 46 2 21 -3 34 -16 42 -12 8 -19 8 -19 2z"/>
<path d="M1020 1922 c-16 -18 -23 -72 -10 -72 5 0 11 13 15 30 4 16 11 32 16
35 11 7 12 25 2 24 -5 0 -15 -8 -23 -17z"/>
<path d="M2077 1933 c-13 -12 -7 -23 13 -23 11 0 20 7 20 15 0 15 -21 21 -33
8z"/>
<path d="M2390 1902 c-9 -9 -27 -24 -40 -33 -14 -9 -22 -20 -19 -23 3 -4 26
12 50 34 24 22 39 40 34 39 -6 0 -17 -8 -25 -17z"/>
<path d="M1166 1899 c2 -4 -21 -21 -51 -38 l-55 -31 0 -50 c0 -28 4 -50 9 -50
5 0 22 -11 38 -24 26 -22 29 -23 29 -5 0 12 -10 20 -30 25 -28 6 -29 7 -11 20
11 8 13 14 6 14 -10 0 -10 3 1 13 23 23 76 57 87 57 24 0 9 -16 -31 -32 -57
-25 -43 -32 17 -9 l48 18 -25 26 c-14 14 -23 28 -21 31 5 5 42 -21 86 -59 25
-22 29 -16 17 26 -13 45 -13 53 3 42 31 -25 43 -22 39 9 l-4 29 -79 -2 c-43
-2 -76 -6 -73 -10z"/>
<path d="M1715 1897 c-18 -14 -16 -18 19 -31 13 -4 17 -2 13 8 -3 7 0 19 6 25
16 16 -14 14 -38 -2z"/>
<path d="M40 1885 c0 -9 -7 -18 -15 -21 -8 -4 -15 -10 -15 -15 0 -10 32 0 41
13 3 5 24 3 47 -5 34 -12 42 -12 46 -1 3 7 1 16 -4 19 -6 4 -10 1 -10 -5 0 -6
-5 -8 -10 -5 -6 4 -8 10 -5 14 2 5 -9 11 -26 15 -45 9 -49 8 -49 -9z"/>
<path d="M1365 1878 c4 -13 11 -27 16 -32 5 -6 9 -26 9 -45 1 -32 2 -34 14
-19 11 14 10 26 -3 68 -8 28 -21 50 -29 50 -9 0 -11 -7 -7 -22z"/>
<path d="M1400 1886 c0 -1 5 -18 11 -36 12 -32 12 -33 28 -12 12 16 20 19 31
12 13 -9 13 -10 0 -10 -8 0 -27 -19 -42 -43 -24 -38 -25 -43 -10 -48 18 -6 37
23 33 50 -1 7 2 10 8 6 6 -3 11 -16 11 -28 1 -19 5 -17 36 18 20 22 34 33 31
23 -8 -22 3 -30 21 -15 13 10 15 9 9 -6 -6 -15 -3 -17 13 -12 26 8 83 -22 76
-41 -3 -8 -1 -14 4 -14 6 0 10 6 10 13 1 7 6 5 14 -6 11 -14 15 -15 19 -5 4 8
6 7 6 -4 1 -21 21 -24 39 -6 9 9 6 16 -16 30 -87 60 -332 159 -332 134z"/>
<path d="M933 1861 c-9 -12 -23 -21 -29 -21 -6 0 -18 -8 -25 -17 -13 -15 -11
-16 17 -10 29 5 32 3 43 -26 6 -18 9 -22 7 -10 -2 13 0 39 4 60 11 46 7 51
-17 24z"/>
<path d="M428 1864 c-9 -9 3 -42 17 -48 16 -6 8 25 -9 36 -6 4 3 6 19 4 17 -1
29 -7 28 -13 -2 -7 5 -7 22 1 l24 11 -22 7 c-29 8 -72 10 -79 2z"/>
<path d="M226 1851 c-3 -5 3 -11 14 -14 11 -3 20 -12 20 -21 0 -9 8 -16 17
-16 13 0 10 7 -12 30 -32 34 -32 33 -39 21z"/>
<path d="M145 1833 c-27 -2 -54 -8 -59 -13 -5 -5 -19 -4 -34 1 -13 5 -27 7
-30 5 -8 -8 50 -27 73 -24 11 1 34 -7 49 -20 16 -12 34 -22 40 -22 6 0 -4 9
-23 21 -25 15 -31 23 -22 32 8 8 19 8 41 0 27 -10 30 -9 30 8 0 10 -3 18 -7
17 -5 -1 -30 -3 -58 -5z"/>
<path d="M2627 1823 c-13 -12 -7 -23 13 -23 11 0 20 7 20 15 0 15 -21 21 -33
8z"/>
<path d="M2754 1797 c-21 -11 -34 -27 -34 -41 0 -6 6 -2 13 7 6 9 27 20 45 23
49 10 42 -20 -9 -35 -48 -15 -45 -26 5 -17 34 6 55 34 42 55 -9 15 -42 19 -62
8z"/>
<path d="M847 1762 c-36 -82 -17 -144 77 -255 68 -79 224 -174 341 -206 73
-20 61 -11 -80 58 -164 81 -238 128 -243 156 -4 17 0 16 22 -8 14 -15 40 -34
57 -41 30 -13 33 -12 70 24 42 40 54 70 19 48 -11 -7 -20 -18 -20 -25 0 -7 -7
-13 -15 -13 -7 0 -18 -8 -24 -17 -5 -10 -13 -14 -17 -10 -4 4 -2 13 4 19 7 7
12 19 12 27 0 11 -6 9 -23 -8 -15 -13 -30 -19 -40 -15 -20 7 -21 18 -7 44 8
15 6 21 -7 29 -17 9 -16 11 1 30 11 12 16 24 13 27 -7 8 -27 -11 -52 -49 -10
-15 -20 -26 -22 -24 -6 7 21 61 37 74 8 6 12 14 8 18 -3 4 -21 -13 -38 -37
-22 -29 -30 -35 -25 -19 5 18 4 22 -5 16 -9 -5 -11 -4 -6 3 4 6 1 22 -6 34 -7
13 -14 30 -15 38 -1 8 -4 27 -7 41 -2 14 0 32 6 40 8 12 9 11 5 -1 -2 -8 3
-21 12 -28 14 -11 14 -11 -1 -6 -11 4 -18 1 -18 -6 0 -6 4 -9 9 -6 13 8 23
-24 12 -38 -6 -7 -4 -15 3 -22 10 -9 16 -7 24 7 10 16 8 27 -8 59 -11 21 -20
48 -20 60 0 32 -15 24 -33 -18z m124 -215 c-13 -13 -41 -18 -41 -8 0 14 23 29
37 24 10 -4 11 -9 4 -16z"/>
<path d="M2945 1780 c9 -14 -31 -59 -64 -71 -30 -12 -20 -24 12 -15 14 3 27
15 30 26 3 11 17 24 31 30 32 12 32 16 5 31 -16 8 -20 8 -14 -1z"/>
<path d="M1253 1763 c3 -10 8 -28 12 -40 3 -13 11 -23 18 -23 8 0 8 3 -1 12
-14 14 -16 48 -3 48 5 0 11 -10 14 -22 3 -21 4 -21 12 -5 9 21 0 32 -33 42
-20 6 -23 4 -19 -12z"/>
<path d="M700 1761 c0 -18 76 -35 86 -19 3 4 -4 9 -15 9 -33 2 -39 4 -47 12
-10 10 -24 9 -24 -2z"/>
<path d="M950 1742 c1 -19 29 -53 65 -80 22 -15 54 -42 70 -58 33 -33 95 -68
95 -53 0 5 -4 9 -8 9 -4 0 -47 37 -95 83 -86 81 -103 94 -70 53 9 -12 0 -4
-20 16 -21 21 -37 34 -37 30z"/>
<path d="M1647 1714 c-34 -18 -30 -28 7 -18 14 3 26 12 26 20 0 17 2 17 -33
-2z"/>
<path d="M720 1676 c-18 -55 20 -179 75 -244 20 -23 31 -30 38 -23 19 19 46
12 63 -14 23 -35 29 -24 9 15 -9 18 -15 34 -13 36 8 7 83 -37 80 -47 -1 -6 2
-8 8 -4 5 3 10 -1 10 -10 0 -9 5 -13 10 -10 9 6 14 -7 11 -27 0 -4 5 -5 13 -2
9 3 16 -5 20 -22 8 -31 6 -35 -23 -37 -11 -1 -21 -5 -21 -9 0 -12 18 -10 49 7
16 8 32 11 36 7 3 -4 5 0 3 8 -1 8 -11 18 -20 22 -27 11 -22 31 5 22 12 -3 20
-4 17 -1 -16 16 -102 77 -109 77 -4 0 -28 15 -52 34 l-43 35 -32 -37 c-18 -20
-35 -34 -39 -31 -3 4 7 22 23 40 l30 34 -43 48 -43 47 -7 -30 c-7 -30 -1 -50
15 -50 5 0 7 8 3 18 -5 14 -2 14 18 -4 13 -12 31 -24 39 -27 10 -3 7 -6 -8 -6
-14 -1 -26 -10 -31 -23 -9 -22 -9 -22 -17 -3 -4 11 -15 25 -23 31 -19 15 -27
125 -13 177 9 33 8 37 -8 37 -12 0 -22 -12 -30 -34z"/>
<path d="M1700 1681 c0 -15 5 -19 21 -16 25 5 38 15 20 15 -7 0 -9 5 -6 10 3
6 -3 10 -14 10 -14 0 -21 -6 -21 -19z"/>
<path d="M1779 1696 c-1 0 -3 -10 -4 -22 -2 -21 18 -26 43 -10 19 12 14 23
-13 28 -14 3 -26 5 -26 4z"/>
<path d="M2890 1670 l-25 -8 28 -1 c20 -1 27 -6 27 -20 0 -11 -8 -22 -17 -24
-10 -3 -3 -5 16 -6 30 -1 33 1 27 22 -3 12 -6 28 -6 35 0 13 -13 14 -50 2z"/>
<path d="M1116 1658 c24 -40 48 -66 58 -62 6 2 24 -7 40 -21 16 -13 65 -39
110 -56 44 -17 90 -36 101 -42 35 -19 147 -24 312 -15 18 1 30 5 27 10 -8 13
3 9 19 -6 21 -22 51 -9 65 26 6 18 10 33 8 35 -2 2 -23 -6 -47 -19 -39 -21
-57 -23 -169 -22 -108 1 -137 5 -210 29 -114 37 -202 77 -261 120 -52 37 -65
43 -53 23z"/>
<path d="M2671 1650 c-1 -8 -10 -21 -21 -28 -11 -7 -20 -19 -20 -28 0 -10 -6
-14 -15 -10 -12 4 -15 -3 -14 -32 0 -40 17 -93 18 -59 1 9 6 17 11 17 6 0 20
11 31 25 12 13 35 27 50 30 16 4 26 11 23 16 -3 6 -1 16 6 24 9 11 6 17 -14
30 -14 9 -29 14 -35 11 -5 -3 -12 0 -14 6 -4 9 -6 8 -6 -2z m56 -35 c4 -13
-75 -36 -83 -24 -6 10 46 39 65 36 8 -1 16 -7 18 -12z m-76 -70 c0 -5 -9 -11
-21 -13 -20 -3 -27 8 -13 22 10 9 34 3 34 -9z"/>
<path d="M26 1641 c-17 -26 41 -73 80 -66 10 2 25 4 32 4 6 1 12 5 12 10 0 5
-22 12 -49 16 -28 4 -56 14 -63 23 -12 14 -7 15 42 9 37 -4 50 -3 40 3 -19 12
-87 13 -94 1z"/>
<path d="M1290 1640 c0 -6 5 -8 10 -5 6 3 10 1 10 -5 0 -6 5 -8 10 -5 6 3 10
-2 10 -12 0 -14 2 -15 9 -5 4 8 14 13 22 12 24 -4 39 0 39 8 0 5 -17 9 -37 9
-21 0 -46 3 -55 8 -11 4 -18 3 -18 -5z"/>
<path d="M1410 1635 c0 -8 -8 -19 -17 -24 -10 -6 -14 -11 -9 -11 5 0 2 -8 -5
-17 -13 -15 -11 -15 13 1 14 9 29 24 32 32 3 8 12 14 19 12 7 -2 15 1 17 7 3
5 -7 11 -22 12 -18 1 -28 -3 -28 -12z"/>
<path d="M1466 1607 c-10 -15 -22 -24 -27 -21 -5 3 -9 0 -9 -5 0 -6 5 -11 11
-11 5 0 7 -4 4 -10 -3 -5 -1 -10 5 -10 7 0 10 7 6 15 -3 8 4 21 16 29 11 8 18
20 16 28 -3 8 -11 3 -22 -15z"/>
<path d="M988 1598 c-2 -6 7 -22 21 -34 23 -20 28 -21 43 -7 13 12 14 18 5 28
-10 11 -15 10 -28 -2 -15 -13 -17 -12 -15 3 1 20 -20 31 -26 12z"/>
<path d="M1774 1585 c-1 -14 2 -25 8 -25 5 0 6 5 3 10 -3 6 1 10 9 10 21 0 21
16 0 24 -9 3 -16 6 -17 6 -1 0 -3 -11 -3 -25z"/>
<path d="M1066 1551 c-12 -13 -14 -21 -6 -26 13 -8 52 24 44 36 -8 14 -19 11
-38 -10z"/>
<path d="M309 1552 c8 -6 11 -17 8 -26 -4 -10 -1 -16 9 -16 24 0 13 44 -11 48
-15 2 -17 1 -6 -6z"/>
<path d="M992 1538 c-7 -7 -12 -16 -12 -20 0 -12 28 -10 36 3 10 17 -10 31
-24 17z"/>
<path d="M1136 1511 c-15 -17 -16 -19 -1 -25 22 -8 35 1 35 25 0 24 -12 24
-34 0z"/>
<path d="M1265 1495 c74 -35 90 -41 81 -26 -8 12 -85 47 -121 54 -17 4 0 -8
40 -28z"/>
<path d="M1970 1495 c0 -13 -18 -20 -42 -16 -4 0 -5 -6 -2 -14 4 -8 9 -13 14
-10 4 2 4 -15 -1 -38 -10 -55 -2 -92 17 -76 16 13 20 74 4 64 -5 -3 -10 -2
-10 4 0 5 5 13 10 16 6 3 10 15 10 26 0 10 5 19 10 19 6 0 10 9 10 20 0 11 -4
20 -10 20 -5 0 -10 -7 -10 -15z"/>
<path d="M1232 1465 c-13 -29 1 -43 23 -25 19 16 19 36 1 43 -8 3 -18 -4 -24
-18z"/>
<path d="M1090 1473 c0 -17 19 -35 29 -29 18 12 12 36 -9 36 -11 0 -20 -3 -20
-7z"/>
<path d="M1150 1450 c0 -5 6 -9 13 -7 6 1 11 -4 10 -10 -2 -7 4 -13 12 -13 8
0 15 -5 15 -11 0 -5 5 -7 10 -4 17 11 11 24 -20 40 -34 18 -40 18 -40 5z"/>
<path d="M1275 1440 c-17 -18 -16 -19 9 -26 29 -7 32 -14 14 -32 -9 -9 -8 -12
5 -12 9 0 21 -8 26 -17 10 -17 10 -17 11 0 0 10 -6 20 -14 23 -9 3 -12 12 -9
21 4 9 -1 22 -12 29 -10 8 -13 14 -7 14 7 0 12 5 12 10 0 16 -15 12 -35 -10z"/>
<path d="M1320 1446 c0 -16 24 -65 30 -61 9 6 22 -53 14 -66 -6 -11 -34 -12
-34 -1 0 9 -62 34 -68 27 -3 -3 11 -12 31 -20 21 -8 37 -22 37 -29 0 -8 15
-19 33 -25 54 -18 177 -39 171 -30 -3 5 -16 9 -28 9 -24 0 -136 45 -136 55 0
3 15 4 32 3 27 -3 34 1 36 18 4 28 -23 51 -42 35 -10 -8 -16 -9 -21 -1 -3 5 0
10 7 10 20 0 17 58 -4 63 -14 4 -15 1 -7 -21 8 -22 8 -23 -6 -12 -8 7 -15 21
-15 31 0 11 -7 19 -15 19 -8 0 -15 -2 -15 -4z"/>
<path d="M1894 1416 c-3 -8 -13 -12 -26 -8 -18 4 -19 2 -13 -19 10 -32 10 -32
35 -24 17 6 20 12 15 33 -5 22 -4 24 9 13 13 -11 16 -11 16 3 0 20 -29 21 -36
2z"/>
<path d="M1225 1400 c-16 -18 -16 -20 -1 -36 9 -9 18 -15 19 -13 1 2 7 14 14
26 10 17 9 24 -1 32 -10 8 -17 6 -31 -9z"/>
<path d="M1410 1409 c0 -5 4 -8 9 -4 5 3 12 1 16 -5 3 -5 1 -10 -6 -10 -8 0
-8 -4 2 -16 12 -14 14 -14 20 3 13 33 9 43 -16 43 -14 0 -25 -5 -25 -11z"/>
<path d="M1470 1384 c0 -31 23 -28 28 4 2 15 -2 22 -12 22 -11 0 -16 -9 -16
-26z"/>
<path d="M745 1363 c-36 -31 -37 -34 -30 -78 3 -26 17 -75 30 -110 13 -34 21
-65 18 -69 -4 -3 -1 -6 6 -6 7 0 10 -4 7 -9 -11 -17 73 -128 157 -208 107
-101 200 -150 297 -159 60 -6 68 -4 96 19 33 28 54 83 54 140 0 31 -4 37 -33
46 -87 29 -203 120 -297 231 l-21 25 3 -35 c1 -19 11 -42 20 -51 10 -9 18 -21
18 -28 0 -14 17 -14 22 0 5 15 78 -59 78 -79 0 -8 12 -30 26 -49 20 -27 29
-32 39 -23 11 9 24 8 54 -6 41 -18 58 -39 40 -50 -6 -4 -4 -13 6 -25 16 -17
16 -20 -6 -48 -43 -53 -52 -54 -154 -15 -11 4 -27 6 -35 5 -9 -1 -25 7 -36 18
-11 10 -31 22 -44 26 -29 9 -169 147 -198 197 -12 20 -30 39 -39 42 -9 4 -13
9 -10 13 4 3 3 11 -2 17 -13 15 -61 177 -61 204 0 41 31 43 90 6 30 -19 54
-40 52 -45 -1 -6 7 -22 18 -36 11 -14 20 -31 20 -38 0 -6 9 -20 20 -30 11 -10
20 -24 20 -32 0 -7 4 -13 10 -13 5 0 7 -8 4 -17 -5 -15 -4 -16 5 -3 8 11 0 35
-34 97 -24 46 -40 83 -35 83 5 0 12 -5 15 -10 8 -13 165 -92 237 -120 82 -32
233 -67 337 -80 109 -13 227 -5 235 16 3 8 14 14 24 14 11 0 53 16 94 34 64
30 79 42 111 90 20 31 37 59 37 63 0 3 7 14 16 24 15 17 12 39 -5 39 -5 0 -20
-27 -35 -60 -31 -68 -49 -90 -77 -90 -13 0 -19 7 -19 21 0 16 -4 20 -17 14
-36 -13 -128 -27 -164 -23 -28 2 -40 -1 -49 -15 -16 -26 -3 -35 15 -11 14 18
14 18 15 -3 0 -14 6 -23 16 -23 8 0 13 4 10 9 -7 11 18 21 66 27 32 4 37 2 31
-12 -4 -10 -2 -15 4 -11 5 3 24 9 42 12 48 8 35 -17 -15 -30 -21 -5 -49 -17
-62 -26 -23 -17 -56 -15 -79 4 -8 5 -36 6 -68 2 -47 -5 -56 -4 -62 11 -4 12 2
25 20 40 33 28 34 34 2 34 -27 0 -40 -20 -40 -65 0 -16 -4 -33 -10 -37 -17
-12 -1 -17 90 -27 l90 -10 -104 5 c-230 11 -676 166 -793 275 l-46 44 -37 -32z"/>
<path d="M1516 1383 c-7 -17 12 -36 27 -26 5 3 3 9 -4 14 -10 6 -11 9 -1 9 6
0 12 5 12 10 0 17 -27 11 -34 -7z"/>
<path d="M1566 1384 c-10 -25 -7 -34 9 -34 9 0 15 9 15 25 0 28 -15 34 -24 9z"/>
<path d="M1610 1370 c0 -11 6 -20 14 -20 7 0 16 9 19 20 4 15 0 20 -14 20 -12
0 -19 -7 -19 -20z"/>
<path d="M1670 1371 c0 -12 6 -21 16 -21 9 0 14 7 12 17 -5 25 -28 28 -28 4z"/>
<path d="M911 1346 c-9 -10 -6 -17 13 -30 24 -15 26 -15 46 6 23 25 24 23 -17
31 -20 4 -35 1 -42 -7z"/>
<path d="M1903 1353 c-7 -3 -13 -13 -13 -24 0 -10 -4 -19 -10 -19 -5 0 -9 5
-7 11 1 6 -4 14 -11 16 -7 3 -10 -1 -6 -10 3 -8 1 -18 -5 -22 -6 -3 -11 2 -12
12 0 16 -1 16 -9 -2 -7 -17 -9 -17 -9 -2 -1 27 -18 20 -30 -13 -5 -16 -7 -30
-3 -30 19 1 124 38 133 47 14 14 -1 42 -18 36z"/>
<path d="M1103 1334 c0 -7 5 -14 12 -14 6 0 16 -5 23 -12 6 -6 21 -13 33 -15
23 -3 42 -21 47 -42 2 -8 -3 -11 -13 -8 -8 4 -15 2 -15 -4 0 -12 44 -29 76
-29 26 0 31 9 12 28 -9 9 -7 12 11 12 19 0 22 -4 17 -24 -8 -33 2 -38 35 -19
30 18 39 43 16 43 -8 0 -40 11 -73 24 -32 13 -70 26 -84 28 -14 1 -28 8 -32
13 -4 6 -11 10 -15 10 -4 1 -17 6 -29 12 -17 10 -21 9 -21 -3z"/>
<path d="M1460 1341 c0 -5 -3 -16 -6 -25 -4 -11 -1 -16 10 -16 9 0 16 4 16 9
0 5 3 16 6 25 4 11 1 16 -10 16 -9 0 -16 -4 -16 -9z"/>
<path d="M1500 1315 c0 -16 6 -25 15 -25 9 0 15 9 15 25 0 16 -6 25 -15 25 -9
0 -15 -9 -15 -25z"/>
<path d="M1563 1307 c-11 -24 -11 -27 6 -27 11 0 26 -2 34 -5 10 -4 14 2 15
25 0 16 -4 30 -9 30 -5 0 -9 -9 -9 -20 0 -27 -18 -25 -22 2 -3 21 -4 21 -15
-5z"/>
<path d="M1670 1296 c0 -20 6 -24 43 -29 23 -3 46 -1 52 4 7 7 5 9 -5 7 -9 -2
-16 6 -18 20 -3 18 -10 22 -38 22 -29 0 -34 -3 -34 -24z"/>
<path d="M2171 1259 c-12 -10 -28 -16 -35 -13 -6 3 -3 -1 7 -10 19 -14 52 -11
42 4 -3 5 0 10 6 12 7 2 10 9 8 15 -3 7 -12 5 -28 -8z"/>
<path d="M1377 1221 c-3 -12 -21 -28 -42 -36 -36 -16 -39 -35 -6 -35 16 0 59
37 54 46 -2 2 0 4 5 4 4 -1 6 -18 5 -38 l-2 -37 20 43 c13 27 26 42 38 42 24
0 17 -37 -8 -43 -12 -4 -11 -5 4 -6 11 0 26 8 32 18 8 12 19 17 31 14 11 -2
22 -1 26 5 3 5 -20 15 -52 21 -31 7 -67 15 -78 18 -15 3 -23 -1 -27 -16z"/>
<path d="M1457 1132 c-16 -17 -16 -19 0 -19 17 0 33 14 33 30 0 13 -16 7 -33
-11z"/>
<path d="M1786 1048 c-19 -43 -29 -78 -22 -78 10 0 66 82 66 97 0 25 -29 13
-44 -19z"/>
<path d="M1000 1067 c0 -10 103 -148 127 -170 15 -13 26 -15 43 -9 22 8 22 8
-6 26 -16 9 -59 50 -96 89 -37 40 -68 69 -68 64z"/>
<path d="M1401 985 l1 -60 10 48 c8 35 7 52 -1 60 -8 8 -11 -5 -10 -48z"/>
<path d="M1540 841 c-19 -10 -59 -24 -87 -32 -29 -7 -53 -16 -53 -21 0 -11 9
-10 66 7 27 8 67 26 89 40 46 28 36 33 -15 6z"/>
<path d="M2564 833 c3 -4 45 -16 93 -29 49 -12 117 -36 153 -53 53 -25 173
-71 187 -71 1 0 3 4 3 8 0 4 -21 14 -47 21 -27 8 -84 31 -128 51 -44 21 -93
40 -110 43 -16 3 -59 13 -94 21 -34 8 -60 12 -57 9z"/>
<path d="M2580 785 c30 -8 62 -14 70 -14 27 2 -64 27 -95 27 -21 0 -14 -4 25
-13z"/>
<path d="M2670 755 c0 -9 164 -85 184 -85 12 0 -15 16 -59 36 -44 19 -84 39
-89 44 -10 10 -36 14 -36 5z"/>
<path d="M662 743 c-28 -4 -31 -7 -21 -19 10 -13 10 -17 -2 -25 -11 -7 -11 -9
-1 -9 8 0 16 8 19 19 2 10 19 23 36 29 33 10 25 12 -31 5z"/>
<path d="M1644 728 c-10 -11 -39 -34 -63 -50 -25 -15 -40 -28 -35 -28 18 0
104 61 115 81 13 25 7 24 -17 -3z"/>
<path d="M589 725 c-3 -2 -83 -31 -178 -64 -161 -55 -244 -90 -135 -56 27 8
60 18 74 21 14 4 30 10 35 14 14 10 173 61 195 63 11 1 22 7 24 14 5 13 -6 18
-15 8z"/>
<path d="M1145 668 c11 -6 33 -22 49 -37 l29 -26 -18 28 c-19 29 -45 47 -67
47 -7 0 -4 -6 7 -12z"/>
</g>
</svg>
