<?xml version="1.0" standalone="no"?>
<!DOCTYPE svg PUBLIC "-//W3C//DTD SVG 20010904//EN"
 "http://www.w3.org/TR/2001/REC-SVG-20010904/DTD/svg10.dtd">
<svg version="1.0" xmlns="http://www.w3.org/2000/svg"
 width="300.000000pt" height="300.000000pt" viewBox="0 0 300.000000 300.000000"
 preserveAspectRatio="xMidYMid meet">
<metadata>
Created by potrace 1.10, written by Peter Selinger 2001-2011
</metadata>
<g transform="translate(0.000000,300.000000) scale(0.100000,-0.100000)"
fill="#000000" stroke="none">
<path d="M136 2955 c15 -53 22 -65 34 -65 7 0 2 30 -15 88 -4 12 -13 22 -20
22 -11 0 -10 -9 1 -45z"/>
<path d="M366 2974 c4 -39 13 -42 37 -12 12 14 33 28 47 31 14 2 0 5 -31 6
-55 1 -56 0 -53 -25z"/>
<path d="M603 2993 c12 -3 16 -11 12 -23 -3 -10 -1 -21 5 -25 6 -3 10 3 10 14
0 39 15 20 57 -70 32 -68 50 -94 74 -107 17 -9 67 -41 112 -69 44 -29 86 -53
93 -53 20 0 110 -45 129 -64 14 -14 20 -15 26 -5 4 8 10 11 13 8 3 -2 1 -10
-3 -18 -6 -10 -24 -6 -80 20 -39 18 -71 36 -71 41 0 5 -5 6 -10 3 -7 -4 -7
-12 0 -25 9 -16 7 -19 -17 -17 -16 1 -34 8 -41 15 -7 6 -20 12 -29 12 -10 0
-13 6 -9 17 4 10 4 14 0 11 -12 -12 -80 30 -112 69 -17 21 -31 33 -32 27 0
-18 69 -93 91 -96 31 -5 22 -23 -11 -22 -17 0 -30 -5 -30 -12 0 -6 -7 -15 -16
-18 -23 -9 -24 -8 -24 14 0 11 7 20 16 20 8 0 12 5 9 10 -3 6 -13 10 -22 10
-9 0 -31 11 -49 25 -39 30 -44 31 -44 6 0 -15 -6 -19 -27 -17 -16 2 -29 10
-31 20 -5 24 -58 21 -65 -4 -6 -25 -37 -27 -37 -2 0 14 -2 14 -9 3 -7 -11 -17
-12 -52 -3 l-44 11 24 -20 c13 -10 37 -19 55 -19 23 0 27 -3 16 -10 -12 -7
-10 -11 10 -19 21 -8 28 -5 45 14 15 18 24 22 35 15 8 -5 38 -10 65 -10 65 0
97 -9 91 -25 -2 -7 4 -21 15 -31 18 -17 20 -16 43 5 l23 22 52 -27 c45 -24 56
-26 86 -17 34 11 73 6 128 -16 15 -6 27 -8 27 -5 0 3 7 -1 15 -10 8 -8 15 -19
15 -24 0 -5 7 -15 15 -22 9 -7 14 -19 11 -27 -3 -7 -1 -13 4 -13 6 0 10 -9 10
-21 0 -13 4 -18 12 -13 7 5 9 0 6 -14 -3 -12 -3 -21 1 -20 19 2 24 -3 11 -12
-13 -8 -13 -10 1 -10 22 0 44 -26 29 -35 -6 -3 -8 -11 -4 -16 3 -5 10 -7 15
-4 5 4 12 -2 16 -12 4 -10 15 -24 25 -31 9 -7 25 -28 34 -47 9 -19 23 -35 32
-35 8 0 12 -3 9 -7 -4 -3 0 -14 8 -23 9 -10 30 -46 48 -81 31 -60 32 -66 18
-91 -16 -29 -9 -50 11 -30 6 6 14 51 16 99 3 59 9 94 19 105 14 16 14 16 -11
5 -21 -10 -26 -19 -26 -52 0 -30 -3 -36 -10 -25 -5 8 -10 27 -10 42 0 16 -10
34 -25 46 -14 11 -25 25 -25 30 0 6 -10 18 -22 26 -12 9 -17 16 -10 16 6 0 12
8 12 17 0 13 -3 14 -11 6 -14 -14 -39 6 -39 30 0 9 -6 18 -12 20 -10 4 -10 7
0 15 10 7 10 11 -1 21 -8 6 -21 10 -28 9 -8 -2 -13 5 -13 15 1 9 -4 17 -12 17
-8 0 -14 7 -14 15 0 8 7 15 15 15 8 0 15 5 15 11 0 6 -7 9 -15 5 -9 -3 -15 0
-15 9 0 8 -7 15 -15 15 -9 0 -18 12 -21 30 -4 17 -13 30 -20 30 -9 0 -14 11
-14 30 0 24 4 30 23 30 13 0 -2 10 -38 25 -33 14 -61 25 -63 25 -2 0 0 4 3 10
4 6 -1 7 -11 3 -11 -4 -15 -2 -11 4 8 13 -16 24 -62 28 -19 2 -45 15 -60 29
-28 26 -48 35 -35 15 11 -19 -75 34 -122 74 -28 24 -44 47 -44 61 0 12 -17 47
-38 77 -32 46 -42 54 -72 56 -19 1 -27 -1 -17 -4z"/>
<path d="M780 2991 c0 -11 35 -21 76 -21 25 0 37 -9 63 -45 18 -25 38 -45 46
-45 8 0 18 -6 22 -13 4 -7 18 -20 30 -28 12 -9 44 -35 71 -60 68 -62 92 -80
62 -44 -14 17 -32 42 -40 58 -7 15 -19 27 -27 27 -7 0 -13 5 -13 11 0 5 6 7
13 3 6 -4 4 2 -5 13 -10 11 -18 25 -18 31 0 6 -10 16 -21 23 -21 11 -22 10
-16 -20 4 -17 3 -31 -1 -31 -11 0 -42 38 -42 53 -1 6 -19 26 -40 42 -21 17
-39 36 -40 43 0 14 -120 18 -120 3z"/>
<path d="M925 2990 c8 -13 72 -53 99 -64 19 -7 19 -6 1 14 -10 11 -24 20 -32
20 -8 0 -23 9 -35 20 -23 21 -44 27 -33 10z"/>
<path d="M1903 2963 c-17 -20 -39 -36 -48 -36 -20 0 -122 -90 -107 -95 24 -8
162 92 173 126 2 7 29 19 59 26 l55 14 -50 0 c-45 1 -53 -3 -82 -35z"/>
<path d="M2106 2942 c-27 -31 -53 -69 -58 -84 -6 -16 -15 -28 -20 -28 -6 0
-26 -14 -46 -31 -20 -17 -49 -37 -66 -45 -17 -7 -44 -22 -59 -32 -16 -11 -37
-17 -47 -15 -10 3 -58 -14 -105 -37 -82 -39 -110 -47 -245 -69 l-55 -9 55 -1
c30 0 73 4 95 10 61 17 86 18 92 3 3 -8 13 -14 22 -14 14 -1 13 -3 -3 -15 -11
-8 -16 -18 -11 -22 4 -5 10 -2 12 5 6 17 23 15 23 -3 0 -8 -7 -15 -15 -15 -8
0 -15 -4 -15 -10 0 -13 17 -13 25 0 8 14 25 3 25 -16 0 -9 -5 -12 -11 -8 -9 5
-10 -1 -5 -20 4 -16 3 -33 -2 -39 -18 -24 -22 -47 -7 -47 7 0 15 10 17 22 2
13 11 24 22 26 19 4 19 3 3 -22 -9 -14 -17 -36 -17 -48 0 -17 -3 -19 -9 -9 -5
7 -14 10 -20 7 -16 -11 -13 -26 4 -20 8 4 15 1 15 -6 0 -24 41 39 54 85 l14
45 -42 58 c-37 49 -70 109 -50 90 4 -4 25 3 48 16 47 28 113 45 102 27 -4 -6
-13 -11 -21 -11 -7 0 -31 -10 -53 -21 -34 -19 -39 -24 -29 -40 10 -16 13 -16
42 7 25 19 37 22 61 16 41 -11 81 -6 100 13 15 15 14 16 -7 10 -13 -3 -37 -1
-54 4 -16 5 -24 10 -17 10 6 1 12 8 12 16 0 18 27 20 32 3 3 -8 20 -2 49 18
24 16 52 33 62 37 9 3 17 11 17 17 0 12 -22 2 -83 -38 -20 -14 -40 -22 -44
-18 -9 8 18 27 102 71 46 24 80 50 98 76 16 21 24 39 18 39 -6 0 -11 -4 -11
-9 0 -5 -7 -11 -15 -15 -28 -10 -15 9 51 77 57 58 63 67 42 67 -15 -1 -39 -19
-72 -58z"/>
<path d="M744 2968 c3 -13 6 -39 6 -58 0 -26 3 -31 10 -20 16 25 12 87 -6 94
-13 5 -15 2 -10 -16z"/>
<path d="M1271 2979 c-30 -5 -57 -12 -60 -15 -3 -4 19 -2 49 2 30 5 103 9 162
9 58 0 101 3 95 7 -16 10 -179 8 -246 -3z"/>
<path d="M2343 2973 c-28 -10 -9 -22 87 -58 54 -20 114 -48 131 -61 18 -13 47
-24 63 -24 l31 0 -30 16 c-16 8 -39 24 -51 35 -11 10 -27 19 -35 19 -8 0 -19
4 -24 9 -17 16 -79 47 -110 56 -44 12 -49 13 -62 8z"/>
<path d="M535 2958 c-3 -7 13 -66 34 -132 31 -94 40 -114 46 -96 6 20 9 21 17
7 5 -10 14 -17 19 -17 6 0 2 12 -9 28 -26 37 -72 137 -72 156 0 9 5 16 11 16
6 0 9 10 7 23 -3 25 -45 37 -53 15z"/>
<path d="M510 2910 c11 -22 22 -40 24 -40 2 0 -1 18 -6 40 -6 23 -16 40 -24
40 -11 0 -10 -9 6 -40z"/>
<path d="M814 2915 c6 -18 14 -31 18 -29 4 3 5 12 2 22 -3 10 5 5 19 -12 18
-21 26 -25 31 -15 3 8 3 4 0 -8 -3 -15 4 -34 22 -58 26 -34 50 -48 41 -22 -2
6 -10 11 -16 9 -9 -2 -9 3 -1 17 14 27 13 34 -6 27 -8 -3 -12 -2 -9 4 7 12
-55 80 -75 83 -8 2 -20 6 -26 9 -8 5 -8 -2 0 -27z"/>
<path d="M447 2933 c-12 -12 -7 -23 11 -23 13 0 14 -2 3 -9 -8 -5 -9 -11 -3
-15 13 -8 20 13 14 37 -5 18 -14 22 -25 10z"/>
<path d="M2135 2873 c-14 -32 -48 -80 -73 -107 -41 -43 -43 -46 -14 -26 30 20
132 161 132 182 0 24 -21 1 -45 -49z"/>
<path d="M398 2909 c-19 -11 -25 -39 -8 -39 6 0 10 7 10 16 0 8 5 12 10 9 6
-3 10 1 10 9 0 19 0 18 -22 5z"/>
<path d="M2193 2858 c-17 -35 -34 -74 -38 -88 -13 -42 -46 -82 -64 -77 -12 3
-17 -2 -17 -17 1 -35 -32 -32 -48 5 -9 20 -16 27 -21 19 -4 -7 5 -27 22 -48
31 -38 56 -53 52 -31 -4 30 2 39 24 39 13 0 43 7 68 15 24 7 73 16 108 17 62
4 89 19 56 31 -8 4 -15 1 -15 -5 0 -7 -5 -6 -15 2 -12 10 -13 16 -4 26 15 18
28 18 49 -1 22 -19 49 -10 47 16 -1 18 -3 18 -13 5 -16 -22 -24 -20 -24 7 0
15 -3 18 -8 9 -11 -17 -45 -4 -38 14 16 39 18 48 10 39 -36 -39 -57 -67 -46
-61 15 9 17 -20 1 -29 -12 -8 -69 13 -69 25 0 4 9 14 20 21 22 16 56 89 40 89
-5 0 -10 -4 -10 -8 0 -4 -14 -30 -32 -58 -32 -49 -37 -82 -14 -96 6 -4 -1 -8
-16 -8 -26 0 -32 7 -25 28 1 4 5 6 8 5 3 -1 6 11 6 27 0 15 10 51 22 80 32 75
21 81 -16 8z"/>
<path d="M1910 2904 c0 -5 -16 -19 -34 -32 -27 -18 -36 -33 -42 -65 -3 -23
-13 -47 -22 -53 -13 -9 -12 -12 5 -16 11 -3 29 3 42 13 17 14 19 19 8 19 -25
0 -28 15 -7 38 11 12 20 24 20 27 0 3 10 19 22 35 12 16 19 33 15 37 -4 3 -7
2 -7 -3z"/>
<path d="M260 2854 c-7 -19 -7 -31 1 -40 15 -18 29 -18 29 1 0 8 -5 15 -10 15
-6 0 -8 11 -4 25 8 33 -4 32 -16 -1z"/>
<path d="M470 2856 c0 -23 11 -46 20 -41 10 6 0 55 -11 55 -5 0 -9 -6 -9 -14z"/>
<path d="M790 2862 c0 -12 133 -112 139 -106 3 2 -4 11 -15 18 -10 8 -32 26
-49 40 -54 48 -75 61 -75 48z"/>
<path d="M1420 2845 c0 -11 7 -15 23 -13 12 2 22 8 22 13 0 6 -10 11 -22 13
-16 2 -23 -2 -23 -13z"/>
<path d="M123 2833 c-33 -3 -53 -9 -57 -18 -6 -18 -9 -18 71 -4 34 6 60 15 57
20 -3 5 -8 8 -12 7 -4 -1 -30 -3 -59 -5z"/>
<path d="M1646 2774 c-44 -66 -54 -110 -25 -117 21 -6 25 3 8 20 -7 7 0 30 25
78 20 38 34 70 33 72 -2 1 -20 -23 -41 -53z"/>
<path d="M336 2791 c-14 -16 -15 -20 -2 -30 23 -20 59 -10 61 17 l2 22 -25
-22 -25 -23 7 28 c8 32 5 33 -18 8z"/>
<path d="M501 2791 c-8 -5 -20 -7 -27 -4 -14 5 -54 -14 -54 -26 0 -5 7 -12 16
-15 11 -4 18 1 21 14 7 26 23 26 23 0 0 -24 19 -26 46 -5 18 14 18 15 0 9 -15
-6 -17 -3 -11 14 7 25 6 26 -14 13z"/>
<path d="M2429 2778 c-5 -22 -3 -28 11 -28 17 0 50 30 50 46 0 4 -7 -2 -16
-14 -19 -28 -32 -28 -36 1 -3 20 -4 20 -9 -5z"/>
<path d="M1739 2743 l-24 -25 25 7 c43 13 49 19 35 32 -10 9 -18 6 -36 -14z"/>
<path d="M2690 2738 l-65 -30 40 -18 c51 -24 64 -24 58 -2 -2 10 6 27 21 41
26 24 33 41 19 41 -5 -1 -37 -15 -73 -32z"/>
<path d="M2800 2739 c0 -31 4 -38 30 -49 23 -10 29 -17 25 -31 -5 -16 -1 -19
24 -19 17 0 31 -5 31 -11 0 -7 10 -9 24 -5 18 4 28 1 35 -11 8 -15 12 -16 23
-5 11 11 10 16 -6 28 -11 8 -28 14 -37 14 -10 0 -19 4 -21 8 -1 4 -21 15 -43
23 -28 10 -46 26 -62 54 l-23 40 0 -36z"/>
<path d="M20 2748 c0 -7 5 -30 11 -51 9 -32 7 -42 -10 -65 l-20 -28 82 -115
c45 -63 95 -141 110 -172 33 -63 66 -100 52 -57 -4 14 -9 32 -9 40 -3 27 -55
118 -103 177 l-46 58 60 -55 c33 -30 60 -57 60 -60 0 -3 1 -8 2 -12 0 -4 29 6
64 22 34 16 76 32 92 35 17 4 4 -5 -28 -19 -33 -13 -61 -26 -63 -29 -2 -2 1
-18 7 -36 9 -24 9 -35 0 -44 -8 -8 -11 -3 -11 21 0 18 -4 32 -9 32 -12 0 -3
-69 20 -155 23 -85 23 -91 2 -113 -10 -10 -38 -41 -62 -71 -24 -29 -77 -75
-118 -102 -40 -27 -73 -52 -73 -55 0 -6 43 21 128 83 39 29 72 57 72 63 0 5 9
14 21 20 19 11 20 10 9 -10 -10 -18 -67 -67 -145 -124 -11 -8 -17 -17 -13 -21
4 -4 19 2 34 14 32 25 52 15 35 -18 -7 -12 -8 -21 -2 -21 5 0 17 20 26 44 9
24 31 57 47 73 l31 28 -6 -40 c-3 -22 -9 -51 -13 -64 -5 -15 -3 -22 3 -18 11
7 33 -33 33 -58 0 -8 5 -15 10 -15 16 0 12 30 -6 48 -14 13 -16 30 -11 102 5
75 22 145 37 160 3 3 11 18 19 35 11 26 14 27 22 12 7 -12 6 -22 -5 -33 -18
-18 -21 -40 -6 -49 6 -3 10 2 10 13 0 10 11 32 25 48 14 16 25 33 25 37 0 5 5
5 10 2 8 -5 7 -11 -1 -21 -6 -8 -9 -18 -5 -22 4 -4 13 1 20 11 16 21 27 22 19
1 -5 -15 11 -33 30 -34 4 0 13 12 19 28 9 22 12 24 16 8 2 -10 -1 -23 -7 -29
-14 -14 -14 -27 -1 -27 6 0 10 7 10 15 0 8 4 15 9 15 5 0 13 9 16 21 4 12 12
18 21 15 8 -3 14 -2 14 3 0 5 8 11 18 15 9 3 23 9 29 12 8 4 13 -2 13 -16 0
-12 4 -18 11 -15 6 4 8 13 5 20 -5 13 12 35 27 35 5 0 7 -7 3 -15 -8 -22 12
-18 24 5 16 30 31 25 19 -6 -10 -29 -3 -47 11 -25 5 9 18 12 39 8 18 -4 31 -2
31 3 0 6 -6 10 -12 10 -7 0 -21 7 -31 15 -17 12 -10 19 81 79 90 59 124 86
107 86 -3 0 -46 -20 -95 -45 -49 -25 -92 -45 -94 -45 -3 0 -3 7 0 15 4 8 2 15
-4 15 -5 0 -12 -8 -14 -18 -5 -18 -123 -62 -166 -62 -19 0 -20 -3 -12 -25 9
-24 8 -25 -33 -25 -24 0 -81 11 -126 25 -46 13 -87 22 -92 19 -16 -9 -10 -24
7 -17 14 5 16 2 10 -23 -13 -52 -22 -46 -40 27 -17 72 -17 72 5 95 23 25 49
32 49 14 0 -20 42 -68 55 -64 7 3 15 -3 19 -13 6 -15 8 -15 17 -3 5 10 12 11
17 5 4 -5 14 -10 22 -10 8 0 14 -5 13 -11 -1 -7 9 -11 22 -10 14 0 25 2 25 3
0 1 -28 16 -62 33 -76 38 -130 78 -125 93 4 14 78 39 99 33 10 -2 17 -1 16 3
-3 17 32 76 53 88 l24 14 -25 -7 c-25 -7 -25 -7 -6 15 14 15 15 21 6 21 -11 0
-11 3 -2 12 7 7 12 20 12 30 0 10 5 18 11 18 5 0 7 -5 3 -11 -5 -8 -1 -8 14 0
28 15 32 14 32 -6 0 -15 2 -16 10 -3 8 12 12 12 18 2 5 -7 22 -17 38 -21 16
-5 28 -13 27 -19 -1 -5 7 -8 19 -4 14 3 19 1 14 -6 -5 -8 -2 -10 8 -6 9 4 16
1 16 -6 0 -7 6 -10 14 -7 8 3 17 -1 20 -9 3 -8 12 -14 21 -14 8 0 15 -4 15
-10 0 -5 8 -10 18 -10 10 0 28 -9 40 -20 26 -25 32 -25 32 -3 0 13 14 4 48
-30 39 -40 45 -49 32 -58 -12 -9 -11 -10 4 -5 13 5 28 -2 48 -20 52 -50 38
-18 -18 42 l-55 59 10 54 c6 30 11 59 11 65 -1 22 -18 -21 -25 -61 -4 -24 -9
-43 -12 -43 -3 0 -18 9 -33 20 -38 27 -333 150 -360 150 -17 0 -27 -13 -48
-59 -22 -50 -29 -58 -53 -59 -15 0 -67 -15 -116 -32 -48 -18 -93 -32 -99 -33
-6 -1 -54 40 -107 90 -88 86 -94 94 -76 104 19 10 19 12 5 34 -9 14 -16 38
-16 54 0 16 -4 33 -10 36 -5 3 -10 0 -10 -7z"/>
<path d="M97 2744 c4 -11 14 -25 22 -32 14 -12 14 -13 0 -9 -16 5 -39 -9 -39
-25 0 -13 43 -9 70 7 14 8 38 14 55 15 l30 0 -38 26 c-21 14 -54 28 -73 31
-31 5 -34 4 -27 -13z"/>
<path d="M960 2752 c0 -26 92 -53 106 -31 4 8 3 9 -4 5 -7 -4 -12 -2 -12 4 0
6 -5 8 -10 5 -6 -4 -18 -1 -26 6 -8 6 -17 9 -21 6 -3 -4 -12 -2 -20 4 -8 7
-13 8 -13 1z"/>
<path d="M2773 2689 c-16 -16 -17 -49 -3 -49 13 0 23 24 18 45 -2 13 -5 14
-15 4z"/>
<path d="M250 2683 c1 -4 24 -26 52 -48 67 -53 79 -65 73 -75 -6 -10 25 -23
34 -14 6 6 -42 52 -118 112 -22 18 -41 30 -41 25z"/>
<path d="M1150 2671 c-5 -11 -10 -22 -10 -25 0 -9 23 -7 39 3 12 8 12 12 -2
25 -15 15 -17 15 -27 -3z"/>
<path d="M2559 2654 c-18 -19 -56 -52 -83 -72 -27 -20 -44 -38 -37 -40 7 -2
21 4 31 14 34 36 123 109 130 107 4 -1 7 5 7 13 0 22 -10 17 -48 -22z"/>
<path d="M2252 2644 c-40 -13 -104 -40 -141 -59 -38 -19 -71 -32 -74 -29 -7 7
-44 -13 -68 -37 -10 -10 -27 -19 -36 -19 -34 -1 -81 -35 -129 -92 -27 -32 -54
-58 -61 -58 -20 0 -37 -51 -21 -62 19 -12 28 -10 28 6 0 21 38 30 57 14 9 -7
18 -11 20 -10 3 2 7 1 11 -2 3 -3 -1 -6 -8 -6 -7 0 -10 -3 -7 -6 4 -4 13 -1
21 5 11 9 20 10 35 1 12 -6 27 -10 34 -9 6 2 29 -5 51 -14 21 -9 41 -17 45
-17 16 -1 55 -41 46 -47 -16 -12 -12 -46 5 -50 13 -4 13 -3 0 6 -13 10 -13 12
0 21 22 14 43 12 37 -4 -4 -9 4 -16 21 -19 16 -3 55 -35 96 -76 37 -39 72 -71
76 -71 4 0 6 -10 3 -21 -5 -19 -4 -20 17 -9 12 7 20 7 16 2 -3 -6 1 -17 9 -25
8 -9 15 -21 15 -27 0 -6 12 -22 27 -36 31 -28 27 -34 -40 -59 -33 -13 -46 -22
-42 -32 3 -8 5 -16 5 -18 0 -3 10 -10 23 -16 18 -9 20 -9 10 2 -13 13 -19 58
-6 46 3 -4 16 -1 29 7 26 18 34 12 33 -23 -1 -17 -3 -20 -6 -8 -5 19 -12 21
-33 7 -12 -8 -12 -10 3 -16 9 -3 17 -13 17 -21 0 -8 -4 -12 -9 -8 -11 6 -26
-13 -17 -22 9 -10 66 48 81 82 l13 30 1 -30 c1 -44 -46 -96 -121 -133 -58 -28
-348 -116 -356 -107 -2 2 6 21 17 44 25 48 25 51 7 51 -13 0 -27 -28 -30 -60
-1 -8 -9 -30 -19 -48 -15 -28 -16 -35 -4 -52 8 -11 17 -17 20 -13 10 10 8 -6
-4 -30 -10 -21 -10 -21 5 -3 21 26 21 60 1 52 -17 -6 -20 11 -5 34 8 12 10 12
10 1 0 -11 3 -11 15 -1 12 10 15 10 15 -1 0 -12 2 -12 9 0 5 8 24 15 43 16 18
1 41 5 51 10 9 4 25 4 34 1 10 -4 14 -4 11 0 -4 3 0 13 8 22 12 11 18 12 23 3
6 -9 20 -7 55 9 26 11 51 18 55 16 4 -3 13 -1 21 5 11 6 12 9 2 9 -7 0 -10 5
-7 10 4 6 11 8 16 4 16 -9 95 43 118 78 11 18 21 27 21 21 0 -13 14 -32 58
-81 12 -14 22 -31 22 -38 0 -21 14 -16 25 9 6 12 20 23 32 25 29 4 57 64 49
107 -6 28 -46 82 -46 60 0 -4 7 -13 17 -20 10 -8 16 -28 17 -58 1 -55 -20 -76
-76 -77 -47 0 -63 22 -95 133 -16 55 -36 98 -65 136 -71 94 -288 304 -346 335
-65 34 -174 66 -226 66 l-40 0 28 29 c17 18 35 27 45 24 12 -4 13 -3 3 4 -10
8 -10 12 3 23 8 7 15 19 15 26 0 8 10 14 23 14 12 0 29 4 37 10 9 5 19 5 27
-2 10 -8 13 -7 13 4 0 15 29 31 165 91 149 66 182 77 193 64 16 -19 47 -115
40 -122 -3 -4 -18 1 -32 11 -15 9 -29 15 -31 12 -3 -3 10 -13 29 -23 37 -20
53 -54 33 -68 -8 -6 -7 -7 4 -4 9 3 23 -3 32 -14 9 -10 23 -19 30 -19 7 0 30
-12 51 -26 36 -25 37 -25 26 -4 -13 25 -10 32 9 21 24 -15 4 -59 -37 -80 -35
-17 -42 -18 -112 -4 -240 45 -449 106 -458 133 -5 13 -32 13 -32 0 0 -13 79
-57 119 -65 25 -5 30 -10 20 -17 -10 -7 -8 -7 9 -3 12 3 22 2 22 -3 0 -5 11
-8 25 -7 19 3 25 -1 25 -16 0 -11 5 -17 10 -14 6 4 8 11 5 16 -9 13 2 11 42
-8 32 -15 34 -18 17 -25 -13 -6 -10 -7 13 -4 17 3 33 1 35 -4 2 -6 15 -11 31
-12 16 -1 27 -8 28 -18 0 -10 2 -11 6 -2 7 18 23 15 24 -5 0 -11 3 -13 6 -5 2
6 9 12 15 12 6 0 7 -7 4 -16 -5 -14 -4 -15 8 -5 14 11 46 5 46 -9 0 -4 9 -10
21 -13 12 -3 18 -10 14 -16 -11 -18 7 -12 21 7 13 16 13 16 14 0 0 -21 -1 -21
39 -7 23 8 31 17 31 35 0 13 -4 24 -10 24 -5 0 -10 -10 -10 -22 0 -19 -2 -20
-10 -8 -14 21 -12 40 3 37 7 -1 11 7 10 21 -2 17 2 22 22 22 25 0 29 9 26 57
-1 11 2 24 8 27 17 11 32 -31 38 -105 6 -75 -5 -91 -28 -37 -20 48 -23 15 -4
-42 9 -28 14 -58 11 -66 -3 -8 -2 -12 4 -9 9 5 16 -33 11 -59 -1 -5 1 -16 5
-25 5 -14 7 -13 15 4 7 16 8 14 4 -8 -4 -17 0 -35 7 -45 10 -12 10 -16 1 -19
-7 -3 -13 -9 -13 -14 0 -4 6 -6 14 -3 18 7 28 -46 13 -65 -9 -11 -9 -13 0 -8
14 9 40 -36 59 -103 l13 -45 -5 53 c-2 29 -9 64 -14 78 -6 14 -7 30 -4 35 3 6
1 15 -4 22 -13 16 -45 127 -39 133 3 3 13 -7 22 -23 17 -28 86 -83 105 -83 6
0 10 -4 10 -9 0 -5 10 -7 22 -3 14 3 19 1 14 -6 -8 -13 9 -23 105 -62 53 -21
69 -25 65 -13 -3 8 -6 16 -6 19 0 7 -75 41 -130 59 -95 30 -137 60 -184 133
-43 66 -44 70 -55 191 -6 68 -14 128 -17 132 -8 13 -92 54 -129 64 -16 4 -25
9 -18 12 6 2 40 -8 75 -22 88 -37 93 -38 109 -23 67 61 87 69 41 15 -8 -9 -13
-20 -9 -23 3 -3 -1 -21 -9 -39 -8 -20 -13 -63 -13 -102 l2 -68 7 50 c3 28 14
66 23 85 26 57 77 205 77 225 0 17 -53 -35 -120 -118 l-17 -21 -49 21 c-27 12
-76 27 -110 33 l-60 12 -27 60 -26 60 22 19 c23 19 13 26 -13 9 -8 -5 -19 -5
-25 0 -6 5 -40 -1 -83 -16z"/>
<path d="M1792 2587 c-10 -12 -10 -16 0 -19 10 -4 10 -8 -1 -21 -13 -16 -8
-22 14 -17 5 1 15 -7 23 -17 13 -17 13 -16 7 7 -4 14 -13 38 -19 54 -10 25
-13 27 -24 13z"/>
<path d="M990 2533 c0 -9 3 -13 6 -10 4 4 19 -2 34 -13 25 -18 40 -18 40 1 0
9 -53 39 -70 39 -5 0 -10 -7 -10 -17z"/>
<path d="M1071 2470 c-32 -63 -38 -86 -22 -76 5 3 25 -14 45 -39 30 -36 40
-42 51 -32 7 6 11 16 8 21 -3 4 -9 3 -12 -3 -5 -7 -20 4 -41 30 l-33 41 23 55
c31 76 18 78 -19 3z"/>
<path d="M2770 2480 c-7 -14 -17 -27 -21 -30 -15 -10 -28 -90 -15 -97 6 -3 8
-3 4 2 -4 4 0 14 9 20 14 10 15 16 5 28 -10 12 -8 20 14 46 14 17 24 37 22 43
-3 8 -10 3 -18 -12z"/>
<path d="M1500 2451 c-13 -25 -13 -41 0 -41 6 0 10 6 8 14 -2 8 6 22 17 30 17
13 18 15 3 16 -10 0 -22 -9 -28 -19z"/>
<path d="M2815 2404 c-9 -33 -19 -67 -22 -78 -3 -12 -1 -16 6 -12 6 4 11 14
11 22 0 8 4 14 9 14 8 0 24 100 16 108 -2 2 -11 -22 -20 -54z"/>
<path d="M2918 2450 c-9 -24 -48 -150 -48 -156 0 -4 11 -3 25 0 17 4 25 2 25
-6 0 -9 3 -9 9 2 13 19 5 30 -19 25 -24 -5 -24 -8 1 49 11 26 19 59 17 74 -3
18 -6 22 -10 12z"/>
<path d="M2285 2430 c-3 -11 -13 -20 -21 -20 -8 0 -14 -4 -14 -10 0 -15 19
-12 36 5 9 8 12 15 8 15 -3 0 -1 7 6 15 8 9 8 15 2 15 -6 0 -14 -9 -17 -20z"/>
<path d="M1450 2416 c0 -8 -3 -22 -7 -32 -4 -11 -2 -15 7 -12 15 5 23 58 9 58
-5 0 -9 -6 -9 -14z"/>
<path d="M2859 2408 c0 -7 -2 -23 -3 -36 -2 -13 1 -25 6 -28 4 -3 8 3 8 13 0
10 3 28 6 41 4 13 2 22 -5 22 -6 0 -11 -6 -12 -12z"/>
<path d="M620 2403 c0 -5 4 -15 10 -23 6 -9 5 -17 -3 -22 -6 -4 -8 -10 -4 -14
13 -14 26 10 20 39 -5 24 -23 40 -23 20z"/>
<path d="M0 2395 c0 -6 49 -85 53 -85 1 0 3 9 3 19 0 11 -4 17 -8 15 -4 -3
-14 9 -23 26 -14 27 -25 38 -25 25z"/>
<path d="M483 2392 c-6 -4 -11 -24 -11 -44 0 -21 4 -36 8 -33 5 3 7 19 5 35
-3 21 0 30 10 30 8 0 15 5 15 10 0 12 -10 13 -27 2z"/>
<path d="M66 2354 c7 -32 24 -57 32 -49 3 3 12 -1 21 -7 9 -7 6 -1 -6 13 -13
14 -23 30 -23 36 0 6 -7 16 -16 24 -13 11 -14 9 -8 -17z"/>
<path d="M2370 2353 c0 -15 2 -16 10 -3 8 13 10 12 10 -2 0 -11 8 -18 20 -18
28 0 25 19 -6 30 -33 13 -34 13 -34 -7z"/>
<path d="M1168 2316 c-10 -7 -46 -16 -80 -20 -71 -7 -165 -48 -240 -102 -56
-41 -170 -172 -162 -186 3 -5 0 -7 -7 -6 -6 2 -14 -3 -17 -11 -3 -9 0 -11 8
-6 6 4 0 -11 -15 -34 -34 -50 -45 -55 -15 -6 40 65 11 36 -34 -35 -53 -82 -76
-124 -76 -141 0 -7 11 9 25 37 14 27 34 60 46 74 11 14 4 -5 -16 -42 -39 -72
-40 -97 -3 -113 13 -6 22 -17 20 -25 -3 -11 0 -11 12 -1 11 9 13 19 6 37 -7
18 -6 35 5 61 21 51 18 65 -6 21 -11 -21 -22 -38 -24 -38 -15 0 0 32 41 90 25
36 43 55 39 43 -11 -40 5 -25 27 23 14 34 23 43 31 35 6 -6 15 -11 19 -11 12
0 9 17 -5 32 -11 11 -12 16 -1 25 9 9 14 9 18 -3 3 -8 10 -12 16 -9 7 4 7 13
0 26 -9 15 -7 21 5 25 8 3 15 12 15 20 0 8 5 14 10 14 6 0 10 -7 10 -16 0 -18
22 -14 28 6 3 7 0 10 -7 6 -6 -4 -11 -1 -11 8 0 8 17 28 37 45 33 27 38 29 44
14 4 -12 8 -13 13 -5 4 7 4 17 0 23 -3 6 0 15 7 20 23 14 31 10 24 -12 -5 -16
-3 -20 6 -17 8 3 13 16 11 32 -1 14 0 26 3 26 14 0 30 -27 29 -47 -1 -13 3
-23 8 -23 6 0 8 18 5 40 -3 32 -1 43 13 50 17 9 30 4 30 -12 0 -5 -5 -6 -11
-2 -9 5 -10 -1 -5 -22 9 -33 13 -40 22 -31 4 4 1 13 -6 22 -10 12 -10 15 0 15
7 0 10 8 7 20 -6 24 12 38 24 19 7 -11 9 -10 9 4 0 9 7 17 16 17 11 0 14 -6 9
-22 -6 -22 -5 -22 9 -4 10 13 21 16 33 11 10 -5 21 -9 25 -9 4 -1 17 -9 28
-18 29 -25 32 -22 12 12 -13 22 -27 31 -57 36 -39 6 -39 7 -15 17 14 6 31 9
37 8 8 -1 10 4 7 14 -7 18 -14 18 -36 1z"/>
<path d="M1517 2323 c-4 -3 -7 -15 -7 -26 0 -16 3 -17 15 -7 8 7 15 19 15 26
0 15 -12 19 -23 7z"/>
<path d="M2690 2279 c-6 -24 -13 -49 -15 -56 -2 -7 0 -15 5 -18 6 -4 10 4 10
17 0 13 7 36 15 52 10 19 12 33 6 39 -6 6 -14 -6 -21 -34z"/>
<path d="M100 2285 c0 -5 11 -23 25 -40 17 -21 23 -24 18 -10 -6 18 -5 19 12
5 17 -14 17 -14 4 8 -8 12 -16 17 -18 11 -2 -7 -11 -2 -22 12 -10 13 -19 20
-19 14z"/>
<path d="M836 2274 c-3 -8 -10 -12 -16 -9 -6 3 -18 -1 -27 -11 -16 -16 -16
-16 7 -9 28 8 71 45 53 45 -6 0 -14 -7 -17 -16z"/>
<path d="M2973 2255 c-6 -7 -9 -17 -5 -21 4 -5 -1 -2 -10 5 -15 11 -18 11 -18
0 0 -8 -3 -25 -7 -39 l-6 -25 22 24 c13 16 21 19 21 10 1 -10 4 -9 11 4 6 10
9 26 7 36 -2 15 -5 16 -15 6z"/>
<path d="M2748 2195 c-12 -25 -26 -45 -30 -45 -4 0 -8 -11 -8 -25 0 -29 15
-33 23 -7 3 9 15 41 25 70 10 28 17 52 15 52 -2 0 -13 -20 -25 -45z"/>
<path d="M1920 2219 c0 -6 7 -9 15 -5 16 6 21 -9 6 -18 -8 -5 15 -35 80 -102
22 -23 13 -39 -11 -23 -24 15 -30 11 -30 -21 0 -16 5 -30 10 -30 6 0 10 9 10
21 0 11 4 18 9 15 32 -20 54 43 25 72 -8 7 -14 20 -14 28 0 8 -7 14 -16 14 -8
0 -13 4 -9 9 6 11 -42 51 -61 51 -8 0 -14 -5 -14 -11z"/>
<path d="M2336 2222 c-12 -11 -6 -21 9 -16 8 4 15 1 15 -5 0 -6 -7 -11 -15
-11 -8 0 -15 -4 -15 -10 0 -6 10 -5 25 2 28 13 30 40 3 44 -9 1 -19 -1 -22 -4z"/>
<path d="M1092 2208 c-18 -18 -15 -27 7 -21 12 3 19 0 18 -9 -1 -38 4 -68 13
-68 5 0 9 18 7 40 -1 22 -5 40 -9 40 -5 0 -8 7 -8 15 0 18 -12 19 -28 3z"/>
<path d="M1173 2185 c-17 -19 -16 -35 2 -35 9 0 15 9 15 25 0 29 -1 29 -17 10z"/>
<path d="M1820 2190 c0 -6 8 -20 18 -30 18 -19 18 -19 17 8 0 17 -6 28 -17 30
-10 2 -18 -2 -18 -8z"/>
<path d="M2788 2186 c-29 -21 -22 -40 7 -19 24 18 32 33 18 33 -5 0 -16 -7
-25 -14z"/>
<path d="M709 2158 c-16 -18 -29 -36 -29 -40 0 -5 0 -10 0 -13 0 -14 15 -2 15
13 1 9 6 16 13 15 7 -2 12 3 12 11 0 7 10 21 23 29 12 9 16 16 9 16 -7 1 -26
-14 -43 -31z"/>
<path d="M647 2163 c-3 -5 -6 -22 -5 -39 0 -16 -1 -33 -2 -39 -6 -23 1 -33 20
-28 21 6 29 25 8 21 -12 -3 -16 40 -6 58 4 5 3 16 -1 23 -5 7 -11 9 -14 4z"/>
<path d="M2808 2153 c-9 -10 -30 -33 -46 -50 -17 -18 -27 -33 -23 -33 16 0 50
32 70 65 23 39 22 44 -1 18z"/>
<path d="M2913 2145 c-8 -18 -8 -25 1 -28 8 -3 8 -8 -1 -18 -17 -17 -18 -48
-2 -32 13 13 29 92 20 97 -3 3 -11 -6 -18 -19z"/>
<path d="M1030 2151 c0 -4 -11 -20 -26 -36 -14 -15 -22 -30 -18 -34 4 -3 9 0
11 7 3 6 11 12 18 12 7 0 16 6 19 13 4 6 4 -3 1 -21 -3 -24 -1 -32 8 -29 6 2
11 13 9 23 -2 10 -4 31 -4 47 -1 23 -18 41 -18 18z"/>
<path d="M1064 2148 c-4 -6 -2 -14 4 -16 7 -2 12 -12 12 -22 0 -10 5 -22 10
-25 6 -3 10 3 10 14 0 11 -4 22 -10 26 -5 3 -7 12 -3 20 6 18 -13 20 -23 3z"/>
<path d="M117 2133 c-4 -3 -2 -12 4 -19 8 -10 5 -19 -10 -35 -25 -27 -26 -36
-6 -55 8 -9 15 -11 15 -5 0 5 -5 13 -10 16 -13 8 5 44 26 52 8 3 21 -2 28 -12
11 -15 13 -15 25 -1 12 14 12 16 -3 10 -10 -4 -18 0 -22 10 -3 9 -12 16 -20
16 -8 0 -11 6 -8 15 6 15 -7 21 -19 8z"/>
<path d="M556 2086 c-14 -31 -26 -59 -26 -63 0 -3 -8 -12 -17 -19 -10 -7 -15
-16 -11 -20 8 -7 47 34 48 50 0 5 10 29 21 53 12 24 19 46 16 49 -3 3 -17 -19
-31 -50z"/>
<path d="M1151 2102 c-23 -21 -38 -41 -35 -45 11 -10 24 -8 24 4 0 11 25 39
35 39 8 0 35 26 35 34 0 14 -21 3 -59 -32z"/>
<path d="M1920 2127 c0 -7 -3 -23 -7 -36 -4 -18 -2 -22 8 -19 8 3 14 10 14 16
0 5 3 14 8 18 11 11 8 21 -8 28 -8 3 -15 0 -15 -7z"/>
<path d="M1233 2115 c-3 -9 -3 -19 1 -22 7 -7 36 16 36 28 0 15 -30 10 -37 -6z"/>
<path d="M2450 2110 c0 -11 -7 -20 -15 -20 -8 0 -15 -7 -15 -16 0 -13 3 -14
13 -5 8 6 17 8 20 4 4 -3 7 8 7 25 0 18 -2 32 -5 32 -3 0 -5 -9 -5 -20z"/>
<path d="M2478 2113 c0 -10 -1 -26 0 -35 2 -16 -9 -23 -30 -19 -5 0 -8 -3 -8
-9 0 -5 8 -10 19 -10 22 0 52 31 35 37 -6 2 -9 15 -6 28 2 14 2 25 -2 25 -3 0
-7 -8 -8 -17z"/>
<path d="M467 2113 c-13 -12 -7 -25 8 -19 19 7 19 -8 0 -24 -8 -7 -12 -17 -8
-22 3 -6 13 -1 23 12 14 19 15 28 7 42 -13 19 -20 22 -30 11z"/>
<path d="M910 2099 c0 -24 23 -21 28 4 2 10 -3 17 -12 17 -10 0 -16 -9 -16
-21z"/>
<path d="M371 2082 c-1 -20 3 -31 9 -27 14 9 12 -5 -5 -35 -22 -38 -18 -60 5
-30 21 27 26 60 11 76 -5 5 -11 18 -14 29 -3 13 -5 8 -6 -13z"/>
<path d="M1950 2085 c0 -28 15 -34 24 -9 10 25 7 34 -9 34 -9 0 -15 -9 -15
-25z"/>
<path d="M323 2080 c3 -11 1 -23 -4 -26 -5 -3 -7 -10 -3 -15 3 -6 12 2 20 16
14 28 11 45 -8 45 -6 0 -8 -9 -5 -20z"/>
<path d="M600 2087 c-22 -17 -43 -63 -35 -76 9 -16 27 -2 20 17 -3 8 4 25 16
39 24 25 23 39 -1 20z"/>
<path d="M1186 2085 c-16 -12 -17 -17 -6 -30 17 -21 27 -19 35 6 9 29 -6 41
-29 24z"/>
<path d="M1266 2081 c-14 -15 -15 -24 -7 -38 6 -10 11 -15 12 -10 1 4 3 12 4
17 1 6 3 17 4 25 0 8 7 12 16 9 8 -4 15 -1 15 5 0 17 -25 13 -44 -8z"/>
<path d="M873 2070 c-3 -11 -12 -20 -19 -20 -19 0 -18 -36 1 -43 8 -4 17 -2
20 3 4 6 1 10 -5 10 -7 0 -10 6 -7 13 2 6 10 12 18 12 8 0 15 10 17 23 4 27
-18 30 -25 2z"/>
<path d="M938 2063 c-15 -19 -13 -53 3 -53 5 0 9 12 9 26 0 14 4 23 10 19 6
-3 10 1 10 9 0 21 -13 20 -32 -1z"/>
<path d="M2390 2067 c0 -9 -5 -17 -11 -17 -6 0 -4 -7 5 -15 15 -15 46 -11 46
7 0 6 -6 6 -14 -1 -9 -7 -17 -8 -20 -2 -3 5 0 11 6 14 10 4 11 7 1 18 -11 11
-13 10 -13 -4z"/>
<path d="M2970 2070 c0 -6 -10 -15 -22 -20 -13 -5 -17 -9 -10 -9 6 -1 12 -13
13 -28 1 -27 1 -27 10 5 11 38 34 44 26 6 -3 -17 -1 -22 5 -16 12 12 1 72 -13
72 -5 0 -9 -5 -9 -10z"/>
<path d="M489 2023 c-13 -27 -28 -51 -34 -55 -5 -4 -6 -10 -2 -14 9 -9 37 15
37 32 0 7 9 29 20 49 11 19 16 35 11 35 -4 0 -19 -21 -32 -47z"/>
<path d="M988 2049 c-9 -10 -22 -27 -28 -39 -10 -19 -10 -20 9 -8 12 7 21 17
21 22 0 5 7 14 17 21 9 7 12 14 7 17 -5 3 -17 -3 -26 -13z"/>
<path d="M1058 2049 c-19 -11 -25 -39 -8 -39 6 0 10 5 10 11 0 7 8 18 18 25
20 16 5 18 -20 3z"/>
<path d="M1146 2041 c-4 -5 -2 -19 2 -31 7 -19 10 -20 20 -7 7 8 10 22 6 31
-7 18 -20 21 -28 7z"/>
<path d="M1220 2041 c0 -5 -7 -17 -16 -26 -13 -12 -14 -19 -5 -28 8 -8 11 -6
11 7 0 12 5 16 15 12 11 -4 15 1 15 19 0 14 -4 25 -10 25 -5 0 -10 -4 -10 -9z"/>
<path d="M1831 2019 c-14 -31 -10 -46 8 -35 6 4 8 13 5 20 -3 8 -1 17 5 21 13
7 15 25 3 25 -4 0 -13 -14 -21 -31z"/>
<path d="M1890 2043 c0 -5 5 -15 10 -23 7 -12 12 -12 22 -2 10 10 10 15 -2 22
-18 12 -30 13 -30 3z"/>
<path d="M626 2021 c-10 -11 -16 -25 -14 -31 2 -6 14 3 26 19 25 34 15 42 -12
12z"/>
<path d="M1013 2023 c-3 -10 -14 -25 -24 -33 -19 -15 -16 -66 3 -54 5 3 6 15
3 25 -5 16 -3 20 11 17 14 -2 19 5 21 30 3 35 -4 42 -14 15z"/>
<path d="M1102 2028 c-14 -14 -16 -48 -3 -48 9 0 25 49 18 56 -2 2 -9 -2 -15
-8z"/>
<path d="M785 1974 c-22 -29 -25 -38 -14 -45 10 -6 15 -1 19 19 3 15 9 26 13
24 14 -5 40 15 33 27 -12 18 -22 13 -51 -25z"/>
<path d="M1280 2002 c0 -4 8 -24 19 -44 18 -37 18 -37 39 -18 25 23 37 11 28
-28 l-6 -27 20 23 c20 24 21 69 2 65 -5 -1 -8 7 -5 17 3 11 0 20 -6 20 -6 0
-11 -6 -11 -12 0 -7 -7 -22 -15 -32 -11 -15 -17 -17 -29 -7 -8 6 -12 21 -9 31
4 14 0 20 -11 20 -9 0 -16 -4 -16 -8z"/>
<path d="M325 1990 c-3 -5 -3 -14 0 -20 3 -5 1 -10 -4 -10 -6 0 -11 -7 -11
-16 0 -17 21 -15 22 1 0 6 4 18 9 27 10 18 -5 36 -16 18z"/>
<path d="M576 1967 c-14 -29 -16 -41 -7 -50 8 -8 11 -6 11 10 0 12 5 23 11 25
6 2 9 15 7 28 -3 23 -5 23 -22 -13z"/>
<path d="M1056 1991 c-8 -13 4 -42 15 -35 12 7 12 44 0 44 -6 0 -12 -4 -15 -9z"/>
<path d="M1474 1942 c5 -44 4 -62 -3 -57 -22 13 -33 -6 -17 -29 8 -13 16 -53
18 -90 2 -36 6 -66 10 -66 3 0 11 14 17 30 5 17 15 30 20 30 6 0 8 -7 5 -15
-4 -8 -1 -15 5 -15 14 0 15 27 1 35 -6 4 -8 11 -5 16 4 5 1 9 -4 9 -6 0 -11
-4 -11 -10 0 -5 -4 -10 -10 -10 -5 0 -10 9 -10 21 0 16 4 19 20 14 16 -5 19
-3 13 12 -4 10 -14 24 -22 31 -14 11 -14 13 1 22 18 11 14 46 -9 69 -10 9 -11
17 -3 26 7 9 6 16 -6 26 -16 13 -17 9 -10 -49z"/>
<path d="M2017 1978 c-4 -12 -4 -24 -1 -27 8 -9 37 27 30 38 -11 17 -23 13
-29 -11z"/>
<path d="M860 1974 c-9 -3 -22 -14 -29 -26 -12 -19 -11 -23 5 -35 17 -12 17
-14 0 -32 -10 -11 -16 -26 -14 -33 3 -8 11 -3 22 15 15 21 16 33 8 56 -8 24
-7 31 5 35 21 8 21 9 15 -20 -3 -19 -1 -25 7 -20 12 8 16 67 4 65 -5 -1 -15
-3 -23 -5z"/>
<path d="M922 1957 c-27 -29 -27 -32 -2 -59 l20 -22 -21 -22 c-12 -12 -19 -29
-16 -36 4 -10 6 -10 6 0 1 6 7 12 15 12 16 0 31 63 16 68 -14 5 -13 63 1 60 6
-2 14 3 16 10 7 20 -12 14 -35 -11z"/>
<path d="M1202 1950 c-23 -31 -29 -60 -12 -60 6 0 13 14 17 31 3 18 11 28 18
25 8 -3 11 2 8 15 -3 10 -6 19 -7 19 -1 0 -12 -13 -24 -30z"/>
<path d="M2469 1943 c-7 -10 -9 -15 -5 -11 5 4 15 0 22 -10 12 -16 14 -16 31
1 14 15 15 18 3 17 -28 -4 -41 0 -35 10 10 17 -2 11 -16 -7z"/>
<path d="M495 1884 c-22 -27 -43 -43 -51 -40 -8 3 -20 -3 -26 -14 -7 -11 -21
-20 -30 -20 -10 0 -18 -4 -18 -10 0 -5 8 -6 18 -3 15 6 16 5 2 -12 -8 -10 21
11 65 48 75 63 105 82 89 55 -4 -7 -3 -8 4 -4 9 5 9 13 2 27 -6 10 -12 19 -14
19 -2 0 -20 -21 -41 -46z"/>
<path d="M984 1901 c-14 -16 -22 -41 -22 -63 0 -49 -14 -71 -23 -38 -6 23 -7
23 -8 3 -2 -36 17 -36 39 -1 10 18 16 35 11 38 -5 3 -4 16 1 30 7 19 11 21 17
11 7 -11 11 -9 20 7 8 15 7 22 -2 30 -8 7 -18 2 -33 -17z"/>
<path d="M796 1904 c-7 -19 2 -37 15 -29 12 8 12 45 0 45 -5 0 -12 -7 -15 -16z"/>
<path d="M1060 1911 c0 -8 -7 -19 -17 -26 -15 -11 -15 -14 0 -35 14 -20 17
-21 23 -7 3 9 3 21 -1 28 -4 6 -1 15 6 20 11 6 11 11 1 21 -9 9 -12 9 -12 -1z"/>
<path d="M400 1875 c-17 -27 -25 -33 -35 -25 -9 8 -15 8 -20 0 -3 -5 -5 -10
-3 -11 33 -8 50 -6 63 7 8 9 13 20 10 25 -4 5 1 9 9 9 9 0 16 7 16 15 0 25
-17 17 -40 -20z"/>
<path d="M1140 1884 c0 -22 2 -25 15 -14 8 7 15 19 15 26 0 8 -7 14 -15 14
-10 0 -15 -10 -15 -26z"/>
<path d="M707 1866 c3 -19 1 -36 -6 -40 -6 -4 -11 -17 -11 -29 0 -29 14 -11
30 39 12 40 8 64 -10 64 -5 0 -6 -15 -3 -34z"/>
<path d="M878 1888 c-3 -7 -3 -19 -1 -26 6 -16 33 4 33 24 0 17 -26 18 -32 2z"/>
<path d="M242 1878 c-15 -15 -16 -38 -2 -38 6 0 10 -7 10 -15 0 -18 16 -20 26
-3 4 6 -2 18 -12 26 -13 10 -15 16 -6 19 13 5 17 23 4 23 -4 0 -13 -5 -20 -12z"/>
<path d="M1292 1870 c-20 -32 -14 -46 10 -22 15 14 19 25 12 32 -6 6 -14 3
-22 -10z"/>
<path d="M1989 1864 c-5 -15 -12 -31 -15 -35 -3 -5 0 -9 5 -9 6 0 11 6 11 14
0 7 7 19 15 26 17 14 20 30 5 30 -6 0 -15 -12 -21 -26z"/>
<path d="M2856 1850 c1 -57 14 -63 14 -7 0 26 -3 47 -7 47 -5 0 -8 -18 -7 -40z"/>
<path d="M151 1843 c-6 -15 -18 -42 -25 -59 -10 -21 -11 -35 -4 -45 8 -11 9
-11 4 4 -3 9 -1 17 4 17 4 0 16 23 25 51 18 54 15 79 -4 32z"/>
<path d="M1184 1855 c-7 -17 4 -37 17 -30 12 8 12 45 -1 45 -6 0 -13 -7 -16
-15z"/>
<path d="M1564 1856 c-4 -10 -2 -22 4 -28 8 -8 13 -7 18 6 4 10 2 22 -4 28 -8
8 -13 7 -18 -6z"/>
<path d="M1910 1855 c0 -7 -8 -19 -17 -24 -16 -9 -16 -10 5 -11 12 0 22 4 22
9 0 5 3 16 6 25 3 9 1 16 -5 16 -6 0 -11 -7 -11 -15z"/>
<path d="M1400 1845 c-14 -17 -5 -88 11 -83 12 4 21 98 9 98 -4 0 -13 -7 -20
-15z"/>
<path d="M1000 1835 c0 -8 7 -15 16 -15 14 0 14 -3 4 -15 -15 -18 -5 -34 11
-18 14 14 0 63 -17 63 -8 0 -14 -7 -14 -15z"/>
<path d="M1142 1838 c-16 -16 -15 -38 2 -38 17 0 30 30 18 42 -4 4 -13 3 -20
-4z"/>
<path d="M317 1827 c-3 -8 -16 -17 -29 -19 -15 -2 -24 -11 -26 -25 -2 -13 1
-23 7 -23 6 0 11 10 11 21 0 18 2 19 15 9 12 -10 15 -10 15 4 0 19 26 22 33 4
3 -7 6 -8 6 -2 1 5 -5 18 -12 28 -12 16 -15 17 -20 3z"/>
<path d="M648 1815 c-3 -14 -1 -25 3 -25 5 0 9 -7 9 -16 0 -8 5 -12 10 -9 8 5
8 11 0 20 -6 7 -8 19 -4 28 3 8 1 18 -4 21 -5 3 -12 -5 -14 -19z"/>
<path d="M780 1821 c-13 -24 -13 -58 -1 -66 16 -9 24 15 10 31 -11 13 -10 18
4 25 18 11 23 29 7 29 -5 0 -14 -9 -20 -19z"/>
<path d="M2521 1823 c-12 -13 -10 -22 9 -64 23 -49 33 -58 45 -39 3 5 -6 21
-21 33 -19 16 -25 29 -21 41 10 25 29 15 48 -22 12 -23 18 -28 22 -18 7 17
-29 66 -48 66 -7 0 -15 4 -17 9 -1 5 -9 2 -17 -6z"/>
<path d="M1063 1808 c-8 -18 -9 -29 -2 -34 15 -9 21 1 17 32 l-3 29 -12 -27z"/>
<path d="M2790 1823 c0 -13 122 -157 156 -183 18 -14 18 -14 4 4 -8 11 -24 29
-35 41 -27 28 -108 124 -117 139 -6 8 -8 8 -8 -1z"/>
<path d="M730 1796 c0 -14 -4 -26 -10 -26 -5 0 -10 -8 -10 -17 0 -14 3 -14 20
5 22 23 26 47 10 57 -6 4 -10 -5 -10 -19z"/>
<path d="M870 1801 c0 -12 -7 -21 -15 -21 -8 0 -15 -7 -15 -15 0 -21 9 -19 31
7 21 24 23 34 9 43 -5 3 -10 -3 -10 -14z"/>
<path d="M2204 1799 c3 -16 1 -31 -7 -37 -18 -15 -20 -62 -3 -62 8 0 14 6 13
13 -1 35 4 58 12 52 19 -11 19 11 -1 35 l-20 25 6 -26z"/>
<path d="M1174 1795 c-7 -17 22 -50 31 -36 3 5 1 12 -4 16 -6 3 -8 12 -4 20 3
8 0 15 -6 15 -7 0 -14 -7 -17 -15z"/>
<path d="M2075 1796 c-3 -9 -7 -23 -10 -31 -4 -13 -1 -13 15 -5 21 11 26 35
10 45 -6 3 -12 -1 -15 -9z"/>
<path d="M986 1792 c-9 -15 2 -52 15 -52 11 0 11 17 0 44 -5 14 -10 16 -15 8z"/>
<path d="M902 1745 c1 -25 3 -45 4 -45 11 0 23 44 18 65 -10 40 -22 29 -22
-20z"/>
<path d="M1326 1766 c4 -17 -2 -31 -19 -50 -28 -30 -37 -33 -37 -10 0 9 -5 14
-12 12 -18 -6 -22 -28 -4 -28 10 0 13 -6 10 -15 -4 -8 -12 -15 -20 -15 -8 0
-14 -10 -14 -22 1 -20 6 -17 40 22 29 33 39 40 40 27 0 -22 39 -20 51 3 22 43
33 100 18 100 -5 0 -9 -8 -9 -19 0 -10 -7 -24 -15 -31 -11 -9 -12 -16 -5 -25
7 -9 6 -16 -4 -24 -12 -10 -15 -7 -14 19 1 17 5 33 10 36 14 9 9 44 -7 44 -11
0 -14 -7 -9 -24z"/>
<path d="M2674 1775 c5 -11 8 -27 8 -35 -1 -28 8 -60 18 -60 5 0 7 7 4 15 -4
8 -1 15 5 15 6 0 11 -5 11 -12 0 -6 2 -9 5 -6 11 11 -7 37 -21 31 -12 -4 -14
0 -9 19 4 17 1 29 -11 39 -16 13 -17 12 -10 -6z"/>
<path d="M1141 1762 c-7 -13 -11 -30 -9 -39 3 -13 5 -12 19 3 11 12 14 26 9
39 -7 19 -7 19 -19 -3z"/>
<path d="M152 1745 c-7 -15 -10 -30 -7 -33 3 -4 8 4 12 16 4 18 9 20 24 11 15
-8 19 -6 19 7 0 10 -5 14 -14 11 -8 -3 -16 -1 -18 5 -2 6 -9 -2 -16 -17z"/>
<path d="M1032 1758 c-7 -7 -12 -16 -12 -20 0 -12 28 -10 36 3 10 17 -10 31
-24 17z"/>
<path d="M1287 1752 c-21 -23 -21 -32 -3 -32 8 0 18 9 21 21 9 28 2 33 -18 11z"/>
<path d="M1440 1760 c0 -5 -7 -10 -15 -10 -8 0 -19 -9 -25 -20 -12 -22 4 -29
17 -7 4 8 16 16 26 20 18 7 24 27 7 27 -5 0 -10 -4 -10 -10z"/>
<path d="M289 1747 c-8 -7 -23 -31 -32 -54 -14 -36 -14 -41 -2 -37 8 4 15 14
15 24 0 9 10 29 21 44 23 30 23 41 -2 23z"/>
<path d="M395 1739 c-27 -22 -28 -31 -12 -98 9 -37 80 -38 92 -1 8 26 25 26
25 0 0 -15 -12 -26 -41 -39 -35 -16 -37 -19 -19 -24 13 -3 23 0 27 9 3 8 9 14
14 14 12 0 -3 -35 -28 -64 -12 -14 -18 -28 -13 -31 12 -7 55 68 80 140 20 58
28 111 10 70 -9 -20 -9 -20 -10 0 -1 11 -4 15 -7 7 -3 -8 -11 -4 -25 13 -24
31 -56 32 -93 4z m63 -11 c21 -21 15 -86 -8 -98 -22 -12 -64 -4 -55 10 3 4 1
19 -4 32 -7 18 -4 28 12 46 23 25 37 28 55 10z"/>
<path d="M680 1748 c0 -9 -7 -19 -16 -22 -8 -3 -12 -10 -9 -16 9 -15 25 -12
25 4 0 8 6 16 13 19 10 4 10 7 0 18 -11 11 -13 10 -13 -3z"/>
<path d="M1742 1738 c5 -32 28 -35 28 -4 0 17 -5 26 -16 26 -10 0 -14 -7 -12
-22z"/>
<path d="M2001 1723 c-13 -36 -10 -50 9 -38 6 4 8 15 5 26 -4 13 -2 19 9 19
19 0 21 16 3 23 -9 3 -18 -8 -26 -30z"/>
<path d="M957 1744 c-10 -10 -9 -44 2 -44 13 0 23 32 13 42 -5 5 -11 5 -15 2z"/>
<path d="M2223 1735 c-3 -9 -3 -19 1 -22 7 -7 36 16 36 28 0 15 -30 10 -37 -6z"/>
<path d="M1176 1719 c-14 -11 -26 -27 -26 -36 0 -23 24 -9 30 18 6 25 18 16
25 -20 3 -14 -1 -18 -11 -14 -10 3 -14 -2 -14 -18 0 -23 0 -23 28 5 15 16 22
30 16 33 -6 2 -9 15 -6 28 5 30 -7 32 -42 4z"/>
<path d="M1437 1723 c-11 -10 -8 -43 3 -43 12 0 31 35 23 44 -8 8 -18 8 -26
-1z"/>
<path d="M1950 1717 c-20 -8 -21 -11 -8 -14 15 -4 15 -6 -3 -24 -11 -11 -17
-24 -14 -30 9 -14 27 1 21 17 -3 8 -1 14 4 14 9 0 34 39 28 45 -2 1 -14 -2
-28 -8z"/>
<path d="M2090 1711 c-14 -27 -13 -41 5 -41 10 0 15 10 15 30 0 35 -5 38 -20
11z"/>
<path d="M1502 1689 c2 -13 -3 -24 -9 -25 -7 -1 -16 -2 -19 -3 -4 0 -1 -8 6
-16 12 -14 15 -13 32 5 21 22 21 51 0 58 -8 2 -11 -5 -10 -19z"/>
<path d="M1835 1699 c-4 -6 -1 -15 6 -20 21 -13 31 -11 27 8 -4 20 -24 28 -33
12z"/>
<path d="M121 1655 c-25 -57 -23 -69 4 -20 18 34 40 49 29 20 -4 -9 0 -15 9
-15 22 0 30 30 9 37 -9 4 -20 11 -23 16 -4 5 -16 -12 -28 -38z"/>
<path d="M567 1681 c3 -11 17 -28 31 -37 15 -10 35 -26 46 -36 19 -17 31 -22
50 -19 5 1 6 -5 3 -13 -4 -9 -3 -15 1 -15 15 2 52 -14 52 -22 0 -5 3 -8 8 -8
4 1 19 1 34 0 21 -1 26 -5 22 -18 -4 -11 -3 -14 3 -7 10 14 59 12 74 -3 6 -6
18 -9 25 -6 8 3 14 -1 14 -9 0 -10 11 -15 30 -16 17 0 30 4 30 9 0 5 10 9 23
9 12 1 -21 12 -73 26 -151 39 -252 85 -342 156 -31 24 -35 26 -31 9z"/>
<path d="M677 1680 c-24 -28 -11 -48 14 -21 20 21 25 41 11 41 -4 0 -15 -9
-25 -20z"/>
<path d="M2034 1685 c-7 -17 4 -37 17 -30 12 8 12 45 -1 45 -6 0 -13 -7 -16
-15z"/>
<path d="M721 1664 c-20 -21 -22 -44 -3 -44 11 0 42 59 34 64 -4 2 -18 -6 -31
-20z"/>
<path d="M1360 1643 c-16 -27 -30 -53 -30 -60 0 -6 -5 -13 -11 -15 -7 -2 -10
-11 -7 -18 3 -10 17 3 38 38 18 28 35 52 36 52 2 0 3 -10 1 -22 -3 -30 36 -33
41 -3 3 19 2 19 -11 2 -14 -16 -15 -16 -20 10 -4 18 -1 32 9 39 18 14 18 24
-1 24 -8 0 -28 -21 -45 -47z"/>
<path d="M1886 1674 c-17 -17 -21 -34 -8 -34 10 0 42 33 42 43 0 12 -18 7 -34
-9z"/>
<path d="M1067 1673 c-8 -12 4 -63 14 -63 9 0 13 15 9 40 -2 20 -16 34 -23 23z"/>
<path d="M2116 1672 c-8 -13 11 -35 23 -28 16 10 14 36 -3 36 -8 0 -17 -4 -20
-8z"/>
<path d="M2635 1669 c-12 -6 -27 -19 -33 -30 -12 -18 -11 -19 5 -11 17 9 61
53 52 51 -2 0 -13 -5 -24 -10z"/>
<path d="M763 1642 c-26 -31 -29 -42 -10 -42 11 0 41 59 34 66 -1 1 -12 -10
-24 -24z"/>
<path d="M923 1646 c-27 -28 -30 -46 -8 -46 8 0 15 9 15 20 0 11 4 20 9 20 5
0 11 7 15 15 8 22 -6 18 -31 -9z"/>
<path d="M1806 1653 c-4 -9 -1 -21 5 -27 9 -8 10 -6 5 8 -5 15 -4 17 7 8 18
-15 30 -3 16 15 -15 18 -26 16 -33 -4z"/>
<path d="M820 1652 c0 -7 -7 -12 -15 -12 -10 0 -15 -10 -15 -30 0 -16 2 -30 5
-30 8 0 38 71 31 77 -3 3 -6 1 -6 -5z"/>
<path d="M2059 1639 c-10 -20 -9 -21 17 -15 37 10 42 15 24 26 -22 14 -28 12
-41 -11z"/>
<path d="M1136 1641 c-9 -14 5 -42 18 -38 15 5 14 39 -1 44 -6 2 -14 0 -17 -6z"/>
<path d="M1996 1623 l-19 -26 29 7 c36 9 38 11 31 31 -9 21 -19 18 -41 -12z"/>
<path d="M2634 1625 c-32 -25 -50 -67 -38 -87 11 -17 26 19 19 45 -5 17 -2 16
14 -8 22 -32 28 -28 10 7 -8 16 -8 24 4 35 13 13 14 12 9 -14 -2 -15 -1 -24 4
-20 6 6 16 67 11 67 -1 0 -16 -11 -33 -25z"/>
<path d="M945 1611 c-9 -17 -19 -29 -24 -27 -4 3 -7 -5 -6 -16 1 -12 8 -24 15
-26 9 -3 11 1 7 12 -4 10 -1 16 8 16 8 0 15 -9 15 -20 0 -11 5 -20 10 -20 6 0
10 6 10 14 0 8 -4 18 -10 21 -14 9 -12 42 3 48 9 3 9 7 0 17 -9 10 -15 5 -28
-19z"/>
<path d="M1457 1634 c-11 -11 -8 -44 3 -44 15 0 24 30 13 41 -5 5 -12 6 -16 3z"/>
<path d="M1496 1606 c-14 -19 -22 -37 -17 -40 11 -7 51 41 51 60 0 21 -5 18
-34 -20z"/>
<path d="M1035 1618 c-4 -9 -2 -25 3 -35 10 -17 11 -17 17 -1 4 9 2 25 -3 35
-10 17 -11 17 -17 1z"/>
<path d="M1190 1610 c-13 -24 -7 -50 11 -50 6 0 9 9 6 20 -3 10 0 21 7 23 8 3
8 8 -1 17 -9 9 -14 7 -23 -10z"/>
<path d="M1682 1609 c1 -13 8 -23 13 -21 15 3 12 35 -3 40 -9 3 -13 -3 -10
-19z"/>
<path d="M1838 1602 c-13 -22 -14 -30 -4 -44 10 -13 15 -15 24 -6 17 17 15 28
-4 28 -9 0 -14 6 -11 13 2 6 10 11 16 10 6 -2 11 4 11 12 0 23 -14 18 -32 -13z"/>
<path d="M1101 1607 c-9 -11 -7 -20 8 -38 l19 -24 -2 32 c-3 40 -10 48 -25 30z"/>
<path d="M2886 1588 c43 -47 78 -77 84 -72 5 6 -96 104 -107 104 -4 0 6 -14
23 -32z"/>
<path d="M860 1590 c-9 -16 -8 -20 5 -20 8 0 15 -5 15 -12 0 -9 3 -9 11 -1 12
12 3 53 -11 53 -5 0 -14 -9 -20 -20z"/>
<path d="M2530 1591 c-7 -11 -17 -18 -20 -16 -4 3 -15 -4 -25 -15 -13 -14 -22
-17 -30 -10 -10 8 -13 6 -11 -7 0 -10 -5 -17 -11 -15 -7 1 -13 -2 -13 -8 0 -5
-9 -10 -20 -10 -11 0 -20 -4 -20 -9 0 -10 -92 -71 -145 -95 -22 -10 -58 -27
-79 -37 -22 -11 -45 -19 -51 -19 -5 0 -26 -11 -45 -24 -26 -17 -47 -23 -75
-21 -22 2 -34 1 -27 -2 19 -7 14 -30 -8 -36 -11 -3 -20 -10 -20 -16 0 -8 11
-7 33 3 81 36 269 125 332 159 72 38 265 176 265 190 0 13 -15 7 -30 -12z"/>
<path d="M980 1583 c0 -17 19 -35 29 -29 18 12 12 36 -9 36 -11 0 -20 -3 -20
-7z"/>
<path d="M1411 1567 c-21 -23 -29 -57 -12 -57 12 0 23 29 15 41 -3 5 2 9 10 9
18 0 30 16 18 24 -5 3 -19 -5 -31 -17z"/>
<path d="M290 1574 c0 -2 16 -20 35 -40 19 -19 35 -40 35 -45 0 -5 4 -8 9 -6
5 1 17 -7 26 -18 14 -17 16 -18 11 -2 -3 11 -2 16 4 12 6 -3 10 -15 10 -26 0
-10 5 -19 10 -19 6 0 10 5 10 12 0 6 10 3 23 -8 12 -11 39 -28 61 -37 21 -10
40 -27 43 -38 4 -14 9 -17 18 -9 10 8 17 5 29 -12 11 -15 16 -17 16 -8 0 10 7
6 20 -10 13 -17 20 -20 20 -10 1 13 2 13 13 -1 7 -9 23 -19 36 -24 52 -16 153
-69 158 -82 4 -10 9 -11 19 -2 11 9 15 8 20 -4 3 -9 13 -18 21 -21 13 -5 13
-4 4 7 -9 12 -7 13 14 9 28 -5 31 -12 13 -30 -9 -9 5 -12 64 -12 73 0 77 1
102 31 23 27 83 56 94 45 2 -2 -8 -12 -23 -23 -64 -45 -65 -51 -5 -21 36 18
70 33 75 34 6 0 19 4 30 8 11 5 32 12 47 18 14 5 52 10 84 10 42 1 63 6 78 19
25 24 53 24 135 -2 113 -35 125 -38 154 -32 20 4 34 0 51 -16 13 -12 39 -26
58 -31 22 -7 67 -42 128 -100 51 -49 97 -90 101 -90 4 0 9 -4 11 -9 5 -15 58
-25 58 -11 0 6 -4 9 -9 6 -10 -7 -41 16 -146 108 -92 82 -107 98 -96 109 12
12 60 -13 66 -35 4 -10 13 -18 21 -18 8 0 17 -7 20 -15 4 -8 13 -15 21 -15 9
0 -7 21 -36 48 -28 26 -51 51 -51 54 0 4 13 13 29 21 22 11 32 12 41 3 8 -8
12 -5 17 12 4 16 11 21 23 17 12 -4 20 0 23 12 3 13 5 11 7 -7 1 -23 2 -23 10
-5 11 25 12 54 2 40 -4 -5 -14 -11 -22 -13 -8 -2 -59 -23 -112 -48 -54 -24
-104 -44 -113 -44 -9 0 -23 13 -32 29 -15 25 -21 28 -54 24 -44 -6 -291 46
-282 60 3 5 17 6 32 2 31 -8 17 9 -16 19 -18 6 -25 0 -43 -33 -23 -47 -30 -49
-56 -20 -21 24 -20 24 -163 -25 -130 -45 -135 -45 -126 -3 4 17 11 34 16 35 5
2 9 11 9 20 0 12 3 13 12 4 9 -9 8 -16 -5 -30 -19 -21 -22 -42 -7 -42 6 0 10
6 10 14 0 8 7 16 14 19 11 4 13 1 9 -11 -5 -13 -3 -14 6 -6 10 9 8 19 -7 47
-18 34 -20 35 -40 22 -11 -9 -23 -31 -27 -53 -3 -21 -15 -53 -25 -70 -16 -26
-26 -32 -56 -32 -88 0 -448 176 -696 340 -49 32 -88 56 -88 54z m1156 -293
c-7 -11 -86 -20 -86 -9 0 7 29 14 68 17 13 0 21 -3 18 -8z"/>
<path d="M1064 1567 c-7 -20 3 -37 22 -37 18 0 17 10 -1 34 -13 17 -15 17 -21
3z"/>
<path d="M1267 1573 c-12 -11 -7 -33 7 -33 12 0 26 20 26 36 0 7 -26 5 -33 -3z"/>
<path d="M1356 1564 c-10 -25 4 -37 20 -17 17 23 17 33 0 33 -8 0 -17 -7 -20
-16z"/>
<path d="M2563 1569 c-12 -12 -6 -49 9 -49 5 0 7 -4 3 -9 -3 -5 0 -13 6 -17 9
-5 10 1 5 22 -4 16 -12 31 -17 32 -6 3 -5 10 2 18 14 16 8 19 -8 3z"/>
<path d="M1157 1564 c-11 -11 -8 -44 3 -44 15 0 24 30 13 41 -5 5 -12 6 -16 3z"/>
<path d="M1501 1538 c-6 -17 -8 -34 -5 -37 8 -9 34 30 34 51 0 29 -17 21 -29
-14z"/>
<path d="M1557 1540 c-10 -16 -22 -30 -28 -30 -5 0 -9 -7 -9 -15 0 -8 4 -15 8
-15 14 0 32 23 32 41 0 10 7 16 18 15 9 0 17 5 17 13 0 26 -20 21 -38 -9z"/>
<path d="M1009 1543 c-12 -15 -12 -16 8 -11 22 6 38 -13 34 -39 -1 -8 4 -10
14 -7 11 4 15 0 15 -16 0 -18 -3 -20 -14 -11 -12 10 -13 7 -4 -23 6 -20 15
-36 19 -36 10 0 42 60 36 67 -3 2 -8 -5 -12 -16 -3 -12 -11 -21 -16 -21 -12 0
-12 17 1 25 16 10 12 22 -20 57 -16 18 -30 36 -30 40 0 14 -17 9 -31 -9z"/>
<path d="M1195 1525 c-35 -36 -45 -60 -23 -53 6 2 18 18 27 34 9 17 22 29 28
27 15 -5 26 14 13 22 -6 4 -26 -10 -45 -30z"/>
<path d="M1440 1533 c-8 -16 -16 -31 -18 -35 -2 -5 4 -8 14 -8 12 0 15 6 11
20 -4 17 -2 20 15 14 15 -4 19 -2 16 12 -5 28 -23 27 -38 -3z"/>
<path d="M1750 1540 c0 -11 -4 -20 -10 -20 -5 0 -10 -6 -10 -14 0 -8 -7 -16
-15 -20 -18 -7 -21 -50 -2 -44 6 3 13 14 15 26 2 12 8 22 13 22 5 0 9 5 9 11
0 7 7 17 17 24 9 7 13 17 9 23 -11 19 -26 14 -26 -8z"/>
<path d="M1806 1552 c-7 -12 3 -42 14 -42 16 0 18 15 5 33 -7 10 -16 14 -19 9z"/>
<path d="M2493 1513 c-39 -36 -66 -93 -43 -93 5 0 10 6 10 14 0 8 11 24 25 37
13 13 25 31 25 39 1 12 4 11 15 -4 19 -25 26 -17 17 18 l-8 28 -41 -39z"/>
<path d="M1321 1519 c-11 -31 -5 -37 16 -16 13 13 14 20 5 29 -9 9 -14 6 -21
-13z"/>
<path d="M1610 1521 c0 -22 16 -36 24 -22 8 12 -3 41 -15 41 -5 0 -9 -9 -9
-19z"/>
<path d="M1104 1515 c-4 -9 -4 -18 -2 -21 9 -8 39 8 35 19 -6 18 -27 20 -33 2z"/>
<path d="M1279 1509 c-6 -12 -7 -25 -2 -30 5 -5 14 4 20 21 13 34 -1 41 -18 9z"/>
<path d="M1655 1497 c-8 -20 -15 -44 -15 -53 0 -16 2 -16 19 2 11 11 15 23 10
29 -14 14 -11 25 5 19 20 -8 28 12 11 26 -13 10 -17 7 -30 -23z"/>
<path d="M1366 1511 c-4 -6 0 -14 8 -17 14 -5 12 -11 -9 -36 -29 -34 -32 -48
-10 -48 8 0 15 8 15 19 0 10 7 24 15 31 18 15 19 21 2 45 -10 12 -16 15 -21 6z"/>
<path d="M1834 1484 c-7 -28 8 -50 25 -40 16 11 13 24 -6 29 -17 4 -17 5 0 6
21 1 23 17 2 25 -10 3 -17 -3 -21 -20z"/>
<path d="M1890 1491 c-14 -27 -13 -34 10 -49 18 -11 20 -10 20 9 0 11 -4 17
-10 14 -5 -3 -10 -1 -10 4 0 6 5 11 10 11 6 0 10 7 10 15 0 21 -17 19 -30 -4z"/>
<path d="M1456 1476 c-8 -32 7 -75 19 -56 5 8 4 15 -3 18 -8 2 -8 11 -1 28 11
31 11 34 0 34 -5 0 -12 -11 -15 -24z"/>
<path d="M536 1465 c-3 -9 -2 -13 4 -10 6 3 10 2 10 -3 0 -10 103 -63 148 -77
22 -6 22 -5 10 14 -7 12 -14 17 -16 11 -2 -5 -8 -10 -13 -10 -4 0 -6 7 -3 15
4 9 0 15 -10 16 -32 3 -37 4 -44 14 -4 6 -18 11 -32 13 -14 1 -30 9 -36 17
-10 14 -12 14 -18 0z"/>
<path d="M1545 1470 c-9 -15 16 -43 27 -32 10 10 0 42 -12 42 -5 0 -12 -5 -15
-10z"/>
<path d="M1747 1453 c-3 -16 -1 -35 4 -43 7 -11 8 -9 4 7 -5 17 -3 22 8 17 20
-7 31 14 17 31 -18 22 -27 18 -33 -12z"/>
<path d="M2417 1463 c-4 -3 -7 -20 -7 -37 l1 -31 14 34 c8 18 15 35 15 37 0 6
-16 5 -23 -3z"/>
<path d="M1127 1433 c-6 -16 -20 -35 -30 -43 -18 -15 -18 -16 3 -42 18 -23 24
-26 40 -16 10 7 21 27 25 45 3 18 10 33 15 33 6 0 10 9 10 21 0 28 -22 19 -31
-13 -6 -23 -42 -68 -54 -68 -13 0 -3 27 15 40 11 8 20 22 20 30 0 9 5 21 12
28 9 9 9 12 0 12 -7 0 -18 -12 -25 -27z"/>
<path d="M1596 1441 c-7 -11 3 -41 14 -41 11 0 21 30 14 41 -3 5 -9 9 -14 9
-5 0 -11 -4 -14 -9z"/>
<path d="M1931 1433 c0 -6 -21 -32 -46 -57 -24 -25 -40 -46 -34 -46 19 0 90
82 86 99 -3 9 -5 11 -6 4z"/>
<path d="M2362 1424 c-21 -15 -33 -72 -12 -59 6 3 10 15 10 27 0 13 5 18 14
15 8 -3 16 2 19 14 6 23 -1 24 -31 3z"/>
<path d="M1426 1408 c-3 -13 -6 -27 -6 -33 1 -15 30 27 30 42 0 22 -17 15 -24
-9z"/>
<path d="M1702 1403 c-9 -20 -9 -30 -1 -37 9 -8 10 -6 6 6 -4 12 -2 15 9 11
10 -4 14 2 14 21 0 33 -12 33 -28 -1z"/>
<path d="M1485 1409 c-4 -5 0 -18 8 -27 13 -15 13 -19 0 -31 -8 -7 -11 -16 -8
-19 6 -7 44 36 45 50 0 4 -6 5 -14 2 -11 -4 -13 0 -9 15 6 22 -11 29 -22 10z"/>
<path d="M1556 1404 c-9 -8 -16 -22 -16 -30 0 -12 4 -12 25 2 14 9 25 20 25
25 0 17 -19 19 -34 3z"/>
<path d="M1774 1403 c-4 -13 -13 -23 -21 -23 -17 0 -13 -22 5 -28 7 -2 12 3
12 12 0 9 5 16 10 16 6 0 10 -5 10 -12 0 -9 3 -9 11 -1 8 8 7 17 -5 35 l-16
23 -6 -22z"/>
<path d="M1634 1396 c-4 -10 -2 -22 4 -28 8 -8 13 -7 18 6 4 10 2 22 -4 28 -8
8 -13 7 -18 -6z"/>
<path d="M1836 1391 c-20 -22 -20 -31 -1 -31 8 0 15 7 15 16 0 8 5 12 10 9 6
-3 10 -2 10 4 0 19 -17 20 -34 2z"/>
<path d="M1182 1379 c-7 -12 -11 -23 -8 -26 7 -7 36 23 36 36 0 18 -14 13 -28
-10z"/>
<path d="M1357 1382 c-28 -31 -20 -48 9 -21 l26 24 -7 -32 c-4 -21 -3 -33 4
-33 16 0 14 55 -2 69 -11 8 -18 7 -30 -7z"/>
<path d="M1454 1372 c-4 -12 -13 -22 -20 -22 -21 0 -17 -17 6 -23 12 -3 17 -1
14 5 -3 5 2 15 12 23 16 11 17 16 6 27 -10 10 -14 9 -18 -10z"/>
<path d="M2307 1372 c2 -9 -3 -44 -11 -76 -9 -33 -14 -62 -11 -64 2 -2 7 9 11
24 3 16 12 50 19 76 11 38 11 47 0 51 -8 4 -11 0 -8 -11z"/>
<path d="M2424 1363 c-3 -16 -7 -33 -9 -40 -5 -14 19 -36 28 -26 4 3 7 11 7
17 0 6 -5 4 -11 -4 -8 -11 -9 -2 -4 33 7 51 -1 65 -11 20z"/>
<path d="M2890 1380 c-11 -7 2 -10 43 -10 l57 0 2 -52 2 -53 3 48 c3 28 -1 55
-8 63 -13 16 -76 19 -99 4z"/>
<path d="M2243 1363 c-29 -14 -33 -21 -32 -52 2 -34 2 -34 6 -6 7 48 23 54 24
10 1 -22 3 -31 6 -20 2 11 6 30 8 42 4 15 10 20 20 17 9 -4 15 0 15 10 0 19
-6 19 -47 -1z"/>
<path d="M1574 1358 c-5 -8 -2 -9 9 -5 11 4 17 1 17 -8 0 -16 12 -20 23 -8 9
8 -12 33 -29 33 -7 0 -16 -5 -20 -12z"/>
<path d="M1661 1356 c-10 -12 -10 -19 2 -36 l14 -21 6 22 c3 13 3 29 -2 36 -6
12 -10 12 -20 -1z"/>
<path d="M2597 1353 c-16 -18 -16 -21 -2 -33 20 -17 27 -9 23 25 -3 27 -3 27
-21 8z"/>
<path d="M1233 1344 c-4 -10 0 -22 9 -28 9 -6 18 -20 20 -31 5 -20 5 -20 13
-1 6 13 4 21 -3 24 -7 2 -12 15 -12 28 0 27 -17 32 -27 8z"/>
<path d="M1298 1341 c-14 -14 -14 -19 -3 -35 8 -10 18 -15 24 -11 18 10 13 25
-6 19 -15 -5 -15 -3 1 10 12 10 16 19 10 25 -5 5 -16 2 -26 -8z"/>
<path d="M1776 1334 c-7 -18 18 -64 34 -64 6 0 10 7 10 15 0 8 -7 15 -16 15
-12 0 -15 6 -10 25 7 28 -8 35 -18 9z"/>
<path d="M2467 1343 c-14 -13 -7 -53 8 -53 12 0 14 7 9 28 -8 33 -9 34 -17 25z"/>
<path d="M2321 1279 c-7 -33 -10 -63 -8 -65 2 -3 10 23 16 57 7 33 10 63 8 65
-2 3 -10 -23 -16 -57z"/>
<path d="M1700 1310 c0 -11 2 -20 4 -20 2 0 11 -3 20 -6 13 -5 13 -2 3 20 -14
31 -27 34 -27 6z"/>
<path d="M2265 1285 c-4 -25 -5 -48 -2 -51 2 -3 8 16 12 41 3 26 4 49 2 52 -3
3 -9 -16 -12 -42z"/>
<path d="M2516 1259 c-68 -93 -190 -223 -242 -258 -26 -17 -42 -31 -35 -31 8
0 35 -16 62 -36 30 -22 57 -34 71 -32 19 3 15 7 -24 26 -76 38 -76 43 -8 102
48 41 60 48 60 33 0 -23 40 -63 63 -63 19 0 47 37 47 62 0 26 -18 22 -22 -4
-4 -33 -48 -31 -65 2 -11 21 -9 28 9 47 12 13 32 23 44 23 21 0 22 3 14 26
-13 33 -13 34 5 34 8 0 15 6 15 14 0 8 4 16 8 18 5 2 16 17 24 33 8 17 20 29
26 28 7 -2 12 6 12 17 0 34 -18 22 -64 -41z"/>
<path d="M345 1262 c4 -7 4 -29 0 -49 -5 -28 -10 -34 -25 -30 -11 3 -21 -1
-24 -9 -8 -22 -19 -144 -13 -144 12 0 48 115 38 118 -6 2 -11 8 -11 13 0 4 6
6 14 3 8 -3 22 9 34 30 l21 35 -20 23 c-11 13 -17 17 -14 10z"/>
<path d="M2371 1221 c-12 -22 -21 -46 -21 -53 1 -7 12 9 26 35 14 27 23 51 20
54 -2 3 -14 -13 -25 -36z"/>
<path d="M2987 1253 c-5 -7 -23 -13 -41 -13 -19 0 -39 -6 -45 -14 -10 -12 -3
-13 41 -9 61 6 61 6 56 30 -2 13 -6 15 -11 6z"/>
<path d="M2103 1230 c-22 -55 -23 -75 -3 -37 12 21 19 44 17 50 -3 7 -9 1 -14
-13z"/>
<path d="M2221 1189 c-7 -33 -10 -63 -8 -65 2 -3 10 23 16 57 7 33 10 63 8 65
-2 3 -10 -23 -16 -57z"/>
<path d="M1415 1190 c-24 -48 -26 -70 -5 -70 5 0 7 7 3 16 -9 24 26 92 51 97
20 4 20 4 -1 6 -18 1 -28 -10 -48 -49z"/>
<path d="M1222 1156 c-16 -11 -41 -35 -55 -52 -15 -17 -56 -50 -92 -74 -36
-23 -65 -46 -65 -51 0 -5 -8 -9 -17 -10 -12 0 -13 -2 -5 -6 20 -8 62 -80 61
-105 -1 -19 -3 -18 -15 11 -8 18 -17 31 -19 29 -9 -9 20 -108 30 -105 20 7 17
87 -4 123 -12 19 -21 39 -21 43 0 4 37 34 82 67 46 32 99 74 119 91 34 31 39
32 81 24 48 -9 105 -51 94 -70 -10 -16 -24 -13 -29 7 -3 9 -5 2 -6 -15 -1 -27
3 -33 20 -33 14 0 19 5 16 15 -4 8 -2 17 3 20 6 4 10 13 10 21 0 20 -25 45
-35 36 -4 -4 -5 5 -2 19 6 24 4 27 -21 27 -15 0 -44 2 -64 5 -27 4 -44 -1 -66
-17z"/>
<path d="M1680 1169 c-39 -8 -63 -35 -55 -60 3 -10 1 -20 -5 -24 -6 -4 -8 -16
-4 -28 6 -21 6 -22 -14 -4 -19 18 -20 17 -17 -15 4 -49 4 -48 18 -48 8 0 19
25 27 66 11 54 18 68 38 75 38 15 72 11 66 -6 -4 -9 5 -27 21 -43 37 -36 47
-66 34 -99 -10 -28 -6 -53 9 -53 5 0 8 14 6 30 -2 17 1 30 6 30 6 0 10 -5 10
-12 0 -6 3 -9 6 -5 7 7 -14 74 -24 79 -14 6 -54 68 -50 78 4 13 204 -138 200
-152 -11 -41 -18 -97 -12 -93 4 3 10 22 14 44 3 22 10 42 15 45 5 3 30 -4 56
-15 28 -13 77 -23 118 -25 55 -4 80 -11 113 -32 44 -28 58 -47 27 -38 -50 13
-85 17 -79 8 3 -5 28 -12 55 -16 27 -3 61 -16 75 -27 26 -20 37 -14 14 9 -9 9
-7 13 5 18 9 3 24 4 32 1 8 -4 17 -2 20 3 4 6 17 10 31 10 15 0 24 6 24 15 0
8 6 15 14 15 15 0 68 48 92 85 11 18 20 23 27 16 7 -7 6 -16 -3 -28 -7 -10 6
2 28 27 22 25 38 47 35 50 -2 3 -11 -4 -19 -15 -15 -20 -15 -20 -30 0 -16 20
-16 20 -32 -5 -28 -42 -115 -131 -142 -145 -30 -15 -122 -26 -114 -14 3 5 2 9
-3 9 -4 0 -25 16 -46 35 -32 29 -46 35 -85 36 -57 1 -83 5 -139 24 -24 8 -48
15 -53 15 -16 0 -110 71 -164 123 -27 26 -51 45 -54 42 -3 -3 -10 -1 -16 4
-20 15 -41 18 -76 10z"/>
<path d="M1495 1151 c-6 -11 22 -61 36 -61 20 0 18 23 -4 46 -15 15 -28 21
-32 15z"/>
<path d="M1425 1118 c4 -39 5 -43 14 -57 5 -7 14 -10 20 -7 8 5 7 14 -4 29 -8
12 -15 29 -15 39 0 10 -4 18 -9 18 -4 0 -7 -10 -6 -22z"/>
<path d="M1460 1123 c0 -10 4 -24 9 -32 12 -19 24 3 16 29 -8 25 -25 26 -25 3z"/>
<path d="M459 1108 c-11 -21 -11 -22 6 -8 16 13 20 12 42 -14 16 -19 23 -37
20 -53 -5 -29 7 -30 20 -1 8 18 3 27 -30 60 -22 21 -41 38 -43 38 -2 0 -9 -10
-15 -22z"/>
<path d="M919 1103 c-53 -60 -73 -86 -62 -80 6 4 30 30 53 57 44 53 51 69 9
23z"/>
<path d="M1570 1111 c0 -6 9 -15 21 -21 18 -10 20 -9 17 7 -3 19 -38 32 -38
14z"/>
<path d="M2100 1104 c0 -4 16 -22 35 -41 42 -41 45 -35 8 13 -26 32 -43 43
-43 28z"/>
<path d="M1482 1061 c-19 -26 -19 -31 -6 -42 8 -6 16 -10 18 -8 5 6 17 79 13
79 -2 0 -13 -13 -25 -29z"/>
<path d="M1718 1013 c-16 -65 -16 -75 -2 -102 9 -17 20 -31 25 -31 5 0 9 -7 9
-15 0 -22 17 -18 23 5 3 13 -2 25 -13 33 -16 11 -20 29 -22 98 l-3 84 -17 -72z"/>
<path d="M310 1035 c0 -16 27 -32 37 -21 7 7 -16 36 -28 36 -5 0 -9 -7 -9 -15z"/>
<path d="M1415 1029 c6 -19 4 -21 -19 -17 -29 6 -33 -7 -12 -37 7 -11 16 -33
21 -50 6 -26 8 -28 15 -10 4 12 2 25 -7 33 -17 17 -17 15 6 54 20 31 19 48 0
48 -6 0 -7 -9 -4 -21z"/>
<path d="M1552 1017 c-17 -20 -5 -52 14 -36 11 9 14 6 14 -15 0 -14 5 -26 10
-26 13 0 13 37 -1 45 -6 4 -14 16 -18 27 -6 17 -9 18 -19 5z"/>
<path d="M398 989 c17 -19 32 -41 32 -47 0 -7 -12 -35 -26 -63 -14 -28 -21
-48 -16 -45 5 3 20 28 33 55 l23 50 23 -21 c28 -26 28 -33 2 -93 -11 -25 -18
-49 -15 -52 5 -5 36 61 36 77 0 15 26 29 39 21 14 -9 14 -20 -1 -38 -7 -9 -7
-13 0 -13 5 0 15 6 21 14 8 9 27 14 49 12 24 -1 53 7 87 25 27 15 66 29 86 32
19 2 45 9 56 16 12 6 31 11 42 11 11 0 23 5 26 10 4 6 1 9 -7 8 -7 -2 -12 2
-11 9 3 15 -51 -2 -67 -22 -6 -8 -17 -12 -25 -9 -7 3 -16 1 -20 -5 -9 -16 -25
-13 -19 3 3 9 -4 20 -18 27 -20 11 -21 10 -10 -3 10 -13 5 -21 -35 -54 -32
-26 -55 -38 -71 -35 -39 5 -105 37 -127 61 -11 12 -42 41 -70 63 -48 39 -49
39 -17 6z"/>
<path d="M1440 1006 c0 -16 28 -42 36 -33 7 6 -18 47 -28 47 -5 0 -8 -6 -8
-14z"/>
<path d="M1251 996 c-8 -9 -8 -16 -2 -20 14 -9 1 -38 -13 -33 -7 3 -12 -4 -12
-14 0 -22 6 -23 41 -7 25 11 30 24 19 52 -3 9 -12 12 -22 8 -15 -5 -15 -4 -3
11 7 9 11 17 8 17 -2 0 -10 -6 -16 -14z"/>
<path d="M1466 934 c-20 -34 -44 -68 -52 -75 -8 -6 -14 -17 -14 -24 0 -6 -12
-17 -27 -24 -60 -27 -194 -103 -190 -108 3 -2 22 7 44 20 67 42 143 78 154 72
9 -6 54 41 54 55 0 3 14 24 31 45 17 22 29 47 26 55 -2 8 10 0 27 -19 17 -19
31 -39 31 -45 0 -6 -7 -2 -15 8 -13 17 -15 17 -15 4 0 -22 19 -33 33 -19 18
18 29 13 17 -9 -8 -15 -6 -21 9 -29 16 -9 18 -8 14 12 -4 19 -2 19 14 -5 10
-16 21 -28 25 -28 5 0 8 -9 8 -19 0 -11 5 -23 10 -26 7 -4 9 2 4 19 -4 17 -2
26 6 26 6 0 -8 17 -32 38 -76 65 -97 86 -110 113 l-14 26 -38 -63z"/>
<path d="M146 953 c11 -62 67 -186 87 -191 9 -2 17 -9 17 -15 0 -6 3 -8 6 -4
3 3 -17 49 -45 101 -28 53 -52 107 -53 121 -1 14 -6 25 -11 25 -4 0 -5 -17 -1
-37z"/>
<path d="M88 954 c-5 -4 -8 -23 -7 -43 0 -34 1 -34 10 -11 11 27 8 66 -3 54z"/>
<path d="M1969 915 c-6 -25 -15 -45 -20 -45 -11 0 16 -56 32 -65 17 -11 23 3
9 20 -9 11 -11 33 -7 75 4 33 5 60 2 60 -3 0 -10 -20 -16 -45z"/>
<path d="M200 925 c7 -9 27 -26 44 -37 l31 -22 -25 30 c-29 33 -41 44 -54 44
-5 0 -3 -7 4 -15z"/>
<path d="M2718 902 c-3 -20 1 -37 11 -47 14 -13 13 -15 -4 -15 -18 0 -18 -2 5
-20 l25 -20 -23 0 c-13 0 -21 -4 -18 -9 7 -10 56 -21 56 -12 0 3 -11 40 -24
81 -21 67 -24 71 -28 42z"/>
<path d="M1497 913 c-4 -3 -7 -24 -7 -46 0 -24 -8 -49 -20 -64 -27 -34 -27
-68 -1 -35 25 29 28 28 36 -8 4 -16 13 -30 21 -30 19 0 18 10 -3 27 -10 8 -12
11 -4 7 10 -5 11 -1 6 15 -5 15 -2 21 9 21 9 0 16 -4 16 -10 0 -5 5 -10 10
-10 13 0 13 20 0 40 -7 12 -12 12 -22 2 -27 -27 -37 -14 -31 43 6 53 4 62 -10
48z"/>
<path d="M2047 914 c-4 -4 -7 -27 -7 -51 0 -25 -4 -52 -10 -62 -8 -15 -2 -22
39 -44 41 -23 47 -31 46 -54 -1 -15 0 -20 2 -10 2 9 12 17 21 17 11 0 8 8 -14
28 -16 16 -37 31 -46 35 -20 7 -26 40 -15 91 7 37 -1 64 -16 50z"/>
<path d="M855 888 c-27 -11 -79 -28 -114 -39 -58 -17 -141 -61 -141 -74 0 -3
11 1 24 10 13 8 63 28 112 44 99 32 184 67 184 76 0 8 -10 5 -65 -17z"/>
<path d="M2676 885 c-4 -11 -15 -38 -23 -60 -8 -22 -18 -42 -23 -45 -25 -17
-60 -87 -61 -124 0 -33 -2 -37 -10 -21 -6 14 -8 4 -6 -37 2 -32 0 -59 -3 -60
-4 -2 -4 -12 0 -23 5 -15 10 -8 19 33 6 29 11 72 11 95 0 36 5 46 34 69 38 31
79 124 73 167 -3 24 -4 24 -11 6z"/>
<path d="M1878 875 c-7 -8 14 -55 25 -55 9 0 -1 40 -12 53 -4 4 -10 5 -13 2z"/>
<path d="M1766 831 c-4 -5 3 -12 14 -16 16 -5 18 -10 10 -25 -8 -15 -6 -17 10
-13 26 7 25 15 -4 42 -14 13 -26 18 -30 12z"/>
<path d="M2212 828 c-14 -14 -16 -32 -4 -24 12 7 -39 -98 -50 -105 -6 -4 3
-21 19 -39 23 -26 32 -30 38 -19 5 8 4 11 0 6 -5 -4 -14 2 -21 14 -9 17 -8 32
3 67 7 25 17 48 21 51 12 8 22 50 13 56 -4 2 -13 -1 -19 -7z"/>
<path d="M1290 810 c0 -6 -4 -8 -10 -5 -5 3 -10 0 -10 -7 0 -9 -3 -9 -10 2 -8
13 -10 13 -10 -2 0 -18 -28 -31 -51 -25 -8 2 -11 2 -6 0 15 -9 6 -22 -14 -18
-15 3 -19 0 -15 -10 5 -14 -11 -20 -37 -16 -5 1 -6 -3 -2 -9 3 -5 -2 -13 -12
-17 -10 -4 -20 -9 -23 -13 -3 -3 -18 -16 -34 -28 -35 -27 -25 -30 12 -3 15 10
74 47 132 81 123 73 114 66 101 75 -6 3 -11 1 -11 -5z"/>
<path d="M61 762 c-20 -72 -24 -102 -14 -102 6 0 14 24 17 52 4 29 14 61 23
70 15 16 15 18 0 18 -10 0 -20 -14 -26 -38z"/>
<path d="M961 773 c-1 -35 4 -39 29 -23 11 7 11 10 2 10 -7 0 -17 10 -22 23
-8 20 -9 19 -9 -10z"/>
<path d="M270 771 c0 -12 19 -25 44 -28 16 -3 15 0 -7 17 -28 22 -37 25 -37
11z"/>
<path d="M1560 760 c-12 -8 -12 -10 -1 -10 8 0 11 -7 9 -18 -4 -15 -1 -18 18
-14 25 4 34 -13 12 -21 -10 -3 -10 -8 -2 -16 8 -9 14 -9 22 2 9 10 7 22 -7 47
-20 38 -30 44 -51 30z"/>
<path d="M1466 741 c-18 -20 -18 -21 3 -38 15 -13 18 -22 11 -33 -8 -12 -10
-12 -10 5 -1 18 -1 19 -11 3 -7 -13 -4 -25 12 -48 25 -32 34 -36 45 -18 4 6
-2 18 -12 26 -14 10 -15 16 -6 19 40 15 50 60 11 50 -14 -4 -19 2 -21 25 l-3
30 -19 -21z"/>
<path d="M2479 730 c-19 -16 -29 -30 -24 -30 15 0 71 47 64 54 -3 4 -21 -7
-40 -24z"/>
<path d="M2739 744 c35 -15 48 -13 36 5 -3 6 -21 11 -38 11 l-32 -1 34 -15z"/>
<path d="M440 742 c0 -5 29 -31 65 -58 39 -30 63 -54 60 -63 -3 -8 0 -11 9 -8
14 6 81 -39 137 -90 l25 -23 32 44 c34 47 38 56 22 56 -5 0 -10 -7 -10 -16 0
-10 -6 -14 -14 -11 -8 3 -19 -5 -27 -21 -12 -26 -13 -26 -17 -5 -2 12 -9 20
-15 17 -7 -2 -26 8 -42 24 -17 16 -43 36 -60 45 -28 14 -92 61 -125 90 -23 21
-40 29 -40 19z"/>
<path d="M1837 717 c1 -18 5 -75 8 -127 7 -106 15 -131 16 -49 0 35 3 47 8 35
7 -18 8 -18 14 -2 10 24 9 38 -2 32 -13 -8 -21 19 -21 70 0 41 11 57 25 34 4
-6 21 -16 39 -24 18 -7 60 -40 94 -72 54 -50 62 -62 58 -89 -2 -16 -1 -22 1
-12 2 9 7 17 9 17 11 0 48 -41 70 -77 13 -21 24 -34 24 -30 0 14 -27 61 -63
107 -20 24 -33 49 -30 55 4 5 2 7 -2 2 -11 -9 -45 21 -41 36 2 7 1 9 -1 5 -3
-5 -23 7 -46 26 -23 18 -69 47 -102 64 l-61 30 3 -31z"/>
<path d="M870 653 c0 -68 5 -67 13 5 4 30 2 52 -3 52 -6 0 -10 -26 -10 -57z"/>
<path d="M1389 677 c-55 -34 -149 -99 -149 -104 0 -2 9 -1 20 2 16 5 20 2 20
-14 0 -15 4 -19 17 -14 12 5 15 2 10 -10 -3 -9 -2 -19 4 -23 6 -3 13 3 16 15
6 23 18 27 29 9 4 -6 -1 -17 -11 -24 -11 -8 -15 -19 -11 -31 7 -16 9 -16 27 7
l19 25 20 -24 c25 -29 25 -32 0 -59 -11 -12 -20 -24 -20 -28 0 -4 -8 -13 -17
-20 -14 -10 -15 -15 -6 -25 10 -10 14 -9 19 5 4 10 18 30 30 44 18 18 24 37
24 68 0 39 -2 44 -22 41 -18 -1 -25 5 -33 31 -10 36 -17 39 -35 17 -7 -8 -16
-15 -21 -15 -13 0 -11 37 2 62 11 21 12 21 25 3 13 -18 14 -17 14 6 0 25 16
49 33 49 4 0 5 -4 2 -10 -3 -5 -2 -18 4 -27 8 -15 10 -16 14 -3 8 24 18 70 15
70 -2 0 -19 -10 -39 -23z"/>
<path d="M336 669 c-13 -67 -15 -90 -6 -84 6 3 10 18 10 33 0 21 2 24 10 12 7
-11 8 -5 4 20 -9 45 -12 48 -18 19z"/>
<path d="M2378 641 c-29 -26 -66 -55 -83 -63 -29 -16 -30 -15 -48 14 -10 17
-21 28 -24 25 -3 -3 5 -21 18 -39 12 -18 23 -34 24 -36 5 -7 123 79 154 112
51 53 21 44 -41 -13z"/>
<path d="M1540 666 c0 -8 -3 -23 -6 -33 -5 -15 -4 -15 5 -3 7 10 11 11 11 3 0
-7 4 -13 8 -13 5 0 7 14 4 30 -4 30 -22 43 -22 16z"/>
<path d="M1570 669 c0 -6 11 -24 25 -41 29 -34 31 -46 10 -54 -19 -8 -19 -25
0 -50 15 -18 16 -17 9 16 -6 31 -5 33 10 21 13 -11 17 -11 22 3 4 10 -8 35
-32 66 -41 53 -44 56 -44 39z"/>
<path d="M1734 659 c-4 -7 -2 -15 4 -17 7 -2 12 -15 12 -28 0 -16 -4 -23 -11
-18 -12 7 -4 -30 13 -56 6 -10 8 -5 4 18 -3 18 -1 32 4 32 14 0 12 23 -4 55
-10 19 -16 23 -22 14z"/>
<path d="M2740 661 c0 -9 23 -21 41 -21 4 0 6 7 3 15 -7 16 -44 21 -44 6z"/>
<path d="M1035 613 c-83 -60 -155 -124 -176 -157 -19 -29 -18 -28 13 5 29 31
71 67 195 166 45 36 23 26 -32 -14z"/>
<path d="M36 628 c-2 -7 -11 -35 -19 -62 -18 -58 -23 -516 -6 -516 5 0 14 -11
19 -25 10 -27 35 -33 43 -11 3 8 -2 16 -13 19 -25 6 -38 79 -43 240 -1 49 1
91 6 94 4 3 3 10 -2 17 -7 9 -7 23 1 47 20 63 22 76 7 72 -12 -4 -11 0 6 33
11 22 12 30 2 36 -9 6 -9 8 1 8 7 0 12 8 10 18 -1 9 1 23 5 30 5 7 4 12 -3 12
-6 0 -12 -6 -14 -12z"/>
<path d="M1698 605 c-3 -22 -2 -44 2 -48 12 -14 16 5 10 48 l-6 40 -6 -40z"/>
<path d="M1420 615 c-16 -19 -5 -34 12 -17 18 18 25 15 32 -13 4 -14 11 -23
16 -20 14 9 12 19 -9 43 -22 26 -34 27 -51 7z"/>
<path d="M1795 566 c-10 -30 -21 -53 -25 -51 -13 8 -30 -13 -36 -45 -5 -24 -3
-32 4 -25 6 6 12 20 14 33 5 36 23 31 26 -8 2 -19 8 -37 13 -40 5 -3 12 -20
15 -38 5 -25 3 -32 -10 -32 -9 0 -16 -4 -16 -10 0 -12 2 -12 35 0 20 8 24 14
17 23 -8 9 -6 19 7 36 16 21 16 28 4 63 -7 21 -14 64 -16 94 -1 29 -5 54 -8
54 -3 0 -14 -24 -24 -54z m38 -125 c4 -43 -20 -33 -32 14 -10 41 -7 85 8 110
5 9 16 -50 24 -124z"/>
<path d="M456 559 c-9 -29 -14 -54 -12 -56 2 -3 11 19 20 48 8 29 13 55 11 57
-2 2 -11 -20 -19 -49z"/>
<path d="M1536 577 c-3 -14 -3 -33 1 -43 4 -11 3 -15 -4 -11 -6 4 -13 0 -17
-8 -7 -19 8 -19 24 0 7 8 9 22 6 32 -4 9 -1 20 6 24 9 6 10 11 2 19 -9 9 -13
5 -18 -13z"/>
<path d="M1931 588 c0 -9 3 -20 9 -23 5 -3 7 -20 5 -38 l-5 -32 14 35 c19 46
19 53 2 47 -9 -4 -17 1 -19 11 -4 16 -5 16 -6 0z"/>
<path d="M1194 555 c1 -40 3 -41 28 -18 16 14 18 15 18 0 0 -19 -5 -23 -47
-31 -28 -6 -33 -4 -46 20 -10 18 -16 23 -22 15 -10 -17 4 -83 16 -76 5 4 7 10
4 15 -3 5 -1 11 5 15 5 3 10 2 10 -4 0 -6 7 -8 15 -5 23 9 37 -5 25 -27 -13
-22 -30 -25 -30 -4 0 10 -8 6 -25 -11 -14 -14 -22 -31 -18 -40 7 -19 28 -12
27 10 -2 23 13 20 27 -6 6 -13 13 -25 15 -27 7 -7 44 32 44 46 0 20 -21 15
-27 -7 -3 -11 -9 -20 -14 -20 -14 0 -10 30 6 46 8 9 15 25 15 37 0 20 0 20 16
1 8 -10 13 -14 9 -7 -3 7 1 23 9 35 8 13 12 28 8 33 -7 10 -58 45 -65 45 -2 0
-3 -16 -3 -35z"/>
<path d="M1387 584 c-8 -8 14 -54 24 -49 8 6 0 43 -11 50 -4 2 -10 2 -13 -1z"/>
<path d="M2760 575 c32 -19 47 -19 54 0 4 12 -3 15 -37 15 -41 -1 -42 -1 -17
-15z"/>
<path d="M1167 573 c-11 -10 -8 -53 3 -53 6 0 10 14 10 30 0 31 -2 35 -13 23z"/>
<path d="M2350 568 c0 -8 -7 -21 -15 -28 -8 -7 -15 -19 -15 -27 0 -8 11 -1 26
17 20 23 24 34 15 43 -8 8 -11 7 -11 -5z"/>
<path d="M1915 518 c4 -59 25 -120 24 -68 -1 14 -7 48 -14 75 l-13 50 3 -57z"/>
<path d="M1486 552 c-3 -6 -3 -17 0 -26 3 -9 1 -16 -5 -16 -6 0 -11 8 -11 17
0 13 -3 14 -11 6 -8 -8 -8 -15 0 -25 7 -7 18 -22 25 -32 12 -17 14 -15 20 24
6 41 -5 73 -18 52z"/>
<path d="M1886 537 c-3 -13 -8 -49 -12 -80 -4 -31 -11 -57 -15 -57 -12 0 -11
-37 1 -45 10 -6 14 7 11 33 -1 6 3 12 8 12 19 0 22 -21 7 -45 -19 -29 -20 -35
-3 -35 18 0 39 59 27 79 -5 9 -10 12 -10 6 0 -5 -5 -3 -10 5 -11 18 -13 63 -2
57 4 -3 8 17 9 44 2 53 -2 62 -11 26z"/>
<path d="M1981 498 c1 -72 5 -68 12 10 2 28 0 52 -4 52 -5 0 -9 -28 -8 -62z"/>
<path d="M2010 496 c0 -59 13 -106 30 -106 12 0 2 52 -13 61 -6 4 -7 26 -3 53
5 30 4 46 -3 46 -7 0 -11 -23 -11 -54z"/>
<path d="M464 484 c-28 -71 -28 -75 1 -21 14 27 25 53 23 59 -2 6 -13 -11 -24
-38z"/>
<path d="M1636 514 c-7 -18 0 -34 15 -34 5 0 9 11 9 25 0 28 -15 34 -24 9z"/>
<path d="M2041 495 c0 -16 6 -43 14 -59 8 -15 15 -35 15 -42 0 -8 5 -14 10
-14 12 0 2 52 -11 60 -5 3 -13 24 -18 45 -8 37 -9 37 -10 10z"/>
<path d="M2254 490 c-38 -42 -61 -83 -56 -98 2 -7 17 8 34 35 17 26 39 58 51
71 11 12 15 22 9 22 -7 0 -24 -13 -38 -30z"/>
<path d="M2338 493 c-16 -18 -33 -63 -25 -63 3 0 14 18 26 40 23 44 22 49 -1
23z"/>
<path d="M1093 459 c-2 -35 -1 -39 12 -29 18 15 19 31 3 53 -11 15 -13 11 -15
-24z"/>
<path d="M1294 486 c-7 -20 2 -46 16 -46 13 0 13 47 0 55 -6 3 -13 -1 -16 -9z"/>
<path d="M1370 474 c-9 -10 -10 -18 -2 -26 12 -12 32 -2 32 17 0 21 -16 26
-30 9z"/>
<path d="M1447 441 c-21 -35 -21 -45 -3 -38 8 3 17 1 19 -6 2 -7 2 0 0 16 -5
32 16 38 24 7 4 -15 11 -19 24 -15 12 4 19 1 19 -7 0 -9 2 -10 8 -1 4 6 20 15
35 18 27 7 32 25 9 33 -7 2 -12 -4 -12 -13 0 -9 -5 -13 -10 -10 -6 4 -7 12 -3
18 3 7 -4 3 -16 -8 l-23 -20 -23 28 c-13 15 -26 27 -27 27 -2 0 -11 -13 -21
-29z"/>
<path d="M2262 431 c-12 -21 -19 -41 -15 -44 3 -4 15 12 25 35 10 22 17 43 15
44 -2 2 -13 -14 -25 -35z"/>
<path d="M1053 445 c9 -21 -10 -48 -27 -38 -7 4 -7 1 1 -7 10 -11 15 -11 28 0
18 15 20 46 3 56 -8 5 -9 2 -5 -11z"/>
<path d="M1337 429 c-4 -13 -10 -19 -19 -14 -7 3 -6 1 3 -7 9 -7 14 -20 12
-28 -2 -8 3 -4 11 10 17 28 21 60 7 60 -5 0 -11 -9 -14 -21z"/>
<path d="M1247 398 c-22 -31 -26 -43 -16 -52 9 -8 10 -7 6 7 -5 13 -2 17 11
15 13 -2 16 3 14 21 -1 14 1 22 4 18 8 -8 34 11 34 24 0 22 -27 5 -53 -33z"/>
<path d="M990 405 c-1 -29 -1 -29 -15 -11 -12 16 -15 17 -15 4 0 -8 7 -21 15
-28 12 -10 15 -7 21 14 3 14 4 31 1 38 -3 7 -6 0 -7 -17z"/>
<path d="M1732 421 c-8 -4 -13 -11 -13 -15 4 -25 -1 -46 -9 -46 -5 0 -10 7
-10 16 0 8 -5 12 -11 8 -7 -4 -6 -11 5 -22 13 -13 17 -13 32 -1 16 12 17 12
11 -4 -7 -19 18 -55 31 -43 3 4 1 10 -5 14 -7 4 -12 16 -11 27 0 11 -3 28 -7
38 -5 12 -3 17 9 17 9 0 16 5 16 10 0 12 -20 13 -38 1z"/>
<path d="M671 367 c-6 -27 -27 -82 -47 -124 -19 -42 -33 -81 -31 -86 3 -11 66
129 87 196 6 20 10 43 8 49 -3 7 -10 -9 -17 -35z"/>
<path d="M1604 390 c4 -14 10 -37 13 -52 3 -16 9 -28 14 -28 13 0 -3 73 -20
90 -13 13 -14 12 -7 -10z"/>
<path d="M386 378 c-8 -32 -7 -101 2 -115 5 -8 21 14 45 62 46 93 40 99 -8 8
-31 -59 -39 -57 -19 4 5 15 4 16 -6 3 -9 -12 -10 -7 -5 23 6 41 1 50 -9 15z"/>
<path d="M1100 381 c0 -10 -8 -29 -19 -42 -15 -19 -16 -25 -5 -36 17 -18 29
-17 15 1 -9 11 -9 19 1 35 7 12 16 21 20 21 5 0 8 9 8 20 0 11 -4 20 -10 20
-5 0 -10 -9 -10 -19z"/>
<path d="M1286 384 c-7 -19 13 -49 25 -37 10 10 0 53 -11 53 -4 0 -11 -7 -14
-16z"/>
<path d="M495 333 c-16 -31 -39 -68 -51 -82 -27 -33 -57 -91 -50 -98 2 -3 16
18 30 45 14 28 30 53 36 57 12 7 73 125 68 130 -2 2 -17 -21 -33 -52z"/>
<path d="M788 337 c28 -30 52 -63 52 -72 0 -9 5 -13 11 -9 8 4 9 -4 4 -27 -7
-34 -7 -34 13 -16 20 18 21 18 36 -10 10 -18 15 -22 16 -11 0 26 -98 140 -155
181 -20 14 -13 2 23 -36z"/>
<path d="M1407 384 c-8 -9 11 -44 24 -44 6 0 9 10 7 22 -3 22 -19 34 -31 22z"/>
<path d="M1500 384 c-12 -4 -15 -17 -13 -56 4 -59 4 -61 27 -52 15 6 15 7 0
19 -16 11 -16 12 0 18 9 4 16 1 16 -6 1 -19 30 25 30 45 0 24 -17 23 -25 -2
-6 -20 -35 -28 -35 -10 0 6 7 10 16 10 13 0 14 3 5 13 -6 8 -8 17 -4 20 3 4 4
6 2 6 -2 -1 -11 -3 -19 -5z"/>
<path d="M2507 338 c-3 -24 -11 -44 -16 -46 -6 -2 -11 -19 -11 -38 0 -19 -5
-34 -11 -34 -6 0 -10 -12 -9 -27 3 -42 1 -55 -8 -49 -5 3 -9 -30 -9 -72 0 -62
2 -71 9 -47 5 17 11 41 13 55 2 14 13 68 25 120 24 106 35 180 28 180 -3 0 -8
-19 -11 -42z"/>
<path d="M448 313 c-38 -66 -45 -83 -30 -68 13 14 75 125 69 125 -3 0 -20 -26
-39 -57z"/>
<path d="M2154 321 c-73 -82 -226 -321 -206 -321 8 0 20 18 104 162 28 49 74
113 101 143 27 31 48 57 46 59 -2 2 -22 -17 -45 -43z"/>
<path d="M2819 355 c18 -9 36 -14 39 -11 9 10 -2 15 -39 21 l-34 5 34 -15z"/>
<path d="M483 225 c-34 -74 -57 -138 -52 -141 5 -3 9 1 9 8 0 7 25 69 55 137
30 69 53 126 51 128 -2 2 -30 -58 -63 -132z"/>
<path d="M1189 359 c-8 -23 -4 -49 8 -49 8 0 12 4 9 9 -4 5 -1 11 5 13 7 2 5
9 -5 17 -9 7 -17 12 -17 10z"/>
<path d="M1224 310 c-23 -21 -40 -41 -37 -44 2 -2 20 12 38 31 29 31 36 34 50
23 16 -14 18 -10 9 14 -9 22 -14 20 -60 -24z"/>
<path d="M1379 343 c-1 -5 -1 -12 0 -17 1 -4 -6 -14 -16 -22 -10 -7 -13 -14
-7 -14 15 0 56 45 47 53 -9 9 -23 9 -24 0z"/>
<path d="M1583 318 c-13 -29 -6 -48 15 -48 13 0 14 2 4 9 -9 5 -11 17 -6 34 8
33 1 35 -13 5z"/>
<path d="M1407 299 c-21 -29 -23 -51 -3 -23 14 18 15 18 25 -6 8 -21 10 -22
10 -5 0 11 -4 29 -8 39 -7 18 -8 18 -24 -5z"/>
<path d="M750 280 c-7 -18 -24 -46 -38 -61 -13 -16 -20 -29 -15 -29 12 0 75
99 71 112 -2 6 -10 -3 -18 -22z"/>
<path d="M1500 250 c-11 -7 -12 -11 0 -25 16 -20 36 -4 23 19 -5 10 -13 12
-23 6z"/>
<path d="M2814 245 c11 -8 33 -15 50 -15 41 0 21 16 -29 23 -37 6 -38 5 -21
-8z"/>
<path d="M2147 198 c-40 -37 -65 -73 -87 -120 -33 -74 -34 -78 -22 -78 5 0 37
47 71 105 34 58 65 105 69 105 4 0 13 9 20 20 19 30 10 25 -51 -32z"/>
<path d="M2807 210 c10 -11 90 -25 81 -15 -4 4 -26 11 -48 15 -23 4 -38 4 -33
0z"/>
<path d="M115 185 c-27 -14 -39 -22 -25 -19 14 4 29 10 35 15 5 5 17 9 27 9
10 0 18 5 18 10 0 13 3 14 -55 -15z"/>
<path d="M970 153 c23 -32 56 -79 73 -105 18 -26 35 -48 40 -48 4 0 -18 37
-50 83 -82 119 -87 126 -96 127 -5 0 10 -26 33 -57z"/>
<path d="M1492 190 c1 -13 9 -25 16 -28 17 -5 15 23 -4 39 -14 11 -15 10 -12
-11z"/>
<path d="M2266 193 c-35 -6 -63 -38 -111 -126 -31 -56 -34 -68 -20 -65 10 1
19 10 20 19 2 9 10 29 20 45 9 16 13 20 9 9 -14 -42 -15 -63 -3 -70 7 -5 10
-4 5 3 -3 6 1 17 9 26 8 8 15 19 14 23 -1 4 -1 15 0 23 1 13 2 13 11 0 8 -12
10 -11 10 8 0 23 25 71 45 84 5 4 18 -3 28 -15 16 -18 18 -19 13 -3 -4 10 -1
25 5 32 12 15 6 16 -55 7z"/>
<path d="M2340 175 c0 -8 4 -15 8 -15 5 0 16 -34 26 -75 10 -41 22 -77 27 -80
5 -4 5 4 0 18 -6 14 -13 53 -17 86 -5 45 -12 64 -25 72 -15 7 -19 6 -19 -6z"/>
<path d="M401 130 c-17 -28 -31 -55 -31 -60 0 -17 20 -11 26 7 3 10 14 37 25
61 10 23 17 42 15 42 -2 0 -18 -23 -35 -50z"/>
<path d="M2814 165 c22 -17 54 -19 74 -6 14 9 -29 21 -72 21 -21 -1 -21 -1 -2
-15z"/>
<path d="M591 84 c-34 -81 -38 -107 -6 -48 10 20 24 33 31 30 7 -3 16 5 20 17
11 34 37 66 55 67 16 0 59 -43 59 -60 0 -6 5 -10 10 -10 6 0 10 -7 10 -16 0
-8 5 -12 10 -9 6 4 13 -7 16 -22 4 -21 12 -29 29 -31 l23 -2 -21 26 c-12 15
-39 45 -59 69 -21 23 -38 47 -38 54 0 7 -20 11 -53 11 l-53 0 -33 -76z"/>
<path d="M790 145 c0 -3 11 -18 24 -33 13 -15 34 -38 45 -52 l21 -25 -15 30
c-8 17 -15 36 -15 43 0 7 -4 10 -10 7 -5 -3 -15 3 -22 15 -12 18 -28 27 -28
15z"/>
<path d="M1477 143 c-12 -11 -7 -40 8 -53 20 -17 24 -12 18 28 -5 31 -13 39
-26 25z"/>
<path d="M2754 116 c-13 -21 -18 -39 -13 -52 7 -21 7 -22 28 45 14 44 11 46
-15 7z"/>
<path d="M2814 125 c11 -8 36 -15 55 -15 44 1 24 14 -34 24 -37 6 -39 5 -21
-9z"/>
<path d="M2788 88 c6 -6 37 -13 69 -14 l58 -3 -50 13 c-66 18 -93 20 -77 4z"/>
<path d="M445 71 c-3 -6 -10 -9 -15 -6 -4 3 -10 -5 -14 -18 -15 -55 2 -59 30
-5 14 28 14 52 -1 29z"/>
<path d="M1508 57 c-18 -27 -29 -57 -22 -57 13 0 30 26 27 40 -3 9 4 5 16 -8
11 -13 22 -18 26 -12 3 5 1 10 -4 10 -6 0 -11 9 -11 19 0 30 -16 34 -32 8z"/>
<path d="M730 50 c0 -5 4 -10 9 -10 5 0 13 -9 16 -20 3 -11 10 -20 15 -20 11
0 1 30 -16 48 -15 15 -24 16 -24 2z"/>
<path d="M2780 45 l-24 -14 28 -10 c36 -14 87 -15 66 -1 -12 8 -13 12 -2 19
11 6 10 10 -3 15 -23 8 -36 6 -65 -9z"/>
</g>
</svg>
