<?xml version="1.0" standalone="no"?>
<!DOCTYPE svg PUBLIC "-//W3C//DTD SVG 20010904//EN"
 "http://www.w3.org/TR/2001/REC-SVG-20010904/DTD/svg10.dtd">
<svg version="1.0" xmlns="http://www.w3.org/2000/svg"
 width="300.000000pt" height="300.000000pt" viewBox="0 0 300.000000 300.000000"
 preserveAspectRatio="xMidYMid meet">
<metadata>
Created by potrace 1.10, written by Peter Selinger 2001-2011
</metadata>
<g transform="translate(0.000000,300.000000) scale(0.100000,-0.100000)"
fill="#000000" stroke="none">
<path d="M941 2953 c-8 -27 -14 -57 -15 -69 -1 -11 -6 -27 -12 -35 -6 -8 -14
-22 -17 -32 -4 -9 -14 -20 -22 -24 -9 -3 -53 -42 -98 -87 -45 -45 -100 -91
-122 -102 -39 -20 -104 -56 -215 -116 -30 -17 -60 -34 -66 -39 -6 -5 -28 -4
-49 2 -21 6 -51 8 -67 5 -25 -5 -108 -65 -186 -135 -12 -12 -34 -21 -47 -21
-21 0 -25 -5 -25 -30 l0 -31 30 16 c17 9 30 20 30 25 0 5 18 19 39 30 22 11
57 36 78 55 21 19 55 47 75 61 l37 26 44 -21 44 -21 62 35 c33 19 87 50 119
68 31 18 64 36 72 39 33 12 148 99 164 123 10 15 26 25 41 25 13 0 27 5 31 12
5 8 2 9 -9 5 -11 -4 -17 -1 -17 8 0 9 20 25 44 37 48 23 66 59 66 134 1 22 7
50 15 64 18 31 18 40 2 40 -7 0 -19 -21 -26 -47z"/>
<path d="M1030 2974 c0 -23 -2 -26 -11 -14 -9 12 -10 12 -5 -3 3 -10 6 -21 6
-23 0 -3 5 -2 10 1 9 6 14 -8 11 -28 -4 -24 99 -141 144 -163 26 -13 23 -9
-17 31 -27 25 -48 52 -48 60 0 7 -7 21 -16 29 -8 9 -13 19 -10 24 2 4 0 14 -6
22 -8 12 -9 11 -4 -3 4 -13 1 -18 -11 -15 -16 3 -24 22 -27 70 -2 37 -16 48
-16 12z"/>
<path d="M1215 2992 c-10 -11 -3 -58 15 -97 10 -22 19 -38 20 -35 7 21 5 50
-3 50 -5 0 -7 13 -4 29 4 19 2 31 -6 34 -14 5 -11 5 203 9 91 2 194 -1 229 -6
l63 -9 -4 -53 c-5 -56 -3 -60 22 -44 12 8 12 10 1 10 -11 0 -11 3 2 18 15 16
22 47 19 85 -2 17 -18 18 -277 16 -151 -1 -277 -4 -280 -7z"/>
<path d="M1990 2995 c0 -4 7 -20 16 -36 8 -17 14 -43 13 -57 -2 -15 2 -37 9
-49 7 -12 12 -31 12 -43 0 -16 13 -27 55 -45 30 -14 55 -27 55 -30 0 -3 -10
-10 -22 -15 -21 -8 -21 -9 8 -9 21 -1 39 -11 60 -34 16 -18 61 -54 99 -78 104
-67 320 -189 335 -189 8 0 28 5 45 11 18 7 43 9 56 6 36 -10 151 -97 213 -163
l56 -59 0 32 c0 17 -4 33 -8 35 -11 4 -106 84 -143 121 -15 15 -30 27 -34 27
-4 0 -20 9 -36 21 -30 21 -49 22 -121 4 -23 -6 -51 6 -160 70 -186 109 -233
141 -310 214 -37 35 -76 70 -88 78 -23 16 -50 64 -50 90 0 31 -32 103 -46 103
-8 0 -14 -2 -14 -5z"/>
<path d="M1907 2929 c4 -13 -1 -16 -26 -13 -16 2 -33 -1 -36 -6 -3 -5 6 -8 19
-7 14 1 24 -2 23 -8 -1 -5 -5 -9 -9 -7 -5 1 -8 -4 -8 -12 0 -11 5 -12 24 -3
14 7 22 17 18 26 -3 9 -1 12 6 7 6 -3 13 -2 17 4 3 5 1 10 -4 10 -6 0 -11 4
-11 10 0 5 7 7 15 4 8 -4 15 -1 15 5 0 6 -11 10 -24 9 -16 -2 -22 -7 -19 -19z"/>
<path d="M1355 2916 c39 -17 135 -28 135 -16 0 6 -10 10 -22 11 -28 1 -50 3
-103 12 l-40 6 30 -13z"/>
<path d="M1671 2921 c-7 -5 -32 -9 -55 -10 -22 -1 -59 -6 -81 -10 -32 -7 -35
-9 -12 -10 34 -1 36 -26 2 -26 -14 0 -25 4 -25 9 0 5 -2 7 -5 4 -10 -9 7 -38
19 -32 6 3 2 -2 -8 -10 -11 -9 -17 -19 -13 -23 4 -3 15 1 25 10 10 10 22 14
25 10 4 -3 7 -1 7 5 0 6 9 9 19 7 16 -3 19 1 15 23 -3 21 -2 23 6 12 5 -8 10
-23 10 -33 0 -10 5 -15 10 -12 7 4 7 12 0 25 -13 24 -13 40 0 20 8 -13 11 -13
19 -1 5 8 18 12 30 8 12 -3 19 -1 16 3 -3 5 0 10 6 12 7 2 10 9 8 16 -2 7 -9
8 -18 3z"/>
<path d="M984 2906 c-18 -46 95 -182 214 -259 66 -43 156 -76 170 -62 3 3 -1
5 -9 5 -25 0 -133 56 -184 96 -27 22 -76 65 -108 98 -45 44 -56 60 -46 67 8 5
9 9 4 9 -6 0 -11 12 -10 27 0 29 -22 43 -31 19z"/>
<path d="M40 2886 c0 -2 7 -16 15 -32 10 -20 11 -32 3 -41 -8 -10 -5 -13 14
-13 13 0 34 -7 46 -16 12 -8 35 -14 50 -12 25 3 23 6 -31 37 -32 18 -63 44
-69 57 -9 20 -28 33 -28 20z"/>
<path d="M1898 2864 c-4 -3 -14 -7 -25 -8 -11 -2 -18 -11 -18 -24 0 -11 -4
-24 -9 -29 -5 -4 -7 -1 -4 8 4 9 2 22 -3 30 -6 9 -8 3 -5 -19 2 -24 -1 -35
-14 -42 -13 -7 -20 -6 -24 3 -3 7 -5 6 -3 -4 1 -8 -10 -29 -24 -46 -21 -25
-29 -29 -39 -20 -9 9 -11 9 -6 0 5 -10 -9 -22 -100 -80 -16 -10 -16 -12 -3
-12 9 -1 36 14 60 32 24 18 57 39 73 47 28 14 98 86 137 142 18 25 22 37 7 22z"/>
<path d="M1893 2790 c-35 -32 -98 -85 -140 -116 -98 -72 -111 -85 -48 -49 82
46 158 101 191 136 28 31 68 89 62 89 -2 0 -31 -27 -65 -60z"/>
<path d="M1980 2812 c0 -40 -141 -143 -325 -236 -85 -42 -75 -46 20 -7 75 31
103 30 65 -1 -55 -44 -92 -79 -88 -83 9 -9 106 51 156 96 30 27 60 49 67 49
16 0 113 104 128 137 8 19 7 27 -6 41 -11 10 -17 12 -17 4z"/>
<path d="M1180 2800 c0 -5 9 -14 20 -20 11 -6 20 -17 20 -24 0 -8 10 -20 23
-29 12 -8 19 -18 14 -23 -4 -4 -12 -3 -18 3 -6 6 -18 9 -25 6 -15 -6 92 -83
115 -83 7 0 40 -12 72 -26 50 -23 63 -25 96 -16 l38 10 -35 0 c-19 0 -44 2
-55 5 -11 3 -24 6 -29 6 -4 1 -5 9 -1 19 5 13 3 14 -6 5 -9 -9 -15 -8 -26 3
-8 7 -12 17 -9 22 2 4 0 14 -6 22 -8 12 -9 12 -4 -2 9 -30 -8 -28 -57 8 -29
21 -47 42 -47 54 0 11 -4 20 -9 20 -5 0 -19 11 -32 25 -25 26 -39 31 -39 15z"/>
<path d="M1664 2799 c-4 -7 0 -9 14 -5 13 5 22 1 26 -10 8 -21 -2 -33 -13 -15
-7 11 -10 11 -14 0 -5 -12 -8 -11 -17 1 -10 13 -11 13 -7 0 2 -10 17 -15 41
-16 21 0 41 -6 46 -13 5 -9 10 -10 14 -3 3 6 -2 13 -12 16 -11 4 -24 18 -30
31 -12 26 -36 33 -48 14z"/>
<path d="M970 2781 c0 -76 154 -211 325 -286 43 -19 81 -32 84 -29 8 8 -13 21
-54 34 -22 7 -46 17 -53 23 -7 5 -27 17 -44 27 -18 9 -35 27 -38 38 -3 12 -13
31 -22 42 -14 16 -22 18 -44 10 -22 -9 -30 -6 -55 21 -16 17 -29 41 -29 53 0
12 -16 37 -35 56 -33 32 -35 33 -35 11z"/>
<path d="M1543 2755 c1 -25 4 -31 12 -25 7 6 15 7 19 3 4 -4 12 -1 17 7 8 11
9 7 4 -15 -10 -44 -16 -95 -11 -95 14 0 36 14 36 22 0 6 -6 5 -15 -2 -19 -15
-19 -15 1 49 17 59 13 71 -18 52 -18 -11 -20 -11 -15 1 3 8 -3 19 -13 26 -16
10 -18 7 -17 -23z"/>
<path d="M1517 2761 c3 -11 0 -28 -6 -38 -6 -10 -11 -12 -11 -5 0 21 -20 13
-20 -8 0 -11 5 -20 11 -20 8 0 7 -5 -1 -15 -22 -26 -5 -26 25 -1 22 19 26 28
17 38 -6 8 -7 19 -2 27 9 15 3 41 -10 41 -5 0 -6 -9 -3 -19z"/>
<path d="M1340 2742 c0 -5 8 -16 18 -25 17 -16 19 -16 19 0 0 17 -14 33 -29
33 -5 0 -8 -4 -8 -8z"/>
<path d="M1060 2722 c0 -7 8 -27 17 -45 17 -31 18 -31 21 -8 2 14 -4 32 -17
45 -13 12 -21 15 -21 8z"/>
<path d="M930 2705 c0 -4 8 -19 18 -33 35 -50 34 -57 -2 -20 -20 21 -36 32
-36 26 0 -22 201 -198 226 -198 7 0 14 -4 14 -9 0 -21 234 -104 333 -117 29
-4 64 -2 90 6 98 29 242 96 304 140 84 59 208 184 199 199 -8 13 -65 -25 -164
-110 -41 -36 -108 -78 -183 -116 -65 -32 -118 -62 -118 -67 -1 -5 5 -4 12 1 6
6 21 13 32 16 20 7 20 7 0 -9 -37 -30 -85 -46 -100 -34 -10 8 -19 8 -33 -1
-12 -8 -29 -9 -48 -4 -16 5 -32 9 -36 10 -5 2 -12 3 -17 4 -5 0 -17 8 -25 16
-9 9 -61 36 -117 61 -112 50 -139 68 -249 164 -79 70 -100 85 -100 75z"/>
<path d="M60 2685 c32 -18 40 -18 40 0 0 10 -10 15 -32 15 l-33 -1 25 -14z"/>
<path d="M200 2675 c-19 -7 -46 -14 -60 -14 -17 -1 -21 -4 -12 -10 9 -5 11
-17 6 -34 -8 -33 10 -36 26 -6 15 27 77 54 94 40 14 -12 30 -3 39 22 5 14 1
17 -26 16 -18 0 -48 -7 -67 -14z"/>
<path d="M1520 2661 c0 -5 -9 -12 -19 -16 -11 -3 -22 -13 -25 -21 -5 -13 -3
-13 16 0 13 9 26 12 32 7 7 -6 11 -1 11 15 0 13 -3 24 -7 24 -5 0 -8 -4 -8 -9z"/>
<path d="M850 2628 c0 -23 73 -119 131 -173 88 -82 221 -144 382 -180 43 -9
24 10 -25 25 -24 7 -47 17 -52 22 -6 4 -20 8 -31 8 -12 0 -31 9 -42 19 -12 11
-24 17 -27 14 -3 -4 -6 -1 -6 6 0 6 -10 16 -22 21 -18 7 -19 9 -5 9 10 1 29
-6 43 -15 24 -17 41 -14 30 4 -3 5 -27 20 -52 32 -61 28 -145 89 -214 155 -50
47 -110 77 -110 53z"/>
<path d="M2050 2593 c-92 -90 -190 -173 -204 -173 -9 0 -28 -12 -41 -26 -14
-15 -25 -22 -25 -15 0 19 -19 12 -42 -14 -16 -19 -24 -22 -30 -13 -5 9 -8 9
-8 2 0 -7 -17 -15 -37 -19 -21 -4 -32 -10 -25 -12 17 -7 -14 -43 -37 -44 -9 0
-11 -3 -4 -5 16 -7 116 23 139 42 10 9 13 12 5 8 -10 -5 -12 -3 -7 5 5 7 15
10 23 7 25 -10 214 96 209 117 -1 7 -1 9 1 5 8 -13 31 3 64 44 22 28 27 39 15
35 -19 -7 -17 -2 17 46 25 36 19 41 -13 10z"/>
<path d="M816 2583 c4 -16 12 -35 18 -43 7 -8 18 -28 26 -45 8 -16 16 -34 18
-38 7 -15 -32 10 -52 32 -11 12 -16 24 -13 28 9 9 -12 33 -29 33 -22 0 -17
-16 22 -67 79 -105 164 -160 360 -233 168 -63 304 -86 416 -70 149 21 286 67
420 141 83 46 123 81 144 124 7 17 21 41 31 55 l17 25 -24 -21 c-14 -12 -31
-19 -37 -17 -7 3 -13 0 -13 -7 0 -6 5 -8 11 -4 7 4 10 1 7 -7 -3 -8 -10 -14
-16 -14 -5 0 -14 -3 -18 -7 -15 -16 -26 -7 -21 18 4 25 4 25 -32 -9 -76 -73
-163 -122 -298 -167 -94 -32 -128 -47 -119 -55 6 -5 9 -9 7 -8 -2 1 -12 -2
-22 -7 -42 -23 -143 -28 -239 -12 -109 18 -170 45 -87 39 77 -5 63 7 -36 32
-111 29 -166 54 -252 116 -86 61 -143 120 -166 173 -21 48 -33 55 -23 15z
m110 -167 c16 -14 40 -34 54 -45 24 -19 24 -20 3 -14 -13 3 -23 9 -23 14 0 5
-9 9 -20 9 -11 0 -20 4 -20 9 0 5 -9 11 -20 14 -11 3 -20 12 -20 21 0 22 13
20 46 -8z m1164 -21 c-33 -34 -50 -43 -50 -27 0 7 70 61 79 62 3 0 -10 -16
-29 -35z m-80 -39 c0 -7 -113 -66 -118 -62 -6 6 90 66 106 66 6 0 12 -2 12 -4z"/>
<path d="M2133 2547 c-31 -45 -29 -56 3 -18 14 17 24 35 22 41 -1 5 -13 -5
-25 -23z"/>
<path d="M737 2512 c-21 -23 -22 -39 -2 -22 21 17 30 6 10 -13 -23 -24 -18
-29 10 -11 29 19 30 24 12 48 -12 16 -14 16 -30 -2z"/>
<path d="M109 2498 c5 -13 16 -25 26 -26 16 -4 16 -2 -1 22 -23 32 -36 33 -25
4z"/>
<path d="M681 2509 c-1 -8 10 -47 23 -85 25 -70 54 -114 77 -114 7 0 -1 15
-19 33 -31 32 -43 55 -22 42 12 -7 80 32 80 46 0 15 -16 10 -35 -11 -32 -36
-57 -22 -82 45 -12 33 -22 53 -22 44z"/>
<path d="M2324 2494 c-3 -10 -10 -29 -15 -42 -5 -13 -9 -30 -9 -39 0 -29 -71
-112 -138 -163 -37 -27 -106 -70 -154 -95 -48 -25 -90 -50 -93 -55 -9 -15 22
-1 110 49 126 71 228 155 270 224 9 14 24 11 143 -29 150 -50 162 -51 162 -26
0 15 -25 25 -137 56 -75 20 -139 39 -142 42 -3 2 0 24 6 47 11 41 9 67 -3 31z"/>
<path d="M2176 2468 l-26 -33 35 -32 c19 -18 39 -33 45 -33 15 0 70 90 70 114
0 13 -10 -1 -25 -32 -13 -29 -31 -55 -39 -58 -15 -6 -65 24 -66 38 0 10 33 -3
42 -16 5 -8 11 -7 20 2 10 10 8 15 -11 28 -15 11 -21 23 -18 35 7 26 2 24 -27
-13z"/>
<path d="M652 2455 l3 -40 -120 -35 c-170 -50 -157 -42 -140 -90 8 -22 10 -38
5 -35 -13 8 -13 6 4 -57 15 -54 93 -200 122 -227 15 -15 16 -14 10 2 -4 14 0
20 14 24 11 3 20 10 20 15 0 6 -11 3 -25 -6 -24 -16 -25 -15 -51 32 -15 26
-32 56 -39 67 -25 42 -38 97 -25 105 8 5 9 13 2 26 -5 11 -12 31 -15 45 -6 23
-3 27 16 27 12 0 54 11 93 25 87 30 160 44 150 28 -4 -6 0 -14 8 -17 9 -3 16
-10 16 -16 0 -5 -5 -6 -10 -3 -6 4 -1 -18 11 -47 31 -78 41 -84 14 -8 -8 24
-13 45 -11 47 8 8 57 -61 52 -74 -3 -8 -1 -11 4 -8 6 3 10 1 10 -4 0 -6 -4
-11 -10 -11 -13 0 -4 -58 13 -74 17 -17 40 -6 27 13 -4 8 -6 20 -3 28 3 7 0
20 -7 28 -6 8 -9 19 -6 24 4 5 -18 37 -48 71 -44 49 -55 69 -61 108 -8 63 -27
93 -23 37z"/>
<path d="M763 2451 c-13 -11 -23 -22 -23 -25 0 -13 34 -5 46 12 27 35 13 43
-23 13z"/>
<path d="M281 2391 c-13 -23 -14 -71 -2 -89 6 -10 19 -2 50 29 23 23 40 43 39
43 -2 1 -16 8 -33 16 -16 8 -33 16 -37 18 -4 2 -11 -6 -17 -17z"/>
<path d="M2122 2373 c-18 -20 -32 -41 -32 -47 0 -6 -5 -4 -10 4 -5 8 -10 10
-10 4 0 -24 15 -23 36 1 13 15 25 22 29 16 7 -12 -50 -72 -59 -63 -3 3 -6 -3
-6 -13 0 -16 -2 -15 -20 5 -24 28 -25 34 -5 26 8 -3 15 -1 15 4 0 14 -17 12
-50 -5 -30 -15 -40 -27 -19 -22 6 1 18 -9 27 -23 l16 -25 -24 20 c-14 11 -19
13 -12 5 20 -24 14 -31 -13 -14 -14 9 -22 20 -19 25 3 5 0 9 -5 9 -6 0 -11 -5
-11 -11 0 -5 -5 -7 -12 -3 -7 5 -8 3 -3 -6 6 -10 4 -12 -9 -7 -10 4 -24 -1
-35 -12 -11 -11 -22 -17 -25 -13 -13 12 -5 -9 14 -40 14 -23 20 -27 20 -15 0
10 4 16 9 13 5 -3 12 1 15 10 5 13 9 14 20 5 9 -7 17 -8 20 -3 5 9 -23 40 -31
35 -1 -2 -6 -3 -10 -3 -5 0 -1 5 7 10 10 6 22 3 39 -13 13 -12 21 -17 18 -11
-4 7 5 11 25 12 39 1 31 -6 -66 -57 -83 -43 -96 -47 -96 -31 0 6 7 10 15 10
21 0 19 17 -5 47 -24 31 -27 22 -4 -12 9 -14 12 -25 8 -25 -5 0 -18 13 -29 29
-11 17 -21 28 -23 26 -2 -2 3 -14 12 -27 9 -12 16 -29 16 -38 0 -8 -10 1 -21
20 -26 43 -28 45 -34 38 -3 -3 4 -15 15 -28 11 -13 20 -29 20 -37 0 -7 8 -13
18 -14 12 0 10 -3 -7 -10 -13 -5 -29 -8 -35 -5 -6 2 -3 5 7 5 20 1 14 17 -24
61 l-21 25 21 -36 21 -37 -24 -4 c-18 -4 -27 2 -41 29 -18 34 -29 40 -40 24
-7 -12 15 -61 27 -61 5 0 2 10 -6 22 -9 12 -16 26 -16 31 0 15 20 -4 35 -34
15 -28 15 -29 -9 -29 -16 0 -27 7 -31 20 -3 11 -11 20 -16 20 -5 0 -4 -9 3
-20 16 -25 13 -26 -47 -35 -50 -6 -51 -6 -68 27 -15 28 -15 18 0 -19 2 -6 -6
-13 -19 -16 -13 -2 0 -5 27 -5 28 -1 85 5 128 13 44 7 85 11 93 8 22 -8 83 17
204 84 106 59 220 151 220 177 0 6 -26 -15 -57 -45 -59 -57 -101 -89 -116 -89
-4 0 -6 4 -3 9 3 4 -3 16 -14 26 -11 10 -20 23 -20 28 0 6 13 -1 28 -16 l28
-27 48 47 c42 40 46 47 31 55 -15 9 -15 11 1 29 9 11 15 21 13 24 -3 2 -19
-12 -37 -32z m-199 -165 c-2 -5 -11 -4 -19 3 -12 10 -13 8 -8 -7 5 -14 4 -16
-5 -8 -6 6 -9 18 -5 27 5 13 9 14 24 5 10 -7 16 -16 13 -20z"/>
<path d="M2671 2382 c-18 -12 -25 -14 -29 -4 -2 6 -8 12 -13 12 -18 0 -8 -26
25 -63 l34 -38 21 27 c26 34 29 84 4 83 -10 0 -29 -8 -42 -17z"/>
<path d="M610 2336 c0 -3 9 -29 20 -57 12 -29 26 -74 31 -100 6 -27 14 -49 19
-49 16 0 -41 194 -61 206 -5 3 -9 3 -9 0z"/>
<path d="M2304 2324 c-6 -19 -12 -36 -33 -87 -6 -15 -11 -40 -10 -55 0 -24 1
-25 8 -7 18 44 50 159 46 163 -3 3 -7 -4 -11 -14z"/>
<path d="M597 2274 c8 -27 19 -62 23 -79 5 -19 8 -23 9 -10 0 30 -23 113 -36
126 -7 7 -6 -7 4 -37z"/>
<path d="M890 2305 c-17 -20 -3 -40 17 -23 14 11 73 19 73 10 0 -2 -5 -13 -11
-25 -9 -19 -7 -18 10 3 22 27 11 44 -23 34 -12 -4 -16 -2 -12 5 11 17 -5 13
-27 -6 -19 -17 -20 -17 -14 0 8 21 3 22 -13 2z"/>
<path d="M2321 2265 c-22 -57 -27 -105 -13 -105 5 0 9 15 10 33 1 18 8 52 17
76 23 65 10 62 -14 -4z"/>
<path d="M2364 2278 c-24 -52 -28 -240 -6 -273 14 -20 14 -20 7 0 -4 11 -9 56
-12 100 -4 63 0 94 16 145 24 75 22 87 -5 28z"/>
<path d="M240 2301 c0 -10 27 -32 65 -55 l30 -17 -25 21 c-14 11 -35 29 -47
39 -13 11 -23 16 -23 12z"/>
<path d="M510 2303 c0 -6 12 -42 26 -79 14 -38 30 -89 34 -114 7 -42 8 -42 9
-11 1 44 -36 181 -55 201 -8 8 -14 10 -14 3z"/>
<path d="M556 2288 c13 -45 32 -83 33 -67 1 19 -26 89 -35 89 -3 0 -2 -10 2
-22z"/>
<path d="M2390 2239 c-19 -59 -22 -83 -16 -146 3 -41 11 -82 17 -91 8 -14 9
-12 5 8 -19 81 -18 149 3 220 29 94 22 101 -9 9z"/>
<path d="M2722 2293 c-6 -10 -29 -29 -51 -43 -22 -13 -43 -31 -46 -38 -3 -8 6
-4 21 7 30 24 54 27 55 9 0 -7 9 7 20 31 19 44 20 70 1 34z"/>
<path d="M830 2281 c-11 -22 0 -34 23 -25 8 3 43 -11 78 -30 88 -48 170 -79
163 -62 -5 13 23 44 35 38 3 -1 7 7 7 19 1 17 -4 14 -28 -16 -17 -20 -33 -34
-36 -30 -3 3 5 16 18 30 13 14 19 25 14 25 -5 0 -2 5 6 10 10 7 11 10 2 10 -7
0 -16 -10 -21 -23 -9 -22 -41 -56 -41 -43 0 4 7 18 16 31 10 15 12 25 5 25 -6
0 -11 -6 -11 -14 0 -7 -7 -19 -15 -26 -18 -15 -20 0 -2 20 10 12 9 12 -5 1
-10 -7 -18 -10 -18 -5 0 4 -5 3 -11 -3 -13 -13 -42 -6 -33 8 3 5 -2 6 -10 3
-9 -3 -16 -1 -16 6 0 6 -4 8 -10 5 -5 -3 -10 -2 -10 3 0 6 -10 12 -23 16 -12
3 -32 14 -44 26 -22 20 -22 20 -33 1z"/>
<path d="M2466 2243 c-9 -25 -14 -49 -11 -51 5 -5 21 33 31 73 11 43 -3 27
-20 -22z"/>
<path d="M2582 2263 c-6 -15 -18 -51 -27 -79 -8 -28 -34 -79 -55 -112 -43 -66
-67 -118 -50 -107 6 3 10 12 10 18 0 7 18 39 41 72 33 48 40 54 34 31 -3 -17
-14 -41 -24 -55 -29 -41 -63 -112 -57 -119 7 -7 8 -6 27 36 l15 34 18 -21 c19
-21 19 -21 -4 -21 -15 0 -20 -4 -17 -14 3 -8 2 -17 -4 -20 -5 -2 -4 -3 3 -1 7
1 12 7 11 13 -2 7 4 9 14 5 14 -6 13 -8 -5 -24 -27 -21 -28 -31 -4 -22 15 6
15 5 3 -10 -14 -17 -8 -52 7 -43 5 3 7 -6 4 -19 -2 -15 0 -25 7 -25 7 0 10 -4
7 -9 -9 -14 10 -58 61 -138 34 -53 50 -70 57 -62 8 8 7 13 -2 16 -6 3 -10 9
-6 14 3 5 0 9 -7 9 -8 0 -7 5 2 17 10 12 10 15 1 9 -7 -4 -19 -1 -27 8 -14 13
-13 16 2 26 16 10 16 10 -3 5 -18 -5 -26 2 -44 40 -22 45 -22 46 -4 68 17 19
17 20 1 8 -24 -19 -35 -5 -11 15 10 8 13 12 5 8 -19 -9 -33 17 -18 35 10 12 9
13 -13 1 l-25 -13 24 27 c27 29 46 35 37 11 -3 -8 -1 -15 5 -15 6 0 8 -4 4 -9
-3 -6 3 -14 12 -20 10 -5 15 -13 11 -16 -4 -4 2 -16 12 -28 11 -11 17 -24 14
-29 -3 -4 -1 -8 4 -8 11 0 57 -71 54 -82 -1 -5 2 -8 7 -8 11 0 33 -59 25 -71
-3 -5 2 -6 11 -3 11 5 14 2 9 -10 -3 -9 -1 -16 6 -16 6 0 8 -4 5 -10 -3 -5 -1
-10 6 -10 8 0 8 -4 -1 -15 -11 -13 -10 -14 4 -9 12 5 15 2 9 -12 -4 -12 -3
-15 5 -10 7 4 12 1 12 -7 0 -8 9 -24 20 -37 12 -13 18 -30 16 -37 -3 -7 -2
-13 3 -13 5 0 18 -22 30 -50 12 -27 26 -50 32 -50 6 0 8 -7 5 -15 -3 -9 1 -18
9 -21 8 -4 15 -14 15 -24 0 -9 9 -25 20 -35 11 -10 20 -22 20 -27 0 -12 39
-53 45 -47 3 3 -25 57 -61 120 -36 63 -95 173 -130 244 -35 72 -99 190 -144
264 -44 74 -80 143 -80 153 0 16 -4 15 -24 -9 -13 -15 -28 -24 -32 -20 -8 7 7
21 31 30 6 2 0 18 -13 36 -16 22 -19 31 -9 31 8 0 19 -10 25 -22 8 -18 11 -3
11 75 1 54 8 132 17 173 16 79 14 105 -4 57z"/>
<path d="M335 2248 c7 -20 -6 -34 -49 -52 -53 -22 -73 -20 -101 10 -13 14 -28
23 -34 20 -5 -4 -14 1 -19 10 -14 26 -24 0 -11 -32 8 -23 12 -26 20 -14 8 12
9 10 5 -6 -5 -15 4 -31 31 -60 32 -34 50 -43 116 -59 42 -10 77 -22 77 -26 0
-4 -7 -14 -15 -22 -13 -14 -11 -27 6 -27 13 0 20 52 9 65 -6 7 -30 16 -54 19
-24 4 -53 16 -64 26 -12 11 -26 20 -32 20 -5 0 -19 9 -31 21 -29 29 -10 47 25
24 14 -10 32 -15 40 -12 8 3 17 1 20 -6 3 -8 5 -6 5 3 2 22 65 52 80 37 15
-15 15 26 1 54 -12 21 -32 27 -25 7z"/>
<path d="M195 2230 c-14 -22 30 -45 56 -30 10 7 10 11 0 24 -15 18 -47 21 -56
6z"/>
<path d="M2768 2232 c-31 -4 -37 -26 -11 -36 10 -4 24 1 36 12 22 22 14 29
-25 24z"/>
<path d="M850 2207 c11 -11 107 -75 135 -90 21 -10 36 -12 47 -6 12 7 28 4 55
-11 40 -21 24 -27 -24 -9 -19 7 -25 7 -18 0 11 -11 120 -51 140 -51 7 0 16 11
19 25 4 14 14 25 24 26 13 0 13 2 3 6 -8 3 -20 -2 -27 -12 -9 -13 -17 -14 -30
-7 -14 8 -22 6 -31 -6 -13 -16 -14 -15 -11 3 3 16 -9 26 -55 48 -32 16 -65 26
-73 23 -8 -3 -47 10 -87 30 -40 20 -70 34 -67 31z"/>
<path d="M2652 2198 c2 -6 23 -18 46 -26 27 -9 40 -18 35 -25 -4 -7 1 -6 10 2
23 19 21 31 -5 31 -13 1 -34 7 -48 15 -31 18 -43 19 -38 3z"/>
<path d="M2950 2198 c0 -23 -52 -123 -57 -111 -3 10 -10 10 -25 2 -26 -14 -35
-4 -17 18 8 10 0 6 -18 -7 -32 -25 -47 -80 -22 -80 8 0 8 -5 -1 -15 -14 -17
-57 -20 -80 -6 -26 17 -31 0 -6 -20 24 -19 28 -19 59 -4 38 18 133 109 152
145 15 30 29 90 21 90 -3 0 -6 -6 -6 -12z"/>
<path d="M67 2176 c-13 -33 -7 -52 28 -86 19 -19 30 -37 25 -40 -9 -6 44 -69
59 -71 65 -6 72 -6 60 2 -8 5 -22 9 -31 9 -19 0 -82 50 -73 58 3 3 -2 16 -10
28 -8 13 -23 45 -33 70 -14 35 -20 43 -25 30z"/>
<path d="M100 2176 c0 -14 35 -86 42 -86 5 0 8 -7 8 -17 0 -9 3 -14 6 -10 9 9
-12 64 -36 94 -11 14 -20 23 -20 19z"/>
<path d="M732 2113 c-2 -73 -9 -86 -32 -58 -16 20 -23 19 -38 -5 -11 -18 -10
-25 6 -45 14 -18 22 -21 31 -12 17 17 13 27 -9 27 -11 0 -20 4 -20 8 0 17 13
21 32 11 15 -8 18 -17 14 -37 l-6 -27 15 28 c12 20 15 48 12 105 l-3 77 -2
-72z"/>
<path d="M2111 2161 c-12 -8 -12 -12 -2 -25 16 -19 31 -12 31 15 0 21 -7 23
-29 10z"/>
<path d="M2407 2163 c-7 -12 -5 -63 2 -63 4 0 8 16 9 35 3 33 -2 44 -11 28z"/>
<path d="M2659 2151 c17 -13 22 -25 18 -40 -3 -11 -1 -19 4 -15 16 10 9 53
-10 64 -31 16 -38 11 -12 -9z"/>
<path d="M294 2145 c-10 -25 4 -45 31 -45 31 0 35 34 6 50 -26 13 -31 13 -37
-5z"/>
<path d="M861 2147 c-15 -15 -14 -37 2 -37 14 0 37 19 37 31 0 13 -28 17 -39
6z"/>
<path d="M1224 2148 c-4 -7 -3 -8 4 -4 7 4 12 1 12 -8 0 -8 -6 -17 -12 -19 -8
-3 -6 -6 5 -6 10 -1 17 6 17 17 0 14 2 15 10 2 5 -8 10 -10 10 -5 0 6 4 4 9
-3 6 -11 10 -10 15 4 4 10 4 15 0 12 -3 -4 -19 -1 -35 7 -20 11 -30 12 -35 3z"/>
<path d="M2266 2108 c9 -59 15 -61 13 -5 -1 26 -6 47 -11 47 -4 0 -5 -19 -2
-42z"/>
<path d="M2630 2131 c0 -5 6 -14 14 -20 16 -13 32 2 21 19 -8 12 -35 13 -35 1z"/>
<path d="M2791 2133 c-1 -7 -12 -13 -26 -13 -14 0 -25 -4 -25 -9 0 -5 -7 -12
-16 -15 -8 -3 -12 -2 -9 4 3 6 1 10 -4 10 -6 0 -11 -7 -11 -15 0 -18 -62 -36
-72 -21 -5 7 -8 3 -8 -8 0 -17 5 -18 47 -12 54 7 153 50 153 66 0 6 -4 9 -9 6
-5 -4 -12 0 -14 6 -4 10 -6 10 -6 1z"/>
<path d="M931 2103 c-12 -8 -21 -19 -21 -25 0 -7 7 -3 15 8 14 18 14 17 16
-16 1 -19 3 -27 6 -17 2 9 9 15 14 12 5 -4 9 -2 9 4 0 5 9 11 20 13 18 3 16 5
-9 20 -26 14 -32 14 -50 1z"/>
<path d="M1915 2074 c-95 -40 -111 -41 -136 -11 l-20 22 16 -27 16 -27 -38
-10 c-21 -6 -56 -13 -78 -16 -33 -5 -31 -3 15 10 78 22 82 24 75 35 -5 7 -11
8 -18 1 -7 -5 -53 -17 -102 -26 -94 -18 -275 -16 -357 4 -21 5 -38 5 -38 1 0
-4 51 -15 113 -23 231 -33 280 -31 447 20 47 14 90 26 95 27 6 1 16 5 23 9 6
5 12 6 12 2 0 -8 57 23 65 35 9 15 -2 12 -90 -26z"/>
<path d="M2440 2079 c0 -17 4 -28 10 -24 6 3 10 17 10 31 0 13 -4 24 -10 24
-5 0 -10 -14 -10 -31z"/>
<path d="M410 2072 c0 -17 38 -57 46 -49 3 2 -1 16 -7 30 -14 32 -39 44 -39
19z"/>
<path d="M1237 2075 c-11 -7 -17 -22 -14 -32 4 -17 4 -17 12 2 5 11 16 25 24
32 9 7 12 12 6 12 -5 0 -18 -6 -28 -14z"/>
<path d="M1310 2081 c0 -5 -8 -12 -17 -14 -10 -3 14 -4 54 -3 40 0 69 4 65 7
-12 11 -102 19 -102 10z"/>
<path d="M191 2049 c0 -31 1 -32 9 -11 10 23 25 29 35 12 8 -12 25 -13 25 -1
0 5 -8 11 -17 14 -10 2 -26 8 -35 12 -15 6 -18 2 -17 -26z"/>
<path d="M412 1992 c-2 -46 15 -129 28 -137 5 -3 6 5 2 17 -5 21 -4 22 12 9 9
-8 19 -12 22 -9 2 3 -7 13 -21 22 -25 16 -37 44 -12 30 6 -4 4 1 -5 12 -9 10
-18 37 -21 59 l-4 40 -1 -43z"/>
<path d="M2626 2015 c-4 -11 2 -15 24 -15 21 0 30 -5 30 -16 0 -12 -6 -15 -25
-10 -28 7 -30 4 -15 -25 20 -36 68 -10 55 30 -14 44 -57 66 -69 36z"/>
<path d="M1193 2014 c3 -3 -2 -14 -11 -25 -9 -10 -29 -49 -43 -86 -14 -38 -31
-67 -37 -65 -13 2 -16 -10 -6 -21 4 -3 15 4 24 16 23 28 37 16 16 -15 -20 -28
-20 -45 -1 -82 8 -15 15 -43 15 -60 0 -36 17 -55 95 -104 28 -17 55 -36 62
-42 7 -5 21 -10 33 -10 11 0 44 -11 72 -25 29 -14 59 -23 67 -20 8 3 18 0 23
-7 6 -10 8 -8 8 5 0 10 15 24 38 33 41 18 54 25 130 66 28 16 57 26 62 23 6
-4 9 -1 8 6 -2 7 6 15 17 18 21 6 33 51 14 51 -5 0 -7 -6 -3 -12 6 -10 4 -10
-7 0 -7 6 -17 12 -21 12 -13 0 -9 -28 4 -32 11 -4 -150 -93 -239 -132 -42 -19
-42 -19 -85 6 -24 13 -65 33 -93 43 -27 10 -76 33 -107 52 -44 26 -58 40 -58
58 0 22 26 43 32 25 2 -5 12 -2 23 7 14 11 15 14 3 10 -10 -4 -18 1 -21 14 -5
18 -28 28 -26 12 3 -21 -2 -33 -12 -27 -6 3 -8 17 -5 30 5 17 2 24 -8 24 -8 0
-18 5 -22 11 -4 8 0 9 15 4 20 -6 21 -3 23 52 1 32 1 73 -1 91 -4 55 40 87 53
40 4 -16 0 -28 -14 -40 -14 -11 -17 -19 -9 -24 6 -3 22 5 35 19 28 30 31 49 7
40 -11 -4 -14 -3 -9 5 8 14 42 16 50 3 3 -5 -1 -14 -9 -21 -8 -7 -15 -18 -15
-24 0 -6 -9 -17 -21 -24 -37 -23 -13 -24 31 -1 30 16 38 24 28 30 -10 7 -10
11 0 21 10 10 5 17 -24 34 l-36 22 49 -4 48 -3 -50 13 c-53 15 -102 20 -92 10z"/>
<path d="M569 1984 c-18 -19 -20 -26 -9 -39 7 -8 15 -13 19 -11 3 2 42 -20 86
-50 44 -29 81 -51 83 -49 7 7 -36 40 -84 67 -28 15 -48 32 -46 40 2 7 0 10 -4
6 -10 -10 -34 11 -34 29 0 7 7 13 16 11 10 -2 19 2 21 8 7 19 -26 11 -48 -12z"/>
<path d="M1038 1983 c-20 -23 -32 -63 -20 -63 5 0 15 14 22 30 7 17 16 30 21
30 5 0 9 5 9 10 0 15 -15 12 -32 -7z"/>
<path d="M1770 1986 c0 -10 6 -13 15 -10 19 8 19 5 -1 -35 -12 -24 -13 -36 -5
-44 6 -6 11 -24 11 -39 0 -20 5 -28 17 -28 14 0 14 -3 -5 -15 -18 -14 -20 -19
-9 -35 6 -11 17 -20 24 -20 7 0 13 -4 13 -10 0 -5 -4 -10 -10 -10 -5 0 -10 -4
-10 -10 0 -16 17 -11 24 7 4 9 -2 25 -14 38 -20 22 -27 41 -11 31 5 -3 12 1
15 10 9 22 8 24 -9 24 -18 0 -20 30 -2 30 6 0 3 7 -8 16 -16 12 -17 17 -7 32
22 31 25 44 15 61 -14 22 -43 27 -43 7z"/>
<path d="M1333 1978 c-11 -14 -14 -52 -4 -42 3 3 7 10 7 15 1 5 2 12 3 15 0 4
12 -1 25 -9 21 -14 26 -14 36 -2 6 7 21 16 33 18 12 2 7 4 -10 3 -18 -1 -33 2
-33 6 0 13 -47 9 -57 -4z"/>
<path d="M1873 1958 c-18 -20 -10 -39 9 -20 7 7 20 12 30 12 10 0 15 5 12 13
-7 19 -31 17 -51 -5z"/>
<path d="M2374 1965 c5 -13 -67 -71 -121 -99 -17 -9 -35 -21 -39 -28 -9 -14
49 20 133 79 74 52 81 61 47 61 -16 0 -23 -5 -20 -13z"/>
<path d="M277 1949 c4 -12 -1 -18 -13 -18 -71 1 -264 -99 -264 -137 0 -10 15
-2 48 25 48 41 122 73 199 86 23 3 47 13 54 21 8 10 14 11 19 4 4 -7 14 -2 26
11 18 22 18 22 0 16 -10 -4 -24 -3 -30 1 -20 16 -44 10 -39 -9z"/>
<path d="M1085 1943 l29 -26 -29 -23 c-22 -18 -27 -26 -18 -35 13 -13 37 -3
28 12 -4 5 -2 9 3 9 5 0 14 12 21 26 10 22 8 28 -11 44 -36 30 -58 24 -23 -7z"/>
<path d="M1673 1954 c-4 -11 2 -23 18 -35 19 -14 25 -15 27 -4 4 18 -15 55
-29 55 -5 0 -12 -7 -16 -16z"/>
<path d="M1460 1935 c0 -18 6 -24 28 -27 24 -3 27 -7 24 -33 -3 -28 -2 -29 14
-13 15 15 15 18 -2 42 -14 18 -25 23 -39 19 -17 -5 -18 -4 -7 9 10 13 10 17
-3 22 -11 4 -15 -1 -15 -19z"/>
<path d="M1530 1930 c0 -23 25 -27 33 -6 7 16 -1 26 -20 26 -7 0 -13 -9 -13
-20z"/>
<path d="M1350 1925 c0 -8 7 -15 16 -15 14 0 14 -3 4 -15 -7 -9 -10 -19 -6
-23 10 -9 48 37 41 49 -3 4 -12 6 -20 2 -8 -3 -15 0 -15 6 0 6 -4 11 -10 11
-5 0 -10 -7 -10 -15z"/>
<path d="M1904 1925 c-4 -8 -11 -12 -18 -8 -8 4 -7 2 1 -7 14 -16 43 -6 43 15
0 19 -19 20 -26 0z"/>
<path d="M2832 1928 c-21 -21 -13 -35 31 -47 23 -7 63 -31 90 -53 37 -31 47
-35 47 -21 -1 22 -24 55 -33 46 -8 -7 -77 28 -77 39 0 5 -7 8 -15 8 -8 0 -15
6 -15 14 0 21 -15 27 -28 14z"/>
<path d="M1615 1910 c-9 -15 3 -29 25 -27 27 2 27 37 1 37 -11 0 -23 -4 -26
-10z"/>
<path d="M383 1888 c-11 -13 -48 -62 -83 -111 -70 -98 -72 -99 -94 -91 -13 5
-11 12 13 47 15 23 31 51 35 61 7 20 7 20 -15 0 -11 -10 -27 -30 -35 -44 -27
-51 -26 -50 -79 -35 -73 22 -65 11 12 -17 40 -14 67 -29 65 -36 -6 -32 64 30
88 78 7 14 34 50 60 80 55 65 85 126 33 68z"/>
<path d="M520 1890 c-9 -16 -8 -18 5 -14 8 4 15 3 15 0 0 -6 -84 -148 -124
-208 -10 -16 -14 -28 -10 -28 11 0 49 55 89 129 17 30 38 59 47 65 21 13 74
-5 70 -23 -1 -7 2 -10 7 -7 5 3 29 -10 53 -30 23 -20 67 -50 96 -66 30 -17 49
-34 45 -41 -4 -6 0 -8 9 -4 9 3 44 -13 84 -39 38 -24 73 -44 77 -44 5 0 6 -10
2 -22 -6 -21 -5 -22 8 -5 17 21 27 22 27 2 0 -9 6 -12 15 -9 11 4 13 2 10 -9
-5 -11 0 -14 19 -12 29 4 32 -4 14 -25 -7 -8 -3 -6 10 5 22 18 23 18 16 0 -6
-15 -4 -17 9 -12 10 4 17 2 17 -4 0 -6 6 -9 13 -6 25 9 14 -21 -11 -32 -20
-10 -23 -9 -19 3 4 11 1 13 -10 9 -11 -4 -14 -2 -9 5 4 7 2 12 -3 12 -19 0
-12 -27 12 -43 21 -14 24 -13 53 14 l31 30 25 -21 c15 -11 31 -20 37 -20 6 0
11 -7 11 -15 0 -8 -4 -15 -9 -15 -5 0 -11 -6 -14 -13 -5 -14 36 -18 49 -4 11
11 44 -23 44 -46 0 -16 3 -17 14 -8 10 8 16 9 21 1 3 -5 1 -10 -4 -10 -6 0
-11 -4 -11 -10 0 -5 7 -10 15 -10 9 0 15 9 15 23 0 17 -18 36 -67 73 -73 53
-245 159 -325 199 -85 43 -178 109 -173 123 3 7 1 10 -4 7 -8 -4 -231 132
-268 165 -9 7 -15 5 -23 -10z"/>
<path d="M1730 1891 c0 -24 18 -37 31 -24 13 13 1 43 -17 43 -8 0 -14 -9 -14
-19z"/>
<path d="M1850 1891 c0 -11 4 -22 9 -25 11 -7 23 22 15 35 -9 16 -24 10 -24
-10z"/>
<path d="M2400 1891 c-14 -10 -78 -54 -144 -97 -112 -74 -119 -77 -132 -59
-13 18 -16 17 -72 -21 -31 -22 -66 -44 -76 -47 -10 -4 -16 -10 -13 -13 3 -4
14 -3 24 1 10 5 24 7 31 6 6 -1 12 5 12 14 0 13 12 19 33 16 4 0 7 5 7 13 0
18 30 30 44 16 5 -5 8 -11 5 -13 -2 -2 -25 -20 -51 -41 -28 -22 -52 -35 -59
-30 -7 4 -9 3 -6 -4 4 -6 -48 -39 -130 -82 -152 -80 -202 -112 -280 -178 l-53
-44 1 -112 c0 -144 23 -508 32 -523 4 -6 31 -31 60 -54 28 -24 49 -39 45 -35
-4 5 3 17 15 27 l22 18 -22 -6 c-19 -4 -22 -2 -18 18 4 22 3 22 -9 6 -12 -15
-15 -15 -26 -2 -9 10 -9 15 -1 15 6 0 11 4 11 9 0 5 -6 9 -12 8 -33 -1 -49 4
-43 14 4 6 14 8 22 5 8 -4 11 -1 8 5 -4 6 -13 8 -20 5 -22 -8 -32 13 -28 57 3
23 6 43 8 45 2 2 -1 15 -6 29 -9 24 -8 25 16 19 14 -4 25 -2 25 4 0 5 -11 10
-25 10 -14 0 -25 5 -25 11 0 6 8 9 18 7 10 -3 24 2 31 10 12 12 11 13 -5 8
-13 -4 -23 1 -32 15 -8 12 -10 24 -7 27 4 4 11 -1 16 -11 6 -9 15 -15 20 -11
6 3 -1 16 -16 29 -29 28 -32 42 -7 48 14 4 14 6 -5 12 -13 4 -23 11 -23 15 0
10 20 8 38 -4 7 -4 16 -5 19 -2 3 3 -2 8 -11 12 -14 5 -52 73 -44 79 2 1 12 7
23 13 19 11 19 11 -4 12 -20 0 -21 2 -11 15 7 8 16 12 21 9 5 -3 9 0 9 5 0 6
-9 11 -20 11 -12 0 -20 7 -20 17 0 13 3 14 12 5 14 -14 28 -16 28 -3 0 5 -9
13 -20 16 -11 3 -20 11 -20 16 0 6 9 7 21 4 19 -6 20 -5 8 17 -11 21 -11 22 5
9 14 -12 16 -12 10 3 -8 21 -20 20 -33 -1 -9 -15 -10 -16 -11 -2 0 17 43 62
52 53 3 -3 5 3 4 12 0 10 14 28 34 42 19 13 34 28 32 34 -2 6 4 8 13 5 8 -4
15 -2 15 3 0 5 7 7 15 4 10 -4 15 0 15 10 0 14 2 15 14 4 8 -7 12 -16 10 -20
-6 -9 7 -38 16 -38 9 0 8 13 -4 47 -4 13 -5 27 -1 33 8 14 34 -11 28 -27 -3
-7 0 -13 6 -13 6 0 11 -7 11 -16 0 -9 5 -14 12 -12 18 6 22 28 5 28 -8 0 -18
11 -21 25 -7 28 -1 45 15 45 6 0 7 -4 4 -10 -3 -5 -1 -10 5 -10 7 0 10 7 6 15
-3 10 5 20 24 30 26 13 29 13 33 -3 4 -14 5 -13 6 4 1 13 16 29 44 44 43 24
128 81 182 122 16 12 25 17 21 9 -11 -18 26 2 44 23 7 9 19 16 26 16 8 0 14 5
14 10 0 6 6 10 13 10 10 0 61 35 136 94 12 9 14 8 9 -5 -7 -18 27 -43 44 -33
6 4 9 1 6 -7 -3 -8 14 -35 38 -61 24 -26 44 -53 44 -60 0 -7 -14 3 -31 22 -17
19 -26 27 -19 18 6 -9 8 -23 4 -29 -4 -7 -3 -9 4 -5 5 3 20 -6 31 -21 16 -21
20 -23 15 -8 -4 15 1 13 21 -10 24 -27 26 -27 14 -5 -6 14 -24 41 -39 60 -36
46 -90 154 -90 180 0 24 -7 24 -40 1z"/>
<path d="M2920 1897 c0 -15 20 -27 46 -27 8 0 14 5 14 11 0 5 -4 7 -10 4 -5
-3 -10 -1 -10 6 0 7 -3 9 -7 6 -3 -4 -12 -2 -20 4 -10 9 -13 8 -13 -4z"/>
<path d="M848 1881 c-4 -14 -3 -30 2 -36 6 -7 7 -15 3 -19 -4 -4 0 -4 10 0 9
3 17 13 17 21 0 8 -4 12 -9 8 -5 -3 -11 7 -13 22 l-3 28 -7 -24z"/>
<path d="M1680 1880 c0 -11 7 -20 15 -20 8 0 15 -4 15 -10 0 -5 -4 -10 -10
-10 -5 0 -10 -9 -10 -20 0 -30 27 -24 33 7 5 27 -17 73 -34 73 -5 0 -9 -9 -9
-20z"/>
<path d="M280 1876 c-103 -23 -156 -46 -216 -94 -42 -34 -60 -56 -62 -75 -3
-26 0 -25 48 26 57 60 124 101 184 111 35 7 38 6 32 -11 -5 -12 3 -8 23 11 32
31 41 25 18 -9 -34 -50 -49 -75 -44 -75 8 0 87 111 87 122 0 9 1 10 -70 -6z"/>
<path d="M1316 1865 c9 -37 13 -45 25 -45 16 0 10 30 -12 53 l-20 22 7 -30z"/>
<path d="M1396 1874 c-9 -24 -8 -27 14 -21 11 3 20 1 20 -4 0 -16 -29 -22 -45
-9 -8 7 -15 9 -15 5 0 -12 33 -34 53 -35 21 0 22 -16 1 -24 -22 -8 -21 -9 -27
16 -5 18 -8 19 -21 8 -20 -15 -21 -31 -2 -24 8 3 16 -3 19 -15 7 -28 47 -29
47 -1 0 12 7 20 18 20 16 1 16 1 -1 14 -10 8 -15 20 -11 30 4 10 -1 25 -11 36
-22 24 -31 25 -39 4z"/>
<path d="M1892 1878 c-7 -7 -12 -17 -12 -23 0 -15 34 -42 48 -37 18 6 14 19
-8 25 -11 3 -20 10 -20 17 0 7 8 9 22 4 20 -6 21 -5 9 10 -16 19 -23 20 -39 4z"/>
<path d="M2631 1868 c14 -27 59 -82 59 -73 0 8 -62 95 -67 95 -2 0 2 -10 8
-22z"/>
<path d="M2713 1798 c35 -52 66 -100 68 -106 5 -15 69 4 69 20 0 10 -26 61
-44 87 -11 14 -17 41 -10 41 23 0 174 -106 174 -122 0 -5 -24 -19 -52 -33 -31
-14 -45 -24 -33 -25 11 0 35 9 53 20 18 11 39 20 47 20 20 0 19 6 -6 42 -43
59 -171 123 -287 143 l-42 7 63 -94z m35 41 c23 -17 42 -35 42 -41 0 -5 7 -26
17 -45 14 -30 14 -36 2 -44 -19 -12 -26 -11 -26 4 0 7 -21 42 -46 79 -64 91
-61 100 11 47z"/>
<path d="M2812 1871 c25 -10 59 -27 75 -38 15 -11 39 -26 53 -32 20 -10 18 -6
-10 19 -32 28 -125 71 -153 70 -7 -1 9 -9 35 -19z"/>
<path d="M1270 1861 c0 -10 13 -33 29 -52 28 -31 32 -49 11 -49 -5 0 -10 10
-12 23 -4 30 -31 28 -38 -3 -3 -14 -12 -25 -20 -25 -7 0 -15 -6 -17 -12 -7
-19 24 -16 35 3 7 13 13 14 31 4 16 -8 26 -8 35 -1 7 6 16 7 21 3 4 -4 3 3 -3
14 -6 12 -8 24 -5 28 3 3 -1 6 -10 6 -9 0 -17 7 -17 15 0 8 -4 15 -9 15 -4 0
-6 11 -3 25 3 18 0 25 -12 25 -9 0 -16 -8 -16 -19z"/>
<path d="M1590 1860 c0 -18 -3 -19 -20 -10 -21 11 -40 6 -40 -10 0 -5 8 -6 17
-3 13 5 15 2 10 -11 -4 -10 -7 -23 -7 -29 -1 -7 -9 -2 -19 10 -16 19 -20 20
-25 7 -3 -9 -6 -25 -5 -37 0 -20 1 -20 8 -4 8 22 21 24 32 5 7 -10 9 -10 9 0
0 7 5 10 10 7 6 -3 10 4 10 18 0 15 9 28 25 37 26 14 29 30 7 38 -7 2 -12 -6
-12 -18z"/>
<path d="M1032 1848 c0 -13 -3 -46 -7 -73 -7 -50 -7 -51 30 -79 33 -25 39 -27
61 -16 13 8 24 19 24 27 0 20 -17 15 -23 -7 -7 -27 -16 -25 -55 10 -32 29 -32
31 -21 75 10 41 13 44 25 28 16 -21 18 -37 4 -28 -5 3 -10 0 -10 -9 0 -8 -5
-16 -11 -18 -7 -2 -4 -10 7 -18 15 -13 17 -13 12 0 -2 8 4 22 15 31 20 16 20
16 -1 46 -11 16 -28 35 -35 42 -12 10 -15 8 -15 -11z"/>
<path d="M478 1835 c-14 -30 -24 -32 -38 -5 -6 11 -15 18 -21 15 -5 -4 1 -15
13 -25 13 -10 20 -21 16 -25 -4 -4 -15 0 -24 10 -17 17 -19 16 -33 -3 -76 -98
-124 -175 -202 -329 -50 -98 -114 -216 -141 -262 -27 -46 -47 -85 -45 -87 2
-2 16 5 30 16 26 21 46 51 68 103 6 15 15 27 20 27 5 0 9 9 9 20 0 11 4 20 9
20 5 0 18 22 30 49 22 53 36 68 46 51 3 -5 -2 -10 -12 -10 -11 0 -14 -3 -7 -8
12 -7 16 -62 5 -62 -10 0 -4 -82 8 -113 14 -35 14 -40 0 -31 -6 3 -4 -8 5 -24
9 -17 18 -48 20 -69 7 -56 17 -96 29 -111 5 -7 7 -15 4 -19 -4 -3 -2 -12 4
-20 6 -7 9 -13 5 -13 -3 0 3 -17 14 -37 11 -21 20 -41 20 -45 0 -5 9 -28 21
-53 12 -25 19 -52 16 -60 -4 -8 -3 -16 1 -19 4 -2 7 -20 7 -39 -1 -24 2 -34
11 -30 7 3 14 -10 17 -34 3 -21 9 -51 13 -67 4 -16 2 -31 -4 -35 -7 -4 -5 -30
4 -81 8 -41 12 -80 10 -87 -3 -7 -1 -15 4 -18 5 -3 7 -19 4 -34 -4 -19 6 -63
30 -131 19 -57 33 -107 30 -111 -5 -9 17 -49 27 -49 10 0 -8 103 -25 144 -21
51 -20 63 4 35 10 -13 19 -19 20 -13 0 5 -4 14 -8 20 -10 11 -32 85 -32 108 0
9 4 16 8 16 15 0 35 -81 48 -195 l13 -110 -4 100 c-3 80 -12 127 -45 234 -22
74 -40 140 -40 146 0 28 -51 169 -67 187 -17 19 -17 21 -1 32 16 12 14 23 -32
142 -55 140 -75 208 -95 324 -7 41 -16 89 -20 105 -5 23 -4 26 4 15 8 -12 11
-8 12 20 2 83 34 173 102 285 35 56 36 61 18 69 -11 4 -21 17 -24 27 -4 14 0
18 16 15 12 -1 23 -9 25 -16 3 -8 0 -10 -9 -5 -12 7 -12 6 -1 -6 11 -12 16
-10 32 11 19 25 19 25 -8 47 -30 25 -18 31 15 8 19 -14 23 -12 45 18 35 46 61
97 48 97 -6 0 -16 -11 -22 -25z m-52 -49 c27 -21 6 -43 -26 -26 -29 15 -18 25
12 10 22 -11 22 -11 -2 9 -28 23 -14 29 16 7z m-96 -156 c13 -9 13 -11 0 -19
-8 -5 -19 -7 -25 -3 -5 3 -4 -2 4 -11 12 -15 11 -17 -2 -17 -23 0 -29 16 -12
30 8 7 12 16 9 21 -7 12 7 11 26 -1z"/>
<path d="M670 1839 c31 -25 103 -64 113 -61 4 1 7 -5 7 -13 0 -8 5 -15 10 -15
6 0 10 5 10 11 0 5 5 7 10 4 6 -3 10 -14 10 -25 0 -10 7 -21 16 -24 8 -3 12
-2 9 3 -3 5 0 13 5 16 7 5 5 12 -7 21 -10 7 -14 14 -9 14 12 0 -14 30 -27 30
-6 0 -2 -7 9 -16 18 -14 18 -15 -6 -8 -14 3 -55 24 -91 45 -70 42 -99 51 -59
18z"/>
<path d="M1753 1853 c-7 -3 -13 -14 -13 -26 0 -12 -5 -29 -10 -37 -8 -12 -13
-13 -30 -2 -28 17 -32 15 -28 -10 2 -14 10 -23 20 -22 10 1 14 -4 11 -12 -3
-8 -9 -14 -14 -14 -15 0 -10 -26 9 -43 25 -23 29 -22 46 11 9 18 11 33 5 43
-6 10 -9 10 -10 2 -1 -7 -3 -17 -4 -23 -1 -5 -3 -14 -4 -20 -2 -16 -21 -12
-28 6 -3 9 0 20 8 25 8 4 14 16 14 26 1 10 7 17 14 15 9 -2 11 3 7 14 -4 12
-2 15 9 10 8 -3 15 -1 15 4 0 6 -4 10 -10 10 -5 0 -10 5 -10 11 0 5 4 8 9 4 5
-3 12 -2 15 3 7 12 -7 30 -21 25z"/>
<path d="M2167 1854 c-4 -4 -7 -16 -7 -26 0 -16 3 -17 21 -8 11 6 19 16 16 23
-4 14 -21 20 -30 11z"/>
<path d="M775 1840 c-3 -6 0 -17 8 -25 13 -13 16 -13 21 1 3 9 6 20 6 25 0 12
-27 12 -35 -1z"/>
<path d="M1220 1838 c0 -4 -9 -8 -21 -8 -15 0 -20 -5 -17 -20 3 -22 24 -24 22
-2 -2 15 18 16 33 1 8 -8 13 -8 17 0 4 6 2 11 -5 11 -9 0 -9 3 1 14 9 12 8 15
-9 13 -12 -1 -21 -5 -21 -9z"/>
<path d="M1462 1833 c2 -10 10 -18 18 -18 8 0 16 8 18 18 2 12 -3 17 -18 17
-15 0 -20 -5 -18 -17z"/>
<path d="M1621 1841 c-20 -13 -9 -44 17 -46 15 -1 22 4 22 15 0 23 -22 41 -39
31z"/>
<path d="M1857 1834 c-10 -11 -8 -52 3 -59 13 -8 25 44 13 56 -5 5 -12 6 -16
3z"/>
<path d="M2091 1775 c-70 -45 -79 -56 -16 -21 45 26 86 56 75 56 -3 0 -29 -16
-59 -35z"/>
<path d="M1893 1784 c-7 -19 10 -50 26 -46 16 3 13 -14 -4 -28 -9 -7 -13 -15
-10 -18 2 -3 -3 -11 -13 -18 -30 -23 1 -15 43 11 25 15 33 24 23 25 -11 0 -18
8 -18 20 0 11 -4 20 -10 20 -5 0 -10 9 -10 19 0 26 -18 37 -27 15z"/>
<path d="M530 1773 c-8 -3 -18 -11 -22 -17 -17 -24 -6 -26 28 -5 l36 22 -12
-23 c-10 -18 -9 -21 2 -18 7 3 13 13 13 24 0 20 -19 27 -45 17z"/>
<path d="M1575 1770 c-3 -5 1 -13 10 -16 14 -6 14 -9 3 -16 -10 -8 -10 -9 2
-5 18 4 20 39 3 44 -6 2 -14 -1 -18 -7z"/>
<path d="M1620 1771 c0 -5 6 -14 14 -20 9 -7 13 -24 11 -42 -3 -17 0 -27 5
-24 11 7 13 55 4 79 -6 17 -34 22 -34 7z"/>
<path d="M1100 1755 c-1 -5 -2 -13 -1 -17 0 -5 -3 -8 -9 -8 -5 0 -10 -7 -10
-15 0 -8 5 -15 10 -15 14 0 23 25 17 47 -3 10 -6 14 -7 8z"/>
<path d="M1537 1752 c16 -10 20 -44 6 -49 -8 -3 -13 4 -13 16 0 11 -4 23 -10
26 -15 10 -12 -41 4 -54 7 -6 21 -9 30 -5 10 4 16 1 16 -9 0 -8 -4 -17 -9 -19
-5 -1 6 -21 26 -43 19 -22 30 -30 24 -18 -15 29 -14 38 2 24 8 -6 17 -8 21 -4
4 4 4 0 0 -10 -4 -11 -1 -17 8 -17 30 0 27 19 -9 69 -2 2 -12 -4 -23 -14 -11
-10 -23 -15 -28 -10 -4 4 -1 10 6 12 17 7 15 43 -3 43 -8 0 -15 5 -15 10 0 6
6 10 13 10 8 0 8 3 1 8 -6 4 -13 15 -17 25 -3 9 -14 17 -24 17 -12 0 -14 -3
-6 -8z"/>
<path d="M583 1731 c-24 -20 -30 -41 -12 -41 5 0 7 6 3 13 -6 10 -4 10 7 0 19
-19 28 -16 22 7 -4 17 -2 19 13 13 17 -6 17 -5 5 10 -7 9 -14 17 -15 17 0 -1
-11 -9 -23 -19z"/>
<path d="M1856 1734 c-9 -23 -7 -54 2 -54 13 0 35 47 28 59 -10 16 -23 14 -30
-5z"/>
<path d="M1267 1733 c-4 -3 -7 -17 -7 -30 0 -20 5 -24 22 -21 26 3 37 36 16
49 -16 11 -23 11 -31 2z"/>
<path d="M1474 1725 c3 -9 0 -15 -9 -15 -7 0 -16 -8 -18 -17 -4 -14 -5 -13 -6
4 0 12 -5 25 -11 28 -12 8 -13 3 0 -29 7 -21 6 -26 -5 -26 -8 0 -15 9 -15 20
0 11 -5 20 -11 20 -16 0 -6 -41 13 -53 13 -9 23 -3 52 26 39 41 45 57 20 57
-10 0 -14 -6 -10 -15z"/>
<path d="M1783 1720 c3 -11 1 -18 -3 -15 -10 6 -25 -14 -17 -21 3 -3 14 0 25
7 19 12 19 49 0 49 -6 0 -8 -9 -5 -20z"/>
<path d="M1607 1716 c-3 -8 1 -22 8 -33 13 -17 14 -16 15 15 0 33 -13 43 -23
18z"/>
<path d="M643 1713 c-21 -8 -15 -22 20 -43 42 -26 57 -25 56 3 0 12 -3 16 -6
10 -2 -7 -12 -13 -20 -13 -9 0 -13 6 -10 15 4 8 2 17 -4 20 -5 4 -8 1 -7 -6 2
-6 -3 -14 -11 -16 -9 -4 -11 0 -6 16 3 11 5 21 3 20 -2 0 -9 -3 -15 -6z"/>
<path d="M965 1701 c15 -14 145 -71 145 -63 0 7 -44 29 -115 57 -22 9 -35 12
-30 6z"/>
<path d="M1325 1690 c-9 -14 4 -32 17 -24 6 4 14 0 19 -7 4 -7 11 -10 15 -6 4
4 -3 16 -16 27 -27 23 -27 23 -35 10z"/>
<path d="M85 1676 c17 -7 44 -16 60 -19 l30 -6 -30 13 c-16 7 -43 16 -60 19
l-30 6 30 -13z"/>
<path d="M1489 1685 c-8 -11 -9 -65 -2 -65 16 0 43 23 43 37 0 12 -3 13 -14 4
-12 -10 -15 -8 -18 11 -2 13 -6 19 -9 13z"/>
<path d="M1223 1659 c-6 -21 -7 -21 -20 -4 -7 11 -13 14 -13 8 0 -6 7 -17 16
-24 14 -11 18 -10 30 6 17 23 18 35 3 35 -6 0 -13 -10 -16 -21z"/>
<path d="M1279 1664 c-25 -13 -45 -42 -35 -51 2 -2 18 10 36 27 37 36 36 44
-1 24z"/>
<path d="M1679 1643 c-13 -15 -12 -16 9 -11 12 4 20 2 16 -3 -6 -10 9 -12 19
-3 9 9 -4 34 -18 34 -7 0 -19 -8 -26 -17z"/>
<path d="M1016 1634 c-9 -24 -8 -26 11 -16 18 11 49 1 96 -31 15 -10 27 -14
27 -8 0 8 -112 71 -126 71 -1 0 -5 -7 -8 -16z"/>
<path d="M1442 1638 c-14 -14 -16 -64 -3 -72 5 -3 11 1 15 9 3 8 1 17 -4 20
-6 4 -10 13 -10 22 0 13 3 13 15 3 16 -13 20 -3 7 17 -6 10 -11 10 -20 1z"/>
<path d="M1885 1620 c-27 -16 -54 -32 -60 -37 -5 -4 -19 -9 -30 -11 -34 -4
-154 -65 -149 -74 3 -5 30 5 61 22 44 25 58 29 69 19 8 -6 17 -9 21 -5 3 3 1
6 -5 6 -27 0 -10 15 19 17 19 1 49 17 76 39 35 29 47 34 53 23 12 -18 22 -7
14 15 -8 21 -10 20 -69 -14z"/>
<path d="M2185 1640 c-18 -7 -19 -8 -3 -15 10 -4 15 -11 12 -16 -3 -5 0 -9 6
-9 7 0 9 8 5 21 -5 14 -3 19 3 15 6 -3 13 -2 17 4 7 12 -12 12 -40 0z"/>
<path d="M140 1620 c-8 -15 -8 -25 0 -34 8 -10 4 -27 -16 -66 -14 -28 -24 -53
-22 -56 3 -2 15 18 28 46 13 27 30 52 39 55 21 6 45 45 34 55 -4 4 -18 11 -30
14 -16 5 -25 1 -33 -14z m46 -11 c10 -17 -13 -36 -27 -22 -12 12 -4 33 11 33
5 0 12 -5 16 -11z"/>
<path d="M2556 1609 c9 -19 27 -50 39 -69 13 -19 40 -85 61 -147 21 -62 40
-110 42 -108 9 9 -63 207 -99 272 -40 72 -76 116 -43 52z"/>
<path d="M2821 1631 c-15 -9 -2 -43 22 -58 7 -4 20 -26 29 -48 43 -106 68
-159 68 -147 0 8 -16 50 -35 95 -19 44 -35 88 -35 98 0 10 -7 16 -17 15 -10 0
-18 6 -18 14 0 8 8 14 18 14 9 -1 17 4 17 12 0 16 -28 18 -49 5z"/>
<path d="M576 1622 c-11 -10 5 -21 21 -15 9 4 14 2 11 -3 -4 -5 4 -9 17 -9 16
0 20 3 14 11 -11 13 -56 24 -63 16z"/>
<path d="M1527 1623 c-14 -13 -6 -25 13 -20 21 5 29 -8 8 -15 -9 -3 -8 -10 3
-25 13 -19 17 -19 34 -7 10 8 15 17 10 21 -4 5 -10 2 -12 -5 -3 -6 -9 -9 -14
-6 -6 3 -5 12 3 21 10 12 9 18 -7 29 -21 16 -29 17 -38 7z"/>
<path d="M2277 1610 c3 -11 0 -20 -6 -20 -6 0 -11 7 -11 16 0 8 -5 12 -10 9
-6 -4 -8 -10 -5 -15 3 -4 -5 -11 -18 -14 -20 -6 -21 -7 -5 -20 10 -7 15 -16
11 -19 -3 -4 -1 -7 5 -7 15 0 16 17 1 26 -8 4 -7 9 2 15 8 4 16 3 20 -3 10
-17 40 17 33 36 -9 23 -23 20 -17 -4z"/>
<path d="M2501 1613 c-6 -10 -11 -13 -11 -8 0 6 -4 4 -9 -4 -8 -12 -12 -12
-24 -2 -13 10 -15 9 -10 -11 4 -21 3 -22 -10 -5 -8 9 -18 17 -23 17 -4 0 -3
-5 4 -12 19 -19 15 -25 -33 -54 -25 -14 -45 -28 -45 -30 0 -14 45 -52 57 -47
12 5 11 8 -3 24 -9 10 -21 16 -25 13 -5 -3 -9 -1 -9 4 0 5 38 33 85 63 78 50
99 69 75 69 -5 0 -14 -8 -19 -17z"/>
<path d="M1316 1603 c-4 -9 -3 -20 2 -25 11 -11 36 17 27 32 -9 15 -22 12 -29
-7z"/>
<path d="M371 1557 c-18 -31 -37 -55 -41 -52 -5 3 -12 0 -16 -6 -5 -8 -3 -9 6
-4 10 6 12 4 7 -9 -4 -10 -7 -20 -7 -22 0 -3 -4 -2 -10 1 -5 3 -7 0 -4 -8 2
-7 -7 -51 -22 -98 -23 -73 -26 -94 -20 -164 6 -77 23 -161 31 -153 3 2 0 21
-6 43 -6 21 -9 51 -7 66 3 15 0 25 -5 22 -4 -3 -7 10 -5 28 2 27 9 34 37 44
20 7 30 14 24 18 -7 4 -14 3 -18 -3 -10 -16 -25 -12 -26 8 -1 11 -4 9 -9 -8
-4 -14 -8 -18 -9 -10 -1 26 46 174 51 160 3 -10 6 -9 11 4 4 11 3 15 -4 10 -7
-4 -9 1 -7 12 2 11 9 18 16 17 7 -2 9 4 5 14 -5 12 -3 14 7 8 8 -5 11 -4 6 3
-8 13 24 67 42 68 27 2 32 4 32 15 0 8 -5 7 -15 -1 -20 -16 -32 -5 -15 14 6 9
10 21 8 28 -3 7 -19 -13 -37 -45z"/>
<path d="M1480 1596 c0 -8 6 -17 13 -20 10 -5 10 -7 0 -12 -14 -6 -18 -54 -5
-54 5 0 15 6 24 13 15 11 15 15 0 50 -17 38 -32 49 -32 23z"/>
<path d="M687 1582 c4 -15 -1 -17 -39 -14 -24 2 -40 1 -37 -2 10 -10 119 -14
119 -4 0 5 -5 6 -11 3 -6 -4 -13 2 -16 14 -3 12 -9 21 -13 21 -5 0 -6 -8 -3
-18z"/>
<path d="M1170 1561 c0 -17 13 -25 118 -68 6 -3 12 -1 12 4 0 12 -73 53 -94
53 -19 0 -21 16 -3 23 6 3 2 6 -10 6 -16 1 -23 -5 -23 -18z"/>
<path d="M1400 1567 c0 -9 15 -26 33 -39 l32 -23 -22 35 c-24 38 -43 50 -43
27z"/>
<path d="M2315 1570 c3 -5 0 -10 -7 -10 -7 -1 -26 -12 -43 -25 -23 -19 -26
-25 -12 -25 9 0 17 5 17 11 0 5 5 7 10 4 28 -17 -14 -40 -44 -23 -10 5 -16 5
-16 0 0 -15 26 -33 34 -24 4 4 11 8 14 8 43 9 72 34 39 34 -8 0 -14 7 -14 15
0 13 4 13 26 -2 24 -15 25 -15 12 0 -8 10 -12 20 -9 22 3 3 11 -1 18 -9 10
-13 14 -13 26 -2 7 8 19 16 26 19 7 2 9 8 5 13 -4 5 -12 2 -17 -6 -6 -8 -10
-10 -10 -5 0 6 -4 4 -9 -3 -7 -11 -11 -11 -24 2 -17 18 -32 21 -22 6z"/>
<path d="M2518 1533 c-21 -14 -38 -29 -38 -33 0 -5 16 -28 36 -52 51 -62 56
-66 48 -43 -4 11 -10 22 -13 25 -11 9 -41 68 -41 79 0 6 11 13 24 17 14 3 27
12 30 20 8 20 -3 17 -46 -13z"/>
<path d="M2650 1553 c0 -5 11 -25 24 -46 20 -33 25 -36 36 -22 11 13 10 14 -6
8 -17 -6 -17 -5 -5 10 12 16 12 17 -5 11 -18 -7 -18 -6 1 16 l20 23 -24 -13
c-21 -11 -23 -10 -18 4 4 10 1 16 -8 16 -8 0 -15 -3 -15 -7z"/>
<path d="M47 1461 c-26 -51 -47 -98 -47 -104 0 -16 58 76 81 131 36 84 13 65
-34 -27z"/>
<path d="M833 1536 c-4 -8 -17 -16 -28 -19 -19 -4 -18 -5 2 -6 12 0 28 -10 35
-20 10 -14 18 -17 28 -10 13 7 13 9 0 9 -30 0 -41 22 -23 42 9 10 11 18 5 18
-6 0 -15 -6 -19 -14z"/>
<path d="M597 1493 c-4 -3 0 -15 10 -25 15 -17 15 -18 -11 -18 -32 0 -45 -25
-24 -46 13 -13 16 -13 29 3 12 16 12 17 -2 6 -18 -15 -30 -8 -22 13 3 9 13 12
29 8 18 -5 24 -2 24 11 0 10 5 15 14 12 7 -3 19 0 26 6 10 9 11 7 5 -11 -6
-21 -4 -23 17 -20 17 2 24 10 26 32 2 18 0 26 -7 21 -6 -3 -9 -11 -6 -16 4 -5
3 -14 -1 -21 -5 -8 -10 -6 -14 8 -6 15 -15 18 -45 15 -31 -2 -37 0 -32 13 6
16 -4 22 -16 9z"/>
<path d="M1344 1478 c9 -13 36 -39 60 -58 25 -19 45 -40 46 -45 0 -6 5 -16 12
-23 13 -13 48 1 48 20 0 6 8 21 18 32 17 20 17 20 -10 3 -15 -9 -34 -17 -41
-17 -8 0 -41 25 -73 55 -63 58 -84 69 -60 33z"/>
<path d="M1623 1475 c5 -16 -4 -27 -42 -52 -38 -24 -48 -37 -48 -58 0 -25 0
-25 18 -9 13 11 16 20 9 24 -6 4 13 23 44 45 31 21 55 39 54 39 -2 1 -12 8
-22 16 -17 14 -18 13 -13 -5z"/>
<path d="M2200 1475 c10 -11 9 -18 -4 -30 -8 -9 -18 -16 -21 -15 -17 1 -19 -1
-6 -9 10 -6 21 -1 38 15 21 21 22 26 9 39 -19 19 -32 19 -16 0z"/>
<path d="M2416 1452 c-27 -20 -44 -38 -37 -40 27 -9 8 -38 -21 -33 -5 0 -8 -3
-8 -8 0 -20 20 -21 49 -3 l31 19 -21 21 c-13 14 -15 22 -7 22 7 0 29 14 48 30
49 41 25 36 -34 -8z"/>
<path d="M2286 1464 c-11 -7 -16 -17 -12 -21 4 -4 11 -1 15 6 7 11 12 7 23
-14 11 -20 17 -24 23 -15 5 8 2 17 -7 24 -8 6 -17 16 -19 23 -3 8 -9 8 -23 -3z"/>
<path d="M2547 1474 c-3 -3 5 -24 19 -45 29 -47 30 -55 4 -55 -11 0 -20 4 -20
9 0 4 -6 7 -14 5 -7 -2 -22 7 -33 20 -18 23 -19 23 -36 4 -17 -18 -17 -21 -2
-36 17 -17 12 -36 -9 -36 -8 0 -19 -7 -26 -15 -9 -11 -16 -12 -25 -5 -6 5 -15
7 -18 3 -4 -3 -7 -3 -7 0 0 4 17 14 38 23 20 9 32 18 25 21 -11 4 -93 -42 -93
-53 0 -3 4 -2 10 1 14 8 59 -26 60 -46 0 -8 6 -23 13 -32 15 -21 43 -7 34 18
-4 9 -11 14 -16 10 -5 -3 -12 -1 -16 5 -8 14 4 50 17 50 7 0 6 -5 -1 -14 -7
-8 -8 -17 -3 -20 13 -8 35 20 27 34 -3 5 -2 10 3 10 20 0 20 28 1 49 -11 12
-15 21 -8 21 16 0 38 -31 39 -52 0 -9 4 -20 10 -23 6 -4 7 1 3 12 -6 16 -5 16
11 4 9 -8 15 -19 12 -26 -2 -6 5 -22 15 -36 15 -20 19 -21 19 -6 0 9 -4 17
-10 17 -5 0 -9 16 -7 35 1 19 4 35 7 35 3 0 14 -16 24 -35 18 -34 36 -46 36
-25 0 6 -4 10 -8 10 -16 0 -33 50 -23 68 6 11 2 29 -12 59 -22 42 -28 48 -40
37z"/>
<path d="M2716 1467 c-16 -12 -15 -16 8 -77 21 -57 23 -72 14 -119 -5 -29 -7
-55 -4 -58 3 -3 8 13 12 36 4 24 12 41 20 41 9 0 10 8 4 31 -5 18 -7 35 -5 40
3 4 0 9 -5 11 -6 2 -12 13 -13 26 0 12 -5 22 -10 22 -5 0 -7 7 -4 14 4 11 1
13 -11 9 -15 -6 -14 -3 2 15 21 25 18 28 -8 9z"/>
<path d="M1190 1450 c12 -7 12 -12 -5 -29 -10 -12 -15 -24 -10 -29 4 -4 10 -2
12 4 2 6 11 20 19 30 14 18 15 18 8 -6 -6 -23 -5 -24 11 -10 16 13 16 15 -5
32 -12 10 -27 18 -34 18 -6 0 -4 -4 4 -10z"/>
<path d="M1868 1448 c-5 -14 14 -58 25 -58 4 0 7 7 7 15 0 8 -4 15 -10 15 -5
0 -7 6 -4 14 3 8 1 17 -4 20 -6 3 -12 1 -14 -6z"/>
<path d="M2452 1444 c-12 -8 -22 -19 -22 -24 0 -14 48 10 54 26 7 18 -4 18
-32 -2z"/>
<path d="M1023 1419 c-4 -15 -8 -17 -13 -8 -5 7 -15 9 -26 4 -17 -8 -17 -9 4
-12 14 -3 22 -12 22 -24 0 -10 4 -19 9 -19 5 0 7 9 4 19 -3 13 2 21 15 25 28
9 34 32 10 33 -13 1 -22 -6 -25 -18z"/>
<path d="M2251 1422 c-1 -8 -8 -11 -19 -8 -12 4 -26 -1 -37 -14 -10 -11 -13
-20 -7 -20 7 0 12 5 12 10 0 15 21 12 39 -4 14 -13 19 -13 35 0 16 12 17 14 4
14 -9 0 -19 8 -21 18 -3 9 -5 11 -6 4z"/>
<path d="M2951 1412 c-1 -7 4 -22 9 -33 7 -13 7 -19 0 -19 -5 0 -10 -7 -10
-16 0 -25 35 -12 36 14 1 12 -3 25 -8 28 -4 3 -5 10 -2 16 4 6 2 8 -4 4 -5 -3
-13 0 -15 6 -4 10 -6 10 -6 0z"/>
<path d="M1711 1405 c0 -5 6 -21 14 -35 11 -20 14 -21 15 -7 0 10 5 15 10 12
6 -3 10 -1 10 4 0 6 -9 11 -19 11 -11 0 -22 6 -24 13 -3 6 -6 8 -6 2z"/>
<path d="M1391 1388 c12 -11 13 -55 8 -293 -3 -154 -5 -281 -4 -283 7 -10 25
223 26 336 1 113 3 129 11 92 5 -27 6 -140 2 -280 -4 -129 -8 -246 -8 -260 -1
-16 -14 -38 -36 -58 -28 -26 -30 -30 -10 -20 41 21 80 55 80 70 0 8 5 19 12
26 9 9 9 12 -3 12 -12 0 -14 14 -11 73 2 39 8 77 14 82 8 7 9 6 4 -2 -4 -7 -3
-13 3 -13 5 0 13 -24 16 -54 8 -64 -2 -146 -16 -125 -7 11 -9 11 -9 -3 0 -24
16 -30 30 -13 10 12 11 53 6 178 -4 89 -9 173 -10 187 -2 14 -5 52 -6 85 l-3
60 -6 -45 -6 -45 -8 64 c-4 35 -7 80 -7 101 0 20 -7 45 -15 56 -8 10 -15 28
-15 38 0 10 -8 25 -17 32 -23 17 -42 18 -22 2z"/>
<path d="M1680 1392 c0 -5 3 -12 8 -16 7 -7 8 -12 11 -38 1 -8 4 -9 11 -2 7 7
6 19 -2 37 -12 26 -28 36 -28 19z"/>
<path d="M392 1382 c-10 -3 -8 -8 5 -17 18 -13 43 -4 43 16 0 17 -20 9 -21 -8
0 -16 -1 -16 -7 -2 -4 9 -13 14 -20 11z"/>
<path d="M976 1376 c3 -9 -3 -17 -15 -21 -12 -3 -19 -11 -16 -16 4 -5 14 -5
25 1 13 7 21 7 25 -1 4 -6 -2 -13 -14 -16 -12 -3 -21 -9 -21 -14 0 -12 13 -11
44 1 17 6 26 6 26 0 0 -6 7 -10 16 -10 8 0 12 -4 9 -10 -3 -6 1 -7 9 -4 9 4
16 1 16 -6 0 -7 7 -10 15 -6 8 3 15 1 15 -5 0 -6 5 -7 10 -4 24 15 0 32 -54
39 -11 2 -22 8 -24 14 -2 7 -10 12 -18 12 -9 0 -13 4 -10 9 3 5 -1 11 -9 15
-8 3 -15 12 -15 21 0 8 -4 15 -10 15 -5 0 -7 -6 -4 -14z"/>
<path d="M2310 1380 c0 -6 -4 -9 -9 -6 -5 3 -14 -1 -20 -8 -10 -11 -9 -16 4
-24 9 -5 18 -21 18 -35 2 -25 17 -40 17 -16 0 5 6 7 13 3 8 -5 8 -2 -2 9 -7 9
-10 17 -5 17 5 0 1 7 -10 15 -10 8 -15 19 -11 26 6 8 13 5 25 -11 9 -12 20
-19 23 -14 3 5 -5 20 -19 33 -13 13 -24 18 -24 11z"/>
<path d="M1296 1354 c6 -24 5 -26 -17 -19 l-24 7 22 -21 c25 -24 37 -27 30 -8
-2 6 0 20 5 30 6 11 5 17 -2 17 -6 0 -8 5 -5 10 3 6 1 10 -5 10 -6 0 -8 -10
-4 -26z"/>
<path d="M2063 1373 c-7 -3 -13 -11 -13 -19 0 -9 -4 -13 -9 -10 -5 3 -12 -2
-16 -12 -7 -16 -8 -16 -14 0 -4 11 -11 14 -19 9 -10 -6 -8 -11 5 -23 17 -15
20 -14 51 13 32 29 40 50 15 42z"/>
<path d="M34 1345 c5 -19 3 -23 -9 -19 -16 6 -21 -11 -6 -20 13 -9 44 31 38
49 -10 26 -30 18 -23 -10z"/>
<path d="M1762 1357 c-15 -18 -4 -57 16 -57 12 0 13 3 4 12 -7 7 -12 19 -12
27 0 11 4 10 15 -5 15 -19 20 -8 9 20 -7 19 -18 20 -32 3z"/>
<path d="M2136 1353 c-3 -3 0 -13 7 -21 10 -13 9 -14 -9 -8 -28 9 -50 -16 -26
-29 13 -8 24 -4 45 17 27 25 27 27 9 37 -11 6 -22 7 -26 4z"/>
<path d="M2250 1346 c0 -9 -4 -15 -9 -12 -5 4 -16 3 -25 0 -13 -5 -14 -9 -5
-20 6 -8 16 -14 21 -14 6 0 5 7 -2 15 -11 13 -10 14 4 9 16 -6 35 21 22 33 -3
4 -6 -1 -6 -11z"/>
<path d="M491 1341 c-25 -7 -42 -31 -22 -31 6 0 11 5 11 11 0 6 8 8 19 4 11
-3 22 -1 25 4 9 14 -5 19 -33 12z"/>
<path d="M1640 1330 c0 -6 5 -20 11 -31 8 -15 14 -18 24 -9 9 8 14 7 19 -5 4
-10 -1 -15 -14 -15 -12 0 -18 -6 -17 -19 1 -17 4 -18 17 -8 38 30 40 34 21 51
-10 9 -25 16 -35 16 -9 0 -15 4 -11 9 3 5 1 12 -5 16 -5 3 -10 1 -10 -5z"/>
<path d="M1720 1325 c-10 -12 -10 -18 0 -30 7 -8 16 -15 21 -15 11 0 11 31 0
48 -6 10 -10 10 -21 -3z"/>
<path d="M1206 1316 c6 -15 42 -28 56 -20 15 10 -3 25 -23 19 -11 -4 -19 -2
-19 4 0 6 -4 11 -10 11 -5 0 -7 -6 -4 -14z"/>
<path d="M1942 1317 c-14 -16 -4 -57 13 -57 6 0 19 8 29 18 15 18 15 20 -2 35
-22 20 -26 21 -40 4z"/>
<path d="M2255 1310 c-3 -5 1 -10 9 -10 9 0 16 -5 16 -11 0 -6 -6 -9 -13 -6
-8 3 -20 1 -27 -3 -9 -6 -19 -2 -28 11 -18 26 -42 25 -35 -2 4 -14 8 -17 13
-9 5 9 9 9 14 1 13 -21 -26 -25 -41 -5 -14 19 -15 19 -11 -1 3 -16 11 -20 40
-20 20 0 40 -3 44 -7 4 -5 12 -8 18 -8 7 0 7 3 -1 8 -8 5 -9 13 -3 22 7 10 10
11 10 3 0 -18 17 -16 24 2 11 29 -14 60 -29 35z"/>
<path d="M705 1300 c-8 -13 3 -30 21 -30 18 0 18 14 0 29 -10 8 -16 9 -21 1z"/>
<path d="M1978 1259 c-38 -27 -68 -53 -68 -58 0 -5 7 -14 15 -21 12 -10 18
-10 30 0 8 6 19 9 25 5 5 -3 10 -2 10 3 0 14 -28 23 -35 12 -4 -6 -13 -10 -22
-10 -13 0 -11 5 8 23 13 13 26 23 29 23 3 -1 14 7 25 17 11 10 31 27 45 37 14
11 21 19 15 19 -5 0 -40 -22 -77 -50z"/>
<path d="M1366 1275 c9 -14 12 -25 6 -25 -6 0 -12 6 -15 13 -2 6 -8 8 -13 4
-5 -5 -1 -14 9 -21 13 -10 17 -28 17 -79 0 -68 -14 -93 -35 -64 -8 11 -16 13
-26 6 -12 -8 -12 -10 1 -18 8 -5 18 -7 22 -5 12 8 9 -11 -4 -24 -9 -9 -9 -12
1 -12 7 0 10 -4 7 -9 -4 -5 3 -7 14 -4 22 6 28 -12 8 -20 -10 -3 -10 -8 -2
-16 9 -10 13 -6 18 15 5 20 3 30 -8 36 -8 5 -13 15 -9 24 3 10 9 11 17 5 9 -7
12 17 15 96 2 80 -1 108 -11 114 -24 16 -29 9 -12 -16z"/>
<path d="M2075 1290 c3 -6 -2 -10 -12 -10 -10 0 -26 -7 -36 -14 -16 -13 -15
-16 21 -45 36 -28 41 -29 53 -14 12 14 11 15 -11 8 -24 -7 -24 -6 -8 11 13 13
20 15 31 6 9 -7 23 -8 43 -3 16 5 23 10 15 10 -8 1 -23 9 -33 18 -17 15 -21
15 -58 -6 -22 -12 -40 -18 -40 -12 0 6 14 17 30 26 34 18 36 21 14 29 -8 3
-12 2 -9 -4z"/>
<path d="M2365 1285 c20 -16 19 -16 -4 -9 -16 4 -21 3 -17 -5 9 -13 66 -15 66
-2 0 12 -19 25 -45 29 -20 3 -20 3 0 -13z"/>
<path d="M895 1265 c17 -14 37 -25 46 -25 22 0 44 26 29 35 -5 3 -10 2 -10 -3
0 -21 -34 -22 -55 -2 -12 11 -25 20 -31 20 -5 -1 5 -12 21 -25z"/>
<path d="M2510 1281 c0 -5 -9 -7 -20 -4 -11 3 -20 1 -20 -5 0 -17 21 -25 32
-14 6 6 17 8 24 5 8 -3 14 1 14 11 0 9 -7 16 -15 16 -8 0 -15 -4 -15 -9z"/>
<path d="M1764 1269 c-3 -6 -2 -15 4 -21 13 -13 32 -2 32 18 0 16 -26 19 -36
3z"/>
<path d="M1824 1269 c-3 -6 -2 -15 4 -21 13 -13 32 -2 32 18 0 16 -26 19 -36
3z"/>
<path d="M745 1260 c-8 -13 3 -30 18 -30 7 0 6 4 -3 10 -12 8 -9 10 13 10 16
0 26 4 22 10 -3 6 -15 10 -25 10 -10 0 -22 -4 -25 -10z"/>
<path d="M1138 1262 c-2 -4 -16 -17 -32 -30 -16 -12 -26 -22 -23 -22 14 0 57
24 57 31 0 5 7 6 15 3 8 -4 12 -10 9 -15 -3 -5 2 -6 10 -3 9 3 16 1 16 -5 0
-6 -7 -11 -17 -11 -14 0 -14 -2 2 -20 10 -11 24 -20 32 -20 7 0 13 -5 13 -10
0 -6 8 -5 20 2 11 7 20 19 20 27 0 12 -3 12 -12 3 -18 -18 -59 -16 -51 4 3 8
12 13 19 10 8 -3 14 1 14 9 0 7 -13 16 -30 20 -16 4 -30 10 -30 15 0 10 -28
21 -32 12z"/>
<path d="M1720 1253 c0 -10 12 -26 25 -36 22 -15 25 -16 25 -2 0 8 -6 15 -14
15 -9 0 -12 7 -9 20 4 14 0 20 -11 20 -9 0 -16 -8 -16 -17z"/>
<path d="M1792 1237 c-9 -11 -8 -18 7 -31 15 -14 20 -14 25 -4 3 7 3 3 0 -9
-3 -13 -1 -23 4 -23 11 0 35 50 27 58 -3 3 -5 -1 -5 -8 0 -9 -8 -6 -23 9 -20
18 -26 19 -35 8z"/>
<path d="M2365 1234 c-11 -8 -19 -19 -18 -23 1 -4 -11 -12 -26 -18 -25 -9 -28
-8 -24 8 4 15 0 19 -18 18 -17 -1 -19 -3 -6 -6 20 -5 22 -14 5 -31 -9 -9 -9
-12 3 -12 7 0 34 -18 58 -41 24 -22 46 -38 49 -34 3 3 -10 21 -30 39 l-36 34
27 26 c17 16 34 24 43 21 21 -8 35 15 17 26 -18 11 -20 11 -44 -7z"/>
<path d="M711 1223 c-11 -12 -15 -12 -22 -2 -4 7 -11 10 -14 7 -13 -13 7 -28
31 -25 24 3 29 9 22 26 -2 5 -9 2 -17 -6z"/>
<path d="M793 1226 c-4 -8 -17 -15 -28 -17 -10 -2 -22 -15 -25 -29 -6 -24 -6
-24 -17 -5 -6 11 -14 17 -17 14 -10 -10 5 -39 19 -39 17 0 38 27 30 39 -4 7 0
8 11 4 11 -4 23 2 35 18 10 13 19 18 19 12 0 -7 5 -13 11 -13 8 0 8 5 -1 15
-16 19 -27 19 -37 1z"/>
<path d="M960 1230 c-12 -7 -12 -12 -2 -22 10 -10 15 -10 22 2 5 8 10 18 10
23 0 10 -12 9 -30 -3z"/>
<path d="M2494 1225 c-4 -8 -9 -13 -13 -11 -4 3 -13 1 -20 -3 -9 -6 -10 -11
-2 -15 5 -4 19 2 30 13 11 11 22 17 25 14 3 -4 6 -1 6 5 0 17 -20 15 -26 -3z"/>
<path d="M2743 1197 c-11 -23 -23 -60 -27 -83 -9 -60 -59 -227 -99 -326 -26
-66 -32 -88 -21 -88 8 0 14 -7 14 -15 0 -18 -17 -20 -23 -2 -2 6 -18 -49 -35
-123 -42 -184 -55 -251 -48 -257 7 -7 10 4 26 79 6 32 16 60 21 64 6 3 8 -4 5
-18 -3 -12 -8 -41 -11 -63 -4 -22 -10 -44 -14 -50 -8 -10 -31 -96 -31 -112 1
-4 7 7 15 25 13 29 35 44 35 23 0 -14 -43 -115 -55 -131 -7 -8 -15 -38 -18
-67 -6 -50 -5 -52 16 -44 15 6 25 21 30 47 5 21 20 75 33 120 28 93 30 124 9
124 -8 0 -15 5 -15 11 0 6 7 9 15 5 12 -4 15 3 15 34 0 22 7 86 15 141 9 56
13 116 9 134 -5 27 -2 33 16 38 15 4 20 11 16 24 -15 52 -13 76 11 131 15 31
27 59 28 62 1 3 5 19 9 35 4 17 10 37 13 45 4 8 5 19 4 24 -1 4 2 13 7 20 5 6
15 43 22 81 7 39 19 88 27 109 18 53 11 55 -14 3z"/>
<path d="M1662 1208 c-17 -17 -15 -38 3 -38 8 0 15 6 15 13 0 8 3 7 9 -3 13
-19 4 -31 -17 -23 -14 5 -15 3 -4 -8 19 -21 48 11 33 39 -6 10 -7 22 -4 26 3
3 0 6 -8 6 -8 0 -20 -5 -27 -12z"/>
<path d="M2049 1193 c13 -26 14 -33 3 -33 -5 0 -13 10 -19 22 l-10 23 -12 -23
c-10 -20 -9 -22 11 -22 23 -1 23 -1 -4 -23 -16 -13 -28 -31 -28 -41 0 -15 3
-16 15 -6 8 7 15 16 15 21 0 5 13 22 29 37 l30 27 -21 20 -21 20 12 -22z"/>
<path d="M1050 1189 c-12 -8 -10 -9 9 -4 21 7 23 5 17 -18 -4 -16 -1 -29 9
-37 8 -7 15 -19 15 -26 0 -8 5 -14 11 -14 5 0 7 -4 4 -10 -3 -5 -13 -10 -21
-10 -11 0 -13 6 -9 20 7 22 -10 28 -18 6 -11 -28 28 -47 51 -24 13 13 0 45
-27 64 -13 10 -12 12 8 19 21 6 22 8 5 26 -19 21 -32 23 -54 8z"/>
<path d="M1762 1185 c-12 -9 -22 -21 -22 -26 0 -17 29 -21 49 -7 17 12 19 18
8 32 -11 15 -14 15 -35 1z"/>
<path d="M1867 1193 c-13 -12 -7 -54 9 -60 9 -3 23 2 32 12 16 16 16 17 -5 6
-24 -12 -31 -3 -12 16 6 6 8 16 5 22 -8 12 -20 14 -29 4z"/>
<path d="M2106 1185 c-8 -9 -13 -22 -9 -31 8 -21 29 -11 25 11 -3 15 -1 17 11
7 7 -6 17 -9 20 -5 4 3 7 1 7 -6 0 -6 -7 -14 -15 -17 -8 -4 -12 -10 -9 -15 3
-5 10 -7 15 -3 6 3 16 -2 24 -12 7 -11 17 -16 21 -12 4 5 0 16 -9 26 -10 10
-17 23 -17 29 0 10 -32 43 -43 43 -3 0 -12 -7 -21 -15z"/>
<path d="M2359 1180 c-13 -10 -19 -19 -13 -20 6 0 21 -9 34 -20 27 -24 42 -26
34 -5 -4 8 -12 15 -20 15 -8 0 -14 8 -14 18 0 12 7 18 24 17 28 0 48 -15 21
-15 -15 0 -16 -3 -7 -12 16 -16 37 4 29 26 -9 22 -60 20 -88 -4z"/>
<path d="M948 1173 c6 -2 9 -10 5 -16 -4 -7 -8 -18 -9 -25 -3 -18 38 -11 44 7
3 10 -2 11 -19 6 -20 -7 -22 -6 -12 7 13 15 8 29 -11 27 -6 0 -5 -3 2 -6z"/>
<path d="M2220 1151 c-24 -19 -24 -20 -5 -41 19 -21 19 -21 -10 -45 -17 -13
-34 -24 -39 -25 -5 0 -1 -9 9 -20 20 -22 4 -28 -17 -6 -12 12 -18 12 -39 -1
-23 -13 -23 -14 -1 -8 16 5 22 2 22 -9 0 -18 31 -21 47 -5 13 13 33 4 33 -16
0 -7 10 -15 23 -19 24 -6 88 -66 70 -66 -6 0 -25 12 -42 26 -39 33 -41 17 -2
-17 21 -18 34 -23 45 -17 11 6 16 5 16 -4 0 -39 -84 -4 -102 41 -6 16 -12 21
-15 13 -3 -7 1 -19 7 -27 9 -11 10 -15 1 -15 -7 0 -9 -5 -6 -10 4 -6 10 -8 15
-5 13 8 39 -5 36 -18 -1 -7 -1 -9 1 -5 2 4 11 4 19 1 17 -6 19 -50 2 -56 -7
-2 -9 -8 -5 -13 4 -5 12 -3 16 4 4 7 15 10 24 6 9 -3 17 -2 17 4 0 5 -7 12
-15 16 -15 5 -21 36 -7 36 15 0 43 -42 38 -56 -3 -8 -1 -14 4 -14 10 0 12 5
14 33 1 6 9 18 19 25 9 7 16 21 16 30 -1 15 -2 15 -6 1 -5 -19 -37 -31 -59
-22 -11 4 -12 9 -4 18 8 10 4 20 -15 40 -14 16 -25 32 -25 36 0 17 19 9 39
-17 17 -22 23 -24 36 -14 8 7 15 16 15 20 0 13 -48 59 -54 52 -4 -3 6 -16 21
-28 16 -12 25 -26 20 -30 -4 -4 -20 4 -35 19 -19 18 -31 24 -38 17 -7 -7 -21
-5 -42 6 -32 15 -35 21 -33 59 1 19 0 19 -7 2 -7 -17 -9 -17 -21 -4 -10 13 -9
18 10 27 17 10 23 9 31 -1 5 -9 6 -4 2 15 -5 21 -4 27 5 22 6 -4 11 -13 11
-19 0 -17 40 -50 48 -41 4 4 1 9 -5 11 -7 3 -13 11 -13 19 0 12 4 12 20 4 15
-8 25 -7 41 4 13 9 16 16 10 21 -6 3 -11 3 -11 -2 0 -4 -6 3 -13 17 -8 14 -19
24 -25 23 -7 -2 -12 4 -12 12 0 17 -25 21 -35 5 -3 -5 12 -21 35 -36 22 -15
40 -31 40 -35 0 -16 -12 -10 -57 27 -32 26 -41 40 -34 47 13 13 14 27 4 27 -5
0 -19 -9 -33 -19z"/>
<path d="M670 1150 c-8 -5 -10 -10 -5 -10 6 0 4 -4 -4 -9 -11 -7 -10 -13 8
-32 16 -18 21 -19 21 -7 0 9 -5 18 -12 20 -8 3 -8 9 -1 23 10 17 11 17 17 -3
4 -12 15 -22 24 -22 14 0 14 2 2 13 -8 6 -19 18 -25 24 -7 9 -15 10 -25 3z"/>
<path d="M1706 1141 c-16 -18 -13 -31 8 -31 6 0 4 5 -4 10 -17 11 -1 13 25 4
14 -6 14 -8 -1 -25 -16 -18 -18 -18 -38 -2 -12 10 -18 14 -14 9 4 -5 3 -15 -3
-22 -8 -10 -7 -18 5 -29 20 -21 20 -29 1 -21 -8 3 -15 1 -15 -4 0 -19 18 -19
35 0 16 18 16 20 1 26 -9 3 -16 13 -16 22 0 12 6 10 27 -9 15 -13 21 -16 14
-6 -12 15 -10 17 17 17 17 0 34 5 38 12 5 8 2 9 -9 5 -9 -3 -16 -3 -14 1 1 4
-8 20 -19 34 -21 26 -22 27 -38 9z"/>
<path d="M1958 1144 c12 -8 27 -12 32 -9 17 10 1 25 -28 25 l-26 0 22 -16z"/>
<path d="M1792 1138 c-15 -15 2 -38 28 -38 19 0 34 25 24 41 -7 13 -38 11 -52
-3z"/>
<path d="M1910 1126 c-8 -11 -9 -20 -1 -33 9 -16 11 -14 12 12 1 26 2 27 7 8
6 -19 9 -20 25 -8 18 13 18 14 -2 24 -25 14 -26 14 -41 -3z"/>
<path d="M345 1110 c-3 -4 1 -11 7 -13 10 -4 10 -6 1 -6 -7 -1 -13 -6 -13 -12
0 -8 4 -8 14 0 11 10 16 8 24 -6 6 -10 13 -15 17 -11 3 3 -5 17 -19 31 -14 14
-28 22 -31 17z"/>
<path d="M1248 1113 c-10 -2 -18 -11 -18 -19 0 -11 5 -11 25 -2 14 6 25 15 25
20 0 8 -4 9 -32 1z"/>
<path d="M1852 1099 c-12 -18 -11 -24 1 -37 9 -8 23 -12 31 -9 18 7 22 37 5
37 -6 0 -9 -6 -6 -13 3 -8 -1 -14 -9 -14 -16 0 -19 23 -4 32 6 3 10 10 10 16
0 16 -15 10 -28 -12z"/>
<path d="M834 1095 c-4 -8 -12 -15 -20 -15 -8 0 -14 -4 -14 -10 0 -5 7 -10 15
-10 8 0 15 5 15 10 0 6 7 10 15 10 8 0 15 7 15 15 0 8 -5 15 -10 15 -6 0 -13
-7 -16 -15z"/>
<path d="M1178 1099 c-21 -12 -24 -39 -4 -39 7 0 19 7 26 15 17 21 1 37 -22
24z"/>
<path d="M2139 1090 c-14 -15 -14 -19 -1 -36 13 -18 14 -18 7 4 -5 16 -2 22 9
22 9 0 16 4 16 9 0 18 -15 18 -31 1z"/>
<path d="M2412 1094 c-8 -9 -11 -22 -6 -32 6 -14 8 -14 12 6 3 18 8 22 25 16
19 -6 20 -5 8 10 -16 20 -22 20 -39 0z"/>
<path d="M2964 1090 c-6 -6 -44 -20 -85 -31 -90 -25 -111 -40 -37 -27 75 14
151 41 156 56 4 15 -20 16 -34 2z"/>
<path d="M865 1070 c-20 -23 -19 -29 6 -23 16 4 17 8 7 14 -9 6 -7 9 10 9 12
0 22 4 22 8 0 15 -29 9 -45 -8z"/>
<path d="M1256 1074 c-18 -17 -21 -34 -7 -34 5 0 16 -3 25 -6 9 -3 16 -1 16 5
0 6 -8 11 -17 11 -17 1 -17 1 0 11 18 11 23 29 8 29 -5 0 -17 -7 -25 -16z"/>
<path d="M1797 1062 c-17 -18 -16 -20 7 -35 22 -15 26 -15 37 -1 10 12 9 19
-7 35 -20 19 -21 19 -37 1z"/>
<path d="M12 1065 c9 -9 150 -46 155 -41 3 2 -25 14 -62 25 -65 20 -104 27
-93 16z"/>
<path d="M592 1057 c-18 -23 -42 -77 -35 -77 5 0 16 19 27 41 13 29 21 38 29
30 15 -15 30 -14 25 1 -6 16 -35 19 -46 5z"/>
<path d="M751 1047 c-23 -25 -27 -37 -11 -37 6 0 10 7 10 15 0 8 9 15 20 15
20 0 27 14 11 24 -4 3 -18 -5 -30 -17z"/>
<path d="M323 1029 c-5 -16 -8 -18 -15 -7 -7 9 -8 4 -4 -14 11 -51 26 -79 37
-72 8 4 9 0 4 -15 -5 -15 -2 -21 9 -21 19 0 20 5 5 31 -5 11 -15 16 -21 13 -8
-5 -9 -1 -5 11 4 9 3 23 -3 30 -7 9 -7 21 0 39 5 14 7 26 4 26 -3 0 -8 -9 -11
-21z"/>
<path d="M1730 1031 c0 -15 18 -22 25 -11 4 7 14 3 26 -11 11 -12 22 -19 26
-15 4 4 -3 16 -17 26 -26 21 -60 26 -60 11z"/>
<path d="M10 1020 c-6 -4 -10 -20 -8 -38 2 -27 7 -32 53 -46 27 -8 68 -18 90
-20 39 -6 39 -6 8 4 -39 12 -45 23 -8 14 15 -4 25 -2 25 4 0 11 -56 28 -78 23
-16 -3 -82 29 -82 40 0 13 16 11 99 -11 40 -10 70 -15 65 -10 -15 13 -152 47
-164 40z"/>
<path d="M2251 1021 c-12 -8 -12 -12 -3 -24 15 -18 52 -29 52 -16 0 5 -10 9
-21 9 -16 0 -20 5 -16 20 3 11 4 20 4 20 -1 0 -8 -4 -16 -9z"/>
<path d="M666 1005 c4 -10 2 -13 -8 -10 -8 3 -21 -1 -28 -10 -15 -18 -11 -19
24 -6 17 7 26 7 29 -2 2 -7 8 -8 13 -3 5 5 4 11 -3 13 -7 3 -13 11 -13 19 0 8
-4 14 -10 14 -5 0 -7 -7 -4 -15z"/>
<path d="M778 1013 c-27 -7 -21 -23 7 -21 14 1 25 8 25 15 0 13 -3 14 -32 6z"/>
<path d="M1650 1007 c0 -20 -11 -22 -28 -5 -9 9 -12 8 -12 -5 0 -19 26 -22 50
-7 12 7 12 12 2 22 -9 9 -12 9 -12 -5z"/>
<path d="M1960 1000 c0 -8 -8 -10 -21 -7 -15 4 -19 3 -12 -4 13 -13 54 -8 54
6 0 5 -4 11 -10 13 -6 2 -11 -2 -11 -8z"/>
<path d="M1173 988 c2 -7 -3 -18 -12 -25 -14 -11 -14 -12 0 -13 15 0 39 18 39
31 0 4 -7 10 -16 13 -10 4 -14 1 -11 -6z"/>
<path d="M1750 985 c0 -8 7 -15 16 -15 14 0 14 -3 4 -15 -15 -18 1 -20 18 -3
9 9 8 16 -5 30 -20 22 -33 23 -33 3z"/>
<path d="M2407 983 c-11 -10 -8 -41 5 -49 8 -5 9 -2 5 9 -3 9 1 23 9 32 13 12
13 15 1 15 -7 0 -17 -3 -20 -7z"/>
<path d="M956 973 c-10 -10 -7 -25 3 -18 5 3 12 1 16 -5 8 -13 25 -13 25 0 0
12 -35 31 -44 23z"/>
<path d="M1354 955 c-3 -8 -14 -17 -25 -20 -18 -6 -28 -27 -11 -23 15 3 42
-14 36 -24 -3 -5 -11 -4 -20 3 -9 7 -14 8 -14 1 0 -6 6 -12 13 -15 9 -3 9 -9
0 -25 -8 -13 -9 -23 -3 -27 15 -9 12 -27 -2 -19 -10 5 -10 4 -2 -5 14 -15 7
-51 -10 -51 -6 0 -3 -5 7 -11 14 -8 22 -8 30 1 7 7 8 10 2 7 -6 -3 -10 8 -10
24 0 34 12 39 18 7 2 -13 4 14 4 60 0 64 -3 82 -13 78 -7 -3 -16 -1 -19 4 -3
5 4 11 15 15 11 3 20 13 20 21 0 18 -9 18 -16 -1z"/>
<path d="M903 948 c4 -12 1 -18 -8 -18 -8 0 -15 -7 -15 -15 0 -18 11 -19 33
-2 15 11 15 14 0 32 -13 16 -15 17 -10 3z"/>
<path d="M1195 946 c-11 -8 -14 -15 -7 -20 12 -7 42 3 42 14 0 16 -17 19 -35
6z"/>
<path d="M1804 945 c-9 -22 8 -37 23 -20 10 10 9 16 -2 25 -12 10 -16 9 -21
-5z"/>
<path d="M1700 925 c-6 -8 -8 -20 -4 -26 5 -9 11 -7 21 6 23 33 9 51 -17 20z"/>
<path d="M2918 922 c-21 -9 -38 -23 -38 -31 0 -11 5 -9 21 5 12 10 37 24 58
30 20 7 27 12 16 12 -11 1 -37 -7 -57 -16z"/>
<path d="M0 917 c1 -34 35 -51 120 -61 51 -5 52 -5 20 6 l-35 11 30 7 c31 8
25 11 -38 16 -21 2 -52 10 -68 18 -20 10 -29 11 -29 3z"/>
<path d="M2090 925 c0 -6 11 -19 25 -29 14 -10 25 -25 25 -32 0 -8 5 -14 10
-14 6 0 10 -7 10 -15 0 -9 -9 -15 -21 -15 -16 0 -20 5 -16 20 6 24 -8 27 -17
4 -4 -11 1 -22 12 -30 11 -7 22 -27 25 -44 4 -16 12 -30 18 -30 8 0 8 4 2 13
-6 6 -13 22 -16 35 -4 17 -1 22 14 22 10 0 19 6 19 13 0 15 -89 116 -90 102z"/>
<path d="M1732 888 c-16 -16 -15 -35 3 -42 8 -3 15 -1 15 4 0 6 -5 10 -12 10
-6 0 -4 6 7 13 10 8 14 17 8 20 -5 3 -15 1 -21 -5z"/>
<path d="M1087 864 c3 -8 -1 -14 -11 -14 -9 0 -16 -4 -16 -10 0 -5 7 -10 15
-10 8 0 15 5 15 10 0 6 7 10 15 10 22 0 18 17 -4 23 -14 3 -18 1 -14 -9z"/>
<path d="M1920 845 c0 -8 4 -15 9 -15 5 0 11 -10 14 -22 4 -12 9 -20 11 -17 8
7 -16 69 -26 69 -4 0 -8 -7 -8 -15z"/>
<path d="M2208 852 c-10 -2 -18 -7 -18 -12 0 -4 10 -6 21 -3 16 5 20 2 17 -8
-3 -8 -11 -13 -17 -11 -16 3 -14 -13 4 -28 12 -10 13 -16 4 -27 -7 -8 -18 -12
-26 -9 -8 3 -11 1 -8 -4 3 -6 13 -10 21 -10 11 0 13 -6 9 -20 -4 -13 -2 -20 5
-18 7 2 15 -3 17 -10 6 -14 -18 -12 -30 3 -6 6 -10 5 -14 -4 -5 -11 -7 -11
-14 0 -6 9 -12 10 -16 4 -9 -11 -20 -14 -70 -21 l-32 -4 17 30 c9 16 20 30 25
30 4 0 7 5 7 11 0 17 -28 -9 -43 -40 -7 -14 -21 -27 -32 -29 -11 -2 -24 -8
-30 -14 -7 -6 9 -8 45 -5 30 3 45 3 33 0 -13 -2 -23 -9 -23 -14 0 -22 185 17
212 44 7 8 19 12 26 9 6 -2 12 3 12 11 0 24 -12 27 -30 7 -16 -19 -17 -19 -33
1 -19 21 -23 59 -7 59 6 0 10 -4 10 -10 0 -5 7 -10 16 -10 13 0 14 3 4 15 -6
8 -9 19 -5 25 10 15 -37 66 -57 62z"/>
<path d="M2916 841 c-22 -10 -36 -20 -30 -23 5 -3 29 5 54 18 52 27 34 31 -24
5z"/>
<path d="M0 832 c0 -15 11 -21 50 -29 27 -6 47 -6 44 -1 -3 4 9 8 27 8 50 0
21 20 -35 25 -26 2 -55 7 -66 10 -15 5 -20 2 -20 -13z"/>
<path d="M990 820 c-12 -16 -16 -30 -10 -30 6 0 8 -4 5 -10 -3 -5 -1 -10 5
-10 7 0 9 8 5 20 -6 17 -3 19 23 14 19 -4 32 -1 37 7 6 9 3 11 -9 6 -22 -9
-43 2 -26 13 8 5 9 10 2 14 -6 3 -20 -7 -32 -24z"/>
<path d="M375 811 c22 -70 39 -94 98 -138 64 -48 151 -92 224 -113 24 -7 40
-17 36 -23 -3 -6 -1 -7 5 -3 7 4 27 4 45 1 29 -6 33 -10 29 -31 -4 -24 11 -33
23 -14 3 6 1 10 -4 10 -6 0 -11 5 -11 10 0 6 9 10 20 10 11 0 20 -4 20 -10 0
-5 7 -7 15 -4 8 4 23 3 32 0 13 -5 14 -9 4 -19 -9 -9 -14 -9 -19 0 -5 7 -13 9
-21 4 -9 -6 -10 -11 -2 -15 6 -4 11 -4 11 0 0 4 7 -1 15 -12 9 -12 14 -14 15
-6 0 21 32 50 38 34 3 -10 7 -10 19 -1 12 10 16 10 24 -2 22 -35 -3 -78 -27
-45 -16 22 -25 22 -37 1 -11 -20 1 -35 12 -16 7 11 12 8 21 -9 12 -22 14 -22
25 -7 7 9 18 17 24 17 8 0 10 8 6 20 -3 11 -3 25 1 31 4 7 11 -1 18 -22 9 -26
17 -33 39 -35 25 -1 28 2 23 21 -7 27 3 38 21 24 9 -8 13 -8 13 0 0 7 8 8 24
1 15 -5 27 -5 34 2 8 8 15 8 24 1 7 -5 27 -8 45 -6 19 1 40 -4 54 -16 20 -16
21 -21 10 -35 -8 -9 -10 -23 -6 -33 5 -10 7 -24 6 -30 -1 -7 5 -13 14 -13 9 0
15 -6 12 -12 -2 -7 -10 -12 -16 -11 -6 2 -11 -2 -11 -7 0 -6 4 -10 10 -10 11
0 9 -28 -4 -49 -5 -7 -5 -16 0 -20 5 -3 9 -12 10 -18 2 -30 5 -34 17 -27 6 4
1 -5 -12 -19 -14 -15 -19 -27 -13 -27 7 0 12 -5 12 -11 0 -6 -9 -8 -22 -4 -23
7 -23 7 -3 -8 11 -8 23 -13 27 -11 5 3 8 -2 8 -10 0 -8 4 -17 9 -20 5 -4 9 22
10 59 0 35 -3 66 -8 69 -4 3 -6 35 -4 72 3 56 1 72 -16 95 -25 34 -26 40 -4
32 13 -5 15 -2 10 18 -4 13 -7 31 -7 40 0 13 -16 17 -82 23 -162 12 -205 17
-325 37 -144 24 -238 54 -341 109 -75 41 -157 99 -149 106 2 2 44 -14 94 -36
141 -62 320 -100 583 -123 l135 -12 3 -27 c3 -24 0 -27 -35 -31 -29 -3 -25 -4
19 -5 l56 -2 -10 33 c-6 17 -13 38 -14 45 -2 7 -8 11 -13 8 -17 -11 -428 36
-529 60 -117 27 -276 102 -331 156 -31 31 -33 31 -26 9z m705 -346 c-9 -11 -9
-15 -1 -15 7 0 9 -5 6 -10 -8 -13 -22 -5 -35 21 -9 17 -7 19 16 19 22 0 25 -2
14 -15z"/>
<path d="M778 813 c-10 -3 -18 -8 -18 -13 0 -5 8 -7 18 -3 14 5 15 3 5 -8 -22
-23 -14 -31 9 -9 23 22 16 39 -14 33z"/>
<path d="M1532 752 c-2 -75 15 -115 60 -138 18 -9 38 -23 46 -31 8 -8 17 -11
20 -8 3 3 -20 29 -51 58 -56 52 -64 68 -70 142 -3 27 -4 20 -5 -23z"/>
<path d="M2061 800 c-1 -8 -12 -28 -26 -44 -27 -31 -28 -47 -4 -55 11 -3 12
-1 2 11 -15 18 -7 28 21 28 17 0 18 2 7 9 -12 8 -12 12 -2 25 7 8 11 21 8 28
-4 9 -6 9 -6 -2z"/>
<path d="M1762 788 c-15 -15 -16 -38 -2 -38 6 0 10 5 10 11 0 7 8 18 18 25 14
11 15 13 2 14 -9 0 -21 -5 -28 -12z"/>
<path d="M2382 780 c-7 -11 -21 -19 -33 -17 -18 2 -22 -4 -25 -35 -3 -27 -1
-38 9 -38 20 0 37 21 37 46 0 12 7 24 15 28 8 3 15 0 15 -6 0 -6 2 -9 5 -6 3
3 2 15 -2 26 -8 21 -9 21 -21 2z"/>
<path d="M0 772 c0 -22 46 -37 140 -47 l55 -6 -43 20 c-23 11 -59 23 -80 27
-20 4 -45 11 -54 16 -14 7 -18 5 -18 -10z"/>
<path d="M1997 759 c-14 -26 -20 -29 -32 -19 -10 9 -15 9 -15 1 0 -6 5 -11 10
-11 6 0 10 -7 10 -15 0 -8 -5 -15 -12 -15 -6 0 -8 -3 -5 -7 4 -3 0 -15 -10
-25 -9 -10 -13 -18 -8 -18 11 0 33 29 49 66 8 17 24 41 37 53 15 14 18 21 8
21 -8 0 -22 -14 -32 -31z"/>
<path d="M2844 765 c-18 -14 -18 -14 9 -15 17 0 27 5 27 15 0 19 -11 19 -36 0z"/>
<path d="M1040 754 c0 -8 5 -12 10 -9 6 3 10 -4 10 -16 0 -19 15 -20 15 -1 0
4 4 13 8 19 6 9 3 11 -7 7 -9 -3 -16 -1 -16 5 0 6 -4 11 -10 11 -5 0 -10 -7
-10 -16z"/>
<path d="M898 753 c6 -2 10 -9 6 -14 -3 -5 -1 -9 4 -9 5 0 8 -13 7 -30 -1 -17
3 -30 10 -30 6 0 12 7 12 15 0 8 -4 15 -9 15 -5 0 -6 4 -3 10 8 13 -13 50 -28
49 -9 0 -9 -2 1 -6z"/>
<path d="M988 755 c-9 -9 23 -45 34 -39 14 9 9 36 -6 31 -8 -3 -16 -1 -18 4
-2 6 -6 7 -10 4z"/>
<path d="M2552 735 c-12 -13 -19 -31 -16 -39 3 -8 -1 -25 -9 -36 -8 -12 -13
-29 -10 -39 3 -10 -3 -33 -11 -50 -13 -23 -13 -31 -4 -31 10 0 10 -2 -1 -9 -7
-5 -11 -13 -7 -19 3 -6 -1 -18 -10 -26 -14 -15 -14 -16 1 -16 9 0 13 -5 10
-10 -4 -6 -11 -8 -16 -5 -5 4 -4 -5 2 -19 9 -19 8 -35 -5 -72 -9 -26 -16 -59
-16 -73 0 -21 -2 -23 -11 -11 -7 11 -8 6 -4 -19 4 -18 3 -31 -1 -28 -5 3 -10
-27 -11 -66 -1 -40 -6 -73 -12 -75 -6 -2 -8 -9 -4 -15 4 -7 6 -26 4 -44 -1
-18 2 -33 7 -33 5 0 12 37 16 83 6 78 70 415 102 540 8 32 12 63 8 68 -4 6 -3
14 2 18 14 10 35 51 26 51 -5 0 -18 -11 -30 -25z"/>
<path d="M786 721 c-17 -18 -16 -20 4 -26 12 -4 27 -1 35 5 12 10 15 9 15 -4
0 -9 5 -16 10 -16 6 0 10 7 10 15 0 8 6 15 14 15 9 0 13 -8 9 -22 -4 -20 -3
-20 6 -6 11 17 5 48 -9 48 -5 0 -12 -5 -15 -10 -4 -6 -15 -8 -26 -5 -10 4 -19
2 -19 -3 0 -5 -7 -9 -15 -9 -20 0 -19 7 3 23 9 7 12 14 6 14 -6 0 -19 -9 -28
-19z"/>
<path d="M0 711 c0 -20 11 -24 103 -37 32 -4 47 -3 47 5 0 6 -3 11 -7 12 -5 0
-15 2 -23 4 -8 2 -30 6 -49 9 -19 4 -42 11 -52 17 -16 8 -19 6 -19 -10z"/>
<path d="M1110 715 c-13 -16 -7 -45 10 -45 5 0 10 7 10 15 0 8 -5 15 -11 15
-5 0 -8 4 -4 10 3 5 13 6 22 3 11 -4 14 -3 9 5 -10 16 -21 15 -36 -3z"/>
<path d="M1290 724 c0 -3 7 -12 15 -20 17 -17 21 -39 5 -29 -5 3 -10 -2 -11
-12 0 -10 -3 -13 -6 -5 -2 6 -10 12 -16 12 -6 0 -4 -8 6 -17 16 -16 18 -15 43
8 36 34 49 59 29 59 -8 0 -15 -7 -15 -17 0 -13 -3 -12 -19 5 -18 21 -31 28
-31 16z"/>
<path d="M404 684 c59 -196 138 -521 144 -591 5 -69 10 -88 23 -91 14 -3 15 3
8 40 -10 54 -10 80 0 54 7 -19 8 -19 13 2 4 12 3 20 -2 17 -12 -8 -28 17 -35
58 -5 24 -3 37 4 37 6 0 8 -8 4 -18 -5 -14 -3 -13 10 3 13 17 13 20 1 23 -8 2
-14 8 -14 13 0 6 -4 8 -9 5 -11 -7 -64 172 -56 192 5 14 7 14 15 2 8 -12 10
-12 10 -2 0 8 -8 16 -19 19 -14 4 -26 32 -51 124 -18 66 -37 122 -42 125 -6 4
-8 -1 -4 -12z"/>
<path d="M1782 669 c-21 -25 -21 -29 -6 -29 9 0 15 3 11 6 -8 8 16 33 26 27 4
-2 7 3 7 11 0 23 -12 19 -38 -15z"/>
<path d="M1343 637 c-32 -31 -56 -58 -53 -60 3 -3 31 19 64 50 32 30 56 57 53
60 -4 3 -32 -19 -64 -50z"/>
<path d="M2243 636 c-117 -33 -157 -52 -85 -40 28 4 42 3 42 -5 0 -6 -9 -11
-20 -11 -11 0 -20 -7 -20 -15 0 -17 -51 -32 -135 -39 -33 -2 -50 -2 -37 0 46
11 19 20 -35 13 -32 -5 -87 -11 -123 -14 -36 -3 -86 -8 -112 -11 -36 -4 -48
-3 -48 8 0 11 -2 11 -9 0 -6 -11 -15 -9 -42 7 -46 28 -49 27 -49 -15 0 -30 3
-35 17 -30 24 10 193 21 278 20 41 -1 60 1 45 5 -14 4 14 7 65 7 130 1 356 52
415 95 16 12 20 13 -79 -23 -74 -27 -88 -17 -19 15 31 14 62 35 68 47 13 24
21 25 -117 -14z"/>
<path d="M0 647 c0 -11 18 -17 66 -22 69 -7 86 -3 64 18 -10 9 -11 9 -6 0 9
-16 -6 -17 -22 -1 -6 6 -32 13 -57 16 -34 2 -45 0 -45 -11z"/>
<path d="M2418 603 c-21 -8 -38 -19 -38 -25 0 -5 -4 -7 -9 -4 -5 3 -19 -3 -32
-13 -13 -10 -30 -16 -36 -14 -9 3 -13 -5 -13 -24 0 -22 2 -25 10 -13 9 13 10
13 11 0 0 -8 7 -1 14 15 13 27 14 28 15 7 0 -13 4 -20 10 -17 6 4 8 10 5 15
-3 4 3 14 12 21 14 12 15 11 9 -9 -5 -14 -3 -22 4 -22 6 0 11 10 10 23 -4 39
0 43 16 17 8 -14 14 -18 13 -10 -3 23 12 50 27 50 8 0 14 5 14 10 0 12 4 13
-42 -7z"/>
<path d="M0 595 c0 -8 11 -17 25 -20 49 -10 80 -14 68 -9 -7 3 -13 13 -13 22
0 15 -2 15 -10 2 -6 -10 -10 -11 -10 -2 0 6 -7 12 -16 12 -9 0 -13 -5 -9 -12
4 -7 0 -5 -8 5 -17 21 -27 22 -27 2z"/>
<path d="M334 593 c4 -7 3 -13 -2 -13 -10 0 -25 -37 -23 -54 1 -4 -4 -14 -10
-22 -9 -11 -8 -14 4 -14 20 0 42 27 26 32 -9 3 -7 12 6 32 15 22 16 29 5 39
-10 9 -11 9 -6 0z"/>
<path d="M1381 547 c-67 -38 -71 -42 -45 -45 16 -2 37 -11 46 -19 16 -14 17
-13 11 22 -5 29 -3 36 7 30 8 -5 11 -21 7 -45 -4 -35 -2 -39 33 -59 21 -11 44
-21 52 -21 23 0 58 44 58 71 -1 22 -2 22 -15 -8 -32 -73 -115 -40 -115 47 0
18 4 29 10 25 6 -3 10 -2 10 4 0 17 91 4 106 -16 13 -17 13 -17 14 3 0 21 -54
54 -88 54 -9 0 -50 -20 -91 -43z"/>
<path d="M1677 583 c-14 -13 -7 -43 7 -37 8 3 12 12 9 19 -4 11 11 15 69 18
l73 3 -76 2 c-42 1 -79 -1 -82 -5z"/>
<path d="M2010 580 c19 -5 41 -4 50 0 10 6 -1 9 -35 9 -48 -1 -49 -1 -15 -9z"/>
<path d="M2645 568 c9 -76 29 -99 82 -97 26 0 25 1 -11 15 -52 19 -59 27 -19
21 18 -3 35 -1 39 4 3 5 -7 9 -23 9 -15 0 -35 5 -43 10 -11 7 -5 10 25 11 l40
1 -33 8 c-45 10 -52 20 -16 21 29 1 29 1 4 9 -41 13 -48 11 -45 -12z"/>
<path d="M0 526 c0 -9 10 -14 28 -14 15 0 32 -1 37 -2 6 -1 26 -1 45 0 31 2
28 4 -25 16 -77 17 -85 17 -85 0z"/>
<path d="M2255 513 c1 -14 -4 -26 -11 -29 -47 -14 -47 -15 -36 -26 9 -9 7 -17
-10 -35 -12 -13 -27 -23 -35 -23 -7 0 -13 -8 -13 -17 0 -13 3 -14 11 -6 6 6
18 9 25 6 8 -3 14 1 14 8 0 7 10 23 22 36 15 16 17 23 8 23 -11 0 -11 3 -2 12
8 8 15 8 26 -1 13 -11 15 -9 11 18 -2 17 1 33 6 36 14 9 11 22 -5 22 -9 0 -13
-9 -11 -24z"/>
<path d="M2406 509 c-17 -16 -17 -19 -3 -19 9 0 19 5 22 10 4 6 11 8 16 5 5
-3 6 1 3 9 -8 20 -14 19 -38 -5z"/>
<path d="M2111 503 c-1 -7 -6 -12 -13 -10 -6 1 -14 -6 -16 -15 -2 -11 3 -18
13 -18 18 0 30 23 22 42 -4 10 -6 10 -6 1z"/>
<path d="M2020 485 c0 -8 -4 -15 -10 -15 -5 0 -10 5 -10 10 0 20 -28 9 -33
-12 -2 -13 -8 -31 -12 -40 -4 -11 -3 -18 4 -18 6 0 13 11 17 25 5 19 11 24 25
20 12 -4 21 1 28 14 14 25 14 31 1 31 -5 0 -10 -7 -10 -15z"/>
<path d="M2046 478 c-9 -12 -16 -29 -16 -38 -1 -23 -27 -53 -35 -40 -9 15 -35
-7 -35 -29 1 -13 3 -13 15 3 8 11 18 17 21 13 4 -4 13 -2 20 4 9 7 14 2 19
-21 7 -30 25 -42 25 -16 0 8 7 17 16 20 23 9 28 1 9 -14 -22 -18 -18 -33 5
-20 11 6 20 19 20 30 0 13 5 18 15 14 8 -4 15 -1 15 4 0 19 -34 18 -67 -1
l-33 -19 -1 24 c-2 36 2 52 14 60 6 4 8 10 4 14 -4 4 -2 13 4 21 6 7 9 13 6
13 -3 0 -13 -10 -21 -22z"/>
<path d="M1929 463 c-18 -46 -19 -62 -4 -57 8 3 12 11 9 18 -3 7 2 19 11 26
17 14 20 40 5 40 -6 0 -15 -12 -21 -27z"/>
<path d="M0 466 c0 -10 16 -15 55 -18 62 -3 71 5 24 21 -44 15 -79 14 -79 -3z"/>
<path d="M1779 453 c-7 -18 -20 -34 -29 -37 -8 -2 -2 -4 13 -5 17 -1 26 3 22
9 -4 6 -1 17 5 25 7 8 10 20 7 27 -3 8 -11 -1 -18 -19z"/>
<path d="M1812 455 c-6 -14 -8 -25 -4 -25 12 0 32 23 32 37 0 22 -16 15 -28
-12z"/>
<path d="M1850 461 c0 -11 5 -23 10 -26 6 -3 10 -2 10 4 0 5 3 16 6 25 4 11 1
16 -10 16 -9 0 -16 -8 -16 -19z"/>
<path d="M1888 455 c-6 -29 -5 -30 16 -9 20 19 21 34 2 34 -7 0 -16 -11 -18
-25z"/>
<path d="M2166 473 c-4 -5 -21 -13 -39 -19 -17 -6 -26 -13 -21 -17 6 -3 23 1
38 9 38 19 41 18 22 -11 -9 -14 -12 -25 -6 -25 16 0 35 49 24 60 -6 6 -14 7
-18 3z"/>
<path d="M1690 448 c-20 -22 -26 -39 -12 -37 19 3 22 -2 8 -17 -9 -8 -16 -21
-16 -27 1 -17 40 32 40 50 0 8 -4 11 -10 8 -5 -3 -10 -1 -10 5 0 7 9 14 20 17
11 3 20 9 20 14 0 16 -19 10 -40 -13z"/>
<path d="M2683 456 c4 -11 73 -29 90 -23 4 1 -15 10 -43 18 -31 10 -49 12 -47
5z"/>
<path d="M337 454 c-3 -3 -34 -17 -69 -30 -69 -25 -66 -30 11 -13 27 5 57 19
67 30 15 17 7 29 -9 13z"/>
<path d="M1130 449 c-12 -8 -12 -12 -2 -16 7 -3 17 -16 22 -29 5 -13 15 -24
21 -24 6 0 8 7 5 16 -8 22 21 51 37 35 9 -9 8 -14 -3 -22 -12 -8 -10 -9 8 -4
16 5 22 2 22 -8 0 -9 6 -17 13 -20 9 -3 9 -8 -2 -21 -15 -18 -9 -32 9 -21 7 5
9 21 5 46 -4 25 -3 39 4 39 6 0 11 8 11 18 -1 16 -1 16 -14 0 -17 -23 -21 -22
-44 2 -18 20 -18 20 -40 0 -26 -25 -30 -25 -34 0 -2 15 -6 17 -18 9z"/>
<path d="M1360 444 c0 -12 12 -53 26 -90 20 -54 29 -101 37 -211 7 -92 15
-143 22 -143 21 0 6 209 -21 299 -10 31 -18 61 -19 66 0 6 -11 30 -23 55 -15
31 -22 38 -22 24z"/>
<path d="M2066 434 c-23 -22 -20 -37 4 -24 11 6 20 17 20 25 0 19 -5 19 -24
-1z"/>
<path d="M680 421 c0 -5 -7 -17 -16 -26 -13 -12 -14 -19 -5 -28 8 -8 11 -8 11
2 0 7 7 19 15 27 17 18 20 34 5 34 -5 0 -10 -4 -10 -9z"/>
<path d="M2690 422 c0 -10 52 -32 76 -32 25 0 15 18 -13 24 -16 4 -36 9 -45
12 -10 3 -18 1 -18 -4z"/>
<path d="M2 408 c5 -15 98 -24 98 -10 0 5 -17 12 -37 16 -55 9 -65 8 -61 -6z"/>
<path d="M291 394 c-24 -13 -52 -24 -62 -24 -10 0 -21 -5 -25 -11 -4 -7 0 -9
12 -6 11 3 38 11 61 17 23 6 49 17 58 26 31 32 16 31 -44 -2z"/>
<path d="M2341 399 c-6 -11 -16 -17 -22 -14 -11 8 -64 -24 -55 -32 3 -3 17 2
31 11 14 9 25 12 25 7 0 -5 9 -9 20 -8 14 1 18 6 15 18 -4 11 0 19 12 21 15 3
16 4 2 10 -9 4 -20 -1 -28 -13z"/>
<path d="M1110 396 c0 -8 6 -16 13 -19 9 -3 9 -7 -2 -20 -7 -10 -9 -17 -3 -17
14 0 22 24 15 49 -6 24 -23 29 -23 7z"/>
<path d="M1620 391 l-25 -7 22 -8 c24 -8 43 -1 43 15 0 10 -4 10 -40 0z"/>
<path d="M931 377 c-10 -13 -10 -17 -1 -17 10 0 10 -3 0 -15 -15 -18 -5 -34
11 -18 6 6 9 23 7 38 -3 26 -4 27 -17 12z"/>
<path d="M1504 368 c1 -29 -40 -39 -47 -11 -4 16 -5 16 -6 1 -1 -23 15 -31 45
-24 17 5 24 13 24 31 0 14 -4 25 -8 25 -5 0 -8 -10 -8 -22z"/>
<path d="M1540 359 c-11 -19 -25 -51 -31 -72 -14 -53 -22 -287 -9 -287 6 0 10
50 10 129 0 135 13 205 31 166 8 -18 9 -17 5 4 -3 13 2 37 10 53 22 42 9 47
-16 7z"/>
<path d="M2707 384 c7 -3 10 -11 7 -19 -3 -7 0 -16 5 -20 6 -3 9 -10 6 -14 -2
-5 3 -15 13 -23 20 -18 99 -30 108 -17 3 5 -12 9 -33 9 -22 0 -48 6 -58 14
-16 12 -13 13 33 8 68 -6 66 4 -3 18 -66 14 -81 30 -23 24 l43 -4 -45 15 c-41
13 -82 20 -53 9z"/>
<path d="M315 367 c-11 -6 -47 -21 -80 -34 -68 -25 -54 -31 21 -8 48 15 92 41
83 49 -2 3 -13 -1 -24 -7z"/>
<path d="M756 364 c-18 -18 -21 -34 -6 -34 6 0 10 6 10 14 0 8 5 18 12 22 8 5
9 0 6 -14 -4 -12 -2 -22 3 -22 12 0 12 37 0 45 -5 3 -17 -2 -25 -11z"/>
<path d="M2235 363 c-5 -13 -9 -14 -12 -5 -4 10 -8 10 -19 1 -8 -6 -14 -16
-14 -22 0 -8 3 -8 11 0 6 6 17 9 24 6 8 -2 18 5 25 16 6 12 7 21 1 21 -5 0
-12 -8 -16 -17z"/>
<path d="M1973 340 c-9 -16 -23 -30 -30 -30 -7 0 -13 -4 -13 -10 0 -15 16 -12
30 5 6 8 15 14 18 13 19 -2 26 3 14 11 -10 6 -10 10 3 21 10 8 15 9 15 1 0 -6
5 -11 11 -11 8 0 8 5 -1 15 -18 22 -27 19 -47 -15z"/>
<path d="M1 356 c10 -8 89 -13 89 -5 0 5 -21 9 -47 9 -25 0 -44 -2 -42 -4z"/>
<path d="M532 323 c13 -50 15 -51 15 -3 0 26 -4 40 -13 40 -10 0 -10 -8 -2
-37z"/>
<path d="M996 335 c7 -18 -7 -20 -24 -3 -9 9 -12 8 -12 -5 0 -22 46 -23 54 -1
8 22 8 24 -9 24 -9 0 -12 -6 -9 -15z"/>
<path d="M1580 325 c-5 -14 -13 -62 -16 -108 l-7 -82 22 19 c24 22 29 35 5 15
-13 -11 -14 -9 -8 16 4 15 7 51 8 79 1 32 5 51 13 51 19 0 22 9 7 23 -12 11
-16 9 -24 -13z"/>
<path d="M1670 340 c0 -5 5 -10 12 -10 6 0 4 -6 -7 -13 -12 -9 -14 -16 -7 -21
13 -8 36 30 27 44 -8 13 -25 13 -25 0z"/>
<path d="M270 307 c-30 -16 -44 -26 -30 -22 14 4 37 9 51 12 14 3 31 13 37 24
15 24 9 23 -58 -14z"/>
<path d="M2284 329 c-2 -5 -10 -6 -17 -3 -12 4 -42 -34 -34 -43 3 -3 10 5 17
16 6 12 15 19 21 16 11 -8 49 3 49 14 0 10 -29 10 -36 0z"/>
<path d="M1159 310 c-19 -18 -21 -23 -9 -30 12 -8 11 -10 -4 -10 -16 0 -17 -3
-8 -12 10 -10 15 -10 22 2 9 14 14 7 11 -12 0 -5 4 -8 9 -8 15 0 12 11 -7 32
-15 17 -15 19 3 32 10 8 16 17 13 20 -3 3 -16 -3 -30 -14z"/>
<path d="M2100 322 c-22 -2 -45 -14 -64 -33 -15 -16 -24 -29 -18 -29 6 0 19
10 29 23 10 12 31 24 47 25 29 2 29 2 11 -18 -10 -11 -14 -20 -9 -20 9 1 49
50 42 53 -1 1 -19 1 -38 -1z"/>
<path d="M1078 298 c-13 -19 -18 -21 -31 -10 -12 10 -18 10 -31 -4 -10 -9 -14
-19 -11 -23 4 -3 12 2 20 12 11 15 13 16 19 2 7 -20 19 -19 45 3 13 11 18 22
13 30 -7 10 -12 8 -24 -10z"/>
<path d="M1246 304 c-8 -20 1 -34 21 -34 13 0 13 3 3 15 -9 11 -9 15 -1 15 7
0 9 5 6 10 -9 15 -22 12 -29 -6z"/>
<path d="M2180 288 c-17 -18 -30 -41 -30 -51 0 -16 2 -17 21 -3 12 8 27 12 34
10 6 -3 17 1 23 9 9 11 8 13 -8 12 -11 -1 -23 -4 -26 -8 -18 -17 -23 -4 -8 19
11 16 20 21 24 14 5 -8 9 -7 13 4 12 30 -13 27 -43 -6z"/>
<path d="M938 303 c19 -7 15 -43 -5 -43 -15 0 -16 -2 -3 -10 13 -9 13 -10 0
-11 -8 -1 -21 -1 -27 0 -7 1 -13 -5 -13 -13 0 -9 7 -12 20 -9 16 4 20 0 20
-20 0 -32 16 -43 28 -21 6 11 11 13 16 5 8 -13 26 -15 26 -2 0 14 -37 20 -50
7 -9 -8 -11 -6 -5 12 4 13 2 22 -4 22 -5 0 -3 13 6 28 17 30 12 63 -9 61 -10
0 -10 -2 0 -6z"/>
<path d="M1835 300 c-3 -5 -3 -14 0 -20 3 -5 -1 -23 -10 -39 -21 -42 -19 -52
5 -16 11 17 19 42 18 58 -2 30 -4 32 -13 17z"/>
<path d="M282 275 c-12 -9 -39 -22 -59 -30 l-38 -15 35 6 c35 6 110 40 110 49
0 10 -26 4 -48 -10z"/>
<path d="M2274 271 c-11 -10 -30 -24 -42 -30 -12 -6 -22 -18 -22 -26 0 -7 -13
-27 -30 -43 -29 -30 -42 -60 -19 -46 7 4 10 1 7 -7 -3 -8 -11 -14 -18 -14 -7
0 -15 -6 -17 -12 -7 -21 14 -15 34 10 11 14 26 21 41 19 16 -3 22 2 22 15 0
10 -4 14 -8 8 -8 -12 -52 -15 -52 -4 0 9 35 30 41 24 2 -2 5 8 6 22 1 26 46
72 71 73 6 0 12 5 12 11 0 5 5 7 10 4 6 -3 10 -1 10 4 0 17 -24 13 -46 -8z"/>
<path d="M2476 221 c-9 -39 -16 -85 -15 -103 1 -20 6 -2 14 42 7 41 16 87 20
103 4 15 5 27 2 27 -3 0 -13 -31 -21 -69z"/>
<path d="M2749 267 c7 -10 10 -17 5 -17 -5 -1 2 -10 15 -20 14 -13 37 -20 60
-19 l36 1 -50 16 -50 16 45 6 c44 5 44 5 14 12 -18 4 -45 10 -60 14 -26 7 -28
6 -15 -9z"/>
<path d="M277 236 c-54 -33 -58 -41 -12 -21 22 9 46 19 53 22 13 6 17 23 5 23
-5 0 -25 -11 -46 -24z"/>
<path d="M1083 240 c-3 -11 -10 -20 -15 -20 -6 0 -8 7 -4 15 3 8 1 15 -4 15
-6 0 -10 -9 -10 -19 0 -16 6 -19 35 -18 19 1 35 5 35 10 0 4 -4 7 -10 7 -5 0
-7 7 -4 15 4 8 1 15 -6 15 -6 0 -14 -9 -17 -20z"/>
<path d="M1250 246 c0 -8 6 -17 13 -19 9 -4 8 -8 -3 -16 -8 -5 -11 -13 -7 -17
14 -14 28 13 21 40 -7 27 -24 36 -24 12z"/>
<path d="M1393 190 c-1 -41 3 -102 7 -135 l7 -60 1 50 c0 28 -3 88 -7 135 l-8
85 0 -75z"/>
<path d="M2025 236 c-16 -14 -26 -29 -21 -33 4 -4 16 3 26 17 16 20 20 21 20
8 0 -10 -10 -26 -22 -38 -12 -11 -19 -23 -15 -26 9 -9 37 15 37 32 0 8 5 14
11 14 6 0 9 -6 6 -13 -3 -8 3 -14 14 -14 23 -2 25 15 4 24 -14 5 -14 8 1 24
10 11 12 19 6 19 -7 0 -12 -4 -12 -10 0 -16 -18 -11 -22 6 -2 13 -8 11 -33
-10z"/>
<path d="M2930 224 l-55 -13 54 4 c30 2 59 9 65 15 12 12 7 12 -64 -6z"/>
<path d="M2168 213 c-24 -28 -30 -43 -18 -43 6 0 14 8 17 18 4 9 14 22 22 29
9 7 11 13 5 13 -6 0 -18 -8 -26 -17z"/>
<path d="M296 201 c-10 -11 -34 -24 -54 -30 l-37 -11 45 5 c40 3 43 2 27 -10
-10 -7 -49 -19 -86 -26 -73 -13 -135 -1 -157 29 -6 8 -17 12 -25 9 -10 -4 -9
-6 4 -6 16 -1 17 -7 12 -45 -4 -26 -2 -52 4 -64 9 -17 7 -23 -11 -37 -22 -15
-20 -15 27 -9 28 4 59 13 70 21 18 12 18 13 -11 7 -26 -5 -35 -2 -48 17 -22
32 -21 59 3 59 11 0 23 -4 26 -10 7 -12 45 -13 45 -2 0 5 24 9 53 11 69 3 179
65 138 79 -9 3 -9 7 0 18 18 21 -5 17 -25 -5z"/>
<path d="M1690 198 c0 -15 -5 -28 -11 -30 -7 -2 -10 -11 -7 -18 3 -10 11 -4
22 19 13 24 15 36 7 44 -8 8 -11 4 -11 -15z"/>
<path d="M885 187 c-5 -7 -15 -22 -21 -32 -16 -28 -32 -29 -37 -3 l-4 23 -2
-23 c-1 -30 29 -42 43 -17 6 10 22 29 35 42 15 15 19 23 10 23 -8 -1 -18 -6
-24 -13z"/>
<path d="M1090 185 c0 -8 5 -15 11 -15 8 0 8 -5 -1 -15 -10 -12 -10 -15 1 -15
10 0 10 -3 1 -12 -16 -16 -15 -28 3 -28 13 0 15 24 6 93 -2 14 -21 7 -21 -8z"/>
<path d="M1952 163 c-21 -26 -22 -26 -17 -5 4 15 2 22 -8 22 -16 0 -19 -32 -4
-42 7 -4 6 -13 -3 -25 -7 -10 6 1 28 25 23 24 42 45 42 47 0 13 -19 2 -38 -22z"/>
<path d="M2028 151 c-28 -16 -37 -31 -17 -31 5 0 7 -4 4 -10 -15 -24 6 -7 25
21 27 36 24 41 -12 20z"/>
<path d="M2794 156 c11 -9 29 -16 40 -16 28 0 8 17 -29 25 -29 6 -29 6 -11 -9z"/>
<path d="M894 149 c-8 -14 11 -33 25 -25 16 10 13 36 -3 36 -8 0 -18 -5 -22
-11z"/>
<path d="M980 150 c13 -9 13 -11 0 -20 -8 -5 -13 -10 -10 -11 3 0 13 -2 23 -4
18 -3 21 4 11 29 -3 9 -14 16 -23 16 -14 0 -14 -2 -1 -10z"/>
<path d="M775 137 c-5 -7 -11 -21 -12 -32 -2 -18 -1 -18 9 3 6 12 15 22 20 22
5 0 7 -4 4 -9 -3 -5 1 -11 9 -15 20 -7 19 7 -2 27 -14 11 -21 12 -28 4z"/>
<path d="M1860 142 c0 -6 5 -12 10 -12 6 0 10 -7 10 -15 0 -18 -11 -19 -29 -2
-11 10 -11 8 -2 -10 14 -27 18 -28 38 -7 15 14 14 17 -6 37 -11 12 -21 16 -21
9z"/>
<path d="M920 109 c-14 -10 -20 -19 -13 -19 6 0 15 5 18 10 5 8 11 7 21 -1 11
-9 14 -8 14 4 0 25 -14 27 -40 6z"/>
<path d="M1034 118 c3 -12 0 -18 -9 -18 -25 0 -30 -1 -42 -12 -13 -11 -7 -38
9 -38 6 0 8 7 4 15 -3 10 1 15 13 15 26 0 42 22 29 40 -8 12 -9 12 -4 -2z"/>
<path d="M2804 122 c10 -17 74 -26 99 -14 21 10 20 11 -9 11 -17 1 -46 4 -64
8 -23 4 -31 3 -26 -5z"/>
<path d="M848 106 c-19 -14 -14 -26 11 -26 14 0 14 2 1 10 -12 8 -10 10 8 10
13 0 20 4 17 10 -8 13 -16 12 -37 -4z"/>
<path d="M1964 98 c-4 -6 -3 -8 4 -4 19 12 19 -19 -1 -47 -10 -16 -16 -31 -13
-34 3 -4 7 -4 9 -2 20 33 37 69 37 77 0 15 -28 23 -36 10z"/>
<path d="M2035 95 c-5 -11 -16 -25 -24 -32 -9 -6 -12 -15 -8 -20 5 -4 16 1 26
13 9 11 22 19 28 17 8 -3 5 -11 -8 -24 -10 -10 -19 -25 -19 -31 0 -13 49 41
50 55 0 4 -6 7 -14 7 -8 0 -16 8 -19 18 -3 15 -5 15 -12 -3z"/>
<path d="M2181 91 c-24 -24 -26 -34 -8 -49 10 -8 16 -6 25 9 7 10 8 19 3 19
-5 0 -12 -6 -14 -12 -3 -8 -6 -6 -6 4 -1 9 7 21 16 27 10 5 15 12 11 16 -3 4
-16 -3 -27 -14z"/>
<path d="M2825 85 c33 -16 91 -21 65 -6 -8 5 -33 12 -55 15 l-40 6 30 -15z"/>
<path d="M1552 45 c0 -34 4 -45 15 -45 13 0 13 3 3 15 -10 12 -10 15 4 15 9 0
16 5 16 10 0 6 -4 10 -10 10 -5 0 -10 6 -10 14 0 8 -4 17 -8 20 -5 3 -9 -15
-10 -39z"/>
<path d="M1885 57 c-16 -38 -20 -65 -8 -53 10 10 33 80 28 85 -3 2 -12 -12
-20 -32z"/>
<path d="M1330 61 c0 -24 16 -36 24 -19 2 7 4 2 3 -11 -1 -13 4 -26 11 -28 19
-7 15 48 -5 63 -25 19 -33 17 -33 -5z"/>
<path d="M236 55 c-11 -8 -17 -17 -14 -21 8 -8 48 14 48 26 0 14 -12 12 -34
-5z"/>
<path d="M2116 62 c-4 -7 -3 -12 2 -12 5 0 8 -11 7 -25 -4 -28 -3 -28 19 -19
22 8 20 25 -1 17 -15 -5 -16 -3 -5 8 14 15 16 33 3 25 -5 -4 -11 -1 -13 6 -3
9 -6 9 -12 0z"/>
<path d="M2830 51 c0 -7 24 -11 62 -11 74 0 73 5 -4 14 -39 5 -58 4 -58 -3z"/>
<path d="M672 15 c-7 -8 -8 -15 -3 -15 5 0 13 5 16 10 4 7 12 7 25 0 10 -5 27
-10 37 -9 10 0 3 6 -17 14 -44 17 -43 17 -58 0z"/>
<path d="M2860 18 c0 -10 127 -10 133 0 3 4 -26 7 -64 7 -38 0 -69 -3 -69 -7z"/>
</g>
</svg>
