<?xml version="1.0" standalone="no"?>
<!DOCTYPE svg PUBLIC "-//W3C//DTD SVG 20010904//EN"
 "http://www.w3.org/TR/2001/REC-SVG-20010904/DTD/svg10.dtd">
<svg version="1.0" xmlns="http://www.w3.org/2000/svg"
 width="300.000000pt" height="300.000000pt" viewBox="0 0 300.000000 300.000000"
 preserveAspectRatio="xMidYMid meet">
<metadata>
Created by potrace 1.10, written by Peter Selinger 2001-2011
</metadata>
<g transform="translate(0.000000,300.000000) scale(0.100000,-0.100000)"
fill="#000000" stroke="none">
<path d="M710 2944 l0 -55 -77 -37 c-52 -24 -90 -35 -115 -34 -24 1 -38 -3
-38 -11 0 -6 -20 -31 -45 -55 -49 -48 -94 -131 -102 -191 -4 -30 0 -49 16 -76
11 -20 21 -42 21 -50 0 -7 7 -15 15 -19 22 -8 18 -50 -5 -71 -12 -10 -30 -34
-41 -52 -22 -36 -40 -41 -59 -19 -8 10 -18 12 -33 7 -12 -5 -49 -17 -82 -26
-106 -31 -165 -56 -165 -71 0 -8 10 -14 26 -14 14 0 23 -4 19 -10 -9 -15 16
-12 49 5 15 8 34 15 40 15 6 0 20 14 30 30 21 37 36 31 36 -16 0 -45 16 -43
27 4 6 27 14 38 31 40 26 4 27 -7 7 -68 -8 -25 -17 -57 -20 -72 -3 -14 -12
-28 -20 -30 -17 -4 -205 -187 -205 -200 0 -6 23 10 51 34 88 76 109 91 109 79
0 -6 -4 -11 -10 -11 -5 0 -10 -9 -10 -19 0 -11 -5 -23 -11 -26 -12 -8 -66
-123 -94 -200 -11 -29 -20 -84 -22 -133 -1 -49 -9 -94 -18 -112 -17 -33 -20
-106 -5 -115 6 -4 10 7 10 25 0 17 6 43 14 58 8 15 19 51 24 79 7 42 6 50 -5
46 -17 -7 -17 -3 6 87 33 130 74 222 118 269 26 28 93 136 93 151 0 20 53 140
61 140 5 0 9 6 9 14 0 8 4 16 8 18 10 4 119 143 124 159 5 16 65 -21 77 -49 6
-13 11 -29 11 -37 0 -8 6 -12 14 -9 13 5 13 11 0 46 -19 55 -18 58 16 58 40 0
99 -25 106 -45 3 -8 16 -15 28 -15 34 0 66 -11 66 -23 0 -6 -22 -36 -49 -67
-27 -31 -51 -67 -53 -81 -2 -16 -9 -24 -22 -24 -15 0 -24 -15 -40 -63 -21 -60
-26 -67 -146 -169 -225 -190 -247 -217 -368 -458 -57 -112 -72 -158 -35 -106
14 21 17 22 25 7 6 -10 14 -68 18 -129 9 -125 19 -165 52 -213 30 -44 53 -53
28 -11 -26 42 -25 59 0 27 13 -16 9 -4 -10 35 -52 103 -66 256 -35 380 16 62
59 152 100 210 45 63 60 77 190 184 44 36 99 82 122 103 24 21 49 38 57 38 10
0 18 19 26 58 16 79 17 82 40 82 11 0 20 4 20 8 0 12 78 115 93 124 7 4 29 -8
51 -27 21 -18 56 -41 77 -51 25 -12 37 -24 34 -33 -5 -11 -3 -12 10 -1 12 10
15 10 15 -3 0 -10 6 -14 13 -11 16 6 33 -12 40 -41 5 -19 5 -19 12 2 6 18 10
20 30 11 22 -10 22 -12 10 -43 -29 -68 -137 -614 -125 -630 5 -6 4 -33 -1 -60
-6 -28 -14 -86 -19 -129 -7 -54 -15 -83 -25 -89 -22 -12 -55 -49 -55 -61 0 -6
7 -1 15 11 8 11 28 25 44 31 26 9 28 8 24 -11 -4 -22 -4 -22 11 -3 16 19 16
19 16 -2 0 -13 6 -22 15 -22 21 0 19 10 -12 42 l-26 27 16 98 c9 54 18 135 21
179 5 83 84 492 114 596 14 49 20 57 46 62 16 4 31 5 32 3 2 -1 -15 -61 -37
-132 -22 -71 -38 -133 -37 -137 2 -5 21 50 43 123 22 73 45 138 52 144 6 7 40
24 75 38 168 68 294 117 301 117 4 0 7 -9 7 -20 0 -11 -5 -20 -11 -20 -5 0 -7
5 -4 10 3 6 1 10 -4 10 -13 0 -14 -10 -2 -29 5 -8 14 -10 21 -6 9 6 11 -2 8
-29 -2 -20 0 -36 4 -36 17 0 7 -22 -12 -27 -11 -3 -20 -9 -20 -14 0 -5 -3 -8
-8 -6 -6 2 -12 -6 -12 -18 0 -3 11 2 25 11 16 10 25 12 25 5 0 -6 -7 -14 -16
-18 -9 -3 -14 -13 -11 -25 3 -12 -2 -23 -14 -31 -10 -6 -19 -16 -19 -21 0 -6
5 -5 12 2 7 7 19 12 28 12 11 -1 10 -5 -7 -19 -15 -12 -20 -25 -16 -40 6 -24
23 -29 23 -6 0 8 -5 15 -12 15 -12 0 -2 15 10 15 4 0 13 4 20 9 7 4 16 5 20 1
4 -4 1 -10 -5 -12 -14 -5 -18 -33 -5 -33 4 0 13 5 20 12 9 9 16 7 29 -9 10
-11 25 -22 33 -25 11 -4 8 -9 -12 -18 -16 -7 -28 -17 -28 -22 0 -12 8 -10 41
9 32 19 54 9 26 -12 -24 -17 -9 -25 23 -13 l25 9 -40 37 c-22 20 -59 53 -81
72 -43 37 -66 80 -42 80 39 1 42 15 18 115 -16 67 -19 100 -12 107 7 7 17 -5
33 -41 24 -56 38 -65 15 -10 -31 76 -31 76 16 84 24 3 84 15 133 25 50 10 128
23 175 30 47 7 121 26 165 42 44 16 75 24 68 17 -27 -27 -171 -100 -276 -140
-64 -24 -84 -35 -70 -40 13 -5 -3 -13 -56 -29 -77 -24 -150 -75 -132 -93 6 -6
26 2 55 22 35 24 62 34 120 41 41 5 89 18 108 28 58 32 101 44 109 30 4 -7 12
-9 16 -4 4 5 2 11 -5 13 -10 4 -10 8 -1 20 11 13 8 12 -22 -1 -82 -35 -171
-66 -192 -66 -14 1 -5 8 28 21 102 40 199 70 212 65 8 -3 12 -2 9 3 -3 5 13
14 37 20 58 15 84 35 35 26 -63 -10 -54 22 17 58 33 16 191 31 199 19 9 -15
-12 -33 -81 -68 -18 -9 -33 -21 -33 -26 0 -7 4 -7 13 0 6 5 23 13 37 17 22 7
23 6 11 -9 -8 -9 -11 -19 -8 -22 9 -9 27 6 27 22 0 8 13 17 28 20 23 5 44 28
103 117 42 63 107 144 149 185 116 115 131 124 204 129 41 4 66 2 70 -6 4 -6
0 -11 -10 -11 -18 0 -146 -62 -140 -68 2 -1 32 7 67 18 44 15 79 21 112 17
l47 -4 0 32 c0 28 -4 33 -31 39 -51 10 -110 7 -169 -9 -55 -14 -55 -14 -30 5
33 26 111 43 152 35 26 -6 30 -4 21 5 -17 18 -95 24 -137 10 -26 -8 -83 -61
-208 -189 l-173 -179 -60 -6 c-152 -18 -646 -112 -707 -135 -15 -6 -44 -21
-65 -34 -33 -20 -354 -156 -408 -172 -11 -4 -4 3 15 14 19 11 31 20 26 21 -14
0 -89 -21 -114 -33 -18 -9 -32 -6 -70 12 -115 55 -246 150 -230 167 4 3 17 0
30 -7 23 -12 23 -11 5 8 -24 27 -237 123 -273 123 -15 0 -68 10 -117 22 -114
28 -127 43 -97 117 45 116 126 201 190 201 12 0 59 16 106 36 l84 36 0 69 c0
55 -3 69 -15 69 -12 0 -15 -13 -15 -56z"/>
<path d="M790 2971 c0 -55 39 -155 85 -216 25 -33 45 -65 45 -72 0 -23 -29
-14 -36 12 -3 13 -12 30 -20 36 -32 27 -25 -7 20 -95 l48 -93 -32 -64 c-18
-35 -34 -66 -36 -68 -9 -10 -88 36 -114 66 -29 32 -30 38 -30 130 0 68 -3 94
-11 86 -5 -5 -11 -21 -13 -34 -1 -14 -6 -30 -10 -37 -4 -7 -2 -12 5 -12 8 0 8
-4 -1 -15 -9 -11 -9 -15 -1 -15 7 0 11 -14 9 -35 -1 -19 1 -37 5 -41 4 -4 2
-13 -5 -21 -6 -7 -9 -14 -7 -16 2 -1 29 -15 59 -32 30 -16 72 -38 92 -49 l36
-21 43 43 c24 23 47 42 52 42 5 0 29 -17 53 -39 49 -43 142 -81 198 -81 53 0
159 32 257 79 95 45 111 49 103 26 -4 -10 0 -15 11 -15 15 0 16 -2 4 -17 -12
-15 -12 -16 3 -10 10 3 20 1 24 -4 4 -7 19 -8 38 -4 17 4 47 9 66 12 19 3 43
9 52 14 9 5 26 9 37 9 11 0 27 7 35 16 11 11 16 12 16 3 0 -10 3 -10 11 -2 6
6 18 9 25 6 8 -3 14 -1 14 4 0 5 7 18 16 29 15 18 15 18 9 -3 -4 -14 -2 -23 4
-23 6 0 11 9 11 20 0 11 5 20 11 20 6 0 9 -7 5 -15 -3 -8 -1 -15 5 -15 6 0 8
13 5 33 -3 17 -3 26 0 20 8 -19 27 -16 20 3 -8 21 18 46 41 37 14 -5 16 -3 6
7 -12 13 -7 40 9 40 5 0 7 -4 4 -9 -4 -5 3 -7 14 -4 11 3 20 9 20 14 0 5 -7 6
-15 3 -19 -8 -19 1 1 31 9 14 21 22 27 18 6 -3 7 -1 3 5 -4 7 -2 12 4 12 6 0
15 12 20 26 6 14 14 23 19 19 5 -3 13 0 17 6 4 8 3 9 -4 5 -22 -13 -12 13 11
29 12 8 23 20 23 25 3 23 5 24 15 10 8 -12 9 -11 5 5 -8 28 56 87 148 137 51
28 3 21 -60 -9 -58 -27 -92 -64 -227 -246 -95 -128 -129 -160 -214 -200 -66
-31 -231 -76 -236 -65 -47 92 -63 129 -57 135 4 4 17 33 30 63 12 30 31 67 42
82 18 26 18 27 1 22 -10 -4 -1 5 19 20 20 14 39 26 42 26 4 0 6 -16 6 -35 0
-25 -5 -37 -17 -41 -10 -3 -24 -9 -31 -12 -15 -8 -65 -122 -58 -130 10 -9 142
87 143 105 0 10 6 61 13 113 7 52 13 104 14 115 1 11 16 40 34 64 17 24 32 49
32 55 -1 21 -65 -62 -100 -128 -40 -78 -64 -106 -90 -106 -35 0 -86 -56 -111
-121 l-23 -62 -115 -56 -116 -56 -102 0 c-55 0 -99 -3 -97 -6 2 -3 24 -12 48
-19 66 -18 125 -6 266 57 69 30 131 58 138 60 10 4 13 -1 10 -18 -4 -29 -81
-77 -193 -120 -72 -28 -88 -30 -160 -26 -44 3 -96 12 -116 21 -82 35 -217 239
-159 241 22 1 14 29 -30 97 -47 73 -82 160 -83 211 -2 44 -27 52 -27 8z m961
-267 c-12 -65 -23 -80 -82 -113 l-42 -24 18 30 c10 17 33 38 51 47 19 8 34 19
35 23 0 5 2 17 4 28 2 11 7 43 11 70 6 37 9 43 12 23 2 -15 -2 -53 -7 -84z
m-134 -21 c-8 -10 -23 -32 -31 -48 -12 -22 -16 -25 -16 -11 0 21 49 91 58 82
3 -3 -2 -14 -11 -23z m-46 -207 c-16 -19 -209 -103 -280 -122 -62 -16 -149 -5
-171 21 -9 11 -1 11 46 -1 51 -14 64 -14 128 1 39 8 114 37 166 64 101 51 131
61 111 37z"/>
<path d="M894 2978 c23 -79 46 -181 43 -185 -10 -9 -70 104 -77 146 l-8 46 -1
-50 c-1 -44 6 -61 51 -135 28 -47 62 -105 75 -129 26 -50 33 -27 9 30 -7 19
-18 76 -24 127 -6 51 -18 107 -26 124 -9 17 -13 34 -10 39 3 5 -5 9 -17 9 -17
0 -20 -4 -15 -22z"/>
<path d="M980 2985 c14 -7 24 -17 22 -22 -2 -4 4 -9 12 -11 11 -2 16 4 16 22
0 23 -4 26 -37 26 -38 -1 -38 -1 -13 -15z"/>
<path d="M1192 2979 c-10 -15 -9 -17 6 -12 9 3 25 12 35 18 16 12 16 13 -6 13
-13 0 -29 -9 -35 -19z"/>
<path d="M1757 2983 c-3 -10 -22 -46 -41 -81 -46 -82 -29 -70 34 24 43 62 48
74 31 74 -10 0 -21 -8 -24 -17z"/>
<path d="M2263 2974 c23 -15 45 -23 55 -19 12 5 6 11 -27 26 -60 27 -73 24
-28 -7z"/>
<path d="M2385 2991 c17 -29 247 -70 392 -71 58 -1 121 -11 158 -25 19 -8 19
-8 2 12 -19 22 -50 28 -172 38 -38 3 -101 10 -140 15 -38 6 -86 12 -105 14
-19 2 -48 9 -63 15 -34 13 -80 15 -72 2z"/>
<path d="M1040 2964 c-14 -36 -14 -36 27 -32 29 2 39 8 41 23 3 19 2 19 -11 3
-15 -18 -33 -25 -23 -9 8 12 -3 41 -15 41 -5 0 -14 -12 -19 -26z"/>
<path d="M2107 2979 c-9 -5 -88 -82 -176 -169 -87 -88 -147 -151 -132 -141 32
24 78 66 201 187 120 117 133 122 183 78 56 -51 63 -41 8 11 -51 48 -56 50
-84 34z"/>
<path d="M393 2908 c-13 -6 -23 -17 -23 -25 0 -11 6 -10 31 3 17 8 40 14 50
11 23 -6 35 9 13 17 -22 8 -45 6 -71 -6z"/>
<path d="M2673 2873 c-26 -10 -12 -21 16 -13 16 4 32 6 35 2 3 -3 6 0 6 6 0
12 -34 15 -57 5z"/>
<path d="M2534 2848 c3 -13 6 -31 6 -40 0 -10 4 -18 8 -18 5 0 9 13 9 30 0 17
-5 27 -10 23 -6 -4 -8 0 -4 10 4 10 2 17 -4 17 -7 0 -9 -9 -5 -22z"/>
<path d="M2571 2849 c8 -16 8 -23 -1 -29 -8 -5 -9 -10 -2 -14 6 -3 14 -1 17 4
9 15 -3 60 -16 60 -6 0 -6 -8 2 -21z"/>
<path d="M2604 2827 c2 -26 5 -50 8 -52 8 -8 6 70 -2 85 -6 9 -8 -3 -6 -33z"/>
<path d="M334 2804 c-16 -31 -36 -60 -44 -65 -8 -4 -58 -28 -110 -54 -145 -72
-179 -96 -180 -124 l0 -24 23 20 c28 27 181 114 238 137 24 10 56 30 70 44 15
15 36 34 47 42 21 15 21 16 4 48 l-18 33 -30 -57z"/>
<path d="M2255 2779 c3 -15 -2 -46 -10 -70 -8 -23 -13 -44 -11 -46 2 -2 10 13
16 34 7 21 17 44 23 51 7 9 7 16 0 20 -5 4 -13 14 -17 22 -3 8 -4 3 -1 -11z"/>
<path d="M789 2778 c0 -7 -3 -25 -5 -40 -3 -16 0 -28 6 -28 5 0 10 18 10 40 0
22 -2 40 -5 40 -3 0 -5 -6 -6 -12z"/>
<path d="M2327 2749 c-17 -19 -17 -24 -4 -51 8 -17 17 -25 21 -20 3 6 2 13 -4
17 -14 8 -13 42 2 47 6 2 9 10 7 16 -3 8 -10 5 -22 -9z"/>
<path d="M2391 2709 c-7 -16 -10 -33 -7 -37 4 -3 9 4 13 16 3 12 9 22 14 22 5
0 9 7 9 15 0 25 -14 17 -29 -16z"/>
<path d="M1535 2699 c-25 -70 -33 -99 -26 -94 11 6 43 97 36 103 -2 3 -7 -1
-10 -9z"/>
<path d="M2008 2682 c-16 -9 -28 -20 -28 -24 0 -3 -7 -14 -16 -22 -8 -9 -14
-21 -12 -27 2 -7 23 11 47 40 24 28 41 51 39 51 -1 0 -15 -8 -30 -18z"/>
<path d="M2292 2683 c-7 -12 -12 -30 -12 -40 1 -13 5 -11 16 10 8 16 13 34 11
40 -2 7 -9 3 -15 -10z"/>
<path d="M2440 2664 c-6 -14 -10 -31 -10 -37 0 -7 -7 -23 -16 -35 -16 -23 -11
-62 8 -62 7 0 7 4 0 13 -6 8 -6 20 1 37 8 21 11 22 14 7 5 -19 24 -19 31 1 2
7 -4 12 -13 12 -11 0 -15 6 -11 18 13 44 18 72 12 72 -4 0 -11 -12 -16 -26z"/>
<path d="M956 2610 c8 -30 33 -70 44 -70 12 0 20 28 14 45 -4 8 -10 12 -15 9
-5 -3 -19 5 -30 18 l-20 23 7 -25z"/>
<path d="M2193 2578 c-25 -74 -26 -78 -4 -78 11 0 25 9 31 19 13 25 13 44 0
36 -5 -3 -10 -15 -10 -26 0 -10 -5 -19 -10 -19 -11 0 -4 42 11 72 11 21 11 28
1 28 -4 0 -13 -15 -19 -32z"/>
<path d="M2377 2593 c4 -10 2 -14 -5 -9 -6 3 -13 2 -16 -3 -12 -19 16 -23 29
-5 19 24 18 34 0 34 -9 0 -12 -6 -8 -17z"/>
<path d="M1050 2555 c36 -39 80 -55 153 -55 67 0 122 14 146 36 11 10 7 11
-25 3 -56 -13 -184 -20 -184 -10 0 5 -8 11 -17 14 -10 3 -36 13 -58 22 l-40
17 25 -27z"/>
<path d="M510 2530 c-13 -8 -12 -10 5 -11 35 -3 40 -4 53 -13 7 -4 16 -6 19
-3 2 3 24 -3 48 -13 33 -14 46 -16 54 -7 7 9 2 16 -15 24 -13 6 -22 7 -18 2 3
-5 -2 -6 -10 -3 -9 3 -13 11 -10 16 4 6 -3 5 -15 -1 -11 -7 -21 -8 -21 -3 0 4
-10 8 -22 9 -13 0 -30 3 -38 7 -8 3 -22 1 -30 -4z"/>
<path d="M845 2494 c-16 -20 -22 -35 -14 -32 13 4 56 68 46 68 -2 0 -17 -16
-32 -36z"/>
<path d="M1600 2370 c0 -5 -11 -12 -25 -16 -14 -3 -25 -10 -25 -15 0 -5 18 0
40 11 42 22 49 30 25 30 -8 0 -15 -4 -15 -10z"/>
<path d="M900 2341 c0 -17 108 -108 156 -131 63 -29 126 -24 219 18 75 34 75
42 -1 16 -43 -15 -48 -15 -56 0 -12 22 -19 20 -58 -14 -39 -35 -42 -35 -93
-12 l-38 17 29 28 c30 29 43 32 102 22 24 -4 17 1 -23 15 l-59 21 -34 -31
c-19 -16 -38 -30 -42 -30 -4 0 -19 13 -33 29 -20 22 -23 33 -15 42 8 8 7 10
-4 7 -8 -3 -23 -1 -32 4 -11 5 -18 5 -18 -1z"/>
<path d="M1436 2335 c-3 -8 -13 -15 -21 -15 -9 0 -13 -4 -10 -10 3 -5 -9 -19
-27 -31 -36 -23 -35 -23 76 17 42 15 76 31 76 35 0 12 -17 11 -25 -1 -10 -16
-45 -12 -45 5 0 8 -4 15 -9 15 -5 0 -11 -7 -15 -15z"/>
<path d="M992 2328 c-7 -7 -12 -16 -12 -20 0 -12 28 -10 36 3 10 17 -10 31
-24 17z"/>
<path d="M2314 2318 c-4 -6 -2 -14 4 -16 6 -2 8 -10 5 -18 -3 -8 -1 -14 5 -14
17 0 23 31 8 46 -11 11 -17 11 -22 2z"/>
<path d="M1671 2295 c-1 -5 6 -23 14 -39 8 -15 12 -32 9 -37 -3 -5 -1 -9 5 -9
5 0 13 4 16 10 3 5 20 14 38 20 31 10 31 10 -9 5 -38 -4 -42 -2 -57 28 -8 17
-16 28 -16 22z"/>
<path d="M2145 2260 c-3 -5 -13 -6 -22 -3 -10 4 -14 2 -12 -6 3 -7 7 -12 9
-11 34 7 50 14 50 21 0 12 -17 11 -25 -1z"/>
<path d="M2208 2263 c-10 -2 -18 -9 -18 -14 0 -5 -7 -9 -15 -9 -8 0 -15 -4
-15 -10 0 -5 -3 -9 -7 -7 -5 1 -9 -1 -10 -5 -2 -5 0 -7 5 -6 30 6 42 12 42 19
0 5 7 9 15 9 8 0 15 5 15 11 0 5 5 7 10 4 6 -3 10 -1 10 4 0 11 -3 12 -32 4z"/>
<path d="M580 2238 c0 -13 -3 -34 -6 -48 l-5 -25 15 25 c18 29 20 56 6 65 -6
3 -10 -4 -10 -17z"/>
<path d="M620 2208 c0 -12 3 -18 6 -15 4 3 15 2 25 -4 24 -13 25 3 1 24 -25
22 -32 21 -32 -5z"/>
<path d="M2050 2220 c0 -5 -7 -10 -15 -10 -8 0 -15 -4 -15 -10 0 -5 5 -10 10
-10 6 0 10 -7 10 -16 0 -13 5 -12 29 6 18 12 32 16 36 10 11 -18 23 -11 18 10
-3 11 -7 20 -9 20 -8 0 -49 -25 -55 -34 -4 -4 -10 -3 -13 3 -4 6 0 14 8 17 18
7 22 24 6 24 -5 0 -10 -4 -10 -10z"/>
<path d="M2318 2219 c-22 -12 -23 -29 -3 -29 8 0 15 5 15 10 0 6 5 10 11 10 6
0 8 -9 4 -20 -4 -13 -2 -20 7 -20 8 -1 6 -6 -6 -15 -17 -13 -17 -15 -4 -15 12
0 15 -7 12 -26 -3 -17 -1 -23 7 -19 8 5 9 1 4 -14 -4 -14 -2 -21 7 -21 7 0 2
-9 -12 -20 -26 -21 -45 -26 -35 -11 3 5 2 12 -2 14 -12 7 -48 -21 -39 -30 4
-4 10 -2 15 5 9 15 39 -18 33 -36 -2 -7 1 -12 7 -12 15 0 23 18 11 25 -16 10
-12 22 10 28 22 6 28 -8 8 -17 -10 -5 -10 -7 0 -12 6 -3 12 -12 12 -20 0 -8 5
-14 10 -14 20 0 9 -21 -17 -31 -19 -7 -23 -13 -15 -21 8 -8 15 -8 27 2 8 7 18
10 22 6 4 -3 -2 -13 -13 -22 -19 -15 -19 -15 1 -10 14 4 23 -1 32 -19 10 -23
9 -26 -13 -31 -13 -3 -24 -10 -24 -15 0 -13 24 -11 38 3 6 6 15 8 19 4 4 -4
-6 -18 -22 -31 -19 -15 -24 -23 -14 -21 10 1 24 8 33 15 14 11 16 11 16 -2 0
-9 -8 -20 -17 -26 -10 -5 -15 -13 -11 -17 4 -4 14 -1 23 6 9 7 16 11 18 9 38
-67 38 -66 14 -82 -12 -8 -19 -18 -15 -22 4 -4 14 -2 23 5 22 18 31 4 12 -18
-23 -25 -21 -35 2 -22 31 16 38 11 14 -9 -28 -24 -17 -36 14 -16 22 15 23 14
24 -7 0 -13 3 -18 6 -11 3 8 19 -3 42 -27 21 -22 43 -40 48 -40 6 0 -17 29
-51 64 -37 38 -69 83 -80 112 -10 27 -38 94 -61 149 -23 55 -49 129 -59 165
-21 81 -35 190 -25 190 10 0 16 -22 25 -85 8 -59 48 -197 64 -222 7 -12 10
-13 7 -3 -2 8 -7 26 -11 40 l-6 25 12 -25 c25 -52 56 -126 63 -150 16 -57 71
-139 131 -195 35 -34 64 -67 64 -75 0 -11 3 -10 13 2 11 15 23 10 112 -42 55
-32 111 -61 125 -65 14 -3 -10 12 -52 34 -111 58 -158 94 -148 112 6 11 0 23
-20 43 -16 15 -32 26 -35 26 -4 -1 -16 9 -27 22 -11 13 -25 22 -30 20 -5 -1
-7 7 -3 19 5 15 3 20 -6 17 -15 -5 -58 53 -69 92 -4 14 -13 24 -19 22 -7 -1
-10 2 -6 8 11 18 29 11 71 -31 31 -30 51 -42 77 -43 19 -2 51 -13 72 -24 20
-12 33 -18 30 -12 -4 7 2 7 19 0 14 -5 26 -8 26 -6 0 2 28 -4 63 -15 78 -24
77 -24 77 6 0 21 -5 25 -27 25 -16 0 -70 10 -120 22 -75 18 -93 25 -93 40 0
10 -7 18 -14 18 -28 0 -130 70 -213 145 -46 42 -83 79 -83 83 0 4 4 13 9 20 7
12 13 11 37 -1 53 -27 307 -119 406 -147 l98 -27 0 23 c0 18 -7 23 -40 29 -22
4 -40 11 -40 16 0 5 -10 9 -22 9 -13 0 -45 9 -73 19 -27 11 -95 32 -150 46
-55 15 -125 35 -155 44 -55 18 -55 18 -53 57 1 21 2 40 2 40 1 1 34 -11 75
-27 43 -16 82 -26 92 -22 11 4 15 3 10 -5 -3 -6 -2 -13 4 -17 5 -3 10 -1 10 4
0 6 7 11 15 11 8 0 15 -4 15 -9 0 -6 12 -9 28 -7 15 1 45 -2 67 -6 22 -4 72
-13 110 -19 39 -6 78 -15 88 -20 12 -7 17 -6 17 5 0 14 -23 21 -175 51 -44 8
-136 31 -205 50 -69 19 -141 38 -160 44 -19 5 -27 10 -18 10 9 1 77 -14 150
-33 178 -46 397 -90 406 -82 10 11 -17 24 -67 31 -82 12 -244 46 -356 75 -60
16 -132 32 -160 35 -27 4 -57 8 -65 10 -8 3 -23 0 -32 -6z m128 -85 c-3 -9 -6
-34 -7 -57 l-1 -42 -10 32 c-12 35 -4 83 13 83 6 0 8 -7 5 -16z m104 -315 c0
-56 129 -220 198 -252 23 -11 30 -27 11 -27 -22 0 -130 94 -164 145 -29 41
-105 220 -105 245 0 3 14 -16 30 -42 17 -27 30 -57 30 -69z"/>
<path d="M526 2193 c-4 -15 -9 -36 -12 -45 -3 -10 -1 -18 4 -18 5 0 12 19 16
41 8 48 2 64 -8 22z"/>
<path d="M840 2171 c0 -26 21 -71 32 -71 5 0 6 6 1 13 -4 6 -6 20 -4 31 2 12
-1 16 -10 10 -9 -5 -11 -2 -6 9 3 9 2 19 -3 22 -6 4 -10 -3 -10 -14z"/>
<path d="M2010 2160 c0 -5 4 -10 10 -10 5 0 7 -7 4 -15 -7 -16 6 -20 22 -6 5
5 19 12 30 15 16 5 23 2 27 -14 3 -11 9 -20 14 -20 16 0 37 19 30 27 -5 4 -12
1 -16 -6 -7 -11 -11 -9 -20 6 -5 11 -7 23 -4 27 13 13 -24 5 -45 -10 -20 -14
-23 -14 -28 0 -7 18 -24 22 -24 6z"/>
<path d="M2236 2143 c-4 -5 -11 -8 -14 -9 -17 -2 -42 -17 -42 -24 0 -5 18 -1
40 8 36 15 53 32 32 32 -5 0 -12 -3 -16 -7z"/>
<path d="M169 2090 c-25 -25 -72 -68 -105 -97 -32 -29 -55 -55 -51 -59 14 -14
211 165 206 187 -3 10 -18 1 -50 -31z"/>
<path d="M1721 2126 c-9 -11 -8 -15 4 -20 17 -6 55 13 55 28 0 6 -5 5 -12 -2
-14 -14 -42 -16 -33 -2 9 15 -1 12 -14 -4z"/>
<path d="M1385 2108 c-12 -15 -14 -23 -7 -26 7 -2 10 -7 8 -11 -7 -11 12 -36
21 -28 4 4 2 17 -5 28 -10 16 -11 24 -1 35 6 8 10 16 7 19 -2 2 -12 -5 -23
-17z"/>
<path d="M1973 2116 c-26 -12 -30 -26 -8 -26 8 0 15 5 15 10 0 6 5 9 11 8 6
-2 14 3 16 10 5 14 -3 14 -34 -2z"/>
<path d="M545 2082 c-27 -34 -27 -36 -5 -21 26 17 57 59 44 59 -5 0 -22 -17
-39 -38z"/>
<path d="M756 2066 c3 -32 8 -70 11 -85 3 -14 6 -32 6 -38 0 -7 5 -13 10 -13
5 0 6 7 3 15 -3 9 1 18 10 22 8 3 13 12 10 20 -3 7 1 16 9 19 8 4 15 10 15 15
0 5 -9 4 -20 -3 -11 -7 -18 -18 -16 -25 3 -7 1 -15 -4 -18 -6 -4 -10 -3 -11 2
-2 34 -13 99 -20 121 -6 19 -7 10 -3 -32z"/>
<path d="M1277 2102 c-19 -21 -22 -42 -6 -42 5 0 7 4 4 10 -3 5 3 15 15 22 11
7 20 16 20 20 0 14 -16 9 -33 -10z"/>
<path d="M1442 2106 c2 -8 -1 -14 -7 -13 -5 1 -9 6 -7 10 1 5 -2 6 -7 3 -5 -3
-7 -15 -4 -25 4 -17 8 -18 23 -9 18 12 24 48 7 48 -4 0 -7 -6 -5 -14z"/>
<path d="M2030 2100 c0 -5 -5 -9 -11 -7 -6 1 -14 -4 -16 -10 -6 -15 13 -17 22
-3 7 12 36 14 33 3 -2 -5 2 -9 7 -9 17 -2 35 7 35 18 0 6 -6 5 -15 -2 -12 -10
-16 -9 -21 4 -7 17 -34 22 -34 6z"/>
<path d="M1490 2078 c-14 -13 -26 -22 -27 -20 -2 1 -11 -2 -21 -7 -9 -5 -13
-13 -8 -18 5 -4 11 -2 13 5 3 6 11 12 18 12 8 0 21 7 30 17 13 13 19 13 25 4
5 -9 10 -10 14 -2 4 6 2 11 -4 11 -6 0 -8 5 -5 10 11 18 -11 10 -35 -12z"/>
<path d="M1919 2083 c-7 -13 -19 -23 -26 -23 -16 0 -26 -17 -14 -24 12 -8 63
42 58 57 -2 7 -9 3 -18 -10z"/>
<path d="M1345 2080 c-5 -8 -4 -15 3 -18 6 -2 8 -10 5 -18 -3 -8 0 -14 6 -14
6 0 11 -9 11 -20 0 -28 -17 -25 -24 5 -4 16 -11 23 -18 19 -9 -6 -9 -9 -1 -11
7 -3 9 -11 6 -19 -3 -8 1 -14 8 -14 7 0 10 -3 6 -6 -3 -3 0 -12 6 -19 14 -15
47 -2 47 17 0 9 -3 9 -12 0 -21 -21 -27 -13 -13 15 8 15 11 30 6 33 -4 3 -12
18 -18 35 -7 22 -11 26 -18 15z"/>
<path d="M1670 2084 c0 -6 -15 -18 -32 -27 l-33 -17 35 6 c44 8 58 20 42 36
-7 7 -12 8 -12 2z"/>
<path d="M1228 2067 c12 -7 20 -16 16 -20 -4 -4 -13 -2 -21 5 -11 8 -12 7 -7
-6 4 -9 1 -16 -6 -16 -10 0 -10 -3 0 -15 7 -9 10 -19 6 -22 -4 -4 -11 -1 -16
7 -12 19 -12 13 -1 -27 7 -25 6 -35 -6 -45 -14 -11 -15 -10 -9 12 6 21 5 22
-4 7 -6 -9 -8 -22 -5 -27 3 -6 0 -10 -7 -10 -9 0 -9 -3 2 -10 8 -5 10 -10 5
-10 -6 0 -10 -17 -9 -37 0 -21 -3 -41 -9 -44 -6 -5 -6 -20 1 -45 8 -32 10 -34
11 -13 1 15 8 32 16 39 8 7 15 9 14 4 -1 -17 -38 -89 -38 -76 -1 6 -8 12 -18
12 -15 0 -15 -1 0 -18 19 -21 21 -40 7 -62 -7 -11 -8 -6 -4 18 4 17 2 32 -3
32 -10 0 -12 -12 -16 -87 -1 -29 -6 -53 -10 -53 -5 0 -5 -5 -2 -10 10 -15 27
0 21 17 -4 9 -1 22 5 29 9 11 9 14 0 14 -7 0 -9 5 -5 11 5 8 10 6 16 -5 5 -9
6 -21 2 -28 -4 -6 -8 -25 -10 -41 -1 -20 1 -25 7 -16 6 10 9 8 9 -9 0 -13 -4
-20 -10 -17 -6 3 -7 -1 -4 -10 6 -14 8 -13 21 4 10 15 11 26 3 40 -5 11 -10
28 -10 38 0 15 2 16 11 3 8 -12 9 -10 4 7 -4 16 -1 23 15 28 27 8 37 50 17 70
-9 8 -18 11 -21 6 -3 -5 1 -11 9 -15 19 -7 19 -30 0 -46 -18 -15 -20 1 -3 18
9 9 9 12 0 12 -6 0 -15 -12 -18 -26 -5 -18 -9 -22 -15 -13 -4 7 -3 21 2 30 5
10 9 27 9 38 0 12 5 21 11 21 5 0 8 4 4 9 -3 6 5 20 17 32 13 12 18 19 12 16
-13 -8 -14 39 -1 63 5 8 -1 4 -12 -9 -12 -13 -24 -21 -28 -18 -7 7 54 67 68
67 5 0 9 -4 9 -10 0 -5 -4 -10 -10 -10 -12 0 -13 -10 -1 -29 8 -12 12 -11 27
4 17 17 17 17 -6 10 l-25 -8 19 22 20 22 16 -31 c13 -25 18 -28 29 -18 11 11
12 9 6 -12 -8 -24 -7 -24 11 -5 11 11 26 26 34 33 13 11 12 11 -7 3 -30 -15
-33 -14 -33 9 0 11 -5 20 -11 20 -6 0 -8 -9 -4 -20 8 -24 -10 -27 -19 -4 -4 9
-1 24 6 33 12 14 11 14 -4 2 -16 -12 -18 -11 -18 8 0 11 -5 21 -11 21 -6 0 -8
-9 -4 -20 4 -12 2 -20 -5 -20 -6 0 -8 5 -4 12 5 8 2 9 -9 5 -19 -7 -19 -7 -21
76 -1 60 16 96 33 68 6 -9 11 -8 22 5 12 16 12 17 -3 11 -12 -4 -19 0 -23 14
-4 11 -15 19 -28 19 l-22 -1 23 -12z m-17 -151 c-9 -11 -8 -17 3 -29 13 -12
11 -17 -16 -37 -26 -19 -30 -20 -25 -6 4 10 7 22 7 27 0 6 5 7 12 3 8 -5 9 -2
5 10 -7 18 10 62 20 52 3 -3 1 -12 -6 -20z"/>
<path d="M1953 2066 c-25 -12 -32 -39 -8 -30 8 4 15 10 15 15 0 5 7 9 15 9 8
0 15 5 15 10 0 12 -8 11 -37 -4z"/>
<path d="M2084 2055 c-4 -8 -12 -15 -20 -15 -8 0 -14 -4 -14 -10 0 -5 -3 -9
-7 -8 -5 1 -25 -4 -45 -12 -39 -14 -50 -30 -23 -30 8 0 15 5 15 10 0 6 3 9 8
9 4 -1 10 0 15 1 4 1 10 3 15 5 35 10 82 43 82 57 0 14 -20 8 -26 -7z"/>
<path d="M2270 2054 c0 -8 -4 -13 -8 -10 -5 3 -18 -4 -30 -14 -12 -11 -26 -20
-32 -20 -5 0 -10 -4 -10 -10 0 -11 30 -14 30 -2 0 4 18 18 40 32 42 25 51 40
25 40 -8 0 -15 -7 -15 -16z"/>
<path d="M1496 2043 c-4 -5 -11 -8 -14 -9 -22 -3 -42 -18 -42 -33 1 -14 3 -13
15 3 14 19 15 18 23 -4 7 -18 11 -20 17 -10 5 9 4 15 -5 18 -9 3 -6 10 11 23
13 10 19 19 13 19 -6 0 -14 -3 -18 -7z"/>
<path d="M1680 2034 c-22 -12 -22 -14 -6 -20 18 -7 41 8 35 23 -2 5 -15 3 -29
-3z"/>
<path d="M1827 2043 c-12 -11 -8 -23 9 -23 9 0 12 -5 8 -12 -5 -8 -2 -9 9 -5
11 4 17 1 17 -7 0 -8 6 -16 14 -19 28 -11 23 5 -12 39 -39 38 -36 36 -45 27z"/>
<path d="M1281 2014 c-17 -13 -25 -14 -31 -5 -4 7 -7 0 -8 -17 l-1 -30 24 24
c24 24 52 34 40 14 -3 -5 -1 -10 4 -10 13 0 14 10 3 27 -6 10 -13 9 -31 -3z"/>
<path d="M1765 2008 c6 -24 3 -28 -27 -37 -31 -9 -31 -9 -6 -10 56 -2 71 17
42 54 -15 19 -15 19 -9 -7z"/>
<path d="M2088 2013 c-10 -2 -18 -9 -18 -14 0 -5 -3 -8 -7 -6 -5 1 -9 -1 -10
-5 -4 -10 5 -8 35 5 12 6 22 14 22 19 0 4 -1 7 -2 7 -2 -1 -11 -3 -20 -6z"/>
<path d="M345 1930 c-65 -58 -102 -101 -132 -152 -24 -40 -43 -79 -43 -88 0
-8 11 4 24 27 14 23 36 57 50 76 14 19 26 39 26 45 0 11 47 52 61 52 5 0 6 -8
3 -17 -3 -10 5 2 19 27 13 25 31 44 39 44 9 -1 23 14 32 32 8 19 15 34 13 34
-1 0 -42 -36 -92 -80z"/>
<path d="M2294 1985 c-4 -8 -15 -15 -25 -15 -10 0 -19 -4 -19 -9 0 -17 18 -21
32 -8 7 8 19 12 26 9 6 -2 12 1 12 7 0 6 -5 11 -11 11 -5 0 -7 5 -4 10 3 6 4
10 0 10 -3 0 -8 -7 -11 -15z"/>
<path d="M1787 1955 l-38 -22 29 1 c17 1 28 4 25 9 -2 4 0 7 5 7 6 0 12 7 16
15 3 8 4 15 3 14 -1 0 -19 -11 -40 -24z"/>
<path d="M2073 1966 c-13 -6 -23 -14 -23 -18 0 -10 14 -10 24 0 4 4 12 8 17 8
5 1 14 2 19 3 15 2 12 21 -2 20 -7 -1 -23 -6 -35 -13z"/>
<path d="M2205 1970 c-4 -6 -10 -8 -15 -5 -9 6 -25 -13 -18 -21 6 -6 58 19 58
29 0 11 -18 9 -25 -3z"/>
<path d="M708 1958 c-3 -7 3 -31 13 -53 13 -27 19 -33 19 -19 0 11 -6 29 -14
39 -8 11 -12 25 -9 32 3 7 3 13 0 13 -3 0 -7 -6 -9 -12z"/>
<path d="M2328 1953 c-22 -5 -24 -23 -3 -23 8 0 15 4 15 10 0 5 7 7 15 4 8 -4
15 -1 15 5 0 11 -11 12 -42 4z"/>
<path d="M988 1925 c-36 -31 -35 -38 2 -17 16 9 30 23 30 30 0 16 0 16 -32
-13z"/>
<path d="M1625 1940 c-3 -5 -3 -14 0 -20 3 -5 -1 -10 -9 -10 -9 0 -16 -4 -16
-10 0 -5 -7 -10 -15 -10 -8 0 -15 -4 -15 -10 0 -15 6 -13 50 16 24 16 37 31
33 40 -6 16 -19 18 -28 4z"/>
<path d="M1864 1929 c15 -9 16 -13 5 -20 -20 -13 -29 -11 -29 6 0 8 -4 15 -10
15 -15 0 -12 -16 6 -31 11 -9 20 -10 32 -2 13 8 25 3 54 -26 23 -21 38 -45 38
-58 0 -13 5 -23 11 -23 6 0 8 7 5 16 -3 9 -6 24 -6 35 0 10 -4 19 -10 19 -5 0
-28 18 -52 40 -24 22 -47 40 -53 40 -5 -1 -2 -5 9 -11z"/>
<path d="M1979 1872 c19 -17 36 -30 39 -27 5 5 -23 35 -34 35 -4 0 -15 6 -24
13 -9 6 -1 -3 19 -21z"/>
<path d="M2118 1903 c-22 -5 -24 -23 -3 -23 8 0 15 4 15 10 0 5 7 7 15 4 8 -4
15 -1 15 5 0 11 -11 12 -42 4z"/>
<path d="M1340 1889 c-11 -8 -12 -12 -2 -16 6 -2 10 -9 6 -14 -3 -5 0 -9 6 -9
7 0 9 9 5 23 -6 20 -5 21 8 4 14 -17 47 -14 47 4 0 14 -20 11 -20 -3 -1 -8 -6
-6 -14 5 -15 20 -16 20 -36 6z"/>
<path d="M2333 1878 c-25 -12 -27 -16 -13 -38 5 -8 13 -11 17 -6 4 5 2 11 -5
13 -6 3 -10 9 -7 13 3 5 12 7 20 3 9 -3 15 1 15 11 0 9 -1 16 -2 15 -2 0 -13
-5 -25 -11z"/>
<path d="M168 1858 c-22 -36 -37 -76 -48 -126 -6 -26 -13 -56 -16 -67 -4 -14
-3 -17 4 -10 11 10 82 217 77 223 -1 1 -9 -8 -17 -20z"/>
<path d="M710 1839 c5 -18 7 -36 4 -40 -3 -5 2 -6 10 -3 18 7 22 24 5 24 -5 0
-8 4 -5 9 7 11 -3 41 -14 41 -5 0 -5 -14 0 -31z"/>
<path d="M1745 1857 c-11 -7 -22 -13 -24 -14 -1 -1 0 -6 3 -12 4 -6 16 -5 33
4 30 16 45 11 37 -10 -4 -8 -10 -12 -16 -9 -11 7 -68 -15 -68 -27 0 -5 5 -9
10 -9 6 0 10 4 10 8 0 5 6 9 13 9 6 0 30 4 51 8 28 6 37 5 32 -4 -4 -6 -16
-11 -27 -11 -10 0 -19 -4 -19 -9 0 -16 26 -19 45 -5 25 19 41 18 25 -1 -7 -8
-19 -15 -26 -15 -8 0 -14 -4 -14 -10 0 -15 17 -12 45 6 34 22 32 1 -2 -25 -27
-20 -27 -20 -5 -21 12 0 22 4 22 9 0 5 9 11 20 14 11 3 20 1 20 -4 0 -5 -4 -9
-9 -9 -6 0 -23 -12 -38 -26 -15 -14 -34 -29 -43 -34 -8 -5 -11 -12 -6 -17 5
-4 11 -2 13 5 5 14 33 16 33 2 0 -5 8 -10 18 -10 15 1 15 2 -2 15 -11 8 -18
16 -15 17 25 16 68 38 73 38 17 0 2 -19 -19 -24 -14 -4 -25 -11 -25 -16 0 -13
16 -13 41 1 11 6 25 8 32 6 7 -3 -1 -10 -17 -16 -16 -6 -26 -14 -22 -18 3 -3
17 0 31 7 18 9 29 10 36 3 7 -7 0 -12 -22 -17 -24 -4 -30 -9 -22 -17 8 -8 18
-6 37 6 26 17 56 15 56 -4 0 -6 -7 -8 -14 -5 -8 3 -34 -6 -58 -20 -38 -23 -43
-32 -14 -27 5 1 13 -4 18 -11 6 -9 7 -5 3 10 -4 12 -2 22 4 22 5 0 18 3 28 6
15 5 15 4 3 -5 -26 -18 -3 -23 24 -5 15 9 29 14 33 11 3 -4 -8 -14 -26 -24
-17 -10 -31 -21 -31 -25 0 -12 13 -9 34 7 22 17 46 20 46 6 0 -5 -14 -14 -32
-20 -23 -8 -29 -14 -21 -22 8 -8 18 -7 34 5 30 21 34 20 59 -6 24 -26 26 -38
5 -38 -8 0 -15 -7 -15 -15 0 -18 5 -19 30 -3 10 7 23 8 27 4 4 -5 2 -11 -4
-13 -25 -9 -13 -23 15 -17 l27 5 -23 -20 c-13 -11 -20 -26 -17 -32 5 -7 10 -7
14 -1 9 15 51 25 51 12 0 -6 -7 -13 -15 -16 -8 -4 -15 -11 -15 -16 0 -6 5 -7
13 -2 18 13 52 10 49 -4 -1 -7 6 -12 15 -12 16 -1 16 -2 -1 -15 -25 -19 -18
-25 12 -10 23 12 23 13 -28 68 -50 55 -65 81 -32 56 15 -11 15 -11 4 1 -7 8
-17 15 -23 15 -12 0 -232 227 -230 238 0 4 -5 7 -12 7 -6 0 -39 23 -72 51
-147 126 -129 115 -160 96z"/>
<path d="M2060 1851 c0 -12 29 -23 41 -15 5 3 7 10 4 15 -8 12 -45 12 -45 0z"/>
<path d="M1995 1811 c5 -24 3 -36 -6 -43 -11 -7 -9 -8 6 -6 16 3 19 10 17 33
-2 17 -8 35 -14 40 -7 7 -8 -1 -3 -24z"/>
<path d="M2225 1830 c-3 -6 0 -13 9 -16 8 -3 12 -12 9 -21 -4 -10 -2 -14 6
-12 7 3 12 8 11 12 -11 48 -21 59 -35 37z"/>
<path d="M1117 1788 c-37 -97 -103 -424 -95 -464 2 -11 12 33 22 96 20 131 38
211 72 324 27 85 27 113 1 44z"/>
<path d="M1363 1805 c-30 -32 -30 -45 0 -17 13 12 27 19 30 15 4 -3 7 1 7 10
0 23 -11 20 -37 -8z"/>
<path d="M1420 1818 c0 -23 16 -39 33 -32 11 4 17 1 17 -7 0 -7 2 -10 5 -7 3
3 3 13 -1 22 -4 11 -13 15 -26 10 -13 -4 -18 -2 -14 4 3 6 2 13 -4 17 -5 3
-10 0 -10 -7z"/>
<path d="M2077 1781 c21 -28 39 -48 41 -46 8 7 -39 75 -59 85 -12 7 -6 -7 18
-39z"/>
<path d="M2730 1825 c0 -8 80 -46 139 -66 85 -30 85 -21 -1 11 -42 15 -87 35
-100 44 -22 16 -38 20 -38 11z"/>
<path d="M1252 1794 c-12 -13 -19 -24 -14 -24 5 0 15 7 22 15 19 23 26 19 39
-25 12 -42 25 -51 35 -24 9 23 7 31 -4 14 -5 -8 -12 -11 -16 -7 -4 3 -1 13 6
22 11 13 10 14 -2 10 -11 -4 -18 2 -22 19 -8 32 -15 32 -44 0z"/>
<path d="M2033 1796 c10 -10 27 -36 38 -58 11 -22 23 -37 26 -34 9 8 -49 98
-67 104 -11 4 -10 1 3 -12z"/>
<path d="M2131 1799 c-16 -6 -21 -13 -15 -19 7 -7 20 -6 37 2 48 23 28 37 -22
17z"/>
<path d="M1603 1783 c-7 -2 -13 -9 -13 -15 0 -6 8 -7 17 -4 9 4 20 1 24 -6 4
-7 11 -9 15 -6 6 6 -19 39 -28 37 -2 0 -9 -3 -15 -6z"/>
<path d="M1733 1766 c-26 -12 -30 -26 -8 -26 8 0 15 5 15 10 0 6 5 9 11 8 6
-2 14 3 16 10 5 14 -3 14 -34 -2z"/>
<path d="M742 1755 c-8 -9 -10 -21 -5 -29 7 -12 11 -12 28 1 19 15 19 15 -5 9
-23 -6 -23 -6 -7 7 9 8 17 17 17 21 0 11 -14 6 -28 -9z"/>
<path d="M2028 1747 c-4 -21 -1 -27 13 -27 22 0 24 10 5 35 -12 17 -13 17 -18
-8z"/>
<path d="M1515 1736 c-11 -12 -34 -31 -50 -42 -33 -21 -54 -44 -54 -59 0 -5 5
-3 12 5 7 9 30 29 52 45 60 44 77 62 68 68 -5 3 -17 -5 -28 -17z"/>
<path d="M1227 1719 c-9 -6 -17 -15 -17 -21 0 -9 3 -9 12 0 17 17 33 15 18 -3
-7 -9 -11 -18 -8 -20 3 -3 11 1 17 9 18 21 1 48 -22 35z"/>
<path d="M1532 1705 c-11 -14 -25 -25 -31 -25 -6 0 -11 -4 -11 -10 0 -17 12
-11 47 25 19 19 30 35 24 35 -5 0 -18 -11 -29 -25z"/>
<path d="M1293 1701 c3 -11 -2 -29 -10 -40 -8 -12 -10 -21 -4 -21 5 0 12 -14
16 -31 5 -23 10 -28 18 -20 9 9 8 14 -3 21 -12 8 -12 10 3 16 9 3 17 14 17 23
-1 14 -2 14 -14 -2 -10 -13 -16 -15 -21 -6 -4 6 -3 14 3 18 13 8 13 61 0 61
-6 0 -8 -9 -5 -19z"/>
<path d="M2131 1702 c-1 -13 -5 -20 -11 -17 -5 3 -10 1 -10 -4 0 -6 6 -11 14
-11 9 0 12 -7 9 -20 -4 -15 0 -20 13 -20 13 0 15 3 7 11 -6 6 -9 17 -7 23 3 7
0 23 -5 37 l-10 24 0 -23z"/>
<path d="M756 1703 c-4 -5 -11 -8 -14 -8 -4 0 -18 -8 -32 -18 -13 -9 -21 -17
-18 -17 15 0 78 34 78 42 0 10 -4 10 -14 1z"/>
<path d="M2171 1671 c24 -47 39 -60 39 -35 0 10 -3 14 -7 10 -4 -3 -12 8 -17
26 -6 17 -17 33 -24 36 -8 2 -5 -11 9 -37z"/>
<path d="M950 1674 c-14 -14 -20 -28 -15 -32 9 -6 10 -13 6 -48 0 -6 -12 -17
-26 -24 -14 -7 -25 -19 -25 -26 0 -7 16 2 36 20 30 28 36 39 31 62 -3 16 1 37
10 51 20 30 12 29 -17 -3z"/>
<path d="M2260 1685 c0 -8 5 -15 10 -15 6 0 10 -7 10 -15 0 -13 3 -13 20 -3
11 7 20 17 20 21 0 5 -9 5 -20 2 -14 -5 -20 -2 -20 9 0 9 -4 16 -10 16 -5 0
-10 -7 -10 -15z"/>
<path d="M1383 1665 c-7 -8 -13 -19 -13 -25 0 -6 -4 -8 -10 -5 -5 3 -10 -1
-10 -9 0 -24 15 -19 30 9 7 14 17 25 22 25 4 0 8 5 8 10 0 14 -13 12 -27 -5z"/>
<path d="M1679 1657 c-13 -12 -25 -21 -26 -19 -2 1 -3 0 -3 -3 0 -11 10 -9 28
6 11 9 25 18 33 21 8 3 9 7 3 11 -6 3 -22 -4 -35 -16z"/>
<path d="M2236 1671 c-6 -8 -1 -20 13 -34 18 -19 21 -19 21 -4 0 9 -4 17 -9
17 -5 0 -11 8 -13 18 -3 13 -5 14 -12 3z"/>
<path d="M1516 1644 c-11 -7 -16 -17 -12 -21 4 -4 11 -1 16 7 9 14 14 7 11
-12 0 -5 4 -8 9 -8 11 0 12 7 2 32 -6 14 -9 15 -26 2z"/>
<path d="M2415 1640 c-3 -5 -15 -10 -26 -10 -10 0 -19 -7 -19 -15 0 -8 5 -15
10 -15 6 0 10 5 10 11 0 5 5 7 10 4 6 -3 10 -1 10 5 0 6 5 8 10 5 6 -3 10 1
10 9 0 18 -6 21 -15 6z"/>
<path d="M2920 1640 c0 -3 18 -11 40 -17 30 -8 40 -7 37 1 -4 12 -77 27 -77
16z"/>
<path d="M1788 1620 c23 -22 42 -26 42 -10 0 6 -7 10 -15 10 -8 0 -15 5 -15
10 0 6 -8 10 -17 10 -14 0 -14 -3 5 -20z"/>
<path d="M1473 1605 c-20 -23 -16 -37 7 -23 11 7 20 18 20 25 0 17 -12 16 -27
-2z"/>
<path d="M2325 1604 c-22 -16 -27 -36 -13 -55 8 -11 9 -10 4 4 -3 9 -1 17 4
17 6 0 10 7 10 15 0 9 6 12 15 9 8 -4 15 -1 15 4 0 18 -14 21 -35 6z"/>
<path d="M1243 1587 c0 -15 3 -27 8 -27 5 0 9 -8 9 -17 0 -10 5 -25 10 -33 16
-26 7 31 -11 69 -16 34 -16 34 -16 8z"/>
<path d="M1513 1603 c4 -6 -9 -21 -28 -34 -19 -13 -35 -30 -35 -36 0 -7 -4
-13 -10 -13 -5 0 -10 -8 -10 -17 0 -14 3 -14 20 5 11 12 20 25 20 30 0 5 14
15 30 22 31 13 39 33 18 46 -6 4 -8 3 -5 -3z"/>
<path d="M1571 1579 c-13 -11 -20 -23 -16 -27 4 -4 10 -1 12 6 3 6 11 12 18
12 16 0 29 17 18 23 -5 3 -19 -4 -32 -14z"/>
<path d="M2196 1584 c-14 -10 -22 -11 -27 -3 -4 6 -12 8 -19 4 -14 -8 28 -33
76 -45 29 -7 30 -6 25 24 -3 19 -6 24 -9 14 -2 -12 -13 -18 -30 -18 -25 0 -25
1 -6 14 10 8 17 17 14 19 -3 3 -14 -1 -24 -9z"/>
<path d="M2400 1590 c0 -5 4 -10 9 -10 5 0 12 -10 16 -22 6 -20 8 -20 12 -6 2
10 -2 25 -11 33 -17 17 -26 19 -26 5z"/>
<path d="M1270 1580 c0 -5 5 -10 11 -10 5 0 8 -4 4 -9 -3 -5 -1 -12 4 -16 6
-3 7 -13 4 -23 -4 -12 -3 -14 6 -6 8 8 8 18 0 42 -10 30 -29 44 -29 22z"/>
<path d="M1327 1575 c-12 -8 -14 -15 -7 -20 5 -3 8 -11 5 -16 -4 -5 -1 -9 4
-9 6 0 11 -7 11 -15 0 -9 -6 -12 -16 -8 -11 4 -15 2 -13 -6 7 -20 23 -16 34 8
5 11 13 21 17 21 5 0 8 8 8 18 -1 16 -1 16 -14 -1 -12 -16 -14 -16 -20 -1 -8
22 -8 26 3 19 5 -3 12 -1 15 4 10 16 -8 20 -27 6z"/>
<path d="M2452 1568 c3 -23 38 -39 38 -19 0 6 -7 11 -15 11 -9 0 -12 6 -9 15
4 8 1 15 -6 15 -6 0 -10 -10 -8 -22z"/>
<path d="M1389 1563 c-10 -12 -11 -17 -2 -20 7 -2 9 -11 6 -19 -8 -21 11 -17
32 6 10 11 13 20 7 20 -7 0 -12 -5 -12 -12 0 -9 -3 -8 -12 1 -10 11 -10 14 0
18 14 5 17 23 3 23 -5 0 -15 -7 -22 -17z"/>
<path d="M1740 1575 c0 -3 11 -17 25 -31 15 -15 25 -20 25 -12 0 8 -9 21 -20
31 -21 17 -30 21 -30 12z"/>
<path d="M1855 1560 c-3 -5 -2 -10 4 -10 5 0 18 -13 28 -30 16 -28 53 -42 53
-20 0 6 -9 10 -20 10 -11 0 -20 7 -20 15 0 8 -4 15 -10 15 -5 0 -10 7 -10 15
0 17 -16 20 -25 5z"/>
<path d="M2337 1563 c-12 -19 43 -100 131 -190 18 -18 39 -48 47 -66 16 -38
74 -107 75 -89 0 6 -4 12 -10 12 -5 0 -25 27 -44 59 -31 54 -130 188 -148 201
-3 3 -6 14 -5 25 1 12 -4 20 -13 20 -8 0 -17 9 -20 20 -4 13 -8 16 -13 8z"/>
<path d="M663 1532 c-33 -40 -28 -49 7 -12 17 18 30 34 30 36 0 12 -18 0 -37
-24z"/>
<path d="M350 1540 c0 -5 -10 -10 -22 -10 -18 0 -20 -2 -8 -10 9 -5 19 -5 26
1 6 5 20 6 30 2 17 -6 17 -5 5 10 -15 19 -31 22 -31 7z"/>
<path d="M465 1538 c-27 -16 -49 -38 -36 -38 5 0 16 7 24 15 8 8 17 11 21 8 3
-4 6 -1 6 6 0 7 5 9 10 6 6 -3 10 -1 10 4 0 14 -10 13 -35 -1z"/>
<path d="M1677 1519 c-19 -22 -22 -39 -7 -39 6 0 10 5 10 11 0 7 7 17 17 24 9
7 12 15 6 18 -5 3 -17 -3 -26 -14z"/>
<path d="M2195 1517 c38 -23 55 -25 55 -8 0 5 -12 11 -27 14 -16 3 -37 9 -48
12 -11 4 -2 -4 20 -18z"/>
<path d="M2090 1515 c-7 -8 -19 -15 -26 -15 -8 0 -11 -6 -8 -15 8 -20 24 -19
24 1 0 12 3 14 13 6 7 -6 18 -7 26 -2 12 7 12 11 -1 24 -14 14 -18 14 -28 1z"/>
<path d="M1102 1505 c-1 -11 -4 -32 -8 -47 -4 -18 -2 -28 5 -28 6 0 11 -12 11
-26 0 -14 -4 -23 -10 -19 -5 3 -10 1 -10 -4 0 -6 4 -11 8 -11 5 0 14 -11 20
-25 7 -15 8 -25 2 -25 -6 0 -10 6 -10 13 0 8 -4 7 -10 -3 -5 -8 -10 -19 -10
-25 0 -5 5 -3 10 5 8 12 10 10 11 -10 1 -14 2 -30 2 -36 0 -6 6 -11 13 -11 10
0 10 5 3 19 -6 11 -7 27 -3 36 8 19 10 29 13 57 1 14 4 16 9 8 5 -8 8 2 8 25
1 20 -1 28 -4 18 -3 -15 -6 -16 -14 -5 -8 11 -9 10 -4 -3 3 -10 1 -28 -3 -40
-7 -19 -9 -14 -9 22 0 24 -5 46 -11 48 -6 2 -11 11 -11 20 0 13 2 14 9 3 7
-10 10 -11 16 -1 6 10 11 9 21 -5 8 -10 16 -17 18 -14 2 2 -4 15 -15 28 -11
14 -19 18 -19 10 -1 -8 -7 0 -14 16 -11 23 -14 25 -14 10z"/>
<path d="M1457 1490 c-26 -31 -20 -45 8 -19 13 13 25 27 25 32 0 13 -15 7 -33
-13z"/>
<path d="M1753 1483 c5 -29 25 -59 33 -50 5 5 3 12 -5 16 -7 5 -12 11 -12 15
3 22 0 36 -9 36 -5 0 -9 -8 -7 -17z"/>
<path d="M2281 1478 c0 -13 4 -32 9 -43 7 -15 9 -10 9 23 1 23 -3 42 -9 42 -5
0 -10 -10 -9 -22z"/>
<path d="M1170 1478 c0 -9 5 -18 11 -20 6 -2 12 -16 12 -31 0 -15 4 -24 9 -21
10 7 1 40 -18 69 -12 16 -14 17 -14 3z"/>
<path d="M1613 1475 c-7 -8 -13 -21 -13 -30 0 -8 -7 -15 -16 -15 -10 0 -14 -6
-10 -15 3 -8 1 -15 -4 -15 -6 0 -10 -5 -10 -11 0 -15 30 -43 38 -35 3 4 0 11
-8 16 -12 8 -13 13 -3 27 7 10 21 35 32 56 19 37 16 48 -6 22z"/>
<path d="M2030 1477 c0 -7 6 -19 13 -26 10 -11 10 -14 0 -18 -7 -3 -13 -9 -13
-14 0 -6 8 -6 19 1 18 9 18 12 5 40 -17 32 -24 38 -24 17z"/>
<path d="M277 1464 c12 -9 34 -26 49 -39 16 -13 30 -22 33 -20 4 5 -3 11 -58
58 -12 9 -27 17 -34 16 -6 0 -2 -7 10 -15z"/>
<path d="M1990 1459 c-14 -25 -6 -36 13 -21 8 7 17 8 22 4 4 -4 2 3 -4 16 -14
27 -17 27 -31 1z"/>
<path d="M1393 1456 c-13 -6 -23 -14 -23 -18 0 -12 18 -10 25 2 5 8 11 7 21
-1 11 -9 14 -8 14 4 0 22 -11 25 -37 13z"/>
<path d="M2730 1464 c0 -11 27 -30 85 -59 33 -16 63 -34 66 -39 4 -5 12 -7 19
-4 6 2 -1 10 -17 18 -15 8 -56 32 -90 52 -35 21 -63 35 -63 32z"/>
<path d="M1520 1450 c0 -5 4 -10 9 -10 14 0 7 -30 -9 -40 -8 -5 -11 -12 -8
-16 14 -13 40 26 34 51 -6 24 -26 35 -26 15z"/>
<path d="M1226 1431 c4 -14 1 -27 -7 -33 -11 -8 -10 -9 4 -4 12 4 17 0 17 -12
0 -14 2 -15 10 -2 5 8 6 17 2 20 -4 3 -13 16 -20 30 -12 24 -12 24 -6 1z"/>
<path d="M1263 1435 c-18 -19 -16 -30 1 -16 12 10 17 6 27 -28 7 -22 16 -38
21 -35 5 3 5 11 -1 18 -11 13 -2 30 17 32 28 2 32 5 32 22 -1 15 -2 15 -13 2
-18 -22 -53 -22 -63 0 -8 15 -11 16 -21 5z"/>
<path d="M863 1424 c-3 -8 -12 -13 -19 -10 -7 3 -16 1 -19 -5 -4 -5 -10 -7
-15 -4 -5 3 -11 1 -14 -4 -4 -5 -2 -12 3 -15 5 -4 12 -2 16 4 3 5 10 10 14 10
12 0 32 -66 25 -86 -3 -11 1 -8 9 6 9 14 13 29 10 33 -3 5 1 13 8 18 7 4 10
11 6 15 -3 4 -13 1 -22 -6 -12 -10 -15 -10 -15 3 0 9 9 21 20 27 21 11 27 30
10 30 -6 0 -13 -7 -17 -16z"/>
<path d="M909 1430 c-1 -8 -3 -48 -4 -88 -3 -69 -5 -76 -38 -110 -19 -21 -47
-62 -62 -92 -54 -107 -210 -318 -334 -450 -86 -92 -94 -72 -11 28 34 40 58 72
54 72 -7 0 -25 -18 -95 -98 -41 -47 -47 -51 -59 -37 -11 14 -9 20 18 43 17 15
43 45 57 67 15 22 62 78 104 125 43 47 91 99 105 115 51 57 18 -13 -40 -87
-61 -76 -72 -103 -18 -44 85 92 204 273 204 309 0 6 -12 -6 -26 -28 -15 -22
-32 -44 -39 -50 -6 -5 -17 -20 -24 -32 -6 -13 -18 -23 -25 -23 -8 0 -21 -10
-29 -22 -8 -13 -47 -57 -86 -98 -40 -41 -104 -112 -144 -157 -51 -57 -73 -76
-76 -65 -2 10 -14 35 -26 57 -13 22 -26 65 -30 98 -6 58 -22 107 -36 107 -4 0
-5 -9 -2 -20 5 -21 -11 -28 -22 -10 -3 6 -12 10 -18 10 -7 0 -1 -9 13 -19 13
-11 28 -17 32 -15 4 3 8 2 9 -3 1 -4 3 -28 5 -52 2 -23 20 -78 39 -121 19 -43
35 -81 35 -84 0 -4 18 -24 40 -45 32 -30 40 -45 40 -73 0 -20 7 -41 15 -48 8
-7 15 -21 15 -31 0 -35 -29 -19 -54 29 -14 26 -25 43 -26 38 0 -5 -7 -2 -17 5
-15 13 -15 12 -4 -10 21 -38 93 -113 102 -104 4 4 30 53 58 108 48 94 38 100
-11 8 -13 -24 -25 -43 -28 -43 -3 0 -11 14 -17 31 -12 31 -8 59 8 59 5 0 9 6
9 14 0 7 7 19 16 26 8 8 20 23 26 34 6 12 -10 -1 -36 -29 -36 -39 -48 -47 -58
-37 -9 9 0 24 44 69 31 32 78 85 104 118 26 33 54 68 63 77 23 24 32 36 71 93
19 28 38 52 41 55 4 3 21 33 39 68 18 35 56 91 86 124 49 55 54 65 54 108 0
26 7 66 15 89 8 25 10 39 4 35 -6 -4 -15 0 -20 7 -7 12 -9 11 -10 -1z"/>
<path d="M280 1415 c13 -16 62 -45 77 -45 12 0 -9 17 -52 40 -29 16 -36 18
-25 5z"/>
<path d="M738 1412 c-28 -17 -36 -32 -18 -32 6 0 10 5 10 10 0 6 9 10 20 10
11 0 20 7 20 15 0 8 -1 15 -2 14 -2 0 -15 -8 -30 -17z"/>
<path d="M2092 1418 c-7 -7 -12 -9 -12 -5 0 4 -9 -1 -19 -10 -11 -9 -18 -20
-15 -24 7 -12 73 24 74 39 0 15 -12 16 -28 0z"/>
<path d="M623 1407 c-26 -26 -41 -36 -47 -30 -3 4 -6 1 -6 -5 0 -18 14 -15 40
8 24 21 46 27 35 10 -3 -5 -1 -10 4 -10 13 0 13 3 5 24 -7 19 -15 20 -31 3z"/>
<path d="M1840 1394 c-21 -11 -22 -14 -7 -20 18 -7 24 -34 7 -34 -5 0 -10 -7
-10 -15 0 -8 5 -15 10 -15 6 0 10 7 10 15 0 9 7 18 15 21 8 4 15 10 15 15 0 5
-7 9 -15 9 -21 0 -19 18 3 22 9 2 13 6 7 9 -5 3 -21 0 -35 -7z"/>
<path d="M1920 1400 c0 -5 -6 -10 -14 -10 -9 0 -12 -7 -9 -20 3 -11 9 -17 14
-14 5 3 7 10 4 15 -4 5 1 12 9 15 18 7 22 24 6 24 -5 0 -10 -4 -10 -10z"/>
<path d="M768 1384 c-7 -6 15 -54 25 -54 4 0 7 7 7 15 0 8 -5 15 -11 15 -5 0
-8 4 -4 9 6 11 -9 24 -17 15z"/>
<path d="M1417 1383 c-11 -10 -8 -43 3 -43 6 0 10 4 10 9 0 5 3 16 6 25 6 16
-7 22 -19 9z"/>
<path d="M2100 1370 c0 -6 -4 -8 -10 -5 -5 3 -10 2 -10 -4 0 -5 -14 -12 -30
-16 -24 -5 -29 -11 -25 -25 9 -27 -14 -35 -23 -9 -10 26 -23 13 -17 -17 2 -10
4 -22 4 -26 1 -3 15 0 31 9 23 11 29 20 25 33 -3 10 -1 21 5 25 6 3 10 -3 10
-14 0 -21 11 -27 23 -14 4 3 2 12 -4 19 -7 9 -5 15 8 22 10 6 21 10 26 11 11
2 10 15 -2 19 -6 2 -11 -1 -11 -8z"/>
<path d="M1372 1354 c-18 -20 -5 -38 14 -20 15 16 19 36 7 36 -5 -1 -14 -7
-21 -16z"/>
<path d="M230 1335 c0 -8 80 -58 85 -53 3 3 -13 17 -35 32 -39 26 -50 30 -50
21z"/>
<path d="M520 1333 c0 -5 4 -14 8 -21 10 -14 42 -6 42 12 0 6 5 4 10 -4 8 -13
10 -12 10 3 0 21 -14 22 -34 1 -15 -14 -16 -14 -16 0 0 9 -4 16 -10 16 -5 0
-10 -3 -10 -7z"/>
<path d="M750 1329 c0 -5 -4 -7 -10 -4 -5 3 -10 1 -10 -5 0 -6 -4 -8 -10 -5
-5 3 -10 2 -10 -4 0 -5 5 -13 10 -16 6 -3 10 -2 10 4 0 5 9 13 20 16 21 7 28
25 10 25 -5 0 -10 -5 -10 -11z"/>
<path d="M320 1310 c14 -10 37 -29 53 -40 15 -12 27 -18 27 -13 -1 10 -84 73
-96 73 -5 -1 2 -9 16 -20z"/>
<path d="M1385 1307 c-10 -14 -22 -24 -27 -21 -12 7 -10 -3 5 -27 10 -17 10
-23 0 -26 -7 -3 -13 -11 -13 -19 0 -23 14 -16 27 13 10 21 10 28 1 34 -9 6 -6
14 11 28 13 11 21 25 19 32 -2 6 -12 0 -23 -14z"/>
<path d="M235 1291 c7 -12 67 -42 72 -37 4 4 -60 46 -71 46 -4 0 -5 -4 -1 -9z"/>
<path d="M1883 1282 c-18 -9 -33 -23 -33 -29 0 -7 -9 -13 -20 -13 -11 0 -20
-4 -20 -10 0 -18 31 -10 55 14 13 14 32 26 41 28 10 2 19 9 22 16 5 16 -6 14
-45 -6z"/>
<path d="M13 1273 c-7 -2 -13 -21 -13 -41 l0 -36 20 39 c25 50 25 51 -7 38z"/>
<path d="M1020 1268 c0 -6 18 -39 40 -73 38 -58 65 -123 56 -133 -3 -2 -14 15
-26 38 -12 23 -37 55 -56 72 -22 19 -34 40 -35 57 -1 26 -1 26 -10 -4 -7 -26
-4 -34 25 -65 18 -19 63 -80 98 -135 35 -55 87 -127 115 -161 63 -75 243 -256
344 -346 l76 -68 12 41 c7 23 11 42 9 43 -2 1 -21 14 -43 30 l-40 27 35 -30
c19 -17 29 -31 23 -31 -6 0 -26 17 -45 39 -18 21 -35 38 -38 37 -4 0 -60 53
-125 119 -139 139 -255 289 -344 445 -34 61 -64 110 -67 110 -2 0 -4 -5 -4
-12z"/>
<path d="M1471 1264 c-7 -8 -10 -18 -6 -22 3 -3 10 0 16 8 8 13 10 13 18 0 6
-8 13 -11 17 -8 3 4 -1 14 -9 23 -19 18 -19 18 -36 -1z"/>
<path d="M1645 1272 c-4 -4 -11 -7 -16 -7 -5 0 -9 -3 -9 -7 0 -5 0 -11 0 -14
0 -4 7 0 16 7 14 11 18 10 33 -9 9 -13 20 -20 24 -16 12 12 8 24 -9 24 -8 0
-13 4 -10 9 7 11 -19 22 -29 13z"/>
<path d="M2130 1260 c0 -5 -3 -9 -7 -9 -19 3 -33 -2 -33 -12 0 -7 7 -8 18 -4
9 4 23 8 30 8 14 0 17 27 2 27 -5 0 -10 -4 -10 -10z"/>
<path d="M626 1252 c-2 -4 2 -16 10 -27 11 -15 17 -16 26 -7 9 9 8 12 -5 12
-10 0 -14 5 -11 15 6 15 -11 21 -20 7z"/>
<path d="M1170 1242 c0 -7 9 -22 20 -34 11 -12 20 -29 20 -37 0 -14 -1 -14
-10 -1 -6 9 -10 10 -10 3 0 -24 20 -23 30 1 5 14 14 26 20 26 5 0 10 7 10 15
0 22 -18 18 -25 -6 -6 -19 -8 -18 -31 12 -13 18 -24 27 -24 21z"/>
<path d="M1884 1233 c-4 -13 -11 -20 -20 -16 -8 3 -14 -1 -14 -11 0 -21 9 -20
40 4 20 15 23 21 12 32 -10 10 -14 9 -18 -9z"/>
<path d="M1952 1224 c-20 -14 -21 -17 -8 -36 8 -11 12 -27 9 -34 -3 -8 0 -14
6 -14 13 0 14 20 2 39 -12 19 -3 41 15 34 8 -3 14 0 14 5 0 19 -16 21 -38 6z"/>
<path d="M2470 1233 c1 -5 22 -28 47 -53 l46 -45 -42 53 c-42 51 -51 59 -51
45z"/>
<path d="M1763 1216 c-13 -6 -23 -14 -23 -18 0 -11 18 -10 25 2 3 5 12 7 20 3
9 -3 15 1 15 11 0 18 -5 18 -37 2z"/>
<path d="M2285 1149 c-38 -34 -83 -68 -100 -76 -16 -9 -61 -37 -100 -63 -38
-26 -103 -61 -143 -77 -150 -62 -205 -124 -217 -248 -4 -38 -8 -71 -9 -72 -5
-6 -85 42 -126 75 -24 20 -40 30 -36 22 17 -30 -157 147 -232 235 -42 50 -82
89 -89 89 -7 -1 -10 2 -7 7 8 14 -5 29 -21 22 -8 -3 -15 -9 -15 -13 0 -8 101
-140 150 -196 27 -31 42 -40 73 -43 4 -1 7 -6 7 -12 0 -8 -5 -8 -15 1 -8 7
-15 9 -15 4 0 -5 22 -25 48 -44 26 -19 85 -71 132 -115 46 -44 79 -72 71 -62
-7 9 -9 17 -4 17 15 0 44 -36 36 -43 -3 -4 -1 -7 6 -7 8 0 11 8 9 18 -4 15 0
17 23 14 28 -4 29 -3 29 35 0 123 88 245 209 290 68 25 180 91 231 137 72 66
93 82 89 69 -8 -23 -113 -125 -156 -150 -24 -14 -43 -29 -43 -33 0 -12 60 26
131 84 49 40 118 123 153 184 11 19 6 15 -69 -49z"/>
<path d="M47 1183 c-14 -24 -47 -188 -46 -230 1 -26 4 -37 6 -23 7 45 55 170
63 165 10 -6 0 77 -10 88 -4 5 -10 5 -13 0z"/>
<path d="M1712 1183 c-18 -7 -4 -23 19 -23 12 0 19 5 17 12 -5 14 -18 18 -36
11z"/>
<path d="M2810 1175 c-10 -12 -10 -21 -3 -38 6 -12 19 -44 28 -70 9 -27 19
-47 20 -45 6 6 -28 118 -36 118 -4 0 -5 9 -2 20 3 11 7 20 9 20 1 0 40 -23 86
-50 65 -39 84 -47 86 -35 5 20 -16 45 -36 45 -8 0 -21 8 -29 18 -8 10 -11 11
-7 2 7 -13 5 -13 -8 -2 -9 7 -24 15 -34 17 -11 2 -28 7 -40 10 -13 4 -25 0
-34 -10z"/>
<path d="M2323 1108 c-72 -109 -163 -194 -286 -267 -59 -35 -105 -66 -103 -69
3 -2 17 5 33 15 15 11 55 35 88 53 33 18 62 36 65 39 3 4 26 19 53 35 26 15
45 31 42 36 -3 5 4 11 15 15 11 4 19 9 17 13 -2 4 12 23 31 42 l34 35 -30 -46
c-51 -76 -202 -209 -239 -209 -7 0 -13 -4 -13 -10 0 -5 -7 -10 -15 -10 -8 0
-15 -5 -15 -12 0 -6 -3 -8 -6 -5 -4 3 -16 0 -28 -8 -11 -8 -31 -15 -43 -15
-19 0 -21 3 -14 23 5 13 21 41 35 62 14 21 26 45 26 53 0 8 -22 -20 -48 -64
-26 -43 -56 -91 -66 -106 -10 -16 -14 -28 -10 -28 27 0 244 122 311 174 88 70
141 135 202 249 55 102 31 105 -36 5z"/>
<path d="M1652 1155 c-17 -8 -32 -19 -32 -24 0 -6 -7 -8 -15 -5 -8 4 -15 1
-15 -4 0 -19 17 -22 30 -7 7 8 19 15 26 15 8 0 14 4 14 10 0 5 6 7 14 4 8 -3
17 -1 20 5 11 17 -8 20 -42 6z"/>
<path d="M1160 1152 c0 -5 10 -17 23 -26 12 -9 16 -14 8 -10 -11 5 -13 3 -7
-11 5 -14 4 -16 -7 -7 -19 16 -29 3 -12 -14 27 -27 60 10 37 41 -14 19 -42 37
-42 27z"/>
<path d="M1430 1145 c0 -8 5 -15 10 -15 6 0 10 -6 10 -14 0 -15 37 -29 45 -16
3 4 -5 10 -16 13 -11 3 -23 15 -26 26 -6 24 -23 28 -23 6z"/>
<path d="M1551 1150 c-8 -4 -11 -12 -7 -18 3 -5 -1 -12 -9 -16 -8 -3 -15 -13
-15 -22 0 -8 6 -14 13 -11 6 2 11 10 10 16 -2 6 4 11 12 11 8 0 15 -9 15 -21
0 -11 -4 -18 -9 -14 -5 3 -13 0 -17 -6 -5 -9 1 -10 22 -5 40 10 41 13 16 39
-16 17 -19 26 -11 34 14 14 -3 24 -20 13z"/>
<path d="M704 1132 c-10 -9 -28 -19 -39 -20 -27 -5 -31 -10 -17 -24 14 -14 62
8 62 28 0 7 6 14 13 17 6 2 9 7 6 11 -3 3 -14 -2 -25 -12z"/>
<path d="M1895 1132 c-26 -14 -27 -17 -10 -20 10 -2 21 0 23 6 2 6 10 8 18 5
8 -3 14 1 14 11 0 19 -6 19 -45 -2z"/>
<path d="M1008 1075 c2 -14 11 -25 18 -25 8 0 14 -10 14 -25 0 -25 14 -33 25
-15 7 11 -22 71 -39 82 -19 13 -23 9 -18 -17z"/>
<path d="M615 1073 c-5 -13 -9 -14 -12 -5 -4 10 -8 10 -19 1 -8 -6 -14 -17
-14 -23 0 -6 4 -5 9 3 6 9 11 10 15 2 7 -11 46 16 46 31 0 15 -18 8 -25 -9z"/>
<path d="M1327 1066 c-10 -15 -15 -31 -12 -35 3 -5 -1 -11 -7 -14 -9 -3 -6
-12 10 -28 12 -13 22 -18 22 -12 0 7 -5 15 -10 18 -11 7 -2 57 13 66 5 4 8 12
5 19 -2 8 -11 2 -21 -14z"/>
<path d="M2482 1034 c-23 -31 -42 -62 -42 -68 0 -6 -5 -4 -11 4 -8 12 -9 10
-4 -8 4 -15 1 -24 -9 -28 -9 -3 -14 -10 -11 -14 3 -5 1 -11 -5 -15 -5 -3 -10
-1 -10 5 0 6 -5 8 -10 5 -6 -4 -8 -10 -5 -15 3 -4 2 -15 -1 -24 -5 -14 -9 -14
-22 -4 -13 11 -14 10 -7 -11 5 -16 4 -21 -4 -17 -7 4 -11 -1 -11 -13 0 -12 -4
-21 -10 -21 -5 0 -10 -4 -10 -9 0 -20 -61 -98 -125 -161 -62 -61 -103 -112
-76 -96 6 4 3 -10 -6 -31 -10 -21 -24 -42 -30 -46 -18 -11 -16 -67 2 -111 21
-49 26 -46 10 7 -6 23 -10 49 -7 57 5 16 154 209 191 247 11 12 19 28 16 35
-2 7 18 45 45 83 133 186 209 305 197 305 -2 0 -22 -25 -45 -56z"/>
<path d="M802 1020 c-35 -48 -44 -81 -11 -40 11 14 27 33 35 43 8 10 14 23 12
29 -2 6 -18 -9 -36 -32z"/>
<path d="M1592 1048 c-7 -7 -12 -16 -12 -22 0 -5 -7 -18 -17 -28 -10 -11 -12
-18 -4 -18 7 0 17 13 24 28 7 16 18 27 25 25 6 -3 12 2 12 11 0 19 -11 21 -28
4z"/>
<path d="M1501 1024 c-7 -8 -10 -18 -6 -22 4 -4 10 -1 12 6 6 15 33 16 33 1 0
-5 5 -7 10 -4 6 4 5 12 -4 21 -18 18 -27 17 -45 -2z"/>
<path d="M2513 1007 c-6 -12 -53 -79 -104 -147 -52 -69 -100 -133 -107 -142
-7 -10 -11 -18 -9 -18 10 0 88 84 108 117 13 21 35 54 50 73 33 42 82 130 76
136 -2 2 -8 -6 -14 -19z"/>
<path d="M82 962 c-7 -31 -15 -70 -18 -87 -3 -16 -9 -32 -13 -35 -12 -7 -24
-70 -14 -70 5 0 15 22 23 49 9 34 17 48 27 44 10 -4 13 8 13 51 0 57 11 71 29
39 9 -16 10 -16 11 3 0 11 -10 30 -23 42 l-23 22 -12 -58z"/>
<path d="M1843 996 c-26 -12 -30 -26 -8 -26 8 0 15 5 15 10 0 6 7 10 15 10 8
0 15 5 15 10 0 12 -8 11 -37 -4z"/>
<path d="M1070 990 c0 -5 -7 -7 -15 -4 -8 4 -15 1 -15 -5 0 -6 7 -11 16 -11
11 0 14 -6 9 -20 -9 -27 3 -25 15 3 l9 22 0 -22 c1 -13 5 -23 9 -23 19 0 21
14 5 41 -17 29 -33 38 -33 19z"/>
<path d="M1575 970 c-3 -5 1 -10 9 -10 19 0 21 -26 4 -33 -8 -4 -9 -6 -2 -6 6
-1 17 6 24 14 10 11 9 18 -3 30 -18 18 -24 19 -32 5z"/>
<path d="M1090 905 c0 -8 5 -15 10 -15 6 0 10 4 10 9 0 12 37 2 50 -14 8 -10
8 -19 0 -34 -7 -14 -7 -21 0 -21 5 0 10 8 10 18 1 13 6 11 26 -12 19 -22 24
-35 19 -57 -6 -24 -4 -28 10 -23 9 4 14 13 10 22 -4 12 -3 13 10 2 19 -16 19
-30 0 -30 -8 0 -15 -4 -15 -10 0 -5 4 -10 9 -10 6 0 13 5 16 10 10 16 28 11
21 -6 -3 -9 -2 -12 4 -9 12 7 49 -33 50 -52 0 -8 7 -10 18 -6 15 6 15 5 3 -11
-11 -13 -11 -20 -3 -28 9 -9 12 -9 12 0 0 17 17 15 24 -4 3 -8 2 -12 -3 -9 -5
3 -13 0 -17 -6 -5 -8 3 -10 25 -7 21 3 31 0 31 -9 0 -7 -5 -12 -11 -11 -6 2
-14 -4 -16 -12 -3 -9 -1 -11 4 -5 13 16 53 17 53 1 0 -8 -6 -17 -12 -20 -7 -3
-3 -3 10 0 20 5 22 3 16 -20 -4 -16 -2 -26 5 -26 6 0 11 7 11 16 0 8 5 12 11
8 6 -3 9 -19 5 -35 -4 -22 -2 -27 10 -22 8 3 13 12 10 19 -3 8 0 11 10 7 7 -3
14 -12 14 -20 0 -9 6 -13 15 -9 11 4 15 -2 15 -20 0 -15 4 -23 11 -19 20 13
50 -32 45 -69 -3 -20 1 -42 10 -53 15 -20 19 -44 7 -42 -20 3 -43 -2 -43 -9 0
-10 30 -9 46 0 19 12 49 1 46 -16 -2 -9 2 -16 9 -16 6 0 9 8 6 20 -3 10 0 22
7 25 6 3 -1 3 -16 2 -34 -5 -51 30 -46 94 l3 43 85 21 c47 12 110 30 140 40
73 24 178 77 163 82 -7 3 -25 -2 -40 -11 -76 -40 -195 -81 -291 -99 -31 -6
-33 -5 -27 16 5 20 5 20 -7 5 -7 -9 -18 -24 -23 -33 -9 -15 -17 -10 -66 37
-221 213 -300 293 -361 365 -38 44 -76 84 -84 87 -28 11 -54 6 -54 -9z"/>
<path d="M2880 903 c1 -32 69 -244 83 -258 7 -7 8 -3 3 10 -16 43 -55 172 -66
213 -9 37 -20 56 -20 35z"/>
<path d="M1864 825 c-64 -67 -79 -93 -99 -180 -11 -44 -24 -74 -40 -88 -13
-12 -27 -35 -30 -52 l-6 -30 13 28 c7 16 18 27 23 25 12 -4 49 68 69 137 16
52 48 106 104 174 48 59 30 50 -34 -14z"/>
<path d="M138 865 c-3 -3 -1 -23 4 -43 6 -20 10 -60 9 -87 -1 -40 4 -58 24
-85 14 -19 25 -47 25 -65 0 -18 12 -54 26 -81 14 -27 28 -62 30 -78 2 -16 7
-32 12 -35 15 -10 31 -47 36 -82 2 -19 7 -45 10 -59 3 -14 8 -38 10 -55 3 -16
15 -67 27 -112 17 -66 25 -83 40 -83 16 0 17 4 9 26 -22 56 -81 317 -77 335 3
10 2 19 -2 21 -25 11 -75 120 -101 218 -7 25 -20 70 -30 100 -10 30 -21 75
-24 100 -7 47 -18 74 -28 65z"/>
<path d="M667 813 c-13 -21 -36 -57 -50 -80 -34 -53 -34 -64 -2 -29 14 15 25
33 25 41 0 8 8 22 18 32 18 18 46 73 37 73 -3 0 -15 -17 -28 -37z"/>
<path d="M974 808 c1 -17 7 -33 14 -36 14 -4 17 14 3 22 -5 3 -7 15 -4 26 3
11 1 20 -4 20 -6 0 -10 -14 -9 -32z"/>
<path d="M2333 707 c-49 -51 -223 -268 -223 -279 0 -21 29 4 83 70 32 39 62
72 67 72 4 0 18 19 30 42 12 24 31 49 41 56 19 13 54 71 47 78 -3 2 -23 -15
-45 -39z"/>
<path d="M1140 695 c0 -8 -4 -15 -10 -15 -5 0 -10 -7 -10 -15 0 -8 5 -15 10
-15 6 0 10 7 10 15 0 8 5 15 10 15 6 0 10 7 10 15 0 8 -4 15 -10 15 -5 0 -10
-7 -10 -15z"/>
<path d="M236 681 c-4 -6 -2 -11 5 -11 7 0 10 -11 7 -30 -3 -22 0 -30 10 -30
11 0 13 8 8 32 -7 38 -21 55 -30 39z"/>
<path d="M2382 630 c-18 -11 -41 -35 -50 -52 -9 -17 -25 -39 -34 -50 -10 -10
-18 -20 -18 -22 0 -3 -13 -25 -30 -49 -16 -25 -30 -48 -30 -52 0 -4 -7 -22
-16 -41 -11 -22 -14 -43 -9 -61 7 -28 7 -28 20 12 20 65 174 304 202 312 6 3
13 -8 15 -24 2 -15 8 -27 13 -25 14 5 7 34 -13 54 -16 17 -19 17 -50 -2z"/>
<path d="M1022 610 c1 -22 5 -29 15 -26 9 4 13 -3 13 -19 0 -14 5 -25 10 -25
18 0 10 45 -10 58 -11 7 -17 18 -14 27 4 8 1 15 -4 15 -6 0 -10 -14 -10 -30z"/>
<path d="M2346 500 c-73 -111 -119 -196 -114 -211 2 -6 20 22 41 60 21 39 43
70 49 68 6 -1 13 4 16 12 3 9 0 11 -8 6 -9 -6 -9 -3 -1 14 7 11 14 21 17 21 3
0 3 -4 0 -9 -3 -5 0 -11 8 -14 12 -5 47 58 51 93 1 8 6 23 10 33 4 10 5 20 2
23 -2 3 -35 -40 -71 -96z"/>
<path d="M1253 583 c-22 -8 -14 -21 9 -15 14 3 19 2 14 -7 -4 -6 -12 -9 -17
-6 -5 4 -9 2 -9 -4 0 -5 5 -13 10 -16 6 -3 10 -1 10 4 0 6 4 10 9 9 12 -4 14
3 6 25 -7 18 -11 19 -32 10z"/>
<path d="M1088 554 c-7 -6 15 -54 25 -54 4 0 7 7 7 15 0 8 -5 15 -11 15 -5 0
-8 4 -4 9 6 11 -9 24 -17 15z"/>
<path d="M1360 515 c0 -7 11 -12 25 -12 14 0 25 5 25 12 0 7 -11 13 -25 13
-14 0 -25 -6 -25 -13z"/>
<path d="M1120 471 c0 -19 17 -38 25 -29 7 7 -7 48 -16 48 -5 0 -9 -9 -9 -19z"/>
<path d="M1293 477 c-3 -4 -2 -11 2 -15 3 -3 10 0 14 7 6 9 11 10 15 2 10 -15
46 -14 46 2 0 15 -68 19 -77 4z"/>
<path d="M1390 475 c0 -18 16 -20 23 -2 4 10 6 10 6 0 1 -18 18 -16 25 2 4 11
-2 15 -24 15 -20 0 -30 -5 -30 -15z"/>
<path d="M320 457 c0 -4 10 -21 22 -38 19 -25 20 -32 8 -39 -11 -7 -11 -11 -1
-24 7 -8 14 -34 17 -58 8 -86 93 -298 119 -298 20 0 20 0 -16 78 -62 136 -81
196 -86 277 -6 99 -9 111 -26 96 -10 -8 -17 -7 -25 1 -7 7 -12 9 -12 5z"/>
<path d="M1095 431 c4 -12 2 -21 -4 -21 -6 0 -11 7 -11 15 0 8 -5 15 -10 15
-7 0 -7 -6 0 -20 13 -23 40 -27 40 -5 0 8 0 18 1 22 0 4 -5 9 -11 11 -8 3 -10
-3 -5 -17z"/>
<path d="M1171 438 c0 -7 4 -22 9 -33 8 -19 9 -19 9 3 1 12 6 22 11 22 6 0 10
5 10 10 0 6 -9 10 -20 10 -11 0 -20 -6 -19 -12z"/>
<path d="M800 420 c0 -5 5 -10 11 -10 6 0 8 -9 4 -22 -4 -16 -3 -19 3 -9 8 11
10 11 14 0 3 -8 9 -10 14 -6 5 4 4 11 -2 15 -6 4 -13 15 -17 25 -7 18 -27 24
-27 7z"/>
<path d="M984 382 c5 -36 12 -49 22 -39 4 4 -1 21 -10 39 l-17 33 5 -33z"/>
<path d="M1749 348 c-11 -46 -3 -62 19 -35 7 8 6 16 -4 25 -8 7 -14 11 -15 10z"/>
<path d="M2930 340 c0 -8 9 -51 20 -95 11 -44 23 -117 26 -162 4 -46 11 -83
16 -83 13 0 4 205 -12 261 -13 49 -49 106 -50 79z"/>
<path d="M2876 305 c-10 -22 -27 -65 -38 -95 -10 -30 -23 -64 -28 -75 -50
-123 -53 -135 -31 -135 13 0 68 119 85 180 8 30 20 69 26 87 6 17 10 42 8 55
-3 20 -6 18 -22 -17z"/>
<path d="M911 317 c-1 -13 4 -16 23 -11 18 4 25 1 28 -13 2 -10 6 -13 10 -8 3
6 0 19 -8 29 -11 15 -16 17 -28 7 -11 -9 -15 -9 -19 1 -4 8 -6 6 -6 -5z"/>
<path d="M1060 323 c1 -17 29 -45 39 -38 6 3 9 11 5 16 -3 5 -10 7 -15 4 -5
-4 -9 1 -9 9 0 9 -4 16 -10 16 -5 0 -10 -3 -10 -7z"/>
<path d="M1464 296 c-3 -8 -12 -12 -20 -9 -8 3 -14 0 -14 -5 0 -15 17 -24 24
-13 4 5 20 9 36 9 35 -1 45 6 34 23 -5 9 -11 7 -21 -6 -12 -17 -13 -17 -13 -2
0 21 -19 23 -26 3z"/>
<path d="M1045 291 c-3 -6 -11 -9 -17 -5 -6 4 -8 -3 -6 -17 1 -12 9 -24 16
-27 8 -2 10 2 6 13 -4 10 -1 21 7 25 7 5 11 12 7 15 -3 4 -9 1 -13 -4z"/>
<path d="M1170 286 c0 -10 9 -16 21 -16 24 0 21 23 -4 28 -10 2 -17 -3 -17
-12z"/>
<path d="M1830 290 c-8 -5 -12 -11 -10 -14 7 -6 60 5 60 13 0 10 -34 11 -50 1z"/>
<path d="M1246 275 c-6 -18 -1 -19 25 -5 13 7 19 7 19 0 0 -5 7 -10 15 -10 8
0 15 7 15 15 0 10 -10 15 -34 15 -21 0 -36 -6 -40 -15z"/>
<path d="M1501 243 c0 -13 2 -14 6 -4 4 10 7 11 13 1 4 -7 13 -9 19 -6 19 12
12 26 -14 26 -17 0 -25 -5 -24 -17z"/>
<path d="M953 243 c-15 -6 -17 -33 -3 -33 6 0 10 7 10 15 0 8 5 15 10 15 6 0
10 -7 10 -16 0 -14 3 -14 15 -4 10 9 15 9 15 1 0 -6 5 -11 11 -11 6 0 9 6 6
13 -2 6 -11 12 -20 12 -8 0 -19 4 -23 8 -8 8 -13 8 -31 0z"/>
<path d="M1250 236 c0 -13 39 -14 58 -2 7 4 12 2 12 -3 0 -7 18 -9 48 -5 26 3
53 6 60 6 6 1 12 4 12 8 0 4 -43 7 -95 7 -65 0 -95 -3 -95 -11z"/>
<path d="M1643 225 c-3 -9 -3 -19 1 -22 8 -9 37 18 30 28 -8 14 -24 11 -31 -6z"/>
<path d="M1940 230 c0 -5 -6 -10 -13 -10 -7 0 -30 -17 -52 -37 -61 -58 -99
-89 -93 -78 12 20 -48 14 -60 -6 -10 -15 -10 -19 1 -19 7 0 18 5 25 12 6 6 15
8 19 4 4 -4 0 -12 -9 -17 -9 -5 -32 -22 -49 -37 -18 -15 -41 -26 -51 -24 -10
2 -18 -2 -18 -7 0 -14 36 -14 63 1 24 12 211 173 241 207 11 11 14 21 8 21 -7
0 -12 -4 -12 -10z"/>
<path d="M1600 220 c0 -7 -8 -9 -20 -5 -12 4 -20 2 -20 -5 0 -7 13 -10 33 -8
17 2 31 7 30 13 -2 14 -23 19 -23 5z"/>
<path d="M796 194 c-11 -7 -16 -17 -12 -21 4 -4 12 -1 17 7 8 11 12 12 16 3 7
-18 23 -16 23 3 0 8 -4 13 -9 10 -5 -4 -11 -2 -13 3 -1 5 -12 3 -22 -5z"/>
<path d="M1300 200 c0 -6 7 -13 15 -16 8 -4 15 -12 15 -20 0 -8 5 -14 11 -14
6 0 8 6 5 13 -3 6 -9 20 -12 30 -7 18 -34 24 -34 7z"/>
<path d="M1676 191 c-3 -4 -17 -6 -31 -3 -16 3 -25 0 -25 -8 0 -10 -3 -10 -15
0 -12 10 -15 10 -15 -4 0 -19 21 -21 38 -4 9 9 12 8 12 -5 0 -21 19 -22 26 -2
4 8 12 15 19 15 8 0 17 5 20 10 3 6 -1 10 -9 10 -8 0 -17 -4 -20 -9z"/>
<path d="M1066 175 c-21 -22 -20 -28 4 -20 12 4 20 2 20 -6 0 -9 3 -9 14 0 10
8 16 9 21 1 8 -14 25 -3 25 17 0 11 -6 14 -27 9 -15 -4 -29 -3 -33 4 -5 8 -12
7 -24 -5z"/>
<path d="M1173 173 c-7 -3 -13 -10 -13 -18 0 -7 -7 -18 -15 -25 -17 -14 -20
-40 -6 -40 5 0 11 10 13 22 2 14 12 24 27 28 14 3 26 10 28 17 4 12 -16 22
-34 16z"/>
<path d="M1440 163 c0 -16 12 -17 27 -2 7 7 13 7 17 1 7 -12 46 -4 46 9 0 5
-20 8 -45 7 -30 -1 -45 -6 -45 -15z"/>
<path d="M1940 140 c-25 -21 -49 -39 -55 -39 -5 0 1 8 15 19 21 17 22 20 6 20
-10 0 -54 -31 -97 -70 -83 -73 -91 -98 -10 -32 61 51 71 56 71 38 0 -8 -9 -18
-20 -21 -23 -7 -44 -41 -31 -49 5 -4 45 27 88 68 l80 75 39 -14 c21 -8 50 -14
64 -14 20 0 17 3 -14 14 -22 8 -44 11 -49 8 -6 -4 -8 2 -5 13 9 35 -34 27 -82
-16z"/>
<path d="M968 154 c-3 -3 -4 -13 -1 -24 6 -21 38 -20 38 1 0 8 -8 13 -19 11
-11 -2 -15 1 -11 7 7 12 2 15 -7 5z"/>
<path d="M1660 130 c-14 -16 -35 -29 -47 -29 -14 -1 -23 -7 -23 -17 0 -12 4
-14 13 -6 6 5 22 8 35 6 16 -3 22 1 22 15 0 18 28 49 39 43 3 -2 7 1 9 7 7 21
-23 9 -48 -19z"/>
<path d="M1727 153 c-12 -11 -8 -23 7 -23 7 0 19 7 26 15 10 12 9 15 -7 15
-11 0 -23 -3 -26 -7z"/>
<path d="M1340 129 c0 -5 3 -9 8 -10 4 0 17 -2 30 -5 14 -2 22 1 22 10 0 8
-12 13 -30 14 -16 0 -30 -4 -30 -9z"/>
<path d="M28 101 c3 -7 -3 -20 -13 -27 -16 -12 -15 -15 14 -45 l32 -31 24 26
c26 29 33 70 13 82 -6 4 -26 8 -44 9 -24 0 -30 -3 -26 -14z m62 -22 c13 -22
-1 -49 -26 -49 -19 0 -25 16 -18 45 7 30 29 33 44 4z"/>
<path d="M1167 106 c-4 -9 3 -16 16 -20 28 -7 33 -1 14 19 -19 19 -23 19 -30
1z"/>
<path d="M1925 60 c-58 -59 -59 -60 -31 -60 16 0 27 3 24 6 -3 3 4 15 16 27
12 12 28 32 37 44 13 19 20 21 52 13 20 -4 37 -6 37 -5 0 4 -61 35 -69 35 -4
0 -33 -27 -66 -60z"/>
<path d="M1310 87 c0 -16 56 -19 69 -3 8 10 2 13 -29 14 -26 1 -40 -2 -40 -11z"/>
<path d="M1475 91 c-7 -12 4 -18 29 -17 11 1 21 7 23 14 5 14 -43 17 -52 3z"/>
<path d="M1365 52 c-3 -3 -5 -9 -5 -14 0 -11 63 -3 67 9 4 10 -53 14 -62 5z"/>
<path d="M1477 8 c-7 -4 7 -8 31 -8 23 0 42 4 42 9 0 10 -57 9 -73 -1z"/>
</g>
</svg>
