<?xml version="1.0" standalone="no"?>
<!DOCTYPE svg PUBLIC "-//W3C//DTD SVG 20010904//EN"
 "http://www.w3.org/TR/2001/REC-SVG-20010904/DTD/svg10.dtd">
<svg version="1.0" xmlns="http://www.w3.org/2000/svg"
 width="300.000000pt" height="347.000000pt" viewBox="0 0 300.000000 347.000000"
 preserveAspectRatio="xMidYMid meet">
<metadata>
Created by potrace 1.10, written by Peter Selinger 2001-2011
</metadata>
<g transform="translate(0.000000,347.000000) scale(0.100000,-0.100000)"
fill="#000000" stroke="none">
<path d="M930 3278 c11 -18 20 -44 21 -58 0 -25 0 -25 9 -2 5 12 16 22 25 22
8 0 15 6 15 14 0 8 7 17 16 20 9 4 14 9 11 13 -4 3 -12 1 -20 -5 -19 -16 -57
-10 -68 10 -5 10 -14 18 -19 18 -5 0 -1 -15 10 -32z"/>
<path d="M890 3289 c0 -7 -9 -19 -20 -29 -18 -15 -18 -19 -5 -30 11 -9 15 -9
15 -1 0 7 5 9 10 6 6 -4 10 8 10 29 0 20 -2 36 -5 36 -3 0 -5 -5 -5 -11z"/>
<path d="M1055 3248 c5 -42 2 -65 -10 -87 l-16 -31 31 0 c18 0 29 -5 28 -12
-2 -6 20 -16 53 -23 30 -6 60 -14 65 -18 6 -3 16 4 24 16 12 20 12 21 -4 8
-13 -11 -22 -12 -42 -2 -14 6 -34 11 -44 11 -21 0 -82 54 -73 64 10 9 4 97 -8
115 -7 11 -8 0 -4 -41z"/>
<path d="M830 3228 c0 -22 -32 -28 -47 -8 -7 8 -13 10 -13 4 -1 -30 48 -40 72
-16 9 9 9 15 0 24 -9 9 -12 8 -12 -4z"/>
<path d="M839 3184 c-12 -16 -12 -17 4 -11 14 5 16 2 11 -17 -3 -13 -1 -27 5
-30 6 -4 11 -2 11 5 0 7 7 4 15 -7 23 -30 17 -3 -8 39 -22 36 -24 37 -38 21z"/>
<path d="M890 3198 c0 -4 7 -26 16 -48 9 -22 14 -49 11 -59 -3 -13 0 -18 8
-15 20 8 25 66 8 94 -10 18 -13 19 -9 5 5 -17 3 -16 -14 5 -11 14 -20 22 -20
18z"/>
<path d="M796 3154 c-3 -8 -2 -12 4 -9 6 3 10 1 10 -5 0 -15 29 -44 37 -37 5
5 -34 67 -42 67 -1 0 -6 -7 -9 -16z"/>
<path d="M995 3140 c-4 -6 -11 -8 -16 -4 -6 3 -7 -5 -3 -23 16 -65 21 -69 25
-15 4 55 4 58 -6 42z"/>
<path d="M789 3086 c-18 -16 -24 -28 -18 -37 6 -11 9 -10 15 5 5 14 9 15 16 4
8 -10 9 -9 5 3 -3 9 0 22 6 28 21 21 1 19 -24 -3z"/>
<path d="M1047 3072 c8 -21 56 -82 61 -78 7 8 -38 84 -52 89 -11 4 -13 1 -9
-11z"/>
<path d="M944 3036 c-14 -29 -16 -42 -8 -39 12 4 21 19 22 37 0 5 5 12 11 15
5 4 7 12 2 19 -5 8 -14 -3 -27 -32z"/>
<path d="M768 3026 c-15 -8 -38 -22 -50 -31 -23 -17 -22 -17 15 -11 25 5 37 3
37 -5 0 -8 4 -8 15 1 18 15 20 34 3 25 -7 -4 -5 0 5 8 33 28 18 35 -25 13z"/>
<path d="M815 2974 c-11 -8 -19 -20 -17 -26 2 -8 -1 -8 -11 0 -11 9 -14 8 -14
-5 0 -8 8 -18 18 -20 11 -3 15 -11 11 -25 -4 -15 -7 -17 -13 -6 -7 10 -9 9 -9
-3 0 -9 11 -24 25 -33 25 -16 25 -16 25 11 0 16 7 37 15 47 19 26 19 42 0 26
-10 -9 -15 -9 -15 -1 0 21 2 26 9 24 4 -1 8 5 8 13 0 18 -7 17 -32 -2z"/>
<path d="M1206 2955 c-3 -8 -1 -17 5 -20 5 -4 7 -11 4 -16 -4 -5 -3 -9 2 -10
4 0 18 -2 31 -5 25 -4 31 13 7 22 -8 4 -15 12 -15 19 0 19 -27 26 -34 10z"/>
<path d="M997 2943 c-4 -3 -7 -20 -8 -37 0 -17 -3 -25 -6 -18 -4 10 -11 5 -24
-15 -23 -34 -25 -73 -5 -73 19 0 29 17 16 25 -13 8 -13 45 0 45 5 0 13 -7 18
-16 11 -20 27 -1 18 21 -7 20 -2 19 39 -7 19 -13 35 -32 37 -43 2 -14 11 -20
28 -20 14 0 30 -6 36 -14 8 -11 15 -11 32 -2 15 8 22 8 22 1 0 -7 6 -8 19 0
28 14 33 13 27 -8 -8 -23 37 -68 55 -56 9 5 11 -1 6 -24 -7 -36 0 -40 29 -16
13 11 15 17 6 20 -6 3 -10 10 -7 14 3 5 -4 15 -15 23 -11 7 -17 17 -12 22 4 5
1 5 -6 1 -7 -5 -22 5 -38 23 -14 17 -33 31 -42 31 -12 0 -13 3 -4 12 15 15 16
42 1 33 -5 -4 -14 -18 -19 -31 -9 -23 -11 -24 -42 -10 -18 7 -32 19 -30 26 3
11 0 11 -12 0 -17 -13 -18 -10 -18 30 1 16 -1 19 -4 8 -7 -23 -15 -23 -42 2
-12 11 -28 17 -37 14 -13 -5 -15 -2 -9 20 6 26 3 32 -9 19z"/>
<path d="M883 2933 c-7 -3 -13 -14 -13 -25 0 -17 2 -18 15 -8 21 17 32 4 17
-21 -7 -10 -10 -30 -6 -44 6 -26 23 -34 25 -12 1 6 2 27 4 46 2 18 9 37 16 42
7 4 10 11 6 15 -9 9 -48 13 -64 7z"/>
<path d="M1498 2909 c20 -22 14 -34 -8 -14 -34 30 -22 9 15 -28 19 -19 35 -33
35 -31 0 15 -30 73 -41 79 -11 6 -12 5 -1 -6z"/>
<path d="M1414 2853 c3 -10 -1 -31 -9 -47 -17 -31 -7 -68 12 -44 14 17 24 74
17 93 -8 21 -27 19 -20 -2z"/>
<path d="M1500 2829 c0 -15 33 -115 41 -123 8 -9 4 29 -8 69 -6 20 -33 64 -33
54z"/>
<path d="M1641 2775 c-28 -41 -38 -44 -44 -12 l-4 22 -2 -22 c0 -12 9 -29 21
-37 21 -15 22 -14 37 17 8 17 20 35 25 39 7 5 8 10 1 17 -7 7 -18 -1 -34 -24z"/>
<path d="M1500 2708 c0 -20 5 -40 10 -43 6 -4 8 -10 5 -15 -3 -5 -1 -11 5 -15
6 -4 8 11 4 42 -8 60 -24 80 -24 31z"/>
<path d="M2401 2723 c-19 -16 -20 -20 -8 -37 27 -36 63 3 38 42 -6 10 -12 9
-30 -5z"/>
<path d="M1394 2712 c4 -12 -3 -23 -24 -35 -33 -20 -36 -30 -16 -67 14 -24 14
-24 14 14 0 34 8 47 33 58 4 2 10 13 13 26 6 17 3 22 -9 22 -11 0 -15 -6 -11
-18z"/>
<path d="M1472 2686 c-8 -18 -9 -33 -3 -44 8 -14 10 -13 16 10 4 14 5 34 3 44
-2 14 -6 12 -16 -10z"/>
<path d="M1570 2668 c0 -34 -17 -46 -23 -16 -3 14 -5 8 -6 -15 0 -21 -8 -45
-16 -54 -14 -14 -18 -14 -34 1 -22 20 -42 21 -34 0 3 -8 11 -13 18 -10 7 2 17
0 23 -6 6 -6 41 -12 79 -15 97 -6 116 -11 109 -28 -4 -13 4 -14 51 -8 61 7 62
3 19 -46 -20 -22 -19 -22 32 5 l52 29 -32 28 c-18 15 -43 27 -58 26 l-25 -1
25 -7 25 -7 -28 -7 c-36 -10 -41 -6 -61 48 -10 25 -21 43 -26 40 -5 -3 -10 -2
-13 2 -2 5 -2 1 1 -7 2 -8 7 -23 9 -32 3 -10 1 -18 -5 -18 -6 0 -15 19 -20 43
l-10 42 -1 -43 c-1 -36 -4 -43 -18 -40 -14 3 -17 12 -15 46 1 24 -2 51 -7 60
-9 14 -10 13 -11 -10z"/>
<path d="M1037 2629 c-28 -33 -15 -40 14 -8 15 16 21 29 15 29 -6 0 -20 -9
-29 -21z"/>
<path d="M1381 2602 c-21 -51 -98 -77 -253 -86 -31 -2 -69 -7 -85 -10 -35 -9
-170 -64 -198 -81 -11 -7 -31 -16 -44 -20 -20 -6 -23 -4 -17 10 5 15 4 16 -9
5 -8 -7 -15 -18 -15 -24 0 -15 59 -86 71 -86 6 0 -3 14 -20 31 -36 35 -39 47
-12 45 12 -1 36 -25 61 -61 23 -33 54 -72 68 -87 32 -34 10 -38 -27 -5 l-26
22 25 -28 c15 -17 31 -26 42 -23 12 3 32 -12 63 -47 55 -63 51 -75 -6 -18 -48
48 -58 52 -30 12 30 -41 86 -82 98 -70 6 6 28 -10 62 -46 61 -64 54 -63 301
-69 153 -4 260 2 260 14 0 4 -12 5 -27 3 -22 -3 -19 0 12 13 42 18 57 33 49
46 -3 4 0 8 5 8 6 0 11 5 11 10 0 20 -21 9 -30 -15 -5 -14 -16 -25 -25 -25 -8
0 -15 -3 -15 -8 0 -28 -272 -39 -304 -13 -15 12 -16 12 -9 -5 6 -16 5 -17 -9
-6 -10 8 -26 10 -42 6 -36 -9 -178 37 -173 57 1 4 -30 38 -68 76 -111 108
-225 238 -225 259 0 16 103 65 180 86 73 19 189 32 292 31 60 0 105 4 102 9
-3 5 -11 8 -17 7 -7 -1 -28 -1 -46 0 -59 2 -21 19 52 24 84 6 99 17 26 18 -30
1 -45 4 -33 6 16 3 20 10 16 29 -6 35 -18 38 -31 6z"/>
<path d="M1464 2521 c4 -5 0 -12 -6 -14 -7 -3 2 -6 21 -6 29 -1 32 1 21 14
-13 16 -45 21 -36 6z"/>
<path d="M1570 2510 c-10 -6 3 -8 40 -4 30 3 57 7 59 10 9 9 -85 3 -99 -6z"/>
<path d="M1946 2511 c28 -5 69 -14 90 -21 51 -16 183 -86 211 -112 16 -15 29
-19 47 -14 18 4 26 2 26 -7 0 -25 56 -69 81 -64 23 4 23 4 -2 6 -27 1 -45 16
-64 55 -8 16 -18 20 -42 18 -25 -2 -35 2 -49 22 -9 14 -23 26 -31 26 -19 0
-113 62 -113 75 0 5 -15 10 -32 11 -18 0 -64 3 -103 7 -55 5 -59 4 -19 -2z"/>
<path d="M1850 2457 c0 -15 44 -39 54 -30 3 4 6 16 6 27 0 17 -2 18 -10 6 -7
-12 -12 -12 -22 -2 -16 16 -28 15 -28 -1z"/>
<path d="M1929 2460 c-1 -8 -1 -21 0 -27 1 -7 -3 -13 -8 -13 -7 0 -7 -9 0 -27
7 -19 7 -29 0 -31 -6 -2 -11 -8 -11 -13 0 -6 5 -7 10 -4 15 9 12 -3 -7 -36
-10 -16 -23 -27 -30 -25 -17 7 -17 -9 1 -23 17 -14 41 20 62 88 7 26 22 56 33
65 19 17 20 17 31 -3 6 -12 16 -21 23 -20 9 0 8 2 -1 6 -9 4 -10 8 -2 18 9 11
2 15 -35 20 -25 4 -49 14 -55 24 -8 13 -10 14 -11 1z"/>
<path d="M466 2428 c10 -33 27 -56 61 -81 27 -20 29 -25 20 -57 l-9 -35 -11
25 c-5 14 -10 35 -10 48 0 12 -5 21 -11 19 -15 -6 -10 -40 13 -91 l18 -41 14
50 c7 28 15 42 17 32 2 -9 8 -15 13 -11 5 3 6 10 3 16 -4 6 -3 8 3 5 5 -4 23
7 38 23 33 34 23 41 -12 9 l-22 -22 -48 53 c-26 29 -52 59 -56 66 -13 23 -29
16 -21 -8z"/>
<path d="M1770 2435 c0 -3 9 -16 21 -28 11 -12 19 -31 16 -42 -2 -14 2 -21 14
-21 14 0 15 4 6 26 -17 39 -38 70 -48 70 -5 0 -9 -2 -9 -5z"/>
<path d="M1823 2418 c20 -48 34 -67 43 -64 6 3 17 -1 24 -7 10 -10 10 -8 2 8
-5 11 -15 32 -21 48 -7 17 -18 27 -32 27 -13 0 -19 -5 -16 -12z"/>
<path d="M2050 2401 c0 -5 5 -13 10 -16 6 -4 8 -11 4 -16 -3 -5 0 -8 8 -7 8 2
12 -6 10 -22 -2 -22 -1 -23 8 -7 9 14 6 24 -14 48 -14 17 -26 26 -26 20z"/>
<path d="M710 2372 c-19 -9 -36 -24 -38 -32 -4 -11 2 -9 18 5 12 11 25 19 29
18 10 -2 36 15 30 21 -3 3 -20 -2 -39 -12z"/>
<path d="M2495 2320 c-33 -10 -55 -19 -48 -19 24 -2 113 21 119 30 7 11 2 11
-71 -11z"/>
<path d="M2576 2285 c-4 -22 -17 -70 -28 -106 -22 -70 -20 -103 7 -93 8 3 22
4 30 1 12 -5 10 -14 -10 -50 l-25 -44 24 -12 c13 -7 29 -25 36 -40 8 -17 14
-21 17 -13 3 8 -4 27 -16 43 -24 32 -26 51 -10 82 10 18 8 24 -15 42 -30 24
-32 41 -10 124 8 34 14 72 11 84 -2 16 -5 11 -11 -18z"/>
<path d="M2020 2290 c0 -5 -7 -10 -15 -10 -9 0 -12 -6 -9 -15 5 -11 2 -13 -11
-9 -11 5 -16 2 -14 -7 1 -8 -1 -26 -6 -42 -5 -21 -10 -25 -20 -17 -9 8 -14 7
-18 -2 -4 -10 -6 -10 -6 1 -1 10 -6 10 -27 -4 -14 -9 -33 -14 -41 -10 -14 5
-12 10 11 33 l26 28 -25 24 c-14 13 -25 19 -25 13 0 -6 -3 -19 -7 -29 -5 -14
-3 -16 11 -11 12 5 16 3 14 -5 -3 -7 -13 -13 -24 -13 -10 0 -19 -5 -19 -12 0
-7 -9 -19 -20 -27 -17 -13 -17 -15 -4 -16 9 0 20 7 23 16 6 15 8 15 24 1 26
-23 112 -13 134 16 10 12 18 27 18 33 0 6 11 21 25 34 26 25 32 40 15 40 -5 0
-10 -4 -10 -10z"/>
<path d="M2205 2202 c-11 -10 -29 -28 -40 -41 l-20 -24 22 12 c12 6 31 24 43
41 24 34 23 37 -5 12z"/>
<path d="M2088 2160 c-8 -12 -24 -20 -40 -20 -19 0 -28 -5 -28 -17 0 -9 -3
-13 -6 -10 -4 4 -14 -7 -23 -23 -9 -17 -29 -39 -46 -50 -16 -11 -26 -20 -22
-20 5 0 -11 -20 -36 -44 l-45 -43 -116 -7 c-63 -4 -120 -5 -126 -1 -5 3 -10 2
-10 -4 0 -6 -7 -8 -15 -5 -8 4 -15 1 -15 -5 0 -6 -7 -8 -16 -4 -9 3 -19 1 -23
-4 -3 -5 -15 -15 -26 -21 -19 -11 -18 -11 8 -12 15 0 27 4 27 10 0 5 7 7 15 4
8 -3 20 -2 27 2 16 11 26 12 119 19 64 5 78 3 83 -10 6 -18 3 -23 -66 -97 -26
-28 -45 -55 -42 -60 3 -4 1 -8 -4 -8 -6 0 -12 7 -16 15 -7 20 -26 19 -26 -1 0
-9 5 -12 12 -8 7 4 2 -7 -11 -24 -26 -38 -30 -38 -64 -12 -14 11 -30 20 -37
20 -6 0 -8 5 -4 13 6 9 5 9 -8 0 -15 -13 -28 -8 -28 9 0 5 5 6 10 3 6 -3 10
-3 10 2 0 13 -52 58 -88 77 -18 9 -30 21 -27 26 4 6 2 10 -3 10 -6 0 -13 7
-16 16 -5 14 1 16 47 12 36 -3 57 0 66 9 7 7 17 10 23 7 7 -4 8 -2 4 5 -4 6
-11 9 -15 6 -5 -2 -42 -7 -84 -10 -61 -4 -78 -2 -91 11 -9 8 -16 19 -16 23 0
4 -17 13 -37 19 l-38 11 35 -29 c19 -16 38 -30 43 -30 12 0 8 -85 -5 -99 -11
-11 -7 -13 21 -7 42 8 48 13 33 28 -15 15 -16 42 -2 33 6 -4 8 -10 6 -14 -5
-7 138 -152 222 -225 l43 -37 61 56 c34 31 104 107 157 168 53 62 99 113 103
115 16 7 148 141 148 150 0 5 9 12 20 15 11 3 20 11 19 19 0 10 -2 10 -6 1 -2
-7 -11 -13 -18 -13 -8 0 -21 -8 -31 -17 -10 -10 -18 -16 -19 -13 -2 3 -18 -13
-36 -36 -20 -24 -41 -39 -49 -36 -8 3 -12 1 -8 -3 9 -9 -104 -147 -138 -170
-13 -8 -23 -19 -21 -23 3 -10 -177 -192 -190 -192 -6 0 -14 7 -17 15 -6 15 32
56 327 356 64 66 117 126 117 134 0 8 6 12 13 9 7 -2 26 9 42 26 16 16 23 30
17 30 -7 0 -17 -9 -24 -20z"/>
<path d="M1070 2072 c0 -6 5 -14 10 -17 6 -4 8 -10 5 -15 -5 -9 41 -50 57 -50
5 0 -2 11 -16 24 -15 13 -26 28 -26 33 0 6 -7 16 -15 23 -9 8 -15 9 -15 2z"/>
<path d="M456 2033 c-21 -44 -21 -46 9 -39 28 7 89 -30 81 -49 -2 -6 5 -17 15
-24 11 -6 24 -23 30 -37 6 -17 14 -24 24 -20 8 3 15 1 15 -4 0 -5 56 -66 125
-135 69 -69 125 -130 125 -136 0 -6 6 -9 13 -6 8 3 19 -8 27 -26 12 -28 44
-67 55 -67 3 0 9 0 15 0 5 0 12 -11 16 -25 6 -26 24 -35 24 -12 0 8 3 8 9 -2
5 -8 7 -20 4 -28 -3 -7 1 -13 8 -13 8 -1 33 -29 56 -62 l42 -62 -42 -25 c-23
-13 -45 -29 -49 -35 -4 -6 -8 -7 -8 -2 0 5 -6 3 -13 -3 -8 -6 -17 -8 -20 -4
-4 3 -7 1 -7 -5 0 -7 -9 -12 -20 -12 -12 0 -17 -5 -14 -13 2 -7 -6 -25 -18
-39 -29 -32 -115 -98 -121 -92 -2 2 -10 -2 -17 -11 -19 -23 1 -18 45 11 45 31
177 126 185 134 3 3 12 10 21 15 9 6 35 25 59 43 50 38 85 45 54 11 -61 -68
-402 -309 -514 -364 -11 -5 -20 -15 -20 -22 0 -7 -5 -13 -12 -13 -6 0 -9 -2
-6 -5 7 -8 79 30 123 65 22 18 66 45 97 61 32 16 79 48 106 71 67 59 173 134
184 130 5 -1 7 2 3 8 -3 5 -1 11 4 11 6 1 15 2 20 3 14 1 51 43 51 56 0 5 6
10 13 10 6 0 -1 8 -16 19 -15 10 -35 29 -44 41 -16 22 -17 23 -24 4 -6 -16 -8
-14 -8 9 -1 15 -6 27 -13 27 -6 0 -9 2 -6 5 3 3 -21 31 -53 62 -33 31 -59 59
-59 64 0 4 16 23 35 42 42 42 43 50 10 65 -36 16 -45 15 -45 -7 0 -10 -7 -22
-16 -25 -9 -4 -14 -9 -11 -13 4 -3 13 0 21 7 9 6 21 10 27 8 9 -3 -61 -58 -75
-58 -3 0 -6 8 -8 19 -2 10 -77 94 -167 187 -90 93 -197 208 -236 255 l-72 87
-17 -35z"/>
<path d="M760 2058 c0 -7 3 -24 7 -36 4 -17 8 -20 14 -11 5 9 10 5 14 -14 6
-22 10 -25 21 -16 10 8 14 8 14 0 0 -6 6 -11 14 -11 7 0 21 -11 30 -24 8 -14
25 -27 36 -31 11 -4 18 -10 16 -14 -7 -11 26 -36 49 -38 11 -1 28 10 38 23 10
13 13 24 7 24 -6 0 -13 -7 -16 -15 -9 -24 -23 -18 -62 26 -37 41 -164 149
-176 149 -3 0 -6 -6 -6 -12z"/>
<path d="M2225 2053 c-11 -2 -27 -7 -35 -10 -8 -4 -17 -7 -20 -7 -3 -1 -18
-13 -34 -28 l-29 -27 58 30 c32 16 65 29 74 29 9 0 23 5 31 10 12 8 11 10 -5
9 -11 -1 -29 -3 -40 -6z"/>
<path d="M2271 2012 c-7 -16 -41 -57 -77 -92 -67 -67 -84 -110 -44 -110 13 0
20 7 20 19 0 10 7 21 15 25 8 3 12 12 9 21 -4 9 -1 15 8 15 8 0 23 9 32 19 10
11 24 17 31 15 10 -4 15 10 20 51 8 64 3 78 -14 37z"/>
<path d="M964 2014 c3 -9 6 -33 6 -55 0 -32 4 -39 19 -39 19 0 39 35 27 47 -3
4 -6 -1 -6 -10 0 -9 -5 -17 -11 -17 -5 0 -9 8 -8 18 3 25 -12 72 -23 72 -6 0
-7 -7 -4 -16z"/>
<path d="M2513 2019 c-13 -5 -23 -13 -23 -18 0 -6 -9 -15 -19 -20 -16 -9 -18
-8 -14 12 4 20 4 20 -9 -3 -8 -14 -10 -26 -6 -28 17 -8 6 -28 -37 -69 -25 -23
-45 -46 -45 -51 0 -16 -144 -144 -153 -135 -3 2 -8 -5 -12 -16 -3 -12 -11 -18
-17 -15 -6 4 -8 2 -4 -4 3 -6 -2 -13 -12 -17 -23 -7 -86 -74 -78 -82 3 -4 14
1 24 10 21 19 37 22 26 5 -4 -7 -3 -8 5 -4 9 6 9 11 -1 24 -7 9 -8 13 -3 10
18 -11 419 393 404 406 -2 2 -14 0 -26 -5z"/>
<path d="M1834 2005 c-4 -10 -17 -16 -33 -15 -44 3 -61 0 -61 -10 0 -9 56 -5
104 8 20 6 22 9 10 20 -12 11 -15 10 -20 -3z"/>
<path d="M2478 1903 c-26 -33 -92 -104 -148 -159 -218 -212 -250 -243 -250
-247 0 -2 -22 -28 -49 -57 -37 -40 -53 -51 -67 -46 -10 4 -15 4 -11 0 11 -11
-24 -44 -47 -44 -12 0 -42 22 -69 50 -27 28 -54 50 -60 50 -6 0 -8 3 -5 6 7 6
-64 74 -77 74 -4 0 22 -30 56 -66 35 -36 63 -71 61 -78 -2 -6 -1 -8 3 -4 4 4
24 -8 44 -27 85 -78 146 -125 160 -124 12 0 11 3 -5 15 -11 8 -36 28 -55 45
l-34 30 26 22 c15 12 39 31 55 42 35 25 144 135 144 147 0 4 4 8 10 8 16 0 50
33 44 42 -3 5 12 27 33 50 21 23 53 57 71 76 17 19 32 32 32 29 0 -4 9 2 20
13 11 11 20 21 20 23 0 7 99 107 105 107 17 0 51 48 45 64 -5 14 -15 5 -52
-41z"/>
<path d="M675 1872 c78 -84 205 -206 223 -216 9 -5 -20 29 -64 75 -45 46 -85
85 -90 87 -5 1 -34 26 -64 55 l-55 52 50 -53z"/>
<path d="M2601 1897 c-8 -10 -7 -33 4 -88 8 -41 17 -91 20 -111 4 -25 11 -38
22 -38 9 0 13 -6 10 -15 -4 -8 -2 -17 3 -20 5 -3 14 -30 21 -60 11 -50 15 -55
48 -66 20 -6 64 -27 99 -46 35 -20 65 -33 68 -30 6 6 -48 38 -130 76 -53 24
-67 35 -71 58 -4 15 -11 38 -16 51 -5 13 -7 27 -4 32 3 5 -2 17 -12 27 -22 22
-54 204 -41 228 11 19 -5 20 -21 2z"/>
<path d="M1260 1800 c0 -5 5 -10 10 -10 6 0 10 -4 10 -10 0 -5 -5 -10 -10 -10
-6 0 -21 -11 -33 -24 -17 -18 -27 -22 -39 -15 -12 7 -20 2 -33 -17 -9 -15 -12
-23 -6 -20 24 15 9 -16 -21 -43 -22 -20 -35 -25 -40 -18 -4 6 -11 8 -15 3 -4
-4 3 -17 17 -28 14 -11 25 -24 25 -29 0 -10 24 -29 38 -29 14 0 7 27 -13 45
-20 18 -20 18 6 46 15 15 36 30 48 32 19 3 19 4 -6 15 -36 15 -36 26 0 19 23
-5 31 0 47 24 17 24 26 29 55 27 26 -2 38 -9 47 -28 7 -15 12 -19 12 -10 1 20
-28 62 -38 56 -4 -3 -17 4 -29 14 -24 22 -32 25 -32 10z"/>
<path d="M362 1669 c-32 -7 -67 -29 -46 -29 5 0 14 4 20 9 5 5 27 11 49 13 22
2 33 6 25 9 -8 3 -30 2 -48 -2z"/>
<path d="M593 1665 c-9 -10 -4 -14 25 -17 20 -3 40 -1 43 4 3 5 9 3 12 -5 4
-10 18 -15 41 -14 72 2 21 26 -64 30 -19 1 -37 5 -40 8 -3 4 -10 1 -17 -6z"/>
<path d="M1483 1664 c9 -11 14 -24 10 -28 -5 -4 -1 -6 7 -4 9 2 14 -4 14 -15
-1 -10 1 -16 4 -13 8 9 192 -176 192 -193 0 -8 3 -11 7 -8 3 4 12 -1 19 -11
10 -13 13 -14 14 -3 0 10 10 5 30 -14 32 -31 39 -51 15 -41 -8 3 -15 1 -15 -5
0 -6 8 -9 18 -7 18 3 105 -71 332 -279 l95 -87 -100 104 c-55 56 -113 115
-129 129 -87 78 -316 290 -416 386 -63 61 -107 101 -97 89z"/>
<path d="M2465 1660 c-42 -11 -1 -11 50 -1 34 7 35 9 10 9 -16 0 -43 -4 -60
-8z"/>
<path d="M2560 1620 c-23 -7 -23 -8 -3 -9 12 -1 25 -6 28 -11 8 -13 25 -3 25
16 0 15 -12 16 -50 4z"/>
<path d="M326 1604 c-9 -24 -7 -54 3 -54 6 0 11 13 13 30 3 28 4 29 28 17 14
-8 44 -11 69 -9 35 3 47 0 58 -14 12 -17 14 -17 34 5 12 12 18 25 15 29 -4 3
-53 7 -110 9 -88 3 -105 1 -110 -13z"/>
<path d="M570 1600 c-23 -14 -5 -22 56 -27 31 -2 59 -5 63 -5 11 -3 51 13 51
20 0 4 -22 7 -49 8 -27 1 -62 4 -78 7 -16 3 -35 2 -43 -3z"/>
<path d="M2054 1556 c-3 -9 -10 -16 -16 -16 -5 0 -6 5 -3 10 3 6 3 10 -2 10
-9 0 -48 -55 -58 -82 -4 -10 -10 -16 -14 -14 -3 2 -7 -8 -8 -22 -1 -24 0 -25
12 -9 7 10 19 16 26 15 8 -2 13 2 12 8 -1 6 11 24 27 39 17 16 30 34 30 41 0
7 5 14 12 16 9 3 9 6 0 12 -7 4 -15 1 -18 -8z"/>
<path d="M555 1536 c-11 -6 -26 -19 -34 -30 -11 -14 -15 -15 -22 -5 -6 11 -21
1 -60 -40 -39 -41 -48 -56 -38 -65 9 -8 10 -8 5 1 -3 6 0 13 6 16 7 2 30 -14
51 -37 l38 -41 -26 43 c-14 23 -22 42 -18 42 4 0 27 -17 52 -38 62 -50 94 -72
53 -34 -38 34 -33 42 32 46 44 3 66 11 66 24 0 4 -52 7 -115 7 -63 0 -115 1
-115 2 0 9 163 92 171 87 6 -3 17 -22 25 -40 10 -23 19 -32 29 -28 21 8 19 14
-19 55 -40 43 -55 50 -81 35z"/>
<path d="M210 1520 c-30 -11 -61 -27 -70 -36 -9 -9 6 -6 40 10 30 14 60 26 67
26 6 0 15 5 18 10 8 13 10 13 -55 -10z"/>
<path d="M289 1492 l-12 -42 -81 0 c-45 0 -86 -4 -93 -8 -8 -5 22 -25 82 -55
53 -26 97 -47 100 -47 3 0 5 8 5 17 0 9 -3 14 -6 10 -6 -6 -104 39 -104 47 0
2 10 2 22 -2 16 -4 20 -2 16 9 -4 11 2 15 27 16 55 2 90 45 66 82 -7 11 -12 3
-22 -27z"/>
<path d="M2496 1479 c32 -23 68 -49 79 -58 19 -16 19 -15 3 9 -20 32 -97 88
-122 89 -12 1 3 -15 40 -40z"/>
<path d="M2356 1491 c-7 -9 -19 -27 -26 -41 -8 -17 -1 -13 23 14 31 36 35 38
44 21 11 -19 33 -13 33 9 0 18 -57 16 -74 -3z"/>
<path d="M2710 1472 c0 -7 -3 -11 -7 -10 -17 5 -52 -23 -47 -37 9 -23 21 -18
29 13 7 24 8 25 14 8 7 -18 8 -18 14 4 3 13 4 26 2 29 -3 2 -5 -1 -5 -7z"/>
<path d="M1538 1465 c-3 -3 -31 -10 -63 -15 -82 -13 -88 -21 -82 -103 2 -38
10 -74 17 -80 9 -9 10 1 5 48 -3 33 -8 70 -11 82 -4 19 1 22 51 28 52 7 96 4
155 -11 21 -6 18 -1 -15 24 -41 33 -48 36 -57 27z"/>
<path d="M1162 1398 c53 -67 200 -208 217 -208 6 0 8 -6 5 -13 -3 -8 14 -28
37 -48 82 -67 92 -78 79 -94 -7 -8 -9 -15 -4 -16 5 0 19 -2 32 -5 12 -2 22 0
22 4 0 9 -229 243 -313 320 -26 24 -44 49 -40 54 3 6 1 8 -4 5 -6 -4 -18 4
-27 18 -9 14 -21 25 -27 25 -5 0 5 -19 23 -42z"/>
<path d="M2690 1411 c0 -6 16 -13 36 -17 l36 -7 -36 -29 c-20 -16 -36 -36 -36
-44 0 -8 -5 -14 -11 -14 -5 0 -7 5 -3 12 5 7 3 8 -5 4 -7 -5 -10 -14 -7 -22 3
-9 -1 -14 -12 -14 -11 0 -18 -8 -18 -19 0 -12 4 -17 11 -12 5 5 21 12 34 16
18 5 22 4 16 -6 -6 -10 -5 -11 3 -4 6 6 12 27 14 48 l2 37 82 25 c45 14 88 25
95 25 8 0 9 3 4 9 -14 13 -205 24 -205 12z"/>
<path d="M2337 1404 c-3 -5 7 -23 21 -40 15 -16 23 -24 19 -17 -16 22 3 33 59
33 39 0 53 -3 48 -12 -5 -7 -3 -8 7 -3 7 5 23 10 36 11 12 1 30 7 40 13 14 8
1 10 -52 11 -38 0 -93 3 -121 6 -28 4 -54 2 -57 -2z"/>
<path d="M1520 1320 c-52 -43 -96 -84 -98 -89 -5 -14 38 -14 58 -1 13 9 13 10
0 10 -8 0 0 10 18 21 17 12 32 25 32 30 0 5 5 9 11 9 6 0 22 9 36 20 14 11 30
17 36 13 5 -3 7 -1 3 5 -3 5 -2 12 3 14 4 1 12 13 15 26 12 38 -14 25 -114
-58z"/>
<path d="M310 1378 c0 -8 40 -32 44 -26 1 2 7 10 13 18 9 13 6 15 -23 15 -19
0 -34 -3 -34 -7z"/>
<path d="M2364 1277 l-27 -24 41 -1 c40 -2 56 10 30 21 -10 4 -9 8 2 16 13 9
13 11 -2 11 -9 0 -29 -10 -44 -23z"/>
<path d="M1305 1191 c55 -58 115 -108 115 -98 0 3 -39 40 -87 83 -86 76 -86
76 -28 15z"/>
<path d="M575 1218 c-3 -7 -3 -22 -1 -33 3 -11 5 -29 6 -40 1 -11 7 0 14 25 7
25 10 48 8 53 -5 11 -22 8 -27 -5z"/>
<path d="M2357 1213 c-17 -3 -25 -9 -20 -16 4 -6 10 -27 14 -47 l7 -35 1 38
c1 30 6 39 26 47 14 5 25 12 25 15 0 5 -5 5 -53 -2z"/>
<path d="M656 1201 c5 -5 34 -10 64 -11 85 -4 111 2 50 10 -80 11 -126 12
-114 1z"/>
<path d="M2294 1195 c3 -8 1 -15 -3 -15 -5 0 -11 5 -13 10 -2 7 -29 8 -75 4
-40 -4 -70 -11 -67 -15 3 -5 43 -9 89 -9 82 0 85 -1 91 -25 10 -40 17 -21 9
24 -4 27 -12 41 -22 41 -9 0 -13 -6 -9 -15z"/>
<path d="M2060 1184 c8 -10 24 -26 35 -34 11 -8 38 -30 59 -50 22 -19 33 -26
25 -14 -7 12 -29 33 -46 48 -18 15 -33 34 -33 42 0 8 -4 14 -9 14 -5 0 -18 3
-28 7 -16 6 -17 5 -3 -13z"/>
<path d="M2606 1180 c-4 -14 -13 -49 -21 -78 -13 -47 -68 -159 -84 -172 -14
-11 -41 -60 -34 -60 5 0 0 -5 -9 -11 -23 -13 -24 -33 -2 -25 12 5 14 3 8 -7
-5 -7 0 -4 10 8 39 42 153 328 143 358 -2 6 -7 0 -11 -13z"/>
<path d="M1667 1154 c-3 -3 6 -24 20 -45 34 -51 42 -43 11 10 -14 23 -27 38
-31 35z"/>
<path d="M420 1135 c0 -12 64 -125 70 -125 4 0 -8 29 -27 65 -31 58 -43 75
-43 60z"/>
<path d="M1634 1116 c-5 -13 -2 -23 11 -32 25 -19 29 -11 12 23 -14 25 -16 26
-23 9z"/>
<path d="M1435 955 l-60 -56 51 36 c28 19 59 35 68 35 9 0 16 8 16 20 0 11 -3
20 -7 20 -5 0 -35 -25 -68 -55z"/>
<path d="M1369 960 c-26 -21 -49 -37 -53 -35 -3 3 -4 2 -1 -2 3 -3 -3 -16 -12
-27 -10 -11 12 6 50 38 59 52 73 66 65 66 -2 0 -24 -18 -49 -40z"/>
<path d="M676 945 c-62 -40 -85 -50 -108 -46 -5 0 -8 -4 -8 -10 0 -6 -7 -9
-15 -5 -8 3 -15 1 -15 -4 0 -5 -12 -6 -27 -4 l-28 5 21 -22 22 -21 94 57 c92
56 148 95 138 95 -3 0 -36 -21 -74 -45z"/>
<path d="M1570 961 c0 -15 5 -19 22 -16 12 3 29 -1 37 -7 9 -7 5 0 -8 15 -29
32 -51 35 -51 8z"/>
<path d="M1915 966 c17 -7 34 -11 39 -8 4 2 28 4 52 4 24 -1 46 3 49 8 3 5
-30 9 -82 9 -81 -1 -86 -2 -58 -13z"/>
<path d="M1876 934 c9 -40 24 -54 24 -22 0 14 -7 31 -16 39 -13 11 -14 9 -8
-17z"/>
<path d="M1929 930 c8 -4 11 -15 8 -23 -4 -11 -1 -14 8 -10 8 3 12 9 9 14 -3
5 9 9 27 9 43 0 34 6 -20 13 -26 3 -39 2 -32 -3z"/>
<path d="M972 913 c4 -21 28 -30 28 -10 0 9 6 18 13 20 6 3 -1 6 -16 6 -21 1
-28 -3 -25 -16z"/>
<path d="M923 873 c-26 -24 -113 -128 -113 -137 0 -3 7 -6 15 -6 8 0 15 5 15
11 0 5 25 41 55 80 56 70 64 84 28 52z"/>
<path d="M1334 866 c-3 -8 -11 -13 -18 -10 -6 2 -34 -10 -60 -28 -27 -18 -58
-38 -69 -44 -30 -18 -43 -34 -29 -34 13 0 83 42 115 69 13 11 42 14 120 13 56
-2 109 2 117 8 13 8 13 10 -2 10 -10 0 -18 5 -18 12 0 9 -3 9 -12 0 -7 -7 -38
-12 -71 -12 -48 0 -58 3 -53 15 3 8 1 15 -5 15 -5 0 -12 -6 -15 -14z"/>
<path d="M542 801 c2 -18 -4 -21 -24 -10 -14 6 -8 -1 12 -19 32 -28 58 -36 32
-10 -7 7 -8 17 -2 28 6 12 5 17 -5 17 -8 0 -14 -3 -13 -6z"/>
<path d="M2464 782 c13 -22 -5 -34 -21 -15 -8 10 -12 12 -8 5 4 -7 -4 -27 -17
-45 -37 -49 -43 -66 -11 -31 15 17 38 36 51 43 24 13 29 35 10 47 -7 4 -8 3
-4 -4z"/>
<path d="M666 753 c3 -10 13 -28 23 -41 15 -21 19 -22 30 -8 12 14 11 16 -7
16 -11 0 -23 7 -26 16 -6 15 -4 15 10 3 16 -13 16 -12 5 9 -14 26 -41 30 -35
5z"/>
<path d="M1894 713 c33 -35 62 -61 64 -58 5 4 -39 48 -94 95 -16 13 -2 -3 30
-37z"/>
<path d="M1086 715 c-60 -42 -81 -63 -41 -41 29 15 105 76 95 75 -3 0 -27 -15
-54 -34z"/>
<path d="M566 685 c-9 -25 -8 -28 14 -22 10 3 21 0 24 -7 3 -7 5 -7 5 0 1 6
-7 19 -18 28 -17 15 -19 15 -25 1z"/>
<path d="M2357 635 c-13 -18 -14 -23 -4 -19 19 7 50 -24 43 -43 -3 -8 -1 -11
4 -8 6 3 10 1 10 -6 0 -7 7 -21 17 -31 9 -10 11 -18 6 -18 -6 0 -16 6 -22 13
-6 8 -23 12 -38 10 -39 -5 -61 10 -44 31 21 25 2 36 -22 13 -13 -12 -31 -27
-41 -32 -15 -8 3 -17 90 -42 60 -18 110 -30 112 -29 4 5 -80 186 -87 186 -3 0
-14 -12 -24 -25z"/>
<path d="M560 595 c-36 -30 -67 -49 -71 -44 -3 5 -11 -2 -17 -16 -6 -14 -8
-25 -3 -25 4 0 55 18 113 39 l105 40 47 -23 c25 -12 43 -25 39 -29 -3 -4 3 -7
15 -7 12 0 22 5 22 11 0 5 -4 8 -9 5 -5 -3 -14 0 -20 8 -7 8 -36 24 -66 36
-30 12 -55 25 -55 29 0 3 -8 11 -18 17 -15 10 -28 3 -82 -41z m80 20 c15 -18
16 -17 -38 -38 l-42 -17 12 22 c13 23 38 47 49 48 4 0 12 -7 19 -15z"/>
<path d="M2046 578 c61 -57 74 -66 74 -49 0 6 -5 11 -11 11 -6 0 -31 20 -56
45 -24 25 -49 45 -54 45 -6 0 15 -24 47 -52z"/>
<path d="M851 530 c-13 -11 -19 -20 -14 -20 5 0 27 -16 49 -36 55 -49 201
-118 319 -150 89 -24 119 -27 265 -28 125 -1 186 3 250 17 127 28 267 74 339
113 42 23 67 32 74 25 10 -10 77 36 77 53 0 6 -13 -3 -29 -18 -20 -20 -35 -26
-49 -22 -13 5 -43 -5 -86 -28 -37 -20 -74 -33 -84 -30 -12 4 -13 3 -5 -3 15
-11 -161 -67 -183 -59 -9 3 -12 1 -9 -4 3 -6 -1 -10 -9 -10 -9 0 -16 5 -16 11
0 5 -5 7 -10 4 -6 -4 -8 -10 -5 -15 3 -5 -8 -7 -26 -5 -17 2 -43 -1 -57 -6
-37 -14 -174 -18 -262 -7 -116 14 -299 62 -368 97 -82 41 -144 97 -137 122 8
23 6 23 -24 -1z"/>
<path d="M1696 238 c6 -10 76 -10 129 1 32 7 24 9 -47 8 -48 0 -85 -4 -82 -9z"/>
<path d="M998 174 c-3 -3 -34 -7 -68 -9 -34 -2 -65 -6 -68 -10 -8 -8 162 -6
208 3 l35 6 -30 7 c-40 9 -70 10 -77 3z"/>
<path d="M1605 171 c-73 -5 -77 -7 -50 -17 17 -6 41 -9 55 -7 14 2 39 5 57 6
17 1 29 6 26 10 -3 5 29 6 71 3 48 -3 74 -2 71 4 -6 10 -92 10 -230 1z"/>
<path d="M2780 150 l-25 -8 25 0 c14 -1 43 3 65 7 l40 9 -40 0 c-22 0 -51 -4
-65 -8z"/>
<path d="M1143 143 c-36 -5 -52 -28 -20 -31 17 -1 19 1 7 8 -10 7 7 10 53 10
43 0 66 -4 62 -10 -3 -5 3 -10 14 -10 13 0 18 5 15 13 -3 10 6 14 32 15 20 1
39 4 42 7 6 6 -155 4 -205 -2z"/>
<path d="M1840 140 c-32 -7 -33 -7 -7 -9 20 -1 26 -5 21 -13 -6 -10 -5 -10 7
-1 14 12 69 10 89 -2 6 -3 7 1 4 10 -6 15 -4 15 31 1 44 -19 110 -22 99 -5 -3
6 -19 8 -38 5 -19 -4 -39 -1 -51 7 -22 15 -101 18 -155 7z"/>
<path d="M671 126 c3 -3 53 -6 112 -7 60 -1 124 -5 143 -9 19 -5 34 -4 34 1 0
5 12 9 26 9 18 0 24 -4 21 -14 -4 -9 3 -13 24 -12 33 1 40 16 8 16 -11 0 -17
5 -14 10 4 7 -57 10 -176 10 -100 0 -180 -2 -178 -4z"/>
<path d="M1640 121 c0 -7 22 -11 52 -11 61 0 56 12 -7 18 -28 2 -45 -1 -45 -7z"/>
<path d="M166 99 c3 -5 12 -9 21 -9 11 0 14 -8 11 -35 -2 -19 1 -36 7 -38 6
-3 9 10 7 34 l-4 39 38 0 c55 0 36 9 -29 14 -31 2 -54 0 -51 -5z"/>
</g>
</svg>
