<?xml version="1.0" standalone="no"?>
<!DOCTYPE svg PUBLIC "-//W3C//DTD SVG 20010904//EN"
 "http://www.w3.org/TR/2001/REC-SVG-20010904/DTD/svg10.dtd">
<svg version="1.0" xmlns="http://www.w3.org/2000/svg"
 width="300.000000pt" height="300.000000pt" viewBox="0 0 300.000000 300.000000"
 preserveAspectRatio="xMidYMid meet">
<metadata>
Created by potrace 1.10, written by Peter Selinger 2001-2011
</metadata>
<g transform="translate(0.000000,300.000000) scale(0.100000,-0.100000)"
fill="#000000" stroke="none">
<path d="M279 2918 c-62 -60 -88 -94 -97 -122 -14 -49 -5 -66 17 -32 32 50
105 142 135 170 l31 28 9 -30 c5 -17 6 -41 3 -54 -6 -23 -84 -126 -152 -202
-34 -37 -52 -85 -84 -221 -7 -27 -21 -68 -31 -91 -11 -22 -20 -50 -20 -61 0
-11 -7 -40 -15 -63 -8 -23 -15 -56 -15 -73 0 -42 -20 -103 -42 -126 -11 -13
-18 -34 -17 -58 1 -22 3 -29 6 -18 3 11 25 66 49 122 25 57 53 145 65 200 28
140 38 166 54 153 9 -8 15 -8 20 0 3 6 11 8 16 5 5 -3 -7 -37 -26 -75 -19 -38
-35 -74 -35 -81 0 -6 36 43 80 108 43 65 127 178 186 252 119 149 144 166 222
155 35 -4 60 -1 100 15 29 11 57 20 63 18 7 -1 14 4 16 11 3 8 -3 11 -17 10
-17 -2 -24 5 -35 36 -8 23 -10 46 -6 54 11 19 2 52 -14 52 -16 0 -27 -57 -15
-79 11 -21 -9 -54 -43 -72 -32 -17 -87 -28 -87 -18 0 12 -40 5 -78 -15 -28
-15 -75 -67 -100 -111 -11 -19 -11 -19 -11 5 0 14 4 51 8 83 4 33 3 61 -2 64
-5 3 -7 21 -4 39 4 21 2 32 -4 29 -5 -4 -9 -2 -9 4 0 5 -3 16 -6 24 -3 8 2 22
11 31 15 15 14 16 -12 16 -22 0 -48 -18 -114 -82z m102 -130 c-25 -59 -97
-168 -121 -185 -23 -16 -27 -53 -5 -53 8 0 33 23 55 52 31 39 38 53 28 59 -12
8 -4 13 15 10 4 0 6 4 5 10 -2 6 3 14 10 16 20 7 14 -20 -18 -83 -44 -88 -82
-124 -131 -124 -21 0 -39 -4 -39 -10 0 -5 -4 -10 -10 -10 -19 0 24 145 55 186
14 18 15 17 10 -11 -5 -28 -5 -29 6 -7 7 12 16 22 21 22 4 0 8 5 8 12 0 6 22
43 49 82 26 39 52 82 56 96 l8 25 8 -23 c6 -15 2 -36 -10 -64z m-82 -183 c-18
-25 -34 -43 -37 -40 -5 4 56 85 64 85 3 0 -9 -20 -27 -45z"/>
<path d="M830 2989 c0 -5 -4 -7 -10 -4 -6 3 -7 -1 -4 -9 4 -11 0 -16 -11 -16
-12 0 -16 -6 -12 -20 3 -11 1 -18 -4 -14 -5 3 -9 -7 -9 -23 l1 -28 17 21 c9
12 23 30 30 40 10 15 14 16 19 5 3 -8 21 -31 39 -51 19 -21 34 -43 34 -49 0
-6 2 -11 5 -11 6 0 277 140 284 146 3 3 -1 10 -7 16 -9 9 -12 8 -12 -5 0 -15
-30 -24 -63 -18 -5 1 -5 -4 -1 -10 5 -9 2 -10 -10 -6 -11 5 -15 3 -10 -5 5 -8
2 -9 -10 -5 -10 4 -19 1 -22 -8 -4 -8 -10 -13 -14 -10 -5 3 -12 0 -16 -6 -4
-8 -9 -7 -15 2 -6 10 -9 8 -9 -8 0 -13 -4 -23 -10 -23 -5 0 -10 9 -10 20 0 11
-4 20 -8 20 -5 0 -6 -15 -4 -32 7 -49 -9 -26 -24 34 l-13 53 4 -65 c2 -36 2
-57 -1 -47 -3 9 -11 14 -17 11 -9 -5 -9 -4 0 6 7 8 9 20 3 35 -5 13 -6 25 -3
28 13 14 -10 47 -33 47 -29 0 -28 1 -8 -50 9 -23 13 -44 9 -48 -10 -10 -45 37
-52 70 -5 27 -23 40 -23 17z"/>
<path d="M2080 2992 c0 -15 13 -22 24 -13 6 5 22 11 36 14 16 3 10 5 -17 6
-24 0 -43 -3 -43 -7z"/>
<path d="M2255 2988 c-27 -5 -58 -10 -67 -11 -10 -1 -18 -5 -18 -10 0 -4 -4
-6 -9 -2 -5 3 -15 -1 -23 -8 -7 -7 -39 -28 -71 -47 -33 -19 -69 -44 -80 -56
-12 -11 -44 -35 -70 -53 -26 -18 -76 -59 -111 -92 -35 -32 -66 -55 -70 -51 -4
4 -6 0 -4 -8 2 -8 -2 -14 -8 -13 -9 2 -57 -49 -142 -150 -9 -9 -13 -19 -10
-22 3 -3 33 30 68 72 72 89 87 105 75 83 -13 -23 -167 -210 -173 -210 -3 0 3
9 13 20 10 11 16 22 13 25 -6 6 -78 -79 -78 -91 0 -4 12 3 28 17 l27 24 -24
-27 c-13 -15 -27 -26 -31 -25 -5 1 -50 -47 -101 -108 -50 -60 -79 -99 -63 -85
16 14 30 28 32 33 2 4 13 12 25 18 12 6 -5 -16 -38 -50 -61 -62 -71 -70 -60
-48 3 6 -2 2 -11 -10 -9 -13 -24 -23 -34 -23 -9 0 -29 -9 -43 -20 -28 -22 -37
-25 -37 -10 0 5 23 25 50 43 58 39 79 63 209 234 51 67 99 127 107 134 17 14
19 33 2 23 -7 -4 -8 -3 -4 5 4 6 11 9 15 7 8 -5 87 84 84 95 -1 3 31 34 72 70
40 35 74 69 74 74 1 6 18 20 39 31 34 20 244 173 267 196 6 6 3 7 -9 2 -13 -5
-17 -4 -12 4 4 7 5 12 1 12 -3 0 -10 -12 -15 -26 -8 -19 -15 -24 -30 -19 -11
4 -19 3 -18 -2 2 -4 -1 -10 -7 -13 -5 -3 -27 -21 -49 -41 -22 -21 -46 -35 -55
-32 -11 3 -52 -30 -115 -91 -54 -53 -102 -93 -107 -90 -5 3 -6 -1 -3 -9 3 -9
-8 -25 -30 -42 -37 -28 -135 -147 -255 -307 -39 -54 -76 -100 -82 -104 -5 -3
-21 2 -36 11 -16 11 -29 13 -35 7 -6 -6 2 -13 23 -21 28 -10 30 -13 18 -28 -7
-10 -1 -7 14 6 15 14 27 19 27 13 0 -16 -40 -41 -56 -35 -8 3 -11 9 -8 14 11
18 -16 8 -43 -16 -22 -20 -24 -24 -8 -19 20 6 20 6 0 -13 -30 -28 -53 -59 -36
-49 9 6 12 5 9 -5 -3 -8 -11 -13 -17 -11 -7 1 -10 -2 -7 -7 4 -5 2 -12 -4 -16
-5 -3 -10 -11 -10 -16 0 -6 5 -7 12 -3 7 4 8 3 4 -5 -4 -6 -12 -9 -18 -5 -5 3
-8 -2 -7 -12 7 -47 -37 -115 -166 -259 -45 -49 -114 -134 -154 -187 -51 -68
-89 -107 -125 -130 -28 -18 -53 -33 -56 -33 -3 -1 -17 -7 -32 -13 -15 -6 -66
-27 -113 -47 -48 -19 -99 -44 -113 -54 -15 -10 -58 -39 -97 -65 -38 -25 -86
-57 -106 -71 l-37 -26 -37 21 c-43 24 -52 21 -33 -9 9 -14 24 -22 48 -23 63
-3 69 -4 75 -9 3 -4 1 -17 -4 -31 -7 -19 -6 -25 5 -25 8 0 14 5 14 10 0 5 7 6
16 3 29 -11 35 5 10 25 -45 35 -18 55 142 104 45 14 112 39 149 56 37 16 73
27 80 24 8 -3 11 0 8 6 -4 6 -1 9 6 8 18 -4 119 41 119 52 0 12 -13 11 -25 0
-8 -7 -109 -46 -250 -96 -16 -5 -15 -3 5 14 14 11 66 37 115 57 123 51 200
107 298 222 98 113 112 126 128 116 7 -4 10 -2 7 6 -2 7 11 28 29 48 18 20 33
40 33 46 0 10 -116 -107 -265 -266 -71 -75 -152 -125 -260 -159 -22 -6 -68
-25 -102 -40 -35 -16 -63 -26 -63 -24 0 6 129 71 160 80 47 14 155 67 188 93
19 14 50 49 70 77 126 177 148 202 184 196 4 0 5 5 2 12 -2 7 32 51 75 98 44
48 78 89 76 93 -3 3 -2 4 2 1 8 -6 43 24 43 38 0 5 -7 4 -15 -3 -26 -21 -18
15 10 48 28 33 85 49 85 24 0 -16 56 -71 74 -73 6 -1 17 -1 24 0 16 3 3 -25
-34 -76 -17 -22 -20 -33 -11 -36 15 -5 -46 -83 -62 -79 -6 1 -11 -2 -11 -7 0
-5 -19 -37 -42 -71 -42 -61 -43 -61 -49 -33 -5 25 -49 107 -49 92 0 -3 11 -34
25 -68 14 -34 23 -66 20 -71 -8 -12 106 -200 182 -300 65 -85 211 -236 244
-252 19 -9 82 -24 141 -32 59 -9 113 -19 121 -22 8 -3 17 2 20 10 4 9 1 13 -6
10 -21 -7 -230 32 -265 50 -115 60 -428 489 -405 555 6 14 59 88 73 101 3 3
32 37 65 75 32 39 63 69 68 67 4 -1 6 2 2 8 -9 14 42 80 61 80 8 0 25 7 38 15
13 9 30 14 37 13 8 -2 15 7 17 20 2 12 7 22 11 22 5 0 29 27 55 59 78 101 119
142 126 130 4 -6 26 19 52 60 54 87 135 182 208 244 84 72 278 173 386 201
143 37 402 4 476 -61 9 -8 22 -12 27 -8 6 3 11 2 11 -3 0 -6 7 -12 15 -16 9
-3 15 1 15 11 0 21 -69 85 -86 79 -7 -3 -16 0 -20 6 -4 7 -3 8 4 4 7 -4 12 -5
12 -2 0 25 -255 82 -322 72 -35 -5 -30 -16 8 -17 30 -1 19 -5 -48 -19 -119
-25 -173 -44 -304 -107 -61 -29 -116 -53 -122 -53 -60 0 -529 -512 -525 -572
2 -22 -73 -68 -111 -68 -56 0 -146 65 -146 106 0 21 27 17 43 -6 8 -11 17 -17
21 -13 3 4 13 -3 22 -15 12 -17 25 -22 58 -22 48 0 55 6 130 113 26 37 51 65
56 62 4 -2 7 3 6 13 0 9 4 16 11 15 8 -2 10 4 6 14 -4 10 -2 14 4 10 11 -7 39
19 45 41 5 18 72 96 168 192 102 103 155 147 195 165 28 12 87 65 71 65 -16 0
-55 -33 -50 -42 3 -5 0 -9 -7 -7 -29 3 -40 -3 -101 -58 -35 -32 -51 -44 -35
-27 15 17 24 33 20 37 -10 10 -35 8 -29 -2 3 -5 -1 -14 -9 -21 -8 -7 -15 -19
-15 -27 0 -8 -41 -58 -92 -112 -50 -53 -138 -159 -195 -236 -144 -195 -135
-185 -182 -185 -30 0 -43 5 -51 20 -9 18 -5 28 27 69 21 27 65 88 98 137 33
48 80 112 105 143 25 31 63 81 85 111 123 173 288 326 462 429 95 56 167 74
290 75 57 1 103 4 103 9 0 10 -185 7 -245 -5z m-647 -858 c-23 -33 -57 -74
-76 -92 -19 -18 -1 9 39 60 40 50 75 92 77 92 1 0 -16 -27 -40 -60z m-374 21
c5 -8 -18 -32 -59 -61 -11 -8 -7 0 9 18 17 18 26 32 22 32 -4 0 -4 5 -1 10 8
12 22 13 29 1z m136 -239 c0 -12 -62 -94 -67 -89 -4 5 57 97 64 97 2 0 3 -4 3
-8z"/>
<path d="M2544 2979 c89 -48 126 -76 220 -173 95 -96 113 -100 38 -8 -46 58
-78 88 -127 120 -22 15 -55 39 -73 54 -21 18 -44 28 -65 28 l-32 0 39 -21z"/>
<path d="M2334 2933 c15 -4 16 -7 5 -13 -11 -7 -10 -10 4 -16 9 -3 25 -3 35 1
16 6 16 7 -2 21 -11 8 -29 13 -40 13 -19 -1 -19 -2 -2 -6z"/>
<path d="M1110 2901 c-187 -94 -220 -113 -220 -126 0 -8 5 -14 12 -12 16 3 38
-42 38 -82 0 -28 2 -32 15 -21 13 11 14 4 12 -51 -2 -48 -15 -94 -50 -181 -26
-65 -44 -123 -42 -130 3 -7 -6 -42 -20 -78 -26 -67 -34 -109 -15 -80 7 11 8 5
4 -20 -4 -19 -11 -39 -16 -45 -7 -7 -8 2 -4 25 l6 35 -20 -40 c-24 -48 -20
-25 13 70 39 110 39 112 22 82 -23 -39 -86 -216 -91 -252 -2 -16 -13 -56 -24
-89 -11 -32 -17 -68 -14 -80 5 -23 -56 -177 -83 -208 -30 -34 -80 -42 -147
-23 -33 9 -69 21 -78 26 -10 5 -24 9 -32 9 -24 0 -66 22 -60 31 10 17 82 9
138 -16 31 -14 63 -25 71 -25 25 0 81 58 106 109 12 27 27 47 33 44 5 -3 6 -1
3 4 -7 12 36 175 54 207 7 13 7 16 0 11 -12 -7 -14 5 -5 29 3 9 10 13 15 10 5
-3 6 3 2 12 -4 11 -2 15 4 11 6 -4 13 2 16 13 3 11 1 18 -4 14 -14 -8 -10 13
5 29 8 7 19 29 24 48 6 19 15 49 21 68 16 53 -3 24 -29 -44 -40 -103 -59 -135
-80 -135 -22 0 -55 -44 -45 -60 3 -5 15 -10 26 -10 17 0 19 -5 13 -42 -4 -24
-14 -68 -23 -98 l-17 -55 -42 1 c-23 1 -40 -2 -37 -6 3 -5 0 -10 -6 -12 -7 -2
-9 -13 -5 -26 9 -27 26 -29 26 -3 0 24 25 47 35 31 4 -6 1 -18 -6 -26 -7 -9
-14 -23 -15 -31 -3 -20 -33 -63 -42 -61 -4 1 -17 -3 -29 -10 -16 -9 -23 -9
-23 -2 0 6 -3 9 -8 7 -4 -3 -26 5 -49 17 l-43 21 56 110 c108 212 203 384 245
446 56 83 109 140 122 132 6 -3 7 -1 3 5 -4 7 -3 12 2 12 8 0 36 44 81 128 8
15 16 54 18 87 3 53 2 57 -9 35 -7 -14 -20 -32 -30 -41 -10 -9 -18 -20 -18
-25 0 -5 -17 -32 -38 -60 -20 -27 -46 -63 -58 -80 -30 -42 -74 -123 -74 -136
0 -6 -15 -31 -33 -57 -18 -25 -53 -83 -77 -128 -24 -46 -46 -81 -48 -78 -6 6
41 101 90 184 21 34 38 66 38 70 -1 12 -77 -114 -145 -239 -142 -261 -174
-312 -187 -304 -6 4 -8 2 -5 -3 7 -11 -15 -34 -51 -52 -30 -16 -119 0 -212 38
-39 16 -70 26 -70 21 0 -10 149 -77 190 -85 59 -11 71 -16 64 -27 -5 -7 -1 -9
9 -5 10 4 17 1 17 -6 0 -7 14 -14 33 -15 47 -4 107 -21 107 -32 0 -5 -10 -7
-21 -5 -31 6 -41 -3 -28 -27 7 -13 17 -18 31 -15 14 4 18 2 14 -9 -3 -8 -2
-12 3 -9 5 3 12 1 16 -5 11 -18 45 9 45 36 0 21 4 25 18 19 9 -4 30 -12 45
-17 22 -8 25 -13 15 -19 -10 -7 -9 -9 5 -9 9 0 17 -6 17 -12 0 -9 3 -8 9 2 6
8 7 18 4 24 -4 5 1 7 11 3 19 -7 56 8 56 23 0 4 -16 4 -36 -1 -50 -14 -64 -6
-29 17 16 10 40 29 54 42 13 12 28 22 32 22 5 0 9 4 9 10 0 5 13 31 29 58 16
27 32 60 36 73 3 13 15 42 24 64 10 22 24 65 31 95 7 30 21 79 32 109 10 30
18 64 18 76 0 12 10 35 23 51 12 16 21 30 20 31 -3 3 2 19 39 116 17 47 26 87
22 99 -3 11 -2 18 3 15 5 -3 9 2 10 11 1 9 7 31 14 47 16 39 19 55 11 55 -11
0 -44 -103 -43 -134 0 -27 -1 -28 -13 -11 -11 16 -10 25 6 63 11 25 22 72 25
106 5 55 22 113 23 78 0 -26 42 0 106 65 35 35 64 68 64 71 0 4 9 14 21 22 11
8 25 24 31 34 12 22 -54 -27 -107 -79 -50 -49 -105 -95 -114 -95 -5 0 -12 7
-15 16 -4 11 -2 15 8 11 27 -11 26 7 -1 30 -24 19 -26 24 -13 33 8 5 36 10 61
10 33 0 54 6 70 21 21 18 21 20 4 14 -62 -22 -60 -12 3 20 76 38 100 66 33 39
-22 -9 -50 -14 -63 -12 -22 3 -21 5 12 26 21 13 38 18 44 12 5 -5 21 -3 40 8
25 13 27 17 13 20 -10 2 -24 -1 -32 -8 -8 -6 -14 -7 -17 -1 -1 5 -19 2 -38 -8z
m-80 -81 c0 -12 -73 -50 -97 -50 -16 0 -16 1 0 17 9 9 31 22 49 29 43 15 48
16 48 4z m-170 -335 c-24 -41 -45 -73 -47 -71 -2 1 16 37 39 79 23 42 44 74
47 72 2 -2 -16 -38 -39 -80z m65 -166 c-15 -30 -38 -79 -52 -109 -33 -76 -23
-38 54 190 4 12 7 10 15 -6 8 -17 4 -33 -17 -75z m-225 -292 c0 -14 -20 -37
-32 -37 -12 0 -10 24 4 38 16 16 28 15 28 -1z m85 -131 c-9 -31 -21 -59 -27
-62 -7 -4 -7 0 0 12 5 11 15 44 22 74 7 30 15 50 17 43 2 -6 -3 -36 -12 -67z
m-334 -49 c-59 -113 -82 -146 -97 -140 -8 3 -14 -1 -14 -11 0 -9 -4 -16 -10
-16 -14 0 -12 27 3 33 6 2 35 38 62 78 47 70 77 109 82 109 1 0 -11 -24 -26
-53z m9 -287 c-16 -29 -30 -24 -30 10 0 28 2 30 20 20 16 -9 18 -15 10 -30z"/>
<path d="M2133 2840 c-8 -13 -19 -17 -30 -13 -15 5 -16 4 -5 -8 10 -11 16 -11
37 1 24 15 33 32 18 37 -4 2 -14 -6 -20 -17z"/>
<path d="M2475 2840 c-3 -5 -4 -14 0 -19 3 -6 -3 -10 -12 -9 -10 0 -38 -5 -63
-10 l-45 -10 63 -1 c35 -1 72 4 83 10 12 6 40 11 64 12 62 3 26 21 -40 20 -35
0 -44 2 -30 8 16 6 17 8 3 8 -9 1 -20 -3 -23 -9z"/>
<path d="M770 2792 c21 -4 22 -6 7 -11 -10 -4 7 -7 38 -7 32 0 52 2 46 4 -6 2
-9 7 -7 10 2 4 -21 7 -52 8 -32 0 -46 -2 -32 -4z"/>
<path d="M2595 2785 c75 -17 92 -17 40 0 -22 8 -53 13 -70 13 -19 0 -7 -5 30
-13z"/>
<path d="M862 2744 c32 -17 47 -60 28 -77 -10 -10 -12 -8 -7 8 9 28 -47 -41
-88 -107 -18 -29 -38 -52 -44 -50 -7 1 -10 -2 -6 -7 3 -6 -4 -30 -16 -53 -26
-51 -139 -241 -148 -248 -12 -9 -45 -65 -46 -75 0 -17 -88 -175 -97 -175 -4 0
-8 -5 -8 -10 0 -6 -17 -37 -37 -70 -28 -44 -43 -60 -55 -56 -23 5 -71 -50 -63
-74 8 -25 -41 -32 -96 -14 -59 21 -137 71 -144 94 -3 11 4 41 15 67 21 45 37
89 45 123 2 8 8 28 14 43 15 38 14 70 -1 65 -14 -5 -20 -21 -68 -172 -42 -132
-36 -151 63 -206 58 -32 82 -40 124 -40 69 0 81 6 75 36 -5 29 15 57 39 51 18
-5 34 21 179 278 40 72 86 149 102 172 15 23 28 44 28 48 0 14 53 84 61 79 5
-3 6 3 2 12 -4 12 -3 15 5 10 8 -5 10 -1 5 10 -4 11 -3 15 5 10 13 -8 42 42
35 61 -2 6 1 15 8 19 8 5 10 3 4 -7 -5 -9 -5 -11 2 -4 20 20 105 159 89 146
-9 -7 -16 -9 -16 -3 0 5 7 15 15 22 8 7 15 9 15 5 0 -5 9 0 20 10 11 10 20 24
20 32 0 20 -46 63 -67 63 -13 -1 -11 -5 9 -16z m-43 -183 c-40 -64 -50 -67
-14 -3 16 26 30 51 32 55 3 5 7 6 9 4 3 -2 -10 -28 -27 -56z"/>
<path d="M2166 2724 c-52 -14 -74 -29 -62 -41 4 -4 11 -1 16 7 9 15 13 16 48
19 10 0 27 8 38 16 10 8 17 14 14 13 -3 0 -27 -7 -54 -14z"/>
<path d="M628 2715 c-2 -2 -36 -8 -77 -14 -40 -5 -79 -15 -85 -22 -8 -9 -6
-10 9 -4 11 4 103 10 205 12 102 3 189 9 195 14 5 6 3 9 -5 10 -39 3 -239 6
-242 4z"/>
<path d="M2134 2666 c-18 -8 -35 -19 -38 -25 -10 -16 -3 -14 45 14 48 27 43
33 -7 11z"/>
<path d="M2531 2571 c-9 -6 -8 -11 4 -21 10 -8 15 -9 15 -1 0 6 9 11 20 11 11
0 19 -3 18 -7 -2 -13 14 -43 23 -43 5 0 9 8 9 17 0 13 3 14 12 5 7 -7 23 -11
38 -11 19 1 20 2 6 6 -10 3 -35 14 -55 25 -40 23 -72 30 -90 19z"/>
<path d="M2794 2539 c-10 -4 -30 -8 -44 -8 -28 -1 -58 -17 -49 -26 4 -3 19 0
35 6 16 6 52 14 79 18 39 5 44 8 24 12 -14 3 -34 2 -45 -2z"/>
<path d="M2800 2500 c-19 -4 -38 -6 -42 -4 -5 3 -8 1 -8 -5 0 -5 -9 -13 -21
-16 -11 -4 -19 -9 -17 -11 2 -2 26 3 53 11 62 19 146 19 192 0 47 -20 54 -13
8 9 -43 21 -118 28 -165 16z"/>
<path d="M2650 2488 c0 -4 -11 -8 -24 -8 -28 0 -75 -35 -63 -47 5 -4 14 0 21
10 7 9 19 17 27 17 8 1 30 9 49 20 28 15 30 18 13 17 -13 -1 -23 -5 -23 -9z"/>
<path d="M2782 2464 c-126 -33 -301 -131 -443 -246 -113 -91 -177 -137 -183
-131 -3 4 -6 1 -6 -5 0 -7 -4 -12 -9 -12 -4 0 -30 -21 -57 -48 -27 -26 -74
-68 -104 -92 -103 -85 -230 -202 -251 -232 -17 -23 -27 -28 -44 -24 l-23 6 18
-37 c10 -21 16 -46 15 -56 -2 -9 0 -15 6 -12 5 4 9 -2 10 -12 0 -11 3 -13 6
-5 3 7 0 26 -5 42 -13 34 -12 35 83 84 46 24 78 48 93 71 24 38 29 60 10 49
-7 -5 -3 4 8 19 20 25 93 87 156 133 16 12 35 28 41 36 7 8 30 27 52 43 49 36
52 38 145 117 113 94 225 178 238 178 7 0 12 4 12 8 0 4 17 14 38 22 49 18 62
20 62 9 0 -6 12 1 27 15 20 19 29 22 35 13 6 -8 10 -6 14 9 6 23 39 34 96 34
37 0 64 -14 106 -53 38 -37 41 -55 7 -53 -14 0 -25 4 -25 7 0 4 -12 7 -26 7
-34 0 -21 -10 49 -36 72 -27 67 -27 67 1 0 23 -61 89 -105 115 -18 10 -16 11
17 12 20 0 40 -4 43 -10 11 -17 37 -11 33 8 -7 38 -112 52 -206 26z m-932
-714 c0 -10 -87 -70 -102 -70 -15 0 -8 18 10 24 9 3 32 17 51 31 38 28 41 29
41 15z"/>
<path d="M2523 2436 c-4 -7 -25 -19 -45 -25 -21 -7 -41 -18 -45 -26 -5 -7 -27
-23 -51 -35 -23 -12 -47 -30 -52 -39 -6 -11 -9 -12 -10 -3 0 10 -3 10 -15 -2
-17 -17 -20 -36 -5 -36 6 0 19 9 30 20 11 11 22 20 24 20 8 0 185 121 191 130
4 6 2 10 -4 10 -5 0 -14 -6 -18 -14z"/>
<path d="M2042 2335 c-20 -19 -31 -35 -24 -35 6 0 12 5 12 11 0 5 5 7 12 3 7
-5 8 -3 4 5 -5 8 -1 14 12 18 11 3 23 11 26 19 8 22 -1 17 -42 -21z"/>
<path d="M2260 2273 c-8 -8 -42 -39 -75 -70 -33 -31 -82 -73 -110 -93 -27 -21
-72 -58 -98 -84 -45 -43 -85 -65 -57 -31 10 12 10 15 -4 15 -8 0 -18 -11 -22
-26 -5 -18 -10 -22 -17 -15 -17 17 -31 13 -17 -4 10 -13 9 -19 -6 -36 -11 -12
-17 -23 -15 -26 7 -9 -21 -45 -87 -113 -58 -60 -63 -64 -76 -47 -8 10 -17 14
-20 9 -3 -6 2 -20 12 -32 l18 -23 23 29 c44 56 233 244 241 239 4 -3 13 2 20
10 7 8 9 15 4 15 -4 0 3 11 16 25 29 31 50 33 24 3 -10 -13 6 -2 36 23 30 26
55 52 55 60 0 11 54 60 154 139 18 14 28 29 24 36 -6 7 -13 6 -23 -3z"/>
<path d="M517 2197 c-19 -16 -24 -26 -17 -37 7 -11 10 -11 10 -2 0 7 11 24 25
37 30 31 17 33 -18 2z"/>
<path d="M1185 2196 c-6 -7 -32 -46 -59 -87 -27 -41 -54 -77 -60 -81 -6 -4 -7
-8 -1 -8 5 0 4 -5 -3 -12 -7 -7 -12 -19 -12 -28 0 -8 -10 -33 -21 -55 -16 -30
-17 -36 -5 -26 13 11 16 11 16 0 1 -8 7 -3 15 11 8 14 12 32 9 41 -2 9 3 32
11 53 18 42 100 166 121 183 9 6 11 13 7 16 -5 3 -13 0 -18 -7z"/>
<path d="M2155 2138 l-40 -42 43 33 c23 18 42 37 42 42 0 14 -3 12 -45 -33z"/>
<path d="M2910 2094 c-130 -48 -177 -68 -285 -121 -120 -60 -159 -77 -310
-132 -96 -35 -259 -135 -519 -319 -33 -23 -63 -42 -67 -42 -15 0 -51 45 -69
85 -10 22 -21 64 -25 94 -9 68 -103 306 -105 264 0 -6 -3 -20 -6 -30 -4 -13
-3 -14 3 -5 12 16 29 -39 39 -125 3 -35 11 -63 17 -63 6 0 5 -5 -2 -13 -8 -10
-7 -19 3 -32 8 -11 12 -25 9 -31 -9 -23 37 -102 76 -133 34 -27 40 -37 39 -69
-2 -77 37 -117 107 -110 29 3 30 2 37 -52 3 -30 11 -69 16 -87 6 -17 8 -34 4
-37 -3 -3 0 -6 6 -6 7 0 12 -8 12 -17 0 -9 3 -14 6 -11 3 3 -2 30 -10 59 -26
93 -29 188 -5 173 5 -3 9 0 9 6 0 7 6 10 14 7 7 -3 19 0 26 6 10 10 12 8 7 -6
-4 -11 -3 -16 3 -12 6 3 10 23 11 43 0 33 1 35 11 15 l11 -22 36 29 c20 16 47
35 61 42 37 19 271 158 300 178 29 19 209 111 310 158 87 40 173 69 254 84 39
8 66 18 66 25 0 15 -30 10 -150 -24 -104 -30 -178 -62 -391 -169 -92 -46 -169
-84 -172 -84 -3 0 -28 -16 -57 -35 -29 -19 -55 -35 -59 -35 -15 0 -247 -132
-284 -162 -21 -16 -55 -34 -75 -40 -33 -9 -38 -8 -59 17 -30 35 -32 100 -3
115 11 6 20 8 20 4 0 -3 6 -1 13 5 8 6 17 8 21 4 4 -4 9 3 13 15 3 12 10 22
15 22 6 0 8 -7 5 -14 -4 -10 -1 -13 9 -9 10 4 12 9 4 18 -7 9 1 19 31 40 23
15 38 22 35 17 -14 -24 14 -20 33 4 11 14 25 23 31 19 5 -3 13 2 17 12 7 19
53 63 65 63 4 0 18 10 31 23 46 42 139 90 290 153 84 34 197 83 252 109 55 25
109 50 120 54 30 12 113 41 182 65 35 11 63 27 63 34 0 16 -13 14 -90 -14z"/>
<path d="M2390 1928 c-14 -5 -45 -18 -70 -28 -219 -89 -241 -101 -319 -172
-35 -32 -68 -58 -72 -58 -12 0 -11 14 1 26 6 6 6 15 0 24 -7 11 -10 11 -10 2
0 -7 -4 -10 -10 -7 -5 3 -13 -7 -16 -22 -5 -17 -3 -28 5 -31 9 -3 9 -8 1 -17
-6 -7 47 25 117 73 123 82 293 172 326 172 9 0 18 4 22 9 3 5 19 12 35 16 16
4 32 11 35 16 8 12 -13 10 -45 -3z"/>
<path d="M2906 1924 c-38 -7 -73 -17 -79 -23 -5 -5 30 -1 78 9 47 10 89 20 92
24 9 8 -11 6 -91 -10z"/>
<path d="M1590 1906 c0 -8 34 -80 40 -86 3 -3 11 -16 17 -30 9 -19 12 -21 12
-7 1 10 -10 35 -24 55 -14 20 -25 42 -25 49 0 6 -4 15 -10 18 -5 3 -10 4 -10
1z"/>
<path d="M1090 1838 c-41 -44 -113 -142 -87 -119 29 27 121 141 113 141 -3 0
-14 -10 -26 -22z"/>
<path d="M686 1772 c-10 -28 -31 -71 -48 -96 -17 -26 -28 -49 -25 -52 3 -3 19
19 36 49 32 57 64 137 57 144 -2 2 -11 -18 -20 -45z"/>
<path d="M1086 1779 c-27 -32 -33 -49 -16 -49 6 0 10 5 10 11 0 6 9 24 21 40
27 38 18 37 -15 -2z"/>
<path d="M2370 1721 c-52 -26 -116 -61 -142 -77 -26 -16 -133 -80 -238 -143
-105 -63 -193 -118 -197 -124 -8 -13 35 1 77 25 219 128 288 170 386 234 63
41 116 74 118 74 1 0 27 13 57 30 86 47 43 34 -61 -19z"/>
<path d="M1493 1745 c-17 -19 -16 -33 2 -51 17 -17 21 -39 5 -29 -5 3 -10 -2
-10 -12 0 -16 1 -16 16 -1 13 12 14 20 5 37 -6 11 -9 32 -5 46 7 28 4 30 -13
10z"/>
<path d="M1818 1673 c-16 -2 -28 -9 -28 -14 0 -6 14 -7 35 -3 56 10 42 -11
-47 -71 -55 -36 -76 -55 -62 -55 37 0 164 98 164 126 0 10 -27 28 -33 23 -1
-1 -14 -4 -29 -6z"/>
<path d="M2955 1625 c-5 -2 -50 -15 -100 -28 -161 -45 -449 -174 -754 -339
-68 -37 -101 -34 -121 9 -15 32 -30 43 -30 22 0 -24 42 -68 70 -74 28 -6 29
-8 24 -48 -4 -23 -6 -57 -5 -74 1 -18 -3 -33 -8 -33 -6 0 -8 8 -5 18 5 14 4
14 -4 2 -6 -8 -8 -18 -5 -22 2 -5 -1 -17 -9 -26 -12 -15 -11 -16 5 -3 14 11
17 11 17 -1 0 -8 -4 -18 -10 -24 -7 -7 -5 -25 4 -54 16 -51 21 -43 6 9 -8 27
-6 36 6 45 8 7 15 16 14 21 -6 29 1 47 16 41 14 -5 15 1 9 56 -4 35 -8 67 -9
72 0 5 4 11 11 13 13 5 14 1 34 -110 12 -66 13 -67 43 -66 17 1 42 5 56 10 18
6 11 7 -24 3 -41 -5 -48 -3 -43 10 3 8 3 16 -1 18 -4 2 -14 30 -23 63 -9 33
-20 68 -24 77 -5 13 -2 20 11 24 30 9 87 37 117 57 46 31 114 66 247 125 311
137 422 177 513 181 9 1 17 8 17 16 0 14 -20 18 -45 10z"/>
<path d="M1020 1602 c0 -5 10 -18 23 -30 18 -17 26 -19 35 -10 7 7 12 17 12
23 0 5 -5 3 -10 -5 -8 -12 -12 -11 -30 8 -22 23 -30 27 -30 14z"/>
<path d="M1087 1528 c-6 -22 -7 -22 -21 -3 -8 11 -18 17 -22 13 -4 -4 4 -16
17 -27 28 -24 43 -27 36 -7 -3 8 -1 17 6 19 9 3 9 8 1 16 -9 9 -13 7 -17 -11z"/>
<path d="M971 1472 c-24 -20 -59 -51 -78 -69 -18 -18 -37 -32 -41 -32 -3 0 -8
-5 -10 -11 -7 -21 29 6 108 79 81 75 93 94 21 33z"/>
<path d="M1173 1374 c17 -9 25 -20 21 -27 -4 -7 -4 -9 1 -5 4 4 14 0 21 -10
18 -23 17 -32 -3 -33 -10 0 -3 -5 15 -10 32 -10 42 -24 20 -31 -8 -3 -6 -7 5
-11 31 -12 26 10 -19 76 -33 50 -50 67 -67 67 -20 -1 -20 -2 6 -16z"/>
<path d="M963 1372 c-13 -2 -23 -8 -23 -13 0 -5 -8 -9 -17 -9 -10 0 -27 -7
-37 -15 -27 -20 -16 -19 45 5 32 13 56 17 63 12 6 -5 20 -6 30 -2 14 4 16 9 8
14 -7 4 -12 5 -12 1 0 -3 -8 -2 -17 3 -10 4 -28 6 -40 4z"/>
<path d="M2005 1330 c4 -25 7 -51 8 -57 0 -7 8 -13 18 -13 16 0 16 4 -3 53
-26 68 -33 73 -23 17z"/>
<path d="M410 1343 c-19 -8 -47 -22 -62 -30 -16 -8 -28 -11 -28 -8 0 5 -73
-44 -174 -117 -45 -32 -81 -36 -109 -10 -20 16 -20 16 -14 -3 7 -20 7 -20 -8
-1 -13 17 -15 18 -15 3 0 -9 1 -17 3 -17 1 -1 25 -3 53 -6 50 -5 55 -3 140 54
118 78 150 96 207 117 26 10 50 22 53 26 7 12 -6 10 -46 -8z"/>
<path d="M800 1335 c-7 -8 -17 -15 -22 -15 -16 0 -109 -43 -104 -48 6 -5 118
38 126 48 3 4 13 6 23 4 15 -2 16 0 6 12 -14 17 -14 17 -29 -1z"/>
<path d="M1 1295 c-1 -64 8 -98 25 -91 7 3 15 0 17 -7 7 -19 39 5 50 37 7 21
6 32 -7 44 -14 14 -17 14 -36 -3 -11 -10 -20 -29 -20 -43 0 -44 -11 -17 -19
49 l-8 64 -2 -50z m79 -49 c0 -28 -24 -53 -35 -36 -4 6 -4 22 -1 36 8 31 36
32 36 0z"/>
<path d="M955 1316 c-16 -7 -55 -19 -85 -26 -30 -7 -71 -20 -90 -28 -19 -9
-39 -16 -45 -17 -5 0 -23 -9 -40 -19 -16 -9 -21 -14 -10 -10 11 3 34 8 50 9
34 4 127 35 135 45 3 4 19 10 35 14 42 10 85 29 85 38 0 10 1 10 -35 -6z"/>
<path d="M2860 1291 c-63 -20 -191 -73 -285 -118 -324 -154 -423 -182 -478
-135 -16 14 -17 14 -11 -1 3 -9 9 -17 13 -17 4 0 17 -9 28 -19 14 -14 23 -38
28 -79 9 -80 35 -122 75 -122 27 0 30 -3 30 -30 0 -18 -10 -39 -26 -55 -26
-26 -28 -45 -6 -53 7 -2 11 5 10 19 -2 16 3 24 15 27 17 3 18 -1 12 -30 -12
-62 -123 -143 -146 -107 -7 11 -9 11 -9 1 0 -29 -19 1 -30 49 -9 38 -15 48
-21 36 -6 -10 -2 -31 10 -59 18 -42 21 -45 62 -46 46 -2 117 32 143 69 8 12
19 18 25 14 15 -9 14 -45 -1 -45 -7 0 -33 -14 -57 -30 -42 -29 -47 -44 -6 -17
25 16 75 22 75 8 0 -23 -124 -91 -166 -91 l-27 0 29 -22 c35 -28 44 -26 122
28 35 24 67 44 73 44 5 0 17 4 27 10 14 8 286 85 375 106 15 3 27 11 27 16 0
6 -6 8 -14 5 -13 -5 -225 -61 -271 -72 -84 -19 -113 -28 -131 -40 -20 -13 -22
-12 -28 17 -9 45 -7 68 4 68 6 0 15 -10 20 -22 5 -13 9 -18 9 -12 1 7 31 17
69 24 37 7 111 28 166 48 54 19 166 51 249 71 86 22 153 43 155 51 3 7 -1 10
-9 7 -8 -3 -48 -13 -89 -23 -116 -27 -276 -70 -370 -99 -100 -32 -211 -39
-234 -15 -21 22 -26 152 -6 156 53 11 228 56 245 64 23 10 53 19 87 25 13 3
32 9 43 14 44 22 235 80 284 87 34 4 51 11 51 21 0 9 -7 13 -17 10 -10 -3 -53
-13 -96 -22 -43 -9 -161 -45 -262 -80 -115 -40 -192 -61 -206 -58 -17 5 -20 3
-14 -7 6 -10 4 -12 -9 -7 -10 4 -43 1 -74 -7 -113 -28 -122 -28 -131 -3 -11
27 -40 151 -36 155 7 7 35 -12 32 -22 -3 -6 1 -25 8 -43 8 -17 11 -34 7 -37
-3 -3 -1 -6 5 -6 6 0 8 -11 5 -25 -5 -29 -4 -29 63 -10 l50 15 -44 -3 -44 -2
-13 45 c-18 58 -18 57 11 64 14 4 25 10 25 15 0 5 -10 7 -22 3 -14 -3 -19 -2
-14 6 4 7 14 12 23 12 19 0 175 60 250 95 28 14 55 25 58 25 4 0 20 9 36 21
28 20 224 106 264 116 11 2 29 8 40 13 11 4 39 13 63 20 23 7 42 17 42 22 0
13 -18 9 -140 -31z"/>
<path d="M642 1198 c-7 -7 -12 -9 -12 -5 0 8 -101 -43 -118 -60 -7 -7 -20 -13
-29 -13 -8 0 -13 -6 -10 -12 2 -7 11 -11 18 -10 8 2 23 6 33 8 11 2 22 7 25
11 3 5 17 9 31 10 48 3 87 10 97 16 13 8 105 10 173 4 l55 -6 -45 13 c-25 7
-79 12 -120 10 -41 -1 -85 1 -97 3 l-23 5 23 19 c12 10 20 18 17 19 -4 0 -11
-5 -18 -12z"/>
<path d="M1313 1193 c-16 -6 -17 -33 -2 -33 5 0 7 5 4 10 -3 6 -1 10 4 10 6 0
11 -3 11 -8 0 -4 10 -13 23 -21 21 -13 21 -12 -3 15 -14 16 -25 30 -25 30 0 1
-6 -1 -12 -3z"/>
<path d="M1910 1184 c0 -11 3 -24 7 -28 7 -7 14 -30 15 -56 1 -8 4 -17 8 -20
10 -8 59 -199 64 -250 3 -39 46 -144 46 -114 0 65 -96 415 -130 473 -8 14 -9
13 -10 -5z"/>
<path d="M312 1148 c-34 -12 -60 -23 -58 -25 6 -6 108 26 121 38 11 11 12 11
-63 -13z"/>
<path d="M4 1035 c0 -66 1 -92 3 -57 2 34 2 88 0 120 -2 31 -3 3 -3 -63z"/>
<path d="M696 1106 c11 -9 23 -11 28 -6 6 6 16 2 25 -9 9 -10 26 -17 38 -16
12 1 24 -4 27 -11 3 -7 18 -12 35 -12 17 1 37 -4 44 -10 8 -7 27 -13 43 -14
16 0 38 -11 49 -25 20 -22 21 -22 21 -3 0 11 -8 23 -18 26 -10 3 -15 10 -12
16 4 6 2 8 -4 4 -6 -3 -28 0 -49 9 -21 8 -67 21 -102 29 -35 8 -69 20 -74 25
-6 6 -24 11 -41 11 -28 0 -29 -1 -10 -14z"/>
<path d="M410 1098 c-19 -5 -52 -14 -73 -19 -21 -5 -35 -14 -32 -19 4 -6 13
-6 23 -1 9 5 43 15 75 22 31 7 57 16 57 21 0 10 -4 9 -50 -4z"/>
<path d="M1301 1082 c63 -49 121 -83 132 -79 7 3 1 9 -13 15 -14 6 -47 26 -75
46 -51 36 -88 51 -44 18z"/>
<path d="M2211 1079 c-24 -5 -46 -11 -49 -14 -10 -9 32 -5 83 9 55 16 35 19
-34 5z"/>
<path d="M80 1062 c0 -22 66 -102 85 -102 7 0 15 -5 17 -12 5 -14 38 -4 38 11
0 6 -11 13 -24 17 -13 3 -34 16 -47 30 -18 19 -20 26 -9 39 11 13 10 15 -2 10
-9 -4 -22 1 -31 9 -20 21 -27 20 -27 -2z"/>
<path d="M1916 1055 c-3 -8 1 -21 10 -29 8 -8 10 -17 5 -20 -10 -7 -21 -66
-11 -66 3 0 11 20 19 44 9 33 10 49 1 65 -13 25 -16 26 -24 6z"/>
<path d="M460 1023 c-66 -10 -161 -36 -167 -46 -4 -7 2 -8 18 -3 33 9 53 14
132 29 38 7 65 16 61 20 -4 4 -10 6 -13 6 -3 -1 -17 -3 -31 -6z"/>
<path d="M560 1000 c-7 -4 7 -10 32 -14 24 -4 73 -19 110 -33 66 -26 66 -26
50 -48 -9 -13 -23 -20 -29 -18 -7 3 -13 0 -13 -6 0 -6 -8 -11 -17 -11 -14 0
-14 -3 -5 -12 10 -10 15 -10 20 -1 5 8 19 9 55 0 44 -10 65 -27 32 -27 -8 0
-15 -4 -15 -10 0 -13 1 -13 41 4 l34 14 -30 13 c-17 8 -32 16 -35 19 -3 3 -11
5 -19 5 -32 0 -20 25 17 36 29 8 48 23 65 50 14 22 24 39 23 39 -7 0 -56 -50
-49 -50 4 0 1 -5 -7 -10 -22 -14 -46 -12 -64 5 -8 9 -18 16 -21 15 -31 -2 -44
2 -41 13 1 6 1 9 -1 6 -2 -4 -30 1 -62 11 -33 10 -64 14 -71 10z"/>
<path d="M130 952 c0 -6 5 -14 11 -18 6 -3 8 -17 4 -31 -3 -15 -2 -22 4 -19 5
4 21 -10 35 -31 15 -21 26 -31 26 -23 0 9 -8 26 -17 40 -15 22 -15 23 0 17 26
-10 30 11 5 24 -13 6 -33 21 -45 32 -13 11 -23 15 -23 9z"/>
<path d="M309 937 c-14 -7 -33 -18 -43 -26 -13 -11 -16 -11 -16 -1 0 15 -13 5
-17 -13 -1 -7 -7 -30 -12 -51 -5 -22 -6 -47 -2 -55 19 -37 51 -205 61 -326 13
-152 34 -301 56 -397 26 -113 32 -76 7 45 -12 61 -32 194 -43 293 -11 100 -29
228 -40 285 -11 57 -20 118 -20 135 0 33 28 66 60 71 11 1 23 3 27 4 4 1 25 1
46 0 26 -1 37 -6 37 -16 0 -11 11 -15 36 -15 22 0 33 4 29 10 -4 6 -16 8 -28
5 -16 -5 -18 -4 -8 3 26 18 1 35 -45 29 -24 -2 -41 -1 -38 4 3 5 0 9 -6 9 -6
0 -8 5 -5 10 8 13 -3 12 -36 -3z"/>
<path d="M2056 908 c3 -32 2 -38 -5 -23 -10 20 -10 20 -10 0 0 -11 4 -29 9
-40 8 -19 9 -19 9 -1 1 23 14 13 17 -12 1 -9 5 -26 9 -36 7 -16 5 -18 -8 -13
-12 5 -17 1 -17 -13 0 -23 4 -24 30 -8 22 14 39 3 22 -14 -15 -15 -16 -58 -1
-58 5 0 8 -4 5 -8 -2 -4 0 -14 5 -22 7 -12 8 -11 6 5 -1 11 -6 25 -9 31 -9 13
1 54 13 54 17 0 9 23 -25 70 -25 34 -33 56 -33 85 1 21 -4 40 -10 42 -8 3 -10
-10 -7 -39z"/>
<path d="M1773 900 c-18 -17 -41 -30 -53 -30 -12 0 -19 -4 -16 -8 7 -12 -29
-41 -95 -76 -30 -16 -59 -34 -64 -40 -6 -6 -24 -19 -40 -28 -16 -9 -31 -22
-34 -30 -3 -9 2 -8 15 3 10 9 44 29 74 44 103 51 219 136 241 178 13 23 9 22
-28 -13z"/>
<path d="M548 903 c32 -4 42 -17 20 -26 -7 -3 -4 -6 8 -6 11 -1 26 5 32 11 10
10 17 10 33 0 12 -8 18 -9 14 -3 -3 6 -1 11 6 11 22 0 0 13 -26 16 -14 1 -25
-2 -25 -9 0 -8 -3 -8 -12 1 -7 7 -28 11 -47 10 l-36 -1 33 -4z"/>
<path d="M809 899 c-10 -6 -5 -9 16 -9 17 0 41 -7 53 -16 13 -9 25 -14 28 -11
6 6 -36 32 -62 39 -12 3 -28 2 -35 -3z"/>
<path d="M27 883 c-16 -3 -27 -11 -27 -19 0 -16 34 -13 88 7 45 17 14 23 -61
12z"/>
<path d="M1763 839 c-24 -17 -43 -34 -43 -39 0 -5 -9 -12 -20 -15 -11 -4 -18
-11 -14 -16 4 -6 14 -3 25 7 10 9 19 14 19 10 0 -4 7 0 16 8 8 9 20 14 25 11
5 -4 9 3 9 14 0 12 6 21 14 21 8 0 16 7 20 15 8 22 -3 18 -51 -16z"/>
<path d="M2545 821 c-44 -27 -83 -47 -88 -44 -4 2 -14 -3 -23 -11 -9 -9 -11
-16 -4 -16 6 0 8 -5 4 -12 -6 -10 -4 -10 7 -2 8 6 26 14 40 17 14 4 35 14 47
24 12 10 39 31 62 47 22 17 40 33 40 38 0 11 3 13 -85 -41z"/>
<path d="M251 840 c0 -8 11 -58 24 -110 20 -76 24 -85 20 -45 -4 49 -42 185
-44 155z"/>
<path d="M166 748 c8 -117 22 -163 19 -65 -1 57 1 75 9 67 6 -6 12 -54 13
-108 3 -90 8 -134 33 -283 8 -41 29 -293 30 -351 0 -5 7 -8 16 -8 12 0 14 7
10 27 -8 40 -17 190 -11 177 3 -5 10 -30 15 -55 l9 -44 -4 45 c-3 25 -12 101
-20 170 -8 69 -20 166 -26 215 -6 50 -14 94 -17 99 -3 5 -7 26 -8 46 -4 41
-51 150 -64 150 -5 0 -7 -36 -4 -82z"/>
<path d="M2314 767 c2 -21 6 -40 10 -44 11 -11 6 -23 -9 -23 -18 0 -20 -21 -3
-38 14 -14 32 -16 23 -2 -3 5 0 18 7 29 9 15 9 26 1 43 -6 13 -15 34 -21 48
-9 23 -10 22 -8 -13z"/>
<path d="M1975 739 c8 -30 15 -74 15 -99 1 -59 25 -169 40 -183 10 -9 10 -8 3
8 -6 11 -13 47 -16 80 -3 33 -2 51 1 40 10 -30 34 -60 59 -73 42 -23 48 -5 5
19 -28 16 -72 88 -72 119 0 22 -31 122 -41 134 -4 5 -2 -15 6 -45z"/>
<path d="M1588 729 c-38 -22 -68 -44 -68 -50 0 -5 -3 -8 -7 -8 -29 5 -39 -14
-64 -121 -7 -30 -16 -59 -21 -64 -11 -13 -10 -46 1 -46 5 0 7 10 3 22 -4 16
-2 20 10 15 13 -4 17 6 22 54 8 66 48 128 101 158 17 9 32 19 33 24 5 10 65
42 75 39 5 -1 6 2 2 8 -9 15 -14 13 -87 -31z"/>
<path d="M1208 674 c-18 -10 -25 -20 -21 -30 5 -15 7 -15 15 0 5 8 18 22 31
31 27 19 12 18 -25 -1z"/>
<path d="M2959 646 c-4 -4 -146 -38 -296 -71 -220 -48 -305 -78 -387 -133 -44
-30 -88 -61 -97 -69 -14 -12 -17 -12 -23 2 -3 9 -6 25 -6 36 0 10 -4 19 -8 19
-8 0 -6 -49 5 -110 l7 -35 5 34 c9 54 125 128 275 176 44 14 89 25 100 23 12
-1 28 2 36 7 8 5 28 10 45 11 55 5 110 17 121 28 6 6 68 24 137 41 70 16 127
33 127 37 0 8 -33 11 -41 4z"/>
<path d="M1380 589 c0 -5 -6 -9 -13 -9 -13 0 -62 -49 -55 -55 2 -2 22 10 46
26 47 32 52 34 52 20 0 -6 -20 -24 -45 -42 -25 -18 -45 -37 -45 -42 0 -5 6 -4
13 2 8 6 16 8 20 5 3 -3 13 6 22 20 10 14 23 26 30 26 7 0 15 10 19 23 8 32 8
32 -19 33 -14 1 -25 -2 -25 -7z"/>
<path d="M1384 473 c-9 -21 -24 -46 -32 -55 -13 -15 -13 -18 -1 -18 14 0 64
98 55 107 -2 3 -12 -13 -22 -34z"/>
<path d="M2457 414 c-54 -7 -118 -23 -144 -34 -25 -11 -48 -18 -51 -15 -3 2
-11 -3 -18 -13 -7 -9 -18 -17 -25 -17 -6 0 -13 -15 -15 -33 -4 -31 -3 -32 19
-18 19 13 72 27 117 31 27 3 94 26 132 46 22 12 67 22 111 26 103 8 197 -11
111 -22 -16 -2 -29 -4 -29 -5 0 -1 -13 -4 -30 -6 -66 -10 -292 -77 -327 -98
-20 -11 -43 -31 -49 -43 -17 -31 -23 -29 -34 9 -6 17 -16 34 -23 36 -11 3 -12
0 -3 -16 29 -54 3 -83 -77 -86 -94 -4 -87 -16 9 -16 l84 1 40 40 c41 42 125
89 159 89 10 0 59 14 110 31 184 62 322 75 424 40 39 -13 52 -15 52 -5 0 17
-80 42 -160 49 -54 6 -121 15 -265 39 -11 1 -64 -3 -118 -10z m-135 -80 c-24
-9 -46 -13 -49 -10 -8 8 37 25 67 25 18 0 13 -4 -18 -15z"/>
<path d="M1390 405 c0 -8 6 -15 13 -15 8 -1 7 -5 -3 -13 -9 -7 -22 -28 -30
-47 -8 -19 -27 -48 -43 -64 -15 -16 -25 -31 -22 -35 4 -3 11 2 16 12 6 9 16
17 24 17 7 0 21 21 31 48 23 62 31 70 43 41 5 -13 10 -18 10 -10 1 11 4 11 18
0 17 -13 17 -13 0 11 -9 14 -22 35 -27 48 -11 25 -30 30 -30 7z"/>
<path d="M1488 398 c-7 -17 9 -38 29 -38 7 0 13 -7 13 -15 0 -8 7 -15 15 -15
8 0 15 -4 15 -10 0 -5 6 -10 13 -10 6 1 -6 18 -29 38 -22 20 -43 44 -46 51 -4
13 -5 12 -10 -1z"/>
<path d="M328 343 c7 -65 12 -67 12 -5 0 29 -4 52 -9 52 -5 0 -6 -21 -3 -47z"/>
<path d="M1317 323 c-4 -3 -7 -15 -7 -25 0 -10 -4 -18 -8 -18 -8 0 -42 -52
-42 -64 0 -4 6 -1 14 6 8 7 12 16 9 21 -2 4 0 7 5 7 11 0 46 69 40 76 -3 2 -8
1 -11 -3z"/>
<path d="M930 307 c0 -6 -14 -18 -31 -26 -16 -7 -28 -15 -26 -18 9 -8 77 31
77 44 0 7 -4 13 -10 13 -5 0 -10 -6 -10 -13z"/>
<path d="M823 228 c-17 -18 -55 -71 -85 -118 -68 -107 -70 -110 -65 -110 3 0
35 45 72 100 36 55 72 106 78 113 21 21 40 47 35 47 -2 0 -18 -15 -35 -32z"/>
<path d="M2450 250 c-14 -5 -42 -11 -62 -15 -47 -7 -74 -31 -57 -51 9 -11 8
-18 -1 -29 -25 -30 14 -16 55 20 56 50 86 64 146 70 29 3 55 7 57 10 9 8 -111
4 -138 -5z"/>
<path d="M753 207 c-50 -54 -67 -83 -53 -92 5 -3 11 -3 11 2 1 4 2 14 3 20 0
7 5 14 11 15 13 4 78 88 72 94 -2 3 -22 -15 -44 -39z"/>
<path d="M191 211 c-11 -19 -61 -187 -61 -202 0 -17 38 -9 43 9 31 107 54 202
49 206 -10 11 -21 6 -31 -13z"/>
<path d="M1755 217 c26 -17 247 -70 271 -65 11 2 -20 12 -69 21 -48 10 -113
27 -145 37 -67 23 -84 25 -57 7z"/>
<path d="M2656 198 c-43 -4 -101 -14 -129 -22 -28 -8 -54 -13 -59 -10 -4 3 -8
-1 -8 -8 -1 -7 -17 -26 -37 -43 -60 -49 -114 -110 -102 -114 6 -2 25 10 42 27
43 40 168 107 241 128 33 9 94 17 135 17 82 1 148 -22 220 -77 46 -35 55 -22
11 15 -19 16 -43 36 -53 45 -45 38 -141 54 -261 42z"/>
<path d="M1250 192 c0 -4 -24 -49 -54 -100 -36 -61 -50 -92 -41 -92 8 0 26 23
40 50 29 58 53 68 29 13 -9 -21 -18 -44 -21 -51 -3 -6 2 -12 11 -12 9 0 16 8
16 19 0 11 5 23 10 26 6 4 8 10 5 15 -3 5 1 14 8 22 7 7 12 24 12 38 0 14 5
24 12 23 8 -2 10 4 6 14 -6 14 -8 14 -20 -3 -7 -10 -13 -24 -13 -31 0 -7 -4
-13 -10 -13 -15 0 -12 11 10 53 11 20 16 37 10 37 -5 0 -10 -4 -10 -8z"/>
<path d="M9 128 c-5 -15 -3 -98 3 -98 5 0 8 23 8 50 0 28 -2 50 -5 50 -3 0 -5
-1 -6 -2z"/>
<path d="M1330 101 c0 -17 5 -31 10 -31 6 0 10 11 10 24 0 14 -4 28 -10 31 -6
4 -10 -7 -10 -24z"/>
<path d="M2597 114 c-34 -7 -64 -19 -72 -30 -8 -11 -15 -15 -15 -10 0 5 -7 2
-16 -5 -9 -8 -42 -26 -73 -41 l-56 -26 53 1 c43 1 52 4 52 20 0 13 5 17 19 12
12 -3 21 0 25 10 3 8 12 15 21 15 8 0 15 4 15 9 0 12 78 39 108 38 12 -1 22
-5 22 -10 0 -4 5 -5 10 -2 6 4 8 10 5 14 -9 16 -40 17 -98 5z"/>
<path d="M40 113 c0 -5 22 -8 49 -8 27 0 47 3 44 8 -6 9 -93 9 -93 0z"/>
<path d="M312 75 c0 -16 4 -41 8 -55 l8 -25 0 25 c0 14 -4 39 -8 55 l-8 30 0
-30z"/>
<path d="M651 57 c-29 -61 -25 -72 5 -14 14 26 29 45 34 42 6 -4 10 -1 10 4 0
27 -30 7 -49 -32z"/>
<path d="M2185 82 c6 -4 12 -23 14 -42 4 -52 11 -50 11 3 0 38 -3 47 -17 47
-11 0 -14 -3 -8 -8z"/>
<path d="M1299 53 c-12 -14 -12 -16 1 -8 12 7 13 6 3 -7 -7 -8 -10 -18 -6 -21
3 -4 -2 -7 -13 -8 -10 0 -14 -3 -8 -5 6 -3 24 0 40 6 21 8 25 13 15 19 -8 5
-11 13 -7 19 11 18 -11 23 -25 5z"/>
</g>
</svg>
