<?xml version="1.0" standalone="no"?>
<!DOCTYPE svg PUBLIC "-//W3C//DTD SVG 20010904//EN"
 "http://www.w3.org/TR/2001/REC-SVG-20010904/DTD/svg10.dtd">
<svg version="1.0" xmlns="http://www.w3.org/2000/svg"
 width="300.000000pt" height="300.000000pt" viewBox="0 0 300.000000 300.000000"
 preserveAspectRatio="xMidYMid meet">
<metadata>
Created by potrace 1.10, written by Peter Selinger 2001-2011
</metadata>
<g transform="translate(0.000000,300.000000) scale(0.100000,-0.100000)"
fill="#000000" stroke="none">
<path d="M335 2970 c-8 -16 -15 -36 -15 -45 0 -8 -9 -24 -20 -35 -24 -24 -25
-31 -5 -24 11 5 15 -1 15 -19 0 -16 -7 -27 -17 -30 -17 -4 -17 -5 0 -6 26 -2
21 -20 -8 -27 -38 -9 -55 2 -55 36 0 17 -4 29 -8 26 -5 -3 -7 -19 -4 -35 3
-22 12 -32 33 -40 22 -7 29 -16 29 -35 0 -14 5 -28 10 -31 6 -4 10 8 10 29 0
38 2 40 45 50 28 7 29 6 14 -11 -9 -10 -18 -28 -21 -39 -4 -17 -2 -20 12 -17
12 3 16 11 13 24 -4 13 2 21 17 27 19 7 20 9 6 21 -9 7 -25 11 -36 8 -17 -4
-20 0 -20 27 0 47 28 134 51 157 19 19 19 19 -6 19 -17 0 -29 -9 -40 -30z"/>
<path d="M466 2969 c-33 -39 -56 -119 -59 -202 -1 -36 -5 -63 -10 -60 -4 2
-15 -3 -24 -12 -10 -11 -27 -15 -45 -13 -21 4 -28 1 -28 -13 0 -23 -73 -50
-214 -79 -107 -21 -113 -41 -7 -24 98 16 231 62 231 80 0 8 7 15 15 15 24 2
29 4 42 12 7 4 24 5 38 1 l25 -6 0 98 c1 71 5 106 16 124 l15 25 -5 -25 c-4
-20 -9 -183 -7 -213 1 -4 13 0 27 10 25 16 26 17 6 24 -19 7 -20 14 -16 81 6
83 27 153 57 186 l20 22 -25 0 c-17 0 -35 -11 -52 -31z"/>
<path d="M604 2973 c-30 -41 -39 -62 -14 -33 11 14 30 33 42 43 14 12 16 17 6
17 -8 0 -23 -12 -34 -27z"/>
<path d="M680 2955 c-36 -24 -75 -56 -87 -70 -24 -28 -30 -55 -12 -55 5 0 8 4
4 9 -8 15 52 78 81 85 26 7 108 76 89 75 -5 0 -39 -20 -75 -44z"/>
<path d="M799 2937 c10 -35 26 -77 35 -95 9 -17 16 -41 16 -53 0 -23 -73 -139
-120 -189 -30 -32 -38 -50 -22 -50 4 0 14 6 20 12 10 10 15 10 22 -2 8 -12 10
-9 10 13 0 16 18 52 45 89 24 34 46 66 48 72 2 6 7 8 11 5 3 -3 -15 -38 -40
-78 -55 -86 -55 -113 7 -189 60 -76 261 -214 361 -249 39 -13 43 -13 57 6 14
17 19 18 34 7 18 -14 24 -32 7 -21 -6 4 -24 -5 -41 -19 -37 -31 -33 -32 23 -7
55 25 230 89 383 141 116 39 417 179 429 199 4 5 2 12 -4 16 -5 3 -10 1 -10
-5 0 -6 -5 -8 -11 -5 -5 4 -19 -1 -29 -10 -10 -9 -24 -14 -31 -9 -8 4 -10 3
-5 -4 8 -14 -50 -46 -66 -36 -7 5 -8 3 -3 -6 6 -10 4 -12 -9 -7 -9 4 -15 3
-12 -2 7 -11 -108 -63 -231 -105 -128 -44 -283 -102 -319 -120 -25 -14 -30
-13 -56 5 -15 11 -28 26 -28 32 0 32 53 243 63 253 7 7 46 17 89 23 102 14
254 81 408 179 123 78 219 144 251 173 l34 30 -60 -31 c-65 -34 -158 -98 -163
-112 -2 -4 -10 -8 -17 -8 -7 0 -15 -4 -17 -8 -1 -5 -34 -28 -73 -51 -168 -102
-325 -161 -425 -161 -30 0 -50 -4 -50 -11 0 -8 -4 -8 -12 -1 -7 6 -33 18 -58
28 -58 23 -132 75 -192 135 -27 26 -48 45 -48 42 0 -2 -13 11 -29 29 -38 44
-59 87 -67 136 -3 23 -15 49 -26 58 -18 17 -19 17 -12 -27 11 -80 59 -166 136
-245 39 -41 76 -74 81 -74 5 0 3 8 -4 18 -13 15 -12 16 3 3 10 -7 15 -17 12
-22 -9 -15 85 -67 142 -79 30 -6 56 -15 59 -20 9 -14 -51 -270 -67 -286 -19
-20 -44 -10 -170 69 -91 56 -240 180 -245 203 -1 5 -7 23 -14 39 -10 27 -8 35
22 82 19 28 39 60 46 70 10 15 12 9 12 -37 1 -40 4 -51 12 -43 8 8 10 40 6 95
-4 71 -10 92 -41 148 -20 36 -36 79 -36 98 0 25 -4 32 -19 32 -19 0 -19 -1 -2
-63z"/>
<path d="M930 2979 c27 -21 64 -39 83 -39 7 0 -2 9 -19 19 -18 11 -35 24 -38
30 -4 6 -17 11 -29 11 -22 0 -22 -1 3 -21z"/>
<path d="M984 2981 c10 -11 29 -22 44 -26 21 -5 23 -8 11 -16 -10 -7 -2 -8 26
-4 31 4 36 3 20 -5 -16 -9 -14 -9 14 -5 18 3 72 2 120 -2 l86 -8 -55 -6 c-48
-5 -43 -6 35 -7 50 -1 119 5 155 12 36 8 69 11 74 8 5 -3 6 0 2 6 -5 8 4 12
26 12 38 1 147 25 156 36 4 3 -2 4 -13 1 -11 -3 -36 -8 -55 -12 -35 -6 -35 -6
-10 9 36 22 10 21 -113 -5 -138 -28 -379 -24 -472 10 -72 26 -72 26 -51 2z"/>
<path d="M1835 2969 c-158 -69 -349 -116 -515 -126 -82 -4 -109 -2 -194 21
-105 27 -135 41 -74 34 21 -2 35 -2 32 1 -6 7 -98 30 -102 27 -1 -2 2 -15 8
-30 15 -42 82 -65 208 -72 114 -7 199 2 342 37 147 36 425 136 380 138 -8 0
-46 -13 -85 -30z"/>
<path d="M2038 2975 c-7 -15 -35 -40 -63 -56 -27 -16 -43 -29 -34 -29 25 0
107 57 114 80 10 32 -2 37 -17 5z"/>
<path d="M2170 2984 c-14 -7 -36 -11 -50 -7 -23 5 -24 4 -9 -11 18 -19 55 -10
78 18 16 19 14 19 -19 0z"/>
<path d="M2201 2946 c-55 -59 -59 -71 -37 -102 15 -19 15 -19 30 1 9 11 21 38
28 60 6 22 15 45 18 50 9 13 20 45 16 45 -2 0 -26 -24 -55 -54z"/>
<path d="M2595 2966 c-21 -23 -35 -31 -38 -23 -3 6 -6 -3 -6 -22 l-1 -34 27
24 c24 22 24 21 -6 -24 -18 -27 -35 -46 -38 -43 -3 3 -1 12 6 19 8 11 6 27
-13 68 -28 60 -33 61 -12 3 7 -22 10 -48 6 -59 -9 -25 -38 -50 -47 -42 -3 4
-19 -22 -36 -56 -49 -102 -101 -143 -126 -99 -6 9 -10 13 -10 7 -1 -5 8 -21
19 -35 20 -26 27 -56 10 -45 -6 3 -7 -1 -4 -9 5 -14 9 -13 31 3 13 11 37 23
54 26 26 6 37 1 79 -37 70 -62 76 -67 104 -74 15 -3 29 -11 33 -17 4 -6 -2 -8
-15 -5 -12 4 -20 2 -16 -3 3 -5 12 -9 21 -9 8 0 38 -12 67 -26 l51 -26 -24 26
c-20 21 -21 26 -8 26 9 0 21 -8 26 -17 9 -15 12 -15 20 -4 6 9 19 11 42 6 55
-11 140 -48 136 -59 -3 -6 6 -12 19 -12 12 -1 25 5 28 12 3 8 0 14 -7 13 -24
-3 -34 1 -63 27 -55 48 -84 57 -176 58 -85 1 -117 9 -84 22 9 3 16 11 16 16 0
6 -7 8 -15 4 -8 -3 -15 0 -15 7 0 7 -5 4 -11 -6 -10 -18 -14 -16 -50 19 -21
21 -39 33 -39 26 0 -6 -12 1 -27 17 -16 15 -38 33 -50 40 -44 23 -40 55 17
126 29 35 57 62 61 59 5 -2 21 13 37 35 51 70 91 111 111 114 36 6 31 13 -10
16 -35 2 -45 -3 -74 -33z m-191 -291 c3 -9 -4 -21 -20 -31 -34 -23 -43 -9 -14
21 28 29 26 29 34 10z"/>
<path d="M2934 2950 c-32 -21 -83 -61 -113 -87 -30 -26 -51 -42 -46 -34 6 11
4 13 -11 7 -10 -4 -54 -7 -96 -7 -42 1 -80 -4 -83 -9 -3 -6 4 -10 17 -11 17 0
11 -5 -20 -17 -42 -16 -84 -64 -69 -78 11 -11 85 27 102 52 8 13 32 28 52 33
60 17 62 13 8 -13 -27 -12 -57 -31 -65 -41 -8 -10 -33 -25 -54 -35 -38 -15
-41 -15 -58 2 -17 17 -17 21 -3 48 9 17 13 30 11 30 -9 0 -36 -58 -36 -75 0
-9 10 -26 23 -38 12 -13 22 -29 22 -36 0 -8 10 -18 23 -22 26 -10 23 0 -11 38
l-20 22 29 11 c66 24 84 33 84 41 0 15 60 48 115 64 30 8 76 34 111 62 33 27
81 62 107 78 26 17 47 36 47 43 0 17 0 17 -66 -28z"/>
<path d="M2634 2918 c-48 -51 -99 -114 -63 -78 35 34 122 130 118 130 -3 0
-27 -24 -55 -52z"/>
<path d="M2801 2957 c28 -21 29 -64 3 -84 -13 -10 -24 -22 -24 -27 0 -5 13 3
29 18 19 18 28 36 26 52 -2 18 3 24 18 24 16 0 17 3 7 15 -7 8 -27 15 -44 15
-26 -1 -29 -2 -15 -13z"/>
<path d="M1641 2939 c-35 -10 -69 -24 -75 -30 -8 -9 -6 -10 9 -4 11 4 44 13
73 20 30 7 59 18 65 24 14 14 7 13 -72 -10z"/>
<path d="M2700 2940 c0 -21 34 -45 50 -35 12 8 -20 54 -37 55 -7 0 -13 -9 -13
-20z"/>
<path d="M2256 2903 c-4 -21 -16 -57 -26 -80 -17 -39 -17 -53 1 -53 7 0 31 68
43 120 3 14 1 31 -3 39 -6 9 -11 1 -15 -26z"/>
<path d="M247 2923 c-14 -13 -6 -24 15 -21 27 4 36 28 11 28 -11 0 -23 -3 -26
-7z"/>
<path d="M1435 2893 c-49 -8 -133 -12 -185 -9 -52 2 -86 2 -75 -1 11 -2 31 -8
45 -14 28 -10 307 14 322 29 11 11 3 11 -107 -5z"/>
<path d="M2035 2800 c-38 -60 -29 -129 26 -190 16 -19 27 -28 23 -20 -4 8 -16
25 -26 37 -29 32 -33 89 -11 156 11 31 18 57 17 57 -2 0 -15 -18 -29 -40z"/>
<path d="M1081 2784 c51 -54 195 -110 332 -130 64 -9 59 2 -10 21 -143 40
-248 80 -294 111 -65 43 -71 43 -28 -2z"/>
<path d="M1885 2744 c-187 -118 -350 -193 -448 -209 -67 -10 -74 -13 -37 -14
66 -1 124 15 225 63 105 50 408 235 385 235 -3 1 -59 -33 -125 -75z"/>
<path d="M520 2759 c-35 -29 -31 -41 4 -14 47 35 47 9 2 -82 -19 -37 -43 -99
-53 -138 -11 -43 -40 -108 -76 -170 -74 -126 -111 -197 -141 -277 -41 -110
-80 -170 -131 -205 -47 -33 -47 -48 1 -17 26 17 41 14 29 -6 -10 -17 -106 -60
-132 -60 -25 0 -30 -19 -11 -38 9 -9 9 -18 0 -36 -10 -23 -17 -244 -7 -234 3
3 7 53 10 111 4 93 8 113 30 148 14 22 34 42 43 45 9 3 29 12 45 20 15 8 27
12 27 9 0 -10 -48 -99 -82 -151 -29 -44 -33 -57 -29 -103 l3 -53 34 5 c28 5
34 3 34 -12 0 -26 -23 -42 -64 -46 -46 -4 -56 -11 -55 -38 0 -12 3 -16 6 -9 2
6 14 12 25 12 11 0 49 5 84 12 l63 11 -31 59 c-17 33 -45 70 -61 84 l-30 25
31 32 c30 31 132 192 132 209 0 4 -6 8 -14 8 -25 0 -27 17 -7 52 11 18 36 74
56 123 44 109 114 235 131 235 7 0 33 12 58 28 38 22 45 32 45 57 0 28 -1 28
-9 8 -13 -31 -17 -29 -15 8 1 16 10 38 19 47 17 16 18 16 11 -8 -12 -41 1 -20
35 59 18 41 38 109 45 152 6 42 22 94 34 114 l22 37 -35 -6 c-26 -5 -35 -3
-38 8 -2 10 -12 7 -38 -15z m-96 -444 c-24 -36 -28 -24 -8 21 12 27 18 34 21
22 2 -9 -3 -28 -13 -43z"/>
<path d="M633 2737 c-13 -20 -23 -56 -27 -95 -3 -39 -21 -101 -48 -165 -40
-97 -41 -106 -40 -202 0 -55 -3 -91 -7 -81 -5 13 -7 1 -7 -33 l1 -52 14 33 c7
19 13 64 12 104 -1 70 -1 72 29 84 31 13 43 34 13 23 -10 -4 -3 6 15 21 38 33
36 46 -2 20 -15 -9 -29 -15 -31 -12 -3 2 9 27 27 54 32 51 68 149 68 187 0 35
-18 1 -30 -61 -7 -29 -15 -50 -20 -47 -4 3 1 32 11 66 10 33 19 71 19 82 1 12
7 40 15 62 8 21 13 40 12 42 -1 1 -12 -13 -24 -30z"/>
<path d="M1535 2760 l-40 -7 40 -1 c22 0 60 3 85 7 l45 8 -45 0 c-25 0 -63 -3
-85 -7z"/>
<path d="M2255 2760 c-7 -12 29 -62 38 -53 3 3 -1 12 -9 20 -8 8 -12 18 -9 23
3 5 1 11 -4 14 -5 4 -12 2 -16 -4z"/>
<path d="M2171 2724 c-12 -20 -20 -38 -18 -41 4 -4 57 62 57 71 0 17 -21 1
-39 -30z"/>
<path d="M2215 2710 c-3 -11 -10 -20 -15 -20 -4 0 -11 -8 -14 -17 -6 -16 -6
-16 12 0 10 9 28 17 40 17 25 0 28 10 10 28 -17 17 -26 15 -33 -8z"/>
<path d="M2090 2684 c0 -13 -3 -14 -13 -5 -36 29 -18 -37 21 -81 22 -26 29
-22 24 12 -2 16 -9 28 -16 27 -7 -1 -10 10 -8 31 2 17 1 32 -2 32 -3 0 -6 -7
-6 -16z"/>
<path d="M2283 2660 c2 -8 7 -25 11 -37 5 -17 3 -23 -8 -23 -8 0 -17 -13 -21
-30 -4 -16 -11 -30 -17 -30 -6 0 -7 -15 -3 -40 4 -22 4 -40 0 -40 -7 0 -83 79
-96 100 -7 13 -8 13 -9 0 0 -9 5 -21 11 -27 7 -7 -27 -29 -118 -73 -225 -109
-324 -151 -493 -206 -91 -29 -195 -64 -232 -78 -107 -39 -112 -38 -227 34
-195 124 -240 160 -314 246 -47 56 -73 80 -75 70 -2 -9 4 -23 12 -32 9 -8 19
-26 22 -40 3 -13 10 -21 15 -19 4 3 15 -5 24 -18 8 -13 26 -29 38 -34 13 -6
44 -29 70 -51 71 -62 309 -216 332 -216 11 1 38 6 60 12 34 9 228 32 272 32 7
0 13 7 13 15 0 8 8 15 18 15 15 0 15 -2 2 -11 -12 -9 -12 -10 3 -5 10 3 23 6
28 6 6 0 8 4 5 9 -3 5 16 14 42 21 138 34 415 158 489 217 l42 33 26 -34 c19
-25 25 -41 20 -57 -5 -14 -4 -19 4 -15 21 13 6 -30 -22 -63 -15 -18 -27 -38
-27 -44 0 -8 4 -7 9 2 7 10 11 6 16 -17 3 -17 13 -36 21 -43 22 -18 17 -41 -8
-37 -15 2 -25 15 -34 43 -12 36 -13 37 -9 8 2 -18 0 -33 -5 -33 -14 0 -12 87
2 113 7 14 -1 9 -23 -13 -19 -19 -48 -42 -66 -52 -39 -20 -59 -51 -67 -103 -4
-31 -4 -35 4 -17 5 13 14 21 20 17 5 -3 7 0 4 9 -9 22 23 74 56 91 27 14 30
14 40 -5 6 -11 9 -24 6 -29 -8 -12 20 -34 32 -27 6 3 13 -5 16 -18 5 -22 8
-23 43 -14 21 6 48 11 59 12 13 0 20 6 16 14 -3 8 -13 11 -28 8 -19 -5 -23 -1
-29 24 -4 17 -11 30 -16 30 -5 0 -9 8 -9 18 0 10 -5 23 -11 29 -8 8 -5 13 9
18 24 7 62 -11 135 -63 36 -26 49 -32 44 -19 -4 10 -7 21 -7 23 0 3 -4 3 -9
-1 -5 -3 -38 22 -73 55 -34 33 -65 60 -68 60 -3 0 -2 26 2 58 4 31 11 79 14
105 3 30 13 55 25 65 23 20 24 58 3 92 -8 14 -13 18 -11 10z m-78 -190 c16
-16 24 -30 18 -30 -5 0 -18 9 -28 20 -10 11 -21 17 -24 13 -10 -14 -125 -89
-161 -105 -174 -80 -290 -123 -445 -166 -117 -32 -210 -48 -201 -33 6 9 132
51 339 112 59 18 107 37 107 41 0 5 4 7 9 3 15 -9 202 85 195 97 -4 7 -2 8 5
4 6 -4 39 11 74 33 34 23 67 41 73 41 5 0 23 -13 39 -30z"/>
<path d="M389 2621 c-45 -28 -151 -74 -201 -86 -16 -4 -26 -11 -23 -15 2 -4
-8 -5 -23 -4 -15 2 -21 1 -13 -2 10 -5 6 -10 -15 -20 -52 -23 -6 -15 88 16 91
29 194 82 233 121 28 28 6 23 -46 -10z"/>
<path d="M1339 2610 c35 -30 68 -35 120 -17 l46 16 -50 -3 c-27 -2 -65 3 -84
10 -47 20 -60 17 -32 -6z"/>
<path d="M1905 2604 c-27 -9 -30 -12 -10 -8 17 4 53 10 80 14 48 7 49 8 10 8
-22 0 -58 -6 -80 -14z"/>
<path d="M885 2574 c16 -8 37 -21 45 -28 28 -23 91 -56 108 -56 9 0 -21 23
-68 50 -47 28 -92 50 -100 50 -8 0 -2 -7 15 -16z"/>
<path d="M1118 2571 c24 -21 111 -52 141 -50 9 0 -12 8 -46 18 -34 10 -74 26
-90 35 l-28 17 23 -20z"/>
<path d="M2406 2550 c-44 -22 -66 -39 -66 -51 0 -5 16 3 36 16 20 14 48 25 61
25 14 0 21 4 18 10 -3 6 -2 10 4 10 15 0 24 -45 17 -75 -9 -37 -29 -32 -21 5
5 25 3 30 -12 30 -10 0 -31 -9 -47 -20 l-30 -19 30 -12 c16 -6 48 -11 72 -11
30 0 42 -4 42 -14 0 -10 -14 -14 -51 -14 -43 0 -50 -3 -45 -16 3 -9 6 -18 6
-20 0 -3 5 -2 10 1 6 4 25 8 43 11 18 2 39 14 49 26 16 22 16 23 -3 30 -23 9
-34 32 -23 49 5 9 10 9 18 -2 6 -8 41 -38 78 -67 80 -63 173 -163 236 -252 57
-81 61 -86 58 -68 -4 31 -126 185 -198 250 -153 139 -222 198 -232 198 -6 -1
-28 -9 -50 -20z"/>
<path d="M2302 2525 c-5 -22 -13 -72 -16 -112 l-6 -72 51 -52 51 -52 -30 49
c-16 27 -32 66 -35 87 -5 30 5 16 49 -69 30 -58 54 -111 54 -118 0 -7 11 -34
24 -62 13 -27 28 -65 34 -84 25 -77 42 -136 46 -160 2 -14 11 -41 20 -60 9
-20 13 -24 10 -10 -43 167 -68 248 -93 305 -17 38 -30 70 -28 71 7 7 78 -126
97 -181 20 -58 46 -182 42 -198 -2 -5 3 -7 10 -4 7 2 13 16 13 30 -1 15 3 27
7 27 4 0 8 -9 8 -20 0 -11 5 -20 10 -20 18 0 11 -29 -10 -42 -11 -7 -20 -16
-20 -21 0 -4 5 -5 10 -2 6 4 9 1 8 -7 -2 -7 3 -12 9 -11 7 2 12 0 12 -5 -3
-19 2 -33 11 -27 9 6 14 -8 11 -27 0 -5 4 -8 9 -8 19 0 -3 -26 -77 -89 -39
-35 -74 -70 -78 -79 -5 -13 -1 -12 17 4 13 10 27 25 31 32 4 6 14 12 21 12 7
0 21 9 31 20 23 25 37 25 53 0 14 -23 50 -40 70 -33 19 8 14 22 -7 16 -13 -3
-24 5 -38 29 -20 34 -24 55 -10 50 5 -1 6 2 3 7 -4 5 -2 12 3 16 6 3 -3 27
-19 56 -17 27 -30 54 -30 59 0 19 21 10 29 -12 5 -13 20 -39 33 -58 43 -63 92
-219 81 -260 -6 -23 -31 -27 -39 -5 -4 8 -10 12 -15 9 -5 -3 -9 -1 -9 4 0 5
-10 14 -22 20 -13 6 -47 25 -75 42 -82 48 -62 20 43 -61 53 -40 113 -93 134
-116 25 -29 37 -37 36 -26 0 10 -6 23 -13 28 -19 16 -31 79 -26 129 4 31 0 62
-12 94 -33 89 -77 187 -92 204 -9 10 -12 25 -8 38 7 21 7 21 27 -7 24 -33 85
-66 91 -49 3 7 12 3 22 -9 15 -18 16 -18 11 -1 -5 15 -2 18 18 14 14 -3 30 -1
38 3 7 4 18 3 24 -2 8 -6 14 -5 18 6 3 8 14 15 25 15 34 0 51 12 51 35 l0 22
-87 -18 c-49 -10 -109 -18 -134 -19 -43 0 -49 3 -92 53 -78 89 -155 203 -208
310 -28 56 -55 105 -60 108 -12 7 -80 121 -76 125 2 2 20 -24 40 -58 20 -35
37 -59 37 -55 0 12 -25 58 -65 117 -32 49 -35 60 -30 100 4 25 12 52 18 60 10
13 10 13 -5 2 -13 -10 -17 -10 -21 0 -2 7 -9 -5 -15 -27z m308 -621 c32 -48
46 -62 52 -52 6 8 7 4 2 -12 -7 -27 -12 -36 -17 -29 -11 15 -87 149 -87 153 0
14 10 2 50 -60z"/>
<path d="M760 2531 c0 -6 5 -13 11 -16 6 -4 8 -13 5 -20 -7 -19 108 -132 178
-175 31 -19 97 -61 146 -93 80 -51 92 -56 105 -43 20 20 19 29 -3 15 -14 -9
-33 -2 -102 42 -222 137 -257 166 -302 246 -30 52 -38 62 -38 44z"/>
<path d="M1671 2504 c-1 -7 -34 -10 -98 -9 l-98 2 57 -15 c50 -12 69 -12 155
1 69 11 82 15 45 14 -28 -1 -54 3 -56 8 -3 6 -5 6 -5 -1z"/>
<path d="M1053 2482 c-6 -4 14 -8 45 -8 44 -1 50 0 27 6 -41 10 -58 11 -72 2z"/>
<path d="M404 2455 c-23 -17 -38 -19 -28 -4 4 7 -6 5 -22 -3 -16 -9 -55 -23
-86 -32 -68 -20 -166 -83 -225 -146 -77 -81 -47 -80 36 1 87 84 147 118 256
145 39 10 79 26 90 36 23 22 7 24 -21 3z"/>
<path d="M2368 2454 c-10 -9 3 -40 22 -52 17 -10 18 -9 9 21 -5 17 -9 33 -9
34 0 5 -17 3 -22 -3z"/>
<path d="M2728 2371 c66 -63 94 -82 51 -34 -32 35 -78 76 -98 86 -9 5 13 -19
47 -52z"/>
<path d="M679 2387 c-27 -10 -59 -63 -59 -97 0 -52 100 -115 238 -151 78 -20
179 -31 165 -19 -13 12 -74 30 -100 30 -36 0 -152 37 -197 63 -22 12 -48 34
-59 49 -18 24 -18 30 -6 70 10 32 20 44 37 46 12 2 22 8 22 13 0 11 -6 10 -41
-4z"/>
<path d="M321 2365 c-19 -14 -40 -27 -45 -29 -12 -5 12 -26 31 -26 6 0 26 18
43 40 36 45 23 52 -29 15z"/>
<path d="M720 2358 c0 -24 51 -65 135 -107 85 -44 95 -47 95 -31 0 6 -7 10
-16 10 -9 0 -33 13 -53 29 -20 15 -49 36 -66 45 -16 9 -45 28 -62 42 -23 19
-33 22 -33 12z"/>
<path d="M2472 2253 c18 -34 34 -60 36 -58 5 4 -33 76 -52 100 -9 11 -2 -8 16
-42z"/>
<path d="M434 2260 c-37 -56 -25 -60 15 -5 18 25 28 45 22 45 -6 0 -23 -18
-37 -40z"/>
<path d="M562 2219 c18 -7 31 -22 39 -47 6 -20 14 -41 17 -47 3 -5 6 -20 6
-34 1 -13 8 -26 16 -29 13 -5 13 -3 1 12 -8 9 -10 20 -6 24 4 4 10 1 12 -6 3
-6 9 -10 14 -6 11 6 -8 44 -30 60 -8 7 -20 27 -26 45 -9 27 -17 34 -41 36
l-29 2 27 -10z"/>
<path d="M367 2177 c-15 -25 -27 -50 -27 -56 0 -6 -4 -19 -10 -29 -5 -9 -28
-55 -50 -102 -23 -47 -49 -91 -58 -98 -16 -13 -16 -14 1 -10 21 4 25 10 112
187 65 132 84 198 32 108z"/>
<path d="M560 2181 c0 -6 5 -13 10 -16 12 -8 2 -54 -16 -76 -8 -8 -14 -21 -14
-27 0 -15 -100 -165 -107 -158 -3 3 5 22 18 43 l23 38 -36 -39 c-20 -21 -41
-35 -47 -31 -6 3 -11 3 -11 -2 0 -18 17 -31 46 -37 26 -6 40 0 98 44 38 27 76
50 85 50 9 0 60 -42 114 -94 53 -51 97 -88 97 -81 0 6 -59 69 -132 138 -121
117 -130 128 -116 145 21 24 28 60 18 88 -9 23 -30 34 -30 15z"/>
<path d="M2520 2172 c0 -7 11 -33 24 -57 14 -24 22 -46 19 -49 -4 -3 -1 -6 5
-6 7 0 12 -10 12 -22 0 -15 3 -19 10 -12 8 8 -1 33 -29 85 -23 41 -41 68 -41
61z"/>
<path d="M480 2133 c0 -15 -2 -15 -9 -4 -8 12 -13 12 -35 -3 -14 -9 -26 -24
-26 -34 0 -20 18 -42 34 -42 6 0 3 5 -6 11 -19 11 -24 44 -9 53 5 4 17 3 26 0
12 -5 15 -15 11 -43 l-4 -35 19 24 c20 27 25 45 9 35 -12 -8 -13 -3 0 29 6 17
6 26 0 26 -6 0 -10 -8 -10 -17z"/>
<path d="M2174 2120 c3 -14 6 -30 6 -37 0 -7 14 -25 32 -42 23 -22 39 -28 61
-25 49 6 101 65 77 88 -8 8 -10 7 -5 -5 7 -19 -40 -69 -64 -69 -23 0 -82 50
-98 84 -11 25 -13 26 -9 6z"/>
<path d="M2400 2137 c0 -5 11 -32 23 -60 13 -29 34 -87 47 -129 13 -43 28 -78
33 -78 5 0 6 8 2 18 -20 50 -45 127 -45 141 0 16 -60 123 -60 108z"/>
<path d="M2083 2103 c-22 -8 -14 -23 10 -20 18 2 22 -3 22 -25 -1 -28 9 -36
20 -18 16 26 -23 73 -52 63z"/>
<path d="M1216 2033 c-4 -37 -9 -81 -11 -98 -5 -27 -4 -28 5 -7 5 13 13 21 18
18 4 -2 8 6 8 19 0 13 -4 21 -8 19 -4 -3 -8 2 -8 11 0 9 5 13 11 9 8 -5 10 7
6 41 -4 26 -8 49 -10 52 -3 2 -8 -27 -11 -64z"/>
<path d="M2276 2084 c-3 -9 2 -14 13 -14 10 0 24 6 30 14 9 11 7 14 -13 14
-14 0 -27 -7 -30 -14z"/>
<path d="M2911 2070 c52 -77 89 -121 89 -106 0 8 -21 39 -46 68 -63 72 -71 79
-43 38z"/>
<path d="M1182 1984 c-6 -50 -12 -108 -12 -128 0 -28 -4 -36 -17 -36 -13 0
-14 -3 -6 -8 9 -6 10 -17 4 -40 -11 -37 -5 -43 9 -9 6 16 9 17 9 5 1 -29 -18
-68 -33 -68 -8 0 -18 -4 -21 -10 -4 -6 5 -9 20 -8 20 2 27 10 35 40 6 20 8 50
4 65 -4 23 -3 25 6 13 10 -13 11 -13 7 1 -3 9 -1 65 4 124 13 138 7 176 -9 59z"/>
<path d="M637 2038 c5 -10 54 -64 111 -121 56 -57 102 -111 102 -119 0 -8 -7
-23 -15 -34 -23 -31 -17 -47 8 -22 13 13 21 24 17 26 -5 2 -6 12 -3 23 4 13
-3 29 -17 44 -13 14 -20 28 -17 32 10 10 -33 52 -47 47 -15 -6 -61 42 -61 64
0 10 -8 17 -19 17 -10 0 -29 14 -43 30 -14 17 -21 22 -16 13z"/>
<path d="M2140 2022 c0 -7 -28 -32 -62 -57 -34 -25 -69 -55 -79 -66 -11 -12
-23 -18 -30 -13 -7 4 -9 3 -6 -3 4 -6 -2 -18 -13 -28 -12 -10 -20 -13 -20 -7
0 7 5 12 12 12 6 0 9 3 5 6 -6 6 -66 -27 -94 -51 -35 -30 -41 -33 -46 -29 -3
3 -40 -6 -82 -21 -75 -26 -136 -27 -151 -3 -7 11 27 39 38 32 5 -3 8 0 8 5 0
6 23 22 50 36 28 14 50 29 50 34 0 5 -24 -5 -54 -22 -30 -18 -68 -39 -84 -49
-32 -17 -60 -84 -43 -101 4 -4 11 6 15 24 6 30 7 31 19 15 25 -34 95 -32 199
4 121 42 182 77 243 139 27 28 64 56 82 62 18 6 34 16 35 22 0 7 2 17 2 22 1
6 5 16 10 23 4 7 5 16 2 19 -3 4 -6 1 -6 -5z"/>
<path d="M2600 2020 c0 -5 16 -28 36 -50 20 -21 33 -44 30 -49 -4 -6 3 -15 14
-21 11 -6 20 -15 20 -21 0 -12 51 -58 64 -59 6 0 0 9 -12 20 -12 11 -39 46
-61 78 -21 32 -46 64 -55 71 -9 7 -16 20 -16 27 0 8 -4 14 -10 14 -5 0 -10 -4
-10 -10z"/>
<path d="M1901 1919 c-124 -86 -146 -98 -158 -86 -12 12 -10 16 20 30 19 9 40
24 48 33 12 15 -36 -11 -126 -68 -46 -29 -74 -58 -56 -58 6 0 14 7 18 16 3 8
12 13 20 10 8 -3 11 -1 8 4 -11 18 40 34 64 20 19 -10 27 -8 56 14 19 14 37
26 40 26 4 0 24 13 44 28 59 46 169 112 186 112 9 0 13 5 10 10 -12 19 -30 9
-174 -91z"/>
<path d="M1827 1979 c-15 -11 -26 -25 -24 -31 1 -6 -4 -13 -12 -16 -8 -2 -11
0 -7 6 3 6 -7 4 -24 -4 -16 -9 -32 -19 -35 -25 -10 -15 22 -10 38 6 8 8 17 11
21 8 8 -8 37 17 31 27 -3 5 7 18 22 29 16 11 25 21 22 21 -4 0 -18 -9 -32 -21z"/>
<path d="M2782 1944 c-11 -12 -9 -14 7 -14 11 0 26 -3 35 -6 25 -10 19 12 -7
23 -16 8 -25 7 -35 -3z"/>
<path d="M7 1943 c-13 -12 -7 -41 9 -47 27 -10 52 -7 57 9 7 17 -9 30 -18 15
-9 -15 -45 -12 -45 4 0 8 6 17 13 19 6 3 7 6 1 6 -6 1 -14 -2 -17 -6z"/>
<path d="M2750 1932 c0 -15 56 -72 72 -72 8 0 23 9 33 20 21 23 16 25 -19 9
-21 -10 -28 -8 -55 20 -17 17 -31 28 -31 23z"/>
<path d="M2870 1844 c-47 -14 -67 -22 -45 -20 49 7 131 29 141 39 10 10 0 8
-96 -19z"/>
<path d="M2523 1768 c2 -16 0 -28 -5 -28 -5 0 -6 -4 -3 -10 3 -5 11 -10 16
-10 6 0 8 4 5 9 -4 5 -2 11 3 13 5 1 3 14 -5 28 l-15 25 4 -27z"/>
<path d="M840 1723 c0 -10 43 -33 60 -33 6 0 10 7 10 15 0 8 -9 15 -19 15 -11
0 -26 3 -35 6 -9 3 -16 2 -16 -3z"/>
<path d="M929 1707 c14 -17 -2 -33 -39 -39 l-25 -4 27 -8 c16 -5 35 -6 43 -2
20 7 19 52 -1 60 -14 5 -15 4 -5 -7z"/>
<path d="M1178 1702 c-4 -12 -3 -22 1 -22 4 0 17 -9 29 -20 12 -12 23 -16 27
-10 3 6 1 10 -4 10 -6 0 -10 3 -10 8 3 19 -2 32 -12 32 -8 0 -7 -6 2 -17 11
-13 11 -15 1 -9 -7 4 -17 17 -21 29 -8 20 -8 20 -13 -1z"/>
<path d="M803 1678 c1 -20 4 -35 5 -33 2 2 12 -4 23 -13 56 -49 53 -48 92 -37
20 6 44 20 53 33 12 17 19 20 33 12 10 -5 21 -6 25 -3 3 3 6 -1 6 -9 0 -21
-31 -32 -42 -16 -6 10 -8 9 -8 -3 0 -8 -35 -40 -77 -69 -43 -30 -122 -94 -175
-142 -61 -55 -105 -88 -120 -89 -21 0 -22 -1 -3 -8 19 -8 54 19 200 152 36 34
227 157 234 152 4 -2 8 1 9 8 0 7 4 22 7 35 6 17 3 22 -9 22 -9 0 -19 7 -22
15 -5 12 -10 13 -20 5 -7 -7 -10 -18 -7 -26 3 -10 0 -12 -10 -8 -9 3 -21 -3
-30 -16 -8 -11 -28 -24 -44 -29 -32 -9 -43 0 -103 79 l-19 25 2 -37z"/>
<path d="M2730 1706 c0 -10 78 -43 120 -51 33 -7 34 -6 15 9 -18 14 -16 14 30
1 28 -8 61 -17 75 -20 21 -4 21 -3 -5 9 -17 8 -67 22 -110 31 -44 9 -90 19
-102 22 -13 3 -23 2 -23 -1z"/>
<path d="M1481 1689 c-13 -5 -35 -10 -48 -11 -14 -2 -29 -11 -35 -21 -8 -16
-7 -18 9 -14 52 15 85 18 97 8 10 -8 18 -6 32 10 l19 21 -35 -7 c-31 -7 -33
-6 -21 9 15 18 15 18 -18 5z"/>
<path d="M2510 1677 c0 -14 28 -52 39 -55 7 -1 10 2 7 7 -4 5 0 11 6 14 9 3
10 8 3 15 -11 11 -55 26 -55 19z"/>
<path d="M1241 1640 c-12 -17 -17 -30 -12 -30 5 0 12 4 16 10 7 12 19 7 145
-64 58 -33 149 -94 204 -137 54 -44 103 -76 109 -72 10 6 -3 16 -18 14 -3 -1
-16 9 -28 22 -12 13 -32 29 -45 36 -13 7 -20 17 -16 23 5 7 1 9 -9 5 -10 -4
-17 -1 -17 6 0 7 -50 41 -110 76 -65 38 -110 70 -111 80 0 10 -2 11 -6 4 -6
-17 -44 2 -39 20 1 6 1 9 -1 5 -3 -5 -14 -8 -25 -8 -16 0 -18 3 -9 14 7 8 8
17 3 20 -5 3 -19 -8 -31 -24z"/>
<path d="M1516 1624 c-45 -38 -55 -40 -98 -18 -23 12 -29 13 -26 2 3 -7 26
-17 52 -22 46 -9 48 -9 84 27 47 47 39 55 -12 11z"/>
<path d="M2939 1624 c19 -8 42 -13 50 -11 21 5 -32 27 -62 27 -17 -1 -15 -4
12 -16z"/>
<path d="M145 1618 c-4 -10 -12 -15 -17 -12 -6 4 -5 -3 1 -15 14 -25 23 -28
15 -3 -4 11 1 9 16 -8 12 -14 19 -19 15 -12 -4 8 -11 26 -15 40 -6 23 -9 24
-15 10z"/>
<path d="M1115 1604 c-16 -14 -91 -65 -165 -113 -74 -49 -175 -123 -225 -165
-81 -71 -92 -77 -125 -73 -33 4 -40 -1 -111 -74 -52 -55 -83 -79 -100 -80
l-24 0 23 -9 c12 -5 22 -14 22 -20 0 -5 7 -10 16 -10 11 0 14 5 10 16 -5 12
-2 15 10 10 12 -5 14 -1 9 17 -5 14 -4 19 3 12 14 -15 102 -187 102 -200 0 -7
-9 -22 -20 -35 -31 -36 -15 -35 19 1 25 26 31 28 31 13 0 -14 3 -15 12 -6 8 8
8 15 -3 28 -7 9 -35 59 -61 112 l-48 96 50 48 c53 51 66 56 94 35 16 -12 17
-17 6 -38 -12 -22 -10 -21 14 5 21 22 25 31 15 40 -9 8 -10 8 -5 -1 4 -7 3
-13 -2 -13 -5 0 -12 8 -15 19 -3 14 0 17 14 14 13 -4 37 11 75 46 55 51 81 64
71 36 -4 -8 31 23 76 69 77 77 203 174 213 163 3 -3 -49 -53 -115 -111 -92
-82 -129 -122 -155 -169 -35 -63 -62 -164 -53 -197 3 -11 0 -21 -5 -22 -6 -2
-14 -79 -19 -183 -5 -98 -11 -180 -13 -182 -2 -2 -16 26 -32 61 -15 35 -36 69
-45 75 -16 9 -17 8 -5 -17 40 -88 82 -162 93 -162 7 0 51 20 100 45 56 29 89
41 94 34 3 -6 8 1 11 15 4 22 3 24 -13 16 -23 -13 -32 -13 -24 0 4 6 -14 0
-39 -12 -25 -12 -44 -24 -42 -26 2 -2 18 4 35 13 17 8 31 13 31 11 0 -10 -59
-36 -94 -41 -28 -5 -37 -2 -46 15 -6 12 -9 28 -6 35 2 7 8 67 11 132 7 128 39
277 78 364 24 53 110 161 151 188 12 8 45 37 74 65 28 28 52 47 52 42 0 -23
-61 -118 -114 -179 -32 -37 -57 -70 -54 -72 7 -7 143 153 163 191 8 16 15 41
15 56 0 15 5 30 11 33 7 5 8 -6 5 -32 -6 -35 -5 -36 5 -10 6 15 15 27 21 27 6
0 35 -14 64 -31 50 -28 70 -29 42 -1 -9 9 -9 12 0 12 7 0 15 -7 18 -15 4 -8
17 -15 30 -15 13 0 24 -4 24 -10 0 -13 52 -38 68 -33 6 3 12 -3 13 -14 0 -10
3 -13 5 -6 4 9 11 9 29 1 14 -6 23 -14 20 -17 -2 -4 5 -13 17 -20 13 -8 18 -9
13 -1 -4 6 15 -5 41 -25 27 -21 51 -41 52 -46 2 -5 8 -9 14 -9 10 0 103 -74
178 -141 35 -31 104 -79 115 -79 4 0 3 4 0 10 -3 6 1 7 9 4 9 -3 14 -10 11
-14 -6 -9 76 -3 122 9 31 9 31 8 23 -15 -5 -13 -8 -24 -6 -24 6 0 -105 -224
-114 -230 -4 -3 -24 -43 -45 -90 -20 -47 -57 -125 -80 -175 -50 -106 -57 -125
-47 -125 5 0 36 57 69 128 33 70 102 213 152 317 50 105 94 205 97 223 5 22
15 37 29 42 13 5 26 14 30 20 4 6 18 9 30 6 20 -5 24 -1 30 24 4 17 10 30 15
30 5 0 15 6 22 13 7 7 30 25 50 41 34 25 43 27 90 22 60 -8 47 7 -16 18 l-39
7 34 31 c29 26 30 28 6 14 -15 -9 -45 -36 -68 -61 -22 -24 -76 -67 -120 -95
-43 -28 -79 -54 -79 -58 0 -13 -45 -35 -96 -47 -57 -14 -111 -1 -170 39 -75
50 -223 180 -217 189 3 6 2 7 -4 4 -13 -8 -48 17 -48 35 0 7 -9 13 -20 13 -11
0 -20 7 -20 15 0 8 -8 14 -17 12 -9 -1 -20 3 -24 9 -5 8 -3 9 6 4 9 -5 11 -4
6 4 -4 6 -11 9 -16 6 -5 -3 -27 6 -49 19 -78 50 -232 126 -253 126 -12 0 -29
6 -37 14 -14 13 -20 11 -46 -10z"/>
<path d="M2851 1603 c-16 -40 -31 -130 -25 -147 7 -19 31 -10 37 14 3 14 1 17
-11 13 -13 -5 -14 0 -8 37 9 54 28 96 44 93 7 -2 12 2 12 7 0 22 -38 9 -49
-17z"/>
<path d="M2448 1556 c-8 -7 -24 -17 -36 -20 -24 -8 -51 -46 -32 -46 5 0 10 5
10 10 0 6 6 10 13 10 16 1 86 59 70 60 -6 0 -18 -6 -25 -14z"/>
<path d="M2990 1564 c0 -5 -22 -35 -48 -66 -92 -111 -112 -137 -112 -149 0 -7
12 4 28 24 15 20 53 70 86 112 32 42 56 79 52 82 -3 4 -6 2 -6 -3z"/>
<path d="M2440 1475 c-19 -14 -41 -23 -50 -20 -14 4 -47 -31 -37 -41 2 -2 23
6 48 18 24 12 49 21 54 19 6 -1 7 1 2 5 -4 4 0 16 10 26 21 24 15 22 -27 -7z"/>
<path d="M190 1488 c0 -19 34 -76 43 -71 5 3 7 -3 4 -13 -3 -11 3 -35 13 -54
23 -42 27 -32 4 11 -8 17 -14 33 -11 35 8 8 39 -74 33 -85 -4 -7 -1 -8 8 -5 9
3 16 8 16 10 0 13 -89 176 -90 164 0 -13 -1 -13 -10 0 -5 8 -10 12 -10 8z"/>
<path d="M180 1420 c0 -7 -7 -9 -16 -6 -24 9 -35 -3 -23 -25 7 -14 16 -18 30
-14 14 5 22 -1 31 -22 7 -15 23 -42 35 -59 34 -46 17 -48 -24 -3 -19 21 -39
39 -43 39 -4 0 -34 -12 -66 -26 -49 -22 -56 -28 -39 -34 13 -4 34 0 57 12 45
23 63 16 125 -48 33 -35 43 -53 48 -91 5 -42 14 -95 31 -183 3 -14 12 -47 20
-75 9 -27 18 -66 21 -85 3 -19 8 -54 13 -78 4 -25 4 -45 -2 -48 -5 -3 -7 -12
-4 -20 7 -17 -13 -18 -51 -2 -80 33 -231 108 -241 121 -12 14 -1 67 20 94 5 7
8 34 7 60 -1 27 0 53 3 59 3 5 -21 60 -53 121 -72 137 -80 109 -14 -42 12 -27
28 -74 35 -102 13 -49 12 -56 -8 -96 -12 -25 -22 -49 -22 -55 0 -27 -22 -20
-35 10 -11 25 -14 28 -15 12 -1 -54 93 -117 276 -184 60 -22 117 -44 126 -50
10 -5 19 -10 21 -10 3 0 7 35 11 77 7 78 19 112 42 126 17 10 19 50 2 45 -32
-11 -51 -58 -56 -139 -6 -103 -26 -82 -23 25 2 55 -5 94 -29 170 -30 100 -53
212 -49 250 3 28 -10 56 -70 158 -28 48 -51 93 -51 102 0 8 -4 18 -10 21 -5 3
-10 1 -10 -5z"/>
<path d="M55 1376 c-16 -13 -27 -28 -23 -32 9 -8 35 12 49 38 13 23 10 23 -26
-6z"/>
<path d="M1110 1378 c0 -15 -4 -28 -8 -30 -5 -1 -5 -14 -1 -28 5 -17 7 -19 8
-7 1 10 5 16 10 13 5 -3 7 11 4 32 -6 45 -13 55 -13 20z"/>
<path d="M2271 1322 c-36 -36 -51 -56 -35 -45 28 20 65 59 93 96 24 31 7 16
-58 -51z"/>
<path d="M0 1314 c0 -29 52 -124 96 -177 32 -38 30 -27 -3 26 -15 23 -39 70
-53 105 -32 75 -40 84 -40 46z"/>
<path d="M2207 1315 c-9 -8 -23 -15 -31 -15 -9 0 -16 -5 -16 -11 0 -7 7 -8 18
-4 9 4 22 8 29 8 7 0 10 4 7 8 -2 4 2 9 8 12 7 2 10 7 7 11 -4 4 -14 0 -22 -9z"/>
<path d="M537 1285 c-8 -8 -17 -11 -21 -8 -3 3 -8 -2 -12 -11 -3 -9 -15 -16
-25 -16 -12 0 -16 -5 -13 -14 4 -9 -9 -24 -35 -42 -23 -15 -41 -31 -41 -36 0
-6 -6 -8 -14 -5 -10 4 -12 0 -9 -14 3 -10 12 -19 20 -19 8 0 12 4 9 9 -3 5 15
25 41 45 25 20 43 36 39 36 -4 0 7 12 26 28 18 15 34 30 36 34 2 4 10 4 18 1
8 -3 14 1 14 11 0 20 -14 21 -33 1z"/>
<path d="M1098 1283 c0 -5 -2 -20 -3 -35 -3 -41 12 -34 17 7 2 19 0 35 -4 35
-4 0 -9 -3 -10 -7z"/>
<path d="M2505 1270 c33 -11 65 -19 70 -19 17 1 -89 37 -110 38 -11 0 7 -9 40
-19z"/>
<path d="M1850 1234 c-10 -11 -9 -14 4 -14 10 0 14 -4 11 -10 -4 -6 1 -7 12
-3 10 3 15 3 11 -2 -4 -4 12 -18 37 -31 50 -27 74 -31 51 -9 -8 8 -20 15 -26
15 -6 0 -8 4 -5 10 3 6 -1 7 -10 4 -10 -4 -15 -2 -13 7 2 8 -7 15 -20 17 -12
2 -20 7 -17 12 9 15 -23 19 -35 4z"/>
<path d="M2105 1231 c-3 -6 -11 -9 -16 -6 -10 7 -64 -43 -55 -52 4 -5 38 17
85 54 2 2 2 6 -1 9 -3 3 -9 0 -13 -5z"/>
<path d="M1089 1153 c-3 -57 0 -166 5 -171 3 -3 6 38 6 91 0 53 -2 97 -5 97
-3 0 -5 -8 -6 -17z"/>
<path d="M2434 1104 c37 -19 70 -33 73 -30 6 5 -122 67 -135 66 -4 -1 24 -17
62 -36z"/>
<path d="M2091 1012 c-14 -31 -35 -74 -48 -94 -13 -21 -23 -42 -23 -46 0 -5
26 -12 58 -15 80 -9 203 -49 296 -97 43 -22 74 -34 67 -27 -26 32 -180 98
-288 124 -62 15 -113 30 -113 33 0 3 4 11 9 19 7 11 32 6 136 -23 128 -36 154
-48 250 -113 l50 -34 -39 35 c-54 49 -186 110 -284 131 -46 10 -85 22 -88 26
-3 5 7 34 21 65 14 31 25 60 23 64 -2 5 -14 -17 -27 -48z"/>
<path d="M2 960 c-1 -90 0 -94 14 -67 8 15 11 33 7 40 -4 6 -11 37 -14 67 -5
46 -6 40 -7 -40z"/>
<path d="M444 1037 c-3 -10 -4 -21 0 -24 3 -4 6 0 7 8 1 8 5 3 9 -11 l8 -25 1
25 c1 20 3 22 12 10 7 -10 9 -11 7 -2 -2 8 -7 13 -12 12 -5 -1 -12 4 -17 11
-6 10 -9 9 -15 -4z"/>
<path d="M2625 1015 c73 -36 80 -38 66 -21 -16 19 -74 46 -98 46 -10 0 5 -12
32 -25z"/>
<path d="M1092 876 c-1 -33 -8 -53 -19 -63 -10 -8 -12 -12 -5 -8 6 3 12 2 12
-3 0 -15 -56 -35 -78 -28 -15 5 -21 1 -26 -16 -12 -46 -6 -50 28 -20 35 31 73
48 83 38 3 -3 -10 -12 -28 -20 l-34 -15 35 6 c19 3 37 8 41 12 3 3 2 42 -1 86
-5 60 -7 68 -8 31z"/>
<path d="M2776 850 c-11 -36 -20 -87 -21 -115 l-2 -50 24 70 c15 43 23 87 21
115 l-3 45 -19 -65z"/>
<path d="M2820 909 c0 -4 7 -26 15 -49 8 -23 15 -66 15 -94 0 -30 4 -46 9 -38
6 10 10 10 21 -3 7 -8 9 -15 5 -15 -4 0 -2 -7 5 -15 6 -8 9 -23 5 -36 -4 -12
-3 -19 1 -16 5 3 10 -23 12 -56 3 -69 26 -162 44 -173 7 -5 8 -3 3 6 -6 10 -4
12 7 7 12 -4 14 0 10 16 -2 12 -9 27 -13 33 -5 5 -13 44 -20 85 -6 40 -21 108
-34 149 -13 41 -26 91 -29 110 -5 29 -55 109 -56 89z"/>
<path d="M518 823 c28 -39 28 -43 -2 -43 -26 0 -30 -9 -41 -105 -3 -27 -8 -65
-11 -83 -5 -31 -4 -33 15 -22 14 7 21 21 21 40 0 37 27 120 47 142 11 12 13
26 8 45 l-7 28 26 -24 c15 -14 37 -48 50 -75 19 -39 25 -45 25 -28 1 13 -9 38
-21 55 -13 18 -21 44 -21 64 1 32 -10 43 -22 23 -8 -12 -55 -10 -75 4 -8 6 -4
-3 8 -21z"/>
<path d="M2002 821 c-13 -9 -44 -72 -38 -78 2 -3 12 9 21 26 13 27 20 30 43
25 15 -4 29 -8 31 -10 2 -2 12 1 21 6 12 6 37 5 74 -5 80 -21 92 -17 21 6 -67
23 -160 39 -173 30z"/>
<path d="M1123 813 c-18 -7 -16 -23 3 -23 11 0 15 -6 11 -20 -6 -25 28 -29 37
-4 3 8 2 13 -2 11 -9 -5 -42 30 -34 37 6 7 2 7 -15 -1z"/>
<path d="M1229 774 c18 -13 20 -18 10 -25 -19 -12 -15 -14 97 -43 121 -31 123
-31 121 -6 -1 21 -12 26 -22 10 -3 -5 -13 -10 -22 -10 -13 0 -13 3 -3 15 15
18 5 34 -11 18 -6 -6 -24 -8 -44 -3 -19 4 -36 6 -38 4 -2 -3 -10 2 -17 11 -7
8 -17 15 -22 15 -5 0 -16 7 -24 15 -9 8 -23 15 -32 15 -13 0 -11 -4 7 -16z"/>
<path d="M2244 762 c3 -6 31 -18 61 -27 30 -10 55 -22 55 -26 0 -5 5 -9 12 -9
6 0 49 -25 95 -56 92 -63 183 -153 183 -181 -1 -16 -29 -152 -45 -213 -5 -18
-4 -21 3 -10 19 28 64 221 58 244 -8 32 -83 107 -158 157 -86 59 -281 148
-264 121z"/>
<path d="M596 718 c10 -34 35 -80 40 -75 5 5 -35 97 -42 97 -3 0 -2 -10 2 -22z"/>
<path d="M1482 718 c14 -22 83 -67 101 -68 5 0 2 7 -7 15 -8 8 -21 15 -28 15
-7 1 -24 14 -38 30 -28 35 -49 40 -28 8z"/>
<path d="M1040 710 c-30 -11 -67 -19 -82 -20 -15 0 -62 -18 -106 -39 -43 -22
-91 -43 -105 -47 -15 -3 -32 -15 -38 -26 -8 -16 -6 -23 15 -39 25 -20 26 -25
26 -120 0 -59 4 -99 10 -99 10 0 16 65 12 124 -2 26 0 28 28 24 16 -2 31 0 33
6 2 6 35 11 78 12 98 2 179 13 179 26 0 6 -6 8 -14 5 -7 -3 -19 0 -25 6 -8 8
-11 8 -11 -1 0 -9 -29 -12 -101 -12 -56 0 -98 -4 -95 -9 11 -17 -46 -23 -62
-7 -13 13 -13 17 -1 32 12 16 12 17 -5 11 -15 -6 -17 -5 -7 7 6 7 8 22 4 31
-4 12 -3 16 5 11 14 -8 64 3 57 14 -3 4 17 16 45 26 27 10 47 22 44 28 -3 6 2
2 10 -8 9 -11 16 -15 16 -8 0 6 12 11 28 10 15 -1 41 2 57 7 17 4 27 5 23 1
-3 -4 -28 -14 -55 -22 -46 -13 -46 -13 -8 -8 22 2 50 6 61 7 15 1 21 8 19 20
-2 10 2 17 11 17 8 0 12 -5 9 -11 -4 -6 2 -5 13 2 18 12 24 10 45 -13 13 -14
35 -29 48 -33 13 -4 33 -16 45 -27 12 -10 45 -28 75 -39 l54 -19 -30 25 c-16
13 -42 27 -56 30 -15 3 -34 14 -44 25 -9 10 -29 24 -45 30 -27 11 -49 45 -37
56 3 3 38 -4 78 -16 40 -12 83 -24 96 -26 12 -2 34 -9 48 -14 15 -6 45 -10 69
-10 23 0 47 -5 54 -12 7 -7 12 -8 12 -4 0 5 6 3 14 -3 11 -9 16 -9 22 1 4 7 4
10 -1 6 -4 -4 -20 1 -34 11 -14 9 -53 23 -86 30 -33 8 -105 26 -160 42 -114
33 -135 35 -135 14 0 -8 -5 -15 -11 -15 -6 0 -9 7 -5 15 7 20 -16 19 -84 -5z"/>
<path d="M1960 721 c0 -6 11 -11 25 -11 14 0 25 -4 25 -10 0 -5 -8 -10 -17
-10 -14 0 -15 -2 -5 -9 10 -6 8 -10 -9 -14 -29 -8 -35 -2 -20 17 9 11 8 15 -4
19 -9 4 -19 -1 -25 -13 -13 -24 -13 -40 0 -20 8 13 10 13 10 -1 0 -39 70 -27
84 14 11 31 11 33 -31 42 -21 4 -33 3 -33 -4z"/>
<path d="M66 691 c10 -10 22 -17 27 -14 4 2 7 0 7 -5 0 -10 99 -46 106 -40 2
2 -33 21 -78 41 -54 25 -75 31 -62 18z"/>
<path d="M669 650 c-11 -6 -15 -18 -12 -34 6 -28 36 -61 33 -35 -4 29 0 38 16
32 12 -4 15 0 12 18 -3 26 -24 34 -49 19z"/>
<path d="M1882 574 c-34 -68 -37 -86 -5 -31 11 18 39 42 67 56 26 12 46 24 44
26 -2 1 -19 5 -38 7 -34 6 -36 5 -68 -58z"/>
<path d="M2682 615 c-7 -14 -12 -38 -11 -53 1 -20 4 -14 14 23 16 55 14 68 -3
30z"/>
<path d="M1056 603 c-14 -14 -5 -31 14 -26 11 3 20 1 20 -4 0 -6 11 -27 25
-47 14 -20 24 -40 23 -44 -4 -15 14 -52 25 -52 8 0 8 3 -1 12 -24 24 -13 53
19 50 61 -7 115 -15 163 -23 32 -6 60 -8 63 -6 2 3 -29 10 -69 16 -40 7 -95
17 -123 23 -27 6 -56 11 -62 11 -18 0 -16 12 5 33 16 17 16 18 0 11 -12 -4
-26 2 -40 16 -26 26 -53 39 -62 30z"/>
<path d="M520 597 c0 -2 33 -16 73 -32 74 -29 127 -67 127 -94 0 -8 3 -12 6
-8 4 3 4 18 0 32 -5 18 -24 34 -74 59 -61 30 -132 54 -132 43z"/>
<path d="M390 570 c0 -5 4 -10 9 -10 7 0 26 -74 37 -145 18 -122 19 -115 -7
-116 -20 -1 -18 -3 9 -10 24 -7 32 -14 28 -25 -3 -9 -6 -31 -6 -50 0 -28 -4
-34 -22 -35 l-23 0 24 -10 c22 -9 23 -12 18 -89 -3 -61 -2 -80 8 -80 9 0 14
36 19 138 6 118 4 150 -14 232 -12 52 -26 121 -33 153 -9 43 -16 57 -29 57
-10 0 -18 -4 -18 -10z"/>
<path d="M4 555 c3 -11 10 -42 15 -69 6 -33 17 -56 33 -68 57 -44 225 -109
278 -107 20 1 21 2 5 6 -88 20 -232 78 -259 106 -21 21 -35 53 -38 86 -1 18
-11 39 -21 49 -19 16 -19 16 -13 -3z"/>
<path d="M480 540 c-20 -20 -27 -50 -12 -50 4 0 13 9 20 20 20 32 52 40 92 23
60 -24 79 -49 72 -95 l-5 -40 31 16 c17 9 38 13 46 10 32 -12 14 12 -42 57
-101 81 -162 99 -202 59z"/>
<path d="M1216 541 c-6 -9 112 -36 120 -28 6 6 -47 21 -63 18 -6 -1 -14 3 -18
9 -8 12 -32 13 -39 1z"/>
<path d="M2704 490 c-6 -36 -10 -67 -8 -69 6 -7 25 82 22 107 -2 17 -7 3 -14
-38z"/>
<path d="M1030 468 c0 -5 13 -8 29 -8 16 0 36 -3 45 -6 10 -4 16 -1 16 9 0 13
-10 16 -45 14 -25 -1 -45 -5 -45 -9z"/>
<path d="M982 433 c12 -13 25 -23 30 -23 18 0 48 -36 48 -59 0 -21 3 -23 34
-18 23 4 39 1 46 -8 6 -7 23 -15 38 -18 15 -3 74 -22 130 -42 57 -20 106 -34
109 -31 9 9 -18 36 -29 30 -5 -4 -20 -2 -31 4 -12 5 -44 18 -72 27 -70 24 -91
40 -121 86 -17 28 -31 39 -44 37 -10 -2 -26 6 -35 17 -14 19 -15 19 -5 -8 13
-38 13 -44 -5 -44 -8 0 -15 9 -15 21 0 17 -2 18 -10 6 -7 -11 -11 -9 -19 12
-7 18 -19 27 -40 30 l-31 5 22 -24z m162 -50 c14 -19 16 -28 8 -31 -7 -2 -9
-9 -6 -15 4 -7 0 -5 -9 3 -18 17 -34 70 -21 70 5 0 18 -13 28 -27z"/>
<path d="M1635 441 c23 -10 96 -24 77 -15 -6 3 -10 10 -6 15 3 5 -16 9 -43 8
-35 0 -42 -3 -28 -8z"/>
<path d="M872 430 l-23 -5 21 -17 c24 -21 36 -23 43 -5 7 18 -15 34 -41 27z"/>
<path d="M1750 425 c-20 -11 -21 -15 -7 -16 19 -2 26 -3 47 -12 36 -13 307
-89 327 -90 11 -1 19 -6 15 -11 -3 -5 5 -7 16 -4 12 4 22 2 22 -2 0 -4 8 -6
18 -4 9 3 28 0 42 -5 23 -10 22 -11 -10 -6 -31 4 -32 4 -11 -5 13 -6 32 -8 42
-5 22 7 141 -34 133 -46 -3 -5 2 -6 10 -3 18 7 99 -34 91 -46 -3 -5 8 -16 25
-25 29 -15 30 -18 25 -68 -4 -45 -4 -48 5 -20 16 49 27 47 16 -2 -6 -24 -14
-41 -20 -38 -5 3 -6 1 -2 -5 13 -21 26 -13 26 16 0 15 9 44 20 65 24 44 26 58
4 31 -8 -10 -13 -13 -9 -6 10 20 14 152 4 152 -5 0 -9 -26 -9 -57 0 -72 -9
-89 -36 -68 -19 15 -19 15 1 8 18 -6 18 -5 6 10 -7 9 -29 26 -47 38 -38 23
-440 161 -534 183 -55 13 -106 29 -115 36 -5 4 -19 4 -30 0 -12 -4 -24 -2 -30
6 -8 11 -15 10 -35 -1z"/>
<path d="M963 398 c2 -7 10 -12 16 -10 18 4 2 -51 -22 -71 -11 -10 -27 -15
-34 -13 -8 3 -11 1 -8 -4 3 -5 -11 -16 -31 -25 -50 -21 -56 -18 -14 5 19 11
31 19 26 20 -5 0 -34 -14 -64 -31 -49 -28 -92 -33 -77 -10 3 5 1 12 -4 15 -5
3 -11 -4 -14 -17 -2 -12 -8 -29 -11 -39 -7 -14 -3 -15 29 -8 19 4 42 14 51 21
8 6 28 13 44 14 17 2 46 14 64 29 38 28 56 33 57 14 0 -7 7 14 15 46 12 48 12
61 2 68 -19 12 -30 10 -25 -4z"/>
<path d="M2955 380 c-21 -40 -19 -63 8 -88 30 -28 37 -28 37 2 0 16 -7 26 -22
29 -16 5 -19 9 -10 19 14 18 23 68 12 68 -5 0 -16 -13 -25 -30z"/>
<path d="M620 372 c-18 -11 -36 -25 -38 -33 -2 -10 -1 -11 5 -2 5 7 29 21 53
32 25 11 38 21 30 21 -8 0 -31 -8 -50 -18z"/>
<path d="M1710 382 c0 -4 5 -13 11 -19 8 -8 7 -30 -5 -81 -9 -39 -16 -81 -15
-94 1 -19 20 44 54 180 4 18 1 22 -20 22 -14 0 -25 -4 -25 -8z"/>
<path d="M664 349 c-63 -28 -94 -61 -133 -136 -27 -55 -29 -91 -1 -45 21 34
30 38 61 22 15 -9 19 -7 19 5 0 25 55 75 83 75 23 0 25 4 29 53 2 28 4 52 4
53 -1 1 -28 -11 -62 -27z m-28 -64 c14 -13 13 -16 -10 -25 -14 -5 -26 -14 -26
-19 0 -6 -10 -15 -21 -22 -24 -12 -23 -9 15 48 24 38 23 37 42 18z"/>
<path d="M1779 356 c0 0 -2 -27 -4 -58 -3 -32 -11 -71 -20 -87 -8 -17 -15 -34
-15 -38 0 -11 128 -46 140 -38 4 3 10 1 12 -4 5 -15 155 -60 179 -54 12 4 20
2 16 -3 -3 -5 15 -10 39 -11 24 -1 44 0 44 2 0 7 -145 46 -174 47 -17 0 -37 5
-44 11 -7 5 -15 7 -19 3 -3 -3 -14 1 -24 10 -10 9 -25 14 -33 11 -8 -3 -20 1
-27 9 -7 8 -15 11 -18 6 -3 -6 -16 -6 -28 -1 -20 7 -22 14 -18 61 2 29 4 60 5
68 1 40 15 44 77 25 32 -10 63 -22 69 -27 7 -4 37 -15 68 -23 157 -41 152 -23
-9 30 -94 31 -213 65 -216 61z"/>
<path d="M1087 296 c-6 -15 -93 -40 -108 -31 -5 4 -9 2 -9 -4 0 -5 14 -12 30
-16 17 -4 30 -10 30 -15 0 -12 -60 9 -82 28 -16 14 -18 13 -18 -4 0 -26 -80
-56 -170 -63 -68 -6 -88 -24 -32 -29 30 -3 32 -6 32 -42 0 -37 -1 -38 -25 -27
-29 14 -31 23 -7 36 19 11 21 9 -33 26 -10 3 -19 -5 -25 -21 -14 -36 -12 -54
5 -54 12 0 14 7 9 27 -5 23 -4 26 6 16 8 -7 14 -36 14 -68 l1 -55 33 0 c17 0
32 3 32 6 0 12 -24 50 -39 61 -13 9 -10 11 19 10 30 0 92 22 215 78 17 7 50
22 75 33 25 11 55 29 67 41 17 16 23 18 32 7 6 -7 8 -16 5 -19 -3 -3 -3 -11 1
-17 5 -8 11 -7 22 2 9 7 28 12 42 10 17 -1 6 7 -34 26 -43 20 -55 30 -43 34 9
4 35 -2 57 -13 22 -10 44 -19 49 -19 4 0 28 -9 52 -21 55 -27 128 -45 210 -53
36 -3 101 -15 145 -26 44 -12 92 -23 106 -25 14 -2 51 -12 82 -23 31 -10 57
-15 57 -11 0 15 -194 72 -355 104 -117 24 -230 55 -313 87 -87 33 -99 34 -107
8 -9 -29 -28 -25 -21 5 7 26 2 34 -7 11z m-157 -105 c0 -8 -131 -23 -138 -16
-4 3 90 22 121 24 9 0 17 -3 17 -8z m-96 -53 c-3 -5 -9 -6 -14 -3 -4 3 -10 -2
-14 -10 -8 -21 -26 -19 -26 3 0 12 8 17 29 17 16 1 27 -3 25 -7z"/>
<path d="M28 244 c-3 -27 0 -38 15 -45 24 -13 34 -4 18 15 -22 26 -3 37 32 19
42 -21 121 -43 177 -48 50 -5 46 -3 -74 34 -37 12 -86 30 -109 41 -22 11 -44
20 -48 20 -4 0 -9 -16 -11 -36z"/>
<path d="M1529 267 c7 -10 10 -17 6 -17 -4 0 -2 -7 5 -15 8 -9 9 -15 2 -15 -6
0 -14 5 -17 10 -9 14 -25 12 -25 -3 0 -8 11 -12 28 -11 43 2 45 3 33 17 -6 8
-9 16 -6 18 2 3 -6 11 -18 18 -20 13 -21 13 -8 -2z"/>
<path d="M1452 254 c-27 -19 -28 -34 -2 -34 12 0 20 7 21 18 1 11 4 9 9 -8 8
-24 8 -23 9 8 1 36 -5 39 -37 16z"/>
<path d="M1968 190 c6 -8 12 -22 12 -32 0 -10 7 -18 15 -18 22 0 18 14 -12 41
-16 13 -22 17 -15 9z"/>
<path d="M1058 156 c-21 -12 -35 -26 -30 -31 4 -4 1 -5 -6 -1 -15 9 -64 -6
-152 -46 -35 -16 -74 -28 -87 -25 -21 4 -21 3 -6 -20 11 -17 18 -21 24 -12 4
7 32 14 63 17 51 4 56 3 65 -19 8 -19 10 -20 12 -6 1 9 3 22 4 27 1 6 3 16 4
23 1 15 78 43 143 53 32 6 43 3 59 -15 11 -12 18 -25 14 -30 -3 -5 4 -7 15 -4
11 3 20 9 20 14 0 5 6 9 13 9 7 0 23 11 35 25 20 23 21 25 3 25 -10 0 -24 7
-31 15 -7 9 -15 13 -18 10 -3 -3 -12 1 -20 8 -13 11 -14 9 -1 -11 8 -12 24
-25 37 -28 31 -8 28 -20 -9 -33 -30 -10 -34 -8 -65 25 -19 20 -32 40 -29 45
11 16 -19 9 -57 -15z"/>
<path d="M1359 144 c29 -13 101 -38 160 -54 58 -17 133 -39 166 -49 77 -24
125 -33 125 -22 0 5 -12 11 -27 14 -61 10 -195 49 -323 92 -149 50 -183 56
-101 19z"/>
<path d="M26 144 c-3 -9 -6 -37 -6 -63 0 -54 23 -81 69 -81 25 0 31 5 36 31 6
26 11 30 31 26 13 -2 21 0 18 4 -3 5 -10 9 -16 9 -6 0 -33 20 -59 45 -52 49
-64 53 -73 29z m54 -36 c32 -36 37 -57 18 -76 -27 -27 -54 -12 -49 26 1 6 -2
28 -8 47 -12 44 0 45 39 3z"/>
<path d="M1913 69 c9 -6 27 -12 38 -14 12 -2 27 -9 35 -16 9 -7 14 -7 14 -1 0
5 -18 17 -40 26 -45 18 -75 21 -47 5z"/>
<path d="M1025 49 c-19 -7 -19 -8 1 -8 12 -1 36 -4 54 -8 25 -4 31 -3 26 6 -5
7 -10 10 -13 7 -3 -2 -15 -1 -27 3 -11 5 -30 5 -41 0z"/>
<path d="M2255 30 c44 -16 91 -29 105 -29 19 1 17 3 -10 9 -19 4 -59 17 -88
29 -29 11 -60 21 -70 20 -9 0 19 -13 63 -29z"/>
<path d="M605 25 c-27 -14 -39 -22 -25 -19 30 8 99 43 85 43 -5 1 -32 -10 -60
-24z"/>
</g>
</svg>
