<?xml version="1.0" standalone="no"?>
<!DOCTYPE svg PUBLIC "-//W3C//DTD SVG 20010904//EN"
 "http://www.w3.org/TR/2001/REC-SVG-20010904/DTD/svg10.dtd">
<svg version="1.0" xmlns="http://www.w3.org/2000/svg"
 width="300.000000pt" height="583.000000pt" viewBox="0 0 300.000000 583.000000"
 preserveAspectRatio="xMidYMid meet">
<metadata>
Created by potrace 1.10, written by Peter Selinger 2001-2011
</metadata>
<g transform="translate(0.000000,583.000000) scale(0.100000,-0.100000)"
fill="#000000" stroke="none">
<path d="M783 5803 c3 -10 15 -44 26 -76 11 -31 32 -110 46 -175 14 -64 32
-140 41 -168 8 -28 13 -63 10 -78 -3 -14 0 -26 5 -26 5 0 9 13 9 29 0 29 -38
229 -46 242 -2 4 -10 38 -18 75 l-14 69 22 -28 c21 -26 71 -159 81 -216 8 -42
18 -136 17 -153 0 -10 3 -18 9 -18 14 0 10 56 -11 155 -36 168 -61 235 -119
313 -55 73 -68 86 -58 55z"/>
<path d="M550 5759 c-13 -23 -40 -109 -40 -124 0 -15 38 70 49 110 11 39 7 45
-9 14z"/>
<path d="M593 5678 c7 -100 44 -248 85 -345 35 -83 141 -267 149 -259 3 3 -3
18 -13 33 -10 15 -19 33 -20 38 -1 6 -12 26 -26 46 -75 112 -158 378 -158 510
0 38 -4 59 -11 59 -9 0 -10 -24 -6 -82z"/>
<path d="M541 5617 c-6 -35 -11 -75 -11 -90 0 -43 40 -237 62 -302 33 -94 105
-233 163 -310 29 -38 60 -86 70 -105 10 -19 52 -78 94 -130 71 -88 148 -196
199 -280 34 -55 26 -23 -15 59 -40 81 -96 161 -305 429 -146 188 -247 470
-234 652 4 50 3 57 -4 30 -6 -25 -7 -15 -3 38 3 39 3 72 0 72 -3 0 -10 -28
-16 -63z"/>
<path d="M976 5545 c3 -11 24 -69 46 -130 36 -99 41 -126 54 -280 7 -93 16
-182 19 -197 8 -33 -4 -118 -15 -118 -5 0 -12 10 -16 23 -3 12 -14 30 -23 40
-8 11 -21 31 -28 45 l-11 27 -1 -34 c-1 -26 10 -47 47 -92 26 -32 51 -59 55
-59 5 0 7 99 5 220 -3 214 -2 221 17 218 10 -2 34 -22 52 -46 18 -24 33 -40
33 -35 0 4 -35 69 -78 145 -42 75 -96 172 -120 215 -24 43 -40 69 -36 58z
m129 -297 c4 -17 3 -28 -3 -28 -10 0 -22 32 -22 60 0 22 18 -1 25 -32z"/>
<path d="M526 5377 c7 -87 37 -195 70 -255 14 -26 22 -38 18 -27 -37 105 -47
143 -65 230 -25 126 -30 138 -23 52z"/>
<path d="M630 5344 c0 -20 21 -84 30 -89 5 -3 2 16 -7 42 -16 50 -23 63 -23
47z"/>
<path d="M511 5205 c-1 -103 11 -265 20 -260 4 3 10 23 14 45 4 22 10 42 14
45 4 2 43 -50 86 -116 43 -66 83 -123 88 -126 6 -3 -4 14 -20 38 -17 24 -43
69 -58 99 -15 30 -42 71 -60 90 -33 35 -54 89 -56 145 0 17 -6 48 -14 70 l-13
40 -1 -70z"/>
<path d="M890 5203 c0 -32 -6 -84 -14 -116 -13 -57 -13 -58 15 -96 35 -48 52
-61 40 -29 -16 42 -25 190 -12 198 9 5 9 18 0 53 -6 26 -15 47 -20 47 -5 0 -9
-26 -9 -57z"/>
<path d="M645 5190 c10 -34 70 -151 89 -175 9 -11 -7 27 -35 85 -55 111 -66
130 -54 90z"/>
<path d="M1029 5134 c-3 -24 4 -70 11 -78 5 -5 6 11 3 35 -6 43 -12 62 -14 43z"/>
<path d="M728 5085 c6 -11 22 -35 36 -54 14 -19 26 -40 26 -45 1 -15 60 -83
60 -69 0 6 -7 16 -15 23 -8 6 -17 22 -21 33 -4 12 -23 42 -42 67 -48 60 -57
69 -44 45z"/>
<path d="M682 4927 c66 -125 258 -365 258 -321 0 4 -26 36 -58 73 -88 100
-114 137 -178 249 -32 56 -62 102 -67 102 -5 0 16 -46 45 -103z"/>
<path d="M961 4963 c0 -28 4 -55 9 -58 11 -7 11 35 0 80 -7 26 -8 23 -9 -22z"/>
<path d="M861 4951 c23 -39 59 -76 59 -59 0 8 -16 30 -36 49 -28 26 -33 29
-23 10z"/>
<path d="M953 4822 c-26 -4 -30 -17 -10 -29 8 -4 22 -21 32 -36 10 -15 20 -25
23 -23 2 3 -3 16 -11 30 -9 13 -13 26 -8 28 18 7 -5 33 -26 30z"/>
<path d="M1067 4730 c43 -50 83 -101 90 -113 7 -12 16 -22 20 -23 4 0 30 -10
56 -22 55 -25 61 -26 52 -12 -13 20 -276 260 -286 260 -6 0 25 -41 68 -90z"/>
<path d="M771 4737 c18 -26 40 -53 48 -60 18 -14 -16 34 -54 78 -20 22 -18 18
6 -18z"/>
<path d="M767 4615 c-26 -54 -20 -66 8 -16 28 48 29 51 17 51 -5 0 -16 -16
-25 -35z"/>
<path d="M1130 4587 c0 -14 31 -81 46 -98 21 -23 70 -163 78 -224 8 -56 33
-151 47 -177 7 -14 5 -18 -7 -18 -8 0 -12 5 -9 10 3 6 1 10 -4 10 -6 0 -11 7
-11 15 0 8 -4 15 -9 15 -5 0 -12 12 -16 28 -4 15 -9 22 -11 16 -8 -19 47 -148
80 -189 18 -22 50 -62 71 -90 34 -45 37 -47 31 -20 -4 16 -25 70 -46 120 -49
117 -77 207 -85 273 -6 58 -64 244 -90 289 l-15 28 6 -37 c3 -21 4 -38 0 -38
-3 0 -17 21 -30 48 -14 26 -25 43 -26 39z"/>
<path d="M847 4547 c-31 -47 -38 -129 -32 -351 4 -141 11 -230 20 -258 13 -40
14 -35 8 72 -8 158 -8 383 1 453 6 46 11 57 26 57 11 0 24 -8 29 -17 16 -28
13 -10 -5 25 -21 43 -29 46 -47 19z"/>
<path d="M785 4543 c-36 -19 -73 -52 -87 -76 -8 -15 -1 -14 39 9 69 40 78 47
79 67 1 9 1 17 0 17 0 -1 -14 -8 -31 -17z"/>
<path d="M1055 4151 c2 -30 9 -59 15 -65 12 -11 11 -8 -10 79 -9 38 -10 38 -5
-14z"/>
<path d="M1205 4005 c4 -174 -3 -240 -25 -240 -9 0 -21 18 -30 45 -8 25 -18
50 -21 55 -3 6 -12 31 -19 58 -7 26 -17 50 -21 53 -5 3 -7 -1 -4 -8 2 -7 15
-50 29 -95 14 -45 46 -122 70 -170 l45 -88 0 220 c-1 152 -5 235 -14 270 -13
47 -14 40 -10 -100z"/>
<path d="M2892 4093 c-20 -4 -20 -6 -7 -20 18 -17 45 -11 45 12 0 8 -3 14 -7
14 -5 -1 -18 -4 -31 -6z"/>
<path d="M931 4070 c0 -14 8 -63 18 -110 48 -216 117 -352 324 -639 49 -69
101 -150 114 -180 17 -39 27 -51 33 -41 4 7 6 20 3 29 -11 30 -82 146 -142
231 -130 186 -171 249 -215 336 -48 95 -98 235 -121 339 -7 33 -13 49 -14 35z"/>
<path d="M872 3861 c-8 -5 -11 -17 -7 -32 4 -17 -2 -39 -19 -69 -25 -44 -35
-100 -17 -100 5 0 17 20 27 45 19 52 29 56 39 18 3 -15 30 -66 60 -113 69
-112 74 -149 44 -306 -16 -88 -20 -136 -16 -193 11 -132 24 -145 19 -19 -4
117 9 248 31 313 l12 34 48 -54 c27 -31 51 -69 56 -92 5 -21 9 -30 10 -20 2
29 15 18 41 -34 13 -28 32 -55 42 -60 10 -5 18 -14 18 -20 0 -12 70 -170 82
-183 13 -16 -7 45 -42 123 -35 80 -80 155 -142 235 -22 28 -57 74 -79 102 -62
80 -168 305 -186 391 -6 31 -11 40 -21 34z"/>
<path d="M1201 3520 c20 -43 71 -109 97 -126 16 -11 8 4 -24 43 -27 32 -57 70
-67 83 l-18 25 12 -25z"/>
<path d="M2090 3415 c-10 -12 -9 -15 7 -15 10 0 28 7 39 15 18 14 18 14 -7 15
-15 0 -32 -7 -39 -15z"/>
<path d="M1490 3204 c35 -40 62 -64 71 -64 4 0 11 -17 14 -37 12 -66 38 -157
52 -178 7 -11 13 -15 13 -10 -1 24 -22 102 -37 132 -9 19 -14 36 -11 38 2 3
23 -3 46 -12 23 -9 45 -14 48 -10 8 8 -69 76 -130 114 -93 59 -94 59 -66 27z"/>
<path d="M1520 3048 c0 -7 9 -26 20 -43 24 -36 25 -30 5 19 -16 37 -25 46 -25
24z"/>
<path d="M1696 2964 c-26 -34 -34 -53 -30 -69 3 -13 -3 -43 -15 -70 -24 -54
-25 -59 -11 -50 13 8 13 7 -5 -62 -8 -31 -15 -68 -15 -81 l0 -23 24 26 c18 19
27 46 35 98 23 147 41 231 56 254 28 42 -3 24 -39 -23z"/>
<path d="M970 2945 c-7 -8 -16 -13 -20 -10 -9 6 -24 -45 -15 -53 3 -3 6 -3 8
-1 1 2 18 21 36 42 25 26 30 37 19 37 -8 0 -21 -7 -28 -15z"/>
<path d="M1020 2922 c0 -23 23 -122 29 -122 10 0 10 54 0 87 -10 31 -29 54
-29 35z"/>
<path d="M1420 2905 c0 -15 -6 -25 -14 -25 -9 0 -12 -7 -9 -20 3 -11 9 -18 13
-15 11 7 52 -65 46 -81 -3 -8 -15 -13 -28 -11 -19 2 -23 -3 -23 -30 0 -36 -12
-53 -24 -34 -7 10 -12 8 -24 -10 -13 -18 -19 -20 -31 -10 -12 10 -14 6 -13
-24 1 -19 3 -35 5 -35 2 0 16 9 32 20 40 28 81 42 107 35 54 -13 8 -52 -77
-65 -38 -6 -42 -9 -22 -15 23 -8 23 -8 -10 -37 l-33 -29 49 30 c56 34 85 30
40 -6 -16 -12 -26 -23 -22 -23 3 0 14 -3 22 -6 12 -5 15 -2 10 10 -4 11 0 16
14 16 11 0 22 -3 25 -7 2 -5 2 -1 -1 7 -2 8 -6 22 -9 31 -3 11 7 21 29 32 56
26 81 61 88 121 4 39 3 53 -6 49 -15 -5 -25 -53 -17 -81 3 -14 0 -24 -9 -27
-18 -7 -108 30 -108 45 0 5 20 10 45 10 54 0 58 14 16 54 -33 31 -54 94 -45
131 4 15 2 25 -5 25 -6 0 -11 -11 -11 -25z"/>
<path d="M1830 2861 c-84 -32 -110 -46 -115 -58 -7 -19 9 -16 50 8 20 12 62
32 93 45 31 13 48 23 37 23 -11 0 -40 -8 -65 -18z"/>
<path d="M1883 2815 c-23 -19 -44 -35 -47 -35 -3 0 -16 -10 -29 -23 -20 -18
-22 -24 -11 -34 11 -11 19 -5 44 32 17 25 47 56 68 70 20 14 32 25 26 25 -6 0
-29 -16 -51 -35z"/>
<path d="M1786 2789 c-42 -28 -81 -59 -86 -70 -14 -25 2 -24 26 2 10 11 49 41
86 65 37 25 68 47 68 50 0 12 -25 -1 -94 -47z"/>
<path d="M940 2766 c0 -3 15 -12 33 -20 19 -7 49 -27 68 -43 19 -16 49 -39 67
-52 37 -26 35 -37 -9 -46 -21 -5 -27 -10 -19 -15 14 -9 -8 -38 -45 -58 -13 -7
-15 -12 -6 -12 10 0 8 -7 -8 -24 l-22 -24 30 -4 c16 -2 28 -1 26 2 -3 4 9 20
26 35 21 18 28 30 20 34 -18 11 -3 38 25 45 13 4 24 11 24 17 0 6 8 6 23 -1
12 -6 -3 12 -33 40 -30 27 -54 55 -52 60 1 6 -4 10 -12 10 -8 0 -23 11 -34 25
-12 16 -34 27 -61 31 -22 4 -41 4 -41 0z"/>
<path d="M1310 2726 c0 -17 27 -29 35 -16 4 6 15 10 26 10 10 0 19 5 19 10 0
6 -18 10 -40 10 -28 0 -40 -4 -40 -14z"/>
<path d="M1110 2717 c0 -2 25 -24 55 -51 30 -26 52 -40 49 -33 -7 19 -104 97
-104 84z"/>
<path d="M1287 2703 c-4 -3 -6 -36 -5 -72 l1 -66 7 70 c7 76 7 78 -3 68z"/>
<path d="M1765 2693 c-17 -3 -20 -10 -18 -36 6 -50 -28 -129 -62 -147 -16 -8
-38 -24 -48 -35 -10 -11 -15 -13 -11 -5 4 8 -5 4 -20 -10 -16 -14 -37 -45 -49
-70 -11 -25 -22 -48 -24 -52 -2 -5 0 -8 5 -8 5 0 17 18 27 40 19 43 56 83 41
45 -18 -44 -24 -75 -17 -80 5 -2 21 27 36 66 32 78 36 83 65 74 16 -5 18 -10
10 -26 -14 -26 5 -25 48 1 49 30 60 63 37 107 -11 19 -21 30 -23 23 -3 -7 2
-23 9 -36 14 -28 2 -46 -38 -59 -27 -8 -33 18 -8 32 9 5 20 36 26 72 8 43 15
61 24 57 8 -3 15 6 17 25 3 16 2 28 -1 28 -3 -1 -15 -4 -26 -6z"/>
<path d="M905 2640 c-106 -16 -106 -18 -5 -66 51 -24 98 -44 104 -44 6 1 -4 7
-21 15 -18 8 -33 19 -33 25 0 12 17 13 22 1 2 -5 17 -12 33 -16 l30 -6 -30 15
-30 14 40 3 40 2 -45 6 -45 7 62 8 c34 4 67 14 74 22 10 12 2 14 -47 14 -33 0
-68 2 -79 4 -11 2 -43 0 -70 -4z"/>
<path d="M1811 2623 c1 -15 5 -41 9 -58 7 -26 8 -23 9 22 0 28 -3 55 -9 58 -6
4 -10 -5 -9 -22z"/>
<path d="M1696 2618 c-13 -61 -16 -102 -7 -88 11 18 26 110 17 110 -3 0 -8
-10 -10 -22z"/>
<path d="M1164 2553 c-11 -9 -13 -13 -4 -11 8 3 33 -1 54 -9 43 -15 59 -11 27
7 -12 6 -20 14 -17 18 8 14 -40 9 -60 -5z"/>
<path d="M1571 2515 c-11 -19 -24 -35 -28 -35 -4 0 -8 -11 -8 -25 0 -14 1 -25
2 -25 3 0 73 109 73 114 0 17 -21 2 -39 -29z"/>
<path d="M1198 2508 c28 -14 66 -74 56 -89 -4 -8 -3 -9 4 -5 6 4 21 2 33 -5
23 -12 21 -4 -7 30 -44 54 -75 81 -91 80 -15 0 -14 -2 5 -11z"/>
<path d="M1290 2510 c0 -5 18 -27 40 -47 55 -52 53 -73 -5 -73 -25 0 -45 -4
-45 -10 0 -5 7 -10 15 -10 19 0 19 -10 -1 -38 -22 -31 -48 -29 -41 4 3 18 1
24 -9 20 -7 -3 -16 -1 -18 3 -3 5 -24 11 -47 14 -22 3 -50 14 -61 24 -21 18
-21 18 -14 -12 6 -29 6 -29 -9 -10 -11 14 -14 31 -10 55 6 33 6 34 -9 15 -8
-11 -16 -27 -17 -35 0 -8 -5 -4 -9 10 l-8 25 -1 -26 c-2 -44 52 -90 104 -88
29 1 30 1 5 9 -20 7 -16 8 20 7 36 -2 45 -5 44 -19 -1 -11 5 -18 15 -18 19 0
111 -102 111 -123 0 -8 -7 -20 -15 -27 -23 -19 -18 -48 10 -66 18 -12 24 -22
20 -35 -7 -20 2 -24 22 -11 17 11 55 112 51 136 -3 18 -6 15 -20 -14 -9 -19
-23 -44 -33 -55 -16 -20 -16 -20 -12 0 3 11 8 29 13 40 5 14 -1 10 -19 -10
-24 -28 -26 -28 -27 -9 0 12 7 28 17 35 20 17 43 71 43 102 0 24 -37 67 -58
67 -7 0 -12 7 -12 15 0 29 43 16 77 -22 18 -21 33 -44 33 -51 0 -7 5 -10 11
-7 7 5 5 13 -5 24 -9 10 -16 22 -16 28 0 6 -7 16 -15 23 -8 7 -15 25 -15 41 0
17 -14 44 -37 73 -39 45 -63 63 -63 46z m84 -212 c8 -14 7 -21 -6 -34 -15 -16
-18 -15 -42 3 -23 19 -24 21 -8 37 20 20 41 17 56 -6z"/>
<path d="M1465 2500 c4 -8 15 -23 23 -32 7 -9 11 -22 7 -27 -3 -6 -2 -11 3
-11 5 0 12 11 14 25 3 14 1 25 -5 25 -6 0 -19 8 -30 18 -15 12 -18 13 -12 2z"/>
<path d="M1177 2466 c21 -28 53 -50 53 -37 0 16 -41 61 -56 61 -12 0 -12 -4 3
-24z"/>
<path d="M1136 2461 c-4 -6 2 -19 14 -31 19 -19 20 -19 20 -1 0 23 -25 46 -34
32z"/>
<path d="M1641 2369 c-6 -18 -11 -44 -11 -60 0 -15 -6 -29 -12 -32 -7 -2 -1
-8 15 -12 35 -9 35 -29 0 -22 l-28 5 24 -19 c21 -17 21 -19 5 -26 -13 -5 -28
5 -56 37 -63 71 -46 17 23 -72 33 -43 58 -78 54 -78 -16 0 -71 35 -88 57 -11
13 -26 22 -34 19 -25 -10 -38 38 -23 84 21 62 4 58 -19 -5 -12 -31 -28 -71
-37 -88 l-15 -32 24 28 c23 27 25 28 41 12 24 -24 16 -51 -13 -47 -15 1 -33
-8 -48 -24 l-24 -26 28 -30 28 -29 27 58 c16 32 28 66 28 76 0 10 5 15 10 12
17 -11 11 -43 -22 -110 -22 -44 -38 -65 -50 -65 -10 0 -27 -15 -38 -32 l-20
-33 0 31 c0 31 -16 52 -58 74 -35 17 -39 4 -9 -28 15 -16 27 -36 27 -46 0 -9
4 -15 10 -11 5 3 16 -8 25 -25 17 -32 22 -35 45 -20 11 7 12 12 4 20 -18 18
-5 53 17 47 13 -4 24 4 36 24 10 16 21 29 26 29 5 0 7 10 3 23 -6 26 17 67 38
67 7 0 21 -9 31 -20 10 -12 25 -18 32 -16 16 6 18 -25 2 -41 -8 -8 -8 -13 0
-17 6 -4 11 -12 11 -19 0 -6 -17 5 -37 24 -21 18 -28 23 -16 9 12 -14 23 -38
25 -55 2 -24 -1 -30 -16 -28 -13 1 -15 -2 -7 -10 6 -6 11 -17 11 -24 0 -20
-28 -16 -32 5 -3 14 -5 13 -10 -5 -4 -15 -2 -23 7 -23 7 0 16 -7 19 -16 14
-36 60 42 71 121 9 57 20 83 47 106 27 24 22 34 -8 14 -29 -19 -45 -11 -64 34
-10 26 -9 31 14 54 27 27 33 51 15 62 -21 14 -29 56 -18 97 13 49 6 61 -10 17z"/>
<path d="M1688 2380 c-14 -46 -9 -81 14 -100 22 -17 22 -19 5 -37 -24 -27 -21
-50 8 -85 31 -37 32 -29 3 22 -22 38 -22 39 -3 60 18 20 18 23 2 53 -9 18 -18
50 -19 72 -3 35 -4 37 -10 15z"/>
<path d="M1455 2349 c-4 -6 -5 -13 -2 -15 7 -8 57 7 57 17 0 13 -47 11 -55 -2z"/>
<path d="M1710 2040 c0 -45 -38 -143 -71 -183 l-27 -32 -23 20 -24 20 20 -23
c19 -23 19 -24 1 -38 -16 -11 -23 -11 -35 -1 -14 11 -14 10 -2 -5 18 -24 52
-23 58 2 6 23 16 25 46 9 12 -7 30 -12 41 -13 23 -1 35 -26 12 -26 -10 0 -16
-9 -16 -25 0 -25 14 -33 25 -15 9 15 32 12 39 -6 4 -10 0 -18 -13 -21 -11 -3
-22 -12 -25 -20 -5 -11 -1 -13 16 -8 18 6 20 4 14 -16 -11 -40 -48 -203 -50
-219 0 -8 8 -16 19 -18 34 -7 47 -22 33 -39 -6 -8 -20 -19 -30 -24 -26 -14
-70 36 -63 71 4 21 4 22 -5 8 -12 -20 -19 -22 -39 -9 -12 8 -9 16 16 44 37 42
55 134 43 212 -4 28 -8 39 -9 25 -9 -135 -13 -165 -26 -191 -16 -31 -72 -72
-90 -66 -16 6 -18 39 -3 48 10 8 10 11 -4 20 -14 8 -18 24 -18 75 0 49 -6 76
-25 114 -14 28 -30 50 -35 50 -5 0 -14 9 -20 20 -9 16 -8 22 5 26 21 8 62 -30
87 -81 19 -39 19 -39 14 -8 -4 27 -3 31 11 26 14 -6 14 -2 -3 20 -10 14 -25
27 -31 27 -7 0 -13 6 -13 14 0 8 -10 16 -22 18 -16 2 -22 9 -20 21 2 9 -2 17
-8 17 -5 0 -10 -7 -10 -16 0 -13 -8 -15 -40 -12 -22 2 -40 1 -40 -2 1 -9 30
-44 30 -35 0 11 40 -25 52 -48 12 -24 58 -149 58 -160 0 -5 -4 -5 -10 -2 -14
8 -13 -3 6 -75 9 -34 14 -71 11 -81 -4 -15 0 -17 23 -12 37 7 115 -31 148 -74
21 -25 29 -30 44 -22 10 6 16 15 12 20 -6 11 28 49 45 49 5 0 12 6 14 13 3 6
6 0 6 -15 1 -16 6 -28 11 -28 6 0 10 -11 10 -25 0 -14 5 -25 10 -25 24 0 -3
82 -43 129 -15 18 -27 44 -27 59 0 20 -3 23 -12 14 -9 -9 -8 -20 6 -48 17 -38
14 -56 -6 -36 -7 7 -20 12 -30 12 -10 0 -18 5 -18 10 0 6 5 10 10 10 6 0 10 8
10 18 0 9 7 30 15 46 8 15 15 46 15 67 0 53 21 101 55 126 16 11 25 25 21 31
-12 19 -32 14 -43 -10 -11 -23 -11 -23 -22 6 -6 16 -20 41 -30 55 -15 20 -17
31 -9 45 7 12 7 21 -1 29 -8 8 -11 8 -11 -1 0 -7 -11 -12 -25 -12 -27 0 -30 7
-15 30 8 13 10 12 10 -3 0 -10 4 -16 9 -13 10 7 26 184 17 193 -3 4 -6 -9 -6
-27z"/>
<path d="M1491 1904 c-12 -14 -12 -17 0 -25 8 -5 18 -9 23 -9 4 0 6 -9 3 -20
-6 -25 -2 -25 22 -1 16 16 17 23 7 42 -14 29 -36 34 -55 13z"/>
<path d="M1770 1902 c0 -17 16 -46 52 -96 41 -57 34 -31 -12 44 -22 36 -40 59
-40 52z"/>
<path d="M4 1672 c3 -5 25 -12 48 -15 24 -3 57 -8 73 -11 l30 -6 -30 17 c-32
18 -130 30 -121 15z"/>
<path d="M1546 1605 c-21 -48 -20 -52 4 -30 13 11 25 15 37 10 10 -5 21 -7 26
-7 4 1 7 -10 8 -25 0 -16 3 -22 6 -15 3 7 2 34 -2 60 -7 39 -9 43 -14 23 l-7
-25 -21 23 -22 23 -15 -37z"/>
<path d="M1814 1626 c-3 -7 -1 -29 4 -47 l10 -34 1 48 c1 47 -5 60 -15 33z"/>
<path d="M1785 1539 c-7 -37 15 -99 34 -99 5 0 18 -3 28 -7 13 -5 12 -1 -5 13
-15 12 -29 40 -37 74 l-12 55 -8 -36z"/>
<path d="M1585 1539 c-11 -4 -14 -8 -7 -8 10 -1 10 -5 -2 -17 -9 -8 -13 -20
-10 -26 9 -14 47 26 42 44 -2 11 -9 13 -23 7z"/>
<path d="M1835 1500 c4 -14 14 -29 22 -35 47 -32 47 -29 19 -70 -25 -36 -25
-39 -10 -56 9 -10 24 -21 34 -24 13 -4 17 -20 18 -83 2 -71 0 -82 -28 -125
-17 -26 -42 -76 -56 -110 -14 -34 -32 -72 -40 -84 -17 -27 -14 -27 46 -9 34
11 41 16 28 21 -24 9 -22 31 7 85 l23 45 11 -28 c6 -16 14 -46 17 -68 4 -21
10 -39 14 -39 5 0 15 -3 24 -6 14 -6 14 -3 0 32 -24 57 -45 171 -38 201 6 22
13 7 36 -82 16 -61 38 -128 49 -150 22 -43 21 -35 -12 80 -11 39 -25 93 -30
120 -6 28 -17 71 -25 96 -8 26 -14 58 -14 73 0 18 -8 30 -30 41 -16 9 -30 19
-30 22 0 4 12 24 26 45 25 36 26 39 10 63 -9 14 -23 25 -31 25 -7 0 -21 10
-30 23 l-17 22 7 -25z"/>
<path d="M460 1504 c0 -24 163 -164 192 -164 20 0 4 17 -36 39 -25 13 -56 41
-71 62 -14 21 -30 39 -37 39 -6 0 -20 7 -30 17 -10 9 -18 12 -18 7z"/>
<path d="M1509 1364 c-14 -17 -13 -18 26 -31 33 -11 63 -55 64 -95 1 -21 7
-28 31 -33 61 -13 190 -88 190 -110 0 -28 -19 -23 -121 30 -57 30 -105 55
-107 55 -3 0 1 -7 8 -15 7 -8 9 -22 6 -31 -5 -13 -2 -15 15 -11 20 5 21 3 16
-39 -2 -25 -10 -51 -17 -57 -10 -9 -12 -6 -8 14 3 18 -1 30 -12 37 -13 8 -16
21 -14 49 l3 38 -19 -25 c-18 -23 -18 -27 -3 -50 36 -55 43 -76 37 -111 -3
-22 -1 -40 5 -44 6 -3 11 -21 11 -40 0 -25 8 -40 30 -58 23 -20 30 -34 30 -61
0 -19 7 -41 15 -50 11 -11 13 -21 5 -40 -11 -30 1 -33 40 -11 28 16 70 20 70
7 0 -5 -18 -23 -40 -41 -32 -26 -43 -30 -59 -21 -36 19 -59 12 -63 -17 -2 -19
-10 -29 -28 -34 -21 -6 -20 -7 12 -8 30 -1 36 2 31 15 -4 12 -1 15 13 12 13
-2 19 -12 20 -31 1 -27 -19 -48 -41 -41 -5 1 -27 5 -47 9 -21 3 -45 13 -54 22
-19 19 -114 54 -114 42 0 -16 147 -88 193 -94 26 -4 47 -12 47 -18 0 -14 -48
-97 -74 -126 l-21 -24 54 7 c46 6 131 32 204 61 23 10 22 -11 -4 -64 -11 -23
-18 -48 -15 -54 2 -7 8 -2 11 10 4 13 11 20 16 18 10 -7 59 64 59 85 0 8 -9 0
-20 -18 -11 -17 -22 -32 -24 -32 -2 0 -2 19 2 42 3 26 18 59 38 85 18 23 35
52 39 63 3 11 15 20 25 20 28 0 85 -89 57 -91 -7 0 -2 -5 10 -11 12 -6 33 -36
47 -67 16 -36 25 -48 25 -34 1 12 -3 25 -9 28 -17 10 -11 35 8 35 13 1 12 3
-6 13 -13 7 -34 36 -47 65 -27 58 -62 109 -81 116 -8 3 -25 -20 -46 -61 -32
-64 -75 -107 -143 -145 -29 -16 -145 -50 -145 -42 0 2 13 24 30 50 16 26 41
82 55 125 22 65 33 83 69 113 24 19 47 32 52 28 5 -4 -1 5 -13 19 -13 14 -23
34 -23 45 0 29 43 87 76 103 16 7 36 17 45 22 9 4 19 5 22 3 9 -9 -14 -64 -26
-64 -8 0 -8 -3 -2 -8 6 -4 19 -17 30 -30 16 -20 17 -25 5 -33 -11 -8 -12 -12
-2 -16 19 -7 15 -29 -15 -75 -33 -53 -50 -71 -62 -63 -5 3 -12 1 -15 -4 -3 -5
0 -11 8 -14 14 -6 84 61 105 100 22 42 44 45 84 12 21 -17 37 -39 37 -50 0
-13 -4 -18 -12 -13 -7 4 -5 -2 5 -14 31 -35 46 -93 47 -181 0 -46 2 -82 4 -80
15 15 16 132 2 180 -16 56 -19 129 -4 129 4 0 8 6 8 13 0 6 14 30 30 51 46 61
37 78 -14 26 -24 -25 -42 -48 -39 -52 2 -5 1 -13 -2 -18 -4 -7 -26 3 -56 25
-27 19 -52 35 -55 35 -3 0 -16 12 -29 28 -31 35 -33 90 -4 121 27 29 17 39
-24 22 -18 -7 -43 -15 -57 -18 -56 -13 -110 -81 -110 -141 0 -11 -13 -22 -32
-30 -37 -14 -47 -8 -31 17 10 16 9 20 -8 24 -28 7 -24 37 5 37 26 0 50 -22 38
-35 -4 -5 -1 -5 6 -1 22 13 13 45 -18 61 -16 8 -33 15 -39 15 -18 0 -81 42
-76 50 3 4 22 4 42 -1 49 -11 63 2 93 88 13 38 40 93 60 123 48 71 70 115 70
137 0 10 -13 -6 -28 -36 -15 -30 -32 -56 -39 -58 -7 -3 -32 16 -57 41 -24 25
-46 42 -48 37 -7 -20 -46 9 -53 41 -16 73 -49 106 -126 128 -20 6 -31 4 -40
-6z m126 -70 c15 -35 13 -54 -5 -54 -8 0 -30 61 -30 83 0 20 22 3 35 -29z m88
-245 l37 -30 -31 -60 c-16 -33 -36 -62 -45 -66 -22 -8 -44 16 -44 49 0 17 -4
27 -10 23 -5 -3 -10 -1 -10 4 0 6 5 11 10 11 6 0 10 12 10 26 0 27 11 28 66 7
12 -4 15 -3 10 5 -4 7 -11 12 -16 12 -27 0 -59 21 -54 35 9 23 36 18 77 -16z"/>
<path d="M380 1330 c0 -6 4 -18 9 -28 5 -9 13 -26 17 -37 6 -17 8 -18 11 -3 2
9 -3 30 -12 47 -16 32 -25 39 -25 21z"/>
<path d="M1841 1265 c8 -26 7 -41 0 -48 -6 -6 -11 -19 -11 -28 0 -34 -19 -29
-31 8 -10 33 -59 105 -59 88 0 -20 24 -95 30 -95 4 0 10 -9 13 -20 13 -50 66
-11 101 74 20 48 20 45 -4 39 -11 -3 -27 0 -34 7 -13 10 -13 6 -5 -25z"/>
<path d="M2760 1091 c20 -39 47 -40 35 -2 -3 12 -15 21 -26 21 -16 0 -18 -3
-9 -19z"/>
<path d="M466 873 c-3 -3 30 -40 74 -82 62 -60 80 -84 85 -114 4 -20 11 -39
15 -42 5 -3 2 20 -5 50 -12 53 -51 117 -87 143 -9 7 -23 18 -30 25 -17 17 -44
27 -52 20z"/>
<path d="M1520 860 c-17 -11 -6 -24 28 -35 26 -8 29 6 4 28 -12 11 -22 13 -32
7z"/>
<path d="M441 783 c0 -32 4 -91 8 -130 4 -40 4 -73 0 -73 -4 0 -21 11 -37 25
-44 37 -61 31 -24 -8 18 -18 32 -36 32 -40 0 -4 -14 -21 -31 -38 -30 -29 -32
-29 -56 -14 -13 9 -29 15 -34 13 -6 -2 9 -16 32 -32 38 -24 44 -26 55 -12 6 9
16 16 22 16 6 0 13 6 15 13 3 6 6 -2 6 -20 1 -17 -4 -35 -9 -38 -7 -5 -8 -11
-1 -19 7 -8 1 -16 -19 -28 -32 -18 -40 -15 -40 18 0 13 -9 28 -20 34 -24 13
-24 11 -5 -60 16 -61 13 -70 -16 -51 -31 19 -38 3 -9 -20 l25 -20 -23 -17
c-12 -9 -32 -24 -44 -33 -11 -8 -19 -22 -16 -29 5 -15 60 38 137 129 37 44 48
52 70 48 20 -4 34 3 63 33 41 41 47 60 23 80 -20 16 -19 26 4 58 41 59 32 166
-13 160 -28 -4 -27 -32 2 -36 12 -2 22 -8 22 -13 0 -21 -23 -100 -30 -104 -5
-3 -22 3 -38 12 -26 15 -29 22 -28 62 2 101 -5 191 -14 191 -6 0 -10 -25 -9
-57z m63 -262 l38 -38 -32 -37 c-18 -20 -36 -36 -40 -36 -9 0 -19 118 -12 138
6 16 2 18 46 -27z"/>
<path d="M1980 821 c0 -32 21 -49 69 -55 31 -4 54 -13 59 -23 9 -15 13 -14 46
6 20 13 36 26 36 29 0 4 -19 7 -42 8 -67 1 -131 15 -150 32 -12 10 -18 11 -18
3z"/>
<path d="M210 626 c0 -30 8 -55 25 -80 30 -45 31 -58 5 -96 -11 -17 -29 -43
-40 -60 -27 -40 -24 -90 5 -90 7 0 16 -7 19 -16 7 -18 47 -15 54 4 2 7 -6 12
-21 12 -31 0 -60 27 -53 47 3 8 6 17 6 19 0 2 7 4 15 4 8 0 15 8 15 19 0 10
11 35 25 55 14 20 25 39 25 41 0 2 -13 24 -30 48 -23 34 -30 56 -30 91 0 25
-4 46 -10 46 -5 0 -10 -20 -10 -44z"/>
<path d="M1843 645 c-13 -7 -20 -15 -16 -18 3 -4 -10 -33 -29 -64 -71 -115
-91 -177 -40 -123 18 20 116 210 110 215 -2 1 -13 -4 -25 -10z"/>
<path d="M312 615 c-32 -36 -32 -36 -42 -13 l-9 23 0 -26 c-1 -14 5 -33 12
-44 13 -17 16 -15 46 29 41 59 37 78 -7 31z"/>
<path d="M1525 622 c-16 -2 -34 -8 -39 -13 -16 -15 95 -10 129 6 l30 14 -45
-2 c-25 -1 -58 -3 -75 -5z"/>
<path d="M2083 535 c8 -16 17 -42 21 -57 3 -16 10 -28 15 -28 13 0 -8 63 -31
91 l-19 24 14 -30z"/>
<path d="M570 480 c0 -5 13 -19 30 -31 24 -18 27 -25 19 -42 -9 -15 -8 -18 3
-15 24 8 20 34 -11 66 -30 33 -41 39 -41 22z"/>
<path d="M1923 413 c9 -2 17 -10 17 -17 0 -22 -70 -130 -118 -181 -26 -27 -59
-63 -72 -79 l-25 -30 40 31 c39 30 125 118 196 201 20 23 42 42 49 42 13 0 66
-52 88 -85 11 -17 11 -17 1 5 -20 44 -61 79 -116 100 -30 11 -59 19 -66 19 -7
-1 -4 -3 6 -6z"/>
<path d="M425 353 c-48 -48 -107 -123 -97 -123 10 0 52 45 77 83 25 38 45 24
45 -32 0 -25 5 -53 10 -61 11 -18 12 49 2 119 l-7 44 -30 -30z"/>
<path d="M1791 314 c-12 -31 -20 -58 -18 -60 2 -2 14 21 26 52 13 30 21 57 18
60 -3 3 -15 -20 -26 -52z"/>
<path d="M535 257 c21 -33 95 -91 95 -75 0 19 -10 29 -56 66 -50 38 -60 40
-39 9z"/>
<path d="M490 196 c0 -55 4 -76 13 -76 9 0 11 12 9 40 -3 31 -1 40 11 40 21 0
80 -57 72 -70 -3 -5 1 -10 9 -10 26 0 19 12 -49 83 l-65 68 0 -75z"/>
<path d="M364 222 c-16 -11 -54 -64 -54 -75 0 -13 48 31 62 56 11 21 7 29 -8
19z"/>
<path d="M412 173 c-2 -53 -2 -53 28 -53 28 0 30 2 30 41 0 24 -4 38 -10 34
-5 -3 -10 -13 -10 -21 0 -29 -29 -14 -33 19 -3 22 -4 15 -5 -20z"/>
<path d="M272 194 c-22 -15 -31 -64 -12 -64 6 0 10 11 10 25 0 14 4 25 9 25 5
0 11 7 15 15 7 19 6 19 -22 -1z"/>
<path d="M368 163 c-29 -35 -30 -43 -4 -43 21 0 25 4 24 30 -1 35 -1 35 -20
13z"/>
<path d="M220 114 c-1 -41 49 -53 150 -36 54 9 54 10 -37 11 -76 1 -94 4 -102
19 -6 9 -11 12 -11 6z"/>
<path d="M462 85 c9 -9 128 -11 128 -2 0 4 -30 7 -67 7 -36 0 -64 -2 -61 -5z"/>
</g>
</svg>
