<?xml version="1.0" standalone="no"?>
<!DOCTYPE svg PUBLIC "-//W3C//DTD SVG 20010904//EN"
 "http://www.w3.org/TR/2001/REC-SVG-20010904/DTD/svg10.dtd">
<svg version="1.0" xmlns="http://www.w3.org/2000/svg"
 width="300.000000pt" height="300.000000pt" viewBox="0 0 300.000000 300.000000"
 preserveAspectRatio="xMidYMid meet">
<metadata>
Created by potrace 1.10, written by Peter Selinger 2001-2011
</metadata>
<g transform="translate(0.000000,300.000000) scale(0.100000,-0.100000)"
fill="#000000" stroke="none">
<path d="M165 1981 c7 -12 131 -61 154 -61 11 0 22 -6 24 -12 3 -8 6 -6 6 4 1
12 -11 21 -37 27 -21 6 -64 20 -95 30 -32 11 -55 16 -52 12z"/>
<path d="M585 1015 c-38 -18 -65 -34 -59 -34 12 -1 134 58 134 65 0 6 2 7 -75
-31z"/>
<path d="M1285 650 c-13 -20 -45 -124 -40 -128 3 -3 5 -3 5 0 0 3 11 35 25 72
22 59 27 83 10 56z"/>
<path d="M29 103 c-1 -5 0 -23 1 -41 1 -21 -3 -32 -10 -30 -7 2 -15 -3 -17 -9
-3 -9 10 -13 46 -13 28 0 51 5 51 10 0 6 -11 10 -25 10 -22 0 -25 4 -25 40 0
22 -4 40 -10 40 -5 0 -10 -3 -11 -7z"/>
</g>
</svg>
