<?xml version="1.0" standalone="no"?>
<!DOCTYPE svg PUBLIC "-//W3C//DTD SVG 20010904//EN"
 "http://www.w3.org/TR/2001/REC-SVG-20010904/DTD/svg10.dtd">
<svg version="1.0" xmlns="http://www.w3.org/2000/svg"
 width="300.000000pt" height="300.000000pt" viewBox="0 0 300.000000 300.000000"
 preserveAspectRatio="xMidYMid meet">
<metadata>
Created by potrace 1.10, written by Peter Selinger 2001-2011
</metadata>
<g transform="translate(0.000000,300.000000) scale(0.100000,-0.100000)"
fill="#000000" stroke="none">
<path d="M1783 2988 c2 -7 -3 -18 -12 -25 -14 -10 -13 -11 4 -7 12 3 26 14 33
25 11 16 9 19 -9 19 -12 0 -19 -5 -16 -12z"/>
<path d="M1905 2990 c18 -8 18 -9 2 -9 -10 -1 -16 -5 -13 -10 3 -5 -8 -14 -24
-21 -16 -7 -35 -19 -42 -28 -11 -13 -10 -14 7 -5 36 19 129 55 175 69 l45 13
-85 0 c-56 0 -78 -3 -65 -9z"/>
<path d="M1605 2961 c3 -6 26 -11 51 -11 59 0 49 15 -11 19 -31 1 -45 -2 -40
-8z"/>
<path d="M1981 2909 c-14 -5 -41 -9 -60 -8 -55 3 -70 -2 -33 -11 46 -11 122
-1 122 16 0 8 -1 14 -2 13 -2 0 -14 -5 -27 -10z"/>
<path d="M1696 2877 c-9 -19 -4 -59 16 -129 17 -57 30 -75 16 -21 -5 21 -13
67 -17 103 -5 44 -10 59 -15 47z"/>
<path d="M1966 2871 c5 -5 27 -6 49 -1 l40 8 -49 1 c-30 1 -46 -3 -40 -8z"/>
<path d="M1758 2805 c-23 -31 -23 -52 2 -65 23 -12 25 -4 10 35 -7 17 -7 24 0
20 6 -3 10 3 10 14 0 26 -1 26 -22 -4z"/>
<path d="M2052 2805 c20 -24 78 -59 78 -48 0 5 -10 14 -22 22 -13 8 -34 21
-48 30 -24 15 -25 15 -8 -4z"/>
<path d="M2328 2803 c23 -9 1 -23 -37 -23 -20 0 -46 -6 -56 -14 -14 -10 -26
-11 -44 -5 -20 8 -22 7 -13 -4 12 -14 7 -27 -10 -27 -5 0 -7 4 -4 9 3 5 -2 15
-12 22 -15 12 -16 12 -6 -1 15 -20 1 -56 -25 -65 -14 -4 -21 -15 -21 -33 0
-26 1 -25 48 20 66 65 124 77 332 65 53 -2 66 -1 45 5 -16 5 -43 13 -60 18
-16 5 -39 7 -50 4 -13 -3 -28 2 -39 15 -11 12 -29 21 -40 20 -12 0 -15 -3 -8
-6z"/>
<path d="M2011 2740 c0 -19 4 -44 9 -55 7 -16 9 -11 9 20 0 22 -4 47 -9 55 -7
11 -10 6 -9 -20z"/>
<path d="M1575 2697 c-4 -15 -4 -47 -1 -72 6 -36 11 -45 27 -45 24 0 24 -9 -2
-40 -20 -24 -21 -25 -16 -2 3 12 1 20 -3 17 -5 -3 -11 1 -13 7 -3 7 -6 -11 -6
-39 -1 -50 0 -53 24 -53 17 0 25 5 25 18 0 21 31 63 79 109 35 33 111 64 163
68 15 1 40 2 54 3 14 1 23 6 20 10 -3 5 -19 7 -37 4 -22 -3 -30 -1 -25 7 4 6
1 11 -9 11 -9 0 -13 -4 -10 -10 4 -6 -11 -10 -37 -10 -45 0 -116 -36 -147 -73
-28 -35 -49 -21 -61 41 -17 81 -17 80 -25 49z"/>
<path d="M2258 2691 c-21 -10 -62 -40 -93 -66 -32 -28 -61 -45 -69 -42 -19 7
-15 -37 7 -79 8 -16 12 -34 10 -41 -2 -7 1 -21 7 -32 6 -12 7 -21 3 -21 -16 0
-94 89 -116 132 -28 52 -74 78 -137 78 -62 0 -114 -16 -150 -47 -37 -31 -90
-120 -83 -139 3 -8 0 -14 -5 -14 -6 0 -14 9 -17 20 -4 13 -15 20 -30 20 l-24
0 24 -25 c14 -13 25 -32 25 -42 1 -10 7 -29 15 -43 14 -25 14 -24 15 17 0 35
7 50 36 83 20 21 33 44 29 50 -4 6 -3 9 2 8 4 -2 17 6 29 18 24 24 117 39 181
29 35 -5 36 -4 11 6 -16 6 -28 15 -28 20 0 5 -12 10 -27 10 -19 1 -22 3 -10 6
25 6 69 -5 62 -16 -2 -5 7 -12 23 -16 l27 -7 -24 -12 -24 -13 24 -6 c14 -4 32
-22 43 -41 10 -20 23 -33 28 -29 6 3 8 -2 4 -13 -3 -11 -1 -26 5 -34 8 -12 9
-11 5 6 -4 14 -2 21 8 21 18 0 31 -70 22 -114 -4 -15 -2 -70 3 -121 8 -78 15
-102 42 -143 29 -46 140 -149 160 -149 5 0 21 -19 35 -41 17 -28 29 -38 33
-30 6 9 25 -2 62 -34 30 -26 63 -51 74 -56 17 -9 -5 13 -50 50 -5 4 -30 30
-55 58 -25 28 -72 69 -105 91 -65 43 -88 66 -128 126 -20 30 -23 41 -14 51 7
7 16 11 21 8 8 -6 -18 40 -40 67 -31 40 -18 137 26 193 18 22 19 34 14 98 -4
42 -3 70 2 67 5 -4 25 10 44 30 l35 35 -35 -21 c-19 -12 -34 -27 -32 -33 1 -6
-2 -8 -8 -4 -6 3 -14 -4 -19 -17 -9 -21 -10 -21 -10 -3 -1 30 82 82 169 104
70 19 72 20 35 22 -39 2 -39 2 -7 6 20 3 43 -2 57 -11 13 -9 32 -13 41 -9 11
4 15 2 11 -4 -4 -6 16 -22 46 -37 50 -26 53 -30 76 -100 16 -49 21 -82 17
-104 -7 -28 -4 -33 25 -47 l31 -17 -5 34 c-3 18 -10 51 -16 73 -6 22 -8 58 -5
80 7 52 -22 97 -90 139 -42 25 -61 30 -130 33 -65 3 -88 0 -118 -16z"/>
<path d="M1530 2657 c0 -30 4 -46 10 -42 13 8 13 55 0 75 -7 11 -10 2 -10 -33z"/>
<path d="M1974 2674 c5 -42 21 -70 70 -125 23 -25 46 -54 53 -65 7 -10 -2 13
-18 51 -35 79 -47 97 -60 89 -5 -3 -10 1 -11 8 0 7 -2 18 -3 23 -2 6 -3 16 -4
23 0 7 -5 11 -10 8 -5 -4 -12 0 -15 6 -3 7 -4 -1 -2 -18z"/>
<path d="M1412 2650 c0 -25 4 -56 8 -70 6 -20 8 -14 8 25 0 28 -3 59 -8 70 -6
15 -9 9 -8 -25z"/>
<path d="M2590 2665 c0 -4 6 -18 14 -33 7 -15 17 -53 20 -84 4 -32 11 -60 15
-62 4 -3 5 8 3 25 -2 16 2 39 11 53 17 25 26 90 15 101 -3 4 -9 -16 -13 -42
-3 -27 -11 -55 -17 -63 -7 -11 -8 -6 -4 19 4 19 1 40 -5 47 -6 8 -9 21 -5 29
4 10 -1 15 -14 15 -11 0 -20 -2 -20 -5z"/>
<path d="M2955 2589 c-19 -17 -32 -35 -29 -41 3 -5 13 1 22 14 9 13 26 31 37
40 11 10 17 17 13 18 -4 0 -23 -14 -43 -31z"/>
<path d="M1336 2552 c7 -33 3 -35 -68 -48 -21 -3 -36 -11 -35 -17 1 -6 -9 -13
-23 -15 -14 -2 -30 -8 -36 -13 -6 -5 -20 -7 -32 -4 -22 4 -30 -9 -12 -20 6 -3
10 -2 10 3 0 6 9 8 21 5 11 -3 17 -9 12 -12 -4 -3 -8 -12 -9 -18 -2 -29 -5
-33 -24 -33 -12 0 -20 -7 -20 -17 0 -12 -3 -14 -8 -7 -4 7 -15 8 -29 3 -29
-11 -30 -23 -2 -14 15 5 19 4 15 -4 -9 -14 -4 -14 28 -1 52 19 24 0 -51 -37
-43 -21 -79 -41 -81 -45 -2 -4 -21 -8 -43 -8 -84 0 -197 -92 -223 -183 -9 -30
-25 -65 -36 -80 -11 -14 -20 -32 -20 -41 0 -20 -39 -104 -51 -112 -22 -13 -5
-36 44 -60 28 -15 72 -40 96 -57 24 -16 41 -25 37 -19 -9 14 -5 15 28 2 20 -7
24 -6 19 5 -3 8 -9 15 -13 15 -5 0 -41 20 -81 45 -41 25 -79 43 -86 40 -18 -6
-16 13 7 64 11 23 17 47 14 53 -9 14 16 56 37 61 11 3 22 21 29 48 18 65 70
123 145 160 63 31 105 35 170 15 17 -5 26 7 60 77 64 133 95 170 158 190 29 9
66 17 81 17 l27 0 -20 26 c-12 15 -21 33 -21 40 0 7 -4 16 -10 19 -6 4 -7 -5
-4 -23z m-249 -295 c9 0 10 -4 2 -13 -5 -6 -20 -9 -32 -6 -13 3 -16 7 -8 10
11 4 11 6 0 14 -10 7 -8 8 6 3 11 -4 26 -8 32 -8z"/>
<path d="M1397 2561 c-3 -13 -2 -32 3 -41 5 -10 7 -20 4 -23 -4 -4 128 -27
132 -23 1 0 -2 19 -6 41 -5 25 -8 31 -9 16 l-1 -24 -21 24 -21 24 7 -27 c6
-25 5 -27 -21 -22 -35 6 -64 22 -64 35 0 6 7 3 16 -6 21 -21 39 -14 41 16 2
23 2 23 -5 2 -6 -18 -10 -19 -23 -10 -9 7 -18 19 -21 27 -3 10 -6 7 -11 -9z"/>
<path d="M2380 2544 c-8 -1 -40 -6 -70 -9 -63 -7 -90 -23 -95 -57 -1 -13 -6
-32 -11 -42 -4 -12 -4 -17 2 -13 9 5 10 -7 5 -73 -1 -20 -3 -22 -11 -10 -7 11
-10 5 -12 -25 -4 -86 -3 -131 6 -150 8 -16 12 -6 22 50 7 39 13 85 13 103 1
21 5 31 12 27 7 -5 9 4 5 27 -17 114 -17 114 10 126 14 7 50 12 81 12 31 0 53
3 50 7 -4 3 -2 12 4 20 6 7 10 12 8 12 -2 -1 -11 -3 -19 -5z"/>
<path d="M2704 2503 c1 -27 -3 -73 -7 -103 -5 -30 -5 -52 -1 -48 3 4 14 0 22
-9 12 -12 17 -12 20 -3 3 7 0 15 -5 19 -18 11 -22 67 -8 94 8 15 10 27 4 27
-5 0 -9 16 -9 35 0 19 -4 35 -9 35 -4 0 -8 -21 -7 -47z"/>
<path d="M2811 2527 c-12 -15 -43 -98 -38 -103 1 -2 15 24 29 56 27 62 29 70
9 47z"/>
<path d="M2434 2482 l4 -43 -54 31 c-34 19 -54 25 -54 18 0 -16 209 -152 291
-190 39 -18 66 -38 79 -60 21 -35 26 -26 10 18 -6 15 -9 29 -7 31 2 2 26 -22
53 -53 35 -42 42 -54 23 -44 -23 13 -24 12 -6 -7 9 -11 14 -22 11 -26 -3 -3
27 -22 67 -41 103 -49 139 -85 139 -139 0 -23 -3 -52 -6 -65 -5 -19 -9 -20
-23 -10 -9 7 -13 9 -9 4 4 -5 -15 -32 -43 -61 -35 -37 -61 -55 -85 -60 -19 -3
-32 -10 -29 -16 4 -5 1 -9 -4 -9 -6 0 -11 -4 -11 -9 0 -13 18 -8 69 17 25 12
53 22 62 22 10 0 21 9 24 20 3 11 10 20 15 20 4 0 18 16 29 36 18 30 21 49 19
112 l-3 76 -75 57 c-87 66 -80 60 -126 122 -19 26 -52 56 -74 67 -21 11 -41
28 -43 37 -4 16 -5 16 -6 -1 -2 -29 -52 -14 -140 43 -71 45 -77 52 -88 97
l-13 49 4 -43z"/>
<path d="M2259 2478 c-6 -10 -9 -40 -7 -65 l3 -47 21 65 c17 53 18 66 7 66 -8
0 -19 -9 -24 -19z"/>
<path d="M2821 2459 c-13 -22 -21 -42 -19 -45 3 -2 15 14 27 37 13 22 21 42
19 45 -3 2 -15 -14 -27 -37z"/>
<path d="M2271 2351 c-44 -174 -45 -217 -6 -273 35 -49 106 -92 178 -108 26
-5 67 -19 90 -30 l42 -21 -30 26 c-16 13 -34 25 -38 25 -5 0 -15 6 -22 14 -12
11 -8 14 28 19 23 3 46 2 52 -4 5 -5 14 -9 20 -9 5 0 1 7 -10 15 -14 11 -32
13 -67 9 -49 -7 -113 10 -102 27 3 5 -8 8 -23 7 -29 -2 -76 24 -103 57 -24 28
-21 140 6 253 14 57 24 108 22 114 -2 5 -18 -50 -37 -121z"/>
<path d="M1860 2444 l-35 -14 50 6 c50 6 51 6 70 -30 11 -20 23 -36 27 -36 3
0 10 -9 13 -20 4 -11 10 -18 15 -15 5 3 11 -1 14 -7 3 -7 2 0 -1 16 -7 34 -53
106 -54 85 0 -8 -4 -4 -9 9 -11 25 -36 27 -90 6z"/>
<path d="M2330 2450 c0 -10 77 -63 130 -90 36 -18 15 0 -62 53 -38 25 -68 42
-68 37z"/>
<path d="M1375 2429 c-110 -24 -121 -30 -157 -77 -18 -26 -39 -62 -46 -79 -7
-18 -17 -46 -23 -62 -6 -17 -18 -31 -27 -33 -11 -2 -7 -7 12 -16 28 -12 28
-12 22 14 -6 23 -5 26 7 16 12 -10 17 -5 31 28 9 23 14 46 10 51 -18 29 113
111 201 125 l50 9 -45 6 -45 6 57 1 c66 2 102 -9 136 -43 21 -21 24 -32 19
-66 -3 -22 -2 -38 1 -34 9 9 43 -95 35 -108 -3 -5 -2 -7 3 -4 6 3 28 -19 49
-50 22 -30 45 -61 52 -68 7 -7 10 -15 8 -19 -3 -3 -2 -4 2 -1 3 3 13 -1 21 -8
13 -9 14 -9 8 1 -4 6 -4 12 -1 12 8 0 65 -121 65 -138 0 -27 64 -139 98 -170
45 -42 53 -34 14 15 -17 21 -50 90 -75 153 -40 101 -52 122 -101 170 -31 30
-56 59 -56 65 0 5 13 -6 30 -25 16 -19 29 -29 30 -22 0 17 -48 65 -59 58 -13
-8 -83 73 -75 85 4 7 9 7 13 2 8 -13 51 -36 57 -31 2 3 -10 17 -26 33 -17 16
-30 37 -30 46 0 10 -8 20 -18 23 -13 4 -18 16 -18 40 0 41 -27 84 -60 96 -30
12 -114 11 -169 -1z"/>
<path d="M2320 2422 c0 -11 49 -42 146 -93 33 -17 65 -40 70 -51 11 -24 91
-61 100 -47 3 5 -8 14 -25 20 -17 6 -29 15 -26 20 3 4 -27 25 -67 45 -40 20
-84 44 -98 53 -59 41 -100 62 -100 53z"/>
<path d="M2143 2364 c-9 -21 -17 -66 -17 -99 -1 -52 3 -67 33 -110 18 -27 45
-60 60 -73 l26 -24 -25 8 c-14 3 -28 12 -32 18 -4 6 -10 7 -14 4 -3 -4 1 -14
10 -23 9 -9 16 -14 16 -11 0 4 16 -1 36 -9 20 -8 38 -15 40 -15 2 0 -19 33
-48 72 -28 40 -51 78 -51 85 0 7 -4 10 -9 7 -11 -7 -28 41 -28 81 0 19 7 53
16 75 21 53 10 65 -13 14z"/>
<path d="M1375 2365 c-24 -12 -25 -13 -5 -8 14 4 43 10 65 14 l40 6 -35 1
c-19 1 -48 -5 -65 -13z"/>
<path d="M945 2343 c-44 -14 -82 -30 -85 -34 -3 -4 -17 -11 -33 -14 -15 -4
-24 -11 -21 -16 3 -5 -2 -9 -10 -9 -8 0 -23 -13 -33 -30 -9 -16 -23 -30 -29
-30 -14 0 -26 -51 -15 -63 4 -4 23 13 41 38 51 68 87 91 181 116 95 25 120 39
63 35 -22 -2 -27 -1 -12 1 14 2 32 11 38 19 16 19 9 18 -85 -13z"/>
<path d="M1746 2362 c-4 -7 -2 -12 4 -12 7 0 9 -7 6 -16 -3 -8 -2 -13 3 -10 8
5 21 -19 55 -107 8 -20 19 -36 23 -35 12 4 48 -24 60 -47 10 -18 11 -17 10 7
-1 14 -5 24 -9 21 -5 -2 -8 2 -8 10 0 8 -9 22 -19 31 -11 10 -22 29 -26 44 -5
20 -8 23 -15 12 -11 -18 -11 -18 -47 54 -18 35 -33 54 -37 48z"/>
<path d="M2753 2351 c-1 -10 9 -28 21 -40 23 -21 23 -21 21 -1 -1 12 -10 30
-21 40 -19 20 -20 20 -21 1z"/>
<path d="M1448 2343 c-16 -2 -28 -9 -28 -14 0 -5 -7 -9 -15 -9 -26 0 -109 -32
-134 -51 l-24 -19 24 2 c24 3 25 1 28 -46 1 -14 4 -17 11 -10 8 8 8 19 0 38
-5 15 -10 31 -10 36 0 5 37 21 83 35 72 22 131 47 102 43 -5 0 -22 -3 -37 -5z"/>
<path d="M1663 2324 c2 -16 17 -58 34 -94 17 -36 30 -66 28 -68 -2 -2 -17 4
-35 13 -18 9 -33 15 -35 13 -2 -2 18 -15 45 -29 l48 -26 -1 34 c-1 18 -5 33
-9 33 -5 0 -6 12 -2 28 4 22 3 24 -6 12 -9 -12 -10 -9 -5 13 3 18 2 26 -4 23
-5 -4 -12 2 -16 13 -3 10 -14 29 -25 41 l-20 23 3 -29z"/>
<path d="M1710 2345 c0 -14 24 -54 31 -50 8 6 32 -94 32 -137 0 -24 2 -25 12
-11 10 14 15 9 30 -38 10 -30 24 -67 32 -84 l14 -30 -4 45 c-5 53 -120 310
-139 310 -4 0 -8 -2 -8 -5z"/>
<path d="M2926 2294 c-3 -9 -6 -25 -6 -37 1 -21 1 -21 15 3 8 14 14 31 15 38
0 17 -17 15 -24 -4z"/>
<path d="M2815 2278 c14 -47 63 -111 100 -130 20 -11 20 -11 1 10 -14 17 -17
31 -13 64 4 27 2 37 -4 27 -5 -7 -9 -22 -9 -31 0 -24 -17 -23 -30 2 -12 22
-10 41 5 52 6 4 0 8 -12 8 -13 0 -23 5 -23 10 0 6 -5 10 -11 10 -6 0 -8 -9 -4
-22z"/>
<path d="M1384 2270 c-28 -11 -38 -27 -23 -36 8 -4 9 -3 5 4 -5 8 1 12 16 12
18 0 24 -6 26 -26 1 -14 6 -33 11 -42 14 -26 26 50 12 77 -13 23 -16 24 -47
11z"/>
<path d="M1541 2246 c-10 -12 -9 -21 2 -42 l15 -28 -2 42 c0 23 -1 42 -2 42
-1 0 -7 -6 -13 -14z"/>
<path d="M1332 2199 c-11 -16 -10 -31 4 -80 9 -33 19 -58 21 -55 2 2 -1 22 -7
44 -9 30 -9 44 -1 61 7 12 8 28 4 36 -7 12 -11 11 -21 -6z"/>
<path d="M2673 2203 c-4 -10 -11 -21 -16 -25 -6 -3 -23 -41 -38 -83 -28 -76
-28 -76 -6 -69 12 3 22 7 23 8 0 0 8 22 18 49 10 26 21 47 26 47 5 0 8 20 7
45 -2 49 -4 54 -14 28z"/>
<path d="M1260 2178 c0 -20 13 -79 29 -131 17 -53 33 -112 37 -131 6 -37 24
-50 24 -18 0 9 3 28 6 42 5 20 4 22 -6 10 -9 -12 -10 -9 -5 14 7 32 -24 134
-62 205 l-23 44 0 -35z"/>
<path d="M925 2169 c-41 -23 -124 -113 -130 -140 -4 -15 -13 -33 -21 -39 -7
-7 -11 -16 -8 -22 7 -12 34 10 34 28 0 8 6 11 16 7 14 -5 16 -1 12 25 -4 25
-2 29 9 21 10 -9 13 -7 13 9 0 11 7 25 15 32 13 11 13 8 4 -20 -14 -38 5 -67
31 -50 12 8 11 10 -7 10 -14 0 -23 6 -23 15 0 8 4 15 9 15 5 0 15 16 22 35 13
34 23 40 64 36 10 -1 32 3 48 9 22 7 37 6 65 -7 21 -9 42 -15 47 -14 6 2 7 0
3 -4 -3 -4 1 -14 10 -24 9 -9 25 -28 35 -41 17 -25 17 -24 1 8 -8 19 -14 36
-12 38 2 2 14 -17 26 -42 12 -25 18 -43 12 -39 -26 16 68 -159 122 -227 53
-68 98 -168 98 -220 0 -56 20 -66 21 -10 0 20 2 48 3 60 3 22 -112 218 -135
232 -14 9 -89 152 -89 171 0 24 -38 110 -47 107 -4 -2 -26 8 -48 22 -31 19
-56 25 -110 28 -40 1 -79 -2 -90 -9z"/>
<path d="M2489 2172 c10 -7 10 -11 1 -14 -6 -2 5 -11 24 -21 20 -9 36 -13 36
-8 0 5 -8 12 -17 14 -11 3 -6 6 12 7 l30 2 -30 8 c-16 4 -39 11 -50 15 -14 5
-16 4 -6 -3z"/>
<path d="M640 2161 c0 -6 9 -19 19 -28 18 -15 18 -17 3 -33 -10 -10 -26 -20
-37 -23 -15 -4 -13 -5 8 -6 15 0 27 4 27 10 0 5 5 7 11 3 8 -4 4 -11 -10 -18
-12 -7 -19 -14 -16 -17 2 -3 -9 -3 -26 -1 -22 3 -30 1 -25 -7 4 -6 16 -11 27
-11 11 0 17 -4 14 -10 -3 -5 -19 -10 -36 -10 -16 0 -29 -4 -29 -10 0 -5 5 -10
11 -10 5 0 7 -5 4 -10 -4 -6 -11 -8 -16 -4 -6 3 -20 -6 -32 -19 -31 -36 -75
-51 -179 -62 -33 -3 -48 -1 -48 7 0 6 -3 9 -6 6 -3 -4 -1 -16 6 -27 14 -27 4
-47 -16 -30 -12 10 -13 9 -8 -5 6 -14 3 -15 -36 -1 -55 19 -61 19 -30 -3 29
-20 37 -42 14 -42 -11 0 -14 -6 -9 -21 5 -15 4 -19 -4 -15 -7 4 -11 -1 -11
-13 0 -11 -4 -22 -9 -25 -4 -3 -11 -20 -15 -38 -5 -23 -9 -29 -15 -20 -6 10
-10 5 -14 -16 -8 -38 -35 -65 -56 -57 -33 14 -101 14 -101 0 0 -16 32 -25 97
-25 47 0 52 2 62 28 l11 27 -4 -27 c-2 -15 1 -25 6 -22 5 4 8 -4 6 -17 -3 -22
-8 -24 -55 -24 -28 0 -55 -3 -59 -7 -4 -5 9 -8 29 -8 90 0 123 -45 113 -149
-5 -46 -13 -71 -27 -84 -10 -10 -19 -13 -19 -7 0 13 -26 13 -67 -2 -36 -13
-52 -6 -35 15 9 11 6 16 -15 26 -23 11 -25 10 -14 -3 10 -12 9 -17 -8 -28 -12
-7 -21 -23 -21 -35 0 -13 1 -23 3 -23 1 0 24 7 51 15 27 8 75 15 106 15 l57 0
12 95 c11 95 11 97 -14 139 -31 54 -32 93 0 186 26 76 47 116 74 138 34 27 92
52 122 52 85 0 166 53 244 159 25 34 42 61 38 61 -3 0 2 9 12 20 18 20 18 21
0 38 -10 9 -15 12 -11 5 13 -23 -17 -26 -36 -3 -10 12 -18 17 -18 11z"/>
<path d="M2380 2166 c0 -8 112 -67 117 -62 3 2 -22 19 -56 35 -34 17 -61 29
-61 27z"/>
<path d="M2334 2132 c3 -5 41 -26 83 -47 62 -30 74 -39 59 -44 -12 -5 -16 -10
-9 -14 6 -4 21 -3 33 1 l22 8 -24 16 c-40 27 -170 90 -164 80z"/>
<path d="M2576 2092 c-14 -28 -31 -52 -38 -55 -8 -4 -7 -6 4 -6 12 -1 27 17
44 50 14 28 23 53 20 56 -2 3 -16 -18 -30 -45z"/>
<path d="M2940 2138 c0 -2 14 -17 30 -33 28 -27 30 -27 30 -8 0 11 -8 23 -17
27 -10 3 -24 9 -30 12 -7 3 -13 4 -13 2z"/>
<path d="M2786 2115 c17 -13 17 -14 2 -15 -20 0 -74 -80 -83 -122 -4 -16 -10
-28 -15 -28 -4 0 -11 -7 -14 -16 -6 -15 -4 -15 16 -1 13 8 22 21 20 27 -1 6 1
9 6 6 11 -7 82 70 74 80 -4 4 -2 4 4 1 12 -7 74 28 74 42 0 5 -21 16 -47 25
-57 20 -62 20 -37 1z"/>
<path d="M1077 2100 c3 -12 19 -28 35 -36 l30 -16 -27 36 c-31 40 -46 46 -38
16z"/>
<path d="M1778 2109 c-3 -8 -1 -25 5 -39 7 -18 11 -21 14 -9 5 22 -12 66 -19
48z"/>
<path d="M2680 2046 c-17 -41 -27 -53 -39 -48 -14 5 -14 4 -1 -11 14 -14 18
-10 44 44 15 33 26 62 23 65 -2 3 -15 -20 -27 -50z"/>
<path d="M1240 2059 c1 -16 49 -129 49 -114 0 14 -35 114 -43 122 -3 3 -6 0
-6 -8z"/>
<path d="M2882 2048 c-7 -7 -12 -16 -12 -21 0 -6 -19 -42 -41 -81 -23 -39 -42
-77 -42 -83 0 -7 -3 -13 -7 -13 -3 0 -6 -9 -7 -20 -1 -14 2 -18 12 -13 28 16
105 95 105 107 0 7 11 35 26 61 14 26 23 54 20 61 -7 17 -38 18 -54 2z"/>
<path d="M2221 2023 c14 -16 59 -36 66 -29 3 3 -14 14 -37 25 -31 15 -38 16
-29 4z"/>
<path d="M1154 2023 c3 -6 2 -14 -4 -18 -6 -4 -5 -18 4 -39 7 -18 12 -45 11
-60 -2 -17 4 -35 17 -48 23 -23 34 -18 19 10 -13 25 -14 45 -2 38 5 -3 16 -29
26 -58 16 -50 50 -91 98 -119 17 -10 17 -9 1 23 -9 18 -33 54 -54 79 -21 25
-47 60 -57 77 -11 18 -23 29 -28 24 -5 -4 -5 -2 -1 5 4 7 0 26 -9 43 -8 16
-15 32 -14 36 0 3 -3 9 -7 12 -4 4 -4 2 0 -5z"/>
<path d="M1510 2025 c0 -3 10 -10 23 -15 17 -7 18 -9 4 -9 -22 -1 -93 -37
-102 -51 -4 -6 10 -4 32 6 147 63 193 68 243 24 19 -17 25 -25 13 -18 -18 10
-25 10 -35 0 -6 -6 -25 -12 -40 -12 -31 0 -135 -49 -162 -75 -9 -9 -16 -28
-15 -43 l0 -27 12 23 c21 44 159 91 230 77 27 -5 29 -4 13 6 -18 11 -100 8
-141 -5 -11 -3 -2 3 20 14 27 14 52 19 78 16 34 -4 36 -2 25 12 -12 14 -10 14
10 3 12 -6 22 -8 22 -4 0 4 5 1 10 -7 7 -11 10 -11 10 -2 0 19 -45 61 -81 76
-23 9 -43 11 -74 4 -29 -6 -50 -6 -64 1 -22 12 -31 14 -31 6z"/>
<path d="M2809 1987 c-38 -54 -85 -135 -71 -122 15 14 113 165 107 165 -3 0
-19 -19 -36 -43z"/>
<path d="M1025 2010 c-17 -7 -16 -9 10 -9 17 0 37 4 45 9 12 8 10 10 -10 9
-14 0 -34 -4 -45 -9z"/>
<path d="M2095 2000 c6 -10 -28 -15 -70 -11 -15 1 -17 -1 -8 -10 9 -9 24 -8
63 1 36 9 48 15 39 21 -19 12 -32 11 -24 -1z"/>
<path d="M2255 1982 c16 -16 181 -82 207 -82 13 0 43 -9 68 -20 l45 -20 -30
25 c-31 26 -57 36 -180 73 -109 33 -121 36 -110 24z"/>
<path d="M734 1958 c-4 -13 -15 -34 -25 -47 -21 -26 -25 -86 -7 -97 6 -4 8 -3
5 2 -9 15 11 94 28 111 8 8 15 23 15 34 0 26 -7 24 -16 -3z"/>
<path d="M945 1973 c10 -3 29 -12 42 -20 12 -8 32 -13 45 -10 20 4 19 4 -5 6
-16 0 -26 5 -23 10 3 5 -8 11 -25 15 -36 7 -64 6 -34 -1z"/>
<path d="M1945 1965 c-32 -15 -17 -19 34 -9 17 4 28 10 25 15 -7 12 -23 10
-59 -6z"/>
<path d="M2134 1970 c-6 -6 -59 -22 -119 -38 -60 -15 -101 -28 -91 -30 9 -2
37 3 63 12 25 9 57 13 72 10 21 -5 23 -3 11 6 -13 9 -12 10 5 6 11 -3 44 1 74
7 52 13 53 13 27 25 -32 14 -30 14 -42 2z"/>
<path d="M855 1907 c2 -26 14 -64 25 -85 12 -20 19 -29 16 -19 -15 47 -15 69
-1 33 8 -21 13 -42 10 -46 -6 -10 27 -87 49 -115 14 -18 14 -16 1 29 -8 26
-12 52 -10 57 3 4 -8 38 -25 75 -16 36 -28 70 -25 74 2 4 -2 16 -11 26 -14 18
-15 18 -5 -2 6 -12 7 -24 4 -28 -4 -4 -13 6 -20 21 -13 27 -13 26 -8 -20z"/>
<path d="M627 1922 c-23 -26 -129 -82 -154 -82 -37 0 -138 -41 -173 -70 l-35
-29 -3 -108 c-4 -160 -2 -294 4 -326 4 -21 13 -29 35 -34 16 -3 28 -8 25 -10
-7 -8 -119 -24 -181 -27 -100 -4 -181 -35 -128 -49 17 -4 17 -5 1 -6 -10 0
-18 -7 -18 -14 0 -11 20 -9 92 9 51 13 102 24 113 25 13 1 10 4 -10 8 -27 7
-25 8 25 15 79 12 177 33 190 41 18 11 -9 25 -50 25 -30 0 -38 6 -57 39 -12
21 -25 59 -28 82 l-6 44 14 -35 c8 -19 19 -47 25 -62 6 -16 18 -28 27 -28 20
0 19 10 -5 40 -11 14 -20 29 -20 35 0 5 7 -1 16 -13 8 -12 24 -27 35 -33 18
-9 19 -8 11 8 -6 10 -22 29 -36 42 -29 27 -36 51 -8 30 9 -7 7 -2 -5 12 -22
24 -44 108 -42 153 1 16 3 13 9 -9 6 -20 7 -10 4 30 -5 56 -3 62 26 98 32 38
82 69 133 81 15 3 27 2 27 -3 0 -5 9 -7 20 -4 12 3 20 0 20 -8 0 -7 3 -10 6
-6 6 6 42 -25 39 -33 -2 -3 17 -17 40 -32 31 -18 42 -22 38 -11 -5 13 -2 13
20 -2 15 -9 25 -21 22 -25 -3 -5 3 -6 12 -4 10 3 27 -2 38 -11 20 -15 20 -15
0 -8 -34 11 -13 -3 55 -37 l65 -32 -35 37 c-28 30 -30 35 -12 25 13 -6 26 -10
28 -7 2 2 -24 16 -58 32 -35 15 -81 36 -103 46 -52 25 -153 88 -141 89 6 0 1
6 -10 14 -19 14 -19 15 1 21 11 3 38 15 60 25 l40 20 -24 -20 c-13 -11 -18
-20 -12 -20 6 0 14 0 19 0 4 0 7 3 7 8 0 4 9 19 19 34 22 34 17 57 -7 30z"/>
<path d="M950 1933 c0 -5 11 -20 25 -33 14 -13 25 -27 25 -32 0 -16 -25 -3
-46 25 -18 23 -23 25 -28 12 -3 -9 -10 -14 -16 -10 -5 3 13 -30 41 -75 27 -44
52 -95 56 -113 9 -43 63 -157 63 -132 0 11 -8 36 -19 55 -29 56 -34 77 -16 77
9 0 14 -6 11 -14 -3 -7 8 -27 24 -43 17 -17 30 -34 31 -38 4 -40 12 -69 19
-76 13 -13 17 -7 25 29 5 24 4 27 -5 15 -10 -13 -11 -12 -6 4 4 12 -7 33 -34
66 -54 65 -51 77 5 15 24 -27 45 -45 45 -40 0 6 -20 31 -45 55 -25 24 -45 40
-45 35 0 -5 -11 7 -25 27 -29 43 -32 56 -8 37 15 -13 15 -12 0 12 -10 14 -14
29 -10 34 5 4 2 5 -6 0 -9 -5 -12 -3 -9 5 2 7 12 14 21 16 9 1 15 -1 12 -6 -3
-4 4 -28 15 -52 11 -23 18 -32 15 -18 -5 25 -5 25 6 3 7 -13 16 -23 21 -23 5
0 6 -6 2 -12 -4 -7 -4 -10 0 -6 10 9 56 -40 57 -61 0 -9 9 -34 20 -56 16 -34
19 -36 15 -12 -3 26 -2 27 14 12 20 -18 34 -7 19 15 -19 32 -7 28 27 -8 l37
-37 -31 37 c-42 51 -86 127 -78 136 4 3 23 -11 42 -33 l35 -40 -21 40 c-23 45
-130 202 -130 191 0 -3 11 -24 25 -46 33 -52 32 -60 -3 -27 -16 15 -31 25 -34
22 -2 -3 -13 5 -24 17 l-19 23 24 -20 c16 -14 22 -15 17 -5 -3 8 -9 23 -12 33
-4 9 -14 17 -23 16 -11 0 -12 -2 -3 -6 10 -4 10 -8 1 -19 -9 -11 -5 -20 20
-43 33 -31 93 -113 104 -144 6 -17 5 -17 -22 -1 -16 9 -40 40 -54 70 -15 30
-32 54 -37 54 -6 0 -33 23 -61 52 -27 28 -49 47 -49 41z m43 -78 c15 3 16 1 6
-11 -9 -11 -9 -18 -1 -26 15 -15 16 -31 1 -22 -8 4 -9 -1 -4 -17 9 -28 3 -24
-15 10 -9 18 -9 22 0 16 8 -5 11 -3 8 6 -3 8 -10 14 -16 14 -15 0 -53 61 -44
70 4 3 16 -5 27 -18 11 -14 28 -23 38 -22z"/>
<path d="M105 1920 c3 -5 13 -10 21 -10 8 0 14 -4 14 -10 0 -5 7 -10 15 -10
23 0 18 16 -10 28 -32 15 -48 15 -40 2z"/>
<path d="M809 1913 c-1 -10 -1 -21 0 -25 0 -5 -4 -8 -10 -8 -6 0 -8 9 -4 23 5
19 5 20 -5 4 -8 -13 -9 -22 -1 -31 6 -8 9 -22 5 -32 -3 -11 3 -5 15 11 11 17
21 38 21 47 0 23 -20 34 -21 11z"/>
<path d="M1975 1894 c-46 -23 -47 -24 -15 -18 19 3 46 7 60 9 30 3 110 33 92
34 -7 1 -29 -6 -49 -14 -45 -19 -52 -19 -27 0 31 23 -3 17 -61 -11z"/>
<path d="M1572 1869 c-29 -11 -50 -24 -47 -29 3 -4 -2 -13 -10 -20 -8 -7 -15
-16 -15 -21 0 -7 36 7 173 64 73 32 -20 37 -101 6z"/>
<path d="M2090 1868 c-36 -5 -78 -13 -95 -18 -27 -8 -26 -8 10 -5 l40 4 -40
-13 c-36 -12 -37 -13 -15 -19 13 -3 29 -2 35 3 16 13 140 40 193 41 l47 1 -40
9 c-46 9 -49 9 -135 -3z"/>
<path d="M61 1841 c-9 -6 -5 -10 16 -13 36 -5 55 0 47 13 -7 11 -45 11 -63 0z"/>
<path d="M2166 1822 c-2 -4 14 -6 37 -4 68 5 76 10 20 11 -28 0 -54 -2 -57 -7z"/>
<path d="M1590 1799 c-19 -10 -27 -19 -18 -19 9 0 18 -6 21 -12 5 -18 37 8 38
31 0 10 2 12 6 3 2 -6 9 -10 14 -6 12 7 2 24 -14 23 -7 0 -28 -9 -47 -20z"/>
<path d="M2962 1793 c-6 -16 -13 -36 -16 -46 -3 -10 -10 -15 -16 -12 -5 3 -10
2 -10 -4 0 -5 5 -11 11 -13 7 -2 6 -15 -4 -38 -8 -19 -20 -54 -26 -77 -6 -23
-23 -56 -37 -73 -25 -29 -25 -30 -5 -30 12 0 21 4 21 8 0 5 7 17 15 28 13 16
12 12 -1 -31 -9 -27 -17 -95 -20 -150 -5 -122 -17 -161 -55 -180 -16 -9 -29
-20 -29 -25 0 -6 -6 -10 -14 -10 -8 0 -17 -7 -20 -16 -4 -10 -2 -13 7 -8 6 4
1 -4 -13 -18 -14 -13 -29 -22 -34 -20 -5 3 -6 0 -2 -7 6 -8 2 -11 -10 -9 -10
2 -19 -3 -20 -9 -3 -26 -5 -28 -13 -14 -5 7 -14 10 -20 7 -6 -4 -9 -12 -6 -17
9 -13 -9 -11 -23 3 -8 8 -14 5 -21 -15 -6 -14 -25 -34 -43 -43 -30 -16 -31
-18 -13 -25 17 -6 15 -8 -9 -8 -32 -1 -117 -45 -182 -95 -23 -18 -63 -43 -90
-56 -27 -14 -53 -30 -59 -37 -5 -6 -21 -13 -35 -15 -14 -2 -24 -7 -22 -11 3
-9 -134 -91 -211 -126 -25 -12 -61 -21 -80 -21 -20 0 -37 -6 -40 -14 -4 -11
-131 -52 -186 -61 -8 -1 -17 -7 -18 -12 -4 -12 -2 -12 193 37 112 28 207 70
309 136 31 19 76 44 100 54 25 11 45 24 45 31 0 6 7 9 15 5 8 -3 14 0 12 7 -1
7 4 11 11 9 17 -3 39 9 157 86 181 119 402 290 426 329 20 32 24 55 30 178 6
150 14 197 63 428 4 15 5 27 2 27 -2 0 -8 -12 -14 -27z m-432 -873 c0 -5 -4
-10 -10 -10 -5 0 -55 -30 -110 -66 -56 -36 -103 -64 -106 -61 -5 4 70 55 176
119 52 32 50 31 50 18z"/>
<path d="M1228 1773 c38 -49 82 -87 124 -109 l30 -16 -18 31 c-10 16 -27 32
-40 35 -12 3 -46 27 -75 53 l-54 48 33 -42z"/>
<path d="M2060 1794 c-71 -16 -83 -23 -71 -42 6 -10 14 -9 37 3 16 8 45 15 64
16 19 0 64 6 100 14 l65 13 -52 1 c-28 1 -57 3 -65 5 -7 2 -42 -2 -78 -10z"/>
<path d="M0 1795 c0 -7 61 -37 66 -32 9 9 -27 37 -47 37 -10 0 -19 -2 -19 -5z"/>
<path d="M2143 1753 c-7 -3 -13 -13 -13 -24 0 -15 5 -18 25 -14 14 3 36 7 49
10 43 9 38 30 -8 31 -22 1 -47 -1 -53 -3z"/>
<path d="M383 1730 c-28 -17 -33 -25 -32 -57 1 -37 1 -37 10 -11 7 17 26 34
55 47 25 12 42 26 39 31 -10 16 -37 12 -72 -10z"/>
<path d="M2846 1686 c-9 -19 -16 -49 -15 -68 0 -31 2 -30 20 21 10 29 24 60
30 67 9 11 8 14 -4 14 -8 0 -22 -15 -31 -34z"/>
<path d="M2976 1688 c-14 -89 -13 -98 6 -98 16 0 18 9 18 65 0 68 -15 89 -24
33z"/>
<path d="M980 1692 c0 -7 8 -29 17 -50 9 -20 27 -62 39 -92 19 -45 23 -50 23
-27 1 15 -3 27 -9 27 -5 0 -10 6 -10 13 -1 17 -59 145 -60 129z"/>
<path d="M451 1679 c-34 -13 -21 -21 17 -10 26 8 38 5 67 -15 20 -13 41 -22
46 -18 5 3 9 2 7 -3 -2 -12 82 -97 112 -113 l25 -13 -25 24 c-14 13 -38 41
-54 61 -30 40 -121 98 -152 97 -11 0 -30 -5 -43 -10z"/>
<path d="M650 1639 c70 -63 130 -109 144 -109 6 0 -2 8 -19 18 -16 11 -46 37
-66 58 -37 42 -91 84 -106 84 -4 0 17 -23 47 -51z"/>
<path d="M810 1685 c0 -6 63 -35 75 -35 3 0 5 4 5 9 0 9 -8 12 -62 27 -10 3
-18 3 -18 -1z"/>
<path d="M320 1661 c-5 -11 -10 -49 -10 -84 0 -58 4 -71 36 -118 20 -30 43
-58 51 -62 8 -5 33 -28 56 -51 23 -23 64 -57 91 -76 27 -18 64 -50 83 -71 50
-56 63 -48 15 9 -60 72 -115 159 -107 171 3 6 1 11 -4 11 -17 0 -13 -32 9 -67
11 -18 15 -33 9 -33 -14 0 -89 82 -89 98 0 6 -5 12 -11 12 -5 0 -7 -4 -4 -10
3 -5 2 -10 -3 -10 -12 0 -47 40 -61 70 -11 22 -11 23 2 8 8 -10 19 -18 25 -18
6 0 12 -5 14 -12 2 -6 12 -12 21 -14 14 -2 15 1 7 17 -6 10 -15 18 -21 16 -6
-1 -27 26 -46 61 -38 68 -53 78 -28 19 8 -21 13 -37 10 -37 -16 0 -33 72 -31
128 2 34 1 62 0 62 -2 0 -8 -9 -14 -19z"/>
<path d="M1590 1657 c0 -4 7 -24 15 -44 8 -19 15 -44 15 -55 0 -32 40 -115 56
-115 19 0 18 1 -12 53 -15 25 -27 58 -29 74 -2 25 -44 108 -45 87z"/>
<path d="M945 1608 c14 -25 33 -52 42 -60 21 -16 -21 57 -49 87 -14 15 -12 7
7 -27z"/>
<path d="M501 1602 c30 -22 58 -37 62 -35 10 6 -12 33 -27 33 -6 0 -22 9 -36
20 -14 11 -31 20 -39 20 -8 0 10 -17 40 -38z"/>
<path d="M520 1636 c0 -3 24 -24 53 -47 28 -23 53 -50 53 -60 2 -30 3 -30 27
-18 19 10 20 10 10 -2 -9 -11 -8 -19 3 -33 8 -11 14 -24 14 -30 0 -5 -7 -1
-14 10 -9 11 -6 -5 7 -37 12 -32 25 -55 30 -52 4 2 3 12 -2 21 -4 9 -6 23 -3
31 3 8 0 11 -7 7 -6 -4 -11 -3 -11 3 0 18 20 23 26 7 3 -9 10 -14 14 -11 4 2
15 -4 25 -15 9 -10 24 -16 33 -13 10 3 6 -5 -10 -21 -33 -32 -34 -36 -8 -31
28 5 41 15 35 26 -3 5 1 6 10 3 13 -5 10 -12 -17 -36 l-33 -30 35 20 c19 11
51 27 70 35 l35 15 -40 -1 c-36 -2 -40 0 -39 21 1 18 -15 34 -65 70 -36 25
-89 67 -117 92 -49 44 -114 87 -114 76z m210 -173 c0 4 18 -5 40 -19 22 -15
40 -29 40 -31 0 -3 -11 2 -25 11 -29 19 -39 20 -29 4 5 -7 -7 -1 -26 13 -18
14 -40 36 -49 50 -13 21 -11 21 17 -5 18 -17 32 -27 32 -23z"/>
<path d="M1640 1634 c0 -30 78 -209 87 -200 2 2 -4 21 -15 43 -11 21 -27 64
-36 95 -9 31 -21 60 -26 63 -6 3 -10 3 -10 -1z"/>
<path d="M748 1609 c34 -22 42 -32 17 -23 -8 4 -15 4 -15 1 0 -3 28 -19 63
-35 105 -51 189 -158 191 -246 1 -56 21 -38 28 26 7 60 -12 92 -107 180 -47
44 -91 74 -132 92 -75 31 -89 33 -45 5z"/>
<path d="M1697 1576 c15 -30 29 -54 31 -52 6 7 -34 93 -47 100 -6 4 1 -17 16
-48z"/>
<path d="M446 1593 c14 -15 23 -32 20 -39 -2 -6 15 -26 39 -43 27 -19 42 -37
39 -45 -3 -8 0 -17 7 -22 8 -4 10 -3 5 5 -4 6 -3 18 4 26 7 9 8 15 0 20 -5 3
-10 3 -10 -2 0 -4 -15 15 -34 43 -29 43 -73 84 -90 84 -3 0 6 -12 20 -27z"/>
<path d="M386 1583 c9 -36 24 -66 31 -60 7 8 -19 87 -29 87 -5 0 -5 -12 -2
-27z"/>
<path d="M733 1527 c45 -46 96 -88 114 -94 26 -10 31 -9 26 3 -3 8 -13 14 -22
15 -12 0 -12 2 4 8 17 7 15 10 -18 20 -20 7 -35 16 -32 21 3 5 -3 11 -13 14
-11 4 -45 27 -77 51 -31 25 -59 45 -61 45 -2 0 34 -37 79 -83z"/>
<path d="M566 1561 c-4 -5 -2 -12 4 -16 6 -4 7 -11 4 -17 -4 -7 -14 -2 -25 13
-10 13 -21 21 -24 17 -8 -7 30 -43 45 -43 5 0 20 -22 34 -48 28 -53 33 -68 14
-49 -16 16 -25 15 -25 -2 0 -8 6 -12 14 -9 7 3 13 0 13 -6 0 -6 5 -11 11 -11
5 0 7 5 3 12 -4 7 -3 8 5 4 9 -6 9 -11 1 -21 -7 -9 -5 -25 9 -56 11 -24 20
-36 20 -26 1 19 21 24 21 5 0 -6 2 -9 5 -6 3 3 3 13 -1 22 -5 13 -9 14 -20 5
-16 -13 -19 2 -3 18 7 7 0 28 -25 69 -20 32 -36 65 -36 73 0 8 -8 20 -17 28
-16 13 -16 14 -1 10 10 -4 15 0 14 10 -3 19 -32 37 -40 24z"/>
<path d="M2970 1529 c0 -24 4 -38 10 -34 6 3 10 -5 10 -19 0 -14 -4 -27 -9
-30 -5 -4 -7 4 -4 16 4 17 3 20 -6 12 -16 -15 -27 -84 -13 -84 25 0 42 45 42
112 0 54 -3 68 -15 68 -11 0 -15 -11 -15 -41z"/>
<path d="M1831 1527 c-25 -13 -47 -29 -49 -37 -3 -8 14 -3 44 15 84 48 87 64
5 22z"/>
<path d="M2780 1532 c-10 -11 -11 -17 -2 -20 7 -2 9 -16 6 -35 -4 -27 -3 -29
6 -14 6 9 10 33 8 51 -3 30 -5 32 -18 18z"/>
<path d="M1359 1514 c-22 -27 -66 -44 -96 -38 -20 4 -41 -1 -66 -16 -48 -28
-40 -38 13 -16 61 24 61 19 2 -15 -88 -50 -51 -45 47 7 83 43 150 94 124 94
-6 0 -16 -7 -24 -16z"/>
<path d="M2623 1514 l-28 -12 27 -1 c30 -1 58 8 58 18 0 11 -25 9 -57 -5z"/>
<path d="M1830 1478 c-52 -25 -60 -33 -44 -38 16 -7 14 -10 -16 -23 l-35 -16
40 5 c53 8 118 40 135 67 11 19 11 20 -1 11 -8 -6 -23 -14 -34 -17 -14 -5 -11
0 10 18 41 34 21 31 -55 -7z"/>
<path d="M0 1485 c0 -17 41 -19 105 -5 l40 9 -42 -2 c-23 -1 -45 2 -49 6 -14
13 -54 7 -54 -8z"/>
<path d="M1999 1448 c-24 -25 -48 -39 -75 -43 -21 -4 -67 -15 -101 -26 -34
-10 -78 -19 -98 -19 -19 0 -36 -4 -36 -10 -3 -19 -5 -25 -22 -58 -10 -18 -40
-57 -67 -87 -55 -60 -95 -132 -105 -188 -4 -20 -14 -44 -22 -54 -13 -16 -14
-14 -8 25 6 47 33 108 69 157 38 52 40 61 6 30 -54 -50 -97 -127 -140 -252
-39 -114 -40 -121 -34 -210 7 -97 24 -118 24 -30 0 60 24 210 39 247 l10 25 0
-25 c1 -13 -4 -86 -10 -162 -6 -75 -8 -145 -4 -155 12 -28 24 45 24 152 1 97
10 142 38 184 10 14 25 48 35 75 37 104 190 296 235 296 23 0 23 -1 -7 -32
-17 -18 -67 -82 -110 -142 -124 -170 -165 -300 -123 -393 23 -50 63 -100 63
-79 0 9 -4 16 -9 16 -16 0 -61 117 -60 156 2 34 3 35 6 9 5 -33 23 -59 24 -34
1 22 29 -72 29 -101 1 -23 2 -23 9 -5 4 11 4 67 -1 125 -7 77 -6 121 3 164 16
74 27 54 29 -54 2 -71 3 -73 12 -35 5 22 7 61 3 86 -6 55 6 93 41 126 l25 23
-7 -38 c-7 -42 -7 -38 -4 -72 1 -23 2 -23 10 -5 5 11 9 36 9 55 1 45 17 101
35 125 13 18 13 14 1 -27 -7 -26 -16 -80 -19 -120 l-5 -73 14 89 c8 49 21 102
29 117 8 16 17 42 21 59 4 16 11 30 17 30 6 0 8 -9 4 -22 -21 -72 -45 -198
-44 -228 0 -26 2 -28 5 -10 2 14 8 34 13 45 5 11 18 67 29 125 17 96 18 105 2
117 -15 11 -15 12 2 13 9 0 25 4 35 9 9 6 48 20 85 32 67 21 147 76 129 88 -5
3 -11 11 -13 16 -2 6 -20 -7 -40 -27z"/>
<path d="M1362 1460 c-41 -33 -150 -90 -174 -90 -18 0 -20 -2 -8 -10 8 -5 11
-10 5 -11 -5 0 -1 -4 10 -8 37 -15 159 46 191 94 22 34 6 50 -24 25z"/>
<path d="M0 1446 c0 -15 8 -18 50 -18 34 0 40 2 40 12 0 6 -12 10 -27 9 -16
-1 -36 2 -45 6 -13 5 -18 3 -18 -9z"/>
<path d="M2827 1413 c-3 -21 -2 -56 2 -78 l7 -40 7 55 c4 30 7 65 7 78 0 36
-17 25 -23 -15z"/>
<path d="M2179 1414 c18 -7 50 -13 70 -13 30 2 32 3 8 6 -15 2 -25 7 -23 11 2
4 -17 8 -43 9 l-46 2 34 -15z"/>
<path d="M2981 1378 c-14 -23 -22 -80 -9 -72 3 2 8 -2 11 -8 2 -7 -5 -18 -17
-25 -20 -12 -20 -12 7 -13 27 0 27 0 27 70 0 39 -1 70 -3 70 -1 0 -9 -10 -16
-22z"/>
<path d="M570 1377 c0 -14 20 -46 20 -33 0 6 7 1 16 -10 15 -19 16 -19 8 1 -4
11 -7 27 -8 36 0 17 -36 24 -36 6z"/>
<path d="M2352 1378 c7 -22 111 -86 163 -101 87 -25 152 -34 152 -21 0 7 -24
14 -60 17 -48 4 -75 15 -141 55 -94 56 -119 68 -114 50z"/>
<path d="M2089 1353 c-11 -27 -24 -128 -14 -108 8 17 33 135 29 135 -3 0 -9
-12 -15 -27z"/>
<path d="M2151 1349 c-1 -39 10 -80 40 -146 10 -24 19 -46 19 -50 0 -5 14 -35
30 -67 17 -32 30 -62 30 -65 -1 -3 -17 12 -37 34 -29 33 -32 35 -18 10 52 -88
110 -136 162 -135 12 1 7 7 -14 18 -34 18 -69 59 -59 69 3 3 -5 24 -19 47 -13
22 -44 95 -70 161 -65 170 -64 167 -64 124z"/>
<path d="M2216 1360 c18 -68 79 -169 137 -228 57 -59 132 -110 144 -99 2 3 -5
8 -16 12 -12 3 -19 11 -16 16 4 5 -2 9 -12 9 -18 1 -65 30 -48 30 5 0 -11 20
-35 45 -24 25 -41 45 -37 45 4 0 38 -22 75 -49 67 -49 140 -86 150 -76 7 7 9
5 -73 50 -38 21 -92 54 -118 73 -46 33 -100 99 -92 112 2 3 -12 24 -31 45 -30
34 -34 37 -28 15z"/>
<path d="M878 1352 c-45 -29 -126 -130 -85 -106 8 5 8 2 -2 -9 -12 -15 -11
-17 13 -17 25 0 81 49 81 72 0 5 9 16 19 24 11 7 17 17 13 21 -4 3 -17 -2 -29
-13 l-22 -19 23 33 c26 37 25 38 -11 14z"/>
<path d="M1977 1363 c-12 -21 -58 -186 -59 -215 -1 -18 -1 -58 1 -88 3 -52 4
-50 17 45 7 55 23 135 34 178 19 69 22 105 7 80z"/>
<path d="M2309 1356 c17 -20 228 -126 249 -125 9 0 1 6 -18 13 -54 20 -151 71
-189 100 -38 28 -61 35 -42 12z"/>
<path d="M2453 1363 c10 -15 65 -34 72 -23 3 4 -6 11 -19 14 -13 3 -32 9 -42
13 -11 4 -15 3 -11 -4z"/>
<path d="M2000 1280 c-16 -60 -23 -119 -26 -200 -1 -72 0 -98 5 -70 6 39 8 41
13 20 4 -14 5 5 2 41 -3 43 3 100 17 167 26 129 20 154 -11 42z"/>
<path d="M2292 1316 c19 -19 64 -48 99 -66 35 -17 78 -40 95 -51 29 -17 163
-44 173 -34 2 3 -4 5 -15 5 -15 0 -16 2 -5 9 9 6 0 11 -30 16 -51 9 -130 43
-248 108 -46 26 -88 47 -94 47 -5 0 6 -15 25 -34z"/>
<path d="M1896 1299 c-13 -32 -19 -80 -22 -178 -3 -74 -2 -132 2 -129 3 4 10
58 15 120 5 62 14 134 20 160 15 65 6 81 -15 27z"/>
<path d="M1607 1295 c-30 -38 -82 -68 -137 -80 -55 -11 -73 -27 -25 -22 l40 5
-39 -18 c-22 -10 -63 -21 -92 -25 -49 -6 -55 -9 -77 -48 -98 -172 -145 -248
-177 -287 -20 -25 -45 -63 -55 -85 -10 -22 -22 -48 -26 -57 -5 -10 -5 -19 0
-22 5 -3 28 23 52 59 23 35 46 62 51 59 5 -3 26 32 48 78 21 46 39 76 40 68 1
-8 11 13 24 46 30 80 85 147 133 162 20 6 39 10 41 7 8 -7 -10 -26 -33 -35
-12 -5 -34 -32 -50 -62 -15 -29 -33 -60 -40 -68 -7 -8 -23 -35 -35 -59 -27
-53 -83 -135 -120 -176 -31 -34 -50 -67 -50 -87 1 -7 9 2 19 21 21 40 29 32
26 -27 -2 -23 1 -45 6 -48 5 -3 9 20 9 50 0 31 5 56 10 56 6 0 10 7 10 15 0 8
9 19 20 25 17 9 119 203 120 227 1 11 70 119 70 109 0 -5 -13 -32 -29 -60 -16
-28 -34 -76 -40 -106 -7 -30 -17 -73 -22 -96 -7 -27 -7 -52 -1 -75 10 -32 10
-32 11 -6 1 15 4 27 9 27 4 0 8 26 9 58 0 31 11 84 22 117 l21 60 -6 -65 c-7
-77 2 -76 17 3 22 123 71 199 164 258 67 42 125 100 125 124 0 24 -13 18 -43
-20z"/>
<path d="M1831 1264 c-15 -61 -8 -68 9 -9 7 25 10 48 8 51 -3 2 -11 -16 -17
-42z"/>
<path d="M2296 1278 c32 -41 72 -71 166 -127 108 -64 118 -68 118 -47 0 9 -6
16 -14 16 -8 0 -16 5 -18 11 -2 6 -34 23 -71 39 -37 15 -97 52 -134 81 -41 32
-59 43 -47 27z"/>
<path d="M2116 1265 c16 -78 37 -151 55 -198 22 -55 67 -122 77 -113 3 3 12 0
20 -7 8 -6 -6 19 -32 57 -31 46 -45 74 -41 87 4 12 -2 29 -14 46 -12 14 -28
49 -36 77 -18 61 -39 98 -29 51z"/>
<path d="M460 1259 c-12 -15 -39 -23 -120 -36 -58 -9 -107 -19 -110 -23 -5 -8
-117 -43 -185 -57 -51 -11 -59 -38 -14 -47 18 -3 37 -2 43 4 5 5 21 10 34 10
13 0 21 4 18 9 -3 5 14 12 39 16 25 3 43 10 40 15 -3 5 25 11 62 15 83 8 150
31 184 62 14 12 33 23 43 23 15 0 16 3 6 15 -16 19 -22 19 -40 -6z"/>
<path d="M919 1255 c-19 -14 -49 -34 -66 -46 -37 -23 -42 -39 -15 -39 21 0 70
34 107 74 41 44 27 50 -26 11z"/>
<path d="M2036 1215 c-4 -33 -10 -71 -13 -85 -4 -17 -2 -22 5 -15 6 6 12 26
15 45 2 19 3 -26 1 -100 -3 -133 -3 -134 6 -45 5 50 11 97 13 106 2 9 -1 47
-8 85 l-11 69 -8 -60z"/>
<path d="M2093 1114 c2 -85 9 -148 16 -163 18 -32 20 -24 11 34 -5 28 -9 65
-9 83 -2 60 15 33 33 -55 17 -84 50 -163 68 -163 5 0 -1 18 -12 40 -11 21 -29
76 -40 122 -36 149 -58 230 -64 236 -4 3 -5 -57 -3 -134z"/>
<path d="M2925 1190 c-4 -6 7 -10 24 -10 17 0 34 0 38 -1 4 0 9 4 11 10 5 14
-65 15 -73 1z"/>
<path d="M2275 1145 c4 -11 8 -26 8 -34 0 -7 23 -38 52 -69 48 -52 53 -54 81
-44 16 6 22 11 13 11 -9 1 -49 36 -89 79 -40 42 -69 68 -65 57z"/>
<path d="M2910 1150 c0 -5 7 -10 15 -10 9 0 29 -7 45 -15 27 -14 30 -14 30 0
0 16 -38 35 -71 35 -10 0 -19 -4 -19 -10z"/>
<path d="M1045 1102 c-33 -32 -66 -53 -97 -62 -27 -8 -48 -18 -48 -21 0 -4 15
-3 33 3 17 5 43 12 56 15 20 5 121 96 121 109 0 12 -20 -1 -65 -44z"/>
<path d="M1837 1118 c-4 -20 -13 -38 -19 -40 -7 -3 -8 -17 -3 -43 7 -33 9 -35
12 -15 2 14 8 41 14 61 6 20 9 44 7 55 -3 13 -6 7 -11 -18z"/>
<path d="M2840 1102 c-40 -24 -42 -27 -22 -30 13 -2 29 2 37 8 13 11 31 10
100 -4 26 -5 25 -4 -10 13 -22 11 -47 20 -55 21 -8 1 -4 6 10 10 20 7 21 8 5
9 -11 0 -40 -12 -65 -27z"/>
<path d="M140 1090 c-11 -7 -7 -10 17 -10 17 0 35 5 38 10 8 13 -35 13 -55 0z"/>
<path d="M2744 1034 c-22 -20 -57 -48 -79 -62 -53 -33 -105 -77 -82 -69 11 4
30 10 43 13 13 3 21 10 18 15 -3 5 2 9 11 9 9 0 23 7 31 15 9 8 27 15 40 15
14 0 23 4 20 9 -4 5 0 12 6 14 10 4 9 8 -2 16 -12 9 -11 11 7 11 12 0 25 5 28
10 3 6 18 10 33 10 l27 1 -25 14 c-34 19 -32 20 -76 -21z"/>
<path d="M1654 935 c0 -60 1 -84 3 -52 2 32 2 81 0 110 -2 29 -3 3 -3 -58z"/>
<path d="M1133 992 c-12 -20 -32 -52 -44 -70 -19 -29 -20 -32 -3 -26 27 10 41
22 77 68 21 26 26 38 15 34 -12 -5 -15 -3 -12 6 12 31 -13 22 -33 -12z"/>
<path d="M688 1012 c-27 -2 -48 -7 -48 -11 0 -15 55 -18 86 -5 16 7 36 9 44 4
8 -4 24 -4 35 1 11 4 18 9 15 10 -9 3 -84 4 -132 1z"/>
<path d="M574 1001 c3 -5 -12 -11 -34 -15 -48 -7 -63 -26 -21 -26 16 0 33 5
36 10 3 6 15 10 26 10 10 0 19 7 19 15 0 8 -7 15 -16 15 -8 0 -13 -4 -10 -9z"/>
<path d="M93 987 c-18 -7 -32 -16 -32 -22 0 -5 -13 -14 -30 -19 -29 -8 -43
-26 -21 -26 15 0 80 35 110 59 28 23 20 25 -27 8z"/>
<path d="M571 950 c-45 -16 -86 -29 -90 -28 -9 2 -93 -22 -113 -33 -10 -5 -31
-9 -46 -9 -16 0 -31 -3 -35 -6 -3 -3 -29 -8 -59 -10 -29 -2 -91 -14 -138 -26
-81 -22 -85 -24 -85 -52 l-1 -28 56 5 c30 3 125 27 210 55 85 27 216 64 290
82 74 18 137 35 140 38 3 2 -8 2 -23 -2 -20 -5 -27 -3 -22 5 5 8 1 9 -14 4
-33 -10 -25 3 12 19 58 26 4 16 -82 -14z m-337 -115 c4 -12 -4 -15 -39 -15
-25 0 -50 -6 -59 -15 -16 -17 -56 -20 -56 -5 0 5 12 13 28 16 15 4 32 10 37
14 9 7 38 15 71 19 7 0 14 -6 18 -14z"/>
<path d="M1701 948 c0 -21 -6 -38 -12 -38 -7 0 -8 -12 -4 -32 8 -41 54 -156
73 -183 13 -19 14 -19 7 5 -4 14 -16 50 -27 80 -11 30 -24 89 -28 130 -4 41
-8 58 -9 38z"/>
<path d="M85 932 c-87 -29 -90 -30 -84 -36 5 -6 251 43 259 51 3 3 -13 2 -35
-1 -84 -15 -89 -15 -50 -2 76 27 -5 16 -90 -12z"/>
<path d="M155 896 c-50 -13 -103 -22 -119 -22 -16 1 -31 -4 -33 -10 -8 -23
169 4 267 42 l35 13 -30 0 c-16 0 -70 -11 -120 -23z"/>
<path d="M655 898 c-44 -11 -107 -30 -140 -43 -33 -13 -78 -25 -100 -28 -77
-9 -150 -37 -190 -73 l-40 -36 42 21 c51 25 101 33 110 17 17 -26 -9 -126 -32
-126 -6 0 -12 -7 -12 -15 0 -18 0 -18 31 -4 20 9 26 23 35 74 6 34 11 74 11
88 0 15 5 27 10 27 6 0 10 -13 10 -30 0 -16 9 -53 21 -82 12 -29 25 -64 30
-77 5 -13 12 -21 15 -19 7 7 -33 149 -46 162 -12 12 -13 46 -1 46 5 0 16 -17
25 -37 34 -82 117 -216 91 -148 -4 11 -17 45 -27 75 -11 30 -24 59 -29 64 -14
16 -10 36 7 36 9 0 18 8 21 19 5 19 72 59 108 63 24 3 33 -15 9 -18 -24 -4
-30 -14 -7 -14 24 0 133 58 133 71 0 5 -1 8 -2 8 -2 -1 -39 -11 -83 -21z"/>
<path d="M1927 894 c-3 -5 1 -22 8 -39 13 -29 13 -29 14 -5 1 28 -14 57 -22
44z"/>
<path d="M2568 891 c-28 -6 -234 -131 -215 -131 12 0 76 31 82 39 3 6 11 8 18
6 7 -3 26 0 42 5 l30 10 -34 -4 -33 -3 23 18 c13 9 27 15 31 12 5 -2 7 1 6 9
-2 9 8 13 30 13 17 0 32 3 32 6 0 4 7 6 16 5 9 0 19 5 21 12 5 13 5 13 -49 3z"/>
<path d="M1465 835 c-3 -31 -4 -59 -2 -62 3 -2 9 21 12 52 4 31 5 58 2 61 -2
3 -8 -20 -12 -51z"/>
<path d="M1597 813 c3 -26 9 -64 14 -83 6 -28 8 -20 6 37 -2 40 -8 78 -14 84
-8 8 -9 -2 -6 -38z"/>
<path d="M1051 819 c-44 -47 -38 -61 6 -17 20 21 34 40 31 44 -4 3 -21 -9 -37
-27z"/>
<path d="M1320 660 c0 -66 4 -120 9 -120 5 0 7 9 4 21 -3 12 0 24 6 29 15 9 5
190 -10 190 -5 0 -9 -54 -9 -120z"/>
<path d="M160 758 c-14 -5 -45 -14 -70 -18 l-45 -9 50 3 c28 2 66 10 85 19 38
17 20 22 -20 5z"/>
<path d="M2295 728 c-55 -22 -61 -25 -52 -34 8 -8 109 25 127 42 12 12 12 14
-5 13 -11 -1 -42 -10 -70 -21z"/>
<path d="M885 733 c-22 -6 -78 -43 -73 -49 2 -2 31 5 63 15 33 11 54 20 47 20
-7 1 -10 6 -7 11 6 11 3 11 -30 3z"/>
<path d="M1486 665 c4 -44 10 -84 14 -88 16 -18 14 70 -2 118 l-18 50 6 -80z"/>
<path d="M389 675 c-5 -46 12 -105 32 -105 6 0 6 7 -1 19 -5 11 -10 30 -10 43
0 23 -19 61 -21 43z"/>
<path d="M2125 643 c-22 -14 -42 -30 -45 -33 -8 -12 -161 -76 -222 -94 -67
-19 -91 -41 -31 -30 21 5 48 8 61 9 12 0 22 4 22 8 0 5 4 6 9 2 5 -3 12 -1 16
5 3 5 15 10 26 10 20 0 112 61 179 120 43 37 37 39 -15 3z"/>
<path d="M2673 633 c-7 -2 -13 -11 -13 -20 0 -8 -6 -13 -12 -10 -13 4 -48 -29
-48 -45 0 -16 27 -8 54 17 14 13 26 22 26 19 0 -2 12 3 26 13 24 15 25 17 8
24 -22 9 -25 9 -41 2z"/>
<path d="M2740 584 c-25 -18 -59 -39 -77 -46 -20 -7 -31 -18 -30 -29 1 -18 7
-17 72 18 44 23 78 56 81 78 1 8 2 15 1 14 -1 0 -22 -16 -47 -35z"/>
<path d="M288 564 c-35 -18 -35 -23 -1 -16 18 3 30 -1 40 -13 11 -16 13 -16
13 -3 0 9 3 23 6 32 8 21 -21 21 -58 0z"/>
<path d="M17 493 c-9 -2 -15 -9 -11 -14 3 -5 10 -7 15 -3 5 3 22 8 36 10 15 3
30 7 32 10 5 5 -48 3 -72 -3z"/>
<path d="M2433 467 c-41 -27 -60 -63 -28 -51 8 4 15 9 15 13 0 3 18 17 40 31
22 14 40 27 40 31 0 13 -27 4 -67 -24z"/>
<path d="M2090 459 c-19 -10 -45 -19 -57 -19 -24 0 -60 -30 -81 -69 l-14 -24
29 20 c15 11 39 24 53 28 50 15 141 66 135 75 -9 14 -25 11 -65 -11z"/>
<path d="M2174 439 c-4 -6 -50 -32 -103 -56 -86 -40 -93 -46 -73 -54 28 -11
51 -1 31 12 -9 6 -1 6 20 2 29 -5 33 -4 28 10 -4 11 -2 14 8 11 28 -11 115 49
115 80 0 10 -19 6 -26 -5z"/>
<path d="M2496 413 c-40 -33 -43 -38 -25 -41 14 -3 33 8 55 32 56 60 40 64
-30 9z"/>
<path d="M2170 380 c0 -5 -5 -10 -12 -10 -18 0 -90 -78 -78 -85 17 -11 125 79
115 95 -8 13 -25 13 -25 0z"/>
<path d="M2209 334 c-13 -15 -43 -39 -66 -54 -46 -29 -48 -45 -4 -29 35 13
122 109 98 109 -2 0 -14 -12 -28 -26z"/>
<path d="M2455 247 c-8 -11 -12 -23 -9 -26 3 -3 10 2 15 12 6 9 19 17 29 17
26 0 26 15 0 17 -11 1 -26 -8 -35 -20z"/>
<path d="M2574 236 c-3 -7 -27 -23 -55 -36 -27 -13 -49 -29 -49 -36 0 -15 21
-9 60 15 30 20 70 56 70 65 0 12 -21 6 -26 -8z"/>
<path d="M2154 176 c-3 -8 -11 -13 -18 -10 -14 6 -50 -42 -38 -50 4 -2 25 10
47 28 25 22 35 35 27 40 -7 4 -15 1 -18 -8z"/>
<path d="M110 172 c0 -9 -44 -32 -60 -32 -6 0 -10 7 -10 15 0 8 -9 15 -20 15
-11 0 -20 -4 -20 -10 0 -5 5 -10 10 -10 6 0 10 -32 10 -75 l0 -75 38 0 c30 0
38 4 39 18 1 15 -4 18 -23 14 -23 -4 -24 -2 -24 42 0 25 5 46 10 46 6 0 10
-16 10 -36 0 -20 4 -33 10 -29 5 3 7 12 3 20 -7 21 14 19 26 -2 17 -29 12 1
-5 36 -15 30 -15 32 8 51 12 11 17 19 11 20 -7 0 -13 -4 -13 -8z"/>
<path d="M2174 128 c-16 -17 -49 -40 -74 -52 l-45 -21 32 -3 c36 -4 74 19 94
55 7 12 15 20 19 18 5 -3 10 2 14 10 10 28 -11 24 -40 -7z"/>
<path d="M2767 34 l-38 -35 36 3 c31 2 39 8 50 36 19 43 1 42 -48 -4z"/>
</g>
</svg>
