<?xml version="1.0" standalone="no"?>
<!DOCTYPE svg PUBLIC "-//W3C//DTD SVG 20010904//EN"
 "http://www.w3.org/TR/2001/REC-SVG-20010904/DTD/svg10.dtd">
<svg version="1.0" xmlns="http://www.w3.org/2000/svg"
 width="300.000000pt" height="300.000000pt" viewBox="0 0 300.000000 300.000000"
 preserveAspectRatio="xMidYMid meet">
<metadata>
Created by potrace 1.10, written by Peter Selinger 2001-2011
</metadata>
<g transform="translate(0.000000,300.000000) scale(0.100000,-0.100000)"
fill="#000000" stroke="none">
<path d="M1354 2788 c-6 -62 -10 -114 -9 -116 1 -1 19 11 40 28 21 16 43 30
49 30 16 -1 -40 -46 -96 -78 -35 -20 -48 -33 -48 -49 0 -13 2 -23 4 -23 7 0
196 102 196 106 0 8 -35 69 -58 101 -12 17 -33 50 -45 72 l-24 41 -9 -112z
m56 -23 c12 -22 11 -27 -6 -39 -10 -8 -22 -12 -26 -10 -15 10 -5 74 11 74 4 0
14 -11 21 -25z"/>
<path d="M1739 2802 c-9 -15 -29 -44 -45 -65 l-28 -38 50 -43 c27 -24 51 -39
53 -33 4 11 -14 28 -60 58 l-24 16 36 54 c47 70 52 79 42 79 -4 0 -15 -12 -24
-28z"/>
<path d="M1791 2727 c-1 -70 3 -106 9 -102 12 7 12 162 0 190 -6 13 -9 -18 -9
-88z"/>
<path d="M2093 2727 c-54 -45 -206 -147 -220 -147 -7 0 -13 -10 -13 -22 0 -17
16 -32 63 -60 34 -21 77 -47 95 -59 53 -35 40 3 -24 69 l-55 57 98 92 c54 51
95 92 91 93 -3 0 -19 -11 -35 -23z m-165 -182 c13 -28 5 -32 -23 -12 -10 8
-15 19 -11 25 11 18 22 14 34 -13z"/>
<path d="M1030 2668 c0 -35 -3 -86 -6 -114 l-6 -51 76 21 c42 11 76 24 76 28
0 4 -18 28 -41 54 -23 26 -53 65 -66 86 -14 21 -27 38 -29 38 -2 0 -4 -28 -4
-62z m64 -69 c12 -21 15 -34 8 -41 -11 -11 -47 -7 -44 5 1 4 2 21 2 37 0 38
11 38 34 -1z"/>
<path d="M2122 2690 l-10 -42 26 25 c15 13 34 27 42 31 8 3 5 4 -8 2 -13 -2
-26 2 -31 11 -6 11 -11 4 -19 -27z"/>
<path d="M1531 2690 c-60 -33 -96 -66 -82 -75 5 -3 12 4 16 15 8 24 51 27 75
5 15 -14 19 -14 31 2 12 15 12 16 -3 10 -22 -8 -24 6 -4 22 10 8 16 9 21 1 3
-6 11 -8 16 -5 5 3 6 -1 3 -10 -4 -9 -1 -27 6 -40 27 -50 -8 -69 -75 -41 -52
22 -47 -7 5 -34 l40 -21 30 28 c17 16 31 40 32 55 2 22 5 25 17 15 9 -7 22
-17 31 -24 8 -7 31 -23 50 -36 19 -13 34 -30 32 -39 -1 -8 9 -20 23 -26 22
-10 24 -15 15 -32 -19 -36 -65 -17 -75 31 -8 36 -19 29 -33 -24 -10 -35 -9
-38 19 -52 26 -14 32 -14 58 0 39 20 65 56 49 66 -7 5 -10 11 -6 14 10 11 78
-18 78 -32 0 -7 9 -13 19 -13 11 0 23 -5 26 -11 4 -5 18 -14 32 -20 14 -5 24
-16 22 -26 -3 -32 1 -43 14 -43 28 -1 40 -17 27 -39 -17 -33 -52 -24 -62 17
-9 35 -22 41 -36 16 -16 -28 -2 -74 28 -89 25 -13 29 -12 45 5 10 11 24 20 31
20 14 0 40 40 27 40 -4 0 -2 4 5 9 11 6 95 -25 121 -45 2 -2 -8 -17 -23 -34
-33 -39 -33 -57 -1 -72 14 -6 25 -15 25 -20 0 -14 14 -8 44 18 16 14 29 35 29
49 0 19 4 22 21 18 11 -2 32 -7 46 -10 14 -3 32 -11 40 -19 8 -7 20 -14 25
-15 22 -4 55 -23 55 -31 0 -4 3 -7 8 -7 34 6 52 -31 58 -120 2 -36 7 -74 10
-85 4 -10 2 -16 -3 -13 -5 4 -10 0 -10 -8 0 -8 3 -12 7 -10 4 2 7 -11 8 -30 1
-30 -2 -34 -21 -32 -12 1 -25 7 -29 12 -4 6 -8 2 -8 -7 0 -10 7 -18 16 -18 9
0 12 -5 8 -12 -5 -7 -2 -9 9 -5 8 3 21 -1 28 -10 11 -13 10 -18 -6 -29 -19
-14 -19 -15 2 -29 18 -13 21 -25 21 -87 0 -40 -2 -76 -4 -80 -7 -11 -54 13
-54 28 0 7 -5 16 -12 20 -7 4 -8 3 -4 -5 4 -6 3 -17 -2 -24 -5 -7 -12 -36 -16
-64 l-7 -53 31 0 c30 0 30 0 14 25 -16 24 -13 55 5 55 5 0 19 -9 32 -19 23
-19 23 -20 6 -39 -18 -20 -8 -40 12 -27 6 3 10 -3 9 -12 0 -10 1 -47 2 -83 2
-55 4 -61 13 -40 15 38 11 377 -7 533 -16 135 -40 263 -54 282 -8 12 -44 29
-225 106 -197 85 -302 142 -482 262 -72 48 -209 156 -213 168 -5 13 -12 11
-71 -21z m710 -448 c28 -23 20 -52 -14 -52 -37 0 -51 25 -38 68 3 8 32 -1 52
-16z"/>
<path d="M2427 2683 c-12 -11 -8 -23 7 -23 7 0 19 7 26 15 10 12 9 15 -7 15
-11 0 -23 -3 -26 -7z"/>
<path d="M514 2640 c2 -19 14 -64 25 -99 11 -35 19 -67 16 -71 -2 -4 7 -12 20
-18 l24 -11 -20 52 c-12 29 -32 81 -45 117 -18 49 -23 56 -20 30z"/>
<path d="M540 2657 c37 -34 138 -116 166 -135 24 -16 31 -18 31 -6 0 7 -4 14
-8 14 -4 0 -31 21 -61 46 -54 47 -122 94 -135 94 -4 0 -1 -6 7 -13z"/>
<path d="M1797 2603 c-12 -11 -8 -31 8 -37 11 -4 15 1 15 19 0 24 -10 32 -23
18z"/>
<path d="M2360 2524 c-118 -85 -200 -148 -196 -151 2 -2 55 33 117 78 63 44
121 84 129 87 8 3 21 12 28 19 11 11 11 13 0 13 -8 0 -43 -21 -78 -46z"/>
<path d="M1205 2542 c-69 -23 -71 -43 -2 -27 66 16 87 25 87 36 0 13 -27 10
-85 -9z"/>
<path d="M2081 2516 c-13 -54 -14 -59 -2 -52 10 7 26 85 18 92 -2 3 -10 -15
-16 -40z"/>
<path d="M1235 2506 c-18 -13 -17 -14 8 -11 58 7 87 -18 67 -56 -14 -25 -60
-25 -94 2 l-26 20 0 -20 c0 -24 37 -61 60 -61 23 0 100 59 100 76 0 23 -47 64
-73 64 -13 0 -32 -6 -42 -14z"/>
<path d="M1618 2513 c-3 -4 12 -23 33 -41 34 -30 37 -31 26 -8 -6 13 -16 22
-22 18 -5 -3 -4 2 4 11 8 10 9 17 3 17 -6 0 -17 3 -25 6 -8 3 -17 2 -19 -3z"/>
<path d="M2407 2493 c-2 -5 -8 -25 -11 -47 -4 -21 -20 -65 -36 -97 -15 -33
-24 -59 -19 -59 14 0 46 75 63 148 13 57 14 74 3 55z"/>
<path d="M1019 2486 c-3 -3 -71 -7 -153 -10 -97 -3 -153 -9 -163 -17 -43 -37
-94 -177 -113 -318 -13 -93 -5 -120 42 -148 35 -21 65 -16 98 16 22 21 23 2 6
-107 -14 -90 -25 -487 -13 -498 2 -3 7 66 11 153 10 207 30 424 57 597 l22
140 43 41 c33 30 41 44 34 55 -5 8 -10 24 -10 36 0 17 7 21 35 22 21 1 33 -3
30 -8 -3 -6 1 -10 9 -10 9 0 16 4 16 8 0 5 11 15 25 22 20 11 28 10 50 -4 32
-21 32 -39 -2 -66 -33 -25 -64 -23 -79 7 -12 25 -24 20 -24 -8 0 -10 14 -27
31 -40 l31 -21 34 33 c18 18 36 41 40 51 3 10 10 15 17 11 6 -3 2 9 -9 28 -18
30 -51 48 -65 35z m-231 -52 c4 -6 18 -11 32 -12 27 -1 52 -28 48 -52 -5 -24
-53 -36 -83 -20 -14 7 -25 19 -25 26 0 7 -4 16 -10 19 -5 3 -10 -1 -10 -9 0
-15 18 -36 52 -60 19 -14 19 -16 4 -37 -9 -13 -16 -33 -16 -44 0 -11 -9 -39
-20 -60 -17 -33 -18 -45 -9 -67 6 -14 9 -35 6 -45 -3 -11 -5 -7 -6 12 -1 23
-4 26 -11 15 -7 -12 -12 -12 -22 -2 -17 17 -46 15 -76 -6 -45 -31 -53 -34 -50
-20 2 7 7 16 12 20 6 3 11 19 12 35 1 15 12 62 24 103 11 41 23 86 26 100 3
14 11 30 19 36 8 6 12 14 9 17 -3 3 4 10 15 17 12 6 21 17 21 25 0 22 44 29
58 9z m-72 -369 c18 -28 14 -40 -27 -60 -33 -17 -61 -9 -79 24 -11 21 -1 33
41 50 37 15 47 13 65 -14z"/>
<path d="M1545 2454 c-198 -82 -538 -171 -671 -176 -40 -1 -42 -2 -32 -24 6
-13 7 -42 3 -71 -6 -39 -9 -44 -16 -28 -6 13 -7 4 -3 -27 3 -33 2 -48 -6 -48
-7 0 -9 -7 -6 -16 10 -25 -23 -329 -45 -416 -22 -89 -22 -88 -9 -88 6 0 10 9
10 19 0 11 5 23 11 26 7 5 9 -38 7 -138 -3 -126 -1 -143 12 -135 12 8 14 31
12 130 -4 130 19 443 46 628 l17 115 30 3 c149 14 420 86 594 157 113 46 113
46 135 27 85 -77 379 -250 565 -332 84 -37 125 -60 131 -74 4 -12 11 -54 15
-93 6 -63 5 -73 -9 -73 -26 0 -18 -17 14 -30 17 -7 33 -16 35 -21 6 -8 -28
-72 -53 -102 -22 -25 -7 -32 17 -8 19 19 20 19 26 2 9 -30 -13 -350 -31 -437
-16 -80 -42 -174 -49 -174 -3 0 -24 11 -49 25 -25 14 -55 25 -68 25 -14 0 -1
-9 36 -25 70 -29 71 -30 84 -77 10 -35 8 -41 -20 -72 -52 -59 -135 -58 -123 2
5 26 5 26 -5 4 -10 -23 -30 -22 -30 1 0 8 3 7 9 -2 5 -8 7 4 4 32 -5 38 -2 48
11 53 22 8 35 -4 16 -16 -11 -7 -11 -11 -1 -24 7 -8 18 -13 25 -10 8 3 16 -4
19 -16 4 -16 12 -20 35 -18 31 2 32 8 4 41 -10 11 -23 15 -35 11 -16 -5 -19
-3 -13 11 4 12 -1 23 -15 33 -21 15 -21 16 -4 29 18 12 18 13 -3 13 -20 0 -72
-55 -72 -76 0 -5 5 -2 11 6 8 11 9 3 6 -32 -5 -55 -4 -57 48 -83 22 -11 42
-21 44 -22 10 -5 -54 -73 -70 -73 -21 0 -24 -10 -10 -26 5 -5 14 -25 19 -44 8
-27 10 -29 11 -12 1 15 23 45 57 80 66 65 147 222 115 222 -16 0 -13 27 9 100
36 117 53 271 54 498 1 143 -3 215 -10 220 -6 4 -17 49 -24 100 -10 69 -17 95
-29 99 -58 17 -165 67 -286 131 -162 85 -227 128 -130 87 32 -14 66 -32 75
-39 17 -16 262 -136 276 -136 40 0 83 -23 98 -53 l16 -32 0 27 c0 31 -35 52
-180 113 -101 42 -218 102 -255 130 -16 12 -50 32 -75 45 -43 22 -163 101
-232 153 l-33 25 -60 -24z m40 -23 c-16 -15 -194 -87 -296 -119 -166 -53 -419
-97 -419 -73 0 16 33 27 105 36 87 10 325 65 370 85 11 5 63 24 115 44 94 34
143 45 125 27z"/>
<path d="M2803 2405 c-17 -7 -124 -37 -237 -66 -113 -29 -206 -56 -206 -60 0
-5 26 -16 58 -26 109 -34 142 -68 142 -150 0 -33 16 -36 36 -5 45 69 162 222
203 264 24 26 43 50 40 52 -2 2 -18 -2 -36 -9z m-115 -66 c-43 -22 -52 -35
-13 -17 51 23 44 -6 -22 -94 -63 -85 -83 -99 -83 -57 0 10 -9 27 -20 36 -11
10 -20 23 -20 30 0 9 -8 11 -25 7 -20 -5 -24 -3 -19 10 4 10 1 16 -7 17 -20 1
42 28 66 29 11 0 52 14 90 30 81 33 107 38 53 9z"/>
<path d="M1585 2369 c-4 -6 -7 -61 -7 -122 0 -62 1 -276 1 -477 1 -201 0 -437
-3 -525 -5 -193 8 -139 24 95 13 196 13 1027 1 1035 -5 3 -13 0 -16 -6z"/>
<path d="M378 2078 c70 -68 137 -132 149 -142 l23 -19 0 36 c0 21 -3 36 -7 35
-15 -4 -57 25 -110 77 -29 28 -53 55 -53 58 0 4 15 5 33 1 17 -3 47 -7 65 -10
60 -8 74 -21 70 -65 -5 -53 9 -35 17 22 l7 47 -49 16 c-26 9 -88 25 -138 36
-49 11 -100 23 -112 26 -12 3 33 -48 105 -118z"/>
<path d="M2393 2183 c7 -12 2 -15 -19 -12 -3 0 -14 -10 -25 -22 -29 -33 -21
-70 16 -82 17 -6 33 -14 36 -19 4 -6 12 -58 20 -116 7 -61 15 -94 17 -77 2 17
-1 69 -8 116 l-11 87 25 25 c14 15 26 30 26 36 0 5 -19 24 -42 43 -23 18 -39
27 -35 21z m17 -43 c0 -5 7 -10 15 -10 18 0 19 -9 1 -32 -17 -22 -25 -22 -55
1 -30 23 -22 51 14 51 14 0 25 -4 25 -10z"/>
<path d="M891 2166 c-9 -10 -9 -16 -1 -21 13 -8 42 14 34 26 -8 13 -20 11 -33
-5z"/>
<path d="M1928 2080 c4 -58 7 -271 6 -475 -1 -370 -1 -370 -32 -548 -35 -193
-38 -226 -17 -157 34 109 57 266 65 457 9 214 -4 749 -19 798 -7 20 -8 -3 -3
-75z"/>
<path d="M1474 2122 c6 -18 4 -22 -15 -22 -17 0 -20 -3 -12 -11 8 -8 17 -8 32
0 25 14 26 24 5 42 -15 12 -16 11 -10 -9z"/>
<path d="M1723 2082 c-14 -23 0 -42 30 -42 14 0 18 6 15 27 -4 33 -28 41 -45
15z"/>
<path d="M2147 2043 c-3 -5 0 -34 7 -64 8 -30 17 -82 20 -116 5 -61 5 -62 -24
-80 -17 -10 -41 -34 -55 -55 l-25 -38 20 -32 c19 -31 20 -32 20 -8 0 27 11 20
33 -23 13 -25 12 -32 -6 -72 -13 -27 -27 -45 -38 -45 -25 0 -43 53 -36 110 6
51 -4 65 -23 31 -28 -53 11 -172 57 -179 18 -3 29 9 59 61 24 42 42 63 51 60
7 -3 21 -2 30 1 14 6 9 14 -27 46 -56 49 -71 51 -35 4 23 -30 25 -35 9 -32
-24 4 -67 79 -53 93 6 6 13 5 19 -5 5 -8 23 -14 45 -13 28 1 35 -2 31 -13 -3
-8 -2 -12 3 -9 5 3 12 1 16 -5 3 -5 0 -10 -7 -10 -8 0 -8 -5 4 -16 17 -17 58
-12 58 7 0 6 -13 30 -30 54 l-30 44 55 16 c30 8 55 18 55 21 0 12 -78 -10
-110 -31 -49 -33 -83 -40 -100 -20 -11 13 -10 19 5 35 10 11 26 20 36 20 19 0
19 13 -2 159 -12 85 -23 119 -32 104z"/>
<path d="M2279 1934 c-17 -52 -19 -65 -8 -58 5 3 9 0 9 -6 0 -8 6 -8 20 0 24
13 25 26 6 70 l-13 33 -14 -39z"/>
<path d="M557 1903 c-4 -21 -7 -107 -7 -190 0 -152 0 -153 -22 -153 -13 0 -97
-26 -188 -59 -189 -67 -235 -86 -243 -97 -3 -5 59 -10 137 -11 124 -2 249 -14
296 -28 14 -4 15 8 12 90 -3 66 -1 95 7 95 6 0 11 -15 11 -34 0 -29 4 -36 31
-45 47 -16 56 -14 89 20 38 40 38 62 1 88 -24 17 -34 19 -56 11 -43 -16 -45
-13 -43 60 2 69 2 69 32 76 56 12 84 32 91 66 12 54 -41 82 -106 54 -13 -6
-16 0 -16 34 0 56 -18 72 -26 23z m117 -76 c24 -18 17 -45 -16 -70 -23 -17
-31 -19 -53 -9 -31 14 -32 38 -3 69 24 26 46 29 72 10z m-3 -257 c24 -13 24
-38 0 -67 -24 -29 -55 -29 -83 -1 l-21 21 32 29 c34 31 43 33 72 18z m-141
-109 c0 -58 -7 -62 -91 -56 -159 11 -210 18 -206 29 2 6 8 11 13 12 5 0 20 5
34 11 14 6 59 20 100 33 41 12 86 26 100 30 32 10 50 -11 50 -59z"/>
<path d="M274 1843 c-13 -32 -32 -65 -40 -74 -10 -11 -13 -26 -9 -38 9 -30
-12 -132 -35 -163 -13 -17 -20 -43 -20 -70 0 -38 1 -41 13 -23 29 43 63 158
71 240 8 77 49 145 88 145 39 0 56 -34 58 -112 3 -166 5 -188 15 -185 6 3 9
61 8 153 l-2 149 -25 3 c-13 2 -30 10 -36 18 -7 8 -23 14 -36 14 -20 0 -29
-11 -50 -57z"/>
<path d="M2758 1831 c-82 -26 -173 -89 -156 -107 3 -3 64 24 134 60 130 66
139 84 22 47z"/>
<path d="M2456 1809 c-3 -18 -6 -40 -6 -50 0 -17 1 -17 29 -1 28 16 29 18 15
44 -20 40 -31 41 -38 7z"/>
<path d="M65 1805 c51 -22 82 -26 40 -5 -22 11 -47 19 -55 19 -8 0 -1 -6 15
-14z"/>
<path d="M2916 1768 c-3 -13 -7 -42 -9 -65 l-5 -43 35 0 35 0 -7 43 c-10 55
-22 87 -35 87 -5 0 -12 -10 -14 -22z"/>
<path d="M1078 1758 c-21 -18 -21 -19 -3 -13 11 4 27 9 35 11 19 6 140 -66
140 -83 0 -7 6 -10 15 -7 8 4 15 15 15 26 0 10 -5 16 -10 13 -6 -4 -7 -12 -4
-18 4 -7 -11 4 -32 24 -68 64 -120 80 -156 47z"/>
<path d="M2411 1709 c1 -35 5 -89 9 -119 6 -39 7 -21 3 60 -5 124 -14 164 -12
59z"/>
<path d="M1055 1720 c-2 -4 -7 -32 -11 -62 -6 -49 -4 -57 20 -86 36 -42 84
-51 128 -24 36 23 66 62 47 62 -6 0 -19 -11 -30 -24 -10 -13 -32 -29 -49 -36
-28 -11 -34 -11 -58 7 -19 15 -26 28 -24 47 1 15 -2 26 -9 26 -6 0 -8 -7 -5
-16 3 -8 2 -12 -4 -9 -20 12 -7 95 15 95 8 0 20 -7 28 -15 8 -8 17 -11 21 -8
3 4 6 2 6 -3 0 -18 66 -46 101 -42 l33 3 -63 33 c-76 40 -140 62 -146 52z"/>
<path d="M2748 1587 c-60 -22 -65 -28 -48 -73 10 -26 11 -26 78 -20 38 4 92
13 120 21 63 16 57 15 81 15 13 0 19 6 18 19 0 11 -4 18 -7 16 -4 -2 -22 -7
-41 -10 -19 -3 -58 -10 -86 -16 -29 -6 -55 -10 -58 -10 -3 1 -13 -3 -24 -9
-13 -6 -24 -5 -36 4 -23 17 -14 31 36 56 36 19 49 31 32 29 -5 0 -34 -10 -65
-22z"/>
<path d="M2186 1447 c-4 -66 -5 -121 -3 -124 7 -6 20 175 15 212 -2 17 -7 -23
-12 -88z"/>
<path d="M2610 1458 c0 -24 -3 -67 -6 -95 -7 -52 -6 -53 20 -53 28 0 35 14 12
23 -10 4 -14 16 -12 34 2 15 4 40 5 54 1 26 2 27 44 18 49 -11 168 -69 162
-79 -3 -4 -28 -10 -56 -14 -28 -4 -49 -9 -46 -12 2 -3 44 0 92 6 48 6 96 8
107 4 24 -7 68 3 68 16 0 6 -6 10 -12 10 -20 1 -59 37 -56 52 2 10 -14 13 -62
15 l-65 2 85 -41 c47 -22 80 -43 73 -45 -6 -2 -62 19 -124 47 -62 29 -122 55
-133 60 -12 5 -38 15 -58 24 l-38 16 0 -42z"/>
<path d="M754 1385 c0 -60 1 -84 3 -52 2 32 2 81 0 110 -2 29 -3 3 -3 -58z"/>
<path d="M560 1340 c0 -57 32 -249 45 -270 14 -23 21 2 14 57 -7 66 -5 73 20
73 22 0 53 25 76 62 16 26 16 26 -27 52 -27 16 -46 22 -52 16 -22 -22 -45 -10
-56 30 -6 22 -13 40 -15 40 -3 0 -5 -27 -5 -60z m128 -35 c18 -13 20 -19 10
-35 -7 -10 -16 -17 -20 -14 -4 3 -5 -2 -2 -10 8 -22 -21 -31 -52 -18 -31 15
-32 55 -2 76 28 20 38 20 66 1z"/>
<path d="M132 1313 c-22 -131 -24 -293 -3 -293 4 0 8 12 8 28 2 92 15 224 26
267 11 48 14 50 52 56 38 6 37 6 -16 8 l-56 1 -11 -67z"/>
<path d="M280 1368 c0 -8 47 -12 84 -8 10 1 29 -1 43 -5 21 -5 23 -8 12 -21
-18 -22 -6 -26 27 -9 16 8 35 15 42 15 22 0 13 20 -10 21 -13 0 -62 4 -110 7
-49 4 -88 4 -88 0z"/>
<path d="M870 1360 c0 -5 -6 -10 -14 -10 -8 0 -18 -5 -21 -10 -4 -7 2 -9 18
-5 30 8 67 -9 67 -30 0 -8 4 -15 10 -15 5 0 -1 -19 -13 -42 -16 -32 -30 -45
-52 -49 -30 -7 -29 -7 6 -8 40 -1 53 9 63 53 6 23 9 27 17 15 6 -10 9 -4 9 22
0 19 5 40 12 47 7 7 8 12 4 12 -5 0 -15 -8 -22 -17 -12 -16 -13 -16 -14 8 0
19 -7 28 -22 33 -33 8 -48 7 -48 -4z"/>
<path d="M2556 1315 c-10 -8 -23 -12 -27 -9 -18 10 -49 13 -54 3 -4 -5 2 -9
13 -9 44 0 63 -60 24 -75 -17 -6 -42 18 -42 42 0 7 -5 13 -11 13 -6 0 -8 7 -5
16 3 8 2 12 -4 9 -6 -3 -10 -19 -10 -34 0 -15 -11 -60 -25 -100 -13 -41 -22
-77 -20 -81 3 -5 2 -10 -3 -12 -4 -1 -21 -39 -36 -83 -41 -115 -90 -204 -146
-268 -48 -53 -50 -57 -50 -116 0 -34 -3 -61 -7 -60 -8 0 -114 218 -113 232 0
4 8 7 18 7 14 0 15 2 2 10 -13 9 -13 11 0 20 13 9 13 11 0 20 -10 6 -23 2 -44
-14 -37 -28 -49 -54 -18 -37 37 20 37 12 1 -19 -45 -37 -65 -80 -50 -108 6
-12 11 -25 11 -30 0 -13 -255 -137 -353 -171 l-88 -31 -42 27 c-23 15 -69 40
-102 56 -61 30 -189 115 -261 173 l-41 34 40 42 c21 24 43 53 48 65 9 24 2 56
-11 48 -4 -2 -12 7 -18 20 -12 26 -27 31 -105 38 -68 6 -68 -9 0 -18 31 -4 66
-12 79 -17 l23 -11 -41 -61 c-23 -33 -33 -54 -22 -46 10 8 23 21 27 28 10 15
27 16 27 1 0 -6 -9 -24 -21 -40 -16 -22 -26 -28 -43 -23 -16 4 -25 0 -29 -10
-4 -9 -12 -16 -18 -16 -8 0 -6 7 4 18 22 24 21 31 -2 56 -34 36 -29 46 34 71
48 19 54 24 32 24 -31 1 -81 -21 -114 -51 l-21 -20 30 -29 c19 -18 28 -34 24
-44 -10 -27 -40 -12 -61 30 -16 30 -28 41 -48 43 -35 4 -34 -9 3 -50 17 -18
40 -44 53 -58 12 -14 27 -37 33 -51 11 -24 9 -29 -18 -53 -36 -31 -58 -33 -81
-6 -9 11 -15 20 -12 20 3 0 -4 9 -15 20 -23 23 -26 36 -7 38 35 3 68 10 74 16
11 10 -28 45 -58 51 -16 4 -27 10 -25 14 3 4 -10 5 -28 3 -27 -3 -37 2 -67 35
-18 22 -40 48 -47 59 -12 18 -13 18 -8 -4 7 -35 83 -163 131 -222 l43 -53 -19
-44 c-24 -55 -52 -163 -45 -171 7 -6 -13 -32 -24 -32 -5 0 -13 14 -19 30 -11
32 -17 35 -41 20 -13 -9 -11 -14 13 -35 31 -27 58 -32 79 -12 47 44 168 107
168 86 0 -13 48 -78 77 -104 15 -14 23 -34 26 -65 3 -38 4 -35 5 17 2 44 -2
64 -12 70 -8 4 -25 28 -38 52 -12 24 -32 50 -44 58 -19 12 -28 9 -98 -37 -42
-27 -79 -50 -83 -50 -14 0 23 32 81 70 l64 41 -46 44 c-26 24 -44 46 -41 49 3
4 24 -10 45 -30 109 -100 297 -209 506 -293 95 -38 111 -42 140 -32 18 6 89
26 158 45 90 25 169 55 276 109 153 75 209 107 186 107 -13 0 -53 -20 -62 -31
-8 -9 -61 -35 -116 -57 -27 -11 -57 -23 -66 -27 -13 -5 -20 2 -32 29 -8 20
-22 36 -30 36 -20 0 -20 -14 -1 -30 21 -18 19 -47 -5 -60 -18 -10 -25 -6 -51
21 -35 38 -47 33 -25 -10 9 -16 16 -32 16 -34 0 -2 -33 -14 -72 -26 -40 -12
-86 -27 -102 -32 -41 -13 -41 -13 -43 22 -1 18 -9 39 -17 48 -14 16 -10 18 47
30 34 8 57 15 51 18 -6 2 -31 -1 -55 -6 -28 -6 -46 -6 -50 0 -3 5 -13 7 -23 3
-37 -14 -308 135 -478 263 -80 60 -97 83 -65 83 7 0 54 -31 105 -70 52 -38
124 -86 160 -106 37 -20 95 -57 130 -80 60 -42 90 -55 77 -34 -3 5 7 2 23 -7
28 -16 31 -15 143 32 63 26 130 55 149 65 51 26 84 35 76 21 -4 -6 -41 -27
-82 -47 -74 -35 -103 -56 -41 -31 72 31 171 86 154 87 -25 0 -11 19 27 36 17
8 39 20 48 27 15 10 21 8 40 -10 12 -13 20 -24 17 -26 -2 -1 -49 -23 -104 -47
-101 -45 -223 -105 -195 -96 8 3 54 20 102 39 62 25 89 32 97 24 8 -8 11 -8
11 1 0 7 7 12 15 12 8 0 15 5 15 10 0 6 11 10 24 10 13 0 29 6 35 14 6 7 21
12 34 11 13 -1 15 -1 4 2 -11 3 -16 10 -13 19 3 8 -12 28 -39 51 -27 22 -45
46 -45 58 0 25 55 93 66 82 4 -4 -3 -19 -17 -33 -15 -16 -18 -23 -8 -19 18 7
49 -19 49 -39 0 -18 -25 -38 -35 -28 -5 4 4 -10 20 -30 17 -20 41 -40 55 -44
14 -4 32 -12 40 -18 8 -7 27 -18 43 -26 21 -10 26 -19 21 -34 -4 -15 -3 -17 4
-8 5 8 13 13 18 13 14 -1 79 64 127 128 60 81 144 248 145 290 1 39 -5 38 -12
-4 -3 -16 -12 -35 -19 -42 -12 -12 -16 -10 -26 16 -14 32 -29 34 -82 7 -32
-16 -38 -7 -12 19 17 18 79 195 89 258 6 33 10 37 35 37 16 0 47 7 69 16 32
13 41 22 46 49 3 18 4 40 2 48 -3 14 -6 14 -22 2z m-153 -439 c13 -10 16 -21
11 -40 -7 -31 -17 -38 -38 -30 -24 9 -21 85 3 84 3 0 14 -7 24 -14z m-48 -82
c8 -12 17 -13 37 -5 14 5 28 7 31 5 6 -6 -42 -102 -60 -122 -7 -7 -13 -16 -13
-20 -1 -4 -14 -23 -31 -42 l-30 -35 -28 33 c-16 17 -34 32 -40 32 -17 0 -13
41 5 59 9 9 34 45 56 81 36 58 42 63 52 47 6 -10 16 -25 21 -33z m-1510 -64
c3 -5 15 -10 26 -10 10 0 19 -5 19 -11 0 -18 -64 -6 -68 14 -4 18 13 24 23 7z
m1235 -101 c0 -11 7 -28 16 -37 26 -26 -3 -28 -31 -2 -20 19 -22 26 -13 46 12
27 28 23 28 -7z m147 -19 c3 -11 9 -20 14 -20 15 0 9 -24 -11 -48 -21 -25 -40
-22 -40 7 0 9 -4 21 -10 27 -6 6 -5 17 6 32 19 27 34 28 41 2z m-1197 -29 c14
-26 3 -50 -26 -57 -30 -8 -54 11 -54 41 0 37 62 49 80 16z m70 -31 c11 -11 27
-20 35 -20 8 0 15 -4 15 -8 0 -5 12 -14 27 -21 27 -12 27 -13 8 -27 -18 -14
-18 -14 3 -14 12 0 30 -9 39 -19 9 -11 20 -18 25 -15 17 11 7 -24 -12 -41 -18
-17 -21 -17 -45 -1 -22 15 -30 33 -26 59 1 5 -3 6 -9 2 -5 -3 -10 -13 -10 -21
0 -19 -3 -18 -58 16 -27 17 -54 30 -61 30 -6 0 -11 5 -11 11 0 5 4 7 10 4 5
-3 7 0 5 8 -3 7 3 22 15 32 11 10 20 24 20 32 0 18 7 16 30 -7z m-213 -66 c6
-16 -22 -52 -33 -41 -9 9 5 57 17 57 5 0 12 -7 16 -16z m485 -95 c23 -12 51
-25 60 -30 10 -5 20 -4 24 2 4 7 13 4 25 -7 10 -9 27 -14 39 -11 11 3 18 1 14
-4 -3 -5 -14 -9 -24 -9 -28 0 -85 -51 -68 -61 7 -4 10 -10 7 -13 -13 -13 -176
65 -193 92 -5 9 50 62 65 62 4 0 27 -10 51 -21z m158 -95 c0 -9 -5 -12 -12 -8
-6 4 -8 3 -5 -3 4 -6 19 -8 34 -5 28 5 28 5 9 -17 -23 -26 -47 -27 -76 -3 -29
23 -18 52 21 52 20 0 29 -5 29 -16z"/>
<path d="M785 1289 c-15 -28 -15 -34 4 -82 67 -168 101 -261 101 -273 0 -14
12 -19 22 -8 4 3 -9 44 -28 92 -19 48 -37 102 -41 122 -3 19 -17 58 -30 87
-19 41 -22 56 -13 73 6 11 8 20 6 20 -3 0 -13 -14 -21 -31z"/>
<path d="M830 1310 c0 -5 5 -10 10 -10 6 0 10 -6 10 -12 0 -26 17 -40 39 -33
29 9 26 20 -13 44 -37 24 -46 26 -46 11z"/>
<path d="M454 1269 c-4 -7 0 -16 9 -20 19 -11 38 -67 40 -119 1 -22 6 -40 12
-41 18 -1 22 36 10 86 -7 28 -15 62 -19 78 -7 28 -38 38 -52 16z"/>
<path d="M820 1240 c0 -15 61 -23 73 -10 9 10 8 11 -3 8 -8 -3 -27 -1 -42 3
-16 4 -28 4 -28 -1z"/>
<path d="M2624 1215 c-19 -17 -30 -22 -34 -14 -8 12 -31 -121 -23 -133 2 -5
18 -8 35 -8 30 0 30 0 14 25 -23 35 -20 68 8 94 21 19 41 61 31 61 -2 0 -16
-11 -31 -25z"/>
<path d="M1460 1214 c19 -31 6 -56 -27 -52 -23 2 -28 8 -28 30 1 14 -3 24 -7
22 -12 -8 -9 -49 4 -62 27 -27 78 -4 78 36 0 11 -7 26 -17 33 -15 13 -15 12
-3 -7z"/>
<path d="M1737 1193 c-4 -3 -7 -17 -7 -30 0 -26 21 -31 39 -9 21 25 -10 62
-32 39z"/>
<path d="M2988 1145 c-2 -3 -42 -12 -89 -20 -109 -21 -99 -18 -152 -40 -46
-19 -61 -35 -33 -35 7 0 29 6 47 14 19 7 75 24 125 36 93 23 123 35 113 44 -3
4 -8 4 -11 1z"/>
<path d="M2027 1103 c-4 -3 -7 -15 -7 -25 0 -22 26 -24 34 -2 10 25 -10 45
-27 27z"/>
<path d="M2526 1071 c-19 -30 -24 -60 -11 -64 8 -4 16 7 23 34 9 35 2 53 -12
30z"/>
<path d="M483 998 c-22 -40 -65 -124 -97 -186 l-57 -112 128 64 c70 35 145 71
166 79 20 9 37 20 37 25 0 5 -11 34 -25 63 -14 30 -23 43 -20 29 22 -91 28
-82 -100 -144 -64 -31 -118 -56 -120 -56 -13 0 -2 32 29 83 19 31 33 57 30 57
-7 0 47 99 57 106 5 3 7 10 4 15 -4 5 1 12 9 15 26 10 62 -4 74 -28 11 -21 11
-19 6 12 -9 48 -11 50 -49 50 -31 0 -36 -5 -72 -72z"/>
<path d="M2230 1046 c10 -13 10 -19 -1 -33 -13 -15 -12 -15 8 -5 33 18 35 28
6 41 -23 11 -25 10 -13 -3z"/>
<path d="M2925 1035 c-88 -45 -94 -49 -84 -67 8 -15 15 -13 61 18 29 19 56 34
60 34 4 0 12 9 18 20 14 26 6 25 -55 -5z"/>
<path d="M2648 998 c-5 -30 2 -39 83 -117 49 -46 89 -87 89 -91 0 -4 -26 -2
-57 5 -117 26 -127 27 -113 10 7 -8 27 -15 44 -15 17 0 42 -7 54 -16 12 -8 22
-12 22 -8 0 3 7 1 15 -6 9 -8 15 -8 15 -2 0 6 9 13 19 17 15 4 18 11 13 26 -9
22 -64 89 -109 132 -18 16 -37 45 -43 63 -14 43 -26 43 -32 2z"/>
<path d="M702 1004 c-12 -8 -22 -12 -22 -8 0 3 -7 1 -15 -6 -20 -17 -19 -47 3
-73 22 -29 55 -32 91 -11 25 15 30 23 27 48 -3 26 -36 66 -55 66 -4 0 -17 -7
-29 -16z m56 -23 c19 -11 12 -41 -13 -57 -16 -11 -25 -11 -45 -1 -48 24 -35
67 20 67 14 0 31 -4 38 -9z"/>
<path d="M2533 969 c-7 -28 -19 -64 -27 -79 -17 -35 -13 -40 30 -40 18 0 79
-9 135 -20 57 -11 104 -19 105 -17 2 3 -213 201 -223 204 -5 2 -14 -20 -20
-48z m98 -54 c14 -11 28 -28 32 -39 7 -19 4 -19 -83 -1 -8 2 -20 4 -26 4 -19
1 -23 27 -9 54 7 14 10 29 7 33 -10 11 51 -28 79 -51z"/>
<path d="M1552 792 c-17 -166 -24 -346 -12 -302 5 19 9 60 9 90 0 30 4 78 10
106 10 54 17 211 9 219 -2 3 -10 -48 -16 -113z"/>
<path d="M575 800 c-44 -21 -66 -36 -50 -33 17 3 39 12 50 20 11 7 37 18 58
24 20 5 37 14 37 19 0 15 -9 12 -95 -30z"/>
<path d="M669 789 c-1 -13 -1 -44 0 -69 4 -203 3 -227 -13 -264 -22 -53 -5
-68 23 -20 13 21 22 45 21 53 0 9 -4 82 -8 163 -4 80 -10 150 -15 154 -4 4 -8
-4 -8 -17z"/>
<path d="M2423 716 c-27 -55 -14 -51 16 4 14 26 25 35 52 38 49 5 49 12 0 10
-40 -1 -44 -4 -68 -52z"/>
<path d="M382 708 c-68 -37 -102 -44 -74 -16 17 17 15 33 -3 18 -16 -13 -21
-50 -6 -50 9 0 107 41 149 62 21 11 31 30 15 27 -5 -1 -41 -19 -81 -41z"/>
<path d="M2307 552 c-15 -16 -15 -22 5 -75 26 -71 33 -70 11 2 -14 42 -15 56
-5 72 15 24 10 25 -11 1z"/>
<path d="M2254 499 c-10 -12 -43 -35 -71 -51 -29 -17 -53 -31 -53 -33 0 -2 23
-17 50 -35 28 -18 85 -59 127 -91 42 -33 78 -57 80 -55 3 2 -4 21 -15 43 -11
21 -36 84 -57 141 -20 56 -38 102 -40 102 -1 0 -10 -10 -21 -21z m44 -77 c34
-81 46 -121 38 -129 -4 -4 -10 -3 -14 2 -4 6 -37 30 -74 55 -64 43 -90 71 -70
78 5 1 24 13 42 27 17 13 38 21 45 19 7 -3 22 -26 33 -52z"/>
<path d="M2043 375 l-51 -24 9 -38 c5 -21 9 -74 9 -117 l0 -80 -35 34 c-40 38
-46 34 -13 -10 22 -31 51 -39 64 -19 6 10 6 86 -1 184 -3 41 19 63 71 71 24 3
41 10 38 15 -8 14 -35 9 -91 -16z"/>
<path d="M2353 368 c3 -7 20 -50 37 -95 18 -45 37 -80 41 -77 5 3 3 19 -5 37
-27 64 -68 147 -73 147 -3 0 -3 -6 0 -12z"/>
<path d="M1105 337 c-4 -18 -5 -49 -3 -70 l3 -37 53 38 c46 32 51 38 37 47
-10 5 -33 20 -51 32 l-33 22 -6 -32z"/>
<path d="M1171 255 c-73 -53 -86 -71 -45 -61 16 4 31 11 34 14 3 4 12 12 21
17 9 6 28 18 42 28 25 18 27 17 109 -14 45 -18 93 -39 105 -46 12 -8 32 -13
45 -11 18 3 11 8 -32 25 -30 12 -92 37 -137 57 l-82 35 -60 -44z"/>
<path d="M1868 289 c-15 -8 -11 -15 30 -51 26 -23 58 -51 72 -63 l25 -20 -25
29 c-14 16 -37 41 -53 56 -17 18 -25 33 -21 44 7 18 -3 20 -28 5z"/>
<path d="M2292 267 c23 -23 101 -77 111 -77 5 0 -18 20 -52 45 -60 44 -85 58
-59 32z"/>
<path d="M1791 259 c-14 -5 -77 -23 -140 -40 -64 -17 -120 -35 -126 -40 -16
-15 12 -10 91 16 41 14 85 25 99 25 13 0 26 4 29 9 11 16 83 23 108 10 23 -12
23 -12 4 10 -21 23 -29 24 -65 10z"/>
</g>
</svg>
