<?xml version="1.0" standalone="no"?>
<!DOCTYPE svg PUBLIC "-//W3C//DTD SVG 20010904//EN"
 "http://www.w3.org/TR/2001/REC-SVG-20010904/DTD/svg10.dtd">
<svg version="1.0" xmlns="http://www.w3.org/2000/svg"
 width="300.000000pt" height="408.000000pt" viewBox="0 0 300.000000 408.000000"
 preserveAspectRatio="xMidYMid meet">
<metadata>
Created by potrace 1.10, written by Peter Selinger 2001-2011
</metadata>
<g transform="translate(0.000000,408.000000) scale(0.100000,-0.100000)"
fill="#000000" stroke="none">
<path d="M2990 4062 c0 -11 -16 -35 -35 -55 -41 -43 -39 -46 10 -14 28 18 35
28 35 55 0 17 -2 32 -5 32 -3 0 -5 -8 -5 -18z"/>
<path d="M2963 3952 c-17 -26 -39 -64 -49 -84 -10 -21 -25 -40 -33 -43 -33
-11 -156 -198 -146 -222 5 -14 9 -11 21 13 9 16 32 51 53 79 21 27 55 75 77
105 21 30 42 57 46 58 5 2 8 11 8 19 0 8 14 33 31 54 17 21 29 45 27 53 -2 9
-16 -5 -35 -32z"/>
<path d="M2460 3743 c-8 -3 -64 -23 -125 -45 -60 -22 -119 -41 -130 -43 -11
-2 -46 -10 -77 -18 -32 -8 -58 -13 -58 -10 0 2 -12 -3 -27 -10 -16 -8 -36 -13
-47 -11 -12 2 -15 -1 -9 -7 18 -18 319 66 463 130 41 18 47 27 10 14z"/>
<path d="M2406 3685 c-27 -13 -100 -38 -163 -56 -62 -18 -113 -36 -113 -40 0
-9 301 79 310 91 3 4 14 12 25 18 38 21 -8 11 -59 -13z"/>
<path d="M1500 3586 c-18 -17 -102 -46 -132 -46 -12 0 -19 -3 -16 -6 4 -3 30
-3 60 1 38 5 64 15 88 36 19 15 30 29 25 29 -6 0 -17 -6 -25 -14z"/>
<path d="M2700 3557 c0 -9 -8 -24 -19 -34 -10 -10 -21 -34 -25 -53 -6 -30 -5
-33 7 -20 8 8 25 34 38 58 18 33 20 45 11 54 -9 9 -12 8 -12 -5z"/>
<path d="M1614 3541 c4 -5 28 -12 55 -16 37 -5 62 -18 112 -57 57 -46 60 -47
29 -13 -62 67 -108 95 -157 95 -24 0 -42 -4 -39 -9z"/>
<path d="M1500 3521 c-17 -5 -26 -15 -28 -31 -4 -40 11 -54 44 -43 46 16 87
-2 129 -54 67 -84 107 -122 136 -128 16 -4 56 -20 89 -36 33 -16 62 -29 65
-29 11 0 4 19 -16 41 -11 13 -18 18 -14 12 4 -8 0 -13 -9 -13 -41 0 -3 40 39
41 16 1 22 3 13 6 -30 8 -20 24 10 17 42 -11 73 -29 125 -74 53 -47 63 -39 16
14 -57 66 -87 77 -222 86 -123 7 -184 25 -215 63 -11 12 -6 14 35 11 35 -3 43
-2 28 5 -11 5 -31 10 -45 10 -14 1 -32 6 -40 12 -11 8 9 9 73 5 58 -4 86 -3
82 4 -3 5 -15 10 -26 10 -13 0 -18 4 -13 12 5 7 3 8 -6 3 -16 -10 -140 -13
-134 -4 2 4 -19 9 -46 13 -27 4 -52 10 -54 15 -9 14 51 34 79 27 14 -4 25 -2
25 4 0 11 -81 12 -120 1z m271 -204 c19 -8 51 -12 71 -10 21 2 45 0 55 -6 17
-10 17 -10 1 -11 -10 0 -18 -4 -18 -10 0 -5 -8 -10 -18 -10 -29 0 -110 30
-123 46 -14 17 -10 17 32 1z"/>
<path d="M1122 3508 c-30 -5 -51 -12 -49 -14 5 -5 179 16 186 22 8 7 -83 2
-137 -8z"/>
<path d="M1354 3496 c-44 -12 -96 -32 -115 -45 -29 -20 -31 -22 -9 -17 14 3
59 11 100 17 89 14 103 20 105 48 1 12 1 21 1 20 -1 0 -37 -10 -82 -23z"/>
<path d="M866 3454 c-74 -23 -48 -27 30 -5 38 11 58 20 44 20 -14 0 -47 -7
-74 -15z"/>
<path d="M1437 3449 c-28 -17 -67 -104 -67 -151 0 -28 3 -38 9 -29 5 8 14 10
21 6 9 -5 11 -4 6 3 -5 8 3 12 24 12 20 0 29 4 24 11 -4 7 -20 9 -39 6 l-33
-5 20 49 c12 28 32 58 45 68 37 30 29 53 -10 30z"/>
<path d="M1179 3425 c-3 -2 -34 -12 -70 -21 -101 -25 -291 -85 -286 -90 2 -3
53 11 113 30 60 19 134 40 164 46 51 10 119 39 94 40 -6 0 -13 -2 -15 -5z"/>
<path d="M1195 3384 c-102 -32 -106 -34 -52 -28 32 3 70 12 85 20 15 7 34 14
42 14 8 1 26 7 40 15 39 22 5 16 -115 -21z"/>
<path d="M1775 3402 c29 -6 29 -6 -10 -12 -28 -5 -12 -7 55 -8 90 0 93 0 60
13 -19 7 -57 13 -85 13 -37 -1 -42 -2 -20 -6z"/>
<path d="M2567 3360 c-17 -18 -23 -31 -16 -35 11 -7 35 19 42 48 3 9 4 17 4
17 -1 -1 -14 -14 -30 -30z"/>
<path d="M606 3360 c-27 -11 -54 -24 -60 -30 -13 -14 95 27 109 41 12 12 8 11
-49 -11z"/>
<path d="M1543 3350 c-18 -11 -33 -24 -33 -30 0 -15 9 -12 37 10 14 11 35 20
47 20 17 0 18 2 6 10 -20 13 -20 13 -57 -10z"/>
<path d="M1911 3356 c31 -16 79 -29 79 -21 0 9 -66 35 -87 35 -13 0 -11 -4 8
-14z"/>
<path d="M1025 3333 c-50 -10 -196 -67 -206 -79 -13 -16 -33 -19 -24 -4 3 6
-1 7 -10 3 -13 -5 -14 -7 -3 -14 10 -7 8 -9 -7 -10 -11 -1 -28 -1 -37 0 -9 1
-34 -13 -55 -32 -21 -18 -73 -59 -115 -91 -84 -63 -140 -121 -206 -214 -30
-43 -37 -60 -25 -56 10 3 7 -1 -7 -9 -27 -16 -66 -106 -81 -187 -5 -25 -11
-61 -15 -80 -6 -32 -5 -34 10 -21 9 7 16 20 16 28 0 8 3 12 8 10 4 -3 13 1 20
9 7 8 8 14 3 14 -6 0 -15 9 -21 20 -8 15 -6 37 11 90 l21 71 43 -5 c39 -5 43
-3 40 14 -2 11 -8 27 -13 36 -13 23 -4 51 29 99 30 44 115 127 169 165 50 35
70 52 93 78 11 12 27 22 34 22 8 0 66 24 131 54 137 62 225 90 261 81 20 -4
22 -3 11 5 -15 10 -39 11 -75 3z"/>
<path d="M687 3313 c-27 -8 -47 -17 -44 -19 5 -6 117 25 117 32 0 7 -22 3 -73
-13z"/>
<path d="M1550 3304 c-13 -33 -13 -34 4 -34 8 0 17 8 19 18 4 16 5 16 6 0 1
-21 24 -23 70 -7 37 13 41 29 7 29 -14 0 -28 5 -31 10 -3 6 -12 10 -18 10 -7
0 -6 -4 3 -10 13 -8 12 -10 -2 -10 -10 0 -18 5 -18 10 0 21 -31 9 -40 -16z"/>
<path d="M1392 3258 c-36 -10 -48 -27 -56 -83 l-6 -40 12 35 12 35 7 -62 c8
-67 36 -126 55 -119 7 3 14 -7 17 -22 6 -33 2 -39 -16 -23 -11 9 -26 6 -68
-14 -30 -14 -62 -25 -73 -25 -27 0 -116 -51 -109 -62 3 -6 9 -5 13 2 5 7 25
14 46 15 21 2 40 7 42 13 2 6 10 8 19 5 11 -4 14 -2 9 5 -5 8 5 12 33 12 22 0
43 -5 47 -12 5 -7 12 3 20 28 l12 39 1 -37 c1 -32 5 -38 22 -38 18 0 19 3 9
15 -6 8 -9 19 -5 25 12 19 25 10 25 -19 0 -22 5 -30 24 -33 31 -6 58 8 34 17
-9 4 -18 15 -21 26 -5 18 -2 20 26 14 37 -8 60 -25 34 -25 -14 0 -16 -6 -11
-27 7 -36 25 -73 35 -73 5 0 6 24 4 53 l-4 52 10 -50 c15 -72 33 -85 25 -17
-10 76 -12 80 -71 97 -42 12 -62 25 -89 58 -64 78 -85 168 -49 212 13 16 15
17 10 3 -5 -13 -1 -18 14 -18 11 0 17 5 14 10 -3 6 -2 10 3 10 5 0 9 6 9 13 0
15 -21 16 -65 5z"/>
<path d="M2465 3214 c-31 -33 -88 -104 -128 -159 -39 -55 -113 -153 -165 -218
-51 -65 -91 -121 -89 -124 3 -2 18 12 34 32 15 21 39 48 51 62 40 41 123 147
138 176 8 15 18 27 23 27 4 0 13 10 18 23 6 13 28 44 49 69 22 24 53 62 69 83
17 20 39 46 49 56 11 10 17 22 13 25 -3 3 -31 -20 -62 -52z"/>
<path d="M1758 3244 c6 -12 8 -25 4 -29 -4 -5 -1 -5 6 -1 7 4 15 1 18 -9 9
-23 -3 -30 -22 -14 -14 12 -16 11 -12 -6 3 -14 11 -19 26 -18 25 3 26 0 12
-28 -10 -18 -13 -18 -33 -4 -25 17 -37 19 -37 5 0 -5 9 -10 20 -10 23 0 24 -8
11 -77 -6 -28 -11 -96 -12 -152 l-1 -102 -32 6 c-27 4 -28 4 -8 -5 13 -5 34
-7 47 -4 21 5 24 1 33 -38 4 -23 7 -45 6 -46 -1 -2 -29 2 -61 9 -32 7 -62 12
-67 10 -15 -3 -46 31 -47 53 0 12 -3 15 -6 8 -3 -8 -9 -10 -16 -3 -13 10 -85
-14 -74 -25 3 -3 18 1 35 10 28 14 31 14 51 -8 l22 -24 -43 -6 c-34 -5 -61 0
-128 25 -47 17 -104 36 -128 43 l-43 12 23 34 c13 18 30 36 38 38 9 3 5 -6
-10 -24 l-25 -29 35 30 c19 17 36 30 38 31 1 1 -4 7 -13 14 -13 11 -14 10 -9
-5 6 -15 4 -15 -13 -4 -11 7 -28 9 -37 6 -21 -8 -66 -105 -73 -158 -3 -22 -9
-42 -13 -44 -5 -3 -43 -12 -86 -20 -42 -8 -86 -17 -98 -21 -37 -10 47 38 89
51 22 7 34 13 27 14 -44 3 -209 -77 -234 -113 -4 -6 -7 -31 -7 -56 0 -39 2
-42 12 -26 7 11 22 30 34 43 12 13 18 23 12 23 -6 0 -7 5 -4 10 11 18 77 40
164 55 94 17 110 27 137 88 22 52 21 50 33 43 6 -4 4 -19 -5 -42 -8 -20 -13
-38 -11 -41 3 -2 10 12 17 31 6 21 18 36 27 36 19 0 13 -16 -38 -101 l-40 -66
-77 -12 c-111 -18 -153 -30 -184 -52 l-28 -19 10 25 c15 39 -7 21 -30 -25 -19
-38 -27 -80 -14 -80 12 0 69 55 70 68 2 26 5 30 32 40 32 13 98 19 107 10 11
-10 -39 -38 -86 -48 l-44 -9 50 4 c34 4 60 14 85 34 19 15 52 31 72 35 26 5
45 18 66 44 35 44 62 95 62 116 0 8 5 18 10 21 10 6 80 -12 80 -21 0 -12 -91
-132 -122 -160 -43 -40 -161 -107 -229 -129 -139 -46 -198 -85 -199 -132 0
-24 -40 -74 -122 -154 l-57 -55 42 -40 c23 -21 32 -27 19 -13 -12 14 -22 31
-22 37 0 6 23 30 52 52 40 32 57 40 77 35 20 -4 22 -3 11 5 -8 5 -26 10 -39
10 -21 0 -18 4 20 29 24 17 44 38 44 48 0 13 7 17 25 16 l25 -2 -22 11 c-25
12 -29 23 -13 33 12 8 80 -27 104 -54 11 -12 24 -21 29 -21 18 0 -37 51 -77
72 -35 18 -37 21 -22 30 14 8 25 5 47 -11 15 -12 34 -21 41 -20 7 0 3 5 -9 11
-30 14 -29 26 3 39 30 11 60 4 88 -20 18 -15 18 -15 6 8 -12 23 -12 24 21 17
24 -4 30 -3 19 4 -13 8 -13 10 2 10 9 0 19 4 23 9 3 6 -7 6 -27 0 -18 -5 -56
-9 -84 -9 -28 0 -73 -7 -99 -15 -27 -8 -51 -13 -52 -11 -7 7 78 36 104 36 14
0 46 12 71 26 44 26 45 26 39 5 -3 -11 -1 -21 4 -21 5 0 9 11 9 24 0 18 16 34
70 70 39 25 88 62 110 82 l39 35 3 -33 c4 -33 4 -33 17 14 8 27 28 63 47 83
33 35 35 36 75 25 22 -6 53 -8 68 -5 16 3 75 -4 132 -15 57 -12 134 -24 172
-27 39 -3 67 -11 67 -17 0 -7 3 -6 8 1 6 10 17 8 47 -7 21 -11 41 -18 43 -15
5 4 -43 47 -82 74 -12 8 -24 20 -28 27 -4 6 -20 15 -34 18 -15 4 -44 21 -64
38 -21 16 -43 29 -49 27 -16 -6 -1 -22 58 -59 30 -19 66 -45 80 -58 l26 -24
-50 7 c-27 4 -61 12 -73 16 -13 5 -28 7 -32 4 -14 -9 -25 62 -25 158 0 73 -3
88 -17 93 -14 4 -15 10 -8 30 6 14 10 40 10 59 0 19 4 36 9 39 4 3 11 19 15
36 7 37 22 32 31 -11 5 -21 10 -27 15 -19 6 9 9 9 16 -1 11 -19 6 -72 -8 -80
-9 -6 -9 -14 -1 -32 10 -20 9 -26 -3 -31 -8 -3 -14 -13 -15 -23 0 -17 -1 -17
-7 -1 -5 12 -11 14 -21 9 -22 -14 -5 -41 25 -41 17 0 40 13 65 38 l38 39 4
-31 c3 -22 3 -21 1 4 -1 19 -7 51 -12 70 l-10 35 -1 -46 c-1 -27 -7 -52 -15
-58 -12 -10 -15 -3 -18 39 -1 27 0 50 4 50 12 0 -11 63 -32 85 -11 11 -23 35
-26 53 l-6 31 32 -12 c23 -8 39 -24 52 -52 19 -39 19 -39 14 -7 -4 26 -2 32
12 32 28 -1 102 -72 118 -115 12 -34 14 -36 11 -10 -2 17 -7 39 -11 50 -4 11
2 4 14 -15 l21 -35 -6 34 c-12 74 -73 126 -137 116 -44 -6 -128 23 -166 57
-24 22 -24 22 -14 2z"/>
<path d="M385 3173 c-65 -46 -70 -51 -17 -23 23 13 50 32 59 42 23 25 15 22
-42 -19z"/>
<path d="M1460 3181 c0 -22 26 -29 48 -13 l22 17 -35 2 c-19 2 -35 -1 -35 -6z"/>
<path d="M0 3167 c0 -8 24 -32 52 -53 61 -45 69 -65 34 -84 -14 -7 -23 -17
-20 -22 3 -5 29 11 57 35 29 24 63 51 77 60 13 9 20 17 14 17 -6 0 -23 -9 -37
-21 -26 -20 -27 -20 -54 -1 -95 67 -123 82 -123 69z"/>
<path d="M430 3161 c-8 -6 -18 -7 -24 -4 -5 3 -6 1 -2 -5 4 -7 4 -12 -1 -12
-11 0 -137 -110 -142 -124 -3 -8 126 93 179 141 16 15 12 17 -10 4z"/>
<path d="M713 3140 c-28 -16 -55 -35 -59 -41 -5 -8 -3 -9 6 -4 9 6 10 1 6 -16
-5 -15 1 -10 16 14 23 38 23 38 68 31 25 -4 56 -9 70 -10 14 -1 32 -4 40 -7 8
-2 34 -10 58 -17 23 -8 61 -31 85 -52 23 -21 53 -41 67 -44 14 -3 43 -15 66
-25 22 -10 62 -19 88 -19 43 0 46 1 36 19 -16 31 -11 38 9 12 18 -24 21 -24
61 -11 54 18 58 28 18 44 -23 10 -46 12 -76 6 -34 -6 -42 -5 -42 8 0 11 8 13
34 9 28 -4 34 -3 29 9 -3 8 -16 14 -30 14 -13 0 -21 4 -18 10 3 5 0 7 -9 4 -8
-3 -30 1 -48 10 -71 33 -160 56 -213 56 -33 0 -54 4 -50 10 3 5 -13 7 -43 3
-32 -3 -52 -1 -56 6 -5 8 -15 5 -33 -9 -33 -26 -56 -26 -24 0 35 30 4 24 -56
-10z m287 -41 c0 -6 7 -8 16 -5 9 3 25 -1 37 -9 12 -8 34 -15 49 -15 16 0 28
-4 28 -9 0 -15 33 -23 41 -9 6 9 13 9 31 1 23 -12 23 -12 -6 -12 -25 -1 -27
-4 -22 -25 5 -20 1 -25 -19 -29 -14 -2 -28 -1 -31 4 -2 5 -25 17 -50 28 -25
12 -43 25 -40 30 4 5 1 13 -5 17 -8 4 -9 3 -5 -4 4 -7 2 -12 -4 -12 -7 0 -14
9 -17 21 -3 12 -11 18 -19 15 -8 -3 -14 1 -14 9 0 8 7 15 15 15 8 0 15 -5 15
-11z"/>
<path d="M1460 3126 c-11 -15 -11 -19 3 -33 17 -17 49 -13 82 11 25 18 17 26
-32 33 -29 4 -42 1 -53 -11z m51 -22 c-34 -15 -48 -13 -36 5 3 6 21 11 38 10
l32 -1 -34 -14z"/>
<path d="M273 3101 c-22 -16 -51 -44 -64 -63 -13 -18 -38 -48 -55 -67 -18 -19
-43 -52 -56 -72 -13 -21 -40 -46 -60 -56 -34 -16 -49 -33 -30 -33 18 0 82 52
101 84 13 21 42 44 76 62 54 27 80 54 30 31 -14 -7 -25 -15 -25 -19 0 -5 -5
-8 -10 -8 -19 0 10 40 76 106 35 35 62 64 60 64 -2 0 -21 -13 -43 -29z"/>
<path d="M626 3040 c-31 -77 -14 -134 43 -149 75 -20 96 -25 106 -26 6 -1 9
-7 7 -15 -3 -12 -1 -12 8 -3 17 16 4 32 -44 53 -67 29 -98 69 -99 129 -1 28
-3 51 -3 51 -1 0 -9 -18 -18 -40z"/>
<path d="M2442 2963 c12 -21 34 -50 49 -64 14 -15 39 -53 54 -85 16 -33 30
-54 32 -47 9 27 -117 233 -143 233 -10 0 -8 -9 8 -37z"/>
<path d="M316 2904 c-25 -31 -46 -66 -46 -78 0 -15 8 -8 31 29 17 28 43 62 57
78 14 15 21 27 15 27 -6 0 -31 -25 -57 -56z"/>
<path d="M196 2912 c-15 -23 -26 -46 -24 -53 2 -6 16 7 31 31 16 23 27 46 25
52 -2 6 -16 -8 -32 -30z"/>
<path d="M1367 2864 c-21 -14 -36 -28 -33 -31 3 -4 15 2 25 11 11 10 37 24 58
32 32 11 34 13 13 14 -14 0 -43 -12 -63 -26z"/>
<path d="M1521 2883 c5 -37 -42 -76 -70 -58 -6 3 -11 -1 -11 -9 0 -9 11 -18
25 -22 26 -7 62 2 52 13 -4 3 3 14 14 24 17 14 18 21 9 38 -11 21 -21 28 -19
14z"/>
<path d="M2441 2875 c0 -11 9 -40 19 -65 24 -58 24 -31 0 35 -10 28 -19 41
-19 30z"/>
<path d="M1201 2842 l-34 -35 -19 27 c-11 14 -25 26 -31 26 -6 0 -2 -6 8 -14
19 -14 19 -15 1 -35 -11 -12 -23 -21 -28 -21 -18 0 -59 -38 -48 -45 5 -3 10
-1 10 5 0 6 5 8 11 4 15 -9 -17 -28 -34 -21 -7 3 -13 -3 -13 -12 0 -15 11 -14
88 13 86 30 89 33 118 83 34 60 34 60 18 60 -7 -1 -28 -16 -47 -35z"/>
<path d="M111 2780 c-12 -22 -26 -40 -31 -40 -10 0 -30 -65 -29 -95 0 -11 20
22 45 74 46 98 54 130 15 61z"/>
<path d="M391 2721 c9 -40 48 -110 62 -111 13 0 7 17 -23 61 -16 24 -30 54
-30 67 0 12 -4 22 -9 22 -5 0 -5 -16 0 -39z"/>
<path d="M2481 2740 c0 -14 6 -38 14 -55 18 -40 18 -21 1 35 -10 32 -15 38
-15 20z"/>
<path d="M2580 2733 c0 -4 9 -21 20 -38 13 -20 19 -40 15 -60 l-4 -30 11 33
c9 27 8 35 -6 50 -9 10 -16 24 -16 30 0 6 -4 14 -10 17 -5 3 -10 3 -10 -2z"/>
<path d="M10 2675 c9 -11 9 -22 1 -46 -6 -18 -10 -77 -9 -133 1 -99 2 -99 7
-31 4 46 8 61 12 45 3 -14 6 7 5 45 0 39 3 85 8 103 8 29 6 32 -14 32 -19 0
-20 -2 -10 -15z"/>
<path d="M1555 2683 c-56 -7 -85 -24 -85 -48 0 -13 -3 -32 -6 -42 -5 -15 -4
-15 5 -3 6 8 11 25 11 36 0 12 8 25 18 29 27 11 221 16 197 5 -17 -7 -16 -9
10 -9 17 -1 43 -8 59 -16 16 -9 31 -13 33 -11 3 2 -8 11 -24 20 -20 11 -23 15
-10 16 10 0 30 -12 44 -27 17 -19 27 -24 30 -15 6 15 49 16 59 0 5 -8 0 -9
-16 -5 -16 4 -23 1 -27 -13 -5 -18 -8 -18 -42 -5 -36 14 -153 36 -160 30 -11
-11 16 -24 62 -30 28 -4 69 -16 89 -26 l37 -19 30 30 c16 17 38 30 48 30 15 0
14 -3 -7 -20 -14 -11 -28 -20 -32 -20 -10 0 -10 -30 0 -30 4 0 13 9 19 20 16
25 70 35 119 21 40 -11 58 -6 34 9 -8 6 -10 10 -4 10 17 0 44 -34 54 -68 13
-48 -6 -100 -55 -149 -36 -35 -41 -44 -29 -54 12 -9 13 -9 9 4 -4 8 2 21 12
28 10 8 31 29 46 47 l27 34 -2 -38 c-2 -27 -12 -47 -34 -70 -30 -29 -31 -33
-18 -62 11 -26 10 -30 -2 -25 -8 3 -14 11 -14 17 0 7 -7 21 -15 32 -14 18 -14
17 -5 -9 5 -16 10 -52 10 -80 0 -46 -3 -54 -29 -72 -34 -22 -51 -54 -51 -93 0
-21 -2 -24 -10 -12 -8 13 -10 13 -10 -1 0 -24 29 -33 36 -11 21 66 59 122 82
122 4 0 14 -16 20 -35 7 -18 26 -45 42 -59 17 -14 30 -29 30 -35 0 -6 7 -11
15 -11 9 0 18 -12 22 -30 5 -29 23 -43 23 -18 0 6 3 8 8 4 4 -4 7 -13 7 -19 0
-6 14 -14 30 -19 41 -11 60 -28 68 -60 6 -21 3 -28 -13 -33 -11 -3 -20 -10
-20 -14 0 -16 13 -20 31 -10 25 13 25 76 1 105 -9 12 -35 31 -57 42 -22 11
-49 30 -60 42 -17 20 -12 19 39 -9 80 -42 83 -32 4 12 -83 47 -144 111 -152
160 -6 31 -4 42 10 52 13 9 20 34 25 86 15 150 8 254 -20 297 -4 7 -39 18 -77
24 -38 6 -114 21 -169 34 -102 23 -233 45 -257 43 -7 -1 -26 -4 -43 -6z"/>
<path d="M2323 2588 c35 -50 70 -94 78 -96 11 -3 11 -1 1 5 -7 5 -33 41 -57
79 -65 99 -69 104 -78 104 -4 0 21 -41 56 -92z"/>
<path d="M550 2655 c7 -8 21 -15 32 -15 25 0 52 -26 71 -70 23 -52 25 -63 16
-87 -8 -22 20 -95 41 -108 13 -8 13 1 -1 27 -6 11 -13 44 -15 72 -4 65 -24
114 -61 147 -46 43 -113 70 -83 34z"/>
<path d="M720 2634 c0 -3 11 -19 24 -35 14 -16 22 -36 19 -47 -2 -10 5 -29 17
-43 12 -13 19 -18 15 -11 -3 7 -9 25 -11 40 -7 37 -64 124 -64 96z"/>
<path d="M2270 2617 c0 -9 61 -97 67 -97 5 0 -25 50 -48 81 -10 13 -19 20 -19
16z"/>
<path d="M2630 2579 c0 -3 23 -29 50 -57 42 -44 49 -57 45 -80 -6 -24 -5 -25
5 -8 10 14 9 23 0 41 -12 23 -100 114 -100 104z"/>
<path d="M2758 2548 c7 -7 12 -28 12 -47 0 -26 3 -32 11 -24 14 14 -6 83 -24
83 -8 0 -7 -4 1 -12z"/>
<path d="M1880 2510 c8 -5 23 -10 34 -10 12 0 16 -5 12 -15 -3 -8 -1 -15 4
-15 6 0 10 7 10 16 0 8 4 13 8 10 4 -2 14 0 22 6 12 8 12 9 -2 4 -10 -3 -18
-2 -18 2 0 5 -19 9 -42 10 -32 2 -39 0 -28 -8z"/>
<path d="M1838 2485 c-3 -13 -1 -22 3 -19 5 3 9 -6 9 -20 0 -13 -6 -27 -12
-29 -8 -3 -6 -6 4 -6 15 -1 17 8 17 49 -2 53 -13 67 -21 25z"/>
<path d="M188 2480 c-13 -32 -17 -169 -5 -173 7 -2 13 -17 14 -33 6 -109 28
-334 44 -444 19 -141 117 -396 215 -560 41 -68 109 -161 88 -120 -7 13 -6 13
11 0 11 -8 28 -24 37 -35 10 -11 17 -16 18 -12 0 4 15 -8 32 -28 18 -19 40
-35 48 -35 8 0 -9 23 -40 53 -30 29 -74 75 -98 104 -46 55 -152 227 -152 245
0 6 -9 25 -19 42 -30 49 -83 188 -77 203 3 8 -1 30 -9 50 -8 19 -15 43 -15 52
0 9 22 -34 48 -96 27 -61 56 -119 65 -128 23 -22 43 -60 28 -51 -15 9 -14 0 2
-32 8 -15 22 -43 31 -62 9 -19 25 -46 35 -59 l19 -25 -5 27 c-8 41 4 33 32
-22 28 -57 40 -67 52 -47 7 12 16 9 51 -15 23 -15 42 -24 42 -20 0 5 -15 19
-33 30 -71 44 -144 135 -203 254 -32 64 -61 114 -65 112 -3 -3 -11 8 -18 23
-11 25 -10 26 4 8 8 -11 15 -14 15 -7 0 6 -12 24 -27 39 -15 15 -28 32 -29 37
0 6 -2 17 -2 26 -1 8 -16 37 -33 63 -27 40 -33 62 -41 138 -6 62 -6 94 2 102
7 7 10 1 11 -20 1 -19 3 -23 6 -10 3 10 0 28 -5 40 -16 34 -21 66 -10 66 6 0
4 8 -5 18 -8 9 -17 37 -20 62 -3 25 -8 62 -12 83 -7 35 -8 36 -22 20 -14 -17
-14 -17 -7 2 16 44 18 176 2 135z"/>
<path d="M2252 2473 c2 -5 16 -34 32 -65 28 -59 43 -78 26 -33 -15 40 -50 105
-56 105 -3 0 -4 -3 -2 -7z"/>
<path d="M566 2462 c-3 -5 8 -23 24 -41 36 -37 39 -27 6 18 -13 18 -27 28 -30
23z"/>
<path d="M2804 2393 c9 -18 13 -33 9 -33 -5 -1 4 -7 19 -15 19 -11 31 -30 44
-72 17 -57 33 -87 41 -79 9 9 -46 125 -82 171 -48 64 -51 67 -31 28z"/>
<path d="M1264 2358 c1 -7 9 -24 18 -38 9 -14 28 -50 42 -81 13 -31 31 -59 38
-62 8 -3 25 -28 38 -56 14 -28 29 -51 34 -51 4 0 3 7 -4 15 -6 8 -9 18 -6 24
4 5 -1 16 -10 25 -8 9 -12 22 -8 28 4 7 4 10 0 7 -4 -4 -20 5 -35 20 -22 20
-26 29 -17 40 8 11 8 13 -1 8 -6 -4 -14 -3 -17 2 -4 5 -2 12 4 16 14 9 12 25
-3 25 -7 0 -26 20 -41 45 -31 48 -35 53 -32 33z"/>
<path d="M2455 2343 c9 -16 35 -48 57 -73 42 -47 38 -39 -25 48 -42 56 -58 69
-32 25z"/>
<path d="M1850 2315 c0 -6 84 -55 95 -55 4 0 -9 14 -30 30 -33 26 -65 39 -65
25z"/>
<path d="M1967 2275 c-15 -32 -19 -34 -38 -25 -25 14 -27 12 -34 -31 l-5 -34
13 28 c12 26 15 27 29 14 17 -18 12 -76 -8 -84 -7 -2 -10 -11 -7 -19 3 -9 -2
-14 -13 -15 -11 0 -14 -3 -6 -6 6 -2 9 -9 6 -15 -4 -6 -8 -29 -10 -51 -2 -22
-8 -43 -13 -46 -5 -4 -9 -13 -9 -21 3 -48 0 -51 -32 -35 -16 8 -37 15 -47 15
-11 -1 -6 -6 13 -14 42 -19 47 -29 39 -82 -4 -30 -11 -44 -22 -44 -10 0 -13 5
-8 18 13 32 18 82 8 82 -11 0 -10 9 -16 -145 -4 -115 -4 -117 6 -42 7 61 13
77 24 73 8 -3 11 -1 8 4 -12 19 12 10 39 -15 27 -25 33 -49 16 -60 -12 -7 -9
-55 3 -55 5 0 5 -6 -1 -12 -5 -7 -13 -23 -17 -36 -4 -13 -25 -55 -47 -94 -22
-38 -37 -72 -35 -74 6 -7 53 58 62 85 4 13 14 40 23 60 l16 36 12 -100 c7 -55
13 -126 13 -158 1 -41 7 -67 20 -85 23 -34 36 -113 57 -352 7 -87 8 -95 19
-102 6 -5 6 -11 -2 -19 -13 -13 -36 18 -60 79 l-14 37 6 -42 c5 -42 4 -43 -22
-41 -26 1 -86 50 -77 63 2 3 -2 1 -8 -5 -9 -7 -16 -4 -25 12 l-12 23 -1 -24
c0 -26 88 -121 112 -121 10 0 10 2 1 8 -7 4 -9 12 -5 18 5 7 26 -1 60 -23 30
-19 52 -36 50 -38 -1 -1 -29 2 -61 8 -46 8 -60 8 -67 -2 -6 -11 -9 -10 -16 2
-14 25 -117 69 -126 54 -9 -14 35 -63 77 -84 17 -8 40 -25 53 -36 12 -11 22
-15 22 -9 0 19 22 14 47 -10 13 -13 56 -34 96 -49 40 -14 81 -30 91 -34 13 -6
17 -5 13 3 -4 6 -24 16 -45 23 -20 7 -53 23 -72 36 -19 12 -52 34 -73 48 -21
14 -35 30 -32 35 4 6 40 -13 80 -41 47 -33 90 -55 117 -60 24 -4 70 -18 103
-32 33 -14 74 -28 90 -32 17 -3 -1 7 -40 22 -53 21 -85 43 -130 88 -33 33 -73
70 -90 82 -23 17 -26 22 -12 23 16 0 16 2 3 23 -29 47 -57 247 -47 344 3 39 3
69 -1 67 -15 -10 -8 13 12 39 11 14 20 31 19 39 0 7 -4 3 -9 -10 -15 -36 -40
-39 -66 -9 -19 22 -22 36 -19 78 4 59 9 67 29 46 9 -8 20 -17 26 -19 6 -2 12
-10 13 -18 2 -8 9 -24 16 -35 10 -17 11 -12 5 35 -4 30 -8 71 -8 90 -1 19 -7
44 -14 55 -10 17 -12 13 -13 -30 -1 -44 -2 -46 -9 -20 -13 50 -11 133 3 138 8
3 4 19 -15 55 -29 54 -35 86 -18 97 11 7 4 25 -9 25 -22 0 -17 -80 9 -145 4
-11 8 -53 9 -94 0 -41 3 -82 6 -93 5 -13 1 -18 -13 -18 -24 0 -32 43 -33 178
0 79 -3 92 -17 92 -11 0 -13 3 -6 8 13 9 25 52 14 52 -4 0 -10 19 -14 42 -6
35 -3 45 19 68 29 30 36 90 10 90 -10 0 -15 -10 -16 -27 -1 -43 -12 -64 -28
-54 -10 7 -11 16 -3 42 6 19 14 54 17 79 4 25 18 68 31 96 13 28 24 65 24 81
0 17 7 50 15 73 19 54 14 62 -8 15z m143 -1550 c20 -22 21 -26 5 -17 -26 15
-65 49 -65 56 0 11 34 -11 60 -39z m-47 -15 c40 -20 33 -33 -8 -13 -19 9 -35
21 -35 25 0 5 3 8 8 6 4 -2 19 -10 35 -18z"/>
<path d="M506 2224 c20 -67 45 -233 38 -247 -5 -8 -2 -8 7 1 11 10 11 25 1 84
-20 115 -43 208 -52 208 -4 0 -2 -21 6 -46z"/>
<path d="M2476 2248 c3 -13 11 -24 15 -26 5 -2 9 -9 9 -14 0 -18 84 -121 88
-108 2 6 -5 18 -17 26 -11 8 -37 44 -57 79 -37 67 -51 82 -38 43z"/>
<path d="M2299 2223 c17 -21 37 -55 46 -77 9 -21 18 -36 21 -33 12 12 -69 147
-88 147 -5 0 5 -17 21 -37z"/>
<path d="M720 2243 c0 -7 -7 -10 -16 -6 -13 5 -14 2 -2 -27 7 -17 18 -33 23
-33 14 -3 18 39 6 60 -6 10 -11 13 -11 6z"/>
<path d="M1990 2211 c-13 -25 -13 -61 0 -61 6 0 10 15 10 34 0 19 6 37 13 39
9 4 9 6 0 6 -7 1 -17 -8 -23 -18z"/>
<path d="M1136 2158 c-16 -35 -43 -83 -61 -108 -18 -25 -40 -67 -51 -94 -10
-26 -32 -62 -49 -80 -16 -17 -29 -34 -30 -37 0 -13 -41 -85 -58 -104 -23 -24
-50 -75 -44 -81 2 -2 16 14 31 36 14 22 32 40 40 40 8 0 17 7 20 16 3 8 2 12
-4 9 -21 -13 -23 -18 118 213 61 100 125 229 120 243 -2 5 -16 -19 -32 -53z"/>
<path d="M2619 2166 c16 -40 51 -101 51 -88 0 14 -48 112 -55 112 -2 0 0 -11
4 -24z"/>
<path d="M1037 2150 c-4 -16 -16 -38 -27 -47 -11 -10 -20 -23 -20 -31 0 -7 -4
-11 -9 -8 -5 4 -16 3 -25 0 -13 -5 -14 -9 -4 -21 10 -12 9 -14 -8 -11 -12 2
-18 -2 -16 -10 1 -8 -1 -11 -6 -9 -4 3 -18 -2 -30 -12 -20 -15 -28 -31 -31
-63 -1 -5 -6 -8 -12 -8 -8 0 -8 5 1 15 10 12 10 15 -4 15 -11 0 -16 -9 -16
-32 0 -25 -3 -29 -10 -18 -8 12 -10 11 -10 -5 0 -12 -6 -27 -12 -35 -45 -50
42 31 131 122 107 111 155 171 144 182 -15 14 -31 4 -36 -24z"/>
<path d="M2720 2170 c0 -4 14 -21 31 -38 17 -17 42 -48 55 -69 32 -52 30 -27
-2 36 -16 30 -39 57 -55 65 -16 8 -29 11 -29 6z"/>
<path d="M315 2134 c8 -20 15 -46 16 -58 0 -20 1 -20 8 -1 6 13 2 33 -10 58
-25 47 -34 48 -14 1z"/>
<path d="M446 2115 c60 -110 74 -139 74 -159 0 -15 3 -17 12 -8 9 9 3 28 -25
84 -21 40 -49 87 -63 103 l-26 30 28 -50z"/>
<path d="M611 2114 c-27 -44 -38 -74 -27 -74 8 0 67 112 62 117 -2 3 -18 -17
-35 -43z"/>
<path d="M1795 2140 c-3 -5 0 -7 7 -5 8 3 22 -1 32 -8 15 -11 17 -21 11 -61
-4 -26 -14 -50 -21 -53 -22 -8 -42 15 -38 45 4 27 4 27 -5 2 -10 -33 -3 -50
27 -61 30 -12 36 -4 53 65 11 47 10 51 -11 68 -25 20 -46 23 -55 8z"/>
<path d="M101 2087 c35 -50 59 -76 59 -61 -1 5 -22 32 -47 59 l-46 50 34 -48z"/>
<path d="M2506 2108 c9 -16 14 -34 11 -42 -3 -8 0 -22 7 -32 10 -13 15 -14 21
-4 6 9 4 11 -4 6 -8 -5 -12 -3 -10 5 4 30 -2 48 -22 70 l-20 24 17 -27z"/>
<path d="M2417 2073 c15 -27 27 -49 27 -50 1 -1 8 2 16 7 12 8 10 14 -13 35
-15 15 -25 30 -22 35 4 6 -16 20 -30 20 -2 0 8 -21 22 -47z"/>
<path d="M1284 2063 c-21 -27 -44 -53 -50 -59 -19 -15 -28 -61 -14 -69 20 -12
67 15 86 51 12 23 24 32 34 29 8 -3 11 -3 8 1 -4 3 -1 13 7 21 17 17 20 49 5
58 -5 3 -10 -1 -10 -11 0 -25 -100 -144 -122 -144 -18 0 -5 21 52 90 33 39 60
74 60 76 0 16 -24 -3 -56 -43z"/>
<path d="M2024 2059 c-12 -49 -11 -54 11 -54 12 0 21 -8 23 -20 2 -15 1 -17
-6 -6 -6 9 -12 10 -16 2 -4 -5 2 -19 14 -31 11 -11 20 -31 20 -44 0 -16 13
-35 37 -55 42 -34 48 -34 39 6 -6 20 -9 24 -16 13 -7 -11 -12 -7 -21 15 -7 17
-11 41 -10 54 2 13 -1 26 -6 30 -5 3 -20 32 -35 65 l-26 58 -8 -33z"/>
<path d="M1657 2054 c18 -10 36 -14 40 -11 10 10 0 16 -38 22 l-34 6 32 -17z"/>
<path d="M1426 2044 c-3 -9 -6 -24 -6 -35 0 -10 -6 -19 -14 -19 -13 0 -30 -39
-20 -49 5 -5 38 31 40 44 1 6 5 25 9 43 7 33 2 44 -9 16z"/>
<path d="M2385 2049 c-4 -6 2 -21 14 -33 25 -27 26 -36 5 -36 -14 0 -14 -2 -3
-16 11 -13 14 -13 18 -3 2 8 8 17 13 20 6 4 -2 18 -17 33 -14 14 -23 31 -20
36 3 6 4 10 1 10 -3 0 -8 -5 -11 -11z"/>
<path d="M2640 2044 c0 -20 22 -74 31 -74 5 0 9 3 9 8 -1 13 -39 77 -40 66z"/>
<path d="M2670 2042 c0 -19 29 -86 35 -80 3 3 -4 25 -15 49 -11 24 -20 38 -20
31z"/>
<path d="M318 2022 c-3 -12 -2 -20 2 -17 5 3 6 -10 3 -30 -6 -39 11 -49 21
-12 9 33 7 59 -3 52 -5 -3 -11 3 -13 12 -3 15 -5 14 -10 -5z"/>
<path d="M646 2021 c-3 -4 3 -25 12 -45 15 -29 21 -35 29 -24 6 7 11 15 12 18
0 3 3 13 7 24 10 27 -45 53 -60 27z"/>
<path d="M2862 1990 c-1 -22 3 -42 10 -46 7 -5 9 1 6 20 -3 14 -1 29 3 32 13
8 11 21 -4 27 -10 4 -14 -6 -15 -33z"/>
<path d="M748 2003 c-2 -5 9 -21 25 -38 l30 -30 -16 31 c-9 17 -13 34 -10 38
4 3 -1 6 -10 6 -9 0 -17 -3 -19 -7z"/>
<path d="M1984 1995 c4 -11 9 -28 11 -37 5 -23 35 -68 46 -68 19 0 7 32 -28
77 -20 27 -33 39 -29 28z"/>
<path d="M2950 1970 c-29 -22 -25 -31 8 -19 12 5 22 15 22 24 0 19 0 19 -30
-5z"/>
<path d="M1086 1958 c-23 -35 -48 -101 -36 -93 6 4 20 28 32 53 12 26 23 50
25 55 9 17 -8 5 -21 -15z"/>
<path d="M2479 1949 l20 -35 -49 -16 c-46 -15 -50 -15 -66 3 -9 10 -21 16 -26
13 -5 -3 -1 -12 9 -19 10 -7 14 -17 10 -21 -4 -5 -12 -2 -16 5 -6 9 -10 4 -13
-17 l-4 -31 25 18 c73 50 186 66 258 36 45 -19 56 -12 14 9 -16 9 -53 16 -81
16 -43 0 -50 3 -50 20 0 11 -5 20 -11 20 -7 0 -18 8 -26 18 -8 9 -5 1 6 -19z"/>
<path d="M1617 1950 c-6 -25 29 -48 46 -31 8 8 5 11 -11 11 -23 0 -31 25 -9
33 7 4 6 6 -4 6 -9 1 -19 -8 -22 -19z"/>
<path d="M156 1938 c3 -13 10 -30 15 -38 7 -13 8 -13 9 0 0 27 -12 60 -22 60
-5 0 -6 -10 -2 -22z"/>
<path d="M271 1953 c1 -17 38 -87 38 -75 1 16 -26 82 -33 82 -4 0 -6 -3 -5 -7z"/>
<path d="M680 1929 c-19 -17 -47 -35 -62 -41 -17 -6 -28 -17 -28 -29 0 -29 26
-23 64 16 20 20 33 27 29 18 -3 -10 6 -1 21 20 40 58 32 64 -24 16z"/>
<path d="M2713 1919 c26 -22 58 -59 71 -82 27 -47 70 -212 60 -230 -5 -8 -2
-8 6 0 20 19 -13 165 -52 225 -36 57 -103 128 -120 128 -7 0 8 -18 35 -41z"/>
<path d="M527 1894 c-15 -25 -27 -47 -27 -49 0 -3 16 5 35 17 22 15 35 31 35
45 0 38 -15 33 -43 -13z"/>
<path d="M1316 1905 c-22 -19 -34 -35 -28 -35 12 0 33 19 61 53 20 26 10 20
-33 -18z"/>
<path d="M2675 1909 c4 -13 16 -32 27 -41 12 -11 18 -24 14 -33 -3 -9 -2 -13
4 -10 5 3 7 -1 4 -9 -6 -16 -35 -11 -31 6 1 5 -8 17 -21 25 -20 14 -22 14 -16
-1 3 -9 10 -16 14 -16 9 0 19 -37 26 -90 4 -34 34 -70 58 -70 6 0 4 5 -4 10
-8 5 -10 10 -4 10 7 0 10 12 7 28 -2 15 -6 51 -8 80 -6 73 -11 85 -46 111
l-31 23 7 -23z"/>
<path d="M369 1893 c-1 -4 -3 -23 -5 -40 -2 -28 0 -31 12 -19 17 18 18 36 2
36 -10 0 -9 3 1 9 9 6 10 11 2 15 -6 4 -12 4 -12 -1z"/>
<path d="M40 1870 c-1 -14 -2 -34 -1 -45 2 -17 0 -17 -8 -5 -9 13 -11 13 -11
0 0 -15 69 -132 70 -119 0 4 -7 23 -15 43 -14 32 -14 36 0 36 8 0 15 -4 15
-10 0 -5 5 -10 11 -10 8 0 8 5 -1 15 -7 8 -19 15 -26 15 -14 0 -20 18 -27 75
-4 27 -4 27 -7 5z"/>
<path d="M431 1848 c-10 -24 -16 -45 -13 -48 2 -3 7 2 10 10 3 8 18 27 34 41
23 22 25 28 12 33 -24 9 -23 9 -43 -36z"/>
<path d="M1159 1873 c-1 -5 -1 -12 0 -17 1 -5 -6 -5 -16 -2 -9 4 -14 4 -10 0
4 -4 -2 -17 -12 -28 -16 -17 -18 -28 -12 -56 l8 -35 7 32 c7 32 38 63 63 63 7
0 19 -12 26 -27 14 -27 15 -27 22 -4 8 28 -36 74 -62 64 -11 -4 -14 -3 -9 5 4
7 5 12 2 12 -3 0 -7 -3 -7 -7z"/>
<path d="M2222 1873 c6 -12 28 -64 44 -100 7 -18 11 -39 8 -48 -4 -8 -1 -15 6
-15 6 0 8 6 5 13 -4 6 3 1 16 -13 l22 -25 -8 25 c-4 14 -17 39 -30 55 -12 17
-26 49 -30 73 -4 27 -12 42 -22 42 -8 0 -13 -3 -11 -7z"/>
<path d="M2462 1871 c2 -8 19 -26 38 -40 l33 -26 -16 32 c-9 17 -23 35 -29 39
-10 6 -11 4 0 -7 6 -7 12 -18 12 -23 -1 -6 -10 0 -22 14 -11 14 -19 19 -16 11z"/>
<path d="M1679 1864 c-1 -5 -1 -12 0 -16 0 -5 -4 -8 -10 -8 -6 0 -9 -7 -6 -14
4 -11 1 -13 -11 -9 -15 6 -15 5 -3 -10 7 -9 17 -17 21 -17 10 0 23 70 16 78
-3 3 -7 1 -7 -4z"/>
<path d="M530 1842 c-15 -9 -24 -24 -22 -34 2 -9 -2 -19 -7 -23 -6 -3 -11 -16
-11 -29 0 -21 -17 -43 -45 -59 -21 -11 -4 68 18 85 37 28 13 29 -27 1 -34 -25
-37 -30 -31 -60 3 -18 17 -57 30 -85 14 -29 25 -59 25 -65 0 -25 15 -13 38 30
20 37 111 142 117 135 1 -2 6 -28 9 -59 7 -53 5 -58 -22 -86 -17 -16 -45 -34
-64 -39 l-33 -10 40 -27 c22 -14 51 -35 64 -45 24 -19 24 -20 3 -26 -12 -4
-34 0 -52 9 -44 23 -37 5 15 -39 25 -21 42 -42 39 -48 -4 -6 -2 -8 4 -4 6 3
13 2 17 -4 3 -5 16 -15 28 -21 21 -12 22 -11 4 8 -10 11 -15 27 -11 37 4 10 1
16 -8 16 -7 0 -19 9 -26 20 -11 18 -10 20 11 20 33 0 60 -33 64 -76 4 -59 46
-91 51 -39 1 18 -3 25 -16 25 -14 0 -19 8 -20 35 -1 19 -5 43 -10 53 -5 9 -17
54 -26 99 -9 46 -19 91 -22 100 -5 16 -3 15 10 -1 22 -27 20 -19 -9 38 -14 27
-25 55 -25 63 0 7 -6 13 -12 14 -7 0 7 8 31 17 34 13 45 23 46 40 1 13 8 28
16 33 9 6 10 9 2 9 -7 0 -21 -9 -31 -21 -11 -11 -29 -21 -40 -22 -14 -1 -29
-17 -47 -52 l-25 -50 6 78 c7 85 1 92 -46 59z m11 -102 c-11 -30 -24 -55 -30
-55 -5 0 -17 -9 -26 -20 -9 -11 -13 -13 -9 -5 7 13 5 13 -9 1 -11 -9 -17 -10
-17 -2 0 6 0 13 0 16 0 3 3 6 8 6 4 1 17 17 30 35 12 19 28 34 33 34 7 0 9 13
5 34 -5 27 -3 37 11 45 26 15 28 -21 4 -89z m105 -177 c1 -60 6 -93 15 -93 4
0 9 -7 13 -15 4 -12 2 -13 -12 -6 -9 5 -26 17 -37 26 -17 14 -18 16 -2 11 11
-4 16 -2 12 5 -4 6 -14 8 -22 5 -8 -4 -29 6 -46 21 -19 16 -24 24 -13 19 21
-7 76 37 76 61 0 7 3 13 8 13 4 0 8 -21 8 -47z"/>
<path d="M2059 1842 c14 -26 7 -42 -16 -42 -9 0 -14 -3 -10 -6 3 -4 17 -4 31
0 27 7 26 35 -2 58 -13 12 -14 10 -3 -10z"/>
<path d="M748 1843 c-10 -2 -18 -14 -18 -25 0 -21 0 -21 25 2 34 32 33 34 -7
23z"/>
<path d="M2177 1826 c-12 -9 -14 -16 -7 -21 5 -3 8 -10 5 -15 -3 -4 3 -6 13
-3 14 3 18 11 14 29 -2 13 -5 24 -6 24 0 0 -9 -7 -19 -14z"/>
<path d="M2595 1821 c-6 -5 -19 -11 -30 -14 -17 -4 -16 -5 4 -6 14 0 33 -8 43
-18 17 -15 18 -15 7 15 -12 36 -12 35 -24 23z"/>
<path d="M1075 1773 c-3 -15 -18 -40 -31 -54 -14 -14 -24 -30 -23 -35 2 -15
-13 -54 -20 -50 -3 2 -14 -7 -24 -20 -10 -13 -13 -24 -7 -24 5 0 10 5 10 10 0
6 6 10 13 10 16 1 60 70 44 71 -7 0 8 7 32 14 25 8 49 11 54 8 6 -3 7 -1 3 6
-4 6 -15 10 -23 9 -9 -2 -18 3 -21 11 -3 8 0 11 6 7 7 -4 9 5 7 25 -6 42 -11
46 -20 12z"/>
<path d="M2405 1779 c3 -9 -1 -23 -9 -32 -21 -20 -20 -31 0 -23 13 5 15 2 11
-14 -3 -11 -1 -18 4 -14 5 3 9 -4 9 -15 0 -31 -16 -25 -41 16 -14 22 -25 31
-27 23 -3 -9 -9 -5 -19 11 -13 23 -14 23 -7 -11 7 -37 34 -70 57 -70 7 0 18
-5 25 -12 9 -9 12 -8 12 7 0 17 1 17 20 0 12 -11 20 -13 20 -6 0 7 4 10 9 7 5
-3 12 2 15 11 4 10 4 14 0 10 -4 -4 -13 -2 -21 5 -11 9 -12 7 -7 -8 6 -18 6
-18 -10 -3 -10 10 -20 37 -22 65 -3 27 -9 53 -15 59 -7 7 -8 5 -4 -6z"/>
<path d="M2485 1778 c-45 -14 -71 -88 -31 -88 14 0 36 41 36 65 0 17 16 20 25
5 3 -5 19 -10 36 -10 16 0 29 -5 29 -11 0 -6 -9 -8 -22 -4 l-23 7 23 -17 c12
-9 26 -14 30 -11 4 2 14 -10 22 -27 7 -17 15 -26 18 -19 2 6 -6 26 -18 42 -12
17 -20 34 -17 37 10 9 75 -17 81 -33 10 -25 7 -59 -6 -72 -9 -9 -8 -12 5 -12
13 0 17 9 17 43 0 23 -4 47 -8 54 -10 17 -57 33 -95 33 -18 0 -43 3 -57 7
l-25 7 25 7 c19 5 20 7 5 7 -11 0 -34 -4 -50 -10z"/>
<path d="M1319 1767 c6 -8 10 -16 8 -18 -1 -2 3 2 10 9 18 22 35 4 29 -31 l-5
-32 11 33 c13 38 2 52 -41 52 -18 0 -21 -3 -12 -13z"/>
<path d="M716 1737 c10 -21 14 -43 9 -54 -15 -38 -15 -101 1 -114 13 -10 17
-10 25 2 5 8 9 21 9 29 0 8 7 24 15 34 15 19 15 19 15 -5 0 -35 -37 -132 -56
-146 -9 -6 -13 -16 -9 -22 10 -17 25 -13 25 6 0 16 1 16 13 0 11 -15 14 -14
36 3 23 20 23 20 2 20 -13 0 -21 -7 -22 -17 0 -10 -3 -13 -6 -6 -2 7 5 48 16
92 12 44 21 92 21 106 0 14 7 40 16 57 14 26 14 30 1 25 -14 -5 -56 2 -105 17
-22 7 -22 7 -6 -27z"/>
<path d="M1391 1729 c-7 -23 -10 -44 -7 -47 3 -3 6 -3 7 -1 13 72 15 75 58 71
42 -4 51 -17 51 -76 0 -41 6 -29 13 26 l7 47 -38 6 c-20 3 -46 8 -58 10 -17 4
-23 -3 -33 -36z"/>
<path d="M1660 1745 c0 -20 -4 -26 -15 -21 -10 4 -15 -1 -15 -14 0 -11 4 -20
8 -20 4 0 13 -26 20 -57 13 -61 12 -63 -41 -126 l-23 -27 -118 20 c-124 21
-154 24 -121 11 18 -7 16 -10 -16 -23 -35 -15 -123 -118 -220 -256 -27 -39
-45 -58 -47 -48 -2 9 -9 13 -19 9 -10 -4 -14 -2 -10 4 4 6 -6 10 -24 11 -34 1
-62 19 -55 37 3 8 -10 10 -42 8 -41 -3 -45 -2 -30 10 10 8 15 17 12 20 -3 3 1
16 9 28 9 11 13 27 10 35 -2 7 5 19 16 26 28 17 26 26 -4 20 -14 -2 -24 -7
-21 -10 3 -3 -8 -20 -24 -39 -17 -18 -30 -39 -30 -46 0 -25 -133 -57 -146 -35
-3 4 -10 8 -15 8 -6 0 -8 -4 -5 -9 10 -15 -5 -41 -23 -42 -11 0 -12 -2 -3 -6
7 -3 21 2 31 11 18 16 21 14 68 -43 37 -44 54 -57 64 -50 11 7 10 10 -6 15
-11 3 -25 16 -31 29 -12 24 -12 24 16 10 15 -8 30 -20 33 -28 3 -7 29 -26 59
-41 30 -15 88 -56 129 -92 41 -35 77 -64 82 -64 4 0 7 -6 7 -14 0 -17 44 -47
74 -50 12 -1 27 -6 34 -10 7 -4 16 -5 20 -2 5 3 24 -8 43 -24 l34 -29 -32 11
c-17 7 -29 16 -26 22 4 5 1 6 -7 1 -9 -6 -11 -4 -5 5 6 9 4 11 -4 6 -15 -9 14
-46 35 -46 7 0 11 -6 8 -13 -3 -8 13 -22 38 -35 24 -12 54 -30 68 -39 l25 -17
-18 21 c-11 12 -40 32 -65 44 -40 19 -44 23 -26 28 37 10 12 45 -72 100 -42
28 -80 51 -84 51 -4 0 -34 19 -66 43 -33 23 -76 53 -97 66 -21 13 -36 25 -34
28 8 7 158 -68 178 -90 16 -18 19 -18 19 -4 0 9 3 17 7 17 8 0 61 -17 115 -36
25 -9 45 -11 62 -5 13 5 27 6 32 2 5 -5 25 -11 44 -15 28 -5 32 -4 22 6 -7 7
-27 18 -45 24 -34 12 -38 27 -23 89 7 28 6 27 -11 -6 -16 -32 -21 -36 -40 -28
-24 9 -31 43 -13 54 12 7 13 25 2 25 -5 0 -15 -11 -22 -25 -12 -23 -14 -24
-44 -8 -16 9 -39 26 -49 39 -25 32 -34 30 -29 -6 4 -27 14 -35 98 -74 52 -25
94 -49 94 -55 0 -13 -78 -3 -114 15 -16 8 -37 14 -46 14 -24 0 -70 48 -70 73
0 17 -2 18 -16 6 -10 -8 -12 -15 -5 -17 6 -2 16 -12 21 -23 9 -16 7 -19 -16
-17 -14 2 -30 10 -35 19 -4 9 -29 23 -54 30 -30 9 -55 25 -74 49 -16 19 -44
43 -62 53 -33 18 -33 18 -12 0 12 -10 34 -26 48 -36 14 -10 25 -27 25 -37 0
-18 -2 -17 -25 5 -14 12 -61 35 -105 51 -43 15 -82 34 -85 42 -4 10 -1 12 12
7 10 -4 28 -7 41 -6 13 0 20 -3 17 -9 -9 -15 31 -12 44 3 6 8 7 17 3 22 -4 4
13 -5 37 -20 24 -15 67 -34 95 -42 28 -8 64 -24 79 -35 35 -25 48 -20 76 29
l23 38 -28 -25 -27 -25 23 42 c25 45 96 136 111 141 5 2 6 -5 2 -15 -3 -10 17
11 45 46 29 35 49 68 45 74 -3 6 -1 7 5 3 7 -4 22 0 34 8 26 19 114 22 120 4
3 -7 24 -11 52 -11 38 1 53 6 77 29 25 24 29 25 24 9 -5 -14 -1 -11 12 7 l19
27 18 -69 c10 -39 21 -70 25 -70 4 0 14 -19 21 -42 8 -24 18 -48 22 -55 9 -11
10 -325 1 -375 -5 -31 -30 -36 -77 -18 -35 13 -33 30 10 74 19 20 33 40 29 45
-3 5 -1 12 5 16 11 7 3 54 -11 69 -12 13 -66 -12 -108 -51 -20 -18 -39 -33
-43 -33 -5 0 -8 -4 -8 -9 0 -6 -11 -22 -24 -36 -26 -28 -45 -26 -47 3 0 14 -2
13 -9 -3 -12 -28 -12 -29 9 -52 l19 -20 103 99 c56 54 104 96 106 94 9 -9 -38
-102 -62 -121 -13 -11 -45 -58 -69 -105 -25 -47 -38 -76 -28 -64 10 11 23 19
30 16 7 -2 12 5 12 17 0 24 17 27 45 8 11 -8 34 -22 50 -32 30 -18 30 -18 -5
17 -20 21 -41 33 -49 30 -9 -3 -12 -1 -8 5 5 7 0 9 -13 6 -11 -3 -20 0 -20 6
0 13 42 15 56 2 10 -10 164 -52 164 -44 0 2 -5 14 -11 25 -7 14 -14 17 -18 9
-4 -6 -8 91 -10 215 l-2 227 -33 81 c-42 101 -86 244 -86 278 0 15 4 38 10 52
6 16 6 27 0 31 -6 4 -10 -6 -10 -20z"/>
<path d="M1994 1730 c0 -11 6 -20 14 -20 10 0 13 -10 9 -37 -2 -21 -2 -30 0
-20 2 9 9 17 14 17 11 0 11 -21 -1 -80 -5 -25 -5 -49 0 -53 4 -5 14 23 21 63
9 54 15 67 22 55 5 -10 7 -33 4 -51 -3 -20 1 -53 9 -76 16 -47 18 -72 4 -63
-6 3 -7 -1 -4 -9 3 -9 -2 -38 -12 -66 -17 -49 -16 -68 5 -55 6 3 11 19 11 36
0 16 5 29 11 29 9 0 10 25 6 88 -4 48 -3 93 1 100 12 18 96 -112 89 -138 -3
-11 0 -23 5 -27 7 -4 8 -1 3 7 -6 9 -4 11 4 6 7 -5 10 -14 7 -22 -3 -7 -1 -16
4 -19 5 -3 7 -12 3 -20 -4 -11 -1 -13 11 -9 9 3 16 11 16 18 0 16 -43 105 -75
157 -16 24 -27 44 -26 44 2 0 -13 18 -33 39 -20 22 -36 46 -36 54 0 8 -6 12
-15 9 -21 -9 -29 11 -13 31 12 15 11 16 -4 4 -14 -11 -19 -10 -35 7 -18 20
-19 20 -19 1z"/>
<path d="M2499 1700 c-15 -12 -17 -18 -8 -14 10 3 20 0 25 -7 4 -7 3 -10 -4
-6 -6 5 -8 0 -5 -13 7 -27 19 -25 27 3 15 58 4 70 -35 37z"/>
<path d="M47 1696 c-3 -8 1 -20 8 -26 8 -7 13 -15 12 -19 -1 -5 26 -35 61 -68
34 -34 62 -57 62 -53 0 5 -28 33 -62 64 -34 31 -58 56 -55 56 18 0 117 -63
117 -74 0 -7 9 -21 20 -31 11 -10 20 -13 20 -7 0 6 -5 14 -10 17 -6 4 -8 15
-5 24 7 24 -34 78 -46 60 -4 -7 -5 -18 -2 -24 8 -12 -28 16 -78 63 -29 26 -38
30 -42 18z"/>
<path d="M1280 1685 c-18 -22 -3 -35 40 -35 21 0 40 -4 42 -9 2 -5 9 -3 16 5
11 12 10 14 -3 14 -8 0 -15 8 -15 18 -1 16 -1 16 -11 0 -6 -11 -22 -18 -40
-18 -27 0 -29 2 -19 20 13 23 8 26 -10 5z"/>
<path d="M1821 1653 c-1 -17 -7 -23 -24 -23 -31 0 -52 -39 -43 -77 4 -15 10
-48 14 -72 l7 -45 42 85 c34 68 40 86 29 94 -8 6 -16 22 -19 35 -4 24 -4 24
-6 3z m-21 -97 c0 -75 -17 -80 -22 -6 -2 43 1 60 10 60 8 0 12 -18 12 -54z"/>
<path d="M2233 1643 c-7 -2 -13 -17 -13 -32 0 -25 -3 -28 -27 -24 l-28 3 25
-10 c21 -9 28 -8 42 11 14 17 26 62 16 58 -2 0 -9 -3 -15 -6z"/>
<path d="M1599 1598 l-22 -45 -161 1 -161 1 -113 -44 c-93 -36 -117 -42 -136
-33 -16 7 -23 19 -23 35 -1 14 -13 38 -28 54 -15 15 -24 22 -20 14 6 -9 4 -12
-4 -7 -6 4 -9 11 -6 15 10 17 -34 44 -60 37 -26 -7 -35 -26 -12 -26 29 0 36
-21 19 -57 l-17 -35 -17 53 -17 54 5 -45 c10 -80 16 -110 24 -110 5 0 17 26
27 57 l19 57 38 -35 38 -34 -26 -45 c-14 -25 -26 -48 -26 -52 0 -9 73 21 81
34 3 5 23 11 44 14 20 2 45 9 55 14 107 57 264 82 394 62 62 -10 71 -9 83 6
22 28 55 94 49 99 -3 3 -15 -15 -27 -39z"/>
<path d="M2556 1616 c-18 -22 -21 -41 -6 -31 6 3 10 2 10 -4 0 -5 -6 -12 -12
-14 -7 -3 -1 -6 14 -6 15 -1 30 3 33 9 4 6 -1 7 -12 3 -10 -3 -3 8 16 26 19
17 33 31 30 32 -35 6 -59 1 -73 -15z"/>
<path d="M2715 1614 c4 -11 10 -34 13 -51 5 -39 18 -42 34 -8 12 27 2 47 -35
67 -17 9 -19 8 -12 -8z"/>
<path d="M0 1600 c0 -13 15 -23 50 -36 28 -10 50 -22 50 -26 0 -4 8 -8 18 -9
14 0 14 -2 -3 -8 -20 -8 -20 -8 1 -15 12 -3 29 -15 39 -26 26 -28 36 -25 24 9
-14 39 -54 74 -121 104 -54 24 -58 25 -58 7z"/>
<path d="M2637 1613 c-10 -9 -8 -56 2 -72 8 -12 12 -12 25 -2 13 11 19 10 35
-10 11 -13 22 -21 25 -18 10 9 -20 60 -30 51 -4 -4 -3 0 4 9 10 14 10 20 -3
33 -17 16 -46 21 -58 9z"/>
<path d="M2337 1579 c-4 -13 -11 -20 -20 -16 -10 4 -13 -1 -9 -20 l5 -26 18
24 c21 27 31 59 19 59 -4 0 -10 -10 -13 -21z"/>
<path d="M2957 1583 c-14 -4 -16 -8 -6 -19 6 -7 15 -11 20 -8 5 3 9 -5 9 -18
0 -13 5 -30 10 -38 7 -11 10 0 10 38 0 53 -2 56 -43 45z"/>
<path d="M2842 1541 c-14 -46 -15 -58 -3 -45 9 9 25 84 18 84 -2 0 -9 -17 -15
-39z"/>
<path d="M2226 1554 c-3 -9 4 -30 16 -47 13 -18 24 -25 26 -18 2 7 -4 21 -13
31 -9 10 -14 23 -11 29 4 5 2 12 -3 15 -5 3 -12 -1 -15 -10z"/>
<path d="M2356 1555 c-9 -25 -8 -28 14 -22 11 3 20 1 20 -4 0 -5 -7 -9 -15 -9
-8 0 -15 -4 -15 -10 0 -6 10 -5 25 2 29 13 28 25 -2 45 -18 12 -21 12 -27 -2z"/>
<path d="M2434 1549 c1 -13 10 -25 24 -30 28 -10 29 4 2 31 -25 25 -28 25 -26
-1z"/>
<path d="M241 1544 c-1 -5 13 -21 31 -34 25 -19 30 -20 25 -6 -4 10 -7 20 -7
22 0 2 -9 4 -19 4 -11 0 -22 6 -24 13 -3 6 -6 7 -6 1z"/>
<path d="M2505 1530 c-19 -22 -19 -22 5 -40 14 -10 25 -18 26 -17 1 1 -1 19
-5 41 l-6 38 -20 -22z"/>
<path d="M216 1505 c-17 -13 -16 -16 24 -64 24 -28 44 -51 46 -51 1 0 2 9 1
19 0 11 -4 18 -8 15 -8 -5 -22 27 -14 34 3 3 5 0 5 -6 0 -7 7 -12 15 -12 8 0
19 -17 26 -42 14 -51 39 -84 39 -53 0 53 -59 129 -100 130 -9 0 -14 9 -13 23
3 26 4 26 -21 7z"/>
<path d="M2326 1485 c-3 -9 -15 -19 -26 -23 l-21 -8 21 -24 22 -25 -7 27 c-5
21 -2 30 14 40 22 13 28 28 12 28 -5 0 -11 -7 -15 -15z"/>
<path d="M871 1461 c-26 -37 -26 -45 0 -38 16 4 18 3 8 -9 -7 -9 -8 -14 -1
-14 20 0 25 23 8 36 -12 8 -13 13 -5 16 11 4 23 38 14 38 -2 0 -13 -13 -24
-29z"/>
<path d="M2826 1464 c-11 -27 -5 -40 6 -14 l11 25 7 -30 c4 -16 9 -36 11 -44
7 -26 -30 -25 -40 1 -9 22 -10 22 -10 2 -1 -11 -10 -29 -20 -38 -17 -15 -49
-18 -236 -22 -119 -3 -260 -11 -314 -19 -53 -8 -111 -15 -130 -15 -29 0 -32
-2 -21 -15 8 -9 29 -15 54 -14 32 0 37 2 21 9 -16 7 -12 9 18 9 23 1 36 -3 32
-9 -3 -5 3 -10 15 -10 11 0 23 7 26 15 9 23 33 18 46 -10 6 -14 16 -25 22 -25
6 0 5 5 -2 12 -28 28 -10 34 136 50 140 15 202 16 113 2 -22 -4 -41 -9 -41
-13 0 -4 -18 -5 -41 -3 -23 3 -51 0 -63 -6 -11 -6 -27 -12 -34 -14 -43 -11
170 -4 248 8 136 22 139 22 158 44 11 14 29 20 55 20 33 0 38 3 32 18 -3 9
-11 36 -18 60 -11 43 -30 55 -41 26z"/>
<path d="M1846 1458 c-14 -41 -15 -49 -7 -44 12 8 48 -124 61 -224 12 -93 42
-240 35 -175 -27 268 -29 282 -63 395 -13 44 -22 59 -26 48z"/>
<path d="M2390 1453 c0 -37 14 -44 69 -37 28 4 54 11 58 17 4 6 -5 8 -24 4
-17 -3 -35 -1 -41 5 -8 8 -15 8 -27 -2 -15 -12 -20 -4 -16 23 0 4 -3 7 -9 7
-5 0 -10 -8 -10 -17z"/>
<path d="M2590 1462 c0 -4 5 -13 12 -20 9 -9 8 -12 -6 -12 -9 0 -14 -4 -11
-10 3 -5 13 -10 22 -10 9 0 24 -7 33 -15 10 -9 32 -20 50 -25 31 -9 32 -9 17
13 -8 12 -22 21 -31 21 -9 -1 -16 4 -16 10 0 7 -10 22 -23 34 -23 22 -47 29
-47 14z"/>
<path d="M201 1427 c-1 -14 82 -118 103 -129 12 -6 1 11 -24 38 -25 27 -53 60
-62 74 -9 14 -17 21 -17 17z"/>
<path d="M1002 1414 c-28 -19 -31 -50 -3 -33 21 14 45 49 33 49 -4 0 -18 -7
-30 -16z"/>
<path d="M815 1389 c-4 -6 -13 -8 -21 -5 -8 3 -14 1 -14 -5 0 -5 7 -12 15 -15
20 -8 9 -24 -16 -24 -11 0 -17 -4 -14 -10 3 -5 20 -3 40 7 24 11 31 19 23 24
-9 6 -8 10 5 15 9 3 14 10 11 15 -7 12 -21 11 -29 -2z"/>
<path d="M1978 1375 c-3 -3 0 -23 6 -45 10 -39 25 -48 34 -20 3 8 0 10 -8 5
-10 -6 -12 -2 -7 14 4 15 0 24 -11 28 -13 6 -13 8 4 14 14 6 15 8 3 8 -9 1
-18 -1 -21 -4z"/>
<path d="M1547 1326 c-22 -64 -21 -68 4 -27 11 18 19 43 17 55 -3 15 -8 7 -21
-28z"/>
<path d="M2822 1329 c-13 -5 -10 -8 13 -14 50 -11 51 -13 18 -26 -18 -8 -33
-17 -33 -22 0 -5 7 -7 15 -3 13 4 14 2 5 -14 -6 -11 -19 -20 -30 -20 -10 0
-20 -5 -22 -12 -3 -7 -31 -11 -83 -10 -47 1 -75 -2 -69 -8 5 -5 43 -10 85 -11
66 -2 80 1 100 20 12 11 25 18 28 14 3 -5 13 -7 21 -7 8 1 25 2 38 3 12 0 22
5 22 10 0 5 -18 7 -40 4 -49 -7 -55 13 -9 29 25 8 30 15 25 32 -3 11 -6 26 -6
32 0 12 -48 13 -78 3z"/>
<path d="M582 1277 c-13 -15 128 -193 197 -250 25 -20 74 -63 109 -96 35 -32
77 -71 94 -87 l31 -29 -21 30 c-11 17 -95 104 -187 194 -99 98 -164 170 -161
178 3 7 -3 19 -14 25 -11 7 -20 18 -20 25 0 18 -16 24 -28 10z"/>
<path d="M2045 1215 c3 -38 6 -83 6 -100 2 -23 4 -19 9 15 3 25 6 -28 6 -118
-1 -145 1 -165 17 -176 9 -7 17 -20 17 -27 0 -8 7 -25 16 -37 14 -20 24 -22
104 -22 85 0 120 10 83 25 -10 3 -19 1 -21 -4 -5 -14 -85 -14 -116 0 -13 6
-27 19 -30 28 -4 9 -15 32 -26 51 -10 19 -17 41 -15 48 2 6 0 12 -5 12 -14 0
-12 16 3 32 16 15 11 42 -5 32 -6 -4 -8 -2 -4 4 3 6 1 23 -4 38 -16 41 -2 42
15 1 8 -21 19 -37 24 -37 5 0 -2 26 -15 58 -26 63 -29 78 -15 86 5 3 18 -14
30 -38 11 -25 25 -47 31 -51 11 -7 35 -59 28 -61 -2 -1 5 -11 15 -21 9 -11 14
-23 10 -26 -3 -4 -1 -8 5 -8 22 -3 27 -4 41 -13 8 -5 5 5 -8 22 -12 18 -27 32
-32 32 -6 0 -8 4 -4 9 3 5 0 13 -5 16 -6 4 -27 39 -46 78 -19 39 -46 83 -60
98 -14 15 -32 49 -40 75 l-14 49 5 -70z"/>
<path d="M2601 1266 c-51 -10 -53 -12 -30 -22 14 -7 45 -8 76 -4 68 8 81 21
17 15 -41 -4 -44 -3 -16 4 18 5 36 11 39 15 9 8 -23 6 -86 -8z"/>
<path d="M1450 1250 c-27 -8 -20 -13 33 -25 24 -5 28 -3 25 12 -4 20 -22 25
-58 13z"/>
<path d="M2090 1245 c0 -11 30 -65 36 -65 4 0 4 11 2 24 l-5 23 34 -19 c29
-18 44 -19 121 -14 203 15 232 19 226 28 -4 5 -38 6 -85 2 -67 -6 -80 -4 -85
10 -3 9 -9 14 -13 12 -12 -8 -206 -10 -218 -3 -7 5 -13 5 -13 2z m244 -24 c7
-10 -95 -19 -134 -11 -14 2 5 7 45 11 39 3 73 6 77 7 4 1 9 -2 12 -7z"/>
<path d="M407 1212 c-6 -8 81 -88 87 -81 1 2 -16 23 -40 47 -23 24 -44 39 -47
34z"/>
<path d="M2136 1183 c-4 -9 1 -25 11 -36 25 -27 101 -86 84 -64 -7 9 -10 17
-6 17 4 0 2 6 -4 13 -6 8 -9 16 -6 19 3 2 -13 19 -34 36 -33 27 -40 29 -45 15z"/>
<path d="M2599 1166 c6 -8 25 -19 41 -26 17 -7 30 -18 30 -24 0 -6 12 -19 26
-30 26 -18 26 -18 15 2 -14 26 -69 72 -87 72 -8 0 -14 5 -14 10 0 6 -5 10 -11
10 -8 0 -8 -4 0 -14z"/>
<path d="M2763 1154 c-13 -12 -23 -25 -23 -30 0 -4 5 -3 12 4 8 8 47 12 111
12 74 0 98 3 95 13 -3 8 -34 14 -89 17 -76 4 -86 3 -106 -16z"/>
<path d="M2576 1103 c20 -32 44 -69 52 -81 l15 -24 -48 7 c-35 6 -46 5 -41 -4
10 -15 -9 -14 -43 4 -27 13 -41 11 -41 -6 0 -4 10 -5 22 -1 15 4 19 2 13 -7
-6 -10 7 -11 60 -6 54 6 66 5 60 -5 -6 -9 -4 -11 5 -5 7 4 16 2 20 -5 5 -8 15
-10 26 -6 16 6 16 8 -4 22 -11 8 -42 50 -68 94 -26 44 -52 80 -56 80 -5 0 8
-26 28 -57z"/>
<path d="M834 1119 c-8 -13 10 -28 121 -103 81 -55 215 -175 182 -163 -11 4
-16 3 -12 -3 4 -6 12 -9 19 -8 6 2 35 -14 64 -36 67 -49 79 -41 16 10 -27 22
-73 62 -104 90 -30 28 -77 68 -105 89 -27 22 -70 57 -95 78 -58 50 -77 60 -86
46z"/>
<path d="M2245 1100 c-6 -9 1 -14 18 -11 4 0 7 -3 7 -8 0 -5 9 -7 20 -4 22 6
21 13 -2 17 -7 1 -18 5 -25 9 -6 4 -14 3 -18 -3z"/>
<path d="M2746 1095 c-3 -10 1 -15 13 -15 11 0 49 -16 85 -35 37 -19 73 -35
81 -35 8 0 15 -4 15 -10 0 -5 14 -10 30 -10 20 0 30 5 30 15 0 11 -12 15 -49
15 -28 0 -53 5 -56 10 -4 6 13 10 44 10 28 0 51 4 51 9 0 12 -64 23 -93 16
-15 -4 -40 3 -72 19 -55 30 -71 32 -79 11z"/>
<path d="M2300 1041 c14 -11 21 -21 16 -21 -11 0 24 -40 34 -40 20 0 82 -33
74 -38 -20 -15 -13 -32 14 -32 41 0 102 12 102 19 0 4 -30 18 -67 30 -37 13
-90 38 -118 55 -68 43 -85 52 -55 27z"/>
<path d="M2750 1013 c53 -84 45 -80 145 -73 78 6 78 10 0 15 -11 1 -26 5 -34
9 -7 5 -18 3 -24 -3 -20 -20 -35 -11 -72 44 -44 67 -56 73 -15 8z"/>
<path d="M2438 1039 c-10 -5 -18 -15 -18 -21 0 -6 3 -8 7 -5 3 4 13 1 22 -5 9
-7 13 -8 8 -3 -4 4 0 17 10 27 13 14 13 18 2 18 -8 0 -22 -5 -31 -11z"/>
<path d="M713 1027 c4 -10 7 -25 7 -33 0 -8 3 -13 8 -13 20 3 32 -2 32 -14 0
-8 11 -19 25 -25 14 -6 25 -9 25 -6 0 2 -23 28 -52 57 -28 29 -48 44 -45 34z"/>
<path d="M2232 1035 c12 -31 39 -84 46 -89 20 -12 5 38 -21 67 -15 18 -27 28
-25 22z"/>
<path d="M620 1023 c0 -10 65 -64 105 -88 17 -10 5 6 -30 38 -58 54 -75 66
-75 50z"/>
<path d="M1187 993 c-13 -12 -7 -25 8 -19 8 3 27 -5 42 -18 16 -12 46 -33 68
-45 34 -20 37 -20 15 -3 -14 12 -25 26 -25 33 0 22 -94 67 -108 52z"/>
<path d="M2129 952 c19 -32 51 -67 51 -56 0 6 -7 17 -15 24 -8 7 -15 18 -15
25 0 7 -7 15 -15 19 -12 4 -13 2 -6 -12z"/>
<path d="M1355 945 c17 -8 36 -14 43 -15 6 0 12 -5 12 -11 0 -6 8 -8 18 -5 9
3 28 -4 42 -14 22 -18 23 -22 10 -33 -15 -12 -22 -30 -23 -55 0 -9 -7 -8 -25
4 -34 22 -39 10 -7 -20 23 -21 25 -28 15 -48 -11 -22 -10 -22 4 -4 9 11 16 27
16 35 0 9 11 40 25 69 l24 53 -27 10 c-103 41 -197 65 -127 34z"/>
<path d="M2603 917 c-12 -14 -30 -23 -53 -24 l-35 -1 32 11 c17 7 35 15 39 20
14 14 -17 7 -57 -14 -51 -26 -145 -41 -184 -31 -17 5 -41 5 -55 2 -24 -7 -23
-7 10 -14 54 -11 139 -11 209 -2 47 7 62 6 57 -3 -8 -13 33 -32 67 -30 20 1
20 2 -3 9 -26 7 -20 13 25 23 12 3 8 5 -12 6 -17 0 -35 6 -38 11 -4 7 18 8 65
4 63 -6 70 -5 64 10 -5 14 -16 15 -73 10 -48 -4 -62 -3 -51 5 8 6 30 11 49 11
41 0 38 5 -6 13 -26 5 -36 2 -50 -16z"/>
<path d="M2930 920 c-25 -4 -38 -8 -30 -8 9 -1 10 -5 5 -11 -6 -6 -31 -6 -63
0 -73 14 -112 7 -57 -9 57 -17 124 -16 131 3 4 8 16 15 28 15 11 0 28 5 36 10
8 5 11 9 5 8 -5 0 -30 -4 -55 -8z"/>
<path d="M997 886 c-7 -18 20 -56 39 -56 8 0 20 -5 27 -10 54 -45 118 -89 147
-100 19 -8 37 -17 40 -20 3 -4 24 -14 48 -23 23 -10 66 -35 93 -57 28 -22 54
-40 57 -40 4 0 24 -4 45 -9 20 -5 37 -5 37 -1 0 10 -57 40 -76 40 -8 0 -39 23
-69 50 -44 40 -60 49 -79 44 -19 -4 -28 1 -46 26 -16 23 -25 28 -30 19 -7 -10
-13 -9 -32 4 -23 16 -117 87 -169 127 -21 16 -28 17 -32 6z"/>
<path d="M855 881 c-6 -11 43 -50 100 -79 22 -11 58 -37 80 -58 52 -50 95 -85
95 -79 0 3 9 1 21 -5 16 -9 19 -17 14 -38 -6 -26 -6 -26 13 -9 17 16 52 15 52
-2 0 -4 10 -7 22 -8 16 -2 11 5 -20 23 -23 14 -42 29 -42 33 0 5 -10 11 -22
15 -13 3 -58 35 -101 71 -69 57 -126 96 -142 95 -21 -1 -25 1 -21 9 3 5 -2 15
-12 22 -15 13 -16 12 -3 -3 7 -10 9 -18 3 -18 -14 0 -33 25 -25 33 3 4 4 7 0
7 -3 0 -8 -4 -12 -9z"/>
<path d="M2260 839 c0 -5 4 -8 9 -4 5 3 12 1 16 -5 3 -5 0 -10 -7 -10 -21 0
57 -49 83 -51 33 -4 118 11 125 22 3 5 -2 6 -11 3 -9 -4 -21 1 -29 11 -8 11
-39 22 -87 31 -92 16 -99 16 -99 3z m168 -44 c3 -3 -16 -5 -41 -5 -26 0 -47 4
-47 9 0 9 79 6 88 -4z"/>
<path d="M2850 834 c-25 -15 -25 -15 10 -8 19 4 53 11 75 15 l40 6 -50 1 c-28
1 -61 -5 -75 -14z"/>
<path d="M2540 795 c-39 -15 -38 -16 5 -21 17 -2 40 -6 53 -9 12 -3 22 -1 22
4 0 5 16 8 36 7 20 -1 38 2 41 6 2 5 10 5 16 2 8 -5 9 -4 2 3 -17 18 -136 24
-175 8z"/>
<path d="M1737 747 c13 -15 15 -21 5 -24 -19 -7 32 -43 60 -42 24 2 221 -83
248 -106 8 -7 33 -22 56 -33 39 -20 75 -52 58 -52 -19 0 -242 79 -284 100 -25
12 -70 43 -100 69 -44 36 -51 40 -37 19 9 -16 14 -28 9 -28 -15 0 -43 25 -55
49 -7 14 -27 31 -45 38 -31 13 -32 13 -23 -6 6 -11 23 -29 38 -40 16 -11 34
-25 40 -31 7 -6 26 -13 43 -17 17 -3 33 -10 36 -15 4 -6 -3 -7 -17 -3 -127 38
-157 51 -180 75 -27 29 -66 47 -77 35 -11 -10 22 -59 48 -72 14 -7 63 -29 110
-48 115 -49 130 -57 130 -67 0 -20 -170 17 -242 52 -27 13 -35 14 -31 4 3 -8
9 -14 14 -14 4 0 6 -6 3 -14 -4 -11 0 -13 14 -9 11 3 36 -3 55 -12 48 -23 174
-35 188 -18 8 9 6 19 -9 37 -11 14 -22 23 -26 21 -3 -3 -3 -2 0 3 11 14 29 8
113 -35 105 -54 279 -102 292 -82 13 21 11 37 -8 48 -10 5 -14 13 -10 17 4 4
40 -9 80 -30 61 -31 67 -33 42 -12 -46 40 -173 103 -271 135 -49 16 -133 51
-187 79 -64 32 -91 42 -80 29z"/>
<path d="M2440 764 c-8 -3 -22 -8 -30 -11 -27 -10 52 -31 120 -33 36 -1 88 -5
115 -10 63 -10 70 -5 14 11 l-44 13 35 7 c37 7 30 9 -50 13 -19 1 -60 5 -90 9
-30 3 -62 4 -70 1z"/>
<path d="M304 630 c65 -63 123 -117 129 -119 5 -2 -5 12 -24 30 -19 19 -45 48
-59 64 -22 26 -82 78 -145 125 -10 8 34 -37 99 -100z"/>
<path d="M2161 724 c7 -8 37 -11 102 -8 111 5 117 5 112 14 -3 4 -54 7 -114 7
-86 -1 -108 -3 -100 -13z"/>
<path d="M2216 698 c3 -4 13 -8 22 -8 25 0 149 -49 162 -65 9 -11 4 -12 -30
-8 -23 3 -40 2 -40 -4 0 -6 25 -13 56 -16 31 -3 62 -11 68 -17 7 -7 0 -9 -24
-6 -21 3 -17 1 10 -5 25 -6 87 -22 137 -36 94 -25 146 -28 82 -4 -19 7 -50 20
-69 29 -42 19 -38 18 -75 26 -35 9 -106 55 -113 74 -6 19 44 14 128 -12 41
-13 93 -27 115 -30 l40 -6 -35 12 -35 11 35 9 c70 19 110 31 107 34 -1 2 -40
-3 -86 -11 -66 -12 -92 -13 -122 -4 -21 7 -36 15 -34 19 3 4 -18 12 -45 17
-37 7 -50 7 -50 -1 0 -9 -20 -9 -72 -3 -118 13 -137 14 -132 5z"/>
<path d="M2541 696 c2 -2 40 -6 84 -8 45 -3 67 -2 50 2 -30 8 -142 13 -134 6z"/>
<path d="M2893 653 c20 -2 54 -2 75 0 20 2 3 4 -38 4 -41 0 -58 -2 -37 -4z"/>
<path d="M2355 554 c18 -9 22 -13 9 -11 -12 3 -21 -1 -21 -8 0 -10 7 -11 24
-4 32 12 36 11 27 -3 -4 -6 -3 -8 3 -5 6 4 31 -2 54 -13 24 -11 64 -19 89 -19
44 1 44 1 -27 19 -39 10 -90 28 -112 39 -22 12 -48 21 -58 20 -12 0 -9 -5 12
-15z"/>
<path d="M1387 540 c-3 -13 0 -17 9 -13 8 3 32 -2 53 -10 73 -30 286 -65 451
-76 91 -6 181 -15 200 -21 19 -5 48 -10 65 -9 63 2 -157 38 -295 49 -160 12
-371 51 -436 80 -41 17 -42 17 -47 0z"/>
<path d="M2255 463 c33 -18 46 -21 125 -23 50 -2 52 -3 25 -11 -16 -5 -70 -14
-120 -19 -86 -9 -85 -9 40 -4 72 2 148 8 170 13 75 18 150 26 225 24 69 -1 71
0 25 6 -27 5 -123 6 -213 4 -120 -2 -179 0 -228 12 -81 19 -87 18 -49 -2z"/>
</g>
</svg>
