<?xml version="1.0" standalone="no"?>
<!DOCTYPE svg PUBLIC "-//W3C//DTD SVG 20010904//EN"
 "http://www.w3.org/TR/2001/REC-SVG-20010904/DTD/svg10.dtd">
<svg version="1.0" xmlns="http://www.w3.org/2000/svg"
 width="300.000000pt" height="406.000000pt" viewBox="0 0 300.000000 406.000000"
 preserveAspectRatio="xMidYMid meet">
<metadata>
Created by potrace 1.10, written by Peter Selinger 2001-2011
</metadata>
<g transform="translate(0.000000,406.000000) scale(0.100000,-0.100000)"
fill="#000000" stroke="none">
<path d="M550 4044 c0 -9 -8 -29 -17 -45 -13 -21 -25 -29 -48 -30 -29 -1 -29
-1 -5 -8 36 -11 44 -5 74 50 22 40 24 49 12 49 -9 0 -16 -7 -16 -16z"/>
<path d="M1340 4014 c-11 -27 -14 -101 -4 -92 3 4 7 17 9 30 2 12 6 38 10 56
9 38 -1 43 -15 6z"/>
<path d="M654 3981 c47 -6 50 -8 51 -36 1 -16 9 -45 19 -63 12 -23 15 -43 11
-64 -16 -72 -69 -155 -89 -139 -6 4 -20 11 -31 14 -14 5 -11 0 10 -18 16 -13
32 -20 35 -15 3 5 21 19 39 32 24 16 35 32 38 53 1 17 6 54 9 83 4 40 2 59
-10 78 -9 13 -14 29 -11 34 4 6 3 19 0 30 -5 17 -14 20 -63 18 l-57 -1 49 -6z"/>
<path d="M340 3970 c0 -5 4 -10 9 -10 5 0 12 -9 16 -19 3 -10 14 -21 24 -24
10 -2 32 -34 51 -70 18 -36 48 -82 66 -104 47 -53 43 -35 -6 23 -23 28 -44 68
-52 97 -10 40 -20 55 -50 75 -21 13 -38 29 -38 33 0 5 -4 9 -10 9 -5 0 -10 -4
-10 -10z"/>
<path d="M1260 3940 c0 -5 -6 -7 -14 -4 -8 3 -17 0 -21 -6 -8 -13 23 -40 45
-39 8 0 4 5 -10 11 l-25 10 23 9 c13 5 20 13 17 19 -8 13 -15 13 -15 0z"/>
<path d="M1241 3849 c-13 -11 -21 -23 -17 -26 4 -4 19 5 34 20 31 31 19 36
-17 6z"/>
<path d="M1170 3794 c-19 -14 -37 -29 -38 -35 -5 -14 66 34 72 49 7 15 8 16
-34 -14z"/>
<path d="M662 3635 c12 -31 32 -65 40 -65 15 0 8 19 -18 47 -14 15 -24 24 -22
18z"/>
<path d="M2151 3627 c-18 -4 -31 -10 -29 -13 6 -5 108 15 108 22 0 6 -41 1
-79 -9z"/>
<path d="M1464 3540 c-6 -6 -65 -17 -133 -25 -68 -7 -126 -17 -130 -21 -3 -4
17 -4 44 0 28 4 85 9 127 13 57 4 82 11 94 24 18 20 16 27 -2 9z"/>
<path d="M1568 3544 c-3 -3 -20 -6 -37 -6 -20 -1 -39 -11 -56 -30 -14 -15 -23
-28 -19 -28 3 0 -2 -7 -10 -16 -9 -8 -16 -20 -16 -26 0 -5 24 12 54 39 29 27
69 54 87 60 19 6 27 11 18 12 -9 1 -18 -2 -21 -5z"/>
<path d="M1601 3531 c-8 -5 10 -10 50 -13 68 -6 90 -1 68 13 -18 11 -100 11
-118 0z"/>
<path d="M1770 3445 c32 -32 63 -55 76 -55 11 0 42 -6 67 -14 26 -8 45 -10 42
-5 -5 7 -73 31 -100 34 -5 0 -32 22 -59 48 -70 67 -93 60 -26 -8z"/>
<path d="M1080 3475 c-123 -26 -255 -58 -264 -66 -8 -7 16 -3 105 21 26 6 98
22 160 35 63 12 103 23 89 23 -14 0 -54 -6 -90 -13z"/>
<path d="M1638 3466 c18 -9 31 -20 28 -25 -3 -5 4 -7 16 -3 14 3 19 1 14 -6
-5 -8 -2 -10 9 -6 13 5 10 10 -14 25 -17 10 -43 21 -58 24 -25 5 -25 4 5 -9z"/>
<path d="M1483 3432 c-8 -20 1 -24 31 -13 32 13 63 2 95 -33 l24 -26 -27 0
c-31 0 -76 -21 -95 -44 -19 -23 1 -21 50 4 24 13 48 18 60 15 11 -4 18 -9 15
-12 -3 -4 -2 -11 3 -17 7 -8 -2 -10 -30 -8 -24 3 -46 -1 -56 -9 -12 -10 -15
-10 -9 -1 4 6 2 12 -3 12 -16 0 -13 -16 5 -35 26 -26 114 -1 114 33 0 14 2 14
20 -3 11 -11 31 -42 45 -70 14 -27 23 -39 19 -26 -4 17 -3 21 6 16 8 -5 10
-20 7 -41 -3 -19 -2 -36 4 -39 5 -3 6 2 2 12 -5 14 -3 16 7 6 11 -10 10 -22
-4 -65 -10 -29 -22 -109 -27 -177 -5 -69 -11 -126 -13 -128 -1 -2 -22 4 -46
12 -24 8 -46 13 -49 10 -3 -3 5 -8 17 -12 12 -3 22 -9 22 -12 0 -4 16 -7 35
-6 19 0 35 -2 35 -5 0 -4 7 -7 16 -7 11 0 14 7 10 23 -4 13 -2 25 3 28 5 3 12
-5 15 -18 4 -15 25 -33 64 -54 33 -18 66 -39 73 -49 13 -15 11 -16 -21 -9 -73
17 -83 15 -25 -4 32 -10 61 -18 62 -16 2 2 1 22 -3 44 -5 35 -11 42 -35 47
-16 4 -29 11 -29 15 0 5 -7 6 -17 3 -12 -5 -14 -3 -8 7 6 10 4 12 -7 7 -28
-10 -52 28 -49 78 1 33 -2 47 -14 51 -19 8 -20 34 -1 34 13 0 26 48 26 103 0
18 4 26 11 21 8 -4 10 -28 6 -71 -4 -40 -3 -62 3 -58 6 3 10 12 10 19 0 8 7
27 16 42 l15 29 -3 -37 c-2 -21 0 -38 4 -38 12 0 10 88 -3 111 -5 11 -14 17
-19 14 -6 -3 -7 0 -4 8 3 8 -9 29 -26 46 -16 18 -30 40 -30 48 0 23 49 7 83
-26 35 -35 72 -153 71 -229 0 -38 2 -49 9 -37 5 9 6 38 3 63 -4 26 -8 64 -10
85 -2 21 -6 40 -10 44 -3 3 -6 13 -5 22 0 12 3 11 9 -4 8 -18 9 -18 9 -2 1 10
-5 20 -13 23 -8 3 -12 13 -9 24 5 20 -16 36 -61 44 -36 6 -112 51 -119 70 -4
11 4 9 30 -7 20 -12 34 -16 30 -11 -12 19 46 3 81 -23 22 -17 32 -20 32 -10 0
26 -39 50 -96 59 -78 12 -127 40 -166 94 -18 25 -50 55 -70 65 -41 21 -88 22
-95 1z"/>
<path d="M560 3400 c17 -33 6 -55 -40 -78 -23 -11 -21 -12 19 -7 24 3 47 8 51
10 11 7 -12 84 -27 89 -10 4 -11 1 -3 -14z"/>
<path d="M1305 3400 c-38 -10 -81 -23 -95 -29 -25 -10 -25 -10 -2 -10 13 -1
31 3 40 8 9 4 34 11 54 14 l37 6 -6 -32 c-3 -18 -12 -57 -19 -87 -8 -30 -14
-66 -14 -80 1 -14 12 17 25 69 13 51 33 109 44 127 11 19 17 34 13 33 -4 0
-38 -9 -77 -19z"/>
<path d="M1418 3409 c-16 -9 -59 -108 -57 -132 0 -7 14 15 29 47 16 33 39 65
51 71 16 9 18 13 7 17 -8 3 -22 2 -30 -3z"/>
<path d="M1105 3385 c-49 -14 -93 -24 -97 -25 -5 0 -8 -4 -8 -8 0 -9 107 13
145 28 11 5 34 13 50 18 56 19 0 10 -90 -13z"/>
<path d="M1700 3389 l35 -20 -30 5 c-25 5 -22 2 17 -19 27 -14 69 -28 95 -32
27 -3 61 -12 77 -20 41 -21 113 -45 101 -35 -6 5 -35 22 -65 38 -30 16 -61 35
-68 41 -7 7 -20 13 -28 13 -8 0 -47 11 -86 25 -86 30 -94 31 -48 4z"/>
<path d="M1941 3344 c15 -11 54 -38 87 -61 33 -23 69 -55 81 -70 26 -36 27
-18 1 25 -11 18 -43 47 -70 64 -27 17 -48 33 -46 37 2 3 -6 6 -17 7 -12 0 -31
4 -42 8 -13 5 -11 2 6 -10z"/>
<path d="M885 3320 c-27 -10 -63 -25 -80 -34 -16 -9 -37 -16 -45 -16 -13 0
-13 -1 0 -10 13 -8 12 -10 -5 -11 -11 -1 -23 -1 -26 -1 -3 1 -6 -5 -6 -13 0
-12 5 -11 29 1 15 8 28 19 28 24 0 6 10 10 23 10 13 0 27 4 33 9 5 4 31 16 57
26 26 10 50 22 53 26 7 12 -3 10 -61 -11z"/>
<path d="M900 3282 c-241 -100 -432 -249 -548 -427 -48 -75 -95 -180 -89 -199
2 -6 10 7 17 29 7 22 19 49 25 60 42 68 111 171 129 194 29 35 139 141 148
141 4 0 13 6 20 13 7 7 45 32 83 54 39 23 85 51 103 62 18 12 42 21 53 21 11
0 18 4 14 9 -6 11 63 33 77 25 4 -3 8 0 8 6 0 6 15 17 33 25 22 10 26 14 12
14 -11 0 -49 -12 -85 -27z"/>
<path d="M1387 3293 c-14 -14 -6 -20 21 -16 25 5 25 4 -8 -15 -22 -12 -37 -16
-41 -10 -6 10 -20 -26 -33 -82 -3 -14 -1 -39 3 -55 8 -27 9 -24 11 25 2 68 13
110 23 93 5 -7 3 -22 -3 -33 -8 -14 -9 -44 -4 -88 4 -37 10 -59 12 -49 3 14
10 8 35 -25 17 -24 41 -51 54 -61 13 -10 21 -22 18 -26 -2 -5 1 -16 9 -26 11
-15 16 -15 33 -5 29 19 53 6 53 -28 0 -16 5 -43 11 -61 9 -25 14 -29 25 -20
17 14 17 31 4 81 -14 49 -34 68 -73 68 -21 0 -28 3 -19 9 11 7 11 9 -2 14 -10
4 -16 1 -16 -8 0 -25 -13 -16 -46 28 -64 87 -93 174 -64 192 6 4 7 13 1 24
-12 22 16 41 44 30 17 -6 16 -8 -8 -8 -22 -1 -28 -5 -25 -18 2 -10 13 -19 26
-21 16 -3 20 1 16 12 -4 10 0 18 10 22 13 5 14 9 5 20 -6 8 -8 14 -4 14 4 0 2
7 -5 15 -13 15 -51 20 -63 8z"/>
<path d="M1974 3241 c3 -5 22 -12 41 -15 19 -4 35 -10 35 -15 0 -9 51 -34 57
-28 2 3 -12 18 -32 36 -26 22 -46 31 -71 31 -19 0 -33 -4 -30 -9z"/>
<path d="M383 3210 c-46 -28 -41 -35 7 -10 38 19 49 30 33 30 -5 0 -23 -9 -40
-20z"/>
<path d="M1930 3198 c0 -7 20 -21 44 -31 55 -23 83 -52 100 -108 l14 -44 -1
43 c0 37 -6 50 -39 83 -23 23 -48 39 -62 39 -13 0 -26 7 -30 15 -7 18 -26 20
-26 3z"/>
<path d="M1454 3169 c-11 -18 13 -34 31 -19 8 7 15 16 15 21 0 13 -38 11 -46
-2z"/>
<path d="M835 3145 c-5 -1 -36 -8 -67 -15 -32 -6 -58 -15 -58 -20 0 -4 19 -4
42 2 47 10 87 8 106 -5 6 -5 12 -7 12 -4 0 3 14 2 30 -3 37 -11 38 -5 3 14
-16 9 -21 15 -13 16 18 0 52 -21 94 -59 21 -19 27 -21 23 -8 -10 28 -1 20 22
-19 15 -25 37 -42 76 -59 70 -31 110 -42 101 -26 -4 6 -18 11 -32 11 -20 0
-24 5 -24 28 0 21 -2 24 -10 12 -9 -13 -11 -13 -20 0 -5 8 -10 20 -10 26 0 7
-9 14 -21 17 -17 5 -18 3 -7 -11 7 -9 1 -7 -12 5 -14 12 -47 31 -73 43 -26 12
-47 24 -47 27 0 10 83 -7 129 -28 27 -12 48 -16 54 -10 15 15 -95 50 -191 61
-91 10 -91 10 -107 5z"/>
<path d="M1945 3124 c7 -15 12 -39 11 -53 -2 -14 -1 -18 1 -9 8 33 72 -16 73
-55 0 -10 5 -15 11 -11 14 8 3 53 -19 78 -9 10 -34 31 -54 48 l-37 29 14 -27z"/>
<path d="M1301 3105 c0 -16 8 -41 19 -55 25 -31 25 -27 0 35 -17 44 -19 47
-19 20z"/>
<path d="M1462 3108 c-14 -14 -16 -42 -2 -33 18 11 32 -6 18 -23 -11 -13 -10
-14 17 -8 34 8 57 26 35 26 -13 0 -13 2 0 11 11 8 7 9 -17 5 -19 -3 -33 -1
-33 4 0 6 19 10 43 11 32 0 37 2 22 9 -29 13 -69 12 -83 -2z"/>
<path d="M912 3057 c9 -7 29 -20 45 -30 15 -9 43 -28 62 -42 19 -14 39 -25 45
-25 6 0 -1 8 -15 18 -14 9 -36 28 -50 41 -22 22 -78 51 -96 51 -4 0 0 -6 9
-13z"/>
<path d="M1130 3060 c0 -5 9 -10 20 -10 10 0 23 -8 29 -17 5 -10 11 -16 13
-14 6 7 48 -10 48 -20 0 -5 7 -9 16 -9 13 0 14 3 5 14 -7 9 -8 17 -3 20 6 3
12 -1 16 -9 3 -8 10 -15 17 -15 6 0 22 -8 35 -19 l23 -18 -22 -12 c-20 -10
-19 -11 8 -5 16 3 33 10 36 16 4 6 18 -7 33 -28 25 -37 27 -59 4 -36 -21 21
-66 13 -101 -18 -44 -38 -83 -111 -73 -136 7 -18 8 -17 27 6 l20 25 -12 -27
c-13 -29 -28 -35 -45 -18 -10 10 -86 -9 -122 -29 -14 -9 -14 -10 -1 -11 8 0
20 5 26 11 6 6 21 9 34 7 17 -2 6 -9 -39 -24 -34 -12 -59 -18 -56 -13 11 18
-22 8 -73 -21 -53 -31 -73 -54 -73 -87 0 -16 2 -16 18 3 9 12 37 32 62 45 61
30 251 89 264 82 6 -3 8 -3 5 1 -8 9 58 83 66 74 3 -3 -17 -43 -45 -88 -27
-46 -50 -87 -50 -91 0 -31 61 2 66 35 2 15 0 15 -14 4 -16 -12 -16 -11 -1 11
9 14 24 30 35 35 10 6 22 16 26 21 4 6 8 8 9 5 7 -39 2 -60 -28 -101 -27 -39
-52 -57 -131 -97 -53 -27 -131 -60 -172 -72 -82 -25 -135 -49 -127 -56 8 -8
231 68 243 83 10 11 16 9 33 -13 12 -15 21 -22 21 -17 0 5 -5 14 -11 20 -16
16 -3 47 16 39 8 -3 15 -2 15 3 0 8 44 31 60 31 6 0 10 -15 11 -32 1 -32 1
-32 15 11 14 44 93 171 107 171 4 0 8 -26 9 -57 l2 -58 3 50 c6 94 12 117 31
110 9 -4 25 -7 34 -7 10 0 20 -3 23 -9 4 -5 -3 -9 -14 -9 -12 0 -21 -4 -21 -9
0 -5 16 -5 38 0 20 5 49 12 63 15 14 3 71 -6 128 -21 56 -15 104 -25 106 -23
3 2 -44 17 -103 32 -74 19 -120 26 -147 22 -29 -5 -35 -4 -20 3 18 9 18 10 -5
9 -14 -1 -54 10 -90 24 -36 15 -86 32 -112 38 -57 15 -64 31 -10 23 34 -6 36
-5 23 10 -10 13 -17 15 -27 6 -28 -23 -13 8 19 39 24 23 36 29 47 22 8 -5 29
-10 47 -10 17 0 34 -4 38 -10 3 -5 13 -6 23 -2 13 5 7 9 -23 18 -22 7 -34 13
-27 13 14 1 -4 35 -42 81 -16 18 -16 21 -3 11 9 -8 19 -12 21 -10 2 2 -8 13
-22 23 -14 11 -22 14 -18 8 12 -19 -7 -14 -90 25 -95 45 -105 49 -80 29 11 -9
17 -18 14 -22 -4 -3 -16 4 -27 15 -21 21 -71 29 -71 11z m251 -339 c0 11 2 11
6 1 4 -10 8 -10 19 -1 23 19 15 -4 -12 -36 -15 -16 -24 -22 -21 -13 4 11 -1
23 -13 31 -11 8 -17 17 -13 20 3 4 12 2 20 -4 10 -9 13 -8 14 2z"/>
<path d="M1695 3045 c-16 -12 -59 -34 -95 -48 -56 -23 -61 -26 -33 -27 17 0
35 4 38 10 3 5 25 18 48 29 48 22 84 47 77 54 -3 3 -18 -5 -35 -18z"/>
<path d="M1893 2960 c-24 -29 -30 -50 -15 -50 10 0 48 67 42 73 -3 3 -15 -8
-27 -23z"/>
<path d="M2420 2978 c0 -7 14 -42 31 -78 18 -36 40 -90 50 -120 10 -30 18 -47
18 -38 1 20 -38 127 -63 173 -19 36 -21 59 -3 49 8 -5 8 -2 -2 9 -16 20 -31
22 -31 5z"/>
<path d="M724 2918 c10 -7 33 -24 50 -38 l31 -25 -24 33 c-13 18 -26 31 -28
28 -3 -3 -15 -1 -27 5 -19 9 -19 8 -2 -3z"/>
<path d="M1227 2903 c6 -16 4 -16 -9 -5 -23 18 -65 -2 -48 -23 9 -10 5 -20
-17 -42 -22 -23 -24 -24 -8 -3 l20 25 -27 -24 c-15 -13 -25 -27 -23 -31 6 -9
-19 -31 -37 -34 -23 -3 -59 -33 -84 -70 -14 -20 -23 -36 -21 -36 12 0 159 79
148 80 -18 0 32 51 69 70 21 11 23 11 14 -1 -15 -19 -24 -59 -13 -59 5 0 9 5
9 11 0 7 15 32 33 58 51 70 55 79 31 61 -10 -8 -21 -17 -24 -20 -3 -3 -18 -14
-35 -24 -30 -19 -30 -19 -12 1 9 11 15 22 11 25 -3 3 11 16 30 28 43 26 44 30
11 30 -19 0 -23 -4 -18 -17z"/>
<path d="M2424 2895 c3 -11 20 -72 39 -135 20 -63 53 -180 76 -260 43 -157 59
-204 61 -180 0 9 6 6 15 -10 20 -34 18 -26 -8 58 -13 39 -27 69 -32 65 -4 -5
-6 -3 -2 2 12 22 -41 237 -64 255 -3 3 -21 46 -38 95 -18 50 -37 99 -42 110
-9 20 -9 20 -5 0z"/>
<path d="M714 2855 c8 -8 18 -15 22 -15 4 0 16 -7 26 -17 11 -10 18 -12 18 -4
0 6 -15 20 -32 31 -39 24 -55 26 -34 5z"/>
<path d="M2940 2860 c-8 -4 -34 -16 -58 -26 -24 -9 -45 -21 -47 -25 -5 -7 135
48 144 56 8 8 -23 4 -39 -5z"/>
<path d="M1535 2774 c-41 -15 -68 -34 -48 -34 6 0 30 7 54 15 24 9 49 13 57
10 8 -3 12 0 10 7 -6 18 -27 19 -73 2z"/>
<path d="M2783 2721 c-17 -11 -33 -17 -36 -15 -2 3 -7 -2 -10 -10 -5 -12 3
-11 34 5 21 12 42 25 45 30 8 13 3 11 -33 -10z"/>
<path d="M26 2668 c-3 -13 -5 -68 -4 -123 l2 -100 6 120 c3 66 5 121 4 123 -1
1 -4 -8 -8 -20z"/>
<path d="M2226 2679 c5 -8 33 -49 62 -92 29 -42 72 -119 96 -170 24 -52 76
-143 117 -202 41 -60 86 -132 101 -160 15 -27 27 -44 28 -37 0 20 -25 64 -104
180 -81 119 -109 168 -102 181 3 4 -1 17 -9 27 -27 36 -15 38 20 4 19 -19 35
-31 35 -26 0 4 -14 19 -31 34 -18 14 -38 40 -45 57 -9 20 -13 24 -14 12 0 -11
-31 28 -69 86 -38 58 -75 108 -81 112 -9 6 -10 4 -4 -6z"/>
<path d="M2625 2664 c7 -26 97 -166 102 -160 7 6 -34 81 -51 95 -9 7 -13 17
-11 22 3 4 -1 11 -8 16 -8 4 -19 17 -26 28 -12 20 -12 20 -6 -1z"/>
<path d="M1505 2661 c-33 -7 -41 -27 -29 -69 7 -26 8 -25 13 13 l6 40 73 3
c59 2 88 -2 159 -27 63 -22 91 -27 105 -20 24 13 23 29 -2 29 -11 0 -20 -4
-20 -10 0 -5 -5 -10 -11 -10 -5 0 -7 4 -4 10 4 6 -1 7 -11 3 -11 -4 -15 -2
-11 4 4 6 -25 17 -76 27 -84 16 -139 19 -192 7z"/>
<path d="M1163 2638 c-30 -14 -29 -28 1 -28 15 0 26 7 29 20 6 22 2 23 -30 8z"/>
<path d="M1855 2635 c17 -8 55 -15 85 -16 38 -2 45 -3 22 -6 -18 -3 -41 -12
-51 -22 -10 -10 -25 -21 -32 -23 -21 -8 0 -24 39 -32 21 -3 31 -2 27 4 -3 6
-13 10 -21 10 -9 0 -14 6 -12 13 5 14 77 21 125 12 43 -8 64 -48 69 -135 l4
-68 -46 -48 c-25 -27 -43 -41 -40 -31 3 11 0 17 -9 17 -17 0 -20 -16 -5 -25 6
-4 8 -10 6 -14 -3 -4 0 -13 6 -21 8 -13 9 -13 5 0 -5 16 10 33 31 38 17 3 15
-53 -3 -72 -8 -8 -15 -24 -15 -35 0 -18 3 -19 25 -9 16 7 28 24 34 47 19 76
30 157 24 185 -4 20 -2 27 6 22 22 -14 12 60 -14 98 -14 20 -24 40 -24 44 3
18 -2 35 -8 29 -3 -4 -11 -1 -17 7 -6 7 -49 19 -96 25 -47 7 -98 14 -115 17
l-30 4 30 -15z"/>
<path d="M170 2630 c-10 -6 -11 -10 -2 -10 13 0 17 -32 5 -44 -4 -3 -8 -16
-10 -29 -7 -43 17 -2 26 46 9 49 6 53 -19 37z"/>
<path d="M470 2633 c0 -5 13 -29 29 -54 15 -25 45 -77 66 -117 21 -40 42 -72
47 -72 5 0 13 -10 18 -22 5 -13 9 -17 9 -10 1 7 -11 34 -26 60 -44 77 -143
226 -143 215z"/>
<path d="M236 2558 c-10 -40 -22 -107 -27 -148 -11 -90 -2 -300 16 -390 l14
-65 -5 85 c-3 47 -6 122 -7 167 -1 45 -5 79 -10 76 -5 -3 -6 11 -3 33 3 22 7
66 8 99 0 33 6 69 13 80 11 18 30 135 22 135 -1 0 -11 -33 -21 -72z"/>
<path d="M1005 2584 c-62 -30 -85 -57 -84 -98 l1 -31 13 31 c13 29 69 85 111
111 31 19 12 14 -41 -13z"/>
<path d="M1846 2602 c-9 -16 9 -29 29 -21 11 4 16 8 10 9 -5 1 -1 5 10 10 17
7 15 9 -12 9 -17 1 -34 -3 -37 -7z"/>
<path d="M1180 2587 c-92 -17 -190 -50 -209 -71 -19 -21 -45 -96 -35 -105 2
-3 12 3 22 12 14 14 14 19 4 26 -10 6 -7 13 15 29 15 12 36 29 45 38 9 9 34
18 55 20 21 1 56 9 78 17 44 17 62 13 67 -11 2 -10 6 -12 9 -7 3 6 3 21 0 35
-6 25 -8 25 -51 17z"/>
<path d="M1679 2558 c-6 -21 -5 -37 1 -33 10 6 60 -15 60 -26 0 -4 -6 -10 -12
-12 -7 -3 6 -6 29 -6 23 -1 54 -6 69 -11 20 -8 30 -8 38 1 7 8 7 10 1 6 -6 -3
-17 -1 -25 4 -11 7 -7 9 15 7 17 -2 29 -7 28 -13 -2 -5 18 -18 45 -27 60 -21
72 -22 72 -3 0 8 -4 15 -10 15 -5 0 -10 6 -10 13 0 14 -103 43 -118 33 -5 -3
-8 7 -6 22 2 15 1 19 -2 10 -7 -22 -17 -22 -78 -4 -27 8 -54 12 -62 9 -8 -3
-14 0 -14 6 0 9 -18 17 -21 9z"/>
<path d="M1147 2533 c-17 -16 -6 -31 20 -27 37 7 47 15 32 25 -17 10 -43 12
-52 2z"/>
<path d="M2630 2511 c0 -16 40 -84 46 -78 3 2 -7 24 -21 48 -13 24 -25 38 -25
30z"/>
<path d="M2745 2480 c0 -16 2 -28 5 -28 18 1 32 -3 27 -8 -8 -9 21 -64 33 -64
6 0 9 -4 8 -8 -4 -10 94 -173 100 -168 9 10 -10 66 -21 59 -6 -4 -8 0 -4 10 4
10 2 14 -6 11 -12 -4 -44 61 -39 80 4 14 -30 46 -41 39 -6 -3 -7 -1 -3 6 7 11
-23 69 -47 89 -9 8 -12 3 -12 -18z"/>
<path d="M133 2479 c-7 -7 -13 -18 -13 -23 0 -6 5 -4 10 4 7 11 10 2 10 -33 0
-34 -3 -46 -12 -41 -6 4 -8 3 -5 -3 4 -6 0 -13 -8 -17 -8 -3 -15 -10 -15 -16
0 -6 10 -2 22 10 28 25 38 25 38 -1 0 -11 -4 -18 -9 -14 -5 3 -13 1 -16 -5 -4
-6 -1 -9 7 -8 10 2 12 -14 10 -73 -2 -42 0 -79 5 -82 4 -3 9 46 11 109 1 67
-2 114 -7 114 -6 0 -11 21 -13 46 -2 36 -5 43 -15 33z"/>
<path d="M2496 2449 l-28 -44 32 31 c18 18 31 37 28 44 -2 7 -16 -7 -32 -31z"/>
<path d="M706 2398 c8 -34 12 -68 9 -76 -4 -12 -2 -12 9 -3 11 10 11 17 0 49
-7 20 -13 49 -14 65 0 15 -4 27 -9 27 -5 0 -3 -28 5 -62z"/>
<path d="M2251 2455 c0 -5 20 -48 44 -95 24 -47 44 -80 44 -75 0 6 -20 48 -44
95 -24 47 -44 81 -44 75z"/>
<path d="M1275 2430 c-3 -11 -11 -20 -16 -20 -5 0 -9 -4 -9 -9 0 -5 9 -7 20
-4 13 3 20 14 20 29 0 29 -6 31 -15 4z"/>
<path d="M31 2435 c0 -5 7 -39 14 -75 14 -64 15 -64 9 -12 -4 45 -23 115 -23
87z"/>
<path d="M2070 2430 c0 -5 -7 -10 -16 -10 -10 0 -14 -6 -11 -14 3 -8 1 -17 -6
-20 -7 -2 -2 -5 10 -5 31 -1 57 27 42 45 -14 17 -19 18 -19 4z"/>
<path d="M1696 2381 c29 -13 32 -24 30 -120 l-1 -84 -35 -18 c-34 -19 -34 -19
-7 -19 15 0 27 -4 27 -8 0 -4 -15 -6 -32 -4 -28 3 -36 -1 -51 -27 -21 -36 -18
-45 21 -59 19 -7 33 -6 43 2 33 24 42 61 47 198 l5 138 43 0 c51 0 144 -33
168 -59 16 -18 16 -21 -2 -54 -14 -27 -22 -33 -30 -25 -9 9 -12 3 -12 -23 0
-20 3 -39 8 -43 10 -10 10 -30 0 -37 -5 -3 -10 -19 -11 -36 -1 -17 -6 -31 -12
-30 -5 1 -11 -16 -12 -38 -1 -22 0 -34 3 -27 3 6 10 10 15 6 9 -5 10 -4 14 31
1 12 7 36 13 55 5 19 13 55 17 80 3 24 15 64 26 89 18 41 18 45 3 62 -9 11
-32 24 -50 31 -19 6 -29 15 -24 18 5 3 -43 7 -108 8 -76 1 -110 -2 -96 -7z m2
-287 c4 -25 -22 -49 -43 -40 -22 8 -29 34 -14 52 17 21 53 14 57 -12z"/>
<path d="M1073 2353 c14 -16 33 -44 41 -63 8 -19 15 -30 16 -23 0 24 -39 100
-55 107 -29 11 -29 7 -2 -21z"/>
<path d="M911 2357 c-14 -6 -26 -18 -28 -24 -3 -9 3 -8 24 2 56 30 124 9 174
-53 l21 -27 -18 30 c-9 17 -26 36 -36 43 -10 7 -16 18 -13 23 3 5 -2 6 -11 2
-10 -3 -15 -2 -12 3 9 14 -74 15 -101 1z"/>
<path d="M1139 2331 c12 -16 21 -34 21 -41 0 -6 4 -9 10 -5 11 7 3 33 -18 58
-25 28 -35 19 -13 -12z"/>
<path d="M1289 2350 c-8 -22 1 -53 23 -80 11 -14 16 -19 13 -11 -4 7 -13 34
-20 60 -6 25 -14 39 -16 31z"/>
<path d="M976 2306 c16 -7 48 -33 69 -57 36 -42 37 -42 19 -9 -21 37 -77 80
-103 80 -9 -1 -2 -7 15 -14z"/>
<path d="M1644 2299 c-19 -22 -19 -22 4 -10 12 7 33 9 45 5 19 -6 20 -5 8 10
-18 22 -34 20 -57 -5z"/>
<path d="M96 2298 c3 -4 -4 -8 -15 -8 -12 0 -21 -4 -21 -9 0 -12 37 -6 54 9 7
5 16 8 19 5 4 -3 5 -2 2 2 -8 10 -45 11 -39 1z"/>
<path d="M888 2294 c-16 -8 -28 -17 -28 -20 0 -3 6 -2 13 2 6 3 -5 -8 -26 -26
-29 -25 -35 -35 -25 -41 24 -16 45 -9 57 17 6 15 14 24 17 21 8 -8 44 31 44
48 0 19 -17 19 -52 -1z"/>
<path d="M2375 2280 c-10 -11 -22 -17 -26 -14 -5 3 -6 -3 -2 -12 5 -15 10 -13
29 12 13 15 25 26 27 24 16 -22 119 -204 127 -225 6 -15 13 -25 16 -23 8 9 -7
58 -18 58 -5 0 -7 3 -4 8 2 4 -9 25 -25 47 -15 22 -43 64 -60 93 -17 28 -34
52 -38 52 -5 0 -16 -9 -26 -20z"/>
<path d="M97 2246 c-16 -24 -16 -25 0 -19 12 5 15 2 10 -10 -3 -9 0 -23 8 -31
8 -8 15 -17 15 -21 0 -4 7 -13 15 -21 24 -24 20 7 -5 39 -11 14 -17 32 -14 41
3 8 2 22 -3 31 -9 15 -12 13 -26 -9z"/>
<path d="M1346 2220 c5 -20 4 -22 -6 -10 -10 13 -11 13 -7 0 2 -8 9 -14 15
-13 5 1 22 -27 38 -62 30 -66 44 -81 44 -44 0 13 -4 18 -12 13 -7 -5 -9 -2 -6
7 3 9 -3 26 -13 40 -10 13 -19 29 -19 34 0 6 -9 21 -20 35 l-19 25 5 -25z"/>
<path d="M1035 2203 c8 -15 15 -37 15 -47 0 -15 3 -17 11 -9 11 11 -10 65 -31
78 -5 3 -3 -7 5 -22z"/>
<path d="M530 2217 c0 -10 50 -97 56 -97 2 0 2 10 0 23 -3 12 -5 28 -5 35 -1
7 -5 11 -10 7 -5 -3 -17 5 -25 17 -9 12 -16 19 -16 15z"/>
<path d="M1242 2193 c-22 -32 -62 -109 -62 -120 0 -10 20 20 59 90 34 60 36
76 3 30z"/>
<path d="M2410 2210 c0 -8 9 -26 19 -39 10 -14 16 -32 13 -40 -4 -12 -2 -13 8
-5 14 14 7 39 -20 74 -13 17 -20 20 -20 10z"/>
<path d="M1812 2197 c-6 -7 -8 -18 -4 -24 10 -15 54 -21 59 -7 2 7 -6 10 -22
7 -15 -3 -25 -1 -25 6 0 6 5 11 10 11 6 0 10 5 10 10 0 14 -16 12 -28 -3z"/>
<path d="M252 2142 c11 -60 21 -69 16 -14 -3 32 0 41 10 37 7 -2 11 -1 8 4 -3
5 -14 11 -24 13 -17 5 -18 1 -10 -40z"/>
<path d="M757 2172 c-10 -10 -17 -27 -17 -38 -1 -22 -24 -56 -33 -47 -4 3 -15
0 -24 -8 -16 -13 -17 -12 -5 2 12 17 7 49 -8 49 -16 0 -23 -22 -10 -30 8 -5 9
-10 2 -14 -6 -3 -12 -1 -14 6 -2 6 -13 -2 -24 -18 -27 -38 -79 -131 -69 -122
4 4 14 0 22 -8 17 -17 33 -10 33 15 0 29 25 45 43 27 13 -14 16 -14 29 1 10
13 10 15 0 9 -8 -5 -18 -1 -27 10 -14 19 -10 39 5 29 5 -3 21 6 36 20 15 14
30 25 33 25 4 0 23 -16 41 -35 27 -28 32 -38 21 -44 -8 -6 -9 -11 -3 -15 21
-13 24 16 6 50 -10 19 -21 34 -24 34 -3 0 -6 9 -7 20 -1 11 2 20 8 20 5 0 9 7
9 15 0 8 11 17 25 21 29 7 34 24 8 25 -11 0 -13 3 -6 6 7 2 30 -1 50 -8 21 -7
43 -14 48 -15 6 -1 19 -5 30 -9 20 -7 20 -7 0 7 -54 40 -151 50 -178 20z"/>
<path d="M2319 2153 c11 -21 27 -47 36 -58 9 -11 13 -14 10 -7 -4 8 1 19 11
27 11 8 14 15 9 15 -6 0 -16 -5 -21 -10 -7 -7 -18 3 -33 30 -28 51 -38 53 -12
3z"/>
<path d="M86 2143 c-4 -10 -2 -13 8 -10 7 3 19 0 26 -6 9 -9 11 -8 8 7 -4 23
-34 30 -42 9z"/>
<path d="M1984 2153 c3 -6 1 -13 -6 -15 -13 -5 -4 -38 11 -38 18 0 22 34 5 49
-9 9 -14 11 -10 4z"/>
<path d="M490 2146 c0 -3 9 -20 20 -38 11 -18 20 -44 20 -58 0 -24 -1 -23 -31
10 l-31 35 30 -54 c16 -30 34 -57 40 -59 19 -6 14 68 -7 114 -16 36 -41 66
-41 50z"/>
<path d="M2090 2141 c0 -27 42 -101 63 -113 21 -10 21 -10 6 8 -9 10 -28 41
-43 69 -14 27 -26 43 -26 36z"/>
<path d="M2427 2078 c22 -58 28 -65 40 -52 15 14 9 39 -8 29 -5 -3 -7 0 -4 7
2 7 -9 29 -25 48 l-30 34 27 -66z"/>
<path d="M2706 2132 c-3 -5 3 -17 14 -27 11 -10 20 -25 21 -34 0 -12 2 -12 6
-3 4 10 14 3 35 -20 29 -33 29 -32 -3 14 -39 58 -65 83 -73 70z"/>
<path d="M80 2105 c14 -17 13 -18 -2 -12 -25 9 -22 -6 7 -33 30 -28 33 -55 7
-48 -15 4 -17 0 -14 -24 3 -22 7 -26 13 -17 5 8 9 11 9 6 0 -4 -5 -15 -11 -25
-8 -13 -6 -27 8 -57 17 -38 19 -40 43 -28 l24 12 -27 10 c-15 6 -27 13 -27 16
0 4 5 3 12 -1 7 -4 8 -3 4 5 -4 6 -11 9 -16 6 -5 -3 -11 -1 -15 5 -3 5 -1 10
4 10 6 0 11 16 11 36 0 37 22 70 40 59 8 -5 8 -11 0 -20 -6 -8 -10 -24 -8 -37
l5 -23 10 25 10 25 8 -33 c8 -37 -1 -55 -15 -32 -8 13 -10 12 -10 -2 0 -11 8
-18 19 -18 14 0 22 -12 30 -44 6 -25 11 -55 10 -68 0 -22 -1 -22 -9 -3 -5 11
-9 35 -9 53 -1 21 -5 31 -12 26 -6 -3 -9 -20 -5 -38 15 -91 31 -152 40 -158
13 -9 27 13 17 27 -8 10 -13 55 -6 55 2 0 9 -16 15 -35 10 -30 9 -41 -10 -80
-17 -35 -19 -48 -10 -65 6 -12 9 -26 7 -33 -2 -7 -11 4 -19 23 -14 33 -15 34
-21 11 -3 -12 -3 -20 0 -17 4 3 12 -3 20 -14 11 -16 26 -20 66 -20 36 0 47 -3
37 -10 -12 -8 -12 -10 3 -16 26 -10 30 0 14 33 -28 53 -115 328 -128 402 -9
50 -18 77 -31 84 -10 7 -18 15 -18 20 0 4 4 5 10 2 6 -4 7 1 3 11 -4 12 -3 15
5 10 8 -5 12 3 12 23 0 17 -3 31 -7 31 -12 0 -44 -61 -37 -71 3 -5 -2 -9 -10
-9 -9 0 -17 8 -18 18 0 9 -2 23 -2 30 -1 8 -10 18 -21 25 -19 10 -19 9 -5 -8z
m199 -500 c20 -67 8 -76 -16 -12 -14 38 -17 57 -9 57 6 0 18 -20 25 -45z"/>
<path d="M330 2110 c-10 -6 -11 -10 -3 -10 9 0 10 -7 3 -26 -16 -41 -13 -52
15 -46 27 5 32 -6 13 -27 -11 -11 -10 -13 2 -9 23 7 25 39 2 44 -15 5 -19 13
-16 45 1 21 2 39 1 39 -1 0 -9 -5 -17 -10z"/>
<path d="M1291 2040 c-62 -80 -86 -120 -63 -106 7 4 12 13 12 21 0 7 9 17 20
20 11 3 20 11 20 16 0 5 8 19 18 29 19 21 66 100 59 100 -2 0 -32 -36 -66 -80z"/>
<path d="M1800 2112 c0 -5 -10 -8 -22 -6 -21 4 -21 4 2 -7 48 -23 68 -16 35
11 -9 7 -15 8 -15 2z"/>
<path d="M2392 2060 c63 -112 132 -199 108 -135 -8 22 -7 25 15 25 13 0 28 -8
33 -17 9 -15 11 -15 26 -1 14 14 13 16 -7 23 -12 4 -36 6 -53 5 -31 -1 -47 12
-113 95 -18 23 -20 24 -9 5z"/>
<path d="M1950 2051 c0 -11 -5 -21 -11 -23 -17 -6 -19 -156 -2 -169 10 -9 13
-8 13 5 0 9 -5 16 -10 16 -7 0 -7 6 0 19 5 11 10 35 9 53 0 18 2 52 6 76 3 23
4 42 1 42 -4 0 -6 -9 -6 -19z"/>
<path d="M1420 2035 c0 -13 -6 -30 -13 -37 -11 -11 -37 -63 -37 -72 0 -2 7 -7
16 -10 8 -3 13 -2 10 2 -3 5 6 30 20 56 14 25 22 51 19 55 -3 5 0 11 7 13 8 3
6 7 -5 11 -13 5 -17 1 -17 -18z"/>
<path d="M1748 2033 c17 -9 32 -23 32 -30 0 -7 3 -12 8 -11 4 1 24 -1 46 -6
l38 -7 -5 -42 c-5 -37 -4 -40 8 -24 7 10 15 14 17 10 3 -4 3 -2 1 5 -1 8 -3
24 -3 37 0 19 -8 25 -50 35 -27 7 -50 16 -50 20 0 4 -14 13 -31 19 -45 15 -50
13 -11 -6z"/>
<path d="M750 2033 c0 -18 -31 -24 -48 -11 -14 12 -14 11 -1 -9 8 -13 17 -23
20 -23 11 0 42 40 36 47 -4 3 -7 2 -7 -4z"/>
<path d="M2767 2019 c9 -9 10 -16 1 -26 -17 -21 15 -51 36 -34 12 11 18 6 37
-31 12 -24 25 -45 28 -48 4 -3 17 -22 30 -43 13 -21 26 -36 29 -33 3 3 -2 14
-10 23 -9 10 -33 55 -54 100 -21 45 -41 80 -44 78 -4 -2 -20 3 -36 11 -17 9
-24 10 -17 3z"/>
<path d="M1701 1993 c-1 -26 -4 -27 -32 -13 -13 7 -19 7 -19 0 0 -5 8 -10 18
-11 14 0 14 -2 -3 -9 -16 -7 -16 -9 -4 -9 35 -2 27 -51 -8 -51 -7 0 -13 -4
-13 -10 0 -5 9 -6 23 -1 24 9 51 72 44 106 -4 18 -4 18 -6 -2z"/>
<path d="M2179 1979 c18 -15 56 -36 85 -46 28 -11 50 -25 49 -31 -2 -7 2 -11
9 -10 6 2 14 -6 16 -17 6 -29 22 -43 22 -19 0 12 -9 29 -21 40 -11 10 -25 27
-31 37 -9 17 -8 18 24 1 29 -15 31 -15 20 -1 -8 9 -39 23 -70 33 -32 9 -66 21
-77 27 -11 6 -29 11 -39 12 -16 2 -13 -4 13 -26z"/>
<path d="M2670 1985 c7 -18 6 -26 -4 -32 -11 -6 -9 -12 10 -26 13 -10 24 -13
24 -7 0 16 18 3 31 -22 10 -19 9 -20 -10 -15 -18 4 -20 3 -10 -9 10 -13 14
-12 30 2 11 10 20 13 20 8 3 -21 6 -31 23 -68 16 -35 16 -40 2 -55 -14 -13
-16 -13 -16 0 0 8 -7 24 -16 35 -15 18 -15 18 -5 -3 24 -48 9 -166 -23 -182
-11 -7 -13 -9 -4 -7 11 3 25 -5 37 -19 16 -21 20 -22 25 -9 3 9 6 29 6 45 0
21 4 27 15 23 19 -8 19 5 0 30 -15 20 -15 20 -15 0 0 -10 -9 -30 -20 -44 l-19
-25 14 48 c8 26 12 54 8 62 -4 11 -1 13 10 9 9 -3 20 -18 26 -32 l9 -27 1 27
c1 14 -4 28 -11 30 -8 3 -9 12 -1 35 9 23 8 37 -4 62 -9 17 -19 31 -24 31 -5
0 -9 5 -9 11 0 5 6 7 13 3 9 -6 9 -5 0 7 -10 12 -10 18 -1 27 9 9 3 15 -25 27
-20 8 -43 15 -51 15 -8 0 -16 15 -20 35 -4 19 -11 35 -16 35 -6 0 -6 -10 0
-25z"/>
<path d="M250 1983 c0 -10 -3 -29 -5 -43 -5 -22 -4 -23 5 -5 9 17 10 15 7 -12
-2 -18 0 -30 5 -27 4 3 8 -1 8 -8 1 -79 68 -303 86 -286 5 6 -16 60 -27 68
-23 18 -40 190 -19 190 6 0 10 -5 10 -12 0 -6 2 -9 5 -6 3 3 3 13 -1 22 -5 13
-9 14 -20 5 -20 -17 -23 -11 -30 60 -6 56 -24 97 -24 54z"/>
<path d="M712 1952 c-38 -41 -37 -51 2 -21 23 18 30 20 37 8 5 -8 9 -9 9 -4 0
6 7 1 15 -9 24 -31 17 -8 -7 28 l-23 33 -33 -35z"/>
<path d="M2375 1950 c-8 -12 10 -37 37 -51 13 -7 24 -6 38 4 20 14 20 14 -2
33 -19 16 -20 16 -9 1 8 -9 11 -20 8 -23 -3 -3 -13 6 -22 20 -18 27 -39 34
-50 16z"/>
<path d="M352 1913 c-13 -36 -13 -123 0 -123 7 0 9 16 5 41 -3 22 -1 54 4 71
11 40 5 48 -9 11z"/>
<path d="M542 1928 c0 -7 -4 -24 -8 -37 -6 -21 -5 -23 17 -16 40 12 68 45 38
45 -5 0 -8 -4 -4 -9 3 -5 1 -12 -4 -15 -5 -4 -11 4 -13 16 -3 23 -24 36 -26
16z"/>
<path d="M1310 1899 c-19 -16 -46 -34 -59 -40 -18 -7 -21 -13 -13 -21 7 -7 12
-21 13 -32 0 -19 1 -19 10 2 5 13 7 28 4 32 -5 8 85 66 97 62 4 -1 5 5 2 13
-8 21 -14 19 -54 -16z"/>
<path d="M2520 1922 c0 -12 44 -52 57 -52 6 0 22 -9 37 -21 34 -27 34 -13 -1
23 -25 26 -21 42 5 16 7 -7 12 -8 12 -4 0 5 7 3 15 -4 19 -16 19 -6 -1 25 -13
21 -19 22 -40 13 -13 -6 -24 -15 -24 -20 0 -17 -28 -7 -33 12 -5 19 -27 29
-27 12z"/>
<path d="M617 1887 l-39 -20 4 -66 3 -66 -35 -16 c-19 -10 -36 -16 -38 -14 -6
6 11 34 18 30 16 -10 19 12 6 31 -14 18 -11 44 4 44 5 0 11 -8 13 -17 3 -10 5
1 6 25 0 23 -2 42 -6 42 -22 -1 -33 -21 -36 -70 -5 -59 -14 -90 -27 -90 -5 0
-12 -9 -15 -20 -9 -27 -25 -15 -25 18 0 15 -4 33 -9 41 -6 10 3 29 30 63 21
28 36 54 33 59 -5 8 -28 -9 -98 -72 -6 -5 -2 -17 9 -29 13 -14 20 -40 22 -83
4 -73 20 -137 33 -137 6 0 10 9 10 20 0 30 27 78 50 90 11 6 20 15 20 21 0 6
-5 7 -12 3 -7 -4 -8 -3 -4 5 4 6 11 9 16 6 5 -3 24 10 42 28 18 18 42 36 52
40 21 8 145 -10 162 -24 8 -7 14 -6 19 1 11 17 -5 30 -46 36 -24 4 -36 10 -29
14 18 11 -11 20 -31 9 -8 -4 -21 -4 -29 1 -9 6 -20 4 -30 -5 -15 -13 -33 -18
-59 -16 -9 1 -11 9 -6 29 4 15 7 34 7 43 -1 22 62 51 77 36 6 -6 11 -7 11 -1
0 11 -21 35 -29 33 -4 -1 -23 -11 -44 -22z"/>
<path d="M1791 1878 c-22 -69 -24 -116 -7 -143 16 -24 16 -26 -9 -35 -32 -12
-32 -17 -1 -17 27 0 43 24 26 41 -13 13 -13 29 0 21 6 -4 10 6 10 21 0 27 -1
27 -15 8 -14 -19 -14 -19 -15 2 0 11 4 24 9 30 10 10 26 104 18 104 -3 0 -10
-15 -16 -32z"/>
<path d="M1980 1885 c0 -20 7 -35 22 -44 20 -12 20 -14 4 -23 -15 -8 -16 -12
-5 -19 8 -5 23 -6 34 -3 16 5 18 4 8 -7 -18 -18 -16 -27 8 -40 20 -10 21 -9
16 17 -5 28 -4 27 35 -14 22 -24 42 -41 44 -39 6 5 -92 97 -104 97 -4 0 -13
15 -20 33 -6 18 -18 42 -27 52 -14 19 -14 19 -15 -10z"/>
<path d="M10 1894 c0 -23 35 -117 50 -136 l19 -23 -8 35 c-12 52 -61 152 -61
124z"/>
<path d="M1856 1844 c1 -25 5 -48 8 -51 14 -14 4 -24 -11 -12 -17 13 -17 13
-1 -6 15 -19 16 -25 3 -60 l-14 -40 -2 50 -1 50 -10 -38 c-12 -44 -4 -87 17
-87 17 0 28 31 19 54 -6 14 4 21 28 17 4 0 5 14 2 32 -7 59 -13 112 -14 125 0
6 -6 12 -13 12 -9 0 -12 -14 -11 -46z"/>
<path d="M2425 1863 c-8 -10 -14 -21 -13 -24 2 -3 -3 -14 -11 -23 -17 -20 -24
-66 -10 -66 5 0 9 5 9 11 0 5 5 7 10 4 6 -4 10 9 10 30 0 25 4 35 13 32 6 -2
12 -14 11 -26 -1 -17 4 -21 18 -18 10 3 18 0 18 -6 0 -6 2 -8 5 -6 8 9 -7 49
-19 49 -6 0 -17 9 -23 20 -10 15 -10 18 0 14 8 -3 14 2 14 11 0 20 -14 19 -32
-2z"/>
<path d="M1545 1858 c11 -7 20 -10 20 -7 0 2 11 -6 24 -18 19 -18 61 -37 61
-28 0 4 -73 49 -82 49 -3 1 -10 4 -14 9 -4 4 -12 7 -18 7 -6 0 -2 -6 9 -12z"/>
<path d="M1672 1857 c-8 -9 -11 -21 -8 -26 4 -6 4 -22 0 -36 -5 -20 -9 -23
-15 -13 -7 10 -9 9 -9 -5 0 -31 24 -13 38 28 16 49 13 75 -6 52z"/>
<path d="M2516 1848 c-20 -28 -21 -55 -2 -55 11 0 13 5 5 19 -7 12 -6 18 1 18
6 0 8 5 5 10 -3 6 3 10 14 10 24 0 27 -10 9 -30 -7 -8 -3 -6 9 4 21 18 22 20
5 32 -23 18 -29 17 -46 -8z"/>
<path d="M1135 1834 c-13 -21 -14 -29 -4 -38 9 -8 10 -8 5 2 -4 6 -2 12 4 12
6 0 8 5 5 10 -8 13 8 13 40 -2 17 -8 24 -17 20 -29 -9 -26 12 -33 25 -8 16 29
7 46 -36 64 -45 19 -39 20 -59 -11z"/>
<path d="M1914 1840 c3 -14 6 -34 6 -44 0 -15 3 -17 11 -9 9 9 8 20 -5 45 -14
26 -16 28 -12 8z"/>
<path d="M2660 1853 c0 -7 14 -21 30 -33 30 -21 41 -12 21 19 -7 10 -10 11
-16 1 -6 -10 -11 -9 -22 5 -7 11 -13 14 -13 8z"/>
<path d="M121 1808 c15 -46 15 -57 4 -57 -5 -1 -10 4 -10 11 0 6 -6 13 -14 16
-24 8 -2 -41 35 -76 19 -18 34 -37 34 -43 0 -5 5 -7 10 -4 6 3 10 -1 10 -10 0
-21 24 -14 28 8 2 11 -3 17 -17 17 -25 0 -35 18 -51 93 -7 31 -19 62 -26 68
-11 9 -11 4 -3 -23z"/>
<path d="M2192 1822 c-8 -6 -1 -13 23 -25 26 -13 35 -14 35 -4 0 29 -32 45
-58 29z"/>
<path d="M2305 1819 c-4 -6 -14 -8 -24 -5 -10 4 -7 -1 7 -13 13 -11 23 -24 23
-28 1 -13 9 -17 9 -4 0 7 9 11 21 9 15 -2 23 3 25 14 2 15 -1 16 -17 7 -23
-12 -43 -3 -35 17 6 16 0 19 -9 3z"/>
<path d="M2590 1820 c0 -5 7 -13 16 -18 11 -6 13 -11 5 -16 -6 -4 -11 -4 -11
-1 0 4 -11 -7 -25 -23 -32 -38 -34 -96 -5 -112 11 -6 20 -20 19 -33 0 -12 -3
-16 -6 -9 -5 14 -33 17 -33 3 0 -5 8 -11 18 -14 9 -2 26 -8 37 -13 18 -7 18
-6 7 9 -15 18 -8 37 14 37 10 0 9 5 -6 20 -23 23 -25 36 -7 43 8 3 5 10 -10
22 -27 19 -30 35 -7 35 9 0 12 5 8 13 -4 6 2 4 13 -5 26 -24 36 -23 23 3 -7
11 -9 23 -6 26 3 4 12 -10 21 -30 23 -57 53 -62 33 -6 -15 43 -98 102 -98 69z"/>
<path d="M314 1800 c3 -8 7 -32 9 -53 3 -21 7 -40 10 -43 3 -4 3 16 1 42 -3
27 -10 54 -15 59 -7 7 -8 5 -5 -5z"/>
<path d="M1901 1782 c-1 -18 3 -31 8 -28 5 3 11 -8 15 -24 5 -28 -4 -53 -52
-154 -3 -5 0 -6 7 -2 10 7 17 -26 11 -63 -1 -8 3 -17 9 -21 7 -3 14 -31 18
-61 3 -30 8 -48 11 -41 3 10 9 9 23 -4 20 -18 27 -40 9 -29 -17 11 -8 -66 10
-78 24 -17 34 -55 46 -162 2 -22 9 -65 14 -96 6 -31 8 -64 4 -73 -4 -9 -1 -16
6 -16 14 0 5 160 -14 255 -7 33 -11 87 -10 120 3 58 3 59 -10 30 -12 -26 -15
-27 -21 -12 -5 11 -1 25 9 36 16 18 16 19 -9 25 -30 8 -34 27 -5 21 11 -2 18
0 15 6 -4 5 -15 9 -25 9 -20 0 -22 5 -41 91 -13 63 -8 164 9 181 8 8 9 5 6 -9
-3 -12 0 -24 7 -28 9 -6 11 3 6 40 -4 26 -7 56 -7 66 0 12 -5 16 -15 13 -9 -4
-18 2 -24 17 -9 22 -10 22 -10 -9z"/>
<path d="M2863 1764 c10 -11 78 -13 71 -3 -3 5 -21 9 -41 9 -20 0 -33 -3 -30
-6z"/>
<path d="M2240 1750 c-11 -7 -12 -10 -2 -10 7 0 10 -5 6 -12 -5 -7 -3 -8 6 -3
7 4 16 2 21 -6 7 -11 9 -11 9 2 0 24 -23 40 -40 29z"/>
<path d="M381 1709 c-13 -37 -15 -106 -3 -113 5 -3 6 8 4 24 -2 16 3 38 12 52
17 24 22 68 7 68 -5 0 -14 -14 -20 -31z"/>
<path d="M2925 1726 c-21 -8 -30 -16 -27 -28 2 -12 -3 -18 -13 -18 -12 0 -15
-5 -10 -17 4 -10 9 -35 12 -55 5 -36 8 -38 41 -38 39 0 40 7 2 13 -17 3 -27
13 -32 33 -10 38 1 70 12 34 l8 -25 1 25 c1 14 6 32 11 40 9 13 11 13 20 0 8
-12 10 -12 10 -1 0 11 3 11 17 0 15 -13 15 -12 5 6 -24 42 -25 43 -57 31z"/>
<path d="M77 1724 c-3 -5 4 -30 15 -55 16 -38 24 -46 45 -46 17 0 21 2 12 8
-7 4 -17 5 -21 3 -11 -7 -10 10 1 22 6 5 -1 22 -18 43 -15 19 -31 30 -34 25z"/>
<path d="M837 1718 c-18 -15 -34 -68 -20 -68 5 0 19 9 32 21 16 15 19 24 12
33 -6 7 -8 16 -4 19 11 12 -2 8 -20 -5z"/>
<path d="M0 1691 c0 -23 6 -31 30 -39 l29 -11 -26 40 c-14 21 -27 39 -29 39
-2 0 -4 -13 -4 -29z"/>
<path d="M1027 1677 c-14 -23 -34 -50 -45 -60 -19 -17 -21 -17 -54 5 -19 14
-32 30 -30 37 3 10 -1 12 -12 8 -10 -4 -21 -7 -24 -7 -4 0 -16 -7 -26 -15 -16
-12 -17 -17 -6 -29 9 -12 17 -13 32 -5 14 8 24 7 36 -3 15 -12 16 -11 3 5 -8
10 -9 17 -3 17 6 0 16 -9 22 -20 6 -12 21 -20 36 -20 14 0 34 -5 45 -10 15 -8
19 -7 19 4 0 8 -5 16 -11 18 -14 5 35 86 56 95 8 3 12 9 9 14 -10 17 -22 9
-47 -34z"/>
<path d="M664 1682 c-8 -37 -21 -42 -27 -9 -2 12 -2 -16 0 -63 4 -110 26 -198
52 -215 14 -8 14 6 1 40 l-10 27 33 -21 c22 -13 34 -16 34 -8 0 6 3 23 7 36 6
17 5 22 -5 19 -8 -3 -13 -15 -12 -27 4 -29 -11 -26 -40 9 -31 37 -44 123 -29
189 6 25 9 48 6 50 -2 2 -7 -10 -10 -27z"/>
<path d="M2010 1697 c0 -8 -7 -18 -15 -21 -13 -4 -15 -16 -10 -58 15 -130 27
-187 44 -202 17 -16 18 -15 16 26 -1 24 -10 81 -19 126 -9 46 -13 89 -9 95 6
11 13 -5 33 -78 6 -22 7 -9 6 45 -1 70 -3 75 -23 78 -15 2 -23 -2 -23 -11z"/>
<path d="M2139 1659 c-19 -38 -18 -59 2 -59 6 0 7 4 4 10 -7 12 23 60 38 60 7
0 7 -4 -1 -12 -7 -7 -12 -17 -12 -22 1 -13 23 23 26 41 1 6 -7 13 -17 16 -15
4 -24 -4 -40 -34z"/>
<path d="M2456 1669 c-8 -42 -3 -45 28 -16 26 25 34 47 16 47 -5 0 -10 -5 -10
-11 0 -8 -4 -8 -14 0 -11 9 -15 5 -20 -20z"/>
<path d="M2314 1671 c-17 -10 -41 -32 -53 -49 -18 -26 -19 -31 -5 -36 8 -3 12
-11 8 -17 -4 -7 -3 -9 4 -5 6 3 15 -2 21 -11 6 -11 11 -13 11 -5 0 7 5 10 10
7 6 -3 10 -1 10 5 0 7 -7 10 -14 7 -26 -10 -30 32 -7 57 21 23 45 27 69 12 6
-4 12 -2 12 3 0 18 18 12 25 -8 6 -19 33 -36 43 -27 2 3 -10 19 -27 37 -21 20
-38 29 -51 26 -13 -3 -17 -1 -13 9 7 19 -6 17 -43 -5z"/>
<path d="M72 1638 c1 -20 6 -34 10 -32 4 3 8 1 8 -3 0 -5 16 -15 36 -22 24 -9
32 -16 24 -21 -8 -5 -7 -9 4 -13 11 -4 16 -1 16 12 0 12 -14 23 -40 34 -26 10
-40 22 -40 34 0 10 -5 25 -10 33 -8 11 -10 6 -8 -22z"/>
<path d="M1140 1663 c-1 -20 -40 -55 -74 -67 -21 -7 -34 -16 -29 -19 15 -9 86
31 111 64 19 23 20 29 8 29 -9 0 -16 -3 -16 -7z"/>
<path d="M1717 1636 c10 -13 21 -22 26 -19 11 7 -12 43 -29 43 -13 0 -12 -4 3
-24z"/>
<path d="M2200 1645 c-15 -18 -6 -45 14 -45 23 0 42 40 25 51 -19 12 -25 11
-39 -6z"/>
<path d="M1375 1630 c-34 -6 -30 -7 30 -8 47 0 64 2 50 8 -23 10 -25 10 -80 0z"/>
<path d="M1581 1589 c-18 -28 -30 -53 -28 -56 3 -3 13 10 22 29 10 18 24 41
33 51 8 9 13 19 11 22 -3 2 -20 -18 -38 -46z"/>
<path d="M1794 1553 c-1 -50 1 -61 10 -46 5 10 9 30 7 45 -1 14 2 29 8 33 7 4
11 -3 11 -17 1 -21 2 -21 11 -5 6 10 9 20 7 21 -1 1 -14 9 -28 18 l-25 15 -1
-64z"/>
<path d="M2100 1612 c0 -16 50 -72 63 -71 8 0 8 2 -1 6 -6 2 -10 8 -7 13 9 15
74 -25 86 -53 9 -21 14 -25 20 -15 7 10 9 10 9 -2 0 -8 10 -21 21 -29 16 -10
19 -15 9 -21 -7 -4 -9 -13 -6 -19 11 -17 26 -13 26 7 0 10 5 23 11 29 22 22
-172 146 -202 127 -7 -4 -10 -3 -6 3 4 6 0 16 -8 23 -9 8 -15 8 -15 2z"/>
<path d="M1743 1595 c-3 -9 -3 -19 1 -22 3 -4 6 0 6 7 0 9 5 7 15 -6 14 -18
14 -18 15 9 0 30 -26 38 -37 12z"/>
<path d="M2502 1601 c-10 -6 -8 -13 7 -32 11 -13 20 -20 21 -15 0 11 29 -25
30 -37 0 -5 -4 -6 -9 -3 -5 4 -4 -5 2 -18 9 -18 16 -22 28 -15 12 6 19 4 23
-7 3 -8 -1 -17 -9 -20 -11 -5 -11 -11 -3 -30 10 -22 12 -22 23 -7 7 10 11 24
9 33 -2 8 5 -4 16 -27 12 -24 25 -43 29 -43 5 0 -9 35 -30 78 -21 42 -39 82
-39 88 0 6 -6 17 -14 23 -11 9 -12 6 -9 -16 5 -27 4 -27 -10 -8 -8 11 -17 30
-21 43 -8 23 -22 27 -44 13z"/>
<path d="M512 1588 c-7 -7 -12 -16 -12 -20 0 -8 65 -38 81 -38 18 0 8 39 -13
54 -27 19 -40 20 -56 4z"/>
<path d="M372 1554 c5 -22 38 -95 73 -164 34 -69 70 -142 80 -162 9 -20 44
-62 78 -94 34 -31 91 -85 127 -120 36 -34 117 -99 180 -144 99 -70 109 -76 75
-39 -34 36 -36 39 -10 21 17 -11 54 -45 84 -76 53 -56 193 -149 221 -148 46 1
88 -36 60 -53 -17 -10 -199 92 -259 146 -50 45 -150 109 -327 210 -35 21 -106
77 -158 125 -92 86 -96 91 -160 225 -36 75 -66 145 -66 154 0 12 -6 16 -20 12
-15 -4 -20 0 -20 13 0 10 6 20 13 23 6 2 0 4 -15 3 -16 0 -28 -6 -28 -12 0
-20 80 -174 90 -174 6 0 10 -6 10 -14 0 -7 7 -19 16 -27 20 -16 52 -81 48 -94
-3 -6 24 -37 58 -69 35 -32 83 -77 108 -101 38 -35 86 -71 147 -108 9 -6 11
-3 6 10 -4 11 12 3 43 -22 57 -48 94 -72 149 -99 22 -11 54 -33 70 -47 28 -26
46 -41 94 -81 12 -10 25 -18 30 -18 5 0 14 -7 21 -15 6 -8 15 -14 18 -13 11 2
46 -15 60 -29 7 -7 25 -16 40 -20 15 -3 29 -9 32 -12 3 -3 23 -3 45 0 22 3 30
7 19 8 -27 1 -55 32 -36 39 10 3 9 8 -4 23 -16 18 -16 19 8 19 32 0 40 -8 28
-30 -8 -14 -2 -19 30 -30 40 -13 59 -47 21 -37 -14 3 -18 1 -14 -9 5 -13 9
-12 30 1 13 9 33 13 43 10 30 -10 24 3 -12 26 -33 21 -33 21 -5 16 37 -6 34 1
-8 19 -31 13 -34 17 -25 35 6 11 9 25 6 32 -2 7 -5 5 -5 -4 -2 -36 -61 -49
-61 -14 0 8 -5 17 -10 20 -6 4 -10 3 -9 -2 4 -23 -4 -22 -32 1 -17 14 -35 26
-40 26 -5 0 -39 23 -77 50 -75 54 -107 68 -52 21 19 -16 32 -33 27 -37 -4 -4
-31 15 -60 43 -28 28 -78 64 -109 78 -32 15 -94 59 -138 97 -45 39 -84 68 -87
64 -9 -9 -102 78 -122 115 -10 19 -30 40 -45 47 -60 30 -197 225 -251 357 -27
68 -38 80 -23 29z m900 -874 c15 -9 25 -19 22 -23 -9 -9 -35 3 -69 31 -28 23
-28 24 -6 17 14 -4 37 -15 53 -25z"/>
<path d="M1272 1578 c-29 -5 -50 -14 -47 -19 4 -5 -1 -6 -9 -3 -18 7 -86 -14
-86 -27 0 -5 -9 -9 -20 -9 -11 0 -20 -4 -20 -9 0 -10 70 3 79 16 3 4 15 9 26
9 11 1 54 7 95 14 44 7 110 10 160 6 54 -3 78 -2 65 4 -11 5 -60 10 -110 11
-88 2 -89 2 -30 9 l60 7 -55 0 c-30 0 -79 -4 -108 -9z"/>
<path d="M2347 1567 c-8 -13 -12 -29 -8 -36 7 -10 14 -1 39 52 8 18 -17 5 -31
-16z"/>
<path d="M922 1568 c-18 -18 -15 -27 18 -55 l31 -26 -21 -19 c-12 -11 -19 -26
-16 -34 3 -8 1 -14 -4 -14 -19 0 -10 -17 16 -30 17 -9 24 -20 21 -32 -3 -10
-1 -18 4 -18 5 0 9 6 9 14 0 8 3 22 7 31 5 14 2 16 -15 10 -15 -4 -22 -2 -22
7 0 29 26 67 48 73 23 6 22 7 -20 46 -23 22 -35 38 -26 35 22 -7 33 10 12 18
-22 8 -28 8 -42 -6z"/>
<path d="M1640 1537 c-61 -71 -69 -86 -33 -57 18 14 32 30 32 37 2 26 35 4 57
-38 29 -56 30 -49 1 33 l-23 66 -34 -41z"/>
<path d="M2830 1576 c0 -17 22 -56 31 -56 8 0 8 4 -1 15 -7 8 -10 22 -6 30 3
9 0 15 -9 15 -8 0 -15 -2 -15 -4z"/>
<path d="M2423 1526 c0 -18 5 -26 18 -26 10 0 20 -8 24 -18 5 -16 43 -42 62
-42 4 0 -6 13 -21 29 -15 16 -28 32 -27 35 1 3 -1 5 -3 4 -3 -2 -15 7 -29 20
l-24 23 0 -25z"/>
<path d="M524 1516 c17 -13 33 -23 38 -20 14 9 9 21 -9 27 -10 2 -27 8 -38 12
-14 5 -12 0 9 -19z"/>
<path d="M1755 1510 c4 -14 10 -61 14 -105 l8 -80 1 86 c2 64 -2 90 -14 105
-15 18 -15 18 -9 -6z"/>
<path d="M2170 1524 c0 -6 12 -24 26 -40 l26 -29 -7 30 c-7 34 -25 58 -25 35
0 -13 -2 -13 -10 0 -5 8 -10 10 -10 4z"/>
<path d="M210 1502 c0 -4 5 -13 12 -20 9 -9 9 -12 0 -12 -24 0 -3 -74 24 -84
11 -4 13 1 8 19 -3 14 -2 25 3 25 11 0 36 -67 29 -78 -3 -5 10 -15 28 -23 l32
-15 -32 51 c-17 27 -42 61 -55 73 -13 13 -25 28 -25 33 -1 5 -3 12 -4 17 -1 4
-2 10 -1 15 0 4 -3 7 -9 7 -5 0 -10 -4 -10 -8z"/>
<path d="M580 1491 c0 -25 11 -32 38 -24 29 7 28 17 -3 31 -34 16 -35 15 -35
-7z"/>
<path d="M794 1483 c-15 -16 -21 -29 -14 -31 7 -3 5 -11 -6 -23 -15 -17 -16
-19 -1 -19 11 0 14 -5 10 -17 -3 -10 11 -1 32 21 34 34 36 40 21 48 -11 6 -15
16 -11 29 9 26 -1 24 -31 -8z"/>
<path d="M1261 1500 c-66 -14 -191 -58 -231 -81 -39 -23 -30 -20 83 22 62 23
200 59 227 59 2 0 -14 -19 -36 -42 -76 -80 -156 -187 -148 -199 4 -7 3 -9 -3
-6 -6 4 -26 -17 -45 -46 -53 -78 -54 -81 -30 -68 19 10 43 -1 25 -12 -15 -9
-58 -11 -73 -3 -8 4 -4 -2 9 -13 13 -12 28 -21 35 -21 12 0 40 37 41 55 1 6 7
9 13 7 10 -2 10 3 1 19 -6 13 -7 19 -1 15 6 -3 14 4 18 16 6 21 129 187 147
199 5 3 9 10 10 15 1 5 7 8 12 6 6 -2 7 -1 3 3 -4 4 5 18 20 32 15 13 21 21
13 17 -9 -4 -12 -3 -8 3 8 12 128 8 177 -6 19 -6 38 -7 43 -2 23 23 -219 48
-302 31z"/>
<path d="M2079 1470 c-6 -45 -4 -58 7 -48 3 3 4 26 2 49 l-3 44 -6 -45z"/>
<path d="M511 1440 c54 -81 138 -172 152 -163 5 3 7 1 3 -5 -3 -6 -1 -14 5
-17 13 -8 15 -6 23 23 6 16 3 22 -9 22 -20 0 -87 49 -80 59 2 4 -28 39 -67 77
l-71 69 44 -65z m87 -91 c8 -13 -2 -6 -22 16 -19 22 -35 44 -36 49 0 12 42
-35 58 -65z"/>
<path d="M2666 1474 c-11 -28 -7 -44 11 -44 13 0 14 3 5 12 -18 18 -14 32 5
17 15 -13 15 -12 4 9 -14 26 -17 27 -25 6z"/>
<path d="M1836 1458 c-3 -7 -7 -26 -10 -43 -5 -22 -4 -26 4 -15 5 8 10 10 10
4 0 -6 9 -21 20 -34 13 -15 20 -39 21 -69 1 -25 3 -62 5 -81 1 -19 7 -104 14
-190 6 -85 14 -166 17 -179 5 -21 4 -22 -16 -12 -11 7 -21 15 -21 19 0 9 -69
56 -75 50 -11 -11 57 -76 93 -87 22 -8 38 -19 36 -25 -4 -11 142 -73 151 -64
3 2 -3 15 -13 29 -9 13 -17 35 -18 49 -1 14 -9 46 -17 72 -9 27 -23 101 -32
165 -16 129 -24 165 -49 209 l-16 29 6 -30 c3 -16 10 -43 14 -60 5 -16 14 -68
21 -115 22 -164 41 -255 56 -272 20 -22 18 -22 -41 -2 -37 13 -49 23 -61 51
-21 49 -20 52 20 43 20 -5 33 -4 29 1 -3 5 -16 9 -30 9 -35 0 -44 32 -44 153
0 174 -31 354 -64 378 -5 4 -5 12 -2 18 4 6 5 11 1 11 -3 0 -7 -6 -9 -12z"/>
<path d="M2141 1453 c-1 -12 4 -25 10 -29 19 -12 69 -14 69 -4 0 6 -13 10 -28
10 -20 0 -32 7 -40 23 l-11 22 0 -22z"/>
<path d="M2410 1460 c-12 -7 -12 -12 -2 -22 14 -14 42 -2 50 20 4 14 -27 16
-48 2z"/>
<path d="M2830 1468 c0 -6 35 -90 52 -125 23 -46 17 -15 -8 48 -23 56 -44 94
-44 77z"/>
<path d="M2545 1417 c-7 -45 -11 -50 -49 -68 l-41 -19 60 6 c61 7 86 14 47 14
-22 0 -30 14 -13 24 13 8 19 49 10 72 -5 14 -9 6 -14 -29z"/>
<path d="M2485 1431 c-6 -5 -27 -14 -49 -21 -35 -11 -37 -14 -22 -28 14 -15
18 -14 46 6 17 13 35 20 40 17 6 -3 10 3 10 14 0 22 -10 27 -25 12z"/>
<path d="M2362 1407 c-24 -14 -20 -27 8 -27 9 0 16 8 16 20 0 11 0 20 -1 20 0
-1 -10 -6 -23 -13z"/>
<path d="M2940 1419 c0 -3 13 -43 30 -89 16 -47 30 -77 30 -68 0 10 -11 48
-25 85 -23 60 -35 85 -35 72z"/>
<path d="M820 1390 c-23 -18 -24 -20 -4 -20 20 0 44 17 44 32 0 13 -13 9 -40
-12z"/>
<path d="M881 1386 c-34 -36 -49 -38 -111 -16 -38 13 -49 15 -36 5 15 -11 16
-15 5 -15 -8 0 -20 5 -27 12 -9 9 -12 9 -12 1 0 -7 9 -15 20 -18 11 -3 20 -11
20 -16 0 -5 7 -9 16 -9 14 0 15 2 3 17 -12 15 -12 16 4 10 10 -4 21 -7 23 -7
2 0 4 -6 4 -14 0 -8 7 -16 15 -20 9 -3 15 0 15 10 0 11 7 13 26 8 19 -5 25 -4
20 5 -9 13 -1 14 22 2 10 -5 27 -5 42 1 l25 9 -21 18 c-11 9 -23 22 -25 29 -3
9 -12 5 -28 -12z"/>
<path d="M2197 1393 c-13 -12 -7 -21 19 -26 19 -3 24 -1 20 10 -3 8 -6 17 -6
19 0 7 -26 5 -33 -3z"/>
<path d="M1018 1342 c-7 -10 -31 -30 -53 -45 -22 -15 -35 -27 -29 -27 17 0 76
43 92 68 17 26 9 30 -10 4z"/>
<path d="M2119 1351 c25 -16 -33 -25 -61 -10 -21 11 -22 11 -9 -4 10 -13 30
-17 85 -16 121 2 150 21 48 32 -30 4 -40 2 -36 -6 4 -8 2 -7 -7 1 -7 6 -18 12
-23 12 -6 0 -4 -4 3 -9z"/>
<path d="M2280 1325 c1 -13 25 -45 34 -45 4 0 4 5 1 10 -6 10 13 13 68 12 15
0 25 4 22 9 -4 5 5 9 19 9 14 0 26 3 26 8 0 4 -38 7 -85 7 -50 0 -85 -4 -85
-10z"/>
<path d="M2645 1330 c-16 -4 -98 -20 -181 -36 l-151 -28 16 -29 c13 -22 21
-27 42 -23 14 3 30 1 36 -5 6 -6 24 -6 49 -1 30 7 35 11 22 17 -10 4 -18 13
-18 21 0 8 -8 14 -17 14 -14 0 -15 -2 -4 -9 9 -6 -4 -10 -38 -12 -29 -2 -55
-2 -57 0 -12 13 43 30 131 41 55 6 123 18 150 26 28 8 70 19 95 23 l45 9 -45
0 c-25 0 -58 -3 -75 -8z"/>
<path d="M860 1299 c-7 -11 -9 -27 -6 -35 7 -19 -35 -19 -97 0 -52 16 -65 2
-24 -23 54 -34 71 -40 84 -29 9 8 13 7 13 -2 0 -7 9 -2 19 11 18 22 20 22 26
7 4 -10 11 -18 16 -18 6 0 19 -8 30 -19 11 -10 35 -27 54 -37 27 -14 37 -16
47 -6 9 9 7 12 -10 12 -13 0 -37 7 -54 16 -24 12 -28 18 -17 25 20 13 -27 52
-52 44 -23 -8 -25 8 -4 25 19 16 19 50 0 50 -8 0 -19 -9 -25 -21z"/>
<path d="M2040 1317 c0 -7 40 -110 65 -167 35 -78 54 -110 67 -110 5 0 0 13
-12 30 -11 16 -29 53 -39 82 -27 78 -81 188 -81 165z"/>
<path d="M2706 1269 c-60 -10 -112 -21 -114 -24 -11 -11 7 -16 25 -7 10 6 67
17 127 26 61 9 112 19 115 21 8 9 -43 4 -153 -16z"/>
<path d="M1421 1263 c-1 -7 -8 -13 -16 -13 -8 0 -15 -5 -15 -11 0 -5 5 -7 11
-3 12 7 9 -8 -23 -93 -10 -29 -28 -62 -39 -75 -11 -13 -17 -17 -13 -9 5 9 3
12 -4 7 -17 -10 -15 -26 4 -26 8 0 12 -4 9 -10 -3 -5 0 -10 7 -10 8 -1 5 -7
-7 -17 -15 -12 -16 -14 -3 -10 9 3 19 0 22 -9 3 -8 19 -14 36 -14 16 0 30 -4
30 -9 0 -9 30 -23 55 -27 6 -1 12 -3 15 -4 3 -1 14 -4 26 -5 15 -1 20 3 20 19
-1 12 4 20 11 19 7 -2 17 7 24 18 8 15 8 19 0 15 -6 -4 -11 -3 -11 3 0 15 18
23 25 11 9 -14 45 7 45 26 0 9 6 14 13 11 8 -3 18 7 24 24 15 39 6 37 -45 -12
-9 -9 -26 -19 -37 -23 -11 -3 -32 -17 -47 -31 -15 -14 -35 -25 -44 -25 -13 0
-15 7 -10 38 l6 37 -16 -37 c-19 -45 -44 -49 -68 -13 -9 14 -23 25 -30 25 -21
0 -24 32 -5 53 10 10 20 35 24 55 4 21 11 42 16 48 5 7 9 16 8 20 -1 5 1 17 5
26 4 10 6 23 3 30 -4 10 -6 10 -6 1z"/>
<path d="M2091 1265 c13 -13 67 -22 80 -14 8 5 12 9 9 10 -34 6 -93 9 -89 4z"/>
<path d="M2247 1263 c-16 -3 -25 -9 -21 -15 4 -6 -1 -8 -15 -3 -17 5 -21 2
-21 -14 0 -17 8 -20 70 -23 39 -2 69 -1 67 2 -1 3 -9 17 -16 33 -8 15 -19 26
-25 26 -6 -1 -23 -4 -39 -6z"/>
<path d="M2855 1213 c-11 -2 -27 -7 -35 -10 -8 -3 -22 -5 -30 -4 -13 2 -13 1
0 -8 13 -9 12 -11 -3 -11 -11 0 -15 -4 -11 -12 5 -8 2 -9 -9 -5 -11 4 -17 1
-17 -8 0 -8 1 -15 3 -15 1 1 25 7 52 15 36 10 43 14 25 16 -17 1 -9 5 25 14
32 8 57 9 68 3 16 -8 17 -7 7 11 -10 20 -31 24 -75 14z"/>
<path d="M1176 1191 c-10 -11 -15 -25 -11 -32 6 -8 13 -3 22 15 18 34 12 43
-11 17z"/>
<path d="M880 1173 c0 -13 195 -120 242 -134 47 -13 21 5 -45 31 -31 12 -60
27 -63 32 -9 13 -111 78 -124 78 -5 0 -10 -3 -10 -7z"/>
<path d="M2254 1153 c0 -15 8 -17 48 -15 26 2 48 0 48 -5 0 -5 7 -10 14 -10
11 0 13 5 5 19 -7 13 -21 18 -49 18 -21 0 -45 2 -52 5 -8 3 -14 -1 -14 -12z"/>
<path d="M786 1146 c5 -13 34 -33 70 -46 36 -14 29 -6 -25 28 -28 17 -48 25
-45 18z"/>
<path d="M2480 1135 c19 -16 47 -39 61 -52 l26 -24 -2 25 c-4 32 -14 48 -26
41 -5 -3 -6 1 -3 9 5 12 -1 16 -24 16 -17 0 -39 3 -49 7 -10 4 -2 -6 17 -22z"/>
<path d="M1147 1124 c-3 -4 5 -15 18 -26 31 -24 54 -14 29 13 -17 19 -36 24
-47 13z"/>
<path d="M2795 1121 c-11 -5 -24 -6 -30 -4 -5 2 -1 -3 9 -11 25 -20 47 -21 40
-2 -3 8 2 16 13 19 11 3 12 5 3 5 -8 0 -24 -3 -35 -7z"/>
<path d="M1700 1061 c0 -10 -11 -35 -25 -55 -14 -20 -25 -41 -25 -46 0 -6 -5
-10 -11 -10 -5 0 -7 5 -4 10 3 6 4 10 1 10 -5 0 -36 -54 -36 -63 0 -2 28 -12
63 -22 34 -9 74 -21 90 -26 30 -9 33 -3 16 33 -7 16 -7 31 0 48 6 17 10 19 10
8 1 -9 5 -19 10 -22 5 -4 7 3 4 13 -4 14 1 21 19 24 l23 4 -23 2 c-14 0 -22 6
-19 14 2 7 17 11 33 9 27 -2 27 -1 9 10 -11 6 -23 15 -26 20 -3 5 -12 -4 -20
-19 -8 -16 -17 -30 -20 -33 -3 -3 -14 -22 -24 -42 -9 -21 -20 -38 -24 -38 -4
0 -20 14 -36 30 -16 17 -24 30 -18 30 6 0 9 9 6 20 -3 11 0 20 6 20 6 0 17 12
23 28 16 40 19 62 8 62 -6 0 -10 -8 -10 -19z"/>
<path d="M2707 1053 c-4 -3 -7 -11 -7 -17 0 -6 4 -5 9 3 7 11 11 10 20 -7 9
-17 8 -21 -7 -25 -13 -4 -11 -5 6 -6 12 0 22 5 22 12 0 18 -34 49 -43 40z"/>
<path d="M1220 1030 c26 -21 70 -27 70 -10 0 6 -8 10 -18 10 -10 0 -22 3 -26
7 -3 4 -17 8 -29 10 -21 3 -21 2 3 -17z"/>
<path d="M1002 1032 c-9 -6 4 -20 42 -45 31 -20 59 -37 62 -37 15 0 -30 40
-62 55 -19 9 -32 20 -29 26 7 11 4 11 -13 1z"/>
<path d="M1102 1012 c-13 -9 73 -33 128 -37 14 -1 35 -7 48 -14 12 -6 27 -9
33 -6 5 4 15 2 22 -3 13 -11 96 -29 87 -19 -8 9 -138 56 -143 51 -2 -2 -24 3
-48 12 -55 19 -110 26 -127 16z"/>
<path d="M2070 1017 c0 -4 12 -31 27 -60 15 -29 27 -70 27 -92 1 -34 4 -40 25
-43 22 -4 23 -3 7 19 -9 13 -16 30 -16 38 0 19 48 -26 73 -69 19 -31 9 -41
-17 -15 -8 8 -17 15 -20 15 -3 0 -3 -7 0 -15 7 -18 -18 -20 -46 -5 -10 6 -21
6 -24 1 -3 -4 22 -14 57 -21 34 -7 67 -16 72 -19 6 -3 30 -6 55 -6 25 -1 61
-4 80 -9 23 -4 6 7 -48 33 -94 46 -172 116 -221 202 -17 29 -31 50 -31 46z"/>
<path d="M954 998 c-4 -6 -2 -14 4 -16 7 -2 12 -10 12 -18 0 -9 4 -13 9 -10 5
4 11 2 13 -3 1 -5 53 -39 113 -75 61 -35 124 -76 140 -89 17 -13 41 -28 55
-32 14 -4 43 -20 64 -36 22 -16 43 -29 46 -29 3 0 7 15 8 33 2 33 2 34 -84 66
-64 25 -83 36 -73 43 10 7 8 8 -9 5 -12 -3 -20 -2 -18 2 3 4 -21 20 -52 36
-31 16 -92 53 -135 82 -43 29 -80 53 -82 53 -2 0 -7 -5 -11 -12z"/>
<path d="M2715 970 l-40 -7 53 -2 c33 0 51 3 47 9 -3 6 -9 9 -13 9 -4 -1 -25
-5 -47 -9z"/>
<path d="M1171 940 c21 -27 76 -56 87 -45 3 3 12 -1 20 -8 13 -10 14 -9 10 3
-3 8 -14 15 -24 15 -11 0 -38 15 -61 33 -51 40 -60 41 -32 2z"/>
<path d="M2790 961 c0 -5 -12 -14 -27 -20 -27 -10 -26 -10 7 -5 42 7 57 19 36
27 -9 4 -16 2 -16 -2z"/>
<path d="M2852 956 c-36 -20 -15 -26 67 -19 44 3 73 2 68 -3 -11 -11 -118 -31
-212 -39 -38 -4 -77 -9 -85 -11 -24 -8 11 -24 38 -17 12 3 28 0 36 -6 10 -9
15 -8 20 4 4 12 18 16 53 14 27 -1 65 6 85 15 49 21 56 20 60 -6 3 -16 5 -11
9 15 6 44 -2 51 -71 60 -27 3 -54 1 -68 -7z"/>
<path d="M1280 941 c0 -13 49 -31 55 -21 4 6 -1 12 -9 15 -9 3 -23 7 -31 10
-8 2 -15 1 -15 -4z"/>
<path d="M15 930 c25 -42 155 -187 251 -280 60 -57 142 -138 183 -180 54 -54
70 -66 58 -43 -19 36 -58 78 -142 149 -100 86 -229 217 -259 264 -26 41 -112
125 -91 90z"/>
<path d="M2497 922 c10 -11 27 -13 69 -7 71 9 63 17 -19 19 -56 2 -63 0 -50
-12z"/>
<path d="M1380 882 c0 -20 30 -26 43 -9 7 8 19 17 27 19 8 3 -4 5 -27 4 -28 0
-43 -5 -43 -14z"/>
<path d="M1462 880 c-6 -11 -9 -27 -5 -36 5 -13 2 -15 -16 -9 -20 6 -22 5 -12
-14 18 -32 47 -14 42 27 -1 6 3 12 9 12 12 0 14 27 2 34 -4 2 -13 -4 -20 -14z"/>
<path d="M1307 884 c-3 -4 8 -16 26 -28 56 -38 63 -39 23 -2 -42 40 -40 38
-49 30z"/>
<path d="M2490 876 c-19 -6 -44 -18 -55 -25 -17 -11 -14 -11 25 -6 24 3 49 10
55 15 5 4 28 12 50 16 36 6 39 6 26 -9 -12 -15 -10 -17 16 -17 16 0 36 8 44
18 15 17 12 18 -55 20 -39 0 -87 -5 -106 -12z"/>
<path d="M1576 861 c-9 -14 29 -42 48 -35 23 9 20 19 -9 32 -31 14 -32 14 -39
3z"/>
<path d="M1648 829 c-22 -12 -23 -29 -2 -29 8 0 12 5 9 10 -4 6 -1 9 6 8 6 -2
14 3 16 10 6 14 -6 15 -29 1z"/>
<path d="M1689 821 c-1 -3 -1 -9 0 -13 0 -5 -4 -8 -10 -8 -6 0 -7 -5 -2 -12 4
-7 8 -17 8 -23 0 -18 96 -75 126 -75 16 0 29 2 29 4 0 2 -34 23 -75 45 -102
57 -101 78 2 35 31 -12 32 -12 21 6 -7 10 -15 17 -19 15 -3 -3 -22 4 -43 14
-20 10 -37 16 -37 12z"/>
<path d="M2338 808 c24 -11 60 -22 80 -24 28 -3 20 2 -32 21 -83 30 -109 32
-48 3z"/>
<path d="M2853 820 c-13 -5 -23 -12 -23 -15 0 -9 63 5 75 16 12 12 -23 11 -52
-1z"/>
<path d="M1555 810 c-3 -4 4 -10 15 -13 13 -3 18 -11 14 -20 -3 -8 -1 -18 5
-22 7 -4 8 0 4 11 -5 13 -3 16 10 11 33 -12 25 10 -9 25 -19 9 -36 12 -39 8z"/>
<path d="M1790 815 c0 -2 25 -16 55 -30 60 -27 71 -39 28 -30 -28 6 -28 6 2
-8 32 -15 85 -30 85 -24 0 5 -88 61 -127 81 -33 17 -43 19 -43 11z"/>
<path d="M2516 793 c-14 -4 -6 -10 30 -23 49 -17 71 -17 44 0 -13 8 -12 10 2
10 9 0 20 -4 23 -10 3 -5 16 -10 28 -10 21 0 21 1 -4 13 -30 16 -96 26 -123
20z"/>
<path d="M1520 768 c0 -9 14 -26 30 -38 17 -12 30 -17 30 -13 0 5 -13 22 -30
38 -22 22 -30 25 -30 13z"/>
<path d="M2109 731 c26 -36 51 -52 126 -79 70 -26 57 -12 -47 49 -37 22 -70
44 -73 49 -3 6 -11 10 -16 10 -6 0 -1 -13 10 -29z"/>
<path d="M1824 737 c10 -7 31 -22 46 -34 28 -23 80 -47 87 -39 7 7 -49 42
-102 64 -27 12 -42 16 -31 9z"/>
<path d="M1515 710 c11 -10 38 -26 60 -35 23 -8 32 -10 22 -2 -10 6 -31 22
-45 34 -35 29 -65 32 -37 3z"/>
<path d="M2010 725 c0 -2 21 -16 48 -29 26 -14 43 -25 39 -26 -5 0 -17 5 -29
11 -11 6 -22 8 -25 6 -3 -3 20 -18 51 -33 30 -15 53 -31 50 -35 -5 -9 35 -33
43 -26 6 6 -38 47 -51 48 -6 0 -2 4 9 8 17 7 8 14 -52 45 -73 36 -83 40 -83
31z"/>
<path d="M1950 706 c0 -6 65 -46 74 -46 10 0 -15 22 -42 38 -23 13 -32 15 -32
8z"/>
<path d="M2535 700 c-35 -5 -27 -7 55 -18 136 -19 150 -20 150 -10 0 4 -19 8
-42 8 -42 1 -43 1 -18 15 23 13 21 14 -40 12 -36 -1 -83 -4 -105 -7z"/>
<path d="M2318 664 c28 -14 52 -33 52 -41 0 -10 -6 -12 -20 -8 -11 3 -20 4
-20 2 0 -5 111 -46 124 -46 5 0 12 -5 16 -11 4 -7 16 -10 26 -8 14 3 7 10 -28
26 -26 12 -54 22 -62 22 -8 0 -18 5 -21 10 -3 6 1 10 10 10 15 0 15 2 1 15 -8
8 -19 15 -25 15 -6 0 -8 7 -5 15 5 12 -2 15 -29 15 -20 0 -44 2 -54 5 -10 3 6
-6 35 -21z"/>
<path d="M2450 683 c19 -3 43 -13 53 -24 10 -10 28 -19 41 -19 12 0 56 -11 96
-25 83 -28 80 -28 80 -17 0 4 -37 18 -83 31 -45 13 -100 33 -121 43 -22 10
-54 17 -70 16 -30 -1 -30 -1 4 -5z"/>
<path d="M1555 646 c90 -43 120 -52 110 -36 -11 18 -130 70 -157 69 -15 0 1
-12 47 -33z"/>
<path d="M1820 675 c0 -14 48 -45 69 -45 l26 0 -30 18 c-34 21 -65 33 -65 27z"/>
<path d="M1810 632 c0 -13 196 -109 263 -127 75 -21 109 -14 38 8 -29 9 -59
21 -65 26 -6 4 -35 16 -64 26 -29 9 -56 23 -59 31 -3 8 -15 14 -27 14 -12 0
-26 4 -31 9 -15 14 -55 23 -55 13z"/>
<path d="M1935 616 c11 -9 37 -20 58 -26 21 -6 47 -20 58 -31 11 -11 28 -19
37 -17 17 3 -101 69 -148 83 -24 7 -24 7 -5 -9z"/>
<path d="M2236 616 c5 -14 102 -61 110 -53 2 2 -23 18 -56 36 -39 21 -58 27
-54 17z"/>
<path d="M1536 587 c4 -12 30 -25 64 -31 3 -1 11 -5 18 -9 7 -5 22 -5 33 -2
13 5 19 3 15 -3 -8 -13 20 -24 69 -27 22 -1 65 -6 95 -10 30 -4 53 -5 50 -2
-3 4 -75 24 -160 46 -85 21 -163 42 -173 46 -13 5 -16 3 -11 -8z"/>
<path d="M2110 538 c13 -13 131 -67 125 -58 -7 12 -69 44 -105 55 -14 4 -23 5
-20 3z"/>
<path d="M2490 525 c0 -7 52 -31 84 -39 26 -6 27 -5 13 8 -24 24 -97 48 -97
31z"/>
<path d="M2725 497 c11 -8 50 -17 86 -21 60 -6 123 -21 172 -41 10 -4 17 -3
17 3 0 6 -15 14 -32 17 -18 4 -37 10 -43 14 -18 13 -109 32 -140 30 -17 -2
-41 1 -55 5 -24 8 -24 7 -5 -7z"/>
<path d="M1610 480 c36 -10 94 -22 130 -25 98 -10 139 -15 205 -27 65 -11 92
-15 173 -22 29 -3 57 -8 61 -10 16 -10 181 -17 213 -10 29 7 25 9 -37 15 -38
4 -151 19 -250 33 -99 14 -209 26 -245 26 -36 0 -116 9 -179 20 -138 24 -156
24 -71 0z"/>
<path d="M2519 463 c-13 -3 -10 -10 16 -36 18 -18 40 -56 50 -87 18 -57 75
-173 82 -167 3 4 -44 114 -67 158 -5 9 -12 33 -15 52 -4 20 -13 42 -21 48 -12
10 -12 14 3 25 17 12 16 13 -7 13 -14 -1 -32 -3 -41 -6z"/>
<path d="M2700 448 c98 -27 209 -63 247 -79 58 -25 54 -17 -9 19 -68 38 -178
72 -232 71 l-41 -1 35 -10z"/>
<path d="M2410 430 c0 -5 14 -10 30 -10 17 0 30 5 30 10 0 6 -13 10 -30 10
-16 0 -30 -4 -30 -10z"/>
<path d="M2467 403 c-3 -5 8 -30 24 -58 33 -58 38 -48 9 19 -19 46 -25 52 -33
39z"/>
<path d="M620 259 c65 -63 205 -173 270 -214 54 -33 41 -16 -22 28 -79 56
-147 110 -214 172 -83 75 -108 86 -34 14z"/>
</g>
</svg>
