<?xml version="1.0" standalone="no"?>
<!DOCTYPE svg PUBLIC "-//W3C//DTD SVG 20010904//EN"
 "http://www.w3.org/TR/2001/REC-SVG-20010904/DTD/svg10.dtd">
<svg version="1.0" xmlns="http://www.w3.org/2000/svg"
 width="300.000000pt" height="438.000000pt" viewBox="0 0 300.000000 438.000000"
 preserveAspectRatio="xMidYMid meet">
<metadata>
Created by potrace 1.10, written by Peter Selinger 2001-2011
</metadata>
<g transform="translate(0.000000,438.000000) scale(0.100000,-0.100000)"
fill="#000000" stroke="none">
<path d="M761 4343 c-22 -85 4 -164 29 -89 16 48 33 46 28 -3 -2 -29 0 -37 8
-30 14 11 24 68 13 74 -4 3 -5 23 -2 45 4 26 2 40 -6 40 -6 0 -12 -10 -13 -22
0 -13 -2 -28 -2 -33 -1 -6 -11 -24 -24 -40 l-22 -30 6 63 c7 69 0 82 -15 25z"/>
<path d="M907 4350 c-10 -16 -14 -30 -10 -30 11 0 43 37 43 50 0 19 -16 10
-33 -20z"/>
<path d="M1559 4380 c0 -3 -2 -16 -5 -29 -2 -13 0 -40 6 -59 6 -25 6 -38 -1
-43 -7 -4 -4 -9 6 -12 11 -5 14 -3 9 6 -11 18 31 -25 45 -48 12 -19 12 -18 7
5 -3 14 -6 31 -6 38 0 7 -4 11 -8 8 -5 -3 -14 22 -20 56 -6 34 -16 66 -22 72
-5 5 -10 8 -11 6z"/>
<path d="M1680 4235 c0 -18 -4 -23 -15 -19 -8 4 -15 1 -15 -5 0 -10 14 -15 34
-12 12 2 64 -58 82 -94 8 -16 23 -41 34 -55 17 -21 21 -23 29 -10 7 10 6 17
-4 23 -8 4 -15 15 -15 23 0 16 -30 52 -30 37 0 -8 -17 19 -46 77 -32 61 -54
76 -54 35z"/>
<path d="M686 4235 c7 -17 0 -19 -25 -5 -16 8 -20 0 -35 -83 -10 -51 -24 -123
-31 -162 -8 -38 -14 -81 -14 -95 0 -22 2 -20 21 15 12 22 22 51 23 65 2 41 16
142 26 180 10 42 43 67 65 49 11 -9 14 -8 14 4 0 29 -12 47 -31 47 -12 0 -16
-5 -13 -15z"/>
<path d="M2057 4193 c-4 -3 -7 -15 -7 -26 0 -11 3 -17 7 -14 3 4 12 2 19 -4
19 -16 31 16 14 36 -14 16 -23 19 -33 8z"/>
<path d="M2115 4130 c1 -11 7 -26 13 -32 9 -9 12 -5 12 20 0 20 -5 32 -13 32
-8 0 -13 -9 -12 -20z"/>
<path d="M1880 4116 c-5 -15 -10 -37 -9 -49 0 -13 6 -4 14 23 16 49 12 69 -5
26z"/>
<path d="M2020 4090 c0 -27 4 -50 10 -50 5 0 8 22 7 50 -3 65 -17 65 -17 0z"/>
<path d="M2152 4081 c-1 -33 1 -42 8 -31 11 18 13 67 3 73 -5 3 -9 -16 -11
-42z"/>
<path d="M2321 4100 c-10 -31 -41 -42 -41 -15 0 17 -16 20 -25 5 -3 -5 -1 -10
6 -10 8 0 8 -4 -1 -15 -10 -12 -10 -15 1 -16 8 -1 19 0 24 1 6 2 20 2 33 2 14
-1 22 4 22 14 0 24 25 11 28 -15 4 -28 36 -61 60 -61 10 0 23 -5 30 -12 17
-17 28 -2 12 17 -7 8 -22 15 -34 15 -19 0 -22 4 -18 31 4 28 2 30 -16 25 -16
-6 -21 -1 -26 29 -9 45 -39 48 -55 5z"/>
<path d="M264 4053 c3 -38 8 -102 11 -143 3 -41 8 -101 11 -132 6 -54 4 -59
-23 -85 -16 -16 -44 -39 -61 -52 -18 -13 -32 -32 -32 -42 0 -16 5 -14 34 13
19 18 49 44 66 58 37 30 38 42 27 235 -9 169 -16 215 -29 215 -6 0 -8 -25 -4
-67z"/>
<path d="M2574 4105 c-12 -9 -14 -14 -5 -15 18 0 6 -50 -16 -67 -16 -12 -16
-13 0 -13 9 0 17 -4 17 -9 0 -5 9 -11 20 -14 22 -6 28 8 8 17 -10 5 -10 7 -1
12 8 4 9 13 3 29 -8 20 -6 22 13 17 19 -5 20 -3 9 10 -9 11 -10 18 -2 23 5 3
10 10 10 16 0 14 -34 11 -56 -6z"/>
<path d="M1961 4075 c0 -22 4 -47 9 -55 7 -11 9 -8 9 15 -1 17 -5 41 -9 55 -7
22 -8 20 -9 -15z"/>
<path d="M2681 4056 c-9 -11 -9 -15 0 -18 8 -3 2 -14 -14 -31 -15 -14 -27 -32
-27 -39 1 -8 5 -7 14 5 14 17 27 23 25 10 -1 -5 -1 -16 0 -26 1 -17 2 -17 17
-3 8 9 13 20 10 25 -3 5 1 11 9 15 12 4 13 10 3 33 -17 41 -23 46 -37 29z"/>
<path d="M2508 3984 c12 -9 22 -23 22 -30 0 -23 17 -16 22 9 3 16 0 23 -11 23
-9 1 -25 4 -36 8 -17 6 -17 5 3 -10z"/>
<path d="M2708 3884 c-10 -10 3 -34 15 -27 6 4 8 -2 5 -15 -5 -19 -2 -22 20
-22 15 0 34 5 42 11 13 9 12 10 -2 5 -17 -5 -24 9 -19 37 1 5 -8 5 -20 2 -12
-4 -24 -2 -28 4 -4 6 -10 9 -13 5z"/>
<path d="M537 3863 c-4 -3 -7 -17 -7 -29 0 -13 -4 -25 -9 -29 -5 -3 -13 -20
-16 -38 -4 -17 -18 -68 -30 -112 -12 -44 -25 -98 -28 -120 -5 -34 -4 -37 6
-20 6 11 12 22 12 25 2 7 25 62 36 82 5 10 9 24 9 33 0 29 44 147 57 152 18 7
16 50 -3 57 -19 7 -19 7 -27 -1z"/>
<path d="M2815 3840 c-4 -6 7 -10 25 -10 24 0 30 -4 28 -17 -2 -11 2 -17 11
-15 7 2 23 -6 35 -16 36 -32 50 -38 37 -15 -6 11 -7 24 -3 28 4 5 2 5 -5 1 -6
-3 -14 -2 -18 4 -7 12 -79 50 -94 50 -5 0 -13 -4 -16 -10z"/>
<path d="M2249 3818 c-7 -12 -16 -41 -20 -63 -4 -22 -10 -51 -14 -65 -6 -23
-5 -23 8 -8 8 10 16 15 19 12 3 -3 9 8 13 23 4 17 2 29 -4 31 -15 5 -14 22 4
56 9 16 13 31 11 33 -2 3 -10 -6 -17 -19z"/>
<path d="M2305 3830 c8 -13 74 -44 81 -37 6 6 -59 47 -75 47 -7 0 -9 -4 -6
-10z"/>
<path d="M2495 3800 c-3 -5 1 -10 9 -10 21 0 20 -17 -1 -29 -10 -5 -15 -13
-11 -17 5 -4 19 5 32 19 14 15 23 28 21 28 -3 1 -8 2 -12 3 -5 1 -13 5 -20 9
-6 4 -14 3 -18 -3z"/>
<path d="M2797 3793 c-13 -12 -7 -40 11 -64 13 -15 21 -19 26 -11 4 7 2 12 -3
12 -6 0 -11 16 -11 35 0 33 -8 43 -23 28z"/>
<path d="M2432 3760 c0 -19 4 -46 8 -60 7 -23 8 -22 8 10 0 19 -4 46 -8 60 -7
23 -8 22 -8 -10z"/>
<path d="M2662 3755 c-6 -14 -10 -25 -8 -25 12 0 76 31 81 40 9 14 -8 13 -23
-2 -8 -8 -15 -8 -25 0 -11 9 -16 7 -25 -13z"/>
<path d="M2596 3738 c4 -13 12 -26 18 -30 8 -6 6 -11 -4 -18 -8 -5 -10 -10 -4
-10 12 0 34 20 34 32 0 4 -8 8 -17 9 -12 0 -13 2 -5 6 10 4 10 8 1 19 -18 22
-31 17 -23 -8z"/>
<path d="M2391 3703 c0 -23 -5 -43 -9 -45 -16 -6 -50 -93 -42 -108 4 -8 6 -26
5 -40 -2 -14 -4 -28 -4 -32 -1 -5 -13 -8 -28 -8 -20 0 -24 -3 -16 -11 8 -8 17
-8 31 0 10 6 22 7 26 4 3 -3 6 30 6 75 0 47 4 82 10 82 19 0 36 54 29 90 l-6
35 -2 -42z"/>
<path d="M2600 3631 c0 -22 -4 -42 -8 -45 -10 -6 -58 45 -54 57 1 4 -8 2 -20
-4 l-23 -13 21 -5 c25 -7 94 -86 94 -107 0 -8 4 -14 10 -14 5 0 6 9 1 22 -5
14 -3 45 5 78 9 42 10 57 1 62 -22 14 -27 8 -27 -31z"/>
<path d="M1068 3590 c-4 -26 0 -34 21 -45 14 -7 40 -31 56 -54 20 -27 54 -53
100 -77 39 -20 84 -50 101 -66 l31 -29 111 36 c62 20 112 40 112 45 0 12 -54
7 -65 -7 -9 -11 -39 -19 -100 -28 -11 -2 -24 -5 -30 -6 -12 -4 -85 39 -85 50
0 4 -21 15 -47 24 -52 19 -163 115 -187 161 l-14 27 -4 -31z"/>
<path d="M2191 3589 c-12 -34 -15 -76 -5 -67 3 3 12 27 19 52 16 51 3 64 -14
15z"/>
<path d="M280 3575 c-9 -11 -16 -12 -26 -4 -9 8 -18 7 -31 -1 -16 -10 -16 -11
-1 -6 10 3 20 1 23 -4 6 -9 51 -7 61 3 4 3 16 1 28 -5 21 -11 21 -11 2 11 -23
25 -39 27 -56 6z"/>
<path d="M333 3508 c-22 -11 -47 -64 -57 -125 -8 -50 0 -39 19 25 11 34 29 68
46 85 31 28 29 33 -8 15z"/>
<path d="M1050 3489 c0 -5 4 -8 8 -5 4 2 23 -18 41 -45 19 -27 40 -49 48 -49
21 0 -14 56 -53 86 -34 26 -44 29 -44 13z"/>
<path d="M2698 3401 c-18 -16 -30 -32 -26 -36 4 -4 17 4 30 18 13 15 36 29 51
33 24 5 29 3 34 -16 4 -16 8 -18 14 -9 12 20 -9 39 -42 39 -18 0 -41 -11 -61
-29z"/>
<path d="M1080 3364 c1 -17 25 -41 48 -48 20 -7 46 -39 47 -59 0 -9 35 -37 45
-37 3 0 -9 32 -28 70 -27 57 -38 70 -57 70 -13 0 -30 3 -39 6 -9 3 -16 2 -16
-2z"/>
<path d="M1262 3339 c14 -19 31 -45 38 -59 11 -21 7 -19 -28 13 -50 44 -61 47
-37 10 31 -49 67 -82 102 -94 47 -15 51 -6 17 37 -16 20 -39 51 -51 70 -13 18
-32 38 -44 45 -20 10 -20 9 3 -22z"/>
<path d="M1568 3351 c-26 -10 -51 -21 -55 -26 -5 -4 -1 -6 7 -3 8 3 41 13 73
22 31 9 57 19 57 21 0 9 -35 3 -82 -14z"/>
<path d="M2601 3320 c1 -55 1 -55 10 -17 6 24 5 45 -1 55 -7 12 -9 2 -9 -38z"/>
<path d="M1690 3350 c0 -5 10 -10 23 -10 22 -1 22 -1 2 -17 -15 -12 -16 -14
-3 -10 9 3 36 11 60 18 l43 12 -40 8 c-56 11 -85 11 -85 -1z"/>
<path d="M950 3341 c0 -11 67 -71 80 -71 24 0 7 29 -21 35 -24 5 -30 11 -26
26 4 14 0 19 -14 19 -10 0 -19 -4 -19 -9z"/>
<path d="M865 3313 c-4 -13 -13 -23 -19 -23 -8 0 -11 -11 -8 -31 l5 -31 19 43
c10 23 16 47 14 53 -3 6 -8 1 -11 -11z"/>
<path d="M1081 3311 c-1 -8 -10 -25 -22 -37 l-21 -22 45 -27 c48 -27 99 -45
132 -45 13 0 2 11 -34 35 -29 19 -64 35 -77 35 -23 0 -35 24 -15 32 4 2 5 12
0 23 -4 12 -8 14 -8 6z"/>
<path d="M2967 3278 c-30 -41 -40 -58 -33 -58 3 0 19 20 36 45 35 52 33 61 -3
13z"/>
<path d="M1396 3288 c28 -48 55 -73 93 -89 36 -16 41 -22 31 -34 -7 -8 -18
-15 -25 -15 -7 0 -16 -7 -19 -16 -6 -16 6 -12 36 14 10 8 27 12 39 9 20 -5 20
-5 4 14 -10 10 -40 29 -66 41 -46 20 -63 38 -38 38 6 0 17 6 24 14 12 12 8 15
-30 25 -55 14 -58 14 -49 -1z"/>
<path d="M1741 3258 c-5 -13 -6 -30 -3 -38 8 -25 44 -60 61 -60 14 1 14 2 0
10 -9 5 -23 20 -32 33 -13 21 -14 28 -2 51 12 22 12 26 -1 26 -8 0 -18 -10
-23 -22z"/>
<path d="M318 3252 c-7 -10 -32 -31 -55 -47 -24 -15 -43 -32 -43 -36 0 -17 16
-8 65 36 28 25 53 45 58 45 11 0 9 20 -2 20 -6 0 -16 -8 -23 -18z"/>
<path d="M1491 3256 c-9 -11 -5 -15 26 -21 55 -10 84 -28 125 -78 24 -29 48
-46 68 -51 17 -3 29 -10 26 -15 -4 -5 4 -7 16 -3 21 5 19 7 -17 23 -22 10 -64
43 -93 74 -29 31 -63 59 -75 64 -53 20 -65 21 -76 7z"/>
<path d="M980 3241 c0 -5 7 -16 15 -25 21 -20 19 -28 -7 -26 -13 1 -36 1 -53
0 -30 -2 -30 -2 -5 -10 14 -4 47 -8 73 -9 26 -1 64 -8 84 -16 20 -8 38 -13 41
-11 4 5 -129 106 -140 106 -5 0 -8 -4 -8 -9z"/>
<path d="M2354 3146 l-1 -71 13 50 c17 63 17 82 2 88 -10 3 -13 -14 -14 -67z"/>
<path d="M830 3187 c0 -14 -8 -30 -17 -36 -10 -5 -14 -13 -10 -18 5 -4 13 0
19 10 5 10 18 21 27 25 17 7 17 8 -1 26 -18 19 -18 19 -18 -7z"/>
<path d="M1970 3206 c0 -10 40 -96 44 -96 8 0 -25 89 -35 96 -5 3 -9 3 -9 0z"/>
<path d="M2287 3173 c-11 -18 -19 -98 -9 -88 6 6 12 29 15 53 4 41 3 50 -6 35z"/>
<path d="M146 3094 c-21 -25 -35 -48 -31 -52 4 -4 10 -1 12 6 3 8 20 29 39 47
19 19 34 37 34 40 0 14 -19 0 -54 -41z"/>
<path d="M863 3127 c-18 -6 -33 -14 -33 -17 0 -15 159 -61 199 -58 l41 3 -80
43 c-43 23 -83 41 -87 41 -4 -1 -23 -7 -40 -12z m137 -52 l25 -15 -30 6 c-16
4 -39 11 -50 15 -18 7 -18 8 5 8 14 0 36 -6 50 -14z"/>
<path d="M980 3126 c0 -9 138 -76 157 -76 23 0 8 13 -52 43 -52 27 -105 43
-105 33z"/>
<path d="M1511 3066 c-43 -33 -78 -82 -67 -94 4 -3 26 14 51 38 25 24 42 46
40 49 -3 2 2 13 12 23 23 26 14 22 -36 -16z"/>
<path d="M2030 3066 c11 -20 20 -43 20 -50 0 -12 20 -26 36 -26 8 0 -56 105
-66 108 -6 2 -2 -12 10 -32z"/>
<path d="M786 3061 c-3 -5 3 -11 14 -14 28 -7 26 -37 -3 -37 -13 0 -32 -7 -43
-15 -17 -13 -16 -13 17 -4 46 12 77 1 116 -41 26 -28 34 -31 66 -25 20 4 44
13 54 20 17 13 17 14 -2 20 -60 20 -122 50 -135 65 -29 32 -73 49 -84 31z"/>
<path d="M1345 3055 c-4 -11 -17 -28 -29 -37 -18 -15 -19 -18 -4 -18 20 0 52
44 45 62 -3 9 -7 6 -12 -7z"/>
<path d="M1813 3054 c33 -18 47 -50 47 -105 0 -21 4 -39 9 -39 6 0 8 70 2 112
-2 16 -46 48 -65 48 -18 -1 -17 -3 7 -16z"/>
<path d="M1637 3020 c-26 -16 -47 -34 -47 -40 0 -12 17 -14 22 -2 7 17 67 52
90 52 18 0 20 2 8 10 -21 13 -21 14 -73 -20z"/>
<path d="M791 2960 c14 -4 38 -15 53 -25 14 -10 29 -15 32 -12 10 10 -59 47
-86 46 l-25 -1 26 -8z"/>
<path d="M1145 2963 c-31 -7 -41 -21 -21 -29 10 -4 22 -2 29 5 6 6 31 11 57
12 25 0 54 4 65 9 22 9 -93 12 -130 3z"/>
<path d="M1625 2956 c-12 -9 -16 -19 -11 -32 7 -19 8 -19 21 0 8 10 21 16 29
13 9 -4 18 -2 21 3 4 6 12 10 18 10 7 0 1 -9 -13 -20 -24 -19 -24 -20 -4 -20
25 0 59 34 49 49 -9 16 -88 14 -110 -3z"/>
<path d="M1974 2962 c-27 -18 -45 -84 -25 -96 4 -3 6 6 3 19 -2 15 0 25 7 25
6 0 16 12 22 26 9 25 12 26 61 21 57 -7 82 -28 45 -38 l-22 -5 24 -8 c46 -15
50 37 4 55 -29 11 -103 12 -119 1z"/>
<path d="M1410 2930 c-9 -17 -7 -22 17 -31 15 -6 43 -13 61 -16 27 -5 32 -3
32 15 0 46 -89 71 -110 32z"/>
<path d="M1045 2882 c-14 -25 -35 -44 -67 -59 -48 -23 -67 -50 -28 -40 11 3
20 1 20 -3 0 -11 39 -24 47 -16 3 3 -2 17 -11 31 -9 14 -12 25 -7 25 5 0 13
-9 16 -20 3 -11 10 -20 15 -20 12 0 24 46 15 59 -3 6 2 11 12 11 10 0 26 12
36 26 21 28 21 29 -8 38 -16 4 -24 -2 -40 -32z"/>
<path d="M106 2872 c-4 -24 -6 -46 -2 -49 8 -8 18 42 14 68 -3 18 -6 13 -12
-19z"/>
<path d="M815 2900 c-3 -6 3 -10 16 -10 12 0 43 -12 68 -27 31 -18 41 -21 32
-9 -27 32 -105 64 -116 46z"/>
<path d="M1292 2894 c-15 -10 -21 -22 -17 -33 5 -17 0 -22 -70 -75 -31 -24 2
-19 35 4 28 20 97 120 82 120 -4 0 -18 -7 -30 -16z"/>
<path d="M1364 2841 c-32 -62 -28 -85 4 -31 21 33 20 34 51 -42 6 -16 15 -28
21 -28 18 0 10 -17 -31 -64 -23 -26 -39 -49 -36 -52 2 -3 20 13 39 36 36 41
58 51 58 26 0 -8 7 -16 15 -20 8 -3 15 -15 15 -26 0 -11 5 -20 10 -20 22 0 8
-32 -30 -70 -22 -22 -38 -40 -35 -40 13 0 55 25 55 32 0 5 7 17 16 25 13 14
17 14 24 2 6 -8 4 -16 -3 -21 -8 -5 -4 -8 10 -8 46 0 71 23 34 33 -10 2 -32
29 -49 59 -18 30 -52 85 -77 122 -25 37 -45 77 -46 89 -2 60 -14 59 -45 -2z"/>
<path d="M1838 2862 c-10 -20 -32 -61 -49 -91 -31 -52 -63 -154 -51 -166 5 -5
19 37 37 109 5 23 31 63 62 96 27 28 40 67 27 80 -5 5 -16 -7 -26 -28z"/>
<path d="M1159 2863 c-53 -63 -45 -71 15 -18 32 29 36 35 19 35 -11 0 -26 -8
-34 -17z"/>
<path d="M872 2840 c12 -16 29 -30 37 -30 10 0 6 9 -14 30 -16 17 -33 30 -37
30 -5 0 1 -13 14 -30z"/>
<path d="M1702 2771 c-24 -42 -26 -51 -14 -51 4 0 18 20 30 45 27 55 14 60
-16 6z"/>
<path d="M1567 2782 c-39 -3 -42 -22 -4 -22 22 0 56 16 47 22 -3 2 -22 2 -43
0z"/>
<path d="M1924 2779 c-29 -10 -63 -60 -70 -101 l-6 -33 23 35 c13 19 27 38 32
41 4 3 7 12 5 19 -2 8 2 15 7 15 28 4 65 18 60 23 -9 9 -28 10 -51 1z"/>
<path d="M898 2720 c-65 -34 -71 -52 -15 -44 45 7 119 43 112 54 -11 18 -54
14 -97 -10z"/>
<path d="M1083 2681 c-14 -23 -20 -47 -16 -57 5 -15 2 -16 -30 -11 -30 5 -39
2 -47 -14 -6 -10 -18 -19 -26 -19 -9 0 -12 5 -8 12 4 7 3 8 -5 4 -6 -4 -9 -12
-6 -17 4 -5 -2 -9 -12 -9 -10 0 -29 -9 -43 -20 -23 -18 -23 -20 -5 -20 76 1
201 67 246 132 13 18 27 35 31 36 14 6 9 22 -6 22 -8 0 -17 -8 -20 -18 -4 -11
-18 -30 -33 -43 l-27 -24 27 37 c30 41 32 48 15 48 -7 0 -23 -18 -35 -39z"/>
<path d="M1540 2710 c-12 -7 -12 -12 -2 -22 10 -10 14 -10 21 1 6 10 21 12 50
8 43 -5 57 6 19 17 -33 9 -71 7 -88 -4z"/>
<path d="M720 2685 c-29 -11 -32 -14 -17 -20 10 -4 28 -3 40 3 12 5 38 14 57
20 l35 10 -40 0 c-22 0 -56 -5 -75 -13z"/>
<path d="M1580 2665 c-23 -12 -23 -14 -7 -21 10 -3 23 -2 30 5 6 6 7 11 2 11
-6 0 -3 5 5 10 23 15 -2 11 -30 -5z"/>
<path d="M1243 2644 c-42 -25 -56 -22 -30 6 6 7 -1 5 -18 -5 -112 -69 -120
-80 -45 -60 51 14 109 44 130 70 17 20 12 19 -37 -11z"/>
<path d="M1980 2663 c0 -5 -12 -16 -27 -25 -41 -24 -88 -66 -81 -73 3 -3 11 1
18 10 7 8 16 15 21 15 5 0 19 9 31 20 13 10 32 25 42 33 13 10 15 16 8 21 -7
4 -12 3 -12 -1z"/>
<path d="M2020 2634 c0 -10 6 -14 14 -11 8 3 26 -3 40 -14 13 -11 27 -16 30
-11 3 5 -15 18 -39 30 -39 19 -45 20 -45 6z"/>
<path d="M775 2600 c3 -5 -4 -14 -17 -19 -13 -5 -30 -16 -37 -25 -11 -14 -11
-16 3 -16 9 0 16 7 16 15 0 15 22 15 69 0 13 -4 23 0 30 12 6 10 11 14 11 10
0 -4 9 -3 20 3 32 17 16 27 -45 29 -37 1 -54 -2 -50 -9z"/>
<path d="M1920 2549 c-25 -23 -36 -36 -25 -30 31 17 80 60 74 65 -3 3 -25 -13
-49 -35z"/>
<path d="M1080 2536 c-119 -32 -120 -33 -69 -41 55 -8 113 6 159 40 43 32 26
32 -90 1z"/>
<path d="M2340 2524 c0 -4 11 -17 25 -30 21 -20 25 -21 23 -6 -4 24 -48 57
-48 36z"/>
<path d="M801 2497 c-6 -6 -11 -16 -11 -21 0 -6 5 -4 10 5 6 11 18 15 35 11
l25 -4 -25 -24 c-14 -12 -22 -29 -19 -37 4 -12 15 -10 62 9 31 13 65 24 75 24
9 0 17 4 17 9 0 11 -71 2 -84 -10 -6 -5 -19 -9 -30 -8 -16 0 -12 5 14 16 26
11 31 17 20 23 -29 15 -77 19 -89 7z"/>
<path d="M1505 2483 c-22 -8 -49 -23 -60 -34 -19 -19 -18 -19 35 2 55 22 77
36 69 42 -2 2 -22 -3 -44 -10z"/>
<path d="M1281 2444 c-12 -9 -21 -23 -19 -32 1 -10 -1 -23 -5 -29 -5 -7 -4
-13 2 -13 5 0 13 5 16 10 3 6 14 10 23 10 9 0 31 11 47 25 25 21 28 26 15 35
-25 16 -40 11 -40 -14 0 -13 -7 -26 -15 -29 -11 -5 -12 -1 -4 20 12 33 8 36
-20 17z"/>
<path d="M1675 2400 c-39 -40 -41 -49 -4 -30 15 9 57 71 47 70 -2 -1 -21 -19
-43 -40z"/>
<path d="M915 2420 c-16 -7 -13 -9 15 -8 19 0 46 4 60 8 21 7 19 8 -15 8 -22
0 -49 -3 -60 -8z"/>
<path d="M1460 2388 c-38 -10 -60 -32 -59 -57 0 -11 2 -12 6 -3 2 6 12 12 21
12 10 0 23 9 30 20 6 11 18 17 26 14 7 -3 16 2 19 10 7 18 6 18 -43 4z"/>
<path d="M2250 2368 c0 -22 -6 -29 -27 -34 -41 -9 -83 -28 -83 -36 0 -11 -1
-11 63 11 32 11 57 17 57 13 0 -3 5 -1 11 5 8 8 6 19 -5 39 l-15 29 -1 -27z"/>
<path d="M2320 2376 c0 -8 -5 -16 -11 -18 -7 -2 -10 -10 -7 -18 3 -10 9 -9 26
8 26 26 28 42 7 42 -8 0 -15 -6 -15 -14z"/>
<path d="M1044 2358 c-16 -11 -20 -17 -9 -13 39 15 68 18 62 8 -4 -6 3 -13 14
-16 12 -3 18 -3 15 0 -3 4 -1 12 5 20 6 7 8 14 3 14 -5 1 -21 3 -35 4 -14 2
-39 -6 -55 -17z"/>
<path d="M1152 2303 c2 -14 9 -28 16 -31 11 -3 12 0 4 14 -5 11 -7 25 -5 32 3
6 -1 12 -7 12 -6 0 -10 -11 -8 -27z"/>
<path d="M1326 2282 c-35 -20 -56 -41 -79 -82 l-31 -55 55 57 c40 40 68 60 98
68 24 6 41 12 40 13 -2 2 -11 8 -19 14 -12 9 -26 6 -64 -15z"/>
<path d="M2331 2295 c-25 -8 -37 -20 -42 -40 l-8 -28 20 22 c11 11 29 21 40
21 11 0 22 7 26 15 8 22 2 24 -36 10z"/>
<path d="M1572 2291 c-11 -7 -8 -17 13 -50 16 -23 30 -39 33 -37 2 3 -5 17
-17 32 -21 27 -28 50 -13 40 5 -3 9 1 9 9 0 17 -6 18 -25 6z"/>
<path d="M2196 2254 c-61 -24 -90 -43 -46 -28 14 4 45 13 69 19 25 7 47 17 49
23 5 16 -3 14 -72 -14z"/>
<path d="M1885 2249 c-4 -5 14 -9 41 -9 55 0 55 5 2 13 -21 3 -40 1 -43 -4z"/>
<path d="M1016 2229 c-28 -11 -56 -28 -62 -38 -7 -10 -49 -42 -93 -71 -45 -29
-81 -54 -81 -56 0 -8 57 21 90 46 19 14 72 50 118 79 103 67 106 72 28 40z"/>
<path d="M1118 2232 c-8 -10 -8 -13 -1 -9 28 17 21 -15 -10 -47 -19 -19 -32
-38 -29 -41 3 -3 0 -5 -6 -5 -7 0 -12 -6 -12 -12 0 -12 101 89 108 108 7 17
-36 23 -50 6z"/>
<path d="M1203 2223 c-4 -10 -19 -38 -35 -62 -22 -36 -28 -56 -27 -100 0 -31
7 -72 14 -91 12 -33 13 -29 8 46 -5 63 -2 88 10 110 38 69 57 114 47 114 -6 0
-14 -8 -17 -17z"/>
<path d="M1008 2161 c-65 -49 -109 -91 -96 -91 7 1 42 27 78 60 70 64 77 75
18 31z"/>
<path d="M1543 2140 c-35 -16 -63 -33 -63 -39 0 -5 -8 -12 -18 -15 -35 -11
-111 -98 -127 -144 -19 -57 -19 -112 0 -138 18 -23 18 -19 4 46 -9 44 -8 55
11 95 22 45 61 84 121 119 32 19 32 19 25 0 -6 -15 -2 -14 21 7 15 14 48 34
72 43 l43 17 32 -35 c54 -56 106 -179 106 -248 0 -45 -27 -135 -46 -159 -17
-20 -18 -30 -1 -27 17 4 67 153 67 201 0 22 -14 68 -33 110 -34 73 -102 177
-117 177 -4 0 -27 -7 -50 -15 -59 -21 -62 -18 -10 10 62 33 38 30 -37 -5z"/>
<path d="M1972 2150 c-6 -11 -12 -27 -12 -36 0 -16 2 -15 20 1 11 10 17 21 15
26 -3 4 3 12 12 18 17 10 17 10 -2 11 -11 0 -26 -9 -33 -20z"/>
<path d="M1389 2126 c-50 -37 -78 -72 -99 -124 -19 -48 -7 -49 15 0 10 22 45
67 79 99 34 33 59 59 56 59 -3 0 -26 -16 -51 -34z"/>
<path d="M1990 2076 c0 -19 5 -26 20 -26 17 0 19 3 10 19 -16 32 -30 34 -30 7z"/>
<path d="M1860 2074 c0 -13 8 -24 20 -27 13 -3 29 -26 45 -64 14 -32 30 -66
36 -77 6 -10 12 -28 15 -39 2 -11 7 -23 12 -26 5 -3 12 -18 15 -32 5 -18 15
-28 32 -31 38 -8 38 1 -4 51 -45 54 -63 89 -81 153 -8 31 -21 53 -39 64 -14
10 -31 25 -38 33 -11 14 -12 13 -13 -5z"/>
<path d="M2453 2076 c-24 -11 -29 -21 -15 -30 5 -3 19 6 30 19 23 27 20 29
-15 11z"/>
<path d="M1201 2049 c1 -19 5 -47 10 -64 5 -20 6 -9 2 30 -6 66 -14 88 -12 34z"/>
<path d="M2220 2056 c0 -13 28 -36 44 -36 13 0 4 16 -19 33 -21 15 -25 16 -25
3z"/>
<path d="M782 2006 c-49 -21 -52 -24 -36 -37 10 -8 15 -9 11 -2 -5 8 8 19 38
32 25 11 45 22 45 25 0 8 3 9 -58 -18z"/>
<path d="M2046 2005 c16 -24 44 -34 44 -17 0 13 -34 42 -49 42 -8 0 -6 -8 5
-25z"/>
<path d="M1408 1983 c-38 -41 -58 -74 -57 -95 0 -7 7 3 16 22 8 19 31 52 51
73 20 20 34 37 31 37 -3 0 -21 -17 -41 -37z"/>
<path d="M2527 1980 c-20 -24 -54 -26 -84 -5 -15 11 -24 12 -29 4 -12 -19 19
-29 80 -27 37 2 60 8 64 16 9 24 -13 33 -31 12z"/>
<path d="M30 1960 c-33 -7 -32 -7 15 -8 28 0 64 4 80 8 27 7 25 8 -15 8 -25
-1 -61 -4 -80 -8z"/>
<path d="M2087 1953 c-14 -4 -16 -8 -6 -19 6 -8 16 -14 22 -14 6 0 24 -15 40
-32 27 -31 28 -31 12 -5 -13 23 -14 31 -4 43 21 26 -14 40 -64 27z"/>
<path d="M1220 1940 c0 -4 6 -22 14 -41 10 -24 20 -33 40 -34 14 0 26 2 26 4
0 3 -18 22 -40 42 -22 20 -40 33 -40 29z"/>
<path d="M1170 1925 c0 -3 11 -28 25 -56 26 -49 52 -62 63 -30 3 9 -1 11 -16
7 -16 -6 -24 1 -42 39 -20 41 -30 54 -30 40z"/>
<path d="M2504 1881 c16 -18 19 -18 37 -3 10 9 19 18 19 19 0 2 -16 3 -37 3
-35 0 -36 -1 -19 -19z"/>
<path d="M2605 1870 c-16 -16 -35 -30 -42 -30 -7 0 -10 -6 -7 -14 5 -12 8 -12
23 2 30 29 55 47 81 59 l25 12 -26 0 c-16 1 -36 -10 -54 -29z"/>
<path d="M1102 1856 c0 -20 5 -36 10 -36 6 0 8 6 5 14 -3 8 -1 17 6 19 9 3 7
10 -4 22 -16 16 -17 15 -17 -19z"/>
<path d="M1057 1830 c-16 -19 -16 -22 -1 -45 9 -14 17 -25 18 -25 0 0 1 20 2
45 0 25 0 45 0 45 -1 0 -9 -9 -19 -20z"/>
<path d="M1180 1803 c0 -10 -3 -36 -6 -58 -5 -27 -3 -37 3 -30 14 14 25 105
13 105 -6 0 -10 -8 -10 -17z"/>
<path d="M1219 1798 c0 -2 -4 -39 -9 -83 -5 -44 -16 -104 -24 -133 -14 -50
-13 -82 4 -82 4 0 8 10 8 23 0 12 7 42 16 67 8 25 16 73 17 105 1 33 6 65 11
72 10 13 3 33 -13 33 -5 0 -9 -1 -10 -2z"/>
<path d="M2876 1740 c26 -26 124 -78 124 -65 0 7 -10 15 -23 19 -13 3 -40 17
-61 31 -37 25 -58 33 -40 15z"/>
<path d="M1090 1729 c-13 -9 -13 -10 2 -6 19 7 48 -31 48 -62 0 -11 5 -23 12
-27 8 -5 9 -2 4 11 -4 10 -2 21 4 25 7 4 1 18 -17 38 -31 36 -32 36 -53 21z"/>
<path d="M2430 1718 c0 -15 -3 -35 -7 -45 -6 -15 -4 -16 9 -6 8 7 18 10 21 7
3 -4 4 6 1 22 -7 40 -24 55 -24 22z"/>
<path d="M2628 1708 c3 -12 11 -34 19 -48 16 -31 18 -6 2 39 -12 35 -30 43
-21 9z"/>
<path d="M808 1713 c-10 -2 -18 -8 -18 -13 0 -7 79 6 89 16 5 5 -48 3 -71 -3z"/>
<path d="M2010 1695 c0 -9 6 -12 17 -8 14 5 15 0 10 -37 -4 -29 -2 -39 4 -29
5 7 9 11 9 6 0 -8 -5 -18 -34 -76 -26 -53 -13 -47 34 14 23 31 39 59 36 62 -3
3 1 18 9 33 13 26 13 28 -11 39 -35 16 -74 14 -74 -4z"/>
<path d="M750 1695 c0 -11 34 -75 40 -75 10 0 0 52 -13 68 -9 12 -27 17 -27 7z"/>
<path d="M2817 1637 c15 -18 34 -33 41 -33 7 -1 -2 14 -20 33 -41 43 -59 43
-21 0z"/>
<path d="M1710 1637 c-9 -7 -16 -32 -18 -58 -2 -40 1 -50 22 -67 l25 -19 -28
-27 c-30 -29 -63 -38 -41 -11 10 12 10 15 -4 15 -10 0 -16 -9 -16 -25 0 -14 4
-25 8 -25 4 0 36 20 70 44 62 43 65 56 14 56 -36 0 -42 13 -26 59 18 53 16 75
-6 58z"/>
<path d="M1304 1601 c2 -24 9 -48 15 -54 7 -7 8 2 4 29 -9 58 -25 79 -19 25z"/>
<path d="M2508 1590 c-5 -54 -27 -86 -83 -122 -28 -18 -28 -19 -5 -13 37 10
73 38 89 70 18 37 27 115 14 115 -6 0 -13 -23 -15 -50z"/>
<path d="M958 1588 c7 -7 12 -21 12 -32 0 -17 2 -18 10 -6 17 27 12 50 -12 50
-17 0 -19 -3 -10 -12z"/>
<path d="M2220 1578 c0 -3 12 -30 26 -58 28 -56 72 -84 123 -78 l26 3 -28 27
c-16 15 -26 31 -23 37 4 5 -3 15 -14 21 -25 13 -27 -5 -5 -34 8 -11 15 -25 15
-30 0 -6 -27 18 -60 54 -32 36 -59 62 -60 58z"/>
<path d="M420 1501 c0 -16 25 -30 39 -22 11 7 9 11 -7 20 -25 13 -32 14 -32 2z"/>
<path d="M930 1490 c-22 -22 -18 -49 5 -30 12 10 28 50 19 50 -2 0 -13 -9 -24
-20z"/>
<path d="M2160 1500 c0 -21 33 -75 38 -62 2 8 -1 19 -7 25 -6 6 -11 19 -11 29
0 10 -4 18 -10 18 -5 0 -10 -5 -10 -10z"/>
<path d="M687 1429 c26 -27 51 -58 55 -67 4 -10 7 -11 7 -4 2 23 -27 69 -59
96 -53 44 -55 29 -3 -25z"/>
<path d="M853 1438 c0 -18 -3 -42 -8 -53 -8 -18 -7 -19 8 -6 18 14 24 76 8 86
-5 3 -9 -9 -8 -27z"/>
<path d="M2506 1442 c-8 -15 -23 -36 -35 -46 -34 -31 -24 -39 13 -11 21 16 35
37 38 55 6 37 2 38 -16 2z"/>
<path d="M969 1394 c-12 -27 -29 -58 -38 -68 -14 -16 -14 -18 -1 -14 8 2 20
15 27 29 29 58 43 93 39 97 -3 2 -15 -18 -27 -44z"/>
<path d="M1818 1396 c-16 -19 -28 -40 -28 -47 0 -6 9 0 21 15 11 14 29 26 40
26 14 0 19 6 17 17 -5 28 -22 24 -50 -11z"/>
<path d="M2210 1417 c0 -12 46 -81 64 -96 9 -8 19 -11 22 -8 3 3 -4 14 -16 24
-12 10 -33 34 -46 53 -13 19 -24 31 -24 27z"/>
<path d="M2359 1369 c9 -28 17 -46 19 -40 4 13 -16 79 -27 85 -4 3 0 -18 8
-45z"/>
<path d="M1174 1365 c-46 -48 -46 -49 -41 -102 9 -82 120 -303 153 -303 19 0
19 1 -27 70 -56 85 -99 179 -99 218 0 31 23 90 40 102 12 9 32 51 26 57 -3 3
-26 -16 -52 -42z"/>
<path d="M1435 1380 c3 -14 11 -51 17 -82 13 -63 23 -72 38 -32 13 34 13 39
-4 25 -15 -12 -26 3 -26 37 -1 9 -7 31 -16 47 -12 26 -13 27 -9 5z"/>
<path d="M555 1369 c4 -6 0 -16 -8 -22 -17 -14 -34 -72 -17 -62 10 6 40 70 40
86 0 5 -5 9 -11 9 -5 0 -7 -5 -4 -11z"/>
<path d="M1275 1356 c0 -13 4 -24 9 -23 5 1 11 -4 14 -12 3 -9 0 -11 -8 -6
-10 6 -11 3 -6 -11 8 -18 12 -38 15 -73 1 -19 16 -4 25 26 5 16 2 22 -11 25
-13 3 -7 9 21 21 21 9 41 17 45 17 4 0 18 -30 31 -66 14 -36 27 -67 30 -69 9
-5 304 95 315 107 7 8 5 9 -6 5 -9 -3 -46 -15 -83 -26 -36 -11 -95 -32 -131
-47 -78 -31 -81 -29 -120 61 -19 45 -31 63 -39 57 -18 -15 -69 -24 -61 -12 3
5 12 10 20 10 8 0 16 4 20 9 3 6 -6 6 -24 1 -24 -7 -32 -5 -43 12 -12 19 -13
18 -13 -6z"/>
<path d="M2077 1351 c-3 -11 1 -29 9 -40 15 -21 10 -45 -14 -73 -13 -15 -13
-18 -1 -18 8 0 24 15 35 33 19 29 20 36 8 58 -7 13 -13 32 -14 42 0 23 -16 22
-23 -2z"/>
<path d="M1648 1334 c-64 -33 -61 -49 5 -23 28 12 60 24 70 27 15 4 16 7 5 13
-19 13 -28 11 -80 -17z"/>
<path d="M1087 1280 c-3 -11 0 -53 7 -92 12 -68 13 -71 25 -49 9 17 10 25 2
30 -6 4 -14 34 -17 66 -6 67 -9 75 -17 45z"/>
<path d="M299 1243 c-1 -10 -1 -21 0 -25 0 -4 -15 -14 -34 -22 -49 -21 -44
-28 5 -9 34 14 40 21 40 45 0 30 -9 39 -11 11z"/>
<path d="M749 1245 c-14 -8 -34 -26 -43 -40 l-17 -26 28 14 c30 16 69 54 62
61 -2 2 -16 -2 -30 -9z"/>
<path d="M2216 1237 c-15 -11 -17 -19 -10 -41 9 -27 11 -27 24 -10 9 11 10 15
3 10 -16 -9 -17 6 -2 21 19 19 6 36 -15 20z"/>
<path d="M2345 1230 c-3 -5 -13 -10 -22 -10 -8 0 -26 -9 -40 -20 -29 -23 -17
-28 13 -5 23 17 43 20 26 3 -7 -7 -12 -28 -12 -47 0 -20 -11 -60 -25 -88 -17
-38 -20 -53 -11 -53 11 0 46 71 46 94 0 4 9 19 20 33 21 27 27 48 10 38 -5 -3
-10 -1 -10 4 0 6 6 11 14 11 7 0 21 11 30 25 16 24 16 25 -8 25 -14 0 -28 -4
-31 -10z"/>
<path d="M1850 1225 c0 -4 7 -19 15 -35 14 -28 14 -33 -6 -72 -18 -35 -19 -40
-5 -29 23 19 46 65 46 90 0 11 -7 27 -16 35 -15 16 -34 21 -34 11z"/>
<path d="M624 1185 c-10 -20 -26 -35 -36 -35 -13 0 -18 -8 -18 -30 0 -20 5
-30 15 -30 9 0 15 9 15 24 0 14 5 28 10 31 13 8 43 65 37 71 -2 2 -12 -12 -23
-31z"/>
<path d="M652 1124 c-13 -26 -20 -49 -17 -52 3 -3 5 0 5 6 0 6 12 25 26 42 17
19 23 35 17 41 -5 5 -17 -8 -31 -37z"/>
<path d="M322 1137 c-8 -10 -5 -12 14 -12 13 1 30 7 36 13 9 9 6 12 -14 12
-14 0 -30 -6 -36 -13z"/>
<path d="M1952 1073 c-17 -45 -25 -96 -14 -89 5 3 13 22 16 41 7 34 26 50 26
21 0 -7 9 -25 20 -39 11 -14 20 -33 20 -44 0 -10 9 -31 21 -48 11 -16 25 -41
30 -54 17 -42 19 -16 3 33 -9 26 -23 50 -30 53 -8 3 -14 11 -14 19 0 7 -11 33
-25 58 -14 25 -25 52 -25 60 0 25 -17 18 -28 -11z"/>
<path d="M973 994 c-20 -14 -13 -13 122 5 l60 9 -82 0 c-52 0 -89 -5 -100 -14z"/>
<path d="M1118 970 c-9 -6 -40 -16 -70 -24 -30 -9 -42 -15 -28 -15 14 0 49 8
78 18 44 15 55 16 59 5 3 -8 9 -14 14 -14 6 0 5 9 -1 20 -12 22 -26 25 -52 10z"/>
<path d="M1696 918 c3 -4 -1 -5 -8 -3 -8 3 -29 -6 -48 -20 -31 -23 -35 -24
-51 -9 -18 16 -33 15 -123 -8 -47 -12 -35 -32 19 -34 29 -1 33 2 23 13 -10 12
-3 13 48 8 48 -6 68 -3 108 15 79 34 125 36 166 8 58 -40 66 -42 40 -14 -14
15 -37 34 -51 42 -27 13 -131 15 -123 2z"/>
<path d="M1117 895 c-56 -15 -93 -43 -78 -58 11 -11 100 30 131 59 17 17 10
16 -53 -1z"/>
<path d="M961 871 c-19 -3 -36 -11 -38 -17 -5 -15 33 -24 45 -12 6 6 21 11 33
12 12 0 24 7 27 14 4 13 -10 14 -67 3z"/>
<path d="M1355 852 c-22 -8 -52 -19 -67 -24 -16 -6 -28 -14 -28 -19 0 -12 37
-11 45 1 4 6 11 7 17 4 6 -4 14 -1 18 6 10 17 59 -36 127 -140 56 -85 148
-190 168 -190 5 0 3 5 -5 10 -12 8 -12 10 -1 10 8 0 27 -13 42 -30 16 -17 31
-25 35 -19 3 6 4 11 3 13 -14 9 -98 75 -118 91 -13 11 -48 55 -78 97 -29 42
-74 99 -98 126 -25 28 -45 52 -45 55 0 3 10 7 23 9 12 2 18 6 12 9 -5 3 -28
-1 -50 -9z"/>
<path d="M1148 788 c-8 -13 -30 -52 -48 -88 -18 -36 -36 -67 -41 -70 -17 -12
-59 -82 -59 -100 0 -33 14 -23 37 28 13 26 27 54 32 62 34 52 103 182 99 186
-3 2 -12 -6 -20 -18z"/>
<path d="M2174 701 c3 -18 6 -48 6 -65 0 -23 3 -27 10 -16 11 17 15 13 54 -45
17 -26 26 -33 26 -22 0 25 -46 118 -77 153 l-24 29 5 -34z"/>
<path d="M1317 618 c3 -24 10 -52 15 -63 6 -14 7 -8 3 20 -2 22 -5 50 -5 63 0
12 -4 22 -9 22 -5 0 -7 -19 -4 -42z"/>
<path d="M1236 618 c-3 -13 -7 -45 -10 -73 -5 -48 -5 -49 9 -23 8 14 14 47 13
72 -3 51 -5 57 -12 24z"/>
<path d="M1690 595 c18 -19 35 -33 37 -31 6 5 -50 66 -61 66 -6 0 5 -16 24
-35z"/>
<path d="M881 511 c-19 -10 -36 -26 -37 -36 -3 -22 -65 -77 -121 -107 -61 -32
-57 -52 4 -26 30 13 215 188 198 187 -5 0 -25 -8 -44 -18z"/>
<path d="M2555 506 c-11 -8 -20 -18 -21 -23 0 -4 -4 -16 -8 -26 -11 -23 10
-47 40 -47 17 0 22 4 18 15 -4 8 -10 12 -15 9 -18 -11 -22 27 -4 40 9 7 16 20
14 30 -4 15 -6 15 -24 2z"/>
<path d="M1051 488 c-5 -13 -11 -39 -15 -58 -6 -30 -5 -32 5 -15 12 19 30 95
22 95 -2 0 -7 -10 -12 -22z"/>
<path d="M860 423 c-40 -42 -41 -44 -11 -22 30 22 70 69 59 69 -2 0 -24 -21
-48 -47z"/>
<path d="M2194 414 c-3 -25 -2 -54 2 -65 7 -14 10 -2 11 46 0 36 0 65 -2 65
-2 0 -7 -21 -11 -46z"/>
<path d="M1370 423 c0 -12 41 -114 65 -163 12 -25 26 -58 29 -75 10 -39 66
-158 73 -152 6 7 -93 268 -128 340 -27 53 -39 68 -39 50z"/>
<path d="M2465 375 c-17 -13 -28 -25 -25 -25 44 -10 48 -9 53 18 3 15 4 28 3
29 -1 1 -15 -9 -31 -22z"/>
<path d="M2383 383 c-22 -8 -14 -28 12 -29 21 -2 23 1 14 17 -5 10 -11 19 -12
18 -1 0 -8 -3 -14 -6z"/>
<path d="M2277 362 c-10 -10 -17 -24 -17 -30 0 -7 -4 -12 -10 -12 -5 0 -10 -7
-10 -15 0 -7 -6 -18 -14 -22 -8 -5 -11 -15 -7 -27 6 -15 15 -4 45 53 38 73 41
84 13 53z"/>
<path d="M690 299 c-69 -51 -85 -67 -42 -43 33 19 111 83 102 84 -3 0 -30 -18
-60 -41z"/>
<path d="M2316 325 c-20 -15 -16 -18 19 -16 18 2 18 0 -5 -22 -14 -13 -36 -35
-49 -50 -22 -24 -22 -25 -3 -20 28 7 108 93 88 93 -9 0 -16 7 -16 15 0 19 -9
19 -34 0z"/>
<path d="M1570 222 c0 -12 78 -132 86 -132 3 0 -2 12 -12 28 -10 15 -29 46
-42 70 -23 41 -32 50 -32 34z"/>
<path d="M2112 168 c-26 -24 -49 -44 -51 -45 -2 -2 -2 -5 1 -8 2 -3 29 17 59
45 30 27 51 49 46 50 -4 0 -29 -19 -55 -42z"/>
<path d="M820 74 c-6 -14 -10 -35 -9 -47 l0 -22 9 23 c5 12 16 22 25 22 8 0
15 7 15 16 0 13 -3 14 -14 5 -12 -10 -13 -8 -9 8 8 30 -6 26 -17 -5z"/>
<path d="M2295 89 l-30 -6 28 -8 c28 -8 42 -3 36 12 -2 5 -17 6 -34 2z"/>
<path d="M2116 75 c-3 -8 -13 -15 -23 -15 -10 0 -36 -14 -57 -30 -37 -28 -38
-30 -15 -30 13 0 30 9 37 20 7 11 20 20 30 20 23 0 64 29 57 41 -9 14 -22 11
-29 -6z"/>
<path d="M2258 3 c18 -2 45 -2 60 0 15 2 0 4 -33 4 -33 0 -45 -2 -27 -4z"/>
</g>
</svg>
