<?xml version="1.0" standalone="no"?>
<!DOCTYPE svg PUBLIC "-//W3C//DTD SVG 20010904//EN"
 "http://www.w3.org/TR/2001/REC-SVG-20010904/DTD/svg10.dtd">
<svg version="1.0" xmlns="http://www.w3.org/2000/svg"
 width="300.000000pt" height="401.000000pt" viewBox="0 0 300.000000 401.000000"
 preserveAspectRatio="xMidYMid meet">
<metadata>
Created by potrace 1.10, written by Peter Selinger 2001-2011
</metadata>
<g transform="translate(0.000000,401.000000) scale(0.100000,-0.100000)"
fill="#000000" stroke="none">
<path d="M1412 3865 c-7 -9 -8 -15 -2 -15 5 0 10 -7 10 -15 0 -8 -9 -15 -20
-15 -11 0 -23 -7 -27 -16 -3 -9 -15 -19 -27 -23 -11 -5 -21 -17 -21 -27 0 -12
-8 -20 -22 -22 -28 -4 -29 9 -3 33 19 17 19 35 -2 35 -5 0 -8 -7 -5 -15 4 -8
-4 -22 -18 -34 l-25 -19 26 -6 c14 -4 41 -4 60 0 22 4 34 2 34 -5 0 -6 -11
-11 -24 -11 -13 0 -26 -7 -30 -15 -7 -20 -36 -19 -36 1 0 14 -10 16 -59 12
-33 -2 -58 -1 -55 4 3 4 0 8 -5 8 -6 0 -11 5 -11 12 0 9 3 9 12 0 18 -18 23
-15 24 19 1 20 -2 26 -7 17 -5 -7 -9 -9 -9 -4 0 5 -6 3 -13 -3 -8 -6 -17 -8
-20 -4 -4 3 -5 -8 -3 -25 3 -26 0 -32 -16 -32 -10 0 -22 -10 -27 -22 -5 -13
-19 -32 -31 -43 -24 -22 -49 -62 -32 -51 6 4 16 -2 22 -11 9 -15 10 -14 5 10
-4 22 0 33 22 52 16 14 36 23 45 21 9 -2 19 2 22 9 2 7 18 17 35 23 31 11 31
11 31 -23 0 -36 -16 -57 -60 -80 -17 -9 -30 -25 -33 -45 -5 -23 -12 -30 -31
-30 -31 0 -54 -26 -38 -42 7 -7 12 -21 12 -32 0 -10 3 -16 7 -12 4 4 8 13 8
20 0 23 84 109 100 102 9 -3 15 0 15 9 0 18 20 31 29 18 13 -21 56 -22 81 -3
l25 19 -23 23 c-12 14 -22 29 -22 34 0 12 67 36 103 37 15 0 27 4 27 9 0 5 6
6 13 2 6 -4 4 2 -6 13 -10 12 -29 24 -42 27 -12 3 -25 13 -29 21 -4 12 0 14
19 11 21 -4 25 -1 25 20 0 13 4 24 9 24 14 0 29 -24 26 -42 -2 -9 3 -19 11
-22 8 -3 14 -10 14 -15 0 -6 -7 -8 -15 -5 -26 11 -16 -11 12 -23 15 -7 27 -12
28 -10 1 1 0 22 -3 46 -3 33 -9 45 -24 49 -16 4 -19 11 -14 33 3 16 1 29 -4
29 -5 0 -7 7 -4 15 8 19 3 19 -14 0z m-148 -237 c25 -38 16 -59 -21 -49 -27 7
-28 10 -24 57 4 58 14 79 21 44 3 -14 13 -37 24 -52z"/>
<path d="M1251 3846 c-13 -14 -29 -22 -37 -19 -8 3 -14 -1 -14 -11 0 -9 -6
-16 -12 -16 -10 0 -10 -2 -1 -8 7 -5 14 -20 15 -35 2 -20 8 -27 23 -27 11 0
15 4 10 8 -12 8 -15 73 -4 66 4 -2 10 0 14 6 4 6 11 8 16 5 5 -4 12 1 15 9 3
9 10 13 15 10 14 -8 10 12 -4 25 -11 8 -19 5 -36 -13z"/>
<path d="M1503 3613 c-7 -2 -13 -11 -13 -19 0 -9 -4 -13 -9 -10 -5 3 -14 -1
-21 -9 -10 -12 -10 -15 3 -15 8 0 20 7 27 15 7 8 17 12 24 8 6 -3 8 -3 4 2 -4
4 -3 14 3 22 12 13 5 16 -18 6z"/>
<path d="M1485 3539 l-30 -19 33 0 c17 0 32 2 32 4 0 2 3 11 6 20 8 21 -4 19
-41 -5z"/>
<path d="M1550 3495 c-7 -9 -19 -14 -27 -11 -9 4 -13 -3 -13 -23 0 -29 1 -29
35 -18 29 9 35 15 35 39 0 31 -11 36 -30 13z"/>
<path d="M984 3442 c-23 -20 -33 -38 -37 -70 -4 -36 -3 -43 10 -38 12 5 14 1
9 -18 -4 -18 -1 -26 11 -29 15 -4 15 -5 2 -6 -11 -1 -19 -14 -23 -42 -6 -35
-9 -39 -27 -34 -15 5 -19 4 -15 -4 12 -20 35 -12 58 20 13 17 22 35 21 40 -2
5 2 9 7 9 6 0 10 -4 10 -10 0 -5 3 -9 8 -9 19 3 25 -2 12 -11 -13 -8 -13 -10
2 -10 9 0 18 6 20 12 3 9 9 8 22 -5 20 -19 36 -22 36 -6 0 5 4 8 9 5 13 -8 37
26 39 53 0 13 5 27 11 30 6 4 4 15 -3 30 -11 20 -14 21 -20 6 -3 -9 -4 -21 0
-26 3 -5 1 -9 -4 -9 -5 0 -12 -13 -15 -30 -5 -21 -12 -30 -27 -30 -12 0 -20 7
-20 18 0 10 -3 13 -8 6 -4 -6 -20 -11 -37 -10 -24 1 -30 5 -28 21 1 11 -3 22
-8 26 -6 3 -7 23 -3 47 5 32 11 42 31 47 22 5 23 8 10 18 -8 7 -16 18 -18 24
-3 9 -15 3 -35 -15z"/>
<path d="M1467 3464 c-3 -3 -3 -16 -1 -30 4 -22 2 -23 -26 -18 -31 7 -36 0
-21 -25 7 -11 10 -11 17 2 6 10 14 13 23 8 10 -7 11 -13 1 -30 -6 -12 -9 -27
-7 -34 3 -7 12 6 22 28 13 30 14 44 6 57 -7 11 -7 18 -1 18 5 0 10 7 10 15 0
15 -12 20 -23 9z"/>
<path d="M1330 3320 c-9 -30 -7 -41 8 -36 12 4 12 2 -3 -9 -11 -9 -30 -18 -41
-21 -13 -3 -24 -16 -27 -30 -4 -21 -1 -23 19 -18 16 4 24 2 24 -6 0 -7 8 -4
19 8 10 12 22 18 27 14 4 -4 2 1 -6 12 -13 16 -12 20 5 32 10 8 15 14 9 14 -5
0 -3 4 5 9 7 5 10 14 6 20 -5 9 -10 9 -20 1 -10 -8 -14 -7 -18 2 -3 7 -6 11
-7 8z"/>
<path d="M845 3291 c3 -5 -4 -12 -15 -16 -11 -3 -20 -11 -20 -16 0 -6 5 -7 10
-4 6 3 10 2 10 -4 0 -5 -6 -12 -12 -14 -8 -3 -6 -6 5 -6 9 -1 17 6 17 14 0 8
4 15 9 15 5 0 11 9 14 20 3 13 0 20 -10 20 -8 0 -12 -4 -8 -9z"/>
<path d="M1184 3229 c-4 -7 -9 -44 -10 -83 -3 -46 -1 -64 5 -51 5 11 9 40 9
65 1 24 6 46 11 48 14 5 15 32 2 32 -6 0 -13 -5 -17 -11z"/>
<path d="M1071 3203 c8 -9 9 -14 3 -10 -7 4 -15 -1 -19 -10 -3 -10 -1 -19 4
-21 6 -2 11 -21 11 -43 0 -38 1 -39 28 -33 36 9 43 14 37 25 -4 5 -1 9 6 9 7
0 4 6 -7 14 -12 9 -23 11 -30 5 -8 -6 -14 -4 -18 8 -4 10 -3 19 2 21 15 5 1
52 -15 52 -13 0 -13 -2 -2 -17z"/>
<path d="M872 3184 c-8 -8 -10 -23 -7 -35 5 -15 4 -19 -4 -15 -6 4 -11 1 -11
-8 0 -23 28 -8 32 17 4 29 26 33 36 7 8 -21 10 -21 24 -6 19 18 38 21 38 6 0
-5 8 -10 18 -10 15 1 15 2 -3 16 -11 8 -28 13 -39 10 -10 -3 -28 4 -39 15 -25
23 -28 23 -45 3z"/>
<path d="M1007 3186 c-4 -11 -1 -13 10 -9 12 5 14 1 9 -15 -4 -11 -2 -23 4
-27 6 -4 10 7 10 29 0 37 -22 51 -33 22z"/>
<path d="M1218 3183 c-7 -36 4 -74 19 -68 10 3 13 1 10 -7 -3 -9 6 -13 29 -14
19 0 30 4 27 9 -4 6 10 8 36 4 53 -7 78 0 84 24 6 24 2 24 -22 0 -17 -17 -24
-18 -50 -8 -17 6 -27 14 -22 17 5 3 3 11 -5 18 -12 11 -14 10 -15 -5 0 -10 -3
-13 -5 -6 -3 7 -12 9 -21 6 -10 -4 -14 -2 -10 4 4 6 -4 18 -18 27 -30 20 -33
20 -37 -1z m36 -23 c12 -25 12 -30 1 -30 -17 0 -34 30 -28 48 7 18 10 15 27
-18z"/>
<path d="M1353 3193 c4 -3 -1 -12 -11 -20 -9 -8 -11 -12 -4 -8 6 3 12 1 12 -6
0 -7 7 -4 15 7 14 19 14 19 15 -3 0 -12 -6 -24 -12 -26 -8 -3 -6 -6 5 -6 23
-1 24 54 1 63 -20 8 -29 8 -21 -1z"/>
<path d="M997 3113 c-8 -10 -19 -30 -22 -45 -4 -16 -11 -28 -16 -28 -5 0 -9
-5 -9 -12 0 -21 40 25 49 56 4 17 14 30 20 28 7 -1 10 2 6 8 -8 13 -9 13 -28
-7z"/>
<path d="M824 3064 c-4 -31 -9 -42 -15 -33 -14 22 -10 5 6 -35 9 -21 20 -36
26 -34 13 4 11 24 -2 21 -14 -4 -11 15 4 20 9 4 9 8 -1 15 -11 7 -10 10 3 16
10 3 31 -2 50 -14 44 -27 53 -25 25 5 -12 13 -27 22 -33 18 -6 -4 -7 -1 -2 6
7 12 -30 61 -46 61 -4 0 -11 -21 -15 -46z"/>
<path d="M1427 3094 c-4 -4 -16 -7 -27 -8 -22 -1 -29 -18 -9 -25 7 -2 9 1 5 8
-4 6 -2 9 7 5 8 -3 20 2 27 11 12 14 10 22 -3 9z"/>
<path d="M1190 3057 c-7 -15 -10 -30 -5 -35 4 -4 10 -1 13 7 4 11 6 11 13 0 7
-12 9 -11 8 1 0 8 -4 24 -8 35 -8 19 -9 18 -21 -8z"/>
<path d="M1350 3060 c0 -5 5 -10 11 -10 5 0 8 -4 4 -9 -3 -6 4 -9 15 -8 11 1
20 4 20 8 0 4 6 9 13 12 6 2 3 3 -7 1 -11 -2 -28 1 -38 7 -12 6 -18 6 -18 -1z"/>
<path d="M1128 3052 c-10 -2 -19 -8 -19 -13 -1 -5 -2 -15 -3 -21 -3 -19 16
-58 27 -58 5 0 7 9 4 20 -3 11 -1 20 4 20 5 0 9 7 9 15 0 9 -6 12 -17 8 -15
-5 -14 -3 2 10 22 17 19 25 -7 19z"/>
<path d="M1317 3033 c-13 -12 -7 -22 8 -17 11 5 13 2 9 -10 -3 -9 -2 -16 4
-16 19 0 42 12 42 22 0 5 -5 6 -11 3 -5 -4 -18 0 -28 9 -10 9 -21 13 -24 9z"/>
<path d="M1420 3030 c0 -5 -7 -10 -15 -10 -18 0 -19 -12 -3 -28 15 -15 38 -16
38 -1 0 6 -7 9 -14 6 -10 -4 -13 -1 -9 9 3 7 9 14 14 14 5 0 9 5 9 10 0 6 -4
10 -10 10 -5 0 -10 -4 -10 -10z"/>
<path d="M1449 3023 c-1 -10 0 -22 1 -28 2 -5 2 -21 1 -34 -1 -24 -1 -24 13
-6 9 12 11 24 6 30 -5 6 -7 21 -3 33 3 13 1 22 -6 22 -6 0 -12 -8 -12 -17z"/>
<path d="M1486 3001 c4 -44 14 -70 14 -38 0 10 5 17 11 17 5 0 8 -4 5 -9 -4
-5 3 -7 14 -4 11 3 20 12 20 20 0 10 7 14 20 10 11 -3 18 -1 14 4 -3 5 0 9 5
9 6 0 11 4 11 8 0 5 -7 9 -15 9 -8 0 -11 -5 -8 -10 4 -6 -2 -8 -15 -5 -12 4
-20 1 -19 -4 1 -6 -11 -12 -28 -15 -18 -2 -25 0 -18 5 10 6 10 12 -1 28 -13
17 -14 15 -10 -25z"/>
<path d="M1000 3003 c0 -26 0 -26 22 -7 12 10 18 14 15 7 -4 -6 -1 -13 5 -16
8 -3 1 -9 -15 -16 -15 -6 -30 -18 -33 -26 -9 -23 -34 -19 -29 5 2 11 0 20 -4
20 -9 0 -22 -92 -15 -99 2 -2 12 3 22 12 10 10 22 14 25 10 4 -3 7 6 7 20 0
24 4 28 25 27 15 -1 35 32 35 59 0 28 -3 31 -30 31 -26 0 -30 -4 -30 -27z"/>
<path d="M1650 3000 c0 -7 -7 -10 -15 -6 -8 3 -15 0 -15 -5 0 -6 9 -9 19 -6
14 3 21 -2 25 -17 5 -16 8 -18 15 -7 7 11 9 11 14 0 4 -11 6 -11 6 -1 1 7 6
10 11 7 6 -3 10 -1 10 4 0 6 -9 11 -19 11 -11 0 -27 7 -35 16 -10 10 -16 11
-16 4z"/>
<path d="M763 2964 c4 -23 3 -33 -2 -26 -6 10 -10 3 -15 -22 -4 -20 -12 -36
-17 -36 -6 0 -8 -9 -4 -19 7 -23 -13 -39 -21 -16 -6 14 -8 14 -20 -2 -7 -10
-14 -26 -14 -36 0 -10 -4 -15 -10 -12 -5 3 -10 -4 -10 -15 0 -14 -8 -24 -21
-27 -14 -4 -19 -12 -16 -24 3 -11 1 -19 -4 -19 -5 0 -9 -5 -9 -11 0 -5 6 -7
13 -3 8 5 8 3 -2 -9 -11 -14 -11 -18 2 -22 21 -8 61 33 78 78 7 20 23 44 35
52 12 8 25 28 29 45 6 28 10 31 32 25 22 -5 25 -3 20 15 -3 13 2 28 16 40 18
17 16 22 -9 19 -14 -2 -23 26 -11 33 14 8 9 13 -22 23 -23 7 -24 6 -18 -31z"/>
<path d="M1827 2979 c-6 -22 3 -25 21 -7 16 16 15 -1 -2 -34 -12 -23 -12 -27
4 -31 15 -4 18 3 18 38 1 34 -3 44 -18 48 -12 3 -20 -2 -23 -14z"/>
<path d="M1334 2967 c-7 -19 16 -65 51 -100 25 -24 25 -32 3 -28 -4 0 -4 -7
-1 -17 6 -14 4 -15 -9 -4 -10 8 -14 21 -10 35 5 21 5 21 -15 -2 -26 -32 -49
-22 -56 26 -5 29 -3 41 9 50 20 15 11 45 -11 37 -8 -3 -15 -15 -15 -25 0 -10
-5 -19 -10 -19 -13 0 -3 -43 22 -92 l18 -38 21 21 c16 16 23 18 35 8 12 -10
12 -14 2 -20 -7 -5 -8 -9 -3 -9 6 1 19 7 29 15 11 8 16 15 12 15 -5 0 -3 6 3
14 9 10 8 16 -4 26 -9 7 -13 22 -10 34 3 12 2 15 -1 8 -8 -18 -33 15 -34 45 0
27 -18 40 -26 20z"/>
<path d="M1609 2955 c0 -11 -3 -14 -6 -7 -6 14 -33 16 -33 2 0 -5 5 -10 10
-10 6 0 10 -4 10 -10 0 -14 -27 -12 -33 3 -3 7 -6 5 -6 -5 -1 -10 -9 -18 -18
-19 -23 -1 -45 -5 -73 -14 -15 -5 -20 -4 -16 4 4 6 3 11 -2 11 -14 0 -22 -25
-15 -49 4 -17 7 -18 19 -6 8 7 14 18 14 23 0 5 30 12 68 16 37 4 72 10 78 14
16 11 23 37 13 53 -7 11 -9 10 -10 -6z"/>
<path d="M1036 2917 c-14 -19 -26 -38 -26 -43 0 -5 4 -3 8 4 11 16 39 6 45
-16 4 -16 5 -16 6 -1 1 19 31 35 31 17 0 -6 2 -9 5 -6 4 3 -5 22 -19 42 l-25
37 -25 -34z"/>
<path d="M1682 2924 c-7 -8 -18 -11 -24 -8 -7 4 -8 2 -4 -5 5 -7 -7 -28 -28
-51 -20 -22 -36 -48 -36 -58 0 -9 -3 -28 -7 -41 -5 -18 12 -6 65 47 69 68 85
92 61 92 -6 0 -9 9 -6 20 6 23 -3 25 -21 4z m18 -31 c-1 -15 -78 -98 -85 -91
-4 4 10 27 31 52 36 43 54 56 54 39z"/>
<path d="M878 2903 c-2 -18 -1 -33 4 -33 4 0 8 5 8 10 0 6 9 10 20 10 18 0 19
3 8 20 -8 12 -15 15 -19 8 -4 -7 -8 -6 -11 3 -3 8 -7 -1 -10 -18z"/>
<path d="M2143 2880 c-6 -22 -23 -27 -23 -7 0 7 -9 13 -20 13 -28 0 -25 -11 7
-25 23 -11 29 -10 40 5 14 19 17 34 7 34 -3 0 -8 -9 -11 -20z"/>
<path d="M1742 2865 c0 -11 0 -22 -1 -25 -1 -3 -3 -26 -5 -51 -3 -44 -3 -46
14 -30 10 9 13 20 9 26 -12 12 -12 55 0 55 4 0 6 -10 4 -23 -4 -18 0 -23 18
-24 16 -2 19 1 10 10 -6 6 -11 21 -11 34 0 15 -5 21 -14 17 -8 -3 -16 2 -19
13 -5 16 -6 16 -5 -2z"/>
<path d="M1478 2837 c-12 -10 -16 -28 -15 -85 1 -40 -1 -72 -5 -72 -5 0 -8
-11 -8 -25 0 -31 3 -31 46 3 35 28 47 50 17 34 -27 -16 -49 13 -36 48 7 19 7
32 1 38 -6 6 -7 16 -3 22 6 9 10 8 17 -4 5 -9 13 -16 17 -16 18 0 19 30 3 49
-14 17 -20 18 -34 8z"/>
<path d="M1815 2841 c3 -5 1 -12 -3 -15 -5 -3 -7 -17 -4 -31 2 -15 0 -25 -7
-25 -7 0 -9 -5 -6 -11 5 -6 12 -4 22 8 14 17 14 17 9 0 -3 -11 -2 -16 4 -12
15 9 12 24 -7 43 -15 16 -15 17 0 20 17 3 13 32 -5 32 -5 0 -7 -4 -3 -9z"/>
<path d="M1322 2772 c-11 -11 -23 -18 -26 -14 -3 3 -6 1 -6 -5 0 -6 7 -14 16
-17 8 -3 13 -2 10 3 -3 5 1 12 10 15 12 4 15 2 10 -9 -3 -9 0 -15 11 -15 13 0
14 -2 2 -17 -13 -16 -12 -17 4 -4 17 14 18 11 16 -45 -1 -32 -6 -72 -10 -87
-6 -20 -5 -27 4 -24 7 2 12 9 12 14 0 6 3 14 7 18 4 4 4 13 1 21 -3 9 1 14 12
14 13 0 15 3 7 13 -14 18 -21 77 -8 77 6 0 0 6 -14 13 -15 8 -25 21 -25 34 -1
33 -11 37 -33 15z"/>
<path d="M268 2740 c-8 -20 -20 -30 -34 -30 -12 0 -24 -7 -27 -15 -7 -16 9
-30 17 -16 11 17 106 60 106 47 0 -7 -5 -17 -11 -23 -8 -8 -7 -13 1 -18 16
-10 26 3 34 41 7 29 5 31 -17 27 -14 -3 -28 0 -31 6 -12 18 -24 12 -38 -19z"/>
<path d="M376 2741 c-4 -6 -2 -29 5 -51 9 -31 9 -46 1 -66 -7 -14 -8 -23 -2
-19 5 3 10 1 10 -5 0 -7 -8 -9 -22 -4 -27 8 -40 24 -33 41 2 6 -3 17 -10 23
-24 20 -30 -15 -8 -52 19 -33 84 -73 93 -58 3 4 11 2 17 -6 8 -8 9 -15 3 -19
-17 -10 -12 -45 5 -39 18 7 21 -26 3 -44 -8 -8 -8 -12 -1 -12 6 0 20 16 32 35
11 19 25 35 31 35 23 0 8 18 -20 24 -16 3 -30 11 -30 17 0 7 -11 27 -25 44
-18 25 -23 40 -19 66 6 37 -18 109 -30 90z"/>
<path d="M1840 2735 c0 -8 -4 -15 -10 -15 -5 0 -10 -4 -10 -10 0 -5 7 -7 15
-4 10 4 13 -1 12 -22 -1 -15 3 -29 10 -31 8 -3 11 7 10 30 -1 19 -6 32 -11 29
-5 -3 -7 5 -4 16 4 12 2 22 -3 22 -5 0 -9 -7 -9 -15z"/>
<path d="M1425 2655 c0 -25 3 -45 8 -45 4 0 7 20 7 45 0 25 -3 45 -7 45 -5 0
-8 -20 -8 -45z"/>
<path d="M166 2626 c-33 -56 -44 -110 -26 -131 15 -18 30 -19 30 -2 0 27 71
126 98 135 l27 10 -27 1 c-15 1 -30 6 -33 12 -4 6 -13 8 -20 5 -8 -3 -15 0
-17 6 -2 6 -17 -10 -32 -36z"/>
<path d="M1297 2645 c-9 -8 -23 -15 -32 -15 -12 0 -15 -5 -10 -21 6 -19 4 -21
-14 -16 -12 3 -21 0 -21 -6 1 -19 26 -47 35 -39 4 4 2 -4 -4 -16 -18 -34 -7
-38 32 -13 25 15 35 28 35 47 0 14 -4 21 -8 15 -3 -7 -14 -9 -23 -5 -13 5 -16
2 -11 -10 5 -12 2 -15 -10 -10 -20 8 -20 9 0 39 15 23 43 37 29 15 -3 -5 -2
-10 4 -10 16 0 24 22 11 30 -9 6 -9 9 1 12 8 3 11 8 8 12 -4 4 -14 0 -22 -9z"/>
<path d="M1883 2630 c3 -13 -2 -25 -16 -36 -20 -14 -20 -15 -3 -12 28 5 29
-14 2 -44 -26 -27 -24 -48 1 -22 9 8 23 12 32 9 9 -4 21 -7 26 -8 6 -1 13 -9
17 -17 5 -12 7 -12 7 2 1 9 -5 21 -12 25 -18 12 -37 59 -37 93 0 17 -5 30 -11
30 -6 0 -9 -9 -6 -20z"/>
<path d="M633 2623 c-7 -2 -13 -11 -13 -19 0 -8 -9 -23 -21 -35 -11 -11 -22
-38 -25 -62 -3 -23 -7 -50 -10 -59 -3 -10 -1 -18 5 -18 6 0 11 9 11 20 0 12 7
20 18 20 16 1 16 2 0 13 -15 12 -13 17 15 61 l32 48 26 -30 c15 -17 30 -28 33
-25 13 13 17 -29 6 -62 -9 -28 -44 -62 -57 -58 -13 5 -43 -13 -43 -25 0 -11
-5 -9 -20 8 -11 13 -20 18 -20 11 0 -7 -4 -9 -10 -6 -5 3 -10 1 -10 -5 0 -7 7
-10 15 -7 11 5 12 1 5 -19 l-10 -25 48 25 c26 14 59 30 75 36 15 5 30 18 33
27 3 10 14 37 25 61 10 23 19 45 19 47 0 3 -13 5 -30 5 -17 0 -31 6 -32 13 -7
60 -25 77 -65 60z"/>
<path d="M1811 2602 c-1 -19 30 -63 40 -56 14 9 10 24 -6 24 -9 0 -20 10 -25
23 -5 12 -9 16 -9 9z"/>
<path d="M1523 2593 c-7 -2 -13 -15 -13 -29 0 -18 4 -22 17 -17 10 4 12 8 6
10 -7 3 -9 11 -6 19 3 7 9 11 14 8 5 -3 9 0 9 5 0 12 -7 13 -27 4z"/>
<path d="M327 2543 c5 -12 3 -14 -7 -8 -9 5 -11 4 -6 -4 4 -6 12 -9 17 -6 5 4
9 -1 9 -9 0 -9 5 -16 10 -16 14 0 13 33 -2 48 -17 17 -28 15 -21 -5z"/>
<path d="M1485 2520 c-22 -11 -32 -19 -23 -20 9 0 20 5 23 10 3 6 11 10 17 10
7 0 6 -6 -2 -15 -18 -21 3 -19 28 4 42 36 20 41 -43 11z"/>
<path d="M1118 2513 c6 -2 12 -16 12 -29 0 -17 -6 -24 -19 -24 -11 0 -22 -3
-24 -7 -3 -5 16 -6 41 -4 26 3 39 6 30 9 -26 5 -22 22 6 22 19 0 22 -4 19 -23
-3 -14 3 -29 15 -40 18 -16 20 -16 38 4 19 21 19 21 -1 17 -11 -2 -19 -11 -17
-19 2 -8 0 -11 -4 -6 -8 7 -14 44 -14 85 0 26 -20 30 -21 5 0 -15 -2 -15 -9 2
-7 17 -9 17 -9 3 -1 -10 -5 -18 -11 -18 -5 0 -7 7 -4 15 5 11 0 15 -17 14 -13
0 -18 -3 -11 -6z"/>
<path d="M1739 2518 c-1 -2 -2 -18 -4 -35 -2 -23 2 -33 11 -33 8 0 17 -7 20
-15 9 -24 24 -18 24 10 0 14 -9 30 -19 37 -10 6 -17 18 -14 25 4 10 -14 21
-18 11z"/>
<path d="M1895 2484 c-20 -16 -19 -16 4 -9 16 5 21 4 17 -4 -7 -11 6 -16 17
-5 7 7 -2 34 -12 34 -3 0 -15 -8 -26 -16z"/>
<path d="M1836 2428 c-9 -20 -15 -26 -15 -15 -1 24 -21 22 -21 -2 0 -15 5 -19
22 -16 24 5 38 22 38 48 0 26 -8 21 -24 -15z"/>
<path d="M1886 2387 c4 -28 3 -29 -6 -9 -12 27 -30 20 -29 -11 0 -21 1 -21 9
-2 8 19 9 19 9 -2 1 -28 31 -20 31 9 0 10 5 16 10 13 6 -4 8 -10 5 -15 -3 -4
2 -10 10 -14 8 -3 15 0 15 7 0 8 4 7 10 -3 5 -8 12 -11 15 -8 10 10 -4 28 -21
28 -8 0 -14 5 -14 11 0 5 4 7 10 4 6 -4 7 1 3 11 -4 10 -8 13 -11 6 -2 -7 -11
-8 -27 -2 -23 9 -24 8 -19 -23z"/>
<path d="M1993 2362 c-3 -9 -8 -21 -11 -26 -2 -4 5 -5 17 -1 15 5 21 2 21 -9
0 -18 15 -21 25 -6 8 13 -11 46 -30 54 -10 3 -18 -1 -22 -12z"/>
<path d="M2849 2364 c17 -36 33 -42 69 -28 30 13 44 34 22 34 -5 0 -10 -6 -10
-12 0 -10 -3 -9 -9 1 -6 9 -11 10 -15 2 -11 -17 -37 -13 -53 7 -13 16 -13 15
-4 -4z"/>
<path d="M1176 2322 c-6 -10 3 -22 28 -42 18 -13 19 -13 11 0 -5 8 -8 23 -7
33 3 17 -22 25 -32 9z"/>
<path d="M2100 2300 c0 -17 4 -21 20 -17 10 3 21 0 24 -7 2 -6 5 -1 5 12 1 12
-3 22 -8 22 -5 0 -16 3 -25 6 -12 4 -16 0 -16 -16z"/>
<path d="M1790 2294 c0 -10 -6 -14 -14 -11 -21 8 -44 -22 -26 -33 19 -12 50
11 50 37 0 13 -2 23 -5 23 -3 0 -5 -7 -5 -16z"/>
<path d="M1828 2250 c-10 -11 -25 -20 -33 -20 -8 0 -15 -5 -15 -11 0 -5 5 -7
10 -4 6 3 10 -4 11 -17 1 -23 1 -23 9 2 5 16 8 19 9 8 1 -14 5 -13 26 8 14 14
25 30 25 37 0 8 -3 7 -9 -2 -7 -11 -10 -11 -12 3 -4 15 -6 15 -21 -4z"/>
<path d="M2666 2234 c-25 -26 -36 -51 -16 -39 11 7 53 65 47 65 -2 0 -16 -12
-31 -26z"/>
<path d="M795 2229 c-4 -13 -10 -17 -14 -11 -4 6 -12 7 -20 3 -9 -6 -6 -10 13
-15 14 -3 26 -11 26 -17 0 -6 -5 -7 -12 -3 -7 4 -8 3 -4 -4 14 -23 26 -12 24
21 -3 31 -2 32 42 38 l45 6 -47 1 c-40 2 -48 -1 -53 -19z"/>
<path d="M1720 2162 c0 -27 10 -52 21 -52 5 0 9 7 9 15 0 8 -6 15 -12 15 -10
0 -10 2 0 9 10 6 10 10 -3 21 -13 10 -15 9 -15 -8z"/>
<path d="M1905 2150 c-3 -5 -16 -10 -28 -10 -17 0 -19 -2 -8 -9 9 -6 23 -5 35
1 18 10 19 9 9 -4 -10 -11 -10 -17 -1 -26 9 -9 9 -12 -1 -12 -11 0 -11 -3 -1
-15 7 -8 10 -22 6 -30 -3 -8 -1 -15 5 -15 6 0 10 10 9 23 -4 40 0 47 25 57 17
6 23 14 18 25 -4 12 -9 13 -16 6 -15 -15 -27 -14 -27 4 0 17 -16 20 -25 5z"/>
<path d="M2010 2113 c0 -9 -7 -25 -17 -35 -9 -11 -11 -18 -5 -18 7 0 12 -4 12
-10 0 -5 -5 -9 -12 -7 -6 1 -13 -6 -14 -16 -1 -10 0 -12 3 -3 2 8 10 13 18 10
7 -3 16 0 20 6 5 8 11 5 21 -7 13 -17 13 -17 14 5 0 12 5 22 10 22 18 0 11 26
-13 48 -28 26 -37 28 -37 5z"/>
<path d="M2185 2051 c0 -27 3 -53 8 -57 6 -6 10 26 6 52 0 4 5 10 12 14 15 10
5 40 -13 40 -9 0 -13 -16 -13 -49z"/>
<path d="M2767 2094 c-4 -4 -7 -22 -7 -40 0 -28 -4 -32 -32 -37 -41 -6 -48 -2
-48 29 0 30 -11 31 -29 3 -11 -19 -11 -21 3 -16 22 9 20 1 -5 -24 -26 -26 -20
-33 17 -18 16 6 50 8 76 5 34 -5 50 -3 61 9 15 14 33 72 25 80 -8 9 -54 15
-61 9z m24 -77 c-13 -13 -15 21 -3 50 6 15 8 13 10 -11 2 -16 -1 -33 -7 -39z"/>
<path d="M763 2066 c2 -6 13 -16 25 -22 12 -6 20 -14 17 -17 -3 -4 -2 -5 2 -2
3 3 7 16 8 29 0 21 -4 24 -28 24 -15 -1 -26 -6 -24 -12z"/>
<path d="M2625 2056 c-9 -13 -29 -26 -45 -30 -24 -4 -30 -11 -30 -31 0 -39
-18 -67 -39 -60 -11 3 -25 -3 -37 -17 -10 -13 -12 -17 -4 -10 8 6 23 12 35 12
19 0 18 -2 -5 -20 -14 -11 -32 -19 -40 -19 -29 2 -35 -1 -20 -11 8 -5 10 -10
3 -10 -6 0 -9 -9 -6 -20 7 -25 23 -26 23 -2 0 9 25 37 55 60 53 41 55 46 49
78 -6 33 7 47 21 24 9 -15 20 -5 44 40 23 44 20 54 -4 16z"/>
<path d="M725 1972 c-10 -76 -11 -114 -4 -152 5 -28 7 -22 8 30 1 73 6 117 16
141 3 10 2 20 -3 23 -6 3 -13 -15 -17 -42z"/>
<path d="M851 1993 c-6 -10 -11 -14 -11 -9 0 6 -6 1 -14 -10 -10 -13 -11 -23
-4 -31 7 -9 7 -17 1 -25 -13 -17 -13 -48 1 -48 5 0 22 12 37 26 24 23 26 28
13 41 -15 16 -20 38 -5 29 4 -3 6 6 3 19 -5 30 -8 31 -21 8z"/>
<path d="M2118 1982 c-21 -10 -38 -24 -38 -32 0 -9 3 -11 8 -5 4 6 17 15 29
22 17 10 23 10 26 0 3 -7 6 -5 6 5 1 9 7 19 14 21 6 3 8 5 2 5 -5 0 -27 -7
-47 -16z"/>
<path d="M1078 1910 c-26 -16 -54 -27 -63 -24 -10 4 -15 0 -15 -11 0 -11 -5
-15 -14 -12 -10 4 -13 1 -9 -9 3 -9 -5 -27 -19 -42 -14 -15 -29 -40 -33 -57
l-9 -30 -7 35 c-7 35 -7 35 -6 -7 0 -24 4 -43 7 -43 12 0 30 24 30 41 0 25 93
123 145 154 25 14 45 28 45 30 0 7 -2 7 -52 -25z"/>
<path d="M2320 1930 c-12 -8 -9 -10 13 -10 15 0 30 0 34 -1 4 0 9 4 11 10 5
14 -38 14 -58 1z"/>
<path d="M897 1857 c-8 -52 -11 -58 -28 -54 -16 4 -18 3 -9 -8 13 -16 4 -39
-11 -29 -5 3 -6 10 -3 16 4 7 2 8 -4 4 -19 -12 -32 -78 -25 -134 l6 -53 20 33
c12 21 15 34 8 36 -15 5 -14 69 2 79 30 19 58 82 55 125 -3 43 -3 43 -11 -15z"/>
<path d="M1870 1874 c0 -11 42 -65 47 -61 7 8 -26 67 -37 67 -6 0 -10 -3 -10
-6z"/>
<path d="M2023 1861 c-10 -16 -8 -22 11 -40 l23 -21 11 24 c9 20 8 23 -6 22
-10 -1 -16 6 -16 17 2 22 -8 22 -23 -2z"/>
<path d="M2330 1825 c10 -12 10 -15 -4 -15 -9 0 -16 -5 -16 -11 0 -5 -4 -7
-10 -4 -5 3 -7 0 -4 -9 5 -13 9 -12 27 4 11 11 24 20 29 20 4 0 8 5 8 11 0 5
-4 7 -10 4 -5 -3 -10 -1 -10 4 0 6 -5 11 -11 11 -8 0 -8 -5 1 -15z"/>
<path d="M2120 1807 c0 -8 -9 -22 -20 -32 -11 -10 -20 -25 -20 -34 1 -12 3
-12 12 4 6 11 17 25 23 30 17 14 27 45 15 45 -6 0 -10 -6 -10 -13z"/>
<path d="M688 1785 c5 -26 16 -32 27 -15 3 6 2 10 -4 10 -6 0 -8 7 -5 15 4 9
0 15 -9 15 -10 0 -13 -8 -9 -25z"/>
<path d="M1305 1765 l-30 -14 45 2 c25 1 44 7 43 12 -3 15 -25 15 -58 0z"/>
<path d="M2032 1741 c-18 -34 -19 -41 -6 -52 12 -10 13 -9 8 4 -3 8 0 26 7 39
13 23 20 48 14 48 -2 0 -12 -18 -23 -39z"/>
<path d="M1852 1755 c4 -5 26 -16 48 -26 33 -15 40 -16 40 -4 0 8 -12 17 -27
21 -16 3 -37 8 -48 11 -11 3 -17 2 -13 -2z"/>
<path d="M1032 1695 c-23 -33 -28 -45 -16 -45 8 0 13 4 10 9 -4 5 -3 11 1 13
9 3 47 68 40 68 -2 0 -17 -20 -35 -45z"/>
<path d="M2096 1722 c-3 -6 5 -35 20 -64 15 -29 38 -82 51 -118 35 -92 43 -99
64 -58 19 35 26 66 8 36 -16 -29 -29 -21 -29 18 0 27 -4 35 -14 31 -17 -7 -70
96 -68 131 1 13 -2 21 -7 17 -5 -3 -11 0 -13 7 -3 9 -6 9 -12 0z"/>
<path d="M714 1675 c0 -24 2 -45 3 -45 1 0 7 9 13 19 7 14 6 27 -4 45 -13 26
-13 26 -12 -19z"/>
<path d="M1860 1714 c0 -4 8 -13 18 -20 15 -12 11 -13 -26 -10 -58 6 -45 -5
19 -15 31 -5 62 -17 77 -31 14 -13 22 -17 17 -9 -9 16 -83 84 -96 89 -5 2 -9
0 -9 -4z"/>
<path d="M2435 1690 c-3 -5 -3 -15 0 -20 3 -6 -1 -17 -9 -26 -20 -20 -20 -34
-1 -34 8 0 15 9 15 21 0 11 4 18 9 14 5 -3 13 0 17 6 5 8 3 9 -6 4 -10 -6 -11
-2 -6 19 6 25 -6 36 -19 16z"/>
<path d="M1794 1647 c11 -7 34 -24 51 -39 18 -16 36 -28 40 -28 4 0 16 -11 27
-25 11 -14 26 -25 33 -25 23 0 39 -38 24 -56 -11 -13 -9 -14 14 -3 24 11 25
13 10 35 -20 31 -191 155 -211 153 -4 0 2 -6 12 -12z"/>
<path d="M1171 1523 c7 -10 30 -36 50 -58 20 -22 51 -56 68 -75 17 -19 31 -32
31 -29 0 8 -68 96 -109 142 -35 37 -65 52 -40 20z"/>
<path d="M2247 1457 c-13 -20 -13 -25 3 -44 17 -22 17 -21 16 22 0 25 -2 45
-2 45 -1 0 -8 -10 -17 -23z"/>
<path d="M2424 1414 c3 -9 6 -26 6 -39 0 -15 7 -26 21 -30 23 -8 20 -31 -5
-27 -9 2 -16 -2 -16 -8 0 -17 -26 -40 -46 -40 -10 0 -14 -3 -11 -7 4 -3 3 -11
-3 -17 -6 -8 -3 -12 11 -12 10 0 21 8 25 18 3 9 14 20 24 23 13 4 17 12 13 23
-3 9 -3 14 2 10 10 -10 35 10 35 27 0 7 -9 15 -21 18 -17 5 -20 11 -15 41 5
29 3 36 -10 36 -11 0 -14 -5 -10 -16z"/>
<path d="M2146 1405 c-10 -26 -7 -32 6 -11 10 17 12 17 22 4 10 -13 13 -13 24
-2 10 11 10 14 -2 14 -8 0 -21 3 -29 6 -8 3 -17 -2 -21 -11z"/>
<path d="M673 1362 c-7 -5 -3 -17 13 -37 l24 -30 0 26 c0 30 -20 52 -37 41z"/>
<path d="M2187 1324 c-15 -28 -14 -31 4 -42 10 -7 21 -12 24 -12 7 0 5 42 -4
65 -7 18 -9 17 -24 -11z"/>
<path d="M2266 1290 c-14 -22 -26 -48 -25 -57 0 -12 4 -8 11 10 5 15 13 25 18
22 4 -3 7 3 6 13 0 9 4 16 9 15 6 -1 11 7 11 18 0 10 -1 19 -2 19 -1 0 -13
-18 -28 -40z"/>
<path d="M765 1301 c-3 -5 -1 -50 5 -99 16 -143 76 -281 166 -381 101 -112
244 -201 378 -236 85 -21 246 -32 246 -15 0 7 7 10 17 6 9 -4 39 -9 67 -12 42
-5 49 -3 38 7 -20 21 -92 39 -156 39 -51 0 -64 4 -87 26 -26 25 -27 25 -22 5
3 -11 11 -21 19 -21 7 0 12 -8 11 -18 -1 -16 -7 -17 -59 -10 -78 10 -209 62
-263 104 -25 19 -48 34 -51 34 -2 0 -24 15 -48 32 -41 32 -161 182 -161 203 0
5 -2 12 -5 15 -6 6 -30 69 -34 87 -1 7 -11 22 -22 34 -18 22 -18 22 0 15 15
-5 17 -4 7 8 -7 8 -15 53 -18 100 -6 80 -13 100 -28 77z"/>
<path d="M1991 1283 c-14 -35 -23 -78 -13 -69 8 9 32 89 28 93 -2 2 -8 -9 -15
-24z"/>
<path d="M576 1272 c-3 -5 -8 -24 -11 -43 -8 -43 10 -27 20 19 6 30 2 42 -9
24z"/>
<path d="M2290 1216 c0 -21 46 -22 54 -1 6 17 -9 21 -19 5 -5 -8 -11 -7 -21 1
-11 9 -14 8 -14 -5z"/>
<path d="M2391 1211 c-10 -7 -10 -10 -1 -13 8 -2 10 -12 6 -26 -4 -12 -12 -20
-17 -17 -5 3 -6 -2 -2 -11 5 -14 8 -12 20 10 18 34 14 69 -6 57z"/>
<path d="M571 1144 c15 -16 31 -38 37 -48 5 -11 18 -21 28 -22 16 -2 17 -1 4
9 -8 7 -23 24 -33 39 -9 15 -27 33 -39 39 -21 11 -21 10 3 -17z"/>
<path d="M1435 1142 c5 -9 -6 -27 -31 -53 -21 -21 -35 -41 -32 -44 3 -4 23 15
43 40 31 37 36 48 25 58 -10 9 -11 9 -5 -1z"/>
<path d="M2164 1006 c-20 -42 -41 -76 -46 -76 -5 0 -8 -6 -6 -13 5 -20 -63
-98 -81 -92 -9 2 -23 0 -31 -5 -8 -5 -11 -10 -6 -10 5 0 3 -7 -4 -15 -15 -18
-7 -19 22 -4 13 7 18 7 14 1 -11 -18 -139 -82 -162 -82 -12 0 -25 -7 -28 -16
-4 -12 -2 -15 9 -10 52 21 51 21 36 3 -21 -26 1 -20 55 16 112 74 212 197 259
320 29 76 10 65 -31 -17z"/>
<path d="M1265 1030 c-4 -6 -4 -14 -1 -17 3 -4 6 -1 6 7 0 10 3 10 14 0 8 -6
12 -19 10 -28 -5 -14 -2 -13 10 2 18 22 21 40 6 31 -6 -4 -17 -2 -25 5 -10 8
-15 8 -20 0z"/>
<path d="M2030 1015 c-7 -8 -8 -15 -3 -15 11 0 11 -29 -1 -48 -4 -6 -3 -12 3
-12 10 0 14 12 26 73 4 21 -8 22 -25 2z"/>
<path d="M630 970 c6 -11 21 -22 35 -26 13 -3 26 -13 28 -22 4 -13 5 -12 6 3
0 13 -12 28 -34 43 -43 27 -49 28 -35 2z"/>
<path d="M1702 974 l-23 -16 26 -20 c31 -24 32 -38 0 -68 -13 -12 -22 -26 -19
-31 2 -4 -4 -12 -13 -18 -10 -6 -13 -11 -8 -11 6 0 27 14 48 31 42 34 42 55 4
97 -20 22 -20 22 -1 37 26 19 14 19 -14 -1z"/>
<path d="M1832 874 c-20 -19 -28 -31 -17 -26 22 11 73 62 62 62 -4 0 -24 -16
-45 -36z"/>
<path d="M766 768 c-13 -62 -13 -83 0 -112 11 -27 19 -28 15 -3 0 4 4 7 9 7 6
0 9 10 9 23 -1 16 -2 18 -6 5 -10 -38 -18 -15 -15 42 3 60 -4 80 -12 38z"/>
<path d="M836 699 c-11 -21 -17 -41 -14 -44 7 -7 40 63 36 75 -2 5 -12 -9 -22
-31z"/>
<path d="M940 726 c0 -9 -5 -16 -11 -16 -8 0 -8 -5 1 -15 7 -8 16 -12 21 -9
12 7 11 41 -1 49 -5 3 -10 -1 -10 -9z"/>
<path d="M1770 694 c0 -5 12 -19 28 -30 43 -32 49 -34 49 -19 0 8 -14 20 -31
26 -17 7 -34 18 -38 23 -5 8 -8 8 -8 0z"/>
<path d="M826 626 c-18 -39 -21 -66 -5 -66 5 0 8 4 4 10 -3 5 1 26 10 46 20
47 13 56 -9 10z"/>
<path d="M2075 629 c-11 -4 -15 -8 -8 -8 16 -1 -13 -58 -38 -74 -10 -6 -19
-15 -19 -20 0 -16 50 26 71 59 24 40 22 55 -6 43z"/>
<path d="M1640 610 c19 -11 49 -19 65 -19 23 0 16 4 -30 19 -74 24 -79 24 -35
0z"/>
<path d="M893 589 c-12 -12 2 -59 17 -59 13 0 49 49 40 55 -5 3 -15 -3 -22
-15 -18 -28 -30 -25 -22 5 7 28 4 31 -13 14z"/>
<path d="M1782 558 c-7 -7 -12 -9 -12 -5 0 4 -9 -2 -21 -14 -11 -11 -19 -24
-17 -29 2 -5 19 7 38 26 19 19 32 34 29 34 -3 0 -10 -5 -17 -12z"/>
<path d="M1898 420 l-33 -31 38 18 c20 9 37 23 37 30 0 19 -6 17 -42 -17z"/>
</g>
</svg>
