<?xml version="1.0" standalone="no"?>
<!DOCTYPE svg PUBLIC "-//W3C//DTD SVG 20010904//EN"
 "http://www.w3.org/TR/2001/REC-SVG-20010904/DTD/svg10.dtd">
<svg version="1.0" xmlns="http://www.w3.org/2000/svg"
 width="1024.000000pt" height="1024.000000pt" viewBox="0 0 1024.000000 1024.000000"
 preserveAspectRatio="xMidYMid meet">
<metadata>
Created by potrace 1.16, written by Peter Selinger 2001-2019
</metadata>
<g transform="translate(0.000000,1024.000000) scale(0.100000,-0.100000)"
fill="#000000" stroke="none">
<path d="M9760 10225 c0 -12 -16 -15 -80 -15 -44 0 -80 -4 -80 -9 0 -5 -35
-12 -77 -16 -43 -4 -81 -11 -84 -16 -3 -5 -19 -4 -38 2 -26 9 -35 9 -41 -1 -6
-9 -24 -11 -62 -8 -29 3 -45 3 -35 1 26 -7 20 -23 -9 -23 -39 0 -83 -28 -84
-52 0 -5 11 -8 24 -8 20 0 25 -6 31 -40 4 -22 11 -40 16 -40 6 0 7 -4 4 -10
-7 -11 -1 -12 110 -10 44 1 84 5 90 11 5 5 23 9 40 9 24 0 35 6 43 25 15 32
15 55 2 55 -5 0 -10 -5 -10 -12 0 -6 -2 -9 -5 -6 -10 10 7 38 24 38 10 0 26 6
36 14 13 9 28 11 47 5 15 -4 41 -4 58 1 16 5 38 6 49 3 14 -4 20 1 24 19 3 16
5 12 6 -13 1 -31 -2 -35 -21 -35 -30 1 -35 -29 -7 -44 17 -10 23 -9 30 1 6 10
36 13 124 11 75 -2 115 1 115 8 0 5 18 10 40 10 29 0 40 4 40 15 0 24 13 18
49 -25 29 -34 40 -40 72 -40 38 0 39 1 39 35 0 34 -1 35 -40 35 -22 0 -40 5
-40 10 0 6 18 10 40 10 l40 0 0 60 0 60 -240 0 c-207 0 -240 -2 -240 -15z"/>
<path d="M5054 7922 c-6 -4 -16 -17 -23 -29 -6 -13 -17 -23 -24 -24 -28 -1
-103 -68 -123 -110 -19 -39 -22 -62 -23 -204 0 -88 4 -196 10 -240 10 -76 43
-189 61 -210 4 -5 8 -18 8 -30 1 -28 37 -105 50 -105 5 0 10 6 10 14 0 8 5 18
10 21 7 4 9 -2 5 -17 -5 -19 2 -27 40 -50 25 -15 45 -34 45 -43 0 -21 -17 -19
-30 5 -6 11 -17 20 -25 20 -7 0 -15 6 -18 13 -2 6 -8 9 -12 5 -4 -4 0 -17 9
-30 24 -34 19 -41 -13 -22 -39 23 -64 72 -91 182 -23 90 -40 118 -40 65 0 -15
4 -40 10 -57 51 -158 69 -232 64 -255 -5 -21 -3 -23 6 -11 9 12 10 11 5 -7 -7
-24 18 -92 39 -108 10 -8 12 -21 7 -45 l-8 -35 -8 30 c-4 17 -22 59 -40 95
-48 97 -76 186 -85 270 -17 146 -50 263 -50 174 0 -83 42 -258 101 -422 10
-29 19 -58 19 -65 -1 -21 -27 34 -53 113 -86 256 -116 334 -117 300 0 -47 34
-196 66 -293 36 -108 24 -108 -15 0 -18 49 -39 103 -47 121 -8 18 -14 54 -14
80 0 26 -5 54 -10 62 -8 12 -10 10 -10 -8 0 -13 -5 -32 -11 -43 -7 -15 -7 -24
1 -34 6 -8 9 -24 5 -35 -6 -19 -10 -16 -31 27 -26 53 -33 37 -9 -20 8 -20 11
-38 6 -41 -5 -3 11 -45 35 -93 24 -48 44 -93 44 -99 0 -7 5 -16 11 -20 8 -4
10 3 7 22 -3 16 -3 23 0 15 3 -12 5 -12 14 0 7 10 8 8 3 -7 -3 -13 1 -26 10
-34 8 -7 15 -17 15 -23 0 -6 9 -20 19 -31 19 -21 47 -101 31 -91 -4 3 -11 21
-14 40 -4 20 -13 35 -21 35 -11 0 -12 -7 -3 -32 5 -18 10 -38 11 -45 0 -7 5
-9 10 -6 6 4 8 0 4 -10 -6 -15 2 -21 24 -19 3 1 12 -18 20 -41 7 -23 23 -66
36 -95 25 -58 28 -72 13 -72 -5 0 -10 6 -10 13 0 6 -18 39 -41 72 -34 49 -40
55 -34 30 3 -16 6 -39 6 -49 0 -11 9 -48 20 -83 11 -34 19 -70 17 -80 -2 -10
-25 50 -52 132 -27 83 -72 202 -101 265 -29 63 -57 127 -63 143 -6 15 -16 27
-22 27 -5 0 -10 6 -10 14 0 16 -28 41 -37 33 -3 -4 2 -18 11 -33 21 -31 13
-44 -12 -21 -10 10 -27 17 -37 17 -15 0 -17 -6 -12 -41 7 -50 10 -54 36 -40
23 13 81 3 61 -9 -7 -4 -15 -31 -18 -59 -4 -42 -7 -49 -18 -40 -17 14 -18 3
-4 -38 8 -21 8 -43 0 -71 -5 -23 -14 -59 -20 -81 -5 -21 -14 -78 -20 -127 -5
-49 -14 -90 -20 -92 -5 -2 -10 -15 -10 -28 0 -14 -4 -23 -8 -20 -5 3 -9 -47
-9 -110 0 -99 2 -114 15 -109 9 3 19 0 24 -7 13 -22 9 -85 -7 -98 -18 -15 -22
-5 -28 55 -2 22 -5 -16 -6 -85 -2 -69 -4 -134 -5 -145 0 -11 4 -45 11 -75 8
-35 9 -58 3 -64 -6 -6 -10 -48 -10 -94 0 -62 -4 -87 -16 -99 -14 -14 -16 -14
-29 3 -13 18 -14 17 -15 -13 0 -18 5 -33 10 -33 6 0 10 5 10 10 0 6 4 10 9 10
9 0 23 -56 26 -105 1 -16 7 -113 15 -215 18 -257 -2 -808 -30 -825 -5 -3 -6 5
-2 17 3 13 1 19 -5 15 -6 -4 -14 -28 -17 -54 -4 -27 -14 -63 -22 -80 -16 -35
-27 -44 -18 -15 3 9 -5 4 -20 -13 l-26 -30 33 -9 c17 -5 26 -11 20 -13 -9 -3
-9 -10 3 -28 13 -21 13 -26 -4 -56 -10 -18 -29 -36 -42 -39 -26 -6 -68 -56
-56 -67 4 -4 11 -1 16 7 7 11 10 11 10 2 0 -7 -12 -17 -26 -22 -21 -8 -25 -15
-20 -34 4 -17 0 -26 -19 -36 -14 -7 -25 -17 -25 -21 0 -17 38 -14 94 8 32 12
62 20 67 17 5 -3 6 1 3 9 -3 10 14 20 63 37 37 12 75 25 83 28 27 10 -10 -27
-44 -45 -19 -10 -26 -18 -18 -21 8 -2 19 1 25 7 12 12 87 15 87 3 0 -4 -21
-14 -47 -21 -37 -12 -43 -16 -27 -21 10 -4 25 -3 32 3 7 5 15 7 19 3 8 -8 -56
-66 -74 -66 -20 0 -27 28 -13 45 7 8 8 15 2 15 -11 0 -38 -30 -35 -39 1 -3 -4
-5 -12 -3 -7 1 -16 -2 -20 -7 -12 -20 146 -51 262 -51 84 0 84 0 69 -21 -11
-16 -12 -28 -5 -46 16 -44 14 -101 -6 -123 -10 -11 -22 -17 -26 -14 -5 3 -9 0
-9 -5 0 -6 7 -11 16 -11 12 0 15 -7 12 -24 -4 -21 1 -27 41 -42 25 -9 55 -25
67 -35 11 -11 27 -19 35 -19 8 0 20 -5 27 -12 9 -9 12 -9 12 0 0 7 5 12 11 12
5 0 31 10 57 22 36 17 66 22 129 22 79 1 83 0 83 -21 0 -16 8 -25 25 -29 14
-3 34 -17 44 -30 10 -13 26 -24 35 -24 24 0 65 -27 112 -74 52 -51 60 -58 106
-79 20 -10 40 -22 43 -27 3 -6 21 -10 38 -10 49 0 72 -9 82 -33 7 -15 20 -22
44 -24 35 -3 201 -78 212 -96 4 -5 26 -10 48 -10 30 0 44 -5 51 -18 12 -21 71
-24 63 -3 -3 8 0 14 6 14 6 0 11 -5 11 -11 0 -8 4 -9 13 0 8 6 17 8 20 4 4 -3
7 -1 7 5 0 7 5 12 12 12 6 0 2 -10 -10 -23 -28 -30 -28 -37 3 -37 20 0 25 -5
25 -24 0 -15 -7 -26 -17 -29 -17 -4 -17 -4 0 -12 10 -4 28 -3 40 3 12 6 36 13
52 16 17 3 24 3 18 0 -22 -10 -14 -26 10 -21 12 3 56 2 97 -2 66 -5 75 -8 75
-26 0 -13 8 -21 23 -23 12 -2 22 -7 22 -12 0 -14 -63 -48 -109 -59 -23 -5 -69
-25 -101 -45 -32 -20 -63 -36 -69 -36 -7 0 -22 -9 -34 -21 l-22 -20 24 -20
c13 -10 32 -19 42 -19 10 0 19 -4 19 -9 0 -5 14 -11 30 -13 20 -3 30 0 30 9 0
15 9 16 30 3 11 -7 11 -10 2 -10 -32 0 1 -16 39 -19 23 -1 50 -6 60 -11 10 -6
56 -10 103 -10 51 0 86 -4 86 -10 0 -5 18 -10 40 -10 22 0 40 -4 40 -10 0 -5
9 -10 19 -10 14 0 21 -8 23 -27 4 -33 43 -49 79 -33 35 16 69 36 82 49 19 19
68 12 99 -14 16 -14 36 -25 43 -25 26 0 29 23 6 42 l-23 18 23 -1 c13 -1 36 3
52 9 23 10 30 9 47 -8 21 -21 113 -60 141 -60 9 0 24 -9 34 -20 10 -12 25 -18
34 -15 18 7 101 -26 101 -40 0 -6 -40 -16 -89 -22 -49 -6 -97 -16 -107 -21
-97 -49 -133 -61 -176 -59 -55 2 -60 10 -20 31 22 12 24 16 10 21 -9 4 -27 0
-40 -9 -13 -8 -35 -17 -50 -20 -32 -5 -48 -14 -48 -26 0 -14 29 -20 55 -10 14
5 25 6 25 1 0 -8 -45 -30 -71 -35 -8 -1 -23 -7 -34 -13 -11 -6 -49 -16 -83
-23 -35 -6 -79 -20 -98 -31 -19 -10 -60 -21 -92 -24 -57 -4 -157 11 -179 27
-7 6 -20 4 -32 -4 l-21 -13 22 -17 23 -18 -27 0 c-15 0 -52 6 -82 14 -37 10
-89 13 -157 11 -86 -3 -105 -7 -120 -24 -24 -25 -24 -26 3 -56 23 -26 38 -25
38 5 0 20 40 34 70 25 16 -5 17 -10 9 -31 -5 -14 -7 -29 -4 -34 3 -4 -5 -6
-17 -2 -20 5 -21 3 -10 -10 10 -13 9 -17 -5 -23 -10 -4 -25 -9 -33 -10 -19 -2
-59 -24 -45 -25 6 0 26 4 44 10 19 5 49 11 68 12 24 1 33 7 33 20 0 18 24 25
34 9 3 -4 20 -12 38 -16 l33 -7 -35 -9 c-65 -18 -91 -31 -88 -47 3 -17 51 -23
85 -11 13 5 62 9 110 10 49 1 95 6 104 10 12 6 18 3 22 -10 4 -15 86 -66 94
-57 2 2 -8 15 -23 29 -14 15 -23 31 -19 38 5 8 1 9 -14 4 -12 -3 -21 -2 -21 4
0 5 15 11 33 13 18 2 31 8 30 15 -3 14 120 8 148 -8 10 -5 31 -9 48 -9 17 0
34 -7 39 -16 5 -8 20 -17 35 -18 15 -2 32 -8 39 -13 7 -5 30 -10 51 -12 31 -1
37 1 37 19 0 15 -8 22 -30 27 -16 3 -30 12 -30 20 0 8 -8 13 -17 11 -11 -2
-22 6 -28 19 -5 12 -16 24 -25 27 -8 2 -5 4 8 5 22 1 52 22 52 36 0 4 12 20
27 36 26 27 53 38 53 22 0 -5 46 -9 102 -10 64 -2 104 -7 109 -14 4 -7 14 -9
23 -6 9 4 16 1 16 -5 0 -7 5 -6 15 2 8 7 15 18 15 26 0 18 11 23 60 29 51 7
60 11 60 31 0 9 11 14 30 14 23 0 30 4 30 20 0 11 7 23 15 26 8 4 15 11 16 18
0 6 18 26 40 45 l40 34 39 -18 c44 -20 57 -40 33 -53 -9 -5 -13 -15 -9 -21 4
-6 12 -9 17 -5 13 8 79 -15 79 -28 0 -7 5 -6 14 1 12 10 20 10 38 0 13 -7 26
-12 30 -11 4 1 5 -5 2 -13 -4 -10 6 -17 34 -25 22 -5 42 -16 45 -23 3 -9 9 -9
31 1 38 17 59 15 86 -8 13 -11 27 -20 32 -20 5 0 7 -4 3 -9 -3 -5 0 -13 6 -16
12 -8 51 29 42 39 -4 3 3 6 15 6 18 0 22 6 22 29 0 16 -6 32 -12 35 -7 3 1 3
17 -1 17 -3 33 -8 38 -10 15 -9 6 -30 -18 -41 -14 -6 -25 -16 -25 -22 0 -6 -4
-8 -10 -5 -5 3 -10 -3 -10 -13 0 -28 30 -38 37 -12 3 11 12 20 20 20 9 0 11
-5 6 -12 -4 -7 -6 -23 -4 -35 3 -25 -8 -30 -26 -12 -14 14 -34 3 -27 -14 3 -8
20 -12 46 -10 23 1 48 -2 56 -6 28 -16 52 -1 52 33 0 36 19 75 20 41 1 -19 1
-19 14 -2 12 15 15 15 26 2 18 -22 40 -18 40 6 0 20 3 21 52 15 29 -4 58 -12
65 -17 8 -7 18 -7 31 0 17 9 19 8 15 -9 -4 -15 0 -20 15 -20 11 0 25 7 32 15
17 21 30 19 30 -6 0 -11 -4 -17 -10 -14 -5 3 -10 2 -10 -4 0 -6 17 -13 37 -17
31 -6 34 -8 18 -15 -19 -7 -19 -8 2 -8 12 -1 25 3 28 9 4 6 15 2 27 -10 12
-11 19 -23 15 -26 -4 -4 -38 -2 -77 5 l-71 11 -43 -35 c-24 -19 -46 -35 -49
-35 -3 0 -17 -11 -31 -24 -32 -29 -34 -50 -5 -43 20 5 20 5 3 -14 -18 -20 -17
-21 15 -46 l33 -26 -24 -13 c-20 -11 -32 -10 -64 1 -53 19 -72 19 -70 -2 0
-12 -7 -19 -21 -21 -19 -3 -23 -10 -23 -43 0 -26 4 -39 13 -39 21 0 28 12 16
26 -13 16 -4 48 11 39 6 -4 8 -11 5 -16 -4 -5 4 -9 16 -9 17 0 19 3 10 14 -9
11 -8 15 5 20 20 8 34 -1 34 -20 0 -8 10 -14 25 -14 14 0 25 4 25 8 0 4 18 13
40 19 32 8 40 8 40 -3 0 -8 6 -13 13 -12 16 4 10 -32 -9 -53 -8 -8 -14 -21
-14 -27 0 -15 -36 -25 -61 -17 -18 6 -19 5 -10 -13 16 -30 0 -34 -31 -7 -24
20 -25 24 -10 28 11 3 7 5 -9 6 -23 1 -27 -4 -32 -36 -4 -20 -4 -39 -2 -42 3
-2 5 3 5 12 0 23 27 22 39 -2 9 -17 6 -18 -31 -16 -30 2 -47 9 -61 26 -14 18
-27 23 -53 20 -37 -3 -47 14 -14 24 13 4 20 15 20 31 0 31 -18 31 -26 -1 -7
-29 -61 -44 -91 -26 -17 11 -17 11 2 10 33 -2 45 1 45 11 0 6 -15 10 -34 10
-19 0 -36 6 -39 13 -3 9 -7 9 -18 0 -19 -15 -59 -6 -59 14 0 10 8 13 25 11 13
-2 24 0 25 5 2 39 1 40 -25 23 -18 -12 -25 -13 -25 -4 0 8 -5 6 -11 -5 -6 -10
-22 -17 -39 -17 -15 0 -30 -5 -32 -11 -3 -8 -10 -8 -27 2 -19 12 -24 12 -35
-4 -8 -10 -26 -17 -44 -17 -35 0 -50 -15 -28 -27 9 -5 -9 -8 -45 -8 -32 0 -59
4 -59 9 0 6 -5 5 -12 -2 -18 -18 -68 -15 -68 3 0 9 9 15 25 15 20 0 25 5 25
26 0 21 4 25 20 21 13 -3 18 -1 13 5 -4 8 4 9 24 5 17 -3 35 -1 42 6 6 6 11 7
11 3 0 -5 6 -4 13 1 6 6 33 16 60 23 29 8 47 18 47 28 0 11 -3 12 -15 2 -19
-16 -34 -5 -29 23 2 12 2 17 -1 11 -8 -15 -80 -1 -104 20 -22 20 -27 20 -35 0
-4 -11 1 -22 12 -30 13 -9 18 -21 15 -39 -7 -32 -17 -32 -45 0 -12 14 -30 25
-39 25 -15 0 -12 -6 12 -32 l29 -33 -26 -7 c-14 -4 -31 -5 -38 -2 -7 3 -27 -7
-45 -21 -18 -16 -38 -25 -47 -21 -9 3 -25 -1 -37 -9 -20 -14 -20 -15 17 -30
21 -9 45 -14 52 -11 16 6 18 -3 5 -23 -5 -8 -16 -11 -25 -8 -11 5 -16 1 -16
-13 0 -21 28 -34 54 -24 10 4 16 1 17 -7 0 -8 4 -4 9 9 8 20 14 22 52 16 47
-7 60 -14 41 -21 -31 -11 -8 -23 42 -23 30 0 55 -4 55 -9 0 -5 -25 -15 -55
-22 -33 -7 -55 -17 -55 -26 0 -7 -11 -13 -26 -13 -14 0 -23 4 -19 10 3 6 1 10
-4 10 -6 0 -11 -4 -11 -9 0 -5 -10 -7 -22 -5 -16 4 -12 -1 12 -15 20 -11 39
-16 45 -11 6 5 59 11 118 13 59 2 110 7 114 10 3 4 -2 7 -13 7 -14 0 -10 5 13
16 22 11 30 21 26 32 -4 14 -3 14 5 3 12 -17 42 -7 42 14 0 10 -10 15 -32 15
l-33 0 40 27 c33 22 50 27 93 25 29 -1 64 -10 78 -18 13 -9 30 -14 38 -11 7 3
26 -1 41 -9 15 -8 33 -14 40 -14 15 0 75 -29 75 -37 0 -8 -74 7 -85 18 -5 5
-22 9 -37 9 -15 0 -45 9 -65 20 -50 27 -71 25 -85 -6 -11 -23 -10 -29 10 -44
12 -10 22 -29 22 -42 0 -26 -31 -51 -53 -42 -17 6 -80 -29 -70 -39 3 -4 1 -7
-6 -7 -6 0 -11 -8 -9 -17 3 -15 -5 -18 -42 -18 -25 1 -52 3 -60 5 -9 3 -16 -3
-18 -17 -2 -13 1 -23 6 -23 12 0 34 -49 26 -61 -3 -6 -16 -14 -28 -19 -20 -8
-19 -9 5 -9 25 -1 47 -26 34 -39 -3 -3 -5 0 -5 7 0 9 -8 11 -26 7 -15 -4 -32
-2 -40 5 -8 7 -14 7 -14 1 0 -5 7 -12 15 -16 20 -7 19 -23 -2 -30 -10 -3 -7
-4 7 -2 14 2 33 7 43 11 13 5 17 2 17 -13 0 -18 4 -19 36 -12 21 5 40 14 44
20 5 9 9 9 14 1 4 -6 18 -11 32 -11 22 0 24 -4 25 -42 0 -24 3 -37 6 -30 2 6
22 12 43 12 21 0 41 6 43 13 5 11 11 -25 8 -49 -2 -14 24 -25 42 -18 8 3 14
22 15 45 2 48 9 62 28 55 7 -3 16 -1 19 4 4 6 1 10 -4 10 -6 0 -11 18 -11 40
0 29 4 40 15 40 8 0 15 -8 15 -17 0 -10 7 -26 15 -36 13 -18 14 -17 17 10 l4
28 8 -27 c6 -20 4 -32 -8 -43 -9 -9 -16 -22 -16 -30 0 -19 41 -7 58 17 9 12
20 17 32 13 11 -3 29 -1 40 5 24 13 63 4 57 -13 -2 -7 -10 -12 -18 -12 -8 0
-16 -13 -19 -30 -4 -22 -11 -31 -28 -33 -13 -2 -26 -10 -28 -17 -3 -8 -13 -11
-22 -8 -11 5 -14 2 -9 -10 7 -18 -17 -42 -33 -32 -5 3 -10 14 -11 23 0 11 -3
12 -6 5 -7 -19 -20 -16 -26 7 -3 11 -12 20 -21 20 -9 0 -16 5 -16 10 0 6 -4
10 -10 10 -17 0 -11 -25 10 -38 29 -18 28 -78 -1 -85 -18 -5 -21 -2 -17 23 4
24 0 30 -20 35 -31 8 -62 -3 -62 -21 0 -16 -16 -19 -25 -4 -3 5 -24 10 -46 10
-21 0 -39 4 -39 9 0 12 -29 41 -41 41 -5 0 -9 -11 -9 -25 0 -28 -12 -32 -30
-10 -7 8 -21 15 -31 15 -11 0 -19 5 -19 10 0 6 -17 10 -37 11 -36 0 -39 3 -64
55 -24 50 -24 54 -7 54 10 0 18 2 18 5 0 11 -24 55 -30 55 -13 0 -27 -45 -24
-79 2 -37 -4 -61 -16 -61 -4 0 -5 22 -2 49 l4 48 -46 -7 c-40 -6 -46 -4 -46
10 0 10 -7 23 -15 30 -21 17 -19 30 5 30 11 0 20 5 20 11 0 6 -21 9 -52 7 -38
-2 -52 -7 -50 -17 4 -19 -8 -51 -18 -51 -6 0 -12 11 -16 25 -4 17 -13 25 -28
25 -16 0 -18 -2 -7 -9 12 -8 12 -12 2 -24 -10 -12 -10 -20 1 -36 7 -11 17 -20
23 -19 17 4 56 -22 49 -33 -4 -6 -11 -6 -20 2 -11 9 -23 9 -54 -1 -38 -13 -41
-12 -62 12 -13 14 -30 28 -38 31 -11 4 -9 7 8 12 12 4 22 11 22 16 0 5 7 9 15
9 8 0 15 6 15 14 0 8 6 17 13 19 9 4 9 6 0 6 -6 1 -15 -4 -18 -9 -8 -12 -52
-13 -59 -1 -3 5 1 11 9 15 27 10 15 26 -20 26 -30 0 -35 3 -35 23 1 26 42 59
64 51 9 -3 16 -10 16 -15 0 -22 21 -6 35 27 17 42 20 74 5 74 -5 0 -10 -7 -10
-16 0 -10 -8 -15 -22 -14 -56 5 -78 0 -78 -17 0 -13 -3 -14 -12 -5 -7 7 -23
12 -38 12 -23 -1 -24 -2 -7 -14 24 -18 21 -26 -8 -26 -21 0 -25 -5 -25 -32 0
-32 0 -32 16 -10 8 12 21 22 27 22 8 0 7 -3 -2 -9 -7 -5 -10 -14 -6 -20 4 -7
4 -24 0 -38 l-6 -26 -22 24 c-12 13 -20 32 -19 42 3 15 -1 17 -25 11 -38 -9
-44 -14 -37 -25 3 -5 14 -7 25 -4 11 4 19 2 19 -5 0 -7 -9 -14 -20 -17 -13 -4
-19 -11 -16 -22 3 -9 1 -32 -3 -51 l-8 -35 -8 43 c-8 43 -8 44 -46 40 -20 -2
-35 0 -33 4 3 5 1 8 -4 8 -8 0 -22 -22 -22 -36 0 -9 37 -3 48 8 18 18 25 -13
15 -64 -9 -46 -34 -60 -70 -39 -16 9 -14 10 10 11 42 0 32 17 -13 22 -22 2
-40 1 -40 -3 0 -3 -18 -13 -40 -22 -41 -16 -55 -47 -22 -47 16 -1 16 -1 0 -14
-10 -7 -18 -18 -18 -24 0 -6 -7 -9 -15 -6 -14 6 -13 8 2 20 17 12 17 14 -2 28
-26 20 -27 20 -53 -4 -12 -12 -22 -16 -22 -10 0 5 -9 10 -20 10 -24 0 -27 -32
-4 -51 13 -10 17 -10 25 2 5 8 9 9 9 2 0 -6 12 -16 28 -21 26 -10 25 -10 -16
-11 -23 -1 -52 -7 -63 -13 -17 -11 -23 -10 -26 0 -3 6 -12 12 -21 12 -10 0
-29 11 -44 25 -20 19 -38 25 -71 25 -24 0 -66 7 -94 15 l-51 15 5 40 c7 48 -8
53 -34 10 -22 -37 -49 -36 -46 3 1 21 -3 27 -18 27 -11 0 -22 6 -25 13 -2 7
-21 12 -44 12 -26 0 -40 -4 -40 -12 0 -7 7 -13 15 -13 8 0 15 -7 15 -16 0 -12
-6 -15 -24 -10 -16 4 -29 0 -41 -13 -10 -12 -23 -17 -33 -13 -15 5 -16 4 -1
-10 8 -9 24 -18 35 -20 10 -3 -8 -5 -41 -5 -33 0 -53 2 -43 4 9 2 19 11 22 19
3 9 1 12 -4 9 -6 -3 -10 1 -10 9 0 9 -4 16 -10 16 -5 0 -10 5 -10 11 0 7 -8
17 -17 24 -15 11 -15 15 -4 29 8 9 11 20 7 23 -4 4 -10 2 -15 -5 -5 -9 -12 -9
-27 3 -10 8 -27 15 -36 15 -10 0 -18 7 -18 15 0 9 -9 15 -24 15 -42 0 -39 19
3 26 38 6 67 34 36 34 -8 0 -15 -5 -15 -11 0 -5 -5 -7 -11 -3 -21 13 15 24 57
18 30 -4 45 -2 57 11 22 21 21 34 0 41 -10 3 -31 13 -48 21 l-30 14 32 -4 c21
-2 34 1 38 11 9 25 5 28 -37 26 -33 -1 -44 -6 -46 -20 -2 -11 -7 -23 -12 -27
-4 -5 -5 2 -3 15 4 19 -1 27 -22 36 -38 17 -55 15 -55 -8 0 -11 -4 -20 -9 -20
-10 0 -8 58 3 83 12 26 0 32 -30 17 -23 -13 -27 -12 -36 4 -19 33 -47 56 -63
50 -24 -10 -75 -64 -75 -80 0 -14 -32 -19 -87 -14 -13 1 -23 -3 -23 -9 0 -6 5
-11 10 -11 27 0 3 -74 -25 -77 -13 -2 -19 -23 -6 -23 5 0 13 5 16 10 3 6 32
10 64 10 52 0 59 -3 64 -22 5 -18 8 -19 21 -8 11 8 16 9 16 1 0 -6 18 -11 43
-11 23 0 49 -5 57 -10 13 -8 12 -10 -3 -10 -11 0 -21 -9 -24 -20 -4 -14 -14
-20 -34 -20 -22 0 -29 -5 -29 -20 0 -13 -7 -20 -20 -20 -22 0 -18 25 6 34 8 3
14 15 14 26 0 25 -9 26 -25 3 -12 -17 -14 -17 -34 1 -24 22 -22 23 -38 -22 -8
-22 -9 -42 -3 -58 8 -20 16 -24 50 -24 29 0 40 -4 40 -15 0 -19 -76 -21 -83
-2 -2 6 -8 -5 -12 -26 -8 -42 -25 -50 -25 -12 0 23 -12 31 -42 26 -4 0 -23 6
-42 14 -19 8 -54 15 -76 15 -26 0 -40 5 -40 13 0 7 -17 21 -37 32 -56 29 -63
38 -48 58 14 19 36 22 52 6 12 -12 53 -3 53 10 0 5 -21 11 -47 14 -36 4 -50 1
-66 -14 -12 -10 -27 -19 -34 -19 -18 0 -17 -16 1 -23 20 -8 15 -63 -5 -59 -8
2 -18 10 -22 18 -9 16 -37 19 -37 4 0 -5 7 -10 15 -10 8 0 15 -7 15 -15 0 -13
-12 -14 -77 -9 -43 4 -89 7 -102 6 -24 0 -39 8 -69 41 -20 21 -36 22 -28 2 4
-12 -3 -15 -36 -15 -40 0 -41 -1 -25 -17 16 -16 15 -18 -5 -40 l-21 -23 39 0
c29 0 43 5 52 20 10 17 22 21 62 19 36 -2 50 -7 50 -17 0 -11 9 -13 37 -9 20
4 40 12 45 19 7 10 11 9 22 -5 18 -23 89 -18 94 7 2 9 10 16 17 16 7 0 16 8
18 18 3 9 4 -5 2 -32 -3 -55 -21 -74 -55 -56 -16 8 -22 7 -32 -10 -14 -22 -38
-27 -38 -7 0 7 5 18 12 25 7 7 8 12 3 12 -15 0 -75 -75 -63 -79 5 -2 13 1 17
7 8 12 26 -7 26 -28 0 -8 11 -17 25 -18 13 -2 30 -13 38 -23 7 -10 24 -19 38
-19 14 0 23 -5 22 -12 -3 -15 54 -23 80 -13 15 6 15 8 -3 15 -11 5 -31 6 -45
4 l-25 -4 23 10 c13 5 34 7 48 4 16 -4 26 -1 30 9 3 9 19 19 35 22 16 4 29 11
29 16 0 5 9 9 20 9 11 0 20 -4 20 -10 0 -5 -9 -10 -20 -10 -11 0 -20 -4 -20
-10 0 -5 6 -10 14 -10 23 0 28 -17 11 -33 -18 -19 -20 -44 -2 -50 6 -2 8 -8 4
-13 -13 -14 -28 19 -23 49 3 15 1 27 -4 27 -16 0 -12 -77 5 -93 13 -13 13 -19
1 -42 -9 -16 -17 -22 -21 -15 -4 6 -1 18 6 26 11 13 10 18 -6 27 -11 7 -29 12
-40 13 -50 3 -54 4 -49 19 7 16 5 17 -83 19 -32 1 -64 5 -70 9 -18 11 -16 37
2 37 8 0 15 5 15 10 0 14 -34 12 -48 -2 -9 -9 -17 -10 -30 -2 -9 6 -43 19 -74
29 -31 9 -65 25 -76 35 -20 19 -115 31 -128 17 -4 -4 0 -7 9 -7 13 0 17 -9 17
-40 0 -29 -4 -40 -15 -40 -8 0 -15 -4 -15 -10 0 -15 -40 -12 -42 3 -1 6 -2 26
-2 42 -1 27 -4 30 -36 30 -35 0 -35 0 -36 -47 l-1 -48 38 0 c22 0 39 -4 39
-10 0 -13 -66 -13 -91 0 -23 13 -26 40 -4 40 8 0 15 6 15 14 0 13 -60 32 -85
28 -5 -1 -2 4 8 11 23 19 22 27 -6 27 -34 0 -75 22 -81 44 -2 10 -9 15 -14 12
-5 -3 -18 1 -28 9 -10 8 -27 15 -36 15 -19 0 -26 30 -8 30 15 0 12 57 -2 62
-22 8 -38 -3 -38 -27 0 -15 -7 -25 -22 -28 -26 -7 -38 1 -19 12 17 11 6 17
-48 26 -34 6 -42 4 -39 -6 3 -8 19 -15 37 -17 36 -4 38 -25 3 -30 -38 -6 -24
-22 21 -23 l42 -1 -45 -12 -45 -11 70 -3 c39 -2 74 -7 80 -13 10 -10 -20 -13
-97 -11 -37 2 -48 -2 -48 -13 0 -12 12 -14 68 -11 37 2 48 1 25 -1 -47 -4 -48
-5 -33 -34 9 -15 7 -21 -5 -25 -9 -4 -21 -2 -28 5 -15 15 -27 14 -27 -4 0 -11
-11 -15 -41 -15 l-42 0 27 21 c30 24 26 39 -11 39 -15 0 -23 3 -20 7 4 3 2 12
-5 20 -9 11 -14 11 -30 -4 -14 -12 -35 -17 -74 -16 -64 2 -73 7 -56 33 7 11
12 26 12 34 0 8 6 16 13 19 10 3 10 9 0 26 -7 11 -13 29 -13 38 -1 17 -2 17
-13 1 -7 -9 -25 -20 -40 -23 -26 -7 -38 -25 -17 -25 6 0 10 -5 10 -10 0 -6 -8
-10 -17 -8 -11 2 -18 -4 -20 -17 l-3 -20 9 20 c9 18 10 18 10 -7 1 -14 4 -33
7 -42 5 -13 -2 -16 -40 -16 -35 0 -46 4 -46 16 0 8 5 12 10 9 6 -4 10 7 10 24
0 17 -4 31 -10 31 -5 0 -10 7 -10 15 0 8 8 15 18 15 16 1 16 1 0 11 -12 7 -24
6 -38 -1 -26 -14 -26 -40 0 -40 27 0 27 -36 -1 -43 -11 -3 -27 -3 -35 0 -17 6
-18 30 -1 36 7 3 5 6 -5 6 -10 1 -18 -3 -18 -9 0 -5 -7 -10 -15 -10 -8 0 -15
5 -15 11 0 7 -10 9 -25 7 -17 -4 -25 -1 -25 9 0 8 -4 12 -10 8 -5 -3 -6 -13
-3 -21 4 -10 -2 -17 -16 -21 -17 -4 -19 -8 -10 -19 17 -21 35 -17 53 11 19 28
37 26 29 -4 -3 -10 0 -22 6 -26 8 -4 7 -11 -3 -21 -18 -17 -43 -18 -49 -1 -3
7 -9 0 -16 -15 -13 -35 -29 -36 -42 -1 -7 20 -12 24 -18 14 -6 -9 -19 -10 -45
-6 -31 6 -35 9 -24 23 11 13 10 14 -9 8 -27 -9 -39 9 -16 23 17 10 17 12 -1
26 -15 11 -16 15 -5 16 19 1 -20 17 -43 18 -10 1 -18 -3 -18 -9 0 -5 8 -10 18
-10 14 0 15 -2 2 -10 -9 -6 -17 -5 -21 2 -11 18 -39 1 -39 -24 0 -13 -4 -29
-9 -36 -6 -10 -10 -8 -14 8 -5 19 -8 20 -27 10 -26 -14 -22 -19 28 -38 65 -24
82 -26 82 -8 0 9 8 16 19 16 14 0 18 -5 14 -20 -3 -12 0 -20 6 -20 7 0 21 -9
33 -20 14 -13 17 -20 8 -20 -8 0 -25 -10 -38 -22 l-24 -23 4 29 c3 25 -1 31
-26 37 -19 5 -38 3 -57 -6 -40 -21 -76 -19 -84 5 -3 11 -13 20 -21 20 -8 0
-14 9 -14 20 0 15 -7 20 -28 20 -15 0 -32 -4 -37 -9 -6 -5 -19 -5 -30 -1 -16
7 -17 9 -3 9 9 1 18 6 20 12 2 6 25 13 51 16 26 3 47 10 47 14 0 5 -4 9 -10 9
-18 0 -11 20 8 21 14 0 14 2 -3 8 -22 9 -43 4 -63 -16 -18 -18 -32 -16 -32 4
0 13 -3 14 -12 5 -18 -18 -51 -15 -44 3 7 19 -11 19 -30 1 -19 -20 -19 -50 1
-42 13 5 35 -20 35 -39 0 -4 -23 -4 -51 0 -39 5 -54 4 -60 -6 -6 -9 -9 -10 -9
-2 0 6 7 19 16 28 35 35 -4 53 -46 20 -24 -18 -69 -35 -95 -35 -16 0 -25 -6
-25 -15 0 -18 -26 -20 -33 -2 -2 6 6 20 19 30 13 10 24 13 24 7 0 -11 33 -14
43 -3 4 3 0 15 -9 24 -16 17 -15 19 1 25 9 4 20 2 24 -5 6 -9 11 -8 21 4 8 10
9 15 1 15 -6 0 -11 9 -11 20 0 16 7 20 30 20 17 0 30 5 30 10 0 6 -12 10 -26
10 -43 0 -65 17 -58 45 5 21 3 25 -16 25 -19 0 -21 -4 -16 -25 8 -33 -18 -34
-35 -2 -12 22 -28 37 -41 37 -14 0 -9 -23 9 -42 15 -17 14 -18 -29 -18 -33 0
-48 -5 -52 -16 -8 -22 -9 -21 19 -28 28 -7 30 -13 15 -52 -8 -19 -7 -30 2 -41
9 -11 9 -17 -3 -24 -10 -7 -5 -7 15 -3 21 5 27 4 22 -5 -5 -8 -23 -10 -54 -5
-26 3 -51 7 -57 8 -5 0 -9 -7 -7 -16 2 -11 -3 -18 -13 -18 -8 0 -15 8 -16 18
0 9 -2 31 -2 47 -1 19 -7 30 -17 30 -20 0 -23 -74 -3 -82 10 -4 11 -9 2 -19
-6 -7 -8 -18 -4 -24 3 -6 -3 -10 -16 -10 -12 0 -27 -7 -34 -16 -9 -13 -16 -14
-31 -6 -17 9 -23 6 -39 -24 -19 -36 -35 -44 -35 -19 0 8 5 15 11 15 14 0 7 42
-8 47 -6 2 -14 -5 -18 -17 -5 -17 -10 -19 -21 -9 -19 15 -18 27 4 32 9 3 -11
5 -45 6 -34 0 -73 -3 -87 -9 -25 -9 -46 3 -26 15 5 3 10 19 10 36 0 24 -4 29
-25 29 -27 0 -32 9 -13 28 9 9 6 12 -15 12 -22 0 -27 -4 -27 -25 0 -20 -6 -27
-30 -31 -17 -4 -32 -15 -35 -25 -4 -11 -10 -17 -14 -15 -4 3 -15 -4 -24 -14
-15 -18 -15 -20 1 -29 20 -11 56 5 47 20 -4 5 3 9 13 9 30 0 16 -37 -19 -56
-33 -17 -64 -7 -73 24 -5 15 -17 18 -76 18 -39 0 -70 -4 -70 -8 0 -4 9 -8 20
-8 11 0 20 -4 20 -10 0 -5 6 -10 14 -10 7 0 19 -7 27 -16 11 -13 9 -14 -14 -9
-17 5 -27 3 -27 -4 0 -6 -17 -11 -40 -11 -22 0 -40 4 -40 9 0 5 -10 7 -22 3
-12 -3 -17 -7 -10 -10 7 -2 12 -21 12 -43 0 -36 2 -39 29 -39 16 0 34 -7 41
-15 7 -8 18 -15 26 -15 20 0 28 21 13 31 -12 7 -11 9 1 9 32 0 42 -16 35 -54
-6 -32 -11 -36 -38 -36 -16 0 -35 7 -42 17 -9 12 -27 16 -71 16 -44 -1 -53 1
-36 7 12 5 22 14 22 20 0 5 -10 11 -22 11 -18 1 -17 3 7 9 l30 7 -25 10 c-19
8 -29 7 -41 -3 -19 -17 -66 -18 -71 -2 -3 7 -7 6 -11 -5 -3 -9 -2 -17 3 -17
17 0 11 -42 -8 -56 -26 -20 -51 -17 -56 9 -3 12 -7 31 -9 42 -3 11 -6 0 -7
-25 -1 -25 -4 -39 -7 -32 -9 23 -23 12 -23 -20 -1 -32 -1 -33 -14 -10 l-12 23
-12 -23 c-11 -22 -12 -22 -9 7 1 21 -3 31 -16 33 -9 2 -17 -1 -17 -7 0 -6 -6
-11 -14 -11 -8 0 -17 -15 -20 -35 -5 -23 -12 -35 -23 -35 -13 0 -14 3 -5 12
18 18 15 28 -8 28 -11 0 -20 -7 -20 -15 0 -8 -5 -15 -11 -15 -5 0 -8 4 -4 9 3
5 0 13 -6 17 -9 5 -10 -1 -5 -20 8 -32 -12 -36 -39 -6 -17 19 -17 21 0 40 18
19 17 20 -6 21 -21 1 -21 2 -4 6 11 3 26 10 33 15 6 6 12 6 12 2 0 -5 18 -10
40 -10 36 -1 40 1 40 22 0 21 5 24 40 24 40 0 49 7 29 27 -11 11 -56 6 -65 -8
-3 -5 -17 -9 -32 -8 l-27 1 28 11 c20 8 27 17 25 31 -4 26 -30 32 -69 16 -35
-15 -37 -27 -7 -40 l23 -9 -23 0 c-13 -1 -32 4 -43 10 -15 7 -24 7 -35 -2 -11
-9 -17 -9 -29 1 -12 10 -19 10 -27 2 -9 -9 -7 -12 10 -12 12 0 22 -4 22 -10 0
-5 -11 -10 -24 -10 -20 0 -25 -6 -28 -34 -3 -25 1 -37 15 -45 21 -14 14 -31
-13 -31 -13 0 -17 5 -13 18 4 16 -3 20 -54 25 -32 3 -69 4 -81 0 -16 -4 -22
-1 -22 11 0 17 -11 19 -48 9 -18 -4 -20 -8 -10 -14 18 -12 -9 -11 -37 1 -17 7
-17 9 -2 9 9 1 17 8 17 17 0 13 -10 15 -65 9 -42 -4 -65 -2 -65 5 0 5 3 10 8
11 4 0 53 2 110 4 96 4 102 3 102 -15 0 -15 7 -20 25 -20 34 0 36 46 2 53 -16
3 -13 5 11 6 30 1 32 3 32 36 0 34 1 35 43 37 l42 1 -45 7 c-31 5 -36 7 -17 8
31 2 28 22 -4 22 -10 0 -19 5 -19 12 0 6 -9 3 -20 -7 -18 -17 -21 -17 -38 -2
-12 11 -22 13 -35 6 -13 -8 -19 -6 -23 5 -7 17 -44 22 -44 6 0 -5 -18 -10 -40
-10 -36 0 -40 3 -40 24 0 17 -5 23 -17 22 -13 -1 -19 8 -21 29 -4 33 -22 60
-22 33 0 -9 -5 -29 -10 -44 -9 -22 -13 -25 -23 -14 -9 10 -9 13 1 17 21 8 13
23 -14 23 -21 0 -24 -4 -19 -20 9 -29 -16 -26 -45 5 -27 28 -57 32 -86 10 -10
-8 -27 -15 -36 -15 -9 0 -19 -8 -21 -17 -4 -14 -5 -12 -6 5 -1 28 -15 28 -36
0 -15 -22 -14 -24 10 -43 14 -12 25 -26 25 -33 0 -6 6 -9 14 -6 8 3 17 1 21
-5 9 -15 42 -14 48 2 2 7 8 8 13 3 5 -5 4 -11 -3 -13 -7 -3 -13 -11 -13 -18 0
-7 -6 -25 -14 -39 -11 -22 -15 -24 -20 -11 -3 9 -6 25 -6 35 0 22 -51 50 -92
50 -18 0 -28 5 -28 15 0 11 -11 15 -40 15 -29 0 -40 4 -40 15 0 11 12 15 43
16 32 2 35 3 13 6 -42 7 -70 -3 -81 -29 -14 -33 -37 -28 -47 9 -8 29 -11 31
-27 21 -15 -9 -23 -9 -36 2 -12 10 -19 10 -23 3 -4 -7 -34 -14 -68 -17 -33 -3
-68 -8 -78 -12 -16 -6 -18 -3 -14 24 3 22 0 32 -9 32 -7 0 -13 -9 -13 -20 0
-15 -7 -20 -26 -20 -23 0 -26 3 -22 25 6 27 1 30 -22 15 -10 -6 -11 -10 -2
-10 6 0 12 -4 12 -10 0 -5 -17 -10 -38 -10 -21 0 -43 -5 -49 -11 -7 -7 -19 -9
-27 -6 -22 9 -23 87 -1 87 8 0 15 7 15 15 0 8 -7 15 -15 15 -8 0 -15 -7 -15
-15 0 -8 -7 -15 -16 -15 -13 0 -15 -9 -13 -42 l4 -43 -40 3 c-47 3 -79 -12
-56 -27 8 -5 11 -16 8 -25 -8 -21 -65 -22 -73 -1 -4 10 -20 15 -45 15 l-38 0
-1 -356 c0 -195 3 -366 6 -380 l6 -24 5114 0 5114 0 0 1414 0 1414 -37 7 c-47
9 -188 52 -228 70 -80 36 -118 44 -238 49 -132 7 -164 16 -169 50 -2 14 -14
23 -38 29 -19 4 -45 11 -58 14 -13 3 -30 -1 -40 -9 -27 -24 -89 -13 -149 27
-29 19 -61 35 -71 35 -10 0 -27 7 -38 15 -10 8 -27 15 -37 15 -10 0 -20 7 -23
15 -10 26 -82 41 -91 18 -3 -7 -12 -13 -20 -13 -11 0 -13 4 -6 13 6 6 13 20
16 30 6 16 2 17 -29 11 -43 -8 -183 23 -201 44 -8 10 -37 14 -107 14 -53 0
-96 3 -96 8 0 7 -36 15 -105 24 -16 1 -31 8 -33 15 -2 6 -11 11 -21 11 -9 0
-22 5 -27 10 -7 7 -47 10 -100 8 l-89 -3 -1 -30 c-3 -53 -4 -56 -20 -62 -9 -3
-20 0 -25 8 -8 11 -13 10 -29 -10 -24 -28 -50 -22 -50 13 0 21 -6 25 -42 30
-113 17 -176 28 -204 37 -41 12 -111 12 -119 -1 -10 -16 -25 -2 -25 23 0 17
-2 19 -9 8 -5 -8 -26 -15 -48 -16 -21 -1 -50 -3 -65 -4 -45 -2 -32 -21 15 -21
23 0 71 -5 107 -10 45 -6 66 -6 71 2 4 6 12 7 18 4 6 -4 9 -11 6 -16 -2 -4 6
-10 20 -12 13 -3 22 -2 20 2 -10 16 29 20 58 5 16 -8 43 -15 58 -15 33 0 59
-9 59 -21 0 -5 -11 -9 -25 -9 -30 0 -34 -17 -5 -22 12 -2 19 -7 18 -13 -2 -6
-36 -10 -77 -10 -95 0 -106 -20 -31 -58 26 -13 29 -16 10 -12 -14 3 -47 8 -75
11 -44 4 -47 3 -25 -7 l25 -12 -30 -7 c-54 -13 -87 -11 -101 7 -12 17 -17 17
-101 -5 -99 -25 -148 -28 -160 -9 -4 7 -23 18 -42 23 -42 11 -50 30 -19 39 58
18 87 37 80 53 -6 16 -4 16 18 1 14 -9 41 -16 60 -17 30 0 32 1 12 9 -12 5
-32 24 -43 44 -23 38 -49 47 -49 15 0 -26 -16 -26 -32 0 -7 11 -19 20 -26 20
-18 0 -45 28 -38 39 10 16 -56 32 -149 37 -49 3 -106 9 -125 14 -46 13 -110
13 -110 0 0 -5 8 -10 18 -11 9 0 1 -7 -18 -14 -19 -7 -27 -14 -18 -14 9 -1 18
-6 20 -12 2 -5 38 -13 81 -16 68 -5 77 -8 77 -26 0 -18 5 -19 53 -14 42 4 54
2 54 -9 0 -8 -6 -14 -14 -14 -7 0 -13 -7 -13 -15 0 -24 -38 -18 -66 10 -19 19
-42 28 -97 35 -39 6 -79 17 -88 26 -11 10 -26 13 -45 8 -28 -7 -29 -6 -11 13
9 11 17 25 17 32 0 7 10 21 23 31 22 18 22 18 -41 25 -34 4 -65 12 -69 18 -4
7 13 8 51 4 56 -6 67 -3 144 30 22 9 47 12 72 8 24 -4 62 0 100 9 34 9 71 16
83 16 13 0 17 4 11 9 -5 6 -46 6 -103 0 -80 -8 -96 -8 -111 6 -9 8 -26 13 -36
10 -10 -3 -5 1 11 9 17 8 24 16 18 17 -23 3 -53 14 -92 32 -13 7 -66 12 -117
12 -58 0 -93 4 -91 10 4 11 -21 31 -79 63 -42 22 -131 32 -119 12 12 -20 -5
-27 -47 -19 -32 5 -62 2 -113 -12 -86 -23 -96 -23 -67 0 30 26 28 31 -10 29
-46 -1 -160 67 -203 122 -11 14 -43 50 -71 80 -62 67 -115 140 -109 150 3 4
-14 10 -36 13 -66 9 -65 4 -79 222 -5 83 -14 218 -20 300 -11 153 -23 441 -21
484 0 13 8 29 16 35 11 8 16 44 21 135 6 106 10 126 27 140 70 57 69 55 65
133 -2 40 -7 80 -12 89 -4 10 -2 22 6 30 10 11 14 54 13 177 0 89 -3 162 -7
162 -7 0 -14 -144 -9 -197 1 -12 -3 -24 -7 -27 -6 -3 -10 54 -11 134 0 86 3
140 9 140 6 0 10 -7 10 -15 0 -8 5 -15 10 -15 12 0 12 49 -1 115 -6 28 -12 69
-13 93 -2 23 -6 70 -10 105 -9 97 -10 340 -1 360 4 10 2 55 -5 100 -7 45 -14
109 -17 142 -5 54 -14 74 -35 75 -4 0 -5 -7 -1 -15 3 -9 -9 -2 -26 16 -30 30
-31 32 -17 60 13 27 13 29 -5 29 -14 0 -19 7 -19 25 0 15 5 24 13 22 6 -1 11
5 9 13 -3 11 2 9 18 -5 16 -15 20 -15 15 -3 -6 16 -28 27 -96 47 -27 9 -39 20
-49 46 -11 28 -19 35 -40 35 -38 0 -41 7 -19 44 19 33 19 33 -1 51 -12 10 -18
25 -16 32 5 12 -18 43 -32 43 -4 0 -8 -12 -9 -26 -2 -46 -20 -50 -32 -8 -6 22
-11 49 -11 62 0 12 -4 22 -10 22 -5 0 -10 -7 -10 -15 0 -9 -7 -18 -15 -21 -19
-8 -48 15 -41 32 3 7 -2 15 -9 18 -19 7 -35 -24 -35 -68 0 -20 -5 -36 -11 -36
-7 0 -9 9 -5 23 12 44 18 134 9 140 -5 3 -9 -2 -10 -11 -1 -30 -23 -125 -29
-131 -4 -3 -4 11 -2 32 3 33 1 38 -19 43 -24 6 -27 16 -13 49 8 18 9 17 9 -7
1 -29 18 -38 27 -14 10 27 10 116 -1 116 -5 0 -11 -12 -12 -26 0 -14 -6 -31
-13 -38 -9 -8 -10 4 -5 54 l6 65 -22 -50 c-11 -27 -21 -51 -22 -52 -6 -5 2
165 8 179 8 21 -2 41 -17 32 -7 -4 -8 2 -3 17 7 22 7 22 -9 6 -10 -9 -15 -21
-11 -26 9 -15 -7 -201 -18 -201 -5 0 -6 12 -3 26 6 21 4 25 -7 21 -11 -4 -16
10 -21 65 -4 38 -10 76 -13 84 -3 9 6 18 26 25 25 9 31 16 31 41 0 22 -4 29
-14 25 -10 -4 -13 -1 -9 9 3 7 1 14 -5 14 -6 0 -13 -6 -15 -12 -4 -9 -6 -10
-6 -1 -1 6 6 19 15 27 14 15 14 16 0 16 -9 0 -16 -4 -16 -9 0 -23 -40 -17 -70
10 -31 29 -55 35 -76 21z m-44 -325 c11 -4 9 -7 -7 -12 -27 -8 -27 -9 -11 -38
7 -12 11 -33 9 -46 -2 -20 1 -23 19 -18 16 4 20 2 16 -10 -3 -8 -6 -19 -6 -24
0 -5 -12 -9 -26 -9 -21 0 -25 -4 -22 -22 2 -17 9 -22 26 -21 19 2 21 0 13 -15
-6 -12 -5 -21 5 -30 8 -7 14 -8 14 -2 0 19 17 10 28 -15 11 -24 11 -25 -9 -14
-20 11 -21 9 -15 -22 3 -19 1 -41 -4 -49 -8 -12 -10 -11 -10 7 0 17 -4 21 -17
17 -14 -5 -15 -4 -4 4 9 6 11 17 6 28 -12 30 -25 -29 -19 -90 3 -36 1 -47 -6
-36 -5 8 -10 26 -10 41 0 14 -4 29 -9 35 -21 22 -43 150 -37 216 3 37 1 90 -5
118 -16 76 -6 90 34 47 17 -19 39 -37 47 -40z m463 -444 c-10 -15 -43 -60 -74
-100 -31 -39 -64 -91 -73 -115 -13 -35 -36 -163 -39 -216 -1 -21 -45 -62 -67
-62 -12 0 -48 -18 -81 -40 -74 -49 -105 -50 -114 -3 -6 35 11 73 33 73 7 0 28
31 46 69 25 52 36 67 45 58 8 -8 11 -5 11 14 0 13 11 41 24 63 22 37 23 38 29
15 5 -16 0 -33 -13 -51 -11 -15 -20 -34 -20 -43 0 -27 -52 -100 -63 -89 -3 3
-15 -11 -27 -31 -12 -20 -20 -38 -17 -41 3 -3 23 6 46 20 42 27 75 76 126 186
48 103 90 171 144 229 28 29 60 69 73 87 28 41 38 19 11 -23z m1497 -3595 c41
-17 43 -20 26 -30 -15 -8 -21 -8 -24 0 -2 8 -11 8 -28 1 -32 -11 -107 -12
-100 0 3 5 -36 8 -87 8 -104 0 -145 9 -128 26 14 14 156 26 236 19 33 -2 80
-13 105 -24z m1810 -1788 c19 -10 45 -24 58 -29 26 -12 29 -29 7 -38 -9 -3
-22 2 -30 13 -12 16 -14 16 -15 3 0 -16 28 -34 68 -42 12 -3 20 -2 17 3 -4 7
21 17 63 26 6 1 12 -4 12 -12 0 -8 7 -14 15 -14 27 0 65 -23 65 -40 0 -9 -10
-22 -22 -29 -21 -10 -19 -11 17 -7 35 3 41 1 41 -15 0 -12 -7 -19 -18 -19 -10
0 -18 4 -18 9 0 5 -22 12 -50 16 -33 5 -50 12 -50 21 0 18 -16 18 -23 0 -3 -8
-1 -17 6 -20 7 -3 1 -3 -12 0 -15 4 -27 1 -32 -7 -6 -11 -13 -11 -27 -3 -17
11 -68 11 -79 0 -13 -12 10 -23 53 -24 25 -1 54 -6 63 -11 13 -8 11 -11 -14
-21 -25 -9 -35 -8 -66 9 -20 12 -48 21 -63 21 -14 0 -35 9 -46 20 -16 16 -20
17 -20 5 0 -8 -9 -15 -19 -15 -14 0 -21 8 -23 28 -2 16 -12 31 -25 37 -13 5
-23 15 -23 22 0 18 17 16 28 -4 9 -15 12 -14 33 5 l23 22 -25 1 -24 0 23 11
c15 8 22 20 22 40 0 15 5 28 10 28 6 0 10 7 10 15 0 21 47 18 90 -5z"/>
<path d="M2591 6976 c-8 -10 -9 -16 -1 -21 10 -6 15 -45 5 -45 -3 0 -14 6 -25
13 -17 10 -22 9 -30 -2 -5 -9 -5 -22 1 -32 5 -10 7 -24 4 -32 -7 -18 31 -107
46 -107 7 0 9 -9 6 -21 -3 -12 1 -42 9 -67 9 -24 17 -68 19 -96 3 -63 4 -66
15 -41 l8 20 8 -20 c4 -11 16 -26 26 -33 10 -7 18 -24 18 -37 0 -13 4 -26 9
-30 5 -3 15 -22 22 -42 13 -41 25 -56 52 -66 9 -3 17 -13 17 -22 0 -8 7 -15
16 -15 9 0 18 -9 21 -20 8 -32 21 -23 28 20 5 31 2 47 -11 68 -25 39 -40 52
-58 52 -9 0 -16 -6 -16 -12 -1 -18 -40 31 -40 48 0 11 4 12 19 5 14 -8 20 -7
24 3 11 28 45 24 83 -10 20 -19 31 -34 25 -34 -7 0 -11 -17 -10 -42 1 -24 4
-34 6 -23 3 11 14 31 25 45 17 22 18 26 4 36 -9 6 -16 24 -16 40 l0 29 25 -30
c14 -16 30 -39 35 -50 31 -61 48 -80 71 -78 13 1 19 0 12 -3 -20 -9 -3 -34 33
-49 34 -14 46 -35 20 -35 -17 0 -28 -37 -12 -44 6 -2 -1 -5 -16 -5 -14 -1 -28
5 -31 12 -3 8 -12 5 -28 -12 -17 -16 -20 -25 -11 -28 17 -6 15 -33 -2 -33 -8
0 -20 14 -28 30 -13 31 -17 32 -56 22 -21 -7 -23 -13 -26 -97 -2 -49 -1 -72 1
-51 5 42 31 72 47 55 13 -12 186 -12 186 0 0 5 -12 12 -27 16 l-28 7 28 10
c26 9 38 38 16 38 -8 0 -8 4 -1 13 6 7 14 43 18 80 6 64 6 67 -14 67 -12 0
-38 17 -59 37 -32 32 -34 38 -19 41 11 3 27 -7 41 -24 16 -21 24 -24 30 -14 5
8 2 18 -8 25 -24 17 -22 62 3 70 28 9 25 22 -11 40 -30 16 -35 40 -9 40 7 0
15 6 18 14 3 10 -1 12 -17 8 -11 -3 -18 -1 -15 4 3 5 -2 12 -11 15 -10 4 -14
13 -10 22 3 8 0 19 -7 23 -9 6 -8 19 5 61 15 50 21 162 11 201 -3 9 -12 17
-20 17 -11 0 -14 -18 -14 -84 0 -47 -5 -97 -11 -113 l-11 -28 -13 25 c-8 14
-15 34 -16 45 -1 11 -5 0 -9 -25 -4 -25 -3 -46 1 -48 5 -2 9 -15 9 -28 0 -25
15 -33 24 -11 3 6 5 1 4 -13 -2 -14 2 -32 7 -40 5 -8 10 -22 12 -30 1 -8 7
-16 12 -18 6 -2 11 -13 11 -25 0 -16 -3 -18 -12 -9 -16 16 -28 15 -28 -3 0 -8
4 -15 9 -15 5 0 11 -16 13 -35 5 -45 -16 -53 -47 -17 -30 33 -31 44 -5 67 24
22 26 45 4 45 -11 0 -14 6 -9 21 6 16 0 27 -21 44 -17 13 -25 27 -20 32 5 4
11 2 13 -4 3 -7 9 -13 14 -13 5 0 2 11 -7 25 -9 14 -19 23 -22 20 -3 -2 -11 3
-19 13 -10 12 -16 14 -19 5 -3 -7 -23 -13 -44 -13 -22 0 -40 5 -43 13 -3 7 -9
0 -16 -15 -11 -29 -25 -36 -36 -18 -3 6 -1 10 6 10 8 0 9 4 0 13 -6 8 -12 24
-14 37 -5 30 -27 39 -27 11 0 -28 -17 -35 -29 -12 -15 27 -14 88 2 94 7 2 8 8
3 13 -5 5 -11 4 -13 -3 -3 -7 -11 -13 -19 -13 -10 0 -14 15 -14 60 0 52 -20
130 -33 130 -3 0 -10 -6 -16 -14z"/>
<path d="M3541 6555 c-7 -71 -13 -153 -14 -182 -2 -45 -5 -52 -25 -56 -13 -2
-29 2 -37 9 -18 18 -39 18 -32 0 4 -10 1 -13 -8 -9 -21 7 -29 -20 -18 -64 l9
-37 23 23 23 23 -5 -48 c-3 -27 -6 -51 -6 -53 -1 -2 -9 6 -20 18 -18 21 -19
21 -24 1 -3 -13 0 -20 8 -20 27 0 65 -24 65 -40 0 -30 30 -44 104 -51 91 -9
130 4 120 41 -4 14 -7 40 -6 58 2 41 -7 60 -19 41 -6 -10 -9 -11 -9 -1 0 24
-1 27 -21 48 -11 12 -19 25 -18 30 1 5 1 22 0 38 -1 23 -4 26 -14 17 -8 -6
-17 -8 -21 -4 -4 4 -11 1 -16 -7 -8 -12 -10 -9 -11 10 0 23 -1 23 -9 5 -7 -16
-9 -17 -9 -3 -1 9 4 29 11 45 6 15 13 57 15 93 2 35 8 69 14 75 8 7 9 -7 5
-51 -4 -47 -3 -63 8 -67 11 -4 13 7 8 61 -3 37 -9 69 -13 70 -5 2 -9 12 -9 22
0 10 -5 20 -11 22 -6 2 -14 19 -18 38 -5 27 -10 6 -20 -95z"/>
<path d="M2227 6440 c-3 -8 -8 -54 -12 -103 -5 -72 -3 -90 9 -103 9 -8 16 -11
16 -5 0 6 14 11 30 11 32 0 38 -11 16 -29 -17 -14 -29 -58 -20 -72 9 -16 34
10 34 37 0 12 5 26 10 29 6 3 10 2 10 -3 0 -5 18 -12 39 -16 22 -3 41 -12 44
-18 2 -8 8 -9 13 -4 5 5 4 11 -3 13 -7 3 -13 9 -13 14 0 12 -37 49 -50 49 -5
0 -7 7 -4 15 4 8 11 12 16 9 6 -4 8 4 7 17 -2 13 0 30 4 37 5 6 5 17 2 22 -10
16 -31 -5 -40 -38 l-8 -27 -7 25 c-4 14 -6 50 -3 80 3 43 2 51 -7 38 -15 -25
-27 -23 -55 10 -18 21 -25 24 -28 12z"/>
<path d="M10053 6311 c-17 -10 -43 -32 -58 -49 -15 -18 -33 -32 -40 -32 -8 0
-17 -10 -20 -21 -6 -17 -9 -19 -16 -8 -6 9 -9 10 -9 2 0 -6 -8 -14 -17 -16
-10 -3 5 -4 32 -2 56 4 131 23 220 54 32 12 67 21 77 21 14 0 18 8 18 33 l0
32 -78 2 c-57 1 -85 -3 -109 -16z"/>
<path d="M2547 6266 c-5 -12 -3 -23 5 -28 10 -8 11 -11 0 -15 -43 -17 -56 -63
-17 -63 14 0 25 5 25 10 0 11 33 14 43 3 9 -9 -43 -34 -63 -31 -25 4 -49 -20
-43 -42 7 -26 60 -28 66 -2 2 9 3 7 2 -5 -2 -26 5 -29 23 -11 6 6 15 9 19 5 3
-4 -4 -17 -16 -29 l-23 -21 23 -18 c13 -10 28 -19 32 -19 4 0 17 -9 29 -20 21
-19 21 -20 3 -40 -18 -19 -18 -20 3 -20 11 0 24 -4 27 -10 15 -24 35 -9 35 25
0 28 -3 33 -16 28 -14 -5 -16 -2 -10 20 4 18 2 27 -5 27 -7 0 -9 3 -6 7 9 9
87 -18 87 -30 0 -6 -7 -18 -14 -26 -18 -20 -10 -36 24 -46 14 -4 22 -4 18 0
-17 17 16 35 64 35 60 0 63 23 4 28 -36 3 -38 5 -32 33 4 21 0 35 -12 47 -10
10 -16 24 -14 32 3 8 0 10 -7 6 -16 -10 -61 20 -61 40 0 16 -23 44 -36 44 -16
0 -42 33 -37 46 6 16 -42 20 -52 4 -9 -15 -54 10 -57 34 -3 20 -4 20 -11 2z"/>
<path d="M8415 6240 c-3 -5 -3 -10 0 -10 18 0 -28 -31 -54 -36 -17 -4 -31 -10
-31 -14 0 -12 -163 -12 -170 0 -4 6 -13 5 -25 -3 -10 -8 -15 -19 -11 -25 9
-15 43 -16 51 -2 10 16 75 12 75 -5 0 -10 -10 -14 -35 -13 -20 1 -40 -3 -46
-9 -15 -15 -7 -47 11 -49 8 -1 49 -7 90 -14 41 -6 87 -13 102 -15 16 -3 28 1
32 10 4 10 -3 14 -22 13 -44 -1 -91 8 -107 22 -14 12 -14 15 0 30 8 9 15 22
15 28 0 7 18 9 55 5 39 -4 55 -2 55 6 0 6 -7 14 -15 17 -11 5 -3 12 25 27 31
15 44 17 53 8 6 -6 21 -11 33 -11 13 0 29 -8 36 -18 14 -20 78 -25 78 -7 0 6
-6 10 -13 10 -28 2 -133 40 -140 52 -9 15 -33 17 -42 3z"/>
<path d="M1090 6200 c0 -29 4 -40 15 -40 11 0 15 -12 15 -50 l0 -50 40 0 c31
0 40 -4 40 -17 1 -15 4 -14 20 6 11 12 18 26 15 30 -2 4 2 8 10 8 8 0 15 -7
15 -14 0 -8 5 -13 12 -11 17 6 51 -31 44 -48 -3 -8 -12 -14 -20 -14 -8 0 -17
-6 -19 -12 -4 -10 -6 -10 -6 0 -1 11 -41 18 -41 7 0 -4 7 -19 15 -35 16 -31
42 -39 62 -19 13 13 53 -9 53 -28 0 -14 22 -15 60 -3 22 7 22 8 4 9 -17 1 -20
6 -16 30 3 23 -3 37 -29 63 -31 31 -99 151 -99 174 0 20 -47 54 -73 54 -15 0
-27 -4 -27 -10 0 -5 -13 -8 -30 -7 -16 1 -30 5 -30 10 0 4 -7 7 -15 7 -11 0
-15 -11 -15 -40z"/>
<path d="M10190 6100 c-68 -16 -105 -28 -135 -43 -16 -9 -43 -21 -60 -28 -23
-9 -26 -13 -12 -16 9 -3 17 -9 17 -15 0 -6 -10 -8 -22 -5 -13 3 -32 1 -43 -4
-13 -6 10 -7 63 -3 83 6 104 -2 60 -24 -18 -8 -2 -11 80 -11 113 -1 129 10 71
47 l-32 20 32 7 c28 6 31 10 31 46 0 21 -3 38 -7 38 -5 -1 -24 -5 -43 -9z"/>
<path d="M0 5950 c0 -21 5 -30 16 -30 10 0 14 -5 10 -15 -6 -16 10 -54 28 -66
5 -4 -5 -10 -23 -14 -43 -9 -40 -33 6 -40 21 -3 49 -8 63 -11 14 -3 39 -8 55
-11 l30 -6 -23 21 c-13 11 -37 24 -53 27 -17 4 -29 13 -29 22 0 12 7 14 37 8
21 -4 41 -12 45 -18 4 -7 16 -6 40 3 31 13 66 35 42 28 -11 -3 -84 69 -84 83
0 4 6 9 13 12 10 4 10 7 0 18 -10 9 -13 10 -13 1 0 -18 -95 -16 -114 3 -25 25
-46 19 -46 -15z"/>
<path d="M80 5610 c0 -5 16 -10 36 -10 31 0 35 -2 24 -15 -7 -8 -23 -15 -36
-15 -17 0 -24 -7 -27 -27 -3 -20 -4 -15 -6 15 -1 41 -2 42 -36 42 -34 0 -35
-1 -35 -39 0 -26 5 -41 16 -45 27 -10 59 -7 82 10 12 8 31 13 41 9 13 -4 27 2
40 16 17 19 23 20 36 9 14 -12 18 -11 26 1 15 24 5 44 -26 50 -49 11 -135 10
-135 -1z"/>
<path d="M1805 4024 c-16 -13 -35 -22 -42 -20 -7 3 -10 -1 -6 -10 4 -10 -3
-14 -29 -14 -24 0 -42 -8 -57 -24 -19 -20 -33 -25 -76 -25 -29 0 -71 -5 -94
-11 -23 -6 -45 -8 -50 -6 -11 7 -71 -13 -71 -24 0 -4 -7 -10 -14 -13 -10 -4
-13 -1 -9 9 12 33 -38 0 -70 -46 -21 -30 -22 -51 -2 -44 8 4 15 14 15 24 0 10
6 20 13 23 9 3 11 -7 8 -39 -3 -42 -2 -44 25 -45 26 0 27 -1 9 -10 -15 -7 -10
-8 18 -4 22 4 37 2 37 -4 0 -6 17 -13 38 -16 20 -4 46 -9 57 -12 13 -3 16 -1
8 4 -7 5 45 10 125 11 140 1 313 15 345 27 9 4 17 11 17 15 0 5 20 12 45 16
40 6 47 10 52 35 3 16 9 26 14 24 4 -3 10 -1 14 5 3 5 1 10 -4 10 -6 0 -11 6
-11 13 0 7 -20 35 -45 61 -25 27 -45 54 -45 61 0 8 -16 11 -52 8 -40 -2 -48
-1 -33 7 l20 10 -20 -3 c-11 -2 -19 -9 -17 -16 4 -18 -46 -81 -64 -81 -7 0
-14 5 -14 10 0 6 -11 10 -24 10 -14 0 -28 5 -31 10 -7 12 20 58 44 77 9 6 14
14 11 16 -3 3 -18 -6 -35 -19z"/>
<path d="M7328 3475 c-3 -3 -29 -6 -59 -8 -46 -2 -54 -5 -54 -22 0 -18 -6 -20
-50 -18 -49 2 -50 2 -15 -8 19 -6 69 -12 111 -13 42 -2 98 -9 124 -16 45 -13
47 -12 72 12 30 30 24 44 -23 64 -33 14 -96 19 -106 9z"/>
<path d="M9012 3300 c-42 -10 -53 -20 -21 -20 18 0 21 -2 10 -9 -12 -8 -8 -11
15 -16 49 -11 54 -14 48 -28 -4 -10 6 -14 38 -14 24 0 69 -3 101 -6 31 -3 57
-2 57 3 0 9 -20 25 -32 25 -5 0 -7 3 -5 8 1 4 -23 20 -53 37 -56 30 -96 35
-158 20z"/>
<path d="M4800 3230 l25 -21 -47 7 c-64 8 -106 -3 -139 -39 -19 -21 -37 -30
-58 -30 -29 0 -30 -1 -11 -14 28 -20 16 -33 -31 -33 -44 0 -52 -22 -11 -28 12
-2 22 -8 22 -13 0 -6 7 -6 19 1 11 5 42 10 70 10 28 0 51 5 51 10 0 6 7 10 15
10 8 0 15 -5 15 -10 0 -14 31 3 66 35 15 14 31 25 37 25 5 0 7 14 5 31 l-5 32
59 -7 c39 -4 57 -2 53 4 -4 6 -11 8 -16 5 -5 -4 -21 2 -37 13 -15 11 -45 22
-67 26 l-40 7 25 -21z"/>
<path d="M4757 2624 c-2 -2 -39 -4 -83 -5 -46 -2 -88 -8 -100 -16 -11 -7 -24
-10 -28 -6 -3 4 -13 -3 -22 -15 -8 -12 -22 -22 -30 -22 -8 0 -14 -4 -14 -10 0
-5 11 -10 25 -10 14 0 29 -8 35 -20 14 -26 75 -28 89 -2 5 9 12 16 15 15 15
-7 24 -1 29 17 4 14 14 20 34 20 16 0 44 11 61 24 29 21 31 24 13 29 -11 3
-21 3 -24 1z"/>
<path d="M6020 2352 c43 -26 84 -58 138 -110 13 -13 30 -21 37 -18 7 2 16 -2
19 -10 3 -8 12 -14 21 -14 8 0 15 -6 15 -14 0 -8 14 -26 30 -40 31 -25 60 -26
60 -1 0 21 -40 85 -53 85 -21 0 -97 33 -97 41 0 5 11 9 24 9 13 0 29 7 36 15
10 13 9 15 -8 15 -12 0 -24 5 -27 10 -3 6 -17 10 -30 10 -14 0 -50 11 -81 25
-31 14 -73 25 -93 25 l-36 0 45 -28z"/>
<path d="M4659 1870 c-15 -11 -59 -31 -98 -43 -39 -13 -68 -27 -64 -30 9 -10
-5 -9 -26 2 -20 11 -72 -11 -110 -46 -23 -20 -23 -23 -7 -29 12 -5 25 1 42 20
33 35 48 33 29 -4 -9 -18 -11 -30 -5 -30 6 0 13 7 16 15 4 8 15 15 25 15 10 0
19 5 19 10 0 6 5 10 10 10 6 0 10 -18 10 -40 0 -30 4 -40 16 -40 11 0 14 6 9
20 -4 14 -1 22 11 27 10 4 19 2 22 -5 2 -7 21 -12 43 -12 35 0 39 3 39 25 0
23 2 24 20 15 21 -11 64 -4 56 9 -3 4 9 6 25 5 16 -1 36 4 44 12 8 8 17 15 20
14 16 -1 16 1 5 14 -9 12 -7 17 9 28 48 30 7 58 -82 58 -36 -1 -60 -7 -78 -20z"/>
<path d="M7741 1778 c-9 -25 13 -67 37 -68 25 0 10 -26 -26 -42 -32 -16 -38
-16 -51 -3 -14 13 -13 15 2 15 9 0 17 5 17 10 0 6 -11 10 -25 10 -31 0 -33 22
-3 50 18 17 19 20 5 20 -9 0 -17 5 -17 10 0 15 -25 12 -59 -7 -17 -10 -30 -25
-29 -33 1 -8 -1 -21 -6 -28 -5 -8 -2 -20 7 -30 7 -9 17 -25 20 -34 5 -14 18
-18 51 -18 25 0 48 -4 51 -10 5 -8 93 -3 104 6 2 2 -3 12 -13 23 -16 17 -16
18 9 16 14 -2 27 1 31 6 3 5 1 9 -4 9 -6 0 -15 13 -20 30 -7 18 -20 32 -35 35
-18 5 -23 12 -20 25 7 27 -16 35 -26 8z"/>
<path d="M4720 1601 c0 -5 -9 -12 -19 -16 -11 -3 -21 -16 -23 -28 -2 -17 -9
-21 -28 -19 -14 2 -32 12 -42 23 -18 21 -68 26 -68 7 1 -23 27 -48 49 -48 17
0 21 -6 21 -35 0 -26 3 -33 15 -29 8 4 15 12 15 19 0 15 38 31 48 20 4 -4 -5
-17 -20 -29 -17 -13 -28 -31 -28 -46 0 -21 5 -25 30 -26 25 -1 30 3 29 20 -5
58 -3 59 58 52 35 -4 62 -13 72 -25 20 -22 59 -33 68 -19 8 14 33 -19 33 -44
0 -16 5 -18 38 -13 20 4 44 9 54 11 9 3 19 0 23 -6 3 -5 17 -10 29 -10 13 0
35 -11 51 -25 21 -20 30 -23 41 -15 7 7 17 9 22 6 6 -3 15 1 22 9 12 14 15 14
30 0 9 -8 20 -12 24 -8 4 4 10 3 14 -2 10 -15 50 -35 67 -35 22 0 18 17 -6 23
-13 3 -18 10 -14 17 4 6 17 9 29 6 14 -3 29 3 45 19 13 14 27 25 32 25 16 0
10 32 -8 46 -10 7 -28 14 -40 14 -14 0 -23 6 -23 15 0 14 -4 14 -37 0 -24 -10
-39 -12 -41 -5 -2 5 -10 10 -18 10 -8 0 -13 9 -11 23 2 20 -2 22 -40 19 -23
-2 -52 2 -64 8 -17 9 -23 9 -29 -1 -7 -10 -27 -10 -96 -2 -73 9 -90 15 -105
34 -10 13 -21 21 -24 17 -4 -4 -16 2 -28 12 -25 24 -41 16 -33 -17 10 -37 -14
-55 -61 -44 -21 5 -32 9 -25 10 7 1 12 17 12 46 0 38 -3 45 -20 45 -11 0 -20
-4 -20 -9z"/>
<path d="M5520 1385 c0 -11 -12 -15 -42 -17 -39 -1 -40 -2 -10 -5 23 -3 32 -9
29 -17 -3 -8 -1 -18 5 -24 17 -17 1 -42 -26 -42 -27 0 -41 -27 -31 -60 9 -30
52 -26 67 5 9 20 18 25 50 25 21 0 38 -4 38 -10 0 -11 63 -12 100 0 23 7 24 8
5 14 -11 4 -28 12 -37 17 -10 5 -25 9 -33 9 -18 0 -20 17 -2 23 6 2 27 2 45
-1 20 -3 32 0 32 7 0 6 -7 11 -15 11 -8 0 -15 5 -15 10 0 6 12 10 28 10 15 0
34 5 42 10 13 9 13 11 0 20 -20 13 -48 12 -52 -2 -2 -6 -21 -11 -41 -10 -20 1
-37 -3 -37 -8 0 -6 5 -10 10 -10 6 0 10 -4 10 -10 0 -18 -29 -10 -35 10 -3 11
-12 20 -18 20 -7 0 -18 9 -25 20 -14 23 -42 27 -42 5z"/>
<path d="M4790 1338 c-25 -11 -56 -33 -70 -49 -14 -15 -38 -31 -54 -35 -15 -3
-30 -14 -33 -23 -3 -9 -9 -26 -15 -38 -11 -22 -3 -47 12 -38 5 3 19 -4 31 -16
17 -17 26 -20 38 -12 15 10 17 15 20 56 0 9 8 17 16 17 8 0 37 21 64 47 28 27
66 53 83 59 22 7 34 18 36 32 3 20 -1 22 -40 22 -24 -1 -63 -10 -88 -22z"/>
<path d="M7000 1349 c0 -16 47 -69 54 -62 3 4 6 0 6 -7 0 -7 8 -22 17 -33 17
-18 17 -19 0 -31 -10 -8 -35 -11 -67 -8 -46 4 -50 3 -50 -17 0 -24 8 -26 33
-6 20 14 47 10 47 -8 0 -6 7 -19 16 -29 16 -17 18 -17 35 4 11 11 19 28 19 37
0 14 2 14 10 1 8 -12 10 -12 16 3 5 14 13 17 35 12 21 -5 29 -3 29 7 0 12 33
48 45 48 15 0 1 -30 -20 -44 -14 -9 -25 -20 -25 -24 0 -5 18 -18 40 -30 22
-11 40 -20 40 -19 0 1 -4 17 -9 35 -9 29 -8 32 7 28 64 -19 74 -19 70 0 -2 11
-14 30 -27 43 -22 23 -23 25 -5 31 15 6 14 8 -9 12 -15 3 -27 1 -27 -3 0 -5
-16 -9 -35 -9 -19 0 -35 5 -35 11 0 5 -5 7 -10 4 -6 -4 -8 -11 -5 -16 12 -19
-18 -8 -49 18 -55 47 -146 79 -146 52z"/>
<path d="M1690 1055 c-25 -14 -25 -14 14 -15 63 0 27 -26 -48 -34 -89 -9 -164
-33 -176 -56 -6 -11 -17 -20 -25 -20 -8 0 -15 -7 -15 -15 0 -8 9 -15 20 -15
12 0 20 -7 20 -16 0 -12 7 -15 25 -12 13 3 26 0 28 -5 2 -6 9 -7 15 -3 9 5 9
13 2 27 -10 18 -8 19 14 13 18 -4 25 -1 29 13 3 10 5 2 5 -17 -1 -58 1 -70 17
-70 9 0 15 9 15 25 0 14 -5 25 -12 25 -17 0 3 17 27 23 18 4 17 5 -3 6 -29 1
-24 25 5 29 14 2 23 -3 27 -15 3 -10 4 -6 2 10 -2 20 1 27 14 27 10 0 23 -7
30 -15 17 -20 42 -15 46 8 1 11 -5 17 -19 18 -15 0 -17 2 -7 6 8 3 17 9 20 12
10 12 50 31 66 31 20 0 15 29 -8 44 -13 8 -23 8 -38 -2 -12 -7 -20 -8 -20 -2
0 15 -41 12 -70 -5z"/>
</g>
</svg>
