<?xml version="1.0" standalone="no"?>
<!DOCTYPE svg PUBLIC "-//W3C//DTD SVG 20010904//EN"
 "http://www.w3.org/TR/2001/REC-SVG-20010904/DTD/svg10.dtd">
<svg version="1.0" xmlns="http://www.w3.org/2000/svg"
 width="300.000000pt" height="299.000000pt" viewBox="0 0 300.000000 299.000000"
 preserveAspectRatio="xMidYMid meet">
<metadata>
Created by potrace 1.10, written by Peter Selinger 2001-2011
</metadata>
<g transform="translate(0.000000,299.000000) scale(0.100000,-0.100000)"
fill="#000000" stroke="none">
<path d="M53 2983 c20 -2 54 -2 75 0 20 2 3 4 -38 4 -41 0 -58 -2 -37 -4z"/>
<path d="M217 2983 c18 -2 50 -2 70 0 21 2 7 4 -32 4 -38 0 -55 -2 -38 -4z"/>
<path d="M378 2983 c23 -2 61 -2 85 0 23 2 4 4 -43 4 -47 0 -66 -2 -42 -4z"/>
<path d="M520 2973 c0 -10 5 -25 10 -33 8 -12 10 -9 10 12 0 27 1 27 78 31
l77 3 -87 2 c-78 2 -88 0 -88 -15z"/>
<path d="M710 2983 c0 -5 28 -7 62 -5 107 5 117 9 26 11 -49 0 -88 -2 -88 -6z"/>
<path d="M896 2975 c4 -8 1 -22 -6 -30 -7 -9 -10 -18 -6 -22 3 -4 12 8 18 25
l12 32 526 3 525 2 -537 3 c-476 2 -537 0 -532 -13z"/>
<path d="M2303 2983 c126 -2 328 -2 450 0 122 1 20 2 -228 2 -247 0 -347 -1
-222 -2z"/>
<path d="M2995 1495 c0 -825 1 -1161 2 -747 2 415 2 1090 0 1500 -1 411 -2 72
-2 -753z"/>
<path d="M1986 2905 c-30 -51 -37 -71 -31 -93 l7 -27 14 33 c7 18 13 36 11 40
-1 4 9 29 22 55 35 71 20 66 -23 -8z"/>
<path d="M723 2906 c3 -30 13 -67 22 -83 9 -15 14 -20 11 -10 -3 9 -11 46 -17
82 -13 79 -24 86 -16 11z"/>
<path d="M1938 2923 c-34 -39 -50 -93 -27 -93 5 0 8 4 5 9 -3 5 5 29 18 55 26
51 26 54 4 29z"/>
<path d="M710 2824 c0 -9 30 -127 37 -144 4 -11 8 -7 13 12 8 27 -26 137 -42
138 -5 0 -8 -3 -8 -6z"/>
<path d="M39 2808 c7 -10 20 -18 28 -18 8 0 21 -7 29 -15 9 -8 23 -15 33 -15
22 0 23 -27 2 -35 -13 -5 -13 -7 -1 -15 18 -11 30 5 30 40 0 19 -9 29 -39 44
-22 10 -46 16 -54 13 -8 -3 -21 0 -28 6 -11 10 -11 9 0 -5z"/>
<path d="M490 2786 c11 -31 -1 -56 -26 -56 -8 0 -14 -5 -14 -10 0 -6 13 -4 30
5 33 17 38 41 15 71 -14 18 -14 17 -5 -10z"/>
<path d="M1909 2803 c-6 -47 -4 -80 6 -80 7 0 10 8 7 19 -3 11 3 24 13 32 10
7 15 18 11 24 -8 13 -35 16 -37 5z"/>
<path d="M687 2774 c-14 -28 -15 -33 -2 -44 8 -7 15 -17 15 -22 0 -6 -7 -5
-15 2 -23 19 -20 -22 10 -116 l24 -79 -6 63 c-5 55 -4 62 11 56 13 -5 14 -2 6
22 -6 16 -14 56 -18 89 l-8 60 -17 -31z"/>
<path d="M1863 2759 c-13 -25 -23 -53 -23 -63 0 -9 -4 -15 -9 -11 -5 3 -13 0
-17 -6 -4 -8 -3 -9 4 -5 14 9 15 -4 2 -24 -8 -12 -10 -12 -10 -1 0 8 -2 12 -5
10 -2 -3 -1 -15 2 -28 4 -16 25 -32 69 -52 34 -16 66 -29 70 -29 10 0 -56 47
-83 59 -28 13 -30 45 -4 68 11 9 17 22 14 30 -3 7 0 20 7 28 6 7 10 26 8 42
-3 27 -4 26 -25 -18z"/>
<path d="M1320 2740 c19 -16 54 -44 76 -62 71 -56 88 -89 94 -187 l5 -86 21
33 c23 36 23 32 -13 138 -14 43 -84 116 -159 167 -53 36 -67 35 -24 -3z"/>
<path d="M1133 2718 c-36 -40 -103 -131 -103 -141 0 -3 9 -7 20 -10 16 -4 21
1 26 28 3 19 15 42 26 52 81 74 108 113 79 113 -5 0 -26 -19 -48 -42z"/>
<path d="M191 2729 c-23 -19 -24 -21 -6 -37 10 -9 15 -11 11 -4 -4 7 -1 12 8
12 10 0 16 9 16 25 0 30 1 30 -29 4z"/>
<path d="M540 2734 c0 -10 40 -42 44 -35 10 16 -5 40 -25 38 -10 -1 -19 -2
-19 -3z"/>
<path d="M496 2715 c-12 -10 -16 -20 -11 -32 6 -16 8 -16 16 5 5 13 13 20 19
17 5 -3 10 -2 10 4 0 17 -15 20 -34 6z"/>
<path d="M235 2700 c-9 -28 2 -42 24 -30 10 5 22 6 27 2 5 -4 -2 5 -15 21 -29
32 -28 32 -36 7z"/>
<path d="M400 2703 c0 -11 -10 -25 -22 -31 -14 -6 -17 -11 -8 -11 8 0 25 8 38
17 21 16 22 20 8 31 -14 12 -16 11 -16 -6z"/>
<path d="M43 2675 c2 -11 6 -26 10 -32 6 -9 2 -13 -9 -13 -13 0 -15 -3 -7 -11
6 -6 17 -9 25 -7 13 2 12 9 -3 43 -10 22 -17 31 -16 20z"/>
<path d="M450 2667 c0 -28 6 -32 28 -19 9 7 8 13 -8 27 -20 18 -20 18 -20 -8z"/>
<path d="M0 2555 c0 -65 2 -116 4 -114 7 7 9 219 2 226 -3 4 -6 -47 -6 -112z"/>
<path d="M402 2652 c-22 -17 -21 -32 2 -32 6 0 4 5 -4 10 -13 9 -13 10 0 11 8
1 21 1 28 0 6 -1 12 5 12 14 0 19 -10 19 -38 -3z"/>
<path d="M520 2655 c-7 -8 -9 -15 -4 -15 5 0 19 -3 32 -6 27 -8 30 11 3 25
-14 8 -22 7 -31 -4z"/>
<path d="M265 2649 c-8 -13 2 -59 14 -59 18 0 41 38 34 56 -6 17 -8 17 -14 -6
-7 -24 -7 -24 -8 -2 -1 23 -15 29 -26 11z"/>
<path d="M1275 2601 c-16 -34 -24 -64 -20 -71 5 -9 4 -11 -3 -6 -28 17 -9 -34
38 -102 28 -41 50 -68 50 -62 0 7 -16 34 -36 61 -32 44 -35 54 -30 96 7 65 20
108 33 108 19 0 24 12 10 23 -11 9 -19 0 -42 -47z"/>
<path d="M1361 2632 c30 -39 55 -51 33 -16 -9 14 -26 30 -37 36 -19 10 -18 8
4 -20z"/>
<path d="M1132 2598 c-32 -42 -39 -58 -24 -58 5 0 14 11 20 25 6 14 17 24 23
23 6 -2 12 9 13 25 1 15 1 27 1 27 0 0 -15 -19 -33 -42z"/>
<path d="M631 2616 c-7 -8 -10 -20 -6 -26 3 -5 1 -10 -4 -10 -13 0 -15 -36 -3
-44 8 -5 36 83 29 91 -2 2 -10 -3 -16 -11z"/>
<path d="M316 2597 c-25 -20 -27 -25 -13 -30 11 -4 17 -1 17 9 0 8 4 13 9 10
13 -8 41 4 41 17 0 7 -4 7 -12 -1 -17 -17 -33 -15 -18 3 18 21 10 19 -24 -8z"/>
<path d="M652 2569 c-11 -36 -11 -45 3 -66 17 -25 42 -40 51 -30 5 5 -33 137
-39 137 -1 0 -8 -19 -15 -41z"/>
<path d="M200 2570 c-9 -18 -8 -18 20 -9 34 12 40 29 10 29 -10 0 -24 -9 -30
-20z"/>
<path d="M1383 2490 c2 -47 0 -76 -4 -65 -5 14 -8 5 -8 -30 0 -43 1 -47 12
-30 13 23 17 180 4 198 -5 7 -6 -26 -4 -73z"/>
<path d="M241 2546 c-14 -16 -6 -40 10 -31 5 4 9 2 9 -4 0 -5 -5 -13 -10 -16
-6 -4 -8 -11 -4 -16 10 -16 24 1 24 29 0 40 -13 57 -29 38z"/>
<path d="M94 2539 c-8 -14 21 -43 35 -35 6 4 16 16 21 27 10 17 7 19 -19 19
-16 0 -33 -5 -37 -11z"/>
<path d="M302 2538 c-15 -15 -16 -45 -1 -53 16 -10 24 4 11 17 -9 9 -8 16 5
30 18 20 4 25 -15 6z"/>
<path d="M884 2496 c-36 -37 -55 -66 -59 -90 -6 -32 -2 -42 42 -98 26 -34 55
-63 63 -65 9 -3 11 -1 5 4 -6 4 -25 27 -44 51 -23 30 -28 42 -17 42 8 0 18 -4
21 -10 3 -5 11 -10 18 -10 19 0 -27 29 -48 30 -20 1 -20 1 -1 15 19 14 65 11
76 -6 3 -4 11 -4 18 0 7 4 31 6 52 4 21 -2 41 0 44 6 3 5 -21 12 -57 15 -34 4
-83 9 -110 12 l-47 6 42 43 c24 23 62 52 85 64 23 11 45 26 48 32 4 6 -7 4
-23 -5 -39 -20 -53 -20 -46 -1 11 28 -10 15 -62 -39z"/>
<path d="M1969 2537 c7 -9 30 -27 50 -39 122 -73 139 -88 174 -156 19 -37 50
-110 67 -162 31 -93 32 -97 25 -225 -3 -71 -6 -160 -5 -196 0 -46 -4 -70 -14
-78 -8 -7 -20 -35 -28 -63 -11 -46 -17 -53 -56 -70 -24 -11 -46 -26 -49 -34
-11 -30 12 -33 77 -13 72 22 108 46 51 34 -26 -6 -32 -4 -28 6 3 8 11 32 18
54 7 22 20 54 29 70 10 17 17 56 18 93 1 35 6 89 12 120 14 79 10 219 -6 251
-8 14 -14 31 -14 38 0 7 -6 27 -14 45 -19 43 -43 100 -47 113 -25 66 -74 113
-182 174 -21 12 -50 29 -65 39 -26 16 -26 16 -13 -1z"/>
<path d="M195 2532 c-17 -12 -47 -63 -41 -69 3 -4 2 -11 -2 -18 -4 -6 2 -1 13
12 16 18 49 84 42 83 -1 0 -7 -4 -12 -8z"/>
<path d="M1734 2521 c-17 -10 -40 -31 -52 -45 -31 -40 -62 -187 -65 -312 -2
-108 -2 -110 37 -194 43 -95 44 -96 52 -87 3 3 -6 32 -21 64 -15 32 -31 72
-37 88 -12 37 -18 186 -8 200 4 6 7 28 6 50 -4 92 45 176 127 215 40 19 53 30
41 34 -26 10 -48 7 -80 -13z"/>
<path d="M1880 2521 c0 -5 19 -19 43 -31 76 -40 176 -111 197 -140 42 -59 91
-208 98 -299 5 -76 7 -81 13 -46 12 64 10 148 -5 176 -7 14 -16 38 -20 53 -4
16 -11 24 -18 20 -6 -4 -9 -1 -6 7 6 17 -26 85 -56 118 -19 21 -150 111 -203
139 -26 14 -43 15 -43 3z"/>
<path d="M1007 2504 c-16 -9 -27 -18 -24 -21 3 -2 22 5 44 16 21 11 31 20 23
20 -8 0 -28 -7 -43 -15z"/>
<path d="M1123 2468 c48 -49 95 -139 91 -175 -1 -7 2 -13 8 -13 5 0 7 -4 4 -9
-7 -11 23 -71 35 -71 13 0 4 30 -26 90 -12 25 -28 61 -34 82 -12 38 -79 121
-111 138 -10 6 5 -14 33 -42z"/>
<path d="M593 2473 c-92 -99 -275 -340 -403 -533 -46 -69 -107 -151 -137 -183
l-53 -58 2 -112 2 -112 3 113 c2 61 7 112 11 112 4 0 28 18 52 41 52 46 124
83 150 76 13 -3 17 0 13 9 -7 19 -20 17 -72 -6 -24 -11 -46 -18 -49 -15 -3 2
19 16 49 30 54 24 55 25 52 65 -2 35 3 46 38 82 42 45 47 53 25 45 -10 -4 -13
-1 -9 9 3 8 12 13 19 10 8 -3 14 0 14 6 0 6 17 34 39 62 21 28 44 61 51 74 6
13 17 22 23 19 7 -3 28 9 47 26 l35 30 -37 -21 c-21 -12 -38 -18 -38 -14 1 9
68 82 76 82 7 0 34 27 34 35 0 3 -6 3 -12 0 -7 -4 -6 -1 2 7 9 7 25 27 37 44
21 30 53 42 53 20 0 -6 11 3 24 19 33 41 51 25 37 -34 -5 -23 -12 -46 -16 -49
-4 -4 -22 10 -39 30 l-33 37 -16 -34 c-9 -20 -12 -35 -7 -35 6 0 15 10 20 23
6 15 9 17 9 6 1 -18 54 -45 69 -35 5 3 17 27 27 53 18 45 18 47 0 57 -10 6
-25 19 -34 29 -21 23 -27 22 -58 -10z"/>
<path d="M378 2466 c-10 -7 -18 -16 -18 -20 0 -10 40 -7 62 5 17 9 18 13 7 20
-19 12 -31 11 -51 -5z"/>
<path d="M273 2451 c-3 -13 -11 -18 -21 -14 -14 4 -14 3 -3 -5 16 -12 65 14
55 29 -9 15 -26 10 -31 -10z"/>
<path d="M1607 2426 c-41 -38 -51 -68 -13 -39 19 15 61 73 52 73 -1 0 -19 -15
-39 -34z"/>
<path d="M917 2444 c-12 -12 4 -24 31 -24 25 0 25 1 6 15 -21 16 -28 18 -37 9z"/>
<path d="M45 2430 c-8 -13 4 -32 16 -24 5 3 8 0 7 -7 -2 -6 3 -14 11 -17 10
-3 12 0 8 12 -4 10 -7 24 -7 32 0 16 -26 19 -35 4z"/>
<path d="M1210 2437 c0 -10 61 -117 66 -117 3 0 -3 14 -12 31 -24 48 -54 95
-54 86z"/>
<path d="M157 2413 c-11 -10 -8 -41 4 -49 6 -3 16 -1 22 6 9 10 9 11 -1 6 -10
-6 -11 -1 -6 18 6 24 -4 34 -19 19z"/>
<path d="M261 2388 c-7 -13 -10 -20 -6 -16 5 4 14 3 20 -2 14 -12 30 14 19 31
-9 14 -18 11 -33 -13z"/>
<path d="M90 2355 c-34 -35 -34 -36 -12 -42 12 -3 22 -10 22 -15 0 -5 5 -6 10
-3 16 10 12 38 -5 31 -9 -3 -15 0 -15 9 0 8 9 15 19 15 23 0 37 18 24 31 -5 5
-23 -5 -43 -26z"/>
<path d="M317 2384 c-4 -4 -7 -16 -7 -26 0 -10 -5 -18 -11 -18 -5 0 -7 -4 -4
-10 3 -5 11 -10 16 -10 6 0 7 5 4 10 -3 6 1 10 9 10 8 0 17 4 20 9 7 11 -18
44 -27 35z"/>
<path d="M3 2280 c0 -47 2 -66 4 -42 2 23 2 61 0 85 -2 23 -4 4 -4 -43z"/>
<path d="M360 2325 c0 -9 5 -13 10 -10 6 3 10 -1 10 -9 0 -18 8 -20 29 -7 11
7 7 13 -18 25 -28 15 -31 15 -31 1z"/>
<path d="M1511 2298 c-5 -18 -12 -51 -15 -73 -4 -24 2 -12 14 30 19 71 21 104
1 43z"/>
<path d="M1337 2271 c-23 -39 -21 -52 3 -21 l19 25 2 -50 c0 -27 2 -70 2 -95
2 -81 -29 -190 -55 -190 -5 0 -6 5 -3 10 3 6 2 10 -2 10 -5 0 -14 -36 -21 -80
-7 -44 -15 -88 -18 -98 -10 -36 78 156 98 213 26 77 31 236 8 278 l-16 27 -17
-29z"/>
<path d="M289 2249 c-16 -16 -18 -24 -9 -32 8 -9 15 -7 26 7 14 19 19 46 9 46
-3 0 -14 -9 -26 -21z"/>
<path d="M1171 2260 c0 -3 9 -34 19 -70 14 -44 18 -52 14 -25 -5 33 -31 110
-33 95z"/>
<path d="M86 2185 c3 -27 9 -54 14 -59 10 -10 4 35 -10 79 -8 25 -9 21 -4 -20z"/>
<path d="M200 2207 c0 -9 6 -17 13 -17 7 -1 5 -6 -6 -14 -15 -11 -15 -15 -3
-19 22 -9 32 32 12 51 -15 15 -16 15 -16 -1z"/>
<path d="M910 2211 c0 -7 -25 -11 -61 -11 -85 0 -149 -41 -149 -95 0 -10 6
-15 18 -13 9 2 16 11 14 20 -3 18 21 30 43 21 14 -5 14 -8 -2 -26 -12 -13 -4
-10 23 9 23 16 40 31 38 33 -2 2 -10 -2 -19 -9 -9 -7 -18 -10 -21 -7 -3 3 3
10 15 16 16 9 27 7 53 -9 18 -11 40 -20 48 -19 8 0 -3 9 -25 19 l-40 19 37 15
c40 17 54 31 38 41 -5 3 -10 1 -10 -4z"/>
<path d="M1066 2197 c4 -6 21 -31 37 -54 16 -23 27 -48 24 -56 -3 -9 4 -23 16
-34 22 -18 22 -18 5 3 -11 12 -14 24 -9 30 11 10 -46 110 -67 118 -8 4 -10 1
-6 -7z"/>
<path d="M1019 2154 c12 -15 21 -35 21 -44 0 -18 23 -34 34 -23 7 7 -11 42
-37 71 -29 31 -43 28 -18 -4z"/>
<path d="M217 2108 c-12 -24 -13 -35 -4 -50 16 -25 25 -23 20 6 -3 13 0 27 6
30 13 8 15 46 2 46 -5 0 -15 -14 -24 -32z"/>
<path d="M130 2117 c0 -7 11 -23 25 -35 21 -19 25 -19 25 -5 0 9 7 25 17 35
15 17 14 18 -25 18 -28 0 -42 -4 -42 -13z"/>
<path d="M1491 2074 c0 -21 4 -48 9 -59 6 -13 7 -1 3 35 -7 66 -13 78 -12 24z"/>
<path d="M1 2078 c-1 -31 19 -37 39 -13 8 9 8 15 2 15 -6 0 -12 -6 -15 -12 -3
-8 -9 -3 -15 12 l-11 25 0 -27z"/>
<path d="M83 2079 c-13 -5 -23 -13 -23 -20 0 -6 7 -8 16 -5 8 3 12 2 9 -4 -8
-13 44 -25 57 -12 22 22 -24 54 -59 41z"/>
<path d="M815 2080 c18 -6 17 -8 -8 -25 -27 -17 -28 -17 -41 1 -12 16 -15 11
-21 -51 l-7 -70 -104 -102 c-57 -57 -104 -107 -104 -113 0 -21 20 -8 73 50 52
56 79 77 61 48 -4 -7 26 16 67 51 91 78 89 76 62 62 -13 -6 -23 -8 -23 -4 0 4
-7 -2 -16 -13 -15 -17 -15 -17 0 8 11 18 12 28 4 30 -8 3 -5 16 8 43 14 29 33
47 72 67 l53 27 -48 -1 c-31 0 -41 -3 -28 -8z"/>
<path d="M1306 2053 c-7 -45 -8 -88 -1 -82 8 9 22 119 15 119 -4 0 -10 -17
-14 -37z"/>
<path d="M692 2033 c1 -41 2 -43 5 -13 3 19 9 41 15 47 8 10 6 13 -6 13 -13 0
-16 -10 -14 -47z"/>
<path d="M1 1884 c1 -87 4 -143 8 -124 8 42 6 269 -3 277 -3 4 -5 -65 -5 -153z"/>
<path d="M41 1990 c1 -28 5 -46 9 -40 4 7 10 11 14 11 20 -3 26 1 26 14 0 8
-5 15 -11 15 -5 0 -7 -4 -4 -10 3 -5 1 -10 -5 -10 -7 0 -10 13 -8 32 2 18 -2
33 -10 35 -9 4 -12 -9 -11 -47z"/>
<path d="M166 2024 c-3 -9 -6 -25 -6 -37 1 -20 3 -20 25 8 14 17 25 33 25 38
0 14 -38 7 -44 -9z"/>
<path d="M909 2031 c9 -6 10 -11 2 -15 -6 -4 -11 -13 -11 -19 0 -7 5 -4 11 6
5 9 16 17 23 17 16 0 96 -75 96 -90 0 -13 10 -12 39 4 l25 14 -35 17 c-19 10
-53 31 -76 46 -23 16 -52 29 -65 29 -17 0 -19 -3 -9 -9z"/>
<path d="M1466 1934 c-4 -15 -27 -69 -52 -122 -24 -52 -44 -109 -44 -126 0
-48 27 -148 41 -157 17 -10 25 7 11 24 -5 7 -15 42 -21 80 -13 74 -13 72 53
204 32 64 42 72 65 51 7 -7 4 6 -8 30 -25 49 -36 53 -45 16z"/>
<path d="M246 1912 c-17 -38 -18 -45 -5 -69 12 -22 15 -23 18 -7 2 10 11 30
20 44 l16 25 -28 -18 -28 -18 16 25 c9 14 15 33 13 43 -2 11 -9 3 -22 -25z"/>
<path d="M1568 1891 c15 -28 31 -51 35 -51 10 0 -32 77 -49 91 -7 6 0 -13 14
-40z"/>
<path d="M1120 1926 c0 -5 8 -15 18 -22 16 -13 16 -13 -3 -14 -11 0 -36 -5
-56 -10 l-35 -10 -16 -102 c-13 -78 -14 -106 -5 -116 9 -11 14 6 24 83 13 105
26 130 74 140 16 4 32 7 35 8 4 1 15 -14 25 -33 14 -26 19 -30 19 -14 0 11
-18 38 -40 59 -22 21 -40 35 -40 31z"/>
<path d="M1664 1855 c-7 -11 -8 -29 -4 -40 7 -18 9 -18 15 -3 3 9 5 27 3 40
-3 22 -4 22 -14 3z"/>
<path d="M2149 1863 c-2 -7 -30 -46 -63 -87 -52 -66 -65 -77 -120 -97 -62 -22
-104 -48 -56 -34 76 23 131 49 147 70 12 17 22 22 31 16 18 -11 -68 -60 -160
-92 l-66 -23 -67 68 c-46 48 -70 65 -77 58 -14 -14 -3 -41 19 -49 39 -14 73
-57 73 -91 0 -25 10 -43 41 -75 l41 -42 -31 41 c-42 56 -40 70 10 78 42 7 120
35 171 62 36 19 40 18 33 -8 -3 -13 10 2 29 32 33 52 62 146 53 173 -3 9 -5 9
-8 0z"/>
<path d="M901 1838 c-37 -8 -62 -27 -154 -116 l-109 -107 5 -95 c6 -94 31
-189 61 -232 20 -29 20 -7 0 47 -20 55 -44 216 -37 246 9 33 177 214 211 227
115 43 122 52 23 30z"/>
<path d="M1480 1777 c0 -4 125 -103 164 -129 12 -8 -5 -34 -69 -108 -25 -30
-54 -68 -62 -85 -12 -24 -8 -21 23 14 22 25 57 70 78 100 22 31 44 59 50 63
12 8 -39 57 -97 92 -23 14 -52 33 -64 42 -13 9 -23 14 -23 11z"/>
<path d="M653 1742 c-18 -15 -46 -44 -63 -66 -25 -32 -30 -47 -29 -90 2 -85
16 -111 17 -33 2 77 13 103 72 170 48 54 48 58 3 19z"/>
<path d="M1860 1720 c36 -30 50 -36 50 -21 0 10 -35 34 -65 44 -12 5 -7 -4 15
-23z"/>
<path d="M2152 1636 c-18 -39 -32 -75 -32 -81 0 -5 16 23 36 64 19 41 33 78
32 81 -2 4 -18 -25 -36 -64z"/>
<path d="M507 1693 c-8 -16 14 -251 29 -318 9 -38 34 -114 55 -169 22 -54 39
-105 39 -113 0 -8 28 -56 61 -107 l62 -91 -7 50 c-3 27 -10 53 -15 58 -5 5 -6
-3 -4 -17 3 -14 3 -26 0 -26 -3 0 -23 28 -44 63 -29 46 -51 105 -85 227 -26
91 -52 192 -57 224 -14 76 -14 182 -1 207 9 16 7 19 -9 19 -11 0 -22 -3 -24
-7z"/>
<path d="M1182 1619 c-23 -40 -23 -42 -7 -85 9 -24 21 -44 26 -44 6 0 7 -4 4
-10 -3 -5 -1 -10 5 -10 6 0 8 -10 4 -25 -4 -17 -2 -25 6 -25 10 0 10 -3 0 -15
-7 -8 -10 -26 -8 -40 3 -14 2 -25 -2 -25 -4 0 -10 -6 -13 -13 -4 -10 3 -12 24
-9 29 4 29 4 23 61 -3 31 -13 83 -22 116 -8 33 -16 84 -16 113 -1 28 -1 52 -1
52 0 0 -11 -19 -23 -41z m12 -53 c3 -13 8 -32 12 -43 3 -10 -4 -2 -15 17 -23
39 -25 50 -12 50 5 0 12 -11 15 -24z"/>
<path d="M979 1628 c-9 -40 -6 -50 23 -75 18 -16 51 -45 75 -67 24 -21 43 -34
43 -28 0 6 -25 30 -55 53 -33 25 -54 48 -53 58 2 10 -3 15 -14 13 -20 -3 -23
9 -7 25 8 8 8 13 0 17 -6 4 -11 6 -12 4z"/>
<path d="M2629 1604 c19 -8 70 -40 113 -71 63 -46 80 -63 87 -92 5 -20 19 -74
31 -121 24 -93 23 -145 -6 -315 -23 -140 -32 -165 -52 -159 -12 4 -13 3 -4 -3
10 -8 3 -49 -36 -205 -28 -107 -57 -209 -66 -227 -10 -18 -36 -50 -59 -73 -40
-39 -44 -47 -78 -187 -20 -80 -32 -148 -27 -150 13 -5 16 0 21 34 2 17 6 37
10 45 3 8 8 31 11 50 13 79 16 95 27 128 6 19 33 58 59 87 50 55 69 83 75 113
35 158 50 214 80 298 45 123 51 146 71 264 26 155 27 217 5 290 -11 36 -22 81
-26 100 -4 19 -15 48 -24 63 -17 29 -133 113 -186 134 -44 17 -66 15 -26 -3z"/>
<path d="M2010 1540 c-45 -63 -65 -75 -102 -65 -22 6 -22 6 -4 -9 26 -21 43
-20 65 2 24 23 97 132 88 132 -2 0 -23 -27 -47 -60z"/>
<path d="M1301 1558 c5 -18 14 -36 20 -42 9 -8 10 -6 4 9 -4 11 -8 28 -9 37 0
10 -6 20 -12 22 -9 3 -10 -3 -3 -26z"/>
<path d="M1654 1515 c-19 -30 -19 -31 43 -335 23 -113 24 -131 13 -187 -8 -41
-9 -67 -2 -79 12 -21 28 148 18 193 -4 15 -9 39 -12 53 -3 14 -9 54 -15 89 -5
35 -16 96 -24 135 -19 90 -19 115 1 123 24 9 122 -101 130 -146 9 -55 12 -60
13 -16 0 53 -12 73 -86 140 l-62 56 -17 -26z"/>
<path d="M2398 1502 c-26 -9 -55 -26 -65 -36 -10 -10 -13 -16 -6 -12 6 3 14 0
17 -6 5 -10 7 -10 12 0 9 20 44 15 44 -7 0 -11 -4 -22 -9 -26 -5 -3 -12 -19
-16 -36 -5 -20 -16 -34 -33 -41 -44 -16 -135 -3 -190 28 l-49 27 -36 -29 c-36
-28 -37 -31 -37 -94 0 -142 17 -195 48 -157 8 10 6 16 -9 26 -19 11 -20 20
-16 85 8 120 36 148 120 115 67 -26 168 -26 192 1 14 15 22 17 37 9 11 -6 22
-8 25 -6 2 3 -5 8 -17 12 -16 5 -19 11 -14 23 4 10 10 41 12 70 4 50 5 52 33
52 22 0 30 -6 35 -25 4 -15 1 -32 -6 -40 -7 -9 -9 -19 -5 -23 4 -4 10 -1 13 7
2 7 16 -9 32 -40 29 -57 52 -76 47 -38 -2 12 -14 30 -26 40 -24 19 -41 66 -41
111 0 33 -20 35 -92 10z"/>
<path d="M1162 1445 c18 -25 36 -45 40 -45 12 0 -33 66 -54 79 -11 7 -5 -7 14
-34z"/>
<path d="M1485 1452 c-20 -43 -56 -154 -51 -160 2 -2 14 27 26 65 13 37 29 81
37 96 8 16 13 31 11 33 -3 2 -13 -13 -23 -34z"/>
<path d="M5 730 c0 -404 1 -570 2 -368 2 203 2 533 0 735 -1 203 -2 37 -2
-367z"/>
<path d="M1354 1449 c-4 -6 -8 -55 -9 -108 -4 -110 9 -87 20 38 7 78 4 94 -11
70z"/>
<path d="M1556 1399 c-18 -33 -33 -49 -42 -45 -8 3 -14 0 -14 -7 0 -7 -3 -23
-6 -37 l-5 -25 15 25 c8 14 16 21 16 15 0 -5 10 5 21 23 12 17 25 32 29 32 9
0 25 59 18 65 -2 2 -16 -19 -32 -46z"/>
<path d="M2302 1427 c-10 -12 -10 -16 0 -21 7 -3 1 -4 -14 -1 -15 3 -30 1 -33
-5 -4 -7 -14 -5 -28 5 -25 17 -37 19 -37 5 0 -5 9 -10 20 -10 11 0 23 -6 26
-14 3 -8 12 -12 20 -9 8 3 11 9 8 14 -3 6 5 7 20 3 19 -4 28 -2 32 10 10 25 0
40 -14 23z"/>
<path d="M1874 1397 c-14 -29 -15 -57 -7 -218 l10 -184 1 188 c2 147 5 194 17
217 9 18 11 30 5 30 -6 0 -17 -15 -26 -33z"/>
<path d="M1970 1400 c-20 -29 -22 -36 -12 -84 6 -30 16 -109 23 -178 l12 -125
36 -1 c28 0 32 1 16 8 -44 17 -49 35 -61 227 -5 82 -3 120 6 143 18 42 7 48
-20 10z"/>
<path d="M2679 1402 c-7 -17 -33 -40 -61 -56 -26 -15 -48 -29 -48 -32 0 -7 82
36 109 57 13 11 28 19 34 19 15 0 -30 -33 -94 -69 -31 -17 -59 -28 -62 -24 -4
3 -7 -10 -7 -30 0 -19 -3 -43 -6 -51 -4 -12 -2 -15 9 -10 11 4 25 -11 48 -50
19 -31 37 -56 41 -56 14 0 -18 63 -51 104 -9 10 -16 32 -16 49 0 29 6 35 61
64 67 35 99 34 108 0 9 -40 -2 -208 -15 -224 -11 -13 -9 -14 11 -11 18 2 24 8
22 23 -2 11 -3 27 -2 35 1 8 1 67 1 130 0 112 -1 116 -26 138 -34 29 -41 28
-56 -6z"/>
<path d="M1997 1377 c-4 -10 -7 -31 -6 -45 l0 -27 10 25 c5 13 8 33 7 45 -3
19 -4 19 -11 2z"/>
<path d="M1601 1269 c0 -57 4 -122 9 -144 5 -26 7 10 3 100 -3 77 -7 142 -9
144 -2 2 -4 -43 -3 -100z"/>
<path d="M1114 1295 c-14 -25 -24 -48 -22 -51 3 -2 17 18 32 46 34 62 26 66
-10 5z"/>
<path d="M2457 1268 c8 -109 23 -165 18 -68 -2 41 -6 82 -9 90 -2 8 -7 24 -10
35 -3 11 -2 -15 1 -57z"/>
<path d="M2334 1278 c-5 -7 -7 -20 -6 -29 2 -9 -4 -19 -13 -23 -9 -3 -13 -11
-10 -16 10 -17 33 7 40 41 8 34 2 48 -11 27z"/>
<path d="M1190 1233 c0 -26 -2 -59 -5 -73 -4 -21 18 42 31 88 2 7 9 10 15 6
12 -7 6 -122 -7 -161 -6 -14 -4 -16 6 -6 14 13 28 127 20 164 -4 17 -14 25
-33 27 -26 3 -27 2 -27 -45z"/>
<path d="M810 1226 c0 -10 15 -13 55 -13 34 0 55 4 55 11 0 6 5 4 11 -4 8 -11
12 -12 16 -3 3 10 10 10 24 2 11 -5 25 -7 31 -3 21 13 -24 23 -109 23 -64 1
-83 -2 -83 -13z"/>
<path d="M2150 1166 c-14 -68 -14 -70 -2 -74 9 -3 27 116 18 125 -2 2 -9 -20
-16 -51z"/>
<path d="M2210 1168 c1 -27 2 -30 11 -16 9 16 12 16 44 -4 20 -11 39 -28 44
-37 19 -38 -6 -348 -31 -375 -16 -19 -8 -29 11 -12 15 13 21 42 29 139 18 196
19 290 4 295 -11 3 -12 0 -2 -19 12 -24 12 -24 -16 2 -35 31 -75 59 -86 59 -5
0 -8 -15 -8 -32z"/>
<path d="M2530 1083 c0 -55 -2 -136 -5 -179 -3 -64 -3 -71 5 -34 5 25 9 70 9
100 1 30 6 72 12 93 l10 38 19 -21 c11 -12 27 -42 36 -67 16 -42 16 -47 0
-100 -25 -79 -13 -76 17 4 19 52 22 69 12 71 -8 2 -17 17 -20 34 -6 25 -70
136 -90 157 -3 2 -5 -41 -5 -96z"/>
<path d="M914 1153 c-3 -10 -10 -29 -15 -42 -5 -13 -8 -26 -5 -28 6 -7 36 22
36 35 0 5 9 17 19 26 24 22 54 14 95 -23 l29 -26 -28 38 c-25 34 -31 37 -77
37 -38 0 -50 -4 -54 -17z"/>
<path d="M804 1135 c-18 -14 -18 -14 10 -15 22 0 27 -4 22 -16 -5 -14 -4 -15
9 -4 40 33 2 67 -41 35z"/>
<path d="M1497 1105 c16 -22 53 -79 83 -127 30 -48 56 -85 59 -83 2 3 -7 22
-21 43 -14 20 -35 55 -46 77 -11 22 -39 60 -62 85 l-42 45 29 -40z"/>
<path d="M1391 1106 c-1 -6 9 -20 21 -33 24 -26 37 -87 37 -191 1 -70 -1 -76
-36 -123 -21 -26 -44 -48 -50 -49 -29 -1 -14 -50 109 -365 31 -77 68 -177 83
-223 32 -97 44 -106 15 -11 -23 75 -22 69 -10 69 10 0 105 -111 113 -132 2 -7
7 -10 11 -7 6 6 -34 62 -119 168 -25 31 -34 49 -29 63 4 14 2 18 -5 14 -11 -7
-41 52 -86 172 -16 42 -20 62 -12 62 7 0 22 3 34 6 19 5 23 0 33 -34 6 -24 18
-43 29 -47 10 -3 31 -33 46 -68 15 -34 47 -96 70 -137 23 -41 52 -93 64 -115
32 -61 25 -18 -9 50 -16 33 -30 65 -30 72 0 6 -4 13 -9 15 -4 2 -24 37 -44 78
-20 41 -48 88 -62 104 -59 68 -2 99 80 42 23 -16 27 -16 16 -3 -23 29 -9 26
47 -10 28 -18 52 -41 52 -50 0 -13 -2 -14 -17 -2 -16 13 -17 12 -5 -3 7 -9 15
-54 18 -100 4 -54 13 -99 27 -128 23 -49 30 -115 17 -161 -6 -22 -5 -29 5 -29
35 0 34 128 -1 205 -25 54 -26 65 -21 156 l5 98 -68 35 c-85 43 -166 60 -242
52 -57 -7 -58 -7 -58 19 0 14 -4 25 -8 25 -4 0 -15 20 -24 45 -16 42 -16 45 1
57 40 28 131 118 114 112 -10 -4 -29 -16 -42 -28 l-25 -21 21 30 c12 17 46 53
76 81 l54 52 -36 45 c-20 25 -59 64 -88 87 -28 22 -54 46 -56 53 -3 6 -6 8 -6
3z m108 -116 c8 0 41 -54 41 -68 0 -17 -51 -72 -66 -72 -11 0 -14 17 -13 76 1
62 4 74 16 70 8 -3 18 -6 22 -6z"/>
<path d="M2680 1093 c-8 -2 -22 -7 -30 -9 -13 -5 -13 -6 0 -14 22 -14 28 -12
40 10 6 11 9 20 8 19 -2 0 -10 -3 -18 -6z"/>
<path d="M1362 1033 c1 -35 4 -63 8 -63 4 0 5 24 3 53 -7 76 -12 82 -11 10z"/>
<path d="M2148 1035 c-21 -24 -38 -51 -38 -60 0 -11 13 -1 35 27 19 23 40 48
45 55 6 7 10 15 10 18 0 14 -18 0 -52 -40z"/>
<path d="M1229 1053 c-8 -9 -9 -14 -3 -10 12 7 25 -35 39 -121 4 -24 9 -41 11
-39 8 7 -18 187 -26 187 -4 0 -14 -8 -21 -17z"/>
<path d="M2740 1060 c0 -5 -6 -10 -14 -10 -19 0 -40 -26 -26 -35 5 -3 10 -22
10 -40 0 -26 3 -33 15 -29 9 4 16 0 16 -7 1 -8 5 0 9 16 11 45 11 115 0 115
-5 0 -10 -4 -10 -10z"/>
<path d="M930 1034 c1 -5 7 -20 14 -33 12 -21 14 -21 20 -6 3 10 5 18 4 19 -2
1 -11 8 -20 15 -10 7 -18 10 -18 5z"/>
<path d="M1883 930 c0 -36 2 -50 4 -32 2 17 2 47 0 65 -2 17 -4 3 -4 -33z"/>
<path d="M1996 935 c7 -83 13 -105 25 -105 7 0 8 7 4 18 -3 9 -8 35 -10 58 -3
22 -9 52 -14 65 -8 18 -9 9 -5 -36z"/>
<path d="M880 955 c-26 -28 -24 -30 14 -15 14 5 26 16 26 25 0 22 -13 19 -40
-10z"/>
<path d="M2380 888 c-39 -290 -53 -381 -70 -458 -10 -47 -24 -134 -30 -195 -6
-60 -13 -111 -15 -113 -2 -2 -13 1 -24 7 -18 10 -21 8 -27 -13 -3 -14 -4 -31
-1 -38 3 -7 6 -1 6 15 1 18 6 27 17 27 16 0 16 -21 -3 -98 -4 -15 -1 -22 10
-22 21 0 63 232 137 745 33 234 33 235 21 235 -4 0 -14 -42 -21 -92z"/>
<path d="M1215 931 c3 -24 15 -64 26 -89 12 -25 25 -75 30 -111 5 -36 12 -75
16 -86 3 -11 7 -65 9 -120 2 -55 10 -127 18 -160 29 -116 79 -340 79 -352 0
-7 6 -13 14 -13 17 0 17 2 -7 85 -11 39 -29 117 -40 175 -11 58 -26 121 -32
140 -7 19 -11 63 -10 98 2 35 -5 104 -14 153 -9 49 -14 98 -11 109 3 11 2 20
-2 20 -4 0 -13 15 -19 33 -6 17 -22 61 -37 97 -25 63 -26 64 -20 21z"/>
<path d="M770 904 c0 -46 23 -74 65 -78 14 -2 41 -16 58 -32 l32 -29 -30 34
c-16 19 -36 41 -42 49 -7 7 -13 18 -13 23 0 5 -5 9 -11 9 -8 0 -8 -5 1 -15 11
-13 9 -15 -13 -15 -22 0 -25 4 -25 36 0 20 -5 41 -11 47 -8 8 -11 0 -11 -29z"/>
<path d="M2053 922 c-7 -4 -10 -17 -6 -30 3 -12 8 -20 12 -17 15 9 -2 -56 -18
-68 -10 -7 -16 -26 -16 -49 0 -43 19 -57 23 -18 4 44 23 100 32 100 16 0 11
40 -6 47 -9 3 -14 13 -11 24 6 22 6 21 -10 11z"/>
<path d="M2712 845 c-12 -38 -30 -110 -42 -160 -11 -49 -29 -102 -40 -117 -11
-15 -20 -31 -20 -36 0 -11 -108 -127 -114 -122 -5 6 -9 45 -7 78 1 14 16 37
38 55 78 67 105 96 98 107 -8 13 -35 -5 -35 -24 0 -6 -23 -27 -51 -46 -28 -19
-54 -41 -59 -50 -4 -8 -13 -59 -19 -112 -9 -81 -44 -280 -67 -390 -5 -21 -2
-28 8 -28 11 0 23 41 47 161 18 89 37 174 42 188 6 14 35 48 65 74 30 27 64
67 75 89 25 48 112 363 107 386 -3 9 -14 -14 -26 -53z"/>
<path d="M1379 873 c-3 -31 3 -118 7 -122 2 -2 4 28 4 67 0 40 -2 72 -5 72 -3
0 -6 -8 -6 -17z"/>
<path d="M2122 843 c-1 -28 -9 -50 -22 -63 -21 -21 -37 -110 -20 -110 6 0 10
11 10 25 0 14 9 44 21 66 14 28 19 54 16 82 l-4 42 -1 -42z"/>
<path d="M1893 805 c0 -33 2 -45 4 -27 2 18 2 45 0 60 -2 15 -4 0 -4 -33z"/>
<path d="M1353 795 c0 -33 2 -45 4 -27 2 18 2 45 0 60 -2 15 -4 0 -4 -33z"/>
<path d="M1618 809 c-75 -59 -147 -129 -164 -161 -14 -27 -14 -27 23 -34 21
-3 67 -12 101 -20 35 -8 68 -12 73 -8 5 3 9 1 9 -4 0 -11 69 -26 77 -18 3 3 0
12 -7 21 -7 8 -9 22 -6 32 6 15 5 15 -13 -1 -18 -16 -26 -17 -67 -7 -26 7 -61
9 -78 6 -25 -5 -28 -4 -16 5 13 10 12 11 -3 6 -22 -7 -57 10 -57 27 0 7 4 18
9 26 7 11 13 11 32 -3 13 -9 37 -15 54 -15 27 2 28 2 5 6 -31 6 -50 21 -50 39
0 8 35 39 78 70 99 73 100 74 75 74 -12 0 -45 -19 -75 -41z"/>
<path d="M2750 827 c0 -14 19 -37 32 -37 16 0 7 30 -12 40 -15 8 -20 8 -20 -3z"/>
<path d="M1069 788 c-1 -13 -1 -26 0 -30 0 -5 -6 -8 -14 -8 -16 0 -20 -12 -8
-23 11 -12 43 25 43 49 0 30 -20 42 -21 12z"/>
<path d="M2507 763 c-18 -147 -19 -149 -7 -130 12 19 27 177 18 177 -3 0 -8
-21 -11 -47z"/>
<path d="M820 796 c0 -2 42 -39 93 -81 88 -74 89 -74 27 -15 -64 61 -120 106
-120 96z"/>
<path d="M2320 754 c0 -11 -5 -25 -11 -31 -12 -12 -21 -113 -10 -113 8 0 33
152 26 158 -3 3 -5 -4 -5 -14z"/>
<path d="M1734 713 c-4 -16 -13 -38 -20 -50 -8 -13 -10 -23 -5 -23 5 0 13 10
17 23 7 21 7 21 14 2 4 -12 7 -2 6 27 -1 27 -2 48 -3 48 -2 0 -5 -12 -9 -27z"/>
<path d="M2727 716 c-5 -13 10 -36 24 -36 14 0 19 34 7 42 -18 11 -25 10 -31
-6z"/>
<path d="M1000 693 c0 -4 13 -21 30 -38 22 -22 37 -56 56 -125 14 -52 28 -102
31 -110 3 -8 6 -35 8 -60 4 -53 43 -316 52 -344 4 -15 7 -16 14 -5 4 7 4 18 0
24 -5 5 -11 39 -14 75 -4 42 -3 59 3 50 5 -8 10 -29 10 -47 0 -17 5 -35 10
-38 12 -8 12 -11 -1 61 -14 83 -29 125 -40 118 -6 -3 -9 0 -8 7 1 8 -1 30 -4
49 -4 19 -8 78 -10 130 -3 82 -7 101 -29 135 -27 42 -108 131 -108 118z"/>
<path d="M2180 669 c-19 -10 -40 -17 -47 -15 -7 3 -10 -1 -7 -9 5 -12 11 -12
41 0 20 8 37 15 38 15 2 0 5 7 9 15 3 8 4 15 3 14 -1 0 -18 -9 -37 -20z"/>
<path d="M2716 656 c-4 -20 -4 -41 0 -48 5 -7 3 -8 -5 -3 -9 5 -12 0 -9 -16 6
-41 24 -30 37 22 12 44 11 53 -2 66 -13 13 -15 11 -21 -21z"/>
<path d="M1760 636 c0 -15 24 -55 31 -50 4 2 18 -10 31 -27 20 -27 65 -59 83
-59 3 0 5 9 5 20 0 11 -5 18 -12 15 -18 -6 -54 26 -63 56 -7 22 -8 23 -15 4
-6 -18 -8 -17 -21 10 -12 25 -39 47 -39 31z"/>
<path d="M2425 566 c0 -33 4 -41 20 -45 17 -3 18 -1 6 13 -7 9 -9 16 -3 16 5
0 12 7 15 14 4 11 1 13 -10 9 -11 -5 -14 -3 -9 6 5 7 17 11 27 8 11 -3 19 -1
19 4 0 5 -8 9 -17 10 -10 0 -25 2 -33 4 -11 2 -15 -7 -15 -39z"/>
<path d="M2103 589 c-18 -5 -33 -16 -33 -24 0 -17 16 -20 25 -5 27 43 65 -66
65 -185 0 -41 -3 -75 -7 -75 -5 0 -17 -21 -27 -48 -11 -26 -36 -83 -57 -127
-20 -44 -40 -91 -43 -105 -10 -35 48 70 91 165 20 44 45 92 55 108 16 22 19
39 15 90 -2 34 -9 80 -15 102 -5 22 -13 57 -16 78 -4 20 -10 37 -14 36 -4 0
-22 -5 -39 -10z"/>
<path d="M2195 582 c6 -4 10 -25 10 -47 0 -27 4 -39 13 -37 9 1 12 -19 12 -79
0 -61 -9 -117 -40 -235 -44 -170 -46 -184 -27 -184 14 0 31 66 47 190 14 102
25 122 17 30 -4 -48 -3 -56 3 -30 16 64 37 240 29 240 -5 0 -6 7 -3 15 4 8 0
23 -7 32 -12 14 -12 16 1 8 8 -4 5 2 -7 14 -15 14 -23 34 -23 56 0 27 -4 35
-17 35 -10 0 -14 -4 -8 -8z"/>
<path d="M1340 540 c0 -16 5 -30 10 -30 6 0 10 -10 9 -22 0 -22 -1 -22 -9 -3
-7 16 -9 13 -9 -15 0 -19 5 -48 12 -64 12 -28 13 -26 13 28 0 36 5 60 13 65
10 6 9 10 -3 14 -9 4 -16 18 -16 32 0 14 -4 25 -10 25 -5 0 -10 -13 -10 -30z"/>
<path d="M1221 462 c4 -37 14 -105 22 -152 9 -47 21 -132 28 -190 12 -105 29
-155 29 -89 0 48 -29 244 -45 304 -8 28 -17 80 -20 118 -4 37 -10 69 -14 71
-4 3 -4 -26 0 -62z"/>
<path d="M2675 520 c-10 -17 4 -62 18 -57 15 5 16 59 0 64 -6 2 -14 -1 -18 -7z"/>
<path d="M2070 484 c0 -8 4 -13 9 -9 5 3 12 -4 16 -15 3 -11 11 -20 16 -20 6
0 2 14 -8 30 -19 33 -33 39 -33 14z"/>
<path d="M1873 478 c-6 -7 -9 -24 -8 -38 3 -28 15 -181 19 -250 9 -130 19
-190 33 -190 11 0 12 24 7 138 -3 75 -8 144 -11 152 -3 8 -5 50 -5 93 0 60 -4
80 -15 84 -12 5 -12 7 -1 14 8 5 9 9 2 9 -6 0 -16 -6 -21 -12z"/>
<path d="M2637 446 c-15 -22 -14 -24 10 -35 21 -10 28 -9 34 1 14 21 10 37
-10 47 -15 9 -22 6 -34 -13z"/>
<path d="M2595 409 c-4 -6 -4 -13 -1 -16 3 -4 6 -1 6 6 0 7 5 9 10 6 6 -3 10
-15 10 -26 0 -10 -4 -19 -10 -19 -5 0 -10 -7 -10 -15 0 -8 4 -15 8 -15 10 0
52 43 52 53 0 13 -59 37 -65 26z"/>
<path d="M2533 348 c-6 -7 -20 -71 -33 -143 -12 -71 -25 -136 -28 -145 -5 -13
-3 -13 11 -1 9 7 17 24 17 36 0 14 7 25 16 27 12 2 24 29 40 87 20 73 21 87 9
104 -7 11 -11 26 -8 33 6 17 -11 18 -24 2z"/>
<path d="M2050 263 c-34 -121 -38 -142 -32 -148 4 -3 19 44 34 106 33 129 31
158 -2 42z"/>
<path d="M1380 300 c0 -20 46 -204 64 -255 8 -21 19 -41 25 -43 15 -5 14 9 -4
50 -8 20 -30 87 -49 149 -19 63 -35 107 -36 99z"/>
<path d="M1975 145 c4 -77 9 -142 11 -144 8 -9 15 8 17 43 1 20 5 36 10 36 4
0 7 4 7 10 0 5 -7 7 -15 4 -12 -5 -15 4 -16 47 -1 79 -7 130 -15 138 -3 3 -3
-57 1 -134z"/>
<path d="M2385 247 c-17 -65 -52 -242 -49 -246 9 -10 16 16 30 103 2 17 11 56
20 87 9 32 14 63 11 71 -2 7 -8 1 -12 -15z"/>
<path d="M798 221 c55 -31 126 -89 151 -124 7 -11 14 -37 14 -58 0 -26 4 -39
13 -39 15 0 17 12 8 59 -13 61 -134 169 -209 185 -23 5 -18 0 23 -23z"/>
<path d="M463 168 c-24 -27 -46 -68 -40 -74 2 -3 15 12 28 33 13 21 27 44 32
51 13 19 2 14 -20 -10z"/>
<path d="M633 144 c-10 -10 -9 -20 9 -50 22 -38 39 -30 20 9 -6 12 -12 29 -14
39 -3 13 -5 14 -15 2z"/>
<path d="M527 134 c-3 -4 -2 -15 4 -26 6 -11 8 -26 5 -34 -8 -20 11 -18 22 3
8 14 16 10 57 -30 26 -26 49 -47 52 -47 2 0 -22 32 -53 70 -53 65 -71 79 -87
64z"/>
<path d="M494 100 c-28 -11 -33 -27 -21 -70 l9 -35 13 39 c8 21 18 42 24 45
18 12 -3 29 -25 21z"/>
<path d="M740 65 c13 -14 26 -23 28 -20 3 3 11 -3 18 -13 12 -15 15 -15 24 -2
8 12 10 11 10 -7 0 -13 4 -23 9 -23 6 0 7 17 4 37 -6 41 -23 69 -23 39 0 -16
-2 -16 -22 -2 -12 9 -33 16 -47 16 l-24 0 23 -25z"/>
</g>
</svg>
