<?xml version="1.0" standalone="no"?>
<!DOCTYPE svg PUBLIC "-//W3C//DTD SVG 20010904//EN"
 "http://www.w3.org/TR/2001/REC-SVG-20010904/DTD/svg10.dtd">
<svg version="1.0" xmlns="http://www.w3.org/2000/svg"
 width="300.000000pt" height="301.000000pt" viewBox="0 0 300.000000 301.000000"
 preserveAspectRatio="xMidYMid meet">
<metadata>
Created by potrace 1.10, written by Peter Selinger 2001-2011
</metadata>
<g transform="translate(0.000000,301.000000) scale(0.100000,-0.100000)"
fill="#000000" stroke="none">
<path d="M1585 2747 c-5 -20 -3 -33 10 -47 24 -27 43 -25 56 4 17 36 -16 88
-36 56 -4 -6 -1 -9 6 -8 15 3 23 -26 15 -49 -9 -23 -26 -4 -36 39 l-7 33 -8
-28z"/>
<path d="M1533 2693 c-7 -2 -13 -9 -13 -14 0 -5 11 -4 25 3 19 8 28 8 40 -2
13 -11 14 -10 9 4 -6 15 -35 20 -61 9z"/>
<path d="M1528 2650 c20 -23 13 -43 -22 -70 -55 -41 -34 -34 33 11 65 43 76
59 36 51 -14 -2 -33 2 -43 9 -14 11 -15 11 -4 -1z"/>
<path d="M1402 2483 c-20 -8 -42 -59 -42 -96 0 -53 30 -72 114 -72 111 0 168
-35 137 -84 -8 -12 -16 -12 -55 1 -36 12 -46 12 -46 3 0 -19 29 -30 80 -30 38
0 45 -3 48 -21 2 -11 -6 -28 -18 -39 -26 -23 -25 -35 3 -65 13 -14 28 -34 35
-45 11 -19 11 -19 12 6 0 15 -9 38 -20 52 -11 14 -20 30 -20 36 0 21 19 11 47
-26 25 -33 28 -44 28 -118 0 -74 -4 -89 -37 -156 -46 -91 -121 -176 -243 -274
-50 -41 -104 -90 -119 -110 -27 -35 -56 -95 -56 -115 0 -19 20 -10 29 13 10
26 107 127 122 127 11 0 7 -9 -28 -60 -19 -27 -15 -25 21 13 28 30 46 58 46
73 0 33 -14 30 -68 -12 l-47 -36 43 40 c24 22 57 44 75 48 18 4 26 9 19 11
-18 7 -4 23 19 23 22 0 25 -23 8 -67 -10 -27 -9 -27 8 -10 12 12 18 33 19 69
0 48 3 53 54 102 87 82 164 263 162 378 0 15 -18 59 -39 97 -35 65 -37 72 -25
103 29 82 11 95 -140 100 -106 3 -120 5 -140 25 -21 22 -21 23 -5 58 9 20 24
38 32 41 8 4 15 10 15 15 0 10 -8 10 -28 2z"/>
<path d="M1420 2305 c0 -2 11 -12 24 -21 23 -15 156 -48 163 -40 7 7 -9 35
-23 40 -9 3 -12 1 -9 -4 8 -14 -61 -13 -87 1 -17 9 -18 13 -7 20 10 6 2 9 -23
9 -21 0 -38 -2 -38 -5z"/>
<path d="M1817 2225 c-15 -14 -39 -25 -53 -25 -25 0 -25 0 10 -34 20 -18 36
-42 36 -53 0 -19 -32 -69 -55 -85 -6 -5 -5 -8 4 -8 10 0 12 -9 7 -32 -4 -24
-3 -29 4 -18 5 8 10 21 10 28 0 7 11 30 25 50 23 34 36 100 16 88 -4 -3 -13 5
-19 18 -9 20 -6 25 18 39 24 15 29 15 40 2 20 -24 31 -17 28 18 -4 41 -32 46
-71 12z"/>
<path d="M1830 2168 c0 -7 6 -30 14 -52 12 -35 14 -36 19 -15 11 39 8 54 -13
67 -16 10 -20 10 -20 0z"/>
<path d="M1317 2121 l-28 -27 21 -26 c11 -15 20 -41 20 -60 0 -18 5 -40 10
-48 8 -12 10 -9 10 13 0 16 4 26 10 22 19 -12 10 14 -16 45 l-27 31 22 40 c26
45 18 48 -22 10z"/>
<path d="M1561 2092 c-1 -7 -5 -10 -11 -7 -5 3 -10 0 -10 -8 0 -8 -11 -35 -25
-61 -33 -62 -32 -68 3 -20 40 55 54 83 48 97 -3 9 -5 8 -5 -1z"/>
<path d="M1840 2052 c0 -11 -4 -23 -9 -26 -4 -3 -6 -16 -4 -30 3 -13 -1 -27
-8 -31 -9 -6 -10 -3 -5 10 5 15 4 16 -8 6 -23 -19 -46 -77 -45 -113 1 -19 3
-24 6 -13 2 11 6 30 8 42 6 26 31 53 50 53 10 0 6 -14 -11 -51 -28 -58 -32
-72 -45 -194 -12 -113 -11 -137 1 -149 7 -7 10 -4 10 7 0 15 2 15 19 -2 10
-10 37 -22 60 -26 53 -9 54 -31 5 -84 -28 -32 -36 -50 -40 -91 -3 -28 0 -58 6
-68 9 -15 10 -14 5 5 -7 26 12 103 25 103 18 0 60 75 60 106 0 37 -24 69 -59
79 -21 6 -23 5 -18 -14 7 -28 -4 -27 -34 5 -21 23 -24 35 -23 102 0 43 6 87
12 99 8 15 9 22 1 25 -7 2 2 26 21 58 30 50 32 62 31 130 -1 41 -4 76 -7 79
-2 2 -4 -5 -4 -17z"/>
<path d="M1585 1958 c-11 -6 -22 -14 -25 -17 -6 -8 -48 -27 -80 -38 -84 -27
-224 -138 -267 -210 -21 -37 -43 -56 -43 -38 0 17 38 75 79 119 25 28 38 45
29 37 -10 -7 -18 -10 -18 -6 0 11 -38 -25 -62 -58 -22 -31 -90 -188 -84 -194
2 -2 13 11 25 30 23 38 61 75 61 60 0 -5 -13 -22 -29 -37 -16 -16 -35 -42 -42
-58 -9 -22 -14 -26 -21 -16 -14 22 3 -75 21 -112 10 -22 29 -41 53 -52 l36
-17 -13 -58 c-22 -89 -17 -104 11 -43 23 49 25 59 15 98 -18 69 -13 101 25
171 l36 66 -51 -49 c-28 -28 -48 -52 -45 -55 3 -3 9 1 14 9 8 13 10 12 10 -2
0 -9 -4 -28 -10 -43 -9 -23 -12 -24 -30 -13 -28 18 -32 36 -21 94 8 40 18 57
55 91 26 23 72 54 104 69 75 36 181 98 212 125 29 24 12 16 -45 -21 -22 -15
-86 -46 -143 -70 -56 -24 -107 -49 -113 -57 -22 -25 -30 -13 -12 18 29 50 109
116 163 134 50 17 70 32 28 20 -13 -3 24 19 83 49 58 30 111 61 118 70 16 19
5 20 -24 4z m-404 -540 c18 -16 29 -28 23 -28 -28 0 -74 63 -73 100 1 20 3 18
9 -10 5 -21 22 -46 41 -62z"/>
<path d="M1605 1915 c-9 -19 -23 -39 -31 -46 -8 -6 -14 -16 -14 -22 0 -20 66
60 67 82 2 30 -4 26 -22 -14z"/>
<path d="M1500 1874 c-68 -37 -66 -38 10 -9 43 17 85 46 65 45 -6 -1 -39 -17
-75 -36z"/>
<path d="M1721 1833 c-7 -27 -25 -77 -42 -113 -16 -36 -34 -85 -39 -110 -9
-44 -9 -44 -5 -5 2 22 7 56 11 75 5 27 4 32 -5 24 -7 -6 -16 -44 -20 -85 -7
-64 -6 -78 10 -105 11 -18 27 -38 36 -45 9 -8 2 6 -15 30 -18 24 -32 49 -32
55 0 6 9 -3 19 -20 11 -18 35 -44 55 -59 20 -15 46 -47 58 -71 12 -24 23 -42
25 -40 5 4 -54 129 -87 186 -21 36 -26 88 -11 118 34 68 53 122 58 164 7 61
-1 62 -16 1z"/>
<path d="M1452 1809 c-23 -17 -42 -32 -42 -34 0 -6 70 33 85 49 27 27 2 18
-43 -15z"/>
<path d="M37 1673 c-13 -12 -7 -32 8 -27 7 3 54 -16 102 -42 173 -94 415 -205
444 -203 8 0 3 5 -11 12 -14 6 -52 23 -85 38 -161 72 -279 130 -358 177 -96
57 -91 55 -100 45z"/>
<path d="M2935 1670 c-5 -9 -118 -74 -300 -172 -49 -27 -79 -46 -65 -43 14 4
84 39 155 78 243 132 222 123 245 110 31 -20 36 -15 10 12 -25 27 -35 30 -45
15z"/>
<path d="M2971 1536 c-13 -14 -36 -30 -52 -36 -25 -11 -40 -30 -23 -30 12 0
104 72 104 81 0 14 -4 11 -29 -15z"/>
<path d="M1606 1482 c9 -16 36 -40 60 -55 51 -31 84 -79 84 -123 0 -35 24 -99
41 -109 6 -4 4 7 -5 23 -9 17 -16 55 -16 86 0 63 -27 104 -90 136 -21 11 -47
31 -58 45 -27 34 -37 32 -16 -3z"/>
<path d="M1509 1404 c-18 -20 -71 -54 -116 -76 -93 -45 -108 -58 -64 -58 17 0
31 5 31 10 0 6 6 10 14 10 7 0 19 6 25 14 7 8 26 18 42 21 17 4 42 23 62 48
59 74 62 90 6 31z"/>
<path d="M2973 1420 c-12 -10 -44 -21 -70 -25 -46 -7 -118 -38 -158 -69 -34
-26 -9 -18 42 14 27 17 76 36 109 43 58 11 115 39 104 50 -3 3 -15 -3 -27 -13z"/>
<path d="M65 1370 c-4 -7 -20 -9 -38 -5 l-32 6 27 -16 c30 -17 85 -24 90 -11
5 14 -39 39 -47 26z"/>
<path d="M1324 1332 c-41 -30 -72 -62 -59 -62 4 0 23 14 42 30 18 17 38 30 42
30 5 0 11 7 15 15 7 20 5 19 -40 -13z"/>
<path d="M1787 1289 c-5 -19 3 -48 29 -103 37 -80 56 -176 35 -176 -6 0 -11
-9 -11 -20 0 -40 -54 -125 -72 -114 -9 6 -31 -40 -43 -89 -6 -21 -4 -27 9 -27
9 0 13 6 10 15 -3 8 -2 20 2 27 6 9 10 6 14 -12 5 -21 11 -15 52 55 26 44 57
101 69 127 22 46 22 48 6 108 -10 34 -29 80 -44 103 -14 23 -32 62 -38 87 -11
42 -12 43 -18 19z"/>
<path d="M1424 1262 c-29 -25 -74 -83 -74 -95 0 -3 25 21 57 54 59 62 69 86
17 41z"/>
<path d="M2789 1262 c-21 -15 -51 -35 -68 -44 -17 -9 -31 -22 -31 -28 0 -13
71 23 91 46 8 9 32 25 54 35 33 16 36 18 15 18 -14 0 -41 -12 -61 -27z"/>
<path d="M1510 1254 l-35 -14 34 5 c18 3 40 5 48 5 8 0 11 5 8 10 -8 12 -11
12 -55 -6z"/>
<path d="M2908 1219 l-33 -30 42 20 c23 12 52 21 63 21 12 0 18 5 15 10 -12
20 -55 10 -87 -21z"/>
<path d="M1596 1215 c8 -37 16 -46 31 -37 8 5 3 16 -13 37 l-25 30 7 -30z"/>
<path d="M1665 1199 c-18 -7 -18 -8 5 -8 18 -1 32 -12 50 -41 29 -48 38 -45
15 5 -20 42 -42 56 -70 44z"/>
<path d="M1221 1109 c-8 -24 -7 -59 4 -143 15 -120 29 -171 53 -199 24 -27 25
-13 3 29 -12 22 -17 40 -11 42 11 4 14 35 3 46 -4 3 -8 12 -9 19 -1 7 -7 45
-13 85 -6 40 -8 90 -5 112 8 48 -9 54 -25 9z"/>
<path d="M1151 1093 c-16 -58 -12 -75 5 -19 9 26 13 50 10 53 -2 3 -9 -12 -15
-34z"/>
<path d="M1181 1067 c-1 -24 -5 -36 -11 -32 -7 4 -9 -2 -6 -17 3 -12 8 -48 11
-78 3 -30 15 -70 26 -88 21 -37 24 -46 9 -37 -22 14 -8 -14 26 -51 19 -21 32
-32 28 -24 -4 8 -16 25 -27 37 -10 12 -17 25 -14 30 3 5 -3 44 -14 88 -22 93
-22 98 -8 90 10 -7 5 41 -12 95 -6 22 -7 20 -8 -13z"/>
<path d="M1304 1071 c-4 -17 -10 -34 -15 -37 -4 -2 -5 -12 -2 -22 5 -11 11 -1
19 33 7 27 11 51 9 54 -3 2 -8 -10 -11 -28z"/>
<path d="M1782 762 c-34 -62 -60 -78 -159 -101 -87 -20 -96 -21 -152 -6 -32 8
-79 15 -103 15 -34 0 -50 6 -68 25 -24 25 -40 25 -40 -1 0 -9 -10 -24 -22 -34
-23 -19 -23 -19 14 -8 30 9 41 8 61 -5 32 -20 208 -30 295 -16 37 6 79 12 93
14 33 5 96 60 80 70 -8 4 -5 17 10 41 12 19 19 37 17 39 -2 3 -14 -12 -26 -33z"/>
<path d="M1423 759 c9 -6 15 -14 12 -19 -7 -11 17 -24 68 -38 22 -6 37 -7 37
-1 0 5 -12 9 -26 9 -15 0 -38 12 -56 30 -16 17 -35 30 -41 30 -7 0 -4 -5 6
-11z"/>
<path d="M1347 719 c-27 -16 -12 -27 36 -28 23 0 62 -7 86 -15 48 -17 85 -19
116 -6 13 6 5 7 -25 4 -31 -4 -63 1 -102 15 -32 11 -58 17 -58 13 0 -4 -5 1
-11 11 -11 20 -17 20 -42 6z"/>
<path d="M1660 714 l-25 -14 30 0 c39 0 64 15 40 24 -9 3 -17 6 -18 5 -1 -1
-13 -7 -27 -15z"/>
<path d="M1915 685 c6 -2 78 -16 162 -30 84 -15 226 -44 315 -65 90 -21 168
-35 173 -30 6 4 47 22 93 40 45 18 81 34 79 37 -2 2 -47 -14 -99 -35 -74 -30
-100 -37 -119 -30 -35 13 -204 53 -349 81 -113 23 -280 44 -255 32z"/>
<path d="M1868 643 c28 -2 76 -2 105 0 28 2 5 3 -53 3 -58 0 -81 -1 -52 -3z"/>
<path d="M905 624 c-322 -57 -562 -110 -551 -121 2 -2 39 5 82 16 89 22 339
70 519 99 73 12 102 20 75 20 -25 0 -81 -7 -125 -14z"/>
<path d="M1648 533 c18 -2 45 -2 60 0 15 2 0 4 -33 4 -33 0 -45 -2 -27 -4z"/>
<path d="M2719 505 c63 -19 117 -33 119 -31 6 6 -191 66 -214 65 -10 0 32 -16
95 -34z"/>
</g>
</svg>
