<?xml version="1.0" standalone="no"?>
<!DOCTYPE svg PUBLIC "-//W3C//DTD SVG 20010904//EN"
 "http://www.w3.org/TR/2001/REC-SVG-20010904/DTD/svg10.dtd">
<svg version="1.0" xmlns="http://www.w3.org/2000/svg"
 width="300.000000pt" height="300.000000pt" viewBox="0 0 300.000000 300.000000"
 preserveAspectRatio="xMidYMid meet">
<metadata>
Created by potrace 1.10, written by Peter Selinger 2001-2011
</metadata>
<g transform="translate(0.000000,300.000000) scale(0.100000,-0.100000)"
fill="#000000" stroke="none">
<path d="M2921 2904 c-7 -53 -11 -98 -8 -100 5 -5 31 86 29 98 -1 4 2 27 7 52
6 34 5 46 -4 46 -7 0 -16 -35 -24 -96z"/>
<path d="M667 2983 c-6 -10 19 -34 26 -27 13 13 97 -38 160 -96 61 -56 71 -62
89 -51 10 6 29 9 40 5 14 -4 18 -2 14 5 -4 6 -18 11 -31 11 -34 0 -111 61
-107 86 2 16 -7 22 -47 33 -28 7 -53 12 -56 12 -3 -1 -21 6 -41 14 -42 17 -41
17 -47 8z"/>
<path d="M0 2979 c-1 -20 24 -69 35 -69 8 0 17 -10 21 -22 8 -27 44 -75 44
-60 0 21 -22 67 -41 87 -10 11 -28 31 -39 45 -11 14 -19 22 -20 19z"/>
<path d="M306 2965 c-3 -9 -2 -13 4 -10 6 3 10 -1 10 -9 0 -9 7 -16 15 -16 8
0 15 -4 15 -8 0 -5 7 -17 15 -28 14 -17 14 -16 4 12 -5 17 -21 41 -33 53 -20
19 -24 20 -30 6z"/>
<path d="M1670 2968 c0 -9 7 -18 15 -22 8 -3 15 -10 15 -17 0 -6 12 -21 27
-32 l27 -21 -35 -8 c-19 -3 -65 -7 -104 -6 -118 0 -145 -2 -145 -10 0 -4 63
-6 139 -5 138 4 139 3 187 -25 27 -16 48 -35 46 -41 -2 -9 3 -9 18 -1 30 16
25 25 -24 44 -31 12 -56 33 -85 70 -55 71 -81 95 -81 74z"/>
<path d="M275 2932 c5 -26 3 -30 -20 -36 -18 -5 -27 -15 -32 -36 -3 -17 -8
-30 -12 -30 -4 0 -7 -9 -7 -19 0 -11 4 -17 8 -15 4 3 8 9 8 15 0 5 8 17 18 27
9 10 29 33 45 50 l27 32 -21 21 -21 21 7 -30z"/>
<path d="M2841 2876 c-24 -67 -22 -95 3 -61 7 10 17 15 23 12 8 -5 8 71 -1
106 -1 5 -12 -21 -25 -57z"/>
<path d="M2128 2831 c7 -103 -18 -193 -65 -228 -19 -14 -41 -39 -49 -55 -14
-26 -13 -28 5 -28 12 0 29 16 45 43 23 38 25 39 26 17 2 -52 43 51 46 114 1
32 7 62 12 65 11 7 -1 100 -16 127 -6 11 -8 -7 -4 -55z"/>
<path d="M2703 2868 c2 -13 2 -17 0 -10 -7 20 -26 14 -20 -7 3 -13 -8 -30 -35
-56 -22 -20 -38 -37 -37 -39 8 -4 60 -26 64 -26 3 0 5 20 5 44 0 25 5 48 12
52 8 5 9 -2 5 -26 -6 -28 -5 -31 8 -20 24 20 27 7 7 -31 -21 -42 -43 -46 -86
-20 -36 22 -46 25 -46 14 0 -9 42 -31 84 -44 25 -7 34 -5 53 13 12 11 20 25
17 29 -3 5 0 9 5 9 6 0 11 -5 11 -11 0 -6 7 -17 15 -25 28 -29 18 21 -12 57
l-27 32 25 -7 c20 -6 21 -5 6 4 -9 6 -22 8 -27 5 -10 -6 -13 11 -10 58 1 15
-3 27 -9 27 -6 0 -10 -10 -8 -22z"/>
<path d="M2234 2872 c4 -7 12 -34 17 -60 l8 -47 -3 48 c-2 27 -9 54 -16 60
-10 9 -11 9 -6 -1z"/>
<path d="M435 2842 c-67 -32 -115 -76 -142 -131 -14 -28 -18 -60 -18 -146 l0
-110 -30 -14 c-16 -8 -33 -19 -37 -25 -4 -6 -8 -8 -8 -3 0 9 -87 -34 -119 -60
-25 -20 -22 -43 5 -43 8 0 14 -4 14 -9 0 -11 99 -46 106 -38 6 6 -59 47 -74
47 -13 0 -22 24 -14 37 4 5 47 25 95 44 70 27 84 35 65 40 l-23 5 22 8 c19 6
21 14 21 79 0 88 15 149 50 196 l26 36 -33 -30 -34 -30 19 34 c25 44 118 106
185 125 50 13 51 14 19 15 -19 1 -62 -12 -95 -27z"/>
<path d="M624 2851 c3 -4 18 -6 33 -4 23 4 25 2 13 -7 -12 -9 -10 -11 11 -6
27 6 73 -19 64 -34 -3 -5 10 -30 30 -55 19 -26 35 -43 35 -38 0 5 -14 25 -31
46 -17 21 -29 40 -26 43 5 5 38 -37 74 -92 11 -18 12 -18 12 3 1 12 7 23 13
25 20 7 -60 78 -117 104 -48 23 -122 33 -111 15z"/>
<path d="M1275 2820 c-54 -20 -43 -26 18 -9 20 5 37 14 37 19 0 6 -1 10 -2 9
-2 0 -25 -9 -53 -19z"/>
<path d="M1697 2800 c-33 -37 -40 -40 -86 -40 -48 0 -51 2 -51 25 0 14 -5 25
-10 25 -6 0 -8 -10 -4 -24 4 -18 1 -27 -15 -36 -19 -9 -21 -19 -20 -83 1 -40
5 -85 9 -102 5 -18 7 10 4 73 -3 76 -1 102 9 103 95 9 139 7 200 -10 47 -14
67 -16 64 -8 -2 7 -25 16 -50 21 -26 4 -47 12 -47 17 0 6 10 23 22 39 33 45
16 45 -25 0z"/>
<path d="M2101 2795 c-1 -27 -10 -75 -21 -105 -13 -39 -14 -49 -4 -35 22 30
35 91 31 143 l-3 47 -3 -50z"/>
<path d="M2479 2811 c-55 -22 -111 -62 -134 -98 -10 -14 -12 -22 -5 -18 8 5
11 0 8 -15 -2 -13 3 -25 11 -28 10 -3 13 3 9 26 -4 30 12 49 32 37 4 -3 10 5
13 16 3 12 10 18 15 15 5 -3 15 1 22 9 7 8 17 15 23 15 5 0 2 -9 -8 -20 -11
-12 -20 -26 -21 -33 -1 -7 -11 -32 -22 -57 -32 -69 -53 -123 -49 -126 4 -4 79
133 77 142 -2 8 21 24 33 24 5 0 5 -6 1 -12 -11 -18 21 8 73 60 23 23 46 42
50 42 5 0 19 9 33 20 l25 20 -70 -1 c-43 0 -88 -7 -116 -18z m53 -60 c-15 -14
-30 -26 -34 -26 -3 0 -10 -3 -14 -7 -10 -11 -24 -10 -24 2 0 5 14 17 31 26 21
10 28 19 20 23 -7 4 1 8 18 8 l30 0 -27 -26z"/>
<path d="M631 2791 c13 -18 24 -51 27 -83 4 -38 7 -47 13 -33 4 11 5 31 2 45
-7 32 -44 100 -55 100 -5 0 1 -13 13 -29z"/>
<path d="M2802 2785 c2 -6 11 -25 18 -42 8 -18 19 -33 24 -33 17 0 58 -53 60
-77 0 -13 5 -23 9 -23 4 0 7 -18 5 -40 -1 -22 -6 -40 -11 -40 -4 0 -5 -6 0
-12 9 -15 13 -68 5 -68 -2 0 -11 8 -18 18 -13 15 -13 14 -5 -8 10 -31 35 -33
39 -3 2 14 8 20 18 16 17 -6 18 8 2 26 -11 11 -10 12 1 6 10 -6 12 0 7 31 -3
22 -8 56 -11 77 -5 42 -31 91 -67 123 -30 28 -82 61 -76 49z"/>
<path d="M883 2766 c-8 -10 -3 -28 23 -81 19 -37 34 -75 35 -84 0 -11 3 -9 9
7 10 24 -1 65 -20 77 -5 3 -8 10 -5 14 2 5 -4 16 -14 25 -11 10 -17 25 -14 37
6 22 3 23 -14 5z"/>
<path d="M177 2763 c-4 -3 -7 -15 -7 -25 0 -10 -5 -18 -11 -18 -8 0 -9 -15 -5
-45 4 -25 8 -76 8 -113 1 -64 1 -65 10 -27 7 30 18 235 12 235 0 0 -4 -3 -7
-7z"/>
<path d="M2207 2755 c-3 -11 -15 -31 -27 -45 -11 -14 -22 -41 -26 -60 -5 -34
-5 -34 16 10 12 24 28 52 36 62 9 9 14 25 12 35 -4 17 -4 16 -11 -2z"/>
<path d="M2215 2692 c-39 -75 -38 -72 -26 -72 11 0 64 107 59 121 -2 5 -16
-17 -33 -49z"/>
<path d="M2025 2655 c-21 -48 -13 -57 10 -10 9 20 14 39 11 42 -3 3 -13 -11
-21 -32z"/>
<path d="M2298 2638 c-15 -24 -23 -44 -18 -46 6 -2 10 -11 10 -19 0 -13 -3
-13 -15 -3 -8 7 -15 24 -15 38 0 43 -7 20 -13 -43 -4 -41 -3 -53 3 -37 5 12
14 22 21 22 6 0 9 -3 7 -7 -3 -5 -11 -23 -18 -40 -8 -18 -20 -33 -27 -33 -7 0
-13 -5 -13 -11 0 -6 6 -8 13 -5 6 3 19 9 28 12 9 3 22 15 28 27 6 12 18 33 27
47 14 22 14 23 0 6 -13 -16 -16 -17 -16 -4 0 19 34 50 45 41 4 -5 2 3 -5 16
-6 13 -7 21 -2 17 6 -3 13 -2 17 4 3 5 2 10 -2 10 -5 0 -13 11 -19 25 l-9 26
-27 -43z"/>
<path d="M834 2651 c4 -5 2 -21 -4 -36 -7 -17 -7 -24 0 -20 6 3 10 14 10 23 0
11 7 5 20 -16 11 -18 20 -39 20 -46 0 -17 -31 -30 -39 -18 -3 5 -14 8 -25 6
-10 -1 -30 2 -45 8 -35 15 -44 16 -59 5 -9 -7 -11 -5 -6 9 7 19 7 19 -14 0
-12 -11 -22 -14 -22 -8 0 7 -6 12 -13 12 -7 0 -20 12 -30 28 -19 28 -19 26 3
-24 13 -30 15 -31 119 -44 102 -12 159 -26 149 -35 -2 -3 -39 2 -82 10 -87 17
-246 20 -246 5 0 -5 19 -8 43 -8 23 1 94 -4 157 -10 90 -9 121 -16 145 -34 27
-19 28 -19 13 -1 -23 25 -23 35 1 50 50 31 82 26 181 -31 52 -29 97 -52 99
-50 3 3 -11 20 -29 39 -18 19 -36 33 -38 30 -3 -3 -29 8 -57 24 -56 32 -98 33
-142 5 -25 -16 -28 -10 -23 43 1 21 -27 82 -40 84 -3 0 -15 2 -28 5 -13 2 -21
0 -18 -5z"/>
<path d="M2723 2640 c-16 -25 9 -49 30 -28 11 11 11 16 -3 30 -15 16 -16 16
-27 -2z"/>
<path d="M1687 2563 c1 -43 5 -92 8 -109 10 -54 -35 -72 -48 -19 -3 11 -5 4
-6 -17 -1 -34 -5 -39 -52 -62 -28 -15 -52 -26 -54 -26 -2 0 -1 17 2 38 l6 37
-27 -25 c-21 -19 -24 -26 -12 -28 12 -3 11 -7 -6 -28 -12 -13 -26 -24 -31 -24
-5 0 -15 -8 -22 -17 -10 -13 -32 -18 -89 -21 -51 -3 -76 -8 -76 -16 0 -21 129
-18 159 3 15 10 82 49 151 86 69 36 128 70 133 74 4 4 3 20 -2 37 -6 16 -11
65 -13 108 -2 44 -8 81 -13 83 -7 2 -10 -24 -8 -74z"/>
<path d="M2667 2612 c-20 -21 -22 -37 -5 -26 8 5 9 1 4 -12 -4 -12 -4 -15 2
-9 10 10 25 65 19 65 -2 0 -11 -8 -20 -18z"/>
<path d="M2483 2595 c-18 -20 -16 -27 7 -20 24 8 28 -16 5 -35 -13 -10 -19 -9
-37 6 -20 19 -21 19 -14 -2 5 -17 2 -23 -15 -27 -11 -3 -18 -10 -15 -16 4 -6
14 -7 24 -4 10 4 14 2 9 -3 -5 -5 -29 -9 -55 -9 -27 0 -47 -5 -49 -12 -3 -9 9
-13 40 -13 35 0 50 6 68 25 13 13 35 25 49 26 14 0 20 3 13 5 -7 3 -9 12 -6
21 5 12 9 11 19 -8 21 -39 16 -2 -6 41 -23 45 -21 44 -37 25z"/>
<path d="M34 2578 c-4 -7 -3 -8 5 -4 7 5 23 5 37 2 22 -6 24 -11 24 -64 0 -31
4 -62 8 -69 4 -7 7 19 5 57 -1 39 -5 74 -8 80 -9 14 -62 13 -71 -2z"/>
<path d="M2578 2579 c-9 -5 -19 -24 -23 -42 -4 -17 -17 -40 -28 -49 -22 -17
-22 -18 16 -18 20 0 37 -4 37 -10 0 -20 30 -9 47 18 10 15 22 30 27 33 10 8
-13 45 -41 64 -12 9 -24 10 -35 4z m42 -29 c12 -7 13 -13 3 -27 -6 -10 -16
-17 -22 -15 -6 1 -11 -2 -11 -8 0 -5 5 -10 10 -10 6 0 10 -4 10 -10 0 -21 -31
-9 -40 16 -17 45 13 78 50 54z"/>
<path d="M1953 2530 c-27 -11 -31 -22 -5 -13 15 5 14 3 -3 -15 -24 -24 -139
-89 -325 -185 -151 -77 -203 -107 -196 -114 2 -2 48 13 103 34 64 25 134 64
202 111 97 67 131 83 102 48 -22 -26 6 -27 37 -1 16 14 34 25 39 25 5 0 17 13
26 30 10 16 27 35 38 40 10 6 19 20 19 30 0 22 -4 23 -37 10z"/>
<path d="M977 2503 c-14 -4 -16 -8 -6 -19 9 -11 8 -14 -5 -14 -9 0 -16 5 -16
12 0 6 -3 9 -6 5 -13 -12 9 -47 39 -63 18 -9 57 -20 87 -25 43 -6 61 -15 82
-38 15 -17 32 -31 37 -31 5 0 7 -9 4 -20 -3 -11 -9 -18 -13 -15 -13 8 -60 -20
-55 -33 3 -8 5 -20 5 -28 0 -20 74 -18 105 2 27 17 31 39 14 64 -8 11 -9 9 -3
-10 3 -14 3 -22 -2 -17 -4 4 -18 -3 -30 -14 -22 -21 -24 -21 -30 -4 -5 12 0
24 15 36 17 14 21 26 17 55 -4 42 -18 55 -91 90 -54 26 -104 30 -137 13 -11
-6 -22 -8 -25 -5 -3 3 6 11 21 17 18 9 23 16 16 24 -5 7 -7 15 -3 18 3 4 4 6
2 6 -2 -1 -12 -3 -22 -6z"/>
<path d="M2756 2491 c-4 -5 -3 -17 1 -27 4 -12 3 -15 -5 -10 -7 4 -22 9 -34
11 -23 4 -23 4 -3 -11 11 -8 29 -13 40 -10 11 3 29 6 40 7 16 1 15 2 -5 8 -15
4 -24 14 -24 24 2 19 -2 22 -10 8z"/>
<path d="M1940 2418 c-77 -95 -90 -108 -116 -114 -13 -3 -24 -10 -24 -15 0 -5
14 -3 30 6 17 9 30 12 30 7 0 -19 -40 -43 -111 -67 -41 -14 -100 -43 -132 -66
-32 -22 -61 -38 -64 -35 -3 3 14 24 38 47 38 36 41 40 19 35 -14 -3 -33 -6
-42 -6 -9 0 -31 -12 -48 -26 -17 -15 -34 -24 -37 -20 -4 4 -23 -9 -42 -27 -41
-39 -75 -51 -105 -36 -12 6 -6 -3 13 -19 l34 -29 -33 5 c-18 3 -30 1 -28 -4 3
-5 -23 -18 -58 -30 -35 -11 -64 -19 -64 -17 0 2 19 13 43 23 54 25 37 26 -31
2 -51 -18 -88 -41 -44 -28 27 9 30 -9 3 -24 -26 -13 -26 -13 -28 13 -1 12 -5
32 -8 45 -4 18 0 24 22 32 16 5 41 16 56 25 37 20 48 19 41 -2 -5 -15 -4 -16
5 -3 10 13 13 13 22 -2 12 -22 29 -23 29 -3 0 37 -100 42 -179 9 -45 -19 -148
-109 -168 -148 -9 -17 -18 -26 -20 -19 -2 7 1 22 8 35 l12 23 -24 -21 c-22
-20 -28 -21 -72 -9 -58 15 -60 17 -59 55 0 16 -4 30 -9 30 -6 0 -9 -19 -7 -42
l3 -42 75 -23 c74 -23 127 -30 103 -15 -17 11 50 88 99 113 44 23 43 23 52 -8
6 -18 3 -22 -21 -25 -22 -2 -29 -9 -31 -29 -2 -17 3 -29 12 -32 9 -4 15 -3 15
1 -5 29 3 52 17 52 12 0 15 -6 10 -27 -7 -26 -7 -26 18 -10 14 10 32 17 40 17
8 0 21 7 30 15 14 15 127 55 154 55 8 0 25 9 39 20 14 11 38 20 53 20 15 0 40
10 55 22 15 12 39 23 52 24 13 2 38 12 56 23 55 35 109 59 182 81 72 21 140
59 83 46 l-26 -6 23 45 c12 25 46 70 74 100 28 29 51 56 51 59 0 18 -24 -2
-70 -56z m-409 -292 c-6 -7 -24 -16 -39 -20 -15 -3 -38 -9 -52 -12 l-25 -7 24
27 c19 20 34 26 64 26 32 0 37 -2 28 -14z"/>
<path d="M466 2459 c-128 -12 -193 -30 -86 -24 41 3 120 7 175 9 l100 5 -35
-20 c-19 -11 -26 -17 -15 -14 17 5 17 3 -5 -20 -13 -14 -38 -29 -54 -34 -17
-5 -23 -10 -13 -10 9 -1 17 -5 17 -11 0 -12 -45 -24 -65 -17 -8 4 -27 -6 -44
-23 -16 -17 -25 -30 -20 -30 5 0 18 9 29 20 13 13 33 20 57 20 30 0 44 8 89
53 l52 52 53 -13 c83 -20 98 -20 110 -6 12 14 9 17 -36 28 -14 4 54 0 73 -3 1
-1 2 -6 2 -12 0 -5 -4 -8 -9 -4 -14 8 -20 -7 -10 -30 8 -19 8 -19 15 3 4 13
14 22 26 22 10 0 16 -4 13 -10 -3 -5 -1 -10 4 -10 6 0 11 5 11 10 0 15 36 12
49 -3 6 -8 8 -17 4 -20 -3 -4 1 -7 9 -7 28 0 41 -26 27 -52 -7 -13 -15 -25
-18 -28 -23 -18 -51 -67 -51 -89 l1 -26 16 30 c18 34 53 81 53 71 0 -4 14 0
30 9 17 9 30 20 30 25 0 15 -8 12 -31 -11 -11 -11 -24 -18 -27 -14 -4 4 5 16
21 27 53 39 26 74 -93 119 -97 37 -291 53 -454 38z"/>
<path d="M1522 2459 c2 -7 -6 -25 -19 -39 -32 -35 -29 -46 6 -18 31 24 39 52
20 64 -7 4 -10 1 -7 -7z"/>
<path d="M2241 2439 c-18 -11 -31 -22 -28 -25 6 -7 77 28 77 38 0 13 -12 10
-49 -13z"/>
<path d="M2938 2437 c-4 -28 -39 -34 -83 -13 -36 17 -65 22 -49 7 13 -12 104
-41 130 -41 12 0 32 -12 43 -26 12 -15 21 -22 21 -16 0 17 -22 62 -31 62 -4 0
-5 8 -2 19 3 11 -2 21 -11 24 -10 4 -16 -1 -18 -16z"/>
<path d="M2030 2429 c-25 -12 -40 -23 -34 -26 11 -3 84 34 84 43 0 6 -1 6 -50
-17z"/>
<path d="M2470 2441 c59 -15 126 -22 110 -12 -8 5 -44 11 -80 15 -46 4 -55 3
-30 -3z"/>
<path d="M2130 2420 c-13 -8 -12 -10 3 -10 22 0 22 -9 -4 -36 -19 -20 -19 -22
-3 -20 10 2 20 9 22 17 3 8 14 24 25 37 l20 22 -24 0 c-13 0 -31 -5 -39 -10z"/>
<path d="M2255 2413 c-52 -21 -102 -56 -87 -61 16 -5 15 -33 0 -31 -22 4 -98
-12 -98 -21 0 -5 13 -5 29 0 16 4 32 6 35 3 3 -3 16 -3 29 1 25 6 43 42 25 48
-14 5 122 59 169 68 37 8 37 8 -12 8 -27 1 -68 -6 -90 -15z"/>
<path d="M2350 2401 c-78 -23 -149 -49 -134 -50 6 -1 26 4 43 10 22 8 36 8 43
1 7 -7 24 -4 56 10 39 18 59 20 151 15 58 -4 106 -6 107 -7 7 -3 24 -83 22
-105 -2 -16 1 -32 6 -35 5 -3 10 8 12 24 1 15 5 31 8 33 3 3 -2 19 -10 36 -15
27 -15 29 0 24 9 -4 16 -2 16 4 0 10 49 2 64 -11 4 -5 -6 -20 -23 -36 -20 -17
-31 -37 -31 -53 1 -25 1 -25 14 5 8 17 30 44 50 59 36 27 38 28 102 17 98 -16
102 -23 70 -107 -12 -34 -15 -36 -16 -15 l-1 25 -10 -25 c-10 -24 -11 -24 -25
-6 -11 16 -14 17 -14 4 0 -9 7 -18 15 -22 9 -3 12 -12 8 -23 -5 -15 -3 -15 10
2 16 19 16 19 17 -17 0 -29 4 -38 17 -38 9 0 25 -8 35 -17 16 -14 21 -15 28
-3 6 10 10 5 13 -16 l4 -29 2 28 c1 31 -33 71 -55 63 -10 -4 -12 -2 -8 6 5 8
2 9 -10 5 -12 -5 -16 -3 -12 5 2 7 15 44 27 81 20 66 22 67 40 51 18 -16 19
-16 19 3 0 27 -89 55 -280 87 -213 36 -291 40 -370 17z"/>
<path d="M348 2387 c-38 -32 -48 -57 -38 -97 l8 -35 1 42 c1 47 37 99 74 106
19 4 20 4 2 6 -11 0 -32 -9 -47 -22z"/>
<path d="M1050 2377 c0 -9 48 -55 53 -51 2 2 10 -2 17 -11 14 -17 40 -20 40
-5 0 6 -4 10 -9 10 -5 0 -16 6 -23 14 -15 14 -78 49 -78 43z"/>
<path d="M1868 2369 c-10 -5 -24 -9 -30 -7 -15 3 -151 -63 -143 -70 2 -3 28 7
57 21 29 15 64 28 78 31 14 3 34 12 45 20 23 17 19 20 -7 5z"/>
<path d="M2391 2364 c-25 -11 -31 -18 -23 -26 8 -8 22 -8 50 0 22 7 55 12 73
12 l34 1 -25 14 c-31 18 -65 18 -109 -1z"/>
<path d="M699 2323 c8 -3 37 -28 63 -54 47 -47 48 -49 23 -49 -15 0 -33 7 -42
15 -14 14 -16 14 -28 -2 -11 -15 -15 -16 -31 -3 -15 13 -17 13 -12 0 5 -15
156 -45 168 -33 3 3 0 8 -7 10 -7 2 -10 10 -7 17 6 16 -99 106 -123 105 -13 0
-14 -2 -4 -6z"/>
<path d="M816 2311 c-22 -24 -20 -29 9 -23 14 2 25 10 25 18 0 22 -16 25 -34
5z"/>
<path d="M2391 2311 c-7 -5 -10 -14 -6 -20 5 -8 11 -9 19 -2 7 6 15 9 17 7 2
-2 10 2 17 10 11 12 9 14 -10 14 -13 0 -29 -4 -37 -9z"/>
<path d="M2460 2297 c0 -8 -10 -19 -22 -25 -17 -8 -19 -11 -6 -11 18 -1 48 24
48 40 0 5 -4 9 -10 9 -5 0 -10 -6 -10 -13z"/>
<path d="M620 2295 c0 -2 11 -12 25 -21 22 -14 26 -14 39 -1 14 13 14 16 0 21
-19 7 -64 8 -64 1z"/>
<path d="M879 2250 c-12 -28 -14 -41 -6 -49 8 -8 7 -11 -2 -11 -7 0 -9 -4 -6
-10 3 -5 -1 -10 -9 -10 -18 0 -21 -35 -6 -74 10 -28 -3 -44 -23 -28 -7 6 -28
14 -47 19 -38 10 -43 26 -10 31 11 2 18 8 15 13 -8 12 -49 2 -107 -28 -57 -28
-64 -40 -10 -17 53 22 54 22 63 -11 8 -30 9 -30 78 -30 46 0 67 3 62 10 -5 5
-5 19 -1 30 4 11 5 26 2 33 -2 7 3 21 12 31 9 10 13 21 9 25 -4 4 -1 11 7 16
10 7 11 10 3 10 -7 0 -13 10 -13 23 0 18 2 19 10 7 7 -11 8 -5 4 20 -4 19 -7
36 -8 37 -1 1 -8 -16 -17 -37z"/>
<path d="M2245 2264 c-46 -23 -47 -25 -15 -19 37 7 106 45 80 44 -8 0 -37 -12
-65 -25z"/>
<path d="M460 2265 c-7 -8 -16 -13 -20 -10 -4 2 -16 -8 -28 -24 l-21 -28 44
21 c28 14 43 27 42 39 -2 21 -1 21 -17 2z"/>
<path d="M2762 2263 c-6 -2 -9 -9 -6 -15 3 -5 -3 -16 -15 -24 -14 -10 -21 -26
-21 -49 0 -60 7 -66 47 -43 19 12 37 27 40 35 10 26 22 12 34 -42 7 -30 14
-53 17 -50 8 7 -21 125 -31 125 -5 0 -22 -14 -38 -31 -24 -26 -32 -29 -44 -19
-15 13 -22 45 -7 36 4 -2 14 -1 22 5 12 7 11 9 -4 9 -18 0 -18 1 -1 20 10 11
24 20 32 20 7 0 13 7 13 15 0 15 -14 18 -38 8z"/>
<path d="M70 2236 c47 -13 60 -12 60 5 0 5 -24 9 -52 8 l-53 -1 45 -12z"/>
<path d="M185 2234 c-11 -11 -15 -30 -13 -57 3 -46 23 -61 24 -19 1 16 8 43
17 60 12 26 13 32 2 32 -7 0 -21 -7 -30 -16z"/>
<path d="M322 2225 c2 -20 -2 -30 -11 -30 -24 0 -23 -22 0 -28 37 -10 49 14
28 54 l-19 34 2 -30z"/>
<path d="M1962 2218 c-22 -18 -48 -38 -58 -44 -11 -7 -16 -14 -13 -18 9 -10
116 64 116 80 0 18 1 19 -45 -18z"/>
<path d="M1029 2217 c7 -9 21 -17 30 -17 14 0 14 -2 1 -10 -10 -6 -22 -4 -37
5 -12 8 -28 15 -35 15 -9 0 -9 -3 2 -10 13 -9 7 -14 -12 -11 -13 2 -9 -6 9
-20 11 -10 14 -10 9 -1 -10 17 19 16 34 -2 6 -8 19 -12 27 -9 10 4 14 2 9 -5
-4 -8 3 -8 25 -2 18 5 34 12 37 14 2 3 17 -3 32 -14 37 -26 56 -26 30 0 -20
20 -19 47 1 35 5 -4 19 1 31 9 25 18 12 21 -25 7 -13 -5 -47 -16 -76 -25 -52
-15 -52 -15 -49 7 2 12 7 25 13 29 5 4 1 7 -10 6 -11 0 -29 3 -40 8 -18 7 -18
6 -6 -9z"/>
<path d="M2255 2213 c-27 -7 -76 -16 -108 -20 -36 -4 -53 -9 -45 -14 21 -13 0
-26 -112 -63 -75 -26 -96 -36 -72 -36 17 0 32 -4 32 -10 0 -5 -11 -10 -24 -10
-13 0 -29 -7 -36 -15 -18 -22 11 -20 60 5 22 11 58 20 81 20 31 0 46 6 59 23
19 23 108 47 177 47 27 0 30 3 25 25 -2 14 1 32 8 40 18 22 12 23 -45 8z m10
-32 c9 -16 -17 -25 -74 -28 -59 -3 -59 9 -1 25 46 13 68 14 75 3z"/>
<path d="M1815 2206 c-11 -8 -39 -19 -62 -26 -26 -8 -45 -21 -52 -37 -6 -13
-21 -27 -33 -32 -28 -11 -35 -6 -19 13 15 18 -107 -30 -129 -50 -12 -12 -12
-14 3 -14 9 0 17 5 17 11 0 8 6 7 17 -2 14 -12 16 -12 8 0 -6 10 -4 13 6 9 8
-3 25 -1 39 5 14 5 34 9 45 8 12 -1 40 15 65 38 25 23 52 41 61 41 8 0 26 11
39 25 26 28 24 32 -5 11z"/>
<path d="M1321 2175 c-85 -41 -121 -42 -46 -1 42 23 45 26 20 22 -16 -2 -43
-9 -58 -15 -23 -9 -26 -14 -18 -30 9 -15 27 -20 91 -26 45 -4 84 -4 87 -1 4 3
-9 6 -28 7 -33 0 -33 1 12 13 39 10 109 50 109 61 0 2 -16 -3 -36 -11 -32 -14
-37 -14 -47 1 -11 14 -20 11 -86 -20z"/>
<path d="M2341 2187 c-29 -14 -36 -43 -13 -52 15 -6 15 -8 -3 -15 -11 -5 -32
-9 -47 -9 -29 -1 -35 -10 -17 -28 11 -11 59 -5 59 8 0 5 5 9 10 9 14 0 13 -27
-1 -32 -8 -3 -10 -16 -4 -43 l8 -40 12 47 c13 48 10 94 -8 116 -12 15 -2 27
31 37 14 4 22 2 22 -5 0 -7 -9 -14 -20 -17 -20 -5 -26 -18 -12 -27 15 -9 55
31 49 48 -8 19 -33 20 -66 3z"/>
<path d="M109 2163 c-19 -5 -113 -112 -106 -120 4 -3 21 -3 39 1 28 5 33 10
35 37 3 38 19 59 45 59 14 0 18 -5 14 -16 -3 -9 -6 -19 -6 -24 0 -4 -9 -10
-20 -13 -19 -5 -29 -27 -12 -27 15 0 50 44 52 65 5 45 0 49 -41 38z"/>
<path d="M381 2140 c-1 -44 21 -88 81 -161 25 -31 47 -62 49 -68 2 -6 18 -12
34 -14 17 -3 43 -9 58 -16 39 -15 45 -14 58 10 11 21 10 22 -19 16 -19 -4 -42
-1 -59 8 -15 8 -36 12 -46 9 -13 -4 -19 2 -23 25 -3 16 -18 42 -33 58 -48 50
-83 103 -91 136 l-8 32 -1 -35z"/>
<path d="M1985 2160 l-40 -7 52 -2 c28 0 55 4 58 9 7 11 -9 11 -70 0z"/>
<path d="M910 2155 c-1 -5 -2 -14 -1 -19 1 -5 -2 -12 -7 -15 -11 -7 -4 -71 8
-71 11 0 17 62 9 91 -4 13 -8 20 -9 14z"/>
<path d="M1010 2151 c0 -6 -9 -11 -20 -11 -11 0 -20 -5 -20 -11 0 -7 10 -9 26
-5 19 5 24 4 18 -6 -5 -7 -10 -21 -11 -31 -3 -17 -1 -17 19 -3 12 9 33 16 45
16 13 0 23 6 23 14 0 8 12 19 28 24 15 6 21 11 14 11 -8 1 -29 -6 -48 -15 -34
-16 -71 -13 -59 5 3 5 1 12 -5 16 -5 3 -10 1 -10 -4z"/>
<path d="M290 2104 c5 -19 15 -43 24 -53 9 -10 16 -21 16 -25 0 -7 24 -36 76
-92 12 -13 19 -25 16 -28 -3 -3 0 -6 7 -6 8 0 11 6 7 16 -3 9 -6 18 -6 20 0 3
-5 2 -12 -2 -8 -5 -9 -2 -5 10 5 11 3 15 -5 10 -7 -5 -9 -2 -5 8 3 10 -3 19
-16 25 -12 6 -37 40 -56 77 -40 78 -52 90 -41 40z"/>
<path d="M173 2097 c5 -17 57 -22 57 -5 0 7 -13 14 -31 15 -20 2 -29 -2 -26
-10z"/>
<path d="M2109 2081 l-23 -18 37 -7 c20 -4 43 -16 51 -28 21 -30 14 -33 -31
-10 -37 19 -173 36 -173 21 0 -4 7 -12 15 -19 8 -7 15 -17 15 -23 0 -5 -8 -3
-19 7 -13 12 -25 14 -40 8 -19 -7 -21 -10 -8 -20 8 -7 35 -16 60 -21 50 -9 77
-25 77 -47 0 -7 8 -19 18 -26 36 -25 52 -128 20 -128 -5 0 -9 -10 -8 -22 3
-37 1 -39 -20 -18 -24 24 -27 52 -5 43 54 -20 -92 180 -155 212 -25 13 -37 12
-116 -7 -49 -12 -93 -26 -99 -31 -10 -9 20 -6 86 9 22 5 28 1 37 -23 6 -15 14
-46 18 -68 10 -55 30 -100 38 -86 10 16 26 14 26 -4 0 -9 7 -18 15 -21 8 -4
15 -15 15 -25 0 -10 6 -19 13 -20 6 -1 1 -4 -13 -9 -25 -7 -24 -7 10 -18 33
-11 33 -12 5 -8 -16 2 -39 0 -50 -4 -11 -4 -29 -3 -40 3 -17 9 -18 8 -7 -5 10
-13 6 -16 -34 -22 -26 -3 -70 -6 -98 -6 -29 0 -57 -5 -63 -11 -8 -8 -24 -8
-55 -1 -64 16 -119 38 -111 45 3 4 -1 7 -10 7 -26 0 -20 17 9 24 15 4 24 9 22
12 -6 5 -98 -28 -97 -36 0 -3 35 -22 79 -42 79 -38 119 -45 162 -29 13 5 71
12 128 15 58 4 126 13 150 20 71 22 120 45 120 57 0 5 5 7 11 3 8 -5 8 -9 -1
-14 -9 -5 1 -15 29 -31 29 -17 39 -28 34 -39 -3 -8 -6 -28 -5 -44 1 -27 0 -28
-32 -22 -40 8 -51 -2 -30 -25 15 -16 13 -16 -28 -2 -23 8 -47 18 -53 23 -5 4
-34 10 -63 11 l-54 4 33 -27 c34 -29 88 -42 158 -39 34 2 47 -2 58 -18 14 -20
46 -27 76 -15 13 4 12 13 -2 67 l-16 62 -3 -62 c-2 -44 -7 -63 -16 -63 -30 0
-33 25 -14 100 15 60 17 83 8 117 -6 24 -8 60 -5 80 6 44 -16 138 -33 138 -6
0 -18 10 -27 21 -12 18 -12 23 -1 27 7 3 19 0 25 -6 8 -8 11 -4 11 16 0 15 -5
27 -11 27 -5 0 -7 -5 -3 -11 4 -7 1 -10 -6 -7 -23 7 -22 25 2 31 24 7 37 -6
39 -38 0 -11 7 -36 14 -55 12 -32 14 -33 14 -9 1 14 -4 30 -11 37 -9 9 -8 12
4 12 18 0 60 -101 79 -190 6 -30 17 -66 24 -80 20 -38 67 -179 72 -214 2 -17
19 -62 37 -101 18 -38 37 -81 41 -95 4 -14 21 -59 38 -100 27 -64 32 -71 37
-50 4 16 14 26 29 28 23 4 24 2 19 -47 -3 -28 -1 -51 3 -51 5 0 9 11 9 25 0
38 42 34 74 -7 14 -18 26 -30 26 -26 0 15 -69 87 -75 78 -12 -20 -25 -10 -25
20 0 34 -8 36 -52 14 -26 -14 -30 -14 -25 -1 3 8 -1 24 -9 35 -7 11 -18 33
-24 49 -10 27 -10 27 20 -7 16 -19 30 -42 30 -50 1 -13 2 -13 13 1 7 9 18 14
25 12 23 -8 12 14 -13 25 -14 6 -25 16 -25 22 0 6 -4 9 -9 5 -5 -3 -12 -1 -15
3 -3 5 13 28 34 51 40 43 40 43 40 15 0 -15 3 -24 7 -20 9 9 11 86 2 80 -4 -2
-10 0 -14 6 -3 5 -1 10 6 10 6 0 18 8 26 18 8 9 12 11 8 5 -3 -8 0 -13 8 -13
8 0 19 -6 25 -13 32 -39 274 -128 294 -108 5 4 -20 13 -55 20 -81 16 -198 73
-242 116 -19 19 -36 35 -39 35 -2 0 -6 -9 -9 -20 -3 -11 -10 -20 -17 -20 -6 0
-8 5 -5 10 4 6 -1 23 -11 38 -10 15 -28 47 -40 72 -26 53 -73 128 -74 118 0
-5 18 -49 41 -98 22 -50 37 -95 33 -102 -4 -6 -3 -8 3 -5 15 10 36 -20 29 -39
-4 -10 1 -26 11 -37 17 -20 17 -20 0 -14 -10 4 -20 7 -22 7 -2 0 -13 20 -23
44 -22 49 -51 76 -37 35 4 -13 8 -36 9 -50 1 -18 6 -26 16 -24 8 2 21 -3 27
-11 10 -10 8 -19 -13 -43 -14 -17 -32 -31 -39 -31 -13 0 -31 36 -27 53 1 4 -2
7 -7 7 -12 0 -32 60 -24 73 3 5 1 7 -4 4 -11 -7 -27 33 -18 42 3 2 5 -2 5 -10
0 -12 2 -12 9 0 6 10 2 26 -13 50 -31 49 -59 133 -47 141 6 3 6 11 1 20 -8 13
-10 12 -10 -2 0 -10 -4 -18 -10 -18 -5 0 -10 8 -10 18 0 27 -69 291 -82 315
-7 12 -11 27 -9 32 4 15 -42 95 -55 95 -7 0 -22 -8 -35 -19z m-65 -82 c14 -17
26 -35 26 -41 0 -6 -1 -9 -2 -7 -2 2 -19 21 -37 42 -19 20 -30 37 -24 37 6 0
23 -14 37 -31z m-119 -59 c-4 -13 -1 -17 12 -16 11 0 24 -13 36 -39 10 -22 34
-66 54 -98 19 -32 33 -60 30 -63 -2 -3 -24 -6 -48 -7 -42 -2 -44 -1 -44 25 1
23 -3 26 -22 22 -17 -5 -22 -1 -23 13 -1 58 -8 76 -31 87 -34 15 -37 38 -4 30
15 -4 25 -2 25 5 0 6 -9 11 -19 11 -21 0 -54 27 -47 38 2 4 23 8 45 8 35 1 41
-1 36 -16z m148 -148 c-5 -11 -45 23 -59 50 -16 32 -16 32 22 -7 22 -22 38
-41 37 -43z"/>
<path d="M2176 2085 c4 -8 14 -15 24 -15 19 0 70 -53 70 -72 0 -6 3 -8 6 -5 4
4 -4 29 -17 57 -21 45 -27 50 -56 50 -25 0 -31 -4 -27 -15z"/>
<path d="M2389 2086 c18 -10 21 -15 10 -19 -8 -2 -1 -3 15 -1 54 7 50 18 -9
28 -38 6 -39 6 -16 -8z"/>
<path d="M957 2072 c-9 -10 -17 -27 -17 -36 0 -17 1 -17 26 -1 14 9 34 15 45
12 10 -3 26 1 36 9 16 12 15 13 -15 7 -24 -4 -36 -1 -45 11 -12 16 -14 16 -30
-2z"/>
<path d="M2679 2065 c-15 -31 -123 -113 -155 -118 -40 -6 -46 -17 -41 -71 6
-58 46 -155 73 -176 18 -14 18 -14 5 3 -12 15 -12 17 3 11 10 -4 18 0 22 10 8
22 -3 33 -18 18 -8 -8 -17 2 -36 41 -30 64 -43 115 -31 123 5 3 9 -1 9 -8 0
-8 12 -38 26 -67 21 -42 29 -50 36 -38 6 11 -1 31 -22 65 -31 51 -37 72 -20
72 25 0 77 -30 105 -60 26 -29 27 -32 8 -26 -18 6 -21 4 -16 -16 6 -22 5 -22
-13 -6 -11 9 -20 27 -21 38 -2 22 -22 54 -30 47 -2 -3 6 -28 17 -57 11 -28 20
-57 19 -63 -3 -16 11 -47 21 -47 4 0 5 12 2 26 -8 41 47 88 173 148 110 53
166 98 180 144 10 33 -9 27 -22 -8 -8 -20 -18 -30 -32 -30 -12 0 -21 -6 -21
-13 0 -24 -34 -46 -125 -82 -111 -43 -111 -43 -162 -17 -50 26 -54 41 -15 64
41 25 105 94 100 109 -3 9 -10 2 -19 -16z"/>
<path d="M200 2062 c0 -5 11 -19 24 -31 25 -23 25 -23 19 -2 -5 21 -43 50 -43
33z"/>
<path d="M1400 2040 c0 -5 6 -10 13 -11 6 0 3 -4 -7 -8 -11 -4 -15 -10 -9 -14
5 -3 19 0 29 8 16 13 17 16 4 25 -19 13 -30 13 -30 0z"/>
<path d="M640 2021 c-11 -8 -5 -11 26 -11 22 0 45 -5 51 -11 8 -8 13 -8 18 1
4 6 5 14 2 17 -11 10 -83 13 -97 4z"/>
<path d="M2367 2008 c-13 -45 -7 -63 26 -83 47 -28 47 -28 47 -7 0 13 -9 22
-25 26 -19 5 -25 13 -25 34 0 40 -16 60 -23 30z"/>
<path d="M2957 1989 c-16 -16 -24 -29 -18 -29 5 0 12 4 15 9 3 5 15 7 26 4 21
-6 23 1 12 28 -6 14 -11 12 -35 -12z"/>
<path d="M1431 1991 c-11 -7 -10 -11 5 -19 11 -5 24 -7 31 -5 6 2 14 -5 18
-17 4 -12 9 -19 12 -17 8 9 -27 67 -40 67 -6 0 -18 -4 -26 -9z"/>
<path d="M1490 1991 c0 -6 20 -11 47 -11 55 0 53 8 -5 16 -27 4 -42 2 -42 -5z"/>
<path d="M668 1983 c-20 -5 -24 -28 -8 -38 13 -8 45 24 34 34 -5 4 -17 6 -26
4z"/>
<path d="M195 1948 c17 -19 41 -42 56 -51 14 -9 41 -39 60 -66 18 -28 40 -51
47 -51 6 0 12 -4 12 -10 0 -5 -7 -10 -16 -10 -10 0 0 -18 30 -56 44 -53 76
-130 76 -181 0 -12 18 -46 39 -74 22 -29 56 -83 78 -120 21 -38 43 -67 48 -65
21 6 17 67 -5 91 -28 30 -6 39 35 13 34 -20 45 -22 45 -8 0 6 -6 10 -12 10 -7
0 -38 19 -68 42 -30 23 -49 34 -42 26 7 -9 9 -24 5 -33 -5 -14 -3 -16 7 -10
10 6 12 4 7 -9 -4 -10 -7 -25 -7 -34 -1 -9 -10 0 -20 20 -23 42 -31 139 -13
145 12 4 -19 43 -34 43 -4 0 -2 -5 5 -12 7 -7 12 -19 12 -27 0 -9 -10 4 -23
29 -13 25 -36 64 -51 87 -15 23 -25 47 -21 53 3 6 2 9 -3 8 -5 -2 -27 22 -48
54 -53 76 -162 208 -172 206 -4 -1 -18 4 -32 12 -24 13 -24 12 5 -22z m314
-447 c2 -31 -18 6 -23 44 l-6 40 14 -35 c8 -19 15 -42 15 -49z"/>
<path d="M1614 1965 c32 -17 55 -19 76 -5 23 14 6 22 -25 10 -20 -7 -31 -8
-39 0 -5 5 -17 10 -25 10 -9 0 -3 -7 13 -15z"/>
<path d="M2280 1968 c0 -20 40 -131 46 -126 2 2 -8 35 -21 74 -14 38 -25 61
-25 52z"/>
<path d="M1511 1948 c23 -42 103 -129 116 -124 7 3 10 -1 6 -10 -6 -17 8 -18
26 -1 11 10 11 8 2 -10 -6 -13 -9 -23 -6 -24 20 -4 45 -2 45 4 0 4 0 11 0 15
0 5 -13 24 -30 42 -16 18 -30 27 -30 20 0 -10 -3 -10 -12 2 -7 9 -29 26 -48
37 -28 17 -31 21 -15 22 22 2 56 2 67 0 10 -1 108 -132 108 -142 0 -5 -7 -9
-17 -9 -9 0 -14 -3 -10 -6 3 -3 15 -3 26 1 19 6 17 9 -20 69 -53 84 -79 107
-136 117 -26 5 -56 12 -66 15 -17 5 -17 3 -6 -18z"/>
<path d="M0 1946 c0 -10 19 -16 68 -21 37 -4 84 -15 105 -26 42 -21 47 -22 47
-11 0 15 -73 49 -128 61 -70 15 -92 14 -92 -3z"/>
<path d="M1290 1926 c0 -8 16 -16 38 -19 20 -3 44 -8 53 -12 11 -4 19 0 23 11
8 22 11 20 -56 27 -44 4 -58 2 -58 -7z"/>
<path d="M840 1910 c8 -5 27 -10 42 -10 15 0 29 -4 32 -9 3 -5 27 -12 53 -16
l47 -7 -47 -20 c-40 -17 -45 -23 -37 -39 6 -10 10 -26 10 -37 0 -20 15 -30 58
-38 33 -6 27 15 -8 27 -16 6 -30 17 -30 24 0 7 -3 20 -6 29 -9 24 52 21 83 -4
19 -15 29 -17 39 -9 16 13 34 4 34 -17 0 -8 7 -17 16 -21 9 -3 20 -15 25 -27
7 -16 8 -12 3 13 -6 34 -37 70 -61 71 -6 0 -15 5 -18 10 -4 6 -3 10 2 9 4 -1
15 -1 23 0 26 3 -46 29 -154 55 -113 28 -129 31 -106 16z"/>
<path d="M994 1912 c4 -7 16 -12 27 -12 29 0 152 -64 249 -130 120 -82 118
-81 169 -61 33 14 40 19 27 24 -26 10 -64 8 -71 -3 -3 -5 -16 -10 -28 -10 -17
0 -19 2 -8 9 10 7 2 14 -31 29 -45 19 -83 54 -42 38 10 -5 28 -11 39 -13 45
-12 -6 17 -122 71 -118 54 -225 84 -209 58z"/>
<path d="M2784 1885 c-88 -44 -161 -110 -143 -131 7 -8 18 -13 26 -10 9 4 11
1 7 -6 -5 -8 -2 -9 12 -3 10 4 44 9 74 10 57 3 170 45 170 64 0 15 -3 14 -70
-14 -73 -31 -88 -32 -58 -2 13 12 16 16 6 8 -9 -7 -24 -11 -33 -7 -9 3 -28 -2
-42 -11 -26 -17 -26 -17 -15 4 7 12 21 25 32 28 11 3 20 13 20 20 0 8 12 21
28 29 24 12 72 56 61 56 -2 0 -36 -16 -75 -35z"/>
<path d="M1155 1895 c22 -7 69 -15 105 -19 83 -9 100 -18 77 -41 -21 -20 -21
-26 -2 -19 8 4 15 10 15 15 0 13 67 11 75 -1 5 -8 11 -7 20 0 8 7 19 9 25 5
18 -11 70 -15 70 -5 0 6 -3 10 -6 10 -3 0 -84 16 -180 35 -95 19 -188 35 -206
34 l-33 -1 40 -13z"/>
<path d="M1421 1896 c-13 -16 -14 -16 77 -36 28 -7 55 -16 58 -21 3 -5 10 -9
16 -9 7 0 6 6 -2 15 -7 8 -19 15 -27 15 -8 0 -29 11 -47 25 -37 28 -58 31 -75
11z"/>
<path d="M470 1899 c0 -3 5 -20 11 -37 6 -18 16 -69 23 -114 l13 -83 7 57 c9
61 -1 103 -34 153 -11 17 -20 27 -20 24z"/>
<path d="M111 1878 c12 -13 59 -18 59 -7 0 7 -36 19 -58 19 -10 0 -10 -3 -1
-12z"/>
<path d="M445 1860 c2 -19 8 -48 14 -65 l11 -30 -19 25 c-11 14 -26 34 -34 45
-9 11 -19 16 -24 12 -4 -5 0 -14 9 -21 35 -26 119 -210 86 -190 -5 3 -4 -4 4
-15 13 -21 13 -21 16 -2 3 21 -39 208 -57 251 -9 23 -10 22 -6 -10z"/>
<path d="M1713 1883 c9 -2 17 -9 17 -14 0 -5 7 -9 15 -9 9 0 26 -7 38 -15 21
-13 22 -13 22 15 0 30 -10 40 -17 18 -4 -10 -10 -10 -32 0 -15 6 -35 11 -44
11 -16 -1 -15 -2 1 -6z"/>
<path d="M163 1856 c-13 -6 -23 -18 -23 -28 0 -13 -8 -16 -40 -13 -22 2 -40
-1 -40 -6 0 -5 22 -9 48 -9 40 0 53 5 75 28 36 38 26 51 -20 28z"/>
<path d="M560 1844 c-18 -45 -14 -55 17 -41 22 10 23 13 9 15 -13 3 -17 10
-13 28 6 31 -1 31 -13 -2z"/>
<path d="M2164 1808 c1 -31 4 -54 7 -52 4 2 9 -15 13 -38 4 -22 9 -38 12 -35
4 3 1 28 -6 56 -6 28 -9 55 -5 61 12 19 16 62 5 55 -5 -3 -10 -14 -11 -23 -1
-10 -4 -7 -8 8 -6 17 -8 8 -7 -32z"/>
<path d="M200 1825 c-13 -14 -18 -25 -11 -25 6 0 16 -10 21 -22 8 -22 9 -22 9
-2 1 11 7 26 14 34 10 12 9 12 -5 1 -20 -15 -23 -9 -8 20 14 26 8 24 -20 -6z"/>
<path d="M765 1831 c-3 -12 -13 -21 -21 -21 -8 0 -14 -4 -14 -10 0 -5 7 -10
15 -10 15 0 41 48 31 57 -2 3 -7 -5 -11 -16z"/>
<path d="M2406 1812 c9 -15 27 -35 41 -46 l25 -18 -16 31 c-9 17 -21 30 -27
28 -7 -1 -14 4 -17 12 -3 9 0 11 9 6 8 -5 10 -4 6 0 -4 5 -14 10 -22 11 -13 2
-13 -2 1 -24z"/>
<path d="M1450 1817 c0 -7 12 -22 28 -33 35 -26 63 -40 37 -19 -11 9 -18 17
-16 18 3 1 1 9 -5 18 -12 21 -44 32 -44 16z"/>
<path d="M782 1774 c-12 -8 -22 -21 -22 -29 0 -20 -10 -24 -89 -31 -59 -5 -75
-3 -90 10 -18 16 -18 15 -10 -21 5 -21 12 -68 15 -105 3 -38 10 -68 15 -68 5
0 9 -7 9 -16 0 -10 -5 -14 -15 -10 -12 4 -11 -3 6 -35 15 -31 32 -46 72 -65
29 -13 57 -24 63 -24 16 0 72 30 59 31 -33 4 -42 4 -60 -2 -33 -11 -125 36
-125 63 0 12 37 10 59 -3 22 -14 67 -5 75 16 4 11 -2 15 -20 15 -27 0 -117 58
-109 70 3 5 22 4 42 -1 21 -4 45 -6 55 -3 9 3 19 0 23 -6 11 -18 23 -11 18 10
-5 17 -14 20 -67 20 -33 0 -66 4 -73 8 -6 4 -14 28 -18 54 l-7 48 66 -3 c36
-1 67 2 69 7 4 12 57 -1 57 -15 0 -11 10 -24 63 -81 31 -33 40 -39 50 -28 8 8
8 11 1 7 -13 -8 -37 16 -27 26 3 4 1 7 -5 7 -7 0 -11 3 -10 8 3 15 -15 42 -28
42 -18 0 -18 9 3 32 14 16 15 18 0 18 -9 0 -19 -4 -22 -10 -18 -29 -33 6 -19
44 8 22 44 21 45 -1 0 -12 2 -13 6 -5 5 12 -13 42 -26 42 -4 0 -17 -7 -29 -16z
m-126 -259 c15 -14 25 -27 22 -30 -7 -7 -58 34 -58 46 0 14 7 11 36 -16z"/>
<path d="M890 1765 c0 -8 -9 -24 -19 -34 -17 -17 -17 -20 -4 -25 23 -9 35 -7
28 5 -4 5 1 19 10 29 9 10 14 24 10 29 -9 16 -25 13 -25 -4z"/>
<path d="M1380 1770 c0 -5 8 -10 19 -10 10 0 34 -3 52 -6 23 -4 29 -2 19 4
-24 15 -90 24 -90 12z"/>
<path d="M15 1761 c-11 -4 18 -6 65 -4 116 6 131 11 35 11 -44 0 -89 -3 -100
-7z"/>
<path d="M1030 1738 c0 -18 24 -41 33 -31 4 3 13 0 22 -7 13 -11 14 -10 9 4
-3 9 -11 16 -17 16 -6 0 -19 7 -29 17 -16 14 -18 14 -18 1z"/>
<path d="M0 1724 c0 -13 8 -15 38 -12 66 9 156 -31 316 -138 49 -32 81 -37 52
-8 -8 8 -18 23 -21 34 -3 11 -11 20 -16 20 -6 0 -6 -8 1 -20 13 -25 -5 -28
-19 -2 -5 9 -12 16 -15 15 -13 -6 -26 -3 -23 6 1 4 -22 27 -50 50 -29 23 -52
47 -50 54 1 9 -27 13 -105 15 -95 2 -108 1 -108 -14z"/>
<path d="M930 1727 c0 -9 41 -77 47 -77 9 0 -10 44 -28 64 -11 11 -19 17 -19
13z"/>
<path d="M2446 1705 c4 -16 14 -38 22 -47 10 -12 11 -18 3 -18 -8 0 -7 -9 4
-30 9 -16 22 -30 30 -30 8 0 15 -7 15 -16 0 -13 3 -14 15 -4 8 7 12 16 9 21
-3 5 1 27 7 49 10 32 10 43 0 53 -10 9 -11 8 -5 -7 5 -13 4 -17 -4 -12 -7 4
-10 -3 -9 -21 2 -30 -1 -33 -34 -33 -18 0 -19 2 -9 15 10 12 7 23 -19 62 -28
42 -31 45 -25 18z"/>
<path d="M2593 1713 c-3 -10 -7 -20 -9 -23 -1 -3 8 -7 21 -8 30 -2 40 24 14
38 -15 9 -21 7 -26 -7z"/>
<path d="M2660 1709 c57 -46 131 -52 235 -18 79 26 80 37 1 14 -85 -25 -176
-23 -214 3 -38 28 -56 28 -22 1z"/>
<path d="M82 1670 c14 -25 28 -43 31 -40 3 3 16 -4 29 -16 36 -33 53 -40 45
-21 -3 10 -2 17 3 17 6 0 10 -4 10 -10 0 -5 5 -10 11 -10 6 0 23 -8 37 -19 15
-10 44 -24 65 -31 37 -11 38 -13 20 -29 -23 -23 -54 -16 -91 20 -21 21 -33 26
-38 18 -4 -8 -3 -9 4 -5 7 4 12 2 12 -3 0 -6 -3 -11 -7 -11 -14 0 -73 40 -73
49 0 5 -7 11 -14 14 -10 4 -13 1 -9 -9 3 -7 9 -14 14 -14 4 0 6 -7 3 -15 -8
-19 45 -43 175 -80 73 -21 95 -24 101 -14 22 34 -23 69 -196 154 -51 24 -107
57 -125 72 l-34 28 27 -45z"/>
<path d="M2576 1659 c-2 -8 -7 -27 -12 -44 l-10 -30 106 -51 c58 -28 146 -61
195 -73 120 -30 121 -30 135 -21 7 4 -14 12 -48 18 -99 18 -203 52 -196 64 5
7 2 8 -5 4 -15 -10 -161 64 -161 81 0 16 0 16 41 -4 19 -9 41 -18 49 -19 8 -1
44 -14 80 -27 63 -24 97 -30 148 -28 21 1 22 3 8 16 -16 17 -36 20 -36 6 0
-24 -217 49 -235 79 -4 6 -16 8 -28 5 -15 -4 -18 -3 -9 3 10 7 10 11 -2 22
-13 10 -16 10 -20 -1z"/>
<path d="M2875 1640 c-4 -6 -11 -8 -16 -4 -12 7 -69 -15 -69 -27 0 -13 26 -11
64 5 33 14 56 36 37 36 -5 0 -13 -5 -16 -10z"/>
<path d="M962 1612 c2 -12 15 -18 43 -20 45 -4 39 9 -13 26 -30 10 -33 9 -30
-6z"/>
<path d="M1970 1599 c0 -5 15 -9 34 -9 19 0 37 4 40 9 3 4 -12 8 -34 8 -22 0
-40 -4 -40 -8z"/>
<path d="M1111 1574 c-1 -20 6 -38 20 -50 26 -23 49 -74 49 -109 0 -14 5 -25
10 -25 10 0 14 19 11 53 -2 18 14 24 23 8 3 -4 34 -16 68 -26 35 -9 90 -29
123 -44 82 -37 204 -66 241 -57 26 7 27 8 10 18 -13 7 -24 8 -36 1 -18 -12
-133 23 -260 80 -25 11 -58 21 -75 22 -34 1 -104 35 -124 59 -7 9 -11 22 -8
30 3 8 -2 16 -14 19 -10 3 -20 0 -20 -6 -1 -7 -5 4 -9 23 l-7 35 -2 -31z"/>
<path d="M2275 1490 c26 -91 45 -141 45 -119 0 9 -48 176 -59 202 -22 56 -17
24 14 -83z"/>
<path d="M1777 1584 c-7 -7 28 -37 56 -47 22 -8 13 -27 -13 -27 -18 0 -36 -28
-25 -39 3 -3 15 0 25 7 25 15 92 16 107 1 6 -6 16 -10 22 -8 9 3 -35 35 -140
103 -14 9 -28 13 -32 10z"/>
<path d="M876 1538 c-15 -13 -28 -38 -31 -58 -5 -29 -4 -31 4 -12 6 12 18 25
27 29 12 4 13 8 3 14 -10 6 -5 11 14 18 56 22 104 24 138 7 18 -9 36 -16 41
-16 32 0 44 -74 15 -95 -8 -5 -17 -20 -21 -31 -9 -30 20 -40 36 -14 19 30 27
24 26 -20 -1 -61 35 -95 48 -44 5 18 0 32 -16 50 -13 13 -20 27 -16 31 4 4 11
1 17 -7 16 -24 -1 40 -21 80 -39 78 -204 121 -264 68z"/>
<path d="M2540 1545 c-9 -10 -9 -15 -1 -15 6 0 11 5 11 10 0 17 14 11 49 -20
29 -27 51 -32 51 -11 0 8 -76 51 -90 51 -4 0 -13 -7 -20 -15z"/>
<path d="M60 1544 c0 -11 21 -31 91 -89 25 -20 223 -75 274 -75 19 0 35 7 42
19 16 26 8 31 -55 31 -116 0 -312 65 -344 114 -6 8 -8 8 -8 0z"/>
<path d="M755 1518 c8 -27 22 -44 30 -37 7 7 -18 59 -28 59 -5 0 -5 -10 -2
-22z"/>
<path d="M2977 1533 c-11 -10 -8 -43 3 -43 6 0 10 4 10 9 0 5 3 16 6 25 6 16
-7 22 -19 9z"/>
<path d="M1004 1505 c-20 -27 -39 -34 -31 -10 5 10 -4 16 -29 21 -19 3 -38 4
-41 0 -4 -3 5 -6 18 -6 22 0 24 -4 25 -44 1 -44 1 -45 -45 -60 -25 -8 -48 -13
-50 -10 -2 2 10 22 28 44 47 58 21 49 -34 -12 -26 -29 -59 -58 -74 -65 l-26
-11 30 -1 c17 0 39 6 49 14 24 18 66 19 89 3 10 -8 22 -39 29 -75 13 -69 28
-74 28 -9 0 32 -6 48 -25 66 -14 13 -25 30 -25 39 0 12 3 12 12 3 16 -16 31
-15 25 2 -3 8 1 17 9 20 9 3 12 10 9 16 -3 5 -1 10 5 10 6 0 9 4 5 9 -3 5 0
16 7 23 38 40 50 58 41 58 -6 0 -19 -11 -29 -25z"/>
<path d="M2900 1510 c0 -5 11 -10 24 -10 14 0 28 5 31 10 4 6 -7 10 -24 10
-17 0 -31 -4 -31 -10z"/>
<path d="M2520 1497 c0 -14 20 -37 32 -37 13 0 9 20 -6 36 -18 17 -26 18 -26
1z"/>
<path d="M1595 1470 c-19 -21 -16 -24 38 -33 17 -3 27 0 27 8 0 14 143 -21
148 -36 2 -5 15 -6 28 -3 15 4 24 2 24 -5 0 -6 11 -11 25 -11 43 0 27 17 -32
34 -32 9 -78 23 -103 31 -25 8 -59 15 -77 15 -17 0 -35 5 -38 10 -9 15 -20 12
-40 -10z"/>
<path d="M2589 1481 c7 -5 10 -14 7 -20 -5 -7 2 -10 18 -9 33 3 33 16 0 28
-31 12 -44 13 -25 1z"/>
<path d="M1360 1472 c0 -4 18 -9 41 -11 26 -1 38 2 34 9 -7 12 -75 14 -75 2z"/>
<path d="M1470 1460 c0 -5 21 -10 46 -10 27 0 43 4 39 10 -3 6 -24 10 -46 10
-21 0 -39 -4 -39 -10z"/>
<path d="M2114 1443 c15 -38 54 -258 48 -265 -14 -14 -51 4 -59 28 l-8 25 -35
-36 c-18 -19 -29 -35 -23 -35 7 0 19 10 27 22 9 12 17 20 19 17 2 -2 20 -40
41 -83 l37 -80 -38 -34 c-21 -19 -31 -30 -23 -25 18 12 71 27 85 24 6 -1 4 3
-2 10 -7 7 -13 22 -13 34 0 12 -4 25 -9 30 -13 15 -24 75 -13 75 5 0 16 -17
25 -37 l16 -38 -5 45 c-5 43 -28 201 -39 264 -4 22 -2 27 10 22 9 -3 15 0 15
10 0 39 18 -2 30 -68 23 -130 68 -255 83 -230 9 13 -4 52 -16 52 -8 0 -8 3 0
11 6 6 9 18 6 26 -5 11 -8 12 -14 2 -11 -19 -27 52 -35 159 -4 50 -8 92 -10
92 -2 0 -15 -5 -29 -12 -19 -8 -31 -8 -51 1 -24 10 -26 10 -20 -6z"/>
<path d="M1425 1430 c-6 -9 104 -45 113 -36 3 3 2 6 -1 6 -3 0 -29 9 -56 20
-28 11 -53 15 -56 10z"/>
<path d="M1905 1430 c3 -5 10 -10 15 -10 5 0 21 -5 37 -11 15 -7 48 -14 73
-16 44 -3 43 -3 -25 22 -73 26 -110 32 -100 15z"/>
<path d="M2913 1408 c-16 -19 -26 -75 -15 -82 5 -3 15 15 21 40 13 49 10 63
-6 42z"/>
<path d="M1242 1393 c11 -14 10 -16 -9 -11 -13 4 -23 2 -23 -3 0 -4 17 -12 38
-17 20 -5 60 -15 87 -22 57 -14 167 -29 160 -21 -3 2 -33 12 -68 21 -34 10
-93 29 -130 43 -52 20 -65 22 -55 10z"/>
<path d="M235 1387 c3 -7 20 -18 37 -25 17 -6 29 -14 26 -17 -6 -7 -60 15 -69
28 -4 5 -10 4 -14 -3 -8 -13 14 -32 27 -24 4 3 8 0 8 -5 0 -6 11 -11 25 -11
14 0 53 -11 86 -25 33 -14 83 -27 112 -28 44 -2 52 1 55 18 2 15 1 17 -6 6
-12 -17 -93 -9 -144 15 -33 15 -33 15 29 9 64 -6 113 1 113 16 0 5 -28 9 -62
9 -69 1 -170 20 -205 39 -18 9 -22 9 -18 -2z"/>
<path d="M1013 1370 c-3 -11 -9 -18 -13 -15 -5 3 -11 1 -14 -4 -3 -5 2 -12 11
-15 18 -7 33 9 33 37 0 23 -11 22 -17 -3z"/>
<path d="M2960 1375 c0 -6 6 -17 13 -24 10 -11 9 -13 -5 -8 -10 4 -18 2 -18
-2 0 -5 -3 -17 -6 -25 -5 -13 -1 -15 17 -13 29 5 36 34 15 62 -9 11 -16 15
-16 10z"/>
<path d="M2600 1326 c-13 -35 -9 -40 15 -23 14 11 16 18 7 33 -10 18 -11 17
-22 -10z"/>
<path d="M750 1333 c-8 -3 -21 -11 -29 -17 -7 -6 -27 -9 -43 -7 -21 2 -28 -1
-23 -9 4 -6 15 -8 26 -5 33 11 21 -4 -23 -27 l-43 -22 44 -8 c34 -6 56 -19 93
-55 49 -48 59 -49 33 -3 -8 14 -14 19 -15 12 0 -8 -12 -2 -30 14 -21 20 -26
30 -17 36 9 6 9 12 0 27 -16 26 -8 30 61 32 57 2 58 2 112 -52 60 -59 70 -55
23 10 -42 59 -119 92 -169 74z"/>
<path d="M1106 1316 c6 -24 4 -28 -9 -23 -9 3 -18 -1 -21 -9 -3 -9 -1 -12 4
-9 6 3 10 1 10 -5 0 -6 5 -8 13 -4 9 6 9 5 0 -7 -9 -11 -8 -18 1 -32 17 -22
32 -22 44 0 7 12 3 29 -14 62 -31 57 -37 63 -28 27z"/>
<path d="M1846 1328 c2 -4 -5 -10 -17 -13 -14 -5 -18 -10 -11 -17 8 -8 16 -6
27 6 9 9 33 16 53 17 20 0 46 4 57 9 13 5 -3 8 -47 7 -36 -1 -64 -5 -62 -9z"/>
<path d="M2331 1339 c-3 -17 31 -108 44 -119 8 -7 15 -9 15 -4 -1 12 -58 131
-59 123z"/>
<path d="M990 1308 c0 -14 6 -31 14 -37 22 -18 26 20 4 43 -18 19 -18 19 -18
-6z"/>
<path d="M1723 1317 c9 -8 17 -18 17 -22 0 -7 -93 -1 -149 10 -14 2 -20 1 -15
-4 5 -4 34 -13 64 -19 44 -9 65 -8 105 3 28 7 47 14 44 14 -4 1 -24 8 -45 16
-30 12 -35 13 -21 2z"/>
<path d="M2310 1284 c1 -69 38 -165 81 -211 20 -21 76 -69 125 -108 75 -61
226 -188 276 -235 14 -14 7 -23 -74 -103 -85 -84 -102 -109 -61 -92 10 5 21 7
26 7 4 -1 6 1 6 5 -3 20 2 33 14 33 6 0 22 18 35 40 12 22 27 41 32 41 6 1 15
2 20 3 6 0 10 6 11 11 0 6 4 15 9 20 20 25 -7 85 -38 85 -13 0 -12 4 5 22 18
18 24 19 37 8 23 -18 20 4 -3 25 -20 17 -20 18 9 48 16 17 27 34 24 37 -8 7
-63 -62 -66 -84 -5 -32 -21 -28 -70 18 -25 24 -61 54 -80 66 -18 13 -42 32
-52 43 -19 20 -19 20 7 15 19 -4 27 -1 27 8 0 8 -9 14 -19 14 -11 0 -22 6 -24
13 -3 7 -6 5 -6 -5 -1 -10 -8 -18 -16 -18 -9 0 -12 6 -8 17 5 13 2 15 -12 10
-16 -7 -16 -5 -4 10 13 15 12 16 -9 11 -23 -6 -89 38 -139 93 -23 26 -43 89
-49 153 -5 57 -14 57 -14 0z"/>
<path d="M1200 1301 c0 -24 43 -34 160 -37 l95 -3 -44 16 c-32 11 -46 13 -49
5 -4 -14 -48 -16 -57 -2 -3 5 -11 7 -18 4 -7 -2 -30 2 -50 11 -20 8 -37 11
-37 6z"/>
<path d="M300 1281 c0 -5 9 -13 21 -16 12 -4 18 -13 15 -20 -3 -8 3 -16 12
-18 9 -3 3 -5 -15 -6 -17 0 -44 4 -59 9 -15 6 -29 8 -31 6 -9 -8 99 -36 166
-42 59 -6 64 -5 47 8 -10 8 -16 20 -12 26 10 17 39 15 33 -1 -3 -8 1 -14 9
-14 8 0 14 6 14 13 0 7 9 12 20 11 25 -2 26 -15 3 -33 -10 -7 -13 -14 -7 -14
17 0 45 36 39 51 -4 10 -27 14 -85 15 -47 1 -96 8 -120 18 -47 19 -50 19 -50
7z"/>
<path d="M2535 1283 c-11 -3 -24 -10 -30 -15 -7 -7 -3 -9 13 -5 28 7 86 -9
102 -28 9 -11 6 -19 -17 -42 l-30 -28 30 -30 c23 -23 27 -25 18 -8 -14 27 -14
34 3 56 13 16 17 16 72 -12 33 -16 75 -32 94 -35 26 -5 21 -1 -20 15 -34 13
-77 42 -112 75 -31 30 -61 54 -66 54 -6 0 -16 2 -24 4 -7 2 -22 1 -33 -1z"/>
<path d="M2725 1277 c-6 -7 -12 -27 -13 -44 -3 -25 0 -33 12 -33 18 0 18 0 20
53 2 39 -2 44 -19 24z"/>
<path d="M2920 1267 c0 -14 4 -16 16 -9 9 5 25 7 34 5 10 -3 20 0 24 5 3 6
-11 12 -34 14 -33 3 -40 1 -40 -15z"/>
<path d="M805 1273 c3 -7 1 -13 -4 -13 -6 0 5 -25 24 -55 34 -52 42 -86 29
-119 -3 -9 -12 -16 -20 -16 -7 0 -16 -16 -19 -37 -8 -51 -11 -65 -21 -87 -7
-19 -7 -19 19 0 26 18 39 42 15 28 -8 -5 -9 5 -5 35 6 48 11 56 26 46 15 -9
14 -42 -1 -48 -7 -2 -10 -8 -6 -12 4 -4 11 -4 17 0 13 8 15 149 2 173 -5 9 -5
26 -1 37 8 19 8 19 18 -5 7 -16 11 -19 11 -9 1 9 -6 22 -14 29 -8 7 -15 9 -15
4 0 -4 -14 7 -31 26 -17 19 -28 29 -24 23z"/>
<path d="M1029 1247 c-1 -7 -1 -34 -1 -61 1 -40 -2 -49 -18 -53 -11 -3 -20
-13 -20 -23 0 -9 -30 -50 -67 -91 -38 -41 -76 -86 -86 -99 l-18 -25 5 25 c4
23 2 21 -27 -13 -31 -36 -84 -77 -99 -77 -4 0 6 21 22 47 17 26 30 52 30 57 0
6 -14 -12 -30 -41 -16 -28 -40 -59 -52 -67 -25 -18 -78 -22 -78 -6 0 5 -6 7
-14 4 -8 -3 -30 1 -48 9 -18 9 -43 18 -56 22 -12 4 -20 10 -17 15 8 14 -55 44
-67 32 -15 -15 55 -66 132 -97 57 -23 79 -27 123 -22 100 10 206 87 293 211
52 75 62 84 84 79 14 -3 27 -7 29 -9 1 -1 16 -71 32 -155 16 -83 35 -177 43
-208 8 -31 17 -88 20 -128 5 -65 3 -77 -24 -135 -29 -62 -40 -115 -20 -103 6
3 10 12 10 20 0 8 10 40 22 72 21 57 22 57 29 28 14 -58 19 -111 9 -95 -5 8
-12 11 -16 8 -8 -9 14 -66 30 -76 13 -8 36 -97 36 -138 0 -14 4 -23 8 -20 10
6 -7 149 -18 156 -17 11 -28 47 -23 73 8 40 -65 487 -109 667 -27 111 -27 119
-4 122 28 4 33 47 8 78 -21 26 -51 35 -53 17z"/>
<path d="M633 1203 c16 -85 17 -121 2 -163 -19 -54 -73 -111 -126 -135 -46
-21 -46 -31 0 -12 43 18 118 91 142 139 16 32 18 45 9 76 -5 20 -10 51 -9 67
0 28 2 26 29 -25 21 -39 29 -67 28 -97 -1 -23 1 -45 5 -49 4 -4 7 16 7 45 0
60 -39 155 -72 172 -18 10 -20 8 -15 -18z"/>
<path d="M1441 1214 c-18 -8 -31 -18 -28 -21 4 -3 22 2 41 11 40 19 77 21 93
5 6 -6 17 -8 23 -4 9 6 9 10 -1 16 -21 13 -90 9 -128 -7z"/>
<path d="M2390 1193 c0 -6 7 -16 15 -23 8 -7 15 -18 15 -24 0 -6 12 -19 26
-29 21 -16 19 -11 -11 30 -46 60 -45 59 -45 46z"/>
<path d="M597 1163 c-8 -15 -17 -40 -20 -54 -4 -14 -18 -31 -32 -37 -14 -6
-25 -17 -25 -23 0 -13 15 -3 62 40 26 23 48 85 35 97 -3 3 -12 -7 -20 -23z"/>
<path d="M723 1180 c3 -8 11 -32 18 -52 12 -37 28 -51 30 -25 0 6 4 3 9 -8 8
-18 9 -18 9 6 1 16 -11 37 -35 60 -20 18 -34 27 -31 19z"/>
<path d="M910 1171 c0 -5 7 -11 15 -15 21 -8 19 -53 -2 -60 -13 -4 -18 -17
-19 -47 l0 -41 23 26 c17 20 23 39 23 75 0 26 5 52 12 59 9 9 9 12 0 12 -7 0
-12 -5 -12 -12 0 -9 -3 -9 -12 0 -14 14 -28 16 -28 3z"/>
<path d="M320 1156 c0 -5 3 -7 6 -4 3 4 20 0 37 -7 61 -24 78 -27 75 -13 -2 7
3 12 10 11 6 -2 12 2 12 7 0 6 9 10 20 10 14 0 20 -7 20 -22 0 -23 16 -15 22
11 2 12 -16 15 -99 16 -59 0 -103 -3 -103 -9z"/>
<path d="M1968 1123 c-10 -20 -16 -39 -14 -40 2 -2 18 14 36 37 27 34 29 40
13 40 -11 -1 -25 -15 -35 -37z"/>
<path d="M2211 1137 c-1 -22 47 -115 54 -105 0 2 16 23 35 48 19 25 25 37 14
27 -11 -9 -23 -14 -26 -11 -3 3 -5 -3 -4 -12 0 -10 -6 -20 -14 -21 -10 -2 -22
14 -37 49 -18 44 -22 48 -22 25z"/>
<path d="M2038 1125 c-31 -27 -35 -52 -13 -81 11 -15 14 -16 15 -3 0 8 -5 20
-11 26 -7 7 -2 20 17 42 33 39 28 47 -8 16z"/>
<path d="M1549 1099 c-16 -10 103 -18 121 -8 8 5 13 9 10 10 -19 5 -122 4
-131 -2z"/>
<path d="M2068 1084 c-13 -13 -14 -22 -6 -48 14 -40 13 -39 37 -27 27 15 47
51 28 51 -7 0 -20 -11 -27 -25 -10 -18 -16 -22 -21 -13 -5 8 1 23 16 38 14 15
25 29 25 33 0 13 -36 7 -52 -9z"/>
<path d="M117 1054 c4 -11 1 -15 -13 -12 -12 2 -18 -2 -16 -10 2 -9 -4 -11
-18 -7 -16 5 -20 3 -18 -9 2 -8 -6 -22 -17 -31 -29 -24 2 -7 59 32 26 18 53
33 58 33 5 0 6 5 3 10 -11 17 -45 12 -38 -6z"/>
<path d="M2197 1051 c7 -26 72 -103 82 -96 5 2 19 -16 31 -40 13 -25 27 -45
33 -45 5 0 4 7 -3 15 -6 8 -9 19 -5 25 5 7 19 -5 39 -32 17 -25 39 -52 49 -62
9 -10 17 -21 17 -26 0 -5 7 -7 15 -4 15 6 22 -11 8 -19 -5 -2 -2 -2 5 -1 11 3
16 -9 13 -28 0 -5 5 -8 13 -8 8 0 18 -9 21 -20 4 -11 10 -18 14 -16 12 8 73
-59 64 -69 -5 -4 -2 -5 5 -1 12 7 -43 88 -105 154 -14 15 -52 57 -84 94 -34
39 -61 63 -65 57 -4 -7 -20 4 -40 28 -22 24 -32 31 -28 18 5 -17 2 -16 -15 5
-11 14 -28 40 -38 58 -19 35 -34 43 -26 13z"/>
<path d="M1158 1053 c-21 -2 -38 -8 -38 -14 0 -14 52 -10 80 6 14 8 18 14 10
13 -8 -1 -32 -3 -52 -5z"/>
<path d="M1889 1041 c-27 -22 -23 -33 7 -25 11 3 20 14 21 25 2 24 1 24 -28 0z"/>
<path d="M2370 1016 c0 -15 137 -156 152 -156 5 0 38 -29 75 -65 64 -62 98
-81 91 -51 -3 15 -229 224 -285 264 -26 18 -33 20 -33 8z"/>
<path d="M2043 1000 c3 -11 1 -23 -4 -26 -5 -3 -2 -13 7 -22 15 -15 15 -16 -2
-22 -17 -6 -17 -7 1 -14 11 -4 22 -2 27 6 11 17 10 26 -4 65 -13 35 -34 46
-25 13z"/>
<path d="M1450 1002 c0 -4 -21 -21 -46 -37 -25 -16 -41 -31 -36 -33 12 -4 70
24 90 44 7 8 21 14 30 14 15 0 15 2 2 10 -18 12 -40 13 -40 2z"/>
<path d="M2950 939 c-17 -69 -7 -72 12 -4 8 30 12 55 8 55 -5 0 -13 -23 -20
-51z"/>
<path d="M1546 962 c-7 -11 52 -28 61 -18 9 8 2 13 -28 21 -15 4 -30 2 -33 -3z"/>
<path d="M2201 920 c-10 -23 -32 -51 -47 -61 -16 -10 -24 -19 -18 -19 6 0 23
9 38 21 25 20 37 14 15 -8 -6 -6 -9 -23 -6 -39 4 -29 4 -28 6 4 0 17 6 32 12
32 7 0 9 10 5 25 -4 16 0 34 10 50 9 14 14 28 11 32 -4 3 -15 -13 -26 -37z"/>
<path d="M1146 941 c-4 -5 -8 -31 -11 -58 -4 -44 -4 -45 5 -15 13 39 23 43 15
5 -5 -20 -4 -24 3 -13 6 8 13 32 17 53 6 30 4 37 -8 37 -9 0 -18 -4 -21 -9z"/>
<path d="M945 930 c4 -6 14 -10 24 -10 9 0 22 -5 28 -11 8 -8 17 -8 33 1 28
15 26 16 -38 23 -32 4 -50 2 -47 -3z"/>
<path d="M2247 913 c-4 -3 -7 -27 -6 -52 1 -42 2 -43 8 -15 11 42 20 56 34 47
7 -4 6 0 -2 10 -14 18 -24 21 -34 10z"/>
<path d="M2901 885 c39 -40 83 -54 93 -29 4 9 2 13 -5 8 -6 -4 -15 0 -20 7 -7
11 -9 10 -9 -5 0 -16 -7 -12 -35 17 -20 21 -41 37 -48 37 -6 0 4 -16 24 -35z"/>
<path d="M1760 903 c0 -5 5 -14 12 -21 18 -18 -24 -57 -78 -72 -56 -16 -66
-30 -20 -30 27 0 36 -4 36 -17 1 -11 9 -3 20 19 11 20 24 40 30 43 6 4 31 -6
57 -21 l46 -27 -7 24 c-4 13 -8 29 -10 36 -6 32 -22 22 -17 -10 1 -4 -8 -3
-18 3 -22 11 -19 36 7 57 12 10 12 12 -4 11 -11 0 -27 3 -36 7 -10 4 -18 3
-18 -2z"/>
<path d="M333 883 c-3 -10 -13 -27 -22 -38 -9 -11 -1 -6 18 10 l33 30 -21 -36
c-12 -20 -38 -54 -59 -76 -23 -26 -36 -48 -34 -62 2 -15 -5 -24 -30 -36 -19
-8 -23 -12 -9 -9 17 4 22 2 19 -7 -3 -8 -12 -13 -22 -11 -9 2 -16 -2 -16 -8 0
-5 5 -10 10 -10 6 0 10 -4 10 -10 0 -5 -9 -10 -19 -10 -11 0 -27 -10 -35 -21
-14 -21 -19 -21 -86 -12 -38 5 -67 6 -63 2 5 -4 37 -12 73 -17 61 -9 67 -8 94
15 16 13 31 21 34 18 4 -3 0 -10 -8 -15 -11 -7 -11 -10 -2 -10 10 0 10 -5 1
-21 -9 -17 -13 -19 -20 -8 -6 11 -11 11 -21 1 -9 -9 -9 -12 3 -13 7 0 22 -2
32 -4 9 -2 15 1 11 6 -3 5 2 9 10 9 10 0 13 -6 9 -17 -4 -13 -3 -15 5 -8 7 7
8 25 1 58 -8 44 -6 52 17 83 15 18 24 40 21 48 -3 8 4 21 16 29 26 17 73 100
81 140 5 31 -20 39 -31 10z"/>
<path d="M2046 869 c-23 -21 -40 -48 -45 -69 -5 -24 -12 -34 -23 -32 -9 1 -19
-2 -23 -8 -3 -5 3 -10 14 -10 12 0 21 -1 21 -2 0 -2 -9 -27 -20 -56 -11 -29
-20 -60 -20 -70 0 -10 -13 -59 -30 -109 -16 -50 -35 -121 -41 -158 -8 -42 -17
-64 -24 -61 -8 3 -11 -6 -8 -28 2 -20 -6 -50 -20 -79 -13 -25 -21 -44 -17 -42
4 3 10 -4 13 -16 6 -21 -19 -105 -33 -114 -4 -3 -26 1 -48 9 -37 13 -39 13
-35 -3 3 -13 16 -18 49 -20 40 -2 46 1 64 31 14 24 20 51 20 95 0 51 3 64 19
73 26 14 38 -6 17 -28 -10 -12 -12 -22 -6 -32 8 -13 10 -13 10 1 0 9 7 22 15
29 13 11 13 15 0 33 -19 27 -19 76 0 83 8 3 17 25 21 49 5 37 11 45 35 54 16
5 29 14 29 20 0 5 -12 4 -27 -4 -15 -8 -29 -12 -31 -10 -3 2 -1 24 2 49 8 49
26 72 27 34 1 -50 17 17 24 104 4 47 11 92 16 99 5 8 9 10 9 6 0 -5 7 -2 15 7
11 11 14 26 9 53 -7 44 9 93 30 93 8 0 18 5 22 12 5 7 2 9 -7 4 -8 -4 -6 -1 5
8 10 8 16 20 14 27 -3 8 -18 0 -42 -22z"/>
<path d="M2840 883 c0 -11 29 -51 30 -41 0 4 12 3 28 -2 l27 -10 -25 19 c-13
11 -28 17 -32 14 -5 -2 -7 1 -6 8 2 6 -3 14 -9 16 -7 3 -13 1 -13 -4z"/>
<path d="M1613 847 c-7 -14 -8 -29 -2 -38 6 -10 9 -10 9 -1 0 6 7 12 16 12 10
0 14 7 12 22 -4 30 -23 33 -35 5z"/>
<path d="M2090 852 c0 -6 9 -27 21 -46 12 -20 18 -36 14 -36 -3 0 1 -7 10 -16
30 -30 26 -7 -10 51 -19 33 -35 54 -35 47z"/>
<path d="M1010 841 c0 -18 12 -41 21 -41 15 0 10 37 -6 44 -8 3 -15 1 -15 -3z"/>
<path d="M1453 843 c-15 -5 -18 -53 -4 -53 15 0 29 25 22 41 -3 9 -12 14 -18
12z"/>
<path d="M863 712 c1 -119 -1 -133 -31 -216 -18 -49 -30 -91 -28 -93 7 -7 64
140 71 182 12 73 15 78 33 63 16 -12 16 -11 1 7 -10 12 -19 49 -24 97 -11 122
-23 100 -22 -40z"/>
<path d="M1942 816 c-32 -19 -34 -22 -18 -35 11 -10 18 -6 36 19 23 32 19 36
-18 16z"/>
<path d="M1755 782 c-11 -15 -20 -31 -20 -37 -1 -5 -7 -23 -15 -40 -10 -22
-14 -26 -17 -13 -2 9 -15 24 -29 32 -13 9 -24 24 -25 34 0 14 -2 14 -6 2 -3
-8 -13 -23 -21 -33 -9 -10 -17 -27 -19 -38 -3 -19 -2 -19 27 3 28 20 32 21 46
6 17 -17 11 -34 -33 -98 -10 -14 8 -2 39 26 44 40 66 52 100 57 23 3 45 4 47
1 2 -2 -10 -23 -28 -47 l-32 -42 39 43 c22 23 45 42 50 42 6 0 15 7 20 17 5 9
16 14 24 10 11 -4 14 1 11 16 -3 16 -12 22 -34 23 -26 1 -29 -2 -27 -25 2 -18
-2 -26 -12 -26 -9 0 -16 11 -18 30 -5 47 -19 50 -26 6 -7 -45 -26 -56 -26 -15
0 14 -4 23 -10 19 -5 -3 -10 0 -10 8 0 8 6 17 14 20 13 5 30 47 18 47 -4 0
-16 -13 -27 -28z"/>
<path d="M974 777 c-3 -9 -12 -17 -20 -17 -8 0 -14 -4 -14 -9 0 -15 59 -53 70
-46 12 8 2 55 -16 74 -11 13 -14 12 -20 -2z"/>
<path d="M380 767 c0 -2 21 -14 48 -27 26 -13 62 -39 79 -57 18 -18 41 -33 50
-32 16 0 16 1 -1 12 -11 7 -33 24 -50 38 -51 42 -126 81 -126 66z"/>
<path d="M1434 749 c-4 -6 1 -16 11 -21 15 -9 13 -12 -14 -29 -37 -22 -40 -39
-7 -39 33 0 49 23 41 59 -7 35 -20 47 -31 30z"/>
<path d="M1071 713 c-6 -20 -8 -39 -5 -42 9 -10 34 31 34 56 0 36 -18 27 -29
-14z"/>
<path d="M2663 696 c-24 -23 -43 -45 -43 -49 0 -16 22 -5 58 27 37 33 38 34
50 15 14 -21 32 -17 32 8 0 8 -9 17 -20 20 -11 3 -20 9 -20 14 0 17 -15 8 -57
-35z"/>
<path d="M1505 720 c-10 -16 26 -53 39 -40 7 7 4 17 -11 31 -14 15 -23 18 -28
9z"/>
<path d="M2292 725 c4 -4 2 -19 -3 -34 -8 -21 -8 -24 2 -13 7 6 21 12 31 12
17 0 57 -18 68 -31 8 -10 109 -19 114 -10 6 10 -62 81 -78 81 -6 0 6 -15 27
-32 20 -18 37 -36 37 -39 0 -4 -17 -3 -37 1 -20 5 -40 7 -44 4 -4 -2 -9 0 -11
4 -1 5 -28 21 -58 36 -30 15 -52 25 -48 21z"/>
<path d="M2871 678 c23 -29 46 -57 50 -62 4 -5 15 -1 24 8 16 16 10 21 -22 17
-8 -1 -10 5 -7 14 4 11 0 15 -16 15 -11 0 -18 5 -15 10 3 6 24 10 46 10 28 0
39 4 39 15 0 11 -5 12 -26 5 -36 -14 -63 -12 -80 5 -9 8 -20 15 -26 15 -5 0 9
-24 33 -52z"/>
<path d="M767 713 c-17 -17 -4 -53 29 -83 20 -17 38 -29 41 -26 9 9 -7 57 -17
51 -5 -3 -12 0 -16 6 -4 8 -3 9 4 5 16 -10 15 0 -4 29 -17 26 -26 30 -37 18z"/>
<path d="M1086 669 c-14 -17 -23 -36 -19 -42 7 -12 53 40 53 61 0 18 -6 15
-34 -19z"/>
<path d="M954 642 c-4 -26 -15 -66 -25 -90 -23 -54 -9 -48 15 7 13 28 23 38
35 34 15 -4 15 -4 0 9 -15 12 -15 16 -3 33 18 24 18 41 0 48 -11 5 -17 -6 -22
-41z"/>
<path d="M1016 628 c-4 -24 -9 -56 -10 -73 -2 -16 -15 -67 -30 -112 -16 -46
-29 -97 -30 -115 l-1 -33 47 3 c41 3 47 1 42 -13 -5 -12 -10 -13 -17 -6 -6 6
-15 11 -21 11 -6 0 -5 -5 1 -11 6 -6 9 -18 6 -26 -3 -8 0 -13 8 -11 19 4 70
71 61 80 -10 10 -62 12 -94 3 -32 -8 -33 -6 -16 29 8 20 14 23 24 15 10 -8 11
-5 2 19 -10 26 -8 36 20 86 36 62 39 76 17 76 -8 0 -15 2 -15 5 0 3 7 22 15
42 17 39 20 73 6 73 -4 0 -12 -19 -15 -42z"/>
<path d="M1332 650 c-12 -12 -22 -29 -22 -39 0 -10 -9 -26 -20 -36 -22 -20
-56 -102 -46 -112 3 -3 6 -1 6 6 0 7 16 40 35 72 19 33 35 67 35 75 0 13 13
19 35 14 6 -1 7 2 3 6 -4 4 -3 13 3 21 18 21 -5 15 -29 -7z"/>
<path d="M268 655 c-3 -4 -4 -22 -1 -41 3 -20 1 -40 -7 -49 -11 -13 -10 -14 2
-10 11 4 25 -7 44 -33 21 -29 40 -42 78 -54 46 -14 53 -14 69 0 9 8 17 20 17
26 0 6 -5 5 -12 -2 -47 -47 -155 34 -175 132 -5 21 -11 35 -15 31z"/>
<path d="M390 656 c0 -4 9 -24 20 -46 11 -22 20 -49 20 -61 0 -16 -11 -6 -41
39 -23 34 -48 62 -55 62 -36 0 -28 -56 13 -94 18 -17 30 -22 34 -14 10 15 29
0 29 -23 0 -12 7 -19 20 -19 29 0 36 43 15 90 -16 36 -55 83 -55 66z"/>
<path d="M1451 647 c-13 -16 -5 -27 21 -27 11 0 18 7 18 20 0 23 -22 27 -39 7z"/>
<path d="M1749 644 c-15 -7 -30 -21 -33 -30 -5 -14 -4 -15 8 -5 11 9 15 9 18
0 2 -6 12 0 22 16 22 33 19 37 -15 19z"/>
<path d="M1879 624 c-18 -20 -47 -42 -62 -51 -16 -8 -26 -17 -23 -20 8 -9 108
62 124 87 19 32 -1 24 -39 -16z"/>
<path d="M600 640 c0 -16 41 -93 46 -87 5 5 -35 97 -42 97 -2 0 -4 -5 -4 -10z"/>
<path d="M670 624 c-6 -14 -10 -36 -10 -48 0 -13 -13 -50 -30 -82 -16 -32 -30
-63 -29 -69 0 -5 9 8 21 30 11 22 27 44 34 48 8 4 14 14 14 22 0 7 3 15 8 17
9 4 42 75 42 91 0 24 -41 17 -50 -9z m28 -24 c-10 -30 -28 -50 -28 -31 0 20
20 61 29 61 6 0 6 -11 -1 -30z"/>
<path d="M1101 594 c-21 -57 -23 -76 -4 -52 10 14 34 100 29 105 -2 2 -13 -22
-25 -53z"/>
<path d="M1191 628 c0 -25 17 -70 18 -50 1 6 7 12 15 12 22 0 28 17 16 40 -15
28 -50 27 -49 -2z"/>
<path d="M1512 627 c-28 -29 -28 -39 0 -35 16 2 22 10 23 31 0 15 0 27 0 27
-1 0 -11 -10 -23 -23z"/>
<path d="M1571 617 c-35 -56 -27 -73 15 -31 32 32 35 38 22 51 -14 13 -18 11
-37 -20z"/>
<path d="M2365 630 c5 -16 3 -19 -12 -14 -17 5 -17 5 0 -9 21 -17 22 -27 2
-27 -9 0 -15 -9 -15 -21 0 -21 1 -20 21 5 11 14 18 30 15 35 -4 5 -1 11 6 13
14 5 3 38 -12 38 -7 0 -9 -8 -5 -20z"/>
<path d="M2800 632 c0 -10 22 -32 32 -32 15 0 8 28 -8 34 -21 8 -24 8 -24 -2z"/>
<path d="M2430 594 c0 -13 5 -24 10 -24 6 0 10 8 10 18 0 14 2 15 10 2 5 -8
12 -11 15 -8 10 10 -2 25 -25 31 -16 4 -20 0 -20 -19z"/>
<path d="M2544 603 c4 -12 2 -24 -3 -27 -15 -10 -41 -65 -27 -60 16 7 69 84
62 91 -3 4 -6 3 -6 -2 0 -4 -7 -1 -16 6 -15 12 -16 11 -10 -8z"/>
<path d="M1864 561 c-53 -53 -92 -111 -74 -111 6 0 0 -15 -13 -32 -14 -18 -31
-46 -40 -63 -14 -28 -77 -214 -77 -225 1 -15 22 36 49 121 35 109 75 169 132
201 21 12 39 26 39 31 0 5 -16 -1 -36 -13 -19 -12 -37 -20 -40 -18 -2 3 8 21
24 40 22 29 30 33 44 24 13 -8 21 -7 30 2 9 9 7 12 -10 12 -12 0 -22 5 -22 10
0 6 3 10 8 10 4 0 15 14 24 30 9 17 16 30 15 30 -2 0 -25 -22 -53 -49z"/>
<path d="M2047 598 c-2 -7 4 -35 14 -62 10 -27 16 -52 14 -56 -2 -4 2 -7 9 -7
10 0 11 8 5 31 -15 60 -21 76 -30 76 -5 0 -6 7 -3 15 4 8 4 15 1 15 -3 0 -7
-6 -10 -12z"/>
<path d="M2250 545 c0 -38 2 -66 4 -64 8 7 10 118 3 126 -4 3 -7 -24 -7 -62z"/>
<path d="M2762 597 c-10 -11 -7 -16 14 -26 35 -15 43 -6 18 20 -17 17 -22 18
-32 6z"/>
<path d="M2981 573 c0 -23 4 -45 9 -48 11 -7 11 16 0 60 -7 28 -8 28 -9 -12z"/>
<path d="M567 589 c-9 -6 -17 -18 -17 -28 0 -13 8 -18 30 -18 22 0 30 5 30 17
0 26 -22 40 -43 29z"/>
<path d="M764 562 c-9 -23 -20 -39 -25 -36 -5 3 -9 -6 -9 -20 0 -36 6 -33 31
17 12 23 27 45 33 49 8 5 8 10 -1 19 -9 9 -16 3 -29 -29z"/>
<path d="M2866 585 c-17 -13 -17 -15 -3 -21 23 -8 47 2 47 21 0 19 -19 19 -44
0z"/>
<path d="M1385 550 c-15 -16 -15 -22 -5 -35 26 -32 56 -12 46 31 -8 29 -17 30
-41 4z"/>
<path d="M952 518 c-7 -7 -12 -23 -12 -37 l1 -26 24 28 c14 15 25 32 25 38 0
13 -24 11 -38 -3z"/>
<path d="M2567 470 c-26 -28 -45 -55 -42 -60 3 -6 21 -9 38 -9 30 2 31 2 5 6
-29 4 -39 23 -13 23 8 0 15 4 15 9 0 5 12 16 26 26 26 17 27 16 51 -9 l24 -26
-33 -20 c-39 -23 -30 -27 12 -5 36 19 36 20 8 55 -13 15 -27 35 -33 44 -9 15
-16 10 -58 -34z"/>
<path d="M2813 498 c-22 -28 -21 -36 3 -59 18 -17 23 -19 18 -6 -3 9 -10 17
-15 17 -13 0 -11 34 3 48 7 7 9 12 6 12 -3 0 -10 -6 -15 -12z"/>
<path d="M2866 495 c-6 -17 20 -35 51 -35 4 0 2 -5 -4 -11 -8 -8 -17 -8 -34 1
-23 11 -23 10 -5 -4 25 -20 30 -20 46 -1 11 13 9 20 -10 40 -27 29 -36 31 -44
10z"/>
<path d="M1470 485 c-14 -17 -7 -43 15 -52 24 -8 39 12 31 41 -7 29 -27 34
-46 11z m40 -26 c0 -25 -33 -22 -38 4 -2 12 3 17 17 17 15 0 21 -6 21 -21z"/>
<path d="M2506 491 c-4 -6 -1 -18 8 -26 10 -11 17 -12 22 -4 3 6 0 18 -9 26
-10 10 -17 12 -21 4z"/>
<path d="M2376 459 c-3 -17 -5 -43 -5 -58 1 -14 5 -2 10 28 10 58 6 83 -5 30z"/>
<path d="M1747 473 c-4 -3 -7 -13 -7 -21 0 -32 -44 -101 -72 -113 -15 -6 -42
-27 -58 -46 -17 -18 -30 -30 -30 -26 -1 15 -42 -70 -61 -125 -22 -63 -22 -65
-10 -58 4 3 14 26 21 51 7 24 16 42 20 40 5 -3 6 5 3 17 -3 16 -2 19 5 10 7
-10 12 -5 23 20 14 35 75 108 90 108 13 0 11 -17 -4 -32 -12 -11 -25 -42 -52
-123 -3 -11 3 -4 14 15 11 19 20 43 21 53 0 19 16 23 22 5 2 -6 12 18 22 55
11 40 30 80 50 104 18 21 30 46 28 56 -4 18 -14 22 -25 10z"/>
<path d="M1329 438 c-12 -18 -16 -27 -9 -21 11 10 17 10 31 -3 16 -14 18 -14
29 6 28 52 -17 68 -51 18z"/>
<path d="M109 449 c-8 -4 -25 -6 -39 -4 -19 4 -17 2 9 -10 36 -17 72 -17 78 1
5 15 -31 24 -48 13z"/>
<path d="M680 434 c-15 -38 -12 -42 10 -14 22 28 25 40 10 40 -6 0 -15 -12
-20 -26z"/>
<path d="M2430 453 c0 -10 42 -43 55 -43 3 0 5 7 5 16 0 8 -5 12 -11 9 -5 -4
-19 1 -30 11 -10 9 -19 12 -19 7z"/>
<path d="M447 433 c-4 -3 -27 -5 -52 -5 -33 2 -47 -2 -51 -13 -4 -8 -12 -15
-20 -15 -8 0 -14 -5 -14 -11 0 -6 -8 -9 -19 -6 -15 4 -18 -1 -16 -24 3 -43 14
-47 27 -11 8 21 19 32 33 32 11 0 39 9 61 19 l42 19 7 -57 c3 -31 10 -65 15
-76 5 -12 6 4 2 40 -3 33 -6 72 -7 88 0 15 0 27 -1 27 0 0 -4 -3 -7 -7z"/>
<path d="M707 403 c-21 -50 -32 -117 -18 -108 6 3 11 12 11 18 0 7 9 23 20 37
19 25 28 90 12 90 -5 0 -16 -17 -25 -37z"/>
<path d="M1222 431 c-15 -9 -6 -39 20 -64 19 -19 19 -18 12 20 -8 45 -15 55
-32 44z"/>
<path d="M606 399 c-30 -35 -38 -103 -11 -92 9 3 22 18 31 34 8 16 22 29 30
29 11 0 14 6 10 16 -3 9 -6 22 -6 30 0 24 -27 16 -54 -17z"/>
<path d="M840 398 c-10 -17 -22 -49 -25 -70 -4 -22 -12 -41 -19 -44 -6 -2 -12
-18 -12 -34 -1 -16 2 -27 7 -24 5 3 6 -10 3 -28 l-6 -33 25 30 c13 16 23 35
20 41 -2 7 12 47 32 89 20 43 34 84 31 91 -9 24 -36 15 -56 -18z"/>
<path d="M922 418 c-7 -7 -12 -18 -12 -25 0 -18 29 -16 37 3 8 21 -10 37 -25
22z"/>
<path d="M2936 405 c-20 -30 -20 -31 0 -39 13 -5 15 -2 11 14 -5 21 16 29 28
10 3 -5 1 -10 -6 -10 -7 0 -9 -3 -6 -6 4 -4 14 -1 22 6 14 12 14 15 -4 31 -25
24 -26 24 -45 -6z"/>
<path d="M522 394 c-22 -15 -31 -54 -12 -54 13 0 50 37 50 49 0 18 -17 20 -38
5z"/>
<path d="M2030 381 c0 -15 39 -29 62 -23 27 7 29 17 5 18 -12 1 -32 5 -44 9
-15 5 -23 3 -23 -4z"/>
<path d="M1437 368 c-3 -7 -12 -30 -21 -50 -19 -44 -14 -50 9 -10 l16 27 -6
-28 c-3 -17 0 -36 9 -48 14 -21 15 -21 31 11 17 33 17 66 0 63 -6 -1 -13 -12
-17 -25 -4 -13 -5 -2 -2 25 5 43 -7 65 -19 35z"/>
<path d="M1606 373 c-4 -5 -13 -8 -19 -8 -7 0 -13 -10 -15 -22 -2 -13 1 -23 6
-23 10 0 52 43 52 53 0 9 -15 9 -24 0z"/>
<path d="M2276 355 c4 -16 11 -40 15 -53 5 -13 9 -35 9 -50 0 -19 3 -23 11
-15 8 8 7 26 -5 65 -18 61 -41 102 -30 53z"/>
<path d="M138 334 c10 -22 22 -63 25 -92 5 -45 44 -138 54 -129 1 2 0 27 -4
55 -4 38 -10 52 -22 53 -10 0 -12 2 -4 6 24 9 -7 99 -44 127 l-24 18 19 -38z"/>
<path d="M732 331 c-37 -46 -38 -51 -14 -51 28 0 49 22 57 58 9 43 -5 41 -43
-7z"/>
<path d="M21 351 c-21 -6 -22 -8 -8 -19 12 -10 21 -11 36 -2 23 12 28 31 9 29
-7 -1 -24 -4 -37 -8z"/>
<path d="M356 328 c-32 -46 -7 -91 39 -70 20 9 25 19 25 47 0 43 -10 44 -33 5
-10 -16 -22 -30 -28 -30 -13 0 -11 12 7 38 9 13 14 26 11 28 -3 3 -12 -5 -21
-18z"/>
<path d="M2346 308 c-20 -39 -20 -37 3 -31 13 3 18 10 14 21 -4 10 -2 13 5 8
8 -5 12 0 12 13 0 31 -16 25 -34 -11z"/>
<path d="M230 305 c0 -13 -6 -26 -12 -28 -9 -4 -8 -6 2 -6 9 -1 21 4 27 10 8
8 17 6 35 -11 12 -12 37 -29 53 -37 42 -22 200 -138 259 -190 26 -24 55 -43
64 -43 25 0 -76 98 -128 125 -42 21 -115 68 -217 140 -23 17 -42 35 -43 41 0
7 -9 14 -20 17 -16 4 -20 0 -20 -18z"/>
<path d="M877 323 c-12 -11 -8 -23 8 -23 20 0 19 -19 -2 -42 -9 -10 -14 -20
-11 -23 3 -3 13 6 22 21 24 36 9 94 -17 67z"/>
<path d="M0 293 c0 -6 13 -47 30 -89 16 -43 33 -94 36 -114 13 -70 45 -98 43
-37 0 26 -2 29 -9 12 -8 -20 -8 -20 -16 -1 -5 13 -3 21 5 24 9 3 9 8 -2 21 -7
9 -26 50 -41 91 -27 77 -46 114 -46 93z"/>
<path d="M2435 263 c-3 -13 -10 -21 -15 -18 -4 3 -15 -8 -23 -25 -17 -34 -9
-41 11 -10 10 16 16 18 32 10 10 -5 32 -10 49 -10 20 0 35 -7 43 -20 15 -24
28 -26 28 -5 0 8 7 15 16 15 10 0 14 -6 10 -15 -6 -17 9 -21 19 -4 5 7 30 8
74 3 96 -10 71 2 -33 15 -88 12 -124 24 -138 45 -5 7 -8 4 -8 -6 0 -12 -8 -18
-24 -18 -32 0 -42 17 -22 39 20 22 20 28 2 28 -8 0 -17 -11 -21 -24z"/>
<path d="M931 246 c-32 -33 -32 -34 -11 -41 26 -8 21 -29 -8 -33 -15 -2 -22
-10 -22 -24 0 -21 0 -21 25 2 23 22 25 22 26 4 0 -17 1 -17 9 3 8 19 21 123
16 123 -1 0 -17 -15 -35 -34z"/>
<path d="M1120 262 c0 -11 9 -27 20 -37 19 -17 20 -17 21 1 0 12 4 8 10 -11 5
-16 6 -38 3 -47 -3 -10 0 -26 6 -35 8 -15 9 -12 4 12 -4 23 -3 26 5 15 14 -20
14 -1 -1 41 -11 34 -46 78 -60 79 -5 0 -8 -8 -8 -18z"/>
<path d="M524 255 c-8 -21 3 -34 25 -28 13 3 17 11 14 24 -6 22 -31 25 -39 4z"/>
<path d="M1045 234 c-8 -21 -18 -49 -22 -63 -3 -14 -13 -34 -21 -43 -8 -10
-10 -18 -5 -18 6 0 16 -14 23 -30 7 -17 15 -29 17 -26 3 2 -2 17 -10 32 -14
26 -12 32 21 96 26 50 33 71 25 79 -9 9 -16 2 -28 -27z"/>
<path d="M423 243 c-24 -9 -14 -33 13 -33 18 0 25 5 22 17 -3 18 -16 24 -35
16z"/>
<path d="M1328 242 c-27 -3 -56 -28 -45 -38 3 -3 17 2 31 12 15 9 29 14 32 11
8 -7 -78 -62 -91 -58 -5 1 -7 -1 -3 -5 9 -8 -71 -94 -87 -94 -5 0 -18 -14 -28
-31 -11 -20 -23 -29 -32 -25 -8 3 -17 1 -20 -4 -4 -6 3 -10 15 -10 18 0 107
75 274 231 22 20 26 19 -46 11z"/>
<path d="M1476 210 c-19 -47 -21 -73 -5 -50 8 11 9 6 4 -20 -3 -19 -8 -60 -10
-90 l-4 -55 9 45 c11 51 30 203 25 208 -1 2 -10 -15 -19 -38z"/>
<path d="M733 229 c-25 -9 -30 -28 -11 -47 12 -12 12 -11 -37 -27 -10 -3 -19
4 -24 17 -7 20 -8 20 -29 -7 -34 -43 -25 -89 10 -52 6 8 22 12 34 9 29 -5 60
26 73 74 6 21 9 39 8 40 -1 1 -12 -2 -24 -7z"/>
<path d="M496 195 c3 -11 17 -31 30 -44 23 -24 24 -24 44 -6 12 10 20 28 18
39 -2 17 -12 22 -51 26 -44 6 -47 5 -41 -15z"/>
<path d="M1098 143 c-21 -24 -38 -54 -38 -66 1 -18 3 -16 14 9 8 18 20 36 28
40 14 9 42 54 36 59 -2 1 -20 -18 -40 -42z"/>
<path d="M2380 160 c-11 -11 -20 -32 -20 -47 0 -31 1 -30 29 25 24 46 21 52
-9 22z"/>
<path d="M2783 173 c20 -2 54 -2 75 0 20 2 3 4 -38 4 -41 0 -58 -2 -37 -4z"/>
<path d="M1340 160 c0 -5 4 -9 9 -7 5 1 17 -7 27 -18 25 -26 44 -29 44 -7 0 9
-12 23 -27 30 -33 15 -53 16 -53 2z"/>
<path d="M320 142 c0 -5 8 -19 18 -30 23 -27 153 -58 137 -32 -3 5 -12 7 -20
3 -14 -5 -19 6 -16 34 1 6 -4 15 -10 19 -9 5 -10 2 -6 -9 9 -25 -44 -22 -77 4
-14 11 -26 16 -26 11z"/>
<path d="M2551 133 c-8 -16 -41 -120 -41 -130 0 -2 4 -2 8 1 5 3 17 32 27 65
18 60 18 60 62 67 62 9 178 -3 215 -22 18 -9 57 -40 87 -68 51 -46 49 -39 -4
21 -11 12 -46 36 -79 52 -54 29 -65 31 -162 31 -88 0 -105 -3 -113 -17z"/>
<path d="M20 113 c0 -30 37 -119 45 -111 3 3 -2 24 -10 48 -8 23 -15 53 -15
66 0 13 -4 24 -10 24 -5 0 -10 -12 -10 -27z"/>
<path d="M235 119 c-4 -11 -4 -23 0 -27 7 -7 25 17 25 36 0 20 -18 14 -25 -9z"/>
<path d="M1563 133 c-18 -7 -16 -30 3 -37 48 -18 93 5 59 31 -19 13 -40 16
-62 6z"/>
<path d="M1767 125 c-15 -14 -25 -65 -13 -65 3 0 16 11 30 23 22 21 24 26 13
42 -13 16 -14 16 -30 0z"/>
<path d="M774 95 c-19 -29 -12 -45 9 -24 18 19 29 49 17 49 -5 0 -17 -11 -26
-25z"/>
<path d="M290 105 c0 -3 4 -13 9 -23 5 -9 16 -32 23 -49 7 -18 16 -33 20 -33
8 0 0 28 -12 45 -4 6 -10 22 -14 38 -3 15 -11 27 -16 27 -6 0 -10 -2 -10 -5z"/>
<path d="M841 59 c-15 -68 -7 -75 9 -9 7 28 10 53 7 56 -3 3 -10 -18 -16 -47z"/>
<path d="M1280 100 c-8 -5 -14 -21 -15 -37 0 -17 -5 -27 -12 -26 -17 4 -16 -5
2 -23 12 -13 15 -12 24 3 10 19 26 93 20 93 -2 0 -11 -4 -19 -10z"/>
<path d="M718 38 c-32 -23 -36 -38 -9 -38 23 0 44 24 39 44 -2 12 -8 11 -30
-6z"/>
<path d="M2440 20 c-8 -5 -11 -13 -6 -17 5 -4 11 -2 13 4 3 9 14 11 30 7 18
-5 24 -3 19 5 -9 13 -35 14 -56 1z"/>
</g>
</svg>
