<?xml version="1.0" standalone="no"?>
<!DOCTYPE svg PUBLIC "-//W3C//DTD SVG 20010904//EN"
 "http://www.w3.org/TR/2001/REC-SVG-20010904/DTD/svg10.dtd">
<svg version="1.0" xmlns="http://www.w3.org/2000/svg"
 width="300.000000pt" height="300.000000pt" viewBox="0 0 300.000000 300.000000"
 preserveAspectRatio="xMidYMid meet">
<metadata>
Created by potrace 1.10, written by Peter Selinger 2001-2011
</metadata>
<g transform="translate(0.000000,300.000000) scale(0.100000,-0.100000)"
fill="#000000" stroke="none">
<path d="M608 2953 c-3 -27 2 -78 10 -115 12 -53 13 -75 4 -105 -6 -21 -14
-49 -18 -62 -4 -17 -8 -20 -14 -11 -10 15 -18 -94 -9 -118 9 -25 19 -180 10
-158 -7 18 -8 18 -14 3 -4 -10 -2 -17 4 -17 7 0 4 -11 -5 -27 l-17 -28 24 29
c18 20 26 25 30 15 3 -8 3 0 0 17 -3 22 -1 33 11 37 14 5 14 11 1 54 -13 41
-13 93 0 130 2 7 0 15 -5 18 -14 9 1 68 22 86 10 9 18 23 18 30 0 11 -2 11
-11 -1 -7 -11 -9 -6 -4 20 4 19 9 43 11 53 3 9 0 17 -6 17 -7 0 -9 8 -5 20 3
10 1 29 -5 40 -19 36 -20 63 -3 75 19 14 11 45 -11 45 -9 0 -15 -15 -18 -47z"/>
<path d="M726 2991 c-8 -19 19 -126 32 -124 7 2 10 -8 8 -27 -2 -16 1 -27 5
-24 5 3 9 19 9 36 0 22 -4 29 -15 25 -11 -5 -14 5 -12 57 1 46 -2 63 -11 63
-7 0 -14 -3 -16 -6z"/>
<path d="M2250 2980 c0 -11 5 -20 11 -20 6 0 8 -7 4 -17 -4 -13 -3 -15 5 -7
12 12 3 64 -11 64 -5 0 -9 -9 -9 -20z"/>
<path d="M2356 2975 c-9 -14 -13 -25 -8 -25 4 0 7 -58 6 -130 0 -71 2 -130 6
-130 4 0 8 -6 7 -12 -1 -36 4 -49 16 -42 10 6 10 4 0 -7 -7 -7 -13 -20 -13
-29 0 -13 2 -13 10 0 6 9 8 -19 7 -82 -1 -53 -5 -94 -9 -91 -10 5 -10 -19 -2
-41 3 -9 11 -13 16 -10 6 4 8 -2 3 -15 -3 -11 -2 -21 3 -21 11 0 10 -3 17 159
4 108 9 139 23 155 16 20 16 20 0 7 -28 -21 -42 -7 -56 55 -10 44 -10 71 -2
109 14 64 13 61 12 123 -2 58 -11 65 -36 27z"/>
<path d="M2227 2950 c-3 -25 -2 -49 2 -53 13 -13 21 35 12 68 -7 29 -8 29 -14
-15z"/>
<path d="M2171 2823 c-8 -21 -23 -51 -33 -66 -11 -16 -17 -31 -13 -35 9 -10
55 45 55 67 0 9 5 22 11 28 7 7 8 17 2 27 -7 13 -12 9 -22 -21z"/>
<path d="M1313 2755 c0 -38 2 -53 4 -32 2 20 2 52 0 70 -2 17 -4 1 -4 -38z"/>
<path d="M807 2780 c5 -34 47 -90 58 -78 3 3 -4 21 -17 41 -13 19 -28 43 -35
53 -10 16 -11 14 -6 -16z"/>
<path d="M2661 2769 c-1 -15 13 -53 29 -85 28 -53 38 -81 60 -174 5 -23 7 -2
4 65 l-3 100 19 -39 c11 -21 24 -44 30 -51 13 -16 15 -49 5 -105 -4 -25 -8
-67 -9 -95 -1 -27 -5 -56 -10 -64 -7 -10 -6 -12 4 -6 8 5 11 3 8 -5 -2 -7 -13
-15 -24 -16 -61 -9 -86 -17 -125 -44 -39 -25 -78 -40 -116 -42 -7 -1 -13 -5
-13 -10 0 -5 -4 -7 -9 -3 -5 3 -12 2 -15 -3 -3 -5 -21 -7 -41 -6 -45 4 -37
-11 11 -20 25 -5 43 -3 59 8 37 24 48 20 43 -14 -5 -33 8 -28 14 5 2 11 16 26
31 33 15 7 27 17 27 23 0 14 30 11 30 -3 1 -7 7 -2 14 12 11 19 25 26 61 31
42 5 48 3 66 -23 20 -27 20 -28 -1 -129 -11 -57 -27 -110 -35 -119 -8 -9 -15
-25 -15 -36 0 -29 -12 -42 -54 -59 -43 -18 -126 -18 -126 1 0 18 -28 25 -34 8
-4 -10 -2 -12 6 -8 7 5 9 2 5 -9 -4 -11 3 -21 26 -32 40 -20 81 -29 73 -16 -4
6 3 15 15 22 19 10 25 9 36 -7 7 -10 13 -13 13 -8 0 6 -6 16 -12 23 -11 11
-10 13 5 8 21 -8 49 2 41 14 -3 5 0 9 5 9 19 0 12 -15 -18 -44 -16 -16 -34
-25 -39 -22 -6 4 -14 1 -18 -5 -5 -8 -2 -10 7 -5 8 4 6 1 -3 -7 -10 -8 -15
-17 -11 -20 3 -4 1 -7 -5 -7 -7 0 -12 -7 -12 -16 0 -9 -5 -12 -12 -8 -10 6
-10 4 -2 -7 8 -10 9 -35 3 -83 -9 -71 -19 -99 -19 -53 0 20 -4 25 -16 20 -11
-4 -15 -1 -12 13 2 13 -2 18 -14 16 -11 -2 -18 3 -18 13 0 8 -4 14 -9 12 -5
-1 -9 3 -9 8 -1 6 7 9 16 7 14 -2 14 -1 3 7 -10 6 -22 5 -36 -5 -23 -15 -55
-10 -55 9 0 5 -8 3 -18 -6 -15 -13 -21 -14 -32 -4 -12 10 -12 9 -1 -5 7 -10
10 -18 5 -18 -4 0 1 -6 11 -14 17 -12 21 -12 30 0 13 17 74 1 105 -28 19 -18
28 -68 12 -68 -5 0 -23 -12 -41 -27 -19 -16 -43 -28 -55 -28 -11 0 -20 -5 -19
-12 2 -8 -4 -10 -14 -6 -11 4 -13 8 -5 11 7 2 12 8 12 13 0 15 -22 10 -36 -8
-7 -10 -14 -13 -14 -6 0 17 -39 3 -51 -19 -5 -10 -15 -16 -21 -12 -6 4 -9 1
-6 -7 3 -8 1 -22 -4 -31 -6 -12 -5 -18 3 -18 6 0 9 -7 6 -15 -4 -8 -2 -17 3
-20 16 -10 12 -35 -5 -35 -14 0 -19 -12 -16 -32 0 -5 -5 -8 -12 -8 -8 0 -7 -4
3 -10 13 -8 12 -10 -4 -10 -12 0 -16 -5 -12 -16 3 -9 6 -18 6 -20 0 -3 5 -2
11 2 8 4 7 9 -2 15 -10 6 -9 9 7 9 17 0 20 5 17 24 -3 13 1 27 8 31 9 6 10 3
5 -11 -4 -10 -4 -15 0 -12 3 4 22 1 41 -7 21 -9 50 -12 76 -9 56 8 134 -25
141 -58 14 -67 14 -88 -1 -148 -19 -81 -40 -123 -58 -117 -9 4 -11 -1 -8 -14
3 -10 -2 -31 -12 -45 -9 -14 -14 -28 -11 -31 2 -3 1 -16 -4 -29 -6 -15 -6 -24
0 -24 6 0 10 8 10 19 0 10 7 24 15 31 10 9 15 9 15 1 0 -6 4 -11 8 -11 5 0 9
15 9 33 0 17 24 99 52 181 28 81 51 161 51 176 0 43 59 203 86 231 32 34 30
41 -7 22 -26 -13 -33 -13 -40 -2 -6 9 -9 -3 -9 -34 0 -46 -31 -123 -44 -110
-3 3 -6 -5 -6 -19 0 -52 -37 -57 -170 -24 -21 5 -22 5 -5 -3 19 -9 19 -10 -2
-10 -12 -1 -23 5 -26 12 -2 7 -21 12 -46 12 l-42 0 -5 67 c-3 60 -2 69 16 78
12 6 31 8 43 4 33 -10 66 -46 59 -63 -5 -13 -4 -13 10 -1 13 13 13 16 -5 31
-20 15 -20 16 -1 14 11 0 25 -5 32 -9 8 -5 18 -2 25 7 7 7 30 27 51 43 21 16
45 42 53 59 11 23 13 24 9 7 -2 -13 -2 -21 1 -18 3 3 14 -5 24 -17 22 -26 25
-16 5 16 -19 28 -27 75 -16 82 5 3 7 19 3 36 -8 43 22 115 58 136 16 10 31 25
34 34 8 23 34 32 41 14 4 -8 10 -12 15 -9 15 9 10 33 -11 54 -19 19 -19 20 0
117 11 54 24 118 30 143 8 36 7 60 -6 115 -11 50 -14 92 -10 145 4 41 6 88 6
103 0 16 4 26 9 23 5 -3 15 2 22 11 12 14 11 15 -7 9 -18 -6 -25 1 -48 47 -31
63 -30 61 -11 81 9 9 11 17 5 21 -5 3 -15 -5 -21 -18 -11 -24 -11 -24 -47 -7
-24 12 -42 31 -53 56 -16 36 -18 37 -18 13z m-12 -1516 c-1 -10 -5 -29 -9 -43
-7 -21 -8 -17 -7 18 0 23 4 42 9 42 4 0 8 -8 7 -17z"/>
<path d="M315 2745 c-9 -24 -24 -39 -45 -46 -17 -6 -28 -16 -24 -22 3 -7 -8 4
-25 23 -31 36 -43 31 -16 -6 13 -19 12 -25 -5 -59 -10 -20 -18 -49 -16 -64 2
-14 1 -18 -1 -8 -2 9 -11 17 -19 17 -17 0 -19 -17 -3 -22 9 -3 9 -10 0 -27 -9
-16 -9 -26 -2 -35 22 -26 25 -134 6 -217 -14 -61 -16 -84 -7 -102 6 -12 20
-74 32 -137 20 -115 20 -115 0 -129 -24 -16 -28 -56 -5 -47 8 3 15 1 15 -4 0
-6 6 -10 13 -10 8 0 22 -9 32 -20 10 -11 23 -20 29 -20 6 0 21 -15 34 -33 l23
-32 -5 30 c-2 17 -5 32 -6 35 -1 3 -2 8 -1 12 0 4 -6 5 -15 1 -9 -3 -14 0 -12
8 2 8 -2 13 -9 12 -7 -2 -24 8 -39 22 -15 14 -31 22 -37 18 -5 -3 -8 0 -5 7 7
21 38 20 59 -1 10 -10 19 -16 19 -12 0 4 7 -2 16 -13 8 -10 12 -13 8 -5 -6 11
-3 13 12 7 10 -5 25 -9 31 -9 9 0 10 -4 2 -14 -9 -10 -5 -11 22 -1 19 6 44 18
57 26 12 8 22 10 22 4 0 -5 10 -12 21 -15 15 -4 20 -11 15 -23 -5 -14 -4 -15
9 -4 13 11 11 16 -17 36 -17 13 -36 24 -40 24 -5 0 -4 9 2 21 7 11 9 27 6 35
-8 21 4 43 20 37 9 -3 13 -12 10 -20 -3 -8 -2 -12 3 -9 4 3 16 -3 26 -14 13
-14 27 -18 51 -15 20 2 37 -1 44 -11 7 -7 17 -14 22 -14 5 0 0 10 -11 22 -11
11 -18 25 -15 30 3 4 1 8 -5 8 -5 0 -12 -4 -15 -9 -5 -7 -28 -8 -58 -2 -3 0
-22 27 -42 59 -32 52 -35 54 -36 29 0 -26 -2 -28 -29 -22 -17 3 -32 2 -36 -4
-3 -7 2 -11 14 -11 20 0 31 -22 37 -68 3 -27 -38 -52 -86 -52 -38 0 -100 47
-100 75 0 11 -7 31 -16 44 -10 13 -19 40 -21 60 -2 20 -7 59 -13 86 -18 97 -7
116 65 120 44 3 53 -1 82 -30 18 -18 33 -29 33 -24 0 17 41 -11 50 -34 5 -12
9 -16 9 -9 1 14 31 17 31 3 0 -5 7 -12 16 -15 8 -3 12 -2 9 4 -5 9 28 14 73
13 6 -1 12 4 12 10 0 6 11 0 25 -13 13 -12 22 -27 19 -31 -5 -9 56 -89 69 -89
4 0 7 7 7 15 0 8 -7 15 -15 15 -17 0 -37 34 -27 45 4 5 1 5 -5 1 -9 -5 -13 -1
-13 11 0 42 -23 55 -91 55 -35 0 -76 6 -90 14 -15 7 -29 10 -33 7 -3 -4 -6 0
-6 7 0 7 -3 10 -6 7 -4 -4 -16 4 -28 18 -26 30 -65 45 -117 45 -30 0 -38 3
-33 13 6 9 4 9 -8 -1 -15 -12 -16 -4 -14 78 1 51 -2 94 -6 96 -21 13 9 121 46
168 l24 28 0 -26 c0 -15 -4 -29 -9 -31 -4 -3 -11 -30 -14 -60 -4 -30 -10 -55
-14 -55 -3 0 -6 -13 -6 -29 0 -16 3 -27 6 -25 3 1 12 -12 19 -31 8 -19 18 -35
22 -35 5 0 7 -4 4 -9 -3 -5 1 -11 9 -14 12 -5 12 -2 2 21 -6 15 -14 29 -18 32
-20 17 -25 68 -13 118 8 30 11 59 7 64 -3 7 -1 8 5 4 7 -4 12 0 12 10 0 9 11
36 24 58 22 39 43 116 32 116 -3 0 -12 -16 -21 -35z"/>
<path d="M746 2755 c-3 -9 0 -15 9 -15 8 0 21 -10 29 -22 9 -12 16 -17 16 -11
0 7 -11 24 -24 38 -19 21 -25 23 -30 10z"/>
<path d="M707 2753 c-4 -3 -7 -17 -7 -30 0 -12 -3 -23 -7 -23 -5 0 -8 -27 -8
-59 0 -33 -2 -59 -5 -59 -25 2 -27 -4 -16 -41 16 -55 24 -59 21 -11 -2 29 1
38 8 31 15 -15 32 -14 20 2 -12 15 -4 177 8 177 5 0 9 5 9 10 0 11 -13 13 -23
3z"/>
<path d="M2220 2742 c-18 -6 -50 -45 -44 -53 2 -4 18 6 35 22 32 30 35 40 9
31z"/>
<path d="M1170 2711 c0 -5 6 -16 13 -23 7 -7 19 -22 26 -33 11 -19 11 -18 5 5
-7 25 -44 69 -44 51z"/>
<path d="M2276 2690 c-8 -41 3 -72 23 -65 13 5 14 4 4 -6 -15 -15 -17 -33 -3
-24 11 7 14 -34 4 -59 -5 -12 -10 -13 -25 -6 -16 9 -15 5 6 -26 13 -20 27 -51
31 -70 3 -19 10 -34 15 -34 5 0 6 7 3 15 -4 8 -7 66 -8 127 -1 81 -4 112 -13
111 -6 -2 -11 6 -10 16 1 11 7 17 14 14 9 -3 13 3 12 18 0 13 -3 18 -6 12 -2
-7 -9 -13 -14 -13 -6 0 -8 4 -5 8 3 5 -1 9 -9 9 -7 0 -16 -12 -19 -27z"/>
<path d="M2167 2663 c-12 -12 -7 -33 13 -53 23 -23 42 -26 34 -6 -3 8 -12 12
-20 9 -12 -5 -20 19 -15 50 1 9 -4 9 -12 0z"/>
<path d="M1726 2633 c-3 -10 -9 -24 -12 -32 -5 -9 -3 -11 6 -6 10 6 12 4 7 -9
-4 -9 -3 -15 1 -12 8 5 15 76 8 76 -2 0 -6 -8 -10 -17z"/>
<path d="M753 2578 c-21 -27 -26 -41 -13 -33 10 6 12 4 7 -8 -3 -8 0 -21 8
-27 12 -10 13 -7 5 20 -7 24 -6 32 6 37 15 6 19 23 5 23 -5 0 -13 -6 -18 -12z"/>
<path d="M1534 2558 c-3 -4 -3 -12 0 -17 3 -4 -1 -17 -9 -27 -22 -29 -18 -41
5 -16 11 12 20 26 20 33 0 8 5 7 18 -2 15 -13 16 -12 4 3 -8 9 -11 21 -8 26 3
5 -2 9 -10 9 -8 0 -17 -4 -20 -9z"/>
<path d="M1343 2545 c-10 -10 -7 -14 12 -19 14 -4 34 -16 46 -29 l21 -22 -11
23 c-6 12 -16 22 -21 22 -5 0 -8 6 -6 13 1 6 1 9 -1 5 -7 -13 -21 -9 -25 6 -2
12 -5 12 -15 1z"/>
<path d="M1179 2486 c14 -17 71 -38 71 -27 0 5 -8 11 -17 15 -10 3 -29 10 -42
16 -20 9 -22 8 -12 -4z"/>
<path d="M1586 2435 c-23 -31 -52 -59 -68 -64 -20 -7 -28 -16 -27 -33 0 -22 1
-22 9 -2 5 13 27 26 59 37 28 9 68 28 88 42 49 33 34 32 -23 -1 -25 -15 -47
-24 -50 -22 -2 3 9 22 26 43 26 32 37 55 28 55 -2 0 -21 -25 -42 -55z"/>
<path d="M1476 2455 c-3 -9 -12 -12 -23 -9 -17 5 -17 5 0 -9 10 -9 25 -24 33
-34 14 -17 15 -16 8 7 -4 14 -7 33 -6 43 1 21 -4 22 -12 2z"/>
<path d="M2743 2448 c-2 -25 -22 -50 -34 -42 -5 3 -9 -2 -9 -11 0 -9 -4 -13
-10 -10 -5 3 -10 1 -10 -4 0 -18 18 -13 43 12 12 12 26 21 30 19 5 -1 7 3 4
10 -2 7 -1 20 4 29 5 10 4 16 -5 16 -6 0 -13 -9 -13 -19z"/>
<path d="M1290 2434 c19 -8 41 -13 49 -11 9 3 5 5 -9 6 -16 1 -21 4 -13 9 8 5
-2 8 -24 9 l-38 1 35 -14z"/>
<path d="M1006 2415 c3 -8 9 -14 12 -13 21 2 31 -4 26 -17 -4 -10 0 -15 12
-15 16 0 17 2 4 10 -13 9 -13 10 0 10 8 0 2 9 -15 20 -36 24 -46 25 -39 5z"/>
<path d="M1715 2411 c-3 -6 0 -9 8 -5 8 3 18 1 21 -4 3 -5 -4 -12 -16 -15 -13
-4 -26 -1 -30 6 -4 7 -6 3 -6 -9 2 -21 4 -21 41 -8 22 8 42 12 46 10 4 -3 13
0 21 6 12 8 12 9 -2 4 -10 -3 -18 -2 -18 3 0 4 -6 8 -12 8 -7 0 -20 4 -29 7
-10 4 -20 3 -24 -3z"/>
<path d="M2544 2373 c-3 -10 -11 -31 -16 -46 -6 -15 -8 -30 -4 -34 3 -3 6 1 6
10 0 12 8 15 30 12 17 -2 35 -7 39 -10 11 -6 45 25 37 33 -3 2 -12 -1 -21 -8
-9 -7 -25 -10 -41 -6 -22 6 -25 10 -19 36 7 32 -2 42 -11 13z"/>
<path d="M435 2363 c17 -41 17 -50 -2 -48 -35 4 -73 17 -73 26 0 5 -12 9 -26
9 -22 0 -25 -2 -14 -15 7 -8 16 -12 21 -9 5 2 19 -2 32 -11 15 -10 37 -14 60
-11 20 3 39 1 42 -4 7 -12 62 -13 69 -2 2 4 -10 6 -27 4 -29 -3 -35 1 -55 37
-23 41 -40 56 -27 24z"/>
<path d="M1559 2319 c-11 -11 -18 -24 -14 -27 3 -4 10 0 14 7 5 7 13 11 18 8
5 -3 10 3 10 14 2 24 -2 24 -28 -2z"/>
<path d="M1097 2294 c-3 -4 -2 -15 3 -25 7 -12 6 -19 -3 -22 -9 -4 -9 -6 1 -6
8 -1 25 7 38 18 20 16 22 21 10 30 -11 9 -16 9 -21 0 -6 -8 -9 -8 -14 0 -4 6
-10 8 -14 5z"/>
<path d="M1627 2245 c-21 -15 -37 -34 -37 -45 0 -11 -5 -20 -11 -20 -5 0 -7 5
-4 10 3 6 1 10 -4 10 -6 0 -11 -7 -11 -15 0 -8 5 -15 11 -15 7 0 18 -8 25 -17
11 -14 13 -15 9 -2 -11 30 12 65 54 84 23 10 41 22 41 27 0 16 -36 8 -73 -17z"/>
<path d="M1332 2239 c-13 -5 -27 -7 -32 -4 -4 3 -11 -2 -14 -11 -3 -8 -10 -13
-15 -9 -11 6 -54 -36 -45 -44 4 -3 9 0 11 7 3 6 10 9 15 6 6 -4 8 -2 4 4 -3 6
-2 13 3 16 5 4 8 -2 7 -11 -5 -27 16 -34 28 -11 15 30 48 39 77 22 13 -7 31
-16 41 -20 9 -3 18 -14 21 -24 3 -13 11 -17 26 -13 29 7 26 27 -5 41 -15 7
-22 17 -18 24 4 6 3 8 -4 4 -6 -3 -13 -2 -17 4 -4 6 -11 8 -16 5 -5 -4 -9 -1
-9 5 0 6 -5 8 -11 4 -6 -3 -14 -2 -18 3 -4 7 -15 7 -29 2z"/>
<path d="M1687 2223 c-26 -7 -74 -33 -60 -33 6 0 19 -3 29 -7 11 -4 15 -3 11
4 -8 13 15 23 46 22 12 0 16 -3 10 -6 -7 -2 -13 -9 -13 -14 0 -4 7 -5 17 -2
10 4 14 2 10 -4 -4 -6 0 -18 8 -26 8 -9 15 -22 15 -31 0 -8 5 -18 10 -21 13
-8 13 20 0 67 -6 21 -19 42 -30 48 -20 10 -23 11 -53 3z"/>
<path d="M825 2210 c4 -6 11 -8 16 -5 13 9 50 -5 44 -16 -4 -5 -1 -17 5 -26 9
-16 10 -15 5 4 -5 17 -3 21 8 17 8 -3 13 -15 12 -29 -2 -16 3 -25 17 -28 18
-5 19 -4 4 12 -18 20 -21 36 -6 26 5 -3 7 0 4 8 -6 17 -67 47 -95 47 -11 0
-17 -5 -14 -10z"/>
<path d="M1532 2178 c2 -7 -4 -12 -14 -10 -12 2 -15 -3 -11 -18 7 -27 17 -25
31 5 7 16 8 26 1 30 -5 4 -8 1 -7 -7z"/>
<path d="M2385 2180 c-4 -6 -11 -8 -16 -5 -5 4 -9 3 -10 -2 0 -4 -3 -21 -5
-37 -5 -26 -3 -28 11 -16 8 7 13 15 11 18 -9 8 15 43 25 37 5 -4 9 -1 9 4 0
14 -17 14 -25 1z"/>
<path d="M1360 2154 c-6 -14 -10 -61 -10 -104 0 -43 -4 -82 -10 -85 -5 -3 -10
-12 -10 -18 0 -7 9 -1 19 12 15 20 18 39 16 104 -2 44 0 74 5 68 5 -9 9 -8 13
4 5 10 3 14 -5 9 -7 -5 -9 0 -6 14 8 30 0 28 -12 -4z"/>
<path d="M1242 2163 c-7 -3 -20 -18 -28 -35 -13 -25 -13 -32 -3 -39 7 -4 18
-5 23 -2 6 4 5 8 -2 11 -10 3 -10 7 -1 18 6 8 15 12 19 9 4 -3 13 1 19 9 13
16 -6 36 -27 29z"/>
<path d="M1805 2141 c5 -16 4 -21 -4 -17 -7 5 -11 -3 -10 -21 l0 -28 17 33
c13 26 13 34 3 45 -11 10 -12 8 -6 -12z"/>
<path d="M2407 2133 c-3 -5 -8 -26 -13 -48 -4 -22 -10 -42 -14 -45 -16 -10
-16 -60 0 -60 5 0 7 7 4 15 -4 8 -1 15 4 15 6 0 11 8 11 18 1 34 14 87 23 93
7 4 6 9 0 13 -6 3 -13 3 -15 -1z"/>
<path d="M2330 2078 c-11 -12 -20 -25 -20 -30 0 -15 5 -23 13 -20 11 3 8 -13
-5 -28 -11 -12 -10 -12 5 -1 20 16 22 37 5 44 -9 3 -2 14 17 31 17 14 25 25
18 26 -7 0 -21 -10 -33 -22z"/>
<path d="M1777 2005 c3 -44 10 -86 15 -92 12 -15 12 -16 -107 -39 -120 -23
-282 -27 -343 -9 -26 8 -59 15 -74 15 -49 0 -34 28 20 35 77 10 81 14 12 12
l-65 -2 -6 75 c-3 41 -7 68 -8 60 -2 -8 -3 -18 -2 -22 0 -5 -6 -8 -14 -8 -9 0
-15 -9 -14 -22 0 -22 1 -22 9 -3 7 16 9 11 9 -22 1 -23 5 -53 11 -68 5 -14 6
-24 1 -21 -4 3 -16 -10 -26 -28 -21 -39 -17 -125 8 -176 10 -19 12 -32 5 -36
-22 -14 -37 23 -42 110 -4 79 -2 92 16 117 12 16 19 32 15 35 -4 4 -11 -5 -16
-20 -18 -46 -24 -28 -18 56 3 54 2 77 -4 66 -8 -14 -15 -261 -9 -293 7 -33 -1
-41 -37 -38 -33 2 -34 1 -13 -6 14 -5 19 -9 12 -10 -7 -1 -11 -5 -8 -10 8 -12
-47 -9 -56 4 -5 6 -8 6 -8 -2 0 -12 17 -27 35 -29 6 0 23 -2 38 -2 48 -3 19
-22 -36 -24 -40 -1 -44 -2 -18 -5 27 -4 31 -7 20 -14 -10 -7 -7 -8 11 -3 14 4
35 7 47 6 16 -1 21 3 18 17 -4 20 17 22 75 6 14 -3 35 -7 46 -9 12 -2 36 -13
53 -25 21 -15 29 -17 25 -8 -3 9 1 17 11 19 9 1 -18 18 -58 37 l-75 35 -1 83
c0 49 4 83 10 83 5 0 31 -11 57 -24 26 -13 71 -31 100 -40 28 -10 52 -21 52
-26 0 -4 10 -6 22 -2 14 3 19 2 14 -6 -4 -7 -3 -12 2 -12 5 0 8 -28 6 -62 l-2
-63 10 61 10 62 50 6 c27 4 46 11 43 16 -4 7 -13 6 -25 0 -10 -5 -29 -10 -42
-9 -23 1 -23 1 2 9 31 10 27 12 -35 15 -28 1 -66 9 -85 17 -19 8 -68 28 -109
44 -82 32 -103 55 -49 53 l33 -1 -30 -8 c-26 -7 -22 -8 25 -10 188 -9 368 -3
419 13 64 20 94 22 89 5 -5 -14 -86 -37 -153 -44 -27 -2 -65 -9 -84 -15 -43
-15 -142 -4 -200 22 -24 11 -46 17 -49 15 -8 -9 73 -37 145 -51 75 -15 127 -9
252 31 25 8 55 14 67 14 19 0 22 -4 19 -37 -2 -21 -12 -44 -22 -51 -17 -13
-17 -14 3 -8 18 5 22 1 28 -25 7 -36 0 -53 -21 -45 -8 3 -12 2 -9 -3 6 -9 -36
-31 -60 -31 -18 0 -77 -31 -82 -42 -9 -19 -75 -1 -95 26 -5 6 -6 0 -2 -14 3
-14 7 -31 7 -37 1 -10 5 -10 15 -1 7 6 16 8 20 4 3 -3 1 -6 -6 -6 -9 0 -9 -5
-1 -20 6 -11 10 -27 8 -36 -2 -9 6 -20 19 -24 20 -8 21 -7 7 18 -21 41 -18 69
9 75 12 2 30 8 40 12 14 6 16 4 11 -11 -6 -17 -5 -17 10 1 10 11 14 13 10 5
-5 -11 -2 -10 13 3 11 10 24 17 29 15 5 -1 31 4 58 11 43 13 46 15 27 23 -13
4 -28 5 -33 1 -7 -3 -8 -1 -4 5 4 7 19 9 36 5 20 -3 30 -1 30 6 0 7 4 10 9 7
5 -4 7 3 4 14 -6 21 -18 18 -18 -3 0 -7 -9 -13 -20 -14 -11 -2 -15 0 -9 3 14
6 9 245 -5 253 -5 4 -11 33 -12 66 -1 33 -5 69 -10 80 -4 11 -5 -16 -2 -60z
m-567 -222 c-1 -45 -3 -54 -11 -40 -9 15 -9 34 1 95 0 1 2 2 5 2 3 0 5 -26 5
-57z"/>
<path d="M1555 2014 c-21 -25 -34 -33 -49 -29 -20 6 -20 5 -2 -6 16 -10 24 -6
54 25 20 19 34 38 31 40 -3 3 -18 -10 -34 -30z"/>
<path d="M2534 2008 c-17 -56 -82 -83 -123 -53 -11 7 -13 7 -7 -2 4 -7 2 -21
-4 -32 -6 -11 -6 -22 -1 -25 5 -3 11 3 14 14 3 11 11 20 19 20 10 0 9 -3 -2
-10 -13 -9 -13 -10 0 -10 9 0 24 6 35 14 11 7 32 12 47 12 19 -1 24 2 17 10
-6 7 -2 19 11 34 l20 23 -6 -31 c-9 -43 22 -45 31 -2 5 21 13 30 26 30 10 0
19 5 19 11 0 8 -11 9 -31 5 -18 -3 -38 -1 -45 4 -9 8 -14 5 -20 -12z"/>
<path d="M981 1924 c-23 -14 -40 -28 -37 -31 3 -3 12 -1 19 5 8 7 16 10 18 8
2 -3 15 4 29 14 39 29 19 32 -29 4z"/>
<path d="M1610 1930 c-70 -21 -164 -26 -203 -11 -14 6 -28 7 -31 3 -4 -3 17
-12 46 -20 87 -22 108 -25 108 -14 0 11 61 28 155 43 38 5 71 12 74 15 12 11
-92 0 -149 -16z"/>
<path d="M1871 1909 c2 -8 -1 -40 -5 -71 -6 -47 -4 -63 10 -87 15 -25 15 -32
5 -45 -12 -14 -10 -16 8 -16 11 0 21 -6 21 -12 0 -7 8 1 16 19 15 29 15 38 0
95 -11 46 -14 52 -11 23 2 -22 7 -55 10 -72 6 -26 4 -33 -8 -33 -10 0 -19 16
-26 50 -14 63 -14 63 2 54 9 -6 9 -4 -1 8 -9 11 -11 29 -7 51 4 22 3 37 -5 42
-7 4 -10 1 -9 -6z"/>
<path d="M811 1893 c-16 -7 -61 -56 -56 -62 2 -2 11 4 20 13 33 33 71 14 117
-59 14 -22 26 -48 26 -57 4 -42 6 -48 13 -48 5 0 6 -33 3 -72 -3 -40 -5 -82
-5 -93 0 -25 31 -95 52 -118 14 -15 17 -16 22 -3 3 8 1 17 -6 20 -9 3 -9 5 1
5 6 1 12 5 12 11 0 5 -6 7 -13 4 -24 -9 -42 83 -40 204 1 62 -2 110 -7 107 -5
-3 -10 5 -12 17 -2 13 -9 22 -15 21 -7 -2 -10 3 -7 11 3 8 -5 21 -18 30 -15
11 -17 16 -8 16 28 1 -35 29 -65 30 l-30 1 25 14 c25 14 19 19 -9 8z"/>
<path d="M783 1809 c17 -73 31 -115 40 -124 7 -7 8 -3 3 10 -4 11 -10 34 -13
50 l-6 30 25 -25 c29 -30 50 -84 37 -97 -5 -5 -3 -17 6 -29 9 -13 14 -14 15
-5 0 11 3 11 15 1 23 -19 19 6 -7 49 -12 19 -23 42 -24 49 -4 24 -53 91 -75
103 -20 10 -21 9 -16 -12z"/>
<path d="M1040 1775 c4 -19 4 -35 -1 -37 -5 -2 -5 -8 -1 -14 5 -7 15 -3 31 12
l25 23 -24 -6 c-21 -6 -23 -4 -17 25 5 24 3 32 -7 32 -11 0 -12 -8 -6 -35z"/>
<path d="M1260 1795 c0 -9 75 -43 110 -49 32 -5 33 -5 10 5 -14 6 -44 19 -68
30 -45 20 -52 22 -52 14z"/>
<path d="M470 1769 c-7 -11 -10 -22 -8 -25 7 -6 48 26 48 38 0 7 -7 3 -15 -8
-13 -16 -14 -16 -9 -1 9 24 -3 21 -16 -4z"/>
<path d="M280 1776 c0 -4 7 -21 16 -38 13 -24 18 -28 25 -17 6 9 8 -1 5 -28
-3 -24 -1 -43 5 -43 5 0 7 -12 3 -27 -4 -22 -3 -25 5 -13 8 12 11 8 11 -20 1
-30 9 -41 55 -77 30 -24 57 -43 61 -43 4 0 16 -8 26 -17 11 -10 19 -13 18 -8
-5 21 1 29 10 15 8 -13 10 -13 10 2 0 19 29 29 68 26 15 -2 25 -11 30 -30 5
-20 11 -25 21 -19 20 13 -14 59 -53 69 -23 7 -30 14 -28 28 2 10 8 21 12 24 5
3 5 12 0 19 -8 15 6 59 25 74 6 5 2 6 -8 3 -10 -3 -21 -6 -23 -6 -3 0 -3 -4 1
-9 3 -5 -1 -16 -9 -23 -7 -8 -12 -28 -11 -45 2 -26 -2 -33 -21 -37 -13 -4 -24
-14 -24 -22 0 -16 -24 1 -98 68 -38 34 -25 69 33 91 52 19 85 15 86 -11 0 -11
2 -13 6 -4 4 11 -22 82 -31 82 -2 0 -3 -8 -2 -17 1 -13 -7 -17 -31 -16 -18 0
-33 -4 -33 -9 0 -5 -5 -6 -11 -2 -8 4 -7 9 2 15 7 4 17 5 21 3 4 -3 8 -1 8 5
0 15 -18 23 -25 11 -5 -7 -12 -5 -22 7 -13 17 -14 17 -5 -2 5 -11 7 -27 4 -35
-6 -18 -33 -44 -50 -47 -11 -3 -13 3 -17 47 -1 23 -15 41 -26 35 -5 -4 -9 0
-9 8 0 8 -7 20 -15 27 -8 7 -15 9 -15 6z"/>
<path d="M756 1762 c-3 -6 9 -40 29 -77 19 -36 39 -92 45 -123 5 -31 16 -59
22 -63 7 -5 9 -11 5 -15 -4 -4 0 -15 9 -25 9 -10 14 -25 10 -34 -6 -17 33 -60
64 -70 20 -6 30 -33 30 -81 0 -17 7 -50 15 -73 8 -22 12 -41 10 -41 -3 0 0
-12 6 -27 6 -16 13 -39 15 -52 8 -42 53 -131 66 -131 10 0 10 2 0 9 -17 10
-65 149 -58 168 3 8 2 12 -3 9 -9 -6 -26 73 -37 171 -4 35 -11 60 -15 57 -12
-7 -69 50 -69 69 0 18 -87 236 -101 253 -6 8 -17 30 -24 50 -7 20 -15 32 -19
26z"/>
<path d="M2710 1729 c-1 -8 -5 -33 -9 -56 -5 -23 -5 -40 0 -37 10 6 23 93 15
101 -3 4 -6 0 -6 -8z"/>
<path d="M2411 1648 c-7 -17 -5 -26 6 -35 9 -7 12 -19 9 -31 -4 -12 -1 -22 7
-25 16 -6 15 36 -1 56 -5 7 -8 22 -6 35 2 12 2 22 -1 22 -3 0 -10 -10 -14 -22z"/>
<path d="M1450 1615 c-7 -8 -18 -15 -24 -15 -7 0 -12 -9 -13 -20 -1 -11 2 -20
7 -20 5 0 19 -17 30 -37 21 -39 21 -35 5 40 -3 17 -1 35 6 43 7 8 10 17 7 19
-3 3 -11 -1 -18 -10z"/>
<path d="M2071 1578 c0 -21 -10 -76 -21 -124 -11 -48 -19 -89 -16 -91 2 -2 7
9 11 26 4 18 11 28 17 25 6 -4 8 1 4 14 -4 12 -2 40 5 64 6 24 12 48 13 55 1
7 5 16 9 19 10 11 8 26 -2 19 -5 -3 -12 3 -14 12 -3 10 -5 1 -6 -19z"/>
<path d="M1163 1564 c0 -8 5 -13 11 -12 6 0 22 -2 36 -6 14 -3 45 -2 70 3 l45
9 -55 0 c-30 0 -67 4 -81 10 -20 8 -26 7 -26 -4z"/>
<path d="M200 1543 c0 -4 11 -18 24 -32 30 -33 92 -216 101 -298 4 -35 10 -63
14 -63 3 0 12 -26 20 -57 7 -32 24 -83 37 -112 18 -41 23 -63 17 -85 -4 -17
-6 -35 -4 -41 11 -39 10 -44 -9 -33 -13 8 -16 16 -10 23 6 8 4 19 -5 31 -15
19 -15 19 -8 0 4 -12 3 -17 -4 -13 -6 4 -13 -2 -16 -13 -4 -15 2 -24 24 -36
29 -15 31 -34 4 -34 -8 0 -17 -5 -21 -12 -4 -6 -3 -8 3 -5 21 13 69 -4 70 -25
3 -29 11 -34 28 -17 13 13 13 17 0 36 -9 12 -22 20 -29 17 -8 -3 -17 0 -22 7
-4 8 -3 10 4 5 8 -5 10 -2 6 8 -3 9 -2 16 4 16 6 0 13 -6 15 -12 3 -8 6 -6 6
5 1 9 -3 17 -8 17 -17 0 -5 72 14 82 14 8 15 12 4 19 -10 6 -11 9 -1 9 10 0
10 4 0 20 -7 11 -18 20 -25 20 -14 0 -49 91 -57 150 -4 25 -3 68 1 95 7 46 11
52 53 73 35 18 56 22 95 19 34 -3 63 1 92 14 24 10 43 20 43 23 0 15 -253 -18
-277 -37 -23 -17 -60 19 -83 80 -12 32 -20 68 -17 80 2 12 0 20 -5 17 -5 -3
-6 6 -2 20 5 21 3 25 -10 20 -9 -3 -27 1 -41 10 -14 9 -25 13 -25 9z m168
-318 c2 -21 -2 -35 -9 -35 -7 0 -9 10 -7 25 3 14 1 25 -3 25 -5 0 -9 5 -9 10
0 6 6 10 13 10 8 0 14 -14 15 -35z"/>
<path d="M1062 1528 c7 -4 26 -8 41 -8 39 0 33 -32 -6 -36 -43 -4 -81 -44 -42
-44 8 0 15 7 15 15 0 8 9 15 19 15 14 0 18 -5 14 -20 -3 -11 2 -41 11 -65 10
-25 14 -50 10 -56 -4 -8 -3 -9 4 -5 16 9 15 -7 0 -22 -7 -7 -8 -12 -3 -12 11
0 86 82 80 88 -3 3 -19 -7 -35 -23 l-30 -29 0 37 c0 24 5 37 13 37 7 0 22 7
33 15 18 14 17 15 -8 4 -15 -6 -34 -9 -42 -6 -23 9 -19 54 7 83 21 22 26 23
55 13 18 -6 35 -9 38 -6 3 3 -8 8 -25 12 -17 4 -29 11 -25 16 3 5 -2 9 -10 9
-9 0 -16 -4 -16 -10 0 -5 -5 -10 -11 -10 -5 0 -8 3 -6 8 3 4 -17 7 -44 8 -29
0 -44 -3 -37 -8z"/>
<path d="M1389 1495 l-16 -34 28 22 c27 21 32 38 13 44 -5 1 -16 -13 -25 -32z"/>
<path d="M1201 1489 c9 -8 14 -19 12 -25 -2 -7 4 -11 14 -10 10 0 18 -3 18 -9
0 -5 5 -17 10 -26 9 -15 11 -16 25 -1 13 14 12 15 -4 9 -14 -6 -17 -4 -12 9 3
8 6 18 6 20 0 2 11 4 25 4 14 0 25 4 25 10 0 5 -7 7 -15 4 -9 -4 -15 0 -15 7
0 9 -3 10 -8 4 -10 -14 -32 -17 -32 -5 0 6 -5 10 -11 10 -5 0 -7 -5 -3 -11 3
-6 -6 -3 -22 6 -16 9 -22 11 -13 4z"/>
<path d="M1891 1474 c0 -12 -8 -27 -16 -34 -19 -16 -19 -27 -1 -46 13 -12 15
-9 22 18 3 18 14 38 23 45 9 6 13 15 8 19 -4 4 -7 2 -7 -4 0 -19 -18 -14 -23
6 -4 13 -5 13 -6 -4z"/>
<path d="M1320 1434 c-14 -7 -22 -14 -18 -14 4 0 3 -14 -2 -31 -11 -38 -4 -33
18 13 13 26 23 33 45 33 15 -1 27 3 27 7 0 12 -42 8 -70 -8z"/>
<path d="M625 1402 c-7 -19 13 -42 34 -41 13 1 13 2 -1 6 -20 5 -23 24 -8 39
7 7 6 11 -4 11 -8 0 -18 -7 -21 -15z"/>
<path d="M1771 1395 c-2 -28 -3 -29 -11 -7 -11 26 -18 29 -16 5 0 -9 9 -25 19
-35 20 -21 24 -73 5 -62 -10 6 -10 4 0 -7 7 -7 12 -39 12 -73 0 -32 2 -57 6
-54 3 3 5 43 6 89 1 46 6 90 11 97 7 9 6 17 -1 24 -9 9 -12 8 -13 -2 -1 -8 -5
1 -9 20 l-7 35 -2 -30z"/>
<path d="M1225 1390 c5 -8 9 -31 8 -50 -1 -24 0 -27 4 -10 2 14 9 29 14 35 10
10 13 32 2 22 -3 -4 -13 -1 -21 6 -13 10 -14 9 -7 -3z"/>
<path d="M1011 1377 c-1 -9 9 -34 22 -55 34 -56 54 -109 72 -192 21 -99 33
-127 56 -133 18 -5 18 -3 -4 19 -24 24 -41 91 -39 162 0 17 -3 32 -8 32 -4 0
-13 23 -20 50 -10 43 -10 54 4 75 16 24 16 25 -7 23 -19 -2 -23 -7 -19 -25 2
-13 0 -23 -4 -23 -11 0 -36 37 -46 65 -5 17 -6 17 -7 2z"/>
<path d="M1847 1383 c-4 -3 -7 -21 -7 -39 0 -18 -4 -36 -10 -39 -5 -3 -10 -11
-10 -18 0 -25 33 38 37 69 4 34 2 39 -10 27z"/>
<path d="M711 1346 c-7 -9 -17 -14 -21 -11 -5 3 -6 -3 -3 -13 3 -14 11 -18 29
-14 26 5 27 7 15 35 -6 17 -8 17 -20 3z"/>
<path d="M1372 1342 c-12 -8 -22 -19 -22 -24 0 -6 -16 -32 -35 -58 -19 -26
-35 -53 -35 -59 0 -6 -13 -29 -29 -51 -20 -28 -27 -47 -23 -63 5 -21 6 -21 13
5 9 34 77 118 95 118 8 0 25 -18 39 -39 13 -22 40 -47 60 -57 24 -11 37 -26
43 -47 11 -42 32 -47 32 -8 0 18 5 31 13 31 7 0 24 11 39 25 15 14 34 25 42
25 16 0 46 26 46 41 0 20 -29 7 -73 -31 -25 -22 -52 -40 -60 -40 -25 0 -64 24
-92 58 -15 18 -35 31 -44 30 -12 -2 -17 6 -19 36 -2 21 1 43 7 49 6 6 11 19
11 28 0 20 34 31 49 16 7 -7 11 -8 11 -1 0 6 -10 15 -23 21 -16 8 -28 7 -45
-5z"/>
<path d="M740 1339 c0 -5 7 -9 15 -9 8 0 15 -4 15 -10 0 -5 -4 -10 -10 -10
-20 0 -10 -16 11 -17 15 -1 19 2 15 13 -3 9 -6 19 -6 24 0 4 -9 10 -20 13 -11
3 -20 1 -20 -4z"/>
<path d="M1531 1311 c-9 -33 -10 -59 -2 -105 l10 -61 -3 70 c-2 39 -1 59 3 45
11 -38 17 -11 11 45 l-6 50 -13 -44z"/>
<path d="M1630 1295 c0 -14 27 -62 41 -72 9 -7 40 -44 69 -83 50 -68 71 -89
51 -52 -20 38 -84 128 -109 155 -14 15 -22 27 -18 27 5 0 3 7 -4 15 -12 14
-30 20 -30 10z"/>
<path d="M2252 1278 c-10 -14 -7 -51 7 -76 7 -12 9 -8 8 14 0 16 3 39 7 52 8
24 -5 30 -22 10z"/>
<path d="M770 1245 c0 -8 -7 -15 -15 -15 -17 0 -20 -25 -5 -35 6 -4 10 -3 9 2
-3 20 2 27 11 13 7 -11 10 -7 10 18 0 17 -2 32 -5 32 -3 0 -5 -7 -5 -15z"/>
<path d="M1805 1203 c4 -21 11 -45 17 -53 8 -12 8 -11 4 3 -3 10 -6 34 -6 53
0 19 -5 34 -11 34 -8 0 -9 -12 -4 -37z"/>
<path d="M783 1175 c-52 -50 -53 -50 -73 -32 -12 10 -12 9 0 -6 12 -16 12 -20
0 -28 -35 -21 -44 -28 -39 -33 2 -3 24 10 48 29 24 19 47 32 52 29 5 -3 9 5 9
17 0 12 3 19 7 16 5 -6 53 37 53 49 0 10 -12 2 -57 -41z"/>
<path d="M2230 1191 c0 -14 40 -55 56 -57 9 -1 21 -9 27 -17 7 -8 29 -17 50
-20 22 -4 47 -16 58 -28 20 -24 25 -19 9 10 -5 10 -33 28 -62 41 -29 12 -72
35 -95 51 -24 16 -43 25 -43 20z"/>
<path d="M530 1148 c0 -4 7 -28 15 -53 15 -42 15 -47 -2 -70 -10 -13 -25 -26
-33 -28 -12 -3 -11 -6 4 -12 13 -6 21 -5 24 3 2 6 11 8 20 5 15 -6 16 -5 2 13
-8 10 -10 16 -6 12 5 -5 14 2 20 15 7 12 26 27 43 32 69 23 48 29 -28 9 -12
-3 -23 9 -37 38 -12 24 -21 40 -22 36z"/>
<path d="M2441 1108 c1 -38 16 -93 18 -65 2 36 16 15 15 -23 -1 -26 2 -38 9
-33 6 4 8 0 4 -11 -4 -11 -3 -15 4 -11 6 4 8 13 5 20 -3 8 4 15 17 18 22 4 22
4 1 6 -18 1 -23 9 -29 47 -4 31 -11 44 -19 41 -9 -4 -11 2 -8 19 2 14 0 24 -7
24 -6 0 -11 -15 -10 -32z"/>
<path d="M1278 1003 c10 -4 9 -9 -4 -24 -10 -11 -12 -19 -6 -19 7 0 12 5 12
10 0 6 5 10 11 10 5 0 8 -4 5 -9 -6 -9 355 -6 417 5 53 8 40 16 -35 20 -35 1
-76 5 -93 7 -16 3 -39 0 -51 -5 -14 -7 -37 -7 -68 0 -32 6 -60 6 -88 -1 -30
-7 -46 -7 -59 1 -10 7 -27 12 -36 11 -12 0 -13 -2 -5 -6z"/>
<path d="M1204 986 c-5 -13 -3 -21 5 -24 9 -3 9 -7 3 -11 -7 -4 -6 -15 3 -31
14 -25 14 -25 15 -2 0 12 5 22 10 22 6 0 10 5 10 11 0 5 -4 8 -9 5 -5 -4 -14
6 -19 21 -9 26 -10 26 -18 9z"/>
<path d="M1443 884 c11 -11 72 -14 102 -5 25 8 19 9 -39 10 -38 1 -67 -2 -63
-5z"/>
<path d="M1470 852 c-26 -4 -42 -20 -34 -34 3 -4 13 -4 23 1 9 6 41 9 69 8 55
-3 70 9 25 18 -46 10 -57 11 -83 7z"/>
<path d="M2586 845 c-3 -8 -1 -17 4 -20 18 -11 -2 -36 -24 -30 -15 5 -17 4 -7
-3 9 -7 10 -12 2 -16 -6 -4 -11 -14 -11 -23 0 -8 15 3 35 27 19 23 35 48 35
55 0 18 -27 26 -34 10z"/>
<path d="M2503 767 c2 -15 0 -30 -4 -33 -12 -7 -11 -34 0 -34 15 0 23 58 11
77 -10 15 -11 14 -7 -10z"/>
<path d="M1261 738 c28 -42 65 -78 72 -72 3 3 19 -2 36 -10 16 -9 36 -16 43
-16 7 1 0 8 -17 17 -16 8 -42 27 -57 40 -14 14 -31 22 -36 19 -6 -4 -13 -2
-17 4 -3 5 0 10 7 10 15 1 -29 40 -44 40 -5 0 1 -15 13 -32z"/>
<path d="M2500 672 c0 -10 -3 -22 -7 -26 -11 -10 -12 -36 -2 -36 5 0 11 12 15
28 3 15 7 33 10 40 2 6 -1 12 -6 12 -6 0 -10 -8 -10 -18z"/>
<path d="M1302 603 c8 -10 13 -25 11 -33 -4 -13 -3 -13 6 0 9 13 11 13 11 -1
0 -9 7 -23 16 -30 13 -11 12 -5 -4 27 -12 23 -29 45 -39 48 -15 6 -16 5 -1
-11z"/>
<path d="M329 574 c-21 -26 -19 -44 4 -43 12 0 17 3 10 5 -8 4 -9 13 -3 30 11
28 8 30 -11 8z"/>
</g>
</svg>
