<?xml version="1.0" standalone="no"?>
<!DOCTYPE svg PUBLIC "-//W3C//DTD SVG 20010904//EN"
 "http://www.w3.org/TR/2001/REC-SVG-20010904/DTD/svg10.dtd">
<svg version="1.0" xmlns="http://www.w3.org/2000/svg"
 width="300.000000pt" height="300.000000pt" viewBox="0 0 300.000000 300.000000"
 preserveAspectRatio="xMidYMid meet">
<metadata>
Created by potrace 1.10, written by Peter Selinger 2001-2011
</metadata>
<g transform="translate(0.000000,300.000000) scale(0.100000,-0.100000)"
fill="#000000" stroke="none">
<path d="M525 2971 c19 -38 38 -51 26 -19 -4 13 -6 29 -4 36 3 7 -4 12 -16 12
-21 0 -21 -1 -6 -29z"/>
<path d="M890 2963 c11 -21 23 -55 27 -76 3 -20 10 -40 14 -43 11 -7 11 0 -1
56 -15 66 -31 100 -46 100 -11 0 -9 -9 6 -37z"/>
<path d="M1005 2990 c3 -5 2 -10 -2 -10 -5 0 -9 -10 -9 -22 -1 -13 -4 -51 -8
-85 -5 -35 -4 -63 1 -63 4 0 16 35 26 78 10 42 21 85 24 95 3 12 -1 17 -17 17
-12 0 -18 -4 -15 -10z"/>
<path d="M1156 2978 c-19 -31 -39 -98 -32 -106 10 -10 26 13 32 44 3 16 11 41
19 57 16 32 1 36 -19 5z"/>
<path d="M1361 2983 c1 -10 5 -29 9 -43 7 -21 8 -19 9 18 1 23 -3 42 -9 42 -5
0 -10 -8 -9 -17z"/>
<path d="M2132 2987 c-6 -7 -15 -32 -20 -55 -8 -36 -7 -44 7 -51 12 -7 17 -5
17 7 1 27 14 94 20 103 8 14 -12 11 -24 -4z"/>
<path d="M2701 2954 c-22 -25 -41 -50 -41 -54 0 -5 -22 -38 -50 -74 -27 -36
-50 -68 -50 -72 0 -4 -7 -16 -17 -26 -15 -17 -15 -18 0 -18 10 0 17 6 17 14 0
8 3 16 8 18 9 4 52 65 52 74 0 4 11 17 25 30 l25 24 21 -21 c15 -15 28 -19 46
-14 22 5 24 3 18 -17 -6 -20 -3 -18 24 10 29 31 39 52 25 52 -3 0 -22 -10 -43
-22 -33 -19 -41 -20 -55 -9 -25 21 -19 56 19 101 19 23 35 44 35 46 0 14 -23
-2 -59 -42z"/>
<path d="M2950 2983 c0 -18 -65 -65 -106 -77 -17 -5 -21 -12 -16 -29 3 -12 7
-16 9 -10 3 7 11 9 19 6 8 -3 14 0 14 6 0 6 3 10 8 9 13 -2 46 14 70 35 22 21
31 77 12 77 -5 0 -10 -8 -10 -17z"/>
<path d="M371 2953 c34 -61 46 -75 53 -64 8 12 -18 57 -48 84 -28 25 -28 22
-5 -20z"/>
<path d="M2350 2982 c0 -5 7 -17 16 -28 8 -10 13 -14 10 -8 -3 7 2 15 11 18
15 6 15 8 3 16 -19 12 -40 13 -40 2z"/>
<path d="M2252 2930 c-41 -25 -67 -70 -39 -70 6 0 23 17 36 37 l24 37 17 -22
c18 -21 30 -20 30 4 0 27 -35 34 -68 14z"/>
<path d="M1753 2919 c-12 -12 -6 -49 8 -49 5 0 9 14 9 30 0 33 -1 35 -17 19z"/>
<path d="M650 2911 c0 -5 7 -11 15 -15 8 -3 14 -9 13 -13 -2 -13 20 -60 31
-68 18 -10 12 11 -10 39 -11 14 -18 26 -14 26 3 0 1 9 -5 20 -11 20 -30 27
-30 11z"/>
<path d="M2444 2875 c-9 -14 -21 -22 -28 -18 -6 3 -8 3 -4 -2 4 -4 -7 -32 -24
-62 -17 -29 -28 -56 -25 -59 5 -6 62 78 91 135 20 37 13 41 -10 6z"/>
<path d="M1 2849 c-1 -15 6 -29 14 -33 9 -3 15 -18 15 -36 0 -18 4 -29 10 -25
15 9 12 41 -5 59 -8 8 -19 25 -24 38 -10 23 -10 23 -10 -3z"/>
<path d="M470 2862 c0 -15 34 -39 53 -39 22 0 21 3 -3 27 -20 20 -50 27 -50
12z"/>
<path d="M356 2834 c-9 -23 2 -36 25 -29 13 4 19 2 19 -9 0 -12 -6 -13 -30 -6
-34 10 -37 4 -14 -28 18 -26 49 -29 58 -6 11 28 6 51 -14 75 -18 21 -19 22
-14 4 5 -19 5 -19 -9 -2 -13 16 -15 16 -21 1z"/>
<path d="M2062 2838 c-14 -14 -16 -38 -2 -38 9 0 30 31 30 44 0 10 -15 7 -28
-6z"/>
<path d="M825 2819 c9 -39 18 -58 31 -63 22 -8 16 18 -10 49 -14 16 -23 22
-21 14z"/>
<path d="M1403 2795 c0 -13 8 -32 18 -41 17 -16 18 -15 14 6 -12 60 -32 83
-32 35z"/>
<path d="M2176 2794 c-29 -26 -30 -41 -1 -30 9 3 14 10 11 15 -8 12 36 19 60
10 10 -4 16 -8 12 -8 -4 -1 -3 -13 2 -27 7 -17 7 -23 0 -19 -6 3 -13 -1 -16
-9 -8 -22 -23 -20 -51 6 -29 27 -41 17 -19 -17 20 -30 48 -32 87 -4 25 17 29
26 26 57 -2 33 -6 37 -30 37 -15 -1 -27 3 -27 7 0 16 -25 7 -54 -18z"/>
<path d="M1065 2800 c-3 -5 -3 -22 0 -37 3 -15 2 -22 -1 -15 -3 6 -11 9 -17 5
-6 -4 -8 0 -4 10 3 10 2 17 -3 17 -6 0 -10 -7 -10 -15 0 -8 0 -18 0 -22 0 -4
5 -8 12 -9 7 -1 21 -5 31 -9 15 -6 17 -1 17 39 0 43 -11 59 -25 36z"/>
<path d="M1773 2803 c-25 -10 -12 -21 22 -18 21 1 36 -3 39 -12 3 -7 0 -13 -7
-13 -8 0 -8 -3 2 -9 7 -5 10 -14 7 -20 -4 -6 -2 -11 4 -11 6 0 11 -10 10 -22
-3 -36 0 -44 10 -28 8 13 10 12 10 -2 0 -10 -7 -18 -15 -18 -8 0 -15 5 -15 10
0 6 -9 10 -19 10 -11 0 -22 6 -24 13 -4 9 -6 9 -6 -1 -1 -7 -4 -11 -8 -9 -5 3
-9 -8 -10 -24 -2 -23 2 -29 17 -29 34 0 35 1 33 21 -2 16 -1 17 11 7 8 -7 12
-17 9 -21 -3 -5 -2 -19 1 -33 7 -25 30 -32 42 -12 5 8 2 9 -9 5 -10 -3 -17 -2
-17 3 0 6 5 10 11 10 5 0 8 4 4 9 -3 5 -1 12 5 16 14 9 12 41 -4 57 -9 9 -12
29 -9 57 3 36 1 43 -11 38 -8 -3 -17 1 -20 9 -3 9 -10 13 -15 9 -5 -3 -12 -1
-16 5 -7 11 -13 11 -32 3z"/>
<path d="M1365 2791 c3 -5 2 -12 -3 -15 -5 -3 -7 -19 -4 -37 3 -22 7 -27 13
-18 12 20 11 79 -2 79 -5 0 -8 -4 -4 -9z"/>
<path d="M630 2770 c-10 -10 -17 -28 -15 -40 3 -13 -1 -20 -13 -20 -12 0 -13
-3 -5 -11 14 -14 36 -2 29 17 -3 8 0 11 8 8 8 -3 16 5 20 20 6 23 28 39 25 19
-4 -25 3 -42 15 -37 18 7 47 -23 40 -41 -4 -10 0 -15 12 -14 11 0 14 3 8 5 -6
2 -9 17 -6 33 3 22 -1 30 -16 35 -11 4 -27 15 -37 26 -23 25 -40 25 -65 0z"/>
<path d="M230 2776 c0 -3 21 -30 48 -59 26 -29 60 -68 75 -87 16 -19 26 -27
23 -16 -9 27 -99 135 -113 135 -7 1 -12 6 -10 12 1 6 -4 14 -10 16 -7 3 -13 2
-13 -1z"/>
<path d="M1761 2761 c-6 -10 -7 -21 -4 -25 3 -3 -1 -6 -10 -6 -20 0 -22 -11
-5 -28 15 -15 38 -16 38 -1 0 5 -4 7 -10 4 -5 -3 -10 -2 -10 4 0 5 5 13 10 16
6 4 8 10 5 15 -3 5 0 12 6 16 8 5 9 3 4 -6 -5 -9 -4 -11 3 -6 16 10 15 23 -3
30 -8 3 -19 -3 -24 -13z"/>
<path d="M1387 2724 c-10 -11 -9 -36 2 -29 5 3 12 1 16 -5 3 -5 0 -10 -7 -10
-8 -1 -6 -6 6 -15 31 -23 39 -18 18 13 -10 15 -21 33 -23 40 -3 7 -8 10 -12 6z"/>
<path d="M1420 2724 c0 -5 14 -29 30 -54 16 -25 30 -39 30 -32 0 7 -13 31 -30
54 -16 22 -30 37 -30 32z"/>
<path d="M615 2681 c-10 -18 14 -50 36 -48 11 1 25 10 31 20 8 15 6 18 -10 15
-10 -2 -26 3 -35 10 -10 9 -17 9 -22 3z"/>
<path d="M1604 2652 c3 -53 12 -62 20 -20 4 22 2 37 -8 46 -12 13 -14 9 -12
-26z"/>
<path d="M2364 2659 c-12 -37 -13 -50 -3 -43 5 3 7 10 4 15 -4 5 0 9 7 9 18 0
41 -37 28 -45 -6 -4 -8 -10 -5 -15 8 -13 -21 -20 -34 -7 -8 8 -11 5 -11 -12 0
-12 -5 -32 -11 -44 -7 -16 -4 -14 11 6 12 15 26 27 31 27 6 0 18 8 28 18 16
15 16 22 5 57 -7 22 -13 36 -13 31 -1 -6 -7 -1 -15 9 -13 18 -14 18 -22 -6z"/>
<path d="M1057 2663 c-2 -5 -5 -27 -6 -51 -1 -47 14 -86 30 -77 12 8 12 45 -1
45 -5 0 -10 4 -10 10 0 5 7 7 15 4 9 -4 15 0 15 9 0 8 -6 17 -14 20 -9 4 -12
14 -9 26 5 20 -11 30 -20 14z"/>
<path d="M2305 2657 c-10 -13 -14 -23 -23 -66 -3 -16 -1 -22 6 -17 8 5 10 2 6
-8 -4 -10 -1 -16 9 -16 26 0 29 18 5 34 -12 9 -17 16 -10 16 6 0 12 7 12 15 0
8 4 15 8 15 4 0 8 9 9 20 2 23 -7 25 -22 7z"/>
<path d="M2711 2656 c-16 -19 -6 -53 19 -66 24 -13 43 10 38 47 -3 32 -37 43
-57 19z"/>
<path d="M2055 2640 c-10 -11 -26 -20 -36 -20 -16 0 -18 -7 -16 -47 2 -43 5
-48 27 -51 14 -2 31 -11 37 -19 11 -15 15 -15 30 -1 10 8 26 18 35 21 11 4 16
15 14 34 -1 15 1 38 6 51 7 20 4 22 -22 22 -20 0 -30 -5 -30 -15 0 -14 13 -20
34 -16 5 1 3 -5 -4 -14 -11 -13 -15 -13 -21 -3 -7 11 -9 11 -9 0 0 -7 -4 -11
-9 -7 -5 3 -12 1 -15 -4 -3 -5 8 -7 24 -6 16 1 31 -3 33 -9 3 -7 -5 -13 -16
-14 -12 0 -23 -6 -25 -11 -3 -8 -10 -8 -23 0 -11 5 -17 14 -14 20 4 5 1 9 -4
9 -21 0 -11 32 19 60 17 15 30 31 30 34 0 13 -28 5 -45 -14z"/>
<path d="M713 2642 c-9 -6 -6 -16 12 -36 31 -36 33 -80 3 -100 -12 -8 -26 -12
-32 -9 -8 4 -8 3 0 -6 15 -16 60 2 68 27 4 11 2 32 -4 47 -6 15 -8 35 -5 44 2
9 0 23 -5 31 -6 10 -10 11 -10 3 0 -7 -5 -13 -11 -13 -5 0 -7 5 -4 10 7 12 4
12 -12 2z"/>
<path d="M671 2596 c-24 -26 -21 -49 5 -39 8 3 21 -3 29 -13 7 -11 17 -15 21
-11 5 4 -5 19 -21 32 -17 13 -26 27 -22 31 4 5 12 2 17 -6 5 -8 11 -12 14 -9
3 3 0 13 -7 23 -12 16 -14 15 -36 -8z"/>
<path d="M1490 2612 c0 -7 5 -12 10 -12 6 0 10 -6 10 -14 0 -9 -7 -12 -20 -9
-11 3 -17 10 -13 17 3 6 2 7 -3 3 -5 -5 -9 -12 -9 -15 0 -4 -4 -13 -9 -20 -7
-11 -4 -12 13 -3 12 7 26 9 31 6 18 -11 23 26 6 43 -10 10 -16 12 -16 4z"/>
<path d="M1570 2583 c0 -10 -19 -37 -42 -62 l-43 -45 43 33 c53 41 82 91 52
91 -5 0 -10 -8 -10 -17z"/>
<path d="M2550 2585 c0 -9 -14 -30 -31 -46 -20 -18 -29 -35 -25 -45 3 -8 10
-12 16 -9 6 4 8 10 6 14 -3 4 8 22 23 40 l28 33 1 -31 c0 -20 -4 -31 -13 -31
-8 0 -16 -4 -19 -9 -4 -5 2 -8 11 -6 10 2 23 4 29 4 15 1 7 69 -11 87 -13 14
-15 14 -15 -1z"/>
<path d="M1314 2559 c-13 -26 -14 -39 -3 -82 10 -47 38 -113 39 -95 0 4 -7 39
-15 79 -9 40 -14 74 -12 75 2 2 13 -5 24 -16 12 -10 24 -16 27 -13 8 9 82 -63
107 -103 11 -19 21 -55 23 -90 2 -33 2 -49 -1 -36 -3 17 -9 22 -21 17 -14 -5
-15 -4 -4 6 6 7 12 20 12 28 0 11 -3 11 -19 -3 -17 -16 -18 -16 -17 4 0 11 7
24 14 29 14 8 6 41 -10 41 -5 0 -6 -4 -3 -10 8 -12 -23 -16 -55 -7 -8 2 -13 2
-10 0 3 -2 4 -19 2 -37 -2 -19 1 -43 7 -53 10 -17 10 -17 11 0 0 22 21 22 49
-2 12 -11 22 -21 22 -23 0 -2 2 -13 5 -25 4 -15 11 -20 22 -16 12 5 14 2 9
-11 -4 -10 -7 -25 -7 -34 0 -10 -8 -2 -17 16 -8 18 -18 31 -20 28 -3 -2 0 -13
6 -23 7 -15 7 -20 -4 -20 -8 0 -13 4 -12 9 1 5 -9 17 -23 26 -17 10 -21 11
-12 2 6 -8 12 -22 12 -31 0 -22 24 -41 36 -29 6 6 11 -11 12 -47 2 -52 1 -56
-12 -38 -14 19 -14 19 -13 -5 0 -14 -2 -34 -6 -45 -7 -21 7 -54 19 -42 4 3 1
13 -6 22 -11 13 -10 14 2 10 12 -5 21 16 42 96 25 93 27 111 21 210 l-8 108
-93 81 c-51 44 -95 80 -98 80 -3 0 -13 -14 -22 -31z"/>
<path d="M862 2568 c-7 -7 -12 -20 -12 -29 0 -20 88 -194 121 -239 27 -37 119
-89 119 -67 0 25 -30 133 -62 219 -30 83 -34 87 -72 102 -69 25 -81 27 -94 14z
m104 -70 c13 -12 24 -27 24 -34 0 -7 7 -17 16 -22 13 -7 14 -13 5 -31 -7 -11
-9 -21 -5 -21 3 0 1 -6 -5 -14 -8 -10 -9 -16 -1 -21 6 -4 9 -1 8 6 -2 6 3 14
10 16 8 3 12 -1 11 -8 -2 -8 3 -25 10 -38 7 -13 17 -37 22 -54 l8 -30 -23 22
c-17 16 -25 19 -28 10 -6 -19 -53 47 -77 109 -12 29 -28 64 -37 77 -9 13 -13
29 -10 34 4 5 2 12 -4 16 -5 3 -10 13 -10 21 0 12 4 12 31 -1 16 -9 41 -26 55
-37z"/>
<path d="M1648 2562 c-20 -4 -23 -17 -7 -28 12 -7 33 10 28 23 -2 5 -12 7 -21
5z"/>
<path d="M424 2545 c-29 -12 -54 -50 -54 -81 0 -28 28 -70 55 -82 41 -19 74
-14 102 14 21 21 25 32 20 66 -9 69 -66 107 -123 83z m57 -25 c33 -18 21 -25
-33 -21 -47 3 -50 4 -33 17 22 17 40 18 66 4z m40 -50 c5 0 9 -13 9 -30 0 -20
-8 -34 -24 -45 -22 -14 -27 -14 -65 1 -50 20 -43 39 12 30 l40 -7 -7 32 c-5
26 -3 30 10 25 9 -3 20 -6 25 -6z"/>
<path d="M1697 2502 l-38 -39 17 -61 c18 -63 28 -71 65 -52 27 15 24 -3 -8
-41 l-28 -33 27 18 c34 22 35 25 37 129 2 82 -7 117 -28 117 -4 0 -24 -17 -44
-38z m47 -34 c10 -37 7 -83 -6 -96 -15 -15 -32 -16 -23 -2 3 6 1 10 -5 10 -7
0 -10 6 -7 13 2 6 0 20 -5 29 -6 12 -3 26 8 43 20 31 30 32 38 3z"/>
<path d="M1150 2508 c0 -13 -3 -32 -6 -44 -3 -12 2 -30 14 -44 15 -19 24 -22
54 -16 43 8 50 21 41 81 l-6 45 -48 0 c-44 0 -49 -2 -49 -22z m65 -28 c-5 -14
-2 -20 10 -20 9 0 15 -6 12 -12 -5 -15 -79 -16 -84 -1 -2 5 8 15 22 21 14 6
25 16 25 22 0 5 5 10 11 10 6 0 8 -9 4 -20z"/>
<path d="M89 2483 c12 -18 26 -33 31 -33 5 0 15 -6 22 -13 7 -6 32 -24 56 -40
66 -43 49 -15 -20 33 -35 24 -74 53 -87 64 l-25 21 23 -32z"/>
<path d="M1831 2474 c-25 -32 -25 -35 -7 -79 10 -24 22 -35 35 -35 72 0 121
88 69 124 -34 24 -73 20 -97 -10z m29 2 c-8 -11 -9 -20 -1 -33 10 -16 10 -16
11 4 0 30 31 46 55 29 16 -12 17 -17 6 -45 -8 -19 -23 -34 -37 -37 -26 -7 -54
10 -54 31 0 8 -5 15 -10 17 -13 4 17 48 32 48 7 0 6 -5 -2 -14z"/>
<path d="M2375 2479 c-16 -4 -38 -19 -48 -31 -33 -41 -117 -170 -117 -180 0
-6 14 -7 33 -3 48 10 118 43 115 54 -2 5 1 9 6 9 12 1 85 124 86 145 0 19 -25
21 -75 6z m39 -27 c5 -9 -58 -107 -71 -108 -21 -2 -43 -17 -43 -30 0 -8 -7
-14 -16 -14 -11 0 -14 6 -8 23 10 34 33 75 45 83 8 4 9 3 5 -4 -4 -7 -3 -12 3
-12 6 0 17 13 26 29 17 35 47 51 59 33z"/>
<path d="M2551 2481 c-7 -5 -11 -13 -7 -19 3 -6 -1 -15 -10 -20 -10 -5 -12
-12 -6 -16 12 -7 27 10 36 42 8 24 7 26 -13 13z"/>
<path d="M560 2439 c0 -11 -14 -34 -30 -51 -32 -31 -34 -43 -8 -33 8 3 22 20
31 38 l16 32 -5 -41 c-5 -34 -2 -45 21 -72 37 -44 109 -85 135 -77 45 14 8
138 -52 175 -24 14 -42 18 -67 14 -30 -6 -33 -5 -26 15 4 12 2 21 -4 21 -6 0
-11 -9 -11 -21z m109 -76 c41 -46 65 -101 51 -116 -7 -8 -70 18 -70 29 0 2 13
-2 30 -11 54 -28 45 -15 -20 28 -79 52 -98 78 -75 101 25 25 40 20 84 -31z"/>
<path d="M2150 2450 c-12 -8 -9 -10 10 -8 23 3 25 -1 28 -40 3 -46 -16 -65
-43 -42 -8 7 -15 8 -15 3 0 -18 24 -33 52 -33 27 0 28 2 28 46 0 71 -22 99
-60 74z"/>
<path d="M1590 2431 c0 -10 -7 -35 -15 -54 -8 -20 -15 -49 -14 -64 1 -21 4
-17 11 17 12 52 16 59 27 42 5 -8 8 6 9 32 0 26 -4 46 -9 46 -5 0 -9 -8 -9
-19z"/>
<path d="M2712 2412 c-30 -54 -44 -122 -26 -122 12 0 12 -4 4 -20 -6 -11 -16
-17 -22 -14 -7 4 -8 3 -4 -4 9 -14 35 -15 55 -3 12 8 12 12 -2 26 -17 17 -14
40 4 30 5 -4 9 -2 9 3 0 16 -13 22 -27 11 -17 -15 -17 -5 2 31 9 17 23 30 32
30 14 0 14 -2 -3 -14 -16 -12 -17 -17 -6 -28 11 -11 12 -10 6 5 -6 17 -3 18
30 13 27 -4 36 -2 36 8 0 8 -7 17 -16 20 -8 3 -12 2 -9 -3 3 -5 1 -12 -5 -16
-5 -3 -10 1 -10 9 0 9 -8 16 -17 16 -15 0 -15 1 2 14 11 8 16 19 12 30 -10 25
-21 19 -45 -22z"/>
<path d="M2601 2426 c-15 -18 -4 -64 18 -75 19 -10 56 2 63 21 3 8 0 22 -8 33
-11 15 -11 20 -1 27 7 5 -2 8 -24 8 -20 0 -42 -6 -48 -14z"/>
<path d="M724 2415 c-4 -10 -1 -21 7 -26 23 -14 31 -10 27 13 -4 27 -26 35
-34 13z"/>
<path d="M831 2405 c-2 -26 -24 -55 -42 -55 -8 0 -6 -6 7 -15 11 -8 14 -15 7
-15 -7 0 -13 -10 -13 -22 0 -19 2 -20 10 -8 9 13 11 13 19 1 5 -8 7 -20 4 -28
-3 -7 0 -13 6 -13 6 0 11 -8 11 -17 0 -14 3 -14 12 -5 10 10 10 15 -1 22 -8 4
-16 14 -17 22 -13 60 -14 81 -4 93 6 8 10 24 7 37 -4 20 -5 20 -6 3z"/>
<path d="M301 2374 c-17 -14 -31 -33 -31 -42 0 -14 2 -15 9 -3 8 12 12 10 21
-11 15 -31 69 -73 80 -62 11 12 19 103 10 109 -14 8 -32 -24 -28 -48 7 -34
-27 -32 -52 3 -23 32 -25 43 -7 37 6 -2 17 3 24 12 11 14 12 14 13 -3 0 -15 3
-16 15 -6 8 7 15 19 15 26 0 22 -36 16 -69 -12z"/>
<path d="M1222 2368 c-7 -7 -12 -17 -12 -24 0 -7 -5 -14 -12 -16 -9 -3 -9 -6
0 -12 7 -4 12 -2 12 3 0 6 5 11 10 11 16 0 12 -30 -5 -36 -15 -6 -22 -54 -7
-54 4 0 6 -25 6 -55 -1 -30 2 -52 7 -49 5 3 9 -1 10 -8 0 -7 4 -4 8 7 6 14 4
23 -7 29 -11 6 -12 10 -2 16 8 5 9 13 4 21 -5 8 -7 24 -5 37 1 13 -3 22 -11
22 -9 1 -7 5 4 14 10 7 15 16 11 19 -3 4 -1 7 5 7 7 0 9 13 6 37 -5 44 -7 46
-22 31z"/>
<path d="M1351 2352 c-2 -45 54 -241 65 -230 2 3 0 18 -6 33 -6 15 -17 60 -26
101 -8 41 -19 85 -24 97 l-9 22 0 -23z"/>
<path d="M2780 2331 c0 -5 5 -13 12 -17 7 -5 8 -3 3 6 -5 8 -4 11 3 6 16 -10
6 -28 -27 -51 -28 -18 -32 -35 -10 -35 6 0 7 5 4 10 -3 6 0 10 8 10 21 0 49
36 45 57 -3 19 -38 32 -38 14z"/>
<path d="M9 2313 c-1 -17 1 -39 6 -73 1 -8 11 -16 22 -18 16 -2 20 3 20 28 0
26 -4 31 -19 27 -18 -5 -22 2 -19 36 1 9 0 17 -3 17 -3 0 -7 -8 -7 -17z"/>
<path d="M38 2308 c3 -14 7 -16 13 -7 6 10 11 10 23 0 12 -10 13 -17 5 -27 -6
-8 -8 -26 -4 -43 4 -17 6 -33 6 -36 -3 -14 82 -150 109 -175 11 -11 31 -58 54
-130 29 -89 63 -167 76 -175 15 -9 12 1 -11 48 -19 36 -79 198 -79 212 0 3 13
-4 29 -16 68 -50 95 9 35 79 -20 24 -39 40 -42 37 -3 -3 8 -20 25 -38 36 -38
44 -59 32 -78 -13 -20 -172 146 -164 171 3 9 -2 23 -10 30 -9 7 -21 23 -27 34
-10 19 -10 20 5 7 14 -11 17 -11 17 0 0 8 11 0 25 -17 14 -18 36 -35 50 -38
16 -4 23 -11 19 -18 -4 -6 -3 -8 4 -4 6 3 18 -4 26 -16 9 -12 16 -19 16 -14 0
4 -9 21 -21 37 -11 16 -17 29 -12 29 14 0 179 -159 166 -160 -21 0 -15 -16 11
-28 20 -9 23 -17 21 -50 -3 -53 3 -60 53 -68 37 -6 42 -5 36 10 -5 12 -10 14
-17 7 -16 -16 -27 -14 -27 4 0 22 19 27 72 17 25 -5 52 -5 60 -1 15 10 68 -44
68 -70 0 -9 30 -35 69 -59 38 -24 99 -69 137 -102 38 -32 71 -57 75 -55 3 2 3
21 0 42 -4 26 -6 31 -9 16 -4 -27 -6 -28 -38 -6 -23 14 -25 21 -20 55 6 34 4
38 -14 38 -12 0 -19 -4 -16 -8 3 -5 -1 -9 -9 -9 -8 0 -13 2 -10 5 5 5 -20 32
-30 32 -3 0 -3 -5 1 -11 4 -7 -1 -10 -12 -7 -10 2 -21 16 -26 34 -4 17 -14 37
-22 43 -11 9 -13 6 -11 -14 5 -39 -10 -38 -33 3 -12 21 -30 46 -41 56 -11 10
-23 31 -26 46 -4 16 -13 30 -21 32 -8 2 -32 37 -52 78 -34 69 -42 78 -101 112
-35 20 -68 35 -72 32 -11 -7 0 -61 24 -112 24 -53 69 -92 110 -94 18 0 38 -2
45 -2 7 -1 19 -14 27 -29 l14 -27 -55 0 c-34 0 -53 4 -49 10 3 6 -1 7 -9 4 -9
-3 -16 -1 -16 5 0 7 -10 9 -26 5 -18 -5 -25 -3 -20 4 6 10 -1 30 -33 90 -26
50 -140 144 -168 139 -15 -3 -30 5 -45 21 -13 13 -42 38 -66 54 -35 24 -41 32
-31 44 6 8 9 17 5 21 -3 3 -6 1 -6 -6 0 -9 -4 -9 -14 1 -8 7 -13 15 -11 18 2
3 -7 6 -20 6 -18 1 -21 -2 -17 -18z m444 -213 c16 6 41 -13 57 -43 12 -22 11
-23 -8 -13 -30 17 -35 13 -17 -14 16 -24 16 -25 -7 -25 -35 0 -54 19 -76 78
-28 72 -26 83 9 45 16 -18 35 -31 42 -28z"/>
<path d="M2003 2314 c0 -7 5 -10 10 -7 11 7 0 -217 -12 -251 -5 -12 -11 -34
-15 -50 -6 -25 -5 -28 7 -18 11 10 17 9 27 -3 7 -8 18 -15 24 -15 6 0 -2 10
-17 23 -38 30 -29 61 17 52 28 -5 29 -4 9 7 -33 16 -29 23 22 42 25 10 43 22
39 27 -3 5 -1 9 3 9 5 0 9 10 10 23 0 12 -1 16 -4 10 -3 -7 -9 -13 -15 -13 -6
0 -8 7 -4 15 3 8 1 15 -5 15 -6 0 -9 -12 -7 -27 2 -22 -1 -29 -19 -31 -26 -4
-31 15 -22 78 5 32 2 56 -9 82 -17 39 -39 57 -39 32z"/>
<path d="M2853 2284 c-15 -14 -22 -23 -15 -19 19 10 14 -1 -18 -35 -26 -28
-28 -33 -15 -47 8 -8 15 -26 15 -40 0 -29 13 -24 15 5 1 20 55 101 67 102 10
0 -17 -87 -34 -108 -7 -9 -21 -23 -30 -30 -10 -7 -18 -17 -18 -23 0 -13 23 -7
38 11 11 13 11 11 2 -8 -6 -12 -15 -20 -19 -18 -4 3 -19 -6 -32 -21 -19 -21
-20 -25 -6 -20 13 5 16 3 11 -6 -26 -42 -174 -245 -188 -256 -9 -7 -16 -19
-16 -25 0 -6 -16 -31 -35 -55 -35 -44 -48 -76 -19 -47 8 9 20 13 25 10 12 -7
43 19 72 61 17 26 15 25 -21 -10 -76 -71 -44 -22 40 62 61 61 79 86 71 94 -8
8 9 40 64 123 86 127 116 183 133 246 11 41 10 46 -10 62 -30 24 -44 23 -77
-8z m17 -52 c0 -12 -39 -46 -45 -41 -6 7 24 49 36 49 5 0 9 -4 9 -8z"/>
<path d="M2153 2285 c4 -8 2 -17 -3 -20 -4 -3 -10 0 -12 6 -2 6 -9 0 -16 -15
-14 -30 -7 -32 48 -11 19 7 27 14 18 14 -11 1 -18 9 -18 21 0 11 -5 20 -11 20
-6 0 -9 -7 -6 -15z"/>
<path d="M2422 2288 c-17 -17 -15 -32 6 -51 24 -22 56 -22 73 0 11 13 11 17 2
20 -7 3 -13 11 -13 19 0 8 -4 14 -10 14 -5 0 -10 -8 -10 -19 0 -25 -35 -35
-37 -10 -1 11 5 19 13 19 8 0 12 5 9 10 -8 13 -18 13 -33 -2z"/>
<path d="M506 2269 c-24 -19 -38 -48 -16 -34 6 3 10 1 10 -5 0 -6 5 -8 11 -5
6 4 8 13 5 21 -3 9 1 14 13 14 10 0 18 7 18 15 0 20 -9 19 -41 -6z"/>
<path d="M1970 2275 c-7 -8 -16 -12 -21 -10 -11 7 -49 -17 -49 -30 0 -6 -9
-18 -20 -28 -19 -16 -20 -16 -21 1 0 11 -5 7 -14 -12 -13 -32 -52 -48 -40 -18
17 45 16 68 -5 87 -31 28 -55 10 -55 -41 0 -31 5 -41 23 -49 24 -11 30 -40 9
-48 -7 -3 -19 -25 -27 -48 -9 -29 -15 -38 -18 -26 -2 12 -16 -6 -40 -55 -32
-63 -37 -69 -40 -46 -2 14 -9 32 -17 38 -12 10 -12 5 -3 -26 5 -21 8 -52 5
-69 -8 -47 -37 -111 -45 -99 -4 6 -16 16 -28 22 -17 9 -25 6 -48 -18 -15 -16
-28 -40 -30 -53 -1 -12 -6 -28 -10 -35 -4 -7 -4 -12 1 -12 4 0 1 -5 -8 -10
-12 -7 -17 -26 -18 -72 -1 -35 -3 -75 -5 -90 -2 -16 1 -28 7 -28 5 0 5 -5 -2
-13 -6 -8 -8 -17 -4 -20 3 -4 -1 -7 -11 -7 -14 0 -14 -2 -4 -14 18 -19 49 3
74 52 10 20 22 39 25 42 3 3 12 15 18 28 11 20 10 27 -5 43 -21 23 -30 24 -38
3 -3 -8 -2 -12 3 -9 27 16 8 -84 -23 -124 -15 -20 -24 57 -13 126 8 61 72 207
86 199 9 -6 27 -79 33 -137 3 -26 4 -25 36 17 l33 44 -31 0 c-28 0 -30 2 -24
28 10 51 92 207 143 274 58 77 99 120 190 201 36 31 60 57 54 57 -6 0 -16 -7
-23 -15z m-186 -51 c3 -9 3 -20 0 -25 -8 -13 -34 9 -34 27 0 19 26 18 34 -2z"/>
<path d="M1629 2263 c0 -10 -3 -49 -8 -86 -4 -42 -3 -71 2 -74 6 -3 7 -1 3 5
-9 14 -1 15 23 3 9 -5 23 -6 30 -1 10 6 8 9 -8 15 -11 3 -21 13 -21 21 0 19
39 18 47 -2 5 -13 7 -13 14 -2 5 7 9 8 9 2 0 -6 -10 -24 -21 -39 -19 -23 -27
-26 -55 -20 -31 5 -34 4 -34 -20 0 -14 6 -28 14 -31 35 -13 116 59 116 103 -1
10 -8 29 -16 43 -14 23 -15 23 -11 3 4 -19 2 -20 -13 -10 -14 8 -25 8 -44 -1
-37 -17 -33 5 4 26 38 21 38 35 0 62 -28 20 -30 20 -31 3z"/>
<path d="M397 2254 c-13 -14 -7 -22 13 -17 23 6 28 -13 5 -20 -11 -4 -10 -4 2
-3 22 2 24 40 3 44 -9 1 -19 0 -23 -4z"/>
<path d="M2313 2223 c-8 -25 -52 -83 -62 -83 -5 0 -6 11 -3 25 l5 26 -31 -31
c-17 -16 -39 -30 -50 -30 -21 0 -40 -32 -23 -38 5 -2 0 -19 -11 -38 -20 -35
-35 -46 -24 -19 3 8 2 15 -2 15 -7 0 -35 -64 -37 -82 0 -4 -7 -13 -16 -20 -8
-7 -27 -31 -41 -53 -14 -22 -70 -91 -124 -153 -55 -62 -121 -141 -147 -175
-27 -34 -61 -75 -77 -92 -15 -16 -42 -56 -60 -87 -29 -53 -50 -73 -50 -49 0
15 81 160 93 168 7 5 25 26 41 47 16 22 24 36 16 31 -7 -4 -2 6 11 24 23 31
37 42 23 19 -4 -7 5 -2 20 12 45 41 127 157 132 187 3 15 12 39 21 53 15 22
15 24 1 12 -22 -17 -51 -80 -43 -92 3 -6 -1 -10 -9 -10 -9 0 -16 -5 -16 -11 0
-5 -4 -8 -9 -4 -5 3 -13 0 -17 -6 -5 -8 -3 -9 6 -4 8 5 11 3 8 -6 -3 -8 -10
-13 -16 -12 -22 5 -210 -231 -265 -332 -33 -61 -67 -155 -67 -188 0 -60 21
-151 38 -163 16 -12 16 -13 0 -19 -14 -5 -15 -12 -7 -32 8 -22 8 -24 -5 -14
-13 11 -13 9 -4 -17 9 -22 14 -27 24 -18 8 8 9 19 2 36 -7 18 -5 27 6 36 21
15 20 32 -4 86 -17 38 -18 49 -7 84 7 22 20 49 30 59 10 10 29 42 42 70 12 29
29 56 36 60 9 6 11 4 6 -8 -4 -11 -2 -14 8 -11 7 3 16 16 19 30 4 13 11 24 17
24 6 0 7 5 3 11 -5 8 1 10 20 7 20 -4 24 -2 16 7 -13 15 3 30 20 20 9 -6 15 8
11 29 -1 5 5 3 14 -4 9 -7 15 -9 14 -4 -5 19 14 44 33 44 16 0 18 3 9 14 -9
11 -8 15 5 20 9 3 20 4 25 1 5 -4 6 1 3 9 -4 10 -1 16 9 16 9 0 28 5 44 11 21
8 24 12 13 19 -18 11 -62 -7 -128 -54 -66 -46 -68 -31 -3 23 26 22 68 66 92
98 73 99 206 211 307 262 39 20 62 38 63 49 0 10 3 12 6 5 8 -22 21 -14 16 10
-10 47 -12 50 -27 38 -7 -6 -16 -24 -19 -40 -5 -23 -13 -30 -40 -35 -18 -3
-43 -15 -55 -27 -15 -13 -27 -17 -37 -11 -13 7 -9 16 20 57 20 28 40 49 46 47
6 -1 8 2 4 7 -3 6 3 19 14 30 11 11 18 21 16 23 -5 5 23 9 80 11 47 2 56 10
28 25 -15 9 -15 13 5 46 12 20 17 38 11 41 -5 4 -12 -2 -16 -12z m-230 -303
c3 -11 1 -17 -4 -14 -5 3 -19 -5 -30 -18 -22 -25 -22 -19 0 25 17 32 27 34 34
7z m-293 -235 c-18 -26 -34 -44 -37 -41 -3 2 -1 11 3 18 5 7 9 15 9 18 1 9 48
60 53 56 2 -3 -10 -25 -28 -51z"/>
<path d="M875 2193 c5 -23 4 -26 -6 -15 -19 18 -29 15 -29 -10 0 -20 -1 -21
-20 -3 -16 14 -20 15 -20 4 0 -33 22 -39 59 -17 20 12 37 22 38 23 7 3 -11 45
-19 45 -6 0 -7 -11 -3 -27z"/>
<path d="M2165 2199 c-7 -11 0 -23 16 -25 22 -3 23 -6 4 -15 -20 -9 -20 -9 0
-6 29 3 35 57 6 57 -11 0 -23 -5 -26 -11z"/>
<path d="M2760 2195 c0 -8 -7 -15 -15 -15 -15 0 -18 -10 -30 -85 -7 -45 -93
-235 -107 -235 -10 0 -10 -2 1 38 11 37 -4 51 -36 36 -10 -4 -21 -7 -24 -6
-10 2 -8 -57 2 -64 5 -3 9 -2 8 3 -3 20 2 23 16 9 16 -15 20 -63 7 -82 -10
-15 -51 -36 -87 -45 l-30 -7 30 -1 c48 -2 91 32 120 94 18 36 32 55 44 55 18
0 71 101 86 163 10 38 23 34 28 -10 3 -30 4 -28 4 11 -1 38 -5 50 -19 54 -24
6 -23 21 4 49 26 28 32 53 12 53 -8 0 -14 -7 -14 -15z"/>
<path d="M2344 2176 c-3 -13 -7 -41 -8 -63 -1 -21 -9 -53 -19 -70 -13 -25 -14
-33 -4 -33 7 0 17 4 23 9 9 8 161 61 177 61 4 0 7 -4 7 -9 0 -15 -80 -182
-103 -214 -10 -16 -17 -30 -14 -33 7 -7 59 85 113 202 25 54 52 102 59 107 11
5 7 15 -15 39 -16 18 -33 29 -37 25 -4 -4 3 -14 15 -23 27 -18 28 -36 4 -57
-26 -23 -39 -21 -68 10 -14 15 -22 20 -18 10 3 -10 1 -23 -5 -31 -6 -7 -7 -17
-3 -21 4 -5 0 -6 -10 -2 -9 3 -19 3 -22 -1 -16 -15 -36 -9 -36 11 0 17 2 19 9
8 12 -19 26 51 16 76 -7 17 -8 16 -15 -2 -4 -11 -14 -42 -22 -70 l-14 -50 2
62 c1 33 5 66 8 72 4 6 3 11 -3 11 -6 0 -13 -11 -17 -24z"/>
<path d="M660 2182 c0 -7 -7 -9 -17 -5 -10 4 -14 2 -10 -4 8 -13 57 -24 57
-13 0 4 -7 13 -15 20 -10 8 -15 9 -15 2z"/>
<path d="M2477 2178 c4 -7 8 -17 8 -22 0 -14 33 -31 42 -22 4 4 -1 14 -12 23
-11 8 -19 19 -17 24 1 5 -5 9 -14 9 -10 0 -12 -4 -7 -12z"/>
<path d="M940 2173 c0 -3 32 -38 71 -77 39 -39 81 -92 94 -118 l23 -47 -30 15
c-39 20 -48 11 -10 -11 25 -15 49 -48 115 -157 9 -16 18 -40 19 -54 1 -13 5
-24 9 -24 11 0 19 -44 9 -50 -4 -3 9 -13 31 -22 33 -14 39 -14 39 -2 0 8 -9
14 -19 14 -26 0 -33 13 -36 64 -2 29 -14 60 -38 97 -20 30 -52 94 -72 143 -44
110 -61 134 -135 191 -58 45 -70 51 -70 38z"/>
<path d="M870 2131 c-8 -15 -17 -20 -30 -16 -48 15 -62 15 -55 -3 3 -9 7 -21
8 -27 1 -5 31 -26 67 -45 36 -19 80 -45 97 -58 l33 -23 -30 63 c-17 35 -33 78
-36 96 -5 24 -9 30 -15 20 -8 -11 -10 -11 -18 1 -7 11 -11 9 -21 -8z m26 -73
c4 -7 -2 -5 -13 5 -16 14 -22 15 -26 5 -3 -7 -6 -4 -6 8 -1 11 5 26 11 32 10
10 14 8 19 -12 4 -13 10 -30 15 -38z"/>
<path d="M1957 2144 c-10 -10 -9 -44 2 -44 13 0 23 32 13 42 -5 5 -11 5 -15 2z"/>
<path d="M2616 2111 c12 -23 51 -48 60 -38 5 5 -23 33 -48 49 l-26 17 14 -28z"/>
<path d="M1211 2090 c13 -16 29 -30 36 -30 7 0 13 -6 13 -12 0 -23 -17 -40
-35 -36 -23 4 -32 28 -11 28 9 0 16 5 16 10 0 11 -11 13 -34 4 -21 -8 -1 -51
28 -60 21 -7 21 -7 1 -14 -19 -7 -18 -9 8 -19 24 -9 33 -27 28 -54 -3 -14 38
-75 54 -81 21 -8 19 3 -10 49 -13 22 -25 48 -25 58 0 9 -4 17 -9 17 -15 0 -23
51 -10 66 11 14 5 80 -9 87 -4 2 -20 7 -35 11 l-28 7 22 -31z"/>
<path d="M1890 2078 c0 -28 -3 -38 -9 -29 -7 10 -10 10 -16 1 -8 -13 10 -30
32 -30 6 0 19 -7 28 -16 14 -15 14 -17 -2 -30 -23 -18 -34 -17 -27 0 6 15 -42
54 -52 43 -11 -11 7 -46 27 -52 11 -4 16 -11 12 -18 -4 -6 8 -2 27 10 32 20
34 25 31 65 -3 42 -28 98 -43 98 -4 0 -8 -19 -8 -42z"/>
<path d="M1298 2060 c-4 -14 -8 -34 -8 -45 1 -19 1 -19 11 -2 6 10 9 30 7 45
l-3 27 -7 -25z"/>
<path d="M747 2063 c-11 -10 -8 -25 2 -18 12 7 26 -59 17 -74 -8 -12 13 -56
43 -90 12 -13 21 -30 21 -37 0 -7 10 -23 23 -34 l22 -22 -26 12 c-15 7 -42 36
-60 66 -47 75 -105 91 -108 29 0 -5 3 -4 8 4 7 11 12 10 22 -8 14 -24 145
-115 180 -126 10 -4 19 -10 19 -14 0 -3 20 -28 45 -54 25 -27 45 -52 45 -58 0
-5 5 -9 10 -9 18 0 11 15 -25 57 -19 22 -31 44 -27 48 4 5 2 5 -5 1 -24 -13
-142 177 -171 276 -17 57 -22 65 -35 51z m13 -183 c6 -11 7 -20 3 -20 -14 0
-30 15 -42 38 -12 22 -11 23 8 13 11 -7 25 -20 31 -31z"/>
<path d="M2558 2038 c5 -5 28 -12 52 -15 28 -4 37 -9 28 -14 -10 -7 -9 -9 4
-9 21 0 34 19 16 25 -32 12 -109 22 -100 13z"/>
<path d="M1798 2015 c-3 -6 -9 -28 -13 -50 l-6 -40 16 34 c15 33 17 78 3 56z"/>
<path d="M703 1983 c2 -21 8 -29 25 -31 16 -3 20 0 16 12 -3 9 -10 16 -15 16
-5 0 -9 7 -9 15 0 8 -4 15 -9 15 -6 0 -9 -12 -8 -27z"/>
<path d="M1546 1995 c-3 -9 -10 -14 -15 -10 -5 3 -12 1 -16 -5 -3 -5 -1 -10 5
-10 8 0 10 -9 6 -24 -3 -12 -3 -26 1 -30 4 -4 12 15 19 41 12 47 12 69 0 38z"/>
<path d="M2449 1983 c-18 -50 -18 -53 -14 -53 7 0 45 62 45 73 0 18 -22 4 -31
-20z"/>
<path d="M190 1960 c-13 -9 -13 -12 3 -24 9 -7 17 -25 17 -40 0 -14 4 -26 9
-26 11 0 35 -69 27 -77 -7 -7 -66 17 -67 28 -1 5 -2 15 -3 22 -1 18 -20 36
-30 29 -5 -3 -6 13 -2 39 5 33 4 41 -4 33 -21 -21 -14 -101 14 -148 29 -50 32
-60 14 -51 -7 4 -2 -3 12 -15 21 -19 18 -18 -22 4 -51 28 -63 23 -26 -11 42
-38 98 -57 98 -33 0 5 -13 31 -30 56 -31 50 -32 68 -3 42 17 -15 77 -48 87
-48 2 0 -7 28 -21 63 -14 34 -33 85 -42 114 -13 43 -19 51 -31 43z"/>
<path d="M1800 1935 c-10 -30 -10 -40 1 -51 12 -11 17 -9 35 11 l22 24 -23 27
-23 26 -12 -37z"/>
<path d="M1402 1903 c1 -43 2 -48 5 -20 2 20 8 37 13 37 4 0 6 9 3 20 -11 40
-23 18 -21 -37z"/>
<path d="M993 1933 c6 -25 -2 -30 -20 -12 -7 7 -12 6 -16 -4 -4 -10 10 -22 44
-38 27 -12 55 -29 61 -36 6 -7 14 -13 19 -13 5 0 -12 26 -37 58 -59 72 -58 71
-51 45z"/>
<path d="M1573 1935 c-3 -9 -3 -19 1 -22 3 -4 6 1 6 11 0 9 5 14 10 11 7 -4 6
-13 -1 -26 -9 -18 -8 -20 8 -17 22 4 30 37 11 49 -19 13 -28 11 -35 -6z"/>
<path d="M2357 1944 c-4 -4 1 -13 11 -20 16 -13 14 -16 -17 -45 l-33 -31 -13
24 c-6 13 -8 27 -3 33 17 19 7 24 -12 5 -15 -15 -18 -25 -11 -42 5 -13 12 -31
15 -41 5 -16 10 -15 49 12 24 16 51 41 61 55 16 25 16 26 -3 26 -11 0 -24 7
-29 15 -4 9 -11 13 -15 9z"/>
<path d="M1727 1934 c-9 -9 12 -60 33 -79 17 -15 20 -15 25 -3 8 20 -16 63
-35 63 -8 0 -14 6 -12 13 2 13 -1 15 -11 6z"/>
<path d="M2850 1918 c23 -25 25 -35 8 -41 -7 -2 -1 -4 15 -4 28 -1 37 14 13
23 -8 3 -12 13 -9 25 4 15 0 19 -21 19 l-27 0 21 -22z"/>
<path d="M0 1906 c0 -8 9 -20 20 -26 11 -6 20 -16 20 -22 0 -9 -3 -9 -12 0 -7
7 -17 12 -22 12 -6 0 -3 -5 7 -11 9 -6 15 -14 12 -19 -3 -5 0 -12 6 -16 7 -4
9 -3 6 3 -4 6 0 13 8 17 23 8 17 28 -16 54 -23 19 -29 20 -29 8z"/>
<path d="M1830 1854 c-30 -25 -54 -49 -52 -55 1 -6 -1 -8 -6 -5 -7 4 -120
-112 -162 -168 -28 -36 -81 -136 -72 -136 4 0 26 28 47 62 68 106 100 151 107
147 11 -7 58 43 51 54 -3 6 -2 7 4 4 10 -6 150 129 142 137 -3 3 -30 -15 -59
-40z"/>
<path d="M2238 1883 c-25 -6 -22 -40 3 -48 11 -4 23 -4 26 -1 4 3 1 6 -6 6 -9
0 -11 8 -7 25 4 14 5 24 4 24 -2 -1 -11 -3 -20 -6z"/>
<path d="M573 1869 c4 -13 1 -15 -14 -12 -10 3 -19 1 -19 -5 0 -5 13 -12 29
-15 16 -3 42 -9 57 -13 27 -7 28 -6 14 11 -13 17 -13 18 0 10 9 -5 8 0 -4 13
-19 22 -43 31 -31 12 9 -14 -8 -12 -24 3 -11 10 -13 9 -8 -4z"/>
<path d="M1713 1856 c4 -10 1 -16 -8 -16 -14 0 -19 -12 -16 -32 0 -5 -5 -8
-11 -8 -7 0 -4 -6 6 -12 15 -8 21 -8 24 0 2 7 9 12 17 12 28 0 31 25 7 49 -16
15 -23 18 -19 7z"/>
<path d="M2120 1850 c0 -10 5 -20 11 -22 8 -3 5 -10 -6 -22 -10 -9 -24 -15
-31 -12 -7 3 -16 0 -20 -6 -4 -7 -3 -8 4 -4 7 4 12 2 12 -3 0 -6 -9 -11 -20
-11 -11 0 -28 -9 -37 -20 -10 -11 -23 -20 -30 -20 -7 0 -13 -4 -13 -10 0 -5 2
-10 4 -10 2 0 11 -3 20 -6 10 -4 16 -1 16 8 0 8 11 20 25 26 14 6 24 8 24 4
-1 -4 -1 -16 0 -27 2 -19 3 -19 13 3 14 27 33 23 32 -7 0 -11 3 -21 8 -21 4 0
8 11 8 24 0 14 5 28 11 32 6 3 8 16 5 27 -3 12 0 27 6 34 7 9 7 13 -1 13 -6 0
-10 10 -8 21 1 14 -4 23 -15 24 -12 2 -18 -3 -18 -15z"/>
<path d="M2841 1848 c-1 -17 -11 -22 -38 -19 -7 1 -13 -3 -13 -9 0 -6 5 -8 11
-4 6 3 10 -1 9 -12 -4 -36 0 -44 24 -44 27 0 61 43 52 66 -6 16 -26 19 -26 3
0 -5 5 -7 12 -3 7 5 8 3 3 -5 -9 -15 -21 -4 -28 24 -4 16 -5 17 -6 3z"/>
<path d="M980 1810 c32 -41 52 -46 43 -10 -4 16 -52 50 -70 50 -3 0 10 -18 27
-40z"/>
<path d="M59 1817 c-17 -22 -17 -22 -38 -3 -11 11 -21 15 -21 10 0 -11 36 -44
49 -44 11 0 41 34 41 48 0 18 -13 14 -31 -11z"/>
<path d="M2924 1813 c-30 -44 -45 -76 -39 -81 6 -7 7 -6 39 46 14 23 31 42 37
42 5 0 7 5 4 10 -10 16 -22 12 -41 -17z"/>
<path d="M2180 1793 c0 -16 6 -18 35 -15 37 4 49 22 16 22 -11 0 -26 3 -35 6
-11 4 -16 0 -16 -13z"/>
<path d="M2990 1791 c0 -33 -11 -50 -46 -72 -19 -11 -41 -37 -49 -57 -22 -51
-11 -51 20 1 16 29 37 49 55 56 27 9 30 15 30 50 0 23 -2 41 -5 41 -3 0 -5 -9
-5 -19z"/>
<path d="M398 1754 c25 -24 48 -44 52 -44 4 0 17 -12 31 -26 13 -14 45 -41 71
-59 35 -26 48 -30 52 -20 3 8 0 17 -6 21 -7 4 -8 3 -4 -4 19 -31 -18 -4 -104
76 -52 49 -105 91 -116 94 -16 4 -9 -6 24 -38z"/>
<path d="M520 1792 c0 -5 -9 -8 -20 -5 -12 3 2 -16 36 -51 53 -54 92 -77 63
-37 -58 78 -79 103 -79 93z"/>
<path d="M550 1794 c0 -7 27 -34 35 -34 3 0 3 6 -1 13 -4 6 3 3 16 -8 23 -20
23 -20 17 0 -7 20 -7 20 8 0 12 -15 19 -17 32 -9 33 21 26 34 -19 35 -23 0
-53 2 -65 5 -13 2 -23 1 -23 -2z"/>
<path d="M1660 1770 c0 -6 -4 -8 -10 -5 -5 3 -15 3 -22 -1 -18 -11 42 -25 60
-15 13 7 12 11 -6 20 -16 8 -22 8 -22 1z"/>
<path d="M2355 1763 c-3 -10 -21 -35 -41 -56 -31 -34 -36 -36 -50 -22 -9 8
-30 15 -47 14 l-32 -1 38 -16 c21 -10 35 -22 32 -29 -9 -24 13 -13 48 25 91
95 97 102 77 102 -10 0 -21 -8 -25 -17z"/>
<path d="M2176 1754 c-30 -30 -15 -45 25 -24 22 12 26 40 5 40 -8 0 -22 -7
-30 -16z"/>
<path d="M0 1752 c0 -5 15 -13 33 -16 23 -4 38 -15 46 -33 17 -37 1 -48 -43
-29 -30 12 -36 13 -36 1 0 -14 12 -19 73 -30 36 -6 37 -5 37 25 0 44 -15 66
-47 73 -15 3 -36 9 -45 12 -10 4 -18 3 -18 -3z"/>
<path d="M609 1722 c12 -18 27 -30 32 -27 14 9 11 31 -6 45 -12 10 -15 10 -15
0 0 -9 -4 -9 -17 1 -11 9 -9 3 6 -19z"/>
<path d="M1346 1724 c-3 -9 -6 -25 -6 -35 0 -11 -5 -17 -10 -14 -6 4 -7 12 -4
18 4 7 3 9 -1 4 -5 -4 -20 3 -33 15 l-25 23 16 -26 c9 -14 28 -35 42 -48 18
-15 24 -28 20 -41 -4 -12 -2 -20 4 -20 6 0 11 11 11 24 0 13 3 44 6 70 7 45
-7 65 -20 30z"/>
<path d="M1064 1707 c-1 -14 8 -31 23 -43 14 -10 49 -43 79 -71 50 -49 52 -53
29 -53 -14 0 -25 -4 -25 -10 0 -12 47 -14 54 -2 3 5 -4 34 -16 64 -15 43 -24
55 -36 51 -10 -4 -13 -2 -8 5 4 7 2 12 -3 12 -6 0 -11 -5 -11 -10 0 -6 -16 4
-35 23 -19 19 -35 39 -35 46 0 22 -15 11 -16 -12z"/>
<path d="M2833 1713 c-7 -3 -13 -16 -13 -29 0 -27 14 -24 30 6 11 20 3 30 -17
23z"/>
<path d="M684 1694 c3 -9 6 -18 6 -20 0 -2 9 -4 20 -4 24 0 27 25 4 34 -26 10
-36 7 -30 -10z"/>
<path d="M2365 1645 c-33 -33 -64 -60 -70 -60 -5 -1 -9 -6 -7 -13 1 -7 -2 -12
-8 -12 -5 0 -10 -11 -10 -24 l0 -24 61 13 c33 7 63 16 67 20 8 9 -74 0 -103
-11 -12 -4 2 16 33 49 28 31 52 59 52 64 0 5 9 14 19 20 17 11 24 8 51 -17 31
-29 70 -40 70 -21 0 13 -55 51 -73 51 -9 0 -17 6 -20 13 -2 7 -28 -13 -62 -48z"/>
<path d="M306 1682 c6 -4 13 -15 17 -25 4 -10 11 -15 17 -12 6 3 7 -1 4 -9 -3
-9 -1 -16 6 -16 7 0 9 -8 5 -19 -4 -13 0 -20 14 -24 19 -5 19 -4 0 42 -20 45
-43 71 -63 71 -8 0 -8 -3 0 -8z"/>
<path d="M762 1678 c3 -7 10 -13 17 -13 6 0 15 -6 20 -13 5 -8 12 -14 17 -15
5 -1 8 -10 7 -19 -3 -19 20 -24 52 -12 14 6 12 10 -12 26 -54 37 -105 60 -101
46z"/>
<path d="M1543 1670 l-22 -18 21 -6 c27 -6 31 -3 26 22 -3 20 -4 20 -25 2z"/>
<path d="M1990 1681 c0 -5 -9 -13 -20 -16 -11 -3 -20 -11 -20 -16 0 -13 31
-11 59 5 l24 14 -21 11 c-13 7 -22 8 -22 2z"/>
<path d="M2642 1663 c-29 -15 -52 -31 -52 -37 0 -6 5 -5 12 2 7 7 19 12 28 12
8 0 0 -8 -17 -16 -26 -13 -33 -23 -33 -46 0 -26 2 -29 15 -18 8 7 12 17 8 23
-3 6 -1 7 5 3 12 -7 72 31 72 46 0 5 -4 6 -10 3 -5 -3 -10 -2 -10 4 0 5 5 13
10 16 6 3 10 2 10 -4 0 -6 18 -16 40 -22 22 -7 40 -15 40 -18 0 -3 -25 -23
-56 -45 -30 -21 -53 -40 -50 -43 6 -7 44 14 89 50 27 21 41 27 49 19 8 -8 2
-18 -18 -36 -16 -14 -32 -26 -36 -26 -5 0 -8 -5 -8 -11 0 -7 10 -5 25 5 19 13
23 13 19 2 -9 -23 -24 -24 -112 -12 -72 11 -82 10 -82 -4 -1 -29 -27 -63 -61
-77 l-33 -14 42 39 c53 49 56 75 5 36 -21 -15 -43 -35 -49 -43 -16 -20 -5 -51
18 -51 26 0 74 26 81 45 4 9 19 15 39 15 l33 -1 -42 -38 c-24 -21 -43 -42 -43
-47 0 -5 21 13 48 38 56 55 85 68 156 68 l52 0 26 65 c17 44 21 65 13 65 -7 0
-17 -19 -22 -42 l-11 -43 -1 35 c-1 19 -5 40 -9 45 -11 16 -108 85 -119 85 -5
0 -32 -12 -61 -27z"/>
<path d="M226 1672 c-3 -5 6 -15 19 -22 27 -14 33 -35 13 -43 -7 -3 2 -6 20
-6 l33 -1 -32 40 c-33 40 -44 47 -53 32z"/>
<path d="M1383 1658 c4 -12 3 -42 0 -66 -6 -43 -6 -44 -19 -21 -23 42 -15 1
12 -58 15 -32 28 -52 31 -45 3 6 8 10 11 8 13 -8 6 149 -8 177 -16 32 -35 36
-27 5z"/>
<path d="M412 1658 c5 -15 37 -18 41 -3 1 6 -9 12 -22 13 -16 3 -22 -1 -19
-10z"/>
<path d="M2162 1653 c24 -28 30 -53 13 -53 -9 0 -15 10 -15 25 0 28 -20 35
-21 8 -1 -24 -33 -78 -46 -78 -10 0 -73 -71 -73 -82 0 -2 48 30 107 70 105 73
138 106 95 95 -21 -6 -47 13 -35 25 3 4 -4 7 -17 7 -21 0 -22 -2 -8 -17z"/>
<path d="M2920 1639 c-11 -26 -11 -32 1 -40 11 -8 10 -9 -5 -7 -10 2 -21 -2
-23 -8 -2 -7 10 -7 43 0 39 9 42 12 22 17 -20 6 -18 7 10 8 25 1 32 5 32 21 0
20 -1 20 -25 4 -17 -11 -25 -12 -25 -5 0 7 -5 9 -11 5 -8 -4 -9 0 -4 15 10 32
-1 25 -15 -10z"/>
<path d="M600 1650 c0 -5 4 -10 9 -10 10 0 93 -48 143 -82 15 -10 50 -23 77
-30 28 -6 48 -15 45 -20 -3 -4 2 -5 10 -2 10 4 16 1 16 -9 0 -8 7 -18 16 -21
9 -4 14 -9 11 -12 -3 -3 -12 -2 -19 2 -7 5 -15 9 -18 10 -3 1 -20 5 -37 9 -18
4 -30 11 -27 16 3 5 1 9 -5 9 -5 0 -12 -4 -16 -9 -7 -13 18 -26 118 -62 44
-16 100 -40 125 -54 24 -14 51 -25 59 -25 8 0 11 -5 7 -12 -4 -6 -3 -8 4 -4 6
3 9 15 7 25 -2 10 1 24 6 32 7 11 9 10 10 -6 1 -11 1 -28 0 -37 -1 -10 13 -25
36 -38 48 -26 77 -43 83 -51 6 -7 46 -29 53 -29 14 0 -7 37 -25 45 -12 6 -30
22 -42 37 -38 52 -9 38 58 -28 49 -47 67 -71 63 -84 -3 -11 0 -21 7 -23 6 -2
-1 -6 -16 -9 -15 -3 -25 -2 -23 2 3 5 -13 7 -35 6 -22 0 -39 -5 -37 -10 5 -15
72 -47 75 -36 6 16 20 12 25 -7 2 -13 8 -9 19 17 21 48 8 78 -64 155 -68 73
-155 122 -361 204 -70 28 -172 74 -227 101 -99 50 -130 59 -130 40z m421 -204
c4 -5 12 -5 19 -1 7 4 13 -1 17 -14 5 -22 23 -29 23 -10 0 5 5 7 10 4 10 -6
14 -45 5 -45 -9 0 -145 70 -145 74 0 3 -3 12 -6 21 -6 14 -2 14 32 -2 22 -10
42 -22 45 -27z m198 -99 c13 -36 8 -45 -14 -23 -9 9 -21 16 -26 16 -5 0 -9 11
-9 24 0 35 36 23 49 -17z"/>
<path d="M2018 1614 c-43 -22 -48 -28 -48 -59 0 -37 -6 -41 -30 -24 -13 9 -12
10 3 5 11 -3 17 0 17 9 0 8 -4 15 -8 15 -15 0 -42 -36 -35 -45 5 -4 2 -5 -4
-1 -7 4 -24 -4 -40 -18 -25 -23 -26 -26 -8 -26 11 0 31 9 45 20 36 28 50 25
50 -10 0 -16 5 -30 11 -30 6 0 9 7 5 15 -3 9 9 29 31 50 28 27 34 38 25 47
-20 20 -13 32 7 14 18 -16 19 -16 17 1 0 10 5 17 12 16 13 -3 17 33 5 40 -5 3
-29 -6 -55 -19z"/>
<path d="M2395 1613 c-30 -34 -25 -36 40 -20 l50 14 -32 16 c-32 17 -33 17
-58 -10z"/>
<path d="M190 1609 c0 -13 38 -49 52 -49 5 0 2 14 -7 30 -15 29 -45 42 -45 19z"/>
<path d="M390 1611 c0 -14 53 -41 82 -41 33 0 55 15 34 23 -9 4 -16 2 -16 -2
0 -12 -66 4 -85 19 -10 8 -15 9 -15 1z"/>
<path d="M986 1607 c-21 -15 -14 -21 184 -152 171 -113 246 -207 234 -296 -4
-34 -2 -49 10 -59 12 -10 14 -16 5 -26 -9 -11 -9 -14 0 -14 6 0 25 -29 43 -65
17 -36 33 -63 35 -61 9 8 -9 66 -18 60 -5 -3 -9 1 -9 10 0 8 5 16 11 18 18 6
-68 274 -112 347 -21 35 -47 91 -59 126 -19 57 -75 133 -88 120 -3 -3 -1 -10
5 -16 6 -6 9 -18 6 -25 -3 -8 -1 -14 5 -14 11 0 62 -82 62 -101 0 -8 -7 -5
-20 6 -11 10 -22 16 -25 13 -3 -3 6 -13 20 -22 14 -9 25 -13 25 -9 1 5 8 -8
16 -27 8 -19 24 -43 35 -53 11 -11 18 -22 15 -25 -4 -3 -16 4 -29 15 -12 11
-59 46 -104 77 -45 32 -109 86 -141 122 -61 66 -76 73 -106 51z"/>
<path d="M530 1602 c0 -16 116 -89 126 -79 2 2 -20 20 -48 39 -69 46 -78 51
-78 40z"/>
<path d="M620 1605 c0 -10 73 -76 100 -90 35 -18 50 -19 50 -2 0 6 -34 31 -75
54 -41 23 -75 40 -75 38z"/>
<path d="M2214 1578 l-29 -30 32 16 c35 18 48 32 35 40 -5 3 -22 -9 -38 -26z"/>
<path d="M287 1584 c-9 -9 22 -44 40 -44 7 0 13 -4 13 -10 0 -5 -8 -7 -17 -3
-14 5 -16 3 -6 -7 6 -7 19 -10 28 -6 15 6 15 9 -4 39 -20 32 -41 44 -54 31z"/>
<path d="M0 1550 c0 -6 21 -20 48 -33 26 -12 49 -25 52 -28 3 -4 39 -15 80
-24 74 -18 112 -35 76 -35 -9 0 -14 -4 -11 -10 12 -19 31 -10 42 21 14 37 13
41 -27 69 -34 24 -40 14 -10 -18 l21 -22 -28 0 c-15 0 -55 12 -88 26 -131 55
-155 63 -155 54z"/>
<path d="M2222 1540 c-39 -24 -42 -24 -42 -3 0 15 -2 15 -17 0 -25 -21 -127
-76 -149 -80 -11 -2 -29 -8 -41 -15 -12 -7 -31 -12 -42 -12 -22 0 -28 -14 -10
-26 6 -3 16 -1 22 5 6 6 16 11 21 11 6 0 -10 -18 -34 -40 -41 -37 -63 -46
-144 -64 -15 -4 -25 -10 -21 -14 9 -9 39 -9 46 1 9 12 59 16 59 5 0 -5 12 -20
27 -34 l28 -25 -97 -92 c-53 -51 -104 -104 -113 -119 -10 -15 -20 -26 -24 -24
-3 2 -7 -8 -7 -22 -1 -15 -5 -38 -9 -52 -4 -14 9 2 29 35 21 33 41 62 45 65 4
3 12 12 17 21 5 9 44 54 87 99 42 45 77 88 77 95 0 7 -11 22 -26 32 -17 13
-23 24 -18 36 9 23 24 22 24 -3 0 -22 33 -27 60 -10 11 7 6 8 -17 4 -38 -7
-43 7 -18 43 l15 22 25 -25 c15 -15 35 -24 52 -23 28 1 28 1 -5 10 -42 12 -51
35 -23 60 20 19 51 20 51 2 0 -4 11 -9 25 -9 14 -1 22 2 19 7 -3 5 -12 9 -20
9 -20 0 -17 39 4 46 9 4 42 19 73 35 61 31 74 35 64 19 -3 -5 3 -10 15 -10 22
0 34 19 28 44 -3 14 -7 13 -36 -4z"/>
<path d="M2464 1519 c-10 -12 -62 -41 -114 -66 -228 -109 -380 -211 -509 -343
-82 -83 -145 -168 -171 -229 -7 -17 -17 -28 -22 -25 -6 4 -8 -2 -3 -15 3 -11
2 -21 -3 -21 -5 0 -9 -7 -9 -15 0 -22 48 -12 112 24 58 33 178 80 395 157 137
48 270 69 389 62 61 -3 67 -2 63 14 -2 10 -10 18 -17 18 -18 0 -75 49 -75 63
-1 15 -39 66 -40 52 0 -6 4 -15 8 -20 5 -6 14 -23 20 -38 l12 -29 -39 7 c-22
4 -42 2 -45 -3 -3 -6 -30 -13 -59 -17 -177 -23 -408 -110 -557 -210 l-55 -36
65 66 c66 68 112 100 125 87 3 -4 5 0 3 8 -2 10 3 14 16 12 10 -2 23 2 27 10
5 7 12 13 16 13 23 2 83 28 78 35 -2 4 7 8 21 8 15 0 29 4 33 10 3 5 33 18 66
27 74 22 81 26 62 36 -23 13 -77 -1 -77 -20 0 -13 -2 -13 -9 -2 -5 7 -14 10
-20 7 -6 -4 -11 0 -11 8 0 9 7 16 15 16 8 0 15 5 15 10 0 6 6 10 14 10 8 0 17
9 21 19 7 23 25 19 134 -30 52 -23 76 -30 79 -21 2 7 9 9 15 5 7 -4 6 1 -2 11
-10 12 -16 14 -21 5 -6 -8 -13 -8 -29 0 -11 7 -21 15 -21 19 0 20 34 52 54 52
15 0 26 7 29 20 6 24 12 24 -93 0 -46 -10 -86 -17 -89 -15 -2 3 2 7 10 9 53
19 207 75 221 81 15 6 15 1 -4 -43 -20 -47 -20 -51 -4 -67 15 -16 16 -15 14
12 -2 32 11 60 41 87 12 11 21 22 21 27 0 21 -204 -28 -285 -68 -27 -14 -85
-50 -127 -79 -43 -30 -82 -54 -88 -54 -16 0 -12 -12 12 -37 12 -13 16 -23 10
-23 -6 0 -16 9 -22 20 -6 11 -14 20 -18 20 -17 0 -156 -120 -264 -227 -65 -64
-118 -111 -118 -104 0 19 19 51 57 98 19 24 32 47 29 51 -8 13 42 82 59 82 8
0 15 7 15 15 0 8 16 25 35 38 19 13 53 45 76 71 23 26 44 45 46 42 4 -4 -30
-58 -47 -76 -3 -3 -18 -21 -35 -39 -28 -32 -26 -31 27 10 31 24 55 49 54 54
-6 16 21 48 29 36 3 -6 1 -11 -4 -11 -6 0 -11 -4 -11 -10 0 -18 14 -11 70 35
30 25 80 60 109 77 30 18 50 33 43 36 -6 2 -24 -6 -38 -17 -15 -12 -33 -21
-40 -21 -7 0 -35 -20 -61 -45 -32 -29 -51 -41 -58 -34 -13 13 47 66 129 115
56 33 60 34 77 18 26 -23 37 -9 14 16 -23 25 -1 28 29 3 12 -10 15 -11 9 -3
-21 23 -15 37 22 59 l35 21 22 -22 21 -21 -7 26 c-5 21 -1 27 22 35 15 6 42
24 60 41 18 17 37 31 43 31 5 0 9 5 9 10 0 16 -16 11 -36 -11z m-104 -278 c0
-15 -52 -23 -64 -10 -8 9 -7 11 5 6 9 -3 22 -1 30 4 18 11 29 11 29 0z m-230
-110 c0 -11 -5 -23 -12 -27 -7 -5 -9 -2 -5 9 4 11 2 14 -9 10 -10 -4 -12 0 -8
11 9 22 34 20 34 -3z m355 -61 c15 -7 10 -9 -22 -9 -24 -1 -43 4 -43 9 0 12
37 12 65 0z"/>
<path d="M513 1523 c-23 -4 -33 -23 -12 -23 5 0 7 -5 3 -11 -3 -6 8 -3 25 5
17 9 31 21 31 26 0 10 -8 11 -47 3z"/>
<path d="M648 1503 c6 -3 12 -16 12 -29 0 -29 16 -32 25 -4 3 11 14 20 22 20
32 0 3 13 -34 15 -21 1 -32 0 -25 -2z"/>
<path d="M560 1480 c-15 -4 -20 -9 -13 -13 6 -4 18 -4 26 -1 9 3 24 -3 35 -14
16 -16 22 -17 26 -7 7 19 -43 42 -74 35z"/>
<path d="M710 1460 c-13 -18 -26 -27 -35 -23 -11 4 -13 1 -9 -11 5 -13 9 -14
20 -5 11 9 16 6 24 -12 8 -20 9 -20 8 -4 -2 11 1 26 5 33 5 6 6 12 2 12 -3 0
-1 9 5 20 16 30 4 24 -20 -10z"/>
<path d="M1532 1453 c-26 -38 -55 -124 -44 -135 4 -4 16 17 26 49 10 32 22 63
26 68 9 13 20 45 15 45 -2 0 -12 -12 -23 -27z"/>
<path d="M2157 1473 c-9 -2 -15 -9 -12 -14 4 -5 -3 -9 -14 -9 -11 0 -23 -5
-27 -11 -5 -8 1 -10 19 -5 19 4 29 1 36 -11 10 -17 10 -17 11 -1 0 21 19 33
32 20 12 -12 59 8 55 23 -7 19 -37 17 -37 -2 -1 -17 -1 -17 -11 0 -10 17 -18
19 -52 10z"/>
<path d="M324 1446 c-11 -8 -15 -18 -10 -23 5 -4 11 -2 13 5 4 10 8 10 19 1
20 -16 25 -8 10 13 -11 15 -15 16 -32 4z"/>
<path d="M1773 1393 c-104 -118 -137 -176 -196 -345 -4 -10 -14 -18 -24 -18
-14 0 -12 -3 6 -13 13 -6 29 -27 35 -45 15 -45 26 -31 15 19 -10 44 -2 100 12
78 11 -18 23 14 16 41 -3 11 -1 20 5 20 5 0 6 5 3 10 -4 6 7 13 24 16 l31 6
-7 56 c-7 60 5 65 27 12 15 -37 23 -37 49 -2 12 15 25 32 30 38 10 12 4 24
-11 24 -4 0 -8 -7 -8 -16 0 -12 -5 -10 -19 7 -16 20 -17 25 -5 32 8 4 14 17
14 27 0 22 16 35 25 20 18 -29 105 1 105 36 0 20 -41 64 -60 64 -4 0 -34 -30
-67 -67z"/>
<path d="M742 1432 c2 -10 11 -16 22 -14 11 2 15 -1 11 -7 -3 -6 1 -11 9 -11
26 0 18 17 -15 34 -28 14 -30 14 -27 -2z"/>
<path d="M818 1414 c4 -22 53 -41 73 -28 5 3 9 1 9 -4 0 -5 9 -12 20 -15 12
-3 20 0 20 8 0 17 -27 38 -39 31 -5 -4 -15 0 -23 7 -7 8 -25 16 -39 19 -22 4
-25 2 -21 -18z"/>
<path d="M2987 1424 c-3 -3 -3 -12 0 -20 4 -10 0 -12 -11 -8 -12 5 -16 0 -15
-17 0 -13 3 -18 6 -11 2 6 11 12 19 12 8 0 14 10 14 25 0 26 -2 29 -13 19z"/>
<path d="M2903 1405 c0 -8 4 -12 8 -10 3 3 9 -4 12 -15 3 -11 11 -20 19 -20
10 0 9 3 -2 11 -11 8 -12 12 -2 16 6 2 12 10 12 16 0 5 -3 7 -6 4 -4 -3 -14
-2 -24 3 -12 6 -17 5 -17 -5z"/>
<path d="M2738 1398 c-16 -5 -28 -14 -28 -19 0 -5 -6 -9 -14 -9 -8 0 -17 -4
-20 -9 -3 -4 7 -7 22 -5 14 1 28 8 30 13 2 6 11 11 19 11 10 0 14 -6 10 -20
-5 -21 7 -28 18 -10 10 17 32 11 38 -10 3 -11 13 -20 23 -20 14 0 11 7 -16 35
-19 19 -40 35 -48 35 -7 0 -10 5 -7 10 3 6 5 10 3 9 -2 0 -15 -5 -30 -11z"/>
<path d="M296 1358 c4 -6 -5 -21 -22 -35 -16 -12 -23 -23 -16 -23 15 0 62 45
62 60 0 5 -7 10 -16 10 -9 0 -12 -5 -8 -12z"/>
<path d="M2552 1318 c-39 -46 -41 -52 -27 -68 19 -21 19 -30 0 -30 -8 0 -15
-8 -15 -18 0 -26 32 -53 49 -43 11 7 11 10 -2 17 -21 12 -26 38 -7 39 9 0 14
8 12 20 -3 16 -2 17 12 6 20 -17 21 -2 4 45 -10 29 -9 36 7 54 10 11 16 22 14
24 -2 3 -23 -18 -47 -46z"/>
<path d="M529 1353 c-2 -15 3 -58 8 -67 3 -4 10 -2 14 5 8 11 12 10 24 -6 47
-65 55 -56 18 19 -18 37 -33 56 -45 56 -10 0 -18 -3 -19 -7z"/>
<path d="M653 1352 c-6 -4 -13 -14 -15 -22 -3 -13 2 -16 37 -19 8 0 15 -9 15
-18 0 -13 3 -14 11 -6 9 9 6 19 -10 42 -13 17 -23 31 -24 31 -1 0 -7 -4 -14
-8z"/>
<path d="M405 1309 c-46 -23 -110 -82 -130 -120 l-14 -25 62 -15 62 -15 1 27
c1 25 0 26 -35 18 -67 -16 -74 -11 -42 30 17 22 21 23 51 12 41 -14 50 -7 21
16 l-22 18 29 22 30 22 6 -50 c4 -30 15 -56 27 -68 23 -21 8 -41 -16 -21 -16
13 -35 5 -35 -14 0 -22 35 -25 86 -8 52 17 54 11 -19 67 -24 18 -26 24 -18 55
5 19 9 28 10 18 1 -16 61 -44 61 -28 0 22 -14 40 -32 40 -11 0 -22 8 -25 20
-6 24 -8 24 -58 -1z"/>
<path d="M1073 1323 c-7 -2 -13 -9 -13 -15 0 -12 41 -6 41 7 1 12 -11 15 -28
8z"/>
<path d="M2861 1315 c14 -13 140 -54 137 -44 -2 7 -33 20 -69 30 -71 20 -74
21 -68 14z"/>
<path d="M827 1289 c5 -17 47 -34 62 -24 8 4 21 0 96 -30 11 -5 22 -9 25 -10
27 -9 47 -21 58 -34 11 -13 12 -13 6 -1 -8 17 19 -6 73 -62 20 -21 44 -38 54
-38 10 0 21 -5 24 -11 4 -5 17 -14 28 -20 28 -12 59 -31 72 -45 22 -23 93 -74
104 -74 6 0 11 -6 11 -13 0 -7 13 -23 29 -34 31 -24 104 -112 81 -99 -8 5 -65
46 -125 92 -61 46 -145 103 -187 127 -43 24 -74 48 -70 52 4 4 0 6 -8 3 -8 -3
-20 2 -26 10 -6 8 -22 15 -37 15 -14 0 -28 6 -31 13 -3 8 -12 11 -21 8 -8 -4
-15 -1 -15 7 0 7 -3 10 -6 6 -4 -3 -19 0 -35 8 -45 24 -216 63 -321 74 -125
14 -128 14 -128 -5 0 -11 6 -14 20 -9 11 4 20 2 20 -4 0 -6 7 -11 15 -11 8 0
15 5 15 12 0 9 3 9 12 0 10 -10 10 -15 -1 -22 -11 -6 -8 -9 10 -12 20 -2 23
-8 21 -33 -5 -39 -9 -42 -28 -19 -15 19 -16 19 -9 -1 4 -11 7 -22 8 -25 3 -14
-16 -90 -22 -90 -5 0 -4 22 2 49 6 34 6 55 -2 67 -10 18 -10 18 -11 0 0 -15
-3 -16 -15 -6 -9 7 -18 10 -22 6 -3 -3 -1 -6 5 -6 7 0 9 -7 5 -17 -5 -12 -2
-15 10 -10 13 5 17 1 17 -19 0 -14 -4 -23 -8 -20 -8 5 4 -104 13 -112 2 -2 9
-1 15 3 9 6 9 10 -1 16 -10 6 -9 10 6 15 11 4 23 12 27 18 5 7 8 4 8 -6 0 -10
-6 -18 -12 -18 -7 0 -5 -5 5 -11 18 -10 18 -11 0 -25 -20 -15 -6 -19 17 -4 12
7 12 18 2 68 -15 71 -15 112 -2 112 6 0 10 16 10 35 0 19 -5 35 -11 35 -6 0
-9 6 -7 12 5 13 61 13 102 1 17 -5 16 -6 -4 -17 -28 -14 -36 -46 -11 -46 9 0
22 -5 28 -11 13 -13 103 -23 103 -11 0 4 11 8 25 8 14 1 25 -2 25 -7 0 -5 8
-8 18 -7 33 3 53 -2 47 -11 -3 -6 3 -10 12 -9 29 0 151 -39 219 -71 67 -31
150 -85 251 -162 69 -53 100 -66 116 -50 28 28 -121 181 -300 309 -152 108
-304 184 -420 210 -36 8 -40 7 -36 -9z m31 -139 c26 0 28 -15 6 -37 -13 -13
-20 -14 -35 -5 -10 6 -25 9 -34 6 -8 -3 -15 -1 -15 5 0 6 -7 11 -15 11 -8 0
-15 4 -15 9 0 12 38 20 65 15 11 -2 30 -4 43 -4z"/>
<path d="M2803 1279 c-18 -18 -25 -20 -37 -10 -9 7 -25 10 -38 6 -67 -19 -64
-19 -49 -1 11 13 11 16 0 16 -27 0 -41 -17 -37 -46 3 -31 22 -40 64 -30 15 4
24 14 24 26 0 10 5 22 10 25 6 3 10 1 10 -4 0 -16 42 -13 64 4 10 7 16 19 14
25 -2 6 -13 1 -25 -11z"/>
<path d="M735 1261 c-3 -11 -16 -22 -28 -24 -12 -2 -4 -4 19 -3 36 1 40 3 36
24 -5 27 -19 29 -27 3z"/>
<path d="M794 1246 c-10 -21 -7 -23 59 -35 59 -11 103 -23 202 -55 6 -2 15 -4
20 -6 6 -1 18 -6 29 -12 14 -8 17 -7 14 4 -3 7 -35 22 -71 32 -46 14 -67 25
-67 35 0 13 -2 13 -9 2 -7 -11 -14 -12 -39 0 -17 7 -28 18 -24 24 3 5 -1 4
-10 -3 -18 -14 -65 -1 -83 22 -9 11 -13 9 -21 -8z"/>
<path d="M1216 1235 c-18 -18 -21 -45 -6 -45 11 0 34 50 26 57 -2 2 -11 -3
-20 -12z"/>
<path d="M1830 1225 c-7 -9 -15 -13 -18 -10 -5 5 -81 -94 -102 -135 -16 -32
-5 -21 60 60 29 36 60 73 68 83 8 9 13 17 10 17 -3 0 -11 -7 -18 -15z"/>
<path d="M2860 1195 c0 -6 11 -17 25 -23 14 -6 25 -17 25 -24 0 -10 -2 -10 -9
1 -5 7 -14 12 -20 10 -20 -7 41 -111 79 -137 33 -22 35 -22 38 -5 5 29 -94
188 -118 189 -11 1 -20 -4 -20 -11z"/>
<path d="M2622 1180 c2 -14 9 -31 17 -39 11 -12 10 -17 -5 -29 -17 -13 -17
-14 -1 -9 11 4 20 1 23 -7 3 -8 16 -17 30 -20 13 -4 24 -10 24 -15 0 -4 -18
-3 -39 2 -22 6 -38 14 -35 19 3 4 0 8 -5 8 -28 0 -7 -28 29 -39 46 -14 106
-60 78 -61 -9 0 -20 5 -23 10 -3 6 -11 10 -17 10 -7 0 -6 -6 2 -15 13 -15 60
-21 60 -7 0 4 -7 18 -16 30 -20 28 -2 29 37 1 27 -19 121 -48 159 -49 23 0 -4
21 -31 24 -13 1 -44 12 -69 23 -25 11 -56 24 -69 28 -22 7 -120 102 -121 118
0 4 12 0 28 -10 23 -14 25 -14 12 0 -8 8 -22 17 -30 19 -8 2 -21 10 -28 18
-11 13 -12 11 -10 -10z"/>
<path d="M210 1181 c0 -5 -19 -11 -42 -15 -61 -10 -101 -39 -131 -95 -31 -55
-34 -76 -12 -85 12 -4 14 0 9 19 -11 45 38 124 81 130 6 1 23 7 38 13 16 7 44
12 63 12 32 0 34 2 20 15 -16 17 -26 19 -26 6z"/>
<path d="M2728 1183 c-15 -4 -16 -8 -6 -26 6 -12 14 -24 17 -27 4 -3 12 -16
18 -30 l12 -25 7 23 c8 28 28 30 21 1 -6 -21 8 -30 71 -44 38 -8 45 10 7 19
-37 9 -69 44 -56 60 9 11 4 12 -24 9 -19 -2 -35 1 -35 7 0 12 45 24 59 15 7
-3 8 0 5 9 -6 16 -55 20 -96 9z"/>
<path d="M2591 1148 c-1 -11 -6 -15 -16 -12 -23 9 -18 -14 6 -26 27 -15 33 -7
21 27 -6 17 -11 21 -11 11z"/>
<path d="M480 1116 c0 -2 7 -20 15 -40 10 -24 13 -50 9 -72 -5 -27 -3 -34 10
-34 20 0 21 -14 1 -30 -8 -7 -15 -21 -15 -32 0 -17 2 -18 15 -8 11 9 19 10 26
3 8 -8 -2 -21 -30 -44 -57 -45 -51 -55 10 -18 34 21 48 36 45 46 -4 8 -9 32
-12 54 -4 21 -11 39 -16 39 -6 0 -8 9 -5 20 3 11 1 23 -4 26 -5 3 -9 20 -9 38
0 30 -15 56 -32 56 -4 0 -8 -2 -8 -4z"/>
<path d="M80 1065 c-23 -47 -21 -75 8 -107 8 -10 20 -18 26 -18 8 0 8 2 0 8
-23 15 -33 49 -24 78 4 16 9 23 9 15 1 -10 7 -9 28 5 38 24 69 54 57 54 -6 0
-14 -3 -17 -7 -4 -3 -18 -7 -31 -9 -18 -2 -23 1 -19 12 3 8 1 14 -5 14 -6 0
-20 -20 -32 -45z"/>
<path d="M703 1081 c-4 -16 -8 -19 -14 -10 -6 11 -9 10 -15 -4 -7 -20 1 -47
15 -47 11 0 34 71 25 79 -2 3 -7 -5 -11 -18z"/>
<path d="M232 1082 c-13 -2 -28 -15 -35 -29 -10 -22 -8 -28 10 -43 12 -10 20
-20 18 -24 -3 -3 -2 -4 2 -1 13 10 13 49 1 57 -16 10 6 28 35 28 13 0 16 -5
11 -24 -4 -16 -1 -25 10 -29 9 -4 16 -14 16 -24 -1 -17 -1 -17 -14 0 -18 23
-28 8 -25 -36 4 -38 -7 -60 -24 -50 -6 4 -26 6 -43 4 -18 -1 -50 3 -72 8 -30
9 -47 8 -66 0 -37 -17 -32 -30 5 -17 24 8 37 8 50 0 10 -7 39 -10 64 -7 48 5
57 -5 30 -35 -19 -21 -49 -94 -35 -85 5 3 17 20 26 37 8 16 18 27 21 24 9 -8
-45 -93 -63 -100 -12 -4 -15 -2 -10 9 3 8 1 15 -4 15 -5 0 -12 -11 -16 -25 -7
-27 -19 -32 -28 -12 -3 6 -3 2 0 -10 3 -14 -1 -25 -11 -30 -18 -10 -48 -138
-43 -180 2 -14 14 -34 28 -44 30 -21 108 -33 141 -21 13 5 31 6 39 2 40 -19
83 -28 103 -21 18 7 17 8 -12 14 -18 4 -30 11 -26 16 3 5 14 8 25 6 11 -2 48
5 81 16 45 15 84 20 152 18 94 -1 260 8 287 17 8 3 55 7 105 10 49 3 104 7
120 10 28 4 172 15 205 16 8 0 22 2 30 5 8 4 40 8 71 9 56 3 57 3 63 -28 3
-17 8 -29 11 -27 2 3 0 22 -6 44 -6 21 -9 53 -7 70 l4 32 -75 7 c-119 10 -256
7 -396 -9 -71 -8 -137 -15 -145 -16 -13 0 -13 -1 0 -6 8 -3 25 -14 37 -25 21
-20 21 -20 42 1 11 11 23 16 26 11 3 -5 16 -10 28 -10 12 -1 48 -3 79 -5 46
-2 63 1 83 17 23 18 40 20 148 19 118 -1 159 -11 127 -31 -8 -5 -19 -5 -26 0
-6 6 -13 8 -16 5 -3 -3 -41 -7 -84 -9 -43 -3 -128 -10 -189 -16 -60 -7 -117
-12 -125 -12 -8 -1 -19 -4 -25 -8 -29 -23 -65 -14 -103 23 l-40 39 -77 -12
c-42 -6 -83 -9 -91 -6 -8 3 -14 1 -14 -4 0 -6 -10 -10 -22 -10 -38 0 -163 -36
-197 -56 l-33 -19 59 -6 c44 -5 36 -6 -35 -4 -50 1 -95 4 -98 7 -3 3 28 18 68
33 106 40 109 52 3 15 -49 -18 -107 -43 -128 -57 -31 -22 -41 -24 -62 -15 -39
18 -59 59 -60 121 0 70 11 111 30 111 17 0 55 49 85 110 12 25 36 60 54 79 27
29 28 32 9 27 -17 -6 -22 -3 -20 12 1 13 7 17 22 14 24 -4 59 28 38 35 -7 2
-10 10 -7 17 6 16 -30 62 -53 68 -10 2 -28 2 -41 0z m908 -451 c0 -11 -36 -21
-82 -21 -44 0 -70 9 -62 21 7 12 144 12 144 0z m-324 -52 c24 -20 15 -27 -43
-35 -32 -3 -67 -8 -78 -11 -11 -2 -60 -4 -110 -5 -59 -1 -80 -4 -60 -9 27 -6
28 -7 5 -8 -14 0 -31 3 -39 8 -21 14 14 28 115 47 49 9 105 19 124 23 42 9 67
6 86 -10z m-716 -55 c0 -8 5 -14 10 -14 6 0 10 -7 10 -15 0 -7 8 -19 18 -24
14 -9 13 -10 -9 -9 -22 2 -63 28 -43 28 3 0 1 7 -6 15 -7 8 -10 22 -6 31 7 18
26 10 26 -12z"/>
<path d="M422 1013 c2 -10 -3 -56 -11 -103 -12 -79 -15 -86 -46 -107 l-34 -21
20 31 c36 60 13 65 -44 11 -42 -40 -49 -82 -12 -76 11 2 22 8 23 13 2 5 8 9
14 9 6 0 23 11 40 25 16 14 35 25 42 25 29 0 59 49 64 104 4 47 2 55 -14 58
-11 2 -19 12 -19 22 0 11 -6 21 -13 23 -7 3 -11 -3 -10 -14z m34 -112 c-21
-39 -41 -52 -31 -20 11 34 38 74 43 61 2 -6 -4 -24 -12 -41z"/>
<path d="M2395 1023 c-71 -8 -95 -15 -90 -23 3 -5 -7 -8 -23 -8 -54 2 -520
-173 -568 -213 -8 -6 -22 -8 -31 -5 -15 5 -15 4 1 -9 24 -18 36 -19 36 -2 0
11 150 79 285 129 28 10 119 32 203 49 84 17 165 37 180 45 15 7 33 14 40 14
6 0 12 7 12 15 0 8 -3 14 -7 14 -5 -1 -21 -4 -38 -6z"/>
<path d="M2494 1018 c-9 -14 23 -38 41 -31 8 2 11 12 8 20 -4 11 -1 14 13 10
10 -3 32 -8 48 -12 26 -5 28 -4 17 9 -16 19 -116 22 -127 4z"/>
<path d="M100 1010 c1 -46 82 -89 108 -57 8 10 3 12 -27 9 -34 -3 -40 0 -59
30 -12 18 -22 26 -22 18z"/>
<path d="M835 1000 c-5 -8 71 -21 119 -19 29 1 28 2 -9 9 -78 16 -105 18 -110
10z"/>
<path d="M1554 994 c4 -9 2 -22 -3 -28 -6 -7 -4 -18 6 -31 13 -16 15 -17 10
-2 -4 9 -3 17 2 17 4 0 6 14 3 30 -2 17 -9 30 -14 30 -6 0 -7 -7 -4 -16z"/>
<path d="M717 982 c3 -14 12 -17 40 -14 38 5 31 14 -19 26 -22 5 -25 3 -21
-12z"/>
<path d="M2955 950 c-11 -5 -60 -9 -110 -9 -49 -1 -85 -5 -78 -9 6 -4 -109 -7
-255 -7 -292 0 -330 -4 -520 -62 -113 -33 -249 -89 -241 -98 3 -2 34 6 69 19
36 13 71 21 79 18 8 -3 11 0 7 7 -4 7 -2 9 7 5 8 -3 73 7 143 23 123 26 141
28 399 28 239 0 283 -3 384 -23 63 -12 126 -22 140 -21 40 1 9 10 -107 29 -68
12 -94 19 -72 20 88 6 -88 18 -275 19 -180 1 -296 -6 -411 -23 -29 -5 -33 -4
-18 3 89 39 508 54 744 26 148 -18 167 -18 155 -6 -6 5 -53 14 -105 19 -78 8
-85 10 -40 11 65 2 128 15 143 30 13 13 -8 14 -38 1z"/>
<path d="M738 941 c-60 -9 -67 -16 -29 -29 17 -6 31 -15 31 -19 0 -9 52 -43
65 -43 3 0 -3 12 -15 28 l-22 27 43 3 c24 2 52 -1 63 -7 12 -5 66 -12 121 -16
130 -7 313 -39 406 -69 41 -13 76 -22 78 -20 2 2 -1 4 -8 4 -7 0 -9 5 -6 10 8
12 -95 61 -175 84 -130 37 -446 64 -552 47z"/>
<path d="M2920 855 c68 -12 91 -12 79 -1 -2 2 -38 6 -79 9 l-75 6 75 -14z"/>
<path d="M907 839 c-27 -4 -54 -13 -62 -19 -10 -8 -15 -8 -22 4 -7 13 -16 13
-73 0 -36 -8 -92 -18 -125 -23 -73 -10 -258 -62 -266 -75 -4 -5 -14 -6 -24 -3
-9 4 -14 3 -10 -2 5 -9 -11 -12 -120 -27 -38 -5 -45 -9 -30 -15 39 -15 93 -8
201 25 109 34 194 53 334 76 41 7 103 18 137 24 34 7 60 9 57 4 -3 -4 -11 -8
-19 -8 -8 0 -17 -5 -21 -11 -4 -7 0 -9 12 -5 81 26 432 9 567 -27 98 -27 116
-19 30 13 -139 52 -437 88 -566 69z"/>
<path d="M2264 839 c-51 -4 -123 -15 -160 -24 -38 -9 -111 -25 -162 -35 -51
-10 -106 -26 -124 -34 -18 -9 -36 -12 -42 -8 -18 14 -46 22 -46 13 0 -4 11
-13 24 -19 25 -11 28 -25 11 -52 -7 -13 -6 -13 7 -2 14 11 19 9 32 -10 18 -26
21 -99 5 -115 -9 -9 -7 -11 7 -9 15 2 19 12 20 47 1 24 -3 55 -8 69 -7 19 -5
27 9 38 17 14 16 14 -5 9 -33 -8 -25 25 8 35 74 22 367 78 438 84 45 4 82 11
82 15 0 5 -1 8 -2 8 -2 -1 -44 -5 -94 -10z"/>
<path d="M2445 810 c-6 -10 213 -3 224 6 2 2 -46 4 -107 4 -65 0 -113 -4 -117
-10z"/>
<path d="M2300 800 l-45 -7 45 -1 c25 0 63 3 85 7 l40 9 -40 -1 c-22 0 -60 -3
-85 -7z"/>
<path d="M2500 793 c-30 -2 -64 -8 -75 -13 -11 -5 -85 -14 -165 -20 -129 -9
-219 -25 -370 -62 -61 -15 -59 -13 -45 -55 10 -28 19 -38 34 -37 71 2 80 4 75
18 -6 15 26 21 151 31 143 11 308 43 235 44 -21 1 -168 -14 -338 -34 -24 -3
-61 -9 -83 -14 -26 -6 -41 -5 -46 2 -3 5 -1 7 5 3 5 -3 12 -1 14 5 7 21 288
62 416 60 12 -1 22 3 22 8 0 5 8 11 18 15 9 3 24 9 32 12 8 3 5 -4 -8 -15 -31
-27 -14 -33 60 -22 61 9 175 15 229 12 14 0 43 -13 64 -27 27 -18 45 -24 62
-19 14 3 31 0 40 -6 12 -11 13 -8 7 16 -7 26 -5 28 20 21 15 -4 54 -1 87 5 55
11 59 14 59 39 0 27 -1 27 -77 34 -75 6 -314 6 -423 -1z m130 -33 c-7 -4 -37
-8 -68 -9 -32 0 -69 -3 -84 -7 -17 -3 -28 -1 -28 5 0 13 62 25 88 17 11 -4 23
-3 26 2 2 4 21 6 42 4 21 -3 31 -8 24 -12z m192 -4 c4 -6 35 -4 82 4 42 7 79
11 82 8 5 -6 -141 -34 -226 -43 -55 -6 -55 -6 -35 13 33 30 82 40 97 18z
m-565 -18 c0 -9 -20 -14 -60 -15 -93 -3 -62 15 44 25 9 1 16 -4 16 -10z"/>
<path d="M1537 726 l-67 -54 -193 5 c-201 6 -398 -10 -560 -44 -117 -24 -85
-27 49 -3 179 31 351 43 532 37 90 -3 165 -7 167 -9 2 -2 5 -28 6 -59 1 -32 8
-60 17 -68 12 -12 13 -11 9 5 -18 59 -18 74 2 119 12 28 26 45 33 43 7 -3 21
8 30 23 11 18 31 32 58 39 47 13 52 20 13 20 -18 -1 -52 -20 -96 -54z"/>
<path d="M650 715 c-212 -50 -232 -56 -170 -49 25 3 117 23 205 44 88 21 171
40 185 43 22 4 21 4 -5 5 -16 0 -113 -19 -215 -43z"/>
<path d="M857 734 c-139 -21 -379 -88 -534 -147 l-142 -55 -10 37 -11 36 5
-35 c3 -19 9 -38 14 -43 7 -7 210 59 319 103 56 24 334 90 392 95 l65 4 -55
-9 c-99 -17 -194 -42 -258 -68 -83 -33 -75 -38 11 -7 77 28 264 58 477 76 115
9 166 9 248 -1 62 -7 102 -17 102 -24 0 -6 4 -4 10 4 5 8 7 16 5 18 -2 2 -45
10 -97 18 -118 18 -423 17 -541 -2z m246 -1 c-23 -2 -64 -2 -90 0 -26 2 -7 3
42 3 50 0 71 -1 48 -3z"/>
<path d="M1612 743 c-6 -2 -10 -9 -6 -14 3 -5 -1 -9 -9 -9 -8 0 -21 -10 -30
-22 -8 -13 -23 -32 -33 -43 -11 -11 -20 -37 -21 -60 -2 -37 -1 -38 9 -15 6 14
18 40 26 58 9 21 23 34 41 38 14 3 36 11 49 17 17 8 31 8 53 0 28 -11 29 -11
22 15 -3 15 -11 30 -17 34 -12 9 -64 9 -84 1z"/>
<path d="M2525 699 c-22 -4 -62 -8 -90 -9 -32 -1 -43 -4 -31 -9 11 -4 -31 -12
-105 -21 -138 -15 -193 -28 -119 -29 25 -1 74 4 110 10 81 13 108 16 143 18
16 0 26 4 24 9 -3 4 23 8 56 10 65 3 77 7 61 20 -5 5 -27 5 -49 1z"/>
<path d="M1734 658 c8 -37 24 -78 30 -78 11 0 -8 76 -21 90 -14 13 -15 12 -9
-12z"/>
<path d="M2567 665 c-49 -7 -94 -18 -100 -24 -6 -6 -9 -11 -6 -11 23 0 272 40
277 44 9 9 -76 5 -171 -9z"/>
<path d="M1620 638 c-5 -13 -9 -19 -9 -14 -2 17 -41 -27 -41 -46 0 -20 -26
-25 -33 -5 -3 6 -6 1 -6 -13 -1 -15 -6 -31 -12 -37 -7 -7 -5 -12 9 -15 16 -5
19 -1 17 18 -2 20 0 22 12 13 8 -7 11 -20 7 -32 -4 -13 -2 -17 5 -12 7 4 11
14 10 23 -3 38 2 69 15 87 13 18 15 17 32 -18 19 -36 20 -36 32 -16 8 12 10
19 5 16 -5 -3 -15 -2 -22 2 -10 7 -11 13 -1 30 8 16 15 19 23 12 7 -5 16 -9
21 -8 5 1 14 -6 19 -15 13 -20 -7 -64 -32 -70 -29 -7 -50 2 -44 19 4 11 2 14
-5 9 -15 -9 -15 -39 0 -54 17 -17 48 -15 71 6 16 13 19 14 15 2 -2 -8 -18 -22
-36 -30 -36 -17 -43 -35 -9 -25 29 9 67 51 67 75 0 10 3 27 6 37 5 15 4 16 -5
3 -9 -12 -11 -9 -9 17 3 42 -17 63 -59 63 -26 0 -36 -5 -43 -22z"/>
<path d="M2920 653 c-267 -26 -442 -46 -472 -54 -20 -5 -101 -16 -180 -24 -79
-8 -184 -19 -233 -24 -50 -6 -112 -11 -140 -12 -50 -2 -75 -13 -75 -31 0 -6 7
-7 16 -4 12 5 14 1 9 -17 -9 -27 -54 -77 -71 -77 -7 0 -29 -10 -50 -22 -34
-20 -40 -20 -83 -8 -25 7 -56 12 -67 12 -25 -2 -78 43 -69 58 3 6 1 10 -4 10
-6 0 -11 7 -11 15 0 8 -6 15 -12 15 -34 0 -489 -41 -561 -50 -45 -5 -158 -17
-252 -25 -93 -8 -226 -20 -295 -26 -69 -6 -174 -9 -235 -5 -101 5 -108 5 -93
-10 13 -13 34 -16 100 -14 126 4 236 2 306 -6 50 -5 62 -4 62 8 0 7 10 15 22
15 18 2 20 0 8 -7 -8 -5 -13 -10 -10 -11 3 0 13 -2 23 -4 9 -2 17 0 17 4 0 4
8 7 18 8 9 1 51 4 92 7 120 9 162 14 225 25 33 5 85 13 115 16 30 4 66 8 80
10 26 4 209 16 297 19 29 2 56 5 59 9 4 3 24 -13 45 -37 31 -34 48 -45 82 -50
23 -3 58 -9 78 -12 25 -4 50 0 80 14 24 11 69 23 99 26 101 12 131 18 126 24
-11 10 -67 12 -61 2 7 -11 -37 -13 -73 -4 l-23 7 27 28 c15 16 33 29 40 29 6
0 15 7 18 16 4 11 10 13 19 6 8 -6 43 -5 102 4 50 7 146 18 215 24 195 16 231
21 225 30 -3 5 9 7 27 6 18 -1 47 1 63 6 83 22 269 57 338 62 76 7 156 26 97
24 -14 -1 -41 -3 -60 -5z"/>
<path d="M2023 632 c-24 -2 -43 -7 -43 -12 0 -7 98 -3 108 5 7 6 -27 10 -65 7z"/>
<path d="M1751 563 c0 -6 -4 -19 -8 -29 -5 -13 -3 -15 7 -9 10 6 12 4 6 -11
-12 -31 -12 -36 2 -41 8 -3 10 1 6 11 -3 9 -2 16 3 16 5 0 9 9 10 20 1 11 -2
18 -7 15 -5 -3 -11 5 -13 17 -2 13 -5 18 -6 11z"/>
<path d="M500 455 c19 -7 30 -14 23 -14 -7 -1 -10 -8 -7 -16 5 -12 10 -10 24
8 24 29 17 37 -33 36 l-42 -1 35 -13z"/>
<path d="M1545 453 c2 -10 4 -21 4 -24 1 -8 98 -27 134 -27 16 0 27 6 27 14 0
7 11 16 25 20 14 3 25 10 25 14 0 19 -19 18 -56 0 -48 -25 -60 -25 -109 0 -48
24 -54 25 -50 3z"/>
<path d="M2515 452 c-3 -4 -30 -10 -58 -13 l-52 -7 62 1 c34 1 59 6 56 10 -3
5 3 7 13 3 44 -13 111 -25 134 -25 15 1 5 6 -25 13 -75 19 -122 25 -130 18z"/>
<path d="M380 441 c0 -5 7 -12 16 -15 21 -8 95 4 88 15 -7 12 -104 12 -104 0z"/>
<path d="M2158 422 l-33 -12 35 5 c19 2 70 5 113 6 43 1 75 4 71 8 -11 11
-153 6 -186 -7z"/>
<path d="M2750 404 l-25 -15 34 5 c22 4 49 -1 78 -14 64 -28 66 -25 8 10 -57
34 -61 35 -95 14z"/>
<path d="M1990 381 l-35 -7 44 -7 c28 -5 48 -4 57 4 8 6 21 9 29 5 8 -3 25 -1
37 4 27 11 -75 11 -132 1z"/>
<path d="M2168 263 c18 -2 45 -2 60 0 15 2 0 4 -33 4 -33 0 -45 -2 -27 -4z"/>
<path d="M36 104 c-9 -8 -16 -24 -16 -33 0 -23 25 -45 42 -38 9 4 7 6 -4 6
-28 2 -34 42 -8 63 12 10 18 18 12 18 -6 0 -18 -7 -26 -16z"/>
<path d="M243 70 l2 -35 58 -3 c37 -2 57 1 57 8 0 6 -4 9 -9 5 -5 -3 -12 7
-14 22 l-4 28 -2 -26 c-1 -21 -6 -26 -27 -27 -17 0 -29 8 -34 22 -8 20 -9 20
-11 -4 -1 -21 -3 -19 -9 10 l-8 35 1 -35z"/>
<path d="M602 88 c-7 -7 -12 -19 -12 -29 0 -12 -8 -16 -35 -13 -19 1 -37 -1
-40 -6 -3 -4 40 -8 95 -8 96 0 100 1 99 22 -1 17 -2 18 -6 3 -3 -13 -12 -17
-31 -15 -15 2 -30 7 -34 13 -5 6 -8 5 -8 -2 0 -7 -7 -10 -15 -7 -21 8 -19 32
3 36 10 2 13 6 6 10 -6 4 -16 2 -22 -4z"/>
<path d="M374 75 c-4 -8 -3 -22 0 -31 7 -19 47 -15 54 5 3 8 0 11 -6 7 -6 -3
-12 -3 -15 1 -2 5 -2 2 -1 -4 2 -7 -3 -13 -11 -13 -21 0 -19 38 3 43 16 4 16
5 -1 6 -10 0 -20 -6 -23 -14z"/>
<path d="M111 73 c0 -6 -7 -18 -15 -25 -11 -12 -4 -14 43 -15 31 0 48 1 38 4
-9 2 -15 9 -12 14 4 5 1 9 -4 9 -6 0 -11 -4 -11 -10 0 -20 -29 -9 -33 13 -2
12 -5 17 -6 10z"/>
</g>
</svg>
