<?xml version="1.0" standalone="no"?>
<!DOCTYPE svg PUBLIC "-//W3C//DTD SVG 20010904//EN"
 "http://www.w3.org/TR/2001/REC-SVG-20010904/DTD/svg10.dtd">
<svg version="1.0" xmlns="http://www.w3.org/2000/svg"
 width="300.000000pt" height="285.000000pt" viewBox="0 0 300.000000 285.000000"
 preserveAspectRatio="xMidYMid meet">
<metadata>
Created by potrace 1.10, written by Peter Selinger 2001-2011
</metadata>
<g transform="translate(0.000000,285.000000) scale(0.100000,-0.100000)"
fill="#000000" stroke="none">
<path d="M2858 2833 c17 -2 47 -2 65 0 17 2 3 4 -33 4 -36 0 -50 -2 -32 -4z"/>
<path d="M2230 2523 c-79 -34 -181 -109 -294 -215 -21 -21 -43 -38 -48 -38 -4
0 -8 -4 -8 -10 0 -22 24 -7 88 53 109 101 152 132 252 181 57 28 84 46 70 45
-14 0 -41 -7 -60 -16z"/>
<path d="M2347 2480 c-18 -40 -97 -97 -108 -79 -3 5 -12 -3 -20 -17 -8 -15
-38 -45 -67 -66 -30 -22 -51 -42 -48 -46 4 -3 19 6 34 19 39 36 110 89 117 89
4 0 21 11 39 25 38 29 56 33 34 8 -22 -26 -51 -90 -46 -104 6 -17 64 78 78
126 7 23 10 50 8 62 -2 17 -6 14 -21 -17z"/>
<path d="M1861 2104 c-340 -345 -371 -387 -161 -220 41 32 82 66 90 74 13 13
12 13 -7 3 -12 -6 -25 -16 -28 -21 -3 -6 -13 -10 -20 -10 -8 0 66 80 164 178
178 177 291 302 274 302 -5 0 -145 -138 -312 -306z"/>
<path d="M2218 2322 c-56 -45 -70 -58 -43 -44 21 11 104 81 95 81 -3 0 -26
-17 -52 -37z"/>
<path d="M2200 2232 c-37 -37 -40 -42 -15 -27 37 22 75 56 75 67 0 15 -15 5
-60 -40z"/>
<path d="M1773 2152 c-55 -48 -138 -119 -184 -159 -46 -39 -104 -92 -129 -117
l-44 -46 -253 0 c-218 0 -253 -2 -253 -15 0 -13 32 -15 228 -15 174 -1 222 -3
207 -12 -11 -6 -24 -17 -28 -25 -4 -7 -12 -13 -17 -13 -5 0 -44 -36 -88 -80
-44 -44 -85 -80 -92 -80 -6 0 -9 -4 -6 -9 11 -17 -27 -22 -213 -28 -196 -6
-478 6 -371 17 l55 5 -69 7 c-39 4 -71 6 -73 4 -2 -2 4 -13 14 -25 17 -20 27
-21 307 -26 159 -3 292 -7 295 -10 7 -8 -158 -173 -202 -201 l-38 -25 -34 28
c-30 25 -34 33 -31 67 3 32 -1 44 -22 63 -14 12 -32 23 -41 22 -11 0 -9 -3 6
-9 23 -9 43 -39 43 -63 0 -8 -16 -27 -35 -42 -31 -23 -38 -25 -52 -13 -15 12
-15 11 -5 -9 7 -12 16 -24 21 -27 5 -4 28 -28 51 -55 l41 -50 -214 -226 c-176
-187 -223 -242 -262 -312 -26 -47 -51 -99 -57 -116 -19 -62 -26 -97 -19 -97 5
0 14 26 21 58 16 74 47 135 65 128 7 -2 19 3 27 12 12 15 11 16 -4 4 -24 -19
-33 3 -10 25 11 10 25 28 31 41 13 25 31 30 31 8 0 -7 12 -22 28 -32 19 -13
24 -13 15 -2 -7 8 -10 18 -6 21 3 4 -1 7 -10 7 -8 0 -18 9 -22 19 -8 26 83
115 102 99 7 -6 14 -8 14 -4 1 3 2 9 3 14 1 4 5 13 10 21 6 10 5 12 -2 7 -19
-11 -14 9 6 27 10 9 28 15 40 12 17 -3 35 11 79 60 31 35 60 62 64 60 3 -3 22
11 40 30 19 19 38 35 43 35 6 0 24 -12 40 -27 27 -25 27 -23 -3 9 -29 31 -37
36 -50 25 -11 -8 -10 -4 2 10 l19 21 59 -57 c54 -53 60 -56 74 -41 14 15 11
22 -31 68 -26 29 -53 52 -60 52 -7 0 9 -21 36 -46 28 -26 47 -51 44 -59 -4 -9
-23 4 -61 41 -53 53 -54 56 -37 75 17 19 18 19 53 -7 20 -14 53 -44 73 -67
l36 -40 -41 -42 c-23 -23 -52 -47 -64 -54 -13 -6 -22 -17 -20 -24 1 -7 -4 -11
-11 -9 -6 1 -11 -1 -10 -6 2 -4 -91 -103 -207 -220 -174 -177 -212 -220 -222
-255 -17 -60 -16 -113 3 -131 22 -22 24 -20 11 13 -8 22 -8 45 0 88 l11 58
279 283 c153 155 284 282 291 282 6 0 12 -1 12 -2 -2 -10 -548 -556 -560 -560
-8 -3 -12 -9 -8 -13 4 -4 16 -1 27 7 28 19 294 281 424 417 89 92 112 111 129
105 15 -5 19 -3 13 7 -5 8 1 5 13 -5 25 -21 31 -36 7 -16 -29 24 -14 -3 24
-45 38 -41 40 -42 56 -25 15 16 15 18 0 24 -9 3 -21 4 -25 1 -5 -3 -12 0 -16
6 -5 8 -3 9 7 4 7 -5 -4 13 -26 40 -42 51 -231 225 -245 225 -4 0 -26 -24 -48
-52 -23 -29 -73 -84 -112 -123 -54 -53 -70 -65 -67 -48 2 12 7 26 12 30 4 5 5
1 0 -7 -5 -9 -5 -12 1 -7 5 5 9 14 9 20 1 7 6 11 12 10 12 -3 163 155 163 169
0 5 -7 8 -15 8 -14 0 -19 11 -16 36 1 6 -6 18 -16 25 -15 13 -15 12 -4 -11 9
-17 1 -12 -23 15 -31 36 -33 41 -19 53 29 21 46 13 102 -43 54 -55 80 -71 62
-37 -8 16 15 42 148 173 361 354 674 639 688 626 6 -7 -62 -77 -137 -140 l-45
-38 48 31 c46 30 95 76 147 136 14 16 60 61 102 99 52 47 75 74 70 82 -6 9
-38 -13 -109 -75z m-1166 -1180 c-34 -35 -67 -50 -67 -32 0 13 39 42 48 36 5
-3 17 3 27 14 10 11 21 20 24 20 3 0 -12 -17 -32 -38z m-121 -109 c2 -11 0
-13 -9 -4 -8 8 -19 4 -41 -17 -27 -23 -27 -22 3 10 35 38 43 40 47 11z"/>
<path d="M2095 2109 c-16 -10 -30 -23 -30 -28 0 -6 -40 -42 -90 -82 -135 -109
-179 -148 -181 -164 -1 -8 12 -1 28 16 17 17 83 75 147 129 103 87 172 151
160 149 -2 0 -17 -9 -34 -20z"/>
<path d="M1963 2058 c-83 -60 -91 -80 -9 -24 48 33 96 76 85 76 -2 0 -36 -23
-76 -52z"/>
<path d="M1605 1882 c-68 -66 -127 -113 -182 -145 -46 -26 -83 -50 -83 -53 0
-3 39 15 88 41 56 30 111 70 155 113 61 60 134 142 125 142 -1 0 -48 -44 -103
-98z"/>
<path d="M462 1784 c-6 -44 -14 -104 -16 -134 l-5 -55 9 50 c5 28 17 83 26
123 l18 73 105 -5 c58 -2 111 -5 116 -6 6 -1 15 -1 20 0 6 1 37 2 70 1 33 -1
67 3 75 9 11 7 -26 10 -121 10 -75 0 -170 3 -211 6 l-74 7 -12 -79z"/>
<path d="M1700 1761 c-29 -27 -75 -61 -104 -77 -73 -39 -139 -97 -153 -133
-13 -36 -10 -38 23 -12 15 12 20 21 12 23 -20 7 -1 25 88 84 47 31 91 62 97
68 7 6 34 30 59 54 26 23 44 42 39 42 -5 0 -32 -22 -61 -49z"/>
<path d="M1851 1796 c2 -2 83 -6 179 -8 99 -3 156 -2 130 3 -44 7 -317 12
-309 5z"/>
<path d="M2217 1787 c-3 -10 3 -12 23 -9 46 7 287 -27 422 -59 70 -17 137 -29
150 -27 38 6 -210 67 -333 82 -197 25 -256 27 -262 13z"/>
<path d="M620 1720 c0 -31 12 -40 76 -56 23 -6 24 -5 14 20 -8 22 -7 26 8 27
15 0 -17 15 -75 33 -21 7 -23 4 -23 -24z"/>
<path d="M881 1717 c-1 -31 -6 -39 -26 -47 -33 -12 -32 -17 4 -17 25 0 30 5
34 31 2 17 1 40 -4 51 -6 16 -8 12 -8 -18z"/>
<path d="M2200 1726 c0 -14 5 -28 10 -31 6 -4 10 7 10 24 0 17 -4 31 -10 31
-5 0 -10 -11 -10 -24z"/>
<path d="M1440 1694 c-25 -19 -81 -71 -125 -114 -44 -43 -100 -93 -124 -112
-24 -18 -72 -65 -107 -104 l-64 -71 23 -21 23 -22 54 57 55 57 -52 -47 c-46
-41 -73 -57 -73 -43 0 3 19 24 43 48 31 31 32 33 5 9 -66 -60 -54 -24 17 51
78 82 104 100 62 42 l-29 -39 32 35 c70 78 113 119 120 115 4 -3 16 8 25 23 9
15 52 60 93 100 84 79 91 91 22 36z"/>
<path d="M2528 1702 c-23 -5 -33 -44 -20 -79 10 -26 10 -25 11 19 l1 47 43 3
c37 3 39 4 12 8 -16 3 -38 4 -47 2z"/>
<path d="M1435 1660 c-35 -23 -66 -61 -58 -73 2 -4 -1 -16 -8 -25 -10 -12 -8
-12 9 2 12 11 28 31 35 45 7 14 27 36 46 48 41 28 19 30 -24 3z"/>
<path d="M2206 1665 c-3 -8 -1 -15 3 -15 5 0 14 -12 19 -27 8 -26 9 -24 8 15
-1 42 -18 57 -30 27z"/>
<path d="M560 1660 c0 -9 68 -27 135 -34 l50 -5 -50 13 c-97 27 -135 34 -135
26z"/>
<path d="M2855 1650 c-18 -20 -18 -20 8 -20 28 0 32 6 19 28 -7 9 -13 8 -27
-8z"/>
<path d="M2640 1610 c-139 -33 -183 -39 -277 -40 -62 0 -113 -3 -113 -7 0 -5
-147 -7 -327 -6 -181 0 -319 -2 -308 -7 11 -4 106 -9 210 -10 105 -1 226 -3
270 -5 73 -4 401 10 485 20 70 8 256 76 243 88 -8 9 9 12 -183 -33z"/>
<path d="M860 1579 c0 -8 -14 -10 -42 -5 -33 4 -39 3 -25 -5 22 -13 79 -8 85
9 2 6 -1 12 -7 12 -6 0 -11 -5 -11 -11z"/>
<path d="M1385 1510 c-42 -43 -42 -54 1 -17 23 20 50 57 41 57 -1 0 -21 -18
-42 -40z"/>
<path d="M1335 1440 c3 -5 1 -10 -4 -10 -6 0 -28 -26 -48 -57 -61 -94 -154
-216 -191 -250 l-34 -33 53 -61 c29 -33 67 -72 86 -86 39 -30 44 -68 13 -101
-26 -28 -50 -28 -85 0 l-28 22 18 -28 c29 -44 74 -59 98 -33 18 18 37 65 37
90 0 14 -28 50 -77 99 l-77 78 49 50 c61 62 54 65 -11 6 -27 -25 -50 -43 -53
-41 -2 3 26 37 63 76 37 39 82 94 101 122 18 29 51 74 74 102 45 54 49 65 25
65 -8 0 -12 -4 -9 -10z"/>
<path d="M948 1306 c-16 -12 -13 -18 33 -67 28 -30 48 -49 45 -43 -3 7 1 17 9
24 8 7 15 17 15 22 0 6 -8 0 -18 -12 l-18 -23 -32 41 c-36 45 -38 52 -17 52 8
0 15 5 15 10 0 13 -11 12 -32 -4z"/>
<path d="M1055 1200 c-25 -27 -12 -37 14 -11 12 12 21 23 21 26 0 11 -18 4
-35 -15z"/>
<path d="M1080 1175 c-13 -14 -21 -27 -18 -30 2 -3 17 9 33 25 16 17 24 30 19
30 -6 0 -21 -11 -34 -25z"/>
<path d="M785 1051 c-6 -6 -23 -16 -39 -24 l-28 -15 25 -16 c13 -9 32 -14 41
-10 23 9 20 23 -4 17 -29 -8 -25 15 5 29 14 6 25 15 25 20 0 11 -14 10 -25 -1z"/>
<path d="M483 707 c-7 -7 -28 -27 -47 -46 -33 -32 -34 -35 -18 -48 11 -10 12
-12 2 -7 -12 5 -12 4 -3 -6 12 -13 37 -5 28 10 -3 5 0 12 6 16 8 5 8 8 0 14
-9 5 -7 11 5 21 16 12 17 12 10 -1 -5 -8 3 -3 18 12 25 26 34 48 19 48 -5 -1
-13 -6 -20 -13z"/>
<path d="M242 488 c-12 -24 -22 -52 -21 -63 0 -13 3 -15 6 -6 5 11 7 11 14 0
6 -9 9 -2 9 22 0 23 7 42 20 54 21 19 21 19 20 -66 -1 -46 3 -97 8 -114 8 -23
10 -3 11 93 1 120 1 122 -22 122 -16 0 -28 -12 -45 -42z"/>
<path d="M206 340 c15 -123 90 -200 196 -200 35 0 47 6 84 44 35 35 44 50 43
77 -1 33 -1 34 -9 7 -22 -75 -93 -125 -158 -113 -76 14 -141 94 -142 175 0 19
-5 42 -10 50 -7 10 -8 -2 -4 -40z"/>
<path d="M452 303 c15 -2 35 -14 43 -26 11 -15 15 -17 15 -6 0 24 -22 39 -54
38 -31 -2 -31 -2 -4 -6z"/>
</g>
</svg>
