<?xml version="1.0" standalone="no"?>
<!DOCTYPE svg PUBLIC "-//W3C//DTD SVG 20010904//EN"
 "http://www.w3.org/TR/2001/REC-SVG-20010904/DTD/svg10.dtd">
<svg version="1.0" xmlns="http://www.w3.org/2000/svg"
 width="300.000000pt" height="437.000000pt" viewBox="0 0 300.000000 437.000000"
 preserveAspectRatio="xMidYMid meet">
<metadata>
Created by potrace 1.10, written by Peter Selinger 2001-2011
</metadata>
<g transform="translate(0.000000,437.000000) scale(0.100000,-0.100000)"
fill="#000000" stroke="none">
<path d="M150 4355 c0 -18 16 -20 23 -2 3 6 6 -1 7 -18 1 -16 3 -38 5 -48 4
-20 53 -107 61 -107 3 0 -7 20 -21 43 -18 32 -25 58 -25 95 0 49 -2 52 -25 52
-16 0 -25 -6 -25 -15z"/>
<path d="M1736 4361 c22 -10 64 -57 64 -73 0 -5 -6 -6 -12 -3 -7 4 -1 -3 14
-15 14 -11 37 -29 50 -40 l23 -19 -30 -2 c-25 -1 -22 -3 15 -10 54 -11 75 -6
39 9 -26 10 -39 24 -102 112 -22 29 -41 46 -57 47 -24 3 -24 2 -4 -6z"/>
<path d="M1840 4331 c0 -24 6 -44 17 -52 15 -12 16 -12 10 4 -4 10 -7 34 -7
53 0 19 -4 34 -10 34 -5 0 -10 -17 -10 -39z"/>
<path d="M2405 4358 c11 -6 45 -38 77 -70 31 -32 63 -58 71 -58 9 0 -16 32
-54 70 -45 45 -78 70 -92 70 -22 -1 -22 -1 -2 -12z"/>
<path d="M1326 4327 c-21 -12 -51 -38 -65 -57 l-26 -35 42 37 c67 59 98 71
165 65 32 -3 58 -1 58 4 0 5 -30 9 -67 9 -52 0 -77 -6 -107 -23z"/>
<path d="M1625 4290 c14 -35 25 -65 25 -67 0 -2 4 -3 8 -3 13 0 -23 99 -42
118 -12 12 -10 0 9 -48z"/>
<path d="M2114 4332 c-6 -4 -13 -17 -16 -29 -5 -19 -2 -21 22 -18 42 5 71 26
58 42 -11 14 -47 17 -64 5z m41 -11 c3 -5 -4 -13 -16 -16 -23 -8 -34 -1 -24
14 8 13 32 14 40 2z"/>
<path d="M60 4321 c0 -5 18 -29 39 -52 21 -24 40 -48 41 -54 1 -5 8 -14 16
-18 8 -4 14 -13 14 -20 0 -7 14 -27 30 -46 17 -18 30 -37 30 -42 0 -10 49 -44
55 -38 5 6 -86 153 -97 157 -4 2 -8 10 -8 18 0 9 -4 13 -9 9 -5 -3 -12 -1 -16
5 -3 5 -2 10 4 10 5 0 3 14 -5 30 -18 35 -24 39 -17 10 4 -16 2 -19 -11 -14
-9 3 -16 12 -16 18 0 7 -11 18 -25 24 -14 6 -25 8 -25 3z"/>
<path d="M790 4302 c0 -10 33 -40 86 -77 16 -11 45 -35 66 -54 21 -18 38 -29
38 -23 0 6 -10 18 -22 26 -12 9 -19 16 -15 16 5 0 1 7 -8 16 -12 12 -13 19 -4
30 6 7 9 19 6 26 -4 8 -6 7 -6 -4 -2 -32 -56 -22 -101 18 -22 20 -40 32 -40
26z"/>
<path d="M326 4292 c-11 -18 -19 -232 -8 -232 19 0 29 55 26 135 -2 48 1 84 7
92 9 10 8 13 -4 13 -9 0 -18 -4 -21 -8z"/>
<path d="M1415 4260 c-55 -20 -51 -26 7 -10 21 6 40 15 43 20 4 6 5 10 3 9 -2
0 -25 -9 -53 -19z"/>
<path d="M2264 4221 c-75 -26 -143 -61 -116 -61 6 0 51 11 98 25 116 33 126
32 76 -11 -23 -19 -42 -40 -42 -46 0 -5 21 9 46 31 26 23 54 41 63 41 16 0
121 -56 121 -65 0 -3 -35 -23 -77 -44 -43 -22 -69 -40 -58 -40 29 -1 121 44
133 64 21 39 67 -43 52 -94 -5 -17 -6 -40 -3 -53 4 -19 3 -20 -7 -8 -9 13 -10
12 -8 -5 2 -13 -2 -20 -13 -19 -23 2 -178 105 -215 143 -40 41 -154 70 -154
40 0 -7 11 -9 30 -6 24 5 28 4 24 -11 -5 -13 -4 -14 4 -4 11 16 33 6 88 -38
153 -123 192 -150 217 -150 35 0 74 86 63 141 -7 39 -97 140 -126 142 -10 0
-16 6 -13 13 5 14 35 9 76 -13 4 -2 7 -2 7 0 0 3 -20 17 -44 31 -58 34 -117
33 -222 -3z"/>
<path d="M883 4172 c29 -30 87 -67 87 -55 -1 9 -94 83 -106 83 -4 0 4 -12 19
-28z"/>
<path d="M1466 4160 c-18 -46 -31 -53 -22 -12 12 54 -14 -6 -60 -135 -25 -70
-42 -133 -39 -140 2 -8 1 -12 -3 -10 -4 3 -23 -17 -42 -43 -19 -27 -52 -60
-74 -74 -40 -26 -39 -30 18 -39 27 -4 61 5 169 46 l39 14 -38 22 c-26 15 -40
19 -47 12 -8 -8 -7 -11 1 -11 9 0 10 -5 4 -16 -12 -22 -112 -57 -112 -40 0 21
54 85 72 86 20 0 42 35 32 52 -4 6 -3 8 3 5 9 -6 46 71 48 98 0 14 22 78 52
153 13 35 22 66 20 68 -2 3 -12 -13 -21 -36z"/>
<path d="M1698 4187 c11 -13 10 -15 -13 -12 -29 3 -26 -1 26 -36 50 -33 109
-86 109 -98 0 -6 -6 -14 -14 -18 -21 -13 -117 -126 -111 -132 7 -6 135 120
135 134 0 16 245 7 310 -11 42 -12 65 -27 98 -61 43 -47 112 -171 112 -203 0
-16 27 -48 34 -39 21 28 47 82 43 92 -2 6 -15 -10 -30 -38 -21 -42 -27 -47
-33 -31 -5 13 0 33 15 59 l23 40 -23 -16 c-22 -16 -23 -15 -57 46 -75 135
-130 172 -274 184 -38 3 -68 10 -68 14 0 5 5 10 10 10 6 1 14 2 19 3 6 0 16 7
23 14 11 11 3 13 -47 7 -33 -4 -64 -12 -70 -18 -7 -7 -6 -8 2 -3 6 3 15 2 18
-4 4 -7 -5 -10 -24 -8 -23 2 -28 5 -19 15 8 10 7 12 -4 8 -9 -4 -30 6 -49 22
-44 37 -89 66 -89 56 0 -5 16 -21 36 -36 19 -16 33 -31 30 -34 -3 -3 -18 5
-34 18 -16 13 -38 30 -48 37 -11 7 -12 9 -4 5 13 -6 13 -4 -1 17 -9 13 -22 26
-30 29 -12 3 -12 2 -1 -12z"/>
<path d="M1994 4191 c6 -10 92 -41 110 -40 13 0 -92 49 -106 49 -5 0 -7 -4 -4
-9z"/>
<path d="M742 4123 c26 -26 50 -45 52 -42 7 7 -74 89 -88 89 -6 0 10 -21 36
-47z"/>
<path d="M1960 4165 c0 -2 14 -12 31 -20 37 -20 64 -14 29 5 -26 15 -60 23
-60 15z"/>
<path d="M2370 4152 c0 -5 19 -9 43 -10 30 -1 38 1 27 8 -18 12 -70 13 -70 2z"/>
<path d="M665 4139 c15 -25 50 -59 61 -59 6 0 17 -7 24 -15 7 -8 18 -15 24
-15 6 0 -5 14 -24 31 -56 48 -94 74 -85 58z"/>
<path d="M1885 4130 c-3 -5 0 -10 7 -11 7 0 21 -2 30 -4 10 -2 21 1 24 7 10
16 -4 22 -21 8 -10 -8 -15 -9 -15 -1 0 14 -17 15 -25 1z"/>
<path d="M1327 4063 c-4 -21 -1 -56 6 -78 l12 -40 3 63 c4 75 -12 115 -21 55z"/>
<path d="M1008 4053 c-8 -10 -7 -12 6 -7 17 7 23 -11 6 -21 -5 -3 -10 -15 -10
-27 0 -17 2 -18 15 -8 13 11 14 10 9 -5 -5 -12 -4 -16 3 -12 6 4 13 19 15 34
3 16 8 35 12 44 5 11 0 15 -19 15 -14 0 -31 -6 -37 -13z"/>
<path d="M1130 4001 c-30 -27 -55 -54 -55 -59 0 -21 -73 -92 -89 -86 -19 7
-35 -64 -17 -75 9 -6 8 -11 -3 -20 -9 -7 -15 -23 -14 -35 0 -11 -3 -29 -7 -38
-4 -11 -3 -18 4 -18 6 0 11 -5 11 -11 0 -6 -7 -9 -15 -5 -12 4 -15 -5 -15 -52
0 -31 -3 -68 -6 -82 -5 -24 -5 -24 7 -5 13 19 13 19 20 -5 6 -23 7 -23 8 8 1
17 6 32 12 32 6 0 1 9 -12 21 l-24 20 28 -4 c19 -3 25 -1 19 7 -14 17 -21 55
-12 61 4 3 6 14 3 24 -3 10 4 50 15 87 18 63 26 76 99 147 44 43 86 83 94 89
11 8 11 9 -4 4 -16 -5 -16 -4 -1 19 9 14 15 25 13 25 -2 0 -29 -22 -59 -49z"/>
<path d="M2456 4020 c6 -6 26 -13 46 -16 27 -5 35 -3 35 10 0 12 -11 16 -46
16 -31 0 -42 -3 -35 -10z"/>
<path d="M2120 3975 c0 -2 15 -11 34 -20 32 -15 85 -86 126 -167 7 -16 15 -26
17 -24 6 6 -34 83 -69 134 -33 48 -108 102 -108 77z"/>
<path d="M1161 3924 c-6 -14 -13 -67 -16 -117 l-5 -92 14 90 c7 50 17 102 21
118 9 34 2 35 -14 1z"/>
<path d="M160 3925 c-19 -22 -5 -30 32 -18 27 9 29 11 10 12 -13 1 -20 6 -17
11 10 16 -11 12 -25 -5z"/>
<path d="M420 3882 c-27 -22 -20 -42 14 -42 33 0 53 25 36 45 -16 19 -23 19
-50 -3z m50 -12 c0 -5 -3 -10 -7 -10 -5 0 -18 -3 -30 -6 -13 -4 -23 -2 -23 4
0 10 19 18 48 21 6 0 12 -3 12 -9z"/>
<path d="M1487 3785 c63 -58 90 -58 33 0 -24 25 -53 45 -63 45 -14 0 -7 -11
30 -45z"/>
<path d="M656 3789 c75 -95 161 -221 184 -271 16 -35 29 -55 29 -45 1 9 6 17
11 17 14 0 13 27 -2 36 -7 4 -8 3 -4 -4 4 -7 4 -12 1 -12 -10 0 -44 43 -45 56
0 6 -13 26 -29 45 -17 18 -39 52 -51 75 -11 23 -27 45 -36 48 -8 3 -12 11 -8
17 4 8 3 9 -4 5 -7 -4 -12 -1 -12 6 0 7 -10 19 -22 27 -20 12 -21 12 -12 0z"/>
<path d="M616 3778 c4 -6 8 -21 8 -33 1 -12 9 -30 19 -39 9 -10 15 -21 13 -24
-2 -4 7 -18 20 -32 19 -19 16 -8 -17 58 -22 45 -42 82 -45 82 -3 0 -2 -5 2
-12z"/>
<path d="M58 3723 c18 -7 15 -23 -5 -24 -15 0 -14 -3 4 -11 15 -7 25 -24 29
-47 4 -20 14 -46 22 -58 8 -13 11 -23 8 -23 -4 0 4 -15 18 -33 13 -17 30 -46
37 -62 7 -17 13 -32 15 -35 1 -3 5 -15 9 -27 4 -13 10 -23 14 -23 4 0 7 -38 7
-84 0 -47 -3 -83 -7 -80 -4 2 -9 -3 -13 -11 -3 -9 0 -15 9 -15 8 0 15 -5 15
-11 0 -7 -9 -9 -21 -6 -16 4 -20 2 -17 -11 4 -13 -3 -17 -31 -19 -81 -4 -109
-30 -73 -66 24 -23 87 -33 107 -17 11 10 15 7 21 -15 3 -14 5 -27 3 -29 -2 -2
-28 1 -57 7 -48 10 -54 9 -73 -10 -19 -18 -20 -25 -10 -56 7 -19 19 -38 27
-41 25 -10 52 -7 56 6 5 15 38 19 39 5 2 -24 -3 -63 -12 -78 -5 -10 -4 -20 3
-27 9 -9 6 -12 -12 -12 -22 0 -22 -1 -7 -18 10 -11 17 -36 17 -62 0 -52 7 -47
30 21 10 27 13 46 7 40 -18 -18 -38 -13 -28 7 13 25 35 160 33 207 0 22 0 51
0 65 0 14 0 36 0 50 0 14 3 30 7 35 4 6 8 26 9 45 1 19 5 47 8 63 4 22 2 27
-13 27 -17 1 -17 1 0 14 13 10 16 21 11 42 -10 43 -84 187 -103 201 -15 11
-15 12 1 13 15 0 16 3 6 26 -7 15 -14 21 -16 15 -6 -19 -22 -12 -22 10 0 12
-6 35 -14 52 -8 18 -16 40 -20 50 -3 9 -11 17 -18 16 -10 0 -10 -2 0 -6z m111
-604 c40 -14 39 -25 -1 -43 -39 -16 -49 -12 -22 9 18 14 17 14 -10 5 -33 -12
-60 -6 -54 12 3 7 15 15 29 19 13 4 24 7 25 8 1 1 15 -4 33 -10z m19 -138 c-3
-13 -14 -15 -53 -13 -56 4 -60 6 -53 24 4 9 21 12 57 9 42 -2 51 -6 49 -20z
m-57 -31 c5 0 9 -7 9 -15 0 -18 -42 -5 -48 15 -3 9 1 11 12 7 10 -4 22 -7 27
-7z"/>
<path d="M2713 3671 c-28 -34 -50 -68 -81 -127 -22 -41 -71 -162 -86 -209 -8
-27 -23 -72 -32 -100 -11 -35 -17 -95 -19 -195 l-3 -145 9 125 c9 122 49 292
73 315 6 6 12 24 12 42 2 40 71 184 114 238 64 80 76 132 13 56z"/>
<path d="M2777 3611 c-17 -98 -29 -268 -18 -254 4 4 17 21 31 37 19 22 21 28
8 23 -21 -8 -21 -12 -6 127 11 106 12 109 40 118 15 6 28 15 28 20 0 6 -7 4
-16 -3 -14 -11 -19 -10 -33 8 -17 20 -18 17 -34 -76z"/>
<path d="M1317 3688 c-10 -5 -30 -7 -43 -4 -23 6 -24 5 -14 -13 6 -13 16 -18
27 -14 14 6 15 -2 11 -65 -6 -84 8 -88 17 -4 3 31 11 68 16 81 12 29 9 33 -14
19z"/>
<path d="M893 3629 c-5 -18 -7 -47 -4 -63 4 -25 6 -20 13 28 9 67 4 86 -9 35z"/>
<path d="M2841 3637 c-15 -15 5 -47 29 -47 11 0 20 6 20 14 0 8 14 19 30 25
17 5 30 11 30 13 0 8 -100 4 -109 -5z"/>
<path d="M1245 3597 c-10 -20 -24 -33 -29 -30 -6 4 -8 3 -4 -1 4 -5 3 -19 -3
-33 -14 -37 7 -19 37 32 14 25 24 50 22 56 -2 6 -12 -5 -23 -24z"/>
<path d="M2383 3603 c0 -40 6 -41 38 -7 l24 27 -27 -7 c-17 -4 -28 -2 -31 7
-2 6 -4 -3 -4 -20z"/>
<path d="M2420 3553 c-22 -34 -45 -59 -62 -65 -27 -9 -32 -28 -16 -54 12 -19
3 -151 -13 -171 -13 -16 -12 -17 2 -5 9 7 24 10 33 6 14 -5 15 -3 6 22 -9 23
-5 84 5 84 2 0 15 -4 30 -10 28 -11 95 10 95 29 0 5 -12 3 -27 -5 -33 -16 -69
-18 -78 -4 -7 11 -2 13 59 26 22 5 41 14 43 19 4 12 -34 57 -59 71 -16 9 -16
12 3 53 29 66 19 68 -21 4z m30 -93 c39 -26 42 -30 21 -30 -14 0 -33 7 -43 16
-13 12 -21 14 -31 6 -8 -7 -18 -8 -27 -1 -13 8 -12 12 4 24 26 19 24 20 76
-15z"/>
<path d="M247 3543 c-14 -15 -21 -16 -37 -5 -23 14 -25 9 -10 -19 9 -16 15
-17 31 -9 15 9 31 6 72 -13 l52 -23 28 28 c15 16 27 33 27 38 0 4 6 11 13 13
7 4 6 6 -4 6 -9 1 -19 -6 -23 -14 -3 -8 -10 -15 -16 -15 -6 0 -18 -7 -26 -15
-9 -8 -20 -15 -26 -15 -6 0 -8 3 -5 6 6 6 -41 54 -53 54 -3 0 -14 -8 -23 -17z"/>
<path d="M1171 3506 c-8 -9 -20 -15 -28 -12 -32 13 21 -44 75 -79 31 -21 78
-55 104 -77 l46 -38 65 24 c36 13 100 34 143 46 69 20 84 21 138 10 108 -21
180 -56 235 -115 28 -30 51 -51 51 -47 0 17 -106 113 -144 132 -23 11 -75 28
-116 39 -67 17 -82 18 -140 6 -88 -19 -128 -30 -174 -50 -44 -19 -72 -15 -104
15 -12 11 -22 18 -22 15 0 -3 -12 2 -26 12 -24 16 -26 21 -21 70 7 64 -8 79
-23 23 -14 -54 -38 -53 -42 2 -3 37 -4 40 -17 24z"/>
<path d="M1113 3474 c9 -11 17 -25 17 -31 0 -11 -29 -27 -42 -25 -5 1 -8 -3
-8 -9 0 -8 12 -10 35 -6 26 4 37 2 45 -11 17 -31 10 -2 -9 37 -11 20 -28 44
-38 51 -17 14 -17 14 0 -6z"/>
<path d="M2065 3432 c3 -8 5 -18 5 -24 0 -6 9 -1 20 12 11 13 20 23 20 24 0 1
-11 1 -25 1 -17 0 -24 -4 -20 -13z"/>
<path d="M2901 3427 c-6 -8 -8 -17 -4 -21 4 -3 -3 -13 -15 -22 -12 -8 -22 -21
-22 -28 0 -8 -19 -40 -43 -72 -61 -83 -63 -88 -39 -73 11 7 35 37 53 68 19 30
43 67 55 81 19 22 41 80 30 80 -2 0 -9 -6 -15 -13z"/>
<path d="M609 3423 c-1 -4 -1 -16 0 -25 1 -9 -5 -18 -13 -20 -9 -2 2 -11 25
-20 37 -16 40 -16 27 -1 -7 9 -13 27 -13 41 0 23 -23 45 -26 25z"/>
<path d="M275 3411 c-8 -14 59 -20 73 -7 9 9 3 12 -28 13 -22 1 -42 -2 -45 -6z"/>
<path d="M1170 3413 c0 -4 14 -30 31 -58 28 -45 31 -45 13 0 -13 33 24 13 54
-29 24 -33 28 -45 18 -49 -8 -3 -24 1 -36 10 -21 15 -21 14 -8 -7 10 -16 20
-20 40 -16 21 4 30 0 38 -14 6 -11 15 -20 21 -20 12 0 -36 86 -68 121 -26 28
-103 75 -103 62z"/>
<path d="M2646 3406 c6 -14 47 -46 60 -46 3 0 4 6 1 14 -3 8 -1 17 6 20 7 2
-3 2 -20 -1 -26 -4 -33 -2 -33 11 0 9 -4 16 -10 16 -5 0 -7 -6 -4 -14z"/>
<path d="M2133 3393 c-12 -2 -27 -11 -35 -20 -12 -15 -11 -15 9 -5 49 27 153
0 169 -43 4 -8 12 -15 19 -15 8 0 15 -7 17 -17 3 -14 4 -14 16 -1 10 13 7 18
-23 33 -20 9 -39 23 -41 30 -9 23 -88 46 -131 38z"/>
<path d="M1170 3366 c0 -13 40 -85 51 -92 6 -4 -1 15 -17 42 -32 57 -34 60
-34 50z"/>
<path d="M920 3345 c0 -5 12 -23 26 -40 14 -16 31 -37 38 -45 6 -8 25 -24 41
-36 53 -36 61 -37 20 -3 -38 33 -61 57 -104 109 -11 14 -20 21 -21 15z"/>
<path d="M2619 3334 c-11 -14 -9 -20 14 -40 38 -33 71 -31 86 4 l11 27 -19
-22 c-18 -21 -20 -22 -50 -7 -32 16 -39 30 -19 36 8 3 9 6 1 11 -6 4 -17 0
-24 -9z"/>
<path d="M601 3314 c13 -16 60 -64 104 -106 l80 -77 43 12 c48 13 51 19 20 35
-13 7 -33 19 -45 28 -13 9 -23 12 -23 7 0 -5 14 -17 32 -28 l32 -19 -28 -7
c-22 -6 -35 -3 -57 14 -15 12 -28 28 -28 35 -1 6 -6 12 -12 12 -8 0 -8 4 1 15
10 12 3 20 -42 48 -29 19 -64 40 -77 47 l-25 13 25 -29z"/>
<path d="M276 3321 c-8 -13 33 -46 43 -35 6 5 0 16 -14 27 -13 9 -26 13 -29 8z"/>
<path d="M1772 3284 c-12 -8 -22 -21 -22 -29 0 -8 -7 -18 -15 -23 -20 -11 -9
-43 12 -35 12 5 12 7 1 14 -10 7 -11 9 0 9 7 0 11 4 8 9 -9 13 33 61 52 60 14
0 14 -2 2 -6 -23 -9 -30 -24 -30 -74 0 -53 -7 -64 -27 -44 -8 8 -20 15 -26 15
-18 0 82 -89 125 -111 39 -20 64 -26 38 -9 -12 8 -11 10 7 10 12 0 28 3 37 6
9 4 16 1 16 -6 0 -6 -9 -14 -20 -17 -11 -3 -20 -9 -20 -14 0 -16 15 -10 49 19
27 23 32 31 26 55 -4 15 -14 27 -22 27 -12 0 -12 -2 1 -16 9 -8 16 -21 16 -27
0 -7 -5 -4 -11 6 -6 9 -14 15 -19 12 -5 -3 -7 4 -5 16 2 11 -5 44 -15 72 -22
57 -18 78 4 26 9 -19 15 -28 16 -21 0 8 5 10 13 6 6 -4 -1 7 -17 24 -15 17
-34 28 -41 26 -7 -3 -20 5 -29 17 -8 13 -19 19 -23 15 -4 -4 0 -14 10 -21 13
-10 15 -14 5 -18 -10 -4 -10 -6 1 -6 10 -1 7 -7 -8 -20 -22 -20 -22 -20 -2
-18 12 1 21 6 21 11 0 5 7 1 15 -10 15 -19 15 -19 9 1 -5 18 -4 18 6 3 8 -13
8 -23 0 -39 -7 -11 -9 -23 -6 -27 3 -3 6 0 6 6 0 7 5 12 11 12 16 0 6 -43 -11
-47 -12 -4 -12 -3 -2 5 11 7 8 10 -10 14 -12 3 -32 9 -43 13 -16 5 -17 5 -5
-4 8 -6 11 -11 5 -11 -28 1 -65 52 -65 90 0 15 8 22 30 27 29 5 30 7 14 24
-21 23 -33 24 -62 3z m44 -150 c-3 -7 -1 -16 4 -19 4 -3 10 -1 12 4 5 13 40
18 45 6 2 -6 -3 -20 -11 -30 -14 -20 -15 -20 -43 1 -17 13 -29 32 -31 49 -3
26 -2 27 13 15 9 -7 14 -19 11 -26z"/>
<path d="M1394 3282 c13 -22 84 -52 118 -51 32 1 32 2 -7 9 -22 3 -58 17 -79
30 -22 13 -36 19 -32 12z"/>
<path d="M2404 3273 c-4 -10 -6 -24 -5 -32 1 -7 -2 -10 -7 -7 -8 5 -37 -43
-29 -50 1 -2 15 8 30 21 14 14 32 25 40 25 15 0 37 20 37 34 0 5 -8 2 -18 -7
-10 -10 -24 -17 -30 -17 -16 0 -15 23 0 38 8 8 8 12 1 12 -6 0 -14 -8 -19 -17z"/>
<path d="M540 3261 c0 -16 15 -20 40 -14 22 6 23 7 4 14 -27 11 -44 11 -44 0z"/>
<path d="M290 3250 c-13 -9 -13 -11 0 -20 8 -5 23 -10 33 -10 15 0 15 3 5 20
-15 23 -17 23 -38 10z"/>
<path d="M650 3226 c0 -9 8 -19 18 -23 37 -13 71 -57 72 -93 l1 -35 14 25 13
25 11 -28 c6 -15 19 -30 28 -34 10 -4 39 -24 64 -45 25 -21 49 -38 54 -38 4 0
-9 15 -31 33 -29 24 -158 145 -240 226 -2 2 -4 -3 -4 -13z"/>
<path d="M1250 3232 c0 -16 60 -62 80 -62 10 0 25 9 33 20 13 19 17 19 47 6
l33 -14 -31 -7 c-18 -3 -34 -11 -37 -16 -4 -5 5 -5 20 1 42 16 50 12 22 -10
-35 -28 -63 -69 -71 -105 -4 -21 2 -14 22 24 16 30 44 65 62 78 58 39 62 26 8
-28 -36 -36 -47 -53 -38 -59 9 -5 9 -9 1 -14 -6 -4 -18 -22 -27 -39 -9 -18
-12 -27 -7 -22 5 6 43 46 83 90 73 78 72 86 -2 16 -21 -19 -38 -31 -38 -25 0
12 58 68 85 82 21 10 58 1 70 -17 3 -6 -3 -25 -15 -41 -12 -16 -18 -35 -15
-40 4 -6 2 -9 -3 -8 -5 2 -19 -8 -30 -22 -14 -16 -21 -20 -22 -11 0 8 10 26
22 40 13 14 4 8 -19 -13 -23 -22 -40 -43 -37 -47 2 -4 -5 -13 -16 -19 -17 -9
-18 -13 -7 -24 17 -18 62 -32 53 -17 -4 6 -14 11 -22 11 -13 0 -12 4 1 30 16
31 32 42 21 15 -7 -18 73 63 96 96 l15 24 44 -24 44 -24 -44 39 c-59 52 -90
70 -149 87 -27 9 -63 22 -80 31 -39 20 -39 20 -45 -5 -6 -24 -33 -20 -79 13
-16 11 -28 15 -28 10z"/>
<path d="M1160 3211 c7 -15 8 -21 1 -17 -17 11 -52 16 -46 7 6 -11 86 -31 117
-31 19 1 17 3 -12 16 -19 8 -43 23 -54 32 -18 16 -18 16 -6 -7z"/>
<path d="M2962 3218 c-15 -15 -16 -58 -1 -58 5 0 7 4 4 10 -8 13 14 52 26 45
5 -4 9 -1 9 4 0 15 -23 14 -38 -1z"/>
<path d="M363 3195 c-8 -9 -9 -16 -3 -20 6 -3 10 -1 10 4 0 6 15 11 33 11 24
0 28 3 17 10 -21 14 -43 12 -57 -5z"/>
<path d="M2314 3175 c-7 -30 2 -75 17 -75 6 0 6 8 -2 21 -6 12 -8 34 -5 50 7
36 -1 39 -10 4z"/>
<path d="M2387 3180 c-17 -11 -24 -20 -18 -24 14 -9 28 0 41 25 13 23 13 23
-23 -1z"/>
<path d="M1094 3172 c0 -9 -4 -16 -11 -15 -7 2 -31 7 -54 12 -23 5 -37 6 -33
2 16 -14 127 -40 194 -45 45 -4 55 -3 33 3 -17 4 -54 20 -81 34 -43 22 -49 24
-48 9z"/>
<path d="M2750 3172 c-6 -7 -10 -16 -7 -19 8 -7 106 17 113 28 8 14 -92 5
-106 -9z"/>
<path d="M640 3160 c-12 -8 -11 -10 6 -10 14 0 21 -6 20 -16 0 -9 5 -19 12
-21 17 -7 15 11 -5 36 -13 15 -22 18 -33 11z"/>
<path d="M2010 3164 c0 -14 67 -125 87 -144 9 -8 6 0 -7 19 -13 18 -36 56 -51
85 -16 28 -29 46 -29 40z"/>
<path d="M2842 3139 c-13 -16 -29 -26 -35 -22 -14 8 -57 14 -57 7 0 -3 17 -12
37 -21 37 -15 38 -15 60 12 13 14 23 33 23 41 0 19 -1 18 -28 -17z"/>
<path d="M2670 3134 c0 -12 -6 -15 -26 -10 -17 5 -23 3 -19 -4 3 -5 13 -10 20
-10 8 0 31 -17 52 -37 20 -21 34 -30 31 -21 -4 9 -12 34 -19 57 -12 40 -39 57
-39 25z"/>
<path d="M271 3114 c1 -10 5 -30 9 -44 l8 -25 1 27 c1 21 7 28 30 33 16 3 45
3 65 -1 24 -4 36 -2 36 5 0 6 -10 11 -22 11 -13 0 -47 3 -75 6 -48 6 -53 5
-52 -12z"/>
<path d="M603 3109 c9 -5 17 -19 17 -31 0 -11 8 -27 18 -34 25 -20 34 -17 22
7 -17 31 -52 69 -64 69 -6 0 -3 -5 7 -11z"/>
<path d="M2238 3044 c-27 -13 -48 -29 -48 -34 0 -5 23 4 50 21 28 17 50 33 50
35 0 6 0 6 -52 -22z"/>
<path d="M2562 3064 c-6 -3 -9 -10 -6 -15 4 -6 11 -6 19 1 9 8 25 7 56 -4 44
-15 61 -14 43 4 -12 12 -94 22 -112 14z"/>
<path d="M1785 3041 c11 -13 41 -45 66 -71 26 -26 49 -55 50 -65 5 -22 29 -32
29 -12 0 8 -9 26 -20 40 l-20 25 30 -11 c16 -6 30 -17 30 -23 0 -7 6 -14 13
-17 9 -3 9 -8 -2 -21 -12 -14 -12 -16 3 -10 9 3 16 13 16 21 0 8 5 11 11 8 6
-4 8 -13 5 -21 -8 -22 19 -16 40 8 10 12 14 18 7 14 -7 -4 -19 3 -28 18 -17
26 -44 39 -117 57 -26 6 -53 18 -60 27 -11 13 -10 15 12 9 14 -4 68 -12 120
-19 53 -6 113 -20 135 -31 34 -17 38 -17 26 -3 -26 31 -71 47 -142 51 -67 4
-110 10 -153 22 -12 3 -16 1 -12 -6 12 -18 -6 -12 -33 12 l-26 22 20 -24z"/>
<path d="M2340 3050 c0 -5 7 -10 15 -10 22 0 18 -21 -5 -27 -22 -6 -28 -23 -7
-23 17 0 38 36 31 55 -7 17 -34 21 -34 5z"/>
<path d="M1622 3010 c-64 -43 -84 -70 -53 -70 10 0 21 7 24 15 7 18 76 62 111
71 28 7 76 -17 76 -37 0 -8 -5 -7 -15 1 -21 18 -92 6 -119 -19 -18 -17 -25
-47 -16 -81 0 -3 7 10 16 29 15 35 15 35 30 13 12 -18 19 -20 35 -12 10 6 19
19 19 29 0 16 5 18 35 11 38 -9 45 3 24 42 -10 19 -65 48 -93 48 -7 0 -41 -18
-74 -40z"/>
<path d="M320 3003 c-67 -10 -66 -9 -78 -76 -15 -81 -14 -116 2 -57 11 40 16
46 46 51 l35 6 -32 14 c-45 18 -43 39 5 39 53 0 87 11 70 21 -7 5 -15 8 -18 7
-3 0 -16 -2 -30 -5z"/>
<path d="M1325 2988 c-4 -13 -12 -26 -18 -29 -6 -4 -7 -15 -2 -25 6 -15 10
-10 21 25 8 25 12 46 10 49 -2 2 -7 -7 -11 -20z"/>
<path d="M2692 2990 c9 -6 15 -16 14 -23 -3 -14 -24 -65 -33 -81 -4 -6 3 -3
15 8 30 26 49 86 31 97 -8 5 -21 9 -29 9 -12 -1 -12 -2 2 -10z"/>
<path d="M1168 2948 c-30 -10 -38 -28 -13 -28 8 0 15 4 15 8 0 5 10 14 23 20
28 13 11 14 -25 0z"/>
<path d="M676 2925 c-4 -12 -10 -14 -25 -5 -28 14 -36 13 -21 -5 7 -8 16 -12
21 -9 5 3 9 -3 9 -13 0 -15 4 -14 20 7 11 14 20 28 20 33 0 13 -18 7 -24 -8z"/>
<path d="M700 2890 c-17 -22 -36 -40 -41 -40 -6 0 -8 4 -5 9 4 5 -3 7 -13 4
-18 -5 -17 -9 15 -43 19 -21 41 -46 49 -56 7 -11 17 -16 21 -12 4 5 0 16 -9
26 -10 10 -14 22 -10 25 3 4 -3 7 -14 7 -32 0 -33 22 -2 53 l27 28 17 -23 c16
-23 16 -22 9 17 -4 22 -8 41 -9 43 -1 2 -17 -15 -35 -38z"/>
<path d="M1401 2888 c-5 -14 -5 -28 1 -35 14 -18 28 -16 28 2 0 13 3 13 20 3
17 -11 22 -10 30 2 8 13 10 13 10 -2 0 -9 -12 -21 -27 -26 -16 -6 -21 -11 -12
-11 9 -1 27 8 40 18 l24 19 -24 26 c-32 34 -78 35 -90 4z"/>
<path d="M516 2885 c4 -8 10 -15 14 -15 5 0 17 -3 27 -6 14 -4 13 -1 -6 15
-27 25 -43 27 -35 6z"/>
<path d="M320 2860 c-7 -12 -21 -20 -38 -20 -26 -1 -26 -1 10 -20 20 -11 40
-24 43 -30 3 -5 11 -10 18 -10 6 0 3 6 -7 13 -24 18 -17 51 12 55 19 3 21 6
11 18 -16 20 -36 17 -49 -6z"/>
<path d="M1722 2809 c-34 -39 -60 -75 -56 -80 3 -6 14 3 24 19 10 16 23 33 29
36 10 7 75 96 69 96 -2 0 -31 -32 -66 -71z"/>
<path d="M2161 2860 c0 -27 27 -95 28 -70 0 8 -6 33 -14 55 -11 32 -14 35 -14
15z"/>
<path d="M2454 2838 c-18 -20 -18 -21 -1 -15 10 4 23 7 28 7 5 0 9 7 9 15 0
21 -14 19 -36 -7z"/>
<path d="M1348 2817 c-9 -19 -30 -50 -47 -70 -38 -42 -41 -60 -5 -26 32 29 77
105 72 120 -2 6 -11 -5 -20 -24z"/>
<path d="M1797 2806 c-24 -36 -38 -76 -28 -76 5 0 12 11 15 24 3 14 13 32 22
40 9 9 14 21 12 27 -2 7 -12 0 -21 -15z"/>
<path d="M1888 2818 c-9 -7 -21 -31 -28 -53 -7 -22 -32 -81 -57 -131 -30 -60
-43 -100 -41 -120 l3 -30 30 36 c16 19 21 28 11 20 -11 -8 -17 -10 -15 -5 2 6
24 61 48 122 31 78 48 110 57 106 8 -3 14 1 14 8 0 8 3 24 6 37 7 25 -4 28
-28 10z"/>
<path d="M565 2802 c17 -10 39 -21 50 -24 11 -3 29 -9 40 -13 16 -6 14 -1 -9
23 -18 19 -32 28 -36 22 -5 -8 -15 -8 -34 0 -41 15 -45 12 -11 -8z"/>
<path d="M1406 2790 c-3 -17 -6 -32 -6 -35 0 -7 -29 -35 -65 -64 -17 -13 -22
-21 -12 -18 24 9 21 -2 -10 -37 -15 -17 3 -1 42 37 38 37 73 67 78 67 12 0 -2
-41 -22 -65 -16 -20 -16 -20 7 -1 23 20 23 20 45 -2 18 -19 20 -26 10 -49 -23
-60 -24 -67 -5 -37 11 18 25 34 30 38 11 7 84 -72 77 -84 -3 -4 -35 -20 -72
-36 -38 -15 -82 -38 -99 -50 -17 -13 -35 -20 -39 -16 -3 4 -5 2 -3 -4 2 -6 -8
-21 -22 -33 -19 -17 -20 -20 -5 -12 11 5 29 19 40 31 10 11 33 28 51 36 32 15
136 45 140 41 2 -1 -13 -14 -33 -27 -20 -14 -60 -48 -89 -76 -29 -28 -78 -66
-108 -84 -77 -44 -70 -47 12 -6 37 19 95 60 130 91 70 64 79 64 26 0 -30 -38
-32 -43 -14 -38 21 6 22 5 6 -24 -19 -37 -11 -47 19 -27 31 20 42 48 17 40
-29 -9 -23 20 14 76 17 27 37 70 44 95 12 42 12 46 -6 56 -57 30 -154 168
-154 219 0 30 -17 29 -24 -2z"/>
<path d="M1960 2794 c0 -46 12 -83 26 -77 20 7 17 44 -6 73 -19 24 -20 24 -20
4z"/>
<path d="M2436 2784 c-20 -20 -20 -20 7 -19 25 0 47 12 47 26 0 15 -37 10 -54
-7z"/>
<path d="M245 2761 c3 -6 17 -11 30 -11 13 0 27 -4 30 -10 3 -5 11 -10 18 -10
7 0 5 6 -4 16 -19 18 -85 32 -74 15z"/>
<path d="M1170 2753 c-19 -9 -73 -26 -120 -38 -137 -38 -142 -41 -59 -42 46 0
61 2 40 6 -31 6 -27 8 55 33 49 15 98 34 109 42 25 19 20 19 -25 -1z"/>
<path d="M1547 2756 c-3 -8 -2 -18 4 -22 17 -10 59 5 59 21 0 17 -9 19 -30 5
-9 -6 -17 -5 -21 1 -4 7 -9 5 -12 -5z"/>
<path d="M1921 2730 c-1 -25 -10 -62 -20 -83 -10 -20 -15 -37 -10 -37 4 0 5
-8 2 -17 -6 -16 -5 -16 11 -4 10 9 13 17 7 21 -7 4 -3 21 9 46 17 33 19 48 11
80 l-9 39 -1 -45z"/>
<path d="M460 2742 c-22 -4 -19 -6 20 -18 53 -16 60 -17 60 -6 0 8 -47 35 -53
31 -1 -1 -13 -4 -27 -7z"/>
<path d="M1724 2715 c-13 -33 -20 -84 -9 -73 7 7 33 108 28 108 -2 0 -11 -16
-19 -35z"/>
<path d="M2159 2722 c-52 -57 -60 -75 -15 -29 27 26 46 50 44 52 -2 3 -16 -8
-29 -23z"/>
<path d="M2540 2713 c0 -6 -12 -26 -27 -43 l-26 -32 38 17 c50 20 50 20 31 47
-9 12 -16 17 -16 11z"/>
<path d="M1610 2692 c-25 -7 -51 -16 -58 -18 -7 -2 -11 -8 -7 -13 3 -6 17 -4
33 5 15 7 34 14 42 14 8 -1 -1 -9 -20 -20 -29 -15 -32 -20 -17 -25 25 -10 44
0 62 35 9 18 15 33 13 34 -2 1 -23 -4 -48 -12z"/>
<path d="M2181 2682 c-1 -7 -12 -23 -26 -36 l-25 -24 25 -16 c21 -14 25 -14
25 -2 0 8 -5 18 -11 21 -7 5 -5 13 6 25 10 11 15 25 12 32 -4 11 -6 11 -6 0z"/>
<path d="M2375 2681 c6 -11 4 -13 -11 -8 -17 7 -18 6 -2 -6 16 -13 16 -15 0
-31 -16 -17 -16 -18 3 -14 23 4 33 45 14 62 -9 8 -10 8 -4 -3z"/>
<path d="M1989 2662 c-14 -10 -27 -21 -28 -27 -1 -5 -12 -20 -23 -32 -12 -13
-17 -23 -12 -23 8 0 -52 -59 -130 -127 -20 -18 -34 -33 -32 -33 3 0 43 24 88
53 131 84 209 130 213 125 3 -2 -15 -19 -40 -36 -25 -17 -45 -38 -45 -46 0 -8
-17 -20 -37 -27 -21 -6 -43 -18 -50 -25 -11 -10 -64 -33 -139 -58 -14 -5 -34
-83 -34 -134 0 -56 28 -135 61 -174 28 -32 28 -32 -7 37 -19 39 -36 84 -37
100 -2 29 -1 30 36 27 47 -4 47 9 1 31 -30 15 -35 22 -30 40 3 12 6 28 6 34 0
16 125 79 176 89 26 5 50 19 74 44 44 47 68 60 94 51 12 -4 32 -4 46 0 l25 7
-27 1 c-19 1 -36 12 -55 37 -65 84 -65 84 -94 66z m26 -75 c-71 -47 -132 -82
-120 -69 27 30 132 101 150 102 13 0 4 -10 -30 -33z"/>
<path d="M1671 2624 c-12 -26 -20 -49 -17 -52 3 -2 15 17 26 43 27 62 20 68
-9 9z"/>
<path d="M730 2643 c-37 -7 -48 -22 -11 -17 18 3 31 1 31 -5 0 -6 -6 -11 -14
-11 -7 0 -16 -8 -19 -17 -3 -10 -15 -34 -28 -53 -20 -33 -19 -32 22 10 24 25
60 57 79 72 l35 27 -35 -1 c-19 0 -46 -3 -60 -5z"/>
<path d="M2510 2632 c-19 -9 -33 -20 -30 -23 3 -4 -4 -16 -14 -28 -37 -41 0
-20 44 24 49 50 49 52 0 27z"/>
<path d="M1194 2631 c8 -12 -104 -96 -177 -133 -33 -16 -57 -31 -55 -34 3 -2
43 17 90 42 88 47 188 134 154 134 -9 0 -15 -4 -12 -9z"/>
<path d="M1060 2609 c-110 -39 -141 -51 -138 -55 5 -5 155 44 186 61 37 19 18
17 -48 -6z"/>
<path d="M1698 2557 c-8 -34 -23 -80 -32 -102 l-16 -40 28 33 c24 26 31 46 36
99 4 36 5 67 3 69 -2 2 -10 -24 -19 -59z"/>
<path d="M2399 2566 c-152 -84 -249 -188 -330 -355 l-57 -116 21 -35 21 -35
-24 20 -23 20 17 -27 c25 -39 3 -44 -29 -6 -19 22 -25 38 -21 57 3 14 3 20 0
13 -3 -6 -11 -9 -17 -5 -6 4 -8 0 -4 -10 4 -12 2 -14 -10 -10 -18 7 87 -128
156 -199 25 -27 53 -48 62 -48 9 0 29 -11 45 -25 30 -26 54 -32 54 -15 0 9
-35 35 -104 78 -20 13 -20 13 8 9 25 -4 21 2 -45 70 l-74 74 24 20 c13 10 38
19 57 19 22 0 37 6 41 15 9 25 -2 27 -42 11 -21 -9 -39 -16 -41 -16 -11 0 0
37 28 94 l32 64 62 4 c46 2 60 0 57 -9 -3 -7 15 -2 40 12 42 24 46 24 80 10
36 -15 57 -35 37 -35 -6 0 -8 -4 -5 -10 10 -16 22 -12 22 8 0 20 -32 64 -41
55 -3 -3 -6 -2 -6 3 0 9 -49 11 -143 6 -23 -1 -36 -6 -32 -12 3 -5 0 -10 -7
-10 -7 0 -24 -3 -37 -7 l-24 -6 22 39 c40 70 56 86 107 99 47 13 48 14 14 15
l-35 1 35 30 c19 16 63 53 98 81 35 28 60 53 57 56 -3 3 2 14 12 24 22 25 8
21 -58 -16z m-316 -615 c-2 -6 3 -11 11 -11 16 0 48 -45 39 -54 -7 -6 -73 63
-73 77 0 5 6 7 13 4 6 -2 11 -10 10 -16z"/>
<path d="M2610 2591 c0 -6 -11 -16 -25 -21 -14 -5 -25 -17 -25 -26 0 -12 8 -8
32 15 17 17 29 34 25 38 -4 3 -7 1 -7 -6z"/>
<path d="M2512 2550 c-9 -14 -10 -26 -3 -38 9 -16 10 -16 16 0 4 9 5 26 3 38
l-3 21 -13 -21z"/>
<path d="M2817 2500 c-10 -16 -24 -65 -32 -107 -7 -43 -14 -82 -15 -88 -4 -19
0 -48 6 -42 3 3 5 8 5 11 -1 3 6 23 14 43 8 21 19 67 25 101 6 35 15 75 20 88
13 34 -2 30 -23 -6z"/>
<path d="M759 2493 c-49 -55 -86 -109 -97 -142 -24 -69 -11 -61 29 19 23 45
55 97 71 116 17 19 28 34 26 34 -2 0 -15 -12 -29 -27z"/>
<path d="M153 2490 c-3 -11 -10 -20 -15 -20 -6 0 -7 7 -4 16 3 8 2 12 -4 9
-15 -9 -12 -24 10 -55 11 -15 17 -30 13 -34 -3 -3 0 -6 8 -6 8 0 19 12 26 26
10 22 10 24 -8 19 -20 -7 -28 18 -9 30 13 8 13 35 -1 35 -6 0 -13 -9 -16 -20z"/>
<path d="M235 2503 c-33 -8 -42 -23 -13 -23 33 0 58 9 58 21 0 9 -12 10 -45 2z"/>
<path d="M2426 2469 c-13 -19 -12 -24 11 -50 34 -37 40 -37 13 1 -17 23 -19
34 -10 50 14 26 5 26 -14 -1z"/>
<path d="M250 2444 c-25 -13 -42 -24 -37 -25 26 -6 67 -3 67 5 0 5 7 18 17 28
21 23 9 21 -47 -8z"/>
<path d="M1695 2447 c-63 -89 -147 -169 -285 -269 -110 -81 -191 -181 -189
-233 1 -13 4 -9 10 11 17 60 74 128 160 194 144 109 212 166 250 206 19 22 43
44 53 49 11 6 17 19 15 33 -3 18 -6 20 -14 9z"/>
<path d="M1440 2412 c-13 -9 -34 -26 -47 -38 -12 -11 -40 -29 -62 -40 -23 -10
-41 -23 -41 -27 0 -14 93 42 140 83 47 41 52 50 10 22z"/>
<path d="M1587 2371 c-31 -33 -34 -43 -12 -34 13 4 52 63 43 63 -2 0 -15 -13
-31 -29z"/>
<path d="M251 2375 c9 -9 23 -13 32 -9 28 10 19 24 -15 24 -29 0 -31 -2 -17
-15z"/>
<path d="M1170 2368 c11 -12 28 -39 38 -60 9 -21 23 -38 31 -38 11 0 11 4 -2
18 -22 25 -21 30 6 30 13 0 45 12 72 26 53 29 50 29 -34 1 l-54 -18 -26 32
c-14 17 -32 31 -39 31 -8 0 -5 -8 8 -22z"/>
<path d="M17 2373 c-13 -12 -7 -51 9 -57 23 -9 34 -7 34 4 0 6 -10 10 -21 10
-17 0 -20 5 -17 25 6 27 5 29 -5 18z"/>
<path d="M236 2323 c77 -93 107 -124 148 -154 42 -31 66 -38 46 -14 -10 12
-10 18 0 31 12 13 10 14 -13 3 -35 -16 -45 -5 -22 21 19 21 19 21 -10 6 -35
-18 -43 -13 -126 94 -30 38 -58 70 -62 70 -5 0 13 -26 39 -57z"/>
<path d="M1150 2343 c0 -9 12 -37 27 -62 17 -29 22 -46 14 -49 -6 -2 -16 -13
-22 -25 l-12 -22 24 21 c13 12 31 24 39 27 10 4 11 6 2 6 -7 1 -10 6 -7 11 6
9 -50 110 -61 110 -2 0 -4 -7 -4 -17z"/>
<path d="M282 2325 c12 -27 28 -34 28 -12 0 14 -20 37 -32 37 -4 0 -2 -11 4
-25z"/>
<path d="M2530 2322 c0 -11 7 -25 16 -33 14 -11 15 -9 12 16 -3 32 -28 47 -28
17z"/>
<path d="M2578 2300 c-5 -34 3 -38 27 -14 12 12 13 19 4 30 -18 21 -26 17 -31
-16z"/>
<path d="M880 2311 c0 -6 5 -13 10 -16 6 -3 10 -17 10 -31 0 -18 5 -24 22 -24
17 0 19 -3 10 -12 -7 -7 -18 -13 -25 -13 -7 -1 -28 -8 -47 -17 -19 -9 -46 -18
-60 -20 -14 -1 -27 -6 -30 -10 -3 -4 -25 -8 -48 -9 -23 -2 -42 -6 -42 -9 0 -4
-16 -7 -36 -8 -20 -1 -42 -6 -49 -12 -7 -6 -20 -8 -29 -4 -9 3 -16 1 -16 -4 0
-6 -9 -14 -21 -17 -11 -4 -19 -9 -17 -11 11 -10 336 80 451 125 l29 11 -23 19
c-13 10 -28 18 -34 16 -5 -1 -6 0 -2 3 4 2 3 10 -4 18 -6 8 -8 14 -3 14 14 0
-19 20 -33 20 -7 0 -13 -4 -13 -9z"/>
<path d="M210 2293 c0 -10 12 -26 25 -36 24 -17 25 -17 25 1 0 18 -29 52 -43
52 -4 0 -7 -8 -7 -17z"/>
<path d="M1367 2261 c-96 -52 -148 -95 -175 -145 -19 -36 -22 -158 -7 -316 9
-94 9 -95 17 -45 4 28 4 96 -2 153 -16 166 15 253 105 299 25 13 23 9 -15 -27
-26 -24 -30 -30 -10 -14 20 16 47 37 60 47 14 10 19 15 11 11 -9 -5 -12 -3 -7
5 4 6 12 9 17 5 12 -7 85 42 93 62 3 8 4 14 3 14 -1 0 -42 -22 -90 -49z"/>
<path d="M88 2286 c-13 -10 -15 -15 -6 -24 17 -17 38 -15 38 3 0 9 10 20 23
25 20 8 20 9 -8 9 -16 0 -38 -5 -47 -13z"/>
<path d="M320 2276 c0 -23 25 -54 35 -44 3 3 2 19 -1 36 -8 37 -34 43 -34 8z"/>
<path d="M2630 2270 c-14 -11 -31 -20 -39 -20 -15 0 176 -209 220 -241 l28
-19 -24 45 c-14 25 -22 45 -18 45 3 0 0 6 -6 13 -6 8 -8 17 -4 20 3 4 1 7 -5
7 -7 0 -12 -7 -12 -15 0 -8 5 -15 11 -15 5 0 7 -4 4 -10 -12 -19 -65 19 -72
50 -3 17 -10 30 -15 30 -5 0 -6 5 -2 12 4 7 3 8 -4 4 -12 -7 -48 19 -63 47 -8
15 -5 23 18 43 33 29 19 32 -17 4z"/>
<path d="M1500 2190 c-63 -44 -114 -84 -113 -88 1 -5 -4 -9 -11 -9 -24 0 -76
-47 -86 -77 -5 -17 -21 -87 -36 -156 -14 -68 -41 -165 -61 -215 -19 -49 -48
-137 -63 -195 -35 -131 -46 -159 -72 -187 -30 -33 -38 -28 -26 14 13 48 3 118
-28 201 -14 37 -26 75 -27 84 -1 9 -5 16 -10 15 -5 -1 -12 4 -15 12 -3 9 0 11
9 6 8 -5 11 -4 6 1 -5 5 -12 9 -15 9 -13 0 -32 16 -32 27 0 6 7 5 18 -3 15
-13 16 -12 3 4 -8 9 -16 15 -19 12 -3 -2 -22 11 -44 30 -21 19 -43 35 -48 35
-6 0 -10 5 -10 11 0 6 15 2 35 -10 19 -11 35 -18 35 -16 0 3 -14 14 -32 25
l-31 19 -39 -31 -39 -31 32 -33 c32 -33 55 -40 29 -9 -11 14 -10 14 14 5 54
-20 68 -32 87 -77 15 -35 22 -43 32 -34 10 8 17 7 25 -1 19 -19 14 -38 -8 -38
-20 0 -20 0 1 -30 30 -39 17 -86 -31 -117 -19 -13 -39 -26 -45 -30 -5 -5 -29
-17 -53 -27 -51 -23 -74 -46 -45 -46 19 0 62 25 75 44 5 7 8 4 8 -6 0 -9 5
-20 10 -23 7 -4 9 2 5 17 -5 20 2 29 49 60 30 21 58 33 61 28 3 -6 8 -32 10
-59 1 -27 6 -55 10 -61 6 -10 -28 -58 -88 -122 -14 -15 -72 -50 -129 -77 -81
-40 -123 -69 -196 -135 -82 -75 -97 -84 -136 -87 -24 -2 -42 -1 -39 4 2 4 -5
7 -17 7 -13 0 -24 -9 -30 -26 -13 -32 -13 -94 -1 -94 23 0 41 14 41 32 0 32
19 58 43 58 12 0 51 12 87 26 36 13 55 23 43 20 -13 -2 -23 -2 -23 0 0 2 25
29 55 60 54 56 167 123 173 104 6 -17 -27 -60 -46 -60 -9 0 -22 -8 -29 -18 -6
-11 -33 -33 -59 -50 -26 -18 -44 -32 -40 -32 14 0 51 22 91 55 22 18 50 35 62
39 11 4 28 18 37 31 22 33 172 185 183 185 13 0 59 51 67 75 7 20 8 20 22 1 8
-11 14 -32 14 -47 0 -15 5 -40 12 -56 6 -15 13 -35 14 -43 1 -8 14 -42 28 -75
14 -33 26 -70 26 -83 0 -13 -30 -80 -66 -149 -61 -114 -65 -125 -43 -118 26 8
39 22 39 43 0 10 17 50 79 182 10 22 11 22 7 3 -3 -20 18 -52 29 -42 2 3 -18
70 -45 151 -46 136 -50 155 -51 253 -2 103 -1 108 24 133 31 30 49 22 21 -9
-16 -17 -20 -40 -22 -129 -4 -103 -2 -112 31 -197 19 -48 42 -109 51 -135 10
-27 22 -48 28 -48 6 0 7 8 3 18 -20 53 -17 66 29 111 26 24 46 48 46 54 0 6
-23 -11 -52 -38 -37 -37 -45 -42 -30 -19 12 17 28 37 37 44 9 7 21 23 27 34
10 18 9 19 -4 9 -8 -7 -17 -10 -20 -7 -3 3 -21 -18 -39 -46 l-34 -52 -13 32
c-7 18 -15 45 -19 61 l-5 28 63 3 c34 2 64 8 66 14 3 8 -20 10 -74 6 -99 -6
-89 8 14 19 l78 8 -80 -3 -80 -4 3 107 c4 134 8 147 31 96 16 -34 55 -85 65
-85 2 0 42 18 90 41 48 22 94 38 101 35 8 -3 27 -1 42 3 15 5 57 17 93 27 36
9 86 28 113 41 51 25 66 13 27 -22 -25 -23 -26 -35 -2 -35 25 0 52 31 52 61 0
13 9 39 20 57 25 40 5 44 -31 6 -54 -58 -167 -99 -329 -119 -30 -4 -77 -16
-104 -27 l-49 -19 7 23 c3 13 6 29 6 36 0 8 16 12 48 12 74 0 220 27 297 55
116 42 140 68 74 77 -31 5 -31 5 -9 -12 22 -17 22 -17 -26 -37 -86 -36 -118
-43 -258 -56 l-138 -13 -40 44 -41 44 7 71 c8 88 32 193 49 218 15 21 4 27
130 -72 l78 -62 42 13 c37 11 43 10 52 -5 23 -39 97 -109 118 -111 73 -10 188
-16 201 -11 9 4 13 13 10 21 -5 12 -9 12 -32 0 -26 -13 -102 -20 -102 -8 0 10
81 167 100 195 24 33 25 45 4 53 -8 3 -14 14 -12 23 1 10 -5 29 -15 43 l-17
24 0 -24 c0 -25 -87 -288 -101 -304 -4 -4 -40 21 -81 56 l-73 64 26 39 c15 22
43 72 64 110 21 39 52 95 70 126 l33 56 -29 54 c-16 30 -54 85 -85 123 -55 69
-66 100 -19 56 14 -13 25 -19 25 -13 0 5 -10 19 -23 31 l-22 21 -115 -79z
m127 -26 c20 -15 32 -32 29 -40 -3 -7 0 -16 6 -20 7 -5 8 -2 4 7 -4 8 2 3 13
-11 11 -14 19 -31 16 -38 -3 -7 -1 -11 4 -8 5 3 14 -8 20 -26 10 -28 7 -39
-23 -97 -62 -119 -136 -246 -143 -247 -40 -6 -72 -18 -67 -26 4 -6 -3 -5 -15
2 -12 6 -19 15 -16 19 5 9 -44 47 -56 44 -9 -3 -91 79 -106 105 -19 32 -16 38
8 17 20 -19 20 -19 10 8 -12 30 0 155 15 165 6 4 46 34 89 66 82 61 153 106
169 106 5 0 24 -12 43 -26z m-807 -484 c0 -5 6 -7 14 -4 16 6 30 -11 21 -25
-9 -16 -65 8 -58 25 6 16 23 19 23 4z m979 -52 c-18 -35 -34 -57 -37 -50 -7
22 44 112 64 112 2 0 -10 -28 -27 -62z m-589 -137 c0 -10 18 -41 40 -69 37
-47 40 -54 34 -93 l-7 -43 -30 35 c-16 19 -35 48 -43 66 -16 37 -19 123 -4
123 6 0 10 -8 10 -19z"/>
<path d="M1585 2143 c12 -2 35 -27 54 -60 l34 -56 -29 -21 c-33 -23 -104 -92
-104 -101 0 -3 17 4 37 15 21 11 42 20 48 20 6 0 19 10 30 23 18 20 20 20 23
4 2 -10 -8 -33 -22 -52 -14 -18 -26 -40 -26 -48 0 -16 -77 -138 -94 -149 -20
-14 -42 -8 -87 22 -108 74 -105 70 -108 138 -4 93 10 123 85 182 35 28 64 53
64 56 0 4 -6 2 -12 -3 -91 -71 -134 -110 -141 -127 -4 -11 -7 -55 -6 -99 l2
-78 46 -41 c25 -22 63 -52 83 -66 36 -23 39 -24 62 -8 31 19 68 74 130 189 57
104 56 118 -4 207 -30 45 -46 60 -63 59 -20 -2 -21 -2 -2 -6z"/>
<path d="M1411 1920 l1 -55 11 43 c7 31 7 46 -1 54 -9 9 -12 -1 -11 -42z"/>
<path d="M1357 1937 c-11 -30 -8 -64 8 -77 13 -10 15 -9 14 11 -1 13 -4 38 -8
54 -5 25 -8 27 -14 12z"/>
<path d="M1482 1924 c-7 -8 -8 -14 -2 -14 13 0 13 -26 -1 -52 -9 -17 -13 -18
-20 -7 -7 11 -9 11 -9 -3 0 -9 4 -19 9 -22 11 -7 21 7 43 56 13 28 14 39 5 46
-8 7 -16 5 -25 -4z"/>
<path d="M147 2253 c-3 -5 8 -10 26 -11 17 -2 37 -8 44 -14 7 -6 13 -7 13 -3
0 5 9 0 20 -10 11 -10 20 -24 20 -32 0 -7 5 -13 10 -13 6 0 10 -8 10 -18 0
-25 58 -92 74 -86 8 3 11 15 8 30 -2 13 -1 24 2 24 8 0 47 -22 67 -38 11 -9
23 -10 40 -3 13 5 17 10 9 10 -8 1 -37 12 -65 25 -27 13 -67 31 -87 40 -24 10
-36 20 -32 29 2 7 -4 22 -16 32 -15 14 -20 15 -20 4 -1 -10 -6 -8 -18 6 -10
11 -24 22 -32 24 -39 10 -68 12 -73 4z"/>
<path d="M1076 2205 c-27 -19 -117 -61 -200 -95 -83 -34 -167 -70 -188 -80
-20 -10 -39 -16 -43 -12 -3 4 -11 -1 -16 -11 -7 -11 -22 -17 -49 -17 -21 0
-42 -5 -46 -11 -17 -27 98 7 271 81 191 82 335 155 335 171 0 14 -11 9 -64
-26z"/>
<path d="M110 2222 c0 -11 51 -36 66 -34 12 2 36 -50 51 -107 12 -50 32 -51
31 -1 0 48 -29 95 -77 127 -34 23 -71 30 -71 15z"/>
<path d="M1212 2185 c-55 -49 -82 -109 -82 -177 0 -22 -4 -37 -8 -34 -5 3 5
-63 22 -146 17 -83 32 -140 34 -126 2 13 -3 56 -11 94 -7 38 -15 112 -16 165
-3 118 19 180 83 234 22 19 38 35 35 35 -4 0 -29 -20 -57 -45z"/>
<path d="M2475 2200 c-22 -24 -6 -51 26 -43 36 10 2 -31 -52 -63 -42 -24 -67
-59 -53 -73 2 -3 34 24 69 59 43 43 65 59 65 47 0 -9 -4 -17 -10 -17 -18 0 59
-97 114 -144 72 -61 77 -58 10 7 -30 28 -54 58 -54 65 0 7 -9 20 -20 29 -15
13 -17 20 -8 30 8 10 6 19 -11 37 -12 13 -21 29 -19 37 2 7 -6 13 -17 14 -13
0 -19 6 -17 18 4 22 -1 22 -23 -3z"/>
<path d="M1065 2166 c-78 -47 -332 -165 -424 -196 -33 -11 -114 -25 -180 -32
-96 -9 -119 -14 -110 -24 8 -9 32 -11 87 -8 164 12 214 29 530 180 63 30 116
54 118 54 20 0 -22 -28 -100 -66 -54 -26 -126 -73 -172 -110 -103 -85 -101
-84 -80 -84 10 0 43 25 75 55 31 30 74 61 94 70 20 8 37 20 37 25 0 6 30 25
67 43 51 24 75 44 105 85 21 28 35 52 31 52 -4 -1 -39 -20 -78 -44z"/>
<path d="M2207 2168 c-21 -23 -17 -33 10 -24 10 3 19 15 20 26 2 25 -7 24 -30
-2z"/>
<path d="M2292 2146 c-41 -20 -80 -36 -88 -36 -9 0 -13 -4 -9 -9 8 -14 46 -9
82 10 35 19 50 14 30 -10 -11 -14 -10 -14 5 -2 10 7 15 17 13 22 -6 9 27 29
49 29 26 0 18 -29 -9 -36 -27 -7 -29 -12 -17 -32 6 -9 14 -6 31 12 13 13 36
30 53 37 25 10 27 14 15 26 -29 29 -78 26 -155 -11z"/>
<path d="M72 2153 c0 -5 -2 -16 -7 -26 -4 -10 -2 -23 4 -31 6 -7 7 -16 3 -21
-4 -4 3 -3 15 4 31 16 40 51 17 68 -20 14 -35 17 -32 6z"/>
<path d="M517 2140 c-9 -12 -20 -19 -26 -15 -6 3 -11 1 -11 -4 0 -19 35 -12
48 10 18 28 8 36 -11 9z"/>
<path d="M2630 2102 c43 -30 109 -111 70 -87 -5 3 -10 4 -10 2 0 -2 30 -25 68
-50 37 -26 81 -57 97 -70 17 -13 53 -36 80 -51 l50 -27 -35 31 c-19 17 -77 66
-128 108 -52 42 -117 96 -145 119 -29 24 -56 43 -62 42 -5 0 1 -8 15 -17z"/>
<path d="M2481 2076 c-13 -16 -4 -146 10 -146 12 0 11 47 0 86 -12 42 1 63 25
43 16 -13 16 -12 5 9 -14 25 -24 28 -40 8z"/>
<path d="M991 2031 c-29 -19 -48 -37 -42 -39 6 -2 28 9 48 25 20 15 41 31 47
35 6 4 8 9 6 11 -3 2 -29 -13 -59 -32z"/>
<path d="M2603 2047 c-3 -6 -1 -7 4 -4 6 4 16 0 23 -8 14 -17 40 -20 40 -5 0
6 -9 10 -21 10 -11 0 -18 4 -15 8 3 5 -2 9 -10 9 -8 0 -18 -5 -21 -10z"/>
<path d="M2213 2042 c-13 -2 -23 -6 -23 -9 0 -2 19 -39 42 -81 26 -50 54 -85
76 -100 33 -22 34 -22 29 -2 -3 11 -1 22 3 25 5 3 0 21 -11 40 -13 22 -18 43
-14 57 5 18 4 20 -5 8 -9 -13 -12 -12 -26 5 -43 55 -50 61 -71 57z m67 -86 c0
-5 -7 -3 -15 4 -9 7 -13 15 -11 18 3 2 -1 14 -9 26 -8 11 -15 25 -15 31 0 12
49 -66 50 -79z"/>
<path d="M2351 2008 c2 -45 13 -73 36 -96 7 -8 10 -18 7 -23 -12 -19 -15 -67
-5 -73 7 -5 6 -15 -1 -32 -9 -20 -9 -30 1 -46 7 -11 10 -22 7 -25 -3 -3 1 -18
10 -34 8 -16 14 -31 13 -35 0 -3 3 -9 7 -12 4 -4 3 13 -2 38 -4 25 -8 90 -9
145 -1 118 -11 181 -34 212 -24 33 -32 28 -30 -19z"/>
<path d="M2135 2019 c-32 -20 -22 -25 19 -9 14 5 26 14 26 20 0 14 -10 12 -45
-11z"/>
<path d="M1038 2001 c-5 -18 -8 -47 -8 -64 0 -17 -10 -52 -22 -79 -18 -41 -25
-47 -42 -42 -35 11 -157 10 -167 -2 -6 -8 12 -10 65 -6 41 2 88 0 104 -6 29
-10 30 -9 56 46 23 47 27 68 24 122 -3 56 -4 60 -10 31z"/>
<path d="M87 2008 c-7 -4 12 -8 41 -8 28 0 52 2 52 4 0 8 -81 11 -93 4z"/>
<path d="M270 2005 c-6 -7 -24 -16 -38 -18 -15 -2 -8 -3 14 -2 23 0 52 8 64
16 l22 14 -25 3 c-14 1 -30 -5 -37 -13z"/>
<path d="M775 1983 c-22 -15 -62 -35 -90 -45 -45 -16 -47 -17 -19 -18 21 0 53
14 93 41 53 35 69 49 58 49 -1 0 -20 -12 -42 -27z"/>
<path d="M1 1985 c3 -2 77 -11 165 -20 115 -11 187 -13 259 -6 55 4 84 9 65
11 -19 1 -44 2 -55 1 -73 -6 -258 -1 -295 8 -45 10 -148 15 -139 6z"/>
<path d="M1060 1973 c1 -10 9 -43 20 -73 11 -30 19 -66 20 -79 0 -24 0 -24
-16 -5 -15 19 -15 19 -5 -1 6 -11 20 -31 31 -45 21 -25 21 -25 15 -2 -4 13 -9
40 -11 60 -5 39 -43 162 -50 162 -2 0 -4 -8 -4 -17z"/>
<path d="M1974 1955 c12 -49 26 -76 36 -70 5 3 7 0 5 -7 -7 -17 58 -94 94
-112 14 -7 39 -16 56 -20 l30 -8 -29 23 c-16 12 -39 33 -52 46 -13 13 -28 23
-34 23 -5 0 -10 8 -10 18 0 10 -11 29 -24 41 -13 12 -32 38 -42 57 -21 39 -39
45 -30 9z"/>
<path d="M2172 1960 c-15 -12 -19 -21 -11 -25 13 -9 43 18 38 33 -2 6 -14 2
-27 -8z"/>
<path d="M1820 1963 c-1 -21 67 -133 81 -133 8 0 20 -5 26 -11 7 -7 15 -3 25
13 22 34 30 65 18 73 -5 3 -10 15 -10 26 0 30 -15 23 -33 -16 -22 -46 -21 -52
3 -30 11 10 23 15 27 12 7 -8 -25 -47 -39 -47 -17 0 -67 63 -73 92 -6 25 -25
40 -25 21z"/>
<path d="M2870 1966 c0 -7 55 -64 93 -96 l37 -32 0 31 c0 22 -4 29 -14 25 -8
-3 -31 12 -54 35 -34 35 -62 51 -62 37z"/>
<path d="M105 1930 c3 -5 17 -10 31 -10 13 0 24 5 24 10 0 6 -14 10 -31 10
-17 0 -28 -4 -24 -10z"/>
<path d="M195 1920 c3 -5 26 -10 51 -10 28 0 43 4 39 10 -3 6 -26 10 -51 10
-28 0 -43 -4 -39 -10z"/>
<path d="M2613 1898 c-13 -6 -23 -15 -23 -20 0 -5 13 -2 30 7 42 22 74 19 35
-3 -16 -9 -31 -24 -33 -32 -5 -20 -23 -41 -31 -35 -4 2 -8 -3 -8 -12 0 -11 9
-6 29 16 16 18 45 39 64 47 37 15 43 28 18 38 -23 9 -56 6 -81 -6z"/>
<path d="M0 1865 c0 -8 8 -15 19 -15 10 0 29 -8 42 -18 13 -10 37 -24 52 -32
35 -17 45 -36 49 -83 2 -33 18 -43 18 -12 0 8 14 18 30 22 l31 8 -48 37 c-57
43 -105 71 -155 93 -34 13 -38 14 -38 0z"/>
<path d="M2420 1796 c0 -4 19 -33 41 -66 33 -46 42 -68 44 -107 1 -26 0 -36
-2 -20 -2 15 -8 27 -14 27 -5 0 -9 8 -9 18 0 9 -8 26 -16 37 -16 20 -16 20 -9
-3 4 -16 -2 -37 -21 -70 l-27 -47 32 29 31 30 0 -33 c0 -18 -5 -41 -10 -52
-16 -28 -69 -47 -108 -38 -37 8 -102 54 -102 72 0 7 -12 21 -27 31 l-26 19 7
-44 c8 -55 31 -87 82 -116 50 -29 100 -29 155 0 79 42 110 139 70 219 -20 41
-91 129 -91 114z m-134 -297 c30 -28 93 -36 136 -15 l33 16 -24 -20 c-41 -35
-132 -22 -170 24 -19 23 -1 19 25 -5z"/>
<path d="M80 1775 c-10 -12 -10 -15 4 -15 19 0 22 -26 4 -33 -7 -2 -10 -7 -7
-11 3 -3 13 2 21 11 12 15 13 22 3 41 -11 20 -14 21 -25 7z"/>
<path d="M1900 1779 c0 -14 58 -46 98 -54 20 -4 58 -18 84 -31 48 -24 48 -24
45 -3 -4 21 -65 58 -98 59 -9 0 -41 9 -72 19 -32 11 -57 16 -57 10z"/>
<path d="M2512 1739 c65 -80 68 -88 58 -160 -5 -36 -12 -75 -15 -85 -3 -10 1
-5 9 11 8 17 16 46 16 65 1 34 2 34 11 10 14 -34 -9 -140 -28 -133 -14 6 -73
-43 -73 -60 0 -12 67 -2 85 13 27 22 65 113 65 156 0 37 -2 42 -20 37 -12 -3
-20 0 -20 6 0 7 5 9 10 6 22 -13 8 31 -24 79 -37 55 -61 79 -89 89 -13 5 -9
-5 15 -34z"/>
<path d="M2830 1777 c0 -3 32 -29 70 -57 39 -29 77 -62 85 -73 8 -12 15 -16
15 -10 0 6 -24 31 -52 55 -59 50 -118 92 -118 85z"/>
<path d="M980 1748 c0 -21 32 -87 43 -88 14 0 7 25 -18 65 -14 24 -25 33 -25
23z"/>
<path d="M1100 1748 c1 -18 49 -138 49 -122 1 26 -28 112 -40 120 -5 3 -9 4
-9 2z"/>
<path d="M677 1708 c-20 -11 -35 -24 -31 -29 3 -5 18 0 34 11 15 11 33 20 38
20 6 0 14 5 17 10 9 15 -15 10 -58 -12z"/>
<path d="M1062 1680 c-12 -32 -10 -42 15 -97 13 -31 33 -45 33 -23 0 6 -4 10
-9 10 -4 0 -9 28 -10 62 -2 73 -14 93 -29 48z"/>
<path d="M2005 1687 c-29 -45 -39 -117 -14 -101 18 11 49 96 40 112 -7 13 -11
11 -26 -11z"/>
<path d="M53 1673 c9 -2 17 -11 17 -19 0 -17 -12 -18 -30 -1 -12 10 -12 9 -2
-4 8 -10 8 -19 1 -26 -6 -6 -5 -10 6 -10 8 0 15 5 15 10 0 6 8 3 18 -6 10 -10
26 -17 35 -17 9 0 19 -4 22 -10 3 -5 10 -10 16 -10 5 0 9 5 9 10 0 6 -7 10
-15 10 -8 0 -15 5 -15 10 0 6 7 10 15 10 9 0 15 9 15 25 0 14 -5 25 -11 25 -5
0 -8 -3 -6 -7 6 -11 -26 -38 -46 -39 -12 -1 -17 6 -17 27 0 24 -4 29 -22 28
-17 -1 -19 -2 -5 -6z"/>
<path d="M2079 1595 c-23 -47 -35 -92 -45 -162 -7 -54 -13 -100 -14 -103 0 -3
-5 2 -10 10 -8 13 -10 12 -10 -2 0 -49 71 12 76 64 9 98 17 135 32 152 9 11
11 16 5 12 -18 -10 -16 4 5 39 18 29 19 55 2 55 -5 0 -23 -29 -41 -65z"/>
<path d="M642 1615 c-34 -42 -80 -121 -63 -111 6 4 18 22 27 39 9 18 25 43 35
55 l18 24 21 -34 c11 -18 20 -28 20 -23 0 6 -7 21 -16 33 -9 13 -13 29 -10 37
9 24 0 18 -32 -20z"/>
<path d="M2542 1608 c-4 -104 -56 -164 -157 -183 l-40 -7 45 -23 45 -23 47 50
c54 55 71 103 65 181 l-3 52 -2 -47z"/>
<path d="M35 1576 c-29 -29 -32 -48 -10 -66 13 -11 14 -10 10 2 -4 9 5 29 20
46 32 38 15 53 -20 18z"/>
<path d="M880 1566 c0 -11 -4 -15 -12 -10 -7 5 2 -9 20 -29 34 -40 36 -45 24
-64 -6 -10 -17 -7 -42 12 -19 14 -41 25 -49 24 -14 0 -14 -1 -1 -6 8 -3 27
-15 43 -25 34 -24 37 -71 6 -104 -20 -21 -20 -22 -1 -26 16 -4 22 2 30 31 30
106 31 110 13 155 -19 51 -31 67 -31 42z"/>
<path d="M2269 1566 c11 -13 92 -46 113 -46 4 0 8 5 8 11 0 5 -5 7 -10 4 -6
-4 -36 5 -66 19 -33 15 -52 20 -45 12z"/>
<path d="M660 1539 c0 -8 14 -26 32 -41 l33 -27 -48 -42 c-26 -23 -46 -44 -43
-47 3 -2 12 1 20 8 12 10 21 8 46 -10 28 -20 42 -60 21 -60 -5 0 -12 -8 -15
-17 -6 -16 -6 -16 12 0 24 22 32 13 31 -32 0 -20 -3 -30 -6 -23 -8 21 -23 2
-17 -22 4 -17 -3 -31 -26 -55 -17 -17 -36 -31 -41 -31 -5 0 -9 -9 -9 -19 0
-11 -19 -36 -42 -55 -23 -20 -38 -39 -35 -43 4 -4 45 32 92 80 74 76 85 92 91
133 9 59 -7 112 -46 149 l-30 28 35 34 c19 18 41 33 49 33 9 0 27 -17 41 -38
30 -46 24 -77 -19 -99 -38 -20 -18 -30 25 -13 30 13 33 18 29 59 -1 13 4 28
12 32 10 7 10 9 -3 9 -8 0 -30 16 -49 35 -26 27 -37 32 -51 25 -14 -8 -19 -6
-24 11 -4 11 -9 18 -13 15 -3 -4 -16 4 -29 16 -16 15 -23 17 -23 7z"/>
<path d="M780 1530 c-11 -7 -1 -10 35 -10 36 0 46 3 35 10 -8 5 -24 10 -35 10
-11 0 -27 -5 -35 -10z"/>
<path d="M2160 1475 c0 -32 -3 -37 -20 -32 -23 6 -25 -1 -5 -26 13 -18 14 -18
25 2 6 12 17 21 25 21 17 0 20 -16 4 -26 -6 -3 -9 -15 -6 -25 3 -12 -1 -19
-15 -21 -17 -2 -15 -5 11 -15 24 -9 29 -9 24 0 -15 24 -12 45 7 50 11 3 18 1
15 -3 -8 -13 26 -50 38 -43 6 3 7 1 4 -4 -4 -6 -1 -16 6 -21 20 -17 90 -30
112 -21 19 7 19 8 -2 8 -13 1 -22 6 -20 13 1 8 -10 11 -34 9 -35 -2 -59 12
-44 27 3 3 10 0 14 -7 5 -7 11 -9 14 -4 9 15 -6 28 -33 28 -16 0 -26 6 -28 18
-2 10 -24 38 -48 63 l-44 46 0 -37z"/>
<path d="M758 1448 c12 -6 22 -15 22 -20 0 -6 -10 -18 -22 -28 -13 -10 -20
-22 -15 -26 4 -4 17 2 30 14 18 17 26 19 35 10 7 -7 12 -8 12 -2 0 16 -54 64
-71 63 -8 0 -4 -5 9 -11z"/>
<path d="M522 1388 c-7 -7 -11 -30 -11 -52 l1 -41 7 37 c4 20 13 44 21 52 15
19 0 22 -18 4z"/>
<path d="M2095 1370 c-11 -18 41 -76 103 -114 l58 -35 60 15 c32 9 92 27 133
40 40 13 82 24 92 24 26 0 49 27 49 58 l-1 27 -15 -26 c-20 -31 -80 -57 -144
-61 -8 0 -24 -8 -35 -18 -21 -18 -132 -46 -142 -36 -4 3 0 6 8 7 8 0 32 9 54
20 36 17 37 19 10 14 -59 -10 -80 -16 -85 -25 -11 -17 -70 24 -104 73 -20 28
-37 43 -41 37z"/>
<path d="M2444 1353 c-14 -15 -21 -29 -17 -30 11 -4 83 25 83 33 0 3 -4 2 -10
-1 -5 -3 -10 1 -10 9 0 24 -18 19 -46 -11z"/>
<path d="M565 1340 l-19 -21 28 15 c35 18 52 12 71 -25 20 -38 19 -77 -5 -122
-11 -20 -20 -39 -20 -42 0 -3 18 4 40 15 22 11 40 26 40 32 0 6 -10 3 -22 -8
l-21 -19 18 28 c22 34 16 98 -13 136 -25 34 -71 39 -97 11z"/>
<path d="M1765 1341 c-8 -13 -65 -42 -95 -47 -13 -3 -29 -9 -36 -15 -9 -7
-159 -59 -172 -59 -2 0 10 11 25 24 15 13 25 27 21 31 -4 4 -29 -14 -56 -39
-51 -48 -118 -158 -107 -176 4 -6 1 -26 -5 -45 -10 -31 -5 -57 15 -83 4 -5 65
30 65 37 0 4 -14 29 -31 55 -16 27 -28 51 -25 54 4 3 6 1 6 -3 0 -5 19 9 43
32 30 30 81 59 182 104 168 75 182 83 188 114 4 25 -6 34 -18 16z m-267 -155
c-48 -24 -95 -49 -104 -57 -16 -13 -16 -12 -6 7 15 29 57 54 122 75 85 28 82
21 -12 -25z"/>
<path d="M1417 1273 c-41 -68 -77 -139 -77 -150 0 -4 13 12 28 37 60 100 94
142 110 135 13 -5 12 -2 -3 15 -10 11 -19 20 -21 20 -1 0 -18 -26 -37 -57z"/>
<path d="M1800 1291 c0 -6 6 -11 13 -11 8 0 23 -10 35 -22 25 -28 46 -78 32
-78 -6 0 -10 6 -10 13 0 7 -14 28 -31 47 -20 23 -28 28 -24 15 17 -52 15 -87
-10 -180 -15 -55 -33 -107 -41 -116 -15 -16 -10 -29 12 -29 11 0 18 23 30 100
2 14 7 36 10 49 l5 24 20 -22 c26 -28 31 -27 19 5 -17 45 -13 71 13 70 39 -2
50 -30 42 -104 -4 -37 -12 -73 -17 -80 -6 -7 -8 -30 -5 -51 5 -38 3 -40 -32
-55 -34 -14 -37 -14 -53 5 -10 12 -19 15 -23 9 -13 -22 -35 -10 -35 19 0 37
-5 40 -55 32 -36 -6 -42 -4 -60 23 -11 16 -27 32 -35 34 -11 4 -11 0 3 -22
l18 -26 -38 5 c-21 3 -72 -1 -113 -10 -41 -8 -85 -17 -96 -19 -12 -2 -43 -16
-69 -32 -102 -64 -125 -94 -69 -94 13 0 24 -6 24 -12 0 -7 23 -86 52 -175 l51
-163 -28 -52 c-16 -29 -32 -60 -36 -68 -5 -8 -27 -63 -49 -123 -23 -59 -49
-114 -57 -123 -8 -8 -14 -16 -12 -18 2 -1 30 0 62 3 53 6 58 8 75 41 26 52 43
44 71 -32 14 -38 31 -68 38 -68 7 0 -4 35 -29 90 -23 50 -46 89 -52 87 -6 -2
-24 -27 -39 -55 -25 -47 -32 -52 -62 -52 l-34 0 39 87 c27 62 45 89 58 91 14
2 21 -4 26 -24 4 -14 10 -24 13 -21 3 4 -4 25 -16 48 -22 42 -22 72 0 67 16
-4 51 120 45 157 -5 29 -5 29 19 -10 26 -42 32 -65 15 -65 -5 0 -10 5 -10 12
0 6 -3 9 -6 5 -7 -7 131 -277 184 -359 44 -69 70 -79 40 -15 -12 23 -32 57
-46 75 -13 17 -20 32 -14 32 12 0 89 -94 105 -128 6 -12 19 -22 30 -22 18 0
18 1 3 22 -8 13 -33 50 -53 84 -21 34 -42 61 -48 60 -16 -2 -82 101 -140 221
-47 95 -178 415 -172 418 1 0 31 10 67 21 l64 20 60 -101 c109 -183 283 -380
328 -371 77 15 152 26 217 30 40 3 75 7 77 8 2 2 -9 29 -25 59 -15 30 -30 64
-33 76 -4 15 -16 21 -54 26 -27 4 -85 13 -129 21 -44 9 -99 15 -122 16 -41 0
-48 5 -168 124 -110 108 -124 125 -106 131 12 3 21 10 21 15 0 4 6 8 13 7 38
-1 56 5 59 19 3 17 68 29 68 13 0 -5 -9 -9 -19 -9 -11 0 -23 -4 -26 -10 -4 -6
5 -10 21 -10 14 0 70 -14 124 -31 85 -27 102 -29 136 -20 21 6 47 18 57 25 17
13 17 19 6 49 -11 30 -6 78 6 65 2 -2 11 -37 20 -77 17 -81 40 -134 29 -66 -4
22 -13 63 -21 90 -8 28 -17 79 -20 115 -5 58 -4 63 10 51 24 -19 104 -234 122
-328 9 -45 25 -112 37 -150 27 -91 48 -213 36 -213 -6 0 -1 -16 11 -36 22 -37
28 -74 11 -74 -5 0 -14 -8 -19 -18 -8 -16 -6 -17 25 -14 29 4 33 7 29 26 -23
109 -35 215 -36 345 l-3 153 -34 57 c-19 31 -52 89 -74 130 -21 40 -63 108
-91 151 -29 43 -61 93 -72 111 -21 34 -85 79 -85 60z m-330 -396 c0 -24 -21
-28 -42 -8 -19 20 -19 20 11 21 20 0 31 -4 31 -13z m-90 -16 c0 -6 -6 -17 -14
-24 -12 -12 -15 -12 -19 -1 -5 14 10 36 25 36 4 0 8 -5 8 -11z m738 -71 c14
-14 16 -48 2 -48 -11 0 -8 -35 3 -46 13 -13 7 -54 -7 -54 -16 0 -36 70 -36
124 0 37 15 47 38 24z m-518 -146 c43 -58 136 -152 150 -152 6 0 -5 16 -25 35
-38 39 -45 59 -17 51 9 -2 33 -8 52 -11 19 -4 40 -12 47 -17 7 -6 19 -5 33 2
17 9 22 7 30 -12 5 -13 9 -18 9 -11 1 8 19 10 59 7 60 -6 75 -16 107 -78 20
-38 9 -46 -65 -46 -31 0 -61 -5 -67 -11 -5 -5 -36 -13 -67 -16 l-57 -6 -93 94
c-104 106 -172 199 -153 211 18 12 19 11 57 -40z"/>
<path d="M227 1283 l-88 -4 31 -26 c25 -21 34 -23 43 -13 9 10 9 11 0 6 -6 -3
-15 -1 -19 5 -5 8 1 10 20 7 14 -3 26 -2 26 2 0 7 31 2 88 -15 12 -4 22 -10
22 -14 0 -12 -31 -51 -41 -51 -12 0 -120 -92 -115 -97 2 -3 23 5 47 16 51 25
46 24 52 9 2 -7 3 -4 1 6 -2 11 10 35 26 53 17 19 30 39 30 45 0 6 9 3 20 -7
32 -29 24 2 -12 45 -18 22 -35 39 -38 38 -3 -1 -45 -4 -93 -5z"/>
<path d="M430 1266 c0 -10 45 -48 75 -62 l30 -15 -25 20 c-57 46 -80 62 -80
57z"/>
<path d="M428 1155 c4 -38 -24 -75 -58 -75 -15 0 -20 -7 -20 -27 0 -27 3 -26
56 30 31 31 61 57 67 57 7 0 26 -9 42 -20 32 -21 70 -26 80 -10 4 6 -5 7 -23
4 -36 -7 -40 18 -5 37 13 7 23 16 23 21 0 12 -58 10 -65 -2 -9 -14 -41 -12
-73 4 l-28 14 4 -33z"/>
<path d="M886 1153 c-32 -16 -68 -26 -100 -27 -49 -1 -50 -1 -98 -68 -26 -38
-46 -68 -43 -68 11 0 62 61 81 95 17 33 22 35 54 30 26 -4 50 2 98 24 34 17
62 33 62 36 0 7 2 7 -54 -22z"/>
<path d="M1023 1029 c-39 -52 -70 -95 -69 -96 1 -1 19 3 40 9 31 10 44 23 77
79 31 51 38 72 31 85 -8 14 -21 2 -79 -77z"/>
<path d="M1110 1047 c0 -7 -11 -29 -25 -49 -27 -39 -30 -48 -17 -48 9 0 37 45
51 83 7 17 7 27 1 27 -6 0 -10 -6 -10 -13z"/>
<path d="M2987 955 c-19 -72 -19 -71 -8 -55 9 12 11 12 11 1 0 -17 -32 -71
-83 -139 -22 -29 -49 -70 -61 -92 -11 -21 -45 -69 -74 -106 -29 -36 -52 -68
-50 -70 3 -2 22 20 43 49 22 28 71 86 110 127 38 41 59 66 45 54 -49 -41 -54
-37 -15 11 95 116 96 119 93 187 -3 53 -4 58 -11 33z"/>
<path d="M1085 924 c-33 -18 -57 -34 -54 -34 17 0 119 51 119 60 0 5 -1 9 -2
9 -2 -1 -30 -16 -63 -35z"/>
<path d="M790 871 c-41 -15 -88 -34 -103 -42 l-28 -15 50 1 c28 0 53 4 57 8 4
4 2 7 -5 7 -7 0 -9 5 -6 10 3 6 13 10 21 10 8 0 12 -5 8 -11 -7 -12 35 9 81
40 41 28 15 25 -75 -8z"/>
<path d="M614 795 c-17 -13 -17 -14 -1 -15 9 0 17 -4 17 -10 0 -5 -8 -14 -17
-19 -24 -14 -7 -14 18 0 17 9 18 13 8 25 -10 13 -10 17 2 25 8 5 9 9 3 9 -5 0
-19 -7 -30 -15z"/>
<path d="M2991 793 c0 -12 -22 -48 -49 -80 -26 -32 -77 -96 -113 -143 -37 -47
-87 -106 -113 -132 -25 -26 -46 -51 -46 -56 0 -5 -9 -17 -20 -27 -11 -10 -17
-22 -14 -27 3 -4 0 -7 -8 -6 -7 2 -12 -3 -10 -10 1 -6 -5 -12 -13 -12 -9 0
-12 -6 -8 -17 4 -10 2 -14 -4 -10 -6 4 -17 -1 -24 -10 -10 -12 -10 -14 -1 -9
6 4 12 3 12 -2 0 -14 -11 -21 -26 -15 -20 7 8 58 60 107 l41 39 -43 -33 c-48
-36 -114 -132 -106 -154 3 -7 -2 -16 -11 -20 -11 -4 -14 -2 -10 7 4 6 0 3 -9
-7 -8 -10 -13 -23 -9 -29 3 -6 1 -7 -5 -3 -12 7 -107 -132 -97 -143 4 -3 25
14 47 39 22 25 75 81 118 125 42 44 98 107 123 140 25 33 80 94 122 135 42 41
91 95 108 120 17 25 46 63 64 85 38 45 57 97 50 140 -3 21 -4 23 -6 8z"/>
<path d="M338 784 c-5 -4 -8 -26 -7 -48 0 -37 1 -39 10 -16 11 27 8 76 -3 64z"/>
<path d="M459 750 c-31 -25 -13 -26 26 0 20 13 24 20 14 20 -9 0 -27 -9 -40
-20z"/>
<path d="M881 744 c-22 -27 -29 -60 -11 -49 6 3 10 11 10 17 0 6 7 20 17 30 9
10 14 21 11 24 -3 3 -15 -7 -27 -22z"/>
<path d="M2781 685 c-13 -31 -31 -57 -42 -60 -18 -6 -67 -63 -109 -124 -8 -13
-31 -31 -52 -42 -20 -10 -52 -38 -71 -61 -41 -51 -102 -158 -90 -158 4 0 13 8
20 18 6 10 40 33 74 50 35 17 82 48 104 69 23 21 34 33 25 27 -35 -25 -45 -27
-27 -7 33 38 0 34 -35 -5 -42 -46 -96 -92 -109 -92 -6 0 11 28 37 61 35 46 60
67 99 84 28 13 67 40 86 61 19 20 45 48 57 62 27 28 58 96 65 141 8 47 -5 37
-32 -24z m-72 -125 c-32 -39 -47 -52 -33 -27 21 36 47 67 55 67 6 0 -5 -18
-22 -40z"/>
<path d="M755 597 c-131 -81 -151 -96 -272 -191 -75 -60 -100 -86 -97 -98 5
-17 1 -20 -28 -22 -17 -1 -161 -96 -155 -103 6 -6 47 19 47 29 0 5 5 8 11 8 5
0 27 11 47 25 20 14 46 25 58 25 25 0 48 23 42 42 -3 7 14 27 36 45 23 18 48
39 56 46 8 8 51 38 95 68 44 29 83 58 87 64 4 5 11 10 15 10 4 0 22 10 38 21
17 12 35 19 40 17 6 -2 28 15 50 37 21 22 37 40 35 40 -3 0 -50 -28 -105 -63z"/>
<path d="M364 618 c8 -39 13 -45 28 -30 9 9 8 18 -2 37 -19 35 -34 31 -26 -7z"/>
<path d="M956 617 c-25 -11 -27 -14 -13 -25 13 -11 19 -10 36 5 37 31 27 41
-23 20z"/>
<path d="M848 576 c-62 -29 -69 -35 -89 -83 -13 -29 -25 -53 -29 -53 -3 0 -17
8 -30 17 -22 15 -24 15 -12 1 12 -15 9 -21 -20 -48 l-33 -30 70 37 c47 24 77
34 89 30 18 -7 18 -8 0 -28 -10 -11 -51 -36 -91 -55 -40 -20 -73 -37 -73 -39
0 -5 48 10 93 28 43 18 49 7 20 -34 -10 -13 -31 -50 -48 -81 -16 -32 -32 -58
-36 -58 -4 0 -10 -11 -13 -24 -10 -39 -55 -86 -82 -86 -13 0 -24 -4 -24 -10 0
-5 15 -10 33 -10 28 0 37 7 72 61 89 136 241 417 231 426 -3 4 6 19 21 35 14
15 25 29 22 31 -2 3 -34 -10 -71 -27z m-9 -45 c12 -8 12 -14 1 -40 -13 -31
-21 -35 -52 -23 -15 6 -15 11 -3 40 14 33 29 39 54 23z"/>
<path d="M2498 458 c-37 -40 -64 -78 -55 -78 2 0 27 27 56 60 60 68 58 82 -1
18z"/>
<path d="M1194 394 c-9 -21 -24 -59 -35 -82 -16 -37 -17 -51 -8 -90 5 -25 14
-52 20 -61 9 -13 9 -13 4 4 -19 61 -16 101 14 179 31 80 35 123 5 50z"/>
<path d="M2293 254 c-136 -162 -204 -234 -214 -228 -5 3 -17 0 -27 -5 -11 -6
-23 -6 -28 -1 -5 5 -17 3 -28 -6 -18 -13 -15 -14 38 -14 45 0 63 4 75 19 66
75 190 205 210 218 l24 16 -24 -34 c-13 -19 -44 -61 -69 -94 -57 -74 -102
-142 -72 -107 22 24 37 29 27 10 -3 -7 0 -5 7 6 126 182 214 336 192 336 -7 0
-57 -52 -111 -116z"/>
<path d="M2683 215 c-46 -91 -49 -100 -32 -89 13 8 81 153 77 165 -2 4 -22
-30 -45 -76z"/>
<path d="M2962 258 c-11 -13 -51 -56 -89 -96 -71 -77 -81 -92 -65 -92 6 0 13
8 16 18 3 9 33 43 65 75 55 53 109 117 98 117 -3 0 -14 -10 -25 -22z"/>
<path d="M2739 223 c-2 -21 -1 -54 2 -73 5 -29 7 -26 8 22 0 31 4 63 7 72 3 9
2 16 -4 16 -5 0 -11 -17 -13 -37z"/>
<path d="M1100 183 c-18 -32 -44 -73 -57 -90 -17 -23 -20 -33 -10 -33 7 0 22
12 33 28 24 32 76 143 70 149 -2 2 -19 -22 -36 -54z"/>
<path d="M1924 212 c14 -16 31 -22 59 -22 46 0 44 8 -5 20 -18 4 -42 11 -53
16 -20 7 -20 7 -1 -14z"/>
<path d="M2122 211 c-11 -7 -10 -9 3 -15 9 -3 13 -11 9 -18 -4 -7 7 -2 24 11
18 12 32 24 32 27 0 7 -55 4 -68 -5z"/>
<path d="M2971 176 c-12 -20 -43 -54 -69 -77 -46 -42 -43 -44 10 -7 30 21 93
106 85 114 -3 3 -15 -11 -26 -30z"/>
<path d="M2029 89 c-95 -92 -78 -86 26 8 38 34 67 65 64 67 -3 3 -43 -31 -90
-75z"/>
<path d="M2140 107 c-43 -39 -66 -67 -54 -67 5 0 28 23 52 50 24 28 42 50 40
50 -2 0 -19 -15 -38 -33z"/>
<path d="M660 95 c0 -13 -8 -29 -17 -34 -14 -8 -8 -10 27 -10 25 1 56 5 70 9
21 7 19 8 -17 9 -45 1 -64 15 -36 25 15 6 15 8 3 16 -23 15 -30 12 -30 -15z"/>
<path d="M435 60 c3 -6 22 -10 41 -10 46 0 36 16 -11 18 -21 1 -33 -3 -30 -8z"/>
<path d="M508 29 c-7 -4 -40 -5 -73 -2 -40 4 -70 1 -84 -7 -33 -17 -17 -25 20
-10 19 8 33 10 37 4 9 -13 228 -18 235 -6 8 11 -119 31 -135 21z"/>
<path d="M1134 8 c-3 -4 41 -7 98 -7 116 1 113 6 -10 12 -46 2 -85 0 -88 -5z"/>
</g>
</svg>
