<?xml version="1.0" standalone="no"?>
<!DOCTYPE svg PUBLIC "-//W3C//DTD SVG 20010904//EN"
 "http://www.w3.org/TR/2001/REC-SVG-20010904/DTD/svg10.dtd">
<svg version="1.0" xmlns="http://www.w3.org/2000/svg"
 width="300.000000pt" height="436.000000pt" viewBox="0 0 300.000000 436.000000"
 preserveAspectRatio="xMidYMid meet">
<metadata>
Created by potrace 1.10, written by Peter Selinger 2001-2011
</metadata>
<g transform="translate(0.000000,436.000000) scale(0.100000,-0.100000)"
fill="#000000" stroke="none">
<path d="M115 4324 c16 -89 6 -413 -21 -624 -8 -65 -2 -210 9 -210 4 0 7 8 7
18 1 9 2 45 3 80 1 34 -2 62 -7 62 -5 0 -3 7 4 15 10 12 10 15 -1 15 -9 0 -10
3 -4 8 14 9 39 135 37 187 -1 31 1 36 8 20 10 -22 14 76 8 175 -1 30 -3 85 -3
123 0 37 -2 67 -6 67 -4 0 -5 8 -2 19 3 10 0 22 -6 25 -6 4 -11 18 -11 32 0
13 -5 24 -11 24 -7 0 -9 -12 -4 -36z"/>
<path d="M430 4357 c0 -2 21 -25 46 -53 l46 -49 -22 40 c-29 53 -40 65 -56 65
-8 0 -14 -1 -14 -3z"/>
<path d="M945 4348 c-2 -7 -6 -30 -10 -51 -5 -34 -12 -41 -53 -59 -48 -21 -64
-36 -56 -50 3 -4 18 2 34 13 16 12 35 19 42 16 8 -3 23 9 37 28 26 38 41 115
22 115 -6 0 -13 -6 -16 -12z"/>
<path d="M1006 4338 c-8 -31 -6 -109 3 -133 6 -14 10 -2 15 45 4 36 4 73 1 82
-6 15 3 18 72 21 l78 3 -81 2 c-77 2 -82 1 -88 -20z"/>
<path d="M1206 4343 c-11 -40 -17 -83 -12 -83 3 0 15 18 26 39 11 22 28 45 37
50 15 9 13 10 -14 11 -22 0 -33 -5 -37 -17z"/>
<path d="M1874 4330 c3 -16 9 -43 12 -60 8 -42 25 -48 20 -8 -2 18 -4 48 -5
66 -1 22 -6 32 -17 32 -12 0 -14 -7 -10 -30z"/>
<path d="M1910 4345 c0 -8 10 -23 21 -34 17 -16 22 -32 22 -76 l0 -56 18 52
c11 29 23 57 29 63 5 5 10 17 10 25 0 11 -4 10 -21 -5 -22 -19 -23 -19 -50 29
-12 21 -29 22 -29 2z"/>
<path d="M2126 4334 c-9 -33 1 -64 20 -64 8 0 14 -5 14 -11 0 -5 4 -8 9 -5 5
3 5 25 0 48 -4 24 -8 46 -9 51 -1 19 -29 4 -34 -19z"/>
<path d="M2540 4331 c0 -6 12 -14 28 -17 28 -7 82 -40 94 -58 4 -6 10 -7 14
-4 3 4 -4 22 -17 40 -12 18 -23 34 -24 36 -2 1 -23 5 -49 8 -30 4 -46 2 -46
-5z"/>
<path d="M382 4278 c-5 -18 -11 -103 -12 -188 -1 -85 -4 -158 -7 -163 -3 -5 0
-8 8 -5 7 2 16 17 21 33 8 33 13 343 5 351 -3 3 -9 -10 -15 -28z"/>
<path d="M1610 4250 c-14 -10 -22 -21 -19 -24 7 -7 79 26 79 36 0 15 -35 8
-60 -12z"/>
<path d="M1860 4193 c10 -21 22 -51 27 -68 5 -16 13 -28 18 -25 14 7 11 96 -2
93 -6 -1 -19 7 -28 17 -28 31 -35 23 -15 -17z"/>
<path d="M4 3920 c0 -162 2 -229 3 -147 2 81 2 213 0 295 -1 81 -3 14 -3 -148z"/>
<path d="M193 4174 c3 -4 2 -15 -3 -25 -8 -14 -6 -19 8 -24 14 -4 27 -32 47
-98 15 -50 35 -106 45 -123 22 -39 60 -148 60 -173 0 -10 7 -34 15 -52 13 -32
14 -33 15 -8 0 48 -38 176 -83 275 -25 55 -55 129 -68 167 -13 37 -28 67 -33
67 -5 0 -6 -3 -3 -6z"/>
<path d="M885 4138 c-4 -10 -10 -16 -14 -14 -3 2 -14 -7 -24 -20 -11 -14 -13
-24 -6 -24 6 0 8 -7 5 -16 -3 -9 -2 -12 5 -9 5 4 8 12 6 18 -2 6 8 21 21 32
14 12 22 28 20 36 -5 11 -7 10 -13 -3z"/>
<path d="M1193 4142 c-13 -2 -23 -8 -23 -13 0 -5 -6 -9 -12 -9 -18 0 -108
-100 -107 -119 0 -13 1 -14 6 -1 3 8 23 32 44 52 22 21 39 42 39 48 0 5 12 10
26 10 14 0 34 5 45 10 25 14 26 -7 2 -26 -14 -10 -15 -13 -4 -14 8 0 26 10 39
23 14 12 22 16 18 10 -9 -16 30 -18 39 -3 3 6 5 10 3 10 -2 0 -23 6 -48 13
-25 7 -55 11 -67 9z"/>
<path d="M1577 4104 c-13 -14 48 -44 87 -44 22 0 70 -10 108 -22 71 -23 87
-21 69 9 -6 10 -11 14 -11 9 0 -4 -10 -2 -22 6 -25 16 -66 29 -113 34 -16 2
-48 6 -71 9 -22 3 -43 2 -47 -1z"/>
<path d="M799 4043 c-50 -56 -88 -123 -70 -123 8 0 31 34 88 128 18 30 12 28
-18 -5z"/>
<path d="M956 4049 c-9 -23 -12 -247 -3 -242 4 2 7 -7 7 -21 0 -14 3 -26 8
-26 7 0 5 290 -3 298 -2 3 -7 -1 -9 -9z"/>
<path d="M2015 4016 c16 -24 42 -36 82 -36 32 0 58 -45 73 -123 15 -83 34
-102 27 -26 -8 85 -18 120 -36 127 -9 3 -18 9 -21 12 -8 11 -118 70 -130 70
-6 0 -4 -10 5 -24z"/>
<path d="M240 3905 c-19 -20 -20 -25 -7 -25 9 0 21 9 27 21 17 31 7 33 -20 4z"/>
<path d="M1181 3895 c-69 -25 -81 -36 -81 -75 1 -21 2 -23 11 -8 12 21 83 54
135 62 22 3 80 7 131 8 83 2 91 4 77 19 -19 21 -110 24 -175 4 -64 -18 -71
-19 -39 0 37 21 14 17 -59 -10z"/>
<path d="M2821 3783 c0 -15 4 -37 9 -48 6 -15 8 -9 8 23 -1 24 -5 45 -10 48
-4 3 -8 -7 -7 -23z"/>
<path d="M2035 3721 c-17 -7 -17 -8 8 -13 15 -3 27 -1 27 3 0 5 8 6 18 3 14
-5 15 -4 2 5 -17 12 -27 13 -55 2z"/>
<path d="M1356 3689 c4 -8 0 -9 -15 -4 -17 5 -21 2 -21 -13 0 -17 5 -19 25
-14 13 4 25 10 25 15 0 23 -1 27 -11 27 -5 0 -7 -5 -3 -11z"/>
<path d="M2169 3685 c-8 -15 17 -80 25 -66 4 7 3 17 -2 24 -5 7 -12 21 -14 32
-2 11 -6 16 -9 10z"/>
<path d="M1921 3640 c-2 -14 -5 -38 -7 -55 -3 -25 -2 -27 7 -12 5 9 8 34 6 55
-2 25 -4 29 -6 12z"/>
<path d="M647 3612 c-21 -23 -21 -32 -3 -32 7 0 16 10 19 22 8 29 4 32 -16 10z"/>
<path d="M956 3595 c4 -8 10 -15 15 -15 11 0 194 -134 203 -149 4 -5 32 -24
64 -42 31 -18 74 -45 94 -61 31 -25 41 -27 58 -18 12 6 58 23 103 37 119 38
239 38 322 0 33 -16 68 -35 77 -44 26 -24 34 -7 27 57 -3 30 -6 43 -7 28 -2
-34 -12 -58 -23 -58 -5 0 -9 6 -9 13 0 20 -145 60 -227 62 -41 2 -77 5 -80 9
-3 3 -11 -1 -17 -8 -6 -8 -48 -26 -94 -40 -86 -26 -114 -24 -152 8 -8 7 -37
21 -65 31 -51 19 -102 55 -76 55 8 0 -4 13 -25 29 -22 16 -48 38 -59 48 -11
11 -38 27 -60 37 -22 10 -48 23 -57 28 -14 6 -16 5 -12 -7z"/>
<path d="M764 3568 c-4 -7 -14 -23 -22 -35 -21 -34 3 -28 28 6 11 17 16 32 11
35 -5 4 -13 1 -17 -6z"/>
<path d="M958 3558 c7 -7 12 -28 13 -47 1 -29 2 -32 7 -13 6 21 9 22 27 8 11
-9 31 -15 45 -16 25 0 25 0 -5 19 -16 10 -39 28 -49 40 -11 11 -26 21 -35 21
-12 0 -12 -3 -3 -12z"/>
<path d="M2196 3409 c3 -78 9 -150 15 -161 5 -10 7 -23 4 -29 -13 -20 -7 -99
8 -114 23 -23 25 -19 14 25 -9 32 -8 46 6 76 14 28 15 35 4 31 -16 -6 -41 29
-31 44 10 16 6 197 -4 215 -5 9 -7 25 -5 35 3 11 1 19 -5 19 -7 0 -9 -47 -6
-141z"/>
<path d="M817 3454 c-15 -14 -27 -30 -27 -37 0 -6 14 3 32 20 38 39 34 53 -5
17z"/>
<path d="M1067 3453 c53 -25 64 -43 58 -91 -2 -15 -2 -21 1 -14 3 6 14 12 25
12 18 0 19 2 4 38 -22 52 -43 69 -95 75 l-45 5 52 -25z"/>
<path d="M1190 3379 c0 -36 59 -108 110 -134 27 -14 50 -22 50 -17 0 4 -36 43
-80 87 -44 44 -80 73 -80 64z"/>
<path d="M1140 3337 c0 -7 4 -17 9 -22 5 -6 14 -28 21 -50 13 -42 25 -55 49
-55 11 0 9 6 -5 23 -23 25 -47 77 -40 85 3 2 20 -19 37 -47 41 -66 48 -66 12
0 -28 50 -83 94 -83 66z"/>
<path d="M1773 3293 c-7 -3 -13 -18 -13 -34 0 -22 5 -29 20 -29 11 0 23 7 26
15 7 18 -17 53 -33 48z"/>
<path d="M1822 3264 c6 -13 15 -24 20 -24 5 0 6 5 2 11 -5 8 -1 8 14 0 29 -15
42 -14 42 5 0 11 -6 14 -20 9 -13 -4 -20 -2 -20 7 0 7 -11 14 -24 14 -22 2
-24 0 -14 -22z"/>
<path d="M1921 3281 c-7 -5 -2 -16 15 -32 14 -13 44 -59 65 -102 22 -43 59
-106 82 -140 28 -40 47 -83 56 -122 7 -33 20 -76 28 -96 13 -32 13 -40 0 -65
-8 -16 -29 -42 -46 -58 -27 -26 -35 -28 -59 -20 -34 12 -41 48 -13 66 12 7 21
16 21 21 0 4 -5 5 -12 1 -7 -5 -8 -3 -2 7 19 31 11 41 -11 13 -13 -16 -24 -33
-25 -37 0 -11 -58 -66 -63 -61 -2 2 -4 -3 -4 -11 0 -11 7 -9 27 10 l26 25 23
-24 c12 -13 38 -27 58 -31 19 -3 49 -15 66 -26 51 -31 64 -22 23 16 l-38 35
28 27 c36 34 38 62 13 136 -11 33 -24 81 -30 109 -6 29 -30 77 -56 116 -44 65
-51 80 -52 112 -2 32 -103 141 -120 131z"/>
<path d="M1736 3262 c-10 -30 11 -63 66 -102 49 -36 92 -39 109 -9 18 35 29
79 18 79 -5 0 -9 -5 -9 -12 0 -9 -3 -9 -12 0 -7 7 -22 12 -33 12 -30 0 -28
-30 3 -41 18 -7 22 -13 14 -21 -16 -16 -40 -3 -54 29 -7 15 -13 29 -14 31 -3
6 -34 -11 -34 -19 0 -4 7 -6 15 -3 8 4 15 2 15 -4 0 -6 -7 -9 -15 -8 -24 4
-54 37 -57 65 -3 26 -4 26 -12 3z"/>
<path d="M1008 3237 c13 -13 40 -32 60 -41 45 -20 222 -56 222 -46 0 4 -25 18
-56 30 -37 15 -63 34 -76 54 -16 24 -19 26 -15 9 5 -24 -23 -41 -45 -26 -7 4
-17 8 -23 9 -5 1 -28 10 -50 19 l-40 17 23 -25z"/>
<path d="M966 3220 c2 -23 -2 -30 -16 -30 -24 0 -50 -10 -50 -20 0 -4 35 -10
78 -13 42 -3 86 -9 97 -13 11 -4 2 7 -20 23 -23 17 -49 42 -58 57 -23 34 -34
33 -31 -4z"/>
<path d="M1509 3202 l43 -39 -36 3 c-21 1 -48 10 -62 18 -13 9 -24 13 -24 8 0
-5 11 -15 25 -22 14 -7 25 -17 25 -22 0 -5 15 -8 33 -7 65 6 63 -9 -12 -85
-38 -39 -79 -83 -90 -97 l-20 -26 50 -7 c62 -8 73 -2 25 14 -20 6 -36 14 -36
17 0 6 72 84 115 125 29 27 29 28 60 10 16 -10 50 -26 75 -36 l45 -18 -29 31
c-18 18 -32 27 -36 21 -8 -13 -46 16 -108 82 -25 27 -55 54 -67 59 -11 6 0 -8
24 -29z"/>
<path d="M2580 3231 c8 -6 17 -8 22 -5 14 9 37 -41 44 -94 10 -75 22 -73 20 4
-1 56 -4 69 -25 85 -13 10 -35 19 -50 19 -20 0 -22 -3 -11 -9z"/>
<path d="M2388 3190 c-33 -18 -58 -40 -44 -40 3 0 25 10 48 22 24 13 63 25 88
29 l45 6 -50 1 c-32 1 -63 -6 -87 -18z"/>
<path d="M900 3132 c0 -5 14 -15 30 -22 17 -7 30 -18 30 -25 0 -13 106 -32
118 -21 3 3 -8 6 -24 6 -19 0 -25 3 -16 9 9 5 -1 14 -35 29 -64 27 -103 37
-103 24z"/>
<path d="M1292 3125 c-22 -12 -21 -13 23 -24 35 -9 51 -9 68 1 22 12 22 12 -8
19 -16 3 -37 9 -45 12 -8 3 -25 -1 -38 -8z"/>
<path d="M1169 3044 c18 -8 36 -12 39 -9 10 10 -21 25 -48 24 -23 -1 -22 -2 9
-15z"/>
<path d="M1755 3050 c-6 -9 1 -14 17 -11 4 0 15 -13 24 -30 8 -17 18 -29 21
-26 2 3 0 15 -6 26 -10 17 -9 20 4 15 8 -4 15 -10 15 -16 0 -5 4 -7 9 -3 15 9
31 -29 32 -77 l1 -43 10 34 c12 44 -5 87 -43 107 -52 26 -78 34 -84 24z"/>
<path d="M952 3041 c-7 -4 -25 -6 -40 -3 -42 7 -15 -13 42 -32 64 -21 100 -20
160 3 l48 18 -45 12 c-53 13 -146 14 -165 2z"/>
<path d="M1636 2997 c-62 -20 -99 -47 -85 -61 3 -3 34 8 70 25 37 18 82 32
106 33 32 1 39 4 31 14 -14 17 -42 14 -122 -11z"/>
<path d="M4 2795 c0 -121 2 -169 3 -107 2 62 2 161 0 220 -1 59 -3 8 -3 -113z"/>
<path d="M1292 2996 c-17 -7 -38 -18 -45 -25 -10 -11 -8 -11 10 -2 20 10 22 9
16 -6 -6 -17 -5 -17 14 0 11 9 25 17 31 17 7 0 12 7 12 15 0 8 -1 14 -2 14 -2
-1 -18 -7 -36 -13z"/>
<path d="M1889 2992 c6 -12 27 -29 46 -38 19 -9 35 -23 35 -31 0 -8 5 -11 12
-7 7 4 8 3 4 -5 -4 -6 -2 -19 5 -27 8 -10 10 -35 6 -77 -7 -80 11 -52 23 35
l9 62 -37 32 c-20 18 -54 42 -75 54 -39 22 -39 22 -28 2z"/>
<path d="M1150 2960 c-41 -16 -65 -29 -54 -29 12 -1 50 12 85 29 81 37 66 37
-31 0z"/>
<path d="M896 2962 c23 -15 40 -18 65 -13 40 8 26 16 -47 26 l-49 7 31 -20z"/>
<path d="M1777 2971 c3 -3 -28 -10 -67 -16 -62 -9 -74 -14 -88 -37 -15 -26
-15 -28 3 -42 30 -23 73 -19 98 8 12 13 31 25 42 27 21 4 34 46 17 59 -5 4 -7
5 -5 1z m-85 -59 c-7 -5 -10 -16 -6 -25 5 -13 0 -17 -20 -17 -29 0 -30 3 -16
31 6 10 21 19 33 19 15 0 18 -3 9 -8z"/>
<path d="M946 2928 c-16 -6 -40 -17 -55 -25 -26 -15 -26 -15 15 -10 22 2 60
14 85 25 42 19 43 20 14 20 -16 0 -43 -4 -59 -10z"/>
<path d="M2073 2912 c-9 -6 -1 -20 29 -48 22 -21 39 -34 36 -29 -2 6 -12 27
-22 48 -18 39 -23 42 -43 29z"/>
<path d="M1245 2849 c-33 -27 -65 -49 -72 -49 -16 0 -16 2 -3 34 5 14 8 26 5
26 -8 0 -126 -102 -122 -106 6 -6 145 24 170 37 33 17 67 51 83 82 20 38 8 33
-61 -24z"/>
<path d="M1397 2880 c-3 -10 1 -27 9 -37 12 -17 13 -16 14 6 0 17 4 22 16 17
9 -3 18 -6 20 -6 2 0 4 -7 4 -16 0 -14 2 -15 17 -3 15 12 16 12 10 -3 -4 -12
-2 -15 9 -11 20 8 17 26 -9 51 -30 28 -83 30 -90 2z"/>
<path d="M935 2871 c-68 -6 -69 -6 -30 -14 22 -5 64 -8 94 -8 l53 1 -33 -39
-34 -39 -75 1 c-43 0 -85 -5 -98 -12 -34 -18 -20 -24 25 -12 27 8 56 8 100 0
l63 -11 52 57 c79 86 79 85 11 83 -32 -1 -89 -4 -128 -7z"/>
<path d="M1748 2858 c-22 -33 -39 -68 -35 -68 8 0 60 81 55 85 -3 3 -12 -5
-20 -17z"/>
<path d="M1894 2862 c-15 -10 -37 -53 -30 -59 10 -10 34 17 39 42 2 14 4 25 3
25 0 0 -6 -4 -12 -8z"/>
<path d="M1932 2814 c-24 -30 -50 -54 -58 -54 -22 0 -46 -66 -46 -123 1 -27 3
-51 6 -54 15 -15 136 94 136 122 0 4 -10 -5 -22 -21 -49 -63 -58 -70 -68 -54
-9 13 -10 13 -10 0 0 -13 -1 -13 -10 0 -14 21 -12 70 2 70 6 0 9 3 5 6 -3 4 1
14 10 23 9 9 18 14 19 11 1 -3 11 3 21 13 22 19 35 14 26 -11 -4 -10 -3 -14 1
-11 8 7 39 130 34 134 -2 1 -22 -22 -46 -51z"/>
<path d="M195 2827 c4 -21 3 -27 -6 -21 -8 4 -9 3 -5 -5 4 -6 3 -17 -3 -24 -7
-9 -4 -16 10 -25 19 -12 19 -11 9 8 -7 13 -7 20 0 20 13 0 13 41 -1 60 -8 11
-9 8 -4 -13z"/>
<path d="M1351 2800 c-40 -34 -227 -130 -252 -130 -17 0 -20 -3 -11 -12 9 -9
27 -4 77 20 35 18 69 32 75 32 5 0 10 4 10 8 0 10 45 32 63 32 7 0 -1 -12 -16
-25 -15 -14 -24 -25 -20 -25 5 0 26 16 48 36 22 20 34 33 28 29 -7 -3 -13 -2
-13 3 0 12 25 33 32 27 2 -3 5 2 5 10 0 8 -1 15 -1 15 -1 -1 -12 -10 -25 -20z"/>
<path d="M1400 2796 c-6 -16 -9 -34 -6 -40 2 -6 5 -3 5 7 2 34 20 16 26 -27 8
-50 2 -65 -62 -151 l-45 -60 41 45 c22 24 52 65 66 91 l26 48 -20 58 -20 58
-11 -29z"/>
<path d="M1831 2784 c-1 -21 -14 -46 -41 -77 -43 -49 -47 -71 -31 -169 6 -38
4 -54 -10 -78 -10 -16 -17 -30 -16 -30 2 0 32 33 67 72 44 49 55 65 33 50 -35
-25 -53 -28 -53 -9 -1 6 -5 31 -9 54 -7 34 -5 48 10 70 10 15 29 44 42 63 17
25 21 42 16 60 -7 24 -7 23 -8 -6z"/>
<path d="M1542 2733 c-6 -2 -10 -8 -7 -13 6 -10 55 0 55 11 0 10 -27 11 -48 2z"/>
<path d="M1085 2721 c-22 -4 -53 -15 -70 -24 -26 -16 -27 -17 -5 -11 14 4 54
15 90 25 66 17 58 22 -15 10z"/>
<path d="M796 2711 c-4 -5 -1 -11 6 -13 6 -2 -14 -10 -45 -18 -32 -7 -57 -17
-57 -22 0 -5 -4 -6 -10 -3 -5 3 -10 1 -10 -5 0 -6 8 -9 18 -6 9 2 55 12 102
21 47 9 103 21 125 27 38 11 39 12 15 19 -36 10 -138 11 -144 0z"/>
<path d="M1380 2672 c-13 -20 -29 -44 -35 -52 -9 -13 -8 -13 7 -1 20 15 62 80
56 86 -2 2 -14 -13 -28 -33z"/>
<path d="M1615 2675 c-5 -2 -27 -6 -47 -10 -21 -3 -38 -10 -38 -15 0 -9 24 -7
88 6 12 2 22 9 22 14 0 10 -6 11 -25 5z"/>
<path d="M1480 2658 c6 -9 14 -28 18 -42 5 -17 11 -23 19 -18 9 6 4 18 -18 43
-17 18 -26 26 -19 17z"/>
<path d="M1673 2621 c-33 -50 -79 -213 -66 -233 3 -6 2 -8 -3 -5 -5 3 -17 -8
-26 -24 -14 -24 -15 -29 -3 -29 8 0 14 3 14 8 -3 19 2 32 13 29 8 -1 18 30 28
94 13 75 23 107 48 144 28 42 38 65 30 65 -2 0 -17 -22 -35 -49z"/>
<path d="M698 2623 c-19 -5 -25 -23 -7 -23 5 0 7 -5 4 -11 -4 -5 10 -3 30 5
21 9 39 16 41 16 2 0 4 5 4 10 0 10 -40 12 -72 3z"/>
<path d="M1290 2599 c-53 -44 -121 -111 -117 -115 2 -3 38 27 78 65 71 68 91
93 39 50z"/>
<path d="M1969 2595 c-11 -18 -10 -19 4 -7 13 11 16 10 22 -7 5 -17 9 -18 20
-8 7 6 11 15 8 20 -2 4 1 7 6 7 6 0 11 -5 11 -12 0 -6 3 -9 6 -5 12 11 -12 32
-37 32 -16 1 -32 -7 -40 -20z"/>
<path d="M763 2567 c-42 -10 -53 -20 -34 -32 5 -3 12 -1 16 5 3 5 28 12 55 16
28 4 50 10 50 15 0 11 -32 10 -87 -4z"/>
<path d="M1674 2486 l1 -100 -40 -23 c-52 -30 -33 -30 26 0 26 14 43 29 41 36
-2 7 1 17 9 21 9 6 10 12 2 22 -9 11 -23 58 -37 123 -2 11 -3 -25 -2 -79z"/>
<path d="M996 2554 c-26 -9 -46 -18 -42 -21 3 -3 18 -1 33 6 15 6 45 13 67 16
21 2 41 7 44 10 11 10 -54 3 -102 -11z"/>
<path d="M1510 2473 c-78 -79 -80 -82 -20 -30 36 31 66 53 68 49 1 -4 -11 -46
-27 -94 -15 -48 -25 -85 -20 -83 4 3 15 31 24 63 15 51 42 117 67 165 18 35
-9 14 -92 -70z"/>
<path d="M2020 2550 c-12 -7 -12 -12 -2 -22 9 -9 12 -9 12 0 0 7 7 12 15 12 8
0 15 5 15 10 0 13 -20 13 -40 0z"/>
<path d="M2137 2549 c-9 -5 -22 -7 -27 -4 -14 9 -82 -34 -74 -47 3 -5 15 -8
25 -5 10 3 22 1 25 -4 3 -5 10 -9 16 -9 7 0 6 5 -2 15 -14 17 -6 50 10 40 6
-4 8 -10 5 -15 -8 -13 14 -23 33 -15 16 6 15 8 -2 21 -17 12 -18 14 -3 14 9 0
17 5 17 10 0 12 0 12 -23 -1z"/>
<path d="M2700 2549 c0 -4 5 -11 10 -14 8 -5 7 -11 -1 -21 -10 -12 -9 -13 5
-8 20 8 22 51 1 51 -8 0 -15 -4 -15 -8z"/>
<path d="M771 2539 c-28 -11 -43 -29 -72 -82 -18 -34 -18 -36 -2 -25 26 17
118 118 107 117 -5 0 -20 -5 -33 -10z"/>
<path d="M2246 2524 c-6 -15 -12 -15 -66 4 -10 3 -12 2 -5 -6 6 -6 28 -14 50
-17 36 -6 41 -5 42 14 2 25 -12 28 -21 5z"/>
<path d="M2003 2503 c4 -4 -3 -18 -17 -32 -13 -14 -26 -39 -30 -56 l-6 -30 25
30 c14 17 23 35 21 42 -3 7 4 15 14 18 19 6 17 35 -3 35 -6 0 -7 -3 -4 -7z"/>
<path d="M802 2474 c-28 -14 -54 -34 -57 -45 -5 -13 -16 -19 -38 -20 -27 0
-29 -2 -12 -9 11 -4 32 -5 48 -3 19 4 27 1 27 -8 1 -8 8 0 17 16 8 17 29 45
46 63 17 17 29 32 26 32 -3 0 -28 -12 -57 -26z"/>
<path d="M1787 2458 c-34 -46 -43 -63 -29 -54 7 4 12 1 12 -6 0 -10 2 -10 9 1
7 11 15 10 45 -9 32 -19 35 -24 24 -38 -11 -13 -10 -15 5 -9 14 5 17 0 17 -32
0 -24 -5 -41 -14 -44 -12 -5 -20 -57 -9 -57 12 0 34 80 33 119 -3 66 -3 67 31
106 17 19 26 35 21 35 -6 0 -14 -5 -17 -10 -4 -6 -10 -8 -14 -5 -14 8 -42 -31
-35 -48 4 -13 1 -15 -17 -12 -12 3 -27 9 -32 14 -12 12 0 31 19 31 8 0 14 5
14 11 0 6 -9 9 -20 6 -26 -7 -35 9 -13 22 10 6 13 11 6 11 -7 0 -23 -15 -36
-32z"/>
<path d="M2383 2469 c-18 -12 -33 -25 -33 -30 0 -15 10 -10 42 21 35 35 34 37
-9 9z"/>
<path d="M895 2461 c-34 -20 -89 -81 -81 -89 3 -3 13 1 21 8 12 10 21 10 42 1
18 -8 29 -9 37 -1 13 13 116 13 116 0 0 -13 -41 -29 -81 -32 -17 -1 -33 -6
-36 -12 -3 -5 17 -7 50 -4 50 4 60 9 96 46 l41 42 -89 0 c-66 0 -92 -4 -101
-15 -15 -18 -36 -19 -46 -3 -4 7 8 25 32 45 44 37 44 42 -1 14z"/>
<path d="M2031 2414 c-20 -33 -29 -65 -14 -51 8 9 43 87 38 87 -1 0 -12 -16
-24 -36z"/>
<path d="M2074 2439 c-3 -5 3 -6 12 -2 13 5 15 3 9 -7 -5 -9 -4 -11 3 -6 7 4
12 2 12 -3 0 -14 36 -9 52 7 16 16 26 15 30 -2 2 -12 8 -11 27 5 l24 20 -82
-2 c-45 -1 -84 -5 -87 -10z"/>
<path d="M1257 2410 c-26 -10 -56 -16 -67 -13 -24 6 -25 -4 -5 -31 22 -29 19
-72 -6 -89 -14 -10 -19 -23 -17 -42 l3 -26 42 36 43 36 -20 22 c-27 29 -22 38
36 62 43 17 49 23 45 42 -6 21 -6 21 -54 3z"/>
<path d="M1749 2373 c-1 -4 -2 -12 -4 -18 -1 -5 -3 -17 -4 -25 -1 -13 -2 -13
-11 0 -6 9 -10 10 -10 3 0 -6 5 -15 10 -18 6 -4 8 -11 5 -16 -4 -5 -4 -9 0 -9
6 0 26 44 31 67 1 7 -2 15 -7 19 -5 3 -10 2 -10 -3z"/>
<path d="M2211 2345 c-37 -42 -41 -62 -8 -40 23 15 52 63 44 72 -3 2 -18 -12
-36 -32z"/>
<path d="M1147 2355 c-15 -11 -16 -18 -8 -33 6 -11 9 -21 8 -23 -1 -2 6 5 15
16 30 35 19 65 -15 40z"/>
<path d="M2297 2339 c-9 -6 -17 -6 -18 -2 -1 11 -17 -29 -18 -44 -1 -6 13 2
29 19 33 33 36 43 7 27z"/>
<path d="M2134 2307 c-21 -17 -55 -46 -74 -64 l-35 -33 78 0 c76 0 78 1 72 22
-6 17 -4 20 11 14 17 -6 17 -6 -1 14 l-18 20 -27 -25 c-14 -14 -31 -25 -38
-25 -18 0 -3 28 19 35 19 6 65 63 57 70 -2 3 -22 -10 -44 -28z"/>
<path d="M2338 2329 c10 -13 9 -21 -8 -42 -12 -14 -27 -24 -35 -21 -7 3 -23 0
-36 -6 -19 -11 -21 -10 -16 4 4 9 4 16 2 16 -8 0 -55 -107 -55 -126 0 -33 21
-46 41 -28 16 14 20 14 43 -2 19 -11 25 -22 21 -35 -5 -14 -2 -17 9 -13 9 3
16 7 16 8 0 0 -6 17 -13 36 -11 31 -16 35 -47 35 -29 0 -36 4 -38 22 -2 12 5
34 15 47 33 46 104 25 88 -25 -7 -21 -5 -22 36 -16 24 3 59 9 78 13 49 10 31
-12 -21 -27 -31 -8 -38 -13 -27 -20 8 -5 22 -6 31 -3 10 3 38 -4 63 -15 37
-16 46 -25 43 -42 -2 -14 13 -35 52 -70 30 -28 47 -47 38 -42 -34 17 -109 96
-104 109 10 25 -49 15 -92 -15 l-40 -30 -16 22 -15 22 0 -22 c-1 -12 3 -24 7
-27 5 -3 9 -22 10 -42 1 -20 6 -42 13 -50 6 -7 8 -18 4 -24 -3 -5 1 -10 10
-10 11 0 15 6 11 18 -3 9 -8 38 -11 64 -7 47 -7 47 30 62 21 9 43 16 49 16 6
0 49 -31 96 -69 47 -39 86 -66 88 -61 4 12 -67 120 -79 120 -5 0 -9 11 -9 24
0 17 -15 37 -45 63 -46 39 -46 39 -30 69 8 16 15 40 15 54 0 21 25 0 158 -136
86 -89 174 -174 196 -190 l38 -28 25 29 c18 21 27 25 33 15 4 -7 13 -9 19 -6
6 4 8 13 4 19 -4 7 -6 20 -5 30 4 22 -6 22 -26 -3 -33 -39 -62 -35 -132 18
-63 48 -130 120 -130 141 0 5 -8 14 -17 20 -17 9 -16 11 1 30 17 19 17 21 2
21 -9 0 -19 -7 -22 -15 -4 -8 -10 -12 -15 -9 -16 10 -9 44 11 56 11 7 20 17
20 21 0 15 -45 3 -58 -15 -18 -24 -27 -23 -40 6 -16 36 -58 39 -91 7 -16 -14
-34 -36 -40 -48 -15 -29 -27 -29 -34 -1 -4 14 0 26 11 34 16 12 16 13 0 14 -9
0 -25 3 -35 6 -16 5 -16 4 -2 -8 11 -8 14 -20 9 -33 -6 -17 -9 -15 -24 19 -9
21 -14 42 -11 46 3 4 -3 14 -13 21 -15 12 -16 12 -4 -2z m41 -117 c-12 -5 -48
39 -48 58 0 9 12 0 29 -20 16 -19 24 -37 19 -38z"/>
<path d="M1666 2303 c-25 -13 -27 -17 -13 -25 21 -11 33 -5 40 22 3 11 4 20 4
20 -1 -1 -15 -8 -31 -17z"/>
<path d="M569 2284 c-9 -11 -10 -20 -3 -32 16 -25 32 -25 45 0 12 22 11 23 -8
5 -26 -22 -37 -10 -18 20 17 26 5 32 -16 7z"/>
<path d="M1435 2256 c-49 -25 -87 -45 -84 -45 9 -1 179 79 179 84 0 7 2 8 -95
-39z"/>
<path d="M1034 2266 c-18 -8 -35 -19 -39 -26 -6 -9 69 23 84 36 9 8 -16 3 -45
-10z"/>
<path d="M1525 2254 c-16 -12 -72 -32 -199 -70 -12 -4 -16 -2 -12 5 4 6 -17 2
-46 -10 -61 -24 -77 -35 -33 -24 63 16 111 24 149 25 21 0 44 6 50 13 6 7 38
24 70 37 57 22 60 23 70 5 6 -10 24 -33 39 -51 l29 -34 -29 15 c-15 8 -38 15
-49 15 -26 0 -49 -24 -38 -41 5 -9 2 -10 -12 -4 -51 22 -79 17 -141 -25 -85
-56 -113 -92 -113 -141 0 -38 23 -109 35 -109 3 0 1 9 -5 19 -5 11 -10 44 -10
74 0 52 2 56 49 100 52 49 118 87 139 80 6 -3 10 -8 8 -11 -2 -4 11 -7 29 -8
19 0 32 3 29 8 -3 4 0 8 6 8 6 0 9 4 5 9 -9 15 14 24 43 16 20 -5 23 -8 11
-16 -10 -6 -7 -9 14 -9 32 0 35 -15 6 -31 -12 -6 -19 -7 -16 -1 4 5 -7 9 -23
8 -17 -1 -30 -2 -30 -3 0 -2 15 -9 33 -17 30 -13 34 -12 59 12 l27 25 -51 73
c-29 41 -56 74 -62 74 -6 0 -20 -7 -31 -16z"/>
<path d="M1713 2215 c-13 -27 -14 -38 -5 -47 6 -6 14 -9 17 -6 6 6 13 88 8 88
-2 0 -11 -16 -20 -35z"/>
<path d="M199 2230 c0 -3 -2 -13 -4 -22 -12 -65 -14 -95 -6 -107 7 -11 10 -11
17 0 18 29 21 106 6 121 -7 7 -12 10 -13 8z"/>
<path d="M880 2210 c-14 -10 -77 -29 -93 -30 -4 0 -21 -7 -37 -15 -17 -9 -30
-13 -30 -9 0 4 -6 2 -13 -4 -7 -6 -24 -13 -38 -15 -14 -3 -58 -15 -98 -27 -41
-12 -82 -24 -92 -26 -11 -2 -29 -6 -41 -9 -12 -2 -29 -12 -37 -21 -14 -14 -14
-16 -1 -11 35 13 154 48 280 81 164 44 251 76 244 87 -7 12 -25 11 -44 -1z"/>
<path d="M955 2133 c-172 -98 -309 -157 -423 -179 -74 -15 -80 -18 -78 -40 0
-13 2 -24 3 -24 9 0 61 27 71 37 7 7 22 13 33 13 25 0 125 38 202 77 27 14 28
13 17 -6 -11 -22 3 -31 16 -10 20 33 189 129 227 129 31 0 33 -7 10 -39 -22
-32 -34 -102 -21 -118 6 -7 8 -13 5 -13 -3 0 -2 -13 3 -28 13 -47 -28 -121
-67 -122 -7 0 -13 8 -13 18 0 11 -6 7 -19 -14 -12 -20 -40 -41 -75 -57 -78
-36 -70 -41 12 -8 37 16 88 36 113 45 42 15 49 22 63 65 11 36 13 57 6 82 -24
83 -11 128 57 200 26 28 33 42 28 58 -3 12 -9 21 -13 20 -4 0 -74 -39 -157
-86z"/>
<path d="M1465 2190 l-30 -7 29 -12 c29 -11 45 -4 46 22 0 8 -2 8 -45 -3z"/>
<path d="M1848 2192 c-10 -2 -21 -14 -24 -27 -7 -27 12 -69 27 -59 6 3 3 11
-8 19 -14 11 -16 18 -7 31 14 23 36 31 28 10 -8 -20 15 -21 42 -2 18 14 18 15
2 20 -33 11 -43 12 -60 8z"/>
<path d="M1996 2185 c-11 -8 -16 -16 -10 -16 5 -1 21 -3 37 -5 15 -1 27 2 27
7 0 6 21 9 48 7 45 -3 47 -4 47 -32 0 -16 -6 -31 -12 -33 -8 -3 -13 4 -13 18
0 21 -1 21 -19 5 -14 -12 -20 -14 -23 -5 -2 7 -16 13 -31 13 l-27 2 30 -31
c23 -22 33 -27 39 -17 6 10 13 10 36 -2 21 -11 32 -12 46 -3 12 7 14 14 7 18
-7 4 -9 21 -5 43 l6 36 -69 0 c-38 0 -74 2 -82 5 -7 2 -22 -2 -32 -10z"/>
<path d="M1650 2085 c-21 -22 -22 -28 -10 -35 22 -14 30 -12 30 8 0 13 2 14 9
4 7 -11 9 -11 14 1 3 8 0 22 -6 32 -11 15 -15 14 -37 -10z"/>
<path d="M1446 2085 c-46 -16 -89 -56 -112 -103 -15 -33 -15 -37 0 -63 10 -18
13 -30 6 -34 -5 -3 -10 -1 -10 6 0 7 -2 10 -5 7 -11 -11 43 -114 90 -171 26
-32 49 -56 51 -54 8 8 -31 74 -78 130 -47 57 -61 86 -35 71 6 -4 9 -4 5 1 -4
4 -4 13 1 19 4 6 11 31 15 56 4 31 3 40 -4 30 -5 -8 -10 -31 -11 -50 0 -32 -1
-33 -11 -13 -14 29 28 119 54 117 10 -1 15 2 12 7 -8 13 61 43 81 35 23 -8 4
-32 -42 -51 -20 -8 -33 -21 -33 -32 0 -15 2 -14 16 5 12 18 25 22 64 22 59 0
93 -25 114 -85 11 -30 15 -34 15 -17 1 33 -15 60 -67 115 -26 26 -43 47 -39
47 21 0 67 -33 106 -75 41 -45 43 -50 39 -96 -5 -50 -32 -94 -51 -82 -6 3 -7
1 -3 -5 4 -7 -7 -20 -29 -33 -20 -12 -34 -23 -31 -26 8 -8 85 37 96 56 5 11
17 26 26 35 8 9 18 30 20 48 5 27 -2 43 -39 93 -61 83 -137 116 -211 90z"/>
<path d="M291 2060 c-1 -14 13 -124 29 -244 17 -121 30 -240 29 -265 -1 -27 8
-72 21 -109 22 -60 25 -63 49 -57 14 4 28 9 31 11 2 3 -8 28 -24 56 -23 40
-27 57 -22 89 5 28 2 46 -10 65 -11 17 -21 69 -30 155 -7 71 -21 158 -32 192
-11 34 -24 78 -30 97 -8 30 -10 31 -11 10z"/>
<path d="M2170 2063 c0 -8 -25 -13 -76 -15 l-75 -3 42 -27 c24 -16 37 -28 30
-28 -7 0 -9 -5 -6 -11 5 -6 12 -4 20 8 16 21 9 31 -22 36 -35 5 -40 17 -7 16
43 -1 79 -14 77 -27 -2 -6 11 -21 27 -34 37 -27 38 -44 4 -52 l-27 -7 24 -25
c21 -23 24 -23 33 -7 9 16 11 14 16 -12 3 -16 12 -29 18 -27 7 1 15 -5 18 -13
4 -8 10 -15 16 -15 15 0 -2 42 -28 71 -13 14 -24 35 -24 48 0 13 -13 33 -30
48 -30 25 -39 48 -20 55 6 2 6 8 0 18 -6 9 -10 10 -10 3z"/>
<path d="M174 2044 c-12 -18 -73 -25 -127 -15 -39 7 -43 6 -45 -14 -2 -23 23
-30 45 -13 7 5 14 5 17 -1 4 -6 12 -8 19 -6 7 2 41 6 77 10 70 7 75 8 65 24
-13 22 -41 30 -51 15z"/>
<path d="M1958 2048 c-3 -7 24 -55 59 -108 61 -90 97 -136 60 -78 -20 31 -21
38 -7 38 5 0 16 -13 25 -30 15 -29 35 -40 35 -20 0 19 -52 69 -66 63 -8 -3
-14 1 -14 11 0 9 -4 16 -9 16 -8 0 -45 68 -55 103 -6 20 -22 23 -28 5z"/>
<path d="M1060 1978 c0 -46 17 -99 40 -128 20 -25 20 -25 0 23 -11 27 -20 69
-20 93 0 24 -4 44 -10 44 -5 0 -10 -15 -10 -32z"/>
<path d="M1440 1974 c-6 -14 -10 -31 -10 -38 0 -17 25 -38 33 -29 4 3 7 1 7
-6 0 -9 -8 -11 -21 -8 -16 4 -19 3 -11 -5 9 -9 18 -8 37 0 29 13 33 39 8 58
-28 19 -8 27 25 10 55 -28 57 -83 7 -133 -19 -19 -35 -37 -35 -38 0 -2 16 -3
35 -2 40 3 91 46 98 83 6 32 3 30 -23 -12 -29 -45 -37 -37 -16 17 9 23 14 44
11 47 -3 3 -5 -1 -5 -9 0 -8 -9 5 -19 28 -21 45 -45 63 -86 63 -18 0 -28 -7
-35 -26z"/>
<path d="M2316 1975 c-3 -10 3 -30 16 -47 20 -28 22 -29 29 -12 3 10 3 26 -1
34 -5 8 -8 20 -8 25 -1 17 -29 17 -36 0z"/>
<path d="M1721 1940 c23 -64 -35 -152 -119 -181 -27 -9 -30 -13 -22 -35 5 -13
7 -32 4 -41 -5 -15 -4 -16 5 -3 6 8 11 25 11 36 0 15 8 24 24 28 22 5 88 71
112 112 10 15 16 17 30 8 10 -6 21 -22 24 -35 4 -17 8 -20 14 -11 13 22 -2 55
-49 105 -42 46 -44 47 -34 17z"/>
<path d="M1940 1966 c0 -23 66 -137 104 -180 46 -52 75 -50 31 2 -14 16 -25
35 -25 41 0 6 -5 10 -10 9 -6 -2 -24 22 -41 52 -31 55 -59 92 -59 76z"/>
<path d="M1650 1934 c-1 -10 -7 -37 -15 -59 -12 -35 -12 -38 0 -21 17 22 31
84 21 93 -3 4 -6 -2 -6 -13z"/>
<path d="M385 1930 c-18 -7 -19 -8 -2 -15 10 -4 17 -18 17 -33 0 -34 15 -17
23 26 7 34 0 38 -38 22z"/>
<path d="M2453 1913 c-32 -4 -33 -6 -33 -51 1 -46 2 -47 50 -70 53 -25 113
-79 135 -122 8 -15 17 -51 20 -81 3 -30 10 -58 16 -64 18 -18 9 -149 -18 -240
-5 -19 -4 -18 14 2 11 12 25 53 33 92 11 60 11 76 -2 118 -9 26 -19 65 -22 85
-4 20 -27 79 -51 130 -25 51 -42 82 -39 70 5 -22 4 -23 -16 -12 -35 19 -101
82 -97 94 4 11 54 19 133 20 61 1 84 -16 256 -186 109 -107 168 -157 168 -141
0 4 -75 83 -168 175 -147 147 -172 168 -212 177 -44 10 -104 12 -167 4z"/>
<path d="M1227 1825 c-56 -175 -108 -378 -98 -388 6 -6 25 -11 43 -11 32 -1
33 -3 29 -35 -2 -24 -6 -30 -13 -20 -7 11 -8 9 -6 -6 2 -11 8 -20 14 -20 6 0
18 -8 28 -17 10 -10 29 -21 44 -24 15 -3 49 -12 76 -20 62 -17 138 -17 191 1
l40 14 -63 -5 c-35 -4 -93 -3 -129 1 -62 7 -64 7 -48 26 13 14 27 17 59 14 40
-5 257 -14 326 -15 24 0 31 -3 21 -9 -11 -7 -11 -9 0 -13 8 -3 -9 -8 -38 -12
-28 -3 -95 -20 -149 -36 -54 -16 -100 -28 -101 -26 -4 4 59 27 132 50 47 15
48 15 10 10 -22 -3 -90 -25 -152 -50 -62 -24 -116 -44 -121 -44 -5 0 -15 7
-22 15 -7 8 -16 12 -21 10 -4 -3 -31 23 -60 57 -48 59 -83 89 -64 57 13 -22
90 -120 128 -164 27 -31 37 -37 48 -28 27 21 245 102 317 118 108 22 124 20
145 -16 18 -33 36 -34 22 -2 -5 10 -7 21 -7 26 1 4 -2 7 -8 7 -5 0 -17 12 -26
26 -13 20 -15 27 -5 33 7 5 -83 10 -199 13 -116 3 -214 8 -216 11 -3 3 2 17
11 30 13 21 14 30 5 47 -6 12 -10 24 -7 26 5 5 192 -13 275 -28 50 -8 73 -8
104 3 36 12 42 11 53 -5 13 -17 32 -6 21 13 -3 4 3 16 14 26 30 27 24 35 -27
35 -45 0 -52 4 -118 66 -38 36 -96 82 -128 101 -50 31 -57 40 -52 60 3 13 1
23 -4 23 -11 0 -21 -38 -15 -55 3 -7 45 -39 94 -70 48 -32 94 -68 101 -81 16
-30 68 -64 99 -64 13 0 20 -5 18 -12 -3 -9 -30 -14 -74 -16 l-70 -3 -104 98
c-57 54 -120 119 -141 145 -37 48 -41 48 -64 9 -6 -11 -4 -13 9 -8 12 5 39
-17 104 -84 48 -51 105 -104 126 -120 l39 -29 -69 1 c-38 0 -87 3 -109 7 -39
7 -40 8 -73 97 -19 50 -43 109 -54 132 -11 23 -17 46 -14 51 3 6 0 13 -6 15
-10 4 -10 6 0 6 6 1 12 6 12 12 0 6 -7 8 -16 5 -13 -5 -14 -3 -7 6 7 9 3 28
-12 63 l-22 49 -26 -79z m61 -118 c8 -29 7 -51 -4 -94 -24 -91 -30 -95 -55
-38 -19 44 -21 54 -10 90 7 22 15 51 17 65 11 52 14 55 28 34 8 -10 18 -36 24
-57z m47 -109 c4 -18 17 -49 27 -71 11 -21 18 -41 15 -44 -4 -3 -22 2 -41 11
-19 9 -42 16 -51 16 -20 0 -16 24 12 90 19 44 28 43 38 -2z m-103 -53 c21 -34
33 -45 53 -45 52 0 87 -66 65 -121 -27 -63 -92 -75 -126 -23 -16 23 -16 29 0
87 15 52 15 63 3 72 -16 11 -37 48 -37 64 0 22 16 9 42 -34z m-34 -43 c2 -20
5 -39 8 -43 2 -4 0 -10 -6 -14 -5 -3 -10 -1 -10 4 0 6 -8 11 -19 11 -16 0 -17
4 -8 38 13 48 32 50 35 4z"/>
<path d="M1330 1428 c0 -27 -51 -80 -72 -75 -24 7 -23 0 3 -13 17 -9 25 -8 41
7 30 27 48 67 37 84 -7 12 -9 11 -9 -3z"/>
<path d="M660 1868 c-17 -19 -25 -45 -21 -70 0 -5 -12 -8 -28 -8 -25 0 -33 7
-52 45 -15 30 -26 42 -33 35 -6 -6 -4 -16 7 -28 9 -10 17 -25 17 -33 1 -22 27
-52 35 -40 11 19 24 12 31 -16 7 -26 7 -26 29 18 15 27 19 46 13 50 -6 4 -2
15 11 28 19 19 28 41 16 41 -2 0 -13 -10 -25 -22z"/>
<path d="M1365 1860 c-3 -5 -4 -11 -1 -11 31 -7 56 -21 52 -28 -2 -3 12 -7 33
-7 l36 -2 -30 10 c-16 6 -42 19 -57 30 -16 11 -29 15 -33 8z"/>
<path d="M751 1816 c-37 -38 -42 -46 -28 -52 23 -9 65 21 73 51 11 45 -1 46
-45 1z"/>
<path d="M1074 1845 c3 -11 8 -33 12 -48 5 -22 9 -26 16 -15 7 9 8 3 4 -17 -5
-20 -3 -25 3 -16 6 10 12 4 21 -23 7 -21 10 -40 6 -43 -3 -3 -8 6 -12 21 -3
14 -10 26 -15 26 -4 0 -1 -16 7 -35 19 -47 18 -52 -8 -28 -34 30 -68 47 -68
32 0 -12 38 -49 50 -49 9 0 25 -69 22 -90 -15 -81 -1 -88 16 -8 25 118 24 159
-7 223 -35 71 -55 101 -47 70z"/>
<path d="M1827 1833 c-8 -14 -74 -228 -81 -263 -6 -27 0 -21 24 30 52 106 82
192 70 200 -6 4 -8 14 -4 23 6 17 -1 24 -9 10z"/>
<path d="M1880 1808 c0 -10 14 -33 30 -52 33 -37 96 -54 140 -38 l24 9 -22 12
c-13 7 -31 9 -41 6 -27 -8 -68 11 -102 47 -21 24 -29 28 -29 16z"/>
<path d="M153 1780 c6 -11 15 -20 19 -20 4 0 15 -14 23 -31 11 -19 22 -29 31
-25 8 3 14 0 14 -7 0 -15 -37 -20 -45 -6 -4 5 -13 9 -22 9 -13 0 -13 -3 -3
-15 11 -13 10 -18 -6 -31 -14 -11 -15 -17 -6 -20 6 -3 12 -12 12 -20 0 -7 6
-11 13 -9 7 3 21 -15 34 -43 21 -47 21 -47 22 -14 1 22 -4 32 -14 32 -8 0 -15
5 -15 10 0 6 7 10 16 10 10 0 13 6 9 19 -3 10 1 24 10 31 8 7 12 17 9 22 -3 5
-6 25 -6 44 0 36 -6 42 -26 22 -9 -9 -12 -9 -12 0 0 7 5 12 10 12 6 0 10 5 10
11 0 7 -10 9 -25 5 -17 -4 -27 -2 -31 8 -3 8 -12 17 -20 20 -11 4 -12 2 -1
-14z"/>
<path d="M2826 1792 c-7 -11 21 -36 107 -96 37 -26 67 -43 67 -37 0 6 -4 11
-9 11 -11 0 -49 31 -97 77 -21 20 -34 28 -38 20 -2 -7 -5 -5 -5 5 -1 20 -17
32 -25 20z"/>
<path d="M2430 1774 c0 -2 27 -17 60 -34 68 -35 92 -64 101 -129 l6 -46 2 43
c2 75 -34 119 -126 154 -24 9 -43 15 -43 12z"/>
<path d="M2415 1709 c3 -58 2 -63 -29 -93 -18 -17 -41 -36 -52 -43 -17 -11
-16 -12 11 -12 24 -1 41 9 74 43 26 26 39 46 32 50 -6 4 -13 29 -17 57 -10 72
-24 71 -19 -2z"/>
<path d="M2471 1691 c14 -39 6 -72 -22 -87 -22 -12 -22 -13 -4 -14 19 -1 19
-1 -2 -19 -13 -11 -23 -23 -23 -27 0 -4 18 10 40 31 41 40 48 62 30 96 -6 10
-7 19 -3 19 17 0 33 -17 46 -49 9 -22 17 -29 22 -21 12 19 -12 53 -54 76 l-39
21 9 -26z"/>
<path d="M135 1700 c-4 -6 -13 -9 -21 -6 -24 9 -23 -8 2 -27 21 -15 23 -16 17
-1 -3 9 0 20 8 24 7 5 11 12 7 15 -3 4 -9 1 -13 -5z"/>
<path d="M782 1698 c-25 -13 -25 -13 4 -115 17 -59 29 -64 74 -31 22 16 33 19
41 11 8 -8 5 -14 -12 -23 -13 -7 -25 -14 -27 -15 -1 -1 8 -20 21 -43 17 -31
26 -39 37 -32 9 6 10 10 4 10 -17 0 -25 28 -17 58 6 26 7 25 29 -22 17 -37 20
-52 11 -61 -7 -7 -14 -12 -17 -10 -3 1 -27 -6 -55 -16 l-50 -19 65 5 c36 2 71
1 79 -4 15 -10 11 -11 -104 -27 l-50 -7 50 -8 c32 -5 54 -4 63 3 9 8 16 8 24
0 16 -16 -10 -46 -27 -32 -9 8 -14 6 -19 -5 -3 -9 -2 -13 4 -10 6 3 10 1 10
-5 0 -7 -7 -9 -16 -6 -9 3 -25 -1 -37 -9 -28 -20 -61 -20 -53 0 3 9 0 15 -10
15 -9 0 -14 -6 -11 -12 2 -7 -5 -19 -17 -26 -18 -11 -10 -12 55 -9 42 2 82 8
90 12 7 5 22 10 32 10 32 3 41 23 41 95 -1 62 -6 81 -42 153 -46 92 -110 181
-132 184 -8 1 -25 -3 -38 -9z m78 -75 l22 -28 -39 -17 -38 -17 -8 30 c-15 58
27 78 63 32z"/>
<path d="M1740 1660 c-6 -22 -20 -48 -30 -57 -14 -13 -17 -20 -8 -30 19 -23
26 -14 42 54 17 74 14 99 -4 33z"/>
<path d="M2049 1683 c-1 -5 -1 -12 0 -16 3 -17 -28 -48 -93 -92 -37 -25 -74
-45 -81 -45 -8 0 -17 -5 -20 -10 -10 -15 26 -25 44 -12 9 7 47 30 84 53 37 22
84 54 103 71 l35 31 -31 14 c-37 15 -40 15 -41 6z"/>
<path d="M450 1660 c0 -8 10 -35 22 -60 16 -35 20 -61 19 -115 -1 -38 -7 -71
-12 -73 -5 -2 -9 -9 -9 -15 0 -7 4 -7 12 1 7 7 18 42 23 78 11 62 10 66 -22
132 -18 37 -33 60 -33 52z"/>
<path d="M744 1647 c3 -10 6 -30 6 -43 0 -13 4 -24 10 -24 12 0 1 61 -13 75
-7 7 -8 4 -3 -8z"/>
<path d="M2168 1640 c18 -11 32 -28 32 -39 0 -30 38 -106 69 -140 29 -31 50
-36 124 -31 32 2 97 37 97 51 0 5 -18 -2 -40 -16 -40 -25 -110 -35 -110 -15 0
6 12 10 28 10 15 0 37 3 50 6 22 6 21 8 -15 24 -38 17 -38 17 -59 -9 -22 -26
-22 -26 -58 -9 -20 10 -36 22 -36 27 0 6 13 2 30 -7 27 -16 31 -16 46 -1 15
15 14 17 -12 17 -16 0 -30 5 -32 11 -2 6 -8 9 -12 6 -10 -6 -34 34 -26 43 3 3
-2 15 -11 26 -18 21 -18 21 4 2 13 -10 20 -23 17 -27 -3 -5 3 -6 12 -2 12 4
15 3 10 -5 -4 -7 -3 -12 3 -12 21 0 20 20 -1 31 -13 7 -41 26 -62 43 -22 16
-49 32 -60 33 -15 2 -12 -2 12 -17z"/>
<path d="M70 1628 c0 -18 27 -44 37 -34 4 4 -3 16 -15 29 -18 17 -22 18 -22 5z"/>
<path d="M1791 1595 c-18 -26 -30 -49 -27 -52 2 -3 28 19 58 48 29 29 46 48
37 41 -11 -8 -19 -8 -26 -1 -7 7 -20 -4 -42 -36z"/>
<path d="M2104 1583 c-27 -67 -25 -175 3 -228 32 -60 103 -119 117 -96 3 4 -9
13 -27 19 -66 24 -117 156 -97 246 5 24 14 56 20 71 6 15 9 29 7 32 -2 2 -13
-18 -23 -44z"/>
<path d="M2485 1581 c-16 -19 -24 -32 -18 -27 10 5 11 -1 6 -25 -9 -46 11 -30
32 25 23 60 16 69 -20 27z"/>
<path d="M605 1546 c-9 -13 -18 -41 -21 -62 l-4 -39 14 30 c9 17 15 35 16 41
0 7 10 15 23 19 13 4 17 8 9 12 -6 2 -10 9 -6 14 13 21 -17 7 -31 -15z"/>
<path d="M764 1545 c3 -17 9 -43 15 -60 10 -27 11 -26 7 18 -2 27 -9 54 -15
60 -8 8 -10 3 -7 -18z"/>
<path d="M698 1488 c-36 -37 -36 -49 -2 -17 25 22 24 21 -5 -20 -17 -24 -31
-50 -31 -58 0 -17 -4 -16 -40 2 l-30 15 12 -25 c6 -14 14 -25 18 -25 10 0 19
-37 12 -45 -4 -3 -5 -21 -3 -40 2 -26 -4 -40 -22 -57 -13 -13 -34 -42 -46 -65
-23 -46 -36 -58 -22 -20 8 20 5 24 -25 33 -25 8 -34 8 -38 -2 -8 -20 -41 -9
-44 14 -2 11 -10 23 -18 26 -21 8 -17 -18 6 -39 20 -18 28 -41 11 -31 -13 8
-75 -37 -79 -57 -11 -54 25 -55 57 -2 11 19 33 41 50 50 30 15 32 15 55 -8 24
-25 46 -25 46 -1 0 9 4 13 10 9 5 -3 16 7 24 23 8 16 27 44 42 61 24 28 26 38
21 82 -6 47 -5 51 30 83 31 28 37 41 39 79 1 25 5 50 8 56 13 21 -9 8 -36 -21z"/>
<path d="M816 1476 c7 -50 -10 -71 -33 -41 -12 18 -13 18 -13 -2 0 -12 -8 -24
-18 -27 -10 -4 -33 -22 -52 -41 l-33 -34 66 3 c37 2 67 0 67 -5 0 -5 18 -9 40
-9 22 0 40 5 40 10 0 6 -15 10 -33 10 -40 0 -55 14 -50 44 4 18 16 27 51 37
26 7 40 15 30 17 -9 2 -23 21 -32 43 -21 53 -37 50 -30 -5z"/>
<path d="M2593 1468 c-28 -47 -57 -79 -127 -145 -19 -17 -19 -17 -12 12 4 17
6 28 4 25 -2 -3 -33 -36 -68 -74 l-65 -68 40 16 c114 48 275 214 263 272 -2 9
-16 -7 -35 -38z"/>
<path d="M2020 1408 c-6 -24 -15 -55 -20 -70 -7 -21 -6 -28 5 -28 8 0 16 17
20 43 4 23 9 54 11 70 7 42 -4 32 -16 -15z"/>
<path d="M555 1423 c-22 -6 -35 -21 -35 -43 0 -9 5 -7 16 8 8 12 22 22 30 22
8 0 14 5 14 10 0 6 -1 9 -2 9 -2 -1 -12 -4 -23 -6z"/>
<path d="M2400 1412 l-65 -5 50 -12 50 -12 -83 -41 c-45 -22 -92 -43 -105 -46
-12 -2 6 -4 41 -2 69 3 103 21 137 74 11 17 29 35 40 41 11 5 16 9 10 8 -5 0
-39 -3 -75 -5z"/>
<path d="M533 1349 c-16 -6 -20 -13 -16 -31 13 -48 47 -51 50 -4 3 40 -3 47
-34 35z"/>
<path d="M420 1331 c16 -31 12 -36 -12 -15 -21 17 -21 16 1 -9 14 -15 28 -27
33 -27 10 0 6 39 -5 58 -13 20 -29 14 -17 -7z"/>
<path d="M320 1294 c-16 -40 -12 -59 16 -88 21 -20 30 -24 41 -15 11 9 11 15
1 27 -11 14 -10 15 7 8 11 -5 30 -11 43 -13 12 -3 22 -9 22 -12 0 -4 14 -6 30
-3 17 2 30 10 30 18 0 7 6 11 13 8 8 -3 19 1 25 9 9 11 8 18 -8 32 -16 15 -20
15 -20 3 0 -8 -8 -22 -18 -31 -15 -14 -25 -15 -58 -6 -44 12 -74 35 -74 56 0
8 -4 11 -10 8 -5 -3 -10 -17 -10 -30 0 -13 -5 -27 -11 -30 -7 -5 -8 7 -4 39 8
50 0 61 -15 20z"/>
<path d="M677 1314 c7 -3 10 -11 7 -18 -3 -9 4 -12 28 -9 31 4 32 3 14 -11
-11 -9 -28 -16 -38 -16 -10 0 -18 -7 -18 -17 0 -9 -12 -30 -27 -45 -22 -23
-23 -28 -10 -28 19 0 118 94 136 129 11 20 10 21 -46 20 -32 0 -53 -3 -46 -5z"/>
<path d="M1099 1296 c-11 -11 10 -149 35 -224 13 -43 37 -119 52 -171 15 -51
33 -95 39 -97 6 -3 72 25 148 61 75 36 143 65 152 65 8 0 14 5 13 12 -7 29
154 22 313 -14 18 -4 63 143 50 164 -17 27 -13 33 9 13 11 -10 20 -22 20 -27
0 -4 42 -70 93 -146 92 -134 112 -178 121 -267 8 -69 9 -71 15 -25 12 93 -9
144 -162 395 -16 26 -116 146 -136 163 -29 24 -30 11 -4 -43 l27 -55 -26 -54
-27 -55 -109 6 c-107 6 -187 -1 -178 -15 2 -4 -17 -16 -42 -26 -62 -25 -250
-125 -257 -137 -12 -18 -25 -8 -25 19 0 27 -24 118 -73 283 -14 47 -30 107
-34 133 -4 26 -11 45 -14 42z"/>
<path d="M143 1277 c-11 -18 20 -31 82 -35 63 -4 65 -4 65 19 0 23 -3 24 -71
24 -39 0 -73 -4 -76 -8z"/>
<path d="M2602 1193 c-6 -20 -9 -39 -7 -41 3 -3 7 4 10 14 4 10 11 27 16 36
11 22 11 28 1 28 -5 0 -14 -17 -20 -37z"/>
<path d="M740 1177 c-7 -18 -16 -36 -18 -42 -3 -5 2 -4 11 4 10 7 17 10 17 7
0 -4 7 0 16 9 11 11 26 14 43 10 29 -6 19 3 -30 30 -24 13 -26 12 -39 -18z"/>
<path d="M267 1149 c-31 -28 -57 -54 -57 -59 0 -21 38 -14 74 14 87 69 79 60
58 79 -17 16 -21 14 -75 -34z"/>
<path d="M669 1120 c-13 -16 -29 -30 -36 -30 -15 0 -18 -36 -4 -44 5 -4 7 3 4
14 -6 22 22 29 30 8 3 -7 6 -3 6 9 1 26 21 42 21 17 0 -10 -8 -26 -17 -37 -14
-15 -27 -67 -17 -67 11 0 43 74 47 107 6 54 -6 62 -34 23z"/>
<path d="M743 1085 c-6 -25 -6 -45 -2 -45 5 0 9 1 10 3 4 16 9 87 6 87 -2 0
-8 -20 -14 -45z"/>
<path d="M2552 1093 l-24 -35 30 -37 c28 -34 29 -42 35 -168 5 -108 4 -133 -8
-143 -8 -7 -15 -17 -15 -22 0 -5 9 0 20 10 19 17 20 28 16 150 -3 112 -7 136
-25 166 -12 19 -27 36 -33 38 -7 3 -3 16 12 36 13 17 22 34 19 36 -2 3 -15
-11 -27 -31z"/>
<path d="M930 1101 c0 -16 -51 -71 -61 -66 -5 4 -6 -2 -2 -11 4 -11 2 -15 -4
-11 -10 6 -23 -13 -23 -34 0 -17 41 11 50 34 7 17 9 18 9 5 1 -10 5 -18 9 -18
12 0 32 22 32 35 0 5 -7 2 -14 -8 -11 -14 -15 -15 -19 -3 -3 8 1 22 8 33 9 11
14 13 15 5 0 -7 4 -11 8 -8 8 5 47 -33 40 -39 -2 -1 -13 -8 -25 -14 -17 -9
-23 -21 -23 -46 0 -28 -4 -35 -20 -35 -15 0 -20 7 -20 25 l0 24 -37 -24 c-38
-26 -55 -26 -33 0 15 17 5 69 -11 59 -8 -4 -7 -9 2 -15 11 -6 8 -14 -14 -37
-15 -15 -27 -33 -27 -39 0 -6 -6 -14 -12 -16 -23 -9 21 -7 95 4 83 13 101 23
93 55 -5 17 -1 26 13 34 16 8 23 5 40 -16 12 -15 21 -35 21 -45 0 -11 5 -19
10 -19 6 0 10 12 10 26 0 21 4 24 20 19 36 -11 22 15 -47 86 -63 66 -83 80
-83 60z"/>
<path d="M1105 1053 c8 -28 14 -63 13 -78 -3 -33 -45 -65 -91 -70 -60 -6 -272
-45 -301 -55 -16 -5 -79 -40 -141 -76 -101 -59 -185 -100 -308 -151 -52 -21
-40 -28 14 -8 51 19 115 44 144 55 48 20 134 62 180 90 89 54 125 71 136 65 5
-4 16 -2 23 4 7 6 41 15 76 20 60 8 62 7 42 -8 -67 -50 -68 -51 -47 -43 11 4
41 20 67 35 25 15 76 36 112 47 68 19 126 53 126 73 0 17 -41 131 -51 142 -5
5 -2 -14 6 -42z"/>
<path d="M1905 948 c-4 -24 -11 -51 -17 -60 -5 -11 -5 -18 1 -18 10 0 36 108
28 116 -3 3 -8 -14 -12 -38z"/>
<path d="M610 930 c0 -5 -6 -10 -13 -10 -7 0 -31 -19 -52 -42 l-40 -41 37 29
c21 16 38 32 38 37 0 4 9 7 19 7 10 0 21 7 25 15 3 8 1 15 -4 15 -6 0 -10 -4
-10 -10z"/>
<path d="M1596 928 c3 -4 -11 -8 -30 -8 -35 0 -151 -38 -143 -47 3 -2 30 3 61
12 54 16 62 16 154 -4 53 -11 123 -25 155 -30 32 -6 72 -20 89 -32 19 -14 28
-17 24 -8 -3 8 -9 21 -12 30 -4 11 -38 23 -115 39 -60 13 -107 25 -105 27 2 3
32 -1 65 -8 34 -6 64 -10 67 -7 8 9 -143 31 -157 23 -7 -5 -10 -4 -6 2 4 6 -5
13 -23 15 -16 2 -27 1 -24 -4z"/>
<path d="M1130 849 c-19 -41 -75 -197 -125 -347 -50 -150 -94 -270 -97 -267
-3 4 -6 0 -5 -7 1 -32 -4 -49 -13 -43 -6 4 -7 -1 -3 -11 4 -11 2 -15 -4 -11
-6 4 -14 0 -17 -9 -3 -8 -2 -12 4 -9 14 9 13 1 -7 -40 -9 -19 -21 -35 -25 -35
-5 0 -4 10 2 23 10 19 9 19 -9 -3 -18 -24 -24 -25 -118 -24 -54 0 -106 4 -115
8 -11 5 -20 1 -27 -12 -10 -18 -6 -19 107 -16 64 2 169 3 232 3 63 -1 179 0
258 0 136 1 142 1 142 -18 0 -19 -8 -21 -132 -24 l-133 -3 141 -2 c156 -2 171
3 137 54 l-16 26 -126 -6 c-154 -6 -245 3 -247 24 -3 34 -5 34 -20 0 -13 -30
-17 -33 -25 -18 -7 12 -2 35 17 80 14 35 66 182 114 328 81 244 138 392 139
364 1 -6 -19 -69 -43 -140 -24 -71 -74 -223 -111 -339 -37 -116 -70 -217 -73
-225 -3 -10 -2 -12 5 -5 9 9 62 158 141 395 3 8 6 22 8 30 2 8 7 23 13 35 16
35 24 59 27 83 2 13 10 35 18 48 9 13 16 30 16 38 0 18 27 29 34 13 9 -21 -7
67 -19 102 l-11 33 -34 -73z"/>
<path d="M2915 862 c-10 -15 -48 -55 -83 -89 -70 -68 -75 -82 -11 -31 39 31
124 136 117 143 -2 2 -12 -8 -23 -23z"/>
<path d="M1309 818 c-83 -45 -101 -58 -77 -58 9 0 19 -8 22 -17 6 -20 45 -225
72 -379 13 -71 22 -100 30 -97 7 3 20 -10 30 -29 9 -18 20 -35 23 -38 4 -3 28
-49 54 -102 27 -54 52 -98 56 -98 5 0 -33 80 -84 179 -96 184 -109 216 -120
311 -5 49 -27 193 -40 273 -3 17 -1 26 5 22 6 -3 10 -1 10 5 0 6 12 16 26 22
24 11 29 8 87 -53 111 -115 423 -382 486 -416 57 -30 66 -32 129 -26 37 3 70
9 74 12 13 12 -36 93 -72 120 -34 26 -34 26 -18 3 9 -13 26 -30 37 -38 36 -26
23 -34 -51 -34 -53 0 -80 5 -100 18 -32 21 -242 200 -323 276 -32 31 -62 56
-65 56 -12 1 -59 48 -87 87 l-30 41 -74 -40z m438 -317 c29 -24 54 -50 57 -58
6 -14 -209 170 -221 190 -6 11 37 -24 164 -132z"/>
<path d="M1297 736 c-16 -40 77 -290 167 -451 51 -90 126 -200 168 -246 18
-19 27 -27 19 -17 -8 10 -12 21 -9 24 3 3 15 -6 26 -20 11 -15 28 -26 38 -26
16 0 16 1 3 12 -77 63 -233 330 -322 548 -65 160 -83 195 -90 176z m91 -206
c58 -138 131 -279 198 -386 53 -84 68 -122 27 -66 -65 88 -130 194 -165 270
-22 48 -53 115 -69 149 -28 62 -79 209 -79 228 1 5 10 -12 22 -40 11 -27 41
-97 66 -155z"/>
<path d="M1535 735 c16 -9 37 -23 46 -31 8 -8 27 -14 41 -14 25 0 50 -31 30
-38 -5 -1 16 -30 46 -63 30 -32 57 -57 60 -54 3 2 27 -16 54 -40 28 -25 54
-42 59 -39 5 3 9 21 9 40 0 20 5 45 11 56 8 15 8 19 0 14 -6 -4 -11 -2 -11 3
0 6 -13 32 -29 57 -31 50 -46 46 -35 -11 5 -26 2 -36 -9 -41 -19 -7 -31 0 -86
48 -39 33 -41 38 -29 57 8 14 18 19 28 14 8 -4 42 -7 75 -8 69 -1 108 -12 99
-27 -4 -6 3 -5 16 2 12 6 23 10 25 8 2 -2 -1 -25 -7 -52 -9 -44 -8 -50 11 -70
15 -14 20 -16 16 -5 -3 9 1 21 9 28 14 12 14 16 1 34 -20 28 -19 43 1 26 10
-8 7 3 -9 31 -14 25 -31 48 -38 51 -8 4 -86 12 -174 19 -88 6 -178 14 -200 17
l-40 4 30 -16z m329 -187 c-4 -7 -14 -23 -22 -36 l-15 -23 -29 28 c-26 25 -27
28 -11 35 32 12 85 9 77 -4z"/>
<path d="M2981 707 c-6 -8 -18 -31 -26 -53 -14 -35 -14 -37 0 -20 8 11 15 26
15 33 0 7 7 13 15 13 8 0 15 9 15 20 0 23 -4 25 -19 7z"/>
<path d="M2727 653 c-21 -19 -37 -37 -35 -39 2 -2 21 12 42 32 21 20 36 37 34
39 -2 2 -20 -12 -41 -32z"/>
<path d="M2240 555 c58 -116 58 -127 2 -244 -23 -50 -37 -69 -42 -60 -8 15
-26 121 -35 203 -3 27 -8 52 -11 55 -8 7 3 -129 15 -204 11 -61 7 -86 -16
-103 -46 -32 -172 -133 -181 -144 -5 -7 -13 -24 -17 -38 -7 -21 1 -17 46 25
30 28 89 77 131 109 63 49 84 72 112 125 18 36 39 90 45 119 11 52 10 56 -28
135 -21 45 -46 91 -54 102 -9 11 6 -25 33 -80z"/>
<path d="M2643 589 c-18 -12 -33 -25 -33 -30 0 -5 -21 -22 -47 -39 -27 -16
-45 -30 -40 -30 12 0 78 45 122 85 45 40 45 44 -2 14z"/>
<path d="M1906 535 c4 -11 8 -37 9 -57 1 -44 0 -44 47 -51 l36 -5 -25 36 c-14
20 -29 36 -34 35 -5 -2 -9 3 -9 10 0 7 -7 22 -16 33 -15 19 -16 19 -8 -1z"/>
<path d="M2849 492 c-13 -15 -31 -36 -39 -47 -15 -19 -14 -19 12 0 15 11 28
23 28 27 0 4 7 14 16 23 9 9 14 18 12 20 -3 3 -16 -7 -29 -23z"/>
<path d="M2499 473 c-8 -16 -85 -70 -110 -76 -24 -6 -79 -71 -79 -93 0 -5 9 5
21 23 11 17 32 39 46 48 25 17 27 17 40 -1 12 -17 13 -17 13 2 0 10 19 36 42
56 24 20 40 39 37 43 -4 3 -9 3 -10 -2z"/>
<path d="M394 352 c-12 -9 -31 -24 -44 -32 -80 -55 -151 -110 -140 -110 18 0
220 141 220 154 0 11 -14 6 -36 -12z"/>
<path d="M400 258 c-28 -51 -58 -103 -67 -116 -30 -42 2 -21 45 31 23 28 42
61 42 73 0 13 6 27 13 31 18 12 38 61 27 68 -5 3 -32 -36 -60 -87z"/>
<path d="M2610 237 c-15 -25 -23 -140 -9 -131 5 3 9 31 9 63 0 31 5 62 12 69
6 6 10 14 7 16 -3 3 -11 -5 -19 -17z"/>
<path d="M458 161 c-43 -55 -47 -66 -19 -52 19 11 76 101 63 101 -4 -1 -24
-23 -44 -49z"/>
<path d="M2514 113 c-31 -49 -62 -94 -67 -100 -5 -7 -6 -13 -1 -13 5 0 32 34
59 74 28 41 53 72 56 70 4 -2 9 10 11 26 3 17 4 30 2 30 -1 0 -28 -39 -60 -87z"/>
<path d="M1361 124 c-2 -23 22 -124 29 -124 5 0 2 26 -6 58 -18 68 -22 81 -23
66z"/>
<path d="M2140 76 c-17 -25 -26 -46 -19 -46 6 0 9 -7 5 -15 -3 -8 -3 -15 0
-15 7 0 56 112 50 117 -2 2 -18 -16 -36 -41z"/>
<path d="M471 64 c-9 -7 -28 -14 -41 -17 -14 -2 8 -5 48 -6 67 -1 71 0 61 17
-13 20 -43 23 -68 6z"/>
<path d="M20 59 c-18 -5 -10 -7 28 -8 28 -1 52 1 52 3 0 8 -56 12 -80 5z"/>
<path d="M938 33 c18 -2 45 -2 60 0 15 2 0 4 -33 4 -33 0 -45 -2 -27 -4z"/>
<path d="M48 23 c29 -2 74 -2 100 0 26 2 2 3 -53 3 -55 0 -76 -1 -47 -3z"/>
<path d="M98 3 c28 -2 76 -2 105 0 28 2 5 3 -53 3 -58 0 -81 -1 -52 -3z"/>
<path d="M738 3 c28 -2 76 -2 105 0 28 2 5 3 -53 3 -58 0 -81 -1 -52 -3z"/>
</g>
</svg>
