<?xml version="1.0" standalone="no"?>
<!DOCTYPE svg PUBLIC "-//W3C//DTD SVG 20010904//EN"
 "http://www.w3.org/TR/2001/REC-SVG-20010904/DTD/svg10.dtd">
<svg version="1.0" xmlns="http://www.w3.org/2000/svg"
 width="300.000000pt" height="438.000000pt" viewBox="0 0 300.000000 438.000000"
 preserveAspectRatio="xMidYMid meet">
<metadata>
Created by potrace 1.10, written by Peter Selinger 2001-2011
</metadata>
<g transform="translate(0.000000,438.000000) scale(0.100000,-0.100000)"
fill="#000000" stroke="none">
<path d="M923 4373 c214 -2 560 -2 770 0 210 1 36 2 -388 2 -424 0 -595 -1
-382 -2z"/>
<path d="M2521 4375 c8 -7 189 -8 196 -1 4 3 -40 6 -97 6 -57 0 -101 -2 -99
-5z"/>
<path d="M2824 4371 c16 -6 11 -10 -26 -19 -26 -7 -56 -12 -66 -12 -23 0 -154
-59 -132 -59 8 -1 39 11 69 24 69 33 85 27 41 -14 l-35 -32 30 11 c17 6 46 23
65 38 69 54 86 61 161 65 64 3 60 3 -26 4 -55 1 -91 -2 -81 -6z"/>
<path d="M2885 4330 c-16 -11 -37 -20 -46 -20 -9 0 -24 -9 -34 -20 -10 -12
-37 -29 -59 -40 -23 -11 -54 -30 -69 -42 l-28 -23 -42 23 c-67 35 -78 25 -13
-12 80 -46 123 -54 149 -27 12 11 17 24 13 28 -4 4 -12 0 -17 -10 -12 -21 -29
-22 -29 -2 0 8 6 15 13 15 8 0 7 3 -3 10 -23 14 35 34 97 32 50 -1 53 1 64 31
6 18 22 40 36 51 25 18 25 18 19 -2 -4 -11 -2 -23 4 -27 14 -9 16 -7 24 28 6
24 4 27 -21 27 -16 0 -41 -9 -58 -20z"/>
<path d="M1115 4311 c-6 -10 104 -65 113 -56 9 9 -21 36 -56 51 -40 16 -49 17
-57 5z"/>
<path d="M1065 4282 c-2 -2 12 -18 31 -34 41 -37 134 -54 134 -25 0 12 -9 15
-37 12 -41 -4 -83 16 -83 40 0 12 -34 18 -45 7z"/>
<path d="M956 4265 c6 -15 35 -35 50 -35 4 0 -3 11 -16 25 -26 28 -42 33 -34
10z"/>
<path d="M2965 4260 c-3 -5 -14 -10 -23 -10 -24 -1 -69 -37 -58 -47 5 -4 11
-2 13 5 3 6 17 12 32 12 25 0 71 28 71 44 0 10 -28 7 -35 -4z"/>
<path d="M287 4217 c-15 -23 -15 -26 6 -43 51 -43 64 -46 93 -18 l26 27 -24
22 c-12 13 -37 26 -54 30 -26 5 -34 2 -47 -18z m63 -12 c34 -17 38 -30 14 -39
-18 -7 -40 7 -55 36 -12 23 1 24 41 3z"/>
<path d="M2141 4223 c13 -15 68 -43 85 -43 10 0 -79 60 -90 60 -5 0 -2 -7 5
-17z"/>
<path d="M576 4205 c14 -14 29 -23 34 -20 4 3 10 2 12 -2 6 -15 68 -42 73 -32
4 5 2 9 -3 9 -6 0 -33 16 -62 35 -61 41 -91 47 -54 10z"/>
<path d="M2081 4210 c-11 -6 -5 -12 24 -24 21 -9 43 -24 50 -33 8 -11 14 -12
19 -5 4 6 -4 16 -16 23 -13 6 -32 20 -43 30 -13 12 -25 15 -34 9z"/>
<path d="M1982 4183 c-13 -3 -21 -10 -19 -16 3 -7 10 -11 17 -9 7 1 19 -3 28
-10 10 -9 13 -9 9 -1 -4 6 -3 14 3 18 11 7 4 26 -8 24 -4 -1 -17 -4 -30 -6z"/>
<path d="M1126 4171 c-7 -11 52 -33 65 -25 5 3 9 13 8 22 0 11 -3 12 -6 5 -6
-15 -33 -17 -33 -3 0 12 -27 13 -34 1z"/>
<path d="M908 4158 c6 -7 24 -21 41 -31 27 -16 31 -16 31 -3 0 9 -13 22 -30
31 -36 19 -57 20 -42 3z"/>
<path d="M2862 4145 c-9 -19 -17 -22 -51 -19 -31 3 -41 0 -41 -11 0 -20 88
-21 96 -2 5 15 55 17 52 2 -2 -5 -12 -11 -22 -12 -30 -5 -31 -12 -5 -22 14 -5
28 -5 34 0 14 14 25 11 25 -7 0 -8 5 -12 11 -8 8 4 8 9 0 17 -18 18 -13 27 14
27 18 0 25 5 25 20 0 17 -3 19 -19 10 -28 -14 -31 -13 -31 13 0 17 -2 19 -10
7 -7 -12 -15 -13 -39 -4 -26 10 -30 9 -39 -11z"/>
<path d="M1352 4136 c2 -22 4 -23 18 -12 8 7 22 16 30 19 12 4 12 6 -2 6 -9 1
-23 4 -32 7 -12 5 -15 0 -14 -20z"/>
<path d="M2073 4125 c-22 -25 6 -83 41 -85 5 0 1 -10 -10 -22 -17 -21 -16 -21
6 1 15 13 20 25 14 28 -27 10 -47 31 -39 42 5 9 13 7 31 -10 l24 -22 0 31 c0
44 -41 67 -67 37z"/>
<path d="M2568 4120 c24 -10 30 -30 9 -30 -8 0 -24 -12 -38 -26 -13 -14 -35
-31 -49 -36 -32 -13 -9 -23 28 -11 15 4 59 5 97 2 39 -3 63 -7 55 -8 -8 -1
-30 -4 -49 -7 -40 -5 -46 -9 -36 -23 9 -15 45 -13 79 4 15 8 33 15 38 15 5 0
21 9 34 19 30 23 16 35 -28 26 -84 -19 -158 -11 -158 16 0 7 29 10 85 8 47 -2
85 -1 85 3 0 13 -22 20 -60 20 -24 -1 -45 6 -58 19 -12 10 -29 19 -39 18 -14
0 -13 -2 5 -9z"/>
<path d="M426 4107 c3 -10 -2 -18 -15 -22 -26 -8 -35 -38 -19 -64 16 -26 38
-35 52 -21 5 5 23 10 39 10 36 0 32 21 -6 31 -16 4 -25 3 -21 -2 6 -11 -23
-11 -50 0 -14 5 -16 10 -7 15 6 4 18 5 26 3 7 -3 16 0 18 8 8 20 2 48 -11 53
-7 2 -10 -2 -6 -11z"/>
<path d="M819 4106 c7 -8 32 -20 56 -27 35 -10 44 -17 42 -34 -1 -14 5 -21 23
-23 20 -3 23 -1 13 9 -7 7 -13 21 -13 31 0 11 -11 22 -27 28 -16 6 -36 15 -45
20 -10 6 -27 10 -39 10 -17 0 -19 -3 -10 -14z"/>
<path d="M1740 4110 c0 -5 17 -10 38 -9 30 0 33 2 17 9 -28 12 -55 12 -55 0z"/>
<path d="M1145 4100 c3 -5 17 -10 31 -10 13 0 24 5 24 10 0 6 -14 10 -31 10
-17 0 -28 -4 -24 -10z"/>
<path d="M530 4075 c0 -8 7 -15 15 -15 9 0 18 -7 21 -15 4 -8 13 -15 22 -15
11 0 8 8 -13 30 -32 33 -45 38 -45 15z"/>
<path d="M1609 3994 c59 -61 70 -78 61 -90 -16 -19 -28 -10 -94 69 -60 70 -70
78 -59 50 23 -63 103 -144 135 -137 50 12 53 10 62 -33 7 -29 15 -43 26 -43 8
0 26 -7 38 -16 13 -9 26 -13 30 -9 7 6 -5 18 -63 58 -24 17 -25 20 -9 31 15
11 13 15 -18 34 -48 30 -112 113 -96 124 9 5 8 8 -5 8 -10 0 -20 6 -23 13 -2
7 -16 14 -31 15 -23 2 -18 -6 46 -74z"/>
<path d="M2787 4053 c-10 -3 -16 -11 -14 -18 3 -7 1 -17 -5 -23 -17 -17 12
-25 31 -8 10 9 25 16 34 16 24 0 107 23 107 30 0 8 -86 4 -101 -6 -7 -4 -14
-3 -17 4 -4 12 -5 13 -35 5z"/>
<path d="M2966 4049 c-15 -9 -16 -13 -5 -20 23 -15 39 -10 39 11 0 23 -7 24
-34 9z"/>
<path d="M1275 4040 c-8 -13 29 -50 50 -49 6 0 3 5 -6 12 -8 7 -20 20 -26 31
-8 14 -12 15 -18 6z"/>
<path d="M837 4020 c-7 -28 15 -52 44 -48 l25 3 -32 32 c-29 28 -33 30 -37 13z"/>
<path d="M967 3991 c-43 -21 -39 -31 14 -31 36 0 57 19 43 41 -7 12 -12 11
-57 -10z"/>
<path d="M2920 3984 c-8 -21 -16 -25 -40 -22 -18 2 -34 -3 -42 -13 -16 -20
-103 -53 -116 -45 -6 3 -29 -3 -52 -13 -25 -11 -37 -21 -28 -24 7 -3 2 -6 -12
-6 -36 0 -64 -5 -70 -12 -3 -4 -21 -14 -40 -22 -19 -9 -27 -16 -18 -16 28 -2
199 47 224 64 30 19 64 20 64 0 0 -9 -10 -15 -26 -15 -16 0 -28 -7 -31 -18 -2
-9 -21 -26 -41 -37 -20 -11 -38 -28 -40 -38 -3 -14 7 -10 47 18 53 38 60 37
39 -7 -9 -19 -37 -38 -93 -64 -60 -28 -74 -38 -58 -41 12 -2 47 10 78 27 38
21 67 30 88 28 29 -3 32 -6 32 -38 0 -58 31 -52 103 20 34 33 62 67 62 74 0 7
11 30 25 50 31 46 34 71 6 56 -11 -5 -32 -10 -47 -10 -22 0 -24 -2 -14 -15 15
-18 5 -35 -20 -35 -10 0 -22 -4 -25 -10 -3 -5 -14 -10 -23 -10 -9 0 -33 -17
-54 -37 -51 -50 -59 -35 -14 27 34 47 35 51 14 45 -23 -8 -23 -7 -4 14 11 11
28 21 38 21 16 0 17 -3 7 -22 -11 -23 -11 -23 15 1 14 14 26 30 26 38 0 7 8
13 18 13 19 0 42 18 42 33 0 5 -8 6 -17 3 -10 -4 -5 4 11 17 17 14 26 29 22
35 -12 19 -26 14 -36 -14z m-50 -62 c0 -14 -23 -32 -42 -32 -21 0 -23 11 -6
28 13 13 48 16 48 4z m54 -136 c-8 -26 -34 -48 -51 -42 -7 3 -13 -1 -13 -10 0
-17 -44 -64 -60 -64 -7 0 -4 12 7 28 10 15 23 36 30 47 6 11 16 19 22 18 6 -2
11 2 11 9 0 19 31 47 46 41 10 -3 12 -13 8 -27z"/>
<path d="M2475 3976 c-17 -7 -37 -21 -45 -31 -8 -10 -10 -16 -5 -14 6 3 28 13
50 22 86 38 83 36 55 36 -14 0 -39 -6 -55 -13z"/>
<path d="M1704 3969 c-5 -8 20 -19 44 -19 10 0 39 -12 65 -26 47 -25 122 -40
111 -23 -3 5 -11 9 -17 9 -7 0 -38 13 -70 30 -31 16 -59 30 -62 30 -3 0 -6 1
-7 1 -10 5 -60 4 -64 -2z"/>
<path d="M274 3956 c-3 -8 -56 -58 -116 -110 -101 -87 -138 -111 -138 -88 0 8
171 151 219 184 15 10 20 18 12 18 -27 0 -117 -60 -186 -124 -60 -55 -68 -67
-59 -83 30 -48 132 10 228 131 l23 30 30 -22 c18 -13 34 -17 39 -12 5 5 26 10
47 12 30 2 37 6 37 23 0 11 -12 28 -25 38 -14 10 -25 13 -25 8 0 -7 -8 -7 -26
-1 -35 14 -54 12 -60 -4z m84 -21 c65 -10 50 -24 -20 -18 -35 3 -65 7 -67 9
-9 8 13 24 27 20 10 -2 36 -8 60 -11z"/>
<path d="M484 3954 c3 -9 6 -17 6 -20 0 -2 14 -1 30 3 22 4 34 1 43 -10 7 -9
26 -17 42 -17 79 0 80 1 65 10 -8 5 -26 10 -40 10 -14 0 -43 9 -65 20 -51 24
-90 26 -81 4z"/>
<path d="M761 3947 c6 -10 17 -21 25 -24 7 -3 11 -9 8 -14 -3 -5 1 -6 9 -3 8
3 18 1 22 -5 3 -6 13 -11 21 -11 20 0 18 45 -3 61 -16 13 -17 12 -4 -4 8 -9
11 -20 8 -24 -7 -7 -57 24 -57 35 0 4 -9 8 -19 8 -16 0 -18 -4 -10 -19z"/>
<path d="M1037 3938 c-12 -20 -22 -23 -65 -21 -28 1 -54 -2 -57 -7 -4 -6 -1
-10 5 -10 6 0 9 -4 5 -9 -6 -11 67 -56 108 -65 15 -4 27 -2 27 3 0 13 62 20
83 9 10 -5 17 -12 14 -14 -11 -12 112 -117 153 -132 14 -4 39 -5 55 -1 17 3
23 7 15 8 -12 1 -15 10 -12 41 l4 40 -48 -15 c-27 -8 -52 -15 -56 -15 -15 0
-86 73 -82 85 6 14 -36 25 -93 25 -32 0 -34 2 -22 17 13 17 13 17 -13 0 -30
-19 -73 -23 -83 -7 -8 12 53 50 81 50 28 0 36 10 19 26 -18 18 -20 18 -38 -8z"/>
<path d="M1259 3946 c14 -17 59 -27 67 -14 4 5 1 15 -5 21 -9 9 -14 8 -21 -3
-7 -10 -10 -11 -10 -2 0 6 -10 12 -21 12 -17 0 -19 -3 -10 -14z"/>
<path d="M2485 3940 c-13 -6 7 -8 60 -8 68 0 74 1 40 9 -50 10 -75 10 -100 -1z"/>
<path d="M2660 3943 c-8 -2 -24 -9 -35 -14 -11 -5 -33 -14 -50 -21 -26 -10
-27 -12 -10 -15 19 -3 135 42 135 53 0 5 -20 4 -40 -3z"/>
<path d="M418 3876 c-16 -37 13 -96 48 -96 19 0 22 3 14 13 -38 45 -50 61 -50
69 0 13 12 10 45 -12 17 -11 38 -20 47 -20 10 0 50 -11 90 -24 97 -31 128 -38
128 -29 0 5 -34 19 -75 32 -42 14 -81 31 -87 38 -6 7 -18 13 -27 13 -10 0 -36
9 -59 20 -53 26 -60 25 -74 -4z"/>
<path d="M2435 3891 c-17 -7 -15 -9 13 -13 19 -3 40 1 50 8 15 12 14 13 -13
13 -16 0 -39 -4 -50 -8z"/>
<path d="M1296 3878 c-19 -11 -12 -30 9 -22 7 3 23 -4 34 -15 22 -22 41 -27
41 -11 0 6 -5 10 -10 10 -6 0 -21 11 -34 23 -17 18 -28 21 -40 15z"/>
<path d="M2290 3844 c0 -8 -4 -14 -10 -14 -5 0 -10 -8 -10 -17 0 -15 3 -15 18
4 17 22 47 25 60 7 4 -5 26 -16 50 -24 29 -9 42 -19 42 -32 0 -19 15 -24 25
-8 3 6 1 10 -4 10 -6 0 -11 7 -11 15 0 14 -71 55 -97 55 -7 0 -13 3 -13 8 0 4
-11 8 -25 8 -15 1 -25 -3 -25 -12z"/>
<path d="M1820 3841 c0 -6 11 -18 24 -26 23 -15 32 -15 104 1 l27 7 -30 9
c-52 16 -125 21 -125 9z"/>
<path d="M897 3834 c-13 -14 -7 -24 21 -35 15 -6 48 -24 75 -41 26 -16 53 -28
60 -25 7 3 21 -1 32 -9 22 -17 55 -18 55 -3 0 5 -3 8 -7 6 -16 -9 -53 13 -53
31 0 14 9 21 30 26 17 3 30 10 30 16 0 13 -27 13 -35 0 -3 -5 -12 -7 -19 -4
-8 3 -17 1 -21 -5 -9 -16 -45 -13 -90 9 -22 11 -45 19 -52 20 -6 0 -13 5 -15
11 -2 5 -7 7 -11 3z"/>
<path d="M2625 3814 c-22 -13 -51 -24 -65 -24 -14 0 -31 -4 -39 -9 -9 -6 -5
-8 13 -8 37 0 42 -9 21 -33 -27 -30 -6 -24 29 8 29 25 29 25 8 1 -32 -37 -27
-48 8 -14 17 16 30 34 30 41 0 6 9 23 21 38 11 14 19 26 17 25 -2 0 -21 -12
-43 -25z"/>
<path d="M264 3795 c20 -14 39 -25 43 -25 3 0 14 -11 25 -25 11 -14 26 -25 34
-25 22 0 17 15 -11 30 -14 7 -25 19 -25 25 0 13 -62 45 -87 45 -9 0 0 -11 21
-25z"/>
<path d="M520 3785 c0 -3 27 -33 60 -66 33 -33 58 -64 55 -69 -13 -21 -196 42
-208 72 -3 7 -5 -4 -4 -24 2 -36 4 -38 34 -38 17 0 43 -4 57 -9 13 -6 47 -11
75 -12 34 -2 57 -9 68 -21 9 -10 32 -22 52 -28 47 -13 51 -13 51 5 0 9 -9 15
-25 15 -14 0 -30 9 -37 19 -9 14 -16 17 -24 10 -8 -7 -14 -6 -19 1 -9 14 3 30
23 30 18 0 -39 46 -69 55 -10 3 -21 14 -24 24 -6 20 -65 53 -65 36z"/>
<path d="M2277 3754 c6 -17 76 -44 115 -44 44 0 29 10 -51 35 -49 16 -68 19
-64 9z"/>
<path d="M920 3756 c0 -5 10 -18 23 -30 40 -39 76 -84 70 -89 -2 -3 5 -10 16
-16 18 -10 20 -9 14 6 -8 21 -122 141 -123 129z"/>
<path d="M2000 3734 c0 -11 5 -14 16 -10 8 3 24 1 35 -4 24 -13 25 -2 2 16
-25 18 -53 17 -53 -2z"/>
<path d="M1850 3720 c-20 -16 -22 -20 -7 -20 9 0 17 -5 17 -12 0 -21 13 1 16
27 1 14 2 25 1 25 -1 0 -13 -9 -27 -20z"/>
<path d="M714 3704 c21 -44 40 -57 75 -49 34 7 131 -36 131 -59 0 -11 5 -12
25 -3 28 13 33 27 10 27 -8 0 -15 4 -15 10 0 5 7 7 15 4 8 -4 15 -2 15 3 0 12
-75 37 -87 30 -6 -4 -36 1 -67 11 -46 14 -56 20 -52 35 3 11 0 16 -7 14 -7 -3
-11 -10 -9 -16 3 -17 -19 -13 -35 7 -11 13 -11 11 1 -14z"/>
<path d="M300 3702 c0 -16 19 -52 37 -70 7 -7 13 -22 13 -32 0 -20 23 -32 45
-24 25 10 16 27 -28 59 -23 17 -47 42 -54 55 -7 14 -13 19 -13 12z"/>
<path d="M2964 3655 c-9 -14 -14 -28 -11 -32 7 -6 46 36 47 50 0 16 -20 6 -36
-18z"/>
<path d="M1365 3638 c11 -6 26 -17 32 -26 7 -9 16 -13 20 -9 11 11 -28 47 -51
47 -21 -1 -21 -1 -1 -12z"/>
<path d="M1144 3621 c-2 -2 -4 -10 -4 -16 0 -8 19 -11 55 -11 30 1 55 4 55 9
0 4 -5 7 -11 7 -5 0 -7 4 -4 10 6 9 -81 11 -91 1z"/>
<path d="M1306 3611 c-7 -10 11 -26 39 -33 11 -3 28 -9 38 -13 12 -5 17 -2 17
9 0 9 -7 16 -15 16 -9 0 -29 7 -45 15 -16 8 -31 11 -34 6z"/>
<path d="M2385 3608 c11 -6 30 -20 43 -31 28 -26 29 -15 0 18 -12 14 -31 25
-42 25 -21 -1 -21 -1 -1 -12z"/>
<path d="M2641 3613 c3 -20 -2 -34 -11 -28 -5 3 -10 2 -10 -4 0 -5 -3 -17 -6
-26 -6 -15 -4 -15 15 -4 11 8 21 21 21 29 0 9 5 21 12 28 9 9 8 12 -5 12 -9 0
-16 -3 -16 -7z"/>
<path d="M1457 3581 c-3 -14 0 -21 10 -21 8 0 11 5 8 10 -10 16 42 12 75 -5
17 -9 30 -20 30 -25 0 -13 -55 -13 -98 -1 -37 11 -43 0 -9 -17 43 -21 94 -22
112 -2 15 16 14 20 -7 45 -17 20 -36 28 -69 32 -41 5 -47 3 -52 -16z"/>
<path d="M2147 3571 c-5 -21 -16 -34 -42 -46 -33 -16 -39 -35 -12 -35 26 0 85
86 70 101 -7 7 -12 0 -16 -20z"/>
<path d="M2206 3535 c-40 -46 -46 -58 -35 -71 7 -9 20 -12 33 -8 29 9 84 70
76 84 -4 7 -23 -7 -49 -35 -24 -26 -45 -44 -49 -41 -3 4 13 25 35 49 22 23 40
50 40 60 0 9 -1 17 -2 17 -1 0 -23 -25 -49 -55z"/>
<path d="M327 3558 c12 -13 37 -51 57 -84 24 -42 46 -67 70 -78 59 -28 59 -18
1 35 -30 29 -60 60 -65 70 -10 17 -8 17 27 3 21 -9 46 -23 56 -32 9 -8 20 -12
24 -8 10 9 -4 20 -72 56 -33 18 -64 35 -70 40 -5 4 -19 10 -30 14 -19 7 -18 6
2 -16z"/>
<path d="M1070 3552 c0 -5 10 -17 22 -28 29 -26 81 -143 102 -229 10 -38 22
-76 29 -83 38 -46 187 -85 228 -59 16 10 15 13 -17 34 -19 13 -34 29 -34 36 0
7 -18 34 -40 61 -22 26 -40 52 -40 57 0 11 -109 84 -115 77 -3 -2 15 -19 40
-37 25 -18 45 -36 45 -40 0 -4 8 -16 18 -27 33 -37 73 -94 65 -94 -13 1 -39
24 -45 40 -3 10 -6 8 -10 -7 -3 -12 -3 -22 1 -21 3 1 17 -3 31 -9 14 -6 33
-14 43 -17 37 -12 5 -28 -45 -24 -40 4 -56 12 -89 44 -24 24 -43 54 -50 79
-19 76 -42 130 -81 187 -38 56 -58 77 -58 60z"/>
<path d="M2360 3540 c0 -10 8 -24 18 -29 13 -7 23 -4 39 15 l21 24 -23 -6
c-12 -3 -26 -1 -29 5 -11 18 -26 13 -26 -9z"/>
<path d="M297 3518 c-3 -18 -6 -80 -5 -138 0 -58 -1 -132 -3 -165 -2 -33 1
-60 7 -60 5 0 9 28 9 63 0 64 3 69 36 52 28 -16 23 5 -6 24 -37 24 -33 56 6
56 17 0 28 4 24 10 -3 6 -15 10 -26 10 -17 0 -19 8 -19 78 0 85 -14 126 -23
70z"/>
<path d="M1288 3524 c-15 -14 5 -24 48 -24 37 0 46 -4 54 -22 8 -21 9 -20 9 9
1 24 -3 32 -16 31 -10 -1 -34 2 -53 6 -19 4 -38 4 -42 0z"/>
<path d="M2631 3478 c-17 -18 -31 -37 -31 -42 0 -5 9 2 19 16 16 19 27 24 50
20 19 -2 31 0 31 7 0 6 -5 11 -11 11 -5 0 -7 5 -4 10 15 24 -27 7 -54 -22z"/>
<path d="M2976 3451 c-11 -12 -31 -21 -48 -21 -34 0 -94 -37 -105 -65 -24 -58
5 -92 46 -54 11 10 29 19 40 19 12 0 26 9 33 20 7 11 23 20 35 20 19 0 23 5
23 33 l0 32 -44 -50 c-24 -27 -47 -48 -50 -45 -3 3 17 30 45 60 27 29 48 58
46 63 -1 5 -11 -1 -21 -12z m-56 -49 c0 -14 -79 -86 -87 -79 -4 4 11 25 32 47
38 39 55 49 55 32z"/>
<path d="M1915 3440 c-3 -11 -11 -20 -16 -20 -5 0 -19 -10 -30 -21 l-21 -21
-50 23 c-41 19 -51 21 -58 9 -7 -12 -15 -12 -43 -2 -46 17 -138 15 -163 -3
-19 -13 -100 -45 -116 -45 -4 0 -10 20 -14 45 -9 61 -16 50 -19 -29 l-3 -64
67 25 c151 58 212 65 328 38 117 -28 154 -62 240 -220 24 -44 41 -69 37 -55
-4 14 -7 37 -6 52 0 19 -13 40 -45 73 -35 37 -42 49 -32 56 22 14 29 11 29
-13 0 -17 3 -19 12 -10 14 14 -6 42 -32 42 -25 0 -40 22 -33 49 5 21 4 22 -16
10 -15 -10 -26 -11 -38 -3 -22 14 -28 34 -10 34 8 0 18 7 21 16 3 8 9 13 13
11 5 -3 9 6 9 19 2 29 -2 31 -11 4z"/>
<path d="M956 3411 c-6 -9 63 -38 103 -43 13 -2 26 2 28 8 3 8 -15 15 -46 19
-28 4 -53 11 -57 16 -7 11 -21 12 -28 0z"/>
<path d="M2002 3388 c-18 -11 -32 -22 -32 -24 0 -11 41 -2 61 14 32 27 9 35
-29 10z"/>
<path d="M2621 3329 c-26 -33 -25 -41 6 -33 17 5 43 41 43 59 0 15 -28 0 -49
-26z"/>
<path d="M926 3330 c13 -25 105 -129 169 -192 63 -62 138 -108 177 -108 17 0
20 -2 9 -9 -11 -7 -9 -10 10 -13 19 -3 15 -6 -21 -16 l-45 -11 55 5 c47 4 52
3 35 -8 -25 -16 -144 -15 -205 2 -69 19 -152 51 -146 57 3 3 -31 23 -76 45
-99 48 -144 78 -129 88 15 8 4 37 -16 44 -23 9 -28 -1 -11 -21 9 -10 13 -24
11 -30 -3 -7 0 -13 6 -13 5 0 32 -21 59 -47 76 -73 109 -102 92 -78 -8 11 -22
26 -30 33 -21 19 -7 11 87 -46 62 -37 96 -51 140 -56 96 -12 109 -26 21 -23
-100 3 -74 -13 30 -19 42 -2 71 -1 64 2 -25 12 40 36 79 29 36 -6 36 -6 48 39
6 25 11 47 11 49 0 2 -21 7 -46 11 -95 13 -160 61 -344 256 -23 25 -39 38 -34
30z"/>
<path d="M2182 3299 c-18 -17 -30 -35 -26 -40 3 -6 7 -9 8 -7 1 2 14 20 29 41
34 45 32 46 -11 6z"/>
<path d="M1663 3300 c-47 -28 -41 -34 10 -9 50 26 55 29 36 29 -8 0 -29 -9
-46 -20z"/>
<path d="M1795 3313 c-11 -2 -36 -10 -55 -18 -19 -8 -55 -20 -80 -26 -60 -17
-59 -16 -70 -18 -19 -2 -10 -21 9 -21 11 0 23 -4 26 -10 3 -5 14 -10 23 -10
13 0 13 2 -4 16 -17 14 -17 15 -1 10 10 -3 15 -2 12 3 -12 21 16 21 37 0 l23
-21 -25 6 c-23 6 -23 6 -5 -5 11 -7 43 -35 70 -64 35 -35 64 -55 95 -64 25 -7
64 -24 88 -37 43 -26 57 -17 22 13 -14 13 -20 30 -20 63 l-1 45 -14 -32 c-25
-58 -81 -53 -154 13 -34 30 -41 43 -41 74 0 24 7 43 20 55 20 18 20 18 4 -21
-17 -40 -10 -42 10 -2 9 17 22 24 52 26 51 4 93 -24 77 -52 -9 -16 -11 -16
-16 -2 -4 10 -17 15 -34 15 -24 -2 -25 -2 -5 -6 12 -2 22 -11 22 -19 0 -7 12
-17 27 -20 25 -7 25 -8 8 -15 -11 -4 -14 -8 -7 -8 28 -2 9 -19 -28 -25 -49 -8
-53 -26 -6 -26 80 0 106 123 34 161 -31 16 -70 26 -93 22z"/>
<path d="M1377 3289 c7 -9 36 -28 65 -44 35 -19 48 -23 39 -12 -23 29 6 19 41
-14 21 -20 29 -33 20 -36 -6 -3 -10 -9 -6 -14 3 -5 -7 -9 -23 -9 -21 0 -35
-10 -55 -38 -30 -43 -98 -201 -98 -229 0 -30 -36 -79 -76 -104 -22 -13 -44
-29 -49 -36 -12 -16 -96 -38 -177 -48 -32 -3 -61 -11 -64 -17 -4 -6 4 -8 22
-4 16 3 56 10 89 15 33 5 72 14 88 20 45 17 140 81 164 109 12 14 25 23 29 19
28 -27 -188 -152 -281 -162 -27 -3 -90 -14 -140 -25 -49 -11 -70 -17 -45 -14
25 3 81 9 125 15 154 18 212 39 292 106 l51 43 18 -47 c9 -27 21 -52 26 -57
13 -16 10 -23 -24 -63 -31 -35 -21 -33 27 8 19 16 21 16 39 -2 18 -17 17 -19
-29 -51 -25 -18 -58 -36 -73 -40 -15 -3 -66 -18 -114 -32 -47 -14 -121 -33
-163 -41 -109 -21 -185 -69 -185 -117 0 -7 9 1 20 19 29 48 59 62 172 82 57
10 138 32 181 49 42 16 77 27 77 23 0 -7 -131 -82 -225 -129 -61 -31 -106 -61
-92 -62 4 0 38 15 75 34 37 19 96 46 132 61 37 15 83 44 107 68 24 22 49 42
56 43 8 1 33 16 57 33 45 32 60 32 60 0 0 -10 6 -19 14 -19 34 0 22 -20 -29
-51 -30 -18 -53 -34 -51 -36 2 -2 25 6 51 17 41 18 46 18 34 4 -13 -16 -12
-16 8 -5 13 6 27 21 33 32 10 18 3 29 -52 87 -61 66 -78 95 -132 235 -23 60
-25 72 -13 95 11 23 18 27 51 25 26 -2 36 1 33 10 -2 6 -16 12 -30 12 l-26 -1
33 61 c24 44 44 66 75 83 35 20 44 22 59 11 15 -12 15 -12 0 7 -29 34 -20 40
12 9 16 -15 27 -32 24 -37 -3 -5 -2 -7 3 -6 4 2 19 -5 32 -14 l23 -16 -33 -18
c-51 -26 -89 -56 -89 -71 0 -7 2 -13 5 -13 7 0 118 82 126 93 3 4 11 1 18 -6
6 -8 33 -24 59 -35 64 -28 86 -53 78 -89 -4 -15 -7 -34 -8 -40 -1 -7 -5 -13
-10 -13 -4 0 -8 -5 -8 -11 0 -7 -26 -50 -57 -97 -72 -109 -132 -252 -105 -252
6 0 13 15 17 33 15 70 107 238 123 223 3 -3 0 -11 -5 -18 -7 -8 -7 -21 -2 -33
9 -18 9 -18 5 3 -2 12 0 22 4 22 13 0 43 87 35 101 -5 8 -4 10 3 5 8 -5 12 4
13 26 l1 33 8 -30 7 -30 12 30 c10 25 10 34 -5 59 l-17 29 38 -29 38 -28 -8
24 c-10 32 -26 44 -105 82 -36 17 -107 60 -157 95 -51 36 -93 61 -93 57 0 -5
-7 2 -16 14 -8 12 -12 27 -9 32 3 6 -4 10 -17 10 -20 1 -85 21 -143 45 -17 8
-18 6 -8 -6z"/>
<path d="M1153 3248 c14 -23 35 -49 48 -57 l24 -15 -21 24 c-12 14 -29 40 -40
58 -10 17 -22 32 -27 32 -5 0 2 -19 16 -42z"/>
<path d="M2202 3244 c-23 -19 -42 -40 -42 -44 0 -5 10 1 23 13 12 12 36 32 52
44 17 12 25 23 19 23 -6 0 -29 -16 -52 -36z"/>
<path d="M145 3233 c-11 -2 -26 -16 -32 -30 -16 -32 1 -64 48 -92 34 -21 60
-18 84 9 15 17 15 18 -9 16 -14 0 -26 -7 -26 -13 0 -20 -16 -15 -49 16 -47 44
-40 86 9 51 21 -15 33 -17 56 -10 16 4 22 9 13 9 -9 1 -22 8 -29 16 -7 8 -21
15 -32 15 -10 0 -16 5 -13 10 3 6 5 9 3 9 -2 -1 -12 -4 -23 -6z"/>
<path d="M1763 3221 c-4 -9 -8 -20 -11 -25 -3 -5 0 -6 7 -2 6 4 14 0 17 -8 3
-9 14 -16 23 -17 10 0 11 -2 4 -6 -7 -2 -13 -9 -13 -14 0 -5 9 -4 20 3 17 11
18 14 5 28 -8 9 -15 26 -15 37 0 24 -29 27 -37 4z"/>
<path d="M1070 3216 c0 -9 130 -96 142 -96 7 1 2 7 -12 15 -15 9 -19 15 -10
15 12 0 11 3 -3 11 -9 5 -21 8 -26 4 -5 -3 -12 -1 -15 4 -6 10 -76 53 -76 47z"/>
<path d="M1260 3146 c14 -14 39 -28 55 -32 37 -8 33 -5 -30 30 l-50 27 25 -25z"/>
<path d="M316 3152 c-14 -23 131 -122 180 -122 26 0 14 16 -21 29 -30 10 -73
39 -142 93 -7 5 -14 5 -17 0z"/>
<path d="M1013 3139 c21 -11 43 -17 49 -13 6 4 8 3 4 -4 -3 -5 13 -25 36 -42
l43 -32 -33 31 c-18 17 -27 31 -21 31 20 0 -21 31 -53 41 -54 15 -66 9 -25
-12z"/>
<path d="M2570 3140 c-3 -21 1 -94 6 -99 9 -10 10 7 4 59 -4 30 -8 48 -10 40z"/>
<path d="M49 3118 c-13 -43 -23 -204 -12 -193 10 10 26 195 17 195 -2 0 -4 -1
-5 -2z"/>
<path d="M1354 3104 c4 -11 -1 -13 -22 -8 -26 6 -26 6 -7 -9 19 -14 18 -15
-10 -11 -28 3 -29 3 -5 -5 42 -15 55 -12 73 18 17 28 17 29 -9 29 -17 0 -24
-5 -20 -14z"/>
<path d="M277 3068 c-12 -21 -22 -28 -33 -24 -21 8 -44 -11 -44 -35 0 -17 57
-69 76 -69 11 0 63 -60 70 -83 7 -23 60 -51 69 -36 8 13 -18 43 -61 69 -30 19
-53 65 -39 79 4 3 25 -5 47 -18 23 -13 67 -29 97 -37 31 -7 65 -16 76 -19 19
-6 19 -6 1 9 -10 8 -51 25 -90 36 -88 27 -107 36 -148 72 -32 29 -32 29 -7 24
23 -5 25 -3 21 24 -6 42 -15 44 -35 8z m23 -88 c0 -16 -22 -12 -58 10 -46 28
-31 45 19 20 21 -11 39 -25 39 -30z"/>
<path d="M2000 3016 c0 -13 7 -26 15 -30 11 -4 15 2 15 24 0 20 -5 30 -15 30
-9 0 -15 -9 -15 -24z"/>
<path d="M1648 3009 c-23 -11 -38 -27 -37 -37 0 -11 2 -12 6 -4 6 17 77 52
103 52 25 0 60 -17 60 -29 0 -5 -20 -6 -45 -3 -38 4 -50 1 -70 -18 -14 -13
-25 -32 -25 -42 0 -27 17 -22 24 7 4 14 11 25 16 25 5 0 7 -6 4 -13 -3 -8 2
-19 10 -26 20 -17 56 3 56 31 0 18 2 19 16 7 15 -12 14 -15 -10 -36 -15 -13
-23 -23 -17 -23 6 0 22 12 36 28 28 30 27 67 -2 90 -24 18 -83 14 -125 -9z"/>
<path d="M720 2996 c-16 -42 -12 -51 20 -53 17 -1 30 2 30 7 0 6 -11 10 -25
10 -14 0 -25 5 -25 11 0 6 9 9 20 6 23 -6 25 1 5 27 -14 18 -15 18 -25 -8z"/>
<path d="M1942 2997 c25 -12 65 -39 88 -60 44 -39 77 -41 40 -2 -24 25 -139
85 -161 84 -8 0 7 -10 33 -22z"/>
<path d="M2290 2970 c-11 -25 -9 -33 9 -59 21 -29 23 -29 41 -13 12 10 20 29
20 47 0 58 -49 76 -70 25z m52 -25 c-13 -28 -30 -33 -39 -10 -7 21 27 59 40
46 7 -7 7 -19 -1 -36z"/>
<path d="M1955 2947 c-4 -14 -3 -32 1 -39 5 -8 10 -3 16 17 4 16 3 34 -2 39
-5 5 -11 -1 -15 -17z"/>
<path d="M2563 2965 c5 -6 -6 -15 -25 -21 -29 -11 -30 -12 -8 -13 14 0 33 4
43 8 18 7 18 7 0 21 -10 8 -14 10 -10 5z"/>
<path d="M157 2927 c-24 -29 -18 -53 13 -49 37 4 46 18 30 47 -16 31 -20 31
-43 2z m37 -6 c6 -10 -31 -47 -40 -39 -6 7 17 48 28 48 4 0 9 -4 12 -9z"/>
<path d="M2001 2908 c0 -20 -4 -43 -7 -52 -4 -10 -1 -16 7 -16 7 0 9 3 6 7 -4
3 -3 11 1 17 4 6 5 27 1 46 l-6 35 -2 -37z"/>
<path d="M2105 2919 c-4 -12 -25 -39 -47 -61 -24 -24 -36 -44 -31 -49 12 -12
78 58 91 99 6 17 7 32 2 32 -5 0 -12 -9 -15 -21z"/>
<path d="M2145 2920 c2 -14 11 -55 19 -91 8 -36 12 -77 9 -90 -5 -18 4 -12 35
26 23 27 42 52 42 56 0 8 -52 54 -65 57 -5 2 -18 17 -28 35 -15 28 -16 29 -12
7z m85 -99 c0 -5 -11 -16 -25 -25 -27 -18 -30 -15 -15 15 11 19 40 27 40 10z"/>
<path d="M1285 2918 c-23 -8 -35 -22 -54 -65 -23 -53 -26 -55 -55 -49 -17 4
-60 11 -95 16 -42 6 -89 23 -138 50 -82 44 -123 54 -55 14 23 -14 42 -30 42
-36 0 -5 5 -6 10 -3 6 3 10 1 10 -5 0 -6 5 -8 10 -5 6 3 10 2 10 -4 0 -13 53
-28 125 -36 33 -3 72 -8 86 -11 21 -4 36 3 64 27 31 28 82 107 73 113 -2 2
-16 -1 -33 -6z"/>
<path d="M1411 2902 c-7 -13 -3 -24 15 -45 13 -16 24 -24 24 -20 0 5 -5 14
-11 20 -12 12 -4 33 12 33 5 0 9 -7 9 -15 0 -8 9 -15 20 -15 11 0 20 6 20 13
0 8 4 7 10 -3 8 -12 10 -11 10 8 0 39 -90 59 -109 24z"/>
<path d="M2237 2899 c-6 -23 15 -59 35 -59 14 0 8 34 -11 59 l-18 24 -6 -24z"/>
<path d="M2408 2898 c-31 -11 -38 -28 -10 -28 23 0 45 15 41 27 -3 6 -14 7
-31 1z"/>
<path d="M2570 2901 c0 -8 -6 -11 -16 -7 -25 10 -112 -58 -114 -88 0 -5 9 1
20 14 11 13 20 27 20 32 0 4 6 8 14 8 7 0 19 7 26 15 31 37 35 -7 5 -49 -8
-11 -23 -32 -32 -46 l-18 -25 30 22 c64 45 94 94 75 123 -7 12 -10 12 -10 1z"/>
<path d="M2729 2908 c-1 -2 -2 -23 -4 -48 -1 -25 -5 -61 -8 -80 -6 -25 -1 -19
18 24 29 70 29 66 11 66 -9 0 -12 7 -9 20 4 16 -2 29 -8 18z"/>
<path d="M759 2879 c-1 -13 -2 -36 -3 -51 -2 -16 2 -28 8 -28 6 0 11 19 11 45
-1 46 -14 76 -16 34z"/>
<path d="M1921 2871 c-8 -17 -29 -44 -47 -61 -19 -16 -34 -37 -34 -47 0 -32
-59 -145 -71 -137 -7 4 -9 3 -5 -4 3 -6 2 -13 -4 -17 -6 -4 -22 -29 -35 -56
-28 -53 -36 -61 -28 -26 4 18 2 17 -14 -8 -11 -16 -27 -36 -36 -44 -18 -15
-24 -36 -7 -26 6 4 3 -10 -7 -29 -9 -20 -21 -36 -26 -36 -5 0 -2 12 8 26 31
48 8 35 -30 -16 -20 -27 -40 -50 -43 -50 -4 0 -16 -13 -26 -28 l-19 -27 24 21
c13 12 38 29 55 37 17 9 47 34 67 56 34 38 42 53 38 74 -1 5 3 6 8 3 5 -4 11
-2 13 2 1 5 37 37 78 73 83 71 89 77 121 134 20 35 20 38 4 25 -17 -14 -18
-13 -12 3 9 25 4 21 -23 -15 -22 -31 -22 -32 -2 -14 12 11 22 14 22 8 0 -6
-18 -24 -39 -41 -48 -38 -64 -24 -27 24 14 18 26 37 26 42 0 4 14 28 31 53
l30 45 -6 -35 -6 -35 20 40 c16 34 20 36 20 16 1 -19 4 -21 15 -12 14 12 12
30 -11 90 l-9 24 -13 -32z"/>
<path d="M27 2853 c-12 -11 -7 -33 7 -33 7 0 16 9 19 20 5 19 -12 28 -26 13z"/>
<path d="M276 2823 c-3 -16 -7 -43 -8 -60 -1 -18 -3 -33 -5 -33 -1 0 -9 12
-18 28 l-16 27 7 -35 c14 -74 74 -184 91 -167 3 4 1 12 -4 19 -15 18 -22 70
-24 166 -2 82 -12 107 -23 55z"/>
<path d="M2366 2808 c-20 -28 -23 -57 -3 -36 21 23 38 58 28 58 -6 0 -17 -10
-25 -22z"/>
<path d="M2587 2807 c-15 -12 -27 -25 -27 -29 0 -3 -20 -26 -45 -50 -25 -25
-45 -50 -45 -56 0 -6 27 0 62 14 34 13 63 24 66 24 2 0 1 9 -3 19 -3 10 1 37
9 60 7 23 13 41 11 41 -1 0 -14 -10 -28 -23z"/>
<path d="M0 2786 c0 -7 11 -23 25 -36 14 -13 25 -27 25 -32 0 -16 -39 -8 -43
10 -3 11 -5 8 -6 -9 -1 -35 24 -44 49 -19 15 15 18 25 10 44 -5 13 -7 26 -5
28 2 2 -9 9 -25 15 -23 9 -30 8 -30 -1z"/>
<path d="M2260 2798 c0 -2 -9 -27 -20 -55 -25 -67 -18 -68 15 -3 28 55 29 60
15 60 -5 0 -10 -1 -10 -2z"/>
<path d="M890 2787 c0 -7 75 -30 100 -31 19 -2 40 13 40 28 0 6 -4 5 -9 -3 -9
-13 -37 -12 -103 4 -16 4 -28 5 -28 2z"/>
<path d="M1568 2773 c-34 -5 -36 -21 -4 -29 25 -6 66 10 66 26 0 10 -12 11
-62 3z"/>
<path d="M2131 2761 c-10 -10 -27 -32 -37 -50 -10 -17 -21 -31 -25 -31 -17 0
-16 -30 2 -51 24 -27 24 -39 2 -39 -11 -1 -5 -6 13 -14 18 -8 37 -22 43 -33 6
-10 11 -13 11 -8 0 6 -9 25 -20 43 -11 18 -18 37 -15 43 4 5 3 9 -2 9 -4 0
-14 4 -21 9 -11 6 -3 20 32 56 25 26 46 55 46 66 0 24 -5 24 -29 0z"/>
<path d="M1982 2764 c9 -8 -20 -88 -40 -110 -56 -63 -53 -70 8 -19 23 19 49
39 57 44 21 11 8 91 -15 91 -8 0 -13 -3 -10 -6z"/>
<path d="M507 2749 c-10 -6 -29 -8 -42 -5 -13 3 -27 2 -30 -4 -4 -6 11 -10 37
-10 54 0 90 9 82 21 -7 12 -25 11 -47 -2z"/>
<path d="M1602 2705 c-53 -13 -69 -21 -61 -29 7 -7 119 27 119 36 0 4 -1 8 -2
7 -2 -1 -27 -7 -56 -14z"/>
<path d="M1664 2664 c-14 -31 -23 -61 -22 -66 2 -5 15 20 29 56 32 81 27 87
-7 10z"/>
<path d="M178 2683 c4 -23 2 -25 -17 -20 -11 3 -19 1 -15 -4 3 -5 12 -9 20 -9
8 0 13 -4 9 -9 -3 -5 -1 -13 5 -16 14 -9 -6 -35 -26 -35 -15 0 -19 -38 -6 -55
13 -19 62 -46 72 -40 19 12 30 -5 20 -30 -13 -33 -7 -32 34 9 31 32 33 36 18
49 -10 8 -27 20 -39 26 -16 8 -28 32 -43 81 -20 68 -42 104 -32 53z m27 -137
c17 -13 27 -28 23 -32 -8 -7 -78 36 -78 49 0 14 26 6 55 -17z"/>
<path d="M891 2689 c-61 -12 -63 -19 -5 -19 57 0 94 9 94 21 0 11 -29 10 -89
-2z"/>
<path d="M2381 2683 c0 -7 0 -14 0 -15 1 -2 -8 -22 -20 -45 -26 -53 -21 -56 9
-7 11 20 19 46 17 58 -2 12 -5 15 -6 9z"/>
<path d="M750 2670 l-25 -8 25 0 c14 0 39 4 55 8 l30 8 -30 0 c-16 0 -41 -4
-55 -8z"/>
<path d="M1602 2666 c-33 -12 -33 -26 -1 -26 10 0 23 9 29 20 6 11 9 19 8 19
-2 -1 -18 -7 -36 -13z"/>
<path d="M1260 2651 c-19 -10 -53 -22 -75 -26 -22 -5 -44 -9 -50 -11 -5 -1
-58 -11 -117 -22 -58 -11 -129 -30 -157 -42 -56 -25 -118 -86 -150 -149 -30
-57 -26 -65 6 -11 60 104 118 137 298 174 111 22 180 44 263 82 17 8 32 17 32
19 0 9 -14 4 -50 -14z"/>
<path d="M2491 2649 c-25 -5 -48 -12 -52 -16 -14 -15 -68 -156 -63 -165 6 -9
74 70 74 85 0 4 -10 2 -22 -4 -22 -12 -22 -11 -8 6 30 37 61 65 73 65 7 0 23
9 37 20 27 21 26 22 -39 9z"/>
<path d="M1992 2609 c-2 -34 1 -40 14 -35 9 3 22 6 31 6 13 0 13 2 -1 15 -8 8
-18 24 -21 35 -10 33 -22 23 -23 -21z"/>
<path d="M840 2618 c-88 -15 -171 -88 -185 -163 l-5 -30 11 30 c19 50 58 94
102 117 33 16 71 23 176 30 73 4 139 12 147 16 16 9 -191 9 -246 0z"/>
<path d="M2560 2621 c0 -7 -22 -34 -50 -61 -27 -27 -50 -50 -50 -53 0 -7 51 1
58 9 4 4 1 9 -5 11 -10 4 -9 8 1 19 8 8 19 14 24 14 12 0 37 59 28 67 -3 3 -6
1 -6 -6z"/>
<path d="M1950 2591 c0 -17 5 -31 10 -31 6 0 10 11 10 24 0 14 -4 28 -10 31
-6 4 -10 -7 -10 -24z"/>
<path d="M1900 2573 c-14 -9 -40 -26 -58 -37 -18 -12 -44 -39 -59 -61 -23 -35
-19 -33 28 18 45 46 61 57 87 57 25 0 32 4 32 20 0 23 2 23 -30 3z"/>
<path d="M2361 2561 c-13 -18 -29 -30 -36 -27 -8 3 -18 -1 -24 -8 -6 -7 -33
-23 -60 -36 -28 -13 -48 -27 -45 -32 9 -14 19 -9 68 27 25 20 46 33 46 29 0
-3 -25 -33 -55 -65 -37 -41 -52 -65 -48 -76 4 -10 2 -14 -4 -10 -6 4 -17 -1
-24 -10 -8 -10 -9 -14 -2 -10 6 4 15 2 19 -5 4 -7 4 -10 -1 -6 -4 4 -15 2 -23
-5 -13 -10 -14 -9 -7 2 6 11 4 13 -10 7 -11 -4 -41 -14 -67 -23 -42 -13 -78
-43 -78 -64 0 -8 169 58 187 73 7 5 11 13 10 17 -3 10 98 154 120 172 16 12
16 11 -2 -16 -10 -16 -34 -55 -51 -85 -59 -100 -77 -116 -184 -157 -102 -39
-123 -56 -113 -92 5 -19 7 -20 32 -7 91 49 213 106 225 106 8 0 18 5 22 11 4
8 -1 9 -17 4 l-24 -7 21 20 c11 11 27 42 34 68 7 27 29 73 49 102 61 90 73
111 69 124 -2 6 -15 -3 -27 -21z m-205 -312 c-22 -11 -45 -27 -52 -34 -8 -7
-32 -16 -54 -20 -22 -4 -40 -11 -40 -16 0 -5 -5 -9 -10 -9 -6 0 -5 8 2 20 7
11 47 34 88 50 88 34 121 39 66 9z"/>
<path d="M1300 2573 c0 -5 -8 -9 -17 -10 -10 0 -54 -10 -97 -22 -44 -11 -102
-22 -131 -24 -35 -2 -71 -14 -111 -36 l-59 -32 42 40 c51 49 45 52 -18 9 -32
-22 -54 -46 -64 -72 -19 -46 -14 -57 9 -21 16 24 123 81 134 71 2 -3 15 -1 28
4 12 5 72 20 131 33 126 29 183 50 165 61 -7 4 -12 3 -12 -1z"/>
<path d="M1425 2522 c-65 -68 -66 -70 -27 -43 31 21 89 89 81 94 -2 1 -26 -21
-54 -51z"/>
<path d="M2040 2554 c-30 -16 -65 -20 -40 -4 19 13 15 12 -45 -6 l-50 -14 45
5 45 5 -40 -18 c-43 -20 -72 -48 -61 -59 4 -4 20 8 36 26 17 18 34 30 39 26 5
-3 12 -1 16 5 10 16 47 12 83 -10 31 -19 62 -26 62 -14 0 20 -45 75 -60 73 -3
-1 -16 -7 -30 -15z"/>
<path d="M2165 2497 c-27 -13 -57 -22 -65 -20 -8 3 -4 -4 9 -15 21 -17 22 -21
8 -25 -16 -4 -15 -5 0 -3 10 1 18 8 18 16 0 8 27 26 65 42 45 19 57 27 40 28
-14 0 -47 -11 -75 -23z"/>
<path d="M1700 2433 c-36 -36 -51 -55 -35 -42 31 25 111 109 104 109 -3 0 -34
-30 -69 -67z"/>
<path d="M352 2446 c17 -20 37 -36 45 -36 20 0 5 24 -30 45 -49 30 -49 29 -15
-9z"/>
<path d="M1515 2454 c-49 -23 -42 -34 10 -14 23 9 24 8 16 -8 -11 -20 -106
-119 -137 -143 -35 -27 -45 -10 -28 48 15 53 32 63 98 63 12 0 31 6 42 14 17
13 14 14 -24 5 -24 -5 -47 -7 -51 -4 -15 9 -70 -16 -75 -33 -3 -10 -8 -38 -11
-64 -4 -26 -12 -49 -19 -51 -6 -2 3 -2 19 0 23 2 18 -2 -20 -17 -27 -11 -63
-31 -80 -45 -21 -17 1 -10 75 27 160 78 174 89 210 162 18 36 31 69 29 74 -2
5 -26 -2 -54 -14z"/>
<path d="M2327 2421 c-29 -52 -33 -76 -17 -86 6 -4 10 -3 9 2 -3 15 13 73 21
73 4 0 12 -17 19 -37 7 -21 15 -44 17 -50 3 -7 -1 -13 -10 -13 -9 0 -16 -5
-16 -11 0 -6 7 -8 16 -5 9 3 21 6 28 6 7 0 21 7 32 16 18 15 18 15 -7 10 -24
-5 -26 -3 -38 57 -18 91 -23 95 -54 38z"/>
<path d="M236 2418 c5 -7 20 -31 35 -53 15 -22 38 -61 52 -88 14 -26 28 -43
31 -38 10 16 -10 56 -58 115 -25 30 -46 60 -46 66 0 5 -5 10 -11 10 -5 0 -7
-6 -3 -12z"/>
<path d="M1736 2408 c-8 -13 -20 -35 -27 -50 -6 -15 -15 -25 -19 -23 -13 8
-40 -65 -34 -91 6 -23 10 -17 34 44 15 38 37 86 49 106 24 39 21 51 -3 14z"/>
<path d="M2129 2413 c-10 -11 -10 -14 -1 -9 7 4 12 2 12 -5 0 -6 -8 -9 -17 -7
-14 4 -18 -2 -19 -25 -1 -28 0 -29 12 -12 8 10 14 13 14 7 0 -24 69 26 70 50
0 4 -15 5 -32 2 -25 -4 -29 -3 -18 5 8 6 10 11 4 11 -6 0 -18 -8 -25 -17z"/>
<path d="M2516 2422 c-3 -5 -25 -13 -48 -16 -51 -8 -73 -20 -64 -34 4 -7 18
-6 41 4 45 18 48 18 39 -8 -6 -21 -4 -21 27 7 19 17 35 30 37 31 1 1 -4 7 -12
13 -8 7 -17 8 -20 3z"/>
<path d="M1316 2407 c2 -7 -12 -22 -34 -34 -21 -12 -56 -42 -79 -66 -33 -35
-39 -47 -31 -61 6 -10 7 -32 4 -49 -5 -26 1 -19 31 32 21 35 53 75 71 89 28
21 62 68 62 85 0 3 -7 7 -14 10 -9 4 -13 1 -10 -6z"/>
<path d="M1990 2400 c0 -5 5 -10 11 -10 5 0 7 -5 3 -12 -5 -7 -3 -8 6 -3 9 6
12 4 8 -7 -4 -8 -2 -21 3 -29 6 -10 9 -5 9 16 0 19 -7 35 -20 43 -12 7 -20 8
-20 2z"/>
<path d="M2537 2369 l-28 -39 38 -42 c78 -87 221 -234 303 -312 46 -45 99 -96
117 -115 33 -34 33 -34 33 -9 0 16 -11 33 -31 49 -18 13 -43 34 -58 47 -14 13
-37 29 -51 37 -33 17 -170 161 -170 178 0 6 -9 18 -20 25 -11 7 -20 18 -20 24
0 7 -10 22 -23 33 -12 11 -34 35 -49 53 -23 28 -26 36 -17 62 17 48 6 52 -24
9z"/>
<path d="M1690 2382 c0 -7 -15 -21 -32 -32 -18 -11 -29 -20 -24 -20 17 0 -17
-30 -85 -75 -37 -25 -71 -45 -75 -45 -4 0 -31 -21 -61 -46 -70 -60 -153 -177
-154 -218 l-1 -31 -8 35 c-11 46 7 139 34 169 12 13 63 55 114 93 50 38 92 72
92 75 0 3 -16 -7 -35 -21 -19 -15 -35 -24 -35 -21 0 3 -18 -4 -40 -15 -22 -11
-40 -23 -40 -26 0 -3 6 -2 13 1 6 3 3 0 -7 -7 -41 -28 -96 -81 -96 -94 0 -7
-4 -16 -10 -19 -14 -9 8 46 27 67 15 17 15 18 -3 18 -29 0 -61 -26 -66 -55 -3
-14 -1 -25 5 -25 5 0 4 -6 -2 -14 -9 -11 -9 -16 0 -21 8 -6 7 -10 -2 -16 -10
-6 -10 -9 -2 -9 7 0 15 -17 18 -37 4 -21 11 -52 16 -69 15 -47 19 -155 7 -147
-7 3 -8 1 -4 -6 9 -15 -3 -53 -15 -46 -5 3 -6 -2 -2 -11 5 -13 3 -15 -7 -9 -8
5 -11 4 -7 -1 3 -6 -8 -47 -24 -93 -17 -48 -29 -103 -29 -131 0 -27 -5 -52
-10 -55 -6 -4 -7 -11 -4 -17 4 -7 2 -8 -4 -4 -6 3 -16 -3 -22 -14 -6 -11 -8
-20 -5 -20 3 0 -1 -13 -10 -30 -19 -37 -10 -39 21 -2 30 34 54 84 54 110 0 12
4 23 8 26 13 8 45 -53 39 -75 -3 -10 -1 -19 4 -19 5 0 9 -11 9 -25 0 -29 26
-45 72 -44 l33 2 -37 10 c-34 9 -38 15 -56 76 -32 101 -37 187 -16 241 9 25
22 50 29 55 13 11 15 16 15 45 0 33 20 20 110 -70 47 -47 120 -111 163 -143
42 -32 77 -61 77 -64 0 -4 -9 -16 -20 -28 -20 -21 -18 -21 34 4 30 14 55 29
55 33 1 4 -6 5 -14 2 -27 -11 -152 76 -140 96 3 5 1 11 -4 14 -5 4 -13 1 -17
-5 -5 -8 -3 -9 6 -4 9 5 11 4 6 -4 -4 -6 -12 -9 -17 -5 -5 3 -7 9 -4 14 3 4
-21 27 -52 51 -81 62 -157 134 -173 164 -10 18 -16 22 -22 13 -5 -9 -8 -5 -8
10 0 13 4 20 10 17 6 -4 10 13 10 44 0 57 8 84 22 75 6 -4 5 2 -1 14 -8 15 -8
23 1 28 7 5 8 3 3 -7 -7 -12 -6 -12 7 -1 9 8 14 20 11 28 -3 9 0 14 8 12 8 -2
13 2 12 9 -2 7 11 21 27 33 17 12 28 25 25 29 -7 12 31 43 122 100 84 52 117
65 93 36 -6 -8 -36 -26 -66 -39 -61 -28 -148 -85 -140 -93 2 -3 22 7 43 21 39
27 59 33 48 16 -9 -14 1 -12 43 9 48 25 112 42 112 30 0 -5 -46 -30 -103 -57
-57 -27 -122 -66 -145 -86 -45 -41 -86 -118 -97 -180 -6 -38 -5 -40 78 -120
81 -79 186 -150 287 -194 25 -11 54 -27 64 -35 16 -12 26 -12 64 -1 25 8 58
14 74 14 17 0 27 4 23 10 -10 17 -102 12 -109 -5 -3 -8 -9 -15 -14 -15 -5 0
11 57 35 128 25 70 46 138 47 151 2 14 8 27 14 29 7 2 45 -6 85 -18 41 -12 83
-20 93 -17 16 4 16 5 -3 6 -13 0 -23 5 -23 9 0 11 -78 35 -89 27 -5 -3 -18 10
-29 27 -21 33 -82 97 -82 85 0 -3 10 -22 21 -42 24 -41 30 -11 -49 -257 -33
-105 -39 -117 -57 -111 -11 3 -21 6 -21 7 -1 0 16 53 37 116 21 63 39 125 39
137 0 26 -53 163 -82 213 -12 19 -35 50 -52 68 -16 17 -24 32 -17 32 35 0 123
-139 152 -240 15 -53 35 -81 25 -35 -4 17 -28 74 -53 128 -51 107 -104 167
-148 167 -36 0 -30 -21 16 -53 22 -15 39 -33 36 -40 -2 -6 5 -20 14 -31 22
-23 89 -180 89 -207 0 -27 -25 -85 -40 -94 -17 -11 -69 -8 -83 3 -7 6 -39 13
-72 17 -73 8 -110 21 -152 52 -27 20 -33 31 -33 62 0 21 7 60 15 86 8 27 12
51 10 54 -8 7 -33 -62 -40 -112 -7 -42 -5 -51 16 -74 13 -14 41 -36 62 -50 43
-27 171 -63 226 -63 20 0 43 -5 51 -10 13 -9 13 -12 -2 -24 -22 -16 -112 -4
-173 23 -72 33 -182 105 -210 139 -21 25 -26 38 -20 60 7 25 8 25 16 7 6 -15
7 -11 5 15 -2 21 6 56 20 87 28 63 82 102 222 162 l93 40 28 -39 c16 -22 31
-37 34 -34 9 9 59 -64 72 -108 9 -28 14 -35 14 -20 2 45 -29 92 -113 176 -105
104 -108 124 -33 203 17 18 28 36 24 40 -4 3 -7 1 -7 -5z m-224 -697 c59 -36
146 -72 196 -82 19 -4 28 -12 28 -24 0 -11 -4 -19 -10 -19 -21 0 -185 84 -229
117 -75 57 -70 59 15 8z"/>
<path d="M1554 2305 c-27 -14 -74 -48 -104 -76 -38 -35 -41 -40 -12 -16 24 20
75 52 113 72 38 20 69 38 69 41 0 9 -18 3 -66 -21z"/>
<path d="M1833 2302 c0 -10 19 -27 42 -39 l41 -21 24 20 25 21 -34 -8 c-24 -5
-32 -4 -26 4 5 8 -2 10 -22 5 -15 -4 -25 -3 -21 1 4 4 1 14 -7 21 -18 19 -24
18 -22 -4z"/>
<path d="M2466 2271 c-43 -42 -36 -62 15 -41 24 10 29 18 29 46 0 19 -1 34 -2
34 -2 -1 -20 -18 -42 -39z"/>
<path d="M1045 2260 c-38 -20 -94 -46 -124 -59 -36 -15 -50 -26 -43 -33 6 -6
17 -4 31 9 26 21 209 84 216 73 18 -29 -276 -194 -443 -250 -74 -24 -283 -56
-310 -47 -4 1 -7 -2 -7 -8 0 -13 58 -12 162 3 166 23 372 105 478 190 34 27
62 42 78 42 18 0 18 -1 3 -22 -9 -13 -23 -33 -32 -46 -18 -24 -46 -152 -34
-152 13 0 19 -84 8 -97 -6 -7 -21 -13 -35 -13 -20 0 -23 4 -21 27 2 19 -2 28
-14 31 -19 4 -71 -31 -62 -41 4 -3 15 3 27 14 22 20 47 25 47 9 0 -5 -5 -10
-11 -10 -5 0 -7 -4 -4 -10 3 -5 0 -7 -8 -4 -8 3 -19 -1 -25 -8 -8 -11 1 -14
46 -16 52 -3 61 -7 101 -48 25 -24 49 -44 53 -44 5 0 6 -4 3 -10 -12 -19 -41
-10 -70 20 -25 26 -30 28 -38 14 -6 -11 -2 -23 15 -42 58 -63 68 -77 88 -118
11 -24 22 -44 24 -44 10 0 -10 49 -36 84 -34 47 -39 79 -9 52 11 -10 28 -34
38 -54 15 -32 18 -34 21 -15 2 12 -4 33 -14 47 -13 21 -14 29 -4 40 8 11 9 20
0 35 -6 12 -14 20 -18 18 -5 -1 -25 13 -46 31 -34 29 -37 36 -28 60 6 17 5 49
-1 87 -15 91 -4 129 57 194 l53 56 -21 45 -21 45 -70 -35z"/>
<path d="M60 2251 c-15 -30 -12 -47 12 -64 20 -14 21 -18 8 -28 -13 -9 -12
-10 3 -5 10 3 21 6 23 6 2 0 4 7 4 15 0 8 7 15 15 15 19 0 19 30 -1 58 -19 27
-50 29 -64 3z m44 -7 c19 -7 22 -44 3 -44 -17 0 -37 20 -37 37 0 14 10 16 34
7z"/>
<path d="M1732 2260 c19 -57 19 -58 -9 -68 -24 -9 -25 -11 -6 -11 12 -1 24 3
28 8 3 5 18 7 33 5 l27 -5 -30 33 c-16 18 -34 38 -39 43 -6 6 -7 4 -4 -5z"/>
<path d="M1820 2255 c0 -9 6 -12 17 -8 12 5 15 2 10 -10 -3 -9 -2 -19 3 -22 4
-3 10 0 12 7 3 7 22 -1 54 -22 27 -19 42 -26 34 -16 -13 17 -114 86 -125 86
-3 0 -5 -7 -5 -15z"/>
<path d="M236 2228 c10 -15 11 -19 13 -50 1 -21 2 -21 17 -6 20 20 13 42 -17
58 -17 10 -20 10 -13 -2z"/>
<path d="M2255 2227 c-29 -10 -31 -19 -8 -38 15 -12 16 -12 11 2 -5 12 0 18
18 22 13 2 24 -1 24 -6 0 -7 4 -7 12 1 7 7 24 12 39 12 15 0 30 4 33 9 7 11
-94 9 -129 -2z"/>
<path d="M296 2205 c7 -31 53 -100 60 -92 17 16 6 47 -29 82 l-39 40 8 -30z"/>
<path d="M2152 2151 c-45 -56 -55 -86 -35 -103 14 -11 15 -11 9 1 -7 10 -3 12
13 6 19 -6 21 -4 15 19 -5 21 -2 28 17 35 18 7 19 10 7 10 -23 1 -23 12 2 39
22 23 25 32 12 32 -5 0 -23 -18 -40 -39z"/>
<path d="M2323 2165 c4 -8 2 -17 -2 -20 -5 -2 -11 -14 -14 -24 -4 -18 -1 -19
27 -14 17 3 37 13 44 21 11 15 15 15 39 0 15 -9 29 -21 31 -27 4 -11 -44 -27
-65 -23 -7 2 -13 -4 -13 -13 0 -20 -19 -19 -42 2 -19 17 -19 16 -12 -12 4 -17
12 -39 17 -50 6 -11 10 -28 8 -38 -1 -12 5 -20 18 -24 12 -3 21 -12 21 -19 0
-8 4 -14 9 -14 10 0 7 92 -4 126 -5 17 0 22 34 32 22 7 43 17 46 22 13 20 -17
49 -67 65 -29 9 -59 19 -67 21 -8 3 -11 -1 -8 -11z"/>
<path d="M2751 2164 c6 -7 8 -18 4 -24 -3 -5 1 -10 9 -10 34 0 28 44 -7 46
-14 2 -15 -1 -6 -12z"/>
<path d="M2985 2170 c4 -6 -7 -10 -24 -10 -17 0 -31 -5 -31 -11 0 -7 9 -9 23
-5 12 3 28 6 35 6 6 0 12 7 12 15 0 8 -5 15 -11 15 -5 0 -7 -4 -4 -10z"/>
<path d="M1126 2144 c-21 -31 -15 -101 20 -218 13 -44 24 -88 24 -98 0 -29 20
-21 21 10 2 35 4 28 -25 97 -23 57 -48 216 -27 170 8 -16 10 -12 10 23 1 23
-1 42 -3 42 -2 0 -11 -12 -20 -26z"/>
<path d="M1874 2151 c10 -16 65 -43 79 -38 7 2 -6 12 -28 22 -22 10 -44 21
-49 23 -5 3 -6 0 -2 -7z"/>
<path d="M1840 2141 c0 -6 4 -11 9 -11 5 0 21 -25 36 -55 16 -30 34 -55 42
-55 16 0 17 16 2 25 -6 4 -8 13 -5 20 4 12 -21 40 -66 74 -12 9 -18 10 -18 2z"/>
<path d="M2845 2106 c-16 -13 -27 -27 -23 -31 9 -10 58 25 58 41 0 18 0 18
-35 -10z"/>
<path d="M248 2095 c5 -28 4 -27 26 -19 12 5 13 10 5 25 -15 28 -37 24 -31 -6z"/>
<path d="M525 2099 c-16 -5 -54 -11 -83 -13 -29 -2 -58 -8 -65 -13 -7 -5 -24
-15 -39 -23 -16 -7 -27 -15 -25 -16 5 -5 226 54 245 65 21 13 7 12 -33 0z"/>
<path d="M1076 2088 c-18 -25 -22 -73 -6 -63 6 4 8 11 4 16 -3 5 1 23 10 39
17 35 13 39 -8 8z"/>
<path d="M1495 2080 c-22 -11 -58 -36 -80 -55 -39 -34 -39 -35 -10 -24 16 6
38 17 47 26 10 8 24 13 32 10 10 -4 13 -1 10 8 -4 9 4 19 20 26 14 7 26 16 26
21 0 11 1 11 -45 -12z"/>
<path d="M2007 2055 c30 -38 50 -47 33 -16 -13 26 -39 51 -51 51 -5 0 3 -16
18 -35z"/>
<path d="M2188 2067 c-4 -28 47 -133 71 -146 10 -6 25 -25 34 -43 9 -18 17
-26 17 -17 0 19 23 31 45 23 29 -12 37 8 8 22 -16 8 -55 50 -88 94 -66 87 -82
100 -87 67z"/>
<path d="M1151 2065 c-1 -36 47 -191 56 -182 2 3 -1 17 -8 33 -6 16 -19 61
-29 99 -11 39 -19 61 -19 50z"/>
<path d="M263 2059 c-6 -6 -38 -16 -72 -23 -51 -11 -66 -10 -88 1 -15 8 -45
12 -68 11 l-40 -4 53 -8 c39 -6 52 -12 48 -22 -4 -10 4 -14 32 -14 35 1 159
24 167 31 2 2 -2 12 -9 21 -9 12 -16 14 -23 7z"/>
<path d="M1730 2060 c0 -9 4 -20 9 -25 5 -6 16 -34 26 -63 9 -29 19 -52 21
-49 5 5 -24 92 -43 126 -7 15 -13 20 -13 11z"/>
<path d="M1987 2020 c17 -25 37 -58 46 -75 34 -66 150 -175 187 -175 17 0 -43
69 -65 76 -41 13 -76 47 -114 112 -21 37 -49 76 -62 87 -18 16 -17 12 8 -25z"/>
<path d="M1965 1976 c19 -62 51 -121 89 -164 75 -85 103 -151 41 -98 -40 35
-59 33 -74 -9 -6 -19 -25 -44 -42 -55 -42 -31 -36 -42 11 -17 26 15 41 31 46
50 3 16 12 27 22 27 29 0 45 -17 39 -40 -4 -17 -3 -19 8 -10 11 9 28 5 77 -20
35 -17 70 -36 79 -42 10 -7 24 -8 35 -3 17 8 16 9 -8 13 -15 2 -42 17 -59 33
-18 17 -46 37 -62 46 -21 10 -26 18 -19 25 8 8 0 24 -28 56 -22 25 -40 54 -40
64 0 11 -9 22 -20 25 -11 3 -20 10 -20 15 0 5 -4 7 -9 4 -5 -3 -12 11 -16 31
-8 43 -41 113 -54 113 -5 0 -3 -20 4 -44z"/>
<path d="M1097 1993 c-19 -18 6 -114 46 -178 17 -27 18 -28 12 -5 -4 14 -17
62 -29 107 -13 46 -26 80 -29 76z"/>
<path d="M1875 1973 c-4 -12 1 -24 15 -35 30 -24 43 -23 30 3 -7 12 -18 18
-26 15 -12 -4 -14 -1 -9 14 8 25 0 27 -10 3z"/>
<path d="M0 1967 c0 -21 23 -27 70 -21 24 4 46 1 54 -6 10 -7 16 -8 21 0 3 5
11 10 16 10 6 0 7 -5 3 -11 -4 -7 8 -10 37 -9 75 3 79 2 79 -24 0 -13 7 -29
15 -36 15 -12 22 0 8 14 -4 4 -6 22 -5 40 l3 33 -113 7 c-62 4 -130 9 -150 13
-30 4 -38 2 -38 -10z"/>
<path d="M2060 1962 c0 -14 59 -78 60 -64 0 7 -7 15 -15 18 -8 4 -12 10 -9 16
3 5 16 0 29 -12 12 -11 45 -30 74 -40 42 -16 51 -17 51 -6 0 8 -9 18 -21 21
-14 5 -18 12 -14 23 5 14 4 14 -13 -1 -25 -23 -35 -22 -71 9 -17 14 -31 22
-31 17 0 -4 -5 0 -11 10 -10 17 -29 23 -29 9z"/>
<path d="M2424 1889 c10 -47 12 -50 36 -46 14 3 33 9 42 12 13 5 19 0 23 -17
4 -16 17 -27 38 -34 28 -8 34 -17 65 -104 18 -52 34 -113 35 -135 2 -52 -45
-151 -106 -227 -26 -31 -47 -59 -47 -62 0 -19 112 113 137 162 23 44 38 148
25 184 -39 117 -54 155 -68 176 -31 47 -6 31 39 -25 25 -32 57 -71 71 -87 14
-16 26 -37 26 -46 0 -9 16 -42 35 -74 19 -32 35 -62 35 -67 0 -5 5 -9 10 -9
37 0 -43 144 -164 298 -39 49 -53 61 -70 56 -11 -3 -30 2 -41 10 -19 15 -18
15 22 16 23 0 52 -4 65 -9 73 -28 108 -45 108 -51 0 -5 11 -11 25 -14 14 -4
25 -10 25 -14 0 -5 32 -42 71 -83 38 -41 80 -93 92 -117 38 -76 52 -62 17 17
-22 48 -152 187 -217 232 -24 17 -75 38 -115 49 -74 19 -52 29 25 11 20 -5 39
-5 42 -1 9 14 -78 28 -168 28 -53 -1 -93 4 -100 11 -21 21 -24 11 -13 -40z"/>
<path d="M444 1874 c-10 -8 -12 -12 -4 -8 8 5 35 11 60 15 l45 6 -41 2 c-23 0
-48 -5 -60 -15z"/>
<path d="M1070 1866 c0 -20 39 -90 47 -83 2 3 -7 27 -21 54 -15 28 -25 40 -26
29z"/>
<path d="M1200 1838 c0 -9 -7 -29 -15 -44 -8 -16 -15 -37 -15 -46 0 -34 16
-18 34 33 14 37 16 53 7 62 -8 8 -11 7 -11 -5z"/>
<path d="M0 1802 c0 -29 20 -54 52 -65 9 -3 25 -18 34 -32 15 -23 15 -28 3
-36 -12 -8 -11 -12 4 -23 10 -8 17 -16 16 -18 -1 -1 3 -20 10 -41 7 -21 11
-53 9 -71 -3 -28 -1 -32 14 -28 15 3 17 11 12 46 -13 94 -56 185 -125 264
l-29 33 0 -29z"/>
<path d="M2230 1822 c0 -16 52 -34 64 -22 7 7 4 10 -11 10 -12 0 -25 5 -28 10
-8 12 -25 13 -25 2z"/>
<path d="M976 1783 c-16 -26 -20 -40 -12 -45 6 -4 13 2 17 15 3 13 12 33 18
45 19 36 3 25 -23 -15z"/>
<path d="M770 1795 c-25 -7 -39 -13 -31 -14 11 -1 10 -6 -5 -23 l-19 -23 26
23 c14 12 37 22 51 22 14 0 28 7 32 15 6 17 6 17 -54 0z"/>
<path d="M1440 1796 c0 -8 13 -16 30 -18 34 -5 40 6 11 22 -27 14 -41 13 -41
-4z"/>
<path d="M2535 1781 c17 -11 40 -33 53 -48 l23 -28 -14 34 c-15 35 -25 44 -67
56 -23 6 -23 5 5 -14z"/>
<path d="M1860 1762 c0 -11 -16 -63 -35 -116 -19 -53 -32 -96 -29 -96 19 0 44
24 44 44 0 38 30 126 43 126 7 0 18 -5 25 -12 7 -7 12 -8 12 -2 0 5 4 3 9 -5
8 -12 12 -12 25 -2 16 14 10 19 -81 75 -9 5 -13 1 -13 -12z"/>
<path d="M2430 1772 c0 -24 23 -60 35 -56 7 3 16 0 21 -7 5 -9 2 -10 -9 -6
-26 10 -20 -1 19 -38 31 -29 35 -39 29 -62 -10 -42 -48 -86 -103 -122 l-49
-31 -59 17 c-56 17 -60 21 -85 72 -15 29 -28 48 -31 41 -2 -8 -25 -13 -58 -14
-52 -1 -55 -2 -61 -31 -12 -54 -9 -106 7 -136 27 -54 39 -31 35 67 -3 84 -3
88 14 74 10 -8 20 -14 22 -12 17 12 43 -74 43 -142 0 -36 49 -86 86 -86 16 0
42 13 65 33 20 17 59 47 86 66 50 35 108 102 137 158 16 31 15 35 -3 72 -27
52 -141 168 -141 143z m95 -251 c-28 -56 -53 -76 -129 -103 -39 -15 -44 -18
-19 -15 41 4 35 -4 -30 -41 -93 -52 -113 -51 -121 8 -3 19 -9 48 -15 63 -6 16
-11 52 -10 80 1 48 2 49 10 21 13 -45 51 -81 99 -94 36 -10 50 -9 88 5 54 21
102 62 127 110 30 54 30 24 0 -34z"/>
<path d="M424 1700 c1 -64 2 -65 30 -68 18 -2 26 0 21 7 -3 6 -10 9 -15 6 -14
-9 -31 22 -25 47 3 13 2 35 -3 48 -8 19 -10 11 -8 -40z"/>
<path d="M868 1723 c22 -16 55 -48 73 -73 18 -25 35 -47 39 -50 4 -3 16 -22
27 -42 20 -38 33 -40 33 -6 0 25 -170 198 -194 198 -13 0 -7 -8 22 -27z"/>
<path d="M740 1695 c-41 -13 -65 -24 -53 -24 12 -1 25 -6 28 -11 3 -6 16 -8
29 -4 12 3 34 0 49 -5 18 -7 26 -7 22 -1 -3 6 -12 10 -20 10 -26 0 -26 20 -1
30 30 11 81 -4 71 -20 -4 -6 -2 -9 2 -8 5 2 21 -10 36 -27 38 -43 33 -15 -6
37 -40 52 -57 55 -157 23z"/>
<path d="M930 1714 c0 -5 26 -34 57 -64 l56 -55 -36 50 c-34 48 -77 87 -77 69z"/>
<path d="M2425 1657 c-25 -49 -74 -77 -135 -77 -33 0 -41 -3 -30 -10 22 -14
71 -12 100 5 34 19 45 19 29 -2 -7 -10 1 -5 18 11 18 16 31 32 31 35 -1 3 2
21 6 39 11 46 4 46 -19 -1z"/>
<path d="M2052 1658 c-7 -20 -15 -65 -17 -99 l-4 -64 19 75 c23 86 24 150 2
88z"/>
<path d="M1246 1649 c-8 -23 -26 -93 -26 -101 0 -5 4 -8 9 -8 16 0 45 100 32
113 -7 7 -12 6 -15 -4z"/>
<path d="M1061 1600 l1 -55 10 44 c7 30 6 47 -1 54 -8 8 -11 -4 -10 -43z"/>
<path d="M788 1593 c22 -29 42 -58 44 -64 2 -7 10 -10 18 -7 9 3 -6 24 -44 64
l-58 59 40 -52z"/>
<path d="M2628 1617 c-5 -10 -5 -29 -2 -41 3 -12 -4 -47 -15 -76 -26 -67 -20
-78 9 -15 15 32 20 61 18 98 -2 35 -5 46 -10 34z"/>
<path d="M2721 1594 c-2 -37 20 -82 46 -100 l26 -17 -20 34 c-12 19 -28 50
-36 69 -12 26 -16 30 -16 14z"/>
<path d="M467 1568 c-6 -41 -5 -42 15 -19 12 14 13 21 3 35 -11 15 -13 13 -18
-16z"/>
<path d="M850 1586 c0 -7 7 -27 15 -42 l15 -29 -4 35 c-3 19 -5 38 -5 43 -2
13 -21 7 -21 -7z"/>
<path d="M1909 1576 c8 -10 9 -16 1 -21 -5 -3 -10 -16 -10 -28 1 -22 1 -22 15
-3 20 27 19 66 -1 66 -13 0 -14 -3 -5 -14z"/>
<path d="M907 1539 c-20 -12 -17 -51 10 -102 8 -16 15 -42 15 -58 2 -52 11
-21 12 41 1 49 -2 60 -15 60 -26 0 -30 26 -8 46 17 16 22 16 29 4 8 -13 10
-12 10 3 0 19 -25 22 -53 6z"/>
<path d="M743 1517 c0 -10 2 -15 5 -12 7 7 29 -20 33 -40 2 -10 10 -20 17 -23
22 -7 13 18 -21 55 -23 25 -34 31 -34 20z"/>
<path d="M694 1495 c-10 -8 -39 -15 -63 -15 -47 0 -47 -13 -1 -25 20 -5 35 1
64 24 38 31 38 45 0 16z"/>
<path d="M844 1494 c3 -9 6 -19 6 -24 0 -5 8 -11 18 -13 14 -4 14 -5 1 -6 -13
-1 -15 -9 -9 -48 4 -26 13 -49 19 -51 15 -5 14 -23 -1 -19 -7 1 -15 -16 -19
-43 -4 -25 -12 -58 -18 -73 -14 -37 -14 -57 2 -57 21 0 61 119 62 187 1 34 -2
60 -5 58 -4 -2 -7 8 -8 23 -1 42 -20 82 -38 82 -11 0 -14 -5 -10 -16z"/>
<path d="M2576 1475 c-10 -19 -60 -76 -110 -128 -81 -85 -96 -96 -143 -107
-51 -12 -79 -7 -68 10 3 5 -8 16 -24 25 -30 15 -46 49 -55 120 -2 17 -3 -3 -3
-42 l1 -72 44 -32 44 -32 82 19 c76 17 84 21 136 74 30 31 70 86 89 123 34 69
40 104 7 42z"/>
<path d="M455 1462 c-42 -45 -50 -69 -37 -104 14 -37 9 -46 -15 -27 -14 11
-14 9 2 -9 11 -13 21 -19 23 -14 2 6 15 4 32 -5 17 -8 40 -13 52 -11 21 3 19
5 -12 20 -53 25 -64 50 -42 92 20 42 36 50 65 34 21 -12 20 -13 -13 -18 -30
-5 -32 -7 -14 -13 12 -4 28 -6 35 -5 9 2 13 -4 11 -17 -5 -29 -21 -45 -45 -45
-11 0 -17 -3 -14 -7 4 -3 25 0 47 7 29 10 40 19 41 34 0 21 1 21 9 1 7 -17 9
-15 9 12 1 22 -8 40 -29 61 -41 41 -75 46 -105 14z"/>
<path d="M1815 1481 c5 -9 -33 -37 -45 -34 -3 1 -30 -7 -60 -17 -39 -13 -48
-19 -29 -19 68 -2 192 58 152 73 -21 8 -25 7 -18 -3z"/>
<path d="M16 1461 c10 -10 21 -17 23 -15 2 2 14 -8 27 -21 13 -14 27 -25 32
-25 6 0 25 -14 42 -30 26 -24 30 -34 21 -43 -10 -9 -20 -4 -47 26 -37 40 -44
44 -44 23 0 -7 18 -30 40 -50 30 -27 40 -44 40 -66 0 -16 5 -30 10 -30 7 0 9
13 5 33 -6 29 -3 36 20 51 15 10 42 23 61 30 l34 11 -57 32 c-32 17 -96 45
-142 62 -68 25 -81 27 -65 12z m204 -111 c-31 -9 -40 -4 -40 21 0 19 1 19 33
2 l32 -17 -25 -6z"/>
<path d="M134 1465 c-10 -8 -14 -15 -7 -15 6 0 18 -3 27 -6 12 -4 16 0 16 15
0 25 -9 26 -36 6z"/>
<path d="M1014 1432 c-34 -55 -73 -134 -55 -112 25 31 74 120 69 125 -2 2 -9
-4 -14 -13z"/>
<path d="M754 1431 c-5 -5 -26 -14 -47 -21 l-38 -12 38 -19 c20 -10 43 -19 50
-19 22 0 14 18 -9 22 l-23 3 24 22 c14 13 22 25 20 28 -3 2 -10 1 -15 -4z"/>
<path d="M1582 1375 c-21 -19 -50 -39 -64 -44 -35 -13 -222 -34 -258 -29 -17
3 -26 0 -23 -5 7 -12 180 -3 251 13 39 9 67 24 103 56 27 24 45 44 39 44 -5 0
-27 -16 -48 -35z"/>
<path d="M1798 1396 c-10 -7 -48 -21 -85 -30 -99 -26 -150 -46 -168 -66 -15
-16 -8 -15 62 6 43 13 96 28 118 34 22 6 53 22 69 36 30 27 33 41 4 20z"/>
<path d="M323 1386 c-24 -11 -31 -26 -12 -26 17 0 49 20 49 30 0 12 -8 11 -37
-4z"/>
<path d="M785 1334 c-5 -32 -14 -76 -21 -98 -16 -45 -17 -56 -5 -56 18 0 54
179 40 201 -4 7 -10 -14 -14 -47z"/>
<path d="M972 1298 c-95 -129 -96 -133 -14 -48 40 41 71 82 70 91 -2 9 3 23
11 32 7 10 11 17 7 17 -3 0 -36 -42 -74 -92z"/>
<path d="M1531 1373 c-14 -9 -41 -23 -60 -30 l-36 -14 39 5 c24 3 50 15 65 31
29 29 26 32 -8 8z"/>
<path d="M2115 1361 c-3 -6 4 -25 16 -43 l21 -33 -6 34 c-3 18 -6 37 -6 42 0
12 -17 11 -25 0z"/>
<path d="M2374 1317 c-40 -28 -80 -58 -90 -65 -17 -11 -17 -12 6 -6 29 8 104
60 139 98 14 14 23 26 20 26 -2 0 -36 -24 -75 -53z"/>
<path d="M1151 1325 c0 -16 8 -63 17 -103 l17 -73 19 35 c11 20 26 36 35 37 9
0 1 6 -17 12 -38 14 -52 32 -52 67 0 14 -5 32 -10 40 -7 11 -10 8 -9 -15z"/>
<path d="M717 1310 c-16 -17 -35 -30 -43 -30 -8 0 -13 -4 -9 -9 6 -10 -25 -31
-44 -31 -6 0 -11 11 -11 24 0 18 -8 27 -30 35 -29 10 -31 9 -59 -41 -24 -41
-28 -56 -19 -71 9 -18 7 -19 -26 -15 -21 2 -32 0 -27 -5 5 -5 -2 -19 -16 -34
-18 -17 -29 -21 -36 -14 -7 7 -6 15 3 26 9 10 9 15 1 15 -16 0 -45 -65 -38
-84 10 -26 28 -19 74 29 43 46 43 46 83 34 31 -9 43 -9 55 1 22 19 18 29 -11
27 -39 -3 -54 43 -29 89 14 27 21 31 35 24 24 -13 32 -38 20 -61 -10 -17 -8
-18 22 -12 43 9 138 89 138 118 0 19 0 19 -33 -15z"/>
<path d="M280 1310 c-14 -11 -30 -24 -37 -30 -16 -13 -33 -13 -33 0 0 6 -7 10
-16 10 -9 0 -14 -6 -12 -12 3 -8 27 -14 60 -16 l56 -3 4 36 c2 19 4 35 3 35 0
-1 -11 -10 -25 -20z"/>
<path d="M1745 1316 c-11 -7 -40 -20 -65 -29 -40 -15 -41 -16 -10 -11 43 7
100 33 100 45 0 12 -2 11 -25 -5z"/>
<path d="M1755 1289 c-36 -23 -184 -56 -288 -64 -66 -6 -77 -9 -73 -23 28 -92
21 -136 -25 -178 -20 -18 -20 -17 -14 17 3 18 13 39 21 46 13 9 13 18 4 53 -6
23 -9 48 -7 54 4 9 -5 8 -29 -3 -25 -11 -33 -20 -28 -33 6 -20 -11 -25 -19 -5
-3 7 -6 6 -6 -5 -1 -20 21 -36 27 -19 3 9 8 9 20 -1 11 -9 10 -5 -4 17 -11 17
-13 26 -5 21 8 -5 17 -3 23 5 6 10 7 6 3 -11 -5 -20 -4 -22 5 -10 8 12 9 8 4
-15 -8 -35 -29 -55 -61 -55 -21 0 -43 -25 -43 -49 0 -18 17 -12 41 14 30 31
37 31 36 3 0 -13 7 -49 16 -82 14 -49 14 -63 3 -90 -17 -41 -33 -52 -82 -60
-45 -8 -60 2 -67 44 -16 84 -28 88 -197 64 -136 -20 -242 -47 -311 -79 -30
-14 -47 -24 -38 -21 8 2 89 14 180 26 90 12 202 33 248 47 68 20 85 22 92 11
13 -20 12 -20 -48 -58 -53 -33 -193 -172 -193 -191 0 -17 22 -9 46 19 76 84
174 184 174 177 0 -5 10 0 22 11 13 11 8 -1 -14 -31 -20 -27 -41 -50 -46 -50
-6 0 -14 -4 -19 -9 -5 -5 -3 -6 5 -2 17 10 15 -1 -6 -32 -10 -15 -36 -90 -56
-166 -39 -141 -113 -340 -165 -445 l-29 -57 -220 2 c-122 0 -226 -2 -232 -6
-21 -13 216 -20 480 -13 146 3 304 3 353 -1 84 -8 87 -9 87 -33 0 -15 5 -23
13 -20 19 7 9 50 -16 71 -19 15 -35 18 -104 14 -45 -2 -80 -1 -77 4 3 4 1 8
-5 8 -5 0 -11 -6 -14 -12 -3 -9 -8 -10 -18 -3 -15 11 -149 12 -166 2 -16 -10
-36 10 -30 29 7 25 57 144 92 219 15 33 52 134 82 225 53 159 103 259 131 260
17 0 17 -2 -34 -130 -60 -150 -77 -205 -59 -190 8 6 22 35 31 63 26 81 75 201
85 212 12 12 57 -38 66 -74 3 -14 0 -70 -7 -126 -7 -55 -12 -121 -11 -147 1
-27 -3 -48 -8 -48 -5 0 -7 -10 -3 -22 4 -16 2 -20 -10 -15 -26 10 -29 -4 -7
-35 12 -16 22 -36 24 -46 2 -9 4 -19 4 -21 1 -2 8 2 16 9 9 7 17 11 19 9 2 -2
13 -44 26 -94 12 -50 27 -96 33 -103 5 -7 7 -15 4 -19 -9 -9 12 -43 27 -43 10
0 7 20 -11 83 -13 45 -32 127 -42 182 -11 55 -20 96 -20 90 -1 -5 -10 -25 -22
-44 -15 -24 -23 -31 -31 -23 -8 8 -4 22 14 49 25 37 25 41 24 213 -1 157 -4
179 -23 217 l-21 42 28 -5 c32 -7 85 17 100 45 15 29 -5 36 -24 9 -20 -29 -21
-16 0 23 8 17 25 34 37 38 21 9 21 9 -8 21 -35 13 -49 31 -32 42 9 6 9 8 -1 8
-9 0 -10 4 0 19 6 10 17 17 24 14 6 -2 15 0 19 6 4 7 -1 9 -12 5 -12 -4 -10 0
7 15 14 11 61 33 105 47 44 15 82 31 83 36 2 4 8 6 13 3 7 -5 171 39 193 53
11 6 -19 23 -60 32 -31 7 -32 6 -24 -15 8 -21 4 -24 -48 -43 -31 -12 -58 -19
-60 -17 -2 2 6 23 19 45 20 36 33 45 82 61 l59 20 22 -26 c12 -14 29 -25 39
-25 16 0 16 3 3 28 -8 15 -22 34 -32 43 -18 15 -21 15 -49 -2z m-135 -89 c-32
-45 -82 -83 -90 -70 -9 14 -41 0 -76 -32 l-21 -19 -6 48 c-5 49 -1 62 24 67 8
1 27 9 43 16 25 13 30 12 41 -4 16 -21 43 -15 70 14 26 29 38 13 15 -20z"/>
<path d="M419 1288 c0 -2 -2 -11 -4 -21 -2 -10 -9 -25 -16 -33 -10 -13 -15
-12 -36 7 -25 25 -31 15 -8 -15 16 -21 11 -36 -11 -36 -17 0 -46 -25 -38 -33
3 -2 -16 -14 -41 -26 -51 -24 -56 -31 -21 -31 13 0 43 17 69 40 25 22 59 43
76 46 24 5 31 13 36 38 4 17 9 39 11 49 3 9 1 17 -5 17 -6 0 -11 -1 -12 -2z"/>
<path d="M1328 1232 c-33 -4 -38 -22 -5 -22 25 0 54 15 41 22 -5 2 -21 2 -36
0z"/>
<path d="M1082 1210 c-20 -33 -14 -106 13 -160 13 -27 30 -52 37 -56 6 -4 2 8
-10 28 -25 40 -28 64 -9 71 7 3 4 6 -7 6 -16 1 -18 8 -14 66 2 36 4 65 3 65 0
0 -6 -9 -13 -20z"/>
<path d="M1862 1210 c-18 -11 -32 -22 -32 -25 0 -3 9 0 20 7 17 11 22 10 29
-1 7 -11 9 -11 14 0 3 8 6 -3 6 -23 1 -21 6 -38 12 -38 7 0 10 -12 7 -30 -3
-19 -1 -29 6 -27 15 5 20 57 6 57 -7 0 -10 7 -7 15 4 8 2 17 -3 20 -6 4 -10
17 -10 30 0 33 -12 37 -48 15z"/>
<path d="M1224 1171 l-40 -46 10 -57 c11 -56 11 -56 28 -33 15 20 15 24 3 29
-25 9 -18 56 12 80 15 11 31 20 36 18 5 -1 6 2 2 8 -3 5 -1 10 4 10 6 0 11 6
11 14 0 30 -27 20 -66 -23z"/>
<path d="M696 1179 c5 -9 -1 -10 -20 -5 -14 3 -26 2 -26 -3 0 -18 39 -19 56 0
16 18 16 19 0 19 -10 0 -14 -5 -10 -11z"/>
<path d="M1866 1143 c-3 -16 -2 -41 3 -58 8 -26 9 -23 10 28 1 62 -4 73 -13
30z"/>
<path d="M820 1132 c0 -10 -6 -26 -14 -37 -12 -19 -33 -86 -23 -75 3 3 19 33
36 68 24 48 28 62 16 62 -8 0 -15 -8 -15 -18z"/>
<path d="M1035 1096 c6 -61 10 -74 21 -63 4 3 -1 32 -10 64 l-16 58 5 -59z"/>
<path d="M1675 1129 c-27 -10 -37 -17 -21 -14 31 7 97 33 81 33 -5 0 -32 -8
-60 -19z"/>
<path d="M620 1105 c0 -30 -5 -31 -47 -5 l-33 20 0 -44 c0 -36 4 -45 25 -54
32 -15 35 -15 35 1 0 7 14 29 30 49 30 36 30 37 10 48 -18 9 -20 8 -20 -15z"/>
<path d="M981 1081 c-11 -27 -21 -59 -21 -70 0 -19 6 -21 55 -21 51 0 69 10
45 25 -5 3 -10 1 -10 -4 0 -6 -18 -11 -40 -11 -22 0 -40 5 -40 11 0 6 10 33
21 60 12 27 19 52 17 55 -3 2 -15 -18 -27 -45z"/>
<path d="M1950 1080 c0 -19 -9 -73 -20 -120 -11 -47 -20 -102 -20 -122 0 -32
-3 -38 -22 -39 -53 -4 -114 4 -176 22 -92 26 -102 22 -17 -6 39 -13 63 -24 55
-25 -19 -1 88 -47 125 -54 44 -8 15 13 -47 35 l-53 19 61 -6 c58 -6 63 -5 77
17 8 13 18 51 21 84 6 62 8 71 21 118 8 29 25 37 25 12 0 -8 4 -15 8 -15 20 0
55 -42 85 -102 18 -34 41 -76 52 -92 16 -24 20 -50 22 -145 1 -64 7 -143 12
-176 7 -46 8 -20 4 105 -2 91 -9 181 -15 200 -13 43 -98 191 -141 246 -18 23
-37 50 -44 60 -11 17 -12 15 -13 -16z"/>
<path d="M1137 1084 c-10 -10 -9 -52 2 -58 5 -3 11 2 13 12 6 22 -5 56 -15 46z"/>
<path d="M1176 1050 c2 -25 5 -58 5 -75 0 -29 1 -29 10 -7 5 13 7 28 4 33 -4
5 -10 28 -15 51 l-9 43 5 -45z"/>
<path d="M908 1006 c-26 -33 -43 -63 -37 -64 5 -2 16 1 23 7 14 12 70 111 64
115 -1 2 -24 -24 -50 -58z"/>
<path d="M2793 1013 c-20 -32 -40 -64 -46 -70 -5 -7 -6 -13 -1 -13 5 0 19 17
31 38 12 20 32 52 44 70 11 17 18 32 15 32 -4 0 -23 -26 -43 -57z"/>
<path d="M1886 989 c-10 -39 -16 -73 -13 -75 2 -3 12 27 22 66 10 39 16 73 13
75 -2 2 -12 -27 -22 -66z"/>
<path d="M1560 1017 c37 -13 46 -32 35 -75 -7 -25 -8 -26 -15 -7 -8 17 -9 16
-9 -8 -1 -19 -8 -30 -23 -37 l-23 -9 23 0 c23 -1 57 42 69 88 8 30 -26 61 -66
60 -24 0 -23 -1 9 -12z"/>
<path d="M1524 999 c31 -24 33 -72 4 -77 -15 -3 -17 2 -13 30 4 27 4 29 -5 13
-9 -18 -10 -17 -7 8 3 18 0 27 -10 27 -21 0 -27 -28 -9 -45 23 -24 20 -28 -16
-21 -24 5 -29 3 -21 -5 18 -18 94 -24 104 -8 21 34 -7 99 -42 99 -7 0 0 -10
15 -21z"/>
<path d="M1220 980 c-9 -17 -7 -31 11 -70 12 -27 29 -52 37 -55 18 -7 44 13
35 28 -3 5 -1 7 5 3 6 -3 14 -1 18 5 3 6 0 15 -7 20 -12 7 -12 9 0 9 10 0 11
3 2 14 -9 11 -20 12 -44 5 -39 -11 -37 -11 -37 1 0 6 11 10 25 10 15 0 25 6
25 14 0 23 -29 27 -50 6 -22 -22 -25 -19 -10 11 6 10 8 19 6 19 -3 0 -10 -9
-16 -20z m68 -80 c-3 -34 -23 -40 -33 -10 -8 24 1 40 21 40 10 0 14 -9 12 -30z"/>
<path d="M968 953 c23 -2 61 -2 85 0 23 2 4 4 -43 4 -47 0 -66 -2 -42 -4z"/>
<path d="M1886 883 c-7 -50 -9 -53 -38 -53 -26 0 -202 32 -253 47 -11 3 -17 2
-14 -1 9 -10 208 -54 260 -57 l44 -4 7 45 c5 25 7 52 5 60 -2 8 -7 -9 -11 -37z"/>
<path d="M2957 900 c-27 -45 -127 -150 -143 -150 -8 0 -14 -7 -14 -15 0 -9
-21 -39 -47 -67 -27 -28 -42 -48 -35 -44 21 12 13 -7 -15 -36 -15 -15 -35 -28
-44 -28 -10 0 -21 -5 -25 -12 -5 -7 -3 -8 5 -3 9 5 9 2 -1 -14 -14 -22 -38
-36 -38 -21 0 23 -62 -16 -118 -74 -49 -50 -67 -63 -92 -63 -35 0 -50 -11 -31
-23 24 -14 73 11 127 66 60 62 92 73 141 50 31 -15 35 -20 31 -50 -2 -19 1
-33 7 -33 6 0 11 7 12 16 1 9 5 30 9 48 5 28 4 31 -14 27 -32 -9 -33 21 -2 51
15 15 31 26 35 25 12 -4 104 70 110 88 5 15 65 65 158 133 27 20 36 39 18 39
-5 0 -38 -25 -74 -55 -35 -30 -67 -55 -71 -55 -3 0 -15 -9 -26 -20 -11 -11
-28 -20 -37 -20 -14 0 -11 7 13 33 136 141 155 157 179 157 14 0 25 5 25 10 0
6 -9 10 -21 10 -11 0 -18 4 -14 10 3 5 12 7 20 3 16 -5 19 5 9 31 -9 23 -17
20 -37 -14z"/>
<path d="M2719 898 c-7 -13 -19 -33 -27 -46 -13 -20 -13 -22 1 -16 8 3 18 13
21 22 3 9 10 27 16 40 5 12 7 22 5 22 -2 0 -10 -10 -16 -22z"/>
<path d="M1410 894 c0 -21 339 -403 428 -482 62 -55 71 -60 87 -48 17 13 18
15 3 30 -9 9 -20 16 -24 16 -6 0 -103 76 -164 128 -13 11 -13 13 0 7 8 -3 -29
36 -83 87 -54 52 -99 102 -101 112 -1 10 -7 21 -12 24 -15 11 -54 64 -54 73 0
17 21 9 184 -70 116 -57 172 -90 194 -115 31 -36 62 -47 62 -23 0 27 -237 160
-415 232 -88 35 -105 40 -105 29z"/>
<path d="M909 822 c-33 -21 -94 -78 -134 -123 -16 -19 -1 -7 35 26 36 33 81
72 100 87 39 30 39 37 -1 10z"/>
<path d="M945 751 c-89 -36 -240 -115 -200 -106 17 4 41 7 55 7 16 -1 21 1 12
6 -8 6 24 26 98 61 60 29 110 54 110 57 0 6 3 7 -75 -25z"/>
<path d="M1324 740 c9 -32 39 -101 43 -97 2 3 -8 29 -22 58 -14 30 -23 47 -21
39z"/>
<path d="M1582 736 c14 -13 140 -76 153 -76 3 0 3 5 0 10 -3 6 1 10 10 10 9 0
13 5 10 10 -4 6 -16 8 -27 4 -14 -4 -18 -2 -14 5 4 7 0 11 -12 11 -10 0 -32 6
-48 14 -16 7 -42 17 -58 20 -25 6 -27 5 -14 -8z"/>
<path d="M1998 679 c14 -32 27 -57 30 -55 8 9 -29 104 -42 109 -9 4 -5 -14 12
-54z"/>
<path d="M2928 674 c-51 -26 -63 -40 -25 -28 18 6 15 -1 -18 -38 -82 -92 -96
-111 -78 -104 10 4 -1 -10 -25 -30 -23 -20 -62 -56 -86 -80 -25 -24 -47 -44
-51 -44 -13 0 -60 -42 -55 -48 3 -4 -7 -8 -22 -10 -16 -2 -28 -7 -28 -12 0
-13 -137 -230 -164 -259 -14 -16 -16 -22 -6 -19 8 2 29 27 47 54 44 69 126
174 136 174 4 0 -17 -33 -47 -74 -61 -83 -102 -156 -86 -156 6 0 32 34 58 76
70 113 164 226 205 250 21 11 35 23 32 26 -3 3 2 11 12 19 15 12 16 12 10 -3
-3 -10 -2 -18 3 -18 16 0 22 21 9 36 -10 12 -6 20 23 47 19 17 51 45 71 60 20
15 44 42 52 60 l16 32 -21 -28 c-12 -15 -31 -32 -43 -39 -14 -7 -6 7 22 40 42
51 59 65 46 40 -4 -7 3 -2 14 11 12 12 18 27 15 32 -3 5 -2 9 3 8 22 -3 53 15
53 32 0 25 -15 23 -72 -7z"/>
<path d="M1981 625 c1 -22 0 -47 -2 -55 -3 -10 2 -14 14 -12 10 2 17 -3 17
-13 0 -8 5 -15 11 -15 5 0 7 -4 4 -10 -3 -5 -1 -10 5 -10 6 0 8 -4 5 -10 -3
-5 -1 -10 5 -10 8 0 9 7 5 18 -4 9 -15 41 -25 69 -29 83 -40 96 -39 48z"/>
<path d="M905 623 c-8 -10 -37 -47 -65 -83 -77 -98 -139 -159 -182 -181 -49
-25 -49 -32 0 -13 48 20 58 28 117 99 28 33 64 76 82 95 17 19 40 44 50 56 10
11 27 26 38 32 19 11 19 11 -3 12 -12 0 -29 -8 -37 -17z"/>
<path d="M1331 578 c-1 -41 3 -68 9 -68 7 0 10 -28 10 -72 -1 -60 26 -224 29
-180 1 7 6 10 11 7 13 -8 12 8 -5 80 -19 77 -19 78 6 72 12 -3 19 -1 16 6 -2
6 -12 14 -23 17 -15 4 -19 15 -21 60 -2 30 -9 75 -17 100 l-14 45 -1 -67z"/>
<path d="M2439 533 c-52 -54 -101 -107 -109 -118 -23 -31 59 44 120 110 30 33
58 62 63 63 7 4 30 42 24 42 -1 0 -46 -44 -98 -97z"/>
<path d="M2045 563 c4 -10 16 -43 28 -73 11 -30 22 -49 25 -42 2 7 0 20 -4 30
-4 9 -8 19 -9 22 -7 24 -35 80 -41 80 -3 0 -3 -8 1 -17z"/>
<path d="M557 510 c-15 -16 -22 -30 -16 -30 5 0 7 -5 3 -12 -5 -7 -3 -8 5 -4
7 5 10 10 7 13 -3 4 2 13 12 22 15 14 27 41 19 41 -2 0 -16 -13 -30 -30z"/>
<path d="M1411 535 c0 -5 24 -57 54 -115 30 -58 54 -100 54 -95 0 6 -24 57
-54 115 -30 58 -54 101 -54 95z"/>
<path d="M716 457 c-8 -31 -7 -39 4 -32 20 13 30 43 16 48 -9 4 -16 -3 -20
-16z"/>
<path d="M1817 395 c80 -91 113 -122 113 -109 0 5 -41 50 -92 99 l-92 90 71
-80z"/>
<path d="M653 428 c-29 -33 -57 -78 -51 -84 8 -7 78 77 78 93 0 18 -3 17 -27
-9z"/>
<path d="M407 360 c-42 -44 -113 -105 -157 -137 -43 -31 -77 -59 -75 -61 7 -7
176 111 186 130 5 10 15 18 20 18 6 0 21 12 33 27 36 45 78 103 74 102 -1 0
-38 -36 -81 -79z"/>
<path d="M1467 343 c52 -115 157 -322 161 -318 2 1 -11 32 -29 66 -26 54 -28
61 -10 45 30 -27 26 -9 -7 28 -15 17 -52 82 -82 143 -62 127 -87 153 -33 36z"/>
<path d="M2169 418 c-6 -12 -3 -95 4 -91 4 2 7 25 6 49 -2 38 -5 51 -10 42z"/>
<path d="M2553 386 c-15 -13 -39 -27 -53 -31 -14 -4 -50 -21 -80 -38 -30 -18
-58 -31 -62 -29 -5 1 -8 -3 -8 -8 0 -14 9 -13 76 10 32 12 69 18 82 15 17 -4
24 0 32 20 5 14 14 25 20 25 6 0 27 7 47 15 30 13 33 17 23 30 -18 22 -44 19
-77 -9z"/>
<path d="M2288 273 c-18 -16 -39 -34 -46 -41 -8 -7 -26 -19 -40 -26 -15 -8
-43 -31 -62 -51 -35 -37 -35 -38 -5 -19 34 21 195 153 195 159 0 9 -9 4 -42
-22z"/>
<path d="M2470 250 c-12 -16 -29 -30 -39 -30 -10 0 -26 -9 -36 -20 -10 -11
-23 -19 -28 -17 -6 2 -24 -10 -41 -25 -20 -19 -37 -26 -49 -22 -14 5 -33 -8
-72 -50 -30 -31 -69 -63 -87 -71 l-33 -14 35 -1 c29 0 44 9 92 57 58 58 88 73
88 46 0 -11 10 -7 35 13 92 76 118 91 91 52 -24 -34 -19 -45 6 -12 12 16 37
45 56 66 19 20 31 41 28 47 -11 18 -23 13 -46 -19z"/>
<path d="M2352 251 c-30 -10 -61 -27 -70 -36 -14 -16 -11 -15 19 2 20 12 55
24 78 28 22 4 43 11 47 16 8 14 -15 10 -74 -10z"/>
<path d="M481 205 c-51 -22 -59 -45 -8 -26 14 5 27 8 30 5 2 -3 12 7 21 21 9
14 15 24 14 24 -2 -1 -27 -11 -57 -24z"/>
<path d="M1385 200 c12 -60 37 -142 41 -137 5 5 -35 159 -43 167 -3 3 -2 -11
2 -30z"/>
<path d="M2099 80 c-23 -22 -35 -40 -27 -40 16 0 88 57 88 71 0 19 -21 8 -61
-31z"/>
<path d="M2310 60 c-22 -33 -38 -60 -36 -60 3 0 24 27 46 60 22 33 38 60 36
60 -3 0 -24 -27 -46 -60z"/>
<path d="M70 74 l-45 -12 52 -1 c43 -1 51 2 47 14 -4 8 -7 14 -8 14 0 -1 -21
-7 -46 -15z"/>
<path d="M796 23 c-20 -10 -46 -14 -83 -11 -29 3 -53 1 -53 -4 0 -4 30 -8 66
-8 51 0 72 5 91 20 30 24 20 26 -21 3z"/>
<path d="M176 23 c-4 -5 -47 -11 -94 -14 l-87 -6 96 -1 c78 -2 98 1 103 13 6
16 -5 20 -18 8z"/>
<path d="M340 20 c0 -5 -20 -7 -49 -3 -28 3 -56 1 -67 -6 -15 -8 4 -10 81 -9
55 1 90 4 78 6 -13 2 -23 8 -23 13 0 5 -4 9 -10 9 -5 0 -10 -4 -10 -10z"/>
<path d="M527 23 c-16 -15 -4 -20 53 -22 40 -1 60 2 60 10 0 8 -15 10 -45 7
-25 -3 -45 -2 -45 3 0 11 -14 12 -23 2z"/>
<path d="M930 21 c0 -5 -20 -6 -45 -3 -31 3 -45 1 -45 -7 0 -8 19 -11 59 -10
45 2 58 5 54 16 -6 14 -23 18 -23 4z"/>
<path d="M1047 23 c-4 -3 -24 -9 -44 -13 -30 -6 -23 -7 35 -7 41 0 72 4 72 9
0 6 -11 7 -26 4 -17 -5 -23 -3 -19 4 7 11 -8 14 -18 3z"/>
<path d="M1994 13 c-16 -12 -15 -13 14 -13 20 0 32 5 32 13 0 8 -6 14 -14 14
-7 0 -22 -6 -32 -14z"/>
<path d="M440 10 c-34 -7 -34 -7 13 -9 26 0 47 4 47 9 0 11 -8 11 -60 0z"/>
</g>
</svg>
