<?xml version="1.0" standalone="no"?>
<!DOCTYPE svg PUBLIC "-//W3C//DTD SVG 20010904//EN"
 "http://www.w3.org/TR/2001/REC-SVG-20010904/DTD/svg10.dtd">
<svg version="1.0" xmlns="http://www.w3.org/2000/svg"
 width="300.000000pt" height="438.000000pt" viewBox="0 0 300.000000 438.000000"
 preserveAspectRatio="xMidYMid meet">
<metadata>
Created by potrace 1.10, written by Peter Selinger 2001-2011
</metadata>
<g transform="translate(0.000000,438.000000) scale(0.100000,-0.100000)"
fill="#000000" stroke="none">
<path d="M1382 4338 c-26 -24 -49 -46 -52 -49 -3 -3 -13 -8 -22 -12 -10 -3
-18 -11 -18 -16 0 -15 72 26 112 65 34 32 47 54 33 54 -3 0 -27 -19 -53 -42z"/>
<path d="M2434 4278 c2 -24 -27 -138 -35 -138 -13 0 -11 -15 12 -102 12 -43
25 -76 29 -73 5 3 7 13 5 23 -24 121 -26 169 -11 227 19 69 19 75 7 75 -5 0
-8 -6 -7 -12z"/>
<path d="M2541 4234 c-1 -6 -12 -27 -25 -47 -22 -31 -23 -38 -10 -54 10 -13
13 -14 9 -2 -4 9 9 30 30 52 22 23 30 37 21 37 -8 0 -17 6 -19 13 -3 7 -6 8
-6 1z"/>
<path d="M2538 4081 c9 -16 20 -27 25 -24 5 3 7 -3 3 -13 -3 -11 -1 -26 5 -34
8 -11 9 -9 4 9 -6 18 5 11 44 -30 28 -29 53 -50 56 -47 3 3 -16 28 -42 54 -26
27 -59 64 -73 82 -31 40 -45 42 -22 3z"/>
<path d="M970 3980 c-11 -7 -12 -12 -3 -21 13 -13 33 -4 33 17 0 16 -9 18 -30
4z"/>
<path d="M2321 3965 c0 -6 9 -28 20 -50 l19 -40 -5 35 c-5 30 -36 81 -34 55z"/>
<path d="M2250 3946 c0 -13 33 -76 54 -105 14 -19 26 -38 26 -42 0 -5 11 -25
25 -45 14 -20 25 -49 25 -65 0 -15 -11 -45 -25 -65 -18 -27 -25 -50 -25 -85 0
-52 -18 -73 -106 -125 -53 -31 -64 -49 -80 -134 -7 -36 -15 -76 -19 -90 -7
-24 -7 -25 8 -4 9 11 21 49 27 85 16 93 19 100 51 113 17 7 54 28 84 47 l54
34 1 62 c0 51 4 67 25 91 27 32 45 92 27 92 -6 0 -14 9 -17 21 -4 11 -34 65
-67 120 -53 88 -68 109 -68 95z"/>
<path d="M2416 3880 c7 -85 21 -135 39 -150 26 -22 29 -2 7 44 -12 24 -22 54
-22 67 0 13 -7 42 -15 64 l-15 40 6 -65z"/>
<path d="M2780 3761 c0 -12 7 -29 15 -37 13 -14 15 -13 15 3 0 10 -7 27 -15
37 -15 19 -15 19 -15 -3z"/>
<path d="M2501 3563 c-13 -29 -27 -53 -32 -53 -5 0 -9 -7 -9 -15 0 -25 13 -17
43 25 19 26 27 49 25 68 -3 25 -6 22 -27 -25z"/>
<path d="M1020 3576 c0 -2 20 -16 43 -30 24 -13 60 -45 80 -69 22 -27 65 -60
104 -82 38 -21 84 -50 104 -66 l36 -28 79 39 c114 56 192 67 292 40 47 -13 92
-33 115 -51 31 -25 37 -27 37 -12 -1 18 -76 57 -163 83 -53 16 -171 14 -222
-5 -77 -28 -105 -42 -105 -52 0 -6 -9 -15 -21 -18 -16 -5 -30 2 -59 34 -21 23
-42 41 -46 41 -18 0 -113 69 -157 113 -26 27 -51 47 -54 43 -3 -3 -11 -2 -17
3 -13 10 -46 22 -46 17z"/>
<path d="M2751 3529 c0 -25 -10 -63 -20 -85 -22 -45 -39 -129 -22 -104 6 8 11
23 11 33 0 10 11 42 24 70 19 42 22 60 16 92 l-8 40 -1 -46z"/>
<path d="M1046 3513 c20 -21 44 -54 54 -73 l18 -35 -27 -2 c-82 -4 -100 -8
-88 -15 17 -11 67 -10 67 2 0 6 7 10 15 10 8 0 15 -4 15 -10 0 -5 13 -10 29
-10 29 0 30 1 19 30 -12 35 -107 140 -126 140 -7 0 3 -17 24 -37z"/>
<path d="M2967 3453 c15 -29 29 -46 31 -38 2 8 -1 20 -7 27 -6 7 -20 24 -31
38 -15 18 -12 9 7 -27z"/>
<path d="M2452 3401 c-11 -7 -11 -9 2 -14 19 -7 46 1 46 14 0 11 -31 11 -48 0z"/>
<path d="M2429 3362 c-19 -19 -42 -92 -29 -92 5 0 14 17 20 38 7 20 19 45 28
55 19 22 2 21 -19 -1z"/>
<path d="M930 3360 c0 -16 87 -107 125 -130 46 -28 140 -59 154 -51 7 5 1 17
-19 36 -16 16 -30 34 -30 40 0 6 -13 24 -30 40 -16 15 -27 33 -23 38 3 6 1 7
-4 4 -6 -4 -14 1 -18 11 -7 16 -8 15 -15 -3 -5 -11 -9 -31 -9 -44 -1 -23 0
-23 12 -7 12 17 15 16 32 -10 11 -16 18 -32 17 -36 -1 -5 3 -8 8 -8 6 0 10 -4
10 -9 0 -13 -54 0 -67 16 -6 8 -16 12 -22 8 -6 -3 -11 0 -11 8 0 8 -11 18 -24
21 -13 3 -32 18 -42 33 -24 38 -44 57 -44 43z"/>
<path d="M1008 3355 c17 -8 32 -20 33 -27 0 -7 4 -4 8 7 9 22 -7 33 -49 34
-23 0 -22 -1 8 -14z"/>
<path d="M1770 3341 l55 -30 -37 -1 c-20 0 -40 -5 -43 -10 -7 -12 -57 -2 -67
14 -5 6 -8 1 -8 -11 0 -18 6 -23 26 -23 21 0 25 -4 21 -20 -3 -11 -1 -20 4
-20 5 0 9 7 9 16 0 24 61 45 101 34 19 -6 40 -10 48 -10 28 0 -20 39 -73 59
-87 33 -93 33 -36 2z"/>
<path d="M1199 3323 c28 -55 88 -110 103 -95 8 8 7 17 -6 36 -9 14 -20 25 -24
23 -4 -1 -8 2 -9 6 -2 16 -57 67 -70 67 -10 0 -9 -9 6 -37z"/>
<path d="M1618 3336 c-62 -15 -71 -26 -11 -15 26 5 52 14 57 19 6 6 8 9 6 9
-3 -1 -26 -6 -52 -13z"/>
<path d="M1618 3296 c-21 -11 -40 -27 -43 -35 -4 -10 1 -10 19 3 14 9 34 16
46 16 13 0 20 7 20 20 0 11 -1 20 -2 19 -2 -1 -20 -11 -40 -23z"/>
<path d="M1499 3291 c-13 -11 -21 -22 -17 -26 4 -4 21 4 38 19 36 30 15 37
-21 7z"/>
<path d="M1930 3289 c0 -11 8 -33 19 -47 10 -15 35 -60 56 -101 35 -71 76
-120 83 -100 2 5 12 9 23 9 21 0 27 34 7 46 -6 4 -8 3 -5 -3 4 -6 -1 -14 -10
-17 -26 -10 -55 26 -109 133 -49 100 -64 119 -64 80z"/>
<path d="M983 3259 c9 -6 15 -14 12 -18 -2 -5 2 -14 10 -21 8 -7 15 -16 15
-21 0 -13 -117 -11 -143 2 -21 10 -21 10 -3 -5 11 -9 38 -16 60 -16 23 -1 73
-7 111 -14 39 -8 71 -13 73 -11 2 1 -19 19 -45 38 -27 19 -57 45 -67 56 -11
12 -24 21 -30 21 -6 0 -3 -5 7 -11z"/>
<path d="M1420 3245 c0 -2 24 -17 53 -31 28 -15 63 -36 77 -47 l25 -20 -37 6
c-21 3 -38 2 -38 -4 0 -5 -6 -9 -14 -9 -30 0 -72 -35 -89 -73 -23 -54 -14 -60
12 -8 20 37 75 80 88 67 3 -3 -6 -23 -20 -43 -46 -69 -119 -233 -111 -251 6
-14 9 -11 14 13 5 22 9 26 14 15 3 -9 6 -25 5 -35 -4 -39 1 -56 13 -49 8 5 9
2 5 -10 -4 -10 -3 -15 3 -11 6 3 10 2 10 -4 0 -5 -4 -13 -10 -16 -15 -9 -12
-28 4 -22 10 4 12 0 9 -14 -5 -16 -1 -20 13 -17 13 2 20 -4 22 -20 2 -12 12
-27 23 -32 31 -17 23 -25 -38 -38 -60 -13 -92 -27 -82 -37 3 -3 23 2 44 11 26
11 41 12 48 5 8 -8 17 -5 33 10 l22 21 36 -24 c20 -13 35 -30 34 -38 -2 -8
-41 -36 -88 -62 -47 -25 -98 -54 -113 -63 -28 -16 -28 -16 -17 4 6 12 8 21 6
21 -3 0 -12 -13 -21 -30 -9 -16 -22 -30 -30 -30 -19 0 -19 2 6 44 19 32 19 37
5 42 -9 3 -23 4 -31 0 -20 -7 -19 -1 2 24 27 31 50 24 44 -12 0 -5 8 -8 19 -8
11 0 20 5 20 10 0 6 -6 10 -14 10 -15 0 -26 21 -26 52 0 17 -3 18 -15 8 -8 -7
-15 -18 -15 -25 0 -15 -55 -59 -97 -77 -15 -7 -41 -25 -56 -40 -22 -22 -26
-31 -18 -45 9 -16 10 -16 11 -2 0 9 7 22 15 29 13 11 15 8 15 -18 0 -17 -4
-32 -10 -34 -5 -2 -6 -9 -1 -17 5 -8 16 -11 25 -8 13 5 15 11 6 26 -9 18 -6
21 29 32 24 7 50 8 68 3 27 -7 26 -8 -19 -17 -61 -13 -62 -26 -3 -19 42 4 45
3 45 -19 0 -19 2 -21 10 -9 5 8 7 25 4 37 -6 23 -6 23 69 38 14 3 17 -1 12
-13 -3 -9 -9 -29 -12 -44 -5 -23 -12 -29 -59 -38 -46 -10 -60 -19 -92 -56 -79
-94 -87 -139 -53 -293 19 -85 19 -85 -4 -190 -12 -59 -34 -146 -49 -196 -31
-106 -30 -95 -10 -95 9 0 18 -9 21 -20 3 -11 9 -17 14 -14 5 3 12 -2 15 -10 4
-10 -6 -30 -24 -51 -34 -38 -48 -88 -38 -137 7 -38 47 -119 55 -114 3 2 7 -6
8 -17 2 -30 56 -144 60 -130 2 6 -3 26 -12 43 -9 18 -12 30 -7 26 5 -3 15 -20
22 -37 13 -30 15 -31 59 -24 25 4 83 16 129 26 51 12 96 17 117 13 20 -3 35
-2 35 3 0 5 15 8 33 6 21 -3 28 -1 19 5 -16 11 49 30 113 34 37 3 43 7 72 58
36 59 41 94 18 124 -21 28 -30 13 -10 -17 15 -24 15 -28 -1 -59 -35 -70 -55
-90 -80 -84 -14 4 -55 -3 -92 -14 -56 -17 -212 -48 -340 -67 -40 -6 -57 7 -85
66 -12 25 -31 61 -44 80 -12 18 -26 55 -29 82 -4 27 -10 46 -15 43 -14 -8 -11
10 11 60 12 25 26 46 31 46 6 0 18 -18 27 -41 21 -55 61 -72 111 -47 39 20 51
13 51 -32 0 -36 36 -90 60 -90 11 0 52 13 92 29 40 15 97 36 127 46 29 9 65
23 79 31 14 7 28 11 31 9 3 -2 6 7 6 20 l0 23 -40 -22 c-22 -11 -42 -24 -43
-29 -2 -4 -7 -5 -12 -2 -10 6 -129 -35 -193 -66 -29 -14 -50 -19 -55 -13 -5 5
-19 47 -31 94 -13 47 -43 146 -68 220 -24 74 -42 142 -40 150 3 12 -5 15 -34
15 -21 0 -44 6 -51 13 -10 10 -5 11 22 7 19 -3 29 -3 23 1 -14 6 -17 51 -7 78
3 9 14 16 23 16 12 0 13 -2 3 -8 -9 -6 -11 -21 -6 -50 12 -78 24 -42 22 66 -2
100 -1 112 25 164 15 31 42 67 60 81 37 28 131 76 200 102 26 10 47 22 47 27
0 5 5 6 10 3 21 -13 8 -24 -55 -45 -36 -12 -63 -25 -60 -29 6 -11 -44 -33 -58
-25 -7 4 -9 3 -4 -1 4 -5 -8 -25 -27 -44 -19 -20 -46 -54 -61 -76 -16 -22 -25
-32 -21 -22 3 10 6 25 6 32 0 8 14 31 32 52 30 35 30 36 4 13 -32 -28 -73
-109 -60 -119 5 -3 10 -67 11 -141 1 -130 3 -138 38 -230 21 -52 48 -135 61
-185 21 -84 34 -95 15 -13 -5 20 -5 40 -1 45 4 4 10 24 14 43 5 34 5 34 -8 -5
-9 -27 -16 -35 -20 -25 -17 44 -46 135 -46 147 0 8 -6 21 -14 29 -13 13 -18
41 -31 174 l-4 45 16 -32 c9 -18 21 -33 25 -33 5 0 6 -5 2 -12 -4 -6 -3 -8 3
-5 6 4 32 -25 58 -63 27 -39 50 -68 53 -65 2 2 -10 22 -27 43 -39 51 -40 61 0
28 17 -14 35 -26 40 -26 6 0 21 -24 34 -52 28 -59 34 -50 9 12 -10 26 -28 47
-46 56 -49 25 -120 96 -139 139 -22 48 -24 116 -5 154 13 24 76 81 90 81 3 0
1 -12 -4 -26 -11 -28 -14 -143 -4 -168 14 -36 26 -14 19 33 -6 43 -3 56 20 95
30 51 28 73 -7 78 -20 3 -16 7 27 33 28 16 56 35 63 42 7 7 26 13 42 13 34 0
56 -27 89 -112 24 -59 51 -94 51 -66 0 8 -25 57 -56 107 -30 51 -54 95 -51 97
2 2 28 -31 57 -74 30 -42 58 -79 62 -80 4 -2 6 -8 3 -12 -3 -5 -1 -11 5 -15
20 -12 9 19 -27 79 -21 33 -38 67 -40 75 -1 8 -10 21 -19 30 -17 15 -17 15 -5
-2 8 -9 11 -20 8 -23 -2 -3 -18 13 -33 36 -49 69 -57 79 -44 52 21 -43 3 -34
-29 14 -33 50 -40 74 -17 55 10 -8 15 -9 18 -1 2 6 11 8 21 5 9 -4 15 -11 12
-15 -7 -11 30 -72 38 -64 3 3 14 3 25 0 17 -6 50 -70 56 -111 1 -8 6 -18 11
-22 4 -4 5 -2 1 5 -4 6 -4 12 1 12 4 -1 36 -36 70 -79 34 -43 68 -78 77 -78
17 0 12 9 -32 59 -33 36 -67 178 -43 178 5 0 12 -28 16 -61 6 -55 12 -66 46
-98 25 -23 40 -47 42 -66 5 -38 34 -85 54 -85 11 0 9 8 -9 32 -12 18 -21 43
-19 57 1 13 -5 39 -16 58 -13 25 -15 36 -6 41 7 5 -5 14 -33 26 -33 13 -44 23
-44 39 0 14 3 18 8 10 4 -6 21 -19 37 -27 27 -14 30 -14 36 1 4 13 -6 23 -44
40 -54 25 -55 38 -1 38 23 0 33 -4 29 -12 -2 -7 4 -17 14 -23 14 -7 23 -5 36
10 16 18 17 20 2 20 -10 0 -26 9 -37 20 -17 17 -21 17 -28 4 -7 -12 -14 -13
-35 -5 -15 6 -27 15 -27 21 0 7 6 8 19 0 25 -13 44 -13 39 1 -2 6 -6 9 -9 7
-3 -2 -13 5 -23 15 -15 15 -21 16 -34 5 -9 -7 -13 -8 -9 -2 3 6 0 11 -7 11 -8
0 -12 -6 -9 -14 3 -7 9 -13 14 -13 5 0 9 -8 9 -17 0 -14 -3 -14 -22 4 -19 17
-96 53 -113 53 -3 0 -5 -9 -5 -20 0 -12 7 -20 18 -20 9 -1 33 -9 52 -19 32
-18 35 -23 35 -65 0 -54 -16 -60 -33 -13 -16 43 -50 80 -89 96 -32 13 -43 34
-43 84 0 33 -5 33 -76 2 -66 -29 -93 -33 -74 -11 6 8 21 16 33 18 19 3 20 4 4
20 -15 15 -15 18 -2 32 19 19 19 30 0 22 -9 -3 -19 3 -26 16 -10 18 -9 20 5
15 9 -4 15 -1 13 6 -1 7 12 13 33 15 19 2 41 8 47 14 10 8 13 4 13 -16 0 -22
-13 -51 -37 -85 -1 -2 -9 2 -17 8 -10 9 -16 9 -21 1 -14 -22 10 -29 43 -13 35
17 39 28 47 113 2 30 9 73 14 95 6 22 11 60 11 84 0 36 -2 41 -14 32 -10 -8
-12 -21 -7 -44 33 -144 -139 13 -203 186 -14 37 -21 65 -16 62 5 -3 21 1 34
10 20 13 29 14 47 5 17 -10 19 -14 8 -21 -11 -7 -11 -9 -1 -9 21 0 25 30 7 50
-12 14 -31 20 -58 20 -33 0 -38 2 -27 14 6 8 24 17 38 19 26 4 26 4 5 12 -30
10 -29 12 10 54 17 19 24 29 15 22 -25 -19 -22 2 3 25 12 11 42 21 72 24 46 4
57 2 94 -25 44 -32 53 -45 28 -45 -27 0 -115 -50 -115 -65 0 -20 34 -19 51 1
21 26 86 64 109 64 29 0 60 -35 60 -67 0 -28 -10 -52 -45 -108 -17 -28 -16
-28 13 5 37 41 45 63 40 116 -3 37 -6 40 -68 71 -36 17 -98 61 -139 98 -70 63
-171 122 -171 100z m170 -754 c0 -5 -17 -16 -37 -26 -21 -9 -56 -26 -77 -37
-59 -29 -27 5 39 43 51 29 75 36 75 20z m-324 -65 c-4 -15 -20 -33 -37 -42
l-32 -16 7 29 c4 15 11 29 15 31 5 1 17 9 27 17 24 17 28 13 20 -19z m226 -71
c-6 -23 -15 -31 -37 -33 -25 -3 -27 -1 -22 20 4 13 7 28 7 35 0 12 40 23 52
13 4 -3 4 -19 0 -35z m36 -92 c15 -4 15 -3 2 6 -13 9 -13 11 1 11 9 0 30 -23
47 -50 l32 -51 -28 -10 c-64 -23 -178 -87 -218 -122 -24 -21 -44 -36 -44 -32
0 23 -30 -23 -40 -63 -7 -26 -17 -52 -22 -58 -4 -6 -6 -18 -2 -27 3 -8 0 -18
-6 -22 -7 -4 -9 11 -7 52 3 42 -1 68 -15 95 -21 42 -23 122 -5 154 17 31 85
104 96 104 5 0 11 -4 13 -9 2 -5 28 1 58 15 53 23 85 25 138 7z m-240 -433 c2
-24 -2 -30 -17 -30 -11 0 -23 5 -26 10 -3 6 -2 10 3 10 5 0 12 9 15 20 8 30
22 24 25 -10z m-9 -187 c5 -10 6 -66 2 -128 l-6 -110 -23 91 c-16 62 -21 103
-17 128 8 39 28 47 44 19z m-36 -167 c35 -122 46 -129 48 -33 0 29 4 72 8 97
7 43 8 44 16 17 4 -16 5 -62 3 -102 -5 -69 -4 -73 13 -65 10 6 24 10 31 9 7 0
-6 -9 -28 -19 -53 -23 -70 -47 -19 -26 42 18 65 20 65 7 0 -11 -108 -66 -115
-59 -10 10 -85 220 -85 239 0 21 19 63 25 57 3 -2 20 -57 38 -122z"/>
<path d="M1595 3201 c38 -49 80 -93 100 -103 11 -6 4 5 -17 23 -20 19 -51 50
-70 70 -18 19 -24 24 -13 10z"/>
<path d="M2950 3220 c0 -5 9 -15 20 -22 11 -7 20 -16 20 -20 0 -5 -9 -8 -20
-8 -24 0 -25 -8 -4 -31 12 -14 13 -22 4 -39 -6 -12 -9 -25 -5 -28 3 -3 8 4 12
16 3 12 9 22 14 22 5 0 9 22 9 50 0 38 -4 52 -19 60 -24 13 -31 13 -31 0z"/>
<path d="M1800 3213 c0 -13 57 -63 73 -63 6 0 0 8 -13 17 -14 10 -33 27 -42
38 -10 11 -17 15 -18 8z"/>
<path d="M1700 3201 c0 -14 34 -36 149 -96 81 -42 96 -54 96 -74 0 -13 5 -26
12 -28 8 -3 10 7 7 33 -5 43 -8 47 -33 51 -35 5 -166 69 -198 97 -18 15 -33
23 -33 17z"/>
<path d="M1892 3162 c3 -20 17 -32 37 -32 10 0 11 3 2 13 -6 8 -8 16 -6 19 3
3 -3 8 -15 11 -15 4 -20 1 -18 -11z"/>
<path d="M830 3127 l-45 -10 40 -18 c22 -10 49 -18 60 -18 17 0 16 2 -5 11
-24 10 -24 10 -5 18 11 5 27 9 35 9 9 0 7 -4 -5 -8 -15 -6 0 -11 55 -20 41 -7
96 -19 121 -26 55 -16 90 -3 43 16 -16 6 -43 18 -60 25 -28 12 -71 20 -154 28
-19 2 -55 -1 -80 -7z"/>
<path d="M1146 3130 c7 -6 40 -22 75 -35 53 -20 59 -24 34 -25 -26 -1 -28 -2
-11 -11 13 -8 28 -7 58 4 35 14 38 14 27 1 -10 -13 -10 -17 1 -24 20 -12 -29
-33 -137 -60 -51 -12 -97 -28 -104 -36 -9 -11 -8 -14 2 -14 7 0 3 -10 -11 -25
-13 -14 -21 -27 -18 -30 6 -6 44 46 41 57 -2 3 4 9 13 12 8 3 13 2 10 -3 -6
-9 104 26 169 54 l40 17 -20 -22 c-11 -13 -38 -31 -60 -41 -28 -12 -34 -18
-19 -18 11 -1 25 4 31 10 7 7 22 13 35 14 37 4 38 4 38 20 0 8 11 40 25 71 14
31 25 58 25 60 0 10 -70 3 -76 -7 -9 -15 -68 -6 -119 17 -60 27 -61 27 -49 14z"/>
<path d="M750 3087 c0 -2 22 -18 49 -35 47 -31 72 -62 50 -62 -6 0 -7 -5 -3
-11 5 -8 10 -7 16 4 5 9 15 14 23 11 8 -4 12 -10 9 -15 -3 -5 1 -9 8 -9 8 0
22 -10 32 -21 18 -21 18 -22 0 -17 -11 3 -28 9 -39 14 -19 7 -19 7 -2 -13 15
-17 24 -19 51 -13 19 4 43 14 55 22 21 15 21 15 -7 27 -25 10 -26 10 -8 -4 34
-26 -3 -17 -58 14 -28 17 -63 42 -76 56 -33 35 -100 70 -100 52z"/>
<path d="M2830 3082 c0 -5 16 -16 35 -25 28 -14 33 -14 28 -2 -3 10 1 15 13
15 13 0 15 3 7 11 -8 8 -17 8 -31 0 -14 -7 -23 -8 -27 -1 -7 12 -25 13 -25 2z"/>
<path d="M910 3077 c5 -5 161 -47 174 -47 3 0 6 4 6 8 0 8 -55 22 -145 37 -22
4 -38 5 -35 2z"/>
<path d="M2760 3070 c0 -4 11 -13 25 -20 14 -7 25 -20 25 -29 0 -12 3 -12 12
-3 9 9 7 17 -10 35 -21 22 -52 32 -52 17z"/>
<path d="M1804 3036 c30 -27 36 -40 36 -73 0 -22 -7 -60 -15 -83 -19 -55 -13
-62 9 -11 20 43 25 103 13 141 -8 24 -7 24 7 6 9 -11 16 -15 16 -9 0 5 -9 18
-20 28 -11 10 -20 15 -20 10 0 -4 -6 -3 -12 2 -35 27 -45 19 -14 -11z"/>
<path d="M1920 2995 c-1 -50 -38 -137 -73 -171 -48 -47 -100 -154 -104 -213
-10 -171 -13 -193 -33 -226 -17 -27 -18 -33 -5 -31 8 1 19 6 24 12 14 15 61
125 51 119 -10 -6 -35 74 -26 83 3 3 6 -1 6 -10 0 -23 38 -54 51 -41 8 8 3 19
-20 40 -29 27 -57 94 -32 79 7 -4 11 0 11 12 0 29 47 112 86 152 19 19 40 44
48 55 14 19 15 19 29 1 18 -24 51 -17 55 12 2 15 -2 22 -14 22 -13 0 -14 -3
-4 -15 10 -13 9 -15 -8 -15 -29 0 -35 15 -22 56 9 27 15 33 21 23 7 -11 9 -11
9 3 0 32 -19 29 -34 -5 -8 -19 -19 -37 -24 -41 -6 -3 -1 16 11 44 16 39 18 53
9 62 -9 9 -12 8 -12 -7z"/>
<path d="M1638 2955 c-20 -11 -25 -20 -21 -36 6 -21 7 -21 19 -4 8 10 17 16
20 12 4 -3 13 0 21 8 19 20 33 19 33 -1 0 -15 2 -15 22 -2 12 8 24 20 26 26 5
17 -87 15 -120 -3z"/>
<path d="M2710 2960 c0 -5 18 -10 40 -10 42 0 55 -18 20 -27 -33 -9 -23 -21
18 -21 20 0 52 -3 70 -7 21 -5 32 -3 32 4 0 10 -13 15 -32 13 -3 -1 -12 5 -18
13 -7 8 -17 15 -22 15 -5 0 -16 7 -24 15 -17 17 -84 21 -84 5z"/>
<path d="M1303 2919 c-14 -14 -38 -23 -71 -27 -41 -3 -49 -7 -45 -22 2 -9 -8
-31 -22 -48 -23 -28 -24 -32 -8 -32 29 0 46 16 41 38 -6 22 16 32 62 27 14 -1
31 3 39 9 12 9 12 7 1 -14 -7 -14 -22 -38 -34 -55 -16 -24 -17 -27 -2 -16 23
19 52 77 60 124 4 20 5 37 4 37 -2 0 -13 -10 -25 -21z"/>
<path d="M1077 2848 c-19 -29 -41 -59 -51 -67 -13 -11 -14 -16 -4 -22 18 -12
61 -11 54 0 -6 10 59 114 75 119 19 7 8 22 -16 22 -19 0 -32 -12 -58 -52z"/>
<path d="M2107 2870 c-27 -65 -30 -81 -13 -74 11 4 16 0 17 -12 1 -11 5 8 10
41 11 74 6 91 -14 45z"/>
<path d="M175 2846 c-22 -26 -43 -55 -47 -66 -6 -18 -5 -18 12 -7 11 6 20 17
20 24 0 7 4 13 9 13 14 0 53 58 49 72 -2 6 -22 -10 -43 -36z"/>
<path d="M840 2885 c0 -3 7 -13 16 -22 8 -10 26 -31 40 -48 13 -16 24 -25 24
-18 0 6 -5 15 -10 18 -6 4 -17 22 -25 41 -8 19 -21 34 -29 34 -9 0 -16 -2 -16
-5z"/>
<path d="M1747 2813 c-41 -56 -57 -85 -56 -107 0 -29 1 -30 9 -8 6 13 23 42
38 65 29 42 75 127 69 127 -1 0 -29 -35 -60 -77z"/>
<path d="M2890 2830 c19 -17 41 -30 48 -30 8 0 0 13 -19 30 -19 16 -41 30 -49
29 -9 0 -1 -12 20 -29z"/>
<path d="M60 2809 c0 -12 -8 -23 -20 -26 -26 -7 -25 -21 3 -33 12 -5 18 -9 13
-9 -5 -1 -3 -8 4 -16 10 -12 8 -16 -14 -25 -36 -13 -33 -22 7 -15 17 3 38 1
46 -4 24 -15 -5 -41 -48 -42 -27 -1 -30 -3 -11 -6 14 -2 31 -12 37 -21 11 -13
10 -19 -4 -34 -15 -17 -15 -20 -3 -28 11 -7 18 -2 27 20 8 18 22 32 38 35 14
3 36 7 50 10 14 3 25 9 25 14 0 6 -12 6 -31 1 -62 -18 -81 17 -26 51 21 14 25
18 10 14 -30 -8 -90 4 -90 18 0 7 -4 25 -8 41 -6 21 -5 27 4 22 6 -4 11 -1 11
8 0 8 3 21 6 30 4 11 1 16 -10 16 -10 0 -16 -8 -16 -21z"/>
<path d="M1932 2804 c-20 -9 -102 -114 -102 -132 0 -10 6 -5 15 12 21 39 97
107 113 101 7 -3 10 0 7 5 -9 14 9 12 24 -2 11 -11 13 -10 9 2 -5 15 -43 23
-66 14z"/>
<path d="M2640 2790 c14 -11 36 -24 50 -30 14 -6 33 -21 42 -34 17 -23 17 -23
-18 -20 -19 1 -45 9 -57 17 -35 22 -67 27 -67 11 0 -8 7 -17 15 -19 50 -16 48
-14 31 -31 -18 -17 -21 -34 -7 -34 5 0 14 6 20 14 16 19 111 13 146 -10 25
-17 26 -20 20 -76 l-7 -60 28 4 c21 2 30 10 34 28 3 14 14 27 24 28 11 2 28
13 39 23 l21 19 -21 0 c-11 0 -30 -9 -43 -20 -37 -32 -74 -22 -44 11 19 21 11
54 -10 46 -15 -6 -56 32 -56 51 0 7 -5 12 -10 12 -6 0 -30 20 -54 45 -32 33
-52 45 -73 45 l-28 0 25 -20z"/>
<path d="M935 2791 c3 -5 -3 -12 -12 -15 -10 -2 -5 -4 11 -3 34 2 49 27 16 27
-12 0 -19 -4 -15 -9z"/>
<path d="M1300 2768 c-39 -20 -47 -27 -26 -23 27 6 86 40 86 51 0 2 -1 3 -2 3
-2 -1 -28 -15 -58 -31z"/>
<path d="M2749 2776 c15 -16 33 -24 50 -23 23 2 26 -2 29 -33 2 -19 8 -40 13
-47 15 -17 108 -21 114 -5 3 10 -3 12 -21 10 -20 -2 -29 3 -35 20 -10 27 13
42 40 25 13 -8 23 -6 40 8 13 11 21 22 18 26 -4 3 -13 0 -21 -6 -23 -19 -135
-6 -157 18 -18 19 -18 20 4 24 12 2 -5 5 -37 6 l-59 1 22 -24z m139 -79 c2
-11 -3 -17 -17 -17 -23 0 -35 15 -26 31 10 15 39 6 43 -14z"/>
<path d="M1310 2748 c-39 -21 -63 -28 -84 -23 -27 5 -96 -12 -96 -25 0 -3 -10
-16 -21 -30 -16 -20 -20 -21 -15 -6 7 20 7 20 -15 0 -12 -10 -19 -13 -15 -6 4
6 2 12 -4 12 -7 0 -10 -6 -8 -12 3 -7 25 -14 49 -16 37 -2 52 3 87 28 23 16
49 30 57 30 8 0 15 5 15 10 0 6 9 10 20 10 28 0 76 26 83 45 4 8 5 14 4 14 -1
-1 -27 -15 -57 -31z"/>
<path d="M1523 2765 c6 -16 41 -17 62 -1 19 14 17 15 -22 13 -24 -1 -41 -6
-40 -12z"/>
<path d="M2030 2760 c0 -6 11 -15 25 -20 14 -5 26 -15 26 -22 1 -7 3 -20 4
-28 1 -8 3 -22 4 -30 1 -12 3 -13 10 -1 7 11 -1 79 -11 85 -21 14 -58 24 -58
16z"/>
<path d="M2444 2701 c-25 -38 -65 -90 -90 -116 -24 -26 -44 -55 -44 -65 0 -9
14 -38 31 -64 17 -26 29 -49 27 -51 -6 -7 -72 88 -70 101 3 14 -138 -2 -186
-21 -58 -25 -82 -44 -76 -60 5 -11 12 -7 31 15 30 37 52 38 83 5 13 -14 26
-23 28 -20 3 3 -3 12 -14 20 -15 11 -16 15 -4 15 12 0 10 4 -4 15 -11 8 -16
15 -11 15 6 0 41 -23 84 -56 2 -2 -2 -11 -9 -19 -11 -13 -11 -18 0 -28 10 -10
11 -9 5 2 -5 9 -4 12 3 7 7 -4 17 -17 23 -28 10 -18 9 -20 -5 -15 -10 4 -16 1
-16 -8 0 -9 10 -15 26 -15 21 0 25 -4 22 -22 -2 -14 -11 -24 -23 -26 -17 -3
-18 -1 -5 8 13 10 12 11 -3 6 -10 -3 -21 -6 -23 -6 -3 0 -2 -5 2 -12 4 -6 3
-8 -3 -5 -6 4 -40 -7 -76 -23 -35 -17 -88 -33 -116 -37 -52 -6 -81 -23 -40
-23 23 0 174 18 216 26 12 2 27 13 33 25 11 20 11 20 -30 -1 -23 -12 -39 -16
-35 -10 7 11 65 40 80 40 9 0 5 -40 -5 -61 -9 -17 -7 -19 17 -19 39 0 73 -11
73 -22 0 -6 -9 -8 -20 -4 -11 3 -30 8 -42 11 -21 5 -21 4 2 -7 14 -7 33 -23
43 -35 10 -13 25 -29 32 -37 19 -18 45 -84 45 -111 0 -22 17 -35 43 -35 7 0 4
5 -5 11 -10 5 -18 20 -18 32 0 31 -25 99 -33 90 -4 -3 -7 5 -7 19 0 22 4 25
29 24 15 -1 35 -7 43 -13 11 -10 16 -8 25 6 10 16 9 18 -6 14 -11 -3 -22 0
-25 6 -5 7 0 9 11 5 10 -3 7 2 -7 10 -14 8 -30 15 -37 16 -25 0 -67 21 -57 28
6 4 17 42 24 85 12 71 15 77 36 77 13 0 24 -4 24 -10 0 -5 -4 -10 -10 -10 -5
0 -10 -7 -10 -15 0 -18 26 -20 33 -2 4 11 160 -133 158 -147 -1 -3 2 -6 5 -5
3 1 27 -18 52 -42 68 -66 26 -10 -77 101 -50 54 -91 105 -91 113 0 11 -15 17
-54 22 -48 6 -54 10 -59 34 -3 14 -19 46 -36 71 l-29 44 30 38 c16 21 37 44
46 51 10 6 27 32 40 57 13 25 32 60 44 78 38 61 8 32 -38 -37z m-190 -236
c-18 -27 -18 -28 2 -15 28 17 75 -5 88 -43 9 -25 7 -31 -19 -53 -17 -14 -23
-22 -15 -18 8 4 23 14 33 22 9 8 19 13 21 11 2 -2 -3 -43 -12 -92 -12 -65 -20
-86 -30 -82 -8 3 -25 5 -38 5 -22 0 -24 3 -18 28 9 37 21 49 36 34 18 -18 31
-14 25 8 -3 11 -1 18 4 14 5 -3 9 1 9 9 0 10 -8 13 -25 9 -21 -4 -25 0 -25 19
0 12 -16 52 -36 88 -20 36 -33 63 -28 59 4 -5 14 1 22 13 21 30 27 15 6 -16z"/>
<path d="M1907 2726 c-15 -18 -34 -50 -43 -70 -12 -25 -20 -32 -26 -24 -5 8
-8 3 -8 -14 0 -15 5 -30 11 -34 12 -7 119 63 119 79 0 5 -9 2 -20 -8 -40 -37
-67 6 -33 55 21 31 34 40 47 33 5 -3 6 -1 2 5 -11 19 -22 14 -49 -22z"/>
<path d="M2303 2725 l-33 -33 30 11 c17 6 33 20 36 30 9 29 1 27 -33 -8z"/>
<path d="M893 2731 c1 -16 5 -17 24 -8 30 13 29 27 -1 27 -18 0 -24 -5 -23
-19z"/>
<path d="M1999 2727 c16 -20 2 -23 -19 -4 -8 6 -7 3 3 -9 9 -11 14 -24 10 -29
-5 -4 -2 -5 5 -1 8 5 21 0 33 -13 11 -11 34 -28 52 -37 l32 -15 -30 24 c-16
14 -41 34 -55 46 l-25 22 25 -7 c14 -4 27 -11 28 -15 2 -5 8 -7 13 -3 12 7
-14 33 -38 37 -10 1 -25 7 -33 12 -13 8 -13 7 -1 -8z"/>
<path d="M918 2704 c-27 -13 -48 -27 -48 -29 0 -9 74 25 90 40 19 20 13 18
-42 -11z"/>
<path d="M1537 2713 c-15 -14 -5 -18 43 -17 65 2 68 3 50 14 -17 11 -83 13
-93 3z"/>
<path d="M770 2679 c-13 -6 -36 -7 -50 -4 -17 4 -22 3 -15 -4 6 -5 30 -12 55
-15 25 -3 39 -3 32 0 -10 5 -10 9 -1 20 13 16 13 16 -21 3z"/>
<path d="M1200 2639 c-36 -21 -61 -39 -56 -39 12 0 114 59 121 71 8 12 9 13
-65 -32z"/>
<path d="M1325 2639 c-60 -46 -84 -56 -173 -74 -45 -9 -112 -30 -149 -47 l-68
-29 71 5 c40 2 104 16 145 31 41 15 84 27 96 27 13 0 21 3 19 7 -2 3 7 7 20 7
13 1 21 -2 18 -8 -3 -5 12 2 34 16 22 13 56 32 76 40 20 8 36 17 36 20 0 12
-79 -9 -118 -32 -24 -13 -45 -22 -48 -20 -6 7 62 58 70 53 3 -3 4 -2 1 2 -3 3
0 12 6 20 17 20 8 15 -36 -18z"/>
<path d="M1980 2645 c-14 -13 -58 -56 -98 -94 -50 -49 -81 -88 -98 -126 -33
-75 -31 -77 15 -14 21 30 36 58 33 63 -3 5 0 6 6 2 5 -3 19 9 31 26 35 58 130
138 161 138 11 -1 9 -4 -6 -13 -11 -7 -44 -32 -73 -56 -45 -39 -50 -46 -34
-54 27 -15 27 -15 13 -32 -10 -12 -10 -15 4 -15 9 0 16 5 16 10 0 6 12 8 28 4
15 -3 23 -2 17 3 -27 22 -14 33 38 33 37 0 48 -3 37 -10 -12 -8 -12 -10 5 -10
11 0 25 4 31 8 16 10 28 88 15 97 -7 4 -11 -8 -11 -34 0 -39 0 -40 -30 -31
-17 5 -43 5 -61 0 -18 -5 -36 -7 -40 -4 -5 3 -9 -4 -9 -15 0 -12 -4 -21 -10
-21 -5 0 -10 7 -10 15 0 9 -6 12 -15 9 -8 -4 -15 -1 -15 4 0 6 9 14 20 17 11
3 20 10 20 14 0 5 18 21 39 36 28 19 46 25 62 20 15 -5 18 -9 9 -15 -7 -4 -8
-10 -4 -13 5 -3 15 1 22 9 10 11 7 16 -16 28 -16 8 -34 22 -41 30 -17 21 -21
20 -51 -9z"/>
<path d="M1791 2630 c-1 -20 38 -84 46 -76 3 3 -1 14 -10 24 -9 9 -20 29 -26
42 -5 14 -10 18 -10 10z"/>
<path d="M725 2621 c3 -5 -4 -12 -15 -16 -11 -4 -18 -10 -15 -15 3 -5 19 -1
35 8 19 11 25 19 17 24 -17 11 -29 10 -22 -1z"/>
<path d="M1019 2600 c-14 -10 -44 -20 -67 -21 -23 -2 -39 -5 -36 -8 2 -3 -8
-10 -23 -17 -23 -10 -24 -13 -8 -13 41 -1 165 52 165 71 0 11 -1 10 -31 -12z"/>
<path d="M2414 2589 c-13 -22 47 -35 146 -30 34 1 41 4 29 11 -9 5 -35 8 -59
5 -30 -3 -40 0 -37 9 3 8 -7 12 -35 11 -22 0 -42 -3 -44 -6z"/>
<path d="M750 2583 c0 -13 30 -39 30 -27 0 5 5 2 10 -6 6 -10 12 -12 19 -5 7
7 4 14 -9 23 -16 10 -20 10 -20 0 0 -8 -7 -5 -15 6 -8 11 -15 15 -15 9z"/>
<path d="M723 2553 c19 -22 23 -43 7 -43 -5 0 -10 -8 -10 -17 0 -14 4 -12 25
7 14 13 25 26 25 30 0 3 -15 14 -32 25 -33 18 -33 18 -15 -2z"/>
<path d="M2658 2553 c-18 -5 -23 -15 -12 -26 8 -7 54 13 54 25 0 8 -13 9 -42
1z"/>
<path d="M1250 2528 c-19 -12 -57 -30 -85 -40 -37 -13 -43 -17 -24 -18 27 0
113 41 139 66 20 20 10 17 -30 -8z"/>
<path d="M1661 2475 c-1 -41 -7 -82 -16 -99 -18 -35 -19 -32 2 -40 10 -4 14
-4 10 0 -4 4 1 13 11 21 9 8 10 11 2 7 -9 -5 -6 3 7 19 26 33 36 83 24 122 -9
28 -9 29 -11 5 -1 -25 -1 -25 -15 5 -13 29 -13 28 -14 -40z"/>
<path d="M780 2500 c-6 -11 -5 -21 1 -27 7 -7 6 -22 -5 -46 -11 -28 -12 -38
-2 -46 9 -7 12 -2 14 21 3 43 15 54 75 74 29 10 48 19 42 20 -5 2 -34 7 -63
12 -45 8 -54 7 -62 -8z"/>
<path d="M2016 2477 c-3 -12 -20 -33 -37 -46 l-32 -24 6 23 c3 12 3 19 0 16
-4 -3 -13 0 -21 7 -13 10 -14 8 -7 -18 5 -16 9 -43 10 -60 0 -16 7 -41 14 -54
8 -14 11 -40 8 -62 -6 -42 -1 -46 28 -25 15 11 17 21 12 58 -8 55 14 142 43
172 20 22 18 36 -6 36 -6 0 -14 -10 -18 -23z m-23 -89 c-6 -29 -17 -36 -28
-17 -4 5 1 19 11 30 21 24 24 22 17 -13z"/>
<path d="M1870 2477 c0 -10 5 -15 10 -12 15 9 12 -7 -5 -32 -14 -20 -14 -21
10 -9 30 13 30 17 5 47 -17 21 -19 22 -20 6z"/>
<path d="M705 2469 c8 -12 -13 -69 -25 -69 -4 0 -10 -7 -14 -15 -12 -33 36 7
50 40 17 42 17 42 -2 49 -9 3 -12 2 -9 -5z"/>
<path d="M894 2469 c-17 -5 -37 -15 -44 -23 -10 -13 -7 -13 27 -1 21 7 54 18
73 23 l35 10 -30 0 c-16 0 -44 -4 -61 -9z"/>
<path d="M872 2410 c-24 -23 -21 -39 9 -58 23 -15 49 -1 49 24 0 12 -5 11 -25
-2 -15 -10 -25 -12 -25 -5 0 27 55 46 120 39 8 0 26 2 40 6 22 6 23 5 8 -6 -9
-7 -25 -19 -35 -26 -10 -7 -2 -5 17 5 19 9 53 22 75 29 37 12 31 13 -86 13
-112 1 -127 -1 -147 -19z"/>
<path d="M1833 2387 c-2 -4 -1 -17 2 -28 5 -16 4 -19 -5 -14 -8 5 -11 4 -6 -3
3 -6 2 -13 -4 -17 -5 -3 -10 -11 -10 -18 0 -6 7 -2 16 9 15 18 15 18 6 0 -14
-28 -45 -31 -36 -4 4 14 2 19 -7 16 -8 -3 -15 -20 -16 -39 -2 -21 0 -29 6 -21
5 9 17 11 37 6 16 -4 26 -3 22 1 -4 5 -3 14 3 21 6 8 9 20 6 29 -4 10 7 20 38
34 25 11 45 24 45 29 0 11 -90 10 -97 -1z"/>
<path d="M71 2345 c18 -19 35 -33 37 -31 5 6 -50 66 -60 66 -6 0 5 -16 23 -35z"/>
<path d="M718 2375 c-3 -3 8 -20 23 -36 16 -17 27 -34 24 -38 -2 -4 2 -8 10
-8 11 0 10 9 -8 40 -21 40 -38 53 -49 42z"/>
<path d="M1020 2359 c-49 -16 -51 -18 -18 -15 26 3 38 -1 43 -11 4 -12 0 -14
-15 -10 -11 3 -18 1 -14 -4 9 -16 -39 -10 -58 8 -11 9 -18 11 -18 5 0 -7 5
-12 10 -12 21 0 9 -20 -12 -21 -21 -1 -21 -1 3 -9 31 -9 79 -2 79 12 0 5 9 7
19 3 30 -9 91 25 91 51 0 18 -4 21 -21 17 -14 -4 -17 -8 -9 -13 8 -5 5 -12
-11 -24 -30 -20 -53 -3 -23 18 31 23 13 25 -46 5z"/>
<path d="M2640 2370 c-19 -12 102 -12 140 0 18 6 3 8 -50 9 -41 0 -82 -4 -90
-9z"/>
<path d="M795 2360 c-7 -11 19 -65 36 -76 7 -4 7 1 -1 16 -16 29 -11 31 28 10
19 -10 29 -21 23 -25 -6 -3 -11 -11 -11 -17 0 -6 9 -3 20 7 23 21 26 35 8 35
-7 1 -29 14 -48 30 -37 32 -46 35 -55 20z"/>
<path d="M2078 2353 c-16 -16 -16 -18 -1 -35 15 -17 15 -19 -3 -33 -10 -8 -14
-15 -7 -15 6 0 14 4 18 10 3 5 13 6 22 3 13 -5 15 -2 11 15 -9 31 1 27 13 -5
10 -27 11 -27 25 -9 12 18 11 21 -11 36 -14 9 -31 24 -38 34 -11 16 -13 16
-29 -1z"/>
<path d="M2160 2356 c0 -18 17 -29 30 -21 8 5 7 11 -1 21 -15 18 -29 18 -29 0z"/>
<path d="M1891 2304 c-37 -46 -38 -50 -6 -56 19 -4 25 -1 25 13 0 27 11 50 21
43 11 -7 11 7 0 24 -6 10 -16 4 -40 -24z"/>
<path d="M2830 2317 c0 -22 5 -27 25 -27 13 0 28 -6 32 -13 9 -15 65 -37 94
-37 15 0 19 8 19 32 0 25 -3 29 -12 20 -20 -20 -81 -15 -96 9 -7 12 -16 18
-19 15 -4 -3 -15 1 -25 11 -17 15 -18 15 -18 -10z"/>
<path d="M496 2302 c-9 -37 -4 -49 11 -30 5 7 7 24 3 38 -6 24 -7 24 -14 -8z"/>
<path d="M407 2304 c-3 -3 -1 -17 5 -30 9 -19 8 -28 -6 -43 -10 -11 -18 -25
-20 -33 -1 -7 -5 -19 -10 -26 -4 -7 -6 -16 -3 -19 5 -4 31 35 32 48 0 3 8 13
18 23 21 22 21 33 1 53 -13 13 -13 17 -2 24 7 5 8 9 2 9 -6 0 -13 -3 -17 -6z"/>
<path d="M1299 2305 c-3 -2 -38 -7 -78 -10 -40 -3 -81 -10 -91 -15 -10 -6 -32
-10 -49 -10 -16 0 -33 -5 -37 -12 -5 -7 -2 -8 7 -3 35 20 -101 -91 -163 -133
-51 -35 -79 -66 -32 -36 16 10 63 43 104 72 79 57 161 102 182 102 7 0 -2 -8
-20 -17 -18 -8 -30 -18 -27 -21 2 -3 -10 -26 -28 -51 -48 -69 -59 -98 -51
-147 6 -40 4 -45 -35 -83 -23 -23 -50 -41 -59 -41 -35 0 -92 -22 -120 -45 -37
-31 -156 -64 -180 -48 -18 11 -21 43 -8 78 5 12 -4 6 -22 -15 -32 -37 -31 -43
7 -88 l20 -23 58 20 c32 10 83 24 113 31 101 22 121 30 63 25 -29 -2 -53 -2
-53 0 0 13 64 34 118 41 42 4 62 11 62 20 0 7 13 20 29 28 34 18 56 69 41 96
-18 34 -10 60 30 104 23 24 39 49 38 56 -3 11 78 62 160 100 23 10 42 22 42
25 0 6 -15 7 -21 0z"/>
<path d="M894 2259 c-3 -5 0 -9 5 -9 19 0 12 -20 -11 -29 -14 -5 -17 -10 -10
-15 16 -10 71 24 65 40 -6 15 -41 25 -49 13z"/>
<path d="M780 2222 c0 -25 -7 -31 -47 -49 -88 -38 -104 -43 -138 -43 -19 0
-35 -5 -35 -11 0 -14 50 -6 135 21 33 10 86 26 118 35 52 14 56 17 47 36 -10
17 -13 18 -26 4 -17 -17 -34 -12 -34 10 0 8 -4 17 -10 20 -6 4 -10 -6 -10 -23z"/>
<path d="M2425 2214 c40 -59 91 -86 70 -37 -5 10 -7 22 -6 26 1 5 -3 5 -9 2
-7 -4 -21 2 -33 12 -40 36 -48 35 -22 -3z"/>
<path d="M1160 2162 l-74 -68 -6 -65 c-6 -50 -3 -74 12 -112 10 -26 19 -73 20
-105 l2 -57 3 48 4 48 21 -26 c33 -42 32 -22 -2 44 -19 38 -31 78 -32 104 -1
83 27 161 44 120 7 -16 8 -16 5 2 -2 12 15 44 41 78 24 31 41 57 39 57 -2 0
-37 -31 -77 -68z"/>
<path d="M1007 2176 c-36 -24 -80 -55 -97 -70 -43 -36 -145 -91 -205 -110 -51
-16 -263 -64 -322 -73 l-32 -5 27 -34 c15 -19 33 -32 39 -29 17 6 88 -20 124
-45 16 -12 29 -17 29 -12 0 11 -84 72 -99 72 -6 0 -11 5 -11 10 0 14 39 28
102 36 29 4 58 13 63 21 6 8 30 19 55 24 67 15 160 62 221 111 30 24 79 61
109 83 106 76 104 91 -3 21z"/>
<path d="M310 2172 c0 -9 9 -23 20 -30 24 -15 28 2 6 31 -17 22 -26 22 -26 -1z"/>
<path d="M2122 2159 c-24 -22 -33 -38 -30 -54 4 -18 1 -21 -19 -17 -29 6 -52
37 -46 63 7 25 -5 24 -33 -2 l-23 -22 29 -28 c19 -20 39 -29 60 -29 17 0 47
-7 67 -15 51 -21 64 -18 23 6 l-35 20 30 -6 30 -7 -24 21 c-26 23 -36 27 -26
11 3 -5 2 -10 -3 -10 -18 0 -21 29 -6 45 16 15 21 17 88 21 l40 2 -24 -18
c-14 -10 -27 -16 -30 -14 -2 3 2 9 10 14 13 9 13 10 0 10 -8 0 -21 -4 -29 -9
-10 -7 -8 -12 10 -25 20 -14 25 -14 39 -1 9 8 23 15 31 15 8 -1 2 -8 -13 -16
-16 -8 -28 -17 -28 -20 0 -16 23 -44 36 -44 8 0 12 5 9 10 -4 6 -11 8 -16 5
-5 -4 -9 -1 -9 5 0 6 10 15 23 20 12 5 16 9 8 9 -8 1 -12 4 -8 7 3 3 20 -5 37
-17 31 -23 31 -24 11 -40 -11 -9 -17 -20 -13 -23 3 -4 -1 -4 -11 0 -23 8 -22
-9 3 -31 17 -16 20 -16 20 -2 0 9 5 19 11 22 7 5 8 -5 4 -29 -11 -54 1 -43 15
14 12 48 11 53 -14 90 -33 50 -101 100 -135 100 -15 0 -40 -13 -59 -31z"/>
<path d="M255 2090 c-9 -17 -11 -30 -5 -30 5 0 10 5 10 10 0 6 7 10 15 10 17
0 21 25 5 35 -5 3 -16 -8 -25 -25z"/>
<path d="M2640 2116 c0 -12 115 -126 127 -126 7 0 13 -4 13 -10 0 -5 28 -28
63 -51 34 -24 64 -46 65 -51 2 -4 11 -8 19 -8 24 0 1 23 -65 66 -32 20 -71 51
-88 68 -49 50 -134 121 -134 112z"/>
<path d="M2813 2074 l0 -22 33 20 c19 11 34 21 34 22 0 1 -15 2 -34 2 -28 0
-33 -4 -33 -22z"/>
<path d="M1547 2062 c-10 -10 -17 -27 -17 -38 0 -16 3 -15 25 8 25 27 32 48
17 48 -5 0 -16 -8 -25 -18z"/>
<path d="M1980 2065 c0 -20 32 -85 42 -85 4 0 8 -9 8 -20 0 -14 5 -18 18 -14
16 5 16 5 -1 -9 -16 -14 -17 -16 -2 -31 9 -9 21 -14 26 -11 5 4 9 1 9 -5 0 -6
14 -25 30 -42 17 -16 30 -24 30 -18 0 8 13 4 35 -9 37 -21 56 -13 29 13 -15
15 -29 20 -48 17 -4 -1 -17 9 -28 21 -11 13 -23 23 -26 24 -23 3 -40 18 -35
30 3 8 9 11 14 8 5 -3 9 0 9 5 0 6 -4 11 -10 11 -5 0 -22 21 -37 48 -15 26
-31 49 -35 50 -5 2 -6 7 -3 12 3 4 -2 10 -10 14 -9 3 -15 0 -15 -9z"/>
<path d="M2030 2051 c0 -14 10 -18 60 -25 l45 -6 -50 20 c-58 23 -55 23 -55
11z"/>
<path d="M1172 2005 c0 -16 4 -43 8 -60 11 -42 11 -1 1 50 -7 34 -9 35 -9 10z"/>
<path d="M0 2011 c0 -8 126 -31 170 -31 23 0 26 13 7 29 -9 7 -24 8 -44 2 -17
-5 -50 -5 -74 0 -57 11 -59 11 -59 0z"/>
<path d="M2059 2004 c5 -11 16 -26 24 -33 12 -9 16 -7 20 9 3 11 1 20 -4 20
-5 0 -9 -5 -9 -11 0 -6 -9 -1 -21 12 -17 21 -19 21 -10 3z"/>
<path d="M2447 1986 c13 -15 20 -32 17 -37 -3 -5 13 -9 35 -9 49 0 51 6 9 26
-18 8 -44 22 -58 32 l-25 17 22 -29z"/>
<path d="M2612 2002 c-7 -2 1 -14 18 -29 16 -13 36 -22 42 -20 8 3 5 6 -5 6
-10 1 -16 4 -14 9 6 11 -27 39 -41 34z"/>
<path d="M2140 1981 c0 -6 9 -11 19 -11 11 0 28 -3 38 -6 12 -5 15 -4 8 4 -15
16 -65 26 -65 13z"/>
<path d="M0 1966 c0 -12 9 -16 35 -16 22 0 38 -6 41 -15 5 -13 8 -13 21 1 16
16 44 16 44 -1 0 -5 -10 -13 -23 -17 -15 -4 -5 -6 30 -7 46 -1 54 2 61 22 8
19 10 20 16 5 10 -26 75 -25 75 1 0 16 -12 19 -117 25 -65 3 -133 9 -150 12
-26 5 -33 3 -33 -10z"/>
<path d="M2257 1935 c7 -58 9 -63 15 -38 3 10 -1 34 -8 53 -13 35 -13 35 -7
-15z"/>
<path d="M323 1945 c3 -8 87 -9 95 0 2 2 -19 5 -47 6 -30 3 -50 0 -48 -6z"/>
<path d="M1980 1949 c0 -10 22 -40 49 -67 27 -28 52 -59 55 -70 4 -11 13 -23
21 -26 30 -11 14 17 -44 77 -32 34 -63 71 -69 82 -9 16 -11 17 -12 4z"/>
<path d="M2155 1951 c11 -5 29 -12 39 -15 10 -4 16 -9 13 -12 -5 -5 -49 5 -92
22 -18 6 -17 4 4 -19 35 -38 101 -35 101 4 0 13 -7 19 -24 19 -13 0 -33 2 -43
5 -14 4 -13 3 2 -4z"/>
<path d="M1770 1893 c1 -57 1 -57 14 -28 9 21 10 38 3 58 -5 15 -11 27 -13 27
-2 0 -4 -26 -4 -57z"/>
<path d="M2402 1918 c2 -17 11 -24 31 -26 16 -2 36 -10 45 -18 9 -7 26 -21 37
-30 16 -13 17 -15 3 -10 -10 3 -26 9 -35 12 -10 3 8 -9 39 -26 47 -27 60 -40
77 -80 12 -27 21 -54 21 -60 0 -6 6 -21 14 -33 11 -17 12 -48 7 -143 -7 -120
-7 -122 -41 -162 -27 -31 -43 -41 -67 -41 -17 -1 -35 -6 -38 -11 -4 -6 -12 -9
-18 -8 -7 1 -38 -8 -69 -22 -57 -23 -58 -25 -58 -63 0 -27 -9 -53 -30 -83 -16
-24 -25 -44 -20 -44 5 0 17 14 27 30 9 17 21 30 25 30 4 0 13 18 19 41 13 43
47 73 95 85 73 18 133 53 160 94 24 36 28 54 34 148 6 105 -9 207 -32 223 -5
3 -8 10 -7 15 1 5 -3 21 -11 36 -10 22 -11 30 0 43 21 25 51 17 92 -24 21 -22
38 -37 38 -33 0 3 8 -3 19 -14 21 -22 54 -50 136 -118 33 -27 66 -56 72 -64 7
-9 16 -13 20 -9 10 11 -23 42 -147 142 -63 51 -126 104 -138 118 l-24 25 21
21 c42 42 9 40 -54 -4 -35 -25 -69 -45 -76 -45 -7 0 -9 3 -6 7 4 3 0 14 -9 24
-22 24 -8 42 26 35 15 -3 45 0 66 6 l39 12 -45 7 c-25 4 -84 4 -131 1 -59 -3
-88 -1 -93 7 -4 6 -1 11 9 11 9 0 13 5 10 10 -12 20 -36 11 -33 -12z"/>
<path d="M1823 1923 c-7 -3 -13 -10 -13 -17 0 -16 37 -18 44 -1 5 15 -12 25
-31 18z"/>
<path d="M1020 1881 c-14 -29 -27 -41 -43 -41 -41 0 -52 -17 -14 -22 32 -3 36
-1 62 45 15 27 25 51 22 54 -3 3 -15 -13 -27 -36z"/>
<path d="M1316 1842 c-14 -109 0 -203 54 -353 27 -75 56 -168 65 -208 9 -40
20 -70 23 -69 12 6 106 49 132 61 29 12 27 11 63 21 15 5 27 12 27 18 0 5 4 7
9 3 5 -3 12 -1 16 5 4 6 10 8 15 5 5 -3 11 -1 14 3 21 34 -204 -50 -255 -94
-15 -13 -17 -9 -28 47 -7 34 -35 125 -63 203 -49 137 -51 145 -57 281 -6 133
-7 137 -15 77z"/>
<path d="M216 1840 c27 -28 51 -45 53 -39 2 6 -2 16 -8 22 -18 18 -13 27 12
18 12 -5 21 -14 19 -20 -3 -16 25 -13 31 3 7 18 -1 26 -27 26 -12 0 -36 9 -54
20 -18 11 -42 20 -54 20 -17 0 -13 -8 28 -50z"/>
<path d="M1863 1876 c2 -6 0 -26 -5 -44 -7 -25 -5 -39 9 -62 9 -17 23 -30 30
-30 7 0 13 -6 13 -13 0 -7 10 -14 23 -15 58 -6 81 -17 70 -35 -3 -7 3 -4 14 6
30 26 33 17 24 -80 -1 -6 -8 -19 -17 -27 -21 -21 3 -22 33 -1 17 12 23 27 25
68 l3 52 -45 23 c-25 12 -62 25 -83 28 -53 9 -109 79 -78 98 5 3 14 -1 21 -10
11 -12 15 -12 22 -2 6 9 7 6 3 -9 -5 -18 -1 -23 22 -28 15 -4 41 -11 57 -16
16 -5 31 -9 32 -9 8 0 3 41 -8 65 -11 25 -17 26 -63 8 -6 -2 -32 7 -58 21 -26
13 -46 19 -44 12z"/>
<path d="M106 1873 c-7 -7 53 -63 67 -63 4 0 7 -5 7 -11 0 -6 14 -22 30 -36
29 -24 30 -26 28 -110 -2 -65 -7 -88 -18 -93 -8 -4 -27 -13 -42 -21 -43 -19
-24 -24 38 -9 54 13 56 14 50 43 -3 16 -6 65 -6 107 l0 78 -43 44 c-47 47
-100 81 -111 71z"/>
<path d="M1377 1864 c-18 -18 71 -133 106 -135 6 0 25 -2 40 -3 16 -1 31 2 33
6 5 8 -20 13 -40 9 -25 -5 -57 11 -54 27 2 11 -3 16 -13 14 -9 -1 -21 9 -27
23 -14 31 -10 31 24 0 26 -24 82 -36 69 -15 -3 6 -17 10 -31 10 -18 0 -31 10
-45 35 -19 32 -46 45 -62 29z"/>
<path d="M367 1823 c5 -36 11 -47 49 -101 9 -12 14 -25 11 -28 -3 -4 -20 17
-37 45 -18 28 -33 51 -34 51 -1 0 -2 -10 -2 -21 0 -13 23 -43 56 -75 31 -31
46 -52 35 -48 -11 3 -35 23 -53 43 l-33 36 15 -32 c19 -38 57 -66 83 -61 19 3
26 37 8 39 -5 1 -17 16 -25 34 -9 19 -24 43 -34 54 -13 14 -17 31 -14 55 3 24
-1 37 -10 41 -21 8 -21 7 -15 -32z"/>
<path d="M1807 1815 c-4 -27 -1 -56 7 -76 l13 -31 7 25 c3 14 8 33 11 44 3 10
-2 5 -10 -12 -14 -26 -15 -27 -10 -5 16 71 17 87 2 93 -11 4 -16 -5 -20 -38z"/>
<path d="M428 1819 c-10 -5 -18 -18 -18 -28 0 -21 63 -81 85 -81 19 0 19 5 -1
35 -30 46 -4 49 42 4 33 -33 47 -40 56 -31 15 15 0 32 -60 70 -58 37 -82 44
-104 31z"/>
<path d="M1057 1823 c-16 -15 -5 -46 27 -76 18 -18 36 -39 39 -47 3 -8 6 -3 6
13 1 17 -4 27 -14 27 -21 0 -48 46 -42 70 5 20 -3 26 -16 13z"/>
<path d="M1751 1784 c-7 -27 -19 -69 -27 -94 -8 -25 -18 -66 -22 -92 -9 -46
-9 -46 21 -52 16 -3 43 -6 60 -6 24 0 28 3 19 12 -6 6 -29 12 -52 12 -50 0
-50 3 -6 132 19 59 30 107 26 118 -5 15 -10 8 -19 -30z"/>
<path d="M991 1775 c4 -36 43 -82 85 -100 25 -10 32 -20 38 -53 7 -46 -6 -90
-30 -99 -12 -4 -13 -8 -3 -14 7 -4 14 -20 17 -36 2 -15 5 -29 6 -31 7 -6 36
142 36 182 0 39 -3 44 -52 76 -29 19 -63 51 -76 70 l-24 35 3 -30z"/>
<path d="M2424 1768 c24 -82 8 -133 -55 -176 -41 -28 -122 -28 -153 1 -21 18
-36 22 -36 10 0 -23 22 -83 29 -79 4 3 23 -11 41 -32 18 -20 38 -37 44 -37 6
-1 27 -5 47 -9 55 -12 134 25 159 75 26 50 35 111 22 149 -13 35 -79 120 -94
120 -6 0 -7 -10 -4 -22z m79 -160 c-1 -59 -27 -104 -75 -129 -68 -35 -129 -18
-167 46 -11 20 -21 37 -21 39 0 1 26 0 58 -2 55 -4 60 -2 102 33 29 24 50 52
59 78 l14 40 15 -29 c8 -16 15 -50 15 -76z"/>
<path d="M40 1751 c-17 -33 -11 -49 21 -60 38 -13 39 -13 39 -3 0 4 -10 12
-22 17 -17 7 -22 18 -21 38 2 32 -2 34 -17 8z"/>
<path d="M661 1739 c-19 -7 -21 -12 -11 -24 10 -13 17 -12 51 5 21 11 39 23
39 25 0 8 -54 4 -79 -6z"/>
<path d="M272 1675 c-2 -64 8 -125 20 -125 5 0 6 10 2 23 -4 12 -10 51 -14 87
-7 63 -7 64 -8 15z"/>
<path d="M322 1684 c14 -25 24 -32 31 -25 8 8 4 18 -13 36 -34 36 -43 31 -18
-11z"/>
<path d="M2110 1705 c7 -8 9 -15 4 -15 -4 0 7 -11 26 -25 29 -21 50 -25 50 -9
0 3 -4 3 -9 0 -5 -3 -12 1 -15 10 -6 16 -7 16 54 -21 19 -12 44 -25 55 -29 45
-16 -26 36 -107 79 -55 29 -77 33 -58 10z"/>
<path d="M2887 1686 c23 -20 53 -35 76 -39 20 -3 37 -4 37 -1 0 4 -136 74
-145 74 -3 0 12 -15 32 -34z"/>
<path d="M625 1690 c4 -14 13 -31 20 -38 10 -11 12 -9 8 12 -3 14 -12 31 -21
38 -13 11 -14 10 -7 -12z"/>
<path d="M582 1676 c-6 -14 -27 -43 -47 -64 -31 -35 -33 -40 -16 -45 14 -3 17
0 14 12 -5 21 22 47 32 31 3 -5 14 -10 23 -10 14 0 13 2 -2 13 -17 13 -17 15
-1 46 9 18 15 35 12 37 -2 2 -9 -7 -15 -20z"/>
<path d="M1806 1677 c-3 -15 -10 -26 -14 -23 -4 2 -8 -11 -9 -29 -1 -29 2 -34
29 -39 17 -3 40 -6 52 -6 19 1 19 2 3 11 -9 5 -21 8 -26 4 -5 -3 -12 -1 -16 5
-4 6 -11 8 -16 5 -12 -8 -11 32 2 56 6 11 9 25 6 32 -2 7 -7 -1 -11 -16z"/>
<path d="M761 1661 c-34 -18 -34 -18 -8 -18 14 0 34 8 43 18 21 24 9 24 -35 0z"/>
<path d="M1915 1610 c12 -24 20 -30 23 -20 2 8 12 24 21 34 15 18 15 18 -7 7
-19 -10 -27 -10 -39 1 -13 11 -13 7 2 -22z"/>
<path d="M1575 1600 c8 -15 22 -58 31 -96 9 -38 20 -72 24 -77 3 -4 24 6 45
23 21 16 42 30 48 30 16 0 -10 -25 -58 -56 -42 -26 -57 -44 -36 -44 18 0 121
102 114 113 -4 6 0 8 8 5 8 -3 23 0 34 8 18 13 18 14 -4 14 -13 0 -51 -20 -85
-44 l-62 -44 -13 61 c-7 34 -19 74 -27 89 -21 41 -17 45 14 12 15 -17 21 -23
15 -14 -18 24 -16 27 17 28 20 0 30 -4 30 -14 0 -8 -6 -14 -12 -14 -9 0 -10
-3 -2 -8 6 -4 14 -14 17 -22 3 -9 6 -6 6 10 1 14 4 34 7 45 5 18 0 20 -60 21
l-65 1 14 -27z"/>
<path d="M985 1614 c-6 -2 -9 -19 -7 -38 2 -18 -1 -49 -6 -68 -11 -39 0 -74
12 -41 15 37 23 103 14 109 -5 3 -6 14 -3 25 4 10 5 19 3 18 -2 0 -8 -3 -13
-5z"/>
<path d="M332 1598 c-23 -23 -13 -37 22 -36 34 1 34 1 18 24 -20 27 -24 28
-40 12z"/>
<path d="M654 1599 c-3 -6 -3 -13 0 -16 3 -4 6 -2 6 4 0 5 14 8 30 5 17 -2 28
-7 26 -10 -7 -6 64 -57 79 -57 14 0 45 -65 45 -95 0 -15 -15 -40 -40 -65 -27
-28 -37 -44 -31 -54 7 -11 14 -9 36 13 42 42 58 89 45 136 -12 45 -60 104 -99
124 -38 19 -89 27 -97 15z"/>
<path d="M445 1559 c-16 -4 -57 -13 -89 -19 -69 -14 -59 -27 21 -29 30 0 63
-6 74 -12 17 -8 23 -7 35 8 16 22 16 24 1 44 -9 11 -20 13 -42 8z"/>
<path d="M677 1563 c-8 -13 1 -43 13 -43 4 0 10 -9 13 -21 5 -17 9 -19 26 -9
26 13 28 30 3 23 -20 -5 -38 12 -44 42 -2 13 -6 16 -11 8z"/>
<path d="M2042 1552 c-16 -11 -62 -138 -62 -174 0 -15 -7 -33 -15 -41 -21 -21
-7 -29 21 -11 17 11 22 23 20 42 -2 15 -1 21 1 13 3 -8 22 21 44 65 21 43 43
85 49 92 8 9 7 12 -3 12 -13 0 -44 -56 -40 -71 1 -4 -7 -15 -18 -25 -20 -18
-20 -18 1 36 12 30 24 58 26 62 7 10 -7 10 -24 0z"/>
<path d="M541 1531 c-9 -17 -9 -20 3 -15 9 3 20 -3 28 -15 7 -12 20 -21 28
-21 12 1 12 3 -2 14 -10 7 -15 15 -13 18 3 3 -4 13 -14 22 -19 17 -20 17 -30
-3z"/>
<path d="M872 1525 c-1 -11 4 -40 12 -64 11 -39 13 -42 19 -21 4 15 1 30 -7
40 -8 8 -16 26 -19 40 -3 19 -5 20 -5 5z"/>
<path d="M181 1504 c-71 -16 -87 -23 -50 -25 13 -1 31 -2 39 -3 8 -1 30 4 49
11 25 10 37 10 47 2 18 -15 18 -39 1 -39 -7 0 -22 -7 -33 -16 -18 -15 -18 -15
3 -5 12 6 35 11 52 11 36 0 36 -1 14 45 -19 40 -24 40 -122 19z"/>
<path d="M630 1518 c0 -2 11 -19 25 -38 13 -18 22 -37 19 -41 -3 -5 0 -9 5 -9
6 0 17 -15 25 -34 8 -18 18 -36 24 -40 13 -8 22 30 15 65 -4 22 0 33 18 49 18
15 20 19 8 20 -9 0 -23 -8 -33 -19 -13 -15 -15 -24 -6 -46 6 -15 8 -30 5 -33
-3 -3 -5 -1 -5 4 0 5 -16 34 -35 64 -19 30 -35 51 -35 46 0 -5 -7 -3 -15 4 -8
7 -15 11 -15 8z"/>
<path d="M2105 1466 c-4 -24 -4 -58 0 -75 4 -21 3 -31 -5 -31 -7 0 -9 -8 -5
-21 4 -12 3 -19 -2 -16 -5 3 -37 -2 -72 -12 -65 -18 -65 -31 -1 -31 16 0 31
-6 33 -12 3 -7 6 -1 6 14 1 15 6 30 12 33 17 11 19 1 9 -35 -11 -40 -3 -58 16
-33 9 12 13 13 14 5 0 -7 5 -10 10 -7 24 15 7 -30 -21 -56 -34 -32 -33 -35 6
-17 21 10 28 9 35 -2 7 -11 11 -11 24 -1 22 18 20 31 -4 31 -13 0 -18 5 -14
15 4 8 -1 27 -11 41 -12 19 -15 37 -11 63 5 25 4 32 -3 21 -10 -14 -8 42 4
138 6 49 -13 38 -20 -12z"/>
<path d="M406 1423 l-16 -58 29 -27 c16 -14 27 -29 23 -33 -4 -3 1 -3 10 0 9
4 19 16 22 28 8 32 7 37 -7 31 -33 -12 -44 40 -22 99 5 11 2 17 -8 17 -9 0
-20 -21 -31 -57z"/>
<path d="M496 1471 c-7 -10 36 -41 57 -41 27 0 27 14 0 32 -31 20 -49 23 -57
9z"/>
<path d="M610 1465 c0 -12 44 -75 52 -75 4 0 -4 17 -18 37 -30 45 -34 49 -34
38z"/>
<path d="M993 1448 c-13 -6 -29 -31 -40 -60 -12 -34 -31 -60 -62 -86 -25 -20
-50 -36 -55 -34 -18 6 -81 -30 -105 -59 -27 -35 -21 -51 10 -23 21 19 70 49
161 98 44 24 54 37 63 86 2 12 16 37 30 56 14 19 25 34 23 33 -2 0 -13 -5 -25
-11z"/>
<path d="M344 1439 c-3 -6 -2 -14 4 -18 5 -3 11 -14 13 -24 3 -13 7 -7 15 17
10 32 9 36 -7 36 -10 0 -21 -5 -25 -11z"/>
<path d="M2182 1415 c21 -49 31 -60 73 -79 22 -10 51 -29 65 -42 25 -23 25
-23 50 -4 l25 20 -28 0 c-43 0 -121 45 -161 92 -32 38 -35 40 -24 13z"/>
<path d="M2542 1373 c-23 -29 -39 -53 -34 -53 9 0 27 20 61 68 38 53 20 43
-27 -15z"/>
<path d="M247 1410 c-16 -5 -36 -6 -45 -3 -12 4 -14 3 -7 -5 6 -6 35 -12 65
-14 l55 -3 -55 -27 c-61 -30 -58 -36 9 -12 74 25 83 32 71 54 -11 21 -44 25
-93 10z"/>
<path d="M586 1361 c-16 -18 -16 -18 9 -18 18 0 25 5 25 18 0 11 -4 19 -8 19
-5 0 -17 -8 -26 -19z"/>
<path d="M851 1339 c-6 -18 -11 -33 -11 -35 0 -1 9 0 20 3 16 4 19 11 13 32
-8 36 -9 36 -22 0z"/>
<path d="M670 1325 c-14 -36 -13 -36 15 -23 29 13 31 21 10 38 -12 10 -16 8
-25 -15z"/>
<path d="M1640 1337 c-94 -42 -110 -50 -107 -53 2 -3 37 11 78 30 41 19 70 35
64 35 -5 0 -21 -5 -35 -12z"/>
<path d="M616 1311 c-32 -35 -70 -45 -104 -27 -17 9 -36 16 -42 16 -21 0 1
-20 38 -36 45 -18 111 -5 131 28 18 28 -1 44 -23 19z"/>
<path d="M1068 1312 c-16 -9 -28 -20 -28 -24 0 -10 69 25 70 35 0 11 -12 8
-42 -11z"/>
<path d="M228 1263 c-10 -2 -18 -9 -18 -15 0 -6 9 -8 19 -5 12 3 22 -1 25 -10
9 -23 7 -33 -6 -33 -14 0 -60 -51 -53 -58 3 -3 15 4 28 16 13 12 28 22 33 22
14 0 54 43 54 58 0 7 -12 17 -26 22 -26 10 -28 11 -56 3z"/>
<path d="M615 1198 c-19 -29 -35 -63 -35 -75 0 -12 -8 -38 -17 -58 -9 -19 -14
-38 -10 -41 7 -8 37 20 37 35 0 5 9 16 19 23 13 10 17 18 11 28 -11 18 0 36
11 19 6 -9 7 -3 3 16 -4 24 0 35 20 54 35 33 53 23 25 -14 -18 -24 -14 -22 19
10 23 21 42 43 42 47 0 4 -20 8 -45 8 -43 0 -46 -2 -80 -52z"/>
<path d="M1027 1224 c-10 -13 -23 -22 -28 -18 -5 3 -8 0 -7 -8 2 -7 -3 -12
-10 -10 -8 1 -11 -2 -8 -7 4 -5 -12 -20 -33 -32 -25 -14 -44 -34 -51 -52 -17
-51 -11 -52 27 -7 21 24 42 47 48 51 50 38 87 78 84 91 -3 13 -7 12 -22 -8z"/>
<path d="M2292 1207 c-13 -14 -19 -27 -15 -30 11 -7 45 31 41 44 -2 6 -14 -1
-26 -14z"/>
<path d="M1071 1200 c-1 -14 29 -84 65 -155 36 -72 63 -119 59 -105 -4 14 -23
56 -41 93 -19 37 -31 73 -28 79 5 7 2 8 -6 3 -9 -6 -10 -1 -5 16 4 17 3 20 -3
10 -8 -10 -14 -2 -25 35 -11 35 -15 42 -16 24z"/>
<path d="M2218 1208 c-9 -7 -24 -26 -34 -43 -18 -28 -18 -29 -1 -22 49 19 65
19 70 0 3 -10 5 3 6 30 1 49 -10 59 -41 35z"/>
<path d="M311 1159 c-23 -25 -36 -76 -15 -58 8 6 14 18 14 26 0 19 25 44 35
35 5 -4 5 -1 1 6 -10 16 -12 16 -35 -9z"/>
<path d="M371 1136 c-1 -55 12 -53 24 3 5 22 4 31 -3 27 -6 -3 -13 0 -15 6 -3
7 -6 -9 -6 -36z"/>
<path d="M1051 1159 c-1 -15 16 -51 39 -85 l40 -59 -38 -7 c-73 -15 -152 -20
-152 -9 0 18 37 31 69 25 23 -5 31 -3 31 7 -1 20 -48 75 -56 66 -4 -4 1 -14
12 -21 23 -18 14 -29 -39 -46 -27 -8 -37 -17 -35 -28 3 -14 15 -17 68 -16 36
1 81 5 100 9 34 7 36 5 57 -38 l22 -45 -67 -7 c-209 -22 -344 -59 -522 -142
-123 -58 -198 -85 -245 -86 -51 -1 -33 -14 60 -43 97 -30 133 -27 60 6 l-50
22 34 14 c18 8 43 16 55 18 11 2 60 24 109 49 124 63 204 92 220 79 8 -7 18
-7 27 -2 32 21 33 8 2 -21 -54 -50 -28 -46 29 5 29 26 68 50 92 57 61 16 157
30 167 24 5 -3 12 0 16 6 4 8 9 7 15 -2 17 -27 8 -48 -50 -127 -64 -86 -85
-121 -78 -129 3 -2 17 18 33 46 35 66 41 60 10 -10 -14 -30 -34 -99 -45 -154
-14 -70 -36 -136 -74 -220 -30 -66 -62 -144 -71 -174 -15 -52 -13 -101 5 -101
11 0 23 66 14 80 -4 6 -2 16 3 23 5 7 22 41 37 77 15 36 44 101 65 145 39 82
53 132 55 197 1 23 24 81 65 161 l65 126 -28 84 c-15 47 -45 112 -67 146 -22
33 -44 75 -49 93 -9 31 -9 31 -10 7z"/>
<path d="M1130 1160 c0 -4 18 -46 40 -95 22 -50 43 -112 47 -140 5 -41 8 -46
13 -25 4 14 1 43 -5 65 -11 37 -93 207 -95 195z"/>
<path d="M428 1123 c-14 -16 -28 -36 -32 -46 -11 -33 -41 -16 -46 28 -4 30 -7
35 -13 22 -11 -29 -8 -49 11 -63 23 -18 47 -17 62 1 7 9 21 13 31 10 16 -5 19
-1 19 26 0 27 2 30 15 19 8 -7 15 -25 15 -40 0 -27 37 -86 48 -76 2 3 -1 13
-9 22 -7 9 -12 32 -11 51 3 39 -20 73 -48 73 -9 0 -28 -12 -42 -27z"/>
<path d="M1949 1067 c-14 -40 -14 -47 3 -93 l18 -49 -5 51 c-3 28 -1 62 3 75
8 21 14 14 56 -71 44 -92 57 -111 35 -53 -13 34 -10 31 35 -34 46 -67 66 -144
67 -258 0 -87 14 -200 19 -160 1 11 1 63 0 115 -1 83 -5 127 -14 192 -3 26
-150 267 -158 261 -7 -4 -12 12 -9 30 0 4 -3 7 -9 7 -5 0 -10 7 -10 15 0 29
-15 15 -31 -28z"/>
<path d="M1868 1070 c2 -16 1 -46 -2 -66 -6 -29 -10 -33 -21 -24 -11 9 -12 17
-5 30 15 27 13 47 -2 32 -7 -7 -25 -12 -40 -12 -25 0 -27 -2 -17 -22 5 -13 27
-35 49 -50 l38 -28 9 73 c9 72 7 97 -6 97 -4 0 -6 -13 -3 -30z"/>
<path d="M2784 1038 c-16 -24 -31 -45 -34 -48 -3 -3 -6 -11 -8 -19 -4 -17 -63
-107 -89 -136 -10 -11 -33 -39 -52 -63 -18 -23 -58 -68 -89 -100 -62 -64 -109
-121 -103 -125 2 -1 -1 -13 -8 -27 -13 -25 -13 -25 6 -5 48 49 195 217 252
289 50 63 171 276 157 276 -2 0 -16 -19 -32 -42z"/>
<path d="M1535 985 c-88 -18 -185 -36 -216 -40 -52 -6 -57 -9 -62 -33 -6 -33
2 -44 10 -14 5 21 13 24 75 37 9 1 19 -2 22 -9 3 -7 5 -7 5 2 1 7 14 12 32 12
17 0 55 7 85 16 30 8 60 14 67 11 6 -2 20 0 30 5 12 6 17 5 17 -4 0 -9 2 -10
8 -2 4 7 33 17 64 24 58 12 88 31 46 29 -13 -1 -95 -16 -183 -34z"/>
<path d="M1670 941 c-30 -10 -68 -26 -85 -35 -17 -9 -53 -16 -82 -16 -48 0
-166 -20 -205 -35 -10 -4 -18 -12 -18 -17 0 -6 7 -8 15 -4 8 3 15 4 15 2 0
-16 35 -185 50 -241 11 -38 50 -131 88 -205 38 -74 72 -144 75 -155 4 -18 5
-18 6 3 0 12 -30 84 -69 160 -66 131 -102 239 -125 377 -3 22 -8 47 -11 56 -2
9 1 16 8 17 7 0 33 6 58 12 l45 11 53 -56 c29 -32 63 -78 75 -104 12 -25 25
-44 29 -41 3 3 14 -2 24 -11 27 -23 83 -51 93 -45 16 10 248 -68 262 -88 4 -5
15 -6 24 -2 10 3 15 10 11 13 -11 12 -123 52 -216 79 -47 13 -107 33 -133 45
-27 11 -52 18 -55 15 -5 -5 -62 89 -62 103 0 3 16 -10 35 -29 24 -24 31 -36
23 -41 -18 -11 -6 -19 19 -13 20 6 20 8 -13 36 -39 35 -39 48 0 23 14 -10 26
-13 26 -8 0 5 -15 17 -32 27 -18 10 -51 35 -72 55 -39 36 -41 26 -3 -16 11
-13 18 -25 16 -28 -3 -2 -24 18 -47 44 l-41 49 57 -15 c31 -8 95 -33 142 -55
77 -37 191 -78 215 -78 31 0 -139 78 -275 126 -53 19 -59 23 -34 23 17 1 34 4
38 8 3 4 14 8 24 10 9 1 43 11 74 21 49 16 62 17 94 6 20 -7 44 -20 53 -30 14
-15 13 -15 -12 1 -15 10 -30 15 -33 12 -9 -8 38 -31 69 -33 18 -1 27 3 27 13
0 8 -4 12 -9 8 -5 -3 -13 0 -17 6 -8 14 -104 59 -124 58 -8 0 -40 -8 -70 -18z"/>
<path d="M1898 910 c-1 -28 0 -50 5 -50 4 0 7 23 7 50 0 65 -7 65 -12 0z"/>
<path d="M2960 898 c-32 -56 -158 -195 -205 -226 -11 -7 -14 -10 -7 -7 6 3 12
1 12 -6 0 -15 8 -8 100 82 82 81 101 104 124 156 30 67 14 68 -24 1z"/>
<path d="M1070 940 c-24 -8 -24 -8 5 -8 17 0 39 3 50 8 18 8 18 9 -5 8 -14 0
-36 -4 -50 -8z"/>
<path d="M1455 920 c-60 -15 -105 -28 -98 -29 6 0 51 8 99 20 48 11 95 18 106
16 10 -3 16 -1 13 3 -3 5 1 11 7 13 33 14 -26 3 -127 -23z"/>
<path d="M1927 872 c-8 -75 -10 -82 -25 -70 -11 9 -10 5 3 -14 34 -46 40 -40
37 36 -5 125 -7 133 -15 48z"/>
<path d="M764 886 c-28 -13 -54 -29 -58 -35 -6 -8 109 43 123 55 11 10 -19 1
-65 -20z"/>
<path d="M1074 804 c-33 -43 -66 -101 -78 -137 -17 -48 -29 -65 -51 -77 -62
-31 -105 -61 -102 -71 1 -6 -4 -14 -12 -17 -9 -3 -11 0 -6 8 5 9 4 11 -4 6 -6
-4 -9 -11 -6 -16 7 -12 -56 -44 -115 -60 -25 -6 -92 -30 -150 -52 -97 -38
-111 -47 -191 -123 -99 -95 -144 -115 -279 -125 l-85 -7 79 -1 c74 -2 182 21
238 49 26 13 27 12 17 -33 -11 -50 -29 -67 -65 -60 -35 6 -74 -16 -73 -42 1
-18 2 -19 6 -3 4 14 12 18 29 14 13 -2 25 1 28 7 3 8 7 7 14 -2 5 -7 16 -10
25 -6 12 4 17 1 17 -11 0 -9 5 -13 10 -10 6 3 10 16 10 29 0 37 55 183 83 219
32 43 149 100 270 132 48 13 87 21 87 17 0 -4 -13 -16 -29 -27 -17 -11 -28
-21 -26 -23 8 -8 74 44 70 56 -3 7 0 10 5 7 6 -4 25 6 43 22 18 15 54 41 80
57 58 37 54 44 -9 17 -26 -12 -49 -19 -52 -16 -3 3 25 18 61 35 37 17 67 31
67 33 0 1 9 27 20 57 28 76 109 193 125 180 9 -7 17 -3 29 14 23 36 20 43 -9
16 -25 -23 -37 -16 -13 8 7 7 9 12 5 12 -3 0 -32 -34 -63 -76z"/>
<path d="M1721 857 c60 -41 66 -43 50 -23 -14 17 -63 46 -77 46 -4 0 8 -10 27
-23z"/>
<path d="M1030 834 c-58 -46 -61 -50 -25 -31 25 13 87 68 74 66 -2 0 -24 -16
-49 -35z"/>
<path d="M1452 813 c24 -27 61 -76 82 -111 39 -64 37 -63 297 -245 37 -26 98
-75 137 -109 38 -35 91 -82 118 -104 84 -71 41 -59 -47 13 -150 122 -299 234
-299 224 0 -10 115 -104 265 -215 90 -67 104 -81 89 -89 -12 -7 -23 -6 -37 2
-17 11 -18 10 -12 -18 4 -19 3 -31 -4 -31 -6 0 -24 -13 -41 -30 -17 -16 -35
-30 -39 -30 -5 0 -11 -9 -14 -20 -8 -31 3 -25 74 38 87 77 138 116 177 136 17
9 32 21 32 27 0 15 78 147 111 189 38 48 54 90 34 90 -8 0 -15 -7 -15 -15 0
-8 -6 -15 -14 -15 -9 0 -12 -7 -9 -18 3 -12 -6 -27 -24 -43 -15 -13 -39 -45
-52 -71 -22 -44 -47 -66 -59 -53 -3 3 -8 32 -10 65 -2 33 -8 63 -13 65 -8 6
-5 -28 13 -133 13 -81 5 -90 -15 -15 l-15 58 5 -62 c5 -54 4 -61 -13 -65 -11
-2 -30 7 -44 21 -14 15 -38 34 -53 44 -15 9 -27 24 -27 32 0 8 -4 15 -9 15 -5
0 -54 33 -108 73 -54 40 -125 90 -158 112 -120 76 -174 124 -221 198 -48 75
-101 137 -117 137 -6 0 10 -21 35 -47z"/>
<path d="M618 825 c-26 -14 -50 -30 -53 -36 -8 -12 59 21 90 45 28 22 17 19
-37 -9z"/>
<path d="M1416 788 c33 -35 76 -90 96 -123 26 -43 56 -74 103 -108 37 -27 75
-51 84 -54 23 -7 -46 53 -96 83 -28 17 -55 47 -79 85 -39 65 -139 179 -157
179 -5 0 17 -28 49 -62z"/>
<path d="M1233 821 c-18 -9 -33 -20 -33 -24 -1 -29 -76 -217 -87 -217 -7 0
-13 -4 -13 -10 0 -5 4 -10 8 -10 22 0 44 34 82 133 23 59 46 107 51 107 15 0
29 -73 29 -152 0 -44 -4 -78 -10 -78 -5 0 -7 -7 -3 -16 4 -12 8 -13 14 -3 4 7
7 -72 7 -176 -1 -157 12 -348 21 -310 7 28 -2 121 -12 127 -13 8 5 194 27 291
13 53 11 69 -14 203 -15 80 -30 147 -31 148 -2 2 -19 -4 -36 -13z"/>
<path d="M1345 805 c10 -74 39 -189 43 -175 6 16 -27 179 -40 200 -6 10 -7 1
-3 -25z"/>
<path d="M1962 783 c-2 -42 -3 -43 -43 -49 -33 -6 -38 -9 -25 -16 11 -6 22 -6
31 2 8 6 19 9 25 5 15 -9 22 17 17 61 l-4 39 -1 -42z"/>
<path d="M733 742 c-94 -88 -111 -101 -153 -111 -19 -5 -44 -12 -55 -15 -11
-3 9 -4 44 -2 l63 4 94 96 c51 53 90 96 86 96 -4 -1 -39 -31 -79 -68z"/>
<path d="M1615 798 c10 -6 30 -24 43 -40 26 -31 49 -29 31 3 -6 12 -17 18 -25
15 -9 -3 -12 -1 -9 4 3 6 -6 15 -20 20 -35 13 -45 12 -20 -2z"/>
<path d="M2097 780 c3 -19 7 -113 8 -208 1 -95 5 -175 9 -179 13 -14 5 341
-10 382 -13 39 -14 39 -7 5z"/>
<path d="M2053 715 c0 -38 2 -53 4 -32 2 20 2 52 0 70 -2 17 -4 1 -4 -38z"/>
<path d="M1226 666 c-4 -33 -10 -65 -13 -73 -3 -7 0 -13 5 -13 13 0 25 74 20
116 -3 21 -6 13 -12 -30z"/>
<path d="M1682 710 c2 -7 33 -23 68 -36 61 -23 63 -23 40 -4 -40 33 -115 60
-108 40z"/>
<path d="M1945 699 c-11 -16 2 -51 30 -84 l26 -30 -28 53 c-24 45 -26 54 -13
62 9 6 10 10 3 10 -6 0 -15 -5 -18 -11z"/>
<path d="M2700 691 c-8 -6 -17 -8 -21 -5 -4 2 -22 -3 -40 -11 l-34 -15 40 6
c45 7 108 32 85 33 -8 0 -22 -3 -30 -8z"/>
<path d="M1407 635 c4 -45 12 -65 29 -81 16 -16 24 -18 28 -9 5 14 -12 35 -29
35 -6 0 -12 10 -13 23 -1 12 -7 38 -12 57 -7 28 -8 23 -3 -25z"/>
<path d="M1420 681 c0 -4 9 -20 20 -34 11 -14 19 -29 18 -34 -2 -4 0 -8 3 -8
3 0 13 -6 22 -14 28 -23 19 4 -18 53 -36 46 -45 54 -45 37z"/>
<path d="M2066 634 c-8 -63 -8 -132 2 -137 4 -3 8 37 9 89 1 52 0 94 -1 94 -2
0 -6 -21 -10 -46z"/>
<path d="M647 596 c-31 -36 -57 -67 -57 -70 0 -17 31 -2 51 25 13 17 31 38 39
46 20 22 41 63 31 63 -4 0 -33 -29 -64 -64z"/>
<path d="M2003 619 c9 -13 17 -35 17 -48 0 -18 3 -22 11 -14 12 12 -10 65 -33
79 -6 4 -4 -3 5 -17z"/>
<path d="M1715 602 c13 -14 205 -115 205 -109 0 3 -44 30 -97 59 -108 59 -123
66 -108 50z"/>
<path d="M966 546 c-9 -38 -121 -134 -266 -230 -74 -49 -139 -95 -145 -102 -5
-6 -31 -30 -57 -52 -76 -64 -106 -104 -98 -127 6 -17 11 -13 39 33 32 51 50
69 36 35 -4 -10 -7 -29 -7 -43 0 -14 -2 -19 -5 -12 -5 13 -23 7 -23 -9 0 -14
21 -11 41 7 13 12 22 13 38 5 16 -9 22 -8 29 6 9 15 11 15 26 1 9 -9 16 -22
16 -29 0 -9 4 -8 15 1 8 7 15 18 15 26 0 7 7 20 16 28 14 15 14 16 0 16 -9 0
-16 -7 -16 -15 0 -24 -28 -30 -49 -11 -13 12 -21 14 -26 7 -14 -24 -55 -6 -55
23 0 5 85 89 109 109 13 10 53 37 89 59 37 22 69 44 72 47 17 22 94 69 106 64
8 -3 14 0 14 7 0 17 84 94 88 81 2 -6 -10 -39 -26 -73 -34 -71 -44 -98 -37
-98 3 0 22 35 42 78 36 77 66 176 55 186 -13 13 -30 4 -36 -18z"/>
<path d="M1400 548 c0 -3 17 -37 39 -75 21 -37 61 -115 89 -173 66 -137 177
-313 136 -215 -9 22 -23 60 -30 85 -7 25 -39 79 -70 120 -30 41 -61 89 -68
106 -8 17 -26 50 -41 73 -15 24 -25 52 -22 62 3 11 1 19 -4 19 -5 0 -9 -6 -9
-12 0 -9 -4 -8 -10 2 -5 8 -10 12 -10 8z"/>
<path d="M1126 498 c-4 -24 -14 -88 -22 -143 -14 -96 -28 -151 -61 -242 -12
-34 -21 -43 -39 -43 -37 0 -54 -11 -53 -34 l0 -21 9 21 c12 29 70 32 70 3 0
-11 4 -18 9 -15 5 3 9 16 9 28 0 13 13 66 30 118 17 55 35 140 41 201 6 58 16
120 21 137 5 18 5 32 1 32 -5 0 -12 -19 -15 -42z"/>
<path d="M1827 512 c12 -11 20 -22 17 -25 -4 -4 26 -29 130 -104 17 -13 35
-23 40 -23 6 0 0 8 -14 17 -13 9 -31 24 -40 32 -41 38 -124 107 -139 114 -9 5
-6 0 6 -11z"/>
<path d="M1317 402 c-19 -120 -22 -186 -8 -178 5 4 13 -8 16 -26 4 -18 10 -37
13 -43 3 -5 7 -16 8 -25 6 -35 11 -49 23 -64 17 -21 25 -14 13 11 -21 41 -52
176 -52 229 0 31 5 85 12 121 7 41 8 67 2 73 -6 6 -16 -28 -27 -98z"/>
<path d="M2508 468 c-37 -41 -46 -58 -30 -58 5 0 14 11 20 25 6 14 16 25 21
25 5 0 16 11 25 25 25 38 6 29 -36 -17z"/>
<path d="M2799 467 c-20 -17 -47 -41 -60 -51 -58 -47 -155 -142 -201 -199 -60
-74 -122 -183 -113 -197 4 -7 -134 -10 -425 -10 l-431 0 -46 98 c-25 53 -46
102 -47 107 -2 11 -110 255 -112 252 -1 -1 -4 -29 -7 -62 -3 -33 -3 -51 0 -40
4 14 11 1 24 -45 24 -88 92 -275 96 -263 2 5 -12 61 -31 123 -19 63 -34 116
-32 117 5 5 64 -131 72 -164 4 -15 23 -48 41 -73 l35 -45 -64 -6 c-34 -3 290
-5 722 -5 432 0 658 2 503 3 -257 3 -282 5 -276 20 5 11 3 14 -6 9 -8 -6 -7 2
3 23 9 17 19 31 22 31 2 0 0 -9 -6 -21 -7 -11 -9 -23 -6 -27 3 -3 7 -3 9 -1 1
2 22 29 45 60 23 31 42 61 42 67 0 5 6 12 13 15 6 2 9 7 6 11 -3 4 -25 -13
-49 -36 -32 -32 -38 -35 -22 -13 41 59 222 237 236 232 18 -7 36 12 29 30 -5
12 -1 14 15 9 17 -6 21 -4 16 8 -3 8 7 27 27 45 43 41 24 39 -22 -2z"/>
<path d="M2050 459 c0 -22 31 -112 42 -124 7 -7 8 -3 5 10 -3 11 -11 38 -16
60 -13 48 -31 79 -31 54z"/>
<path d="M563 446 c-48 -13 -91 -46 -60 -46 9 0 17 5 17 10 0 6 6 10 13 11 6
0 30 9 52 19 45 21 39 23 -22 6z"/>
<path d="M2679 413 c-30 -27 -57 -52 -61 -58 -5 -7 -8 -7 -8 0 0 6 -5 2 -11
-8 -20 -35 -4 -25 71 44 84 78 91 95 9 22z"/>
<path d="M1609 407 c18 -26 37 -47 42 -47 6 0 -4 18 -21 40 -45 57 -59 61 -21
7z"/>
<path d="M962 374 c-38 -77 -36 -97 3 -30 22 38 42 96 32 96 -1 0 -17 -30 -35
-66z"/>
<path d="M1512 411 c3 -10 109 -128 180 -202 26 -26 65 -57 87 -69 71 -36 66
-21 -10 29 -76 51 -153 131 -132 138 7 3 -14 25 -45 51 -31 25 -58 49 -60 54
-5 11 -24 10 -20 -1z"/>
<path d="M624 332 c-86 -57 -164 -124 -205 -175 -56 -69 -22 -50 68 39 48 48
115 107 148 132 65 48 70 52 64 52 -2 0 -36 -21 -75 -48z"/>
<path d="M2321 330 c-30 -28 -52 -52 -49 -55 2 -3 15 5 28 18 14 12 27 21 30
21 14 -4 28 9 23 22 -7 20 24 29 45 13 14 -11 13 -9 -2 9 -11 12 -20 22 -20
22 -1 0 -25 -23 -55 -50z"/>
<path d="M815 340 c-18 -20 -18 -20 6 -17 13 2 25 11 27 20 5 23 -11 21 -33
-3z"/>
<path d="M826 254 c-10 -31 -16 -58 -13 -60 2 -2 12 21 22 51 9 31 15 58 13
60 -2 3 -12 -20 -22 -51z"/>
<path d="M1727 291 c-16 -6 -16 -9 -5 -18 7 -6 22 -13 33 -17 11 -3 36 -20 54
-37 19 -17 46 -35 60 -40 l26 -10 -23 23 c-12 14 -22 30 -22 36 0 7 -7 12 -15
12 -8 0 -15 6 -15 13 0 7 -15 19 -32 27 -18 7 -35 15 -38 16 -3 1 -13 -1 -23
-5z"/>
<path d="M903 252 c-26 -44 -27 -52 -13 -52 13 0 42 58 38 77 -2 10 -11 1 -25
-25z"/>
<path d="M1355 260 c1 -14 11 -45 20 -70 9 -25 24 -64 32 -87 9 -24 19 -43 24
-43 5 0 5 8 0 18 -17 32 -51 121 -51 134 -1 7 -7 27 -15 43 -13 27 -14 28 -10
5z"/>
<path d="M1880 225 c0 -4 79 -45 87 -45 14 0 -15 23 -44 35 -39 16 -43 17 -43
10z"/>
<path d="M2350 212 c0 -11 49 -62 61 -62 5 0 -2 12 -16 27 -14 15 -25 31 -25
35 0 5 -4 8 -10 8 -5 0 -10 -3 -10 -8z"/>
<path d="M2755 200 c-3 -5 3 -10 14 -10 12 0 21 -4 21 -10 0 -5 -7 -10 -15
-10 -10 0 -15 -10 -15 -30 0 -28 -2 -30 -40 -30 -41 0 -49 7 -28 28 9 9 9 12
0 12 -19 0 -26 -28 -11 -46 9 -11 30 -15 88 -13 79 2 113 12 110 32 -1 7 1 20
6 30 9 21 -8 46 -19 28 -4 -6 -2 -11 3 -11 6 0 11 -4 11 -10 0 -5 -10 -10 -22
-10 -20 0 -21 -1 -3 -20 18 -19 17 -20 -3 -20 -13 0 -22 8 -25 23 l-4 22 -2
-22 c-1 -17 -7 -23 -26 -23 -29 0 -33 21 -9 44 10 10 25 14 42 11 23 -5 24 -4
7 4 -20 10 -19 10 3 17 12 3 22 10 22 15 0 5 -11 5 -23 0 -14 -6 -30 -6 -38 0
-19 12 -36 11 -44 -1z"/>
<path d="M792 153 c-5 -15 -13 -36 -16 -46 -4 -13 -12 -16 -31 -11 -20 5 -27
2 -34 -17 -4 -13 -6 -30 -3 -38 3 -9 1 -12 -6 -7 -7 4 -12 2 -12 -3 0 -14 6
-14 32 0 15 8 17 13 8 19 -6 4 -10 15 -8 24 3 14 6 14 31 1 31 -16 29 -19 46
55 12 51 8 63 -7 23z"/>
<path d="M2165 155 c-55 -26 -43 -32 20 -10 22 8 48 15 58 15 10 0 15 5 12 10
-9 15 -35 11 -90 -15z"/>
<path d="M849 115 c-20 -46 -20 -48 -3 -64 10 -9 16 -12 12 -8 -3 5 0 31 8 60
17 67 10 72 -17 12z"/>
<path d="M685 90 c-4 -6 -10 -8 -15 -5 -4 3 -14 -3 -21 -12 -8 -10 -9 -14 -2
-10 6 4 16 0 21 -9 8 -15 10 -14 17 2 15 36 15 58 0 34z"/>
<path d="M95 70 l-40 -7 52 -2 c30 0 53 -6 56 -13 4 -8 6 -7 6 3 1 13 -24 34
-32 28 -1 -1 -20 -5 -42 -9z"/>
<path d="M366 35 c-3 -9 -2 -13 4 -10 6 3 10 2 10 -4 0 -7 -68 -12 -192 -14
-106 -1 131 -2 527 -2 396 0 518 1 272 2 -353 3 -447 6 -441 16 5 9 4 9 -7 0
-7 -8 -39 -13 -75 -13 -52 0 -65 4 -77 20 -13 18 -15 19 -21 5z"/>
</g>
</svg>
