<?xml version="1.0" standalone="no"?>
<!DOCTYPE svg PUBLIC "-//W3C//DTD SVG 20010904//EN"
 "http://www.w3.org/TR/2001/REC-SVG-20010904/DTD/svg10.dtd">
<svg version="1.0" xmlns="http://www.w3.org/2000/svg"
 width="300.000000pt" height="300.000000pt" viewBox="0 0 300.000000 300.000000"
 preserveAspectRatio="xMidYMid meet">
<metadata>
Created by potrace 1.10, written by Peter Selinger 2001-2011
</metadata>
<g transform="translate(0.000000,300.000000) scale(0.100000,-0.100000)"
fill="#000000" stroke="none">
<path d="M1335 2970 c3 -14 11 -50 16 -80 14 -78 22 -76 16 4 -4 46 -11 74
-23 85 -15 15 -16 14 -9 -9z"/>
<path d="M2227 2976 c-17 -43 48 -89 144 -102 40 -6 48 -4 53 12 3 11 2 32 -2
49 l-8 30 -12 -33 c-12 -36 -35 -41 -102 -20 -36 12 -40 16 -40 45 0 34 -23
47 -33 19z"/>
<path d="M1870 2971 c0 -19 28 -30 61 -25 25 4 45 0 72 -16 57 -34 68 -17 13
18 -38 25 -61 32 -98 32 -26 0 -48 -4 -48 -9z"/>
<path d="M1582 2954 c2 -15 13 -19 43 -20 22 -1 60 -5 83 -9 43 -8 44 -7 31
14 -8 11 -23 21 -34 21 -11 0 -44 3 -74 7 -48 5 -53 4 -49 -13z"/>
<path d="M2526 2908 c-20 -28 -20 -38 -2 -38 7 0 16 12 19 28 7 36 3 38 -17
10z"/>
<path d="M2183 2883 c-4 -9 -1 -19 5 -21 7 -2 19 -10 27 -19 8 -8 15 -10 15
-5 0 5 -6 15 -14 22 -8 6 -12 18 -9 26 3 8 0 14 -6 14 -7 0 -15 -8 -18 -17z"/>
<path d="M2945 2823 c-16 -19 -29 -25 -60 -24 -49 0 -95 -8 -95 -18 0 -11 119
-10 152 1 22 8 28 16 28 39 0 35 0 34 -25 2z"/>
<path d="M1992 2818 c-15 -19 -26 -104 -14 -112 6 -3 13 15 17 46 8 59 16 68
61 68 36 0 59 -21 52 -48 -3 -11 3 -30 13 -43 23 -29 25 -75 4 -83 -18 -6
-105 3 -120 14 -5 4 -20 1 -33 -5 -29 -16 -8 -35 28 -25 14 3 53 1 87 -6 56
-10 64 -10 78 6 13 14 14 23 6 38 -12 22 -36 93 -45 135 -6 26 -9 27 -65 27
-35 0 -63 -5 -69 -12z"/>
<path d="M1490 2748 c-60 -8 -79 -14 -69 -21 12 -8 180 10 191 21 14 14 -21
15 -122 0z"/>
<path d="M2783 2703 c-7 -2 -13 -9 -13 -14 0 -15 53 -6 58 9 4 12 -21 15 -45
5z"/>
<path d="M2923 2703 c-21 -8 -15 -20 9 -19 12 0 23 7 26 14 4 12 -12 15 -35 5z"/>
<path d="M780 2670 c-36 -3 -75 -11 -87 -18 -12 -6 -34 -9 -50 -6 -15 3 -46 1
-68 -5 -22 -5 -56 -14 -76 -19 -26 -7 -43 -6 -60 4 -13 7 -37 13 -53 14 -37 0
-96 -36 -96 -59 0 -10 -9 -26 -19 -35 -18 -17 -19 -46 -1 -46 4 0 17 20 29 45
31 66 84 85 132 46 l24 -19 -28 -7 c-15 -4 -36 -5 -47 -2 -11 3 -18 1 -15 -4
3 -4 -6 -11 -20 -15 -20 -5 -25 -12 -25 -37 l0 -31 33 31 c54 52 242 122 283
106 7 -2 53 6 104 18 83 20 98 21 168 10 110 -17 296 -113 386 -199 45 -43 47
-44 25 -12 -32 47 -64 74 -126 105 -68 35 -83 52 -51 60 12 3 39 7 58 9 48 5
129 22 165 36 17 6 36 13 43 15 7 3 11 9 8 14 -7 10 -87 -8 -125 -28 -12 -7
-50 -12 -83 -12 -32 0 -71 -4 -85 -10 -20 -7 -30 -6 -43 6 -9 8 -23 15 -32 15
-8 0 -18 3 -22 8 -4 4 -11 7 -14 7 -4 1 -29 5 -57 9 -64 11 -95 12 -175 6z"/>
<path d="M1530 2660 c20 -13 70 -13 70 0 0 6 -19 10 -42 10 -32 0 -39 -3 -28
-10z"/>
<path d="M1655 2644 c11 -8 20 -23 20 -32 0 -11 8 -17 24 -17 36 0 35 17 -2
43 -38 25 -75 31 -42 6z"/>
<path d="M2638 2653 c-19 -5 -33 -33 -21 -43 13 -12 79 -19 93 -10 7 4 9 13 6
19 -11 17 -59 38 -78 34z"/>
<path d="M810 2589 c-25 -5 -54 -6 -65 -3 -14 4 -16 2 -7 -4 9 -6 -10 -19 -66
-45 -43 -20 -85 -43 -92 -52 -10 -12 -3 -10 23 5 60 35 42 8 -21 -32 -84 -54
-102 -74 -102 -111 0 -24 -12 -45 -44 -83 -37 -42 -41 -50 -24 -49 12 1 31 19
48 46 28 45 128 148 190 195 19 14 69 42 110 62 71 34 80 35 187 36 61 1 109
4 105 7 -10 10 -147 39 -174 38 -13 -1 -43 -5 -68 -10z"/>
<path d="M653 2562 c-23 -9 -54 -27 -70 -40 -20 -16 -8 -12 47 14 41 20 77 38
79 40 9 8 -16 2 -56 -14z"/>
<path d="M2107 2555 c-33 -30 -83 -33 -104 -7 -12 15 -13 14 -11 -13 3 -28 5
-30 43 -27 45 4 79 22 95 52 14 25 11 25 -23 -5z"/>
<path d="M501 2522 c10 -16 4 -26 -44 -71 -182 -172 -308 -600 -252 -856 22
-98 61 -210 87 -250 11 -16 43 -51 72 -78 42 -39 48 -49 36 -57 -12 -8 -11
-10 8 -10 12 0 34 -7 48 -16 13 -9 26 -15 28 -13 3 2 -27 40 -65 84 -74 86
-135 179 -145 223 -4 15 -13 32 -21 39 -11 8 -16 54 -22 194 -9 192 -4 234 46
384 13 41 17 46 24 30 7 -17 8 -18 8 -2 1 27 59 136 102 193 25 33 37 57 33
68 -3 9 -1 16 4 16 11 0 112 60 112 67 0 2 -13 -3 -30 -12 -27 -14 -30 -14
-30 0 0 8 11 21 25 27 30 13 32 33 6 48 -31 16 -43 13 -30 -8z"/>
<path d="M950 2510 c-236 -30 -421 -172 -545 -419 -37 -75 -65 -153 -64 -181
0 -8 6 4 14 28 7 23 16 50 21 60 4 9 8 19 9 22 6 23 71 140 93 166 15 18 37
47 50 64 13 16 31 30 41 30 9 0 26 7 38 15 19 13 23 13 37 -1 9 -8 16 -11 16
-5 0 6 -9 20 -19 30 -19 19 -19 20 7 44 23 22 126 87 137 87 1 0 1 -10 -3 -22
-5 -22 -4 -22 22 4 32 32 116 64 116 44 0 -6 -5 -17 -12 -24 -9 -9 -8 -12 4
-12 9 0 18 10 22 23 5 21 9 22 78 19 42 -2 96 -12 128 -24 57 -22 83 -38 62
-38 -7 0 -12 -7 -12 -15 0 -20 17 -19 28 0 7 13 15 10 52 -22 77 -68 128 -139
152 -214 l22 -70 -29 -52 c-15 -29 -31 -54 -34 -57 -4 -3 -15 -24 -25 -47 -12
-28 -25 -43 -37 -43 -19 0 -22 12 -33 109 -11 104 -88 207 -195 261 -65 32
-173 26 -256 -15 -150 -75 -265 -258 -294 -468 -35 -252 110 -470 311 -468 36
0 75 4 89 9 16 7 1 8 -49 4 -84 -6 -144 12 -199 61 -169 149 -183 433 -31 674
67 106 157 172 263 194 152 30 283 -55 330 -215 16 -53 20 -130 7 -124 -4 2
-41 16 -82 32 -41 15 -91 37 -111 47 -69 36 -171 17 -223 -40 -25 -28 -9 -27
23 2 14 12 7 1 -17 -25 -23 -26 -42 -54 -42 -63 0 -8 -5 -15 -11 -15 -5 0 -8
-4 -5 -9 4 -5 1 -11 -5 -13 -6 -2 -9 -15 -7 -28 4 -23 5 -24 12 -5 28 77 110
181 149 190 25 7 62 -5 246 -74 73 -28 137 -51 142 -51 5 0 12 12 15 26 10 38
118 180 193 253 99 97 163 133 386 223 37 15 74 20 145 21 78 0 89 2 60 10
-62 16 -173 2 -246 -32 -37 -17 -70 -31 -76 -31 -5 0 -29 -9 -54 -20 -24 -11
-55 -25 -69 -30 -14 -5 -25 -14 -25 -19 0 -5 -8 -12 -17 -15 -10 -3 -38 -24
-62 -46 -59 -54 -83 -53 -37 2 20 23 36 45 36 50 0 17 -37 -11 -61 -46 -14
-21 -33 -36 -44 -36 -19 0 -18 -2 4 -19 21 -16 22 -20 10 -39 -19 -31 -30 -23
-49 34 -86 252 -266 382 -490 354z"/>
<path d="M412 2464 c-19 -25 -32 -47 -30 -49 1 -2 28 19 58 46 50 44 53 48 30
48 -18 0 -34 -12 -58 -45z"/>
<path d="M2872 2483 c3 -19 30 -28 53 -19 25 9 5 36 -27 36 -23 0 -29 -4 -26
-17z"/>
<path d="M288 2417 c-39 -39 -118 -147 -118 -161 0 -4 -20 -48 -45 -99 -54
-113 -60 -150 -7 -52 50 94 71 129 109 184 18 25 40 62 48 81 9 19 28 47 42
63 43 44 17 31 -29 -16z"/>
<path d="M703 2380 c-22 -13 -33 -27 -32 -42 1 -22 1 -22 10 3 5 14 24 33 42
42 17 9 28 16 22 16 -5 1 -25 -8 -42 -19z"/>
<path d="M764 2354 c23 -23 19 -50 -10 -73 -15 -12 -22 -21 -16 -21 18 0 52
42 52 65 0 21 -17 45 -33 45 -5 0 -1 -7 7 -16z"/>
<path d="M1985 2344 c-27 -8 -61 -16 -75 -19 -14 -2 -29 -10 -35 -17 -5 -7
-22 -19 -38 -27 -19 -10 -26 -20 -21 -33 3 -10 0 -18 -6 -18 -6 0 -9 4 -5 9 3
5 0 13 -6 17 -6 3 -15 0 -20 -7 -5 -8 -9 -10 -9 -6 0 11 -30 -19 -30 -31 0 -5
-18 -15 -40 -22 -22 -7 -40 -17 -40 -22 0 -11 7 -10 30 2 14 7 23 6 34 -5 13
-14 16 -13 29 5 8 12 18 20 23 19 23 -4 26 3 8 22 -19 22 -19 22 2 11 16 -8
26 -8 40 2 29 20 66 26 81 14 18 -14 16 -2 -3 27 -15 23 -15 25 0 31 9 3 27 3
40 0 16 -4 28 -1 33 7 12 20 61 37 134 46 l64 8 -70 1 c-38 0 -92 -6 -120 -14z"/>
<path d="M2952 2343 c6 -7 16 -13 23 -13 8 0 16 -6 18 -12 3 -7 6 -2 6 12 1
21 -4 25 -28 25 -23 1 -28 -2 -19 -12z"/>
<path d="M0 2331 c0 -11 100 -59 139 -67 26 -5 26 -5 -4 18 -16 13 -32 23 -35
24 -3 0 -22 8 -44 17 -44 19 -56 21 -56 8z"/>
<path d="M2205 2309 c-22 -4 -43 -5 -47 -2 -5 2 -8 -1 -8 -7 0 -6 -4 -8 -10
-5 -5 3 -10 1 -10 -6 0 -6 -8 -9 -20 -6 -10 3 -24 -1 -30 -9 -7 -7 -28 -18
-48 -25 -116 -37 -309 -180 -299 -221 3 -10 -1 -25 -9 -32 -8 -8 -14 -20 -14
-26 0 -6 -11 -23 -25 -38 -14 -15 -25 -31 -25 -35 0 -5 -13 -27 -28 -50 -58
-88 -118 -247 -148 -399 -25 -127 -32 -206 -9 -103 8 33 14 66 14 73 1 7 5 11
10 8 5 -4 7 3 4 15 -6 22 36 171 46 165 3 -2 7 7 7 20 4 63 158 327 250 429
20 22 30 31 23 20 -13 -18 -13 -19 3 -6 10 7 16 17 13 21 -3 4 1 13 9 19 11 9
15 9 20 -1 3 -7 4 -4 3 7 -1 14 4 20 16 19 10 -1 25 10 35 24 20 30 152 95
243 118 35 9 107 20 159 24 90 7 81 11 -35 15 -27 0 -68 -2 -90 -6z"/>
<path d="M2766 2273 c-8 -8 -8 -57 0 -78 10 -24 24 1 24 42 0 31 -11 49 -24
36z"/>
<path d="M0 2237 c1 -33 28 -62 65 -69 35 -6 25 19 -15 37 -22 10 -40 22 -40
27 0 12 16 10 57 -7 20 -8 38 -13 40 -11 5 5 -17 17 -69 39 l-38 16 0 -32z"/>
<path d="M2325 2263 c-33 -4 -129 -30 -160 -43 -16 -7 -12 -9 18 -9 22 -1 37
-6 37 -13 1 -9 5 -8 13 3 11 15 31 21 122 35 22 3 43 8 48 11 4 2 7 -2 7 -9 0
-8 3 -9 8 -3 11 15 52 17 49 2 -1 -7 7 -11 21 -10 12 2 22 -2 22 -8 0 -5 4 -7
10 -4 26 16 190 -96 190 -131 0 -7 6 -14 13 -17 6 -2 9 -8 5 -12 -4 -5 -27 0
-50 11 -32 15 -65 19 -144 19 -58 0 -107 -5 -115 -11 -23 -18 -62 -24 -78 -11
-11 9 -13 9 -8 0 4 -6 3 -14 -3 -18 -5 -3 -10 -1 -10 5 0 6 -10 8 -27 4 -32
-8 -143 -63 -128 -64 5 0 -13 -12 -40 -26 -28 -15 -59 -35 -71 -45 -11 -11
-24 -19 -28 -19 -4 0 -14 -7 -22 -15 -25 -25 2 -17 34 10 50 42 50 28 -1 -20
-26 -25 -54 -57 -64 -71 -12 -19 -18 -22 -24 -12 -7 10 -9 10 -10 -2 -1 -8 -1
-19 0 -23 1 -5 -13 -30 -32 -55 -18 -26 -37 -54 -41 -62 -15 -29 54 56 98 120
56 82 183 187 257 213 78 27 274 73 341 81 66 7 135 -14 195 -60 40 -30 40
-29 -2 41 -104 171 -243 242 -430 218z"/>
<path d="M931 2229 c-24 -5 -45 -10 -47 -11 -1 -2 44 -3 102 -3 91 0 100 1 71
12 -37 13 -66 14 -126 2z"/>
<path d="M2095 2181 c-22 -10 -51 -23 -65 -29 -22 -9 -23 -11 -4 -11 25 -1 44
-19 44 -44 0 -10 4 -15 10 -12 5 3 7 19 3 35 -4 24 -2 30 11 30 21 0 49 26 44
40 -2 6 -20 2 -43 -9z"/>
<path d="M1635 2160 c3 -6 1 -10 -5 -10 -7 0 -21 -12 -32 -26 -16 -20 -23 -23
-30 -12 -7 10 -8 8 -4 -5 4 -12 -1 -21 -17 -27 -12 -5 -18 -9 -14 -9 15 -2
-21 -31 -37 -31 -9 0 -16 -5 -16 -10 0 -6 -12 -22 -27 -36 -22 -19 -24 -23 -8
-17 26 8 62 33 50 33 -6 0 4 9 20 19 17 11 49 37 73 59 23 22 42 37 42 35 0
-3 7 0 15 7 19 16 19 26 -1 34 -8 3 -12 2 -9 -4z"/>
<path d="M1660 2130 c-12 -16 -25 -28 -29 -26 -4 3 -23 -11 -42 -31 -45 -47
-9 -28 56 30 28 25 47 48 44 52 -4 3 -17 -8 -29 -25z"/>
<path d="M2022 2114 c-22 -15 -30 -44 -12 -44 6 0 10 7 10 15 0 8 4 15 9 15 5
0 11 7 15 15 7 19 6 19 -22 -1z"/>
<path d="M0 2111 c0 -10 61 -34 68 -27 4 4 -51 36 -63 36 -3 0 -5 -4 -5 -9z"/>
<path d="M1675 2044 c-46 -47 -90 -104 -81 -104 10 0 101 103 99 111 -2 5 3 9
11 9 7 0 19 7 26 15 9 11 9 15 1 15 -7 0 -32 -21 -56 -46z"/>
<path d="M1903 2067 c1 -17 7 -25 19 -24 10 1 15 8 12 20 -4 25 -14 35 -14 16
0 -12 -2 -12 -9 0 -7 10 -9 7 -8 -12z"/>
<path d="M1601 2013 c-28 -31 -49 -59 -46 -61 2 -3 17 11 32 29 15 19 40 46
55 62 14 15 23 27 18 27 -5 0 -31 -26 -59 -57z"/>
<path d="M2533 2033 c-10 -3 -10 -9 0 -24 14 -23 24 -25 24 -4 0 8 -4 12 -9 9
-4 -3 -8 0 -8 5 0 16 21 13 43 -6 15 -13 18 -14 12 -3 -5 9 0 8 13 -4 20 -17
27 -15 23 7 -2 14 8 7 20 -14 8 -15 8 -19 0 -15 -6 4 -11 2 -11 -3 0 -16 30
-13 36 3 3 8 13 13 22 11 9 -2 21 -4 25 -4 16 -2 99 -96 119 -135 31 -61 8
-66 -43 -10 -52 55 -107 83 -167 84 -29 0 -41 4 -36 11 4 7 -2 6 -17 -1 -17
-10 -24 -10 -27 -1 -5 16 -22 14 -22 -4 0 -9 -6 -12 -15 -9 -8 4 -15 1 -15 -6
0 -7 -6 -10 -14 -7 -8 3 -17 -1 -20 -10 -4 -8 -13 -13 -21 -9 -8 3 -15 2 -15
-3 0 -4 -11 -13 -25 -19 -55 -25 -194 -176 -247 -269 -28 -49 -20 -42 34 32
86 116 209 237 226 221 3 -4 -7 -18 -23 -32 l-30 -25 30 18 c57 34 98 63 89
63 -5 0 -20 -7 -32 -16 -13 -9 -22 -11 -22 -4 0 6 25 23 56 37 49 22 66 25
135 21 68 -4 86 -9 122 -34 55 -39 102 -111 128 -196 21 -68 22 -154 5 -278
-3 -19 1 -10 9 20 20 76 20 243 -1 327 -33 137 -93 215 -200 264 -38 17 -118
23 -151 12z"/>
<path d="M18 2013 c-10 -2 -18 -9 -18 -14 0 -14 34 -11 56 6 19 14 19 14 -1
14 -11 -1 -28 -3 -37 -6z"/>
<path d="M2430 1996 c0 -8 5 -18 10 -21 6 -3 10 2 10 12 0 15 2 16 10 3 8 -13
10 -12 10 3 0 10 -8 17 -20 17 -11 0 -20 -6 -20 -14z"/>
<path d="M2390 1979 c0 -7 -9 -9 -21 -6 -16 4 -19 3 -11 -5 12 -12 -7 -38 -27
-38 -6 0 -11 -5 -11 -10 0 -6 -5 -16 -10 -23 -58 -68 -60 -73 -27 -56 35 18
57 41 50 52 -3 5 -2 7 4 4 9 -6 53 35 53 50 0 3 7 15 17 25 15 17 15 18 0 18
-10 0 -17 -5 -17 -11z"/>
<path d="M1808 1953 c15 -6 16 -43 1 -43 -5 0 -7 -5 -4 -10 8 -13 35 13 35 33
0 14 -22 28 -38 26 -4 0 -1 -3 6 -6z"/>
<path d="M56 1919 c-19 -98 5 -285 50 -388 30 -68 112 -183 125 -175 5 3 8 1
7 -4 -2 -6 30 -42 69 -81 40 -40 73 -68 73 -63 0 5 -10 17 -21 28 -28 24 -134
163 -199 259 -30 45 -61 133 -70 200 -4 33 -12 69 -16 79 -6 16 -4 18 9 13 15
-6 16 -4 6 15 -7 12 -11 50 -11 85 1 66 -11 85 -22 32z"/>
<path d="M1337 1862 c-26 -43 -58 -103 -72 -135 -18 -38 -31 -54 -40 -51 -7 3
-11 12 -8 20 3 8 1 14 -5 14 -13 0 -24 -29 -16 -42 3 -5 12 -7 20 -4 18 7 18
-1 -1 -54 -8 -23 -15 -55 -15 -70 0 -15 -7 -44 -15 -63 -8 -20 -14 -60 -14
-89 l2 -53 7 50 c5 28 11 61 14 75 3 14 10 51 17 83 6 31 15 57 20 57 5 0 9
16 9 36 0 19 4 33 9 30 12 -8 34 20 27 33 -5 8 29 81 54 116 10 14 60 125 56
125 -2 0 -24 -35 -49 -78z"/>
<path d="M1441 1933 c-1 -7 -8 -13 -16 -13 -18 0 -20 -20 -2 -21 6 -1 1 -5
-13 -9 -17 -5 -19 -8 -7 -9 16 -1 16 -3 2 -32 -9 -17 -14 -33 -12 -36 8 -8 59
105 54 119 -4 10 -6 10 -6 1z"/>
<path d="M880 1906 c0 -2 26 -14 58 -27 71 -28 217 -94 255 -114 16 -8 34 -12
39 -9 14 9 -32 32 -192 101 -109 46 -160 62 -160 49z"/>
<path d="M2538 1903 c-10 -2 -18 -8 -18 -13 0 -5 7 -7 15 -4 8 4 15 1 15 -5 0
-6 7 -11 15 -11 8 0 14 6 13 13 -2 7 5 11 17 9 37 -5 45 -11 45 -32 0 -22 16
-27 22 -8 10 29 -77 65 -124 51z"/>
<path d="M2670 1840 c0 -5 4 -10 9 -10 15 0 91 -67 84 -74 -4 -3 -1 -6 5 -6
21 0 13 18 -26 60 -37 37 -72 53 -72 30z"/>
<path d="M830 1808 c0 -22 3 -29 9 -19 7 10 13 11 30 2 23 -13 28 -31 9 -31
-26 0 12 -20 146 -79 77 -34 140 -61 140 -61 1 0 1 16 1 35 0 43 -10 50 -135
99 -52 20 -115 47 -140 59 -25 12 -48 23 -52 25 -5 2 -8 -11 -8 -30z m175 -79
c-4 -6 -1 -9 6 -8 14 2 109 -37 109 -45 0 -7 -22 -1 -64 17 -21 9 -42 17 -46
17 -4 0 -13 7 -20 15 -10 12 -9 15 4 15 10 0 14 -5 11 -11z"/>
<path d="M2930 1836 c0 -9 49 -86 55 -86 3 0 0 10 -6 23 -15 28 -49 72 -49 63z"/>
<path d="M2540 1816 c-53 -15 -131 -53 -128 -64 0 -4 -31 -40 -71 -80 -106
-109 -160 -192 -196 -305 -26 -80 -31 -106 -17 -93 4 4 7 11 7 14 2 26 29 115
39 125 6 7 21 32 32 57 40 86 142 208 211 254 39 27 59 46 51 49 -7 3 -3 6 10
6 13 1 32 6 43 12 30 16 96 13 124 -5 26 -17 71 -94 60 -104 -3 -3 -13 4 -21
17 -9 12 -27 34 -41 49 l-24 27 22 -32 c27 -39 23 -47 -19 -32 -17 6 -41 9
-54 6 -18 -3 -16 -5 8 -6 17 0 37 -7 43 -15 7 -8 30 -17 51 -21 44 -7 94 -41
84 -56 -3 -6 2 -19 12 -30 9 -10 14 -19 10 -19 -5 0 6 -16 23 -35 19 -22 33
-52 38 -78 6 -42 7 -42 14 -13 5 18 4 35 -2 43 -6 7 -15 47 -20 90 -9 74 -36
169 -46 160 -5 -6 14 -118 28 -161 13 -43 6 -42 -24 3 -15 22 -22 41 -18 43
16 6 -28 104 -64 144 l-35 39 35 -54 c31 -47 44 -81 30 -81 -2 0 -16 22 -29
48 -13 27 -31 54 -40 61 -9 7 -14 17 -11 21 14 22 -57 32 -115 16z"/>
<path d="M767 1757 c-12 -31 -8 -58 14 -104 24 -50 60 -78 109 -87 19 -3 28
-3 20 0 -89 36 -118 72 -129 157 -4 36 -9 46 -14 34z"/>
<path d="M2510 1753 c-77 -27 -173 -98 -204 -151 -56 -96 -56 -108 -3 -37 19
24 38 41 42 37 5 -4 5 -2 2 5 -10 16 98 82 146 90 44 7 60 23 23 23 -38 0 -32
18 9 26 19 3 35 10 35 15 0 5 -1 9 -2 9 -2 -1 -23 -8 -48 -17z"/>
<path d="M806 1730 c3 -14 17 -37 30 -51 44 -47 338 -187 350 -167 8 13 -5 21
-86 54 -36 15 -94 40 -129 55 -35 16 -68 29 -73 29 -18 0 -63 41 -81 73 -15
27 -17 28 -11 7z"/>
<path d="M300 1708 c0 -13 5 -30 10 -38 7 -11 10 -5 10 23 0 20 -4 37 -10 37
-5 0 -10 -10 -10 -22z"/>
<path d="M1316 1714 c-3 -8 -2 -12 3 -9 5 3 11 -5 13 -17 3 -22 3 -21 15 4 11
24 10 26 -4 21 -11 -4 -14 -3 -9 5 4 7 3 12 -2 12 -6 0 -13 -7 -16 -16z"/>
<path d="M2521 1691 c-8 -5 -9 -11 -3 -15 6 -3 14 -1 18 5 5 8 9 8 14 -1 5 -8
18 -10 34 -6 15 4 24 11 21 16 -8 12 -65 13 -84 1z"/>
<path d="M2575 1641 c-22 -10 -55 -35 -73 -55 -18 -20 -37 -36 -42 -36 -15 0
-12 -20 4 -26 7 -3 34 15 61 40 40 39 51 44 78 40 31 -5 31 -5 12 11 -20 17
-19 17 8 13 18 -4 27 -1 27 8 0 7 6 15 13 17 6 3 -1 6 -18 6 -16 0 -48 -8 -70
-18z"/>
<path d="M2653 1592 c-12 -2 -24 -9 -27 -17 -4 -11 1 -12 22 -5 15 5 36 10 47
12 20 4 20 4 0 9 -11 2 -30 3 -42 1z"/>
<path d="M2116 1531 c-9 -16 -16 -36 -16 -43 1 -7 10 4 21 25 11 22 18 41 15
44 -2 3 -12 -9 -20 -26z"/>
<path d="M2448 1435 c-31 -46 -54 -86 -50 -89 3 -4 23 24 45 61 21 38 46 76
54 86 9 9 14 19 12 22 -3 2 -30 -33 -61 -80z"/>
<path d="M2633 1489 c-43 -21 -101 -78 -124 -121 -6 -12 9 0 35 29 60 67 108
96 157 96 43 0 64 -18 100 -87 18 -34 20 -50 15 -103 -5 -52 -4 -64 9 -69 8
-4 21 -2 28 4 6 5 25 12 42 16 32 8 55 23 55 37 0 4 -12 1 -27 -7 -16 -7 -36
-14 -45 -14 -9 0 -20 -4 -23 -10 -15 -24 -21 -6 -14 48 6 48 3 65 -16 109 -40
88 -108 114 -192 72z"/>
<path d="M340 1468 c1 -7 7 -26 16 -43 12 -26 14 -27 9 -5 -2 14 -5 33 -5 43
0 9 -4 17 -10 17 -5 0 -10 -6 -10 -12z"/>
<path d="M18 1463 c-10 -2 -18 -9 -18 -15 0 -13 89 -3 104 12 10 10 -51 12
-86 3z"/>
<path d="M2067 1403 c-45 -116 -92 -383 -69 -397 6 -3 11 33 15 92 4 74 15
129 45 232 23 74 40 136 38 137 -1 2 -15 -27 -29 -64z"/>
<path d="M2301 1314 c-12 -31 -20 -59 -17 -61 2 -2 14 21 25 53 12 31 20 58
18 61 -2 2 -14 -22 -26 -53z"/>
<path d="M2616 1360 c-16 -5 -41 -21 -56 -35 -14 -14 -29 -22 -33 -19 -11 12
-48 -84 -54 -139 -4 -42 -1 -59 17 -89 12 -21 29 -38 38 -38 13 0 13 2 -1 18
-28 30 -20 32 41 7 75 -30 112 -49 112 -56 0 -3 -24 -18 -54 -33 -73 -37 -101
-27 -140 49 -10 19 -16 24 -16 13 0 -23 21 -68 32 -68 5 0 7 -4 4 -8 -6 -10 0
-11 65 -17 41 -3 50 0 85 30 32 28 41 32 52 21 11 -11 8 -22 -19 -67 -20 -36
-25 -48 -12 -37 10 10 29 35 41 57 l23 40 -23 16 c-13 9 -39 26 -58 38 -21 14
-36 32 -39 47 -4 32 -17 40 -66 39 l-40 0 30 -14 c17 -7 38 -16 48 -19 9 -3
17 -12 17 -20 0 -13 -5 -13 -42 0 -56 19 -68 31 -68 65 0 16 -4 29 -8 29 -12
0 -2 59 11 67 6 4 7 1 2 -7 -6 -10 -4 -12 9 -7 10 4 23 7 29 7 7 0 3 7 -7 15
-19 15 -19 16 14 50 18 19 46 39 62 44 24 9 32 6 56 -15 l27 -26 -25 7 c-14 4
-38 9 -55 11 l-30 5 35 -20 c19 -11 43 -20 53 -21 23 0 22 -3 -16 -53 -18 -24
-39 -41 -46 -39 -10 3 -10 0 1 -17 13 -21 13 -21 22 -1 5 11 16 20 25 20 11 0
12 3 4 8 -15 10 31 72 53 72 8 0 12 -4 9 -10 -4 -6 1 -7 11 -3 11 4 15 2 11
-4 -4 -5 5 -15 19 -22 35 -16 44 -13 14 5 l-25 15 25 -6 c24 -6 24 -6 -5 18
-19 16 -32 21 -37 14 -3 -6 -13 5 -21 25 -13 31 -51 70 -67 67 -3 0 -18 -5
-34 -9z"/>
<path d="M2920 1320 c-19 -11 -29 -19 -22 -20 14 0 72 28 72 35 0 9 -15 4 -50
-15z"/>
<path d="M2384 1316 c-3 -8 -11 -13 -18 -10 -7 3 -12 -4 -12 -15 0 -15 4 -17
17 -11 9 5 19 19 22 30 6 23 -1 27 -9 6z"/>
<path d="M1085 1232 c-39 -27 -81 -61 -95 -76 -43 -44 -131 -69 -242 -69 -93
-1 -96 -2 -65 -15 21 -9 51 -12 90 -8 91 9 197 37 197 52 0 8 21 25 48 38 26
13 68 42 93 65 l46 40 7 -72 c3 -40 13 -93 21 -119 8 -27 12 -48 10 -48 -2 0
-34 16 -70 36 -35 20 -70 34 -77 32 -14 -5 85 -64 124 -73 20 -5 32 -20 52
-67 35 -80 137 -220 151 -207 2 3 -18 31 -46 62 -84 95 -149 270 -149 403 0
22 -6 48 -13 58 -12 16 -18 13 -82 -32z"/>
<path d="M1448 1245 c-20 -107 11 -346 58 -450 18 -42 44 -119 40 -122 -7 -7
-61 28 -62 39 -1 7 -2 19 -3 27 -1 11 -4 11 -17 0 -9 -7 -18 -9 -22 -3 -4 5
-14 15 -23 21 -13 11 -15 9 -14 -9 1 -12 8 -24 15 -26 8 -3 23 -14 35 -24 26
-25 176 -98 201 -98 10 0 33 -9 49 -21 35 -24 141 -79 152 -79 4 0 -35 28 -87
62 -52 34 -103 61 -112 60 -43 -2 -144 178 -173 308 -9 41 -20 138 -24 215 -4
104 -8 130 -13 100z"/>
<path d="M2380 1238 c-19 -65 -25 -107 -24 -178 1 -120 45 -194 134 -226 28
-10 50 -21 50 -25 0 -15 -30 -30 -63 -31 -30 -1 -35 -4 -31 -23 2 -12 -6 -42
-19 -66 -18 -35 -43 -57 -117 -107 -121 -79 -199 -107 -302 -106 -66 1 -75 -1
-60 -12 25 -20 91 -17 168 7 72 22 216 94 271 135 42 31 54 30 116 -10 58 -37
101 -77 201 -186 66 -72 75 -77 32 -16 -28 39 -172 183 -221 222 -22 17 -50
34 -63 38 -12 4 -22 11 -22 14 0 22 123 125 188 157 72 36 111 74 131 128 6
16 18 27 29 27 31 0 73 40 98 94 29 62 30 90 4 116 -41 41 -104 11 -130 -63
l-11 -32 44 43 c23 23 50 42 59 42 21 0 31 -32 23 -70 -9 -39 -68 -103 -92
-98 -25 5 -47 85 -33 117 10 22 9 23 -4 11 -9 -7 -16 -19 -16 -26 0 -8 -10
-14 -21 -14 -18 0 -21 4 -16 30 5 23 3 28 -8 23 -8 -3 -15 -13 -15 -23 0 -10
-8 -20 -17 -22 -13 -3 -6 -10 24 -26 40 -21 43 -21 53 -4 9 15 10 14 5 -5 -3
-13 1 -38 10 -57 16 -34 16 -37 -3 -68 -21 -34 -61 -76 -74 -78 -4 0 -23 -7
-42 -15 -45 -19 -126 -20 -126 -2 0 13 -59 53 -72 50 -3 -1 -9 4 -12 13 -3 9
-2 12 4 9 6 -4 5 5 -1 19 -7 14 -15 23 -20 20 -4 -2 -8 4 -8 13 -1 10 -4 46
-7 80 -4 42 -1 86 11 138 18 84 16 110 -5 43z"/>
<path d="M2324 1241 c4 -5 2 -21 -4 -35 -10 -27 -5 -32 18 -18 9 7 10 15 3 35
-6 15 -13 27 -16 27 -4 0 -4 -4 -1 -9z"/>
<path d="M480 1221 c0 -21 40 -57 94 -82 70 -33 100 -39 75 -14 -20 20 -169
105 -169 96z"/>
<path d="M2562 1218 c3 -7 18 -14 34 -16 l29 -2 -25 14 c-31 19 -43 20 -38 4z"/>
<path d="M105 1119 c-27 -10 -37 -17 -21 -14 31 7 97 33 81 33 -5 0 -32 -8
-60 -19z"/>
<path d="M1695 1068 c39 -287 217 -488 440 -499 87 -4 96 5 12 11 -80 6 -110
13 -162 39 -138 68 -257 259 -269 431 -4 59 -4 60 -16 60 -6 0 -8 -17 -5 -42z"/>
<path d="M576 1069 c-27 -4 -54 -13 -60 -20 -8 -9 -7 -11 4 -7 8 3 26 8 40 12
24 7 24 6 6 -8 -10 -8 -24 -17 -30 -19 -6 -2 -8 -7 -4 -11 3 -4 16 -2 28 4 12
6 34 14 48 16 15 3 31 9 36 14 9 9 0 31 -12 29 -4 -1 -29 -5 -56 -10z"/>
<path d="M965 1073 c11 -2 33 -8 49 -13 24 -8 27 -8 16 5 -7 9 -28 15 -49 14
-20 -1 -27 -3 -16 -6z"/>
<path d="M250 1030 c-103 -25 -240 -66 -248 -75 -4 -4 4 -5 18 -2 59 14 156
43 165 49 6 3 39 12 75 18 63 12 115 31 80 29 -8 -1 -49 -9 -90 -19z"/>
<path d="M2014 950 c2 -19 14 -55 26 -80 68 -141 83 -154 155 -141 63 12 66
19 7 18 -31 -1 -60 6 -76 17 -26 17 -75 103 -102 181 l-14 40 4 -35z"/>
<path d="M1270 911 c0 -10 38 -59 84 -106 l28 -30 -28 40 c-16 22 -32 42 -36
43 -5 2 -8 10 -8 18 0 8 -4 14 -10 14 -5 0 -10 7 -10 15 0 8 -4 15 -10 15 -5
0 -10 -4 -10 -9z"/>
<path d="M263 893 c4 -3 7 -9 7 -14 0 -6 -5 -7 -10 -4 -6 4 -19 3 -28 -1 -9
-4 -28 -8 -42 -9 -14 -1 -53 -8 -88 -15 -50 -11 -67 -12 -82 -2 -17 10 -20 10
-20 -3 0 -8 5 -15 12 -15 9 0 9 -3 0 -12 -7 -7 -12 -18 -12 -26 0 -13 18 -11
65 7 58 23 118 40 125 36 4 -3 33 4 64 15 31 10 63 17 71 13 8 -3 15 0 15 6 0
6 -3 11 -7 12 -25 3 -50 7 -63 11 -8 3 -12 3 -7 1z"/>
<path d="M2006 880 c3 -14 8 -42 11 -62 3 -21 9 -36 13 -33 9 5 -1 56 -19 95
l-12 25 7 -25z"/>
<path d="M2084 892 c3 -5 7 -21 10 -36 6 -34 37 -88 54 -94 7 -2 1 13 -12 33
-14 20 -28 52 -32 71 -3 19 -10 34 -16 34 -5 0 -7 -4 -4 -8z"/>
<path d="M2945 854 c-22 -8 -54 -20 -72 -25 -17 -5 -34 -16 -37 -24 -3 -8 -12
-15 -21 -15 -18 0 -20 16 -2 23 6 3 -5 6 -25 6 -20 1 -39 5 -43 10 -6 10 -83
6 -94 -5 -11 -11 29 -32 75 -39 25 -3 61 -13 80 -21 35 -15 69 -9 43 7 -9 5
13 20 69 45 45 20 82 41 82 45 0 12 -8 11 -55 -7z"/>
<path d="M265 825 l-30 -14 30 5 c17 3 50 9 75 13 l45 9 -45 0 c-25 1 -58 -5
-75 -13z"/>
<path d="M203 754 c-73 -38 -106 -62 -62 -46 39 15 155 82 142 82 -6 0 -42
-16 -80 -36z"/>
<path d="M2303 784 c17 -5 24 -24 9 -24 -5 0 -17 -7 -28 -15 -13 -10 -5 -9 24
4 24 10 53 16 63 14 19 -5 19 -6 2 -19 -15 -11 -13 -12 18 -2 44 13 47 33 5
34 -17 0 -49 3 -71 7 -22 3 -32 4 -22 1z"/>
<path d="M2872 760 c5 -15 78 -42 96 -35 7 3 10 0 7 -5 -3 -6 1 -10 9 -10 9 0
16 8 16 19 0 16 -9 21 -47 26 -27 4 -56 9 -67 12 -12 3 -17 1 -14 -7z"/>
<path d="M1230 747 c0 -7 15 -26 33 -43 l32 -29 -30 34 c-30 33 -30 33 -5 26
28 -8 26 -3 -7 14 -18 9 -23 9 -23 -2z"/>
<path d="M1350 695 c-23 -36 -21 -82 4 -115 9 -13 9 -13 -6 -2 -14 11 -17 10
-23 -8 -15 -46 29 -149 72 -169 33 -15 41 -14 76 11 25 18 30 19 24 5 -5 -14
-2 -16 20 -11 21 6 25 4 20 -8 -11 -30 73 -94 163 -123 64 -21 129 -60 131
-78 1 -6 1 -18 0 -24 -1 -7 4 -10 12 -7 16 6 226 -131 234 -153 3 -7 9 -13 15
-13 5 0 6 5 3 10 -4 6 1 22 9 35 9 14 12 25 6 25 -5 0 -10 -5 -10 -11 0 -5 -4
-8 -9 -5 -5 4 -12 0 -14 -6 -4 -9 -12 -5 -26 12 -11 14 -26 25 -33 25 -7 1
-12 6 -11 12 3 12 -56 43 -81 43 -9 0 -16 5 -16 11 0 28 -91 97 -177 133 -77
32 -181 99 -183 116 0 3 14 10 32 15 37 12 52 37 16 28 -13 -3 -29 -10 -36
-16 -7 -5 -16 -7 -19 -3 -4 4 -1 11 7 16 13 9 13 10 0 11 -87 7 -115 11 -125
19 -6 5 -22 35 -35 66 -22 55 -23 59 -7 87 9 16 17 34 17 42 0 7 7 18 15 25
13 10 13 15 3 21 -8 5 -19 -2 -31 -19 l-19 -27 6 33 c7 41 3 40 -24 -3z m70
-260 c11 -4 18 -11 15 -16 -8 -12 -61 16 -69 36 -12 32 -6 37 14 12 11 -14 29
-29 40 -32z"/>
<path d="M38 674 c-4 -3 4 -23 17 -44 33 -53 7 -63 -29 -12 -14 20 -26 30 -26
22 0 -8 7 -24 15 -34 9 -11 12 -29 9 -39 -6 -19 -5 -19 17 -3 13 9 29 16 36
16 16 0 158 -140 167 -165 20 -57 43 -94 56 -95 13 0 13 1 0 10 -12 7 -12 12
-2 22 17 17 64 -31 67 -69 4 -66 5 -68 13 -55 5 7 16 10 25 6 13 -4 17 -1 17
15 0 22 24 29 35 10 4 -6 13 -8 20 -5 13 5 93 -46 107 -68 4 -6 38 -43 76 -83
l68 -71 31 15 c30 14 35 13 95 -15 34 -17 65 -28 68 -25 3 3 -1 8 -8 10 -6 3
-9 9 -6 15 3 5 15 2 27 -9 11 -10 17 -12 13 -5 -10 17 9 15 28 -3 8 -8 23 -15
33 -14 14 0 15 2 3 6 -8 4 -21 14 -28 25 -9 12 -26 18 -53 18 -33 0 -39 3 -39
21 0 11 -14 34 -31 51 -25 26 -33 29 -41 17 -7 -10 -8 -3 -4 24 3 27 1 37 -7
34 -7 -2 -12 -9 -11 -15 1 -7 2 -21 3 -32 0 -11 11 -24 24 -29 23 -9 47 -38
60 -73 6 -16 4 -16 -26 -2 -30 14 -59 50 -79 97 -4 9 -11 17 -16 17 -12 0 -12
-32 0 -47 6 -7 3 -15 -9 -22 -17 -10 -17 -10 0 -11 9 0 17 -5 17 -11 0 -6 -7
-8 -16 -5 -8 3 -12 2 -9 -4 3 -6 -1 -10 -10 -10 -11 0 -15 5 -11 15 3 9 -1 18
-10 22 -13 5 -13 8 0 28 14 21 14 24 0 29 -21 8 -21 8 -27 -14 -5 -19 -27 -29
-27 -12 0 4 -16 26 -36 47 -20 22 -47 52 -59 66 -13 14 -42 31 -64 39 -30 9
-40 18 -36 28 3 8 -3 21 -12 28 -27 20 -39 17 -19 -5 16 -18 16 -20 -5 -35
-25 -17 -49 -6 -49 23 0 15 -53 76 -62 71 -6 -3 -58 20 -58 25 0 12 28 34 34
28 3 -4 6 -15 6 -25 0 -10 5 -18 10 -18 6 0 10 9 10 19 0 31 19 35 46 10 16
-15 22 -29 18 -42 -4 -13 -2 -17 5 -13 37 23 -20 81 -81 81 -24 1 -46 -4 -50
-9 -4 -6 -11 2 -17 16 -11 30 -45 68 -75 83 -24 12 -45 67 -27 73 14 5 15 62
1 62 -5 0 -10 -12 -10 -26 0 -14 -6 -32 -14 -39 -11 -12 -17 -11 -34 8 -12 12
-25 32 -29 45 -5 13 -12 20 -15 16z"/>
<path d="M315 495 c33 -16 81 -21 55 -6 -8 5 -31 11 -50 14 l-35 6 30 -14z"/>
<path d="M2846 441 c-9 -10 -31 -22 -48 -25 -39 -8 -33 -15 7 -9 17 3 38 16
48 29 21 29 17 32 -7 5z"/>
<path d="M2935 424 c-33 -20 -80 -45 -104 -56 -24 -10 -41 -21 -38 -24 10 -11
64 13 126 55 33 23 65 41 70 41 6 0 11 5 11 10 0 14 3 15 -65 -26z"/>
<path d="M76 359 c-74 -20 -101 -33 -45 -23 45 9 148 42 129 42 -8 -1 -46 -9
-84 -19z"/>
<path d="M1468 360 c-20 -11 -40 -25 -43 -31 -4 -6 11 -1 33 10 22 11 43 25
47 31 8 13 7 13 -37 -10z"/>
<path d="M2985 370 c-3 -5 -3 -14 0 -20 3 -5 -1 -10 -9 -10 -8 0 -17 -4 -20
-9 -3 -4 4 -8 17 -7 16 1 22 8 24 29 2 28 -2 34 -12 17z"/>
<path d="M148 339 c-21 -11 -38 -21 -38 -23 0 -8 90 25 96 35 8 14 -17 9 -58
-12z"/>
<path d="M250 300 c0 -5 -16 -16 -35 -24 -19 -8 -35 -20 -35 -25 0 -6 20 -1
45 11 40 20 61 48 35 48 -5 0 -10 -4 -10 -10z"/>
<path d="M2896 283 c-9 -23 -7 -33 7 -33 7 0 32 -16 55 -36 57 -48 53 -33 -7
31 -36 38 -51 49 -55 38z"/>
<path d="M2954 279 c-3 -6 5 -23 20 -37 14 -15 26 -22 26 -15 0 6 -7 16 -15
23 -8 7 -15 17 -15 22 0 6 7 8 15 4 8 -3 15 -1 15 4 0 14 -37 13 -46 -1z"/>
<path d="M2787 212 c-4 -17 0 -33 9 -42 13 -13 14 -13 8 4 -4 11 -2 21 7 27
11 7 11 9 1 9 -7 0 -11 4 -7 9 3 5 1 12 -4 15 -5 3 -11 -7 -14 -22z"/>
<path d="M2907 230 c7 -9 21 -36 32 -60 l19 -45 -4 39 c-2 22 -5 40 -7 40 -1
1 -13 10 -27 21 -14 11 -19 13 -13 5z"/>
<path d="M2612 214 c-24 -17 -29 -39 -10 -50 6 -4 8 -3 4 4 -3 6 5 19 19 30
30 24 18 38 -13 16z"/>
<path d="M2870 225 c0 -5 7 -28 15 -50 8 -22 14 -48 15 -59 1 -40 -30 6 -36
55 -4 27 -10 49 -15 49 -15 0 -15 -74 1 -90 8 -9 34 -38 58 -64 l42 -49 -20
45 c-11 26 -21 65 -22 88 -1 24 -9 51 -19 63 -10 12 -18 18 -19 12z"/>
<path d="M376 155 c-4 -16 -14 -37 -22 -47 -16 -17 -26 -108 -12 -108 4 0 8
16 8 35 0 19 9 52 21 74 11 22 19 48 17 58 -3 13 -6 9 -12 -12z"/>
<path d="M1577 152 c91 -37 154 -74 205 -120 l40 -37 -21 40 c-27 50 -26 53 6
87 15 15 22 28 17 28 -21 0 -65 -56 -58 -74 5 -12 -8 -7 -39 17 -47 36 -124
69 -187 81 -21 4 -7 -5 37 -22z"/>
<path d="M2464 155 c11 -8 24 -15 29 -15 5 0 36 -25 69 -55 74 -69 104 -73 35
-5 -28 28 -54 50 -58 50 -4 0 -14 6 -21 13 -7 8 -27 17 -43 20 -28 7 -29 6
-11 -8z"/>
<path d="M2770 163 c0 -5 6 -15 12 -21 7 -7 20 -32 30 -55 9 -23 17 -35 17
-27 1 20 -34 96 -48 104 -6 4 -11 3 -11 -1z"/>
<path d="M985 139 c-15 -7 -11 -8 19 -5 48 6 80 -9 73 -35 -6 -22 6 -25 22 -5
9 10 8 15 -4 20 -8 3 -15 12 -15 21 0 17 -61 20 -95 4z"/>
<path d="M2003 132 c15 -9 27 -22 27 -28 0 -6 8 -19 19 -28 17 -16 19 -16 25
0 4 9 5 18 4 19 -15 12 -89 55 -95 55 -5 0 4 -8 20 -18z"/>
<path d="M2699 116 c22 -22 31 -39 26 -48 -5 -7 -5 -10 -1 -7 4 4 19 -4 33
-17 14 -13 28 -22 31 -19 7 6 -98 125 -111 125 -6 0 4 -15 22 -34z"/>
<path d="M12 132 c15 -3 18 -14 18 -58 l0 -54 38 1 c28 2 31 3 10 6 -23 4 -26
9 -30 48 -3 39 0 44 19 48 13 2 32 -2 43 -10 17 -12 19 -12 14 1 -7 19 -27 25
-84 23 -25 0 -37 -2 -28 -5z"/>
<path d="M2611 127 c2 -2 27 -16 54 -31 l50 -27 -33 30 c-18 17 -43 31 -54 31
-12 0 -19 -1 -17 -3z"/>
<path d="M2829 115 c6 -11 32 -42 57 -70 25 -27 37 -37 26 -20 -27 41 -96 115
-83 90z"/>
<path d="M2155 100 c10 -11 33 -25 51 -32 18 -6 31 -15 28 -20 -3 -4 1 -5 9
-2 8 3 38 -4 68 -15 73 -28 86 -25 22 4 -60 27 -68 38 -20 30 17 -3 44 -7 58
-9 15 -2 41 -11 58 -20 17 -9 31 -14 31 -11 0 11 -83 45 -146 60 -38 8 -88 20
-112 25 -60 14 -67 13 -47 -10z"/>
<path d="M2360 105 c0 -8 93 -45 112 -45 11 0 33 -13 48 -30 20 -22 37 -30 61
-30 l33 0 -47 30 c-26 16 -52 30 -58 30 -6 0 -8 4 -4 9 3 5 1 12 -5 16 -5 3
-10 1 -10 -5 0 -7 -8 -9 -22 -4 -68 22 -108 33 -108 29z"/>
<path d="M2598 98 c21 -26 137 -98 157 -98 12 0 3 10 -26 28 -90 57 -144 85
-131 70z"/>
<path d="M70 74 c0 -23 2 -26 10 -14 9 13 12 12 25 -4 14 -19 15 -19 15 7 0
15 -4 27 -9 27 -5 0 -16 3 -25 6 -12 5 -16 0 -16 -22z"/>
<path d="M2135 40 c-22 -25 -21 -26 35 -34 43 -6 42 -3 -9 16 -19 7 -21 11
-11 23 19 22 6 18 -15 -5z"/>
</g>
</svg>
