<?xml version="1.0" standalone="no"?>
<!DOCTYPE svg PUBLIC "-//W3C//DTD SVG 20010904//EN"
 "http://www.w3.org/TR/2001/REC-SVG-20010904/DTD/svg10.dtd">
<svg version="1.0" xmlns="http://www.w3.org/2000/svg"
 width="1655.000000pt" height="5434.000000pt" viewBox="0 0 1655.000000 5434.000000"
 preserveAspectRatio="xMidYMid meet">
<metadata>
Created by potrace 1.16, written by Peter Selinger 2001-2019
</metadata>
<g transform="translate(0.000000,5434.000000) scale(0.100000,-0.100000)"
fill="#000000" stroke="none">
<path d="M9182 45104 c-21 -42 -89 -292 -112 -414 -6 -30 -26 -97 -44 -150
-67 -187 -137 -419 -145 -476 -11 -75 -22 -118 -72 -279 -22 -71 -47 -152 -56
-180 -8 -27 -23 -61 -33 -75 -10 -14 -31 -73 -48 -132 -17 -59 -42 -131 -55
-160 -46 -98 -77 -169 -77 -174 0 -9 -63 -137 -85 -174 -12 -19 -43 -87 -69
-150 -26 -63 -66 -151 -88 -195 -41 -80 -68 -140 -194 -425 -37 -85 -78 -173
-91 -195 -39 -67 -74 -145 -148 -325 -23 -58 -55 -132 -70 -165 -16 -33 -49
-112 -75 -175 -26 -63 -73 -176 -104 -251 -58 -140 -96 -269 -96 -323 0 -20
12 -46 35 -75 19 -24 35 -44 35 -45 0 -1 5 -28 11 -61 6 -33 12 -161 14 -285
3 -178 9 -259 30 -390 68 -437 75 -472 156 -790 14 -53 13 -99 -3 -117 -18
-22 -34 2 -63 95 -15 48 -35 105 -45 127 -90 202 -107 260 -116 402 -7 112
-26 178 -61 211 -25 23 -77 30 -88 12 -3 -5 -25 -10 -48 -11 -78 -1 -190 -25
-204 -45 -15 -20 -51 -131 -59 -179 -15 -96 -18 -163 -14 -275 3 -69 7 -111 9
-95 3 27 4 28 8 6 3 -13 17 -37 32 -54 l28 -29 2 -266 c1 -146 6 -270 11 -277
5 -6 5 -47 -2 -105 -6 -52 -12 -144 -12 -205 -1 -60 -5 -116 -9 -122 -5 -7 -4
-13 0 -13 5 0 8 -18 8 -40 0 -24 -4 -40 -12 -40 -7 0 -12 -18 -12 -52 0 -82
-10 -190 -20 -223 -22 -73 -30 -179 -35 -455 -3 -166 -10 -310 -16 -330 -6
-19 -15 -60 -20 -90 -23 -144 -43 -231 -66 -302 -43 -132 -16 -177 143 -241
94 -37 257 -78 388 -96 43 -6 83 -17 87 -24 4 -6 8 -66 8 -132 0 -97 4 -128
20 -162 10 -24 24 -43 30 -43 5 0 10 -6 10 -14 0 -8 5 -16 10 -18 12 -4 17
-48 19 -151 1 -49 4 -66 13 -61 6 4 9 3 5 -2 -3 -5 -1 -32 4 -59 7 -39 6 -51
-5 -57 -19 -10 -30 -77 -21 -128 7 -44 21 -52 29 -17 3 12 3 -11 0 -51 -4 -47
-1 -86 8 -110 l13 -37 5 64 5 64 35 4 c19 2 36 8 38 13 2 5 20 14 40 21 l37
12 -40 19 -40 18 80 -2 c44 -2 117 -2 163 0 82 2 82 2 83 30 l1 27 11 -27 c6
-16 19 -28 28 -28 10 0 21 -4 24 -10 3 -6 -4 -10 -17 -10 -18 0 -20 -2 -8 -10
8 -5 21 -10 28 -10 16 0 16 37 0 42 -10 4 -10 10 -1 29 9 18 12 20 12 7 1 -14
10 -18 40 -18 22 0 43 -4 46 -10 13 -22 35 -10 35 20 0 27 2 29 34 25 24 -3
36 0 40 10 3 8 15 15 26 15 11 0 20 6 20 13 0 8 12 20 28 27 15 7 22 15 15 17
-13 5 -12 7 20 71 9 19 17 52 17 74 0 35 2 39 15 28 21 -17 29 8 22 66 -5 45
13 99 37 117 8 5 6 10 -4 17 -12 8 -11 10 8 10 20 0 22 5 22 55 0 37 5 57 15
62 9 5 19 38 26 85 11 66 15 76 31 73 10 -2 16 0 13 4 -7 13 86 33 290 65 99
15 359 88 416 117 46 23 95 74 109 113 7 21 9 167 5 471 -3 242 -7 454 -9 470
-2 17 -6 66 -10 110 -4 44 -13 132 -21 195 -8 63 -19 169 -25 235 -6 66 -16
137 -21 158 -5 20 -11 81 -12 135 -2 53 -7 104 -11 111 -5 7 -10 39 -11 70 -2
31 -8 85 -14 121 -12 70 -42 312 -42 345 0 11 -7 61 -14 110 -17 105 -31 219
-51 400 -8 72 -17 155 -21 185 -7 60 -39 100 -80 100 -30 0 -84 49 -124 113
-66 104 -149 177 -151 131 0 -5 -5 -20 -10 -34 -21 -55 -28 -151 -31 -407 -2
-264 -1 -270 27 -387 37 -155 37 -171 9 -198 -20 -19 -30 -20 -103 -15 -77 5
-82 4 -108 -21 -16 -15 -35 -45 -44 -67 -9 -22 -28 -73 -44 -113 -15 -40 -31
-75 -36 -78 -5 -3 -6 -14 -3 -24 3 -10 0 -20 -9 -23 -8 -3 -17 -21 -21 -39 -4
-18 -10 -37 -14 -43 -4 -5 -15 -37 -25 -70 -10 -33 -27 -82 -38 -110 -11 -27
-24 -65 -29 -82 -6 -18 -14 -33 -19 -33 -4 0 -13 -19 -18 -42 -23 -94 -43
-164 -53 -181 -6 -11 -8 -21 -5 -24 3 -3 0 -15 -6 -26 -12 -23 -12 -128 0
-136 5 -3 12 -17 16 -31 11 -37 16 -379 6 -355 -7 16 -9 12 -9 -20 -2 -87 -83
-122 -216 -93 -117 26 -233 76 -227 98 1 6 -9 27 -23 48 -27 39 -32 58 -14 46
7 -4 6 3 -2 17 -30 53 -37 239 -17 417 7 69 16 106 25 109 7 3 13 15 13 27 1
33 24 56 58 56 19 0 35 7 42 18 9 14 10 13 4 -8 -3 -14 -3 -22 1 -18 4 3 26
-14 48 -40 62 -69 130 -132 144 -132 6 0 22 21 35 48 14 26 41 79 62 119 61
119 131 322 232 673 8 30 28 89 44 130 33 90 76 258 90 357 5 39 28 127 50
195 22 68 49 177 61 243 51 308 59 357 74 460 9 61 32 162 51 225 82 267 106
343 158 500 105 316 154 455 179 512 14 32 44 120 67 195 23 76 57 179 76 230
19 51 46 138 60 195 30 119 41 155 83 261 17 43 35 94 40 115 9 36 75 238 92
277 33 80 49 127 60 175 7 30 16 60 20 65 4 6 7 45 7 87 1 73 0 78 -21 82 -40
8 -65 3 -60 -12 3 -7 -1 -25 -8 -39 -11 -21 -11 -27 -1 -30 6 -3 12 -8 12 -13
0 -10 -59 -70 -68 -70 -13 0 -54 69 -47 80 4 6 3 16 -2 23 -5 7 -10 26 -11 42
-2 17 -9 59 -17 95 -8 36 -24 135 -35 220 -28 219 -48 357 -59 415 -5 28 -14
100 -21 160 -6 61 -16 126 -20 145 -5 19 -12 67 -15 105 -3 39 -9 88 -14 110
-5 22 -15 74 -21 115 -6 41 -20 127 -30 190 -32 195 -42 280 -47 405 -2 66 -5
126 -5 133 -1 7 -15 12 -32 12 -27 -1 -34 -7 -54 -46z m-132 -1404 c11 -6 -10
-400 -21 -400 -4 0 -10 -24 -14 -52 -4 -29 -16 -64 -27 -78 -11 -13 -15 -26
-10 -28 12 -4 3 -42 -9 -42 -5 0 -10 12 -11 28 -1 16 -4 7 -9 -23 -4 -29 -5
10 -3 95 6 168 11 238 26 335 6 39 12 79 13 90 2 11 4 28 4 38 1 9 7 16 13 15
7 -2 14 8 16 21 3 17 0 21 -10 15 -7 -4 -4 3 7 15 l20 23 4 -23 c1 -13 7 -26
11 -29z m-330 -5543 c0 -13 9 -32 20 -42 13 -12 20 -31 20 -57 0 -21 4 -38 9
-38 5 0 8 -36 7 -80 -1 -52 -5 -80 -12 -80 -7 0 -14 -7 -18 -15 -3 -8 -10 -15
-16 -15 -5 0 -10 7 -10 15 0 8 -9 15 -20 15 -18 0 -20 7 -20 80 0 73 -2 80
-20 80 -18 0 -20 7 -20 80 l0 80 40 0 c35 0 40 -3 40 -23z"/>
<path d="M10252 44048 c-5 -7 -19 -53 -30 -103 -11 -49 -30 -117 -42 -150 -34
-90 -32 -158 6 -221 17 -27 37 -67 43 -87 7 -20 35 -75 62 -122 27 -47 49 -89
49 -92 0 -4 6 -14 13 -22 7 -9 20 -36 28 -61 10 -33 35 -66 90 -122 42 -43 79
-78 83 -78 3 0 6 7 6 15 0 8 -8 15 -17 15 -14 0 -15 2 -4 13 11 10 14 10 18 0
5 -14 42 -18 44 -5 6 41 5 72 -3 72 -9 0 -9 17 -6 155 3 133 2 144 -16 164
-10 11 -15 25 -11 30 3 6 -1 11 -9 11 -9 0 -13 6 -10 13 5 13 -37 155 -53 180
-4 7 -8 14 -8 17 -2 7 -33 72 -44 90 -5 8 -26 49 -46 90 -67 138 -110 210
-125 210 -4 0 -12 -6 -18 -12z"/>
<path d="M5989 43798 c-66 -82 -142 -173 -153 -183 -19 -17 -91 -108 -123
-156 -52 -75 -204 -377 -253 -499 -25 -63 -53 -126 -62 -140 -9 -14 -21 -43
-28 -65 -21 -69 -60 -179 -75 -210 -8 -16 -17 -42 -21 -57 -3 -15 -12 -29 -18
-31 -7 -3 -16 -25 -20 -49 -4 -23 -12 -57 -18 -74 -12 -34 -3 -104 13 -104 5
0 16 15 24 33 10 23 14 26 15 12 0 -19 0 -19 14 0 7 11 19 38 27 60 8 22 19
45 24 52 6 7 15 19 22 27 6 7 9 17 6 20 -4 3 2 19 13 34 11 15 26 42 33 60 8
17 17 32 22 32 5 0 9 5 9 10 0 6 12 29 27 53 27 41 37 57 64 107 17 30 52 83
59 90 3 3 12 18 20 35 8 16 35 55 60 87 25 31 59 80 75 108 31 54 179 246 223
290 13 14 40 47 58 75 33 49 34 52 33 150 -1 148 -12 268 -25 272 -6 2 -26
-15 -45 -39z"/>
<path d="M6898 42870 c-10 -6 -18 -8 -18 -4 0 3 -9 -4 -19 -17 -14 -17 -16
-26 -8 -31 9 -6 9 -10 0 -16 -9 -6 -10 -17 -3 -43 6 -20 10 -47 9 -60 -2 -37
21 -189 31 -207 20 -40 67 -192 120 -392 34 -128 89 -284 117 -331 11 -19 33
-63 49 -99 16 -36 40 -83 55 -105 15 -22 37 -60 50 -85 13 -25 34 -56 47 -70
12 -13 22 -29 22 -35 0 -14 47 -41 56 -32 4 3 15 2 24 -3 15 -8 19 -4 24 33
10 69 6 436 -4 442 -14 9 -12 45 3 45 8 0 9 2 1 8 -7 4 -14 16 -16 27 -2 11
-10 19 -17 17 -7 -1 -10 1 -7 6 3 5 -3 41 -14 81 -11 39 -20 80 -20 91 0 37
-86 188 -134 235 -25 25 -46 51 -46 57 0 5 -22 47 -49 92 -73 122 -88 155
-100 226 -16 89 -30 129 -53 152 -23 23 -76 33 -100 18z"/>
<path d="M9920 41280 c0 -10 -8 -23 -17 -28 -16 -10 -30 -78 -32 -159 -1 -29
2 -33 24 -33 24 0 25 -3 25 -60 l0 -60 39 0 c23 0 48 8 64 20 14 11 32 20 41
20 14 0 16 20 16 160 l0 160 -80 0 c-73 0 -80 -2 -80 -20z"/>
<path d="M9406 40988 c-14 -19 -26 -40 -26 -46 0 -7 -4 -12 -10 -12 -5 0 -10
-11 -10 -25 0 -14 5 -25 10 -25 14 0 12 -37 -2 -44 -10 -5 -10 -7 0 -12 14 -7
17 -84 2 -84 -5 0 -10 14 -10 30 0 17 -4 30 -10 30 -5 0 -10 23 -10 50 0 49
-1 50 -30 50 -17 0 -30 5 -30 13 -1 6 -10 1 -20 -12 -20 -23 -20 -23 -20 -2 0
12 -5 21 -10 21 -6 0 -8 -11 -4 -25 4 -16 0 -35 -11 -52 -11 -16 -18 -48 -19
-84 -1 -48 2 -56 16 -54 12 3 15 -2 12 -19 -4 -22 -1 -23 43 -22 27 1 48 6 51
14 5 15 22 16 22 1 0 -19 27 -37 61 -41 29 -2 34 -7 37 -30 2 -16 8 -28 13
-28 5 0 9 -36 9 -80 l0 -80 40 0 40 0 0 80 c0 47 -4 80 -10 80 -6 0 -10 55
-10 145 l0 145 40 0 c37 0 40 2 40 26 0 24 3 26 31 20 17 -3 35 -6 40 -6 5 0
9 -13 9 -29 0 -27 14 -41 43 -41 16 0 16 71 0 88 -6 6 -19 12 -27 12 -12 0
-16 10 -16 40 0 47 5 46 -136 28 -77 -9 -97 -9 -104 1 -5 9 -15 3 -34 -21z"/>
<path d="M9920 37960 c0 -12 -7 -20 -17 -20 -9 0 -14 -3 -10 -6 3 -4 -1 -13
-10 -22 -11 -12 -14 -27 -9 -60 9 -66 25 -88 26 -34 0 23 5 42 10 42 13 0 10
-152 -3 -161 -6 -4 -5 -19 1 -35 9 -26 11 -26 11 -6 1 19 6 22 41 22 l40 0 0
150 0 150 -40 0 c-33 0 -40 -3 -40 -20z"/>
<path d="M10080 37401 c0 -16 -6 -21 -28 -21 -15 0 -33 5 -40 12 -9 9 -12 0
-12 -40 0 -39 -4 -52 -15 -52 -11 0 -14 -16 -12 -80 1 -76 10 -101 20 -62 3 9
3 -3 -1 -28 -5 -42 -4 -44 11 -28 12 11 17 33 17 67 0 77 20 61 22 -16 1 -38
2 -75 4 -83 1 -8 2 -20 3 -25 1 -6 10 -16 22 -23 16 -10 27 -10 55 0 19 6 34
18 34 25 0 7 5 13 10 13 6 0 10 18 10 40 0 29 4 40 15 40 12 0 15 16 15 80 0
79 0 80 -25 80 -21 0 -25 5 -25 28 0 15 -5 33 -12 40 -9 9 -9 12 0 12 22 0 13
18 -12 24 -13 3 -31 9 -40 12 -12 4 -16 0 -16 -15z"/>
<path d="M10053 36935 c-19 -37 -40 -155 -28 -155 3 0 10 10 15 23 8 21 9 20
11 -8 2 -16 4 -48 4 -70 1 -22 3 -65 5 -95 l3 -55 7 45 7 45 1 -42 c2 -36 5
-43 22 -43 17 0 20 -7 20 -40 0 -33 3 -40 20 -40 11 0 20 -5 20 -12 0 -9 3 -9
12 0 7 7 21 12 31 12 15 0 17 4 11 18 -14 31 -17 214 -4 222 9 6 10 29 4 91
-8 76 -11 84 -31 87 -13 2 -23 8 -23 13 0 5 -18 9 -39 9 -30 0 -40 4 -43 18
-3 12 -10 6 -25 -23z"/>
<path d="M9280 35911 c0 -81 -4 -131 -10 -131 -6 0 -10 -33 -10 -80 l0 -80
-30 0 -30 0 0 60 0 60 -40 0 c-40 0 -40 0 -40 40 0 34 -4 41 -25 46 -14 3 -25
12 -25 20 0 8 -6 14 -14 14 -10 0 -16 14 -19 43 -2 23 -4 5 -5 -40 -1 -46 1
-82 6 -82 39 6 42 1 42 -86 0 -58 -5 -96 -15 -116 -9 -16 -13 -34 -10 -39 3
-6 3 -15 -1 -22 -5 -7 -12 1 -20 23 -11 31 -11 29 -6 -30 4 -51 2 -62 -8 -56
-10 6 -11 -37 -4 -231 4 -131 8 -311 9 -399 2 -223 3 -247 15 -240 5 3 7 0 4
-8 -5 -14 -22 -223 -26 -337 -2 -36 0 -137 4 -225 3 -88 3 -140 -1 -115 -6 32
-9 1 -10 -110 -2 -85 -3 -178 -4 -207 -1 -28 2 -49 6 -46 5 3 7 -109 6 -249
-1 -189 2 -260 12 -281 11 -24 10 -33 -5 -62 -10 -18 -16 -38 -12 -43 10 -17
14 -206 4 -224 -6 -12 -5 -18 2 -18 7 0 8 -7 2 -17 -4 -10 -6 -171 -4 -358 5
-381 5 -444 -1 -665 -4 -130 -3 -136 2 -35 7 117 7 115 7 -60 1 -105 -2 -159
-6 -130 -4 28 -7 -65 -7 -205 -1 -140 2 -244 6 -230 4 14 6 -52 4 -145 -4
-168 10 -315 30 -315 5 0 6 -7 3 -15 -3 -9 0 -18 7 -20 23 -8 140 -31 210 -40
27 -4 45 -10 41 -16 -3 -6 6 -22 20 -36 14 -14 23 -29 20 -34 -3 -5 -1 -9 5
-9 19 0 40 -54 43 -110 0 -8 5 -21 11 -27 6 -9 6 -13 -1 -13 -6 0 -12 6 -15
13 -2 6 -8 9 -12 5 -4 -4 0 -23 9 -42 10 -21 14 -45 10 -65 -6 -26 -4 -31 14
-31 14 0 21 -9 26 -32 4 -18 3 -34 -2 -36 -4 -1 -5 -28 -1 -60 3 -31 4 -69 2
-84 -5 -27 -4 -28 36 -28 34 0 41 -3 41 -20 0 -18 7 -20 84 -20 l84 0 36 44
c34 42 36 48 36 120 l0 76 80 0 80 0 0 160 0 160 25 0 c23 0 25 4 25 40 0 29
4 40 15 40 11 0 15 -11 15 -40 0 -22 5 -40 10 -40 6 0 10 18 10 40 0 22 -4 40
-10 40 -6 0 -10 52 -10 135 0 131 1 137 25 160 13 14 31 25 40 25 13 0 15 -26
15 -200 l0 -200 30 0 30 0 0 240 0 240 -29 0 c-16 0 -31 -6 -34 -12 -2 -8 -8
-9 -13 -4 -5 5 -4 11 4 13 9 4 12 54 12 204 l0 199 -80 0 -80 0 0 39 c0 22 5
41 12 43 9 3 9 6 0 12 -7 4 -12 2 -12 -3 0 -6 -13 -11 -30 -11 l-30 0 0 -160
0 -160 30 0 30 0 0 -80 0 -80 -60 0 -60 0 0 59 c0 32 -3 86 -6 120 -7 61 -7
61 -39 61 l-33 0 -7 80 c-4 44 -11 80 -16 80 -5 0 -29 21 -54 46 l-45 45 0 75
0 74 -60 0 -60 0 0 120 c0 113 1 120 20 120 17 0 20 7 20 40 l0 40 40 0 40 0
0 94 c0 83 2 95 21 107 19 13 20 23 20 227 l0 212 39 0 40 0 0 -160 c0 -153 1
-160 20 -160 18 0 20 -7 20 -80 l0 -80 31 0 31 0 -6 73 c-4 39 -9 111 -12 160
-5 77 -8 87 -25 87 -18 0 -19 8 -19 120 0 87 3 120 12 120 9 0 9 3 0 12 -9 9
-12 120 -12 440 l0 428 -80 0 -80 0 0 40 0 40 -60 0 -61 0 2 52 c2 43 -1 54
-19 66 -20 13 -22 23 -22 108 0 87 1 94 20 94 18 0 20 7 20 83 0 95 7 127 26
127 10 0 14 15 14 55 0 48 2 55 20 55 18 0 20 7 20 80 0 47 -4 80 -10 80 -5 0
-10 18 -10 40 0 38 2 40 30 40 l30 0 0 60 0 60 -39 0 c-30 0 -40 4 -44 20 -4
16 -14 20 -44 20 l-38 0 3 80 c2 52 0 80 -7 80 -6 0 -11 9 -11 20 0 11 5 20
10 20 6 0 10 20 10 45 0 33 4 45 15 45 8 0 19 9 25 20 9 17 6 24 -15 44 -20
19 -25 32 -25 75 l0 51 40 0 40 0 0 80 0 80 40 0 40 0 0 80 0 80 80 0 80 0 0
80 0 80 -80 0 -80 0 0 120 c0 109 -2 120 -18 120 -10 0 -22 4 -27 9 -6 5 -52
12 -102 16 -90 6 -93 6 -93 -15 0 -12 -4 -18 -10 -15 -5 3 -10 42 -10 86 0 44
-4 79 -10 79 -5 0 -11 39 -12 87 -3 74 -6 88 -20 91 -16 3 -18 -8 -18 -127z
m158 -2933 c1 -131 -2 -238 -6 -238 -11 0 -29 185 -37 358 l-5 123 23 -3 22
-3 3 -237z"/>
<path d="M7837 34920 c-22 -60 -22 -216 -1 -350 8 -47 18 -179 24 -295 5 -115
12 -244 14 -285 2 -41 10 -96 17 -122 10 -36 10 -53 2 -70 -7 -13 -13 -88 -16
-166 l-3 -144 25 -11 26 -11 -27 -4 c-27 -3 -28 -5 -30 -70 -1 -37 -1 -96 1
-132 2 -36 4 -84 5 -107 1 -23 5 -45 9 -49 4 -4 1 -17 -7 -29 -8 -12 -19 -64
-25 -116 -6 -52 -14 -105 -17 -119 -5 -20 -4 -22 6 -10 8 11 10 -20 9 -130 -3
-168 2 -209 25 -222 9 -5 14 -13 11 -18 -3 -5 3 -15 15 -22 11 -7 20 -18 20
-24 0 -6 10 -20 23 -32 34 -32 72 -15 125 53 38 48 43 60 41 100 -2 25 -6 45
-10 45 -10 0 -3 218 7 244 5 13 1 23 -12 33 -18 14 -18 15 -1 28 15 11 16 15
4 27 -17 16 -28 66 -15 70 4 2 5 24 2 49 -6 41 -9 46 -27 41 -14 -4 -18 -2
-12 7 10 17 -14 61 -34 61 -14 0 -14 2 -2 9 12 8 12 12 2 25 -11 13 -11 16 -1
16 9 0 8 5 -3 18 -20 22 -22 43 -4 40 7 -2 13 9 13 27 1 17 5 42 9 56 4 17 2
31 -8 40 -10 11 -16 56 -21 169 -9 208 -11 579 -3 587 4 3 7 -17 7 -45 0 -29
3 -52 8 -52 4 0 7 53 7 117 1 145 22 472 35 533 15 67 19 169 8 176 -6 4 -8
21 -5 38 l6 31 -14 -30 c-8 -16 -14 -24 -15 -17 0 12 -37 32 -74 39 -11 2 -34
15 -52 28 -18 14 -36 25 -41 25 -5 0 -16 -23 -26 -50z"/>
<path d="M9680 34260 l0 -80 -40 0 -40 0 0 -40 c0 -28 -4 -40 -14 -40 -11 0
-16 -22 -22 -91 -5 -73 -10 -93 -25 -102 -26 -16 -27 -80 -1 -75 9 2 18 13 20
26 2 13 12 28 23 35 11 7 19 23 19 39 l0 28 80 0 80 0 0 30 c0 27 3 30 30 30
l30 0 0 160 0 160 -70 0 -70 0 0 -80z"/>
<path d="M9920 33820 l0 -40 -160 0 -160 0 0 -120 0 -120 160 0 160 0 0 50 0
50 80 0 80 0 0 70 c0 60 -3 70 -17 70 -22 0 -63 42 -63 64 0 12 -10 16 -40 16
l-40 0 0 -40z"/>
<path d="M7704 33643 c-3 -16 -11 -46 -16 -68 -10 -39 -14 -166 -7 -195 8 -30
49 -42 49 -15 0 8 8 15 17 15 13 0 14 3 5 12 -8 8 -12 50 -12 123 0 113 -6
155 -21 155 -5 0 -11 -12 -15 -27z"/>
<path d="M7646 30881 c-12 -19 -10 -289 3 -360 12 -69 12 -75 -6 -100 -15 -19
-33 -28 -68 -33 -28 -4 -66 -19 -89 -35 -50 -35 -53 -51 -57 -273 -3 -160 3
-190 39 -209 9 -5 64 -12 122 -16 172 -11 194 -29 205 -165 4 -47 10 -87 13
-90 18 -14 52 -82 72 -144 10 -33 13 -81 8 -153 -1 -7 -14 -18 -30 -25 -15 -7
-28 -17 -28 -21 0 -5 -5 -5 -10 -2 -19 12 -40 -23 -56 -91 -11 -50 -14 -102
-11 -201 5 -143 9 -154 64 -169 36 -10 56 -68 65 -194 5 -63 7 -140 4 -170 -3
-30 -1 -98 4 -151 5 -52 10 -139 11 -192 1 -53 5 -97 10 -97 5 0 9 -11 9 -25
0 -16 6 -25 15 -25 9 0 15 -9 15 -24 0 -13 3 -31 6 -40 9 -23 27 -20 21 3 -3
11 2 29 10 41 8 11 12 27 9 35 -3 9 0 12 10 8 17 -6 19 8 3 24 -9 9 -9 19 -1
40 6 15 11 39 11 53 1 14 1 92 1 175 1 118 4 155 16 174 10 15 16 44 15 81 0
32 6 80 14 107 8 26 15 72 15 101 0 28 4 52 9 52 5 0 12 8 16 19 7 23 -15 77
-25 60 -5 -7 -9 -5 -13 5 -4 9 -2 16 4 16 6 0 8 14 5 33 -2 17 -5 32 -6 32 -5
0 -5 55 0 56 3 0 36 1 73 2 62 2 70 4 84 29 14 23 15 36 5 95 -6 37 -14 152
-16 255 -4 162 -7 190 -23 207 -10 10 -26 31 -36 45 -10 14 -24 26 -32 26 -8
0 -19 9 -25 20 -6 11 -15 18 -19 15 -13 -8 -23 62 -12 83 15 28 48 41 171 66
82 16 155 24 255 25 158 2 342 25 366 47 8 8 20 14 26 14 16 0 34 26 36 52 0
13 6 27 12 31 7 6 6 10 -2 14 -16 6 -18 159 -2 168 6 4 8 13 5 20 -3 8 1 18 8
24 7 6 13 30 14 53 2 40 -1 45 -35 67 -47 30 -163 51 -289 51 -50 0 -147 4
-215 9 -68 6 -164 13 -214 16 -49 4 -137 13 -195 21 -58 8 -134 14 -170 13
-106 -4 -117 11 -111 146 3 57 -36 267 -51 276 -17 11 -26 11 -32 0z"/>
<path d="M9198 29824 c-3 -3 -25 -5 -49 -5 -58 0 -148 -19 -176 -37 -15 -9
-23 -24 -23 -43 0 -21 -5 -29 -17 -30 -10 0 -13 -2 -8 -5 11 -5 14 -193 3
-210 -9 -14 -8 -166 2 -226 4 -30 3 -48 -3 -48 -6 0 -8 -40 -3 -112 10 -176 3
-742 -9 -772 -5 -11 -5 -17 1 -14 5 4 10 -104 12 -265 2 -162 7 -273 12 -275
6 -2 9 -22 9 -45 l-2 -42 -7 40 c-5 26 -8 -15 -11 -120 l-3 -160 -6 165 -6
165 -2 -147 c-1 -81 2 -180 8 -220 13 -98 19 -318 8 -324 -5 -3 -6 -67 -4
-142 3 -91 2 -122 -4 -92 l-8 45 4 -50 c2 -27 6 -311 7 -630 2 -319 5 -582 6
-585 4 -11 3 -419 -2 -427 -2 -4 -5 -248 -6 -540 -1 -293 -6 -568 -11 -610 -6
-43 -8 -105 -5 -138 3 -33 8 -267 11 -520 3 -253 8 -507 10 -565 2 -58 3 -116
4 -129 0 -16 4 -21 15 -17 8 3 15 1 15 -4 0 -5 21 -12 46 -16 26 -4 54 -14 64
-23 9 -9 31 -28 48 -42 17 -15 28 -30 24 -34 -4 -4 3 -4 16 -1 13 5 22 3 22
-3 0 -6 -5 -11 -11 -11 -6 0 -4 -9 5 -21 9 -14 13 -33 9 -50 -3 -17 -1 -29 5
-29 6 0 10 -30 10 -75 0 -41 3 -79 6 -83 3 -5 1 -23 -4 -40 -5 -19 -5 -34 1
-37 12 -8 12 -45 -1 -45 -5 0 -10 -12 -10 -26 0 -16 4 -23 11 -18 8 5 10 -2 6
-21 -3 -16 1 -38 8 -49 14 -23 9 -126 -6 -126 -5 0 -9 -20 -9 -44 0 -33 -5
-46 -17 -51 -17 -6 -17 -7 0 -19 10 -8 17 -25 16 -42 -1 -17 -3 -22 -6 -11 -7
28 -23 9 -23 -30 0 -27 -3 -34 -15 -29 -8 3 -20 -3 -27 -13 -7 -10 -20 -20
-28 -24 -12 -4 -11 -6 3 -6 9 -1 17 -6 17 -12 0 -6 -8 -8 -19 -4 -11 3 -22 1
-26 -5 -3 -5 -21 -10 -40 -10 -36 0 -108 -36 -100 -50 3 -5 0 -21 -5 -36 -7
-19 -8 -29 -1 -34 6 -3 17 -38 24 -78 8 -39 10 -69 6 -67 -4 3 -7 -151 -7
-343 0 -191 -4 -356 -8 -366 -5 -13 -3 -21 4 -24 7 -2 12 -17 12 -33 0 -16 5
-29 10 -29 6 0 10 33 10 80 0 47 -4 80 -10 80 -5 0 -10 14 -10 30 0 19 5 30
14 30 8 0 17 6 19 13 3 6 6 -7 6 -30 1 -36 4 -43 21 -43 18 0 20 7 20 80 0 47
-4 80 -10 80 -6 0 -10 60 -10 160 0 100 4 160 10 160 6 0 10 18 10 40 0 22 5
40 10 40 6 0 10 -47 10 -120 0 -73 4 -120 10 -120 6 0 10 -33 10 -80 0 -47 -4
-80 -10 -80 -6 0 -10 -33 -10 -80 0 -47 -4 -80 -10 -80 -18 0 -11 -28 9 -35
22 -7 37 -38 22 -43 -6 -2 -11 -21 -11 -43 0 -28 -4 -39 -15 -39 -12 0 -15
-16 -15 -80 0 -52 4 -80 11 -80 7 0 9 -13 5 -37 -4 -21 -9 -55 -12 -75 -4 -21
-10 -38 -14 -38 -15 0 -22 38 -19 101 2 53 -1 65 -22 88 l-24 26 -5 -160 c-3
-88 -7 -144 -9 -125 -2 28 -4 31 -10 15 -11 -31 -7 -90 7 -87 9 1 11 -27 10
-110 l-2 -113 -3 95 c-2 52 -8 99 -13 104 -6 6 -9 -67 -9 -194 0 -135 -3 -205
-10 -210 -8 -4 -9 -43 -4 -127 5 -67 5 -119 1 -117 -5 3 -8 -12 -7 -33 1 -34
2 -35 9 -13 5 17 9 -8 11 -75 1 -55 1 -107 0 -115 -1 -8 -2 -253 -2 -545 0
-311 -5 -569 -11 -625 -14 -128 -17 -313 -4 -322 6 -4 5 -12 -4 -23 -10 -12
-11 -47 -5 -168 9 -166 9 -282 0 -455 -5 -93 -3 -121 11 -158 18 -48 18 -97
-6 -564 -5 -113 -9 -432 -8 -710 2 -575 1 -659 -9 -680 -4 -8 -7 -23 -8 -34
-2 -17 3 -18 84 -12 128 10 166 9 189 -3 11 -6 29 -11 39 -10 10 0 2 6 -17 12
-23 7 -29 12 -18 14 18 5 113 -46 104 -55 -10 -9 16 -32 35 -32 10 0 24 -10
30 -22 20 -38 36 -48 73 -48 29 0 36 -4 36 -20 0 -11 4 -20 8 -20 5 0 17 -18
27 -40 10 -22 24 -40 32 -40 9 0 13 -13 13 -40 0 -34 3 -40 20 -40 19 0 21 -6
19 -50 -3 -58 5 -71 26 -44 11 14 14 49 15 137 l0 117 48 0 c41 0 52 5 77 33
l30 32 5 -230 6 -230 2 238 2 237 34 0 33 0 7 148 c3 81 9 166 12 190 6 42 6
42 -25 42 -17 0 -31 5 -31 10 0 6 -9 10 -20 10 -15 0 -21 9 -26 40 -4 26 -12
40 -22 40 -12 0 -14 10 -8 61 3 34 6 70 6 80 0 11 7 19 15 19 22 0 19 42 -5
68 -12 13 -20 35 -20 57 0 28 4 35 20 35 18 0 20 7 20 76 0 67 -2 76 -20 81
-16 4 -20 14 -20 44 0 32 3 39 20 39 11 0 20 5 20 10 0 6 14 10 30 10 23 0 30
4 30 20 0 11 5 20 11 20 8 0 7 5 -1 15 -10 12 -10 21 -1 41 6 14 11 47 11 74
0 36 4 50 14 50 20 0 28 110 20 267 -5 102 -10 133 -20 133 -11 0 -14 32 -14
160 0 128 -3 160 -14 160 -17 0 -26 83 -26 239 0 128 -19 321 -32 321 -4 0 -8
18 -8 40 0 29 4 40 15 40 11 0 15 11 15 40 0 29 4 40 15 40 11 0 15 11 15 40
0 22 -5 40 -10 40 -7 0 -10 21 -9 52 2 43 -1 54 -19 66 -12 8 -22 21 -22 28 0
8 -9 14 -20 14 -17 0 -20 7 -20 40 0 31 -4 40 -17 40 -10 1 -31 16 -48 34 -25
29 -29 41 -26 80 2 36 -1 46 -13 46 -13 0 -16 14 -16 80 l0 80 -40 0 c-27 0
-40 4 -40 14 0 7 -7 19 -16 27 -8 7 -13 21 -11 30 3 10 0 20 -7 23 -7 3 -7 5
2 5 6 1 12 10 12 21 0 11 5 20 10 20 6 0 9 3 9 8 -1 4 -1 26 0 50 1 38 3 42
26 42 23 0 25 4 25 40 0 29 4 40 15 40 8 0 15 5 15 11 0 14 55 69 69 69 6 0
11 11 11 24 0 15 7 26 19 29 15 4 20 16 23 63 3 51 0 62 -19 80 -13 12 -23 26
-23 33 0 6 -17 11 -40 11 l-40 0 0 80 c0 73 -2 80 -20 80 -17 0 -20 7 -20 40
0 22 -4 40 -10 40 -5 0 -10 18 -10 40 0 38 -2 40 -30 40 -28 0 -30 2 -30 40 0
33 -3 40 -20 40 -15 0 -20 7 -20 25 0 23 -4 25 -40 25 -29 0 -40 4 -40 15 0 8
9 15 20 15 18 0 20 7 20 80 0 73 2 80 20 80 17 0 20 7 20 40 0 29 4 40 15 40
12 0 15 16 15 80 0 64 -3 80 -15 80 -12 0 -15 16 -15 80 0 73 -2 80 -20 80
-18 0 -20 7 -20 80 0 73 -2 80 -20 80 -18 0 -20 7 -20 80 l0 80 40 0 40 0 0
90 0 90 -40 0 c-22 0 -40 5 -40 10 0 6 -18 10 -40 10 -33 0 -40 3 -40 20 0 13
-7 20 -20 20 -19 0 -20 7 -20 120 0 113 -1 120 -20 120 -11 0 -20 -7 -20 -15
0 -11 -11 -15 -40 -15 -29 0 -40 4 -40 15 0 8 9 15 20 15 11 0 20 -5 20 -11 0
-5 5 -7 10 -4 13 8 13 85 0 85 -5 0 -10 20 -10 45 0 43 1 45 30 45 28 0 30 2
30 39 0 22 -4 43 -10 46 -13 8 -13 142 0 150 6 3 10 24 10 46 0 21 -4 39 -10
39 -5 0 -10 18 -10 39 0 22 5 43 10 46 6 3 10 40 10 81 l0 74 30 0 c28 0 30
-2 30 -40 0 -36 3 -40 24 -40 23 0 24 -4 31 -80 4 -44 11 -80 16 -80 5 0 9 -7
9 -15 0 -12 13 -15 55 -15 40 0 57 4 61 15 4 8 15 15 25 15 10 0 19 5 19 10 0
6 18 10 40 10 33 0 40 3 40 20 0 17 -7 20 -40 20 -22 0 -40 5 -40 10 0 6 14
10 30 10 28 0 30 2 30 40 0 22 5 40 10 40 6 0 10 37 10 93 l0 92 80 -3 80 -4
0 252 c0 249 0 252 -22 271 -13 10 -31 18 -40 19 -17 0 -18 22 -18 320 l0 320
40 0 c32 0 40 4 40 18 0 10 13 29 30 42 l29 25 1 118 0 117 -30 0 -30 0 0 80
0 80 30 0 30 0 0 240 c0 224 -1 240 -18 240 -32 0 -42 22 -42 92 l0 68 -40 0
c-22 0 -40 5 -40 11 0 14 55 69 69 69 7 0 11 41 11 120 l0 120 30 0 30 0 0 80
c0 47 4 80 10 80 6 0 10 60 10 160 l0 160 -26 0 c-32 0 -30 30 4 45 12 5 22
15 22 22 0 7 6 13 14 13 7 0 16 9 19 21 3 11 15 23 26 26 20 5 21 12 21 159 0
147 -1 154 -20 154 -13 0 -20 7 -20 20 0 13 7 20 20 20 16 0 20 7 20 30 0 28
-2 30 -40 30 l-40 0 0 -50 c0 -43 3 -50 20 -50 13 0 20 -7 20 -20 0 -13 -7
-20 -20 -20 -16 0 -19 -8 -22 -62 -3 -59 -4 -61 -20 -44 -14 14 -18 35 -18
102 0 77 -2 84 -20 84 -18 0 -20 -7 -20 -80 0 -47 -4 -80 -10 -80 -6 0 -10
-33 -10 -80 0 -47 4 -80 10 -80 6 0 10 -33 10 -80 l0 -80 -91 0 c-82 0 -93 2
-110 23 -25 31 -24 37 11 37 17 0 30 5 30 10 0 6 10 10 21 10 21 0 21 4 16 63
-3 34 -2 109 1 167 7 101 6 106 -15 126 -18 17 -23 32 -23 73 0 38 -4 51 -14
51 -8 0 -18 9 -21 20 -3 11 -11 20 -16 20 -5 0 -9 6 -9 14 0 14 -21 26 -46 26
-9 0 -14 -11 -14 -30 0 -23 4 -30 20 -30 11 0 20 -3 20 -8 0 -4 -9 -13 -20
-20 -13 -8 -20 -8 -20 -2 0 7 -6 7 -20 0 -14 -7 -26 -8 -38 -1 -16 10 -16 10
1 11 9 0 17 5 17 10 0 6 -11 10 -23 10 -15 0 -28 9 -35 24 -8 18 -16 23 -31
19 -12 -3 -21 -1 -21 6 0 6 20 12 48 13 26 0 54 1 62 2 12 1 15 25 18 139 l3
138 27 12 c15 6 38 22 52 34 14 13 33 23 43 23 16 0 17 2 4 15 -16 15 -12 105
5 116 10 7 7 350 -3 359 -11 9 -19 280 -9 280 16 0 11 69 -7 103 -11 21 -16
50 -14 85 2 47 0 52 -18 52 -18 0 -21 6 -21 45 0 31 4 45 13 45 9 0 12 -9 9
-29 -3 -22 2 -36 21 -55 22 -22 26 -23 30 -8 3 9 5 -4 6 -30 l1 -48 40 0 40 0
0 -320 c0 -207 4 -320 10 -320 6 0 10 -33 10 -80 l0 -80 30 0 c30 0 30 -1 30
-53 l0 -54 40 -13 c22 -7 40 -19 40 -27 0 -9 -13 -13 -40 -13 l-40 0 0 -160 0
-160 44 0 c39 0 47 4 80 44 l36 44 0 134 c0 121 -2 135 -20 151 -15 12 -20 29
-20 62 l0 45 60 0 60 0 0 80 0 80 -40 0 -40 0 0 80 0 80 -40 0 -40 0 0 80 c0
74 1 80 21 80 11 0 29 10 40 23 17 20 18 43 19 320 l0 297 -120 0 c-100 0
-120 -2 -120 -15 0 -8 -4 -15 -10 -15 -5 0 -10 7 -10 15 0 8 5 15 10 15 6 0
10 16 10 36 0 28 -10 48 -40 84 -30 36 -40 56 -40 84 0 20 -4 36 -10 36 -13 0
-13 -77 -1 -82 15 -5 17 -184 3 -180 -16 3 -16 -110 0 -126 9 -9 9 -12 0 -12
-7 0 -12 5 -12 10 0 6 -15 10 -32 10 -30 1 -31 2 -13 12 31 18 36 30 29 73 -3
22 -5 61 -5 88 2 41 0 47 -19 47 -17 0 -20 6 -20 40 0 33 -3 40 -20 40 -20 0
-20 7 -20 280 0 273 0 280 -20 280 -15 0 -20 7 -20 25 0 23 -4 25 -40 25 -47
0 -58 27 -12 32 l27 3 -27 26 c-24 22 -28 35 -28 78 0 28 5 51 10 51 6 0 10
18 10 40 l0 40 44 0 44 0 7 80 c6 69 10 80 26 80 17 0 19 8 19 80 0 47 4 80
10 80 6 0 10 18 10 40 0 22 -4 40 -10 40 -6 0 -10 33 -10 80 0 73 -2 80 -20
80 -19 0 -20 7 -20 120 0 113 -1 120 -20 120 -17 0 -20 7 -20 40 0 33 -3 40
-20 40 -17 0 -20 7 -20 40 0 33 3 40 19 40 16 0 20 -8 23 -37 3 -36 5 -38 41
-41 l37 -3 0 -80 c0 -46 4 -79 10 -79 6 0 10 -33 10 -80 0 -73 2 -80 20 -80
18 0 20 -7 20 -80 0 -47 4 -80 10 -80 6 0 10 -33 10 -80 0 -47 -4 -80 -10 -80
-6 0 -10 -33 -10 -80 l0 -80 30 0 30 0 0 -80 c0 -73 -2 -80 -20 -80 -19 0 -20
-7 -20 -160 0 -100 -4 -160 -10 -160 -5 0 -10 -18 -10 -40 0 -22 5 -40 10 -40
6 0 10 9 10 21 0 25 37 58 66 59 34 0 94 80 94 124 0 20 5 36 10 36 6 0 10 18
10 40 0 22 -4 40 -10 40 -5 0 -10 18 -10 40 0 33 3 40 20 40 18 0 20 7 20 80
0 73 -2 80 -20 80 -17 0 -20 7 -20 40 0 33 3 40 20 40 18 0 20 7 20 85 0 73
-3 88 -20 102 -15 14 -20 30 -20 71 0 49 -4 59 -40 102 -30 36 -40 56 -40 84
0 29 -4 36 -20 36 -17 0 -20 7 -20 40 0 33 -3 40 -20 40 -17 0 -20 7 -20 40 0
33 3 40 20 40 17 0 20 7 20 40 0 33 -3 40 -20 40 -19 0 -20 7 -20 200 0 198 0
200 21 200 21 0 22 3 15 61 -3 34 -6 70 -6 80 0 11 -7 19 -15 19 -11 0 -15 11
-15 40 l0 40 -40 0 -40 0 0 80 c0 70 -2 80 -18 80 -10 0 -26 10 -37 23 l-20
22 -3 -22 c-2 -13 -8 -23 -13 -23 -5 0 -9 -36 -9 -80 0 -47 4 -80 10 -80 6 0
10 -33 10 -80 0 -45 -4 -80 -10 -80 -6 0 -11 -64 -12 -157 l-3 -158 -27 -3
c-27 -3 -28 -2 -28 43 0 39 -5 52 -31 78 -18 17 -27 33 -20 35 7 2 11 33 11
83 0 46 4 79 10 79 6 0 10 33 10 80 0 47 4 80 10 80 6 0 10 47 10 120 0 130 2
126 -57 121 -13 -1 -23 0 -23 3 0 2 18 22 40 44 27 26 40 48 40 65 0 25 -3 27
-40 27 -22 0 -40 5 -40 10 0 6 -10 10 -22 10 l-23 0 24 19 24 18 -24 6 c-30 8
-54 9 -61 1z m522 -6444 l0 -240 -35 0 -35 0 0 240 0 240 35 0 35 0 0 -240z
m-180 -1640 c0 -38 2 -40 30 -40 l30 0 0 -100 0 -100 -40 0 c-33 0 -40 3 -40
20 0 17 -7 20 -40 20 -22 0 -40 5 -40 10 0 6 -18 10 -40 10 -22 0 -40 5 -40
10 0 6 18 10 40 10 l40 0 0 40 0 40 -40 0 c-33 0 -40 3 -40 20 0 13 -7 20 -20
20 -11 0 -20 5 -20 10 0 6 26 10 59 10 50 0 59 3 64 20 4 15 14 20 41 20 20 0
36 5 36 10 0 6 5 10 10 10 6 0 10 -18 10 -40z m-320 -5000 l0 -160 -30 0 -30
0 0 120 c0 113 1 120 20 120 17 0 20 7 20 40 0 22 5 40 10 40 6 0 10 -60 10
-160z"/>
<path d="M7782 25931 c-1 -14 -7 -21 -14 -18 -10 3 -13 -44 -11 -222 0 -124
-3 -251 -8 -281 -6 -39 -5 -63 4 -82 13 -31 32 -36 41 -13 7 19 9 535 2 555
-3 8 -7 31 -9 50 -2 20 -5 25 -5 11z"/>
<path d="M7745 25086 c-11 -8 -16 -19 -12 -30 4 -9 2 -28 -4 -43 -7 -19 -7
-29 0 -31 14 -5 15 -79 1 -84 -6 -2 -6 -18 0 -45 6 -23 6 -52 2 -65 -8 -22 -6
-164 2 -218 2 -14 4 -36 5 -49 0 -13 4 -22 7 -18 3 3 14 -3 25 -14 21 -21 59
-26 60 -6 0 6 2 21 4 32 11 68 12 173 4 255 -5 52 -9 106 -9 120 1 191 -3 210
-43 210 -13 0 -32 -6 -42 -14z"/>
<path d="M7773 24365 c-47 -20 -60 -73 -40 -151 9 -32 16 -54 16 -47 1 7 7 10
15 7 7 -3 27 7 45 21 28 24 31 33 31 80 0 50 -15 106 -29 105 -3 -1 -20 -7
-38 -15z"/>
<path d="M7750 24043 c-20 -26 -22 -35 -16 -116 3 -48 1 -121 -5 -163 -10 -63
-9 -83 5 -127 13 -43 16 -113 18 -417 2 -201 0 -401 -5 -445 -4 -45 -3 -86 2
-94 7 -11 26 -12 112 -3 57 6 105 16 107 22 3 8 8 7 18 -1 10 -8 14 -8 14 0 0
6 6 11 14 11 16 0 26 51 26 143 0 64 -2 72 -37 115 -21 26 -40 49 -43 52 -23
22 -31 70 -24 151 4 54 2 105 -5 136 -12 51 -17 130 -29 463 -8 227 -12 242
-75 280 -42 26 -51 25 -77 -7z"/>
<path d="M8337 22413 c-4 -3 -68 -7 -144 -9 -76 -2 -163 -9 -193 -15 -30 -6
-98 -13 -150 -14 -96 -3 -142 -17 -148 -45 -10 -42 11 -150 28 -150 4 0 11
-10 15 -22 4 -14 8 -18 12 -10 2 6 9 12 15 12 6 0 5 -7 -3 -16 -11 -13 -8 -19
17 -39 16 -14 35 -24 42 -25 6 0 12 -4 12 -10 0 -5 9 -10 20 -10 11 0 25 -9
32 -20 7 -11 23 -20 35 -20 13 0 23 -4 23 -9 0 -5 16 -15 36 -21 19 -7 40 -20
47 -31 6 -10 18 -19 25 -19 13 0 76 -61 85 -82 2 -7 17 -19 33 -27 16 -7 37
-17 46 -22 10 -5 71 -9 137 -9 109 0 120 2 126 19 3 10 17 22 31 25 14 4 22
11 19 16 -3 5 0 12 7 17 21 13 39 78 45 156 2 40 6 78 8 84 8 23 -14 275 -25
288 -10 13 -221 20 -233 8z"/>
<path d="M7950 21613 c-128 -19 -155 -36 -141 -92 12 -48 48 -62 155 -63 78
-1 98 -4 106 -17 5 -9 10 -11 10 -4 0 8 12 10 35 6 19 -3 35 -2 35 3 0 5 25 7
55 6 38 -3 55 0 55 8 0 8 11 11 30 8 17 -3 31 1 34 8 2 6 22 15 43 18 61 11
73 16 73 32 0 8 7 14 15 14 41 0 1 43 -55 60 -42 13 -385 22 -450 13z"/>
<path d="M7830 20795 c15 -18 12 -23 -21 -28 -17 -3 -24 -10 -24 -26 0 -12 -5
-25 -11 -29 -6 -4 -11 -24 -11 -46 -1 -38 -7 -54 -44 -127 -12 -22 -19 -58
-19 -89 0 -48 3 -56 37 -87 43 -41 49 -79 27 -165 -46 -173 -65 -484 -66
-1068 -2 -674 0 -710 37 -710 10 0 15 10 15 28 1 53 12 137 20 146 21 22 28
-18 36 -196 5 -106 7 -201 6 -211 -1 -10 2 -15 8 -12 6 3 7 -1 4 -9 -4 -11 0
-16 11 -16 9 0 16 7 14 18 -4 46 -1 49 62 50 46 0 62 -3 66 -15 4 -9 14 -24
23 -33 10 -10 19 -22 21 -29 2 -6 19 -12 36 -14 18 -2 41 -11 51 -20 10 -10
26 -17 35 -17 9 0 17 -6 17 -14 0 -8 7 -17 16 -20 12 -5 15 -16 12 -44 -3 -20
-8 -45 -12 -54 -6 -13 -4 -18 8 -18 12 0 16 -10 16 -40 0 -40 0 -40 -39 -40
-22 0 -42 5 -44 13 -4 10 -6 10 -6 0 -1 -7 -6 -13 -11 -13 -15 0 -60 -50 -60
-66 0 -18 56 -19 64 -1 5 10 7 10 12 0 3 -7 17 -13 30 -13 13 0 24 -5 24 -11
0 -5 -4 -8 -9 -5 -5 4 -21 2 -35 -4 -14 -5 -26 -6 -26 -1 0 18 -39 -2 -69 -35
-22 -24 -31 -43 -31 -69 0 -19 -4 -35 -10 -35 -5 0 -10 -7 -10 -15 0 -18 -16
-20 -26 -4 -4 8 -14 -1 -25 -22 -23 -43 -23 -50 -1 -43 10 4 13 3 6 -3 -6 -4
-15 -18 -19 -31 -5 -19 -3 -25 14 -29 16 -4 19 -9 11 -24 -8 -14 -3 -26 25
-56 56 -62 56 -117 -2 -208 -23 -37 -33 -44 -59 -45 -41 0 -49 27 -34 124 5
39 10 91 9 116 -1 25 2 61 6 80 5 26 4 31 -4 20 -9 -12 -11 -9 -11 15 -3 98
-8 148 -17 153 -5 4 -10 27 -11 52 -1 52 -15 81 -59 127 -18 18 -35 44 -39 58
-9 38 -32 30 -46 -17 -10 -32 -13 -128 -11 -372 1 -180 4 -339 8 -353 4 -19
11 -24 33 -22 15 2 33 7 40 12 8 6 12 5 12 -2 0 -7 5 -9 10 -6 14 9 12 -33 -2
-49 -9 -10 -20 -11 -36 -5 -61 23 -78 -42 -67 -249 4 -64 2 -153 -3 -197 -5
-47 -5 -188 -1 -345 5 -146 9 -364 9 -486 0 -255 -4 -247 92 -250 33 -1 78
-10 100 -20 l39 -18 -7 -140 c-4 -78 -8 -208 -9 -291 -1 -82 -3 -157 -3 -165
-3 -28 -81 -48 -184 -49 -225 -2 -344 -29 -406 -94 -47 -49 -65 -145 -41 -214
12 -35 22 -38 204 -74 61 -11 125 -27 144 -35 49 -20 138 -17 296 10 86 15
202 27 300 31 88 3 189 8 225 12 36 3 121 7 190 8 145 3 213 11 254 31 16 8
38 14 48 14 10 0 21 8 24 18 3 9 10 25 15 35 7 13 6 23 -2 34 -10 12 -10 16 1
23 24 15 14 70 -21 106 -50 52 -91 65 -268 89 -92 13 -193 32 -227 43 -33 12
-70 18 -82 15 -13 -3 -22 -1 -22 6 0 7 -4 10 -9 6 -5 -3 -12 -1 -16 5 -3 5 1
10 9 10 20 0 21 36 1 44 -9 3 -15 19 -15 41 0 19 -4 35 -10 35 -5 0 -10 18
-10 40 0 27 -4 40 -14 40 -7 0 -16 9 -19 20 -3 11 -2 20 1 20 4 0 8 27 10 61
2 41 0 59 -7 54 -7 -3 -8 0 -5 9 3 9 2 29 -4 44 -5 16 -6 35 -2 43 5 8 11 38
13 67 2 29 7 55 11 59 11 11 7 101 -5 105 -7 2 -14 41 -17 99 -4 79 -2 98 12
111 21 22 22 101 1 118 -11 9 -12 16 -5 25 7 8 4 27 -9 61 -10 27 -31 87 -46
134 -15 47 -34 92 -41 101 -8 8 -14 23 -14 32 0 9 -6 14 -13 11 -17 -6 -47 47
-47 83 0 22 -2 25 -10 13 -7 -11 -10 -4 -10 28 0 34 -3 42 -19 42 -10 0 -24 7
-31 15 -19 23 -30 18 -46 -20 -9 -22 -19 -32 -28 -29 -7 3 -16 -3 -20 -12 -6
-16 -8 -15 -22 4 -9 13 -12 27 -7 35 4 6 8 32 9 56 1 24 6 46 11 50 5 3 14 25
20 48 9 35 8 47 -7 71 -10 16 -23 52 -29 81 -13 62 -15 191 -2 191 5 0 11 9
14 20 6 23 32 26 88 10 54 -15 129 -20 129 -9 0 6 -4 7 -10 4 -6 -3 -7 1 -3
10 5 13 8 14 15 3 6 -10 13 -7 28 12 11 14 26 32 33 40 7 8 19 29 26 45 7 19
26 37 51 48 l39 18 -2 103 c-1 57 -5 102 -8 100 -4 -2 -10 29 -14 69 -7 60 -9
67 -15 42 -7 -28 -8 -27 -9 13 0 23 4 42 9 42 17 0 11 25 -10 43 -25 21 -25
34 -2 40 15 4 14 6 -5 12 -22 7 -22 9 -39 138 -4 31 -2 53 5 60 6 6 11 34 11
63 0 47 -2 52 -20 47 -15 -4 -20 0 -20 15 0 12 5 24 10 27 6 3 10 22 10 42 0
41 15 103 38 153 20 42 19 144 -1 192 -10 23 -13 68 -12 147 2 92 -1 122 -15
154 -25 56 -46 64 -133 55 -108 -10 -318 36 -339 75 -14 27 6 77 52 125 46 48
51 81 20 142 -25 50 -25 76 1 124 25 47 20 82 -17 131 -32 43 -30 88 5 93 34
5 69 -6 91 -28 23 -23 93 -60 115 -60 8 0 15 7 15 15 0 8 9 15 20 15 15 0 20
7 20 25 0 21 6 26 40 31 l40 7 0 58 c0 33 -4 59 -10 59 -15 0 -12 77 3 84 10
5 10 7 0 12 -15 7 -18 34 -4 34 5 0 11 -5 13 -12 8 -23 28 4 28 37 0 36 17 57
25 31 16 -51 14 -49 32 -30 11 10 18 34 19 63 2 60 12 93 35 109 12 8 19 25
19 48 0 33 -1 34 -40 34 -25 0 -40 5 -40 13 0 7 -9 18 -20 25 -16 9 -20 23
-20 62 0 43 3 50 20 50 14 0 20 7 20 23 0 13 5 28 11 34 15 15 15 141 0 156
-6 6 -11 19 -11 29 0 10 -7 30 -16 43 -9 13 -13 29 -9 35 4 6 3 44 0 85 -7 70
-9 75 -31 75 -13 0 -24 -4 -24 -10 0 -5 -18 -10 -40 -10 -36 0 -40 3 -40 25 0
23 -4 25 -41 25 -38 0 -41 -2 -35 -22 3 -13 6 -29 6 -35 0 -9 22 -13 75 -13
l75 0 0 -40 0 -41 -77 3 c-75 3 -78 4 -81 28 -7 70 -14 90 -29 90 -13 0 -15
13 -11 90 4 91 4 91 -21 96 -14 3 -44 14 -67 25 -50 23 -61 24 -44 4z m178
-635 c16 -53 15 -60 -8 -60 -18 0 -21 -6 -21 -47 1 -91 -15 -155 -41 -172 -27
-17 -33 -8 -20 29 8 22 8 29 0 24 -7 -5 -8 -2 -3 6 4 7 7 64 6 126 -1 95 2
114 14 114 10 0 15 -12 16 -37 2 -31 3 -33 6 -10 2 15 9 27 14 27 5 0 9 9 9
20 0 33 14 23 28 -20z m-60 -353 c2 -15 -2 -27 -8 -27 -6 0 -8 -5 -5 -11 5 -7
12 -6 23 4 24 21 62 5 55 -22 -3 -12 -10 -18 -15 -15 -5 3 -4 -3 3 -15 8 -11
27 -23 44 -27 33 -7 54 -29 55 -56 0 -10 5 -18 10 -18 6 0 10 -18 10 -40 0
-22 5 -40 10 -40 6 0 10 -9 10 -20 0 -16 -7 -20 -30 -20 -16 0 -30 5 -30 10 0
6 9 10 20 10 24 0 25 6 5 26 -8 9 -15 11 -15 5 0 -6 -12 -17 -27 -25 -16 -8
-22 -15 -15 -16 17 0 15 -20 -3 -20 -8 0 -15 4 -15 9 0 4 -26 11 -58 14 -82 7
-102 22 -102 73 0 23 7 59 17 80 9 22 18 53 20 69 9 77 16 106 27 102 6 -2 12
-16 14 -30z"/>
<path d="M9760 20180 l0 -140 80 0 80 0 0 -50 0 -50 40 0 c39 0 40 1 40 36 0
28 -10 48 -40 84 -30 36 -40 56 -40 84 0 29 -4 36 -20 36 -17 0 -20 7 -20 40
0 33 -3 40 -20 40 -16 0 -20 7 -20 30 0 28 -2 30 -40 30 l-40 0 0 -140z"/>
<path d="M9920 19490 l0 -130 22 12 c50 29 57 47 58 151 l0 97 -40 0 -40 0 0
-130z"/>
<path d="M7883 17983 c-7 -22 -8 -44 -3 -53 5 -9 11 -36 13 -60 5 -46 29 -75
73 -86 17 -4 30 1 49 21 27 30 30 42 15 65 -7 11 -10 11 -10 2 0 -7 -4 -10
-10 -7 -5 3 -10 34 -10 69 0 35 -5 67 -12 74 -7 7 -30 12 -53 12 -38 0 -41 -2
-52 -37z"/>
<path d="M9900 16900 c0 -207 4 -320 10 -320 6 0 10 41 10 103 0 91 2 104 20
115 15 9 20 23 20 57 0 38 3 45 20 45 19 0 20 7 20 100 l0 100 -40 0 -40 0 0
60 c0 33 -4 60 -10 60 -6 0 -10 -113 -10 -320z"/>
<path d="M9382 14436 c-19 -7 -37 -17 -40 -23 -4 -6 -24 -14 -45 -18 -21 -4
-44 -13 -51 -20 -7 -7 -24 -15 -37 -17 -15 -2 -23 -9 -21 -18 3 -10 -4 -8 -20
6 -13 12 -32 21 -43 21 -33 0 -80 -32 -83 -55 -2 -12 -8 -22 -14 -22 -6 0 -8
-9 -5 -20 3 -11 1 -18 -4 -14 -5 3 -9 -4 -9 -16 0 -13 4 -19 11 -14 12 7 9
-79 -10 -286 -9 -98 -5 -489 5 -499 7 -7 4 -51 -3 -51 -5 0 -6 -44 -3 -97 3
-54 3 -154 -1 -223 -4 -69 -8 -1054 -8 -2190 -1 -1136 -3 -2135 -6 -2220 -5
-205 10 -258 77 -275 28 -7 130 -90 121 -99 -3 -3 2 -15 12 -26 15 -17 18 -37
18 -118 0 -104 -4 -130 -19 -140 -6 -4 -20 -23 -32 -43 -13 -22 -42 -47 -74
-64 -46 -24 -65 -28 -140 -29 -97 -1 -117 -13 -118 -70 0 -35 76 -116 109
-116 12 0 31 -5 41 -10 11 -6 49 -13 85 -16 37 -3 78 -9 91 -15 14 -5 30 -7
35 -3 5 3 12 -2 15 -10 3 -9 14 -16 24 -16 21 0 44 -25 35 -39 -3 -7 0 -8 9
-5 12 5 16 0 16 -20 0 -16 6 -26 14 -26 8 0 17 -14 21 -30 4 -17 11 -30 16
-30 5 0 9 -8 9 -17 0 -10 11 -29 25 -43 50 -51 75 -83 75 -98 0 -8 10 -31 22
-51 13 -20 21 -37 20 -39 -10 -8 13 -64 29 -72 10 -6 19 -18 19 -27 0 -24 40
-104 50 -98 4 2 10 -8 13 -23 3 -15 15 -38 26 -51 12 -13 21 -30 21 -38 0 -7
5 -13 11 -13 5 0 8 -4 5 -9 -3 -5 8 -24 24 -42 16 -19 36 -47 45 -64 8 -16 15
-25 15 -20 1 6 11 -9 23 -32 12 -22 43 -69 70 -104 26 -35 47 -68 47 -74 0 -6
9 -21 21 -33 11 -13 23 -39 26 -60 4 -20 15 -57 26 -82 11 -25 19 -51 18 -57
-1 -7 4 -10 13 -7 10 4 16 -4 21 -26 4 -20 12 -30 20 -26 10 3 12 -5 8 -35 -6
-39 11 -57 20 -21 2 9 2 -24 0 -75 -1 -50 1 -94 6 -97 12 -8 -8 -96 -25 -114
-8 -7 -14 -20 -14 -28 0 -8 -4 -12 -10 -9 -5 3 -10 -2 -10 -12 0 -11 -11 -34
-25 -53 -14 -19 -25 -39 -25 -46 0 -6 -6 -17 -14 -23 -8 -7 -18 -27 -21 -44
-4 -18 -19 -57 -35 -87 -16 -31 -31 -72 -35 -92 -4 -20 -14 -39 -22 -42 -8 -3
-12 -10 -8 -16 3 -5 -6 -35 -21 -66 -15 -32 -29 -71 -30 -87 -2 -17 -15 -54
-29 -83 -14 -29 -25 -58 -25 -63 0 -6 -6 -11 -12 -11 -15 0 -38 -45 -38 -72 0
-10 -5 -18 -10 -18 -10 0 -80 -142 -80 -164 0 -6 -6 -20 -13 -31 -20 -30 -57
-125 -57 -146 0 -11 -4 -19 -10 -19 -5 0 -13 -12 -16 -27 -4 -16 -15 -42 -25
-60 -10 -17 -15 -34 -12 -37 3 -3 -2 -8 -11 -12 -9 -3 -14 -10 -11 -14 3 -5
-13 -16 -35 -26 -22 -10 -40 -22 -40 -27 0 -4 -4 -6 -10 -2 -5 3 -28 -3 -52
-14 -24 -11 -64 -22 -91 -26 -26 -3 -57 -10 -70 -14 -12 -5 -49 -15 -82 -21
-146 -30 -226 -49 -332 -81 -45 -14 -92 -65 -98 -108 -3 -20 -12 -63 -20 -96
-7 -33 -16 -73 -20 -89 -5 -23 -7 -174 -3 -231 2 -25 30 -13 41 17 10 28 55
32 146 15 47 -10 147 -22 221 -27 226 -17 329 -41 350 -81 6 -10 10 -62 10
-116 0 -54 1 -118 2 -143 l3 -45 -56 -22 c-31 -12 -107 -36 -170 -52 -63 -16
-136 -39 -164 -51 -61 -27 -189 -75 -270 -101 -63 -21 -86 -34 -122 -68 -20
-19 -21 -27 -16 -123 5 -101 -14 -391 -41 -623 -14 -117 -11 -221 7 -243 6 -8
28 -22 50 -33 66 -34 151 -28 298 22 161 54 205 76 316 152 109 77 169 94 293
83 65 -5 85 -3 105 10 22 14 125 163 125 180 0 4 20 48 44 98 25 50 50 114 56
141 7 28 35 97 63 154 43 87 61 112 115 160 66 58 138 155 149 200 3 14 9 28
12 31 31 26 111 172 111 203 0 8 7 20 15 27 8 6 17 21 21 32 9 30 70 88 92 88
42 0 67 -60 78 -185 4 -44 18 -123 31 -175 14 -52 31 -122 38 -155 8 -33 23
-88 34 -123 28 -87 50 -200 56 -285 8 -122 14 -460 8 -489 -8 -39 -20 -35 -27
10 -3 20 -8 46 -10 57 -3 11 -12 61 -21 110 -9 50 -27 112 -42 139 -26 50 -27
58 -24 217 2 93 -21 184 -75 292 -38 76 -61 97 -105 97 -42 0 -62 22 -73 83
-4 20 -11 37 -16 37 -10 0 -30 -87 -30 -130 0 -16 -5 -41 -10 -55 -9 -24 -15
-26 -53 -24 -81 5 -101 -10 -146 -106 -16 -33 -47 -91 -69 -128 -22 -38 -52
-107 -67 -155 -35 -113 -85 -240 -106 -272 -37 -56 -89 -171 -89 -198 0 -40
30 -75 86 -101 43 -21 48 -21 92 -7 26 8 76 22 112 31 41 11 82 29 109 51 32
24 54 34 80 34 45 0 81 -10 81 -21 0 -24 -118 -109 -152 -109 -12 0 -125 -77
-155 -106 -12 -12 -23 -37 -25 -57 -6 -68 -59 -114 -149 -131 -62 -11 -107
-76 -148 -213 -27 -90 -30 -93 -221 -170 -47 -19 -111 -43 -143 -53 -108 -36
-243 -119 -489 -301 -108 -80 -214 -153 -287 -197 -35 -20 -51 -46 -158 -253
-58 -113 -95 -163 -116 -156 -7 2 -17 41 -25 93 -11 77 -10 111 2 207 1 10 14
29 29 43 15 14 28 29 28 34 2 13 4 21 12 40 3 8 8 58 11 110 3 52 8 106 11
120 9 42 24 265 30 455 9 284 36 726 45 750 4 12 11 48 15 80 4 32 18 85 31
117 25 61 70 382 59 418 -3 10 -27 42 -53 72 -153 177 -168 196 -192 252 -10
25 -24 46 -30 46 -5 0 -10 7 -10 15 0 19 -5 19 -33 1 -12 -8 -38 -17 -58 -20
-33 -6 -36 -10 -48 -56 -9 -36 -27 -66 -63 -105 -27 -30 -53 -68 -58 -84 -5
-17 -11 -165 -15 -328 -7 -333 -30 -836 -44 -958 -19 -163 -23 -343 -11 -520
28 -417 27 -384 4 -406 -21 -19 -21 -19 -47 1 -14 11 -40 45 -57 74 -17 30
-46 68 -66 85 -50 45 -198 141 -279 181 -39 19 -72 38 -75 41 -3 3 -48 27
-100 53 -52 26 -103 52 -112 57 -10 5 -24 9 -32 9 -8 0 -27 7 -43 15 -15 8
-57 27 -93 41 -36 15 -74 35 -85 44 -11 9 -36 23 -55 30 -44 17 -120 60 -140
80 -9 8 -32 29 -51 45 -20 17 -38 38 -42 47 -3 10 -27 48 -52 86 -25 38 -45
72 -45 76 0 10 -43 70 -57 79 -7 4 -13 13 -13 19 0 6 -20 33 -45 59 -25 26
-45 53 -45 59 0 6 -4 9 -9 5 -6 -3 -15 4 -21 15 -6 11 -17 20 -26 20 -8 0 -17
6 -20 14 -4 9 -27 17 -62 21 -32 4 -66 8 -77 11 -11 2 -14 1 -6 -2 10 -5 6
-10 -15 -20 -16 -7 -22 -13 -14 -13 10 -1 8 -6 -8 -17 -12 -8 -27 -12 -32 -9
-6 3 -10 -1 -10 -10 0 -11 -5 -15 -15 -11 -9 3 -18 -1 -22 -10 -3 -9 -15 -20
-27 -25 -11 -5 -36 -18 -54 -29 -18 -11 -37 -18 -42 -15 -5 3 -17 -3 -27 -15
-10 -11 -22 -20 -27 -20 -5 0 -16 -8 -25 -18 -20 -22 -118 -72 -142 -72 -10 0
-21 5 -24 10 -10 16 -6 308 6 380 5 36 14 175 19 310 12 303 27 501 40 514 13
13 13 39 0 31 -5 -3 -10 -2 -10 4 0 5 8 14 18 20 9 5 17 13 17 18 0 4 2 7 5 6
3 -1 6 12 7 27 1 16 12 39 23 50 12 12 19 28 16 36 -3 8 -2 14 3 14 9 0 26 66
22 88 -1 6 3 12 10 12 6 0 9 7 5 15 -3 8 0 28 6 43 6 15 12 36 13 47 0 11 4
32 9 46 4 14 8 32 10 41 3 23 49 88 62 88 7 0 15 8 18 17 4 10 10 13 14 8 4
-6 16 -15 27 -21 11 -6 28 -26 37 -44 9 -18 22 -37 29 -41 6 -3 9 -12 5 -18
-11 -17 13 -90 34 -101 10 -5 24 -26 31 -45 7 -19 18 -35 24 -35 6 0 11 -9 12
-20 1 -11 13 -34 26 -52 14 -18 36 -53 50 -78 47 -88 62 -110 75 -110 6 0 12
-4 12 -9 0 -5 14 -23 30 -41 17 -18 56 -85 86 -149 30 -64 61 -127 69 -141 19
-36 23 -82 7 -88 -28 -9 -99 88 -178 243 -43 86 -93 173 -112 193 -18 20 -47
60 -62 87 -38 66 -113 150 -127 142 -6 -4 -13 -60 -16 -129 -3 -80 -10 -136
-21 -160 -8 -20 -20 -58 -26 -84 -14 -59 -22 -69 -75 -93 -56 -25 -64 -50 -67
-218 -2 -73 -6 -133 -9 -133 -7 0 -21 -47 -49 -175 -11 -49 -29 -121 -40 -160
-20 -74 -27 -220 -10 -230 19 -11 86 34 139 95 29 34 82 100 117 147 36 48 79
97 96 110 l32 23 41 -45 c23 -25 49 -45 58 -45 10 0 17 -4 17 -8 0 -18 81 -32
178 -32 55 0 107 -3 115 -6 12 -4 14 -18 10 -60 -5 -48 -2 -58 21 -89 36 -47
152 -106 184 -94 29 11 46 50 38 86 -7 27 -84 109 -139 148 -34 24 -43 60 -52
190 -11 170 13 190 116 93 33 -32 65 -59 70 -59 5 -1 14 -3 19 -4 6 -1 26 -3
45 -4 21 -1 34 -6 33 -13 -2 -7 12 -17 30 -23 18 -6 29 -14 26 -18 -4 -4 2
-10 12 -13 10 -4 27 -14 36 -22 10 -8 30 -15 45 -16 18 -1 27 -6 25 -15 -2
-10 5 -12 23 -9 17 4 30 0 38 -11 10 -15 36 -30 57 -35 3 -1 15 -7 26 -14 12
-6 24 -8 28 -5 3 3 6 0 6 -8 0 -16 120 -67 178 -76 18 -3 35 -10 38 -14 3 -5
14 -9 26 -9 58 0 180 -93 189 -145 5 -24 51 -31 92 -16 22 9 27 17 27 47 0 20
-7 63 -16 97 -12 47 -13 70 -5 106 16 73 25 232 35 674 5 234 4 267 -9 267 -9
0 -15 9 -15 25 0 18 -5 25 -19 25 -11 0 -21 4 -23 10 -1 5 -31 13 -65 16 -43
5 -63 11 -63 20 0 10 -14 14 -42 15 -24 1 -33 4 -20 6 31 6 17 23 -19 23 -21
0 -28 4 -23 12 5 8 2 9 -10 5 -10 -4 -26 -2 -38 4 -11 6 -88 12 -171 15 -163
4 -193 8 -235 30 -15 8 -32 14 -38 14 -18 0 -35 26 -45 67 -24 110 66 215 225
264 22 6 71 29 110 49 86 46 155 64 322 85 158 19 172 30 176 123 2 34 7 62
12 62 8 0 1 120 -10 165 -7 29 -114 67 -244 86 -70 10 -140 30 -140 39 0 4
-21 7 -48 7 -41 1 -127 31 -182 64 -35 21 -100 49 -113 49 -24 0 -151 50 -169
67 -10 9 -18 24 -18 33 0 18 -25 35 -47 31 -7 -1 -13 7 -13 19 0 11 -4 20 -9
20 -5 0 -11 15 -14 33 -21 133 -31 175 -43 192 -13 17 -16 18 -24 5 -7 -12
-10 -8 -10 13 0 29 -20 57 -39 57 -6 0 -11 9 -11 20 0 11 -7 20 -15 20 -11 0
-15 11 -15 38 0 33 -7 46 -49 88 -74 74 -74 74 -150 74 -64 0 -73 3 -98 28
-16 15 -39 32 -53 39 -14 6 -43 19 -65 29 -22 11 -51 20 -65 20 -25 2 -78 18
-112 35 -10 5 -25 9 -33 9 -8 0 -15 9 -15 20 0 18 -7 20 -80 20 -73 0 -80 -2
-80 -20 0 -16 -7 -20 -36 -20 -29 0 -43 -8 -76 -43 -25 -25 -43 -37 -45 -29
-3 7 -21 12 -44 12 l-39 0 0 83 c0 76 2 83 23 92 14 6 23 21 25 38 2 16 10 31
18 34 10 4 14 23 14 73 0 60 3 69 20 75 23 7 27 40 6 48 -8 3 -23 3 -34 0 -11
-2 -23 0 -26 6 -4 6 -16 11 -27 11 -12 0 -19 7 -19 20 0 18 -7 20 -80 20 -47
0 -80 4 -80 10 0 6 33 10 80 10 47 0 80 4 80 10 0 6 -18 10 -40 10 -38 0 -40
2 -40 30 0 28 -2 30 -40 30 -22 0 -40 -4 -40 -10 0 -5 -18 -10 -40 -10 -29 0
-40 -4 -40 -15 0 -12 -12 -15 -57 -14 -84 3 -146 -9 -139 -28 3 -8 6 -20 6
-26 0 -7 7 -3 15 7 13 18 15 6 15 -111 l0 -131 -80 -7 c-68 -6 -80 -10 -80
-25 0 -24 -18 -36 -33 -21 -17 17 -24 13 -30 -15 -3 -18 2 -33 14 -45 11 -11
19 -33 19 -54 0 -19 5 -35 10 -35 6 0 10 -18 10 -40 0 -33 -3 -40 -20 -40 -16
0 -20 -7 -20 -35 0 -22 -6 -38 -15 -41 -8 -4 -15 -11 -15 -18 -1 -15 -38 -41
-75 -51 l-30 -9 34 -4 c18 -2 38 1 44 7 23 23 27 8 27 -94 0 -99 2 -107 25
-130 13 -14 31 -25 40 -25 8 0 15 -9 15 -20 0 -17 -7 -20 -48 -20 -36 0 -51 5
-62 20 -8 11 -22 20 -32 20 -17 0 -18 -15 -18 -197 0 -186 1 -201 22 -240 26
-49 58 -59 58 -18 0 30 11 32 33 7 23 -25 21 -32 -8 -32 -22 0 -25 -4 -25 -40
0 -29 -4 -40 -15 -40 -11 0 -15 -11 -15 -40 0 -36 -2 -40 -25 -40 -22 0 -25
-4 -25 -35 0 -20 -5 -41 -10 -48 -39 -46 -50 -61 -50 -69 0 -4 -6 -8 -14 -8
-7 0 -30 -20 -50 -44 -26 -33 -36 -54 -36 -80 0 -35 -1 -36 -40 -36 -39 0 -40
-1 -40 -36 0 -28 -11 -49 -55 -103 -30 -38 -55 -76 -55 -85 0 -10 -8 -16 -25
-16 -25 0 -25 -1 -25 -80 0 -47 -4 -80 -10 -80 -5 0 -10 -18 -10 -41 0 -32 -6
-47 -30 -71 -28 -27 -30 -35 -30 -99 l0 -69 -40 0 c-38 0 -40 -1 -40 -31 0
-18 7 -37 16 -43 14 -11 14 -13 0 -25 -14 -12 -16 -10 -16 8 0 11 -4 21 -10
21 -5 0 -10 7 -10 15 0 8 -9 15 -20 15 -11 0 -20 -7 -20 -15 0 -8 9 -15 20
-15 18 0 20 -7 20 -65 0 -37 -4 -65 -10 -65 -5 0 -10 -21 -10 -47 0 -30 -8
-60 -20 -81 -11 -18 -20 -50 -20 -72 0 -35 -3 -39 -27 -42 l-28 -4 28 -14 c15
-7 27 -16 27 -19 0 -16 -67 -41 -111 -41 -53 0 -67 -18 -26 -35 33 -15 34 -58
3 -83 -23 -18 -26 -27 -26 -86 0 -52 3 -66 15 -66 9 0 15 -9 15 -25 0 -16 -6
-25 -15 -25 -11 0 -15 -11 -15 -40 0 -33 -3 -40 -20 -40 -17 0 -20 -7 -20 -40
0 -33 -3 -40 -20 -40 -11 0 -20 -6 -20 -13 0 -12 -24 -28 -62 -43 -10 -3 -18
-10 -18 -15 0 -5 -9 -9 -20 -9 -17 0 -20 -7 -20 -40 l0 -40 -65 0 -65 0 2 -52
c1 -36 2 -43 5 -20 4 30 7 32 44 32 39 0 39 0 39 -38 0 -25 -7 -43 -20 -55
-27 -23 -27 -67 0 -67 13 0 20 -7 20 -20 0 -11 -7 -20 -15 -20 -8 0 -19 -17
-26 -40 -15 -51 -37 -52 -41 -2 l-3 37 -16 -30 c-9 -17 -20 -69 -24 -118 l-7
-89 -34 4 c-19 2 -34 0 -34 -4 0 -4 -3 -7 -7 -7 -30 5 -33 -3 -33 -106 0 -98
-1 -105 -20 -105 -17 0 -20 -7 -20 -52 0 -73 -10 -128 -24 -128 -6 0 -20 -18
-30 -40 -14 -30 -25 -40 -43 -40 -17 0 -23 6 -23 22 0 37 -16 7 -30 -57 -7
-33 -21 -75 -32 -94 -10 -19 -17 -40 -14 -48 10 -26 -5 -63 -25 -63 -16 0 -19
-8 -19 -48 0 -28 -8 -62 -20 -85 -15 -27 -20 -56 -20 -112 0 -43 -4 -75 -10
-75 -5 0 -10 -18 -10 -40 0 -22 -4 -40 -10 -40 -6 0 -10 -33 -10 -80 0 -73 -2
-80 -20 -80 -17 0 -20 -7 -20 -40 0 -33 -3 -40 -20 -40 -17 0 -20 -7 -20 -40
0 -33 -3 -40 -20 -40 -17 0 -20 -7 -20 -50 l0 -50 4985 0 c4373 0 4985 2 4985
15 0 20 -32 85 -42 85 -4 0 -8 34 -8 75 0 74 0 75 -40 114 -22 21 -40 48 -40
59 0 11 -10 26 -22 34 -18 12 -21 23 -19 66 2 47 0 52 -19 52 -17 0 -20 6 -20
40 0 28 -4 40 -14 40 -10 0 -16 22 -21 80 -6 69 -10 80 -26 80 -15 0 -19 7
-19 40 0 22 -4 40 -10 40 -5 0 -10 18 -10 40 0 22 -4 40 -10 40 -5 0 -10 18
-10 40 0 33 -3 40 -20 40 -18 0 -20 7 -20 80 0 64 -3 80 -15 80 -17 0 -20 68
-9 179 7 59 8 61 35 61 27 0 29 3 29 40 0 33 -3 40 -20 40 -16 0 -20 7 -20 30
0 28 -2 30 -40 30 -36 0 -40 3 -40 25 0 23 -4 25 -40 25 -29 0 -40 4 -40 15 0
11 -11 15 -40 15 -36 0 -40 3 -40 25 0 23 -4 25 -40 25 -33 0 -40 3 -40 20 0
10 -16 35 -35 55 -30 30 -43 35 -80 35 l-45 0 0 -45 0 -45 -40 0 -40 0 0 160
0 160 38 0 c28 -1 41 -7 55 -25 15 -22 16 -25 2 -25 -12 0 -15 -14 -15 -70 l0
-70 40 0 c22 0 40 -4 40 -10 0 -5 9 -10 20 -10 19 0 20 7 20 96 0 87 2 96 20
101 29 8 28 65 -2 85 -18 12 -21 23 -19 66 2 47 0 52 -19 52 -18 0 -20 6 -20
54 0 44 -4 56 -22 68 -18 12 -21 23 -19 66 1 31 -2 52 -9 52 -5 0 -10 18 -10
40 0 22 -4 40 -10 40 -5 0 -10 11 -10 25 0 22 -4 25 -39 25 -37 0 -39 -2 -45
-38 -10 -63 -7 -92 9 -92 12 0 15 -16 15 -80 0 -47 -4 -80 -10 -80 -5 0 -10
14 -10 30 0 28 -2 30 -40 30 -22 0 -40 5 -40 10 0 6 9 10 20 10 18 0 20 7 20
79 0 50 4 81 11 83 7 2 -2 18 -20 35 -17 17 -31 39 -31 49 0 9 -10 26 -22 38
-22 20 -23 26 -18 157 4 112 8 141 23 156 24 27 26 203 2 203 -11 0 -15 11
-15 40 0 36 -2 40 -25 40 -14 0 -25 5 -25 11 0 14 -55 69 -69 69 -7 0 -11 -41
-11 -120 0 -113 -1 -120 -20 -120 -18 0 -20 7 -20 80 0 73 -2 80 -20 80 -18 0
-20 7 -20 80 0 73 -2 80 -20 80 -19 0 -20 7 -20 90 l0 90 45 0 45 0 0 84 c0
62 4 87 15 96 8 7 15 19 15 26 0 8 9 14 20 14 17 0 20 7 20 39 0 22 5 41 11
43 7 2 -20 36 -60 75 l-71 71 0 126 c0 108 -2 126 -16 126 -12 0 -15 10 -13
47 3 39 -1 51 -24 74 -23 23 -27 36 -27 83 l0 56 -81 0 -81 0 5 58 c3 31 3 46
0 32 -6 -32 -16 -38 -53 -32 -19 3 -30 10 -30 20 0 8 -3 12 -7 9 -3 -4 -15 7
-25 24 -15 25 -21 29 -33 19 -13 -11 -15 7 -15 133 0 109 -4 152 -15 173 -8
16 -15 46 -15 67 0 33 -3 37 -25 37 -22 0 -25 4 -25 40 0 30 -4 40 -16 40 -9
0 -27 10 -40 23 -22 20 -24 30 -24 120 0 90 -1 97 -20 97 -18 0 -20 7 -20 59
0 102 -12 181 -26 181 -11 0 -14 26 -14 120 0 113 -1 120 -20 120 -17 0 -20 7
-20 40 0 33 -3 40 -20 40 -17 0 -20 7 -20 40 l0 40 -82 2 c-46 1 -64 3 -40 5
41 4 42 5 42 39 0 19 -4 34 -10 34 -5 0 -10 18 -10 40 0 22 5 40 10 40 6 0 10
13 10 29 0 20 -6 30 -20 34 -11 3 -20 12 -20 21 0 9 9 21 20 28 19 12 20 24
20 160 0 136 1 148 20 158 32 17 43 46 31 83 -5 18 -11 97 -13 177 -2 141 -2
145 20 155 12 5 22 15 22 22 0 8 13 13 30 13 28 0 30 2 30 40 0 22 5 40 10 40
6 0 10 47 10 120 0 104 -2 120 -16 120 -22 0 -64 41 -64 63 0 15 -11 17 -100
17 l-100 0 0 160 c0 153 -1 160 -20 160 -17 0 -20 7 -20 40 0 33 -3 40 -20 40
-18 0 -20 7 -20 80 0 71 -2 80 -19 80 -15 0 -20 11 -26 58 -11 74 -12 217 -1
266 6 33 5 40 -14 53 -26 18 -24 59 3 57 14 -2 17 7 17 53 0 45 -3 53 -16 51
-10 -2 -19 3 -21 10 -3 7 4 12 16 12 18 0 21 6 21 50 0 32 -7 61 -20 82 -11
18 -20 51 -20 73 0 22 -5 57 -11 78 -10 36 -11 37 -59 37 l-50 0 0 -125 0
-125 -42 1 c-26 1 -34 4 -19 6 23 5 23 7 17 65 -3 34 -6 69 -6 79 0 11 -7 19
-15 19 -13 0 -15 29 -15 200 l0 200 40 0 40 0 0 -80 0 -80 30 0 30 0 0 80 0
80 -30 0 -30 0 0 80 c0 56 4 80 12 80 9 0 9 3 0 12 -7 7 -12 40 -12 80 l0 68
-30 0 c-28 0 -30 2 -30 40 0 22 -4 40 -10 40 -5 0 -10 -18 -10 -40 0 -33 -3
-40 -20 -40 -17 0 -20 7 -20 40 0 33 -3 40 -20 40 -19 0 -20 7 -20 130 0 123
-1 130 -20 130 -11 0 -20 5 -20 10 0 6 9 10 20 10 17 0 20 7 20 40 0 33 -3 40
-20 40 -11 0 -20 5 -20 10 0 6 9 10 20 10 19 0 20 7 20 90 l0 90 30 0 30 0 0
80 0 80 -30 0 -30 0 0 240 0 240 -40 0 -40 0 0 80 0 80 -40 0 -40 0 0 160 0
160 40 0 40 0 0 40 c0 33 3 40 20 40 17 0 20 7 20 40 0 33 -3 40 -20 40 -18 0
-20 7 -20 80 0 73 -2 80 -20 80 -17 0 -20 7 -20 40 0 33 -3 40 -20 40 -18 0
-20 7 -20 80 0 72 -2 80 -19 80 -15 0 -19 10 -24 53 -5 53 4 77 29 77 11 0 14
27 14 135 l0 135 -40 0 -40 0 0 89 c0 50 -4 93 -10 96 -5 3 -10 35 -10 71 0
36 4 64 10 64 6 0 10 87 10 240 l0 240 40 0 40 0 0 40 0 40 -40 0 c-29 0 -40
4 -40 15 0 11 -11 15 -40 15 -36 0 -40 3 -40 25 0 18 -5 25 -20 25 -19 0 -20
7 -20 120 0 113 -1 120 -20 120 -17 0 -20 7 -20 40 0 33 3 40 20 40 17 0 20 7
20 40 0 33 -3 40 -20 40 -15 0 -21 -9 -26 -40 -8 -46 -29 -53 -39 -12 l-7 27
-14 -34 c-11 -25 -14 -88 -14 -267 0 -149 -4 -234 -10 -234 -6 0 -10 -33 -10
-80 0 -47 4 -80 10 -80 6 0 10 -33 10 -80 0 -50 -4 -80 -11 -80 -19 0 -69 58
-69 79 0 12 -4 21 -10 21 -5 0 -10 7 -10 15 0 8 5 15 10 15 17 0 11 18 -9 25
-15 4 -20 24 -31 125 -7 66 -17 120 -21 120 -5 0 -9 47 -9 105 l0 105 -40 0
-40 0 0 70 0 71 -49 -2 c-45 -2 -53 1 -80 30 -22 24 -31 43 -31 67 0 33 1 34
40 34 29 0 40 -4 40 -15 0 -11 11 -15 40 -15 29 0 40 4 40 15 0 10 10 15 26
15 27 0 27 0 20 61 -3 34 -6 88 -6 120 0 52 -2 59 -20 59 -17 0 -20 7 -20 50
l0 50 35 0 c32 0 35 2 35 30 l0 30 -95 0 c-57 0 -95 -4 -95 -10 0 -5 9 -10 20
-10 17 0 20 -7 20 -50 l0 -50 -34 0 c-65 0 -88 26 -46 52 21 13 28 48 10 48
-5 0 -10 23 -10 50 l0 50 -40 0 -40 0 0 40 c0 33 3 40 20 40 17 0 20 7 20 38
0 36 2 39 38 48 30 7 39 15 47 42 5 17 15 32 22 32 18 0 16 70 -3 95 -14 19
-16 19 -25 2 -8 -14 -14 -16 -25 -6 -11 9 -14 7 -14 -15 0 -24 -4 -26 -40 -26
-38 0 -40 2 -40 30 0 33 -6 34 -58 16z m-1257 -11356 c4 -6 12 -46 19 -89 13
-77 9 -131 -12 -215 -6 -22 -13 -96 -17 -165 -9 -206 -18 -302 -51 -548 -6
-46 -27 -75 -48 -67 -17 6 -53 86 -66 144 -13 63 -12 202 5 435 25 355 25 357
51 412 36 74 100 124 119 93z m3795 -800 c0 -121 -2 -220 -4 -220 -3 0 -12 7
-20 16 -14 13 -16 47 -16 220 0 197 1 204 20 204 19 0 20 -7 20 -220z m-3866
-639 c16 -16 20 -42 27 -162 5 -78 6 -146 3 -151 -22 -35 -123 34 -144 98 -15
45 -4 190 17 223 12 19 20 22 46 17 18 -4 40 -15 51 -25z m-5 -795 c15 -37 -1
-439 -18 -459 -16 -20 -54 -22 -68 -4 -20 24 -35 114 -40 238 -5 117 -4 130
17 173 33 68 93 97 109 52z"/>
<path d="M7778 13331 c-25 -29 -59 -159 -38 -146 6 4 10 -6 10 -22 0 -25 4
-29 33 -31 17 -2 34 -7 35 -12 2 -6 8 -8 13 -4 5 3 9 -2 9 -12 0 -13 3 -14 15
-4 9 8 29 10 50 7 19 -3 35 -2 35 4 0 5 14 9 30 9 17 0 30 5 30 10 0 6 5 10
12 10 17 0 58 49 58 69 0 34 -13 61 -29 61 -9 0 -23 6 -29 13 -7 6 -16 12 -20
12 -4 1 -22 9 -39 18 -18 10 -33 15 -33 12 0 -4 -10 1 -22 9 -32 22 -100 21
-120 -3z"/>
<path d="M7898 11728 c-4 -10 -14 -18 -23 -18 -8 0 -15 -9 -15 -19 0 -11 -7
-26 -15 -35 -10 -10 -15 -35 -15 -78 0 -40 4 -58 9 -49 6 10 14 -4 26 -45 19
-66 29 -76 60 -62 39 18 49 47 51 153 1 55 0 104 -3 108 -3 4 -12 2 -21 -5
-13 -11 -15 -10 -9 5 5 12 1 17 -13 17 -12 0 -20 8 -22 23 -3 19 -4 20 -10 5z"/>
<path d="M7876 9848 c-3 -13 -6 -61 -6 -108 0 -66 4 -90 18 -108 28 -36 49
-11 62 73 5 39 12 80 14 92 3 16 -5 30 -26 48 -37 31 -54 32 -62 3z"/>
<path d="M7040 9390 c0 -5 18 -10 40 -10 22 0 40 -4 40 -10 0 -5 -18 -10 -40
-10 -33 0 -40 -3 -40 -20 0 -11 7 -20 15 -20 24 0 65 -46 65 -74 0 -19 -7 -26
-30 -31 -30 -7 -30 -7 -30 -76 0 -38 -4 -70 -10 -70 -5 -1 -19 -3 -30 -4 -11
-1 -29 -3 -40 -4 -19 -1 -20 -8 -20 -161 l0 -160 120 0 c120 0 120 0 120 24 0
13 7 26 15 30 11 4 15 20 15 56 0 40 3 50 16 50 15 0 16 8 11 60 -4 34 -12 71
-18 82 -8 15 -10 59 -6 140 5 76 3 118 -3 118 -6 0 -10 -18 -10 -40 0 -22 -4
-40 -10 -40 -6 0 -10 35 -10 84 l0 83 -61 7 c-84 8 -99 8 -99 -4z"/>
<path d="M7037 8619 c-3 -12 -3 -35 0 -50 5 -28 4 -29 -36 -29 -34 0 -41 -3
-41 -20 0 -17 -7 -20 -40 -20 -22 0 -40 -4 -40 -10 0 -5 -18 -10 -40 -10 -22
0 -40 -4 -40 -10 0 -5 -18 -10 -40 -10 -39 0 -40 -1 -40 -36 0 -40 -33 -84
-62 -84 -14 0 -18 -8 -18 -37 1 -30 9 -48 40 -83 34 -39 39 -42 40 -22 0 22 2
22 120 22 l120 0 0 -40 0 -40 48 0 c36 0 54 5 67 20 11 12 31 20 52 20 32 0
33 1 33 40 0 32 4 40 19 40 13 0 18 -6 16 -22 -1 -13 0 -15 2 -6 2 9 13 20 24
23 25 8 24 31 -1 47 -24 15 -27 75 -5 104 20 26 20 94 0 94 -12 0 -15 14 -15
70 l0 70 -79 0 c-72 0 -79 -2 -84 -21z"/>
<path d="M7883 8363 c-34 -3 -43 -8 -43 -23 0 -14 9 -20 38 -23 20 -2 11 -3
-22 -2 -54 1 -59 -1 -69 -24 -7 -15 -17 -30 -23 -36 -14 -12 -26 -98 -13 -89
5 3 9 0 9 -5 0 -6 -4 -11 -10 -11 -5 0 -10 -12 -10 -26 0 -21 4 -25 20 -21 10
3 25 -2 31 -10 7 -8 21 -12 31 -10 10 3 18 0 18 -7 0 -7 16 -11 40 -11 26 0
40 4 40 12 0 8 16 14 43 14 29 2 34 3 15 6 -16 2 -28 6 -28 8 0 13 35 75 42
75 4 0 8 20 8 45 0 25 -4 45 -10 45 -5 0 -10 20 -10 44 0 43 -13 59 -43 54 -7
-1 -31 -3 -54 -5z"/>
<path d="M7819 8053 c-4 -10 -40 -32 -162 -96 -41 -21 -98 -26 -164 -14 -40 7
-43 6 -58 -22 -19 -38 -19 -77 0 -166 29 -139 16 -264 -35 -320 -46 -50 -70
-116 -70 -190 0 -78 8 -93 65 -115 49 -19 162 -13 212 11 37 18 44 26 49 59
13 77 79 106 130 55 22 -22 24 -30 18 -73 -4 -34 -2 -51 7 -59 13 -10 335 -46
348 -39 3 2 112 7 241 11 129 4 237 9 240 12 3 2 8 174 11 381 4 207 10 409
14 449 l8 72 -34 5 c-19 3 -124 8 -234 11 -110 3 -264 8 -342 11 -111 3 -143
2 -143 -8 0 -9 -3 -8 -10 2 -9 13 -11 13 -20 0 -9 -13 -11 -13 -19 0 -6 8 -13
11 -17 7 -4 -4 -12 1 -19 10 -7 10 -14 12 -16 6z"/>
<path d="M6640 7920 l0 -60 40 0 c22 0 40 5 40 10 0 6 18 10 40 10 53 0 51 18
-2 23 -24 2 -6 4 40 5 l82 2 0 35 0 35 -120 0 -120 0 0 -60z"/>
<path d="M6693 7560 c-10 -11 -25 -20 -35 -20 -14 0 -18 -8 -18 -40 l0 -40
-40 0 c-31 0 -40 -4 -40 -17 0 -22 -42 -63 -64 -63 -10 0 -16 -9 -16 -24 0
-30 -9 -56 -20 -56 -5 0 -11 18 -15 40 -7 44 -22 53 -29 18 -3 -13 -7 -32 -9
-43 -3 -14 -5 -11 -6 8 -1 35 -31 34 -46 -1 -11 -25 -58 -38 -107 -28 -31 6
-88 -11 -88 -26 0 -5 -6 -8 -12 -8 -7 0 -25 -12 -40 -25 -21 -18 -28 -33 -28
-60 0 -19 -5 -35 -11 -35 -6 0 -10 -38 -9 -107 2 -137 3 -133 -15 -133 -12 0
-15 -17 -15 -90 0 -71 -3 -92 -15 -96 -8 -4 -15 -17 -15 -30 0 -21 -4 -24 -40
-24 l-40 0 0 40 c0 32 -4 40 -19 40 -15 0 -19 10 -24 53 -5 53 4 77 29 77 8 0
14 7 14 15 0 11 11 15 40 15 22 0 40 5 40 10 0 6 -18 10 -40 10 -22 0 -40 5
-40 10 0 17 -87 12 -106 -7 -11 -11 -13 -18 -5 -21 16 -5 14 -29 -5 -57 -11
-16 -12 -25 -5 -25 9 0 9 -5 1 -20 -6 -11 -17 -20 -25 -20 -12 0 -15 -16 -15
-80 l0 -80 -40 0 -40 0 0 -40 0 -40 -40 0 c-33 0 -40 3 -40 20 0 12 -7 20 -18
20 -9 0 -23 9 -30 20 -7 11 -17 20 -22 20 -6 0 -10 -9 -10 -20 0 -11 -4 -20
-10 -20 -5 0 -10 6 -10 14 0 21 -21 31 -31 15 -5 -8 -9 -35 -9 -61 0 -36 4
-48 15 -48 11 0 15 -12 15 -50 0 -38 4 -52 19 -60 26 -13 88 -13 97 1 4 7 21
9 40 6 l34 -6 0 75 0 74 80 0 80 0 0 -33 c0 -24 6 -35 23 -42 12 -6 22 -19 22
-30 1 -51 35 -61 35 -10 0 34 1 35 40 35 l40 0 0 -40 0 -40 -40 0 c-39 0 -40
-1 -40 -35 0 -19 5 -35 10 -35 6 0 10 -28 10 -65 0 -37 4 -65 10 -65 6 0 10
18 10 40 0 22 5 40 10 40 6 0 10 11 10 25 0 18 5 25 18 25 11 0 27 9 38 21 18
20 18 21 1 34 -11 8 -17 23 -15 37 4 33 32 29 36 -4 4 -38 22 -35 22 3 0 31 0
31 46 27 l46 -3 -4 42 c-2 24 1 43 5 43 15 0 67 61 67 79 0 9 10 21 23 26 15
7 22 19 22 38 0 16 8 34 18 41 12 10 17 27 17 67 0 30 -4 61 -10 69 -5 9 -5
19 2 27 5 7 8 20 4 28 -4 11 1 15 19 15 22 0 25 4 25 39 0 38 1 39 40 46 22 4
58 4 79 0 50 -8 81 15 81 60 0 17 5 36 12 43 9 9 9 12 0 12 -7 0 -12 16 -12
40 l0 40 40 0 40 0 0 59 c0 38 4 61 13 64 10 4 10 6 0 6 -7 1 -13 12 -13 26 0
23 4 25 40 25 l40 0 0 110 c0 61 -2 110 -5 110 -3 0 -13 -9 -22 -20z"/>
<path d="M11200 6810 c0 -5 -18 -10 -40 -10 l-40 0 0 -110 c0 -67 -4 -110 -10
-110 -5 0 -10 -18 -10 -40 0 -22 -4 -40 -10 -40 -5 0 -10 -18 -10 -40 0 -33
-3 -40 -20 -40 -17 0 -20 -7 -20 -40 0 -22 -4 -40 -10 -40 -5 0 -10 -18 -10
-40 0 -22 5 -40 10 -40 6 0 10 -18 10 -40 l0 -40 70 0 70 0 0 -80 c0 -73 -2
-80 -20 -80 -11 0 -20 -4 -20 -10 0 -5 14 -10 30 -10 l30 0 0 90 c0 53 -4 90
-10 90 -15 0 -13 143 3 159 10 10 9 11 -5 6 -22 -9 -24 8 -3 25 8 7 15 34 17
68 l3 57 38 3 37 3 0 160 0 159 -40 0 c-22 0 -40 -4 -40 -10z"/>
<path d="M11453 5062 l-33 -3 0 -80 c0 -46 4 -79 10 -79 6 0 10 -33 10 -80 0
-47 4 -80 10 -80 6 0 10 -13 10 -29 0 -24 5 -29 30 -33 28 -4 30 -3 30 29 0
26 -4 33 -20 33 -18 0 -20 7 -20 80 0 47 -4 80 -10 80 -6 0 -10 32 -10 75 0
82 -2 79 67 76 24 -1 49 1 57 6 15 8 -67 11 -131 5z"/>
<path d="M8213 4269 c-57 -17 -71 -51 -83 -200 -6 -74 -14 -157 -18 -186 -17
-104 12 -399 44 -456 11 -19 54 -5 54 18 0 8 3 15 8 15 4 0 6 29 4 64 -3 55 1
73 26 123 16 33 35 77 42 99 14 44 37 80 91 142 55 64 83 149 84 254 0 78 -3
90 -23 110 -20 20 -34 23 -110 25 -48 1 -101 -2 -119 -8z"/>
<path d="M8571 3727 c-7 -19 -11 -67 -10 -108 2 -68 -12 -136 -34 -166 -6 -8
1 -23 21 -43 17 -16 25 -30 19 -30 -8 0 -8 -3 0 -11 13 -13 47 -4 39 10 -4 5
7 21 24 34 16 14 30 35 30 46 0 11 6 26 13 33 8 7 17 26 21 41 3 15 11 27 16
27 6 0 10 5 10 10 0 6 -9 10 -20 10 -13 0 -20 7 -20 20 0 11 -5 20 -11 20 -5
0 -8 4 -4 9 3 5 1 12 -5 16 -5 3 -10 17 -10 31 0 13 -4 24 -9 24 -5 0 -14 14
-20 30 -13 40 -37 38 -50 -3z"/>
<path d="M7662 3653 c-6 -3 -10 -9 -6 -14 3 -5 -2 -9 -11 -9 -8 0 -18 -7 -22
-16 -3 -8 -12 -13 -19 -10 -9 3 -11 -1 -7 -12 5 -15 4 -15 -8 1 -26 33 -114 6
-159 -48 -11 -13 -11 -19 3 -32 30 -31 246 -148 300 -164 23 -6 27 -5 27 12 0
12 4 17 11 14 6 -4 1 12 -11 34 -11 23 -27 44 -35 47 -7 3 -16 17 -19 30 -4
14 -11 22 -16 19 -6 -3 -10 -2 -10 4 0 5 -7 16 -15 24 -13 13 -12 16 9 21 17
4 25 15 28 36 3 17 1 33 -4 36 -5 3 -6 9 -3 14 6 10 -16 19 -33 13z"/>
<path d="M9246 2184 c-33 -13 -62 -28 -65 -33 -14 -21 -127 -73 -245 -111
-121 -40 -127 -44 -105 -56 13 -7 32 -13 42 -14 27 0 74 -27 81 -46 4 -10 9
-45 13 -78 5 -51 12 -66 39 -93 28 -29 38 -33 88 -33 73 0 161 31 204 72 91
88 146 202 132 274 -17 89 -55 144 -99 144 -14 -1 -53 -12 -85 -26z"/>
<path d="M9535 2141 c-4 -12 4 -39 19 -68 30 -56 31 -67 10 -129 -8 -25 -14
-47 -12 -49 2 -2 31 22 66 53 54 49 62 62 62 92 0 46 -23 78 -74 101 -52 24
-63 24 -71 0z"/>
<path d="M6970 1996 c-36 -68 7 -122 124 -157 79 -24 122 -20 162 15 35 29 27
69 -18 92 -41 21 -207 74 -234 74 -12 0 -26 -10 -34 -24z"/>
<path d="M6769 1811 c-16 -16 -29 -40 -29 -53 0 -35 96 -123 150 -138 57 -15
80 -8 113 40 25 35 27 42 15 64 -7 14 -42 46 -78 71 -80 56 -126 61 -171 16z"/>
<path d="M8462 1728 c-7 -7 -12 -20 -12 -29 0 -10 -4 -21 -10 -24 -5 -3 -10
-27 -10 -53 0 -26 -9 -128 -20 -226 -11 -99 -20 -214 -20 -257 0 -75 1 -77 23
-72 21 6 176 125 227 175 14 14 68 71 120 128 101 111 143 153 211 212 40 36
41 39 25 57 -9 10 -49 33 -89 52 -67 31 -80 34 -182 35 -61 1 -124 4 -140 8
-17 3 -46 2 -64 -4 -23 -6 -37 -6 -41 0 -4 6 -11 5 -18 -2z"/>
<path d="M7595 1705 c-22 -13 -70 -36 -106 -50 -83 -32 -98 -57 -74 -125 21
-60 56 -103 123 -151 31 -23 71 -57 89 -78 39 -43 55 -38 91 30 22 42 23 52
20 184 -5 150 -14 186 -55 204 -34 15 -43 14 -88 -14z"/>
</g>
</svg>
