<?xml version="1.0" standalone="no"?>
<!DOCTYPE svg PUBLIC "-//W3C//DTD SVG 20010904//EN"
 "http://www.w3.org/TR/2001/REC-SVG-20010904/DTD/svg10.dtd">
<svg version="1.0" xmlns="http://www.w3.org/2000/svg"
 width="300.000000pt" height="224.000000pt" viewBox="0 0 300.000000 224.000000"
 preserveAspectRatio="xMidYMid meet">
<metadata>
Created by potrace 1.10, written by Peter Selinger 2001-2011
</metadata>
<g transform="translate(0.000000,224.000000) scale(0.100000,-0.100000)"
fill="#000000" stroke="none">
<path d="M941 1770 c-107 -49 -244 -179 -310 -293 -30 -51 -27 -49 34 28 109
137 216 228 314 266 26 10 37 18 26 18 -11 0 -40 -8 -64 -19z"/>
<path d="M1196 1734 c-8 -20 2 -33 12 -18 7 12 65 -17 62 -31 -1 -4 1 -9 4
-12 3 -4 6 1 6 10 0 13 -26 37 -66 60 -7 4 -15 0 -18 -9z"/>
<path d="M1294 1681 c5 -8 3 -17 -5 -23 -10 -7 -7 -8 11 -4 15 3 32 -1 44 -12
11 -9 16 -12 12 -5 -3 7 -21 22 -38 35 -17 12 -28 16 -24 9z"/>
<path d="M1397 1593 c-13 -13 -7 -24 11 -19 22 7 49 -8 33 -18 -6 -4 -9 -12
-5 -17 3 -6 12 -5 21 3 14 11 15 10 9 -10 -5 -13 -3 -22 3 -22 23 0 9 40 -22
64 -37 28 -40 29 -50 19z"/>
<path d="M896 1540 c9 -33 7 -32 35 -21 20 8 20 10 5 10 -10 1 -25 9 -33 19
-13 15 -13 15 -7 -8z"/>
<path d="M1496 1522 c-11 -18 6 -44 26 -39 27 7 44 -28 21 -42 -10 -6 -13 -10
-8 -11 6 0 17 4 25 10 16 10 43 -6 34 -21 -3 -5 1 -6 9 -3 8 3 18 1 22 -5 3
-6 1 -11 -4 -11 -6 0 -11 -5 -11 -12 0 -9 3 -9 11 -1 14 14 52 4 45 -13 -3 -9
0 -11 11 -7 11 4 14 2 9 -5 -4 -7 -1 -12 9 -12 12 0 15 -6 10 -20 -4 -11 -2
-20 4 -20 6 0 11 5 11 11 0 8 5 8 15 -1 20 -16 19 -27 -2 -34 -10 -3 -1 -3 20
0 45 6 43 -7 -7 -37 -21 -13 -25 -19 -13 -19 9 0 17 -5 17 -11 0 -5 5 -7 11
-3 8 5 8 9 -1 14 -8 5 -5 12 11 24 29 20 43 21 35 0 -3 -8 -2 -12 4 -9 5 3 25
-6 44 -22 25 -19 32 -31 25 -39 -7 -8 -6 -14 1 -19 10 -6 14 1 10 20 -1 6 7 2
17 -8 10 -10 27 -24 38 -32 20 -13 20 -13 0 -35 -16 -18 -16 -20 -2 -14 9 3
17 10 17 14 0 13 38 0 52 -18 11 -12 11 -16 0 -20 -10 -3 -10 -7 -1 -18 8 -10
15 -11 24 -4 8 7 23 0 50 -24 35 -31 36 -34 19 -45 -11 -6 -14 -11 -7 -11 6 0
15 5 19 11 4 7 21 -4 45 -27 29 -28 36 -40 26 -47 -8 -6 -7 -7 4 -4 9 3 21 2
26 -1 5 -4 -36 38 -91 93 -87 86 -277 251 -525 454 -36 30 -73 60 -83 68 -9 9
-18 10 -22 5z"/>
<path d="M1140 1481 c0 -4 12 -6 26 -3 16 3 29 -1 35 -9 4 -7 11 -10 16 -6 4
5 1 12 -7 17 -19 12 -70 13 -70 1z"/>
<path d="M1119 1429 c-18 -25 -18 -30 -5 -35 9 -3 33 -1 53 5 l38 11 -42 -4
c-44 -4 -52 1 -31 22 14 14 67 16 101 3 15 -6 29 -6 38 1 11 8 11 9 -3 5 -9
-3 -18 -2 -20 2 -2 5 -27 10 -56 13 -49 5 -54 3 -73 -23z"/>
<path d="M910 1441 l-45 -6 38 -7 c40 -7 67 -2 67 13 0 5 -3 8 -7 7 -5 0 -28
-4 -53 -7z"/>
<path d="M1056 1424 c-9 -8 -14 -20 -10 -25 7 -12 21 -3 34 22 13 23 -2 26
-24 3z"/>
<path d="M811 1404 c-26 -33 -27 -54 -3 -54 14 0 15 2 2 10 -12 7 -11 13 9 34
14 14 22 28 19 31 -3 4 -15 -6 -27 -21z"/>
<path d="M1515 1399 c-22 -14 -24 -18 -10 -16 31 6 55 18 55 28 0 13 -11 10
-45 -12z"/>
<path d="M1081 1369 c0 -9 -7 -19 -15 -22 -14 -6 -29 -47 -16 -47 4 0 14 8 21
17 12 14 12 16 -1 9 -8 -4 -7 -1 3 8 11 8 17 22 14 33 -4 15 -5 15 -6 2z"/>
<path d="M737 1359 c-10 -6 -27 -9 -38 -6 -10 3 -17 1 -13 -4 3 -5 0 -9 -7 -9
-13 0 20 -29 34 -30 15 0 6 19 -10 23 -13 3 -10 5 7 6 14 1 34 8 44 16 23 17
10 20 -17 4z"/>
<path d="M1563 1347 c-45 -17 -49 -25 -13 -23 18 1 36 9 41 19 6 9 9 17 7 16
-2 0 -17 -6 -35 -12z"/>
<path d="M970 1319 c6 -11 17 -15 30 -12 29 8 25 20 -9 25 -26 4 -28 2 -21
-13z"/>
<path d="M870 1311 c0 -9 -9 -11 -29 -6 -18 4 -32 2 -36 -5 -5 -9 -1 -10 14
-5 13 4 21 2 21 -5 0 -6 5 -8 11 -4 7 4 26 7 42 8 17 1 32 7 35 14 3 11 0 12
-15 3 -14 -7 -23 -7 -31 1 -9 9 -12 9 -12 -1z"/>
<path d="M1485 1300 c-18 -7 -18 -9 -3 -15 9 -3 29 0 45 9 l28 15 -25 0 c-14
0 -34 -4 -45 -9z"/>
<path d="M943 1284 c0 -7 6 -10 14 -7 7 3 13 0 13 -6 0 -13 26 -15 34 -3 2 4
-10 12 -28 18 -24 7 -33 7 -33 -2z"/>
<path d="M1160 1290 c-20 -13 -10 -19 22 -13 15 3 25 9 22 14 -7 12 -25 11
-44 -1z"/>
<path d="M654 1271 c3 -5 -2 -12 -12 -16 -14 -6 -12 -9 12 -16 28 -8 75 6 62
18 -3 3 -12 0 -21 -7 -21 -18 -30 -6 -10 14 15 15 14 16 -10 16 -14 0 -24 -4
-21 -9z"/>
<path d="M1271 1268 c-1 -17 -21 -26 -21 -10 0 4 -17 6 -37 3 l-38 -5 49 -8
c54 -10 60 -8 53 19 -4 16 -5 16 -6 1z"/>
<path d="M1430 1266 c0 -8 -19 -20 -44 -27 -25 -7 -42 -17 -40 -21 7 -12 54
-10 54 2 0 6 9 10 20 10 11 0 20 7 20 15 0 8 5 15 10 15 6 0 10 5 10 10 0 6
-7 10 -15 10 -8 0 -15 -6 -15 -14z"/>
<path d="M735 1229 c-4 -6 -4 -13 0 -17 4 -4 10 -1 12 6 6 14 49 16 58 2 4 -6
11 -7 17 -4 16 10 -12 24 -49 24 -17 0 -35 -5 -38 -11z"/>
<path d="M844 1206 c-20 -23 -20 -25 -3 -29 11 -3 16 -1 13 4 -3 5 5 18 18 29
16 14 19 19 8 19 -8 1 -24 -10 -36 -23z"/>
<path d="M974 1210 c16 -5 32 -13 35 -18 9 -14 61 -24 61 -12 0 5 -10 10 -22
10 -13 0 -32 7 -42 15 -11 8 -29 15 -40 14 -16 0 -13 -3 8 -9z"/>
<path d="M1112 1208 c-18 -18 -15 -23 13 -26 27 -2 32 9 12 27 -10 8 -17 7
-25 -1z"/>
<path d="M1275 1190 c3 -5 -2 -10 -12 -11 -12 -1 -10 -3 7 -8 15 -4 26 -15 28
-29 2 -12 8 -22 14 -22 5 0 8 7 5 15 -4 8 -2 17 4 20 14 9 -1 27 -17 21 -8 -3
-14 1 -14 9 0 8 -5 15 -11 15 -5 0 -7 -4 -4 -10z"/>
<path d="M1385 1190 c3 -6 1 -10 -4 -10 -19 0 -12 -19 12 -31 20 -11 21 -11 8
4 -16 20 -1 23 17 5 10 -10 15 -10 22 2 12 19 13 33 1 26 -5 -4 -21 -2 -36 4
-17 7 -24 7 -20 0z"/>
<path d="M1825 1187 c-10 -8 -15 -19 -11 -25 11 -18 24 -14 22 5 0 10 4 18 11
18 6 0 15 3 19 8 13 13 -21 8 -41 -6z"/>
<path d="M875 1180 c-3 -6 3 -10 14 -10 29 0 79 -32 74 -47 -3 -8 3 -13 14
-12 10 0 13 3 6 5 -7 3 -9 12 -6 20 3 9 -1 14 -12 14 -9 0 -13 5 -10 10 3 6 1
10 -5 10 -6 0 -9 4 -6 8 3 5 -10 9 -29 10 -19 1 -37 -3 -40 -8z"/>
<path d="M895 1141 c-3 -6 -16 -11 -28 -11 -18 0 -19 -2 -7 -10 10 -6 20 -4
30 5 13 12 19 12 29 2 11 -10 13 -9 9 2 -5 19 -24 25 -33 12z"/>
<path d="M595 1110 c12 -39 37 -84 54 -97 40 -31 133 -84 138 -80 2 3 -15 18
-39 33 -58 38 -108 81 -101 88 3 3 -2 9 -11 12 -10 4 -14 10 -9 13 5 3 -2 17
-16 31 l-23 25 7 -25z"/>
<path d="M1329 1113 c-1 -5 -1 -11 -1 -14 1 -4 -13 -10 -31 -14 -18 -4 -26 -9
-19 -12 22 -8 61 6 72 27 9 16 8 20 -5 20 -8 0 -16 -3 -16 -7z"/>
<path d="M888 1089 c-16 -16 -14 -18 20 -33 20 -8 29 -15 20 -15 -10 -1 -18
-5 -18 -11 0 -13 13 -13 27 1 8 8 17 7 33 -4 l22 -15 -22 -7 c-12 -4 -19 -9
-17 -12 3 -2 15 0 26 7 25 13 27 3 5 -21 -12 -14 -13 -18 -2 -25 7 -4 10 -3 5
1 -4 5 4 16 17 25 l25 16 -32 25 c-18 14 -49 32 -69 39 -29 11 -35 17 -26 27
17 20 5 22 -14 2z"/>
<path d="M1110 1101 c0 -5 -10 -11 -22 -14 -12 -4 -19 -9 -15 -13 6 -6 77 22
77 31 0 3 -9 5 -20 5 -11 0 -20 -4 -20 -9z"/>
<path d="M1443 1089 c-22 -7 -31 -14 -27 -24 4 -8 11 -15 16 -15 6 0 8 7 4 15
-7 20 47 21 64 0 10 -12 15 -12 36 2 29 18 25 30 -4 14 -16 -8 -24 -7 -36 4
-8 8 -16 15 -18 14 -2 0 -17 -5 -35 -10z"/>
<path d="M1105 1060 c-3 -6 0 -10 7 -10 7 0 2 -7 -11 -16 -13 -9 -33 -16 -46
-16 -16 0 -22 -5 -18 -15 4 -10 9 -11 16 -4 6 6 17 11 25 11 8 0 24 8 36 18
19 14 21 20 10 30 -8 7 -15 8 -19 2z"/>
<path d="M1312 1058 c-7 -7 -27 -13 -44 -14 -17 -1 -34 -8 -39 -15 -12 -20 -1
-24 18 -6 12 10 28 13 46 10 20 -4 27 -1 27 10 0 10 12 17 33 20 l32 4 -30 1
c-17 1 -37 -4 -43 -10z"/>
<path d="M1641 1063 c4 -28 -3 -35 -28 -30 l-28 6 28 -12 c27 -11 37 -27 15
-27 -6 0 -9 -3 -6 -6 9 -9 78 7 72 17 -3 5 -14 9 -24 9 -17 0 -18 4 -11 39 1
2 9 -3 19 -10 15 -13 16 -12 3 4 -13 17 -42 24 -40 10z"/>
<path d="M845 1049 c-4 -5 -16 -7 -28 -3 -19 6 -20 5 -5 -9 9 -9 24 -14 37
-10 22 6 30 -12 9 -20 -8 -4 -9 -6 -2 -6 6 -1 16 5 22 12 9 10 6 17 -8 30 -12
10 -22 12 -25 6z"/>
<path d="M1365 1040 c-16 -4 -23 -8 -15 -9 13 -1 13 -2 0 -11 -8 -5 -12 -11
-9 -14 3 -3 21 5 39 19 35 26 34 27 -15 15z"/>
<path d="M1110 1005 c-13 -14 -18 -25 -12 -25 7 0 12 4 12 10 0 17 41 33 53
21 6 -6 15 -11 21 -11 13 0 -26 29 -40 30 -6 0 -21 -11 -34 -25z"/>
<path d="M2003 1013 c-3 -10 -8 -22 -11 -28 -3 -5 1 -4 9 3 16 15 33 16 23 0
-4 -7 -3 -8 4 -4 17 11 15 46 -3 46 -9 0 -18 -8 -22 -17z"/>
<path d="M1175 980 l-30 -8 35 -1 c19 0 42 4 50 9 12 8 11 10 -5 9 -11 -1 -33
-5 -50 -9z"/>
<path d="M1510 983 c0 -8 -11 -11 -32 -8 -28 4 -30 4 -8 -4 24 -8 24 -9 5 -17
-11 -4 -26 -14 -33 -21 -8 -7 -17 -11 -22 -8 -4 3 -11 -2 -14 -11 -4 -10 -12
-14 -22 -10 -12 5 -15 2 -10 -9 3 -9 -1 -18 -9 -21 -8 -4 -15 -12 -15 -20 0
-16 -36 -19 -45 -4 -3 6 -11 10 -17 10 -6 0 2 -10 17 -22 l28 -22 41 47 c23
26 46 47 52 47 6 0 17 7 24 15 7 9 33 21 59 27 25 6 39 14 31 16 -8 3 -18 10
-22 16 -5 8 -8 7 -8 -1z"/>
<path d="M1043 970 c-28 -12 -30 -20 -3 -13 11 3 20 1 20 -5 0 -13 38 -23 45
-11 3 4 -6 11 -21 15 -19 5 -22 9 -12 15 17 11 -1 10 -29 -1z"/>
<path d="M1837 964 c-11 -18 17 -30 41 -18 16 8 20 14 12 19 -7 4 -16 1 -21
-6 -8 -12 -10 -12 -18 0 -5 7 -11 9 -14 5z"/>
<path d="M1638 946 c-15 -11 -12 -13 24 -14 43 -2 63 -11 40 -19 -6 -3 -10 -9
-6 -14 3 -5 17 0 31 11 14 11 30 17 35 14 6 -4 6 -9 -2 -14 -8 -5 -7 -9 6 -14
28 -11 28 1 0 34 -17 21 -26 26 -26 16 0 -9 -4 -16 -10 -16 -5 0 -10 4 -10 8
0 4 -16 6 -36 4 -26 -3 -35 -1 -30 7 9 14 5 14 -16 -3z"/>
<path d="M2124 945 c-4 -8 -10 -12 -15 -9 -5 3 -9 -2 -9 -11 0 -9 -5 -13 -10
-10 -6 3 -13 -2 -17 -12 -4 -10 -11 -21 -17 -25 -7 -5 -7 -8 -1 -8 14 0 85 67
85 79 0 16 -10 13 -16 -4z"/>
<path d="M1306 942 c-2 -4 -29 -7 -60 -7 -30 1 -57 -4 -59 -10 -5 -13 50 -18
58 -5 4 6 16 10 28 9 21 0 21 -1 2 -9 -18 -8 -18 -9 -2 -9 10 -1 27 8 39 19
12 11 17 20 10 20 -6 0 -13 -3 -16 -8z"/>
<path d="M1910 920 c-12 -16 -20 -31 -18 -31 2 -1 21 -3 43 -4 22 -1 34 0 27
2 -6 3 -10 9 -6 14 3 5 -2 9 -10 9 -9 0 -16 -4 -16 -10 0 -5 -8 -10 -17 -10
-13 0 -10 7 12 30 16 17 24 30 18 30 -7 0 -21 -13 -33 -30z"/>
<path d="M1565 933 c-11 -3 -25 -9 -31 -14 -6 -5 -25 -9 -42 -11 -17 -1 -28
-6 -24 -10 12 -12 110 13 116 29 3 7 4 12 3 12 -1 -1 -11 -4 -22 -6z"/>
<path d="M1990 932 c-8 -4 -16 -14 -18 -22 -3 -11 1 -10 16 4 19 17 21 17 30
0 13 -24 -6 -41 -49 -46 -28 -3 -31 -6 -16 -12 12 -6 30 -3 51 7 26 12 33 21
33 46 0 32 -13 38 -47 23z"/>
<path d="M1633 886 c-13 -6 -23 -14 -23 -18 0 -11 58 -10 64 1 10 16 -18 28
-41 17z"/>
<path d="M1530 873 c0 -7 -4 -12 -9 -10 -5 1 -9 -2 -10 -8 -2 -18 21 -11 35
11 12 18 12 21 -1 21 -8 0 -15 -6 -15 -14z"/>
<path d="M1449 827 c-56 -26 -77 -57 -36 -57 16 0 18 3 8 9 -9 6 -10 11 -2 15
6 4 15 5 20 2 5 -3 12 1 15 9 3 9 16 20 28 25 13 5 16 9 8 9 -8 -1 -27 -6 -41
-12z"/>
<path d="M1960 833 c0 -7 -7 -13 -15 -13 -17 0 -20 -16 -4 -26 17 -10 40 18
29 36 -7 10 -10 11 -10 3z"/>
<path d="M1853 804 c-13 -14 -23 -26 -23 -27 0 -9 71 1 75 11 3 7 -4 12 -18
12 -21 1 -21 1 3 15 22 13 23 14 5 14 -11 1 -30 -11 -42 -25z"/>
<path d="M1749 807 c9 -12 10 -17 2 -17 -7 0 -9 -5 -6 -10 5 -8 11 -8 20 0 8
6 19 10 27 10 22 -3 58 12 52 22 -3 5 -12 4 -20 -3 -14 -11 -28 -10 -69 7 -18
7 -18 6 -6 -9z"/>
<path d="M2190 810 c0 -5 4 -10 10 -10 5 0 7 -7 4 -15 -4 -8 -13 -15 -22 -15
-13 0 -12 -3 4 -18 26 -25 50 -25 27 0 -12 13 -13 18 -3 18 7 0 10 3 7 7 -4 3
-1 13 6 21 9 13 9 14 0 8 -7 -4 -13 -2 -13 3 0 6 -4 11 -10 11 -5 0 -10 -4
-10 -10z"/>
<path d="M2003 800 c-13 -5 -23 -15 -23 -22 0 -9 3 -9 12 0 16 16 51 16 42 0
-5 -10 -4 -10 6 -1 7 6 9 16 6 22 -8 13 -13 13 -43 1z"/>
<path d="M2056 765 c-8 -8 -20 -15 -26 -15 -6 0 -9 -4 -6 -9 4 -5 0 -12 -6
-14 -9 -4 -8 -6 3 -6 8 -1 25 13 37 29 24 32 23 40 -2 15z"/>
<path d="M1735 735 c-4 -11 -6 -24 -6 -29 1 -5 -5 -6 -14 -2 -18 6 -75 -19
-75 -33 0 -5 11 -4 25 2 14 7 25 15 25 19 0 3 9 4 20 1 14 -4 23 2 31 21 7 14
15 23 19 21 5 -3 10 2 13 9 4 10 0 14 -13 13 -10 -1 -22 -10 -25 -22z"/>
<path d="M1954 741 c4 -6 -8 -20 -26 -31 -19 -12 -26 -20 -17 -20 9 0 22 6 29
14 6 8 20 16 31 18 19 3 19 3 -2 16 -11 8 -18 9 -15 3z"/>
<path d="M1845 729 l-30 -7 32 -1 c17 0 39 -4 49 -8 11 -4 15 -2 12 7 -5 16
-23 19 -63 9z"/>
<path d="M2350 690 c0 -14 -3 -36 -7 -50 -6 -23 -6 -24 10 -8 19 19 22 45 7
68 -8 12 -10 10 -10 -10z"/>
<path d="M1958 693 c-10 -2 -18 -10 -18 -18 0 -7 -8 -16 -17 -19 -24 -9 -69
-35 -63 -37 24 -7 48 -4 44 5 -4 12 41 43 91 63 28 11 29 12 5 11 -14 0 -33
-2 -42 -5z"/>
<path d="M1793 669 c2 -8 6 -20 11 -27 4 -7 4 -11 -1 -10 -5 2 -21 -7 -37 -19
-16 -13 -24 -23 -19 -23 6 0 16 7 23 15 7 8 21 15 32 15 15 0 18 5 13 23 -8
26 -25 46 -22 26z"/>
<path d="M2127 666 c-15 -12 -16 -14 -2 -20 8 -3 15 -2 15 3 0 4 10 13 23 19
20 10 21 11 2 11 -11 0 -28 -6 -38 -13z"/>
<path d="M1950 582 c0 -4 8 -12 18 -19 15 -9 23 -7 43 8 13 10 19 19 12 19 -6
0 -15 -4 -18 -10 -3 -5 -13 -10 -21 -10 -8 0 -12 5 -9 10 3 6 -1 10 -9 10 -9
0 -16 -3 -16 -8z"/>
</g>
</svg>
