<?xml version="1.0" standalone="no"?>
<!DOCTYPE svg PUBLIC "-//W3C//DTD SVG 20010904//EN"
 "http://www.w3.org/TR/2001/REC-SVG-20010904/DTD/svg10.dtd">
<svg version="1.0" xmlns="http://www.w3.org/2000/svg"
 width="300.000000pt" height="300.000000pt" viewBox="0 0 300.000000 300.000000"
 preserveAspectRatio="xMidYMid meet">
<metadata>
Created by potrace 1.10, written by Peter Selinger 2001-2011
</metadata>
<g transform="translate(0.000000,300.000000) scale(0.100000,-0.100000)"
fill="#000000" stroke="none">
<path d="M2465 2940 c-47 -6 -48 -7 -10 -7 22 -1 67 3 100 7 l60 7 -50 0 c-27
0 -72 -3 -100 -7z"/>
<path d="M720 2841 c-30 -3 -90 -18 -132 -31 -70 -23 -78 -28 -78 -51 0 -14
-5 -30 -10 -35 -8 -8 -7 -14 3 -23 12 -9 16 -6 20 17 11 54 138 92 306 92 129
-1 238 -22 325 -63 95 -45 108 -59 102 -108 -3 -21 -4 -39 -3 -39 1 0 20 7 42
15 28 10 33 14 18 15 -16 0 -24 8 -28 25 -3 14 -7 36 -10 50 -4 19 -20 32 -63
52 -31 15 -60 31 -63 36 -22 31 -306 63 -429 48z"/>
<path d="M2071 2808 c-30 -5 -57 -11 -60 -14 -6 -5 111 7 118 12 10 9 -8 10
-58 2z"/>
<path d="M1800 2780 c-25 -4 -76 -11 -115 -15 -38 -4 -72 -9 -74 -11 -10 -9
102 -2 234 15 122 16 131 19 70 19 -38 0 -90 -4 -115 -8z"/>
<path d="M2890 2780 c-41 -4 -142 -13 -225 -19 -82 -6 -170 -14 -195 -16 -40
-5 -273 -26 -878 -82 -116 -11 -179 -20 -172 -27 12 -12 161 -10 220 3 25 6
119 15 210 21 91 5 176 12 190 15 14 2 108 11 210 20 102 8 196 17 210 20 14
3 106 9 205 15 194 11 277 18 313 25 26 6 30 36 5 33 -10 0 -52 -4 -93 -8z"/>
<path d="M659 2708 c-1 -2 -3 -16 -5 -33 -2 -19 0 -25 5 -16 6 8 14 10 22 5
19 -12 39 -14 39 -4 0 4 -14 13 -31 19 -17 6 -28 15 -24 21 3 5 4 10 1 10 -3
0 -7 -1 -7 -2z"/>
<path d="M540 2671 c0 -4 9 -36 21 -72 11 -35 23 -70 25 -78 2 -8 6 -12 9 -9
2 2 -4 33 -15 69 -25 81 -25 91 1 56 15 -20 27 -26 41 -21 13 4 28 -1 42 -15
21 -20 27 -21 74 -10 29 6 58 8 65 6 6 -3 0 -6 -15 -6 -26 -1 -42 -21 -17 -21
6 0 9 -7 5 -15 -4 -11 1 -14 19 -13 13 1 22 5 19 9 -2 4 -1 14 2 23 7 19 34
21 34 3 0 -17 87 -22 106 -6 8 7 19 7 31 1 11 -6 36 -7 63 -2 25 5 48 6 52 4
13 -8 9 -42 -4 -47 -9 -4 -8 -6 2 -6 12 -1 12 -3 2 -9 -7 -5 -14 -19 -17 -31
-8 -41 -16 -61 -26 -61 -6 0 -7 -4 -4 -10 10 -17 23 -11 30 13 21 68 68 166
77 160 6 -3 16 1 23 10 10 14 12 12 12 -13 0 -16 -4 -27 -9 -24 -4 3 -5 -3 -1
-12 4 -11 2 -15 -4 -11 -6 4 -8 -3 -5 -20 4 -21 2 -25 -10 -20 -12 4 -15 0
-11 -16 4 -18 3 -19 -6 -7 -13 18 -15 1 -2 -18 6 -10 13 -7 30 15 15 20 19 22
15 8 -6 -17 -5 -18 7 -7 7 7 14 30 14 51 0 22 2 38 6 35 3 -2 4 8 1 21 -2 14
0 25 6 25 5 0 12 9 15 21 4 16 2 19 -11 13 -9 -4 -32 -9 -49 -12 -18 -2 -33
-8 -33 -12 0 -4 -47 -11 -103 -15 -106 -7 -180 4 -202 31 -16 19 -58 29 -53
13 3 -8 11 -14 18 -14 7 0 15 -6 18 -14 3 -9 -1 -11 -14 -7 -11 3 -46 10 -79
15 -33 5 -90 21 -127 35 -38 14 -68 22 -68 17z"/>
<path d="M1107 2664 c-15 -8 -33 -12 -40 -8 -9 6 -8 3 1 -8 16 -19 44 -13 60
13 14 22 15 22 -21 3z"/>
<path d="M467 2655 c17 -7 38 -26 47 -42 9 -17 15 -22 16 -12 0 29 -39 69 -68
69 -27 -1 -27 -1 5 -15z"/>
<path d="M1340 2628 c0 -4 14 -8 30 -8 17 0 30 5 30 10 0 6 -13 9 -30 8 -16
-1 -30 -6 -30 -10z"/>
<path d="M2855 2613 c-60 -6 -155 -17 -210 -22 -156 -16 -467 -50 -500 -56
-16 -3 -44 -7 -62 -10 -18 -3 -35 -10 -38 -15 -5 -8 10 -7 100 6 22 3 47 6 55
6 18 1 223 25 265 32 46 7 104 13 308 32 103 10 187 21 187 25 0 4 9 5 20 2
11 -3 20 -1 20 5 0 12 4 12 -145 -5z"/>
<path d="M416 2605 c-3 -8 0 -15 6 -15 16 0 49 -42 46 -58 -2 -9 -17 -16 -38
-17 -19 -2 -55 -7 -80 -13 -25 -5 -90 -12 -145 -16 -136 -8 -205 -17 -205 -27
0 -11 -3 -11 116 0 209 20 236 21 251 10 7 -7 16 -9 20 -6 12 13 34 -15 23
-28 -7 -9 -6 -16 5 -25 11 -9 13 -26 8 -74 -3 -33 -3 -58 1 -55 3 3 7 18 8 32
1 15 8 27 15 27 7 0 13 5 13 11 0 5 -4 8 -9 5 -5 -3 -8 7 -8 22 0 26 0 26 10
5 10 -24 41 -31 52 -13 3 6 -3 23 -14 39 -24 33 -27 66 -8 78 6 4 27 13 45 18
19 6 32 15 30 20 -2 6 -6 9 -10 8 -5 -2 -8 4 -8 12 0 17 -2 18 -24 9 -9 -3
-16 -15 -16 -26 0 -10 -4 -16 -10 -13 -5 3 -10 19 -10 34 0 16 -10 37 -23 49
-28 26 -33 27 -41 7z m44 -130 c0 -8 -5 -15 -11 -15 -8 0 -9 -4 0 -13 6 -8 8
-17 4 -20 -11 -12 -23 -8 -23 7 0 7 -7 19 -15 26 -23 19 -18 30 15 30 20 0 30
-5 30 -15z"/>
<path d="M2799 2556 c-2 -2 -44 -7 -94 -11 -49 -4 -97 -9 -105 -11 -8 -1 -21
-3 -29 -3 -8 -1 -12 -4 -9 -7 3 -3 50 0 104 5 55 6 111 12 127 13 15 1 27 6
27 10 0 8 -14 11 -21 4z"/>
<path d="M1250 2523 c23 -9 60 -45 60 -60 0 -7 5 -13 11 -13 6 0 9 -14 7 -32
-2 -24 -14 -40 -46 -65 -55 -42 -168 -78 -189 -61 -11 9 -16 9 -22 -1 -4 -7
-34 -21 -67 -31 -71 -23 -40 -27 35 -4 29 8 57 14 64 11 6 -2 -18 -12 -54 -22
-78 -23 -268 -26 -372 -6 -95 19 -95 7 0 -16 108 -25 269 -23 387 6 85 20 213
86 246 127 7 8 16 14 21 14 16 0 9 -21 -12 -39 -13 -10 -20 -25 -17 -40 l3
-23 19 21 c20 22 20 22 0 15 -17 -7 -18 -6 -5 10 8 9 20 15 27 12 8 -3 15 6
19 24 6 26 12 30 53 35 26 4 57 8 68 10 29 4 115 13 194 20 36 3 117 12 180
20 63 8 167 19 230 25 63 6 144 17 180 25 l65 14 -70 -6 c-38 -3 -78 -7 -89
-9 -10 -2 -75 -8 -145 -14 -175 -14 -213 -19 -268 -29 -44 -9 -132 -19 -243
-27 -25 -1 -69 -5 -98 -8 -50 -4 -54 -3 -63 21 -19 50 -26 48 181 63 79 6 148
14 153 19 5 5 -8 7 -30 5 -331 -28 -316 -28 -353 -5 -19 11 -44 21 -55 20 -14
0 -16 -2 -5 -6z"/>
<path d="M587 2493 c-11 -13 -13 -23 -7 -33 8 -12 10 -9 10 10 1 24 1 24 15 6
16 -22 22 -20 27 9 4 26 -24 31 -45 8z"/>
<path d="M524 2478 c-4 -6 -2 -14 4 -16 7 -2 12 -8 12 -13 0 -6 -4 -7 -10 -4
-6 3 -7 -1 -4 -9 3 -9 12 -16 18 -16 7 0 23 -11 35 -24 41 -43 128 -61 296
-60 83 1 177 6 210 11 33 6 61 10 63 8 2 -2 -23 -12 -55 -24 -52 -18 -54 -20
-18 -15 48 7 129 31 168 51 26 13 38 43 16 43 -5 0 -7 6 -3 13 5 8 2 8 -9 -2
-19 -15 -23 -26 -5 -15 7 5 8 3 4 -5 -5 -7 -10 -10 -13 -7 -3 3 -14 1 -25 -5
-59 -32 -353 -52 -468 -33 -61 10 -64 11 -100 27 -48 23 -64 37 -84 75 -18 35
-21 37 -32 20z"/>
<path d="M1240 2464 c-19 -13 -40 -22 -47 -20 -7 3 -10 -1 -7 -8 5 -14 -39
-41 -54 -32 -5 3 -13 -1 -16 -10 -5 -14 -1 -16 21 -11 48 9 83 26 83 39 0 6
15 24 33 39 40 35 34 36 -13 3z"/>
<path d="M880 2440 c0 -23 10 -26 28 -8 18 18 15 28 -8 28 -13 0 -20 -7 -20
-20z"/>
<path d="M714 2389 c-3 -5 3 -9 13 -9 10 0 59 -5 108 -11 94 -11 267 -3 244
12 -7 4 -47 5 -88 2 -42 -2 -85 -4 -96 -4 -45 2 -141 11 -157 15 -10 2 -21 0
-24 -5z"/>
<path d="M511 2361 c-8 -15 -7 -20 6 -26 13 -4 14 -8 5 -14 -10 -6 -10 -11 3
-21 13 -11 15 -7 15 28 0 46 -14 62 -29 33z"/>
<path d="M320 2360 c-8 -4 -54 -11 -101 -15 -47 -3 -92 -11 -100 -16 -10 -7
-7 -8 11 -4 14 3 71 7 127 8 57 1 103 5 103 8 0 14 -26 27 -40 19z"/>
<path d="M550 2348 c0 -7 5 -29 10 -49 l10 -36 65 -1 c35 0 75 -4 87 -8 20 -6
21 -5 10 8 -8 11 -24 14 -52 11 -31 -4 -40 -1 -40 10 0 12 -7 13 -35 7 -32 -7
-35 -6 -35 16 0 24 14 32 25 14 3 -5 17 -10 31 -10 13 0 24 -3 24 -7 0 -5 10
-9 23 -10 12 -1 54 -4 92 -7 l70 -5 -75 13 c-96 16 -159 34 -187 52 -18 11
-23 12 -23 2z"/>
<path d="M2490 2342 c0 -4 17 -6 38 -4 64 6 69 10 15 11 -29 0 -53 -3 -53 -7z"/>
<path d="M464 2322 c-5 -4 -9 -14 -8 -22 0 -8 2 -71 4 -140 2 -69 5 -111 7
-95 2 17 12 36 21 43 8 6 11 12 5 12 -7 0 -12 8 -11 18 0 9 -3 55 -7 101 -6
63 -5 82 4 77 6 -4 9 -12 6 -17 -4 -5 -1 -9 4 -9 16 0 13 27 -2 33 -8 3 -18 2
-23 -1z"/>
<path d="M1326 2228 c3 -13 15 -40 25 -60 24 -47 24 -45 -6 -50 -21 -4 -23 -3
-14 9 19 22 4 25 -16 2 -13 -14 -16 -22 -8 -27 6 -4 15 -20 19 -36 5 -21 26
-40 82 -76 65 -41 79 -47 101 -39 14 6 36 7 49 4 16 -4 21 -2 17 6 -5 7 -25 9
-59 5 -51 -7 -52 -6 -88 34 -20 22 -42 40 -48 40 -19 0 -2 131 19 148 15 12
15 13 0 9 -27 -9 -41 14 -22 35 15 17 14 18 -21 18 -34 0 -37 -2 -30 -22z"/>
<path d="M1740 2240 l-25 -8 25 0 c14 -1 43 3 65 7 l40 9 -40 0 c-22 0 -51 -4
-65 -8z"/>
<path d="M416 2224 c-10 -26 -7 -142 4 -149 6 -4 10 25 10 79 0 86 -3 100 -14
70z"/>
<path d="M527 2182 c5 -42 2 -52 -22 -80 -26 -31 -27 -36 -16 -74 7 -22 9 -44
4 -47 -4 -4 -35 -25 -67 -46 -94 -61 -165 -152 -242 -308 -35 -72 -53 -99 -73
-106 -25 -9 -24 -9 12 -10 21 -1 37 4 37 10 0 7 20 55 46 108 51 108 133 221
199 275 61 50 140 89 168 81 12 -3 1 6 -25 20 -45 24 -47 27 -41 58 3 17 9 35
13 40 11 13 52 17 70 7 24 -13 29 -5 20 33 -3 18 -2 40 4 49 8 13 7 21 -2 30
-11 11 -12 10 -7 -4 6 -14 2 -15 -28 -8 -19 4 -39 10 -45 14 -8 5 -9 -8 -5
-42z m72 -34 c0 -13 -3 -17 -6 -10 -2 6 -16 12 -29 12 -13 0 -24 5 -24 10 0 6
14 10 30 10 25 0 30 -4 29 -22z"/>
<path d="M1227 2200 c-3 -11 -1 -18 4 -14 5 3 13 -6 19 -20 5 -14 14 -26 19
-26 25 0 61 21 61 36 0 15 -3 14 -23 -4 -31 -29 -33 -28 -47 13 -13 39 -25 45
-33 15z"/>
<path d="M1179 2187 c-1 -12 -1 -28 0 -34 1 -7 -4 -13 -10 -13 -8 0 -7 -6 3
-17 29 -34 30 -42 3 -37 -20 3 -25 0 -25 -16 0 -29 30 -38 46 -15 16 22 18 12
4 -16 -9 -15 -15 -17 -30 -9 -14 7 -20 7 -20 0 0 -17 -17 -11 -41 15 -23 24
-49 33 -49 17 0 -4 12 -15 28 -25 27 -18 27 -18 2 -12 l-25 7 28 -27 c18 -18
27 -34 24 -46 -6 -23 1 -24 28 -5 11 7 43 17 70 21 50 9 50 9 15 15 -19 3 -38
1 -42 -4 -9 -14 -22 0 -13 13 3 6 16 9 29 7 19 -3 22 0 20 23 -1 15 -9 48 -18
74 -12 35 -13 53 -6 67 13 24 13 27 -5 34 -10 4 -15 -1 -16 -17z"/>
<path d="M647 2184 c-7 -8 2 -55 13 -67 3 -4 5 7 2 24 -3 20 0 34 9 40 11 7
11 9 -2 9 -9 0 -19 -3 -22 -6z"/>
<path d="M1115 2180 c-3 -5 3 -10 15 -10 12 0 18 -5 15 -10 -4 -6 -11 -8 -16
-5 -5 4 -9 1 -9 -4 0 -13 10 -14 29 -2 12 8 12 12 2 25 -15 18 -27 20 -36 6z"/>
<path d="M700 2171 c0 -7 -4 -9 -10 -6 -5 3 -10 2 -10 -3 0 -17 13 -22 28 -9
13 10 15 9 9 -7 -6 -16 -5 -17 8 -6 9 7 14 13 13 14 -2 1 -11 8 -20 15 -13 10
-18 10 -18 2z"/>
<path d="M1073 2166 c14 -11 15 -16 6 -22 -7 -4 -15 -2 -17 4 -2 7 -8 12 -13
12 -6 0 -8 -4 -5 -9 4 -5 3 -11 -1 -14 -5 -2 -3 -3 3 -1 6 1 16 -2 20 -6 5 -5
15 -5 23 -1 18 11 5 51 -17 51 -15 -1 -15 -2 1 -14z"/>
<path d="M871 2151 c-11 -7 -9 -10 7 -16 12 -3 21 -11 19 -17 -4 -20 20 -19
26 2 3 13 0 20 -9 20 -8 0 -14 5 -14 10 0 12 -10 13 -29 1z"/>
<path d="M627 2111 c-3 -12 -1 -21 5 -21 6 0 8 -9 5 -20 -3 -11 -1 -18 4 -14
5 3 9 1 9 -5 0 -6 7 -8 15 -5 9 4 15 0 15 -9 0 -24 18 -30 36 -12 9 9 24 13
34 10 40 -13 25 12 -17 29 -36 15 -50 17 -64 8 -15 -10 -17 -9 -13 3 4 8 1 15
-6 15 -6 0 -9 4 -6 8 2 4 1 14 -3 21 -6 9 -10 7 -14 -8z"/>
<path d="M543 2066 c7 -7 21 -15 31 -19 16 -6 17 -5 6 8 -8 9 -8 15 -2 15 6 0
14 -4 17 -10 3 -5 12 -10 18 -10 23 1 -28 24 -55 26 -21 1 -24 -1 -15 -10z"/>
<path d="M1270 2055 c0 -8 -4 -15 -10 -15 -11 0 -1 -30 16 -47 21 -22 25 -14
9 17 -9 17 -12 30 -7 30 5 0 15 -11 22 -25 8 -14 39 -37 74 -53 69 -33 215
-138 240 -173 l16 -23 0 22 c0 40 -64 96 -176 153 -58 30 -124 71 -145 91 -25
24 -39 32 -39 23z"/>
<path d="M554 2028 c16 -13 50 -43 75 -69 44 -43 131 -82 148 -65 3 3 -8 9
-26 12 -17 4 -34 10 -36 14 -5 9 26 70 36 70 3 0 14 -15 24 -33 20 -38 50 -47
39 -13 -6 18 -5 19 10 7 9 -7 16 -20 16 -27 0 -8 8 -14 19 -14 21 0 61 -92 61
-141 0 -26 2 -28 29 -23 23 5 32 2 40 -14 6 -11 22 -23 36 -26 14 -4 25 -13
25 -21 0 -7 9 -21 21 -29 12 -8 18 -19 14 -25 -3 -6 1 -14 10 -17 9 -4 13 -13
10 -24 -3 -9 1 -23 10 -30 8 -7 15 -17 15 -22 0 -6 7 -25 16 -44 12 -24 23
-34 39 -34 17 0 24 -7 27 -29 7 -48 -3 -99 -20 -106 -9 -3 -13 -3 -10 1 11 10
-11 44 -27 44 -19 0 -19 -20 1 -48 17 -24 40 -29 47 -9 2 7 8 8 13 3 5 -5 4
-11 -3 -13 -7 -3 -13 -12 -13 -20 0 -9 6 -13 15 -9 8 3 15 1 15 -4 0 -6 -7
-10 -15 -10 -19 0 -19 -17 0 -54 18 -33 19 -39 5 -31 -5 3 -10 0 -10 -9 0 -8
6 -17 13 -19 7 -3 4 -6 -6 -6 -10 -1 -15 -6 -12 -11 4 -6 15 -8 26 -5 13 4 19
2 19 -9 0 -9 5 -16 10 -16 6 0 10 -5 10 -10 0 -6 -8 -5 -19 2 -11 7 -17 16
-14 22 3 5 1 6 -6 2 -6 -4 -9 -12 -6 -17 4 -5 1 -9 -4 -9 -6 0 -11 5 -11 10 0
6 -5 10 -11 10 -8 0 -7 -5 2 -16 7 -8 21 -13 31 -11 15 4 18 1 12 -16 -6 -20
-6 -20 11 -3 19 19 29 14 49 -25 6 -12 18 -25 26 -27 12 -4 11 -1 -2 15 -17
19 -17 20 12 41 17 13 30 18 30 12 0 -6 5 -8 11 -4 8 4 8 9 0 17 -17 17 -13
26 10 20 17 -5 20 -2 17 18 -4 34 -48 40 -48 7 0 -28 -26 -68 -44 -68 -8 0
-19 7 -26 15 -19 23 6 94 37 106 20 7 22 12 13 29 -6 11 -14 20 -19 20 -14 0
-34 -29 -35 -53 -1 -15 -8 -23 -23 -25 -13 -2 -23 1 -23 7 0 6 4 11 10 11 16
0 23 49 10 65 -7 8 -9 16 -4 16 30 4 40 3 45 -4 8 -11 40 3 33 14 -3 5 -10 7
-15 4 -5 -4 -9 -2 -9 4 0 6 12 13 28 17 15 4 33 14 40 23 12 14 15 14 31 -8
14 -18 23 -22 41 -16 17 5 21 4 15 -5 -5 -8 -4 -11 3 -6 16 9 3 36 -22 47 -11
5 -29 15 -39 21 -15 11 -21 9 -42 -17 -23 -28 -24 -29 -25 -7 0 24 -19 29 -39
10 -11 -10 -14 -10 -18 0 -3 6 -12 12 -20 12 -13 0 -13 -2 -2 -17 12 -14 12
-16 0 -12 -22 8 -24 25 -5 44 15 15 16 19 3 29 -8 6 -13 23 -11 39 3 24 7 28
25 23 11 -3 27 0 34 6 10 8 13 6 13 -10 0 -23 25 -47 40 -37 5 3 10 15 10 27
0 17 4 19 25 14 23 -6 24 -5 13 18 -8 20 -15 23 -29 16 -9 -6 -20 -15 -23 -22
-3 -7 -4 -4 -3 7 2 17 -4 20 -33 20 -27 0 -35 4 -34 18 1 9 -5 17 -13 17 -8 0
-12 3 -10 8 3 4 1 16 -4 27 -6 17 -8 16 -8 -9 -1 -20 -5 -27 -15 -23 -13 5
-16 -17 -5 -50 2 -6 0 -11 -6 -12 -5 -1 -10 4 -10 9 0 6 -5 14 -11 18 -6 4
-17 18 -23 31 -17 31 0 51 29 33 17 -10 20 -10 20 3 0 8 -4 15 -10 15 -5 0
-10 7 -10 15 0 8 -6 15 -14 15 -8 0 -20 13 -27 29 -11 25 -16 28 -32 19 -16
-8 -18 -7 -13 9 3 13 -4 24 -27 39 -18 11 -31 26 -29 32 1 7 -4 12 -12 12 -8
0 -27 5 -43 12 l-28 12 45 6 c44 6 44 6 18 17 -14 7 -29 16 -32 22 -9 15 13
24 28 12 7 -6 21 -9 29 -5 9 3 23 -3 32 -14 14 -16 21 -17 41 -8 31 14 31 26
0 26 -32 0 -43 30 -14 38 21 5 21 6 3 12 -14 5 -27 -1 -47 -23 -27 -28 -30
-28 -32 3 -1 8 -6 15 -12 15 -6 0 -18 8 -27 17 -20 20 -7 32 24 23 23 -8 59
19 59 44 0 17 -60 64 -69 54 -4 -3 -1 -8 6 -10 6 -2 21 -13 34 -24 19 -16 20
-19 4 -19 -11 0 -15 -5 -11 -15 9 -25 -25 -18 -58 13 -17 15 -25 20 -18 11 10
-14 10 -18 -3 -23 -9 -3 -25 -1 -35 4 -24 13 -30 13 -30 -1 0 -13 40 -48 56
-49 6 0 21 -11 33 -24 23 -24 23 -24 2 -31 -31 -10 -75 16 -79 45 -4 32 -59
61 -73 39 -7 -11 -9 -11 -9 2 0 9 -9 24 -20 34 -16 14 -18 21 -8 27 9 6 7 8
-7 6 -12 -2 -19 -10 -17 -21 4 -24 -7 -21 -30 8 -24 31 -63 35 -55 6 4 -18 -9
-31 -32 -31 -5 0 -29 16 -55 35 -25 20 -46 33 -46 30 0 -3 -12 2 -27 11 l-28
16 29 -24z m755 -729 c-8 -5 -24 -9 -36 -9 -13 0 -26 0 -30 -1 -5 0 -10 7 -11
16 -3 13 0 15 13 8 21 -12 65 -5 66 11 0 6 3 5 6 -3 3 -7 -1 -17 -8 -22z"/>
<path d="M792 2028 c-17 -17 -15 -33 3 -18 8 7 22 9 31 6 10 -4 14 -1 12 6 -6
18 -31 21 -46 6z"/>
<path d="M16 2002 c-6 -10 84 -56 92 -48 2 3 -6 10 -20 15 -14 5 -28 17 -31
25 -7 17 -32 22 -41 8z"/>
<path d="M1595 1920 c3 -5 17 -10 30 -10 26 0 35 -17 35 -65 0 -19 5 -37 10
-40 6 -3 10 1 10 9 0 8 10 18 22 22 20 6 20 8 5 19 -20 14 -23 35 -5 35 7 0
-5 9 -27 20 -41 21 -91 27 -80 10z"/>
<path d="M621 1875 c16 -15 100 -45 127 -45 9 0 24 -5 32 -11 12 -9 11 -10 -8
-6 -12 3 -20 1 -17 -3 3 -5 -1 -11 -7 -13 -37 -15 25 -4 72 12 30 11 59 17 64
14 5 -4 6 -1 2 6 -4 6 -12 9 -17 5 -6 -3 -9 2 -7 12 3 18 -4 19 -82 16 -58 -3
-99 1 -129 11 -34 12 -41 13 -30 2z"/>
<path d="M1250 1815 c0 -20 12 -25 32 -14 22 12 17 22 -12 24 -11 1 -20 -4
-20 -10z"/>
<path d="M1186 1811 c5 -5 20 -12 33 -16 17 -5 22 -4 19 6 -3 8 -17 15 -33 16
-15 1 -24 -2 -19 -6z"/>
<path d="M1302 1790 c-13 -21 -9 -22 43 -22 36 0 39 2 25 16 -27 25 -54 27
-68 6z"/>
<path d="M1703 1804 c-15 -6 15 -44 34 -44 7 0 13 -7 13 -15 0 -8 -6 -15 -14
-15 -8 0 -16 7 -20 15 -3 8 -11 15 -18 15 -14 -1 41 -54 63 -63 11 -3 11 -7 2
-17 -8 -9 -7 -29 8 -81 23 -84 23 -79 -1 -79 -16 0 -20 -7 -20 -35 0 -19 4
-35 8 -35 5 0 7 14 4 30 -3 19 0 30 7 30 17 0 41 -62 41 -104 0 -39 12 -53 29
-32 19 22 20 51 6 92 -9 24 -14 31 -15 19 -1 -20 -1 -20 -15 -1 -8 11 -15 29
-15 39 0 17 2 18 17 6 15 -13 15 -11 9 25 -8 39 -28 70 -40 59 -3 -4 -6 3 -6
15 0 12 6 21 13 20 14 -3 11 51 -3 66 -5 5 -5 17 1 28 8 15 6 18 -11 18 -23 0
-50 22 -50 39 0 12 -7 13 -27 5z"/>
<path d="M1083 1766 c0 -8 6 -12 12 -10 7 3 38 -29 70 -70 49 -64 68 -81 88
-75 1 0 15 -5 31 -11 28 -10 29 -10 14 11 -8 12 -34 33 -59 46 -24 14 -53 36
-64 51 l-19 26 31 -22 c42 -30 55 -28 18 3 -16 13 -38 24 -47 25 -10 0 -18 4
-18 9 0 5 -8 11 -17 15 -10 3 -23 8 -29 11 -6 3 -11 -1 -11 -9z"/>
<path d="M1260 1745 c0 -3 8 -15 19 -26 17 -18 19 -19 25 -3 4 9 5 18 4 19 -8
7 -48 15 -48 10z"/>
<path d="M1630 1742 c0 -5 7 -17 16 -28 15 -18 15 -18 10 0 -6 16 -4 17 9 6
18 -15 20 1 3 18 -14 14 -38 16 -38 4z"/>
<path d="M1596 1695 c4 -8 1 -15 -7 -15 -18 0 -2 -13 21 -17 22 -3 27 16 8 35
-17 17 -29 15 -22 -3z"/>
<path d="M1429 1673 c18 -35 13 -38 -15 -12 l-27 24 12 -23 c7 -13 23 -27 35
-32 25 -9 36 -29 36 -62 0 -20 -1 -20 -18 -5 -21 20 -48 7 -38 -18 4 -11 13
-15 26 -12 10 3 21 0 24 -7 3 -7 9 -4 16 7 8 12 18 16 31 12 12 -4 19 -2 19 7
0 22 -18 43 -37 43 -12 0 -19 9 -21 26 -2 15 -15 37 -29 50 -25 23 -25 23 -14
2z"/>
<path d="M1270 1672 c0 -4 15 -22 33 -39 24 -23 39 -29 60 -26 15 2 36 -1 46
-6 14 -8 20 -7 25 5 4 9 2 12 -5 8 -6 -3 -25 9 -41 27 -18 21 -28 27 -24 15 6
-17 4 -17 -10 -5 -15 12 -16 11 -9 -11 7 -24 6 -23 -29 8 -38 33 -46 37 -46
24z"/>
<path d="M1497 1663 c4 -11 3 -14 -5 -9 -14 9 -15 -3 -2 -24 7 -11 10 -11 10
-2 0 7 4 11 9 7 16 -9 24 15 11 30 -17 20 -31 19 -23 -2z"/>
<path d="M1586 1612 c-4 -7 -16 -12 -26 -12 -26 0 -34 -17 -16 -35 22 -22 45
-18 52 10 7 30 1 55 -10 37z"/>
<path d="M1276 1582 c-3 -6 1 -13 9 -16 8 -3 15 -9 14 -13 -4 -21 2 -32 15
-27 8 3 16 1 20 -4 3 -5 19 -7 35 -4 24 3 30 9 27 25 -4 29 -22 33 -29 6 -3
-13 -10 -18 -17 -14 -9 6 -9 9 -1 15 9 5 7 11 -5 21 -16 12 -17 12 -9 -1 8
-13 7 -13 -8 -1 -9 7 -17 10 -17 6 0 -4 -6 -2 -14 4 -9 7 -17 8 -20 3z"/>
<path d="M212 1533 c-12 -30 -32 -103 -32 -115 0 -5 4 -8 10 -8 9 0 28 62 27
90 0 8 3 25 7 38 10 31 1 27 -12 -5z"/>
<path d="M405 1521 c3 -5 19 -12 35 -16 17 -4 38 -14 47 -23 9 -9 23 -17 32
-17 9 -1 40 -5 69 -9 l52 -9 -5 -51 -4 -51 9 44 c12 54 11 54 44 45 29 -7 34
-25 11 -44 -8 -7 -15 -25 -15 -40 0 -33 -29 -49 -46 -25 -11 14 -12 14 -18 -1
-10 -27 6 -34 52 -22 41 10 52 21 32 33 -34 21 20 77 87 91 25 5 34 1 52 -21
11 -15 21 -34 21 -41 0 -12 4 -12 19 -2 11 7 17 16 14 22 -4 5 1 7 11 3 10 -4
24 -7 32 -7 11 0 12 -5 6 -17 -20 -38 -23 -73 -7 -73 11 0 13 7 9 28 -5 25 -1
32 31 50 43 26 72 28 97 5 10 -9 18 -11 18 -6 0 20 -25 31 -85 38 -33 4 -91
14 -130 22 -38 7 -128 25 -200 38 -71 14 -161 34 -200 45 -81 23 -78 23 -70
11z"/>
<path d="M1420 1511 c0 -6 11 -18 25 -27 l26 -17 -23 -16 c-14 -9 -22 -23 -20
-33 5 -25 16 -22 32 6 14 27 48 40 65 26 15 -12 25 -3 25 22 0 21 -15 24 -24
6 -4 -7 -4 -3 -2 9 2 14 -2 23 -15 26 -11 3 -17 1 -13 -4 3 -5 0 -9 -6 -9 -7
0 -10 -7 -7 -14 4 -10 1 -13 -9 -9 -7 3 -14 9 -14 14 0 4 -9 13 -20 19 -13 7
-20 7 -20 1z"/>
<path d="M1697 1509 c-9 -6 -27 -7 -38 -4 -14 5 -19 3 -15 -3 3 -6 -2 -8 -13
-5 -10 3 -22 0 -25 -6 -12 -19 -36 -13 -29 7 5 13 3 15 -7 5 -7 -6 -10 -18 -7
-26 6 -15 87 -13 119 4 27 14 28 12 28 -47 0 -40 3 -54 13 -51 6 2 11 10 9 16
-1 7 2 10 7 7 5 -4 12 2 14 11 4 17 5 17 6 1 0 -10 5 -18 10 -18 5 0 7 9 4 20
-3 11 -11 20 -18 20 -17 0 -24 20 -18 53 6 29 -8 35 -40 16z"/>
<path d="M419 1425 c-24 -25 -52 -45 -63 -45 -12 0 -16 4 -11 8 11 8 18 32 10
32 -3 0 -14 -9 -25 -20 -12 -12 -25 -18 -30 -15 -5 3 -11 1 -15 -5 -4 -6 6
-10 23 -10 29 0 29 0 24 -47 -2 -27 -9 -57 -15 -67 -7 -15 -4 -23 14 -37 13
-10 29 -19 35 -19 19 0 44 36 44 64 0 20 4 27 14 23 11 -5 13 0 7 21 -5 15 -6
33 -4 40 3 6 0 12 -6 12 -17 0 -13 27 7 42 19 15 46 58 39 64 -2 3 -24 -16
-48 -41z m-25 -77 c21 -30 20 -58 -2 -58 -24 0 -42 19 -42 45 0 40 21 46 44
13z m-17 -66 c13 -9 11 -65 -3 -69 -5 -1 -18 4 -28 12 -16 12 -18 19 -8 40 12
26 19 30 39 17z"/>
<path d="M1615 1429 c-10 -15 29 -49 55 -49 15 0 20 5 18 18 -2 9 -11 16 -21
16 -9 -1 -15 2 -12 6 3 4 -2 11 -11 14 -21 8 -22 8 -29 -5z"/>
<path d="M751 1378 c1 -17 2 -19 6 -5 2 9 9 17 15 17 5 0 7 -7 4 -16 -5 -14
-4 -15 9 -4 12 10 18 10 30 0 17 -14 20 -40 5 -40 -5 0 -10 8 -10 17 0 13 -3
14 -12 5 -18 -18 7 -40 29 -26 28 18 25 31 -10 53 -45 28 -67 27 -66 -1z"/>
<path d="M1490 1363 c0 -12 5 -25 10 -28 11 -7 3 -46 -11 -55 -4 -3 -1 -16 6
-29 12 -23 13 -23 19 -5 3 10 9 47 14 80 8 60 8 62 -15 60 -17 -1 -23 -7 -23
-23z"/>
<path d="M1570 1380 c0 -6 -6 -9 -12 -7 -8 1 -14 -11 -15 -33 -2 -25 0 -30 5
-16 14 32 41 28 51 -7 4 -18 12 -31 18 -30 5 1 18 -21 28 -48 11 -27 23 -49
27 -49 4 0 8 -10 8 -22 0 -13 7 -36 15 -52 18 -35 20 -60 3 -50 -8 5 -7 0 2
-11 14 -17 15 -17 18 8 3 28 -18 94 -62 187 -14 30 -26 64 -26 75 1 19 2 19
20 -4 11 -13 20 -29 20 -37 0 -8 4 -14 10 -14 5 0 7 7 4 15 -7 17 11 21 21 5
4 -6 10 -8 15 -5 12 7 -11 45 -25 43 -5 -1 -23 5 -40 12 -16 8 -37 14 -45 15
-8 0 -14 6 -13 12 1 6 -4 14 -12 17 -8 3 -15 1 -15 -4z"/>
<path d="M1432 1364 c1 -9 9 -19 17 -22 8 -3 11 0 7 7 -4 6 -2 11 3 11 6 0 11
-7 11 -15 0 -8 5 -15 11 -15 17 0 -15 44 -36 48 -12 3 -16 -2 -13 -14z"/>
<path d="M31 1349 c-54 -16 -31 -18 34 -4 37 8 48 13 30 13 -16 0 -45 -4 -64
-9z"/>
<path d="M1800 1347 c0 -24 13 -57 21 -57 5 0 6 12 3 26 -5 19 -4 25 5 20 6
-4 11 -3 11 2 0 5 -9 12 -20 15 -12 3 -20 0 -20 -6z"/>
<path d="M1096 1309 c-7 -35 -3 -45 13 -34 13 7 14 35 2 53 -6 10 -10 4 -15
-19z"/>
<path d="M1740 1303 c0 -32 16 -37 34 -11 22 31 20 36 -9 34 -19 -1 -25 -7
-25 -23z"/>
<path d="M1865 1317 c-17 -13 -17 -14 4 -20 23 -6 39 9 24 24 -5 5 -16 4 -28
-4z"/>
<path d="M95 1311 c-3 -5 -19 -9 -35 -9 -17 1 -33 -2 -37 -5 -3 -4 15 -7 40
-7 35 0 47 4 47 15 0 17 -6 19 -15 6z"/>
<path d="M985 1300 c6 -19 4 -22 -10 -16 -15 5 -16 4 -5 -9 7 -9 17 -12 21 -8
14 15 14 46 0 51 -10 3 -11 -2 -6 -18z"/>
<path d="M2710 1310 c20 -13 60 -13 60 0 0 6 -17 10 -37 10 -28 0 -34 -3 -23
-10z"/>
<path d="M833 1296 c-4 -8 -21 -16 -38 -19 -19 -2 -11 -5 23 -6 29 0 51 -5 48
-9 -3 -5 8 -24 24 -43 35 -41 38 -74 8 -90 -19 -10 -19 -12 -5 -21 19 -10 23
-38 6 -38 -7 0 -17 8 -24 17 -11 15 -13 15 -24 -6 -7 -13 -29 -30 -49 -38 -20
-9 -32 -18 -26 -20 7 -2 27 5 45 16 41 25 74 28 65 5 -6 -16 6 -12 35 13 14
12 17 12 22 -2 4 -8 14 -15 24 -15 16 1 16 2 2 13 -9 7 -19 24 -22 39 -4 14
-10 33 -13 42 -3 9 -2 16 3 16 5 0 20 -21 32 -47 13 -27 26 -42 28 -36 3 7
-13 41 -34 75 -21 35 -38 66 -38 71 0 4 -13 16 -30 27 -37 24 -26 26 18 3 18
-9 38 -18 46 -19 47 -8 102 -103 108 -189 4 -51 1 -67 -20 -103 -13 -24 -23
-52 -20 -62 3 -10 -4 -27 -14 -37 -11 -11 -18 -24 -15 -31 2 -6 -2 -19 -8 -29
-10 -15 -11 -15 -6 -1 2 9 -2 22 -11 29 -12 11 -17 10 -25 -4 -12 -22 -28 -13
-28 16 0 16 -3 18 -12 9 -9 -9 -9 -15 0 -24 17 -17 15 -39 -2 -32 -8 3 -12 12
-9 20 3 7 -2 17 -11 20 -9 3 -16 15 -16 26 0 18 5 20 38 15 20 -3 48 -8 62
-12 14 -3 18 -2 10 1 -8 4 -17 10 -20 14 -11 15 -68 19 -86 5 -17 -12 -17 -17
-6 -47 6 -19 12 -47 12 -62 0 -23 3 -27 18 -21 9 4 25 10 35 12 9 3 17 13 17
22 0 14 2 14 10 1 8 -12 20 -9 78 21 64 33 68 37 61 62 -4 15 -3 27 2 27 5 0
9 14 9 31 0 29 2 31 28 25 15 -3 21 -3 15 0 -18 8 -16 24 2 24 8 0 12 6 9 14
-6 16 41 28 75 19 19 -5 21 -2 19 25 -2 28 -4 29 -31 20 -16 -6 -31 -17 -34
-24 -9 -23 -26 -16 -20 9 5 20 5 20 -7 5 -7 -10 -17 -18 -22 -18 -4 0 -3 5 4
12 7 7 12 20 12 30 0 21 4 22 29 8 17 -9 17 -6 -3 35 -21 44 -21 44 -38 22 -9
-12 -14 -25 -12 -29 2 -3 0 -9 -4 -12 -5 -3 -10 -31 -11 -62 -1 -32 -7 -64
-14 -72 -7 -9 -12 -25 -12 -36 0 -12 -6 -20 -12 -19 -9 2 -11 -6 -7 -26 5 -22
2 -30 -13 -35 -10 -3 -24 -9 -31 -12 -17 -8 11 61 36 90 9 11 11 16 5 12 -15
-8 -19 29 -4 38 16 10 22 91 10 147 -14 66 -65 119 -158 163 -33 17 -61 36
-61 43 0 17 -17 17 -27 -1z"/>
<path d="M2886 1296 c7 -19 48 -22 42 -3 -3 6 -14 13 -26 15 -16 3 -20 -1 -16
-12z"/>
<path d="M116 1259 c-3 -17 -6 -84 -6 -149 l0 -117 -32 -7 c-23 -4 -29 -9 -21
-17 8 -8 17 -8 31 0 19 10 22 8 26 -21 18 -124 29 -179 37 -184 5 -3 6 -10 3
-16 -4 -6 -3 -8 3 -5 10 6 56 -81 52 -98 -4 -17 12 -45 25 -45 7 0 18 -11 24
-25 11 -25 32 -34 32 -15 0 6 -4 10 -10 10 -5 0 -10 8 -10 19 0 10 -7 24 -15
31 -8 7 -15 18 -15 24 0 7 -13 37 -29 67 -60 109 -66 139 -66 326 0 94 -3 169
-7 166 -9 -5 -11 16 -8 60 2 37 -6 34 -14 -4z"/>
<path d="M675 1243 c-74 -47 -126 -108 -125 -145 1 -7 10 4 20 24 17 32 55 68
98 93 8 4 5 -9 -8 -35 -15 -29 -17 -41 -8 -38 7 2 23 24 35 49 23 48 22 47 71
35 47 -11 66 9 21 22 -19 5 -41 12 -49 15 -8 3 -33 -6 -55 -20z"/>
<path d="M1825 1252 c-2 -7 0 -21 6 -31 10 -15 37 -19 173 -29 236 -17 385
-51 560 -131 108 -49 209 -71 330 -71 l106 0 0 25 c0 24 -3 25 -34 20 -42 -8
-76 1 -76 21 0 9 -11 14 -36 14 -28 0 -35 -3 -32 -17 3 -13 12 -17 35 -16 20
2 33 -3 37 -12 4 -12 -4 -15 -44 -15 -49 0 -71 12 -48 27 8 5 -17 10 -61 13
l-75 5 30 30 c17 17 33 38 37 48 5 14 1 17 -26 17 -18 0 -39 5 -47 10 -13 8
-13 11 2 26 13 13 27 15 72 10 64 -8 75 -18 44 -40 l-22 -16 26 0 c14 0 29 7
32 16 3 8 10 13 15 10 5 -3 11 3 14 13 4 15 0 18 -17 15 -30 -5 -119 19 -124
34 -2 8 9 12 37 12 22 0 43 5 47 11 4 7 -10 9 -49 4 -36 -5 -57 -3 -61 4 -4 6
-30 10 -59 9 l-52 -1 45 -4 c48 -5 70 -17 70 -40 0 -20 -38 -31 -82 -23 -21 4
-38 3 -38 -1 0 -5 13 -9 29 -9 20 0 32 -6 36 -19 3 -10 20 -22 38 -27 22 -7
32 -16 32 -29 0 -17 -7 -20 -45 -20 -41 0 -45 2 -43 23 3 20 -2 22 -42 22 -29
0 -45 4 -45 13 0 6 -14 13 -31 14 -24 2 -30 -1 -25 -13 8 -20 -20 -29 -50 -15
-26 11 -24 37 2 27 8 -3 14 -1 14 5 0 6 -9 13 -19 16 -11 3 -22 12 -24 22 -4
13 -5 13 -6 -3 -1 -12 -6 -16 -17 -12 -9 3 -61 6 -117 6 -83 1 -99 3 -86 13
13 10 -9 13 -119 14 -74 1 -137 5 -140 8 -3 3 2 11 11 18 15 10 10 12 -33 12
-31 0 -52 -5 -55 -13z m764 -137 c1 -2 0 -8 -4 -14 -14 -23 -95 -5 -95 20 0 8
16 9 48 4 26 -4 49 -8 51 -10z"/>
<path d="M1350 1251 c0 -5 7 -25 15 -44 12 -29 19 -35 37 -32 12 3 27 0 35 -6
7 -7 13 -7 13 -2 0 5 -15 16 -32 24 -20 8 -32 21 -32 31 1 11 -4 15 -15 10
-14 -5 -14 -4 -2 11 12 15 11 17 -3 17 -9 0 -16 -4 -16 -9z"/>
<path d="M2820 1251 c0 -5 9 -13 20 -16 11 -3 20 -12 20 -19 0 -8 17 -16 42
-19 26 -3 49 -14 60 -26 19 -25 43 -28 34 -5 -3 9 -6 20 -6 25 0 5 -16 9 -36
9 -32 0 -36 3 -31 20 5 19 2 20 -29 14 -27 -5 -34 -3 -34 10 0 9 -8 16 -20 16
-11 0 -20 -4 -20 -9z"/>
<path d="M0 1240 c0 -6 13 -10 28 -10 15 0 33 -5 40 -12 9 -9 15 -9 24 0 16
16 11 18 -44 25 -29 4 -48 3 -48 -3z"/>
<path d="M1016 1242 c-8 -8 77 -81 95 -82 12 0 18 11 21 35 4 35 -8 48 -18 20
-4 -8 -10 -12 -15 -9 -5 3 -9 0 -9 -5 0 -6 -4 -11 -10 -11 -5 0 -10 8 -10 18
0 17 -44 45 -54 34z"/>
<path d="M1710 1232 c0 -28 15 -35 42 -20 22 12 22 12 3 16 -11 2 -26 9 -32
14 -10 8 -13 5 -13 -10z"/>
<path d="M233 1233 c-17 -6 -16 -33 1 -33 7 0 17 -10 21 -22 6 -20 8 -21 12
-5 3 11 -3 24 -13 31 -9 7 -14 18 -10 24 8 13 7 13 -11 5z"/>
<path d="M570 1195 c-19 -20 -40 -33 -47 -31 -30 12 -62 -116 -49 -189 11 -57
25 -31 19 35 -4 41 -2 60 6 60 6 0 11 -8 11 -19 0 -10 7 -32 15 -47 8 -16 15
-37 15 -46 0 -10 7 -18 15 -18 13 0 12 7 -6 42 -37 72 -30 112 36 211 14 20
24 37 22 37 -2 0 -18 -16 -37 -35z"/>
<path d="M1802 1200 c-10 -17 -15 -18 -32 -8 -23 15 -35 6 -26 -19 6 -14 9
-15 15 -4 14 22 24 -5 18 -47 -3 -20 -3 -29 -1 -19 9 28 24 9 24 -30 0 -27 7
-42 33 -65 39 -35 67 -52 67 -40 0 5 -7 15 -15 22 -11 9 -12 16 -5 25 5 7 13
33 16 59 6 43 4 51 -20 74 -14 15 -34 37 -44 50 -17 23 -17 23 -30 2z m18 -18
c0 -5 16 -25 36 -45 34 -34 44 -75 16 -69 -7 1 -12 -7 -12 -19 0 -14 -5 -19
-17 -17 -10 2 -17 10 -15 18 2 7 -1 16 -6 19 -13 9 -24 121 -12 121 5 0 10 -4
10 -8z"/>
<path d="M951 1187 c10 -12 28 -33 39 -47 16 -20 19 -21 13 -5 -3 11 -13 28
-22 39 -9 10 -14 21 -11 24 3 3 -5 6 -17 8 -21 4 -21 3 -2 -19z"/>
<path d="M7 1183 c-14 -13 -6 -23 18 -23 28 0 34 15 9 24 -19 7 -19 7 -27 -1z"/>
<path d="M320 1165 c-7 -8 -16 -12 -21 -9 -11 7 -24 -24 -14 -34 3 -4 12 0 18
8 7 9 23 24 37 33 17 12 20 17 8 17 -8 0 -21 -7 -28 -15z"/>
<path d="M234 1138 c5 -21 1 -31 -20 -47 -23 -18 -24 -21 -8 -22 11 0 31 -2
47 -3 15 -1 27 -1 27 1 0 1 -12 24 -26 50 -17 31 -24 39 -20 21z"/>
<path d="M332 1124 c-7 -14 -17 -22 -22 -19 -11 7 -13 -15 -4 -39 9 -24 47
-19 73 8 19 20 20 27 10 50 -15 33 -42 34 -57 0z"/>
<path d="M2862 1142 c-9 -6 0 -13 28 -21 44 -13 50 -24 23 -41 -14 -9 -11 -10
15 -4 24 4 39 1 53 -12 18 -16 19 -16 19 9 0 21 -5 27 -22 27 -13 0 -29 4 -37
9 -12 8 -12 12 -2 25 12 14 9 16 -25 16 -22 0 -45 -4 -52 -8z"/>
<path d="M1030 1109 c6 -18 10 -61 10 -93 0 -45 3 -57 11 -49 14 14 -3 149
-20 166 -7 7 -8 0 -1 -24z"/>
<path d="M15 1091 c19 -8 19 -8 0 -19 -11 -6 -17 -14 -13 -18 4 -4 20 2 35 12
15 11 35 22 43 26 8 4 -7 7 -35 7 -33 0 -44 -3 -30 -8z"/>
<path d="M430 1035 c8 -76 21 -82 18 -7 -1 37 -7 62 -13 62 -7 0 -9 -18 -5
-55z"/>
<path d="M2038 1039 c40 -10 78 -22 85 -26 7 -4 21 -9 31 -10 34 -6 29 -11 -9
-11 -20 0 -42 -5 -48 -11 -8 -8 -8 -11 1 -11 7 0 12 -4 12 -10 0 -5 -7 -10
-15 -10 -8 0 -32 -15 -52 -34 -28 -24 -52 -35 -88 -41 -65 -9 -81 -19 -89 -51
-7 -28 -19 -42 -51 -60 -11 -6 -31 -32 -46 -59 -14 -26 -50 -74 -80 -107 -29
-32 -59 -66 -66 -74 -6 -9 -15 -15 -20 -15 -15 0 -73 -31 -73 -39 0 -5 6 -10
13 -13 9 -3 9 -8 -2 -21 -12 -14 -12 -19 -2 -25 10 -6 7 -13 -10 -25 -16 -11
-18 -16 -8 -16 25 0 87 68 105 116 9 24 20 44 24 44 4 0 12 12 19 27 12 27 13
27 27 8 8 -11 12 -25 9 -33 -3 -8 0 -10 7 -6 8 5 9 2 5 -10 -6 -14 -3 -17 9
-12 9 3 27 9 40 12 13 3 24 9 24 13 0 3 17 15 38 25 78 38 89 46 147 99 32 31
62 54 66 51 11 -6 40 7 34 16 -11 18 84 51 166 57 70 5 88 10 106 29 l21 23
-29 41 c-16 22 -27 45 -24 50 5 8 -32 26 -47 22 -3 -1 -8 5 -11 12 -3 8 2 16
14 19 10 3 19 10 19 16 0 18 -46 31 -111 31 -46 0 -63 4 -79 20 -16 16 -33 20
-77 19 l-58 -1 73 -19z m227 -108 c3 -5 1 -12 -5 -16 -17 -11 -11 -24 14 -31
32 -8 60 -39 53 -59 -4 -9 -19 -15 -39 -15 -34 0 -135 -25 -183 -45 -16 -7
-52 -21 -78 -30 -34 -13 -61 -33 -90 -68 -25 -29 -65 -61 -98 -77 -30 -16 -61
-35 -68 -44 -19 -22 -28 -20 -56 12 -27 31 -24 38 41 83 39 26 42 32 37 62 -5
30 -3 33 39 47 39 14 43 18 46 51 4 42 16 49 99 49 47 0 54 3 69 30 10 16 32
36 48 44 34 17 161 22 171 7z m-676 -467 c-29 -49 -28 -49 -35 -41 -4 4 6 25
21 47 35 50 44 46 14 -6z"/>
<path d="M2105 881 c6 -5 36 -13 69 -16 48 -6 58 -5 54 6 -3 10 -25 15 -69 17
-41 2 -60 0 -54 -7z"/>
<path d="M1735 1005 c4 -16 7 -42 6 -57 -1 -16 4 -28 10 -28 15 0 6 88 -11
103 -10 10 -11 6 -5 -18z"/>
<path d="M0 1010 c0 -13 40 -13 60 0 11 7 5 10 -22 10 -21 0 -38 -4 -38 -10z"/>
<path d="M1796 988 c-2 -7 -11 -56 -21 -108 -10 -52 -26 -119 -37 -149 -23
-69 -17 -77 10 -14 18 43 72 246 72 273 0 14 -20 12 -24 -2z"/>
<path d="M2302 978 c7 -19 45 -21 51 -4 5 12 -1 16 -24 16 -20 0 -29 -4 -27
-12z"/>
<path d="M350 965 c0 -8 -6 -15 -14 -15 -8 0 -16 -6 -19 -13 -3 -9 6 -12 31
-11 25 0 36 -4 39 -16 3 -10 33 -34 69 -55 35 -21 69 -44 76 -52 11 -14 119
-67 123 -61 1 2 5 16 9 32 6 26 5 28 -8 17 -19 -16 -76 -5 -76 15 0 8 7 14 15
14 8 0 15 -7 15 -15 0 -8 4 -15 9 -15 17 0 23 20 11 35 -9 11 -7 12 9 8 12 -3
18 -10 14 -17 -4 -8 -2 -8 7 1 19 17 3 33 -35 33 -24 0 -39 -7 -49 -22 -9 -12
-16 -17 -16 -10 0 6 -8 12 -18 12 -23 0 -28 53 -7 70 21 17 32 5 27 -30 -4
-30 -3 -31 17 -18 25 16 25 16 3 50 -16 24 -20 26 -42 15 -14 -7 -30 -24 -37
-37 -9 -18 -13 -20 -13 -7 0 9 -7 17 -15 17 -8 0 -15 5 -15 11 0 5 5 7 12 3 8
-5 9 -2 5 10 -4 10 -7 22 -7 27 0 5 -15 9 -34 9 -19 0 -41 7 -50 15 -8 8 -19
15 -25 15 -6 0 -11 -7 -11 -15z"/>
<path d="M2590 973 c1 -10 91 -53 110 -53 8 0 -9 14 -39 30 -55 31 -71 36 -71
23z"/>
<path d="M788 948 c-3 -16 -1 -28 3 -28 5 0 9 -11 9 -25 0 -14 -4 -25 -10 -25
-5 0 -10 -7 -10 -16 0 -11 6 -14 20 -9 22 7 26 1 34 -57 5 -30 3 -38 -9 -38
-21 0 -21 -68 0 -76 8 -4 12 -10 9 -15 -3 -5 1 -9 8 -9 8 0 6 -5 -5 -11 -21
-13 -47 -5 -46 13 0 10 2 10 6 0 2 -6 9 -10 14 -6 5 3 2 12 -6 20 -9 9 -15 34
-15 62 0 36 -3 43 -11 32 -8 -11 -12 -12 -16 -2 -2 6 -11 12 -19 12 -10 0 -13
-12 -11 -47 2 -38 -1 -47 -13 -45 -12 3 -13 1 -2 -9 19 -20 35 5 42 66 0 6 5
2 11 -8 6 -10 8 -21 5 -24 -3 -3 -1 -14 5 -24 6 -13 6 -19 0 -19 -6 0 -8 -7
-4 -17 5 -12 2 -15 -13 -11 -10 3 -26 7 -34 9 -26 7 -43 28 -32 42 5 7 13 31
17 55 6 39 5 42 -15 42 -21 0 -22 -3 -16 -47 3 -27 2 -42 -2 -35 -7 11 -17 10
-50 -3 -39 -16 -43 -16 -88 4 -25 12 -52 21 -60 21 -7 0 -25 17 -40 38 -40 54
-53 63 -75 51 -11 -5 -19 -18 -19 -29 0 -10 -4 -22 -10 -25 -21 -13 -4 -95 20
-95 10 0 22 50 22 96 0 30 2 33 15 22 24 -19 34 -55 23 -83 -8 -21 -7 -25 10
-25 11 0 20 5 20 11 0 5 -4 7 -10 4 -5 -3 -10 1 -10 9 0 26 19 28 26 2 3 -13
14 -32 25 -42 10 -9 19 -24 19 -32 0 -10 6 -12 18 -7 21 9 182 14 182 6 0 -4
-11 -22 -24 -42 -29 -43 -23 -58 38 -92 l44 -25 33 27 c27 23 31 32 25 54 -7
31 -26 36 -26 7 0 -20 -27 -40 -54 -40 -20 0 -48 29 -40 42 4 6 7 19 8 29 1
11 5 19 11 18 5 0 12 8 16 18 6 14 8 11 9 -12 1 -27 2 -28 14 -12 12 15 14 16
20 2 8 -22 26 -18 26 6 0 17 12 11 73 -39 103 -85 119 -102 113 -118 -6 -16
33 -66 46 -58 4 3 8 0 8 -7 0 -7 3 -9 6 -6 4 4 2 13 -5 21 -9 11 -5 17 22 30
47 21 65 44 43 52 -20 8 -21 43 -1 50 25 10 17 24 -14 24 -41 0 -103 24 -170
65 l-58 36 5 46 c3 29 1 48 -7 52 -6 4 -12 25 -13 47 0 21 -5 44 -9 50 -5 6
-10 19 -12 30 -1 10 -6 25 -11 32 -4 8 -11 26 -15 40 l-8 27 -5 -27z m235
-436 c9 -8 17 -19 17 -24 0 -15 -21 -8 -46 15 -22 20 -23 24 -7 24 10 0 26 -7
36 -15z m57 -39 c0 -13 -41 -55 -47 -49 -2 2 4 22 13 46 12 29 19 38 25 28 5
-7 9 -18 9 -25z"/>
<path d="M13 953 c-20 -7 -15 -23 6 -23 10 0 24 -7 31 -15 7 -8 16 -12 21 -9
5 3 -1 16 -13 30 -24 25 -26 25 -45 17z"/>
<path d="M725 927 c-17 -35 -18 -41 -5 -64 19 -34 40 -41 40 -13 0 12 -5 18
-10 15 -15 -10 -24 23 -10 40 6 7 10 24 8 37 -4 21 -6 19 -23 -15z"/>
<path d="M1270 950 c-8 -5 -11 -12 -7 -17 5 -4 12 -1 17 7 8 13 13 13 37 0 36
-20 40 -44 11 -58 -13 -6 -17 -11 -10 -11 6 -1 22 9 34 21 l21 21 -29 24 c-31
25 -50 28 -74 13z"/>
<path d="M1849 948 c7 -10 10 -18 5 -18 -5 0 -1 -5 10 -11 15 -9 22 -7 40 11
l21 22 -28 -6 c-18 -4 -35 -2 -45 6 -15 12 -16 11 -3 -4z"/>
<path d="M217 888 c-9 -5 -17 -16 -17 -24 0 -24 30 -28 49 -7 17 18 18 20 2
30 -11 7 -23 8 -34 1z"/>
<path d="M286 893 c-3 -3 -6 -11 -6 -16 0 -6 3 -7 7 -4 3 4 12 2 20 -5 10 -8
17 -8 25 0 7 7 9 13 5 13 -4 1 -10 2 -14 3 -5 1 -13 4 -19 8 -6 4 -14 5 -18 1z"/>
<path d="M1120 878 c0 -15 7 -34 16 -43 25 -25 28 -11 5 32 -19 36 -20 37 -21
11z"/>
<path d="M2456 875 c-5 -15 5 -19 34 -15 23 3 26 10 10 20 -22 14 -37 12 -44
-5z"/>
<path d="M43 847 c-37 -25 -37 -26 -20 -49 11 -14 18 -15 50 -5 50 16 47 30
-4 22 -33 -6 -40 -4 -37 6 3 8 11 14 19 13 8 0 23 7 33 18 28 26 0 23 -41 -5z"/>
<path d="M1182 862 c-7 -5 -10 -16 -6 -25 3 -9 11 -14 17 -10 6 4 8 0 4 -10
-3 -10 -2 -17 3 -17 6 0 10 9 10 19 0 11 5 23 12 27 8 5 9 0 6 -14 -9 -31 -1
-27 18 11 13 24 14 29 3 20 -10 -8 -20 -9 -29 -3 -18 12 -22 12 -38 2z"/>
<path d="M2601 846 c-9 -11 -8 -15 5 -20 21 -8 34 1 27 19 -7 19 -17 19 -32 1z"/>
<path d="M1271 823 c0 -12 -9 -24 -18 -26 -12 -3 -8 -5 9 -6 15 0 30 4 33 9 3
6 2 10 -4 10 -5 0 -12 8 -14 18 -4 13 -5 12 -6 -5z"/>
<path d="M2805 830 c3 -5 22 -10 42 -10 45 0 36 11 -12 17 -24 2 -34 0 -30 -7z"/>
<path d="M2904 824 c4 -9 1 -23 -5 -30 -9 -11 -8 -14 4 -14 25 0 37 23 23 43
-17 22 -30 22 -22 1z"/>
<path d="M249 803 c-13 -16 -17 -22 -9 -15 8 6 22 12 32 12 10 0 18 7 18 15 0
22 -14 18 -41 -12z"/>
<path d="M430 811 c0 -4 7 -16 16 -27 13 -16 15 -16 10 -1 -9 30 15 18 27 -13
16 -44 27 -37 12 7 -10 30 -19 38 -39 40 -14 1 -26 -2 -26 -6z"/>
<path d="M1701 795 c-1 -32 -27 -81 -61 -115 -11 -11 -20 -31 -20 -45 0 -26
-21 -52 -65 -81 -39 -25 -23 -28 25 -4 69 35 103 79 121 151 8 36 12 77 8 94
l-7 30 -1 -30z m-21 -135 c0 -17 -39 -55 -47 -46 -2 1 4 20 12 40 16 37 35 41
35 6z"/>
<path d="M1083 783 c-7 -2 -13 -18 -13 -34 0 -27 2 -28 33 -22 23 4 29 2 22
-5 -15 -16 -122 -42 -173 -42 -38 0 -43 -2 -32 -15 7 -8 21 -15 30 -15 10 0
20 -6 23 -12 3 -8 9 -3 15 12 l11 25 0 -27 c1 -28 21 -41 21 -13 0 27 20 16
21 -12 2 -24 2 -25 6 -5 5 25 12 26 66 11 32 -8 36 -13 26 -25 -6 -8 -9 -14
-7 -14 11 0 68 22 68 26 0 3 -10 24 -22 47 -25 49 -31 87 -15 87 7 1 1 10 -12
20 -23 20 -43 23 -68 13z"/>
<path d="M1180 772 c0 -11 -3 -29 -6 -39 -5 -16 -4 -16 11 2 9 11 24 18 33 17
9 -2 15 -2 12 0 -3 2 -15 12 -27 22 -23 19 -23 19 -23 -2z"/>
<path d="M26 761 c-7 -10 46 -31 80 -31 13 0 26 5 29 10 4 6 -8 10 -30 10 -20
0 -45 5 -55 10 -11 6 -21 6 -24 1z"/>
<path d="M65 680 c-11 -5 -15 -9 -10 -9 6 -1 3 -6 -5 -11 -13 -8 -13 -10 2
-10 9 0 23 7 32 15 17 18 26 19 26 4 0 -5 -16 -17 -35 -25 -19 -8 -35 -20 -35
-26 0 -9 3 -9 12 0 7 7 27 12 45 12 22 0 33 5 33 15 0 7 8 19 18 24 16 10 15
10 -3 11 -11 0 -29 2 -40 5 -11 2 -29 0 -40 -5z"/>
<path d="M2917 665 c-27 -7 -87 -19 -135 -25 -47 -6 -110 -20 -139 -31 -29
-10 -79 -28 -110 -40 -32 -11 -60 -23 -63 -27 -3 -3 3 -2 13 1 9 4 17 2 17 -3
0 -9 -14 -14 -32 -11 -5 0 -8 -3 -8 -8 0 -11 -65 -35 -139 -52 -30 -6 -66 -18
-80 -25 -14 -8 -30 -14 -35 -14 -5 0 -34 -17 -65 -38 -102 -69 -205 -105 -341
-118 -101 -10 -86 -18 20 -11 134 9 226 41 312 109 51 40 113 65 204 84 60 12
101 30 169 70 121 71 145 79 324 109 85 14 159 29 165 35 14 14 -17 12 -77 -5z"/>
<path d="M1283 633 c-7 -2 -23 -22 -35 -44 -23 -41 -53 -52 -61 -21 -3 9 -5 1
-6 -18 0 -19 4 -42 10 -50 9 -12 10 -11 6 8 -5 23 8 31 16 10 2 -7 12 4 22 25
10 22 24 41 32 44 7 3 10 9 7 14 -3 5 2 9 10 9 9 0 16 7 16 15 0 8 -1 15 -2
14 -2 0 -9 -3 -15 -6z"/>
<path d="M413 573 c-8 -3 -11 -14 -7 -31 6 -26 6 -26 -9 -8 -14 19 -16 19 -42
2 -25 -17 -40 -15 -40 5 0 5 -4 9 -10 10 -19 1 -15 -18 9 -40 21 -20 27 -21
39 -10 8 8 16 21 20 29 4 12 6 12 6 -2 1 -23 36 -16 36 8 0 10 4 22 10 26 12
9 4 17 -12 11z"/>
<path d="M531 571 c-33 -9 -38 -29 -9 -40 25 -9 48 2 48 25 0 18 -11 22 -39
15z"/>
<path d="M196 545 c-17 -13 -17 -15 -2 -30 9 -9 16 -20 16 -25 0 -5 8 -11 18
-14 10 -4 27 -14 38 -24 21 -19 74 -45 80 -39 2 2 -18 21 -45 43 -27 21 -58
53 -68 71 -16 28 -20 30 -37 18z"/>
<path d="M2837 538 c-114 -11 -189 -40 -247 -94 -52 -49 -73 -58 -161 -74 -76
-14 -105 -28 -156 -76 -35 -34 -45 -37 -118 -45 -44 -5 -155 -11 -248 -15
-151 -6 -196 -13 -134 -20 12 -1 25 -3 29 -3 4 -1 5 -8 2 -16 -5 -13 8 -15 82
-15 49 0 132 5 184 11 52 7 110 12 128 13 18 0 37 7 41 15 13 20 99 32 105 14
3 -7 16 -13 29 -13 13 0 27 -4 33 -8 5 -5 28 -16 50 -25 61 -24 135 -73 156
-104 10 -16 18 -41 18 -58 l1 -30 15 28 c24 45 4 81 -75 132 -79 51 -122 71
-220 100 l-74 22 35 26 c21 16 62 32 105 41 38 8 89 22 112 30 36 12 42 12 37
0 -9 -23 2 -16 52 32 26 25 65 55 88 65 31 14 233 49 285 49 5 0 9 7 9 15 0
17 -24 18 -163 3z"/>
<path d="M1130 501 c0 -22 4 -28 18 -26 9 2 20 4 25 4 10 1 -23 51 -34 51 -5
0 -9 -13 -9 -29z"/>
<path d="M1661 474 c-1 -60 -16 -79 -89 -113 -51 -24 -62 -43 -29 -49 10 -2
17 3 17 12 0 11 9 16 30 16 35 0 40 -15 8 -25 -15 -4 -18 -8 -10 -12 18 -7 44
18 39 38 -3 10 5 27 18 39 13 12 26 38 30 58 4 20 12 40 18 44 8 5 6 8 -5 8
-9 0 -19 8 -21 18 -3 9 -5 -6 -6 -34z"/>
<path d="M290 491 c0 -12 55 -58 92 -77 48 -25 43 -9 -7 20 -25 15 -51 36 -58
47 -12 20 -27 25 -27 10z"/>
<path d="M2974 490 c-12 -5 -55 -12 -95 -15 -103 -10 -193 -42 -245 -88 -61
-53 -90 -95 -75 -110 8 -8 11 -8 11 1 0 14 78 102 91 102 4 0 19 11 32 24 26
26 74 39 216 57 63 9 91 17 91 26 0 7 -1 13 -2 12 -2 0 -13 -4 -24 -9z"/>
<path d="M446 475 c-23 -17 -21 -21 19 -30 29 -7 29 -7 10 8 -23 18 -15 33 12
23 21 -8 23 -8 23 1 1 14 -45 12 -64 -2z"/>
<path d="M20 450 c-22 -7 -20 -8 15 -9 22 0 47 4 55 9 11 7 8 9 -15 9 -16 -1
-41 -5 -55 -9z"/>
<path d="M1129 433 c-33 -37 -33 -62 0 -76 14 -6 28 -14 31 -18 3 -3 23 -4 44
-1 l39 5 -39 13 c-21 8 -48 14 -58 14 -18 0 -18 2 4 25 18 19 21 29 14 46 -9
20 -10 20 -35 -8z"/>
<path d="M800 420 c0 -5 5 -12 10 -15 6 -3 10 -1 10 5 0 7 6 8 18 1 11 -6 32
-8 48 -6 16 2 35 4 42 4 6 1 12 4 12 9 0 4 -32 8 -70 9 -39 1 -70 -2 -70 -7z"/>
<path d="M430 395 c-7 -9 -11 -16 -9 -18 35 -20 99 -45 144 -57 17 -5 57 -16
90 -25 33 -10 80 -19 105 -21 25 -2 80 -7 123 -12 44 -4 107 -5 140 -1 34 5
84 9 110 10 26 1 50 6 53 11 3 4 17 8 32 8 15 0 34 5 42 11 11 8 8 9 -15 5
-16 -3 -68 -8 -115 -11 -47 -2 -110 -7 -140 -11 -91 -10 -398 43 -525 90 -39
14 -39 15 -10 15 23 1 27 4 15 11 -20 13 -25 12 -40 -5z"/>
<path d="M2740 404 c0 -14 31 -34 52 -33 l23 0 -22 11 c-13 6 -23 15 -23 20 0
4 -7 8 -15 8 -8 0 -15 -3 -15 -6z"/>
<path d="M740 355 c0 -18 5 -25 20 -25 11 0 20 6 20 13 0 7 -9 18 -20 25 -18
11 -20 10 -20 -13z"/>
<path d="M2700 359 c-24 -20 -24 -20 -2 -14 13 4 22 2 22 -4 0 -15 12 -14 35
2 17 13 16 14 -6 13 -14 -1 -23 4 -21 12 3 16 2 15 -28 -9z"/>
<path d="M882 341 c0 -24 4 -30 26 -34 32 -7 104 12 96 25 -3 5 -14 6 -24 3
-12 -4 -27 2 -39 14 -31 31 -58 27 -59 -8z"/>
<path d="M2880 361 c0 -6 19 -12 43 -13 l42 -1 -45 -7 -45 -7 48 -1 c42 -2 61
8 39 22 -19 12 -82 18 -82 7z"/>
<path d="M2780 340 c0 -7 14 -8 38 -4 51 9 53 14 4 14 -23 0 -42 -5 -42 -10z"/>
<path d="M1049 323 c-13 -15 -12 -15 11 -3 17 9 25 10 28 1 5 -16 29 -14 36 4
8 22 -57 20 -75 -2z"/>
<path d="M2660 312 c0 -12 35 -22 80 -22 24 1 30 3 20 9 -24 14 -100 24 -100
13z"/>
<path d="M2928 298 c11 -14 -17 -58 -38 -58 -6 0 -8 -4 -5 -10 3 -5 13 -10 21
-10 8 0 12 5 9 10 -3 6 2 10 12 10 14 0 15 2 5 9 -10 6 -8 10 8 14 12 3 19 10
15 16 -3 6 4 15 17 20 20 9 18 10 -16 10 -30 1 -36 -2 -28 -11z"/>
<path d="M80 279 c-22 -6 -20 -7 12 -8 20 -1 43 -4 52 -7 9 -3 16 -2 16 4 0
13 -49 20 -80 11z"/>
<path d="M2866 269 c5 -9 -3 -10 -30 -5 -46 9 -47 -7 -1 -21 29 -9 35 -9 35 3
0 8 8 14 18 14 14 0 15 2 2 10 -20 13 -33 12 -24 -1z"/>
<path d="M2713 255 c0 -8 6 -15 13 -15 7 0 20 -3 30 -7 12 -5 15 -3 9 6 -4 8
-2 17 6 22 10 6 2 9 -22 9 -25 0 -36 -4 -36 -15z"/>
<path d="M116 242 c7 -4 16 -27 22 -52 9 -42 10 -43 11 -12 1 38 -14 72 -32
72 -9 0 -9 -2 -1 -8z"/>
<path d="M1632 220 c-48 -11 -54 -24 -7 -15 43 7 83 25 55 24 -8 -1 -30 -5
-48 -9z"/>
<path d="M71 203 c6 -35 -3 -72 -18 -76 -17 -4 -17 -5 0 -6 13 -1 17 -10 17
-38 0 -63 9 -30 13 46 1 40 -1 75 -5 77 -5 3 -8 2 -7 -3z"/>
<path d="M1640 169 c-186 -50 -194 -53 -205 -77 -6 -13 -29 -29 -54 -39 -24
-9 -38 -19 -30 -21 8 -3 17 -9 20 -15 8 -12 49 1 49 15 0 6 8 18 18 27 10 9
21 24 25 35 4 10 13 16 21 13 8 -3 20 0 26 8 11 14 143 47 233 60 26 3 47 10
47 16 0 14 -37 9 -150 -22z"/>
<path d="M2910 189 c0 -17 32 -38 47 -32 7 3 11 9 8 14 -3 4 -12 6 -20 2 -9
-3 -15 1 -15 11 0 9 -4 16 -10 16 -5 0 -10 -5 -10 -11z"/>
<path d="M2757 183 c-4 -3 5 -12 19 -20 31 -16 37 -16 29 -3 -3 6 3 10 14 10
12 0 21 -4 21 -10 0 -9 -17 -15 -70 -23 -18 -3 -16 -5 10 -5 19 -1 55 4 78 11
l44 13 -42 13 c-22 6 -50 9 -60 6 -12 -4 -20 -2 -20 4 0 12 -13 15 -23 4z"/>
<path d="M1450 156 c-22 -11 -121 -45 -227 -77 -69 -21 -294 -56 -299 -47 -4
5 -17 7 -30 4 -14 -4 -33 -2 -44 4 -14 7 -20 7 -20 0 0 -5 5 -10 11 -10 8 0 7
-5 -2 -16 -11 -13 -9 -15 12 -10 13 3 60 7 104 11 92 6 134 15 304 62 104 29
259 92 226 92 -5 0 -21 -6 -35 -13z"/>
<path d="M2125 160 c-27 -5 -126 -11 -220 -16 -93 -4 -181 -11 -195 -16 -33
-11 340 -1 451 13 139 16 296 -20 362 -85 23 -24 28 -26 26 -11 -5 23 -63 64
-101 72 -15 3 -26 9 -23 13 3 4 -10 11 -28 15 -17 4 -39 9 -47 12 -31 8 -177
10 -225 3z"/>
<path d="M2410 159 c42 -19 80 -28 80 -20 0 5 -12 11 -27 15 -16 3 -39 8 -53
11 l-25 6 25 -12z"/>
<path d="M2658 158 c7 -8 42 -33 79 -54 36 -22 78 -54 92 -71 14 -18 32 -33
39 -33 27 0 -50 76 -105 104 -32 17 -71 39 -88 50 -20 14 -26 15 -17 4z"/>
<path d="M2862 125 c-11 -13 -9 -17 13 -25 35 -13 38 -13 31 5 -3 9 0 15 9 15
8 0 15 5 15 10 0 15 -53 11 -68 -5z"/>
<path d="M2267 85 c-17 -24 -17 -24 0 -18 19 7 43 28 43 37 0 15 -27 3 -43
-19z"/>
<path d="M2355 90 c-7 -12 34 -30 53 -23 9 4 8 9 -5 19 -22 16 -40 18 -48 4z"/>
<path d="M2152 73 c-25 -10 -2 -19 38 -15 29 3 38 7 29 13 -15 9 -46 10 -67 2z"/>
<path d="M2880 75 c0 -8 64 -45 78 -45 6 0 12 5 12 10 0 6 -9 10 -19 10 -11 0
-26 7 -35 15 -14 14 -36 20 -36 10z"/>
<path d="M1271 61 c-21 -13 5 -24 29 -11 11 6 20 13 20 15 0 8 -34 5 -49 -4z"/>
<path d="M1763 46 l-21 -24 31 1 c24 2 32 7 32 21 0 29 -18 30 -42 2z"/>
<path d="M1620 40 c-12 -7 -8 -10 15 -10 17 0 37 5 45 10 12 7 8 10 -15 10
-16 0 -37 -5 -45 -10z"/>
<path d="M2262 38 c2 -6 13 -17 24 -25 17 -11 23 -11 40 2 18 14 17 14 -14 15
-20 0 -31 4 -27 10 3 6 -1 10 -10 10 -9 0 -15 -5 -13 -12z"/>
<path d="M1195 29 c4 -6 0 -9 -10 -7 -10 2 -20 -3 -22 -9 -6 -17 18 -16 43 2
12 8 25 11 29 7 5 -4 5 -1 1 6 -4 6 -16 12 -27 12 -12 0 -17 -4 -14 -11z"/>
<path d="M2410 31 c0 -5 -12 -14 -27 -19 -23 -8 -19 -9 25 -7 30 1 59 8 65 15
10 10 7 12 -10 7 -13 -3 -23 -1 -23 4 0 5 -7 9 -15 9 -8 0 -15 -4 -15 -9z"/>
<path d="M1922 20 c-18 -4 -35 -10 -38 -13 -9 -9 80 5 91 14 11 11 -6 10 -53
-1z"/>
<path d="M2002 12 c-7 -5 16 -7 50 -4 85 5 96 10 23 11 -33 0 -66 -3 -73 -7z"/>
</g>
</svg>
