<?xml version="1.0" standalone="no"?>
<!DOCTYPE svg PUBLIC "-//W3C//DTD SVG 20010904//EN"
 "http://www.w3.org/TR/2001/REC-SVG-20010904/DTD/svg10.dtd">
<svg version="1.0" xmlns="http://www.w3.org/2000/svg"
 width="300.000000pt" height="433.000000pt" viewBox="0 0 300.000000 433.000000"
 preserveAspectRatio="xMidYMid meet">
<metadata>
Created by potrace 1.10, written by Peter Selinger 2001-2011
</metadata>
<g transform="translate(0.000000,433.000000) scale(0.100000,-0.100000)"
fill="#000000" stroke="none">
<path d="M44 4315 c-3 -8 -15 -17 -26 -21 -11 -3 -17 -8 -14 -11 5 -5 76 35
76 43 0 11 -31 2 -36 -11z"/>
<path d="M86 4309 c-30 -23 -34 -41 -8 -33 14 5 14 3 -3 -11 -18 -14 -20 -14
-23 -1 -2 9 -6 16 -9 16 -10 0 -42 -46 -43 -62 0 -15 3 -15 43 0 23 10 59 31
79 47 23 19 63 36 105 47 l68 16 -77 1 c-52 1 -78 -3 -81 -11 -4 -10 -6 -10
-6 0 -1 17 -15 15 -45 -9z"/>
<path d="M2460 4309 c0 -17 3 -19 14 -10 17 15 31 -2 22 -26 -5 -13 -9 -13
-23 -2 -14 12 -16 12 -11 -1 2 -8 16 -15 29 -15 18 0 23 5 21 20 -4 22 -30 55
-44 55 -4 0 -8 -10 -8 -21z"/>
<path d="M688 4250 c-23 -18 -26 -24 -17 -44 8 -17 7 -38 -4 -79 -12 -48 -12
-55 0 -45 19 15 44 78 37 90 -3 5 -1 15 5 22 9 10 7 15 -6 21 -31 11 25 34 82
34 l50 -1 -55 -18 -55 -19 63 4 c49 4 69 0 94 -15 29 -17 30 -20 12 -27 -25
-9 -94 -58 -71 -50 10 4 50 16 90 28 40 12 76 26 82 30 20 19 147 7 285 -26
44 -11 -3 13 -109 57 -68 28 -103 37 -121 32 -21 -6 -17 -9 30 -19 l55 -13
-63 -1 c-36 -1 -61 3 -58 8 4 5 -3 7 -14 4 -11 -3 -20 -9 -20 -14 0 -17 -40
-9 -102 20 -87 40 -154 48 -190 21z"/>
<path d="M2103 4150 c20 -11 43 -20 49 -19 7 0 3 5 -9 11 -13 6 -23 15 -23 20
0 4 -12 8 -27 8 -27 0 -27 -1 10 -20z"/>
<path d="M553 4150 c-59 -12 -115 -43 -152 -85 -30 -35 -35 -37 -84 -33 -29 3
-97 17 -151 31 -55 15 -101 25 -103 23 -3 -2 2 -15 11 -28 8 -12 18 -43 22
-67 5 -34 9 -40 16 -26 6 9 8 25 5 36 -4 14 -1 19 11 17 10 -2 16 2 15 8 -2 8
11 11 35 8 20 -2 52 -6 70 -7 19 -2 37 -9 42 -16 6 -11 21 -11 79 -1 70 13 96
30 45 30 -26 0 -26 1 10 25 20 14 46 25 58 25 16 0 18 3 9 14 -9 11 -5 16 20
25 44 15 69 14 91 -6 17 -15 18 -15 18 10 0 29 -2 29 -67 17z"/>
<path d="M221 4107 c-19 -7 -36 -18 -39 -25 -3 -11 0 -12 16 -3 28 15 72 14
91 -2 18 -15 71 -39 71 -32 0 6 -92 75 -99 74 -3 0 -21 -5 -40 -12z"/>
<path d="M568 4112 c-30 -4 -39 -22 -10 -22 18 0 50 17 42 22 -3 2 -17 2 -32
0z"/>
<path d="M877 4085 c18 -24 31 -31 128 -66 48 -17 49 -18 17 -18 -18 -1 -41 3
-50 8 -9 5 -67 11 -127 13 -61 3 -121 10 -133 17 -14 8 -28 9 -39 3 -12 -7 -4
-12 33 -20 27 -6 72 -14 99 -16 120 -12 256 -28 330 -37 119 -16 145 -18 145
-11 0 13 -57 32 -75 26 -12 -5 -16 -4 -12 3 4 6 -5 13 -21 16 -15 3 -67 12
-116 22 -95 17 -160 44 -169 70 -4 8 -11 15 -17 15 -6 0 -3 -11 7 -25z"/>
<path d="M597 4074 c-17 -15 -25 -29 -21 -37 6 -9 5 -9 -7 0 -12 10 -20 9 -37
-3 -12 -8 -22 -22 -22 -30 0 -9 -11 -14 -32 -15 -25 -1 -27 -3 -10 -6 13 -3
31 -1 40 3 9 4 21 6 25 5 9 -2 93 55 102 69 3 5 2 16 -2 24 -7 12 -13 10 -36
-10z"/>
<path d="M1685 4046 c-102 -55 -197 -113 -204 -125 -4 -5 -17 -4 -31 1 -23 9
-20 12 53 46 71 34 95 52 65 52 -15 0 -171 -72 -178 -82 -3 -4 -20 1 -38 12
l-32 20 -22 -25 c-12 -14 -28 -25 -35 -25 -8 0 -23 -16 -34 -35 -20 -34 -39
-46 -39 -25 0 6 -9 10 -20 10 -13 0 -18 -5 -13 -15 6 -18 -25 -47 -44 -40 -7
2 -27 -13 -44 -34 -28 -36 -33 -38 -62 -30 -18 5 -33 14 -35 19 -2 6 -20 10
-40 11 -41 1 -150 37 -116 38 12 1 38 -6 57 -14 20 -8 42 -15 49 -14 7 0 0 5
-17 11 -16 6 -38 17 -47 25 -14 13 -23 13 -55 3 -29 -10 -221 -88 -230 -94 -1
0 47 -1 105 -1 98 0 111 -2 152 -27 25 -14 58 -40 74 -57 l29 -30 -70 -103
c-39 -57 -79 -105 -89 -107 -25 -4 -35 -21 -28 -46 4 -14 3 -16 -4 -7 -6 9
-13 1 -25 -30 -26 -67 -31 -106 -17 -123 10 -12 10 -18 0 -30 -7 -8 -16 -12
-21 -9 -5 3 -6 -2 -3 -10 5 -14 9 -14 34 -1 36 19 46 35 29 46 -18 11 -2 40
29 54 17 8 54 88 67 149 5 24 24 63 49 99 14 21 26 43 26 50 1 20 28 49 39 42
18 -10 13 -26 -22 -69 -56 -69 -73 -104 -61 -124 9 -14 6 -24 -19 -51 l-30
-35 34 -12 c31 -10 35 -9 46 10 16 27 16 53 1 59 -9 4 -8 6 2 6 8 1 21 14 28
29 15 35 82 115 90 108 3 -3 25 12 48 34 26 24 61 45 89 52 l46 12 -23 18 -23
17 30 11 c17 7 36 13 42 14 19 3 73 58 67 68 -3 5 -2 7 3 6 12 -4 133 91 130
104 -1 6 4 13 12 16 9 3 11 0 6 -8 -5 -9 -4 -11 4 -6 6 4 8 12 5 18 -5 8 -1 9
10 5 11 -5 15 -3 10 5 -5 8 -2 9 9 5 9 -3 16 -2 14 2 -1 5 57 46 128 91 127
79 169 110 150 110 -6 0 -46 -20 -90 -44z m-378 -165 c-37 -27 -63 -52 -59
-56 4 -3 3 -6 -3 -4 -20 5 -44 -13 -38 -29 3 -13 2 -14 -4 -4 -8 10 -19 5 -51
-20 -23 -18 -39 -38 -37 -45 2 -7 -2 -10 -9 -7 -8 3 -30 -14 -52 -40 -20 -25
-42 -42 -47 -39 -6 3 -7 1 -3 -6 5 -8 17 -3 40 16 19 15 50 41 70 56 20 16 34
32 31 37 -3 5 -1 11 5 15 5 3 10 1 10 -5 0 -7 37 17 83 53 140 109 159 119
193 106 l29 -11 -42 -19 c-24 -10 -43 -24 -43 -30 0 -7 -3 -10 -6 -6 -3 3 -36
-23 -72 -58 -37 -36 -76 -65 -87 -65 -16 0 -17 -2 -5 -10 12 -8 13 -11 2 -22
-11 -11 -16 -9 -28 7 -15 20 -15 20 -30 1 -17 -24 -18 -48 -2 -64 8 -8 5 -14
-15 -21 -15 -6 -48 -30 -74 -53 -27 -23 -37 -30 -23 -14 14 16 43 42 64 57 35
26 36 29 16 29 -15 0 -41 -18 -71 -50 -27 -27 -51 -45 -54 -39 -4 5 -9 7 -13
5 -4 -2 -8 19 -9 46 -1 40 2 51 15 55 9 2 32 25 50 49 19 25 65 65 105 91 40
25 92 64 117 86 45 39 73 55 99 56 7 1 -16 -21 -52 -48z m-452 -99 c62 -22 77
-31 70 -43 -4 -5 16 -9 45 -9 l51 0 -22 -29 -22 -30 -41 33 c-66 54 -109 76
-148 76 -20 0 -40 5 -43 10 -10 16 56 12 110 -8z m84 -301 c11 -7 10 -13 -8
-32 -11 -12 -21 -29 -21 -37 0 -19 -24 -10 -28 11 -3 16 25 67 37 67 3 0 12
-4 20 -9z m-119 -68 c-17 -57 -22 -66 -32 -51 -6 8 -7 2 -3 -18 6 -32 -17 -70
-35 -59 -4 3 -10 -5 -14 -17 -4 -17 -8 -20 -17 -11 -8 8 -8 19 -1 40 8 22 11
24 12 8 1 -20 1 -20 10 0 9 20 9 20 10 0 1 -11 7 0 14 25 6 25 17 44 24 43 6
-2 15 9 18 25 7 29 13 42 19 42 2 0 0 -12 -5 -27z"/>
<path d="M1410 4013 c0 -7 -10 -18 -22 -24 -15 -8 -18 -14 -10 -17 10 -3 102
43 102 52 0 1 -16 2 -35 2 -20 -1 -35 -6 -35 -13z"/>
<path d="M587 3981 c-31 -16 -64 -36 -72 -43 -32 -29 -41 -34 -53 -32 -7 1 -8
0 -2 -3 5 -2 -16 -29 -47 -58 -31 -30 -58 -62 -59 -70 -1 -9 23 11 53 45 31
34 86 84 122 112 60 45 70 49 109 45 43 -5 51 0 30 21 -16 16 -14 16 -81 -17z"/>
<path d="M250 3988 c-21 -9 -22 -12 -7 -15 16 -4 15 -8 -10 -40 -44 -55 -135
-143 -149 -143 -7 0 -19 -8 -26 -18 -7 -11 -23 -24 -36 -31 -12 -6 -22 -16
-22 -22 0 -6 15 -1 33 10 17 12 52 32 77 45 61 32 212 228 173 225 -4 0 -19
-5 -33 -11z"/>
<path d="M1948 3989 c-22 -12 -23 -29 -3 -29 8 0 15 -5 15 -12 0 -8 6 -6 16 4
9 9 14 24 11 32 -7 18 -15 19 -39 5z"/>
<path d="M0 3982 c0 -5 16 -15 35 -22 59 -23 64 -37 24 -71 -51 -43 -19 -35
38 10 27 21 66 44 86 52 20 7 37 17 37 21 0 4 -2 8 -5 8 -10 0 -90 -44 -96
-53 -4 -6 -23 7 -43 27 -33 33 -76 48 -76 28z"/>
<path d="M1636 3945 c7 -18 44 -40 44 -27 0 10 -33 42 -43 42 -3 0 -4 -7 -1
-15z"/>
<path d="M2018 3934 c-9 -9 -29 -17 -44 -19 -51 -4 -114 -17 -114 -24 0 -16
127 6 163 28 24 15 48 22 67 19 16 -2 27 -1 24 4 -9 14 -79 9 -96 -8z"/>
<path d="M2169 3941 c11 -7 10 -11 -5 -19 -11 -5 -25 -7 -31 -5 -7 3 -13 0
-13 -6 0 -16 18 -14 51 6 35 21 37 33 7 33 -17 0 -19 -3 -9 -9z"/>
<path d="M2198 3828 c17 -17 15 -28 -7 -28 -24 0 -36 16 -19 23 8 4 7 6 -3 6
-13 1 -17 -8 -17 -34 0 -23 5 -35 14 -35 8 0 14 5 14 11 0 5 -4 7 -10 4 -5 -3
-10 -1 -10 5 0 6 8 9 18 6 26 -8 45 8 37 33 -3 11 -11 21 -18 21 -8 0 -8 -3 1
-12z"/>
<path d="M2092 3818 c-6 -7 -13 -27 -17 -43 -6 -28 -5 -27 15 9 21 38 23 58 2
34z"/>
<path d="M2680 3822 c0 -7 5 -12 10 -12 6 0 10 -6 10 -14 0 -7 8 -16 18 -18
29 -8 75 -76 83 -122 l6 -41 2 36 c1 25 -8 48 -28 75 -37 51 -101 111 -101 96z"/>
<path d="M240 3806 c0 -7 -9 -21 -20 -31 -11 -10 -20 -26 -20 -35 0 -9 -5 -21
-12 -28 -6 -6 -13 -20 -14 -29 -2 -10 16 3 44 32 26 28 46 53 44 58 -2 4 -8 5
-13 2 -5 -3 -6 1 -3 9 7 18 20 21 29 6 8 -12 25 -13 25 -1 0 5 -13 14 -30 20
-23 8 -30 7 -30 -3z"/>
<path d="M2335 3754 c-3 -16 -10 -36 -15 -45 -5 -9 -6 -26 -3 -37 2 -11 0 -23
-6 -26 -6 -4 -11 -19 -10 -34 l1 -27 10 30 c13 41 37 159 32 164 -1 2 -6 -10
-9 -25z"/>
<path d="M2653 3758 c-7 -12 -24 -52 -39 -88 -27 -67 -42 -89 -100 -152 -44
-48 -31 -49 18 -3 38 35 143 234 136 256 -2 6 -9 0 -15 -13z"/>
<path d="M2240 3755 c-15 -17 -5 -35 20 -35 22 0 33 23 17 39 -15 15 -22 14
-37 -4z"/>
<path d="M2568 3754 c-5 -4 -8 -15 -8 -25 0 -20 -29 -34 -44 -19 -7 7 -6 10 3
10 7 0 9 5 6 10 -11 18 -23 10 -27 -19 -4 -28 -3 -30 26 -24 40 7 59 25 54 53
-1 12 -6 18 -10 14z"/>
<path d="M406 3693 c5 -25 3 -31 -10 -29 -9 1 -22 10 -28 19 -11 15 -13 10
-14 -30 -1 -35 1 -42 7 -25 6 16 17 22 39 22 34 0 40 23 15 56 -14 18 -14 17
-9 -13z"/>
<path d="M2092 3690 c-12 -16 -22 -35 -22 -42 0 -7 11 4 25 24 13 20 30 38 37
41 9 4 8 6 -3 6 -8 1 -25 -12 -37 -29z"/>
<path d="M0 3634 c0 -16 24 -64 33 -64 7 0 4 -20 -10 -75 -5 -20 -5 -20 9 -1
8 10 20 16 26 12 7 -4 12 -2 12 4 0 6 4 8 10 5 5 -3 -9 22 -32 57 -49 75 -48
74 -48 62z"/>
<path d="M2393 3555 c0 -44 2 -61 4 -37 2 23 2 59 0 80 -2 20 -4 1 -4 -43z"/>
<path d="M2242 3558 c3 -26 21 -22 23 5 1 9 -5 17 -12 17 -9 0 -13 -8 -11 -22z"/>
<path d="M2701 3544 c-18 -20 -20 -28 -10 -40 17 -20 32 -17 20 4 -7 14 -6 25
5 40 21 30 12 28 -15 -4z"/>
<path d="M1505 3534 c-32 -16 -40 -23 -22 -19 90 18 117 18 139 -1 27 -24 65
-109 83 -185 10 -43 11 -77 5 -122 -6 -42 -6 -72 2 -93 9 -26 7 -40 -15 -95
-14 -36 -31 -87 -37 -114 -6 -28 -21 -60 -32 -72 -52 -56 42 -4 112 61 45 42
98 121 88 132 -2 1 -15 0 -31 -3 -25 -5 -27 -9 -22 -37 5 -25 2 -36 -16 -51
l-22 -20 6 50 6 50 -17 -42 c-9 -23 -27 -54 -40 -70 -16 -20 -20 -22 -12 -6 5
12 10 29 10 38 0 9 12 42 27 73 25 54 27 56 34 32 5 -15 6 -1 2 35 -6 62 -6
80 -3 256 3 134 -12 172 -78 201 -24 11 -55 18 -68 15 -13 -2 -21 0 -18 4 10
16 -31 8 -81 -17z m181 -18 c26 -19 51 -96 34 -106 -7 -4 -10 -18 -6 -31 4
-18 2 -16 -9 6 -7 17 -12 38 -9 48 3 10 -1 20 -10 23 -20 8 -48 52 -41 64 8
13 17 13 41 -4z"/>
<path d="M2620 3548 c0 -7 -30 -41 -67 -75 -36 -35 -64 -65 -62 -68 3 -2 38
29 78 69 44 45 69 76 62 80 -6 4 -11 1 -11 -6z"/>
<path d="M2321 3482 c1 -34 5 -60 9 -57 9 6 6 102 -3 111 -4 4 -6 -21 -6 -54z"/>
<path d="M2166 3503 c-11 -11 -6 -23 9 -23 8 0 15 4 15 9 0 5 8 8 18 7 9 -2
15 -7 14 -12 -2 -5 -7 -8 -11 -7 -4 1 -8 -7 -8 -18 -2 -21 5 -23 26 -10 9 6
11 18 8 33 -5 19 -13 25 -36 26 -16 0 -32 -2 -35 -5z"/>
<path d="M1365 3473 c-38 -14 -74 -29 -80 -35 -6 -6 -4 -7 6 -3 9 3 43 -1 75
-9 67 -17 83 -13 33 8 -19 9 -27 15 -18 16 9 0 39 10 67 21 l51 21 41 -21 c49
-25 53 -20 6 8 -44 28 -94 26 -181 -6z"/>
<path d="M58 3466 c-3 -13 -1 -31 4 -40 7 -12 4 -18 -9 -24 -11 -4 -19 -19
-21 -40 -3 -43 14 -33 38 22 18 39 17 90 0 101 -4 3 -10 -6 -12 -19z"/>
<path d="M297 3483 c-2 -5 -7 -21 -11 -36 -5 -20 -12 -27 -21 -23 -8 3 -26 -5
-39 -17 -24 -22 -49 -81 -39 -91 10 -10 45 15 39 29 -8 23 10 26 28 6 13 -15
14 -20 4 -24 -29 -10 7 -21 65 -20 67 2 97 -13 97 -50 0 -27 6 -19 14 18 4 18
3 25 -2 17 -6 -9 -12 -5 -22 14 -24 44 -97 73 -87 34 4 -16 0 -20 -20 -20 -24
0 -25 1 -10 23 14 21 13 22 -32 33 -25 6 -39 13 -31 16 8 3 29 9 45 14 17 5
34 19 40 31 10 25 47 44 62 35 6 -4 14 -22 18 -39 3 -18 11 -36 17 -39 11 -7
6 17 -14 69 -9 24 -16 27 -54 27 -23 0 -45 -3 -47 -7z"/>
<path d="M1624 3463 c15 -30 8 -60 -33 -141 -23 -45 -29 -82 -7 -43 13 23 14
23 19 5 3 -13 5 -10 6 11 1 33 30 117 44 126 5 4 -1 21 -14 38 -28 38 -34 40
-15 4z"/>
<path d="M2721 3433 c-1 -24 4 -43 9 -43 12 0 12 37 0 65 -7 15 -9 10 -9 -22z"/>
<path d="M2811 3420 c-1 -39 -52 -152 -67 -146 -7 3 -10 -2 -7 -15 3 -10 0
-19 -6 -19 -6 0 -11 -7 -11 -15 0 -37 24 -8 65 79 36 76 43 99 36 117 l-10 24
0 -25z"/>
<path d="M1235 3404 c-9 -10 -14 -25 -12 -36 3 -10 1 -16 -4 -12 -9 5 -11 -1
-13 -36 -1 -8 -6 -15 -11 -15 -18 0 -84 -80 -105 -127 -11 -25 -22 -70 -26
-101 -6 -53 -5 -58 23 -86 17 -17 29 -31 28 -33 -2 -2 20 -4 48 -5 29 -1 53
-7 55 -12 5 -16 22 -13 22 3 0 8 -19 21 -42 29 -34 12 -38 16 -18 16 13 1 44
8 67 17 42 16 44 16 66 -3 23 -21 57 -27 57 -10 0 5 8 15 17 22 16 12 16 14 0
38 -20 31 -22 41 -5 31 7 -4 8 -3 4 4 -5 8 2 12 19 12 15 0 46 12 71 26 61 36
75 26 18 -14 -25 -18 -44 -36 -40 -39 3 -3 -3 -18 -13 -32 -26 -37 -35 -70
-19 -67 27 4 39 17 28 31 -8 9 -6 21 7 43 15 26 22 30 46 25 18 -4 34 0 46 11
10 9 21 13 24 9 15 -14 6 -43 -20 -63 -16 -12 -28 -27 -28 -33 -1 -7 -6 -11
-13 -10 -6 2 -9 -3 -6 -11 3 -7 -9 -25 -25 -39 -28 -23 -37 -25 -87 -20 -63 7
-70 -10 -10 -21 47 -9 94 12 156 70 32 30 50 41 50 31 0 -28 -18 -64 -50 -101
-40 -45 -19 -48 33 -5 29 24 37 27 37 14 0 -27 -37 -71 -70 -85 -35 -14 -49
-8 -30 15 11 13 9 15 -11 15 -13 0 -35 -9 -49 -20 -40 -31 -93 -26 -124 11
-14 17 -26 40 -26 51 0 18 5 16 35 -15 39 -40 43 -42 65 -26 12 9 11 10 -7 6
-16 -4 -28 5 -52 38 -17 24 -31 47 -31 52 0 5 19 7 41 5 29 -3 40 -1 35 7 -4
6 -18 8 -33 5 -16 -4 -28 -2 -34 7 -6 11 -15 7 -38 -15 -31 -30 -35 -50 -6
-26 21 18 30 6 10 -14 -15 -14 -19 -14 -46 -1 -16 9 -29 14 -30 13 0 -2 -2
-13 -3 -25 -2 -13 -6 -26 -11 -30 -4 -5 -5 0 -2 9 3 9 -16 -5 -42 -32 -27 -27
-52 -46 -56 -42 -5 4 -5 2 -2 -4 8 -13 58 -9 88 6 22 12 24 9 32 -50 3 -19 3
-29 0 -22 -2 6 -11 12 -19 12 -8 0 -55 14 -105 31 -63 21 -94 28 -101 21 -8
-8 -4 -9 13 -6 21 4 20 3 -6 -12 -36 -21 -48 -35 -76 -93 -14 -30 -19 -55 -15
-75 l6 -31 -25 30 c-18 22 -25 25 -25 13 0 -20 26 -48 45 -48 7 0 22 -8 34
-17 l22 -18 -33 -40 c-18 -21 -31 -47 -30 -57 2 -9 -2 -26 -8 -38 -12 -23 -11
-24 24 -11 18 7 23 15 19 30 -3 13 1 21 14 24 16 4 16 5 1 6 -22 1 -23 17 -3
25 8 3 20 17 27 31 7 15 17 24 25 20 42 -17 45 -15 15 8 -42 31 -82 85 -82
108 0 10 14 38 31 63 l30 46 65 0 c49 0 76 -6 115 -25 27 -14 55 -23 62 -19 7
4 9 3 5 -1 -5 -5 15 -21 42 -37 28 -16 50 -33 50 -38 0 -6 -18 -10 -40 -10
-25 0 -40 5 -40 13 0 8 -4 7 -10 -3 -17 -27 -11 -30 48 -25 31 3 51 2 44 -1
-9 -4 -6 -10 8 -22 12 -10 25 -34 29 -55 8 -32 6 -39 -11 -48 -12 -6 -38 -9
-59 -6 -27 4 -39 1 -43 -10 -8 -20 -8 -23 5 -23 5 0 7 5 4 10 -3 6 3 10 14 10
31 0 26 -13 -21 -55 -24 -20 -36 -34 -28 -30 8 4 0 -5 -18 -20 -32 -27 -33
-28 -13 -41 24 -17 25 -72 2 -70 -8 1 -18 -10 -21 -24 -7 -25 -7 -25 -23 10
-13 28 -17 32 -22 18 -4 -10 -2 -31 4 -48 11 -34 5 -63 -13 -57 -14 5 -35 64
-35 104 -1 23 7 38 30 57 17 14 26 26 20 26 -5 0 -13 -5 -16 -10 -4 -6 -11 -8
-16 -4 -6 3 -27 -5 -48 -19 -37 -24 -38 -28 -44 -94 -3 -37 -2 -72 2 -76 5 -4
9 23 10 60 1 59 4 71 27 91 27 24 54 31 37 10 -18 -23 -23 -66 -11 -95 22 -53
19 -76 -13 -103 -34 -28 -54 -75 -64 -151 -6 -45 -5 -49 18 -60 22 -10 24 -17
25 -84 l2 -73 -41 -36 c-22 -20 -51 -42 -64 -48 -21 -9 -45 -62 -33 -73 9 -9
111 -65 113 -63 1 2 8 13 14 26 12 22 11 23 -8 12 -20 -10 -26 -6 -21 15 1 6
-2 7 -6 3 -4 -4 -13 -3 -21 3 -7 6 -13 8 -13 5 0 -4 -9 -2 -20 4 -11 6 -20 20
-20 32 0 12 3 19 6 15 4 -3 12 -1 19 6 8 7 39 27 70 46 31 19 52 37 48 40 -12
9 -15 81 -3 81 6 0 10 9 10 21 0 11 -4 17 -10 14 -6 -4 -9 7 -6 27 3 34 21 42
21 11 0 -24 18 -44 29 -32 11 10 -21 86 -39 93 -9 3 -11 -2 -7 -16 4 -17 1
-19 -24 -16 -30 3 -32 8 -21 68 7 36 18 60 28 60 5 0 9 6 9 13 0 14 112 133
156 164 26 19 26 22 17 76 -5 31 -6 54 -1 51 4 -3 8 4 8 15 0 26 50 83 107
122 34 24 43 36 43 60 0 66 -69 166 -134 194 -28 12 -27 13 45 27 143 29 229
8 394 -100 55 -35 116 -90 75 -67 -8 4 -24 15 -35 24 -13 10 -16 11 -7 1 16
-19 15 -31 -3 -24 -8 4 -27 -7 -45 -25 -19 -18 -32 -25 -34 -18 -20 73 -33 99
-54 118 -18 15 -27 18 -30 10 -3 -8 -15 0 -31 18 -15 17 -31 28 -34 24 -4 -3
-17 2 -29 13 -18 15 -20 16 -9 2 12 -16 11 -18 -5 -18 -11 0 -34 9 -52 20 -38
23 -62 17 -38 -9 8 -9 29 -47 46 -84 18 -37 33 -67 35 -67 7 0 -35 114 -45
124 -17 17 -11 27 10 16 11 -6 20 -16 19 -23 -3 -23 1 -38 9 -34 4 3 8 -7 8
-21 1 -15 4 -44 7 -65 4 -36 2 -38 -62 -84 -36 -26 -76 -59 -88 -73 -32 -36
-53 -102 -41 -125 8 -12 7 -20 -3 -26 -27 -16 -1 -19 35 -4 31 13 36 18 26 30
-7 8 -16 13 -20 10 -4 -3 -10 2 -13 10 -4 10 -1 12 11 8 15 -6 15 -4 4 9 -11
14 -9 21 17 50 28 31 31 32 53 19 21 -13 22 -13 10 2 -8 9 -11 25 -7 36 5 18
8 18 33 5 31 -16 42 -18 42 -5 0 5 -12 12 -26 15 -21 6 -24 9 -14 21 7 8 17
15 23 15 6 0 19 7 29 17 17 15 19 15 36 0 11 -10 36 -17 58 -17 l39 -1 -35
-29 -35 -29 -12 22 c-12 22 -12 22 -13 1 0 -12 14 -35 30 -52 17 -18 30 -37
30 -44 0 -9 3 -9 12 0 7 7 18 12 26 12 18 0 58 -50 54 -67 -2 -7 2 -21 8 -31
11 -16 11 -16 6 0 -3 10 -1 20 3 23 5 3 15 -19 21 -48 14 -59 41 -130 46 -124
2 2 -2 22 -10 44 -8 22 -20 76 -26 119 -11 70 -10 79 5 90 20 15 128 10 133
-5 2 -6 19 -20 38 -31 19 -12 32 -25 29 -30 -3 -5 0 -10 7 -12 16 -6 -18 -97
-39 -105 -19 -7 -8 -60 19 -90 13 -14 17 -26 12 -35 -10 -15 -11 -19 -13 -48
-1 -16 -8 -20 -38 -20 -28 0 -34 -3 -23 -10 8 -5 26 -10 39 -10 21 0 23 -3 18
-33 -4 -26 3 -48 29 -97 38 -71 37 -70 26 -70 -5 0 -16 16 -26 36 -9 20 -19
34 -22 31 -3 -3 0 -15 6 -27 17 -32 2 -39 -21 -10 -18 22 -17 20 2 -22 20 -41
21 -51 10 -75 -10 -22 -14 -24 -23 -12 -8 11 -9 11 -4 -3 3 -10 1 -18 -4 -18
-6 0 -10 6 -11 13 -1 19 -21 -35 -23 -62 l-2 -23 16 23 c8 13 41 54 73 92 47
57 55 71 44 81 -8 6 -22 34 -32 62 -16 45 -17 62 -6 141 13 108 14 143 2 125
-5 -9 -8 2 -8 30 0 27 9 61 26 93 14 28 27 53 29 58 2 4 -6 7 -18 7 -13 0 -20
5 -17 13 2 6 12 11 22 10 12 -1 14 2 6 10 -6 6 -11 19 -11 29 0 28 89 106 160
140 137 66 389 112 403 74 3 -8 1 -17 -6 -20 -7 -2 -1 -5 13 -5 21 -1 32 12
74 87 96 171 129 235 118 228 -7 -4 -12 -1 -12 8 0 8 4 17 9 20 22 14 105 238
128 346 13 63 27 125 30 138 3 12 1 22 -4 22 -5 0 -15 -27 -22 -61 -14 -69
-79 -200 -147 -295 -43 -60 -45 -67 -34 -94 12 -29 6 -55 -11 -45 -5 4 -9 18
-9 31 0 23 -5 20 -52 -33 -76 -84 -132 -136 -192 -178 -54 -37 -209 -95 -255
-95 -34 0 -50 -12 -47 -33 3 -24 21 -26 21 -3 0 17 8 20 53 20 38 1 51 -2 47
-11 -2 -8 4 -13 16 -13 12 0 18 4 13 11 -4 7 -1 10 6 7 45 -15 -6 -44 -55 -32
-15 4 -32 1 -40 -6 -17 -14 -21 0 -4 17 7 7 7 13 1 17 -6 3 -13 -3 -17 -13 -6
-20 -76 -75 -129 -101 -27 -14 -28 -15 -8 -18 25 -4 30 -22 6 -22 -8 0 -12 -4
-9 -10 7 -11 5 -11 -65 -16 -80 -5 -100 -10 -114 -29 -12 -17 -15 -17 -37 -2
-29 21 -52 21 -91 1 -16 -9 -27 -11 -24 -5 4 6 1 11 -7 11 -8 0 -20 7 -27 15
-21 26 -31 16 -15 -15 20 -40 19 -43 -10 -24 -32 21 -31 72 2 80 13 4 41 28
64 55 36 43 46 49 79 49 30 0 41 6 55 26 11 18 23 24 36 21 19 -5 86 16 166
54 24 10 63 19 88 19 25 0 45 4 45 8 0 14 -113 0 -139 -16 -22 -15 -25 -15
-48 13 -13 17 -28 29 -34 27 -15 -4 -50 18 -44 27 5 9 -27 25 -83 41 -38 10
-145 -7 -136 -22 3 -5 29 -6 59 -3 46 6 62 3 112 -20 l58 -27 -33 -16 c-38
-18 -60 -14 -181 37 -40 17 -80 31 -88 31 -34 0 0 -26 112 -86 88 -46 115 -65
102 -70 -12 -4 -37 7 -78 36 -34 23 -108 64 -166 91 -94 42 -103 49 -80 54 15
4 41 2 58 -4 18 -6 34 -10 35 -8 17 17 55 84 55 96 0 34 -20 177 -26 196 -4
11 -28 52 -52 90 -25 39 -59 95 -76 125 -26 44 -42 60 -83 80 -116 57 -124 59
-149 34z m95 -44 c0 -5 -6 -10 -14 -10 -17 0 -31 -18 -22 -27 3 -4 17 4 31 17
25 24 44 22 29 -2 -5 -7 -10 -22 -11 -33 -1 -11 -4 -33 -7 -50 -4 -16 -3 -23
1 -15 4 10 10 2 19 -25 11 -39 12 -39 13 -10 2 28 4 27 31 -25 35 -67 36 -70
8 -70 -30 0 -78 48 -78 79 0 32 -6 24 -14 -19 -5 -31 -1 -41 34 -84 22 -26 40
-53 40 -60 0 -6 -5 -4 -10 4 -8 13 -10 13 -10 -2 0 -11 -5 -15 -15 -12 -11 5
-14 1 -10 -12 6 -18 6 -18 -7 -1 -29 41 -40 53 -35 37 3 -10 -3 -15 -22 -17
-14 0 -46 -6 -71 -11 -71 -17 -90 -8 -91 42 0 32 -2 37 -9 21 -8 -19 -9 -19
-9 3 -1 12 3 22 8 22 5 0 7 9 4 19 -3 10 3 32 12 47 9 16 13 20 10 9 -19 -53
-15 -55 11 -6 16 29 34 54 39 54 10 0 46 53 49 72 6 34 96 96 96 65z m119
-105 c7 -16 25 -39 40 -52 l26 -23 -34 -31 c-18 -17 -37 -27 -41 -22 -17 16
-50 119 -50 152 0 32 1 33 23 19 12 -8 28 -28 36 -43z m1335 -127 c-8 -53 -32
-108 -48 -108 -6 0 -13 -12 -14 -27 -2 -31 -41 -78 -43 -53 -1 8 -3 27 -5 42
-1 15 2 31 8 34 7 5 9 1 5 -9 -9 -23 6 -21 20 3 9 13 9 21 2 25 -14 10 9 35
32 35 13 0 19 7 19 25 0 22 19 75 27 75 2 0 0 -19 -3 -42z m-1444 6 c6 -14 14
-23 19 -19 5 3 12 1 15 -4 4 -5 2 -12 -3 -15 -10 -7 -44 29 -47 49 -3 24 6 17
16 -11z m-52 -242 c-2 -13 24 -72 32 -72 4 0 10 -6 13 -14 4 -9 0 -12 -13 -9
-10 3 -21 0 -24 -6 -4 -6 -2 -11 3 -11 6 0 11 -5 11 -11 0 -30 -95 30 -102 64
-5 27 1 49 12 42 4 -3 12 1 18 8 11 13 52 21 50 9z m1382 1 c0 -11 -12 -25
-36 -46 -22 -18 -22 -18 -37 12 -8 16 -12 32 -9 35 8 9 82 7 82 -1z m14 -45
c-5 -7 -31 -49 -59 -93 -27 -44 -58 -97 -67 -117 -10 -21 -22 -38 -27 -38 -6
0 1 22 14 49 27 54 30 71 15 89 -7 9 -7 9 2 2 18 -15 42 8 27 26 -15 19 -33
18 -51 -3 -17 -22 -18 -41 0 -52 11 -6 10 -15 -4 -44 -20 -42 -37 -49 -28 -12
4 15 2 25 -5 25 -6 0 -11 -4 -11 -9 0 -10 -52 -33 -66 -30 -5 2 -24 -1 -43 -5
-22 -5 -36 -4 -40 3 -5 8 -13 5 -25 -8 -17 -19 -20 -19 -49 -4 -31 16 -31 16
-8 24 12 5 27 6 33 3 5 -3 18 2 28 11 18 16 20 16 26 1 4 -9 17 -16 33 -16
l26 1 -30 16 -30 17 25 7 c38 11 62 10 55 -1 -3 -5 -2 -10 4 -10 5 0 12 6 15
13 4 6 4 1 2 -12 -5 -22 -4 -23 11 -8 13 13 14 19 4 31 -7 8 -18 13 -25 10 -8
-3 -16 2 -19 10 -4 11 -1 16 12 16 9 0 28 11 41 25 28 29 40 32 40 8 1 -15 3
-15 19 4 11 13 17 31 14 43 -3 11 -2 20 2 20 15 0 51 -36 48 -47 -8 -22 15
-22 33 0 16 18 16 19 2 8 -10 -7 -18 -9 -18 -4 0 13 35 45 42 38 3 -3 11 1 18
10 15 18 24 20 14 3z m-1150 -184 c67 -37 117 -144 81 -174 -13 -11 -17 -7
-30 26 -23 56 -33 76 -56 104 l-20 25 17 -40 c26 -65 34 -95 23 -95 -19 0 -50
21 -44 30 7 12 -57 140 -67 134 -4 -3 -5 2 -2 11 8 20 34 15 98 -21z m369 10
c-5 -13 -63 -25 -63 -13 0 11 32 28 51 26 9 -1 15 -6 12 -13z m31 -311 c-4
-16 -10 -31 -13 -35 -8 -9 -81 38 -81 52 0 6 23 10 50 10 50 0 50 0 44 -27z"/>
<path d="M1281 3257 c-12 -25 -25 -63 -28 -84 -7 -43 5 -41 13 3 8 48 15 65
25 59 5 -3 6 2 2 11 -4 11 -2 15 4 11 14 -9 24 16 13 32 -5 9 -15 -2 -29 -32z"/>
<path d="M1240 2875 c-9 -11 -10 -19 -3 -26 13 -13 35 12 24 29 -6 10 -11 9
-21 -3z"/>
<path d="M2321 3371 c-33 -33 -122 -91 -150 -98 -29 -7 -51 -21 -51 -34 0 -5
8 -5 18 0 9 5 32 16 50 23 17 7 32 16 32 19 0 4 11 10 24 13 24 6 123 96 106
96 -6 0 -19 -9 -29 -19z"/>
<path d="M2701 3367 c-21 -26 -41 -86 -31 -92 6 -3 10 2 10 12 0 10 9 35 20
56 20 38 21 47 1 24z"/>
<path d="M1491 3353 c1 -16 47 -107 48 -95 1 7 -8 32 -20 57 -20 42 -30 55
-28 38z"/>
<path d="M2390 3287 c3 -34 5 -66 5 -72 0 -5 18 -11 40 -13 35 -3 45 2 78 36
l38 39 -38 22 -38 21 28 -23 28 -24 -26 -31 c-28 -34 -58 -40 -87 -18 -13 10
-18 27 -18 64 0 28 -3 53 -8 56 -4 2 -5 -23 -2 -57z"/>
<path d="M32 3281 c-7 -21 -12 -46 -12 -55 0 -10 -4 -14 -10 -11 -6 4 -10 -10
-10 -34 0 -23 5 -41 10 -41 6 0 11 6 12 13 3 25 4 32 12 54 4 13 8 36 8 53 1
16 4 27 9 25 4 -3 5 4 2 15 -3 11 -6 20 -8 20 -1 0 -7 -17 -13 -39z"/>
<path d="M1692 3295 c-1 -16 -15 -55 -31 -87 -22 -43 -31 -54 -40 -45 -7 7 -6
0 2 -15 10 -20 12 -41 6 -75 -11 -67 -10 -96 2 -58 6 17 12 59 14 94 3 47 11
74 30 103 19 29 25 49 22 76 -3 32 -4 33 -5 7z"/>
<path d="M814 3255 c8 -64 25 -83 54 -58 18 15 20 23 13 53 -5 19 -9 29 -10
22 -1 -10 -6 -10 -23 -1 -13 7 -27 17 -31 23 -5 6 -6 -11 -3 -39z"/>
<path d="M225 3270 c3 -5 -1 -10 -9 -10 -9 0 -16 -7 -16 -15 0 -8 8 -15 19
-15 10 0 24 7 31 15 10 12 10 15 -1 15 -11 0 -11 2 1 10 12 8 10 10 -8 10 -13
0 -20 -4 -17 -10z"/>
<path d="M124 3223 c-4 -14 -3 -33 3 -42 11 -17 -15 -98 -32 -99 -13 -1 -26
-42 -20 -62 3 -10 1 -29 -4 -43 -7 -18 -7 -27 2 -30 9 -3 8 -8 -2 -21 -12 -14
-12 -19 -2 -25 9 -6 3 -17 -19 -41 -31 -33 -36 -60 -12 -68 7 -2 12 6 12 22 0
14 4 26 8 26 14 0 39 64 35 85 -10 42 -1 102 21 145 44 85 62 159 42 172 -19
13 -25 9 -32 -19z"/>
<path d="M270 3237 c0 -8 10 -13 23 -13 15 1 22 -5 22 -18 0 -11 5 -21 12 -23
7 -3 9 3 6 16 -3 12 -1 21 6 21 6 0 11 -13 11 -30 0 -35 15 -40 24 -7 9 34 9
34 -34 51 -49 19 -70 20 -70 3z"/>
<path d="M2285 3176 c2 -32 9 -64 15 -70 8 -8 9 -6 4 7 -3 9 -10 41 -15 70
l-8 52 4 -59z"/>
<path d="M2143 3204 c-11 -30 8 -128 37 -188 20 -41 44 -72 73 -93 61 -46 69
-41 10 5 -26 22 -58 58 -70 83 -25 51 -47 161 -38 189 7 24 -3 27 -12 4z"/>
<path d="M2643 3198 c-24 -27 -56 -121 -39 -115 6 2 16 23 23 46 14 48 31 73
44 65 5 -3 9 2 9 10 0 22 -13 20 -37 -6z"/>
<path d="M385 3171 c-3 -10 -3 -32 1 -47 5 -19 4 -25 -5 -20 -6 4 -11 3 -11
-3 0 -5 -3 -16 -6 -25 -4 -11 -1 -16 10 -16 9 0 16 8 16 19 0 11 5 23 11 26 5
4 8 12 6 18 -2 7 -1 19 4 28 6 11 4 21 -5 28 -11 10 -16 8 -21 -8z"/>
<path d="M602 3153 c-5 -10 -7 -24 -5 -31 3 -7 -2 -21 -11 -31 -9 -10 -14 -25
-10 -35 3 -9 1 -22 -5 -30 -13 -15 0 -59 26 -88 13 -14 13 -22 2 -53 -8 -21
-18 -34 -26 -31 -8 3 -10 -1 -6 -11 5 -12 2 -15 -11 -10 -22 9 -32 -17 -19
-46 8 -17 4 -32 -16 -69 -20 -37 -24 -51 -15 -65 6 -9 15 -18 21 -20 12 -4 77
57 69 65 -3 2 8 22 24 43 17 20 37 54 46 74 14 33 14 38 0 48 -26 19 -64 128
-64 180 0 41 3 50 24 59 26 12 30 23 13 33 -6 4 -8 13 -5 21 8 20 -22 17 -32
-3z m34 -316 c8 3 14 2 14 -2 0 -9 -51 -95 -57 -95 -2 0 -1 5 3 12 5 7 3 8 -5
4 -7 -5 -10 -14 -7 -22 3 -8 -1 -17 -9 -20 -8 -4 -13 -9 -10 -13 2 -4 -3 -8
-11 -8 -9 0 -14 7 -11 16 3 9 6 22 8 29 2 8 16 27 32 44 16 18 28 43 28 62 1
22 3 25 6 9 3 -14 9 -20 19 -16z"/>
<path d="M817 3163 c-12 -12 -7 -21 10 -19 13 1 19 -9 23 -34 4 -27 7 -31 13
-17 10 27 9 31 -12 55 -20 24 -24 26 -34 15z"/>
<path d="M1960 3155 c-7 -8 -10 -18 -6 -22 3 -3 6 -1 6 5 0 26 18 9 29 -27 6
-22 30 -63 53 -92 32 -40 39 -56 31 -68 -12 -19 -41 -21 -67 -5 -14 10 -24 10
-39 2 -16 -8 -19 -8 -14 5 3 9 0 20 -7 26 -20 17 -14 -53 6 -76 15 -17 15 -20
-12 -46 -32 -32 -32 -74 0 -57 10 6 27 7 37 3 14 -5 16 -4 7 8 -20 26 -24 49
-8 42 8 -3 13 -12 10 -19 -3 -8 1 -14 10 -14 9 0 14 6 12 12 -3 7 6 21 19 31
13 10 23 25 23 33 0 8 5 12 10 9 11 -7 70 47 70 63 0 6 -12 25 -27 42 -16 18
-41 60 -58 94 -32 64 -60 81 -85 51z"/>
<path d="M1897 3079 c-37 -50 -81 -128 -75 -134 2 -1 14 -6 28 -10 23 -7 24
-6 6 7 -17 13 -17 18 -5 44 8 15 19 28 24 28 6 -1 20 12 32 28 21 29 21 29 28
7 9 -26 -16 -50 -46 -44 -23 5 -25 -10 -3 -19 9 -4 23 -1 30 5 9 8 18 8 27 2
6 -6 19 -10 28 -10 16 0 18 7 6 37 -3 8 -13 36 -23 63 -9 26 -17 47 -18 47 0
0 -18 -23 -39 -51z"/>
<path d="M816 3089 c-6 -33 -25 -31 -27 4 -1 17 -2 18 -6 5 -5 -21 -8 -21 -31
-9 -24 13 -76 -11 -98 -44 -23 -35 -21 -93 6 -138 18 -30 25 -35 36 -26 8 7
15 10 17 8 22 -38 37 -74 37 -87 0 -9 9 -28 20 -42 11 -14 20 -31 20 -39 0 -7
11 -22 26 -33 24 -19 24 -21 8 -39 -12 -14 -21 -16 -35 -9 -10 6 -37 10 -61
10 -36 0 -50 -6 -73 -30 l-28 -29 27 -11 c35 -13 31 -14 74 15 63 43 71 27 17
-34 -40 -44 -117 -71 -206 -71 -30 0 -71 -5 -91 -10 -41 -12 -90 -63 -113
-117 -15 -34 -14 -38 4 -56 19 -19 19 -19 19 16 0 43 10 62 61 111 l40 39 113
9 c138 11 167 24 223 104 25 35 50 60 63 62 25 4 20 22 -14 60 -23 24 -29 40
-25 70 1 7 -4 11 -10 10 -16 -4 -39 40 -39 75 0 28 0 28 25 10 14 -11 25 -28
25 -43 0 -19 3 -21 9 -11 12 19 5 36 -31 71 -34 34 -38 36 -38 14 0 -13 -5
-12 -30 6 -16 12 -30 17 -30 11 0 -22 -27 1 -38 33 -31 86 61 146 140 91 22
-15 13 -25 -24 -25 -15 0 -28 -5 -28 -11 0 -7 14 -8 39 -4 24 4 42 2 46 -4 3
-6 0 -11 -7 -11 -8 0 -15 -10 -16 -23 -1 -21 3 -23 33 -23 37 1 42 18 16 50
-8 9 -15 33 -16 54 -4 67 -5 72 -14 72 -5 0 -11 -14 -15 -31z"/>
<path d="M315 3033 c-3 -27 -9 -59 -11 -73 -4 -19 -3 -21 4 -10 11 16 27 130
19 130 -2 0 -8 -21 -12 -47z"/>
<path d="M2364 3026 c37 -35 81 -55 93 -42 4 3 -3 6 -14 6 -11 0 -42 16 -69
36 l-49 36 39 -36z"/>
<path d="M2495 3014 c-18 -15 -22 -22 -11 -18 14 6 17 4 11 -5 -6 -10 -3 -11
13 -2 26 14 33 24 24 38 -5 7 -17 3 -37 -13z"/>
<path d="M1877 2962 c-17 -3 -16 -5 4 -23 16 -13 26 -16 33 -9 14 14 -13 38
-37 32z"/>
<path d="M331 2923 c-1 -24 -7 -33 -27 -40 l-26 -9 25 -11 c25 -12 27 -11 33
21 3 19 4 42 1 53 -3 11 -5 5 -6 -14z"/>
<path d="M2495 2863 l-68 -78 62 60 c55 52 90 95 78 95 -2 0 -34 -35 -72 -77z"/>
<path d="M828 2920 c6 -8 12 -24 12 -37 0 -13 6 -23 13 -23 7 0 22 -6 33 -14
18 -14 18 -15 -6 -26 -22 -9 -23 -10 -3 -6 27 5 40 -9 20 -21 -8 -4 -17 -26
-21 -48 l-6 -40 17 40 c21 51 20 50 40 34 14 -11 15 -11 9 0 -5 8 -3 17 5 23
11 8 10 9 -3 4 -28 -8 -21 0 16 23 19 12 41 18 50 15 28 -11 17 4 -20 26 -19
12 -38 20 -41 16 -4 -3 -1 -6 6 -6 7 0 9 -4 6 -10 -3 -5 2 -10 11 -10 25 0 9
-12 -20 -15 -14 -2 -27 3 -30 12 -3 8 -10 12 -15 9 -5 -3 -14 1 -21 9 -9 11
-5 15 25 21 33 6 35 8 22 22 -17 16 -72 9 -62 -8 10 -16 -7 -12 -29 7 -12 10
-15 11 -8 3z"/>
<path d="M2487 2908 c-27 -20 -28 -20 -43 -2 -15 18 -15 18 -9 -1 4 -11 9 -26
12 -33 3 -7 1 -12 -3 -10 -5 2 -20 -7 -33 -19 -13 -12 -56 -39 -95 -59 -39
-21 -65 -39 -58 -42 29 -9 184 90 232 149 36 45 35 46 -3 17z"/>
<path d="M1787 2869 c-15 -18 -26 -32 -25 -33 2 -1 27 -12 57 -24 42 -17 57
-19 63 -9 4 6 8 15 8 19 0 10 -58 20 -71 12 -7 -4 -10 -1 -7 7 3 9 20 14 44
14 51 0 58 15 14 31 -50 18 -53 17 -83 -17z"/>
<path d="M2145 2879 c9 -30 7 -28 45 -39 31 -9 32 -9 15 10 -9 10 -23 16 -31
13 -8 -3 -14 1 -14 10 0 9 -5 19 -11 23 -8 4 -9 -1 -4 -17z"/>
<path d="M52 2765 c-7 -14 -12 -40 -12 -58 -1 -18 -7 -59 -15 -92 -18 -75 -18
-100 1 -58 14 33 48 222 41 229 -2 2 -9 -7 -15 -21z"/>
<path d="M2385 2768 c-62 -41 -154 -79 -241 -98 -148 -34 -249 -67 -249 -81 0
-8 8 -13 17 -11 12 2 16 -2 12 -11 -3 -9 3 -16 15 -20 28 -7 27 17 0 37 l-22
15 24 -2 c13 0 29 -8 36 -17 9 -11 12 -11 13 -2 0 9 5 10 19 2 14 -7 22 -7 27
2 5 7 2 8 -7 3 -8 -4 -2 5 12 20 20 20 52 34 132 54 103 28 163 56 222 105 36
30 31 32 -10 4z"/>
<path d="M284 2768 c-5 -7 -3 -8 6 -3 9 6 11 -4 6 -46 -4 -35 -3 -45 3 -28 4
14 14 36 21 48 10 19 10 25 -1 32 -19 12 -27 11 -35 -3z"/>
<path d="M2135 2729 c11 -13 20 -25 20 -26 1 -1 18 3 38 9 22 7 37 18 37 27 0
10 -3 12 -8 5 -14 -22 -52 -26 -80 -8 l-27 17 20 -24z"/>
<path d="M1033 2660 c12 -25 28 -46 35 -46 6 -1 15 -3 20 -4 11 -4 26 -8 40
-9 7 0 10 -5 7 -11 -3 -6 1 -7 9 -4 17 6 49 64 41 72 -3 3 -5 0 -5 -6 0 -17
-61 -30 -90 -20 -13 5 -37 24 -52 41 l-28 32 23 -45z"/>
<path d="M273 2579 c-7 -41 -15 -101 -17 -134 -5 -58 -5 -59 9 -30 8 17 14 44
15 60 0 17 5 46 10 66 6 21 7 53 2 74 -7 37 -8 36 -19 -36z"/>
<path d="M1022 2625 c4 -4 -3 -16 -15 -26 -16 -14 -18 -18 -4 -13 9 3 23 1 31
-5 11 -9 12 -6 8 14 -2 14 -9 28 -16 32 -6 3 -8 3 -4 -2z"/>
<path d="M1834 2599 c-4 -7 0 -17 9 -24 10 -7 17 -14 17 -16 0 -2 -32 -5 -72
-7 -65 -2 -107 -16 -93 -30 3 -3 -9 -22 -27 -41 -18 -20 -24 -28 -12 -18 11 9
26 17 32 17 7 0 12 7 12 15 0 8 5 15 11 15 5 0 7 -4 4 -10 -10 -16 11 -11 26
6 7 8 21 13 31 11 11 -3 16 -1 11 6 -4 7 0 8 11 4 22 -9 86 18 86 36 0 22 -36
51 -46 36z"/>
<path d="M2055 2587 c-8 -28 -3 -42 12 -36 5 2 6 18 2 34 l-6 30 -8 -28z"/>
<path d="M2355 2560 c-27 -4 -77 -17 -110 -28 -33 -12 -49 -19 -35 -16 14 3
65 14 114 24 48 10 91 21 94 24 3 4 1 5 -4 5 -5 -1 -31 -5 -59 -9z"/>
<path d="M1050 2538 c0 -10 5 -18 10 -18 6 0 10 5 10 10 0 6 8 10 18 9 10 0
12 -3 4 -6 -6 -2 -10 -9 -7 -13 5 -9 50 5 69 21 4 4 -17 9 -48 11 -48 3 -56 1
-56 -14z"/>
<path d="M1856 2524 c-26 -19 -59 -34 -72 -34 -30 0 -38 -14 -16 -32 14 -13
21 -13 47 -2 17 7 24 13 17 14 -7 0 -22 -5 -33 -10 -13 -7 -19 -7 -19 -1 0 6
12 13 28 16 15 3 46 15 70 27 30 15 39 24 32 33 -5 6 -7 15 -3 18 13 14 -3 4
-51 -29z"/>
<path d="M1975 2550 c-6 -9 17 -40 29 -40 3 0 6 11 6 25 0 25 -23 35 -35 15z"/>
<path d="M1887 2489 c-15 -12 -32 -29 -37 -39 -9 -17 -7 -17 20 -7 24 9 27 13
13 18 -15 5 -15 6 1 12 10 4 29 7 43 7 22 0 23 2 9 15 -18 18 -15 19 -49 -6z"/>
<path d="M2085 2464 c-60 -40 -67 -51 -12 -20 26 15 54 26 61 24 22 -5 121
-126 156 -191 38 -71 62 -158 49 -178 -7 -11 -9 -9 -10 6 0 19 -1 19 -8 1 -5
-14 -10 -16 -15 -8 -4 7 -4 17 -1 23 4 6 -2 13 -14 16 -15 4 -23 16 -27 44 -4
22 -10 39 -15 39 -5 0 -5 7 -2 17 5 12 3 14 -7 8 -8 -5 -11 -3 -8 6 3 8 13 13
22 13 9 -1 16 2 16 7 0 15 -26 10 -42 -8 -13 -15 -14 -27 -5 -76 8 -38 17 -59
28 -62 9 -3 24 -14 32 -23 23 -25 7 -121 -29 -176 -15 -23 -20 -35 -11 -27 9
7 17 10 17 5 -1 -25 -24 -36 -90 -45 -111 -14 -175 -62 -302 -229 -38 -51 -61
-88 -30 -50 24 29 24 28 52 -30 11 -25 18 -36 14 -25 -17 53 -15 100 6 124
l21 24 31 -23 32 -23 -22 30 c-29 40 -28 46 9 77 52 44 120 80 204 107 44 15
80 31 80 36 0 5 17 30 38 55 41 50 67 119 67 177 0 41 -34 170 -47 180 -4 3
-15 15 -23 25 -11 14 -11 18 -2 12 11 -7 12 -5 4 10 -25 44 -143 154 -165 154
-7 0 -30 -12 -52 -26z"/>
<path d="M1185 2420 c-22 -11 -29 -17 -16 -14 38 10 88 33 71 33 -8 0 -33 -8
-55 -19z"/>
<path d="M1430 2385 c-23 -24 -23 -25 -5 -45 13 -15 21 -17 31 -9 19 16 34 2
34 -32 0 -26 -3 -29 -30 -29 -17 0 -44 -10 -61 -22 -25 -18 -32 -20 -39 -9
-11 18 -3 39 18 44 10 3 5 5 -10 6 -23 1 -28 -3 -28 -23 0 -12 14 -37 30 -54
22 -24 30 -41 30 -68 0 -31 -2 -35 -15 -24 -8 7 -15 22 -15 34 0 11 -12 39
-25 60 -19 32 -25 37 -31 23 -3 -10 -11 -16 -18 -15 -6 1 -26 -6 -43 -17 -23
-13 -29 -21 -20 -27 20 -13 34 -9 65 17 l30 25 15 -45 c15 -42 15 -45 -1 -46
-12 0 -11 -3 6 -9 16 -7 22 -18 22 -40 0 -17 -4 -29 -9 -25 -6 3 -9 -4 -8 -15
2 -27 20 -20 29 11 4 13 5 -10 3 -51 -3 -53 -2 -65 4 -43 5 18 11 76 15 128 4
53 12 108 19 122 12 26 82 69 91 54 3 -4 17 -6 31 -3 24 4 24 5 8 18 -17 13
-17 15 2 29 11 9 26 13 35 10 11 -5 12 -3 4 5 -14 14 -52 16 -78 5 -15 -6 -18
-5 -14 6 3 8 -7 29 -21 47 l-27 32 -24 -25z"/>
<path d="M1122 2388 c-6 -6 -37 -13 -67 -15 -59 -3 -153 -45 -177 -78 -4 -6
-8 -2 -8 8 0 9 -7 17 -16 17 -8 0 -13 -4 -9 -9 3 -6 -8 -25 -25 -44 -16 -19
-30 -37 -30 -41 0 -16 33 -2 79 34 47 38 80 55 53 28 -7 -7 -11 -35 -11 -62
l2 -51 6 46 c8 55 31 93 74 120 26 16 42 19 85 14 44 -4 60 -2 88 16 40 24 45
33 8 17 -19 -9 -27 -9 -33 0 -5 9 -10 9 -19 0z"/>
<path d="M875 2374 c-16 -7 -24 -13 -17 -14 7 0 12 -7 10 -16 -2 -10 4 -19 12
-22 8 -3 12 -1 8 3 -4 4 0 14 10 21 14 11 14 13 2 14 -13 0 -13 1 0 10 24 15
7 18 -25 4z"/>
<path d="M1025 2313 c-42 -43 -72 -98 -105 -196 -19 -53 -34 -77 -72 -112 -62
-57 -73 -39 -12 20 44 43 46 47 38 83 -9 45 -9 79 1 110 7 22 6 23 -12 12 -26
-17 -68 -79 -59 -88 4 -3 16 4 27 18 l20 25 -5 -30 c-10 -62 -19 -91 -37 -116
-10 -14 -21 -37 -24 -52 -5 -17 -14 -27 -26 -27 -25 0 -24 18 4 48 22 25 22
25 0 13 -35 -18 -53 -41 -53 -66 0 -17 -9 -29 -32 -41 -17 -9 -53 -37 -80 -62
-46 -42 -55 -47 -118 -53 -40 -5 -88 -18 -117 -32 -57 -29 -135 -109 -127
-130 3 -9 -3 -17 -18 -20 -39 -10 -58 -30 -52 -54 6 -22 7 -21 28 10 12 17 32
33 44 35 12 2 22 7 22 11 0 5 18 31 40 59 47 59 98 86 201 108 61 13 82 23
125 60 29 24 54 44 57 44 3 0 3 -10 0 -22 -4 -20 -2 -19 12 4 8 15 29 35 46
43 l30 16 -7 -47 c-10 -67 -79 -211 -162 -336 -39 -59 -74 -118 -77 -130 -4
-13 -14 -30 -22 -40 -13 -14 -12 -21 11 -55 13 -21 26 -45 28 -53 4 -18 30
-40 40 -34 7 5 4 16 -23 79 -7 17 -11 37 -10 45 3 19 61 70 81 71 10 0 11 2 3
5 -7 3 -34 -7 -60 -22 -37 -22 -44 -24 -32 -8 9 10 24 33 32 50 9 17 36 55 60
85 24 30 49 68 55 84 l10 30 2 -35 c2 -26 7 -13 20 50 31 141 41 150 34 30 -8
-140 1 -130 22 25 5 35 12 63 39 175 5 19 2 17 -14 -10 l-20 -35 -1 36 c0 25
7 42 25 59 14 13 25 20 25 16 0 -4 20 12 45 35 24 23 42 45 40 49 -8 13 22 85
34 82 7 -1 11 3 10 10 -1 7 -1 22 1 33 1 20 1 20 10 0 7 -17 9 -15 9 13 1 49
24 93 65 130 20 17 33 32 27 32 -5 0 -25 -17 -46 -37z"/>
<path d="M1372 2343 c-7 -3 3 -13 25 -24 20 -10 39 -17 41 -14 3 3 0 5 -7 5
-7 0 -10 4 -6 9 4 8 -26 33 -37 30 -2 0 -9 -3 -16 -6z"/>
<path d="M1730 2345 c0 -15 82 -173 100 -195 21 -24 21 -24 -1 15 -27 47 -29
51 -65 128 -24 51 -34 67 -34 52z"/>
<path d="M260 2282 c0 -16 -9 -39 -20 -52 -18 -21 -20 -21 -20 -4 0 16 -2 16
-10 4 -6 -9 -5 -18 1 -25 16 -15 59 40 59 76 0 16 -2 29 -5 29 -3 0 -5 -13 -5
-28z"/>
<path d="M1576 2251 c-10 -28 -18 -56 -20 -63 -1 -7 -4 -17 -7 -23 -11 -19
-31 -114 -26 -127 2 -7 10 14 18 47 11 51 14 55 17 29 2 -18 -1 -62 -6 -98 -5
-37 -5 -69 -1 -71 7 -5 15 44 29 205 5 58 13 115 16 128 12 41 -2 23 -20 -27z"/>
<path d="M1475 2210 c3 -5 -4 -28 -15 -50 -25 -49 -41 -90 -35 -90 5 0 75 132
75 142 0 4 -7 8 -16 8 -8 0 -12 -4 -9 -10z"/>
<path d="M1625 2142 c4 -67 9 -89 26 -110 16 -20 20 -22 15 -7 -4 11 -14 49
-21 85 -8 36 -16 76 -19 90 -3 14 -3 -12 -1 -58z"/>
<path d="M226 2145 c4 -8 12 -15 20 -15 8 0 14 -7 14 -15 0 -8 7 -15 15 -15
21 0 19 13 -8 38 -27 25 -49 29 -41 7z"/>
<path d="M1203 2149 c18 -10 18 -12 1 -30 -9 -10 -23 -19 -31 -19 -8 0 -11 -5
-8 -10 11 -18 -16 -41 -39 -34 -19 5 -19 4 3 -12 22 -16 24 -16 34 1 6 11 27
38 49 61 21 22 38 44 38 48 0 3 -15 6 -32 6 -28 -1 -30 -2 -15 -11z"/>
<path d="M1510 2139 c0 -2 -9 -29 -20 -59 -21 -59 -26 -86 -9 -58 14 25 39
111 34 117 -3 2 -5 2 -5 0z"/>
<path d="M1228 2103 c-13 -16 -35 -42 -47 -60 l-22 -32 -32 19 c-18 11 -39 20
-47 20 -8 -1 -3 -7 11 -15 36 -19 42 -40 23 -76 -14 -28 -14 -33 1 -55 15 -24
33 -35 18 -11 -11 18 -4 49 17 72 9 11 30 39 44 63 20 31 42 50 79 68 52 24
53 33 2 14 -23 -9 -26 -8 -21 5 8 21 3 19 -26 -12z"/>
<path d="M523 2104 c-18 -8 -33 -15 -33 -17 0 -1 19 -2 43 -2 29 0 42 5 42 14
0 20 -15 21 -52 5z"/>
<path d="M434 2082 c-13 -8 -34 -46 -34 -61 0 -6 15 -11 33 -10 30 0 30 1 9
10 -28 11 -26 42 3 47 29 5 43 22 20 22 -11 0 -25 -4 -31 -8z"/>
<path d="M192 2033 c-17 -57 -14 -76 4 -25 8 24 14 48 12 54 -2 6 -9 -7 -16
-29z"/>
<path d="M525 2062 c16 -11 45 -60 45 -75 0 -8 8 -17 18 -19 15 -4 12 5 -16
48 -19 30 -40 54 -46 54 -7 0 -8 -3 -1 -8z"/>
<path d="M286 2022 c-18 -30 21 -53 54 -32 12 8 11 10 -7 10 -12 0 -26 7 -31
16 -6 10 -12 13 -16 6z"/>
<path d="M330 2020 c0 -5 14 -10 31 -10 17 0 28 4 24 10 -3 6 -17 10 -31 10
-13 0 -24 -4 -24 -10z"/>
<path d="M1328 2003 c12 -2 23 -10 23 -16 1 -7 3 -28 4 -47 6 -64 8 -70 24
-70 27 0 -9 -27 -51 -38 -35 -10 -38 -9 -38 11 0 18 -2 19 -12 5 -12 -14 -68
-38 -91 -38 -5 0 -7 7 -4 15 4 8 2 17 -4 21 -17 10 -20 -2 -8 -29 10 -22 15
-24 36 -16 31 12 36 11 28 -1 -3 -5 0 -10 7 -10 10 0 9 -3 -2 -11 -12 -8 -10
-9 8 -4 28 8 52 -10 52 -38 0 -11 8 -26 17 -33 25 -17 11 -27 -50 -35 -40 -6
-32 -7 31 -4 81 3 83 2 76 -18 -9 -31 -30 -51 -44 -42 -8 5 -5 14 11 31 12 13
17 24 10 24 -6 0 -14 -7 -17 -15 -4 -8 -12 -15 -19 -15 -7 0 -29 -13 -50 -30
-65 -51 -114 -35 -113 37 0 22 -4 49 -10 60 -12 21 -11 41 2 61 15 24 0 23
-27 -2 -33 -30 -33 -38 -4 -51 46 -20 34 -65 -52 -200 -20 -32 -25 -50 -22
-91 2 -33 -3 -63 -13 -82 -9 -17 -15 -41 -15 -54 1 -13 -6 -43 -15 -67 -20
-53 -20 -72 -1 -48 7 11 11 26 8 34 -5 13 -1 15 19 10 18 -5 25 -3 25 8 0 8
-4 12 -8 10 -10 -7 -22 27 -12 34 13 9 33 60 33 81 0 19 1 19 34 -1 29 -17 34
-18 40 -4 4 11 -5 21 -29 32 -19 9 -35 20 -35 25 0 11 28 10 35 -2 3 -5 18
-10 33 -9 22 1 18 4 -20 17 -42 13 -48 19 -48 43 0 35 45 125 66 133 24 9 37
-3 22 -22 -10 -14 -10 -15 2 -4 8 6 25 12 38 12 13 0 43 12 67 26 43 25 45 25
68 7 20 -15 25 -27 25 -68 0 -78 -5 -94 -28 -88 -11 3 -20 1 -20 -5 0 -6 14
-13 30 -17 35 -8 34 -4 16 -72 -14 -51 -9 -67 11 -40 5 6 9 62 9 124 -1 61 2
109 6 106 8 -4 9 14 12 225 1 96 -3 137 -11 144 -7 6 -13 32 -13 59 0 49 0 49
-32 48 -24 -1 -27 -3 -10 -6z m43 -202 c-6 -11 -20 -25 -31 -31 -11 -6 -20
-16 -20 -22 0 -6 11 -1 25 12 26 25 26 25 29 -35 2 -43 -28 -45 -50 -3 -21 42
-54 79 -65 72 -5 -3 -9 1 -9 9 0 10 14 13 60 11 37 -1 60 2 60 9 0 6 3 8 6 5
3 -4 1 -16 -5 -27z"/>
<path d="M1793 1965 c33 -72 46 -93 47 -75 0 11 6 8 20 -9 11 -13 20 -19 20
-13 0 6 -15 28 -32 50 -18 22 -43 53 -56 69 l-23 28 24 -50z"/>
<path d="M1444 1954 c-4 -26 -1 -75 6 -113 7 -36 17 -113 24 -171 6 -58 14
-104 19 -103 4 1 15 7 25 13 12 8 13 13 5 16 -7 3 -13 12 -13 20 0 9 -4 12
-10 9 -5 -3 -10 1 -10 9 0 9 18 27 39 40 46 29 56 42 40 52 -8 4 -9 3 -5 -4 7
-12 -30 -36 -43 -27 -5 3 -12 -1 -15 -7 -3 -7 -3 -2 0 11 4 17 3 21 -6 16 -9
-5 -10 -2 -6 13 4 11 2 23 -4 27 -5 3 -10 18 -10 33 1 15 -2 59 -5 97 -3 47
-2 64 4 50 5 -11 10 -32 10 -46 2 -45 20 -83 50 -104 16 -10 28 -22 26 -25 -1
-3 3 -11 11 -18 12 -11 14 -10 14 5 0 10 -18 31 -39 47 -40 29 -51 56 -51 125
0 36 -22 81 -40 81 -5 0 -12 -21 -16 -46z"/>
<path d="M1614 1943 c1 -35 6 -66 9 -69 4 -4 4 -19 2 -33 -5 -25 -5 -25 6 -4
9 17 8 38 -4 95 l-16 73 3 -62z"/>
<path d="M1060 1980 c-12 -8 -12 -10 2 -15 19 -7 38 1 38 16 0 12 -21 11 -40
-1z"/>
<path d="M410 1932 c0 -4 20 -12 45 -18 51 -12 61 -1 14 15 -37 13 -59 14 -59
3z"/>
<path d="M1733 1913 c3 -16 13 -75 22 -133 21 -133 44 -215 56 -203 6 6 3 26
-9 54 -11 25 -22 72 -24 105 -5 63 -36 204 -45 204 -3 0 -3 -12 0 -27z"/>
<path d="M1760 1914 c6 -14 8 -30 4 -35 -3 -5 -1 -9 3 -9 5 0 9 -9 10 -20 2
-23 34 -93 40 -86 3 2 0 13 -5 23 -5 10 -17 48 -27 86 -10 37 -22 67 -26 67
-5 0 -4 -12 1 -26z"/>
<path d="M871 1854 c0 -18 -8 -66 -17 -108 -8 -42 -14 -82 -12 -88 6 -18 41
185 35 207 -3 14 -5 10 -6 -11z"/>
<path d="M991 1861 c-6 -10 -8 -21 -4 -24 3 -4 1 -12 -5 -20 -6 -7 -7 -18 -3
-26 5 -8 12 6 18 38 11 55 9 62 -6 32z"/>
<path d="M1206 1873 c-3 -3 1 -12 9 -20 14 -14 35 -10 35 6 0 10 -37 21 -44
14z"/>
<path d="M1413 1795 c0 -38 2 -53 4 -32 2 20 2 52 0 70 -2 17 -4 1 -4 -38z"/>
<path d="M2341 1829 c-29 -39 -36 -87 -21 -133 18 -55 29 -52 23 6 -4 39 0 67
15 106 23 59 17 67 -17 21z"/>
<path d="M950 1757 c0 -14 -8 -32 -18 -39 -10 -7 -22 -20 -27 -28 -5 -8 10 0
33 18 46 37 49 44 27 62 -13 11 -15 8 -15 -13z"/>
<path d="M1230 1739 c0 -15 4 -19 16 -15 12 5 15 2 10 -10 -4 -10 -1 -14 6
-12 19 7 20 24 3 42 -22 22 -35 20 -35 -5z"/>
<path d="M1964 1709 c-3 -6 3 -24 15 -40 17 -23 19 -33 11 -48 -8 -16 -6 -21
9 -26 15 -5 19 -16 20 -53 1 -68 -9 -108 -21 -91 -8 11 -9 10 -5 -3 3 -9 9
-34 12 -55 l6 -38 -20 35 c-11 19 -20 31 -21 27 0 -15 70 -178 115 -265 52
-102 21 -73 -47 43 -50 84 -47 79 -53 73 -8 -8 135 -219 145 -213 6 4 10 -3
10 -14 0 -12 3 -21 8 -21 12 0 45 -76 45 -104 0 -14 3 -23 7 -21 5 3 12 -9 15
-27 4 -18 11 -39 15 -48 5 -8 13 -33 19 -56 6 -23 22 -53 36 -68 14 -15 34
-45 45 -67 11 -21 23 -39 25 -39 3 0 -2 14 -10 31 -9 17 -14 33 -11 36 3 3 28
-11 55 -32 28 -20 55 -34 59 -31 5 3 17 -3 27 -14 18 -19 17 -20 -11 -20 -17
0 -35 5 -41 11 -8 8 -13 8 -17 0 -4 -6 4 -16 18 -23 14 -6 26 -16 26 -21 0 -6
9 -2 19 7 13 12 21 14 26 6 3 -5 11 -8 16 -4 6 3 21 -6 35 -20 19 -19 33 -24
52 -20 29 6 104 -22 156 -58 l31 -22 -25 28 c-40 44 -149 111 -220 136 -36 12
-106 47 -156 78 -102 61 -109 71 -144 198 -29 106 -51 164 -62 164 -5 0 -6 4
-3 10 3 5 -15 47 -41 92 -58 103 -95 184 -100 223 -3 17 1 78 7 136 l12 106
-37 67 c-20 36 -39 66 -41 66 -2 0 -7 -5 -11 -11z"/>
<path d="M1586 1695 c-3 -8 1 -18 8 -22 7 -5 18 -17 24 -28 9 -16 11 -17 12
-3 0 9 3 23 6 31 4 11 -1 13 -21 10 -20 -4 -24 -2 -19 11 3 9 4 16 1 16 -3 0
-7 -7 -11 -15z"/>
<path d="M1083 1677 c-6 -6 -13 -20 -16 -29 -5 -15 -4 -16 13 -6 11 7 22 18
24 25 7 17 -10 25 -21 10z"/>
<path d="M1421 1660 c-1 -14 5 -63 13 -110 8 -47 17 -111 21 -143 4 -32 9 -57
11 -54 7 6 -13 168 -31 262 -7 39 -13 59 -14 45z"/>
<path d="M2758 1634 c-4 -3 -37 -9 -75 -13 -57 -7 -61 -9 -23 -9 44 -2 165 25
124 27 -11 1 -23 -2 -26 -5z"/>
<path d="M50 1565 c7 -8 31 -30 54 -48 35 -28 38 -29 22 -7 -11 14 -35 35 -54
48 -21 14 -30 17 -22 7z"/>
<path d="M1675 1563 c11 -3 24 -9 30 -14 5 -5 17 -9 26 -9 20 0 33 -28 20 -44
-6 -7 -4 -15 3 -22 9 -9 16 -1 27 31 l16 43 -55 11 c-54 11 -109 14 -67 4z"/>
<path d="M1503 1525 c2 -36 8 -39 41 -26 18 7 18 8 3 14 -9 3 -17 16 -17 27 0
11 -6 20 -14 20 -10 0 -14 -10 -13 -35z"/>
<path d="M890 1547 c0 -5 4 -17 10 -27 5 -10 14 -43 19 -72 l9 -53 1 50 c1 35
-5 59 -19 80 -11 17 -20 26 -20 22z"/>
<path d="M1485 1400 c6 -139 43 -343 61 -336 17 6 28 -4 67 -66 20 -32 42 -58
49 -57 10 0 10 2 1 5 -7 3 -9 13 -6 22 3 12 2 13 -4 4 -13 -17 -82 130 -88
189 -3 24 -17 85 -31 134 -14 50 -26 104 -25 120 0 17 -6 48 -14 70 -15 38
-15 34 -10 -85z"/>
<path d="M992 1485 c0 -16 3 -50 7 -75 6 -33 9 -37 9 -15 0 17 -3 50 -7 75 -6
33 -9 37 -9 15z"/>
<path d="M1530 1478 c0 -7 12 -44 25 -83 14 -38 25 -77 25 -85 0 -8 9 -26 20
-40 22 -28 26 -45 8 -34 -7 4 -8 3 -4 -5 4 -6 11 -9 15 -7 4 3 7 -12 6 -32 -1
-20 3 -50 8 -67 11 -33 37 -67 37 -48 0 7 -5 15 -10 18 -7 4 -7 13 0 26 12 21
4 43 -11 34 -5 -4 -9 -2 -9 4 0 5 5 11 10 13 9 3 5 19 -26 103 -4 11 -9 31
-10 45 -6 49 -15 70 -30 70 -8 0 -12 5 -9 10 3 6 0 10 -7 11 -7 0 5 9 27 19
37 17 34 25 -7 21 -16 -2 -23 9 -19 32 0 4 -8 7 -19 7 -11 0 -20 -6 -20 -12z"/>
<path d="M950 1443 c0 -21 7 -56 15 -78 14 -40 14 -40 15 -9 0 51 -12 124 -21
124 -5 0 -9 -17 -9 -37z"/>
<path d="M1150 1460 c0 -6 11 -15 24 -20 13 -5 26 -14 28 -21 3 -9 16 -8 51 6
26 10 50 21 52 25 5 8 -46 -2 -77 -15 -11 -4 -29 1 -48 15 -16 12 -30 16 -30
10z"/>
<path d="M858 1455 c-3 -6 3 -25 13 -44 16 -29 19 -32 25 -16 5 11 2 22 -8 29
-8 6 -17 18 -20 26 -2 7 -7 10 -10 5z"/>
<path d="M1672 1433 c11 -12 14 -30 11 -53 -7 -44 6 -34 17 13 8 37 -2 57 -29
57 -12 0 -12 -3 1 -17z"/>
<path d="M1860 1429 c0 -2 14 -42 30 -89 17 -47 27 -69 24 -50 -8 44 -55 165
-54 139z"/>
<path d="M0 1400 c0 -13 3 -20 7 -16 4 3 12 -3 19 -16 10 -18 9 -24 -5 -35
-14 -11 -13 -12 11 -13 40 0 40 11 2 59 -30 38 -34 41 -34 21z"/>
<path d="M660 1360 c-1 -36 -2 -85 -1 -110 1 -57 -12 -116 -27 -113 -7 2 -9
-9 -6 -30 5 -29 2 -33 -34 -49 -21 -10 -46 -18 -55 -18 -9 0 -17 -4 -17 -9 0
-5 -16 -15 -35 -22 -60 -22 -30 -21 44 1 41 13 83 34 100 49 43 40 51 86 42
236 -6 98 -9 114 -11 65z"/>
<path d="M1750 1383 c0 -11 9 -31 20 -44 25 -31 25 -23 0 26 -15 29 -20 33
-20 18z"/>
<path d="M1242 1375 c-11 -13 -9 -15 12 -15 14 0 28 -5 31 -10 4 -6 11 -8 16
-4 5 3 -1 14 -15 25 -28 22 -27 22 -44 4z"/>
<path d="M295 1330 c-3 -5 7 -12 22 -15 72 -15 70 -16 43 5 -27 21 -55 26 -65
10z"/>
<path d="M893 1298 c-46 -47 -51 -58 -28 -58 27 0 77 54 73 78 -3 22 -6 20
-45 -20z"/>
<path d="M1660 1336 c0 -17 28 -77 47 -104 37 -49 39 -32 3 21 -16 25 -30 54
-30 66 0 12 -4 21 -10 21 -5 0 -10 -2 -10 -4z"/>
<path d="M56 1311 c-18 -7 -15 -12 23 -50 24 -24 45 -41 47 -38 5 5 -16 68
-29 85 -11 13 -14 14 -41 3z"/>
<path d="M1875 1260 c3 -35 9 -68 14 -73 11 -11 4 61 -10 108 -7 22 -8 13 -4
-35z"/>
<path d="M1153 1294 c-3 -8 2 -38 11 -66 18 -56 21 -114 7 -123 -5 -3 -9 -45
-7 -94 1 -50 -2 -87 -6 -85 -12 7 -10 -4 6 -39 23 -50 46 -126 46 -150 0 -30
49 -168 49 -140 1 24 -21 131 -44 208 -21 75 -31 311 -14 332 12 14 12 16 0 8
-11 -6 -13 -3 -8 16 4 13 7 28 7 33 0 4 9 6 20 3 20 -5 34 11 57 65 17 39 -7
27 -28 -14 -10 -21 -24 -33 -42 -35 -23 -3 -27 1 -33 34 -5 21 -7 44 -6 51 4
17 -7 15 -15 -4z"/>
<path d="M1391 1267 c-1 -21 8 -55 19 -77 24 -48 25 -57 3 -39 -15 13 -15 12
-4 -9 8 -14 10 -35 6 -50 l-8 -27 -12 29 c-8 18 -10 40 -5 57 6 19 3 34 -7 48
-8 12 -12 24 -10 29 2 4 -4 15 -14 24 -23 22 -31 1 -11 -30 10 -15 13 -37 9
-70 -4 -32 1 -66 15 -110 12 -38 18 -76 14 -95 -5 -30 -2 -34 64 -79 l70 -47
0 27 c1 25 2 25 14 10 17 -23 25 -23 19 0 -3 11 -27 28 -58 41 -30 12 -60 30
-67 39 -11 14 -10 14 12 -1 38 -26 47 -20 16 12 -31 32 -31 36 -11 266 6 67 5
69 -11 48 -15 -22 -42 -33 -30 -14 4 5 2 20 -3 33 -9 20 -10 19 -10 -15z"/>
<path d="M941 1256 c-26 -27 -80 -160 -81 -196 0 -14 4 -31 9 -39 14 -22 44
45 46 104 1 48 23 115 36 115 4 0 9 9 12 20 7 25 5 25 -22 -4z"/>
<path d="M498 1187 c-20 -29 -72 -93 -118 -141 -45 -49 -88 -99 -97 -112 -8
-13 -20 -21 -27 -17 -6 3 -8 3 -4 -2 4 -4 -11 -41 -34 -82 -22 -41 -38 -77
-34 -80 3 -4 6 0 6 7 0 7 2 11 5 8 7 -7 -5 -39 -14 -34 -3 2 -7 -8 -8 -22 -5
-57 -9 -78 -21 -99 -28 -51 -54 -191 -32 -178 6 4 8 10 5 15 -3 5 17 27 44 48
28 22 47 42 44 46 -6 6 12 10 30 7 4 0 6 5 5 11 -2 7 6 13 16 13 11 0 20 7 22
15 1 8 5 23 9 33 7 17 6 18 -13 6 -11 -7 -19 -16 -17 -19 2 -3 -13 -17 -33
-30 -20 -14 -43 -31 -51 -38 -7 -7 -16 -11 -18 -8 -9 8 19 80 35 94 9 6 11 12
4 12 -6 0 -9 9 -6 23 3 12 10 40 15 62 6 22 10 47 11 55 1 8 4 17 7 20 3 3 18
28 33 55 20 38 33 51 53 53 19 2 25 0 20 -8 -4 -7 1 -7 14 2 29 18 26 31 -4
26 -14 -3 -25 -3 -25 0 0 11 66 91 75 92 6 1 30 26 55 56 25 31 52 63 61 73 9
10 25 33 34 52 18 33 18 34 0 19 -17 -14 -18 -13 -12 3 11 29 1 19 -35 -36z"/>
<path d="M1920 1232 c0 -20 38 -89 105 -192 34 -52 85 -134 114 -182 29 -49
55 -88 57 -88 9 0 -80 155 -157 275 -18 28 -52 84 -76 125 -23 41 -43 69 -43
62z"/>
<path d="M867 1199 c-11 -15 -16 -17 -20 -7 -5 12 -11 -15 -8 -35 0 -4 -8 -24
-19 -44 -11 -21 -20 -32 -20 -25 0 7 -4 11 -9 8 -5 -3 -7 -15 -4 -27 7 -26 12
-21 63 74 40 73 48 101 17 56z"/>
<path d="M20 1170 c0 -21 71 -65 84 -52 7 6 -62 72 -76 72 -5 0 -8 -9 -8 -20z"/>
<path d="M194 1169 c16 -23 55 -53 61 -47 6 6 -55 68 -66 68 -6 0 -4 -9 5 -21z"/>
<path d="M2233 1144 c27 -14 51 -23 54 -21 5 5 -83 47 -96 47 -3 -1 16 -12 42
-26z"/>
<path d="M1096 1135 c-10 -26 -7 -35 9 -35 17 0 19 18 6 38 -7 11 -10 10 -15
-3z"/>
<path d="M1477 1112 c-5 -6 -6 -16 -2 -21 3 -6 8 -31 10 -57 3 -26 9 -52 14
-58 5 -6 10 -15 11 -21 1 -5 6 -17 12 -25 14 -23 2 64 -19 135 -12 37 -22 55
-26 47z"/>
<path d="M5 1081 c3 -19 10 -40 16 -48 21 -24 20 -7 -1 38 -20 43 -20 43 -15
10z"/>
<path d="M213 1039 c0 -19 6 -29 21 -33 34 -9 43 -7 49 13 3 15 -4 22 -33 33
l-37 15 0 -28z"/>
<path d="M1635 1039 c4 -13 13 -30 20 -38 11 -11 12 -7 6 20 -3 18 -12 34 -20
37 -10 3 -11 -2 -6 -19z"/>
<path d="M680 1025 c-5 -14 -16 -25 -23 -25 -8 0 -19 -12 -26 -27 l-13 -28 26
24 c24 22 37 19 19 -5 -5 -5 0 -2 10 7 10 9 20 30 23 47 6 38 -3 42 -16 7z"/>
<path d="M1230 1006 c0 -33 13 -75 26 -80 8 -3 11 0 7 10 -5 14 -7 25 -12 72
-1 17 -21 15 -21 -2z"/>
<path d="M80 1008 c0 -3 5 -19 11 -37 11 -31 33 -41 42 -18 7 18 3 32 -7 29
-5 -2 -17 5 -27 14 -11 9 -19 15 -19 12z"/>
<path d="M63 927 c68 -67 107 -95 107 -79 0 4 -14 18 -31 31 -16 12 -35 33
-41 46 -6 13 -16 21 -23 19 -7 -3 -27 7 -46 22 -19 15 -3 -3 34 -39z"/>
<path d="M509 967 c-19 -12 -36 -32 -38 -42 -2 -15 4 -11 26 14 17 19 35 31
40 28 5 -3 10 0 10 8 0 19 2 19 -38 -8z"/>
<path d="M574 959 l-16 -31 26 18 c30 23 41 44 21 44 -8 0 -22 -14 -31 -31z"/>
<path d="M843 952 l-21 -38 20 -1 c15 -2 18 1 10 9 -8 8 -6 19 9 40 11 15 17
28 12 28 -4 0 -18 -17 -30 -38z"/>
<path d="M1937 923 c20 -32 40 -60 45 -61 4 -2 5 -9 2 -14 -4 -7 -2 -8 4 -4 7
4 12 3 12 -1 0 -10 37 -49 76 -82 16 -13 42 -35 58 -50 27 -24 28 -25 15 -3
-8 13 -35 38 -61 57 -41 30 -150 162 -165 201 -3 8 -9 14 -14 14 -5 0 8 -26
28 -57z"/>
<path d="M3 908 c-2 -17 33 -45 43 -35 7 7 -7 37 -18 37 -5 0 -7 4 -4 8 3 5
-1 9 -7 9 -7 0 -14 -9 -14 -19z"/>
<path d="M173 905 c-6 -14 -8 -25 -3 -25 4 0 11 7 14 16 4 10 12 14 22 10 10
-4 14 -1 12 6 -8 23 -33 19 -45 -7z"/>
<path d="M2963 899 c-15 -18 -71 -80 -122 -137 -84 -92 -115 -142 -89 -142 4
0 8 9 8 20 0 10 14 33 30 50 17 17 30 28 30 24 0 -4 11 10 25 30 24 36 70 89
128 149 15 16 26 32 23 34 -2 3 -17 -10 -33 -28z"/>
<path d="M2784 862 c-44 -24 -164 -133 -158 -143 8 -13 24 -11 25 4 1 6 26 35
57 62 35 32 53 43 48 30 -5 -13 7 -7 33 20 54 52 53 59 -5 27z"/>
<path d="M1262 855 c0 -11 3 -29 8 -40 9 -20 9 -20 9 0 1 17 3 17 11 5 5 -8
10 -10 10 -5 0 6 -5 17 -10 25 -9 13 -10 13 -11 0 0 -8 -5 -4 -9 10 -6 20 -8
21 -8 5z"/>
<path d="M0 851 c0 -6 12 -24 28 -40 15 -16 35 -43 45 -60 17 -30 17 -31 0
-24 -10 3 -27 13 -38 22 -11 9 -2 -4 19 -28 27 -30 35 -46 27 -54 -7 -7 -18
-7 -36 1 -39 18 -44 14 -10 -8 41 -27 51 -25 64 12 10 27 8 37 -13 72 -32 54
-86 122 -86 107z"/>
<path d="M1667 853 c-10 -9 -8 -73 2 -73 6 0 11 80 5 80 0 0 -4 -3 -7 -7z"/>
<path d="M722 812 c-6 -18 -7 -34 -2 -37 11 -7 24 38 18 57 -3 7 -10 -2 -16
-20z"/>
<path d="M2553 818 c-49 -37 -49 -39 2 -23 28 8 51 15 53 15 1 0 2 4 2 9 0 19
-30 19 -57 -1z"/>
<path d="M1266 753 c2 -20 16 -60 29 -88 47 -94 102 -184 80 -130 -4 11 -23
63 -41 115 -38 107 -54 140 -65 140 -5 0 -6 -17 -3 -37z"/>
<path d="M665 760 c-3 -5 -14 -10 -24 -10 -10 0 -25 -9 -32 -20 -23 -34 -151
-41 -134 -7 4 7 -1 3 -10 -8 -15 -19 -15 -20 2 -24 10 -2 20 -7 23 -11 3 -4
31 -2 62 5 50 10 56 9 45 -4 -10 -12 -9 -13 5 -5 15 8 78 81 78 90 0 8 -9 4
-15 -6z"/>
<path d="M705 738 c4 -18 16 -46 27 -61 11 -16 18 -30 16 -32 -2 -2 -20 -15
-40 -29 -25 -17 -39 -21 -42 -13 -4 7 -4 0 -1 -15 3 -16 1 -28 -5 -28 -20 0
-9 -42 18 -69 21 -21 36 -27 65 -27 20 1 37 -1 37 -5 0 -17 107 -79 137 -79
52 0 104 52 124 124 l9 31 -20 -25 c-11 -14 -20 -29 -20 -33 0 -5 -12 -22 -27
-38 -39 -40 -83 -39 -153 5 -29 19 -59 32 -65 30 -6 -3 -21 5 -33 16 -12 12
-26 19 -31 16 -5 -3 -17 7 -26 22 l-18 27 22 -20 22 -19 -7 28 c-6 24 -1 34
34 69 39 40 41 43 27 67 -8 14 -21 40 -30 58 -8 17 -18 32 -21 32 -3 0 -3 -15
1 -32z"/>
<path d="M1659 768 c-7 -18 -7 -94 1 -107 7 -11 9 2 10 47 0 34 -2 62 -5 62
-3 0 -5 -1 -6 -2z"/>
<path d="M415 687 c-6 -7 -22 -27 -35 -44 -15 -20 -32 -33 -46 -33 -13 0 -26
-4 -29 -10 -4 -6 6 -7 24 -4 19 4 37 1 46 -6 13 -11 14 -10 9 4 -4 10 4 30 21
51 25 33 33 67 10 42z"/>
<path d="M2515 690 c-8 -12 20 -24 35 -15 5 3 10 10 10 16 0 12 -37 12 -45 -1z"/>
<path d="M2186 627 c5 -21 1 -33 -17 -51 -38 -36 -58 -39 -71 -11 -12 27 -47
41 -73 31 -12 -4 -15 -19 -13 -63 3 -57 2 -58 -31 -75 -36 -19 -56 -15 -47 8
3 8 1 14 -5 14 -5 0 -9 -17 -8 -37 1 -21 -1 -60 -5 -88 -3 -27 -8 -75 -11
-105 -2 -30 -8 -80 -13 -110 -5 -30 -7 -75 -3 -100 6 -40 8 -35 14 50 4 52 15
149 23 216 l16 121 57 18 c31 10 57 20 59 20 1 1 -7 23 -18 49 -25 59 -25 76
-2 76 20 0 47 -40 57 -87 9 -43 20 -42 44 5 23 45 53 74 67 64 5 -4 20 -22 33
-40 21 -30 25 -32 40 -18 10 9 21 13 24 9 4 -3 2 8 -4 25 -6 18 -15 29 -21 26
-5 -3 -7 -13 -4 -21 13 -33 -52 21 -73 61 -16 32 -19 35 -15 13z"/>
<path d="M490 632 c0 -11 50 -57 78 -71 30 -16 27 -3 -10 39 -17 19 -28 29
-24 23 4 -7 3 -13 -2 -13 -6 0 -12 7 -16 15 -6 16 -26 21 -26 7z"/>
<path d="M20 610 c0 -11 7 -23 15 -26 10 -4 15 -19 15 -43 0 -27 7 -44 25 -61
14 -13 25 -18 25 -12 0 6 -4 13 -9 16 -5 3 -11 15 -14 26 -3 11 -1 18 3 15 22
-13 17 17 -10 59 -32 49 -50 59 -50 26z"/>
<path d="M470 571 c25 -22 47 -38 49 -36 5 6 -73 75 -84 75 -5 0 10 -18 35
-39z"/>
<path d="M2321 579 c13 -19 35 -58 48 -87 14 -29 28 -52 33 -52 15 0 8 45 -17
95 -19 38 -23 43 -19 20 l6 -30 -19 30 c-11 17 -28 37 -38 45 -12 10 -10 4 6
-21z"/>
<path d="M230 505 c0 -14 37 -41 46 -33 6 6 -26 48 -37 48 -5 0 -9 -7 -9 -15z"/>
<path d="M575 510 c-10 -17 14 -38 35 -33 25 7 25 19 1 33 -24 13 -28 13 -36
0z"/>
<path d="M1068 493 c5 -10 18 -40 31 -68 13 -27 28 -62 34 -77 13 -31 15 -32
36 -19 12 8 12 12 -2 25 -9 9 -19 33 -23 52 -4 24 -11 34 -20 30 -8 -3 -14 1
-14 10 0 18 -29 64 -41 64 -5 0 -5 -8 -1 -17z"/>
<path d="M1244 434 c21 -44 51 -73 62 -61 2 1 -3 23 -11 47 -7 25 -14 37 -14
28 -1 -26 -16 -22 -41 10 -18 24 -18 21 4 -24z"/>
<path d="M2914 423 c1 -23 7 -38 16 -41 13 -4 13 -3 2 11 -10 11 -11 21 -3 35
6 11 7 22 4 26 -14 14 -20 4 -19 -31z"/>
<path d="M192 426 c-33 -12 -33 -12 -12 -31 11 -10 20 -15 20 -11 0 4 15 -4
33 -18 38 -29 67 -34 67 -11 0 30 -29 85 -44 85 -20 0 -20 -5 0 -36 21 -32 12
-42 -16 -17 -12 12 -18 26 -14 36 3 10 5 16 3 16 -2 -1 -19 -7 -37 -13z"/>
<path d="M333 428 c19 -14 23 -39 12 -73 -8 -26 48 -85 80 -85 13 0 25 -6 28
-14 3 -8 17 -22 31 -31 24 -16 27 -16 61 5 53 33 48 63 -22 132 -59 57 -109
91 -101 68 2 -6 8 -12 13 -12 6 -1 19 -14 31 -29 11 -16 24 -26 27 -22 4 3 7
1 7 -5 0 -6 13 -18 29 -26 26 -14 50 -61 37 -74 -3 -2 -17 3 -31 12 -25 17
-25 16 -13 -3 23 -37 -3 -36 -69 3 -60 34 -93 87 -72 113 9 10 14 11 19 3 4
-6 7 3 8 19 1 39 -23 42 -33 4 l-6 -27 -12 24 c-7 13 -19 25 -27 28 -10 3 -9
0 3 -10z"/>
<path d="M0 365 c0 -6 35 -46 78 -91 44 -45 103 -117 133 -162 59 -89 80 -104
29 -20 -60 97 -240 302 -240 273z"/>
<path d="M125 360 c-3 -6 -18 -10 -33 -10 l-26 0 21 -21 c24 -25 106 -38 118
-20 11 19 -20 56 -48 59 -14 1 -29 -3 -32 -8z"/>
<path d="M1354 358 c-5 -8 -2 -9 11 -4 13 5 25 -1 43 -21 13 -15 21 -22 17
-15 -3 6 0 12 7 12 20 1 -32 40 -53 40 -10 0 -21 -5 -25 -12z"/>
<path d="M1210 326 c0 -7 -9 -25 -20 -39 -19 -24 -20 -31 -9 -67 7 -22 16 -40
20 -40 4 0 10 -19 13 -42 3 -24 8 -64 11 -91 4 -26 11 -47 16 -47 14 0 -1 159
-18 194 -11 20 -13 44 -8 87 4 33 4 59 1 59 -3 0 -6 -6 -6 -14z"/>
<path d="M1304 325 c16 -16 46 -20 46 -6 0 10 -24 21 -47 21 -13 0 -13 -2 1
-15z"/>
<path d="M0 266 c0 -8 7 -21 15 -30 8 -8 15 -17 15 -21 0 -12 53 -75 63 -75 6
0 1 10 -10 23 -11 12 -33 43 -48 70 -28 50 -35 56 -35 33z"/>
<path d="M123 274 c3 -6 39 -34 79 -61 51 -35 86 -52 118 -56 l45 -6 -29 24
c-17 13 -33 22 -36 20 -4 -2 -27 9 -51 26 -34 24 -37 25 -14 5 37 -32 21 -34
-25 -3 -74 50 -94 62 -87 51z"/>
<path d="M930 273 c0 -5 23 -35 51 -66 33 -37 58 -57 72 -56 21 0 21 1 -3 12
-30 14 -41 28 -36 43 3 7 -15 26 -40 43 -24 18 -44 28 -44 24z"/>
<path d="M675 230 c13 -20 99 -73 158 -96 69 -27 70 -28 62 -14 -3 5 -55 34
-116 65 -61 30 -107 51 -104 45z"/>
<path d="M2487 233 c-11 -10 -8 -25 3 -18 6 4 17 1 25 -5 8 -7 29 -16 47 -20
18 -4 42 -11 53 -14 11 -3 2 3 -20 14 -22 11 -46 20 -54 20 -8 0 -22 7 -31 15
-9 8 -20 12 -23 8z"/>
<path d="M557 192 c-10 -10 -17 -21 -17 -24 0 -5 104 -82 137 -101 7 -5 9 0 6
14 -6 21 -70 67 -86 61 -5 -1 -6 2 -2 8 6 9 -8 15 -30 10 -5 -1 -4 4 2 11 10
10 22 7 58 -19 24 -17 47 -27 50 -22 3 5 -12 21 -34 34 -22 14 -42 30 -46 36
-9 15 -20 12 -38 -8z"/>
<path d="M425 170 c-7 -23 10 -50 31 -50 21 0 38 38 23 56 -17 21 -47 17 -54
-6z"/>
<path d="M2465 170 c-7 -23 7 -46 39 -61 17 -9 17 -7 -3 9 -18 14 -23 26 -19
46 6 31 -8 35 -17 6z"/>
<path d="M2830 170 c25 -20 93 -68 118 -84 6 -4 12 -5 12 -2 0 3 -18 18 -40
32 -22 15 -37 30 -34 35 4 8 -1 10 -21 9 -3 -1 -13 6 -21 15 -9 8 -21 15 -27
15 -7 0 -1 -9 13 -20z"/>
<path d="M935 140 c3 -5 1 -10 -4 -10 -6 0 -11 -5 -11 -10 0 -7 6 -7 19 0 22
11 75 -6 65 -21 -3 -5 2 -9 10 -9 9 0 16 -6 16 -14 0 -8 17 -24 37 -36 l37
-21 -35 39 c-40 47 -156 117 -134 82z"/>
<path d="M285 130 c5 -8 22 -32 38 -52 25 -31 28 -40 17 -53 -7 -8 -8 -15 -2
-15 5 0 15 6 21 14 16 19 4 40 -45 86 -21 19 -34 28 -29 20z"/>
<path d="M720 95 c-10 -12 -8 -16 15 -25 34 -13 40 -8 23 19 -15 25 -21 26
-38 6z"/>
<path d="M808 71 c-20 -42 -23 -71 -8 -71 6 0 10 9 10 20 0 11 4 20 9 20 5 0
7 10 3 22 -4 17 -2 20 12 15 10 -4 22 -7 27 -7 5 0 9 -8 9 -17 1 -23 28 -59
37 -49 13 13 -54 106 -77 106 -3 0 -13 -18 -22 -39z"/>
<path d="M508 38 c-7 -21 40 -38 103 -38 50 0 57 2 52 16 -5 12 -15 15 -44 11
-24 -3 -40 -1 -43 7 -3 7 -8 6 -15 -4 -10 -13 -13 -13 -22 3 -12 20 -26 22
-31 5z"/>
<path d="M446 24 c-9 -23 -8 -24 19 -22 28 3 31 8 13 26 -16 16 -25 15 -32 -4z"/>
</g>
</svg>
