<?xml version="1.0" standalone="no"?>
<!DOCTYPE svg PUBLIC "-//W3C//DTD SVG 20010904//EN"
 "http://www.w3.org/TR/2001/REC-SVG-20010904/DTD/svg10.dtd">
<svg version="1.0" xmlns="http://www.w3.org/2000/svg"
 width="300.000000pt" height="425.000000pt" viewBox="0 0 300.000000 425.000000"
 preserveAspectRatio="xMidYMid meet">
<metadata>
Created by potrace 1.10, written by Peter Selinger 2001-2011
</metadata>
<g transform="translate(0.000000,425.000000) scale(0.100000,-0.100000)"
fill="#000000" stroke="none">
<path d="M185 4231 c40 -19 233 -216 228 -233 -2 -4 4 -8 12 -8 8 0 15 -4 15
-10 0 -5 -4 -10 -10 -10 -5 0 -10 -8 -10 -17 1 -16 3 -15 19 4 l18 22 1 -30
c0 -16 -4 -29 -9 -29 -15 0 -10 -17 6 -24 9 -3 15 -1 14 7 -3 23 1 37 11 37 6
0 10 -11 10 -24 0 -14 5 -28 10 -31 15 -9 12 -25 -5 -25 -8 0 -15 5 -15 10 0
6 -4 10 -10 10 -12 0 -13 -37 -1 -44 4 -3 17 1 27 9 26 20 34 18 34 -4 0 -20
49 -86 57 -77 3 2 -1 14 -7 26 -9 18 -9 24 1 30 11 7 15 24 18 68 1 9 5 9 19
1 20 -13 44 -58 36 -70 -3 -5 4 -9 14 -9 15 0 19 5 15 19 -11 42 16 26 64 -37
29 -37 97 -112 152 -165 85 -83 115 -104 193 -142 53 -25 110 -45 133 -46 22
-2 48 -6 58 -11 12 -6 17 -5 17 6 0 10 -18 16 -62 21 -111 13 -236 85 -347
199 -71 72 -78 100 -10 39 47 -42 44 -31 -9 35 -19 23 -39 42 -44 42 -6 0 -6
-6 1 -14 8 -10 9 -16 1 -21 -13 -8 -30 3 -30 20 0 8 -6 18 -14 22 -7 4 -31 35
-52 68 -54 84 -163 225 -174 225 -4 0 -6 -9 -3 -19 11 -41 -42 -83 -63 -50 -3
6 -15 8 -26 5 -14 -3 -27 3 -39 17 -24 28 -23 34 1 42 25 8 25 17 2 32 -16 9
-18 8 -18 -10 2 -38 -20 -27 -104 58 l-85 85 43 0 c24 0 41 4 38 9 -6 10 -49
8 -85 -4 -16 -5 -21 -4 -17 4 5 7 -4 11 -26 11 l-33 0 40 -19z m444 -285 c12
-22 21 -36 21 -31 0 6 9 -3 19 -19 21 -32 19 -46 -6 -46 -11 0 -14 6 -10 21 3
12 3 19 0 16 -2 -3 -16 4 -30 16 -96 83 -89 73 -69 96 18 20 21 20 37 5 10 -9
27 -35 38 -58z m-93 -9 c1 -41 -11 -56 -29 -38 -9 9 -8 14 3 21 12 8 12 11 -3
28 -23 25 -21 34 6 30 18 -2 22 -10 23 -41z m54 -54 c0 -17 -40 -27 -54 -13
-8 8 -5 16 14 30 25 19 39 12 40 -17z"/>
<path d="M393 4238 c-3 -6 -16 -8 -29 -5 -12 2 -29 0 -36 -4 -9 -6 -6 -9 11
-9 19 0 21 -2 11 -15 -6 -8 -10 -20 -7 -27 4 -8 6 -7 6 4 1 21 15 30 35 22 23
-9 20 -33 -6 -44 -23 -9 -23 -9 -2 -9 12 -1 28 8 35 20 18 27 109 38 128 15
10 -11 8 -17 -10 -29 -16 -12 -19 -18 -10 -29 7 -7 18 -22 25 -32 8 -11 18
-16 25 -11 9 5 7 11 -8 22 -20 13 -20 40 -1 28 5 -3 5 9 -1 27 -5 18 -9 33 -9
34 0 1 85 1 189 0 l189 -2 61 -57 c34 -31 61 -58 61 -61 0 -14 -80 20 -106 46
-22 21 -33 26 -36 16 -4 -10 -19 -7 -66 14 -53 22 -60 24 -52 9 11 -22 107
-64 116 -50 7 12 64 -28 61 -43 -1 -7 32 -16 83 -24 97 -14 226 -61 285 -103
22 -15 55 -36 73 -45 29 -15 35 -15 54 -1 13 8 32 15 45 15 12 0 33 11 47 25
31 30 19 32 -28 4 -47 -28 -120 -20 -175 18 -47 32 -49 40 -18 52 22 9 42 -6
83 -63 7 -11 16 -17 19 -15 2 3 -8 23 -24 45 -16 21 -38 61 -49 87 l-21 48 22
-7 c40 -12 301 -134 312 -145 7 -8 -2 -10 -32 -7 -23 2 -39 -1 -36 -6 3 -4 28
-6 54 -3 43 5 57 2 114 -28 36 -19 68 -35 71 -35 3 0 3 12 0 26 -6 22 -4 25 9
20 9 -3 13 -2 10 4 -3 6 -15 10 -25 10 -10 0 -20 6 -23 13 -2 6 -7 9 -11 6 -4
-4 0 -13 8 -22 12 -12 13 -16 2 -20 -7 -3 -45 14 -85 38 -40 24 -138 71 -219
105 -81 34 -157 68 -169 76 -32 20 -95 40 -235 75 -121 30 -124 30 -232 18
-109 -12 -328 -7 -429 10 -28 5 -50 4 -54 -1z m630 -38 c87 -12 272 -64 294
-81 11 -10 43 -72 43 -84 0 -11 -77 -26 -103 -21 -32 7 -148 63 -157 76 -3 4
-27 19 -55 33 -43 22 -120 87 -103 87 4 0 40 -5 81 -10z"/>
<path d="M1091 4240 c86 -11 313 -62 320 -72 8 -12 59 8 59 23 0 6 9 9 19 6
14 -3 18 -1 14 9 -6 16 13 19 22 3 4 -6 19 -7 36 -4 29 7 30 6 33 -32 1 -14
46 -63 58 -63 4 0 8 9 8 19 0 15 10 21 39 26 22 4 45 13 52 21 6 8 20 14 29
14 23 0 67 53 49 59 -6 2 -20 -7 -29 -19 l-17 -23 -19 21 c-10 12 -25 22 -34
22 -13 0 -13 -1 0 -10 12 -8 13 -13 3 -29 -10 -15 -10 -21 0 -24 21 -7 0 -19
-22 -12 -23 7 -28 44 -9 63 9 9 7 12 -10 12 -14 0 -22 -6 -22 -16 0 -9 -8 -23
-17 -30 -11 -8 -13 -13 -5 -14 17 0 15 -30 -3 -30 -8 0 -15 6 -15 13 0 40
-112 93 -124 60 -4 -10 -11 -11 -25 -3 -16 8 -23 5 -38 -16 -19 -26 -21 -26
-75 -15 -36 8 -59 18 -63 29 -5 14 -8 14 -15 2 -7 -12 -19 -12 -82 3 -40 10
-95 17 -123 16 l-50 -2 56 -7z"/>
<path d="M1860 4241 c0 -6 10 -17 21 -25 23 -16 63 -5 73 19 6 16 -35 7 -47
-9 -5 -7 -12 -5 -21 7 -15 19 -26 22 -26 8z"/>
<path d="M2027 4195 c-64 -65 -87 -108 -87 -158 0 -43 -10 -52 -36 -32 -10 8
-27 15 -37 15 -10 0 -17 6 -14 13 2 6 12 12 23 12 42 0 59 46 24 65 -11 6 -20
7 -20 2 0 -9 -12 -12 -70 -15 -44 -3 -50 -27 -21 -89 13 -27 20 -35 20 -23 0
11 -6 29 -14 39 -17 22 -20 66 -5 66 5 0 14 -8 19 -17 10 -17 12 -17 25 0 8
10 20 15 30 11 9 -3 16 -1 16 5 0 6 7 11 16 11 9 0 14 -7 12 -17 -3 -12 -12
-17 -27 -15 -28 3 -51 -14 -51 -38 0 -12 14 -21 45 -30 52 -15 60 -23 69 -72
4 -21 27 -64 54 -99 40 -53 54 -72 70 -98 1 -3 8 3 15 13 11 16 15 16 49 1 43
-17 68 -19 68 -5 0 6 -3 9 -7 8 -14 -3 -93 25 -93 33 0 4 19 5 43 3 l42 -4
-40 11 c-22 5 -52 8 -68 6 -23 -3 -33 4 -65 47 -44 58 -62 112 -62 184 0 43 6
58 45 110 24 34 58 68 75 77 32 17 36 14 20 -16 -14 -24 -4 -43 14 -27 6 6 10
24 8 40 -5 35 7 36 38 3 22 -23 22 -25 4 -31 -10 -4 -23 -13 -27 -21 -4 -7
-15 -13 -23 -13 -8 0 -13 -4 -9 -9 8 -15 63 12 82 39 24 34 23 55 -1 56 -12 1
-37 5 -57 9 -34 7 -39 4 -92 -50z"/>
<path d="M2331 4233 c0 -10 -3 -33 -7 -50 -5 -28 -3 -33 14 -33 11 0 25 7 32
15 16 19 6 47 -15 39 -8 -3 -15 -1 -15 5 0 6 4 11 10 11 5 0 7 7 4 15 -8 21
-23 19 -23 -2z"/>
<path d="M2380 4233 c0 -20 19 -25 35 -9 20 19 19 21 -10 21 -14 0 -25 -5 -25
-12z"/>
<path d="M2994 4150 c0 -58 1 -81 3 -52 2 28 2 76 0 105 -2 28 -3 5 -3 -53z"/>
<path d="M104 4213 c11 -13 25 -23 33 -23 19 0 96 -73 113 -107 8 -15 31 -47
52 -70 24 -27 38 -53 38 -70 1 -24 2 -26 11 -10 12 21 -2 47 -50 93 -17 16
-31 34 -31 40 0 23 -91 122 -118 129 -15 4 -36 14 -47 23 -20 17 -20 17 -1 -5z"/>
<path d="M2407 4199 c-20 -12 -14 -31 7 -23 17 6 66 -55 66 -81 0 -10 -3 -15
-7 -12 -7 8 -53 -31 -53 -45 0 -5 12 0 27 11 15 12 34 19 44 16 21 -7 35 11
15 18 -7 3 -16 21 -20 40 -4 19 -13 41 -22 48 -8 7 -13 18 -10 26 6 16 -21 17
-47 2z"/>
<path d="M2720 4193 c13 -20 16 -21 49 -7 56 24 52 35 -5 14 -19 -8 -31 -7
-42 2 -13 12 -14 11 -2 -9z"/>
<path d="M8 4177 c13 -15 92 -61 92 -53 0 6 -86 66 -96 66 -3 0 -2 -6 4 -13z"/>
<path d="M587 4158 c27 -13 36 -45 16 -57 -9 -5 -13 -14 -9 -20 6 -9 11 -9 22
0 11 9 17 9 29 -1 8 -6 19 -9 25 -5 6 4 20 -2 31 -14 18 -19 18 -21 2 -21 -9
0 9 -15 40 -34 67 -40 252 -182 319 -244 29 -27 52 -41 59 -36 8 4 9 3 5 -4
-4 -7 15 -23 51 -41 96 -49 95 -47 85 -119 l-9 -63 26 26 c24 24 25 27 8 36
-15 9 -16 13 -6 26 20 24 96 73 113 73 9 0 16 7 16 15 0 23 -31 18 -80 -13
l-44 -28 -47 31 c-27 16 -48 33 -48 37 -1 11 84 -4 95 -18 9 -11 16 -10 40 5
16 10 35 25 43 34 17 21 31 22 31 3 0 -8 13 -17 30 -21 16 -4 32 -11 35 -16 9
-14 25 -11 25 5 0 22 -54 56 -89 56 -19 0 -42 -11 -64 -30 -19 -16 -37 -30
-41 -30 -14 0 -4 25 25 57 31 36 35 63 10 71 -9 3 -11 0 -6 -9 5 -8 4 -11 -1
-6 -5 5 -9 12 -9 17 0 25 -326 233 -341 217 -2 -2 29 -22 69 -45 40 -23 115
-79 166 -125 99 -89 123 -117 96 -117 -8 0 -15 -7 -15 -16 0 -13 -7 -15 -36
-11 -19 3 -46 1 -60 -5 -20 -10 -28 -8 -48 11 -15 14 -30 20 -37 16 -8 -5 -10
-4 -5 3 4 6 -3 22 -15 36 -17 20 -25 23 -36 15 -7 -6 -13 -10 -14 -8 0 2 -2
12 -4 21 -2 9 -16 36 -32 60 -16 24 -32 50 -36 59 -9 27 -69 66 -110 73 -21 4
-35 11 -32 17 4 5 -1 9 -9 9 -9 0 -36 10 -61 22 -35 17 -45 27 -45 47 0 23 -1
23 -19 7 -18 -17 -19 -17 -25 1 -6 17 -75 64 -93 62 -4 0 2 -5 14 -11z m308
-196 c32 -18 62 -46 87 -81 21 -30 36 -56 33 -59 -2 -2 -19 10 -37 28 -18 18
-63 55 -100 82 -38 27 -68 51 -68 54 0 12 41 0 85 -24z"/>
<path d="M746 4109 c16 -17 42 -40 57 -51 l29 -21 -13 22 c-8 11 -17 21 -21
21 -5 0 -8 7 -8 15 0 8 -5 15 -11 15 -6 0 -17 7 -25 15 -30 29 -37 14 -8 -16z"/>
<path d="M217 4019 c23 -24 45 -40 49 -37 7 8 -41 55 -71 70 -11 6 -1 -9 22
-33z"/>
<path d="M2465 4040 c-3 -6 -3 -20 0 -31 7 -21 7 -21 32 3 l26 23 -8 -25 c-11
-37 -11 -83 0 -86 6 -2 20 11 31 29 l21 33 -21 25 c-25 28 -71 45 -81 29z m85
-52 c0 -7 -5 -20 -10 -28 -9 -13 -11 -13 -19 -1 -5 8 -7 20 -4 28 6 17 33 17
33 1z"/>
<path d="M2994 3785 c0 -143 2 -200 3 -127 2 73 2 190 0 260 -1 70 -3 10 -3
-133z"/>
<path d="M30 3950 c14 -12 43 -38 65 -58 69 -61 84 -70 26 -14 -31 29 -69 62
-86 73 l-30 21 25 -22z"/>
<path d="M264 3959 c-3 -6 0 -18 8 -27 27 -31 78 -141 78 -167 0 -14 4 -25 9
-25 16 0 -7 73 -48 152 -22 43 -43 73 -47 67z"/>
<path d="M2360 3941 c-35 -10 -59 -54 -41 -75 7 -9 23 -16 35 -15 21 0 21 0
-1 9 -16 6 -23 18 -23 35 0 28 20 33 44 10 18 -19 32 -19 39 -1 3 8 -1 13 -11
12 -11 -1 -16 5 -14 17 2 9 2 17 0 16 -2 -1 -14 -4 -28 -8z"/>
<path d="M1080 3920 l-24 -20 25 2 c19 2 27 -4 38 -29 8 -18 23 -35 33 -39 10
-3 18 -9 18 -14 0 -4 7 -10 15 -14 11 -4 15 2 15 21 0 20 -3 23 -14 14 -10 -9
-19 -7 -36 7 -25 20 -19 48 7 37 13 -4 14 -3 4 9 -7 8 -19 12 -26 10 -23 -9
-38 5 -24 22 17 21 -5 17 -31 -6z"/>
<path d="M2543 3913 c-6 -16 -16 -54 -22 -85 -15 -83 -69 -177 -92 -162 -5 3
-9 -4 -9 -15 0 -12 3 -21 6 -21 10 0 63 47 58 52 -7 8 30 36 57 43 22 5 28 3
33 -17 3 -13 15 -34 25 -47 17 -22 22 -23 43 -13 l23 11 -26 -5 c-23 -5 -28 1
-63 73 -23 48 -35 66 -31 45 5 -24 3 -33 -10 -38 -23 -9 -26 -2 -14 37 6 19
14 54 18 79 l6 45 37 -60 c33 -54 120 -135 145 -135 6 0 22 -11 37 -25 14 -13
26 -20 26 -16 0 13 -69 71 -85 71 -8 0 -15 4 -15 8 0 4 -22 31 -50 60 -27 29
-50 59 -50 67 0 8 -4 15 -10 15 -5 0 -13 14 -17 30 l-8 30 -12 -27z"/>
<path d="M1613 3912 c-28 -4 -30 -37 -5 -81 14 -26 21 -31 42 -26 43 11 43 29
0 39 -47 10 -49 16 -14 37 20 12 22 18 12 25 -7 6 -23 8 -35 6z"/>
<path d="M1674 3889 l-29 -31 35 21 c19 11 46 21 59 21 29 0 25 5 -10 13 -20
5 -32 0 -55 -24z"/>
<path d="M374 3851 c20 -29 37 -65 37 -80 1 -17 3 -20 6 -8 7 28 -15 82 -49
113 l-31 29 37 -54z"/>
<path d="M1575 3835 c4 -51 3 -56 -6 -32 -13 32 -27 31 -96 -9 -48 -28 -54
-37 -20 -29 28 7 37 0 66 -48 33 -53 39 -38 8 18 -21 38 -23 47 -12 52 23 8
43 -4 65 -39 l20 -33 0 30 c-1 17 -7 57 -15 90 l-14 60 4 -60z"/>
<path d="M1464 3870 c-5 -5 -23 -10 -41 -12 -31 -2 -61 -32 -43 -43 11 -7 100
43 100 56 0 12 -4 11 -16 -1z"/>
<path d="M1716 3848 c-21 -30 -20 -38 4 -38 36 0 126 -40 153 -68 14 -15 35
-49 47 -76 19 -46 20 -55 8 -117 -6 -37 -16 -66 -20 -63 -4 3 -10 -7 -14 -22
-10 -38 -23 -10 -27 55 -2 45 -5 51 -23 51 -12 0 -24 7 -28 15 -10 26 -34 5
-45 -41 -6 -24 -13 -44 -15 -44 -2 0 -2 21 0 48 5 52 -4 40 -27 -37 -7 -24
-28 -62 -46 -84 -18 -21 -33 -42 -33 -45 0 -4 14 -7 30 -7 17 0 30 3 30 6 0 3
14 6 30 7 38 1 40 -15 3 -21 -26 -4 -25 -4 5 -6 21 0 35 4 39 14 8 23 -2 28
-49 27 l-43 -1 55 15 c62 17 87 34 49 34 -13 0 -39 -4 -57 -9 -40 -12 -40 -8
-1 27 17 15 34 42 38 62 6 27 12 34 27 32 34 -7 44 -23 44 -76 0 -73 -71 -278
-115 -335 -19 -24 -35 -54 -35 -65 0 -33 -35 -81 -69 -96 -17 -7 -30 -15 -27
-17 2 -3 20 2 38 11 34 17 68 61 68 90 0 9 7 16 16 16 8 0 13 4 10 9 -8 12 19
45 32 38 14 -10 67 -105 81 -149 7 -20 18 -39 26 -42 19 -7 19 -2 -1 37 -16
31 -15 31 2 15 11 -11 18 -34 19 -62 2 -44 2 -44 -16 -23 -15 19 -18 19 -19 5
0 -9 5 -20 10 -23 6 -4 8 -10 5 -15 -3 -5 0 -12 6 -15 16 -11 37 15 44 56 5
29 2 41 -18 65 -14 16 -41 61 -62 99 -21 39 -44 79 -51 90 -18 25 -17 35 4 63
l18 23 109 -102 c61 -57 109 -109 107 -117 -2 -8 4 -31 12 -53 9 -21 13 -45
10 -53 -4 -11 0 -13 15 -9 25 6 24 2 6 46 -19 46 -19 67 0 67 9 0 18 7 21 15
4 8 11 12 17 8 6 -3 7 -1 3 5 -4 7 -4 17 0 23 4 8 9 7 15 -2 7 -11 9 -10 9 4
0 9 4 17 9 17 6 0 1 -20 -10 -45 -23 -52 -16 -76 31 -100 16 -8 41 -26 56 -40
14 -13 30 -23 34 -20 4 3 19 -6 33 -19 14 -13 58 -49 97 -80 68 -53 75 -56
129 -56 31 0 63 5 71 11 13 8 12 12 -7 26 -23 15 -31 43 -14 43 5 0 16 -10 24
-22 13 -19 16 -20 16 -6 1 9 -8 23 -20 32 -18 13 -23 12 -38 -2 -10 -10 -13
-20 -8 -23 36 -25 -67 -40 -109 -16 -30 17 -94 75 -94 84 0 5 10 14 21 22 20
12 25 9 63 -28 28 -29 36 -41 24 -41 -9 0 -20 4 -23 10 -3 5 -16 15 -28 21
-20 11 -20 10 3 -16 37 -40 80 -61 91 -43 6 9 -10 32 -52 74 l-61 61 16 31
c19 38 20 42 3 42 -7 0 -18 -15 -25 -32 -7 -18 -21 -44 -32 -56 l-20 -24 -58
39 c-32 22 -73 45 -90 52 -18 8 -32 18 -32 23 0 5 11 31 25 58 29 58 34 106 9
96 -9 -3 -27 -9 -41 -12 -23 -6 -24 -5 -15 12 9 16 -3 32 -81 111 -51 51 -100
93 -109 93 -16 0 128 -146 165 -166 16 -9 17 -16 5 -77 -7 -37 -17 -67 -22
-67 -4 0 -50 38 -101 84 -52 46 -107 94 -124 107 -26 19 -29 25 -18 38 17 20
42 81 42 101 0 8 6 15 14 15 8 0 22 18 32 40 10 22 18 34 18 26 1 -8 4 -11 7
-8 4 4 2 12 -4 19 -12 15 4 109 20 119 6 4 4 16 -5 30 -19 32 -12 109 12 109
11 1 7 6 -10 15 -15 8 -30 26 -33 39 -7 27 -43 66 -60 66 -5 0 -1 -7 10 -15
10 -8 15 -15 10 -15 -5 0 1 -12 15 -27 13 -14 18 -23 12 -19 -18 10 -16 -9 2
-24 8 -7 15 -22 15 -33 0 -17 -4 -15 -30 14 -30 34 -41 67 -17 53 8 -5 8 -2
-2 9 -7 9 -21 17 -30 17 -14 0 -14 2 -1 10 11 8 8 9 -12 4 -15 -3 -35 -1 -45
5 -17 10 -17 10 0 11 10 0 15 5 12 10 -12 20 -73 11 -89 -12z"/>
<path d="M499 3817 c-11 -24 -11 -30 2 -38 20 -12 42 -11 34 2 -4 6 -11 23
-15 37 l-7 27 -14 -28z"/>
<path d="M202 3806 c2 -8 -6 -22 -17 -30 -11 -8 -17 -18 -12 -22 4 -4 13 -2
19 4 14 14 42 16 33 2 -3 -5 7 -40 23 -77 16 -38 33 -77 37 -88 8 -19 9 -19
12 2 2 12 -8 52 -23 89 -37 93 -82 167 -72 120z"/>
<path d="M1646 3775 c-14 -13 -26 -34 -26 -46 l0 -21 18 22 c11 14 23 19 35
14 17 -6 16 -8 -5 -32 -13 -15 -15 -20 -5 -13 10 8 17 9 17 3 0 -6 14 -10 30
-10 34 1 67 -24 73 -56 4 -20 4 -20 6 2 1 23 -49 84 -79 95 -10 4 -11 6 -2 6
24 2 2 21 -24 21 -30 0 -31 14 -1 28 15 7 17 11 6 11 -9 1 -28 -10 -43 -24z"/>
<path d="M1721 3778 c0 -7 14 -24 32 -38 l32 -25 -23 32 c-27 38 -42 49 -41
31z"/>
<path d="M81 3765 c19 -47 74 -144 77 -136 4 13 -48 118 -66 134 -9 6 -13 8
-11 2z"/>
<path d="M409 3735 c-5 -5 5 -141 15 -201 4 -22 16 -50 27 -64 l20 -25 -14 30
c-20 40 -40 172 -35 224 3 37 -1 49 -13 36z"/>
<path d="M2385 3730 c-4 -6 12 -10 42 -10 35 0 44 3 33 10 -20 13 -67 13 -75
0z"/>
<path d="M357 3713 c-4 -3 -6 -27 -6 -52 l2 -46 7 50 c8 53 7 59 -3 48z"/>
<path d="M2120 3689 c-34 -15 -38 -18 -15 -14 42 8 48 9 70 23 32 18 -4 13
-55 -9z"/>
<path d="M787 3693 c-4 -7 -3 -14 3 -18 17 -11 11 -35 -12 -44 -12 -4 -17 -11
-11 -14 6 -4 18 2 28 13 13 15 15 25 8 46 -6 17 -12 24 -16 17z"/>
<path d="M1832 3669 c8 -23 13 -27 19 -17 13 20 11 26 -11 38 -18 10 -18 8 -8
-21z"/>
<path d="M488 3673 c-2 -10 2 -23 10 -28 12 -9 11 -20 -1 -68 l-15 -57 26 -6
c15 -3 37 -10 50 -15 33 -13 34 -12 18 26 -9 20 -13 42 -10 49 3 8 1 17 -5 21
-6 3 -11 13 -11 22 0 18 -38 73 -50 73 -5 0 -10 -8 -12 -17z m68 -150 c-3 -4
-17 -1 -30 5 -22 10 -24 15 -16 41 16 57 24 58 38 8 7 -27 11 -51 8 -54z"/>
<path d="M1694 3654 c19 -46 18 -51 -11 -57 -17 -3 -34 0 -44 9 -12 11 -18 12
-21 3 -3 -8 -9 -6 -21 5 -9 10 -17 12 -17 6 0 -6 -5 -8 -12 -4 -25 16 -112 3
-156 -22 -36 -21 -46 -24 -53 -13 -8 13 -10 12 -13 -10 0 -5 -16 -25 -34 -45
-18 -20 -27 -36 -21 -36 17 0 38 -32 39 -58 0 -12 9 -40 20 -62 24 -48 25 -53
3 -41 -48 26 -172 67 -335 110 -125 33 -185 53 -194 66 -13 17 -14 17 -14 2 0
-13 -9 -17 -43 -17 -24 0 -47 -4 -52 -9 -6 -5 -23 -11 -40 -13 -16 -2 20 -4
80 -5 133 -1 295 -37 481 -107 67 -25 127 -46 133 -46 17 0 13 -26 -6 -41 -14
-12 -16 -12 -8 0 5 8 -8 5 -33 -9 -70 -39 -111 -162 -83 -245 9 -25 10 -20 6
29 -7 71 16 144 57 188 31 33 55 33 50 -1 -7 -46 30 -124 82 -177 29 -28 63
-57 76 -64 15 -7 9 1 -15 21 -22 19 -50 43 -63 54 -29 25 -43 84 -35 157 3 31
2 65 -2 75 -10 24 -6 149 6 194 10 41 41 84 71 100 15 8 19 8 14 0 -5 -8 1 -7
19 1 21 9 39 8 95 -6 66 -17 123 -15 135 4 7 11 -20 66 -37 76 -8 5 -9 2 -4
-12z m-297 -97 l-38 -33 12 -47 c6 -26 9 -51 5 -54 -3 -4 -6 3 -6 14 0 11 -9
28 -20 38 -31 28 -24 49 28 83 60 40 67 40 19 -1z"/>
<path d="M566 3631 c-9 -15 23 -36 36 -23 5 5 7 15 4 21 -9 13 -33 14 -40 2z"/>
<path d="M1348 3617 c-41 -34 -34 -37 22 -10 28 13 50 26 50 28 0 14 -49 1
-72 -18z"/>
<path d="M2534 3628 c-4 -5 -4 -11 -2 -14 7 -6 68 7 68 16 0 10 -60 8 -66 -2z"/>
<path d="M2780 3617 c0 -16 5 -37 10 -48 7 -13 7 -19 0 -19 -5 0 -10 -4 -10
-8 0 -5 7 -9 15 -9 19 0 19 53 0 87 l-14 25 -1 -28z"/>
<path d="M361 3602 c-2 -32 33 -125 55 -150 l25 -27 -22 38 c-12 21 -30 63
-40 95 -10 31 -18 51 -18 44z"/>
<path d="M2480 3597 c0 -3 10 -15 21 -26 12 -11 19 -26 16 -34 -4 -10 1 -13
19 -9 14 2 23 5 22 6 -2 0 -20 17 -41 35 -20 19 -37 32 -37 28z"/>
<path d="M1986 3580 c13 -25 108 -164 121 -178 25 -26 12 -1 -37 70 -51 74
-98 135 -84 108z"/>
<path d="M2230 3560 c-27 -27 -25 -46 6 -66 23 -15 27 -16 41 -2 13 14 12 15
-9 12 -12 -3 -29 0 -37 5 -12 8 -12 13 3 36 18 28 41 29 41 2 0 -8 4 -19 8
-23 4 -4 7 4 7 18 0 14 -7 29 -16 32 -22 8 -22 8 -44 -14z"/>
<path d="M700 3564 c1 -19 26 -39 53 -42 15 -1 27 1 27 5 0 4 -12 9 -27 10
-15 0 -33 9 -40 19 -7 10 -13 14 -13 8z"/>
<path d="M2735 3560 c-4 -6 -1 -17 5 -25 7 -8 10 -25 6 -38 -4 -17 1 -30 19
-47 24 -23 25 -23 25 -3 0 11 -7 26 -15 33 -9 7 -15 29 -15 51 0 37 -12 51
-25 29z"/>
<path d="M2993 3450 c0 -41 2 -58 4 -37 2 20 2 54 0 75 -2 20 -4 3 -4 -38z"/>
<path d="M1435 3501 c-3 -5 3 -12 12 -15 10 -4 29 -15 43 -26 l25 -19 -37 6
c-46 7 -50 -7 -9 -36 34 -25 63 -28 55 -6 -4 8 -1 15 5 15 6 0 11 -5 11 -11 0
-6 7 -8 16 -5 8 3 13 2 10 -3 -6 -10 30 -22 38 -13 18 17 3 44 -31 58 -20 9
-51 27 -68 40 -33 25 -60 31 -70 15z"/>
<path d="M2670 3441 c0 -6 5 -13 11 -17 6 -3 8 -17 4 -31 -5 -23 -5 -24 10
-10 18 19 11 67 -11 67 -8 0 -14 -4 -14 -9z"/>
<path d="M2805 3435 c4 -11 9 -27 10 -35 1 -8 6 -23 10 -33 5 -12 -1 -30 -18
-55 -15 -20 -33 -56 -41 -78 -8 -23 -22 -57 -31 -75 -14 -29 -14 -31 0 -14 8
11 22 28 30 37 8 9 30 47 50 83 34 64 35 68 20 98 l-15 32 31 -33 30 -34 -26
-41 c-14 -23 -41 -74 -60 -113 -38 -81 -51 -94 -69 -68 -13 17 -14 16 -21 -7
-4 -13 -13 -37 -20 -54 -7 -16 -16 -38 -19 -48 -3 -10 -10 -15 -16 -12 -5 3
-10 -1 -10 -9 0 -10 -6 -13 -16 -9 -8 3 -13 11 -10 18 5 13 -22 30 -32 20 -3
-3 0 -5 7 -5 8 0 10 -7 6 -20 -5 -14 -2 -20 9 -20 19 0 20 -11 4 -29 -11 -11
-10 -12 0 -7 13 8 45 -11 38 -23 -1 -3 5 -14 16 -23 16 -16 18 -16 18 -2 0 15
2 15 22 2 12 -8 22 -21 24 -29 1 -8 6 -23 10 -33 6 -15 4 -17 -6 -11 -9 5 -11
4 -6 -4 4 -6 12 -9 17 -6 5 4 9 -2 10 -12 0 -11 3 -13 6 -5 3 7 0 26 -6 43 -8
23 -8 51 1 101 10 60 9 74 -5 104 -21 43 -21 50 -2 58 11 4 19 -8 29 -42 8
-26 15 -40 15 -31 1 9 -4 31 -10 49 -9 26 -9 34 2 41 22 14 29 11 29 -11 0
-23 22 -35 45 -26 11 4 13 11 5 30 -6 17 -5 26 3 30 9 3 9 5 0 5 -7 1 -13 6
-13 12 0 5 5 7 10 4 6 -3 10 -1 10 5 0 7 10 21 23 31 15 13 17 19 7 18 -38 -4
-42 0 -38 44 3 23 10 51 16 62 9 18 17 7 63 -88 l51 -109 -4 -86 c-3 -62 -9
-96 -23 -120 -11 -17 -23 -32 -27 -32 -8 0 -58 -48 -58 -57 0 -3 7 -2 16 1 8
3 12 2 9 -4 -8 -13 -41 -13 -66 0 -15 8 -23 7 -34 -4 -8 -8 -11 -16 -6 -18 6
-2 -1 -25 -14 -53 -13 -27 -22 -51 -20 -54 3 -2 7 4 11 13 3 9 10 13 15 10 5
-3 9 5 9 18 0 13 4 28 8 34 9 15 68 22 65 9 -5 -22 -32 -89 -33 -81 0 6 -6 1
-14 -9 -17 -23 -12 -37 10 -28 11 4 15 0 12 -13 -2 -13 4 -20 20 -22 15 -2 22
2 22 12 0 9 -7 16 -15 16 -8 0 -15 5 -15 10 0 6 7 10 15 10 8 0 15 5 15 10 0
6 -7 10 -17 10 -14 0 -14 2 3 21 11 12 26 18 39 15 18 -4 18 -3 -2 11 -32 22
-30 28 22 87 24 27 45 67 46 88 0 22 1 22 9 3 5 -12 8 70 7 200 0 127 -3 188
-6 145 l-6 -75 -19 50 c-11 28 -32 68 -47 90 -40 57 -122 144 -114 120z m45
-234 c7 -14 6 -29 -5 -54 -8 -19 -13 -36 -12 -38 1 -2 -4 2 -10 10 -16 18 -17
55 -3 82 13 24 17 24 30 0z m-117 -232 c-1 -54 -11 -91 -23 -84 -4 3 -6 14 -3
25 3 11 0 34 -7 50 -10 24 -10 36 0 61 12 28 14 29 23 12 6 -10 10 -39 10 -64z
m-45 -11 c16 -16 15 -48 -1 -48 -19 0 -50 37 -42 49 8 14 28 14 43 -1z"/>
<path d="M446 3421 c-7 -11 53 -57 101 -77 29 -13 59 -14 152 -9 90 5 131 3
185 -9 38 -9 71 -14 73 -12 3 2 -22 10 -54 17 -54 11 -93 29 -65 29 7 0 22 11
34 25 26 30 33 31 94 5 26 -11 52 -19 57 -17 11 3 -102 47 -121 47 -6 0 -27
-13 -45 -30 -39 -34 -67 -39 -67 -12 0 12 -3 13 -8 4 -5 -7 -24 -12 -43 -11
-19 0 -59 -5 -90 -12 -78 -17 -122 -6 -155 36 -27 36 -39 42 -48 26z"/>
<path d="M1434 3326 c2 -56 10 -103 16 -110 17 -15 8 162 -9 189 -10 17 -11 3
-7 -79z"/>
<path d="M2724 3408 c-5 -8 -2 -9 9 -5 14 5 15 3 4 -13 -10 -17 -8 -24 16 -47
15 -15 27 -22 27 -15 0 6 -4 12 -10 12 -5 0 -10 14 -10 30 0 17 5 30 11 30 5
0 7 5 4 10 -8 14 -42 13 -51 -2z"/>
<path d="M58 3332 c-6 -22 13 -52 33 -52 8 0 23 8 34 18 11 9 19 16 17 15 -2
-1 -12 7 -23 18 -24 24 -55 25 -61 1z m51 -28 c-11 -13 -14 -13 -27 0 -21 20
-7 39 19 25 17 -8 18 -13 8 -25z"/>
<path d="M2663 3325 c2 -11 8 -29 13 -39 5 -14 4 -17 -4 -12 -8 4 -10 2 -6 -8
3 -8 12 -17 20 -20 9 -3 12 -1 9 4 -4 6 8 13 26 17 30 6 31 7 14 20 -18 13
-18 13 -1 26 17 12 17 14 2 20 -9 4 -16 2 -16 -2 0 -19 -35 -22 -48 -4 -14 17
-14 17 -9 -2z"/>
<path d="M1185 3311 c17 -10 38 -27 48 -38 16 -19 16 -21 -2 -37 -18 -16 -22
-16 -81 14 -34 17 -64 30 -66 27 -2 -2 18 -14 46 -27 27 -13 59 -33 71 -46
l21 -23 -38 -7 c-22 -5 -42 -9 -46 -10 -5 -1 -15 -2 -23 -3 -8 0 -15 -5 -15
-11 0 -16 76 -12 90 5 7 8 19 15 26 15 8 0 20 15 28 34 8 18 19 37 25 40 15
10 14 26 -1 26 -7 0 -31 14 -52 30 -22 17 -44 30 -50 30 -6 0 3 -8 19 -19z"/>
<path d="M1651 3315 c-2 -11 -2 -31 -1 -44 3 -33 -17 -41 -61 -26 -32 12 -37
12 -33 0 3 -7 15 -16 27 -19 18 -5 20 -8 7 -16 -23 -15 -7 -12 29 6 39 19 44
30 38 80 -2 22 -5 30 -6 19z"/>
<path d="M1913 3290 c15 -23 126 -127 153 -143 7 -4 15 0 18 9 3 8 2 12 -4 9
-5 -3 -33 15 -62 42 -127 114 -122 110 -105 83z"/>
<path d="M450 3282 c0 -14 52 -22 129 -20 l66 1 -80 7 c-44 4 -88 10 -97 15
-10 4 -18 3 -18 -3z"/>
<path d="M165 3260 c3 -5 13 -10 21 -10 8 0 33 -9 54 -19 22 -11 40 -16 40
-12 0 7 -98 51 -113 51 -5 0 -5 -4 -2 -10z"/>
<path d="M393 3227 c-16 -18 -30 -41 -30 -52 0 -15 8 -10 34 20 18 21 33 44
33 52 0 19 -3 17 -37 -20z"/>
<path d="M1326 3231 c-9 -10 -21 -33 -26 -52 -11 -39 -11 -140 0 -184 6 -23 8
-14 9 40 l2 70 24 -51 c13 -28 32 -57 42 -64 15 -12 16 -12 6 0 -19 21 -15 35
5 18 25 -21 92 -61 92 -54 0 3 -29 24 -64 46 -65 41 -72 52 -90 129 -3 14 -1
30 3 35 7 9 21 86 16 86 -1 0 -9 -8 -19 -19z"/>
<path d="M2638 3244 c-4 -6 -6 -28 -6 -50 2 -39 3 -39 42 -40 l40 -2 -31 28
c-17 16 -33 39 -35 52 -2 13 -6 18 -10 12z"/>
<path d="M1420 3207 c0 -17 50 -103 72 -125 25 -23 76 -42 113 -42 11 0 34 12
50 26 l30 26 -37 -21 c-28 -17 -45 -20 -78 -15 -53 9 -81 34 -120 104 -16 30
-30 51 -30 47z"/>
<path d="M909 3191 c-58 -18 -101 -45 -116 -75 -15 -30 -15 -31 3 -14 11 9 46
29 77 44 57 26 105 29 150 10 28 -13 19 8 -12 27 -31 18 -60 20 -102 8z"/>
<path d="M1540 3181 c8 -6 35 -11 60 -11 33 0 41 -3 30 -10 -8 -5 -27 -10 -42
-10 -16 0 -28 -4 -28 -10 0 -19 52 -10 82 15 l30 25 -49 0 c-26 0 -59 3 -73 6
-20 4 -22 3 -10 -5z"/>
<path d="M2220 3162 c0 -12 8 -23 20 -27 12 -4 17 -11 13 -18 -5 -9 -2 -8 8 0
13 10 20 10 35 -1 24 -18 17 -25 -29 -28 -33 -3 -35 -5 -20 -15 9 -7 27 -13
40 -13 13 0 26 -7 29 -15 7 -17 32 -19 53 -6 11 7 3 19 -32 55 -26 25 -52 46
-59 46 -6 0 -22 10 -35 22 l-23 21 0 -21z m128 -105 c3 -16 1 -17 -17 -7 -25
13 -28 33 -4 28 10 -2 19 -11 21 -21z"/>
<path d="M460 3139 l-55 -6 53 -1 c48 -2 58 -6 99 -44 24 -24 61 -69 80 -100
20 -32 38 -58 40 -58 15 0 -61 113 -107 159 l-55 57 -55 -7z"/>
<path d="M955 3131 c-3 -5 -13 -9 -23 -9 -43 3 -165 -78 -159 -105 1 -6 -4
-11 -11 -12 -15 0 -32 -24 -31 -45 0 -8 6 -1 15 15 l14 30 -5 -29 c-5 -23 -3
-27 10 -22 9 3 19 6 21 6 3 0 3 3 0 8 -8 13 49 87 71 90 31 5 79 -42 91 -88 9
-38 8 -43 -18 -71 -22 -25 -28 -28 -33 -15 -4 9 -2 16 3 16 5 0 14 17 19 38
13 46 14 62 1 42 -8 -12 -10 -11 -10 8 0 13 -6 22 -15 22 -8 0 -15 -4 -15 -10
0 -5 4 -10 9 -10 5 0 9 -11 9 -25 0 -17 -4 -23 -12 -17 -47 37 -96 1 -96 -71
0 -48 13 -68 44 -66 18 1 17 2 -4 8 -31 8 -36 37 -16 85 9 23 22 36 33 36 48
-1 52 -38 7 -59 -14 -6 -22 -16 -19 -22 5 -7 13 -5 25 6 29 26 46 7 19 -21
-12 -13 -18 -24 -12 -24 5 0 20 12 34 26 13 14 31 23 41 21 10 -3 15 0 12 8
-8 19 53 73 98 87 32 9 37 14 25 22 -8 6 -17 22 -22 35 l-7 23 31 -18 c17 -10
31 -22 31 -27 0 -4 -6 -5 -12 -1 -9 5 -9 2 1 -9 15 -18 26 -23 16 -7 -10 16 5
12 32 -10 38 -30 43 -25 22 20 -22 46 -30 51 -23 15 6 -34 1 -32 -35 17 l-32
43 28 7 c16 5 30 3 34 -3 4 -8 8 -7 11 1 3 9 17 0 40 -23 l37 -36 -16 37 c-16
38 -31 54 -45 46 -4 -3 -26 4 -50 16 -51 25 -78 26 -78 3 0 -15 -1 -15 -12 -1
-16 19 -65 32 -73 19z m44 -46 c22 -8 41 -10 41 -5 0 6 9 10 20 10 19 0 19 -1
3 -19 -13 -16 -21 -18 -36 -9 -24 12 -77 28 -77 23 0 -3 18 -14 40 -25 23 -12
45 -32 51 -47 5 -14 8 -27 7 -28 -14 -9 -80 -45 -82 -45 -2 0 -6 18 -10 39 -4
26 -16 47 -36 64 -37 32 -37 37 -2 38 l27 1 -30 8 -30 8 36 1 c20 0 55 -6 78
-14z"/>
<path d="M2971 2997 c0 -9 -12 -23 -26 -29 -14 -6 -25 -17 -25 -24 0 -7 -12
-14 -27 -16 -48 -6 -39 -27 11 -25 33 1 45 6 41 15 -2 7 5 22 16 33 12 12 19
29 16 42 -3 16 -5 17 -6 4z"/>
<path d="M1590 2946 c14 -8 43 -15 65 -14 l40 1 -45 7 c-25 4 -54 10 -65 14
-13 5 -11 2 5 -8z"/>
<path d="M1085 2941 c-56 -14 -92 -40 -114 -81 -24 -46 -27 -64 -7 -38 12 16
15 15 40 -20 14 -20 26 -30 26 -21 0 8 -11 26 -25 39 -32 30 -24 41 20 29 23
-7 41 -6 53 0 16 10 15 10 -3 11 -11 0 -26 4 -34 9 -11 7 -7 13 17 25 40 21
42 20 43 -6 l0 -23 11 23 c6 12 19 22 30 22 10 0 18 7 18 15 0 8 -4 15 -9 15
-5 0 -15 2 -23 4 -7 2 -26 1 -43 -3z"/>
<path d="M90 2881 c-30 -32 -64 -63 -75 -69 -11 -6 -17 -14 -13 -17 4 -4 21 3
38 15 30 21 55 23 110 7 8 -2 12 -2 7 0 -4 3 -4 10 -1 15 4 6 2 8 -3 5 -6 -4
-25 -4 -42 -1 l-32 7 21 21 c11 12 20 26 20 31 0 5 7 17 17 27 9 10 14 18 12
18 -2 0 -29 -26 -59 -59z"/>
<path d="M740 2923 c-1 -10 -3 -44 -3 -76 -1 -39 -7 -61 -17 -67 -13 -9 -7
-14 12 -11 11 1 -3 -31 -21 -53 -15 -17 -14 -20 20 -50 33 -28 37 -38 42 -91
3 -33 9 -78 13 -99 7 -38 7 -39 -20 -34 -23 5 -26 3 -20 -14 3 -10 0 -26 -7
-34 -10 -12 -8 -17 7 -29 10 -8 24 -15 30 -15 19 0 61 -38 83 -75 24 -40 14
-46 -20 -11 -13 14 -27 22 -31 20 -14 -9 -8 -20 22 -37 19 -11 30 -26 30 -40
0 -12 5 -29 10 -37 8 -12 10 -12 10 5 1 15 5 11 19 -15 15 -29 17 -48 11 -105
-6 -57 -4 -78 12 -114 16 -40 17 -46 3 -53 -8 -5 -15 -20 -15 -33 0 -13 -4
-26 -9 -29 -5 -3 -12 -27 -16 -53 -7 -52 -46 -147 -72 -175 -9 -10 -13 -21
-10 -24 8 -9 67 54 67 72 0 7 8 18 19 23 20 11 34 68 18 74 -6 2 -8 8 -6 15 3
9 11 8 33 -3 43 -23 45 -18 6 15 -28 23 -33 31 -22 41 6 7 12 21 12 32 0 10 5
15 10 12 6 -3 10 -17 10 -30 0 -18 13 -35 48 -60 26 -19 50 -35 53 -35 3 0 4
14 1 30 -4 26 -6 28 -16 15 -10 -14 -15 -12 -39 13 -15 16 -29 40 -31 53 -1
13 -8 37 -15 53 -6 16 -10 34 -8 40 3 6 8 -1 12 -16 8 -30 25 -38 25 -13 0 9
-11 38 -25 65 -28 54 -33 85 -10 54 10 -13 8 -2 -6 36 -14 41 -15 50 -4 36 22
-28 19 -20 -25 89 -22 54 -38 100 -36 102 2 2 17 -9 32 -24 16 -16 26 -24 22
-19 -14 18 -8 41 20 76 39 47 85 121 79 126 -9 9 -54 -41 -82 -91 -16 -27 -30
-52 -33 -55 -2 -3 -12 6 -23 19 -16 19 -20 21 -25 7 -8 -22 -23 -10 -17 13 6
25 146 161 165 161 8 0 40 -23 71 -51 32 -28 57 -47 56 -43 -4 21 2 26 16 14
11 -9 12 -15 5 -20 -7 -4 -3 -13 10 -25 20 -18 21 -18 14 0 -5 13 -4 16 5 11
7 -5 10 -14 7 -22 -3 -8 4 -30 16 -49 11 -20 21 -49 23 -66 2 -26 10 -34 51
-53 27 -13 55 -30 63 -39 12 -15 11 -17 -8 -17 -11 0 -26 -9 -33 -19 -9 -16
-16 -17 -31 -9 -17 9 -19 8 -14 -11 6 -26 7 -26 -53 4 -51 26 -63 48 -34 59
12 5 14 10 5 20 -8 10 -5 16 15 25 33 15 26 25 -8 12 -16 -6 -29 -23 -38 -51
-17 -50 -31 -58 -66 -35 -21 13 -24 22 -19 42 7 30 62 114 82 126 11 7 11 12
2 23 -16 20 -27 17 -35 -8 -4 -13 -17 -39 -30 -58 -12 -19 -26 -47 -29 -62 -4
-16 -13 -28 -20 -28 -8 0 -11 -8 -8 -19 3 -11 10 -18 17 -15 6 2 19 -8 28 -23
10 -16 18 -22 18 -13 0 23 69 19 113 -7 30 -18 36 -27 32 -45 -5 -19 0 -25 26
-35 27 -10 36 -10 48 1 9 8 43 24 76 35 33 12 62 26 63 31 2 6 8 8 13 4 5 -3
18 -2 30 1 19 6 20 8 3 26 -12 13 -24 17 -43 12 -43 -10 -122 -53 -147 -80
-15 -17 -29 -23 -40 -19 -15 6 -11 13 23 46 38 38 104 70 144 70 36 0 19 17
-23 23 -24 3 -44 11 -46 16 -2 6 -8 9 -13 6 -4 -3 -26 3 -47 14 -29 15 -41 28
-44 48 -3 15 -9 37 -13 47 -7 15 -5 17 5 11 8 -5 3 9 -10 31 -21 34 -22 37 -5
25 22 -15 -49 53 -87 84 -28 23 -64 42 -93 49 -11 3 -2 4 20 2 22 -1 48 -6 58
-10 13 -6 17 -3 17 12 0 24 -16 37 -25 22 -3 -5 -11 -10 -16 -10 -6 0 -8 4 -4
9 3 6 -8 8 -25 6 -29 -4 -30 -3 -31 38 0 23 -3 35 -6 27 -2 -8 -7 -22 -10 -30
-3 -8 -5 -22 -4 -31 2 -21 -35 -31 -49 -14 -6 7 -19 15 -30 18 -18 5 -19 3 -5
-16 17 -25 20 -41 5 -32 -5 3 -10 -2 -10 -11 0 -11 -19 4 -55 42 -30 32 -53
64 -51 70 2 6 -6 10 -17 10 -34 -1 -32 29 2 44 27 11 111 84 111 96 0 9 -25
-10 -48 -37 -33 -40 -81 -54 -125 -36 -59 25 -58 42 1 37 22 -2 23 0 9 22 -13
21 -16 125 -5 192 2 10 -2 21 -9 23 -6 2 -13 -4 -13 -14z m151 -444 c7 -13 3
-18 -18 -24 -17 -4 -29 -2 -31 4 -2 6 -8 9 -13 5 -13 -7 -29 40 -29 84 l0 37
41 -45 c22 -24 45 -52 50 -61z m-65 -60 c44 -11 62 -39 25 -39 -29 0 -92 30
-86 40 8 12 7 12 61 -1z"/>
<path d="M30 2914 c-19 -7 -27 -13 -17 -13 10 -1 15 -5 12 -11 -3 -6 1 -7 9
-4 9 3 16 10 16 14 0 5 8 10 18 12 9 2 13 6 7 9 -5 3 -26 0 -45 -7z"/>
<path d="M1210 2921 c0 -5 7 -12 16 -15 9 -3 12 -11 8 -18 -4 -7 -4 -10 0 -7
9 8 86 -73 114 -119 33 -55 126 -161 142 -161 8 -1 30 -16 49 -33 l35 -33 -25
32 c-13 18 -34 35 -46 39 -13 3 -20 11 -16 17 3 5 1 7 -5 3 -10 -6 -102 106
-102 126 0 5 -5 6 -12 2 -8 -5 -9 -2 -5 10 4 10 3 15 -3 11 -6 -3 -10 1 -10
10 0 9 -11 26 -24 38 -13 12 -27 33 -31 46 -5 16 -10 20 -15 11 -5 -8 -14 -2
-29 19 -22 30 -41 40 -41 22z"/>
<path d="M2066 2911 c-4 -5 2 -7 13 -4 12 3 28 -5 45 -24 21 -22 25 -24 20 -8
-13 37 -63 60 -78 36z"/>
<path d="M413 2903 c4 -6 20 -16 37 -23 20 -8 29 -18 26 -27 -4 -8 -1 -13 5
-11 22 7 11 24 -31 47 -24 13 -40 20 -37 14z"/>
<path d="M2007 2892 c-18 -20 -22 -42 -9 -42 11 0 37 48 30 55 -3 3 -12 -3
-21 -13z"/>
<path d="M2026 2850 c-14 -22 -26 -43 -26 -48 0 -4 -13 -18 -30 -30 -37 -28
-39 -14 -5 27 25 29 25 30 6 40 -11 6 -33 11 -49 11 -25 0 -32 -6 -45 -39 -21
-52 -34 -58 -43 -19 l-7 33 -10 -30 c-6 -16 -25 -51 -44 -77 -18 -26 -33 -52
-33 -57 0 -5 -7 -11 -15 -15 -8 -3 -15 -10 -15 -16 0 -6 -14 -23 -30 -37 -30
-24 -35 -44 -9 -27 7 4 23 9 36 10 12 1 33 13 45 25 l23 22 -38 -23 c-21 -12
-40 -21 -42 -19 -2 3 16 28 41 58 24 29 52 66 61 82 18 31 49 38 72 17 9 -9
12 -9 7 -1 -3 6 -3 13 1 16 5 2 2 2 -4 1 -20 -5 -15 9 16 46 28 33 30 34 47
18 16 -16 15 -19 -16 -55 -18 -21 -48 -49 -67 -62 -18 -13 -31 -26 -28 -29 2
-3 25 12 50 32 25 21 45 34 45 31 0 -4 11 0 25 9 14 9 31 15 38 14 7 -2 33 20
58 48 25 28 50 49 57 46 17 -5 15 4 -4 22 -24 25 -39 19 -68 -24z"/>
<path d="M1148 2854 c13 -9 27 -26 32 -38 8 -19 9 -19 9 7 1 21 -5 30 -25 37
-37 14 -42 12 -16 -6z"/>
<path d="M1547 2840 c6 -37 18 -50 43 -49 10 0 7 4 -6 11 -12 5 -27 24 -32 42
l-11 31 6 -35z"/>
<path d="M2990 2763 c-2 -694 2 -2048 5 -2052 3 -2 5 482 5 1077 0 595 -2
1082 -5 1082 -3 0 -5 -48 -5 -107z"/>
<path d="M618 2849 c6 -9 9 -18 6 -22 -3 -3 4 -11 16 -17 34 -18 33 -6 -2 26
-18 16 -27 22 -20 13z"/>
<path d="M1207 2841 c5 -19 123 -118 123 -103 0 26 -91 121 -117 122 -6 0 -9
-8 -6 -19z"/>
<path d="M2284 2845 c-4 -8 -16 -15 -28 -16 -14 0 -16 -2 -6 -6 8 -3 18 -11
23 -17 8 -12 37 19 37 41 0 18 -19 16 -26 -2z"/>
<path d="M2230 2795 c0 -8 -5 -15 -11 -15 -6 0 -3 -7 6 -16 9 -9 14 -23 11
-31 -3 -8 -6 -22 -6 -31 -1 -15 -3 -14 -15 2 -19 25 -20 4 -4 -42 14 -41 29
-32 29 18 0 21 5 42 10 45 19 11 9 85 -11 85 -5 0 -9 -7 -9 -15z"/>
<path d="M276 2761 c16 -17 95 -34 106 -23 5 5 -9 12 -34 15 -24 3 -53 9 -63
13 -16 5 -17 4 -9 -5z"/>
<path d="M2045 2760 c-4 -6 1 -10 9 -10 9 0 16 -4 16 -10 0 -5 6 -7 14 -4 8 3
24 1 35 -5 17 -10 20 -9 15 4 -4 8 -18 18 -33 21 -14 3 -31 7 -38 9 -7 2 -15
0 -18 -5z"/>
<path d="M2318 2759 c-13 -7 -16 -17 -11 -40 5 -28 4 -31 -15 -25 -22 7 -39
-8 -22 -19 6 -4 9 -16 6 -28 -3 -13 -1 -11 6 6 24 55 30 25 23 -115 -3 -88 -2
-138 3 -129 8 11 11 11 16 0 3 -8 3 20 0 63 -6 69 -4 77 12 81 18 4 18 5 0 6
-17 1 -18 6 -11 54 4 28 7 66 6 83 -1 28 2 31 27 27 26 -3 26 -3 5 8 -12 6
-23 18 -25 25 -2 9 -8 10 -20 3z"/>
<path d="M2647 2757 c-3 -9 0 -18 9 -21 8 -3 14 -13 14 -22 0 -10 -5 -14 -15
-11 -8 4 -17 2 -20 -2 -2 -5 5 -11 17 -14 28 -8 55 23 32 36 -9 5 -19 18 -23
29 -6 18 -9 18 -14 5z"/>
<path d="M1049 2756 c-4 -4 -73 -15 -98 -16 -8 0 -12 -3 -9 -6 3 -3 52 0 107
6 94 10 104 10 134 -8 18 -11 62 -23 99 -27 43 -4 77 -14 95 -27 l28 -20 -27
25 c-21 19 -43 27 -92 32 -52 6 -67 11 -71 26 -6 16 -17 19 -84 19 -43 0 -80
-2 -82 -4z"/>
<path d="M1125 2730 c3 -5 18 -10 33 -10 19 0 23 -3 13 -9 -8 -5 -9 -11 -3
-15 5 -3 12 1 16 9 6 16 2 20 -37 29 -19 4 -26 3 -22 -4z"/>
<path d="M2020 2720 c0 -24 51 -61 58 -42 2 6 11 12 19 12 12 0 13 -3 4 -14
-9 -10 -7 -17 6 -27 14 -12 16 -12 11 1 -3 8 -1 23 4 33 13 26 7 29 -31 16
-35 -12 -64 1 -54 27 3 8 0 14 -6 14 -6 0 -11 -9 -11 -20z"/>
<path d="M2605 2723 c4 -24 -2 -33 -38 -57 -33 -21 -30 -22 -51 28 -9 22 -19
36 -23 33 -3 -4 -1 -12 5 -20 6 -7 9 -22 6 -34 -4 -14 2 -27 22 -42 35 -28 47
-27 42 4 -5 21 -1 25 28 31 18 3 37 3 43 -1 6 -3 11 -1 11 4 0 6 -9 11 -20 11
-22 0 -26 10 -10 26 8 8 6 15 -4 23 -13 11 -15 10 -11 -6z"/>
<path d="M4 2712 c2 -9 13 -19 26 -20 25 -4 20 12 -10 28 -15 8 -18 6 -16 -8z"/>
<path d="M1802 2699 c-13 -16 -22 -34 -20 -41 2 -6 14 6 26 27 28 46 25 52 -6
14z"/>
<path d="M2400 2715 c15 -18 5 -65 -13 -65 -7 0 -18 -5 -25 -12 -15 -15 4 -39
25 -31 13 5 12 0 -3 -28 -22 -42 -22 -44 -29 -156 -3 -64 -2 -94 7 -99 6 -4 8
-3 5 3 -11 18 14 207 31 233 9 14 15 30 14 37 -1 6 7 13 19 15 31 4 35 26 8
36 -20 8 -20 9 -5 15 10 4 22 4 28 1 6 -4 6 2 -1 14 -8 15 -8 22 2 25 6 3 -3
6 -20 6 -18 1 -33 6 -33 11 0 6 -5 10 -11 10 -8 0 -8 -5 1 -15z"/>
<path d="M1105 2672 c-37 -33 -61 -64 -43 -57 10 4 17 -1 21 -14 3 -12 13 -21
24 -21 10 0 24 -5 31 -12 9 -9 12 -9 12 0 0 7 7 12 15 12 11 0 12 -5 5 -26
-12 -31 -13 -44 -1 -26 7 12 14 11 41 -3 19 -10 35 -13 39 -7 3 5 13 11 21 14
8 3 -9 8 -37 12 -74 11 -70 37 5 39 20 0 46 6 57 14 23 15 86 17 134 3 l34 -9
-23 24 c-13 14 -26 21 -29 16 -3 -5 -32 -8 -64 -7 -42 1 -62 -3 -70 -14 -14
-17 -116 -22 -117 -5 0 13 57 28 87 22 13 -2 23 -1 23 3 0 4 24 11 53 16 46 7
48 8 19 12 -18 2 -53 -1 -78 -6 -24 -5 -46 -6 -49 -2 -3 5 -29 -5 -58 -21 -61
-34 -67 -35 -67 -11 0 23 32 42 61 36 22 -4 22 -3 4 5 -11 5 -14 10 -7 10 6 1
12 6 12 11 0 16 -33 11 -55 -8z"/>
<path d="M1206 2681 c-29 -11 1 -18 44 -10 19 3 27 7 18 8 -9 0 -22 3 -30 5
-7 3 -22 1 -32 -3z"/>
<path d="M2690 2677 c-8 -7 -16 -25 -17 -41 -3 -36 -19 -54 -34 -39 -8 8 -4
17 12 32 18 17 20 21 6 21 -8 0 -19 -5 -22 -11 -4 -6 -14 -8 -24 -4 -13 5 -14
4 -3 -6 22 -23 13 -39 -35 -60 -76 -32 -204 -170 -203 -218 1 -12 3 -11 12 4
23 43 135 148 180 170 26 12 45 24 43 27 -5 5 25 22 58 32 9 3 17 14 17 25 0
25 18 37 33 22 7 -7 5 -17 -9 -32 -10 -13 -13 -19 -6 -15 7 4 12 1 12 -9 0 -9
-4 -14 -8 -11 -4 2 -23 -14 -42 -37 -18 -23 -79 -87 -135 -142 -56 -55 -112
-117 -123 -138 -26 -45 -27 -54 -6 -36 13 10 12 6 -3 -23 -10 -20 -20 -34 -23
-33 -3 2 -6 -6 -6 -17 0 -19 1 -19 11 -4 96 159 144 209 214 221 22 3 47 13
58 21 17 15 17 15 -4 11 -13 -3 -23 0 -23 5 0 6 -9 3 -20 -7 -36 -33 -35 -6 2
33 19 20 46 54 60 74 13 21 45 53 70 72 50 38 61 56 47 77 -7 11 -9 11 -9 -2
0 -21 -36 -66 -45 -57 -4 4 2 26 14 50 12 24 15 35 7 24 -13 -16 -42 -14 -32
3 10 16 -9 30 -24 18z"/>
<path d="M190 2659 c-36 -5 -76 -7 -90 -4 -24 5 -24 4 4 -11 23 -13 43 -14
110 -8 44 4 72 10 62 12 -15 3 -16 6 -5 13 17 10 13 10 -81 -2z"/>
<path d="M2185 2650 c3 -5 -2 -10 -11 -10 -13 0 -15 -3 -7 -11 8 -8 7 -16 -5
-30 -8 -10 -19 -16 -24 -13 -4 3 -5 -2 -2 -10 3 -9 1 -16 -5 -16 -6 0 -11 -7
-11 -15 0 -8 -4 -15 -10 -15 -5 0 -8 -13 -7 -29 1 -16 6 -27 10 -24 4 2 5 14
1 25 -4 13 -2 18 4 14 6 -3 20 10 32 29 12 19 31 41 42 49 15 11 19 21 14 40
-3 14 -11 26 -17 26 -6 0 -7 -4 -4 -10z"/>
<path d="M1877 2626 c23 -8 56 -28 74 -45 17 -18 34 -29 37 -26 16 15 -98 86
-135 84 -10 0 1 -6 24 -13z"/>
<path d="M33 2595 c37 -26 47 -48 25 -61 -7 -5 -3 -10 12 -16 33 -12 45 11 20
37 -11 12 -20 26 -20 32 0 6 -14 16 -31 22 -47 16 -48 14 -6 -14z"/>
<path d="M2245 2600 c-3 -11 -3 -24 0 -30 3 -6 -1 -13 -9 -16 -17 -6 -23 -44
-7 -44 10 0 22 39 26 83 3 32 -1 35 -10 7z"/>
<path d="M2843 2593 c-18 -6 -16 -33 1 -33 19 0 31 19 20 30 -5 4 -15 5 -21 3z"/>
<path d="M200 2586 c0 -5 83 -46 95 -46 3 0 -2 8 -12 19 -17 17 -83 39 -83 27z"/>
<path d="M2962 2581 c-7 -4 -10 -15 -6 -26 5 -11 1 -23 -12 -34 -34 -28 -68
-71 -57 -71 18 0 82 67 89 93 8 33 2 49 -14 38z"/>
<path d="M1392 2575 c2 -3 23 -6 46 -7 23 -1 39 -5 36 -10 -8 -13 26 -22 38
-10 8 8 5 9 -11 5 -17 -4 -20 -2 -15 11 5 13 -2 16 -47 16 -29 0 -50 -2 -47
-5z"/>
<path d="M0 2548 c0 -15 5 -30 11 -33 6 -4 8 -13 5 -21 -3 -8 1 -14 11 -14 9
0 13 -3 10 -7 -4 -3 1 -11 9 -18 24 -17 10 -53 -19 -50 -12 1 -14 0 -4 -2 21
-5 23 -23 3 -23 -8 0 -17 -4 -20 -9 -4 -5 2 -7 12 -4 10 2 24 -3 32 -12 11
-13 10 -18 -4 -28 -15 -11 -14 -14 15 -31 25 -15 33 -16 39 -5 7 10 11 10 24
0 10 -9 16 -9 16 -3 0 24 -23 59 -51 77 -33 23 -35 28 -14 45 14 12 44 3 94
-28 3 -1 -4 -9 -15 -17 -16 -12 -16 -14 -3 -15 25 0 41 24 27 38 -7 7 -18 12
-26 12 -7 0 -10 5 -7 10 3 6 -1 10 -9 10 -10 0 -16 9 -16 25 0 14 4 25 9 25
13 0 32 -26 24 -34 -4 -4 0 -4 10 0 13 4 17 1 17 -14 0 -11 7 -25 15 -32 17
-14 20 -46 6 -55 -5 -3 -13 -1 -16 5 -5 8 -11 7 -21 -1 -21 -17 -17 -29 11
-29 18 0 23 -4 19 -15 -4 -8 -1 -15 4 -15 6 0 14 9 17 20 3 11 10 20 14 20 4
0 8 16 9 35 1 29 -2 35 -18 35 -11 0 -20 6 -20 14 0 7 -9 25 -20 39 -26 32
-25 39 3 35 13 -2 22 -10 21 -19 -1 -9 7 -21 17 -28 15 -9 19 -8 19 3 0 8 8
17 18 19 14 4 13 5 -3 6 -25 1 -45 19 -39 35 4 12 12 10 214 -35 68 -15 178
-83 252 -154 66 -63 99 -85 148 -100 17 -5 10 4 -25 31 -27 21 -51 42 -53 46
-2 4 -8 8 -14 8 -15 0 -94 73 -90 83 1 5 -1 6 -6 3 -5 -3 -25 6 -44 19 -57 39
-138 72 -208 87 -36 7 -94 27 -129 45 -35 17 -59 27 -52 20 20 -20 12 -38 -25
-53 -32 -13 -38 -13 -53 0 -14 13 -19 13 -35 0 -11 -8 -15 -14 -9 -14 15 0 26
-31 15 -42 -8 -8 -48 36 -66 72 -4 8 -13 26 -21 40 l-15 25 0 -27z"/>
<path d="M1874 2542 c18 -21 16 -52 -3 -52 -5 0 -6 -10 -3 -22 5 -22 6 -21 18
7 19 44 17 63 -8 76 -23 12 -23 12 -4 -9z"/>
<path d="M2170 2519 c0 -8 -16 -34 -35 -58 -19 -24 -35 -49 -34 -55 0 -7 3 -6
6 2 9 23 19 12 37 -40 21 -60 43 -90 32 -44 -18 73 -17 84 3 122 25 46 26 58
6 74 -12 10 -15 10 -15 -1z"/>
<path d="M1386 2485 c-62 -48 -59 -54 4 -9 45 32 57 44 46 44 -2 0 -24 -16
-50 -35z"/>
<path d="M1160 2495 c1 -12 28 -44 68 -80 37 -32 56 -46 42 -30 -14 16 -36 38
-49 49 -13 10 -32 33 -42 50 -15 25 -19 27 -19 11z"/>
<path d="M1433 2472 c-26 -21 -54 -46 -61 -54 -11 -13 -10 -16 5 -14 10 0 23
10 28 20 30 57 114 74 116 23 0 -21 1 -21 8 -2 5 11 4 22 0 23 -5 2 -6 9 -3
14 4 6 2 8 -4 5 -14 -9 -43 3 -36 14 10 17 -4 9 -53 -29z"/>
<path d="M2726 2478 c-7 -19 -10 -40 -5 -48 4 -8 3 -22 -2 -32 -7 -13 -6 -16
5 -12 18 7 27 39 14 52 -7 7 -7 21 0 41 14 41 6 40 -12 -1z"/>
<path d="M2822 2468 c-6 -6 -11 -28 -11 -47 l2 -36 6 35 c5 28 10 35 29 34 12
0 21 4 19 10 -5 16 -31 18 -45 4z"/>
<path d="M1768 2464 c-4 -3 3 -15 14 -26 18 -18 21 -19 36 -4 15 15 15 16 -4
16 -11 0 -25 5 -30 10 -6 6 -13 8 -16 4z"/>
<path d="M2889 2403 c-18 -20 -25 -31 -14 -23 11 8 28 23 37 34 10 10 24 16
33 12 9 -3 13 -2 10 4 -11 18 -31 10 -66 -27z"/>
<path d="M1635 2421 c-3 -6 -11 -9 -16 -6 -11 7 -10 -20 1 -55 8 -25 8 -25 9
-2 1 13 6 32 12 44 11 20 6 38 -6 19z"/>
<path d="M1821 2406 c-10 -12 -8 -17 10 -26 20 -11 21 -10 16 9 -3 12 -1 19 4
15 5 -3 9 0 9 5 0 16 -26 13 -39 -3z"/>
<path d="M1540 2396 c0 -3 16 -22 36 -43 l36 -38 -27 43 c-24 36 -45 54 -45
38z"/>
<path d="M1044 2348 c-9 -18 -25 -44 -35 -57 -11 -13 -19 -31 -19 -40 0 -16 8
-5 61 77 12 17 27 32 35 32 8 0 14 5 14 10 0 24 -41 8 -56 -22z"/>
<path d="M326 2363 c-13 -14 -5 -31 12 -26 13 3 25 -4 36 -22 14 -21 20 -24
32 -14 21 17 17 29 -11 29 -14 0 -25 3 -25 8 0 11 -37 32 -44 25z"/>
<path d="M524 2316 c16 -13 17 -18 6 -31 -7 -8 -10 -15 -7 -15 3 0 12 -3 20
-6 24 -9 8 45 -17 57 -20 10 -20 9 -2 -5z"/>
<path d="M266 2306 c3 -8 -3 -16 -15 -19 -12 -3 -21 -11 -20 -19 0 -10 2 -10
6 0 7 17 43 15 43 -3 0 -9 -9 -19 -21 -23 -21 -8 -20 -9 6 -26 20 -13 30 -15
38 -7 8 8 8 14 -1 23 -17 17 -15 28 4 28 8 0 13 -4 9 -9 -7 -12 32 -34 45 -26
6 4 3 16 -7 30 -10 12 -21 21 -25 18 -5 -2 -8 0 -8 6 0 14 -29 41 -45 41 -8 0
-12 -6 -9 -14z"/>
<path d="M1380 2282 c0 -14 110 -42 156 -41 24 1 29 3 14 5 -51 8 -136 28
-152 36 -11 5 -18 5 -18 0z"/>
<path d="M2140 2280 c0 -5 11 -12 24 -16 21 -5 27 -15 36 -60 6 -30 16 -54 21
-54 12 0 12 17 -1 25 -5 3 -10 26 -10 50 0 24 -3 46 -7 48 -21 11 -63 16 -63
7z"/>
<path d="M2010 2261 c0 -6 5 -13 10 -16 6 -4 8 -11 5 -16 -3 -5 1 -6 9 -3 19
7 20 16 4 32 -14 14 -28 16 -28 3z"/>
<path d="M2140 2243 c0 -7 5 -15 10 -18 17 -10 11 -25 -7 -18 -11 4 -14 3 -9
-5 5 -8 -4 -12 -31 -13 -30 0 -34 -2 -18 -9 12 -5 14 -9 6 -9 -10 -1 -8 -8 9
-26 25 -27 42 -26 20 1 -12 13 -11 17 1 25 14 9 28 8 63 -7 18 -7 18 -5 -4 32
-29 49 -40 62 -40 47z"/>
<path d="M25 2212 c-29 -15 -29 -15 -6 -23 23 -9 20 -29 -5 -29 -8 0 -14 -4
-14 -10 0 -5 5 -10 10 -10 6 0 10 -9 10 -20 0 -11 -4 -20 -10 -20 -5 0 -10 -4
-10 -10 0 -5 11 -10 25 -10 18 0 25 5 25 20 0 11 -4 20 -10 20 -5 0 -10 7 -10
15 0 8 7 15 15 15 8 0 15 -7 15 -15 0 -20 13 -19 33 3 23 25 21 31 -5 24 -18
-4 -20 -2 -15 17 6 24 0 52 -12 50 -3 -1 -19 -8 -36 -17z"/>
<path d="M636 2222 c-5 -9 202 -98 209 -90 5 5 -183 98 -197 98 -4 0 -9 -4
-12 -8z"/>
<path d="M2032 2209 c-20 -10 -27 -19 -19 -22 19 -7 68 16 59 28 -4 7 -18 5
-40 -6z"/>
<path d="M948 2199 c17 -12 32 -27 32 -34 0 -11 20 -25 37 -25 10 0 -40 56
-60 67 -37 21 -44 14 -9 -8z"/>
<path d="M2687 2184 c-47 -37 -58 -54 -35 -54 7 0 2 -7 -10 -16 -12 -8 -22
-21 -22 -29 0 -7 -9 -17 -20 -20 -11 -4 -31 -18 -43 -31 -22 -24 -25 -24 -53
-9 -16 8 -38 15 -49 15 -27 0 -73 -32 -68 -47 3 -9 16 -5 41 12 45 31 48 31
76 1 l22 -25 62 55 c34 31 59 61 56 66 -4 7 -2 8 4 4 13 -8 62 21 62 36 0 5
-9 4 -20 -2 -27 -14 -25 -2 3 24 27 26 51 56 45 56 -3 0 -26 -16 -51 -36z"/>
<path d="M560 2195 c-14 -7 -56 -21 -95 -31 -95 -23 -157 -53 -245 -120 -87
-66 -159 -104 -196 -104 -41 0 -22 -11 28 -16 23 -3 84 -16 134 -29 83 -23
103 -24 220 -18 84 4 137 11 151 20 12 8 68 22 125 31 60 10 101 21 98 27 -9
17 -123 4 -195 -23 -56 -20 -89 -26 -165 -26 -52 -1 -113 2 -135 6 l-40 8 42
-13 c59 -17 67 -31 13 -23 -56 9 -180 46 -180 55 0 4 15 15 32 26 18 10 60 41
93 68 76 62 112 80 205 102 41 10 79 22 85 27 15 13 35 9 63 -11 23 -15 245
-91 268 -91 11 0 -136 86 -208 122 -66 32 -65 32 -98 13z m130 -40 c80 -41 62
-44 -37 -9 -24 9 -43 20 -43 25 0 16 29 10 80 -16z"/>
<path d="M1760 2140 c0 -36 -3 -76 -7 -89 -4 -16 -2 -22 4 -18 16 10 27 132
14 154 -8 14 -10 3 -11 -47z"/>
<path d="M2719 2128 c-24 -29 -52 -59 -62 -67 -124 -91 -259 -210 -252 -222 5
-7 72 54 76 69 3 12 33 30 41 26 5 -3 8 0 8 5 0 6 7 11 15 11 8 0 15 5 15 10
0 6 5 10 11 10 6 0 16 6 24 13 7 6 33 28 58 47 25 19 53 48 62 63 11 19 22 26
32 22 13 -4 13 -3 4 9 -9 11 -8 17 5 30 9 10 14 19 12 22 -3 2 -24 -20 -49
-48z"/>
<path d="M2160 2143 c-17 -4 -53 -123 -38 -123 13 0 -51 -90 -68 -97 -8 -3
-11 -9 -9 -14 3 -4 22 10 41 31 42 47 59 43 50 -11 -3 -22 -2 -39 3 -39 15 0
21 46 10 78 -8 25 -7 37 11 71 11 23 24 41 29 41 13 0 42 -85 36 -103 -4 -8
-15 -17 -26 -20 -10 -3 -19 -11 -19 -17 0 -8 8 -7 26 5 47 31 39 5 -14 -44
-29 -26 -52 -55 -52 -64 0 -10 -5 -17 -11 -17 -7 0 -9 11 -5 30 3 19 2 29 -4
25 -13 -8 -13 -62 0 -70 21 -13 9 -27 -17 -21 -27 7 -26 6 5 -14 75 -47 234
-115 406 -175 236 -81 238 -82 268 -53 13 13 37 33 53 46 l30 22 -45 -21 c-25
-12 -53 -28 -62 -36 -12 -11 -24 -13 -44 -6 l-27 9 41 18 c36 16 41 23 44 55
3 33 8 39 67 71 36 19 66 41 69 48 3 9 -6 7 -29 -5 -84 -46 -119 -74 -125
-101 -7 -28 -50 -71 -71 -72 -7 0 -13 12 -13 26 0 14 -4 23 -10 19 -5 -3 -10
-15 -10 -26 0 -18 -2 -19 -29 -5 -16 9 -31 12 -35 9 -11 -11 -6 12 7 28 7 9
42 36 78 60 104 69 108 72 44 38 -33 -18 -86 -51 -118 -73 -50 -35 -60 -39
-70 -26 -7 8 -25 15 -42 16 -24 0 -30 4 -29 22 0 12 -3 22 -8 22 -4 0 -8 -5
-8 -11 0 -5 -5 -7 -10 -4 -6 4 -7 11 -4 17 4 6 1 9 -7 6 -8 -3 -13 -13 -11
-23 3 -13 -1 -16 -13 -11 -9 3 -21 6 -25 6 -5 0 -14 19 -21 43 -13 50 -21 61
-73 99 -46 33 -53 34 -61 8 -4 -11 -11 -18 -16 -14 -5 3 -9 2 -8 -3 4 -22 -3
-33 -20 -33 -28 0 -37 20 -9 21 18 1 19 2 5 6 -14 4 -17 13 -15 36 3 33 10 35
56 21 17 -5 22 -2 22 12 1 11 7 36 14 56 11 31 11 47 1 90 -18 76 -24 86 -53
96 -23 8 -25 11 -9 17 11 5 24 1 36 -9 10 -9 21 -13 25 -9 4 4 4 1 1 -8 -5
-14 10 -55 40 -109 17 -29 18 -21 5 40 -16 71 -31 100 -51 100 -10 0 -20 4
-23 9 -7 11 -36 18 -56 14z m138 -386 c12 -11 22 -28 22 -38 0 -14 -5 -16 -32
-9 -61 14 -90 29 -82 42 24 43 48 45 92 5z"/>
<path d="M560 2104 c-6 -14 -7 -37 -4 -52 4 -21 3 -24 -5 -12 -9 12 -11 7 -9
-22 1 -21 5 -38 10 -38 8 0 23 53 31 113 7 42 -9 50 -23 11z"/>
<path d="M2779 2086 c-21 -25 -24 -33 -14 -43 10 -9 17 -8 31 8 16 18 16 19 1
13 -22 -8 -22 4 0 28 9 10 14 20 12 22 -2 1 -16 -11 -30 -28z"/>
<path d="M2056 2101 c-3 -5 4 -21 16 -36 26 -33 45 -14 21 22 -16 24 -28 29
-37 14z"/>
<path d="M1359 2000 c-18 -15 -20 -19 -8 -20 9 0 24 9 34 20 23 26 4 26 -26 0z"/>
<path d="M1475 2012 c13 -13 279 -160 311 -172 17 -7 23 -7 19 0 -3 6 -11 10
-16 10 -6 0 -56 26 -112 59 -115 66 -217 118 -202 103z"/>
<path d="M1946 2007 c3 -10 17 -20 30 -23 20 -5 22 -9 13 -20 -10 -12 -9 -13
5 -8 20 8 16 40 -3 36 -8 -2 -22 5 -33 15 -17 16 -18 16 -12 0z"/>
<path d="M2816 2005 c-15 -8 -33 -12 -38 -9 -6 4 -9 1 -7 -5 3 -7 8 -12 12
-12 4 1 14 1 23 1 8 0 12 5 9 10 -3 6 1 10 9 10 8 0 18 5 21 10 8 13 5 13 -29
-5z"/>
<path d="M2745 1934 c-4 -43 -3 -93 3 -117 8 -36 10 -26 11 76 0 64 -1 117 -3
117 -2 0 -7 -34 -11 -76z"/>
<path d="M2880 1975 c-2 -22 -1 -65 0 -97 2 -55 1 -57 -36 -82 -21 -14 -35
-26 -30 -26 10 0 69 40 78 55 10 14 9 145 -2 170 -7 16 -9 12 -10 -20z"/>
<path d="M256 1965 c-55 -18 -93 -34 -85 -37 8 -3 21 -1 29 4 8 5 47 19 85 31
68 22 72 22 132 6 34 -10 66 -20 72 -23 5 -4 13 -1 16 5 4 5 13 8 21 5 7 -3
16 -1 19 4 4 6 -10 10 -32 10 -32 0 -74 8 -143 24 -8 2 -60 -11 -114 -29z"/>
<path d="M1257 1981 c12 -12 25 -21 27 -21 3 0 44 -18 91 -40 47 -22 93 -40
101 -40 11 0 14 -6 10 -16 -3 -8 -2 -12 4 -9 5 3 29 -4 52 -17 24 -12 50 -23
59 -24 24 -2 39 -13 39 -30 0 -11 6 -13 21 -9 14 5 28 0 43 -15 13 -11 27 -20
32 -19 24 4 44 -2 42 -13 -2 -7 2 -12 7 -13 6 0 41 -18 79 -40 38 -22 85 -49
106 -61 52 -29 187 -69 315 -94 152 -29 159 -32 152 -75 -3 -19 -2 -35 4 -35
5 0 9 18 9 40 0 46 24 65 45 36 9 -12 15 -14 20 -6 4 6 14 10 23 8 10 -1 23 1
30 5 7 5 12 3 12 -7 0 -12 6 -13 36 -5 19 6 45 9 57 7 17 -3 8 -11 -40 -36
-35 -18 -63 -35 -63 -37 0 -3 8 -1 18 4 9 5 48 23 86 40 70 33 114 38 61 7
-39 -22 -23 -17 48 14 61 27 80 49 22 24 -20 -8 -41 -12 -46 -8 -6 3 -86 10
-177 15 -184 9 -356 37 -472 75 -41 14 -131 56 -200 94 -126 69 -546 272 -630
304 l-45 18 22 -21z"/>
<path d="M2710 1974 c-6 -16 -15 -31 -20 -34 -13 -8 -24 -80 -12 -80 13 0 -8
-91 -32 -140 l-17 -35 21 24 c12 14 24 37 27 53 6 31 13 34 32 16 10 -11 11
-7 5 17 -4 17 -11 40 -15 52 -6 15 -2 44 11 85 20 63 19 94 0 42z"/>
<path d="M2835 1971 c-3 -6 -10 -9 -15 -6 -11 7 -20 -20 -20 -66 0 -30 3 -37
15 -33 10 4 15 20 15 49 0 26 5 45 13 48 6 2 9 7 6 11 -4 4 -10 2 -14 -3z"/>
<path d="M775 1921 c-11 -5 -24 -6 -30 -3 -5 3 -7 1 -2 -3 4 -5 -1 -17 -10
-28 -17 -20 -17 -20 0 -14 10 4 22 7 27 7 4 0 15 11 24 25 9 14 15 25 14 24
-2 0 -12 -4 -23 -8z"/>
<path d="M2615 1893 c-13 -29 -22 -214 -10 -202 8 8 26 207 20 217 -2 2 -6 -5
-10 -15z"/>
<path d="M797 1863 c6 -16 5 -16 -10 -4 -15 12 -17 11 -17 -2 0 -25 34 -39 56
-23 15 12 16 16 5 30 -18 22 -42 21 -34 -1z"/>
<path d="M499 1853 c-12 -16 -12 -17 2 -6 14 11 15 7 7 -45 -5 -31 -12 -87
-16 -123 -4 -37 -13 -73 -20 -82 -8 -9 -9 -17 -3 -19 6 -2 6 -16 1 -38 l-9
-35 2 32 c2 18 -1 29 -6 26 -9 -6 -5 -70 12 -183 8 -54 8 -53 10 34 1 99 20
266 30 266 3 0 6 17 6 38 0 20 4 63 8 95 7 59 0 71 -24 40z"/>
<path d="M2524 1845 c-10 -15 -27 -26 -43 -26 -23 -2 -24 -2 -3 -6 20 -4 22
-10 22 -63 0 -84 15 -82 19 2 1 43 9 80 18 94 8 13 13 24 9 24 -3 0 -13 -11
-22 -25z"/>
<path d="M1 1827 c-1 -16 15 -62 35 -104 27 -55 35 -83 31 -106 -3 -18 -3 -26
0 -19 2 6 11 12 18 12 19 0 8 67 -16 98 -10 13 -21 36 -24 52 -4 17 -11 30
-16 30 -4 0 -13 15 -18 33 l-9 32 -1 -28z"/>
<path d="M2561 1765 c0 -44 3 -86 7 -92 11 -18 14 106 3 142 -7 24 -9 14 -10
-50z"/>
<path d="M1098 1770 c-9 -28 -13 -50 -9 -50 8 0 35 89 29 95 -2 3 -11 -18 -20
-45z"/>
<path d="M606 1674 c-3 -9 -8 -55 -10 -102 l-4 -87 11 87 c7 47 15 90 20 94
10 10 9 24 -2 24 -5 0 -12 -7 -15 -16z"/>
<path d="M348 1615 c2 -19 8 -35 13 -35 10 0 11 16 3 48 -10 35 -20 26 -16
-13z"/>
<path d="M1180 1639 c0 -5 3 -9 8 -9 4 0 28 -7 55 -15 26 -8 47 -10 47 -5 0 6
-8 10 -17 10 -10 1 -35 7 -55 14 -21 8 -38 10 -38 5z"/>
<path d="M556 1564 c-9 -89 -1 -92 11 -4 5 38 6 70 2 70 -3 0 -9 -30 -13 -66z"/>
<path d="M834 1577 c-49 -50 -91 -107 -78 -107 3 0 30 19 59 42 45 35 52 45
42 58 -11 13 -10 13 6 1 20 -16 21 -15 47 30 10 17 4 30 -14 28 -6 0 -34 -24
-62 -52z"/>
<path d="M1160 1579 c-15 -56 -8 -58 12 -3 8 24 12 44 7 44 -4 0 -13 -18 -19
-41z"/>
<path d="M2251 1590 c9 -5 36 -12 60 -15 42 -5 41 -4 -11 10 -65 17 -70 17
-49 5z"/>
<path d="M1090 1577 c0 -9 -5 -17 -11 -17 -5 0 -7 -5 -3 -11 4 -8 -1 -9 -17
-4 -19 5 -21 4 -9 -4 8 -6 21 -11 27 -11 14 0 29 47 19 57 -3 4 -6 -1 -6 -10z"/>
<path d="M339 1570 c-5 -30 -2 -120 5 -120 4 0 6 -11 4 -25 -3 -14 -1 -25 3
-25 5 0 9 -9 9 -19 0 -10 6 -21 13 -24 15 -6 17 44 3 55 -5 3 -11 37 -12 74
-2 37 -8 72 -14 78 -5 5 -10 8 -11 6z"/>
<path d="M1497 1563 c-2 -5 -7 -21 -11 -38 -4 -16 -9 -39 -12 -50 -4 -17 -3
-17 5 -4 6 9 14 34 20 57 8 39 8 52 -2 35z"/>
<path d="M915 1514 c-11 -14 -25 -31 -31 -37 -5 -7 -13 -21 -17 -31 -6 -16 -5
-17 7 -7 9 7 18 21 21 32 4 10 15 19 26 19 12 0 17 5 14 10 -4 6 -1 17 5 25 7
8 9 15 4 15 -5 -1 -18 -12 -29 -26z"/>
<path d="M846 1515 c-10 -8 -15 -19 -11 -24 3 -6 -1 -14 -9 -17 -9 -3 -16 -12
-16 -20 0 -7 -9 -28 -20 -46 -11 -18 -20 -40 -20 -48 0 -8 -10 -28 -21 -45
-18 -25 -20 -27 -16 -7 3 12 1 19 -4 16 -5 -3 -8 -17 -7 -31 3 -22 -2 -27 -24
-30 -24 -3 -28 0 -28 22 0 15 5 35 10 46 15 28 5 23 -30 -13 -16 -18 -28 -39
-25 -47 3 -8 -1 -23 -8 -35 -7 -12 -24 -39 -37 -60 l-24 -39 75 60 c41 34 77
57 80 51 7 -11 26 17 64 97 16 33 40 78 54 100 14 22 24 45 23 52 -1 6 5 13
15 15 10 2 13 6 8 10 -6 3 -18 0 -29 -7z"/>
<path d="M1119 1513 c-9 -2 -21 -14 -27 -27 -5 -13 -31 -48 -56 -79 l-46 -56
18 -31 c9 -16 21 -30 25 -30 5 0 25 12 45 27 20 15 39 29 41 30 3 2 0 8 -6 14
-8 8 -22 5 -52 -12 -47 -26 -69 -17 -28 13 15 11 25 24 22 28 -3 5 0 12 6 16
8 4 9 3 5 -4 -4 -7 -2 -12 4 -12 7 0 9 8 5 20 -3 11 -2 20 4 20 5 0 15 16 21
36 12 34 14 36 47 31 33 -6 34 -5 17 8 -11 8 -21 14 -24 14 -3 -1 -12 -3 -21
-6z"/>
<path d="M260 1475 c-12 -19 -27 -35 -33 -35 -8 0 -7 -3 1 -9 11 -7 9 -19 -12
-60 -20 -39 -23 -51 -12 -51 22 0 46 11 46 21 0 4 -7 6 -15 3 -20 -8 -19 -6
11 62 49 111 54 134 14 69z"/>
<path d="M1245 1460 c22 -11 48 -20 57 -20 24 0 32 -19 16 -38 -8 -9 -22 -29
-31 -44 l-17 -28 37 1 c23 1 29 3 16 6 -28 5 -28 11 -3 43 l19 25 31 -32 c17
-18 29 -36 28 -40 -3 -9 36 -63 46 -63 15 0 2 23 -44 81 -27 34 -50 68 -50 74
0 6 -26 19 -57 29 -32 9 -65 19 -73 21 -8 3 3 -4 25 -15z"/>
<path d="M765 1451 c-43 -27 -75 -59 -75 -76 0 -13 5 -13 33 -2 17 7 30 17 29
21 -2 4 9 21 24 37 34 35 28 45 -11 20z"/>
<path d="M2890 1449 c-26 -14 -35 -26 -36 -47 l-1 -27 10 27 c6 15 20 29 33
32 12 3 24 13 28 21 3 8 4 15 3 14 -1 0 -18 -9 -37 -20z"/>
<path d="M2195 1436 c-22 -7 -58 -19 -81 -26 -41 -12 -158 -103 -147 -114 3
-3 29 14 57 39 81 69 141 89 268 89 68 1 101 4 91 10 -28 15 -145 17 -188 2z"/>
<path d="M2791 1398 c-35 -31 -50 -71 -24 -61 16 6 17 20 1 25 -7 3 -5 7 6 11
10 4 15 3 11 -3 -9 -14 8 -12 29 3 10 7 16 22 14 34 -3 21 -5 20 -37 -9z"/>
<path d="M811 1347 c-25 -40 -56 -88 -71 -107 -24 -32 -76 -119 -172 -285 -96
-168 -177 -376 -274 -703 -15 -51 -29 -90 -32 -88 -2 3 4 28 13 56 9 28 15 53
13 56 -3 2 -15 -30 -28 -72 -12 -41 -19 -78 -16 -81 3 -4 6 2 6 12 0 10 2 16
5 13 3 -2 -1 -37 -9 -76 -13 -67 -12 -72 4 -72 14 0 19 16 29 87 16 114 54
239 103 336 22 43 37 85 34 93 -3 8 -2 13 3 10 5 -3 11 1 14 9 4 9 1 12 -9 8
-17 -6 -17 -10 0 52 14 53 83 205 93 205 3 0 3 -7 -1 -15 -7 -20 1 -19 32 6
25 19 27 19 33 2 4 -13 8 -6 13 25 5 23 12 39 18 36 5 -3 4 3 -3 14 -13 21 -5
57 11 47 10 -6 27 22 18 30 -2 3 -20 -6 -40 -20 l-35 -24 42 77 c51 92 127
221 169 287 69 108 66 106 100 78 18 -16 18 -15 -2 11 -16 21 -19 32 -12 42 6
7 7 15 3 17 -5 3 -28 -27 -52 -66z m-223 -490 c4 -31 2 -31 -32 -16 -21 10
-23 15 -15 31 15 27 43 18 47 -15z"/>
<path d="M2693 1410 c-31 -12 -29 -18 3 -12 16 3 30 -1 35 -9 6 -10 9 -8 9 9
0 23 -11 26 -47 12z"/>
<path d="M1205 1370 c-14 -16 -20 -17 -27 -8 -5 8 -8 0 -8 -21 l0 -34 22 29
c12 16 26 35 31 42 15 20 2 14 -18 -8z"/>
<path d="M340 1330 c0 -15 4 -30 10 -36 5 -5 11 -19 13 -30 1 -11 13 -33 25
-49 12 -15 22 -34 22 -41 0 -8 4 -14 10 -14 11 0 5 16 -44 120 -25 54 -35 68
-36 50z"/>
<path d="M2413 1310 c-59 -32 -83 -50 -83 -65 0 -10 21 2 60 32 33 25 60 48
60 50 0 1 -1 2 -2 2 -2 -1 -17 -9 -35 -19z"/>
<path d="M2842 1248 c-3 -98 -29 -334 -37 -348 -9 -14 -32 -12 -33 3 -12 178
-13 229 -5 239 6 7 13 38 16 68 4 36 3 48 -3 35 -5 -11 -9 -34 -9 -51 -1 -16
-7 -38 -14 -47 -9 -13 -10 -41 -5 -105 3 -48 7 -126 7 -174 1 -49 5 -88 9 -88
4 0 6 16 4 35 -3 28 2 42 27 70 17 20 32 46 33 58 0 12 2 36 3 52 2 17 9 54
18 83 8 28 11 50 6 46 -5 -3 -9 -12 -9 -21 0 -9 -3 -14 -6 -11 -3 3 -2 22 1
41 5 25 18 43 43 61 20 14 32 26 26 26 -5 0 -19 -7 -30 -15 -27 -20 -35 -18
-30 8 15 66 16 117 4 117 -9 0 -14 -24 -16 -82z"/>
<path d="M1226 1277 c-44 -55 -179 -253 -200 -294 -31 -61 -16 -47 25 22 22
38 44 72 48 75 4 3 20 26 36 52 17 27 33 48 38 48 4 0 7 7 7 15 0 8 3 15 8 15
4 0 18 16 31 36 34 49 53 58 82 35 29 -22 59 -33 59 -22 0 4 -22 20 -50 34
l-50 26 -34 -42z"/>
<path d="M1572 1295 c-16 -36 -15 -49 10 -107 16 -39 23 -46 30 -34 6 10 3 24
-7 39 -8 13 -16 47 -16 75 -1 29 -3 52 -4 52 -1 0 -7 -11 -13 -25z"/>
<path d="M1620 1283 c0 -15 4 -35 10 -43 7 -11 11 -9 19 13 14 35 14 47 1 27
-8 -13 -10 -13 -10 2 0 9 -4 20 -10 23 -6 4 -10 -6 -10 -22z"/>
<path d="M1087 1254 c-33 -37 -38 -47 -30 -69 l8 -26 28 42 c24 36 47 101 36
98 -2 0 -21 -21 -42 -45z"/>
<path d="M260 1275 c-6 -8 -9 -19 -5 -25 4 -6 2 -9 -3 -8 -5 2 -20 -10 -34
-27 -33 -40 -90 -125 -84 -125 3 0 18 20 35 43 16 24 45 59 64 78 19 19 37 44
41 57 8 25 4 28 -14 7z"/>
<path d="M1931 1261 c-8 -14 -7 -22 4 -31 13 -11 15 -8 15 19 0 36 -5 39 -19
12z"/>
<path d="M2596 1248 c-4 -15 -5 -49 -2 -75 8 -58 9 -86 3 -225 -3 -81 -1 -108
9 -112 10 -4 11 17 7 95 -4 70 -2 104 7 114 7 8 9 22 5 32 -4 10 -11 59 -14
108 -5 69 -9 83 -15 63z"/>
<path d="M905 1227 c-17 -42 -19 -54 -6 -62 5 -3 9 8 9 24 -1 17 5 37 12 46 7
8 10 18 7 22 -4 3 -14 -10 -22 -30z"/>
<path d="M1739 1245 c-1 -11 -2 -24 -1 -30 2 -25 32 -144 47 -185 10 -25 17
-62 17 -82 -1 -21 3 -38 8 -38 4 0 13 -13 19 -30 5 -16 12 -30 15 -30 3 0 1
11 -4 24 -12 33 -59 214 -80 311 -10 44 -19 71 -21 60z"/>
<path d="M859 1220 c-10 -28 -29 -41 -29 -20 0 6 -5 10 -12 10 -6 0 -3 -9 7
-20 10 -11 22 -17 25 -13 10 11 30 73 24 73 -3 0 -10 -13 -15 -30z"/>
<path d="M2710 1217 c0 -8 -9 -22 -21 -33 -11 -10 -25 -28 -31 -39 -5 -11 2
-6 16 10 l25 30 1 -44 c0 -24 3 -42 6 -38 6 6 13 127 7 127 -1 0 -3 -6 -3 -13z"/>
<path d="M334 1177 c1 -26 -2 -47 -7 -47 -5 0 -4 -7 3 -15 14 -17 35 -21 25
-5 -3 6 -6 28 -7 49 0 21 -4 45 -9 52 -5 9 -7 -5 -5 -34z"/>
<path d="M659 1197 c-45 -37 -88 -115 -134 -241 -18 -50 -52 -131 -74 -181
-44 -95 -151 -395 -151 -423 0 -10 25 57 55 148 35 106 84 224 137 330 45 91
81 171 79 179 -1 7 1 11 6 8 4 -3 8 8 9 24 1 16 10 39 20 50 10 12 18 23 16
25 -5 9 29 63 45 73 10 5 15 12 12 15 -3 3 -12 0 -20 -7z"/>
<path d="M946 1178 c-11 -17 -14 -28 -7 -24 6 4 11 3 11 -2 0 -5 -12 -15 -27
-23 -43 -22 -232 -149 -239 -161 -4 -5 5 -2 20 7 14 10 26 13 26 7 0 -5 16 6
36 24 19 19 40 34 45 34 6 0 42 20 80 45 62 40 69 48 69 77 0 25 3 29 10 18 5
-8 10 -10 10 -5 0 31 -17 32 -34 3z"/>
<path d="M1930 1202 c0 -3 6 -13 13 -21 8 -9 20 -31 27 -49 11 -27 11 -37 0
-58 -12 -21 -11 -35 4 -94 17 -65 16 -107 -1 -97 -5 3 -14 -1 -20 -9 -20 -21
3 -27 37 -9 35 18 36 24 12 96 -33 96 -35 109 -14 109 25 0 34 11 21 26 -6 7
-19 34 -28 60 -11 27 -26 48 -35 50 -9 1 -16 0 -16 -4z"/>
<path d="M1657 1083 c-3 -4 -8 -26 -11 -48 -3 -22 -3 -33 1 -25 13 29 29 40
43 27 10 -9 -1 12 -26 51 -1 2 -4 0 -7 -5z"/>
<path d="M1571 1018 c18 -47 39 -82 39 -66 0 11 -50 118 -55 118 -2 0 5 -24
16 -52z"/>
<path d="M388 998 c4 -3 21 -8 37 -10 25 -2 31 -8 33 -33 l4 -30 14 34 c8 18
14 37 14 41 0 4 -25 7 -54 6 -30 0 -52 -4 -48 -8z"/>
<path d="M44 931 c-13 -14 -24 -33 -23 -41 0 -10 4 -8 11 6 13 28 49 44 101
44 31 0 38 3 27 10 -28 18 -91 8 -116 -19z"/>
<path d="M262 922 c-38 -47 -33 -58 13 -29 36 23 40 33 26 55 -6 10 -16 3 -39
-26z"/>
<path d="M1780 870 c22 -44 42 -80 45 -80 3 0 -13 36 -35 80 -22 44 -42 80
-45 80 -3 0 13 -36 35 -80z"/>
<path d="M2944 830 c0 -58 1 -81 3 -52 2 28 2 76 0 105 -2 28 -3 5 -3 -53z"/>
<path d="M1520 904 c-19 -7 -31 -13 -26 -13 4 -1 -2 -10 -15 -22 -18 -15 -13
-13 18 5 24 15 47 26 53 26 5 0 10 5 10 10 0 6 -1 9 -2 9 -2 -1 -19 -7 -38
-15z"/>
<path d="M1677 816 c-4 -60 -6 -111 -3 -113 7 -7 18 118 14 172 -2 36 -5 19
-11 -59z"/>
<path d="M2707 863 c-6 -32 -3 -38 12 -28 13 8 15 55 2 55 -5 0 -11 -12 -14
-27z"/>
<path d="M412 873 c1 -5 -2 -21 -7 -36 -12 -43 2 -44 19 -2 19 46 19 45 1 45
-8 0 -14 -3 -13 -7z"/>
<path d="M110 820 l-35 -29 28 -1 c19 0 27 5 27 18 0 10 5 23 12 30 22 22 3
12 -32 -18z"/>
<path d="M1925 840 c-3 -5 -1 -10 4 -10 6 0 11 -9 11 -20 0 -38 29 -79 93
-131 34 -28 67 -56 72 -62 26 -31 135 -117 129 -104 -3 8 -41 45 -83 81 -124
104 -201 191 -201 226 0 30 -13 40 -25 20z"/>
<path d="M2345 815 c-12 -37 -22 -50 -39 -50 -8 0 -23 -10 -31 -23 -9 -12 -12
-22 -6 -22 5 0 12 9 16 19 3 11 11 18 18 16 7 -2 25 6 41 19 23 19 26 27 18
42 -10 18 -11 18 -17 -1z"/>
<path d="M174 796 c-16 -13 -27 -27 -24 -29 3 -3 18 6 34 19 15 14 26 27 23
30 -2 3 -18 -6 -33 -20z"/>
<path d="M1850 811 c0 -16 53 -114 83 -156 31 -41 117 -125 129 -125 9 0 168
-97 187 -114 60 -54 231 -96 392 -96 76 0 215 -33 242 -58 11 -9 23 -26 28
-37 6 -17 8 -17 8 -3 1 10 -11 31 -26 47 -37 38 -132 59 -322 72 -171 11 -199
18 -266 60 -28 18 -99 61 -160 97 -60 36 -127 81 -147 100 -42 40 -99 128
-119 185 -12 34 -29 50 -29 28z"/>
<path d="M366 777 c1 -12 3 -25 3 -29 1 -5 6 -8 11 -8 15 0 12 36 -3 49 -11 8
-13 6 -11 -12z"/>
<path d="M565 733 c-4 -21 -9 -45 -11 -54 -3 -12 4 -18 26 -22 19 -4 34 -15
40 -29 9 -21 10 -21 7 7 -1 22 -8 31 -27 35 -23 5 -25 10 -23 53 3 56 -4 61
-12 10z"/>
<path d="M683 700 c0 -36 2 -50 4 -32 2 17 2 47 0 65 -2 17 -4 3 -4 -33z"/>
<path d="M2520 725 c-23 -24 -29 -35 -18 -35 8 0 20 10 26 23 9 19 11 20 11 3
1 -10 -7 -25 -16 -32 -12 -9 -14 -13 -5 -14 8 0 10 -5 6 -12 -6 -10 -4 -10 8
0 15 12 35 88 26 98 -2 2 -20 -12 -38 -31z"/>
<path d="M2586 699 c5 -29 2 -39 -12 -47 -11 -6 -15 -14 -10 -19 5 -4 11 -2
13 5 3 6 12 12 21 12 15 0 15 -2 2 -11 -11 -8 -12 -12 -3 -16 8 -3 11 -14 7
-30 -10 -38 13 -20 31 24 18 43 19 69 3 79 -6 4 -8 3 -5 -3 8 -13 -3 -76 -11
-68 -3 3 -7 14 -9 25 -1 11 -9 34 -18 52 l-14 33 5 -36z"/>
<path d="M2224 698 c6 -20 -13 -45 -39 -52 -11 -2 -6 -4 12 -3 21 1 40 -6 56
-21 14 -13 30 -20 40 -17 8 4 17 1 20 -7 2 -7 2 -2 0 10 -3 16 0 23 9 20 7 -3
21 6 32 19 20 26 17 43 -4 18 -17 -20 -31 -19 -23 3 4 11 0 10 -11 -5 -22 -29
-40 -30 -31 -2 5 15 4 19 -4 15 -6 -4 -11 -14 -11 -22 0 -20 -20 -18 -26 4 -8
24 -26 61 -20 40z"/>
<path d="M2454 685 c-7 -18 -34 -20 -34 -2 0 8 -4 7 -10 -3 -16 -25 -11 -29
23 -18 17 5 38 10 44 11 9 0 10 4 2 14 -15 17 -18 16 -25 -2z"/>
<path d="M2677 682 c2 -11 13 -18 26 -18 15 1 22 -5 21 -17 -2 -16 0 -17 19
-4 11 7 22 19 23 26 1 6 0 7 -3 1 -7 -15 -33 -12 -39 4 -3 8 -12 12 -20 9 -8
-3 -14 0 -14 6 0 6 -4 11 -9 11 -5 0 -7 -8 -4 -18z"/>
<path d="M1651 613 c-7 -43 -25 -142 -41 -220 -28 -140 -30 -145 -91 -238 -34
-53 -76 -107 -93 -120 l-31 -25 33 12 c25 10 47 34 91 103 31 49 62 104 69
120 22 56 89 431 79 441 -2 2 -10 -31 -16 -73z"/>
<path d="M2990 625 l0 -64 -37 -17 c-21 -10 -42 -24 -46 -31 -5 -7 -13 -11
-18 -7 -5 3 -8 0 -7 -8 2 -8 -5 -12 -17 -10 -15 2 -17 1 -6 -6 8 -6 10 -15 5
-23 -4 -8 16 7 45 34 49 43 63 51 84 48 4 0 7 33 7 74 0 41 -2 75 -5 75 -3 0
-5 -29 -5 -65z"/>
<path d="M491 665 c-5 -5 -12 -20 -15 -32 -6 -18 -3 -23 11 -23 11 0 24 -5 30
-11 7 -7 18 -3 38 15 l28 26 -36 0 c-19 0 -38 -6 -40 -12 -3 -7 -6 -3 -6 10
-1 16 5 22 19 22 11 0 20 4 20 8 0 11 -40 9 -49 -3z"/>
<path d="M130 620 c0 -11 -7 -20 -15 -20 -9 0 -6 -8 11 -25 14 -14 26 -25 28
-25 1 0 18 19 36 42 31 38 32 40 7 23 -14 -11 -27 -23 -27 -27 0 -5 -9 -8 -20
-8 -16 0 -19 5 -13 30 3 17 3 30 -1 30 -3 0 -6 -9 -6 -20z"/>
<path d="M2396 631 c-4 -5 -3 -16 0 -25 4 -12 0 -16 -15 -16 -12 0 -21 -5 -21
-11 0 -6 8 -8 19 -4 16 5 20 -3 30 -55 7 -33 14 -60 16 -60 3 0 3 23 2 50 -3
40 0 50 12 50 13 1 13 2 -1 11 -25 14 -24 43 2 36 24 -6 25 -3 4 17 -17 18
-40 21 -48 7z"/>
<path d="M2660 605 c-13 -14 -20 -28 -17 -32 8 -7 57 35 57 49 0 15 -16 8 -40
-17z"/>
<path d="M2525 580 c-34 -35 -45 -38 -45 -10 0 11 -5 20 -11 20 -7 0 -8 -7 -4
-17 4 -10 7 -26 7 -35 0 -9 6 -23 15 -30 14 -11 15 -10 9 10 -5 14 -3 22 5 22
6 0 18 8 26 18 11 12 10 9 -1 -10 -22 -37 -20 -41 8 -23 26 17 43 62 28 77 -4
4 -21 -5 -37 -22z"/>
<path d="M0 593 c0 -5 7 -17 15 -27 11 -15 12 -22 3 -27 -7 -4 6 -16 33 -29
39 -21 42 -21 29 -4 -32 42 -80 94 -80 87z"/>
<path d="M478 574 c3 -18 7 -22 13 -13 5 8 9 -2 12 -27 l4 -39 1 36 c1 24 -4
42 -17 53 -18 16 -18 16 -13 -10z"/>
<path d="M597 572 c-22 -23 -27 -37 -26 -78 l1 -49 12 50 c7 28 20 62 30 78
23 35 17 35 -17 -1z"/>
<path d="M2657 550 c-38 -24 -39 -26 -10 -24 14 0 30 8 35 18 14 24 7 26 -25
6z"/>
<path d="M2576 533 c-15 -30 -15 -31 4 -26 27 7 33 19 22 40 -8 14 -12 12 -26
-14z"/>
<path d="M166 509 c-27 -16 -46 -32 -44 -35 3 -2 29 11 58 31 64 43 53 47 -14
4z"/>
<path d="M2327 519 c9 -9 8 -18 -4 -35 -8 -13 -11 -24 -5 -24 6 0 12 5 14 12
2 6 19 11 36 10 18 0 30 4 27 9 -4 5 -12 9 -19 9 -8 0 -19 7 -26 15 -7 8 -17
15 -23 15 -8 0 -7 -4 0 -11z"/>
<path d="M2994 265 c0 -149 2 -211 3 -138 2 72 2 194 0 270 -1 76 -3 17 -3
-132z"/>
<path d="M92 473 c-34 -50 -94 -164 -89 -169 3 -3 20 23 37 58 46 92 53 97 79
54 13 -20 25 -36 27 -36 6 0 -2 14 -29 54 -16 23 -18 32 -9 47 19 29 6 22 -16
-8z"/>
<path d="M2650 471 c0 -6 -6 -8 -14 -5 -8 3 -19 -4 -26 -16 -11 -20 -10 -21 9
-10 24 12 44 5 35 -13 -3 -7 2 -3 10 8 9 10 15 24 13 29 -5 14 -27 20 -27 7z"/>
<path d="M905 436 c-27 -6 -55 -14 -61 -18 -6 -4 -30 -10 -53 -14 -24 -4 -45
-12 -47 -19 -6 -14 96 -278 104 -270 5 4 -20 69 -73 194 -13 30 -21 60 -18 67
3 7 25 16 49 20 24 3 44 10 44 15 0 5 12 9 28 8 15 0 47 6 72 14 52 18 28 19
-45 3z"/>
<path d="M2850 425 c16 -20 6 -31 -40 -43 -33 -9 -33 -9 17 -8 29 0 53 4 53 8
0 16 -24 58 -33 58 -5 0 -4 -7 3 -15z"/>
<path d="M456 391 c8 -9 10 -39 7 -91 -3 -42 -1 -85 4 -94 7 -13 8 -1 5 39 -5
55 -4 56 20 50 20 -5 29 -1 43 21 l17 27 -23 -17 c-36 -25 -49 -20 -49 18 0
20 -7 39 -17 47 -14 10 -15 10 -7 0z"/>
<path d="M568 317 c19 -23 8 -80 -26 -136 -31 -50 -32 -54 -17 -71 13 -14 15
-29 10 -64 -5 -29 -4 -46 3 -46 13 0 21 90 9 116 -6 16 -3 33 14 65 22 44 43
143 27 133 -4 -3 -8 0 -8 5 0 6 -5 11 -11 11 -8 0 -8 -4 -1 -13z"/>
<path d="M185 288 c-16 -6 -48 -10 -70 -10 -22 0 -32 -2 -22 -5 9 -2 15 -8 12
-13 -5 -9 62 -4 113 7 28 7 30 9 15 19 -12 7 -28 8 -48 2z"/>
<path d="M380 272 c0 -10 -6 -24 -12 -31 -11 -10 -9 -11 5 -5 16 6 37 34 37
48 0 3 -7 6 -15 6 -8 0 -15 -8 -15 -18z"/>
<path d="M123 234 c-3 -9 -1 -25 6 -36 14 -23 16 -20 -26 -42 -19 -9 -33 -24
-33 -34 1 -16 1 -16 11 1 5 9 17 17 24 17 20 0 19 -34 0 -50 -12 -10 -15 -10
-15 0 0 8 -2 11 -5 8 -3 -3 -3 -12 1 -21 11 -31 42 -1 50 48 5 40 10 46 38 54
17 5 24 10 14 10 -9 1 -21 15 -27 31 -11 33 -28 39 -38 14z m30 -16 c7 -25 3
-33 -12 -23 -13 8 -15 45 -2 45 5 0 11 -10 14 -22z"/>
<path d="M79 213 c-37 -45 -40 -55 -6 -24 20 19 37 36 37 38 0 9 -19 1 -31
-14z"/>
<path d="M0 188 c0 -9 4 -19 9 -23 12 -7 41 -64 41 -81 0 -7 -12 -15 -27 -17
-20 -3 -15 -4 15 -6 l42 -1 -20 41 c-37 71 -60 105 -60 87z"/>
<path d="M1535 100 c-20 -28 -42 -50 -48 -50 -5 0 -8 -3 -5 -6 12 -11 60 30
79 68 11 21 17 38 15 38 -2 0 -21 -22 -41 -50z"/>
<path d="M2941 93 c0 -7 -9 -13 -18 -14 -11 0 -7 -5 10 -11 21 -8 32 -7 40 2
9 10 8 12 -5 7 -11 -4 -18 0 -21 11 -3 9 -5 11 -6 5z"/>
<path d="M143 59 c-18 -12 -33 -24 -33 -29 0 -9 89 33 90 43 0 13 -24 7 -57
-14z"/>
<path d="M0 30 c0 -5 18 -10 39 -10 22 0 41 -5 44 -12 2 -7 7 -10 11 -7 3 3 4
14 0 23 -4 11 -19 16 -50 16 -24 0 -44 -4 -44 -10z"/>
</g>
</svg>
