<?xml version="1.0" standalone="no"?>
<!DOCTYPE svg PUBLIC "-//W3C//DTD SVG 20010904//EN"
 "http://www.w3.org/TR/2001/REC-SVG-20010904/DTD/svg10.dtd">
<svg version="1.0" xmlns="http://www.w3.org/2000/svg"
 width="300.000000pt" height="338.000000pt" viewBox="0 0 300.000000 338.000000"
 preserveAspectRatio="xMidYMid meet">
<metadata>
Created by potrace 1.10, written by Peter Selinger 2001-2011
</metadata>
<g transform="translate(0.000000,338.000000) scale(0.100000,-0.100000)"
fill="#000000" stroke="none">
<path d="M597 3343 c-13 -12 -7 -33 8 -33 8 0 15 9 15 20 0 20 -11 26 -23 13z"/>
<path d="M600 3139 c0 -79 -15 -165 -31 -184 -5 -5 -9 -23 -9 -41 0 -40 -9
-64 -24 -64 -10 0 -56 -159 -78 -275 -6 -27 -17 -63 -25 -78 -10 -18 -12 -32
-6 -38 17 -17 32 14 63 132 63 233 69 252 80 263 9 8 11 -16 9 -96 -3 -107 4
-145 15 -91 9 42 26 344 26 456 0 58 -4 97 -10 97 -6 0 -10 -34 -10 -81z"/>
<path d="M2988 3140 c-4 -14 -41 -61 -82 -105 -41 -44 -75 -82 -76 -85 0 -3
16 -5 35 -5 25 0 34 4 30 13 -3 7 15 35 40 61 25 26 45 53 45 59 0 6 5 12 11
14 6 2 9 19 7 38 -3 33 -4 33 -10 10z"/>
<path d="M2050 3094 c-11 -26 -20 -48 -20 -50 0 -2 -13 -32 -30 -66 -38 -78
-38 -88 2 -88 17 0 59 -16 94 -35 34 -19 69 -35 78 -35 20 0 32 -20 16 -30 -9
-6 -8 -11 6 -19 13 -8 15 -14 7 -17 -9 -4 -6 -15 8 -40 23 -42 24 -45 2 -37
-16 6 -15 3 2 -17 l20 -23 -22 5 c-16 4 -23 0 -27 -16 -12 -43 -6 -56 37 -77
50 -25 43 -19 51 -46 6 -17 3 -23 -8 -23 -9 0 -16 6 -16 13 0 8 -4 7 -10 -3
-8 -13 -14 -10 -35 15 -13 17 -24 34 -25 38 0 5 -5 5 -10 2 -6 -3 -14 4 -19
17 -9 21 -10 22 -10 2 -1 -11 6 -29 14 -40 18 -23 19 -47 3 -41 -7 2 -22 0
-32 -6 -16 -8 -18 -7 -12 9 19 47 18 89 -4 112 -21 22 -50 30 -50 13 0 -5 7
-14 15 -21 13 -11 13 -15 3 -21 -10 -7 -9 -9 4 -9 23 0 28 -12 19 -46 -7 -26
-12 -29 -52 -29 -54 0 -66 9 -61 50 7 62 -54 139 -104 133 -29 -3 -29 -3 14
-27 23 -14 41 -30 39 -35 -2 -6 7 -24 19 -39 29 -35 29 -35 -2 -72 -18 -21
-22 -23 -15 -8 9 18 8 24 -8 32 -13 8 -18 20 -17 41 1 16 -1 31 -6 31 -4 1
-14 2 -20 3 -7 0 -19 16 -27 34 -17 38 -27 40 -35 7 -4 -16 -13 -25 -26 -25
-21 0 -28 24 -10 35 16 10 11 43 -7 49 -10 3 -38 23 -63 44 l-44 39 13 41 c11
33 11 44 2 56 -18 21 -10 60 13 64 11 3 25 -3 31 -12 14 -19 8 -66 -9 -66 -8
0 -8 -2 1 -8 6 -4 13 -20 15 -37 5 -46 76 -95 139 -95 47 0 49 1 49 28 0 15
-5 33 -12 40 -9 9 -9 12 0 12 7 0 12 7 12 16 0 11 -6 14 -22 8 -32 -9 -32 -10
-6 -36 22 -22 22 -23 3 -27 -10 -2 -21 2 -23 8 -2 6 -8 8 -13 5 -6 -3 -16 0
-24 6 -8 7 -15 9 -16 4 -1 -5 -4 2 -8 16 -8 28 -41 41 -41 16 0 -9 -5 -16 -11
-16 -19 0 0 121 29 179 23 45 34 56 67 67 36 12 41 12 62 -8 12 -11 24 -30 26
-42 2 -11 5 2 6 29 0 32 -5 59 -15 73 -22 32 -38 27 -17 -5 l17 -28 -29 25
c-17 14 -31 27 -33 31 -5 11 -128 -9 -162 -26 -59 -30 -118 -104 -103 -127 4
-7 6 -30 4 -52 -2 -32 0 -38 13 -33 18 7 21 3 31 -40 6 -30 5 -33 -19 -33 -24
0 -46 -24 -46 -49 0 -14 56 -42 72 -36 7 3 24 -4 38 -15 14 -11 19 -20 12 -20
-7 0 -10 -5 -7 -11 4 -6 13 -8 21 -5 8 3 11 0 8 -8 -3 -8 -1 -17 5 -21 6 -3
11 -11 11 -16 0 -6 -4 -7 -10 -4 -5 3 -10 3 -10 0 0 -10 70 -36 81 -30 5 4 18
4 28 0 24 -7 45 -89 30 -116 -5 -10 -9 -19 -9 -21 0 -2 62 -4 137 -6 77 -2
143 -8 150 -14 16 -13 80 -5 119 14 28 13 29 17 31 82 1 39 -2 65 -5 59 -4 -5
-24 -13 -44 -17 -32 -6 -37 -4 -32 9 4 10 -1 22 -12 30 -18 13 -17 14 11 10
17 -2 32 -4 35 -4 3 -1 -2 -5 -10 -11 -22 -14 -6 -22 24 -11 28 11 33 30 14
49 -9 9 -9 12 0 12 7 0 12 5 12 10 0 6 -7 10 -16 10 -13 0 -14 3 -4 15 6 8 9
23 5 35 -4 12 -1 28 6 36 10 12 10 17 1 23 -7 4 -11 31 -10 72 3 99 -1 149
-11 149 -5 0 -12 -8 -14 -17 -3 -11 -5 -7 -6 10 0 15 -5 27 -11 27 -5 0 -7
-21 -3 -50 3 -27 2 -50 -3 -50 -14 1 -49 30 -36 30 7 0 12 13 12 30 0 20 -5
30 -15 30 -8 0 -15 3 -15 8 0 4 -20 8 -44 8 l-44 2 13 -38 c7 -21 11 -41 8
-44 -4 -3 4 -17 17 -31 29 -31 19 -31 -65 -4 -59 20 -64 24 -51 38 13 16 76
158 76 173 0 23 -22 2 -40 -38z m-225 -28 c-34 -13 -53 -25 -45 -28 13 -4 12
-10 -5 -42 -25 -48 -32 -51 -61 -36 -19 11 -26 11 -39 0 -29 -24 -17 13 13 39
16 14 20 22 10 18 -27 -10 -21 9 10 29 39 27 75 39 129 41 l48 3 -60 -24z
m353 -96 c-1 -44 -28 -49 -28 -5 0 24 5 35 14 35 10 0 14 -10 14 -30z m49 -56
c2 -6 -7 -16 -19 -23 -21 -10 -19 -11 15 -6 37 6 52 -7 21 -19 -24 -9 -97 -7
-114 4 -12 8 -9 10 13 10 15 0 27 6 27 13 0 31 48 48 57 21z m33 -90 c0 -3 -5
-14 -10 -25 -8 -13 -7 -19 0 -19 6 0 8 -4 5 -10 -9 -15 -38 -12 -32 3 3 8 1
20 -3 28 -6 8 -4 16 3 21 14 9 37 10 37 2z"/>
<path d="M1836 2983 c-12 -12 -6 -41 10 -47 44 -17 101 8 72 31 -17 13 -74 24
-82 16z"/>
<path d="M1947 2953 c-10 -10 -8 -43 2 -43 9 0 21 24 21 41 0 11 -14 12 -23 2z"/>
<path d="M2885 2890 c-3 -11 -4 -28 0 -39 3 -10 6 -95 7 -190 1 -158 0 -173
-18 -186 -10 -8 -14 -15 -8 -15 6 0 21 8 32 19 21 18 22 23 16 180 -5 117 -3
169 6 191 10 24 10 32 -3 45 -20 20 -24 19 -32 -5z"/>
<path d="M1923 2873 c-18 -6 -16 -33 1 -33 19 0 31 19 20 30 -5 4 -15 5 -21 3z"/>
<path d="M1438 2723 c-9 -2 -19 -11 -22 -19 -3 -9 -2 -12 5 -9 14 9 44 -20 60
-56 8 -21 15 -27 22 -20 6 6 26 11 45 11 27 0 32 -3 28 -17 -2 -10 -7 -34 -11
-53 -6 -35 -6 -35 9 -10 9 14 15 40 16 58 0 32 -1 32 -46 32 -37 0 -45 3 -40
15 3 9 0 15 -10 15 -9 0 -14 6 -11 13 2 7 21 12 47 11 l44 -1 -23 18 c-22 18
-71 23 -113 12z"/>
<path d="M1356 2675 c7 -17 24 -20 24 -4 0 6 9 8 23 4 17 -5 19 -4 7 4 -24 17
-60 14 -54 -4z"/>
<path d="M1302 2640 c13 -18 28 -28 36 -25 7 3 18 5 23 5 6 0 7 5 4 10 -3 6
-15 10 -26 10 -13 0 -18 4 -13 12 4 6 3 8 -4 4 -6 -3 -13 -2 -17 4 -3 5 -11
10 -16 10 -5 0 0 -14 13 -30z"/>
<path d="M1273 2621 c26 -31 51 -97 42 -112 -8 -12 -63 -21 -77 -13 -8 5 2 14
28 26 l39 18 -42 -6 c-40 -5 -44 -4 -55 23 -17 41 -38 63 -60 63 -16 0 -14 -4
11 -26 34 -29 61 -98 44 -115 -7 -7 -14 3 -21 34 -11 43 -51 97 -72 97 -18 0
-11 -17 14 -33 13 -9 30 -33 36 -53 11 -33 11 -39 -5 -51 -24 -17 -29 -11 -31
35 -1 20 -2 42 -3 48 0 6 -17 16 -37 22 -37 11 -76 3 -89 -17 -10 -18 4 -50
28 -62 18 -9 20 -9 10 2 -7 7 -13 21 -13 32 0 14 5 17 22 11 20 -6 21 -5 9 10
-21 25 3 19 27 -7 26 -27 45 -84 32 -92 -5 -3 -16 8 -25 25 -9 17 -20 28 -25
25 -15 -9 -12 -26 7 -41 10 -7 16 -14 13 -16 -3 -2 -26 -22 -52 -45 l-47 -42
26 -21 c31 -24 49 -25 57 -4 4 12 2 15 -9 10 -9 -3 -15 0 -15 9 0 9 9 15 23
15 17 0 19 2 7 10 -12 7 -12 12 -2 22 9 9 12 9 12 -2 0 -10 7 -6 19 9 10 13
29 26 42 27 13 2 70 13 126 25 57 12 106 19 110 15 12 -11 20 -340 10 -347 -5
-4 -7 -11 -3 -17 3 -6 2 -13 -4 -17 -5 -3 -10 -16 -10 -29 0 -29 -10 -39 -25
-26 -18 15 -38 -13 -40 -56 -3 -44 -8 -48 -37 -34 -22 12 -22 11 -6 -5 14 -15
14 -21 2 -52 -8 -18 -12 -38 -9 -43 3 -5 -3 -22 -13 -37 -31 -44 -48 -145 -33
-194 15 -51 26 -45 12 7 -16 58 31 226 59 209 11 -7 3 -55 -21 -134 -22 -74
-24 -97 -4 -60 7 14 26 72 40 130 30 117 54 177 79 198 10 8 14 21 10 33 -3
10 2 30 11 44 9 14 14 32 11 39 -3 8 0 15 6 17 7 3 10 50 9 145 -2 141 -5 174
-16 193 -3 6 1 10 9 10 9 0 15 5 14 12 -2 7 11 15 27 19 26 6 24 7 -16 8 -45
1 -103 22 -105 38 -4 40 -49 117 -70 122 -14 2 -12 -3 9 -28z m87 -616 c0 -22
-55 -128 -74 -144 -13 -11 -16 -11 -16 2 0 9 4 18 10 22 5 3 6 13 3 23 -3 9
-3 14 2 10 12 -11 35 11 35 33 0 27 18 69 30 69 5 0 10 -7 10 -15z"/>
<path d="M614 2565 c4 -50 11 -84 19 -90 8 -5 21 -25 31 -42 16 -32 36 -44 36
-23 0 15 -38 87 -49 94 -5 3 -12 30 -16 59 -12 89 -27 91 -21 2z"/>
<path d="M1993 2608 c9 -15 17 -36 17 -48 0 -11 5 -20 11 -20 7 0 9 12 4 36
-4 24 -3 34 4 29 6 -3 11 -1 11 5 0 7 -7 9 -16 6 -9 -4 -24 -1 -33 6 -13 11
-13 9 2 -14z"/>
<path d="M1801 2566 c-8 -9 -12 -56 -12 -125 0 -61 -5 -113 -10 -116 -5 -4 -9
-17 -9 -30 0 -62 -111 -285 -142 -285 -4 0 -7 -3 -6 -7 5 -21 -15 -53 -30 -49
-9 3 -30 8 -47 11 -29 5 -29 5 -5 -6 68 -31 99 -41 116 -36 13 3 11 5 -8 6
-16 0 -28 6 -28 11 0 20 32 75 55 95 12 11 25 30 29 41 5 16 12 20 26 17 21
-6 28 13 8 19 -9 3 -9 12 1 36 10 24 17 30 26 22 6 -5 15 -7 18 -3 12 11 7 23
-9 23 -13 0 -15 6 -9 28 8 33 21 47 29 33 4 -6 2 -11 -3 -11 -6 0 -11 -4 -11
-10 0 -16 27 -11 34 6 10 26 7 34 -14 34 -24 0 -24 -3 -4 51 11 30 16 74 15
138 -1 57 3 99 10 107 7 8 7 14 1 14 -5 0 -15 -6 -21 -14z"/>
<path d="M2689 2532 c-56 -59 -115 -134 -130 -166 -18 -39 -35 -43 -43 -11 -9
37 -26 30 -26 -11 0 -31 -3 -36 -19 -31 -16 4 -21 -2 -26 -35 -7 -41 4 -66 24
-54 6 4 11 17 11 30 0 28 35 62 59 58 12 -2 31 17 58 60 48 74 97 128 117 128
16 0 31 49 19 61 -5 5 -25 -8 -44 -29z"/>
<path d="M941 2490 c-33 -48 -33 -50 -17 -75 9 -14 20 -25 24 -25 15 0 82 79
73 84 -5 4 -16 0 -24 -8 -8 -8 -17 -12 -21 -9 -3 4 -6 -3 -6 -15 0 -21 -17
-39 -27 -28 -6 5 17 56 40 88 8 12 8 21 2 27 -7 7 -22 -6 -44 -39z"/>
<path d="M2777 2493 c-24 -3 -37 -9 -34 -16 2 -7 9 -12 15 -11 7 1 30 2 53 3
28 1 39 5 37 14 -5 14 -17 15 -71 10z"/>
<path d="M568 2457 c-12 -30 -10 -93 3 -80 5 5 9 30 7 54 -2 31 -5 39 -10 26z"/>
<path d="M429 2413 c-21 -26 -40 -73 -34 -84 4 -5 14 -9 24 -9 15 0 19 10 24
53 2 28 4 53 3 55 -2 1 -9 -6 -17 -15z"/>
<path d="M888 2425 c-4 -4 -4 -13 -1 -21 3 -8 0 -14 -6 -14 -6 0 -11 -9 -11
-19 0 -11 -9 -40 -19 -65 -25 -56 -35 -110 -27 -133 6 -15 9 -15 16 -3 5 8 5
21 0 31 -11 19 -4 30 16 22 8 -3 14 0 14 6 0 6 -4 11 -10 11 -5 0 -10 5 -10
11 0 6 9 8 22 3 21 -6 21 -5 9 10 -13 15 -13 19 0 26 11 8 12 13 2 29 -12 18
-10 19 25 15 29 -4 33 -3 16 5 -28 12 -39 30 -26 43 6 6 12 6 16 -1 4 -6 12
-11 17 -11 6 0 6 5 -1 13 -6 6 -16 20 -23 30 -7 10 -15 15 -19 12z"/>
<path d="M1858 2355 c-3 -6 -8 -28 -11 -50 l-7 -40 15 39 c14 37 16 73 3 51z"/>
<path d="M1817 2344 c-11 -11 -8 -44 3 -44 15 0 24 30 13 41 -5 5 -12 6 -16 3z"/>
<path d="M955 2303 c-15 -20 -28 -42 -28 -50 0 -8 -6 -12 -15 -8 -13 5 -13 3
-1 -11 11 -13 11 -17 -4 -25 -9 -5 -14 -16 -11 -23 3 -8 -3 -19 -15 -25 -11
-6 -18 -17 -15 -25 3 -7 -11 -43 -31 -81 -19 -37 -33 -70 -31 -72 2 -3 9 5 16
16 16 31 38 27 32 -6 -5 -25 -4 -27 11 -14 10 8 17 9 17 3 0 -6 -8 -16 -17
-22 -16 -10 -16 -11 2 -5 34 11 40 10 40 -5 0 -10 -9 -15 -30 -14 -45 3 -47 3
-40 14 4 6 -6 10 -24 10 -24 0 -32 5 -37 25 -3 14 -3 33 1 42 7 17 8 16 15 -2
7 -19 7 -19 15 4 8 25 -6 41 -36 41 -14 0 -16 -8 -11 -45 4 -38 2 -45 -13 -45
-27 0 -3 -24 47 -45 54 -24 51 -22 44 -34 -9 -15 -51 3 -83 35 -17 17 -28 23
-31 15 -6 -18 23 -46 69 -67 38 -17 42 -17 50 -1 5 9 30 26 56 37 42 19 45 22
31 38 -9 9 -19 27 -23 40 -3 12 -18 29 -33 37 -26 13 -26 14 -5 15 16 0 25 8
29 28 4 15 12 30 18 34 7 5 4 8 -6 8 -10 0 -18 5 -18 10 0 6 9 10 20 10 13 0
18 5 13 15 -3 9 2 22 12 29 10 7 16 18 14 25 -3 7 12 31 33 53 43 47 45 53 20
67 -15 8 -24 3 -47 -26z"/>
<path d="M590 2321 c0 -9 82 -41 107 -41 25 0 13 19 -19 28 -60 18 -88 22 -88
13z"/>
<path d="M345 2156 c4 -61 9 -133 11 -161 7 -82 1 -92 -52 -97 -25 -2 -48 0
-51 4 -2 5 1 42 7 84 10 68 10 78 -6 95 -23 26 -34 24 -34 -5 0 -27 -24 -56
-46 -56 -8 0 -19 11 -24 25 -16 42 -21 28 -16 -47 5 -86 4 -78 16 -78 6 0 10
15 10 34 0 29 4 34 30 40 18 3 30 12 30 21 0 8 5 15 10 15 19 0 21 -27 5 -66
-13 -31 -13 -44 -4 -66 11 -27 14 -28 63 -22 28 4 55 10 59 14 4 3 12 35 18
70 5 34 10 65 11 69 1 3 -2 41 -6 84 -9 82 1 127 27 127 7 0 21 6 30 13 15 10
9 12 -39 13 l-57 0 8 -110z"/>
<path d="M1186 2238 c-2 -7 -11 -62 -20 -122 -9 -61 -23 -120 -31 -133 -14
-20 -13 -28 4 -74 17 -44 18 -59 10 -108 -6 -31 -15 -62 -21 -68 -8 -10 -6
-13 5 -13 17 0 37 49 37 89 0 15 5 32 12 39 9 9 9 15 0 24 -14 14 -17 78 -4
78 5 0 9 19 9 43 0 23 5 88 10 145 5 57 5 106 1 108 -5 3 -10 -1 -12 -8z"/>
<path d="M757 2225 c-3 -6 3 -19 13 -28 17 -14 18 -13 22 8 4 17 0 25 -13 28
-10 3 -20 -1 -22 -8z"/>
<path d="M2470 2172 c0 -27 1 -21 -16 -84 -16 -62 -18 -108 -4 -108 6 0 10 10
10 23 0 12 7 55 15 96 11 52 13 77 5 85 -7 7 -10 3 -10 -12z"/>
<path d="M796 2114 c-10 -38 -1 -40 24 -5 21 30 21 31 2 31 -13 0 -22 -9 -26
-26z"/>
<path d="M557 1990 c-4 -14 -6 -38 -6 -55 l1 -30 9 34 c6 18 9 43 7 55 -3 20
-4 19 -11 -4z"/>
<path d="M1655 1980 c-20 -38 -20 -36 20 -36 27 0 32 3 23 13 -5 7 -14 10 -19
7 -5 -3 -9 2 -9 12 0 14 3 14 15 4 9 -7 18 -10 22 -7 7 8 -15 37 -28 37 -5 0
-15 -13 -24 -30z"/>
<path d="M2297 2003 c-2 -5 -7 -20 -11 -35 -6 -26 -4 -28 26 -28 25 0 29 3 20
12 -7 7 -12 22 -12 35 0 22 -14 31 -23 16z"/>
<path d="M2400 1963 c-49 -6 -63 -23 -18 -23 19 0 41 7 48 15 7 8 11 14 9 13
-2 0 -20 -3 -39 -5z"/>
<path d="M1451 1945 c0 -17 48 -101 48 -85 1 8 -10 33 -24 55 -13 22 -24 36
-24 30z"/>
<path d="M2058 1927 c-28 -10 -24 -12 51 -31 66 -17 122 -51 141 -87 11 -19 2
-90 -16 -134 -7 -18 -6 -19 8 -5 20 21 27 45 29 103 2 43 -2 52 -35 86 -20 21
-36 42 -35 47 1 5 1 14 0 19 -1 12 -112 14 -143 2z"/>
<path d="M1695 1919 c-6 -9 99 -23 119 -16 10 4 13 1 10 -7 -6 -15 43 -29 52
-15 3 5 -1 9 -8 9 -10 0 -9 3 2 10 8 5 12 11 9 14 -9 9 -179 14 -184 5z"/>
<path d="M920 1911 c0 -21 13 -41 26 -41 15 0 17 10 8 34 -7 17 -34 22 -34 7z"/>
<path d="M1923 1895 c-25 -18 -103 -115 -164 -205 -78 -113 -86 -120 -144
-120 -51 0 -230 22 -313 39 -25 5 -40 5 -35 0 8 -8 218 -49 252 -49 10 0 7 -8
-10 -26 l-24 -27 27 7 28 6 -33 -47 c-17 -26 -62 -85 -99 -131 -64 -80 -87
-121 -52 -91 30 25 162 194 183 235 34 64 54 79 92 65 45 -16 44 -16 73 33 23
40 29 44 77 49 56 7 92 27 49 27 -57 1 -63 43 -8 54 39 8 116 8 146 0 17 -5
21 -11 16 -28 -5 -19 -4 -19 9 -6 8 8 18 25 21 36 6 21 5 21 -106 16 l-113 -5
57 64 c53 60 59 64 94 61 22 -2 41 -7 44 -12 3 -5 12 -8 20 -8 50 3 52 0 24
-39 l-28 -38 35 33 c39 36 48 37 96 20 35 -13 41 -26 21 -46 -9 -9 -6 -11 11
-7 17 3 21 0 17 -10 -3 -8 2 -15 12 -18 12 -3 9 -6 -11 -12 -19 -5 -26 -12
-23 -22 3 -7 -2 -17 -11 -20 -14 -6 -14 -7 1 -18 15 -12 15 -13 0 -19 -18 -7
-84 11 -84 23 0 4 -7 16 -15 27 -14 18 -14 17 -4 -11 5 -16 22 -41 36 -54 l26
-24 44 23 c30 16 41 26 33 34 -14 14 -13 26 3 26 31 0 47 81 23 112 -17 23
-94 57 -127 58 -14 0 -47 7 -73 16 -26 9 -56 14 -66 11 -22 -6 -28 8 -7 16 6
2 9 7 6 10 -3 4 -15 0 -26 -8z"/>
<path d="M1017 1873 c-12 -11 -8 -22 11 -32 14 -7 17 -5 18 15 2 23 -15 32
-29 17z"/>
<path d="M477 1723 c-13 -12 -7 -23 12 -23 28 0 51 -43 51 -94 0 -25 5 -48 10
-51 6 -3 10 -17 10 -31 0 -13 4 -24 9 -24 5 0 17 -3 27 -7 15 -5 14 -1 -6 27
-23 32 -26 43 -29 117 -2 50 -61 110 -84 86z"/>
<path d="M432 1661 c-8 -23 -7 -32 4 -41 16 -14 44 -68 44 -84 0 -6 -6 -4 -13
5 -19 25 -140 49 -152 30 -3 -6 -24 -8 -49 -5 -25 4 -52 2 -62 -5 -16 -9 -13
-10 21 -11 22 0 47 -4 55 -10 8 -5 19 -5 25 -1 5 5 28 11 50 14 47 8 90 -14
126 -62 23 -32 49 -41 49 -18 0 19 -27 91 -59 158 l-29 60 -10 -30z"/>
<path d="M1995 1634 c-22 -13 -51 -29 -65 -34 -14 -6 -38 -17 -53 -26 -40 -22
-48 -7 -12 22 25 20 27 26 15 34 -19 12 -23 7 -121 -110 -71 -87 -90 -103
-153 -134 -40 -20 -79 -36 -88 -36 -18 0 -68 -44 -68 -60 0 -5 -6 -10 -12 -10
-8 0 -14 -16 -15 -42 -1 -45 19 -69 81 -96 28 -12 27 -10 -12 23 -38 33 -55
65 -33 65 4 0 7 10 5 23 -5 29 12 49 64 76 40 20 64 27 115 30 10 1 17 9 17
20 0 16 6 19 34 17 27 -3 37 2 47 20 7 13 16 24 21 24 4 0 8 5 8 10 0 6 -8 10
-17 10 -34 0 59 69 164 121 56 27 107 57 113 65 16 18 13 17 -35 -12z"/>
<path d="M840 1610 c12 -23 35 -22 35 1 0 8 -10 15 -23 17 -21 3 -22 1 -12
-18z"/>
<path d="M2000 1592 c0 -4 -16 -16 -35 -26 -35 -19 -44 -39 -24 -52 12 -7 -58
-50 -73 -46 -5 1 -8 -2 -8 -6 0 -5 -29 -30 -65 -57 -36 -26 -65 -52 -65 -57 0
-6 -6 -8 -13 -5 -8 3 -20 1 -28 -3 -10 -7 -8 -11 11 -18 21 -8 30 -5 55 17 34
31 182 129 235 156 59 30 113 76 101 88 -7 7 -18 4 -36 -7 -26 -17 -27 -17
-32 3 -5 20 -23 30 -23 13z m0 -52 c0 -6 -7 -13 -15 -16 -20 -8 -48 3 -40 16
8 13 55 13 55 0z"/>
<path d="M2946 1573 c-14 -14 -24 -28 -22 -30 7 -7 46 17 46 27 0 6 7 10 15
10 8 0 15 5 15 10 0 19 -27 10 -54 -17z"/>
<path d="M2820 1580 c0 -5 12 -10 26 -10 14 0 34 -5 45 -10 15 -8 19 -7 19 4
0 7 -7 17 -16 20 -25 10 -74 7 -74 -4z"/>
<path d="M1214 1537 c-51 -79 -83 -146 -71 -150 12 -4 7 -22 -42 -144 -11 -29
-17 -53 -12 -53 14 0 49 83 76 181 14 49 34 89 50 101 6 4 6 8 1 8 -4 0 -1 12
8 26 10 14 16 34 14 45 -3 16 -6 14 -24 -14z"/>
<path d="M2765 1561 c5 -10 3 -12 -11 -8 -11 4 -30 0 -44 -8 -25 -14 -24 -14
17 -15 45 0 63 14 43 33 -10 9 -11 9 -5 -2z"/>
<path d="M70 1550 c0 -6 23 -9 53 -9 44 1 48 2 22 9 -44 11 -75 11 -75 0z"/>
<path d="M1031 1517 c0 -12 4 -31 9 -42 8 -19 9 -19 9 2 1 12 4 28 7 36 3 8
-2 17 -10 20 -12 5 -16 0 -15 -16z"/>
<path d="M2865 1519 c-27 -5 -75 -12 -105 -15 -30 -3 -65 -10 -77 -16 -26 -13
-45 -2 -23 13 12 8 11 9 -5 7 -14 -2 -21 -14 -27 -47 -4 -24 -5 -48 -1 -54 3
-5 25 -7 49 -3 35 4 44 2 44 -9 0 -29 -42 -44 -127 -44 -46 1 -83 5 -83 9 0 5
6 7 13 5 6 -3 17 6 23 20 11 23 10 24 -15 23 -32 -2 -61 -25 -55 -43 7 -17
-69 -28 -135 -19 -37 5 -55 12 -62 27 -8 15 -8 22 2 28 20 12 29 11 27 -3 -2
-6 5 -14 16 -16 11 -2 16 0 12 7 -8 13 53 3 72 -12 8 -7 12 -5 12 6 0 21 -27
34 -65 32 -16 -1 -40 2 -52 6 -12 4 -36 4 -54 -1 -19 -6 -37 -6 -42 -1 -5 5
-23 5 -44 -1 -19 -5 -49 -6 -66 -2 l-32 7 33 9 c49 13 29 28 -37 28 -86 0
-121 -9 -121 -31 0 -13 10 -20 38 -24 20 -3 51 -10 68 -15 19 -6 57 -6 105 0
101 13 99 13 99 -15 0 -27 -14 -34 -23 -12 -4 11 -18 12 -63 6 -32 -4 -61 -6
-66 -3 -12 8 -10 -4 7 -30 15 -23 16 -23 59 -8 38 14 57 14 147 4 57 -7 127
-11 154 -8 28 2 91 7 140 11 50 4 99 9 109 12 17 5 18 1 13 -30 -5 -33 -3 -35
25 -41 36 -7 83 -8 77 -2 -3 3 -20 8 -38 11 -19 3 -38 8 -43 11 -20 13 -1 108
25 127 7 5 2 6 -13 3 -14 -3 -32 -1 -40 4 -9 5 -19 5 -27 -2 -16 -13 -43 -3
-43 16 0 7 11 21 25 30 30 20 36 20 29 1 -5 -13 -2 -14 20 -5 17 6 26 6 26 0
0 -6 10 -10 23 -10 13 0 28 -5 35 -12 9 -9 12 -6 12 15 0 24 2 26 19 17 27
-14 31 -13 31 8 0 14 9 18 44 20 31 1 46 -3 50 -13 8 -23 -12 -66 -34 -72 -22
-6 -27 -23 -7 -23 18 0 57 43 57 63 0 9 5 19 10 22 6 3 10 11 10 17 0 6 -3 9
-6 5 -4 -3 -13 0 -21 8 -16 16 -32 17 -108 4z"/>
<path d="M295 1510 c-33 -4 -46 -7 -29 -8 17 -1 37 -9 44 -17 9 -11 16 -13 24
-5 5 5 23 10 39 10 23 0 28 -4 23 -16 -9 -23 3 -37 20 -23 12 10 18 8 29 -9 9
-12 32 -23 57 -27 24 -4 55 -14 70 -23 26 -15 29 -15 44 0 15 15 20 14 60 -15
24 -17 44 -37 44 -44 0 -7 4 -13 9 -13 5 0 16 -3 25 -6 12 -5 16 1 16 23 0 35
-9 47 -24 34 -7 -6 -27 1 -54 20 -29 20 -50 27 -66 23 -14 -3 -27 1 -36 11
-12 14 -6 15 61 10 41 -4 92 -7 114 -8 22 -1 44 -8 48 -14 4 -7 17 -13 27 -13
20 0 36 -17 26 -28 -4 -3 -20 -1 -36 5 -31 12 -36 8 -21 -16 6 -9 18 -11 34
-7 30 7 77 -8 77 -25 0 -8 -12 -10 -35 -6 -36 6 -101 -8 -123 -25 -10 -9 -7
-13 10 -22 13 -6 27 -26 33 -44 9 -30 12 -32 55 -32 25 0 52 -6 59 -12 11 -11
13 -10 7 5 -3 10 -6 21 -6 23 0 2 -16 4 -35 4 -19 0 -35 5 -35 10 0 6 -5 9
-12 8 -14 -4 -35 48 -24 59 4 5 30 8 58 8 37 0 52 4 59 18 13 22 38 22 46 1 6
-15 8 -15 20 2 10 13 13 14 13 3 0 -12 2 -12 10 1 8 13 10 12 10 -3 0 -17 2
-17 29 2 16 12 34 21 39 21 6 0 14 5 17 10 4 7 -2 9 -17 6 -46 -10 -158 -14
-158 -5 0 5 -7 9 -16 9 -8 0 -26 13 -40 29 -14 17 -33 32 -42 35 -28 9 -184
28 -235 30 -41 1 -49 -2 -53 -20 -5 -19 -10 -21 -39 -14 -18 4 -43 17 -56 29
-12 11 -28 21 -35 21 -6 0 -14 9 -17 20 -5 21 -7 22 -112 10z"/>
<path d="M797 1500 c-18 -18 -18 -18 3 -25 12 -4 43 -8 69 -9 37 -2 57 -11
101 -44 30 -23 61 -40 68 -37 8 3 20 5 29 5 12 0 12 2 1 13 -17 16 -65 37 -86
37 -10 0 -22 10 -27 23 -8 17 -20 23 -54 25 -24 2 -53 9 -65 17 -18 11 -24 10
-39 -5z"/>
<path d="M16 1501 c-4 -5 7 -19 23 -30 32 -23 41 -26 41 -12 0 15 -58 52 -64
42z"/>
<path d="M2127 1480 c23 -25 121 -52 108 -30 -3 6 -15 10 -25 10 -10 0 -20 4
-22 10 -1 5 -19 12 -38 16 -28 5 -33 4 -23 -6z"/>
<path d="M2282 1478 c-7 -7 -12 -16 -12 -20 0 -11 131 -10 148 1 21 13 -14 23
-53 15 -18 -3 -42 -1 -52 5 -14 7 -23 7 -31 -1z"/>
<path d="M115 1430 c-7 -11 58 -80 76 -80 5 0 9 7 9 16 0 9 6 14 13 12 6 -3
12 -11 12 -19 0 -8 10 -14 25 -15 14 0 42 -5 62 -11 38 -12 78 -7 78 8 0 12
-39 36 -71 44 -17 4 -30 1 -38 -8 -10 -13 -15 -12 -36 9 -15 15 -36 24 -56 24
-18 0 -40 7 -50 16 -12 11 -19 12 -24 4z"/>
<path d="M24 1419 c-7 -12 15 -39 37 -43 30 -6 49 -19 49 -32 0 -8 5 -14 10
-14 21 0 9 27 -28 63 -39 38 -56 45 -68 26z"/>
<path d="M420 1376 c0 -8 -3 -21 -6 -30 -5 -13 1 -16 28 -16 56 0 96 -19 119
-56 15 -25 28 -34 47 -34 34 0 45 -8 65 -45 32 -59 31 -59 76 -36 46 24 54 42
16 39 -14 -1 -25 -6 -25 -10 0 -4 -9 -8 -20 -8 -11 0 -20 7 -20 15 0 9 6 12
15 9 9 -4 15 0 15 10 0 9 -8 16 -17 16 -21 0 -57 36 -74 74 -11 23 -17 27 -43
22 -27 -4 -34 -1 -51 26 -21 33 -49 51 -39 25 9 -24 -38 -31 -55 -7 -16 23
-31 26 -31 6z"/>
<path d="M1183 1364 c-19 -49 -33 -96 -32 -108 0 -6 11 18 24 54 14 36 23 69
22 74 -2 5 -8 -4 -14 -20z"/>
<path d="M1833 1362 c-38 -4 -44 -19 -10 -24 15 -2 23 -11 25 -28 4 -24 4 -24
17 6 12 29 14 30 76 28 52 -1 64 -4 64 -18 0 -9 6 -21 14 -26 11 -6 5 -10 -22
-15 -42 -8 -67 -46 -67 -102 l0 -33 -62 0 c-62 1 -98 15 -98 39 0 6 -4 11 -10
11 -36 0 17 -90 67 -114 18 -9 39 -27 45 -41 10 -23 17 -25 74 -25 59 0 62 -1
58 -22 -2 -13 -1 -16 2 -8 4 8 13 22 21 32 13 15 10 16 -34 16 -90 0 -103 2
-103 15 0 6 -16 23 -34 37 -19 14 -32 28 -30 31 2 4 33 10 69 14 60 6 64 8 55
26 -7 12 -7 19 -1 19 5 0 16 -11 23 -23 27 -48 73 -106 86 -107 15 0 -7 38
-55 93 -18 20 -33 44 -33 52 0 9 -6 12 -16 8 -12 -4 -15 -1 -13 13 3 12 27 30
67 48 34 16 62 33 62 37 0 5 -7 6 -15 3 -8 -4 -15 -1 -15 5 0 6 5 11 10 11 6
0 10 5 10 12 0 6 -3 8 -7 5 -3 -4 -13 2 -20 14 -13 18 -24 20 -91 17 -43 -2
-92 -4 -109 -6z"/>
<path d="M1633 1308 c1 -6 -9 -15 -23 -19 -20 -6 -16 -7 21 -8 25 -1 50 -6 55
-11 8 -8 15 -6 24 4 10 13 8 17 -16 27 -44 17 -64 19 -61 7z"/>
<path d="M2598 1313 c-38 -2 -68 -8 -68 -13 0 -11 122 -1 135 11 5 5 7 8 5 7
-3 -1 -35 -3 -72 -5z"/>
<path d="M1739 1278 c-20 -27 -20 -31 -5 -25 10 4 21 7 26 7 4 0 7 11 6 25 0
14 -2 25 -3 25 -1 0 -12 -14 -24 -32z"/>
<path d="M2498 1304 c-3 -3 -29 -5 -57 -6 -28 0 -51 -4 -51 -9 0 -5 4 -9 10
-9 10 0 7 -51 -5 -82 -5 -14 -2 -18 13 -18 18 0 20 5 15 34 -6 39 12 66 45 66
27 0 52 10 52 21 0 10 -14 12 -22 3z"/>
<path d="M330 1257 c22 -22 43 -37 46 -35 6 7 -20 34 -38 41 -7 2 -10 7 -7 11
15 16 65 -11 115 -60 36 -37 61 -54 78 -54 40 0 38 14 -6 58 -41 42 -58 51
-58 32 0 -5 -4 -10 -10 -10 -5 0 -10 6 -10 14 0 24 -23 33 -88 38 l-63 4 41
-39z"/>
<path d="M1000 1286 c-43 -6 -73 -15 -70 -21 2 -5 9 -9 15 -8 5 1 43 7 83 13
39 7 72 16 72 21 0 10 1 10 -100 -5z"/>
<path d="M2248 1281 c-37 -9 -70 -19 -74 -23 -3 -4 -19 -4 -35 -1 -21 4 -30 1
-35 -10 -4 -12 -11 -14 -31 -6 -33 12 -46 11 -68 -5 -16 -12 -13 -13 33 -10
48 4 52 3 52 -18 1 -22 1 -22 15 -4 10 13 15 15 15 6 0 -9 6 -8 21 6 23 20
119 47 119 33 0 -5 4 -9 10 -9 5 0 7 7 3 16 -5 14 -3 15 16 4 25 -13 44 -4 21
10 -13 8 -12 10 3 10 9 0 17 -4 17 -10 0 -5 8 -10 17 -10 9 0 13 3 10 7 -4 3
1 12 11 19 15 12 13 13 -18 13 -19 -1 -65 -9 -102 -18z"/>
<path d="M2936 1291 c-16 -3 -31 -13 -34 -21 -4 -12 -2 -13 9 -2 7 6 30 12 51
12 21 0 38 5 38 10 0 11 -18 11 -64 1z"/>
<path d="M14 1274 c3 -9 6 -25 6 -36 0 -17 2 -18 15 -8 13 11 19 9 38 -8 15
-14 27 -18 36 -12 14 8 60 -6 72 -23 7 -9 59 9 59 21 0 4 -16 6 -36 4 -27 -3
-39 0 -46 12 -5 9 -22 16 -38 16 -37 0 -80 19 -80 37 0 7 -7 13 -16 13 -11 0
-14 -5 -10 -16z"/>
<path d="M2664 1271 c-16 -10 -43 -30 -58 -44 -30 -28 -75 -42 -103 -33 -10 3
-25 1 -33 -4 -11 -7 5 -10 53 -9 55 2 70 6 78 21 12 22 86 71 98 64 4 -3 8 1
8 9 0 19 -6 19 -43 -4z"/>
<path d="M1655 1240 c-11 -18 5 -31 26 -20 21 12 26 1 7 -18 -9 -9 -9 -15 0
-24 7 -7 12 -22 12 -35 0 -26 20 -73 31 -73 5 0 6 -7 3 -15 -4 -9 0 -15 10
-15 9 0 16 -4 16 -10 0 -5 16 -12 35 -16 44 -8 36 -24 -13 -25 -26 -1 -17 -4
28 -10 42 -5 68 -5 75 2 7 7 5 8 -7 4 -26 -10 -42 5 -22 20 16 11 14 15 -27
35 -24 13 -46 26 -49 29 -3 4 -17 14 -32 24 -23 14 -26 22 -23 52 4 27 2 33
-10 29 -8 -4 -15 -1 -15 5 0 6 5 11 10 11 12 0 13 20 2 36 -11 17 -49 26 -57
14z"/>
<path d="M964 1223 c4 -5 13 -8 19 -8 5 0 12 -6 15 -13 3 -9 -3 -13 -16 -10
-12 2 -22 -1 -24 -7 -4 -13 63 -20 71 -7 3 5 15 14 26 20 19 11 18 11 -7 12
-15 0 -30 5 -33 10 -3 6 -18 10 -32 10 -15 0 -23 -3 -19 -7z"/>
<path d="M1128 1202 c-7 -18 -15 -32 -19 -32 -4 0 -12 -13 -19 -30 -12 -28
-27 -36 -70 -32 -8 1 -26 -3 -40 -9 -30 -11 -39 -59 -16 -78 24 -20 122 73
165 157 12 24 20 47 17 50 -4 3 -12 -9 -18 -26z"/>
<path d="M2884 1217 c-16 -8 -21 -18 -18 -41 1 -17 3 -39 3 -48 1 -10 6 -18
11 -18 7 0 8 13 4 36 -5 29 -2 40 17 60 24 25 18 29 -17 11z"/>
<path d="M1533 1156 c37 -36 71 -76 76 -89 5 -12 17 -23 28 -24 20 -2 -115
150 -152 169 -11 6 10 -19 48 -56z"/>
<path d="M273 1195 c0 -8 6 -15 14 -15 7 0 13 -7 13 -15 0 -14 3 -14 29 -1 21
11 31 12 39 4 7 -7 15 -9 19 -5 3 4 -2 15 -13 25 -15 15 -23 16 -36 8 -13 -8
-23 -7 -38 2 -25 15 -27 15 -27 -3z"/>
<path d="M575 1191 c-3 -5 5 -11 17 -13 14 -2 23 -10 22 -19 -2 -23 128 -75
152 -61 16 9 16 10 -2 19 -10 6 -38 13 -62 16 -30 4 -50 14 -71 36 -30 32 -46
38 -56 22z"/>
<path d="M2250 1183 c0 -20 19 -25 35 -9 21 20 19 24 -10 22 -14 0 -25 -6 -25
-13z"/>
<path d="M786 1155 c-18 -14 -18 -15 8 -24 32 -13 33 -25 4 -47 l-23 -16 25 6
c14 3 40 6 58 6 34 0 43 17 15 27 -22 7 -53 33 -53 44 0 4 8 10 18 12 11 3 9
5 -8 6 -14 0 -34 -6 -44 -14z"/>
<path d="M857 1150 c-16 -19 -16 -20 38 -17 30 1 55 5 55 10 0 4 -9 7 -19 7
-11 0 -23 5 -26 10 -10 16 -29 12 -48 -10z"/>
<path d="M0 1141 c0 -21 47 -66 80 -76 11 -3 20 -11 20 -16 0 -5 9 -9 21 -9
11 0 29 -5 40 -10 15 -8 19 -7 19 3 0 16 -24 39 -36 35 -20 -6 -71 22 -106 56
-32 31 -38 34 -38 17z"/>
<path d="M217 1153 c-4 -3 -2 -14 3 -24 6 -9 7 -25 4 -33 -7 -18 11 -22 22 -5
4 7 15 1 32 -16 19 -21 31 -26 53 -21 16 3 29 2 29 -3 0 -5 6 -11 14 -14 11
-5 11 0 -2 23 -11 19 -28 31 -48 35 -17 3 -40 15 -50 26 -23 26 -49 40 -57 32z"/>
<path d="M2140 1115 c-5 -45 -8 -52 -40 -68 -34 -17 -34 -18 -5 -11 17 4 55 8
85 8 55 1 55 1 58 -31 3 -33 32 -49 32 -17 0 8 -4 12 -10 9 -16 -10 -12 45 4
61 15 14 230 39 247 28 5 -3 17 -1 26 5 17 9 16 10 -2 10 -11 0 -27 1 -35 3
-17 3 -163 -11 -197 -19 -18 -4 -22 0 -25 29 -4 33 -4 33 -14 -12 -9 -44 -11
-45 -50 -48 -49 -4 -61 8 -66 63 -4 40 -4 40 -8 -10z"/>
<path d="M2614 1134 c-19 -15 -18 -15 3 -11 12 3 23 1 25 -3 4 -10 194 -18
203 -8 9 8 -48 20 -82 17 -16 -2 -34 0 -41 5 -7 4 -24 5 -37 2 -13 -3 -27 -2
-30 4 -9 14 -18 13 -41 -6z"/>
<path d="M620 1107 c0 -7 69 -47 81 -47 18 0 9 21 -13 29 -43 16 -68 22 -68
18z"/>
<path d="M436 1082 c-19 -4 -19 -5 1 -16 11 -6 39 -34 60 -61 34 -43 46 -51
78 -53 20 -2 40 -3 44 -4 3 0 19 0 35 1 28 1 29 1 11 21 -11 12 -31 20 -51 20
-32 0 -59 20 -36 28 22 7 -1 32 -36 37 -21 4 -48 12 -62 19 -14 7 -34 11 -44
8z"/>
<path d="M1240 1063 c-19 -37 -24 -51 -12 -34 8 11 12 9 22 -9 10 -19 17 -21
48 -14 21 4 46 6 57 6 11 -1 31 8 45 18 19 15 21 20 8 20 -9 0 -19 -4 -23 -9
-3 -6 -13 -10 -23 -10 -9 -1 -33 -2 -52 -4 -41 -3 -73 9 -64 25 4 6 25 8 53 5
26 -3 59 0 74 6 28 12 27 12 -20 12 -26 0 -60 4 -74 8 -21 7 -27 4 -39 -20z"/>
<path d="M860 1034 c-22 -20 -62 -69 -89 -109 -26 -40 -69 -102 -95 -139 -50
-69 -57 -98 -18 -70 14 9 21 22 18 31 -3 8 -2 12 3 9 10 -7 34 20 37 42 2 8 9
19 16 23 7 5 13 12 13 16 0 9 33 61 69 110 26 36 79 83 93 83 5 0 9 9 10 20 2
29 -12 25 -57 -16z"/>
<path d="M1482 1040 c-14 -23 -13 -24 25 -9 22 8 24 12 13 19 -21 13 -24 13
-38 -10z"/>
<path d="M641 1042 c-26 -9 -8 -22 29 -22 29 0 38 -4 34 -14 -4 -10 7 -14 45
-14 28 -1 53 2 56 7 7 12 -31 25 -45 16 -5 -3 -19 0 -31 8 -12 9 -16 16 -9 19
6 2 -7 3 -29 3 -22 0 -44 -1 -50 -3z"/>
<path d="M260 1022 c0 -7 -9 -12 -19 -12 -30 0 -35 -18 -5 -22 27 -3 49 -33
59 -80 3 -16 12 -28 20 -28 18 0 20 21 3 38 -17 17 -3 15 43 -7 25 -12 39 -15
37 -8 -2 7 -21 20 -42 31 -21 10 -51 37 -67 59 -16 22 -29 35 -29 29z"/>
<path d="M350 1004 c0 -27 73 -80 92 -68 7 5 26 7 43 5 26 -3 28 -1 15 13 -7
10 -19 15 -26 12 -7 -3 -15 2 -18 9 -3 8 -12 12 -20 9 -8 -3 -17 -1 -20 5 -4
6 -13 8 -21 5 -8 -4 -18 1 -21 10 -8 21 -24 21 -24 0z"/>
<path d="M1555 973 c-16 -3 -35 -9 -41 -14 -6 -5 -14 -5 -20 1 -5 5 -9 -8 -10
-35 -1 -49 7 -51 26 -5 7 16 18 30 25 30 7 0 27 3 44 6 26 5 31 3 31 -12 0
-41 -24 -68 -70 -80 l-45 -12 52 -1 53 -1 11 45 c8 32 19 50 38 60 14 8 24 15
21 15 -20 5 -90 6 -115 3z"/>
<path d="M1695 970 c-19 -8 -19 -9 2 -9 25 -1 43 -28 43 -66 0 -31 -38 -49
-88 -41 -28 4 -30 3 -18 -10 19 -19 90 -18 106 1 8 9 21 13 34 10 20 -5 20 -5
-1 11 -14 10 -23 27 -23 44 0 39 -29 71 -55 60z"/>
<path d="M961 948 c-5 -13 -7 -25 -5 -27 7 -7 28 17 30 34 3 23 -16 18 -25 -7z"/>
<path d="M1005 920 c-5 -17 -13 -21 -35 -18 -20 3 -27 1 -23 -9 3 -8 13 -11
25 -7 30 9 18 -18 -15 -34 -15 -7 -27 -18 -27 -23 0 -6 -9 -7 -21 -4 -15 5
-30 -2 -57 -29 -20 -20 -61 -59 -91 -87 -29 -28 -51 -53 -48 -56 3 -2 34 20
70 50 35 30 92 73 125 96 34 23 72 55 84 71 12 17 28 30 36 30 16 0 12 32 -5
37 -6 2 -14 -6 -18 -17z"/>
<path d="M1347 933 c-4 -3 -7 -13 -7 -21 0 -8 -8 -21 -17 -29 -17 -14 -17 -14
0 -9 10 3 15 2 12 -3 -3 -5 -1 -12 4 -15 5 -3 11 13 13 37 5 46 5 50 -5 40z"/>
<path d="M2558 933 c-32 -3 -48 -9 -48 -18 0 -11 7 -11 38 -3 22 6 73 8 125 4
57 -4 87 -3 87 4 0 5 -15 10 -34 10 -18 0 -53 2 -77 4 -24 2 -65 1 -91 -1z"/>
<path d="M2040 908 c0 -20 38 -24 75 -8 18 7 18 9 3 15 -9 3 -26 1 -38 -5 -18
-10 -24 -9 -31 1 -7 11 -9 10 -9 -3z"/>
<path d="M230 891 c0 -10 41 -43 47 -38 1 2 0 13 -4 25 -5 21 -43 32 -43 13z"/>
<path d="M2405 848 c-12 -39 -4 -125 10 -118 9 5 10 13 1 65 -1 11 1 35 5 53
4 17 4 32 0 32 -3 0 -11 -15 -16 -32z"/>
<path d="M130 861 c0 -5 15 -16 33 -25 17 -9 43 -25 57 -35 14 -11 35 -22 48
-26 42 -12 22 10 -41 45 -77 43 -97 52 -97 41z"/>
<path d="M1445 848 c-18 -11 -43 -17 -62 -15 -22 2 -30 0 -23 -7 14 -14 62
-13 78 1 7 7 21 17 30 22 9 5 15 11 12 14 -3 2 -18 -4 -35 -15z"/>
<path d="M1928 863 c-21 -2 -38 -8 -38 -12 0 -12 74 -5 78 8 2 6 2 10 0 9 -1
-1 -20 -3 -40 -5z"/>
<path d="M2529 833 c-8 -9 -32 -24 -54 -34 l-40 -19 40 0 c24 0 35 3 27 8 -19
13 28 31 64 25 29 -6 29 -6 10 16 -23 25 -29 26 -47 4z"/>
<path d="M924 765 c-17 -18 -18 -25 -8 -29 8 -3 19 4 24 15 17 32 7 40 -16 14z"/>
<path d="M1612 738 c-7 -7 -42 -18 -80 -24 l-67 -13 101 2 c101 2 101 2 91 25
-11 25 -27 28 -45 10z"/>
<path d="M970 730 c0 -5 6 -10 14 -10 8 0 21 -3 30 -6 11 -4 16 -1 16 10 0 11
-9 16 -30 16 -16 0 -30 -4 -30 -10z"/>
<path d="M410 695 c-17 -18 -21 -33 -18 -63 2 -24 -1 -38 -6 -35 -5 4 -7 -1
-3 -11 4 -10 7 -24 7 -32 0 -8 6 -14 14 -14 12 0 14 -19 9 -111 -5 -81 -3
-113 6 -118 7 -4 13 -18 14 -29 1 -12 6 -22 11 -22 5 0 6 -3 3 -6 -3 -4 -1
-16 5 -27 9 -17 12 -18 19 -5 5 9 1 30 -12 55 -20 42 -28 141 -14 195 4 17 1
39 -10 60 -35 71 -28 166 12 151 10 -4 14 -2 10 4 -4 7 9 9 41 6 62 -7 44 12
-19 20 -40 5 -49 3 -69 -18z"/>
<path d="M2171 716 c10 -8 89 -13 89 -5 0 5 -21 9 -47 9 -25 0 -44 -2 -42 -4z"/>
<path d="M569 700 c-9 -5 -22 -23 -29 -40 -11 -25 -10 -33 0 -43 10 -9 11 -9
5 2 -6 10 3 23 26 42 23 18 31 31 24 38 -6 6 -16 6 -26 1z"/>
<path d="M1272 699 c-77 -10 -79 -22 -2 -15 36 3 80 5 98 6 17 0 32 4 32 10 0
11 -42 10 -128 -1z"/>
<path d="M2310 696 c25 -7 49 -11 54 -8 15 8 -25 21 -64 20 -35 0 -35 0 10
-12z"/>
<path d="M1880 689 c0 -7 -10 -9 -24 -5 -14 3 -28 1 -31 -4 -4 -6 -16 -8 -28
-5 -17 5 -19 4 -7 -4 20 -14 46 -14 87 1 34 12 44 28 18 28 -8 0 -15 -5 -15
-11z"/>
<path d="M677 621 c-24 -16 -25 -19 -11 -25 15 -6 43 17 44 37 0 9 1 9 -33
-12z"/>
<path d="M1040 605 c-1 -5 -2 -13 -2 -16 1 -4 -15 -3 -36 2 -20 4 -41 4 -45 0
-5 -5 13 -11 40 -14 55 -6 56 -5 50 20 -3 10 -6 14 -7 8z"/>
<path d="M110 590 c-18 -6 -6 -8 43 -8 37 1 67 5 67 9 0 11 -76 10 -110 -1z"/>
<path d="M1337 593 c-4 -3 -25 -6 -46 -5 -22 1 -50 -2 -63 -7 -20 -8 -21 -10
-5 -16 9 -4 25 -4 35 0 9 4 41 7 70 7 51 0 68 10 36 22 -19 7 -19 7 -27 -1z"/>
<path d="M2047 594 c-7 -7 -78 -16 -117 -14 -129 4 -226 -2 -244 -15 -12 -8
-41 -29 -66 -46 -25 -17 -47 -35 -50 -38 -3 -4 -18 -17 -34 -29 -16 -12 -22
-22 -15 -22 8 0 34 16 59 35 111 85 129 94 178 95 125 2 152 1 152 -11 0 -7 7
-8 18 -4 9 4 60 9 112 11 236 10 300 16 300 29 0 9 -13 13 -43 11 -24 -2 -48
-5 -53 -8 -17 -10 -162 -9 -169 2 -7 11 -19 13 -28 4z"/>
<path d="M605 580 c4 -6 -3 -22 -14 -36 -11 -15 -18 -31 -15 -36 4 -6 13 4 21
21 16 33 50 45 39 14 -6 -14 -2 -13 15 4 26 26 25 28 -19 36 -21 4 -31 3 -27
-3z"/>
<path d="M1125 563 c-16 -3 -34 -9 -40 -15 -13 -13 96 -1 110 13 9 9 -12 10
-70 2z"/>
<path d="M2339 499 c-30 -28 -72 -69 -94 -90 -22 -21 -46 -39 -53 -39 -6 0
-12 -4 -12 -10 0 -18 17 -11 67 26 65 49 170 164 150 164 -2 0 -29 -23 -58
-51z"/>
<path d="M2168 531 c-26 -4 -51 -10 -55 -15 -4 -4 6 -5 22 -2 17 2 47 5 68 5
23 1 36 5 32 11 -3 6 -9 9 -13 9 -4 -1 -28 -5 -54 -8z"/>
<path d="M630 486 c29 -26 99 -59 114 -53 23 9 20 27 -4 27 -12 0 -38 9 -60
20 -46 24 -72 27 -50 6z"/>
<path d="M601 478 c-1 -11 -9 -18 -21 -18 -11 0 -20 -6 -20 -14 0 -9 7 -12 21
-9 23 6 34 25 26 45 -4 8 -6 6 -6 -4z"/>
<path d="M591 421 c-1 -7 -7 -11 -16 -8 -20 8 -26 -5 -10 -20 10 -10 16 -9 25
2 7 8 10 20 7 27 -4 10 -6 10 -6 -1z"/>
<path d="M1573 418 c-2 -5 16 -8 42 -8 25 0 62 -7 82 -15 19 -8 45 -15 57 -14
15 1 11 4 -11 10 -18 5 -33 16 -33 24 0 12 -13 15 -66 13 -36 -2 -68 -6 -71
-10z"/>
<path d="M1350 409 c34 -23 92 -50 85 -40 -3 6 -25 20 -48 31 -44 22 -61 26
-37 9z"/>
<path d="M1531 371 c8 -12 16 -16 17 -11 2 6 10 3 18 -7 12 -17 13 -16 7 5 -3
12 -9 22 -13 22 -5 0 -16 3 -25 6 -15 6 -15 4 -4 -15z"/>
<path d="M1216 368 c-28 -16 -18 -27 15 -18 18 5 34 11 36 13 9 10 -35 14 -51
5z"/>
<path d="M540 343 c1 -27 1 -27 15 -9 19 25 19 36 0 36 -10 0 -15 -10 -15 -27z"/>
<path d="M1451 330 c-9 -5 -6 -14 12 -34 30 -32 37 -33 37 -3 0 25 -31 49 -49
37z"/>
<path d="M1550 333 c0 -13 43 -63 55 -63 4 0 2 6 -4 13 -6 8 -8 17 -4 20 3 4
0 7 -7 7 -7 0 -19 8 -26 18 -8 9 -14 12 -14 5z"/>
<path d="M2025 331 c-6 -5 -45 -11 -87 -13 -50 -2 -79 -7 -83 -15 -3 -10 15
-12 80 -9 68 4 89 9 107 25 16 15 18 21 7 21 -8 0 -19 -4 -24 -9z"/>
<path d="M1765 304 c51 -24 75 -30 75 -16 0 10 -81 42 -105 41 -13 0 -1 -10
30 -25z"/>
<path d="M1667 304 c3 -8 12 -13 20 -10 8 3 19 6 24 6 6 0 7 5 4 10 -3 6 -17
10 -30 10 -18 0 -23 -4 -18 -16z"/>
<path d="M510 273 c0 -5 5 -14 11 -20 13 -13 -6 -57 -22 -48 -5 4 -9 -1 -9 -9
0 -22 27 -20 40 3 14 27 13 50 -5 67 -8 9 -15 12 -15 7z"/>
</g>
</svg>
