<?xml version="1.0" standalone="no"?>
<!DOCTYPE svg PUBLIC "-//W3C//DTD SVG 20010904//EN"
 "http://www.w3.org/TR/2001/REC-SVG-20010904/DTD/svg10.dtd">
<svg version="1.0" xmlns="http://www.w3.org/2000/svg"
 width="300.000000pt" height="452.000000pt" viewBox="0 0 300.000000 452.000000"
 preserveAspectRatio="xMidYMid meet">
<metadata>
Created by potrace 1.10, written by Peter Selinger 2001-2011
</metadata>
<g transform="translate(0.000000,452.000000) scale(0.100000,-0.100000)"
fill="#000000" stroke="none">
<path d="M1415 4300 c-10 -16 -2 -21 36 -22 92 -3 159 3 159 13 0 8 -13 9 -38
5 -22 -3 -42 -3 -45 1 -12 12 -105 14 -112 3z"/>
<path d="M744 4191 c-49 -33 -116 -87 -149 -122 -33 -34 -53 -58 -45 -53 17 9
17 10 80 60 62 51 149 108 155 102 3 -2 -19 -21 -48 -41 -72 -50 -207 -184
-299 -297 -66 -82 -318 -458 -318 -475 0 -4 11 -21 24 -38 45 -60 61 -115 60
-212 0 -73 -5 -103 -27 -159 -15 -38 -26 -70 -25 -71 2 -1 13 -7 25 -14 39
-20 100 -138 123 -236 36 -152 20 -428 -26 -462 -23 -17 -31 -8 -10 12 20 21
20 34 0 56 -15 16 -15 23 0 82 20 79 20 140 1 253 -18 99 -56 192 -103 245
-35 39 -49 83 -34 102 21 26 42 124 42 201 0 70 -4 86 -31 135 -17 31 -38 64
-47 74 -16 18 -25 60 -11 52 6 -4 246 349 258 380 2 6 7 12 11 15 9 7 52 80
47 80 -9 0 -120 -145 -120 -157 0 -6 -4 -11 -8 -10 -4 1 -57 -72 -117 -163
-105 -156 -110 -166 -93 -180 21 -18 72 -93 89 -133 25 -57 8 -211 -32 -302
-29 -64 -28 -70 6 -80 85 -26 170 -315 138 -471 -7 -32 -25 -84 -41 -114 -16
-30 -29 -61 -29 -69 0 -7 20 -35 43 -61 24 -27 60 -79 81 -117 20 -37 41 -75
46 -83 11 -17 72 -157 133 -305 63 -152 216 -457 227 -450 5 3 7 -1 4 -9 -3
-8 2 -27 11 -43 16 -27 16 -23 0 22 -4 11 16 -23 45 -75 28 -52 58 -100 66
-106 7 -6 10 -15 6 -19 -4 -5 -2 -6 3 -2 18 9 29 -3 103 -113 39 -58 85 -122
104 -143 30 -35 36 -38 60 -28 27 10 33 7 53 -29 5 -10 1 -8 -13 4 -31 27 -40
11 -11 -20 13 -14 24 -31 24 -38 0 -8 25 -35 55 -62 49 -44 52 -46 30 -15 -19
27 -20 33 -7 28 20 -8 23 6 4 22 -8 6 -17 7 -23 1 -5 -5 -15 -6 -23 0 -13 7
-13 11 -1 27 8 10 10 15 6 11 -10 -9 -36 9 -36 24 0 6 7 4 17 -3 9 -8 -4 14
-28 48 -24 34 -48 61 -54 59 -5 -1 -20 17 -32 40 -24 46 -30 112 -13 145 16
29 31 24 20 -7 -12 -31 -13 -94 -1 -112 5 -8 6 7 3 37 -5 59 14 97 53 107 14
3 25 10 25 15 0 14 -70 22 -96 10 -47 -21 -58 -107 -23 -186 27 -60 18 -69
-13 -13 -17 31 -25 62 -27 107 -1 35 -7 73 -12 85 -6 14 -7 -3 -4 -53 3 -40 8
-77 11 -82 3 -5 1 -9 -5 -9 -6 0 -16 10 -22 23 -7 12 -30 46 -52 75 l-40 53
13 67 c12 69 28 172 34 229 2 17 7 36 10 42 4 6 3 18 -2 27 -12 22 -17 3 -37
-165 -24 -196 -21 -194 -97 -55 -36 65 -86 161 -112 211 -45 91 -46 95 -46
188 0 81 2 95 16 95 10 0 14 -6 11 -14 -3 -7 9 -28 27 -45 34 -33 57 -42 35
-13 -11 15 -11 15 1 4 8 -7 15 -18 15 -24 0 -6 72 -58 160 -117 l160 -106 3
-147 c1 -82 6 -148 11 -148 15 0 43 39 38 52 -3 8 -6 5 -6 -7 -1 -11 -4 -15
-10 -10 -5 6 -12 64 -16 130 l-7 119 27 -32 c14 -17 29 -31 33 -31 20 3 32 -2
27 -11 -4 -6 -11 -7 -17 -4 -7 4 -8 2 -4 -5 6 -9 11 -9 22 0 12 10 10 15 -12
35 -14 14 -30 21 -36 18 -7 -4 -8 -2 -4 4 11 18 31 14 52 -11 40 -44 60 -122
29 -111 -12 5 -15 -2 -15 -29 0 -19 -6 -40 -14 -47 -8 -6 -12 -18 -10 -25 3
-7 -4 -19 -16 -25 -19 -10 -20 -25 -2 -25 4 0 13 -4 20 -9 18 -11 48 31 44 60
-2 12 2 25 7 29 6 3 11 11 11 16 0 6 -4 7 -10 4 -13 -8 -13 1 1 27 20 37 12
86 -22 143 -34 56 -52 67 -63 40 -9 -24 -27 -17 -21 8 4 17 -1 26 -24 39 -16
9 -39 14 -49 11 -15 -4 -20 0 -19 14 2 13 -5 18 -20 17 -15 0 -23 5 -23 17 0
22 -24 31 -40 16 -10 -9 -12 -8 -7 6 8 21 -64 73 -88 63 -8 -3 -15 -1 -15 3 0
5 4 11 8 13 5 2 -9 19 -30 40 -22 20 -37 30 -34 22 3 -8 1 -14 -4 -14 -6 0
-10 5 -10 11 0 5 -5 7 -10 4 -6 -3 -10 -1 -10 5 0 6 -4 9 -9 6 -10 -7 -23 19
-14 28 3 3 12 -2 20 -10 9 -8 18 -13 20 -10 3 3 -17 31 -44 63 -70 82 -89 117
-113 212 -23 90 -20 191 5 191 7 0 27 3 44 6 27 6 31 4 31 -16 0 -26 18 -23
37 7 10 14 11 23 4 28 -7 3 -11 -2 -11 -14 0 -12 -5 -21 -11 -21 -7 0 -9 12
-5 35 l7 36 -65 30 c-63 30 -83 49 -50 49 8 0 12 -4 9 -10 -3 -6 1 -7 9 -4 9
3 16 2 16 -3 0 -6 18 -18 41 -28 22 -10 49 -30 60 -44 17 -21 22 -23 29 -11 6
8 10 11 10 6 0 -5 7 -3 15 4 25 21 17 -5 -10 -30 -13 -12 -22 -27 -18 -33 3
-6 2 -7 -4 -4 -10 7 -38 -42 -29 -51 3 -2 -1 -17 -9 -33 -11 -21 -12 -34 -4
-55 5 -15 9 -37 8 -48 -3 -43 3 -50 16 -21 l14 30 1 -38 c0 -26 4 -37 13 -35
19 7 20 53 3 112 -19 63 -21 89 -6 66 7 -12 11 -9 20 15 6 17 24 38 40 47 21
12 30 25 30 43 0 36 -23 88 -51 114 -36 33 -46 25 -13 -11 l29 -33 -32 29
c-18 16 -31 33 -30 39 1 5 -3 11 -10 14 -13 5 -12 -14 2 -36 5 -10 4 -16 -3
-19 -7 -2 -12 -8 -12 -14 0 -7 4 -7 13 1 17 14 37 -5 36 -33 0 -12 -3 -15 -6
-8 -2 6 -9 9 -15 6 -5 -3 -16 3 -23 13 -8 11 -32 25 -55 32 -23 7 -40 14 -37
17 2 2 16 0 31 -6 34 -13 53 -13 41 -1 -6 5 -21 11 -35 13 -14 2 -24 8 -23 14
1 6 -10 9 -28 6 -32 -5 -36 3 -15 31 13 16 16 16 57 -8 55 -31 58 -31 53 3 -6
35 11 51 57 54 45 2 151 -21 144 -32 -12 -20 -35 -189 -35 -260 0 -112 64
-495 91 -540 11 -19 5 70 -9 125 -6 22 -13 61 -15 86 -3 26 -10 64 -16 85 -13
52 -31 259 -27 309 13 143 19 190 22 194 9 10 69 -38 72 -57 2 -12 7 -22 12
-22 17 0 40 12 40 22 0 5 -4 6 -10 3 -5 -3 -24 10 -40 29 -17 19 -40 38 -51
41 -10 4 -19 11 -19 16 0 11 44 -15 84 -50 l29 -26 -22 32 c-12 18 -33 36 -46
39 -13 3 -31 14 -41 25 -25 28 -48 26 -33 -3 10 -20 7 -18 -22 7 -49 44 -58
57 -59 82 0 26 -29 65 -42 57 -4 -3 -1 -15 7 -27 8 -12 15 -30 15 -41 0 -11 7
-27 16 -37 23 -25 9 -39 -38 -39 -25 0 -49 -8 -65 -20 -28 -22 -43 -18 -43 11
0 17 -3 18 -20 9 -22 -12 -28 -35 -7 -27 8 3 14 -1 14 -8 0 -10 -5 -11 -19 -4
-10 5 -18 16 -18 24 0 19 -56 45 -97 45 -30 0 -38 8 -34 33 1 5 -3 6 -8 3 -5
-3 -7 -16 -5 -29 2 -12 2 -17 -2 -10 -3 7 -12 9 -20 6 -8 -3 -14 1 -14 8 0 23
46 94 58 91 7 -1 12 6 12 16 0 19 24 45 50 55 12 4 11 6 -2 6 -10 1 -18 6 -18
11 0 15 17 12 46 -6 29 -20 40 -14 25 15 -10 18 -9 20 6 16 10 -3 3 2 -14 10
-18 8 -33 19 -33 23 0 8 129 -14 138 -23 2 -2 -4 -15 -14 -29 -19 -31 -31 -28
-14 3 9 18 8 21 -9 21 -28 0 -32 -21 -8 -47 20 -22 20 -22 45 -3 27 22 42 25
42 11 0 -11 -66 -51 -85 -51 -8 0 -17 -5 -21 -12 -4 -7 -3 -8 4 -4 7 4 12 2
12 -4 0 -7 -9 -14 -21 -17 -11 -3 -18 -11 -15 -18 3 -8 -4 -10 -20 -7 -13 2
-25 0 -25 -4 -7 -44 -5 -53 15 -59 12 -4 25 -6 30 -6 5 1 6 -6 2 -15 -5 -14
-4 -15 8 -5 8 6 12 21 9 32 -5 17 -7 18 -17 3 -11 -14 -13 -14 -25 0 -11 13
-9 16 13 22 14 3 26 13 26 21 0 10 7 14 20 10 13 -3 20 0 20 9 0 8 5 14 12 14
6 0 8 3 5 6 -3 4 6 16 20 27 18 15 28 17 31 9 4 -14 32 -16 32 -2 0 18 17 10
28 -12 9 -20 11 -14 11 36 1 45 -2 56 -11 49 -9 -7 -24 -6 -48 3 l-35 13 40
-5 c35 -4 32 -2 -22 17 -34 12 -60 26 -59 33 2 6 1 8 -1 4 -3 -5 -22 -8 -44
-8 l-40 0 36 46 c33 44 43 73 29 87 -9 8 -101 -97 -149 -172 -80 -124 -106
-190 -124 -308 -19 -125 -14 -233 14 -319 28 -85 28 -114 0 -37 -32 90 -57
148 -81 190 l-24 41 21 49 c25 58 25 58 39 181 7 63 8 125 2 177 l-9 80 45 40
c70 62 82 69 95 56 8 -8 4 -18 -18 -39 -16 -15 -33 -26 -38 -24 -4 1 -18 -4
-30 -13 -24 -17 -16 -20 14 -5 25 14 26 -7 2 -26 -17 -12 -16 -13 4 -14 12 0
25 -4 28 -10 3 -6 1 -10 -5 -10 -6 0 -8 -5 -5 -10 8 -12 26 10 77 93 27 43 37
54 42 41 3 -9 1 -24 -6 -33 -6 -9 12 7 41 35 33 32 51 56 46 64 -5 8 -14 5
-30 -10 -15 -14 -25 -18 -30 -11 -8 14 3 33 15 26 14 -8 23 15 11 28 -5 7 -6
19 -2 26 7 10 12 6 22 -15 18 -35 35 -41 44 -14 4 13 12 19 21 16 11 -4 14 4
14 34 0 33 -3 38 -17 34 -17 -5 -17 -5 -1 5 10 7 15 20 13 32 -4 17 0 20 17
16 16 -5 34 8 77 51 69 69 129 121 134 116 2 -3 24 17 48 43 77 83 120 123
130 123 17 0 -151 -178 -211 -224 -54 -41 -54 -42 -51 -90 2 -33 -1 -46 -8
-42 -6 4 -11 21 -11 39 0 27 -2 29 -13 17 -8 -8 -25 -35 -39 -60 -25 -43 -25
-47 -12 -80 17 -39 30 -50 59 -50 17 0 17 2 5 10 -10 7 -11 10 -2 10 10 0 9 7
-3 30 -9 17 -21 27 -29 24 -7 -3 -16 2 -19 10 -4 10 -1 16 8 16 8 0 15 9 15
19 0 11 4 22 9 26 6 3 8 -9 4 -29 -4 -29 -1 -37 20 -51 14 -9 37 -39 50 -65
14 -27 27 -46 31 -43 3 3 1 12 -5 20 -14 17 3 17 20 1 9 -9 8 0 -3 26 -21 50
-26 55 -26 25 0 -21 -3 -19 -25 17 -28 47 -24 77 19 140 14 21 26 49 26 61 0
13 5 23 10 23 6 0 10 -33 10 -77 0 -56 6 -90 20 -122 12 -25 20 -65 20 -94 l0
-50 -22 19 c-23 19 -23 19 -6 -1 19 -23 20 -62 4 -84 -9 -12 -8 -13 2 -7 10 6
13 3 10 -10 -2 -11 -8 -19 -13 -19 -6 0 -23 -10 -39 -23 -16 -12 -24 -22 -19
-22 5 0 18 9 28 20 28 31 31 15 3 -18 -24 -28 -26 -29 -53 -14 l-29 15 26 13
c26 14 78 75 78 93 0 15 -20 14 -20 -1 -1 -7 -7 1 -15 17 l-13 30 -1 -27 c-2
-56 -10 -61 -52 -30 -39 29 -92 96 -83 105 3 3 14 3 24 0 12 -3 17 -11 13 -21
-5 -13 -3 -14 7 -5 14 13 6 33 -14 33 -7 0 -19 12 -27 26 l-14 26 -5 -23 c-6
-23 -22 -28 -60 -18 -15 4 -17 -17 -5 -68 7 -28 25 -30 25 -3 0 11 4 20 9 20
12 0 103 -75 113 -94 9 -16 13 -220 4 -234 -8 -13 24 -53 36 -46 7 4 8 2 4 -4
-8 -13 6 -16 18 -5 3 4 -3 12 -15 19 -16 8 -23 23 -26 48 l-3 37 28 -20 c47
-34 128 -124 157 -174 l28 -48 -33 -34 -33 -34 27 -11 c15 -5 34 -10 42 -10
11 0 14 -18 12 -92 -1 -60 -3 -74 -5 -40 -2 28 -7 52 -11 52 -4 0 -6 -18 -4
-40 3 -28 0 -40 -9 -40 -8 0 -5 -8 8 -22 21 -22 21 -29 16 -284 -4 -191 -3
-263 6 -268 8 -5 12 92 13 381 3 434 1 526 -13 557 -7 15 -8 6 -3 -29 l6 -50
-21 19 c-12 11 -31 38 -42 60 -35 74 -66 119 -71 105 -3 -8 -9 -11 -13 -6 -5
4 -2 22 7 40 11 23 12 40 6 60 -9 24 -6 32 21 59 21 22 28 35 21 43 -22 27 65
74 110 60 36 -11 21 -25 -25 -23 -27 1 -51 -4 -58 -12 -7 -7 -7 -11 -2 -8 16
9 57 -11 49 -23 -4 -6 -7 -29 -8 -51 -2 -39 7 -57 19 -38 3 5 11 10 17 10 7 0
6 -5 -2 -15 -12 -14 -5 -55 9 -55 4 0 13 17 19 38 l11 37 -4 -38 c-3 -32 -1
-38 13 -35 9 2 18 14 20 26 3 19 6 21 18 11 12 -10 11 -14 -7 -30 -12 -11 -29
-19 -38 -19 -9 0 -34 -18 -54 -39 -35 -38 -48 -59 -27 -46 6 3 10 1 10 -4 0
-19 14 -12 56 28 l41 40 50 -15 c46 -13 53 -20 72 -62 l22 -47 -6 40 c-9 57
-44 115 -69 115 -15 0 -17 3 -8 9 20 12 -39 58 -91 71 -62 16 -67 21 -20 16
71 -7 124 -39 168 -103 32 -46 40 -68 41 -105 2 -62 2 -62 17 -49 11 8 13 5 9
-19 -5 -35 -17 -38 -32 -10 -6 11 -15 18 -21 15 -14 -10 -11 -25 7 -25 8 0 13
-4 10 -9 -4 -5 -1 -20 4 -33 10 -22 10 -22 5 4 -4 21 -2 26 9 22 16 -6 10 -38
-11 -56 -12 -9 -16 -9 -24 3 -7 12 -9 12 -9 -1 0 -34 16 -41 43 -20 31 24 31
22 16 -31 -7 -21 -16 -36 -22 -32 -6 3 -7 1 -3 -5 11 -18 -3 -75 -25 -102
l-20 -25 15 30 c11 23 12 45 6 85 l-8 55 -1 -56 c0 -30 -7 -64 -15 -74 -13
-18 -15 -17 -35 15 -11 19 -21 41 -21 48 0 6 -4 12 -10 12 -16 0 -12 -20 12
-53 12 -16 22 -40 23 -51 1 -12 7 -21 13 -21 13 0 14 -10 1 -43 -17 -43 -8
-47 16 -8 13 22 21 44 18 50 -4 6 2 4 12 -4 16 -13 18 -13 13 0 -3 8 2 21 11
28 14 11 14 11 -3 5 -17 -6 -17 -4 -3 18 8 13 20 41 27 61 6 21 22 46 35 56
12 10 24 27 26 37 2 11 15 22 29 25 28 7 39 42 20 66 -9 10 -9 14 -1 14 6 0
11 5 11 10 0 16 -47 11 -54 -6 -8 -20 -8 -54 0 -54 3 0 15 5 27 12 20 10 21
10 8 -6 -8 -9 -25 -15 -40 -14 -24 3 -26 0 -29 -39 -2 -24 -7 -43 -11 -43 -10
0 4 102 18 128 16 29 14 42 -6 35 -14 -6 -14 -2 3 26 10 18 25 35 31 38 7 3
10 9 7 14 -3 5 6 13 20 19 24 9 26 15 26 66 0 49 -2 55 -15 44 -8 -7 -22 -38
-32 -69 -9 -31 -23 -64 -29 -75 -11 -17 -13 -15 -19 18 -4 20 -11 36 -16 36
-5 0 -6 6 -3 14 3 8 0 17 -6 21 -20 13 -23 -4 -6 -45 18 -46 21 -84 5 -75 -6
4 -8 13 -6 19 3 7 -3 32 -14 56 -16 35 -17 45 -7 58 7 8 12 17 11 19 -2 1 -3
6 -3 9 0 4 11 -10 25 -30 14 -20 25 -43 25 -51 0 -8 5 -17 10 -20 6 -4 10 6
10 22 0 33 -53 127 -65 116 -4 -5 -5 -3 -2 3 6 11 -11 23 -41 30 -13 2 -8 -11
16 -38 11 -13 12 -24 4 -45 -8 -25 -11 -26 -17 -9 -5 11 -3 21 6 27 12 8 12
10 -1 8 -27 -3 -40 1 -40 12 0 5 4 8 9 4 13 -8 5 33 -10 51 -7 8 -18 13 -26
10 -8 -3 -11 -1 -8 4 3 6 15 10 26 10 11 0 18 -4 15 -8 -2 -4 5 -8 16 -8 17 0
14 7 -21 37 -77 69 -194 107 -226 75 -9 -9 -20 -16 -25 -16 -13 0 -1 28 15 34
16 6 15 77 -2 98 -13 16 -30 70 -38 125 -5 34 -3 48 14 72 16 22 18 32 9 37
-8 5 -6 10 8 15 17 7 17 8 2 8 -10 1 -18 5 -18 11 0 5 7 7 15 4 11 -4 13 -2
10 9 -4 9 14 36 47 72 55 60 72 90 64 112 -3 8 2 13 15 13 11 0 17 5 14 10 -3
6 1 10 9 10 8 0 20 -9 26 -20 9 -17 7 -22 -14 -31 -14 -7 -30 -25 -37 -40 -6
-16 -18 -29 -27 -29 -8 0 -13 -3 -9 -6 8 -8 -43 -64 -68 -75 -17 -6 -17 -8 -3
-8 12 -1 15 -6 11 -18 -6 -16 -4 -16 16 2 l22 19 -3 -112 c-2 -62 0 -112 5
-112 4 0 7 51 7 113 l0 113 40 39 c21 21 42 52 46 69 9 43 14 49 30 35 17 -14
19 -43 2 -33 -8 5 -9 2 -5 -10 4 -10 7 -79 7 -153 0 -75 2 -134 5 -132 2 3 5
61 6 129 0 69 5 132 10 141 5 11 3 36 -7 69 -8 29 -13 54 -10 57 10 11 38 -48
34 -72 -6 -28 6 -34 16 -9 9 25 8 31 -19 62 -23 28 -24 35 -27 193 l-3 165 38
-18 c20 -10 37 -21 37 -24 0 -3 -5 -2 -11 1 -6 4 9 -20 33 -53 29 -40 48 -58
58 -54 12 5 13 3 2 -10 -10 -12 -8 -20 9 -42 11 -14 25 -24 30 -20 5 3 7 9 5
13 -3 4 6 14 19 21 14 7 25 16 25 20 0 11 -81 53 -88 45 -4 -3 -12 9 -19 27
l-13 33 5 -35 5 -35 -16 34 c-12 28 -13 36 -2 43 7 4 21 6 31 3 9 -3 27 -8 40
-11 21 -5 21 -5 3 10 -10 8 -24 17 -30 19 -7 3 -5 11 7 24 18 21 23 68 8 77
-5 4 -19 -10 -31 -29 -23 -38 -48 -55 -77 -55 -13 1 -11 5 10 16 15 8 25 20
21 25 -4 7 -10 7 -17 0 -14 -14 -30 -14 -21 0 4 8 1 8 -13 1 -15 -8 -74 -10
-116 -3 -15 2 4 21 41 40 32 17 34 19 15 25 -11 4 -40 2 -64 -3 -55 -13 -59
-13 -59 -2 0 5 8 12 18 14 10 3 6 5 -10 6 -28 1 -39 -21 -18 -34 11 -7 14
-265 4 -265 -15 0 -114 63 -169 107 -144 117 -189 239 -150 407 8 36 29 87 46
114 23 37 29 56 23 76 l-7 27 -34 -33 c-19 -18 -48 -62 -66 -97 -76 -155 -33
-305 137 -471 62 -62 181 -140 212 -140 8 0 14 -5 14 -12 0 -26 45 -78 70 -79
24 -2 24 -2 2 -6 -12 -2 -29 -16 -36 -31 -18 -34 -158 -170 -251 -244 -38 -30
-126 -93 -195 -139 -78 -53 -163 -122 -230 -186 -58 -57 -106 -103 -106 -103
-1 0 -4 18 -7 40 -6 44 -68 183 -94 213 -9 9 -14 18 -12 20 13 8 219 59 242
59 17 1 24 4 16 8 -8 6 -5 11 11 20 12 6 19 14 17 17 -3 2 -19 -3 -36 -11 -16
-9 -36 -16 -43 -15 -7 0 7 9 31 20 25 11 51 17 58 15 7 -3 13 -1 13 4 0 6 7
10 14 10 8 0 49 15 90 34 41 19 77 32 79 29 3 -2 40 14 83 37 59 31 85 40 108
35 22 -3 25 -3 11 3 -17 8 -17 9 9 16 16 4 31 5 34 1 3 -3 0 -5 -7 -5 -7 0
-10 -4 -7 -8 3 -5 -24 -28 -60 -52 -70 -46 -79 -56 -65 -64 5 -4 53 31 107 76
54 45 93 83 87 85 -16 6 -197 -55 -313 -104 -149 -64 -354 -143 -430 -165 -36
-11 -73 -22 -83 -25 -17 -5 -17 -4 0 25 10 17 22 28 27 25 5 -3 6 -1 3 4 -4 6
0 30 8 53 28 78 15 214 -28 297 -10 18 -17 35 -17 39 0 7 206 0 468 -15 89 -5
136 -12 141 -20 6 -10 10 -9 14 4 4 9 3 14 -1 12 -4 -3 -16 0 -27 4 -13 6 4 8
50 5 41 -3 62 -1 50 3 -29 12 -385 31 -575 31 l-163 0 20 23 c11 12 38 48 59
81 21 32 40 53 42 47 2 -6 8 -11 14 -11 7 0 6 5 -2 14 -9 12 -3 27 31 78 101
150 218 299 293 373 45 43 80 83 79 87 -2 4 3 5 10 2 7 -2 24 7 37 21 13 14
20 25 15 25 -5 0 2 11 15 25 13 14 28 25 33 25 6 0 0 -12 -14 -27 l-24 -26 33
24 c26 18 32 29 27 46 -3 15 -1 23 8 23 8 0 19 -22 26 -51 8 -28 28 -81 47
-117 18 -36 31 -69 28 -73 -2 -4 13 -24 34 -46 20 -22 28 -28 16 -14 -46 59
-47 64 -1 27 26 -21 50 -36 54 -32 3 3 1 6 -6 6 -7 0 -10 4 -7 9 4 5 -6 19
-21 31 -22 18 -23 19 -3 6 14 -9 41 -27 60 -41 41 -29 156 -49 239 -43 61 4
154 45 183 79 17 20 17 20 23 -3 3 -13 23 -35 43 -49 38 -26 87 -44 76 -28 -7
12 -5 12 49 -7 26 -9 46 -19 46 -22 -3 -19 2 -25 10 -13 7 11 26 14 66 12 31
-1 62 2 68 7 7 5 29 15 50 22 20 6 60 33 89 58 28 26 56 46 62 44 6 -2 8 0 3
4 -4 4 0 17 8 30 29 44 72 130 84 167 12 35 24 46 35 29 6 -11 -18 -122 -33
-150 -7 -13 -11 -26 -8 -28 2 -3 10 9 17 26 7 16 17 30 22 30 5 0 6 4 3 10 -3
5 0 7 8 4 21 -8 27 -59 27 -246 0 -104 4 -168 10 -168 14 0 58 90 70 143 6 28
6 65 0 100 -9 59 -58 168 -91 203 -19 20 -25 44 -11 44 10 0 98 -111 113 -143
6 -14 15 -24 20 -22 4 3 11 0 15 -6 4 -8 3 -9 -5 -5 -15 10 -3 -46 13 -56 6
-5 7 -8 1 -8 -5 0 -3 -4 5 -10 12 -8 12 -11 -3 -28 -9 -10 -15 -21 -12 -24 3
-3 -1 -11 -10 -18 -8 -7 -15 -20 -15 -30 0 -9 -16 -49 -35 -88 -26 -51 -49
-80 -83 -106 -26 -20 -74 -56 -106 -81 -32 -25 -61 -43 -64 -40 -3 3 -11 -4
-19 -15 -21 -30 -31 -24 -36 18 l-4 37 -1 -42 c-2 -36 -6 -45 -31 -58 -23 -11
-31 -12 -34 -2 -3 6 -6 -1 -6 -18 -1 -31 -55 -100 -71 -90 -5 3 -12 0 -16 -6
-5 -9 2 -10 25 -6 35 7 89 -19 73 -35 -10 -10 -42 0 -42 13 0 15 -20 10 -38
-8 -16 -16 -16 -16 1 -10 24 9 45 -12 39 -40 -7 -36 7 -76 23 -69 13 4 15 -15
16 -122 1 -70 5 -140 9 -157 8 -28 9 -28 7 10 0 22 2 46 6 52 10 15 -1 196
-13 225 -5 13 -17 33 -26 45 -15 22 -15 23 9 32 29 11 67 57 67 80 0 9 -7 26
-15 38 -14 19 -13 21 11 27 31 8 45 -1 24 -14 -12 -8 -12 -10 4 -10 14 0 17 5
12 25 -4 14 -2 25 3 25 9 0 23 -26 25 -44 1 -5 6 -11 13 -13 12 -4 12 21 0 33
-11 11 -8 21 7 27 7 3 13 0 13 -6 -1 -34 5 -47 20 -47 13 0 14 3 5 12 -14 14
-16 28 -3 28 5 0 13 -9 16 -20 9 -29 27 -25 19 5 -4 16 -2 25 6 25 7 0 10 -6
7 -14 -3 -8 1 -20 9 -27 12 -10 13 -9 8 5 -7 19 7 21 25 4 10 -11 11 -9 5 7
-6 16 -5 18 7 9 8 -6 21 -12 29 -12 8 0 25 -4 38 -7 12 -4 22 -3 22 3 0 5 -16
13 -35 16 -31 6 -40 15 -36 39 0 4 -5 7 -12 8 -6 0 -4 3 5 7 15 6 13 9 -8 19
-22 10 -24 10 -19 -7 5 -14 2 -17 -13 -13 -16 4 -18 8 -8 28 6 13 14 21 18 19
3 -2 9 0 12 5 4 5 2 12 -3 15 -12 8 -61 -51 -61 -74 0 -26 -34 -31 -49 -8 -11
17 -10 18 8 9 26 -15 31 -14 25 4 -4 8 -11 12 -18 8 -15 -8 -2 4 71 66 38 33
68 51 77 48 10 -4 13 -1 10 7 -3 7 6 20 20 29 13 9 27 26 31 37 3 11 13 20 22
20 13 0 14 -2 2 -17 -12 -14 -12 -16 1 -9 8 4 -2 -7 -22 -24 -21 -18 -35 -36
-32 -41 3 -5 9 -7 14 -4 5 3 8 -7 7 -22 -3 -33 -37 -47 -37 -15 0 11 -6 22
-14 25 -17 7 -52 -28 -37 -37 6 -4 8 -13 4 -21 -6 -17 8 -20 24 -4 8 8 13 8
17 0 4 -6 3 -11 -3 -11 -6 0 -8 -6 -5 -13 3 -8 -2 -20 -11 -27 -14 -11 -13
-14 2 -26 24 -18 38 -17 23 1 -10 12 -10 15 0 15 6 0 20 -10 30 -22 11 -14 30
-23 49 -24 26 -1 30 1 20 12 -7 8 -9 18 -5 22 4 4 12 -1 17 -11 6 -9 15 -17
22 -17 7 0 6 4 -3 10 -13 9 -13 11 0 20 8 5 21 8 28 5 6 -2 12 2 12 10 0 21
16 19 24 -2 4 -10 4 -14 0 -11 -8 8 -34 -16 -34 -31 0 -6 5 -11 10 -11 6 0 10
7 10 15 0 8 9 15 20 15 11 0 20 -7 20 -15 0 -8 4 -15 9 -15 13 0 19 46 8 65
-6 12 -5 20 4 26 10 6 5 11 -16 20 -41 16 -87 13 -101 -5 -12 -17 -24 -21 -24
-8 0 17 38 53 45 42 3 -6 9 -8 13 -6 4 2 26 1 49 -3 41 -8 41 -8 32 16 -12 32
-12 33 5 27 8 -3 17 -1 21 5 3 6 0 11 -8 11 -8 0 -21 9 -28 21 -13 19 -14 17
-13 -25 1 -25 0 -46 -2 -46 -1 0 -15 5 -29 10 -18 7 -25 15 -21 25 8 22 -5 18
-36 -12 -15 -15 -28 -22 -28 -16 0 7 12 21 26 32 21 16 24 24 15 34 -6 8 -8
16 -5 19 2 3 -2 8 -10 11 -11 4 -14 -1 -13 -21 2 -32 -26 -38 -32 -7 -3 17 -2
18 14 5 17 -14 17 -13 7 5 -6 11 -14 37 -17 58 -3 20 -10 37 -15 37 -6 0 -10
-4 -10 -9 0 -19 -108 -126 -192 -191 -48 -37 -84 -71 -80 -75 4 -5 2 -5 -5 -1
-7 4 -30 -2 -52 -14 -78 -39 -73 -19 7 29 102 61 266 194 303 244 15 21 33 60
40 87 7 27 16 47 20 44 4 -2 10 0 14 6 3 5 2 10 -4 10 -6 0 -8 6 -5 14 3 8 12
12 21 9 12 -5 14 -1 8 15 -3 12 -2 22 3 22 14 0 23 -28 11 -36 -5 -3 -7 -14
-4 -25 4 -11 3 -19 -2 -18 -22 5 -43 -14 -37 -33 4 -15 3 -18 -6 -13 -9 5 -11
4 -6 -3 12 -20 26 -13 26 12 0 14 4 27 9 30 18 12 3 -52 -17 -72 -25 -25 -30
-54 -8 -46 8 3 12 13 9 22 -4 14 -3 15 5 2 7 -9 7 -19 2 -26 -6 -6 -6 -15 -2
-19 4 -5 1 -5 -5 -1 -7 4 -13 2 -13 -4 0 -7 8 -14 19 -17 10 -2 24 -16 30 -29
6 -14 17 -27 25 -30 8 -3 12 -13 8 -26 -3 -15 -1 -19 7 -14 7 5 11 30 9 69 -2
40 2 62 10 65 7 2 12 8 12 13 0 6 -5 7 -11 3 -18 -10 1 39 20 53 18 14 27 15
58 7 13 -4 20 -11 16 -18 -4 -7 -2 -7 7 1 7 6 10 19 7 27 -7 18 -27 22 -27 5
0 -8 -5 -8 -15 1 -8 7 -12 16 -9 21 3 5 -2 9 -10 9 -9 0 -16 -7 -16 -15 0 -14
-3 -13 -23 2 -25 18 -26 53 -1 53 27 0 23 21 -12 60 -20 22 -41 37 -46 34 -11
-7 35 -54 52 -54 6 0 4 -7 -5 -16 -12 -13 -19 -14 -28 -5 -6 6 -8 11 -4 11 3
0 -5 12 -18 26 -29 31 -31 44 -10 44 22 0 18 14 -12 41 -25 22 -26 22 -9 1 20
-23 19 -36 -2 -24 -6 5 -13 18 -15 30 -2 12 -14 33 -27 47 -41 44 -8 27 45
-22 38 -37 42 -39 15 -9 -19 21 -57 56 -83 77 -58 46 -39 53 22 8 37 -26 211
-195 211 -204 0 -2 12 -16 28 -32 33 -34 94 -109 106 -132 5 -9 15 -20 23 -24
7 -4 13 -13 13 -19 0 -6 7 -20 17 -30 15 -17 15 -18 -1 -18 -15 0 -15 -2 -1
-31 9 -17 19 -29 22 -26 2 3 0 15 -7 26 -7 14 -7 21 0 21 15 0 71 -91 63 -103
-3 -6 -1 -7 4 -4 11 7 63 -60 63 -81 0 -7 5 -12 11 -12 5 0 8 -4 5 -8 -3 -5 3
-18 14 -30 18 -19 19 -24 5 -63 -23 -64 -18 -69 16 -17 l31 47 -38 63 c-86
145 -230 351 -302 436 -86 100 -244 252 -313 299 -44 31 -173 103 -184 103 -3
0 -5 -10 -5 -22 0 -19 2 -20 10 -8 15 23 13 -15 -4 -71 -25 -81 -99 -209 -113
-195 -3 3 -24 -10 -46 -29 -53 -46 -133 -75 -205 -75 -63 0 -145 33 -216 88
l-39 29 -60 -43 c-82 -61 -126 -73 -186 -50 -70 26 -105 31 -98 13 5 -12 0
-14 -21 -7 -88 26 -171 85 -199 142 -12 24 -31 85 -43 136 -13 53 -27 92 -34
92 -7 0 -53 -27 -102 -59z m1524 -315 c7 -61 5 -83 -9 -118 -17 -42 -17 -42
-27 -18 -10 27 -14 212 -5 244 10 35 32 -24 41 -108z m152 -45 c0 -11 -5 -23
-11 -27 -8 -4 -8 -9 0 -17 6 -6 11 -20 11 -31 0 -17 2 -18 10 -6 6 10 4 20 -7
32 -19 21 -6 23 20 4 22 -17 22 -25 -4 -47 -11 -10 -20 -26 -19 -36 6 -52 -1
-114 -11 -107 -6 3 -9 19 -7 34 3 20 1 27 -9 23 -8 -3 -13 3 -13 17 0 14 4 19
13 14 10 -6 10 -4 0 7 -7 7 -13 20 -13 29 0 11 2 12 9 2 6 -10 10 -10 21 3 11
13 8 19 -11 17 -9 -1 -8 68 2 73 4 3 6 12 2 20 -3 8 0 15 6 15 6 0 11 -9 11
-19z m-1264 -164 l-48 -23 28 -20 c16 -10 38 -21 49 -24 19 -6 20 -16 23 -165
l2 -160 -41 -3 c-26 -2 -38 1 -34 8 3 5 17 10 31 10 13 0 24 3 24 6 0 3 -22
26 -50 51 l-49 44 1 138 2 138 40 10 c67 17 74 14 22 -10z m-950 -92 c-9 -14
-23 -36 -32 -50 -9 -14 -19 -24 -21 -21 -6 5 55 96 64 96 3 0 -2 -11 -11 -25z
m2124 -67 c0 -10 -8 -18 -17 -19 -11 0 -13 -3 -5 -6 16 -6 15 -23 -2 -23 -21
0 -27 28 -8 40 15 8 15 11 2 19 -12 8 -10 10 8 8 14 -1 22 -8 22 -19z m-29
-65 c16 4 18 3 9 -8 -22 -27 -60 -2 -59 40 0 16 3 15 15 -8 11 -21 21 -27 35
-24z m134 37 c-4 -6 1 -7 11 -3 13 5 16 3 11 -10 -3 -9 -2 -19 3 -22 13 -8 13
-25 0 -25 -5 0 -10 6 -10 13 0 7 -9 18 -20 25 -24 15 -26 32 -4 32 8 0 12 -4
9 -10z m-495 -134 c-1 -18 -26 -46 -42 -46 -26 0 -28 12 -7 41 19 27 49 31 49
5z m-1309 -524 c-28 -27 -51 -54 -51 -61 0 -7 4 -10 9 -7 5 3 11 0 14 -8 6
-15 -9 -16 -31 -2 -26 16 7 73 63 107 51 32 49 21 -4 -29z m46 -18 c3 -9 -3
-23 -16 -35 -21 -20 -21 -20 -21 1 0 14 4 19 12 14 8 -5 9 0 6 14 -7 25 9 30
19 6z m-135 -104 c-5 -45 -8 -47 -34 -23 -18 16 -18 17 4 40 30 32 34 29 30
-17z m-22 -57 c-1 -14 -27 -43 -39 -43 -15 0 -14 7 7 29 18 20 32 26 32 14z
m-36 -61 c2 -4 -2 -15 -9 -25 -15 -20 -28 -8 -19 17 7 17 20 21 28 8z m701 -4
c29 -13 34 -38 8 -39 -13 0 -11 -3 6 -10 21 -8 53 -40 47 -46 -1 -2 -20 6 -42
17 -21 11 -56 23 -76 27 -28 4 -38 10 -38 24 0 24 27 25 53 2 19 -17 20 -17 9
3 -6 12 -8 24 -5 28 8 8 8 8 38 -6z m-295 -120 c0 7 11 12 25 12 14 0 25 -4
25 -9 0 -15 -49 -68 -50 -54 0 6 5 15 10 18 6 3 10 11 10 17 0 6 -8 4 -17 -5
-16 -13 -20 -13 -31 -1 -8 8 -11 23 -7 32 6 16 8 15 21 -2 8 -11 14 -14 14 -8z
m-312 -204 c28 -32 27 -45 -2 -66 -21 -15 -26 -16 -36 -3 -9 11 -10 15 -1 15
7 0 10 4 6 9 -3 6 6 8 20 5 32 -6 32 9 1 26 -21 11 -27 10 -41 -4 -9 -9 -20
-16 -25 -16 -5 0 -7 -7 -4 -15 4 -8 10 -12 15 -9 5 3 6 -2 3 -10 -4 -11 0 -16
11 -16 11 0 15 -5 12 -14 -4 -11 -1 -13 10 -9 11 4 14 2 9 -5 -4 -7 10 -20 36
-33 46 -23 78 -47 78 -59 0 -4 -9 -10 -21 -13 -16 -4 -18 -3 -8 9 15 18 0 18
-25 -1 -29 -22 -39 -18 -32 9 7 30 -2 56 -20 56 -8 0 -14 4 -14 9 0 4 -11 6
-25 3 -31 -6 -62 19 -82 66 -14 33 -14 34 24 68 44 39 74 39 111 -2z m-318
-26 c0 -7 -7 -21 -14 -31 -11 -14 -15 -15 -19 -5 -4 9 -6 8 -6 -3 -1 -25 25
-42 54 -35 24 6 25 5 14 -16 -6 -13 -13 -25 -15 -27 -1 -2 -17 7 -33 19 -31
21 -40 55 -25 94 7 19 44 22 44 4z m194 -101 l21 -19 -22 5 c-28 6 -29 -3 -3
-26 26 -22 28 -72 3 -63 -16 5 -16 4 -3 -7 8 -6 17 -19 19 -27 17 -73 34 -127
43 -135 7 -7 8 -3 2 15 -5 14 -8 37 -9 53 0 15 -4 27 -8 27 -11 0 4 74 17 82
16 10 35 -10 29 -32 -3 -11 -12 -20 -20 -20 -11 0 -13 -4 -5 -12 5 -7 9 -27 7
-45 -1 -18 1 -30 5 -28 8 5 54 -94 52 -107 -1 -5 2 -8 6 -8 5 0 9 -7 9 -15 0
-30 -26 -14 -33 20 -3 19 -11 35 -16 35 -6 0 -8 7 -5 14 4 10 1 13 -9 9 -13
-5 -15 -10 -13 -30 0 -5 8 -6 17 -5 13 3 14 1 4 -10 -9 -11 -7 -18 8 -31 11
-9 20 -25 20 -36 0 -15 5 -18 22 -13 21 5 21 6 2 14 -16 7 -16 7 -1 5 10 -1
17 -5 15 -8 -2 -3 3 -13 10 -22 8 -9 11 -21 7 -27 -4 -6 -1 -19 7 -28 11 -15
11 -15 -3 -5 -9 7 -19 10 -22 6 -4 -3 1 -11 10 -18 8 -6 14 -16 12 -22 -2 -5
-20 6 -39 26 -19 19 -27 29 -17 22 21 -16 29 -10 33 24 3 31 -21 34 -37 4 -16
-31 -33 -10 -19 25 6 18 6 25 0 21 -6 -3 -15 6 -20 21 -6 15 -13 24 -16 21 -3
-3 0 -16 6 -29 11 -22 11 -22 -10 2 -24 28 -51 85 -55 115 -1 11 -10 44 -19
74 -20 66 -22 141 -4 123 7 -7 16 -12 22 -12 5 0 -1 8 -12 19 -17 14 -22 29
-21 62 0 24 3 37 6 29 4 -8 16 -23 27 -33z m125 -44 c9 -7 -24 -31 -51 -37
-30 -7 -31 -4 -22 31 5 19 11 21 38 16 17 -3 33 -8 35 -10z m-84 -343 c15 -22
32 -37 38 -33 6 4 7 1 2 -6 -5 -9 13 -33 50 -71 l58 -59 -9 -72 -9 -72 -40 94
c-22 52 -51 114 -65 139 -30 53 -61 120 -56 120 2 0 16 -18 31 -40z m198 -122
c19 -25 24 -39 16 -44 -7 -4 -17 0 -23 8 -6 8 -16 13 -22 11 -6 -2 -14 5 -17
17 -3 11 -1 20 4 20 5 0 9 -4 9 -10 0 -5 5 -10 11 -10 7 0 5 10 -5 25 -16 25
-22 46 -8 30 4 -6 20 -27 35 -47z m439 -943 c8 -16 8 -18 -2 -8 -9 8 -19 9
-31 3 -19 -11 -35 2 -24 19 10 16 46 8 57 -14z"/>
<path d="M480 2165 c0 -19 5 -25 23 -24 12 0 16 3 10 6 -7 2 -13 13 -13 24 0
10 -4 19 -10 19 -5 0 -10 -11 -10 -25z"/>
<path d="M923 4084 c-9 -4 -9 -12 -1 -32 16 -36 28 -50 21 -23 -6 25 9 27 33
4 9 -9 25 -18 36 -18 10 -1 26 -11 34 -23 18 -26 30 -28 38 -6 3 8 2 12 -4 9
-5 -3 -22 7 -36 22 -14 15 -30 28 -35 28 -5 0 -13 5 -17 11 -6 10 -47 35 -54
33 -2 0 -8 -3 -15 -5z"/>
<path d="M670 4000 c-12 -16 -19 -30 -15 -30 3 0 -3 -10 -15 -22 -11 -12 -20
-25 -20 -30 0 -4 -6 -8 -14 -8 -8 0 -27 -15 -44 -34 -17 -19 -34 -32 -38 -28
-5 4 -3 0 4 -9 6 -9 9 -19 5 -23 -4 -4 0 -4 9 -1 8 3 15 14 14 23 -1 12 6 16
24 14 14 -1 27 -7 28 -12 2 -6 8 -10 14 -10 7 0 7 5 -1 13 -8 10 -7 19 5 33
14 18 15 16 11 -28 -3 -27 -1 -48 4 -48 5 0 9 -7 9 -16 0 -8 14 -40 30 -70 17
-29 27 -54 22 -54 -4 0 -8 -9 -9 -19 -1 -14 3 -18 14 -14 13 5 14 0 8 -28 l-7
-34 21 19 c11 11 21 15 21 9 0 -5 -9 -18 -20 -28 -24 -22 -26 -41 -4 -53 9 -5
16 -13 16 -18 1 -5 9 -8 20 -6 11 2 18 -3 18 -13 0 -11 -6 -14 -23 -10 -18 5
-23 2 -23 -14 0 -16 4 -18 18 -10 12 7 18 6 18 -1 0 -6 -7 -13 -15 -16 -8 -4
-15 -18 -15 -31 l0 -26 21 27 c13 16 27 25 38 22 9 -3 25 1 35 9 16 12 17 18
8 27 -9 9 -12 9 -12 -2 0 -7 -3 -10 -7 -7 -3 4 -12 2 -18 -3 -9 -7 -14 -6 -18
4 -4 9 4 16 25 20 26 5 28 7 15 21 -20 19 -28 19 -21 0 4 -8 2 -15 -4 -15 -21
0 -23 34 -2 54 18 19 20 19 20 3 0 -11 4 -15 12 -11 8 5 9 2 5 -10 -4 -10 -3
-15 3 -11 6 3 10 -2 10 -12 0 -15 2 -16 10 -3 9 14 14 7 11 -13 -1 -5 3 -6 8
-3 5 4 12 2 16 -4 3 -5 1 -10 -4 -10 -17 0 -21 -3 -58 -38 -48 -45 -36 -50 14
-7 40 34 85 46 98 25 3 -5 2 -10 -3 -10 -6 0 -12 -7 -16 -15 -3 -9 0 -15 9
-15 8 0 15 8 15 17 0 13 3 14 12 5 8 -8 8 -15 0 -25 -7 -8 -9 -17 -6 -20 4 -3
15 4 25 16 24 29 26 5 3 -48 -11 -28 -19 -35 -32 -30 -12 4 -14 3 -6 -5 6 -6
31 -12 55 -13 29 -1 49 -8 58 -20 12 -17 14 -17 32 -1 10 9 19 21 19 25 0 6
-43 75 -53 85 -1 1 -2 -11 -2 -27 0 -21 5 -29 17 -29 9 0 20 -4 23 -10 4 -6
-7 -10 -26 -10 -28 0 -31 3 -26 25 3 16 0 24 -7 22 -6 -2 -12 -13 -14 -25 -4
-23 -17 -29 -27 -12 -4 6 5 24 20 42 l26 31 -43 25 c-55 32 -186 141 -228 189
-56 63 -103 177 -111 263 -3 41 -7 70 -7 63 -3 -23 -54 -65 -71 -58 -14 6 -14
8 3 18 11 7 31 23 45 37 14 13 29 24 34 22 4 -1 7 7 7 18 0 12 7 32 16 45 23
35 10 31 -16 -5z m96 -436 c-5 -12 -2 -15 10 -10 24 9 14 -34 -12 -51 -20 -13
-22 -12 -20 4 0 10 -5 17 -11 16 -20 -4 -15 14 9 37 26 24 32 25 24 4z"/>
<path d="M2446 3921 c67 -78 84 -103 78 -113 -4 -6 -3 -8 3 -5 14 9 42 -23
107 -123 61 -92 73 -124 26 -70 -17 21 -27 27 -23 16 5 -16 3 -18 -11 -13 -10
4 -15 3 -11 -3 3 -6 15 -10 26 -10 20 0 26 -15 9 -25 -5 -3 -10 -12 -9 -18 0
-9 2 -9 6 1 5 13 33 17 33 4 0 -4 -5 -13 -11 -19 -8 -8 -8 -17 0 -32 10 -17
15 -19 31 -11 19 10 19 13 4 41 -31 61 -5 39 31 -26 21 -36 39 -64 42 -61 15
15 -202 337 -289 427 -40 41 -59 59 -42 40z"/>
<path d="M1620 3902 c0 -8 43 -32 57 -32 3 0 -2 9 -12 20 -18 20 -45 27 -45
12z"/>
<path d="M801 3824 c0 -38 4 -89 9 -114 6 -30 7 -8 3 65 -6 125 -13 153 -12
49z"/>
<path d="M896 3863 c-8 -40 -20 -319 -13 -312 4 3 11 72 16 155 5 82 12 157
16 167 4 9 3 17 -3 17 -5 0 -12 -12 -16 -27z"/>
<path d="M2166 3803 c7 -129 14 -173 26 -173 7 0 9 20 4 61 -3 34 -6 93 -6
130 0 54 -3 69 -15 69 -11 0 -13 -15 -9 -87z"/>
<path d="M1426 3846 c-76 -44 -165 -66 -263 -66 -89 1 -130 13 -196 59 -59 40
-61 26 -3 -27 24 -22 41 -43 38 -47 -4 -3 1 -3 10 0 9 4 19 1 24 -6 5 -8 3
-10 -6 -4 -8 5 -11 4 -7 -2 4 -6 22 -9 42 -7 19 1 33 -1 30 -5 -2 -5 30 0 73
10 42 10 86 18 97 18 20 0 20 0 0 -9 -18 -8 -18 -9 5 -9 20 -1 22 -3 10 -11
-13 -8 -12 -10 3 -10 28 0 19 -18 -13 -25 -35 -8 -46 -21 -24 -29 8 -3 13 -2
10 3 -7 10 17 21 42 21 15 -1 14 -3 -2 -15 -24 -18 -13 -20 17 -3 20 10 21 10
8 -5 -7 -10 -20 -17 -29 -17 -8 0 -13 -3 -9 -6 6 -7 67 17 67 26 0 3 -14 23
-31 45 l-30 40 47 3 c37 3 51 -1 71 -20 26 -24 55 -81 67 -133 6 -28 5 -29 -9
-11 -17 23 -20 14 -4 -15 8 -16 14 -18 24 -9 10 8 15 8 20 -1 4 -6 1 -15 -6
-20 -11 -7 -11 -9 3 -9 9 0 20 -10 24 -22 7 -22 7 -22 15 -3 7 18 8 18 8 -5 1
-20 3 -22 11 -10 14 22 13 28 -16 57 -24 24 -25 28 -14 73 13 54 68 117 109
126 15 3 35 9 46 14 18 8 18 9 -5 9 -29 1 -164 63 -174 80 -10 16 -14 14 -80
-23z m132 -31 c20 -14 43 -25 52 -25 8 0 0 -8 -17 -16 -47 -23 -83 -60 -83
-84 0 -12 -7 -28 -15 -37 -14 -13 -15 -12 -13 14 2 35 -24 76 -65 102 l-31 19
40 17 c21 9 49 18 61 18 13 1 23 5 23 10 0 12 9 8 48 -18z"/>
<path d="M2007 3839 c-9 -6 -15 -13 -13 -17 3 -4 -3 -8 -12 -9 -9 -1 -35 -8
-57 -17 -24 -9 -73 -15 -124 -16 -93 0 -86 4 -147 -88 -26 -38 -34 -62 -32
-85 3 -28 0 -32 -24 -35 -20 -2 -28 1 -28 12 0 9 5 16 11 16 5 0 7 -6 3 -12
-5 -9 -4 -10 4 -3 8 8 8 21 -2 50 l-14 39 -11 -39 c-15 -55 -14 -58 13 -84 16
-15 26 -19 31 -11 4 6 13 9 20 6 8 -3 16 0 19 7 3 9 8 8 15 -3 6 -8 11 -10 11
-5 0 12 42 38 83 54 15 6 26 7 26 3 -5 -30 4 -31 44 -9 23 14 59 30 79 36 20
7 44 24 54 39 14 22 14 25 2 14 -11 -9 -18 -10 -23 -2 -8 12 -25 4 -25 -13 0
-7 4 -6 10 3 6 9 10 10 10 3 0 -16 -17 -26 -25 -14 -3 6 -12 8 -20 5 -8 -4
-13 -9 -10 -13 7 -12 -47 -6 -72 7 -12 7 -25 12 -30 12 -4 -1 8 -9 27 -20 l35
-18 -25 -10 c-15 -6 -32 -6 -42 -1 -13 7 -23 4 -39 -12 -12 -12 -24 -17 -28
-13 -3 5 -18 15 -33 23 -16 8 -28 18 -28 23 0 13 27 9 40 -7 14 -17 36 -20 45
-5 4 6 1 9 -5 8 -7 -2 -14 5 -15 15 -2 11 -7 22 -11 25 -4 4 -4 -1 0 -12 5
-14 3 -17 -10 -12 -8 3 -20 6 -24 6 -5 0 -1 13 8 30 20 35 35 37 77 11 33 -19
132 -34 141 -20 3 5 -20 9 -51 9 -42 0 -65 6 -96 25 -22 14 -37 30 -34 35 7
11 114 11 160 1 29 -7 71 6 104 32 7 6 20 12 28 13 31 5 43 14 43 34 0 22 -7
24 -33 9z"/>
<path d="M568 3810 c-20 -27 -23 -28 -39 -14 -14 13 -17 13 -22 0 -7 -17 1
-26 24 -26 9 0 19 -7 23 -15 3 -8 13 -14 23 -14 16 1 16 2 1 6 -15 4 -34 33
-21 33 3 0 25 -12 49 -27 30 -19 43 -35 44 -50 0 -13 -5 -23 -11 -23 -6 0 -9
9 -6 20 6 23 -3 26 -21 8 -10 -10 -15 -10 -21 0 -7 11 -9 10 -14 -2 -4 -9 -7
-20 -8 -24 -3 -20 -21 -42 -30 -37 -5 4 -9 1 -9 -4 0 -6 5 -11 11 -11 25 0 1
-34 -39 -55 -24 -13 -53 -32 -65 -42 -11 -10 -17 -13 -14 -6 4 6 3 14 -3 18
-5 3 -10 -1 -10 -9 0 -8 -15 -26 -32 -40 -18 -14 -28 -26 -21 -26 6 0 15 5 18
11 4 6 13 8 21 5 7 -3 11 0 8 7 -6 17 32 19 45 3 8 -10 5 -18 -10 -32 -12 -10
-24 -18 -28 -18 -3 1 -15 -5 -26 -12 -23 -17 -3 -19 24 -3 15 10 22 8 40 -10
11 -11 27 -21 33 -21 7 0 2 7 -10 16 -12 8 -22 20 -22 26 0 11 57 67 68 67 3
0 8 4 10 10 7 20 -25 11 -41 -11 -14 -20 -18 -21 -26 -8 -16 22 -13 31 9 37
11 3 20 9 20 12 0 4 18 19 39 33 l39 25 10 -21 c18 -36 12 -58 -15 -53 -12 2
-23 -1 -24 -7 -1 -6 -3 -28 -4 -48 -4 -42 7 -48 41 -24 13 10 14 14 4 13 -8
-2 -21 -6 -27 -10 -7 -5 -13 -4 -13 2 0 5 12 14 28 19 l27 10 -27 1 c-35 1
-37 21 -3 21 23 0 45 -24 45 -49 0 -6 -12 -17 -27 -26 -27 -15 -27 -16 -3 -9
l25 6 -22 -24 c-13 -13 -23 -27 -23 -31 0 -11 45 10 46 22 1 6 2 17 3 24 0 8
11 18 23 24 l22 10 -22 19 c-25 21 -29 39 -7 30 8 -3 15 -1 15 5 0 7 -10 9
-25 5 -14 -4 -25 -2 -25 4 0 12 37 21 65 16 14 -2 19 -10 17 -27 -2 -23 -2
-23 11 -4 23 33 18 54 -12 48 -33 -6 -68 4 -74 21 -4 10 4 12 37 9 32 -4 45
-1 56 13 11 13 11 16 2 10 -11 -6 -13 0 -11 25 4 64 -21 115 -65 132 -13 5
-15 11 -6 27 7 13 7 20 0 20 -5 0 -10 -7 -10 -15 0 -8 -4 -15 -8 -15 -18 0
-20 13 -5 36 22 34 8 30 -19 -6z m55 -132 c45 -23 65 -61 28 -51 -10 2 -24 16
-31 29 -10 18 -16 21 -27 13 -16 -14 -7 -30 12 -22 8 3 15 0 15 -6 0 -6 -4
-11 -10 -11 -5 0 -10 -3 -10 -8 0 -4 14 -7 32 -7 17 0 33 -6 35 -12 3 -9 -5
-13 -24 -13 -30 1 -67 23 -56 34 4 4 0 4 -9 1 -25 -10 -30 10 -8 32 10 12 16
24 13 27 -11 10 17 7 40 -6z"/>
<path d="M2485 3830 c6 -10 4 -12 -9 -7 -11 4 -16 3 -14 -4 2 -6 7 -10 11 -10
4 1 14 1 23 1 18 0 14 22 -6 28 -8 3 -10 0 -5 -8z"/>
<path d="M502 3739 c-9 -14 -10 -25 -2 -39 15 -28 20 -25 15 11 -3 23 -1 28 8
20 19 -15 20 -61 2 -61 -8 0 -15 -5 -15 -11 0 -6 -5 -7 -12 -2 -28 17 -38 10
-16 -11 22 -22 45 -25 32 -5 -3 6 3 13 15 16 13 3 21 13 21 27 0 12 6 28 13
35 10 10 9 11 -5 6 -12 -5 -18 -2 -18 8 0 23 -25 27 -38 6z"/>
<path d="M1602 3720 c-13 -14 -20 -30 -17 -38 3 -7 5 -19 5 -25 0 -6 9 6 20
28 25 49 21 66 -8 35z"/>
<path d="M2555 3718 l-20 -21 21 11 c17 9 24 8 33 -2 6 -7 8 -16 4 -19 -3 -4
-1 -7 6 -7 7 0 11 -6 8 -13 -3 -8 1 -14 8 -14 12 0 12 5 0 26 -7 14 -19 33
-27 43 -12 15 -15 14 -33 -4z"/>
<path d="M447 3692 c-15 -10 -25 -21 -21 -24 5 -5 11 -28 13 -50 1 -4 11 -12
24 -18 20 -10 20 -10 5 3 -25 20 -22 36 5 31 22 -5 22 -4 1 5 -12 5 -25 14
-28 19 -6 10 13 30 29 30 5 0 11 5 13 11 5 16 -9 13 -41 -7z"/>
<path d="M2053 3645 c0 -38 2 -53 4 -32 2 20 2 52 0 70 -2 17 -4 1 -4 -38z"/>
<path d="M379 3652 c5 -10 17 -24 25 -32 20 -16 21 -40 2 -40 -16 0 -29 -27
-20 -42 3 -5 12 0 20 11 9 12 21 18 31 14 8 -3 14 -2 12 3 -23 50 -44 83 -61
93 -17 11 -18 10 -9 -7z"/>
<path d="M1182 3647 c-9 -10 -3 -13 26 -13 20 -1 29 1 19 3 -9 3 -15 9 -12 14
9 14 -21 11 -33 -4z"/>
<path d="M324 3595 c-14 -27 -16 -37 -6 -47 6 -6 15 -8 19 -4 4 4 1 11 -7 16
-12 8 -11 14 8 39 12 17 19 31 14 31 -5 0 -17 -16 -28 -35z"/>
<path d="M1735 3578 c-11 -6 -31 -18 -45 -26 -14 -9 -28 -17 -32 -17 -3 0 -16
-12 -28 -28 -12 -15 -34 -33 -48 -40 -33 -16 -66 -11 -58 9 3 8 2 14 -3 14 -5
0 -12 11 -15 25 -9 34 -23 31 -22 -4 1 -16 12 -41 25 -55 14 -14 19 -26 13
-26 -7 0 -12 -7 -12 -15 0 -8 -6 -12 -14 -9 -7 3 -29 -4 -47 -16 l-34 -21 30
3 c26 3 30 0 27 -21 -3 -29 15 -88 30 -97 6 -4 8 -2 4 4 -3 6 -2 13 3 16 12 8
23 -10 27 -41 2 -24 -21 -33 -28 -11 -3 7 -7 5 -11 -6 -4 -9 -3 -15 2 -11 5 3
11 0 13 -7 3 -8 12 -4 26 10 28 28 29 6 0 -25 l-21 -23 24 -9 c24 -10 24 -10
2 -10 -13 -1 -23 -5 -23 -10 0 -17 -43 -20 -66 -4 -24 15 -24 15 -24 -16 0
-22 9 -40 28 -57 l27 -26 -2 -306 c-2 -169 1 -323 6 -342 7 -23 9 98 8 347
l-2 382 43 12 c40 11 42 14 42 48 0 54 -11 111 -21 106 -4 -3 -10 3 -13 12 -8
25 -7 38 2 38 18 1 53 28 49 38 -2 7 4 23 14 36 11 14 17 32 13 45 -4 16 7 32
43 67 26 26 62 54 78 62 17 9 26 16 20 16 -5 0 -19 -5 -30 -11z m-138 -171
c-2 -6 -10 -12 -17 -12 -8 0 -17 -11 -20 -24 l-5 -24 -13 27 c-18 39 -16 43
24 44 24 1 34 -3 31 -11z m-80 -55 c16 -10 13 -50 -4 -48 -22 3 -34 22 -27 39
7 19 13 20 31 9z"/>
<path d="M2590 3500 c-31 -24 -39 -25 -57 -2 -13 16 -13 15 -7 -7 3 -13 2 -21
-2 -18 -15 8 -33 -19 -23 -34 7 -11 9 -11 9 4 0 17 3 18 38 21 9 0 31 13 47
29 34 31 32 36 -5 7z"/>
<path d="M1747 3483 c-3 -16 -2 -44 3 -63 7 -31 8 -28 9 28 1 66 -3 79 -12 35z"/>
<path d="M314 3464 c3 -8 1 -14 -4 -14 -6 0 -10 -4 -10 -10 0 -5 6 -7 14 -4 8
3 17 1 21 -5 3 -6 12 -11 18 -11 8 0 8 3 2 8 -5 4 -10 16 -10 26 0 11 -8 20
-18 22 -13 2 -17 -2 -13 -12z"/>
<path d="M2595 3459 c-4 -12 -2 -26 3 -31 6 -6 8 -18 6 -27 -3 -9 1 -6 7 7 7
12 17 22 24 22 7 0 20 10 31 23 l19 22 -22 -18 c-26 -22 -59 -19 -55 6 4 24
-5 21 -13 -4z"/>
<path d="M266 3434 c-8 -22 -8 -26 4 -19 6 3 10 -3 10 -14 0 -25 25 -28 34 -5
9 24 7 28 -8 15 -11 -9 -15 -8 -20 5 -3 9 -4 20 0 25 3 5 1 9 -4 9 -6 0 -13
-7 -16 -16z"/>
<path d="M2787 3425 c3 -10 15 -27 26 -38 10 -10 17 -21 14 -23 -3 -3 -101 -5
-218 -5 -197 1 -607 -24 -619 -36 -3 -3 38 -3 90 1 166 12 453 26 505 25 45
-1 47 -2 20 -10 -18 -5 18 -6 93 -4 121 4 124 3 107 -15 -10 -11 -21 -17 -25
-15 -5 3 -6 -5 -4 -17 l5 -23 -12 23 c-7 12 -17 22 -23 22 -6 0 -5 -5 2 -12
15 -15 16 -32 2 -23 -6 4 -17 1 -26 -5 -11 -10 -12 -16 -3 -26 6 -8 17 -14 23
-14 6 0 5 4 -3 9 -11 7 -9 11 9 21 21 11 22 11 17 -11 -4 -13 -7 -32 -7 -42 0
-17 -1 -17 -16 -3 -8 9 -20 13 -26 10 -7 -4 -8 -2 -4 4 4 7 2 12 -3 12 -6 0
-11 -9 -11 -21 0 -15 5 -19 19 -14 12 3 21 0 25 -10 3 -9 2 -13 -4 -10 -6 3
-10 1 -10 -4 0 -17 4 -26 11 -24 8 3 2 -95 -7 -109 -4 -6 -3 -8 3 -5 15 9 36
-20 29 -38 -3 -9 -2 -13 4 -10 6 4 8 -7 5 -27 -5 -28 -4 -29 4 -11 7 16 5 44
-5 95 -23 107 -7 209 44 277 25 34 25 34 7 68 -21 39 -50 67 -38 38z"/>
<path d="M216 3415 c-4 -10 1 -15 14 -15 11 0 20 -5 20 -12 0 -6 2 -9 5 -7 2
3 2 15 -2 27 -6 25 -28 29 -37 7z"/>
<path d="M857 3393 c-20 -18 -33 -33 -28 -33 6 0 71 47 89 64 1 2 -4 3 -11 3
-8 0 -30 -15 -50 -34z"/>
<path d="M1300 3416 c0 -83 -26 -335 -45 -436 -27 -144 -40 -243 -25 -195 26
85 60 310 70 463 6 96 9 176 6 180 -3 3 -6 -2 -6 -12z"/>
<path d="M347 3403 c-4 -3 -7 -13 -7 -20 0 -19 52 -13 58 7 4 12 2 13 -9 3
-18 -18 -42 -16 -35 2 6 16 3 19 -7 8z"/>
<path d="M427 3403 c-4 -3 -7 -12 -7 -20 0 -9 15 -13 50 -13 28 0 50 4 50 9 0
15 -18 23 -25 12 -9 -15 -66 -9 -60 7 5 13 2 16 -8 5z"/>
<path d="M1380 3373 c0 -4 8 -30 17 -56 12 -33 14 -50 7 -55 -6 -4 -11 -25
-11 -47 0 -22 2 -32 4 -22 2 9 9 17 14 17 5 0 7 -11 3 -24 -4 -18 -1 -27 14
-35 27 -14 79 -14 88 1 4 7 3 8 -4 4 -19 -11 -14 5 6 20 13 10 14 12 2 11 -8
-2 -21 -7 -29 -11 -10 -7 -21 -1 -38 20 -13 16 -28 28 -33 27 -16 -4 -12 5 11
26 l20 19 -25 50 c-24 47 -46 74 -46 55z"/>
<path d="M2364 3312 c-47 -3 -51 -5 -46 -24 3 -14 1 -19 -6 -15 -5 4 -13 1
-15 -5 -4 -10 -8 -10 -16 1 -7 11 -5 19 7 29 9 7 11 10 3 6 -8 -4 -44 -7 -80
-7 -36 1 -56 -1 -44 -4 14 -3 20 -9 16 -19 -3 -8 1 -14 10 -14 8 0 20 -7 27
-15 10 -12 16 -13 27 -3 12 10 13 7 8 -15 -8 -30 8 -57 33 -57 13 0 13 2 -1
18 -21 23 -22 42 -3 42 30 0 43 -55 17 -70 -13 -7 -23 -4 -38 10 -21 19 -43
11 -43 -17 0 -15 16 -17 25 -3 11 18 26 10 20 -10 -5 -14 -2 -20 9 -20 9 0 16
7 16 15 0 20 10 19 27 -2 14 -17 14 -17 10 3 -2 12 0 29 5 39 6 10 6 20 2 24
-5 3 -15 16 -21 28 -11 19 -10 24 8 37 12 8 18 19 14 25 -4 7 11 11 44 11 50
0 58 -6 52 -42 -2 -12 13 -10 26 3 7 7 10 5 10 -8 0 -33 3 -43 12 -43 8 0 9
19 2 63 0 4 -10 7 -21 7 -11 0 -20 4 -20 9 0 4 30 8 66 8 65 0 66 0 44 -17
-17 -13 -19 -19 -10 -25 8 -5 21 3 35 21 14 18 19 30 12 31 -26 5 -175 8 -223
5z m-110 -37 c3 -10 -1 -15 -13 -15 -10 0 -24 7 -31 15 -11 13 -9 15 13 15 14
0 27 -7 31 -15z"/>
<path d="M257 3291 c5 -20 3 -22 -16 -16 -12 4 -21 2 -21 -4 0 -6 9 -11 20
-11 12 0 32 -7 46 -16 l25 -17 -23 -16 c-13 -9 -26 -15 -30 -13 -12 3 -9 -16
2 -23 6 -4 19 4 30 17 14 18 21 20 31 11 10 -10 9 -15 -1 -27 -7 -9 -16 -14
-20 -11 -7 4 -22 -18 -24 -37 -1 -4 -7 -13 -13 -19 -18 -18 -16 -30 3 -22 13
5 15 1 10 -18 -3 -13 -3 -18 0 -11 3 6 9 10 13 8 3 -2 11 7 18 20 7 14 7 26 2
30 -5 3 -8 0 -7 -7 2 -6 -3 -14 -9 -16 -21 -8 -15 20 11 52 14 17 28 26 33 21
4 -5 2 -11 -4 -13 -19 -7 -16 -19 8 -42 21 -19 11 -39 -13 -25 -9 5 -10 4 -3
-4 11 -11 28 -15 63 -13 19 1 21 3 10 14 -8 6 -22 17 -33 23 -10 6 -21 17 -23
25 -3 9 2 8 17 -5 13 -12 21 -14 21 -7 0 7 5 11 11 9 6 -2 10 -7 9 -12 -1 -5
5 -13 14 -18 20 -11 20 -22 -1 -54 -12 -19 -18 -22 -24 -12 -5 8 -8 5 -6 -10
0 -12 7 -22 14 -22 7 0 12 3 10 8 -1 4 3 7 8 7 6 0 10 -5 9 -11 -1 -7 15 -5
43 5 24 9 37 17 28 19 -8 2 -13 8 -10 13 4 5 14 5 26 -1 13 -7 18 -7 17 -1 -2
6 15 22 37 35 37 24 38 25 14 26 -35 0 -90 47 -70 59 9 6 20 1 35 -15 19 -22
24 -23 46 -11 22 11 34 13 56 8 9 -2 -17 -31 -28 -31 -5 0 -6 5 -2 12 4 7 3 8
-5 4 -14 -9 -5 -26 14 -26 24 0 34 30 19 59 -17 31 -18 55 -3 45 12 -7 69 44
69 63 0 7 5 13 11 13 5 0 7 5 3 11 -4 7 -12 2 -23 -14 -9 -13 -22 -22 -30 -19
-8 3 -11 0 -7 -7 11 -16 -10 -13 -24 4 -7 8 -10 22 -6 30 3 9 2 13 -4 10 -6
-3 -10 -12 -10 -20 0 -7 -7 -16 -16 -19 -8 -3 -12 -11 -9 -16 4 -7 11 -7 18
-2 7 5 21 4 35 -3 15 -8 20 -15 12 -20 -6 -4 -18 -1 -27 6 -13 11 -17 10 -27
-3 -7 -9 -17 -14 -23 -10 -14 10 -9 52 8 63 11 7 11 9 -3 9 -10 0 -18 -6 -18
-12 -1 -7 -10 -2 -20 11 -19 22 -20 22 -20 3 0 -11 -11 -33 -24 -49 -13 -15
-25 -37 -28 -48 -2 -12 -10 -19 -21 -17 -9 2 -18 -3 -19 -10 0 -7 -2 -17 -3
-23 -2 -5 -3 -14 -4 -19 -1 -11 -31 13 -31 26 0 5 5 6 10 3 6 -3 10 -1 10 4 0
16 -16 13 -30 -4 -15 -18 -32 -20 -28 -2 2 6 -7 26 -18 42 -12 17 -19 35 -17
40 2 6 -11 16 -29 24 -19 7 -28 15 -20 18 7 3 20 -1 28 -8 13 -11 14 -9 8 17
-8 35 -14 43 -14 21 0 -20 -20 -18 -37 3 -10 12 -11 11 -6 -9z m272 -107 c-14
-18 -39 -18 -39 -1 0 23 22 38 37 25 10 -8 10 -14 2 -24z m96 -33 c-3 -2 -5 1
-5 8 0 7 -9 6 -26 -5 -23 -16 -27 -16 -41 -1 -14 13 -14 19 -3 32 7 9 21 13
31 10 9 -3 21 0 25 7 5 8 10 3 16 -17 4 -16 5 -31 3 -34z m-128 -16 c9 -21 8
-25 -8 -30 -10 -4 -23 -3 -29 0 -5 3 -10 2 -10 -4 0 -5 6 -12 13 -14 7 -4 6
-6 -4 -6 -9 -1 -19 6 -23 14 -3 8 -1 15 5 15 6 0 8 7 5 16 -14 36 34 45 51 9z
m63 -52 c0 -3 -3 -3 -7 0 -3 4 -13 -2 -20 -13 -10 -14 -21 -19 -33 -15 -11 3
-28 1 -39 -4 -14 -8 -22 -8 -26 -1 -4 6 7 15 24 21 17 6 31 15 31 20 0 5 5 9
11 9 6 0 9 -9 6 -20 -3 -11 -1 -20 4 -20 5 0 9 11 9 25 0 23 2 24 20 15 11 -6
20 -14 20 -17z"/>
<path d="M2817 3290 c-35 -55 -47 -176 -24 -262 11 -45 12 -39 12 86 0 116 2
137 19 154 10 12 16 27 14 34 -3 8 -10 4 -21 -12z"/>
<path d="M743 3286 c2 -6 -4 -21 -14 -34 -10 -13 -15 -31 -12 -40 5 -14 3 -15
-7 -5 -20 18 -58 -32 -42 -57 8 -13 7 -21 -1 -31 -7 -7 -2 -5 11 6 21 17 21
20 6 25 -14 5 -11 11 19 34 20 15 34 33 31 41 -3 7 3 16 15 20 12 3 21 11 21
16 0 6 8 8 18 5 9 -3 24 -1 32 5 11 8 6 9 -23 7 -25 -3 -36 0 -33 7 2 7 -2 12
-10 12 -8 0 -13 -5 -11 -11z"/>
<path d="M860 3268 c-23 -19 -23 -20 -3 -14 18 6 22 3 25 -20 2 -15 9 -29 15
-32 10 -3 9 6 -1 36 -8 22 -12 43 -9 46 15 14 -4 3 -27 -16z"/>
<path d="M1755 3278 c-5 -14 -35 -147 -35 -154 0 -2 4 -4 8 -4 15 0 42 59 42
93 0 20 7 42 15 50 8 8 11 17 8 21 -11 10 -33 7 -38 -6z"/>
<path d="M2635 3280 c-3 -5 -3 -10 1 -10 4 0 -1 -9 -11 -20 -24 -26 -39 -26
-25 1 7 11 9 23 7 26 -7 6 -47 -34 -47 -47 0 -5 -4 -10 -10 -10 -5 0 -10 6
-10 14 0 9 -8 12 -26 8 -24 -4 -25 -6 -8 -15 11 -6 22 -15 26 -21 12 -17 9
-46 -3 -46 -6 0 -9 9 -6 19 3 12 -1 22 -11 26 -21 8 -27 -2 -12 -20 8 -9 10
-24 4 -42 -4 -16 -7 -31 -6 -35 1 -5 -7 -8 -18 -8 -23 0 -27 18 -5 26 22 9 19
57 -5 72 -11 7 -20 19 -20 27 0 15 -20 17 -31 2 -11 -14 -37 4 -32 23 5 19
-11 35 -27 25 -5 -3 -6 -13 -3 -21 5 -13 8 -13 15 -2 13 18 -1 -30 -18 -64
-17 -33 -18 -41 -3 -32 8 5 10 -1 6 -17 -3 -13 -1 -33 3 -44 9 -20 9 -20 9 0
1 17 3 17 11 5 8 -13 10 -12 10 3 0 9 5 17 10 17 6 0 10 -9 10 -20 0 -13 7
-20 20 -20 11 0 20 -4 20 -10 0 -5 4 -10 10 -10 5 0 7 7 3 16 -4 12 -2 15 8
12 8 -3 14 -14 14 -25 0 -12 4 -25 9 -30 5 -4 6 -3 2 5 -4 7 -1 15 8 18 11 4
13 11 7 22 -11 20 7 72 25 72 8 0 14 10 14 23 1 28 25 61 39 52 16 -9 13 -25
-4 -25 -9 0 -15 -9 -15 -22 0 -22 1 -21 25 7 25 31 34 20 13 -16 -10 -17 -10
-23 0 -26 6 -3 12 -9 12 -15 0 -6 -7 -8 -15 -4 -22 8 -18 -17 6 -38 21 -18 22
-18 15 9 -4 15 -3 24 2 21 16 -10 42 28 32 44 -8 12 -10 11 -10 -7 0 -21 -19
-43 -21 -26 -6 39 -4 55 7 60 10 4 9 9 -7 22 l-20 16 25 24 c14 14 26 28 26
33 0 11 -18 10 -25 -2z m-180 -85 c5 0 10 -8 11 -18 2 -14 1 -14 -3 -1 -4 13
-7 13 -19 -5 -16 -22 -44 -29 -44 -10 0 6 -9 8 -21 4 -15 -5 -20 -3 -17 6 5
17 48 25 48 10 0 -6 4 -11 9 -11 5 0 7 10 3 22 -4 16 -2 19 9 12 8 -5 18 -9
24 -9z m-12 -78 c20 -24 21 -28 5 -24 -6 1 -22 13 -35 27 -12 14 -23 19 -23
13 0 -7 -4 -13 -10 -13 -5 0 -7 7 -4 15 8 20 42 10 67 -18z"/>
<path d="M2125 3256 c-9 -14 -21 -24 -25 -21 -4 3 -10 -2 -14 -10 -3 -8 -1
-17 5 -21 6 -3 8 -12 5 -20 -3 -8 -2 -14 3 -14 5 0 11 14 15 30 7 39 19 38 34
-3 17 -46 17 -45 -35 -41 -102 8 -147 26 -106 41 10 4 21 11 25 17 4 6 9 4 13
-6 4 -9 13 -14 20 -12 10 4 11 13 4 36 -11 39 -15 43 -23 23 -3 -9 -2 -13 4
-10 6 3 10 0 10 -8 0 -9 -11 -14 -32 -14 -18 -1 -27 1 -20 4 6 3 10 9 7 14 -4
5 -12 3 -19 -4 -10 -9 -11 -14 -2 -20 8 -5 5 -12 -8 -22 -13 -9 -16 -19 -10
-24 13 -13 182 -71 221 -77 18 -2 67 -18 109 -34 42 -17 78 -29 81 -27 5 6
-157 70 -229 91 -66 19 -76 29 -19 20 30 -5 39 -3 44 11 4 9 12 13 18 9 8 -4
9 -3 5 4 -4 7 -3 12 2 12 19 0 22 33 5 52 -16 18 -18 18 -23 2 -5 -14 -10 -11
-27 16 l-21 33 -17 -27z"/>
<path d="M376 3254 c-7 -18 19 -50 28 -36 4 7 11 12 17 12 16 0 10 -15 -12
-28 -18 -11 -23 -11 -34 5 -7 10 -11 21 -9 25 6 9 -10 11 -19 2 -3 -4 1 -13 9
-21 8 -9 13 -21 10 -28 -3 -8 3 -16 12 -20 9 -3 13 -3 9 1 -4 4 7 16 23 26 40
24 48 23 25 -2 -17 -18 -17 -20 -2 -14 9 3 17 10 17 15 0 4 12 20 28 35 l27
27 -29 -17 c-18 -12 -32 -14 -38 -8 -6 6 1 13 21 20 17 6 31 13 31 16 0 6 -22
2 -36 -7 -6 -3 -14 -3 -18 1 -12 12 -55 9 -60 -4z"/>
<path d="M1028 3235 c4 -30 6 -33 23 -24 19 9 19 11 2 34 -24 33 -30 31 -25
-10z"/>
<path d="M800 3235 c-24 -25 -47 -35 -34 -13 4 7 3 8 -5 4 -6 -4 -9 -12 -6
-17 4 -5 2 -9 -3 -9 -6 0 -13 -7 -16 -16 -3 -8 -2 -13 3 -9 5 3 12 -1 15 -7 3
-7 4 -4 3 7 -2 17 3 20 28 17 24 -2 27 0 15 9 -12 9 -11 10 8 6 26 -6 30 9 5
16 -17 4 -17 5 0 6 9 0 17 8 17 16 0 20 -3 19 -30 -10z"/>
<path d="M1916 3185 c54 -66 86 -120 76 -129 -4 -4 -1 -6 7 -4 8 2 27 -19 45
-49 33 -57 79 -109 57 -66 -6 12 -16 25 -21 28 -6 4 -8 10 -6 14 8 12 -59 113
-69 104 -4 -4 -5 -2 -1 4 7 14 -72 129 -82 119 -3 -3 -15 2 -26 11 -11 10 -2
-4 20 -32z"/>
<path d="M1946 3095 c3 -22 8 -73 10 -113 2 -41 7 -78 10 -83 10 -16 26 -10
20 9 -2 9 -8 33 -12 52 -6 31 -5 33 9 21 9 -7 21 -10 26 -7 15 10 2 36 -15 29
-16 -6 -37 38 -22 48 6 4 1 22 -11 45 l-22 39 7 -40z"/>
<path d="M1755 3106 c-10 -11 -13 -232 -3 -241 3 -3 8 51 12 121 4 69 6 127 4
129 -2 2 -7 -2 -13 -9z"/>
<path d="M2045 3080 c17 -19 34 -38 38 -41 5 -3 8 -10 8 -15 0 -5 5 -9 12 -9
6 0 28 -12 48 -27 20 -16 39 -28 42 -28 13 0 173 -114 272 -193 89 -71 95 -74
50 -28 -27 29 -71 66 -97 83 -27 16 -45 35 -41 41 3 6 1 7 -6 3 -14 -9 -70 29
-67 47 1 6 6 12 11 12 6 0 9 -4 7 -8 -1 -5 2 -6 8 -2 8 5 8 11 -1 21 -6 7 -15
11 -20 8 -5 -3 -9 0 -9 6 0 6 -5 8 -10 5 -7 -4 -7 -13 0 -26 6 -10 7 -19 2
-19 -13 0 -33 25 -26 32 3 3 -3 5 -13 5 -10 -1 -17 4 -15 11 1 8 -2 11 -7 8
-12 -8 -110 54 -170 108 -43 37 -44 38 -16 6z"/>
<path d="M1572 3049 c-2 -23 -5 -25 -33 -21 -22 3 -30 1 -25 -7 4 -6 18 -11
32 -11 l24 0 2 -182 c1 -101 2 -190 4 -198 1 -8 2 -20 3 -26 1 -11 80 -54 99
-54 32 0 16 23 -32 47 -49 24 -56 31 -57 58 -1 16 -5 118 -9 225 -3 107 -7
183 -8 169z"/>
<path d="M2543 3059 c9 -6 15 -14 12 -20 -4 -5 -1 -9 5 -9 6 0 8 -4 5 -10 -3
-5 1 -10 10 -10 10 0 13 5 9 13 -14 24 -37 47 -48 47 -6 0 -3 -5 7 -11z"/>
<path d="M301 3037 c-7 -10 -15 -16 -19 -13 -5 3 -14 1 -21 -4 -15 -8 -7 -30
11 -30 6 0 8 3 5 7 -4 3 5 12 20 20 23 12 28 11 44 -3 23 -20 14 -40 -9 -22
-15 12 -16 11 -4 -4 14 -18 42 -14 42 6 0 6 -9 17 -21 24 -15 9 -18 17 -10 25
7 9 5 13 -8 13 -11 0 -24 -8 -30 -19z"/>
<path d="M1411 2986 c-2 -58 2 -77 16 -92 10 -11 15 -15 11 -10 -5 6 -8 45 -8
87 0 99 -16 112 -19 15z"/>
<path d="M2190 3018 c0 -11 16 -26 42 -38 23 -11 43 -20 45 -20 2 0 2 17 2 38
-2 30 -3 32 -6 10 -4 -28 -4 -28 -36 -12 -18 9 -35 22 -39 28 -5 7 -8 5 -8 -6z"/>
<path d="M675 3011 c-4 -7 1 -9 12 -5 16 5 16 4 -1 -10 -11 -9 -16 -16 -10
-17 5 0 -4 -7 -21 -15 l-30 -15 30 6 c17 3 37 7 45 9 8 2 20 -1 27 -6 7 -5 14
-5 18 2 5 9 -14 15 -37 11 -4 0 -7 9 -5 20 2 23 -17 37 -28 20z"/>
<path d="M2290 3010 c0 -5 7 -10 15 -10 8 0 15 -5 15 -11 0 -6 7 -18 16 -27
15 -15 16 -14 9 8 -4 14 -12 31 -17 38 -12 14 -38 16 -38 2z"/>
<path d="M2041 2970 c12 -25 37 -88 56 -140 18 -52 31 -80 28 -61 l-5 33 19
-23 c17 -22 18 -25 2 -46 -21 -29 -31 -29 -32 0 0 12 -7 38 -14 57 l-14 35 6
-50 c9 -80 -8 -44 -27 57 l-18 93 -1 -60 c0 -33 4 -78 11 -100 6 -22 11 -47
10 -55 -1 -10 0 -11 4 -2 8 18 22 15 28 -6 6 -17 -37 -129 -53 -142 -6 -5 -7
-16 -3 -46 1 -6 8 -11 16 -11 8 0 12 6 9 13 -6 17 16 29 29 16 14 -14 -3 -36
-42 -56 -25 -12 -30 -11 -53 8 -28 23 -52 65 -43 73 3 3 12 1 19 -6 8 -6 21
-9 30 -5 18 6 31 34 17 34 -6 0 -10 5 -10 11 0 5 5 7 11 3 8 -5 8 -1 0 13 -8
17 -6 24 16 44 14 13 23 18 19 12 -4 -7 -5 -13 -2 -13 3 0 10 10 17 21 7 13 7
19 1 15 -6 -4 -15 1 -20 10 -8 15 -11 12 -17 -14 -3 -18 -10 -32 -14 -32 -4 0
-14 -11 -21 -25 -11 -20 -11 -27 0 -40 21 -25 8 -25 -43 1 -27 13 -62 24 -78
24 -26 0 -28 -2 -17 -20 15 -24 11 -28 -32 -34 -55 -7 -80 -17 -80 -31 0 -7 7
-15 15 -19 8 -3 14 0 12 5 -3 15 79 39 128 38 35 -1 37 -2 15 -9 -14 -5 -44
-14 -66 -19 -23 -6 -58 -22 -78 -36 -46 -31 -55 -32 -30 -2 17 20 17 20 -8 -2
-15 -13 -25 -28 -22 -32 3 -5 0 -10 -5 -10 -6 -1 -16 -2 -21 -3 -14 -1 -30
-28 -23 -39 3 -4 -2 -16 -10 -25 -8 -9 -21 -30 -29 -47 -12 -25 -13 -34 -2
-54 15 -29 10 -41 -17 -41 -10 0 -19 -5 -19 -11 0 -6 6 -9 14 -6 20 8 28 -4
14 -20 -8 -10 -8 -17 0 -25 6 -6 8 -24 5 -40 -4 -21 0 -35 15 -51 11 -12 25
-38 31 -57 9 -30 10 -25 5 33 -5 59 -3 67 11 67 15 0 17 6 11 40 -4 25 -2 40
4 40 6 0 10 -44 10 -114 0 -63 3 -121 6 -130 4 -10 1 -16 -9 -16 -19 0 -15
-42 14 -138 25 -84 29 -89 49 -62 15 20 17 20 17 4 0 -11 -7 -27 -15 -36 -8
-10 -10 -18 -5 -18 17 0 31 23 34 55 4 44 -12 165 -22 165 -14 0 -10 38 7 71
8 17 13 33 11 35 -2 3 -10 -9 -17 -26 -14 -34 -16 -35 -35 -17 -10 11 -10 18
1 38 19 34 17 56 -6 81 -16 18 -20 36 -20 97 0 63 3 79 23 100 l22 26 -22 -19
c-23 -19 -23 -19 -23 6 0 14 16 43 36 67 27 31 34 45 25 54 -8 8 -17 5 -34
-11 -13 -12 -27 -19 -32 -15 -4 5 -5 3 -2 -3 4 -6 -3 -28 -13 -50 -22 -43 -26
-74 -9 -74 8 0 9 -4 0 -13 -6 -8 -8 -16 -5 -20 8 -8 -5 -47 -17 -47 -5 0 -9 9
-9 21 0 11 5 17 10 14 6 -3 10 -1 10 4 0 6 -5 11 -11 11 -22 0 -5 106 25 150
15 23 30 39 33 36 4 -3 15 2 25 11 16 14 21 15 28 4 11 -18 44 -6 37 14 -7 16
23 9 35 -9 4 -6 8 1 8 17 0 39 20 34 21 -5 0 -18 3 -27 6 -20 2 6 9 12 15 12
6 0 7 -7 4 -16 -3 -8 -2 -12 4 -9 6 3 10 13 10 21 0 8 5 14 10 14 15 0 12 -21
-6 -41 -14 -16 -14 -20 2 -44 15 -23 19 -24 26 -11 5 9 7 25 3 35 -3 11 1 24
11 32 16 13 16 12 4 -11 -12 -23 -12 -24 3 -11 15 12 18 10 23 -19 4 -17 15
-36 24 -42 16 -10 12 -17 -34 -61 -47 -45 -48 -46 -9 -18 22 17 55 47 71 65
17 19 32 33 35 30 2 -2 10 4 18 13 13 16 12 17 -3 4 -12 -9 -18 -10 -18 -2 0
6 -7 11 -15 11 -9 0 -15 -6 -14 -12 5 -40 -4 -37 -26 10 -27 59 -24 84 6 56
17 -16 19 -16 19 -1 0 19 15 23 25 7 4 -6 1 -18 -7 -27 -11 -14 -10 -15 11 -8
15 4 21 3 17 -3 -3 -5 2 -9 11 -8 9 0 18 -4 20 -11 6 -17 -71 -98 -129 -135
-26 -17 -48 -35 -48 -40 0 -5 14 0 30 12 17 12 30 17 30 11 0 -6 -10 -16 -22
-22 -13 -7 -26 -16 -29 -22 -4 -5 -14 3 -24 19 -9 16 -13 20 -9 9 4 -11 6 -39
5 -62 -1 -37 1 -42 15 -36 12 4 15 3 10 -5 -11 -19 -49 -15 -42 4 3 8 2 12 -3
9 -15 -9 -23 32 -11 56 8 14 10 46 5 93 -4 50 -3 67 4 56 9 -13 11 -12 11 5 0
18 -19 60 -20 42 0 -4 -14 0 -31 8 -42 22 -47 12 -9 -15 l31 -22 -3 -119 c-3
-108 -1 -119 17 -133 11 -8 16 -18 12 -22 -4 -5 -12 -2 -17 6 -6 10 -10 -33
-10 -122 0 -75 -3 -144 -7 -154 -4 -12 -3 -15 5 -10 8 5 12 49 12 137 0 79 4
128 9 124 6 -3 25 1 43 10 24 11 27 13 8 9 -22 -4 -23 -4 -7 6 10 7 24 10 30
7 9 -3 11 7 8 36 -3 36 8 56 33 58 10 1 136 123 136 132 0 6 -10 -2 -23 -16
-15 -18 -26 -24 -36 -18 -10 7 -7 14 16 31 28 20 30 24 21 63 -6 23 -12 61
-15 85 -5 41 -4 42 18 33 15 -5 26 -19 30 -37 l7 -29 1 28 c0 15 6 27 11 27 6
0 10 5 10 11 0 5 -5 7 -10 4 -6 -3 -14 5 -20 19 -5 14 -12 26 -15 26 -4 0 -3
-4 0 -10 3 -5 0 -10 -7 -10 -9 0 -9 -3 2 -10 13 -8 13 -10 -2 -10 -9 0 -26 14
-38 30 -12 17 -26 28 -30 25 -21 -13 15 58 44 87 17 18 30 36 28 41 -2 6 1 13
6 16 17 10 16 34 0 71 -9 19 -22 49 -28 67 -7 18 -28 54 -49 82 -20 27 -42 57
-49 68 -7 10 -2 -2 9 -27z m-87 -456 c5 -13 4 -14 -7 -6 -18 15 -160 -28 -192
-58 -20 -18 -23 -19 -29 -5 -3 10 -2 14 5 10 6 -4 18 0 28 9 18 17 143 64 172
65 9 1 20 -6 23 -15z m146 -234 c11 -7 5 -13 -30 -29 -45 -20 -57 -21 -45 -2
3 6 17 11 30 11 18 0 23 4 19 15 -7 17 4 19 26 5z m-354 -375 c7 17 9 14 15
-20 4 -22 5 -42 3 -44 -8 -9 -35 31 -39 61 -4 28 -3 29 4 8 8 -24 9 -24 17 -5z
m-6 -90 c0 -13 7 -28 16 -33 12 -7 14 -14 7 -27 -9 -15 -13 -10 -27 30 -19 57
-19 55 -6 55 6 0 10 -11 10 -25z"/>
<path d="M2730 3001 c0 -6 -7 -11 -15 -11 -13 0 -14 -4 -4 -22 21 -40 50 -46
48 -10 0 14 -2 13 -9 -3 -7 -18 -8 -19 -15 -2 -4 9 -2 24 4 31 8 10 9 16 1 21
-5 3 -10 1 -10 -4z"/>
<path d="M2118 2990 c15 -17 16 -62 1 -77 -7 -7 -3 -12 17 -17 20 -5 24 -10
15 -19 -16 -16 -14 -37 5 -37 8 0 13 4 10 9 -9 14 5 42 16 35 6 -4 4 4 -2 17
-18 34 -24 38 -15 10 5 -16 4 -21 -4 -17 -6 4 -14 25 -17 46 -4 22 -14 45 -23
52 -13 10 -14 10 -3 -2z"/>
<path d="M2378 2975 c-20 -26 -24 -60 -7 -50 5 4 8 12 6 18 -2 7 3 17 11 23 8
6 13 16 11 21 -2 6 -12 1 -21 -12z"/>
<path d="M532 2967 c-24 -25 -28 -37 -13 -37 5 0 13 9 16 21 9 28 18 16 21
-27 3 -31 1 -34 -16 -29 -15 5 -18 3 -14 -9 7 -19 -12 -22 -19 -3 -4 9 -8 9
-16 -3 -5 -8 -7 -18 -5 -22 3 -4 -9 -8 -25 -8 -18 0 -31 -5 -31 -12 -1 -14
-25 -45 -54 -68 -19 -15 -19 -15 0 15 10 17 23 33 28 37 6 4 7 10 3 14 -4 4
-15 0 -24 -9 -10 -8 -20 -15 -23 -14 -11 3 -53 -33 -47 -40 4 -3 14 2 22 13
14 18 17 16 19 -15 2 -25 20 -22 54 9 19 17 38 27 44 24 7 -4 5 -10 -6 -16 -9
-5 -16 -16 -16 -24 0 -8 -4 -13 -9 -10 -5 3 -14 -1 -21 -9 -14 -17 -61 -20
-57 -4 1 6 -4 14 -10 16 -26 9 -12 -18 17 -35 30 -17 39 -32 20 -32 -5 0 -10
-10 -10 -22 0 -17 17 -5 88 63 48 47 122 109 164 138 43 29 76 57 73 61 -7 12
-45 0 -42 -13 1 -6 -20 -25 -46 -43 -27 -17 -59 -41 -71 -53 l-23 -22 -1 32
c-1 26 2 30 19 26 12 -3 19 0 19 9 0 8 10 14 24 14 29 0 50 24 43 49 -3 11 0
22 7 25 8 3 8 5 -1 5 -6 1 -14 -3 -18 -9 -3 -5 -12 -7 -20 -4 -8 4 -12 10 -9
15 3 5 0 9 -6 9 -6 0 -8 5 -5 10 11 17 -1 11 -23 -13z m-32 -136 c2 -1 -1 -6
-7 -12 -6 -6 -9 -18 -6 -25 3 -8 0 -14 -7 -14 -7 0 -10 8 -7 20 3 13 0 20 -9
20 -8 0 -14 4 -14 10 0 5 10 8 23 6 12 -3 24 -5 27 -5z"/>
<path d="M2415 2971 c2 -9 4 -18 4 -21 1 -3 5 0 9 7 5 8 12 9 22 2 12 -7 11
-10 -7 -15 -23 -6 -31 -28 -14 -38 4 -3 12 -20 16 -38 6 -29 8 -31 15 -13 7
17 9 17 9 3 1 -11 9 -18 22 -18 14 0 19 -5 16 -15 -5 -11 -2 -12 17 -3 19 8
24 17 22 48 -1 30 -4 36 -14 28 -7 -6 -10 -19 -7 -29 7 -21 -10 -25 -35 -9
-13 8 -12 10 3 10 9 0 17 5 17 10 0 12 -48 32 -60 25 -4 -3 -11 2 -14 11 -4
11 -2 15 8 11 8 -3 17 1 20 10 5 11 14 13 34 8 40 -10 24 0 -34 23 -46 17 -51
17 -49 3z"/>
<path d="M2013 2920 c-29 -138 -34 -152 -47 -134 -11 15 -12 13 -8 -14 4 -28
1 -32 -19 -33 -13 0 -18 -3 -11 -6 7 -2 17 -13 23 -24 9 -18 7 -19 -30 -17
-23 2 -41 6 -41 11 0 4 4 7 8 7 4 0 14 17 22 37 11 32 14 35 20 19 5 -16 7
-17 12 -4 4 9 1 21 -5 27 -9 9 -8 14 3 21 13 8 13 10 -1 10 -23 0 -36 -19 -44
-62 -8 -40 -15 -44 -45 -28 -15 8 -18 18 -14 48 l4 37 -20 -40 c-11 -22 -20
-51 -20 -65 0 -20 -2 -22 -10 -10 -8 12 -10 11 -10 -7 0 -31 24 -29 49 5 13
18 20 22 21 12 0 -9 -5 -21 -10 -26 -7 -7 17 -11 74 -11 46 0 90 -4 97 -8 14
-9 5 10 -18 37 -13 14 -11 30 12 122 15 58 25 116 23 128 -3 15 -8 3 -15 -32z"/>
<path d="M2175 2935 c15 -19 34 -35 41 -35 8 0 14 -8 13 -17 0 -11 -3 -13 -6
-6 -3 10 -8 10 -18 -1 -12 -12 -11 -19 5 -51 10 -20 16 -43 14 -50 -3 -7 -1
-16 5 -20 6 -3 12 0 12 7 1 7 3 31 5 52 2 22 8 43 15 46 8 6 7 9 -2 13 -11 4
-10 6 2 6 12 1 16 -13 17 -74 3 -65 1 -75 -14 -75 -10 0 -26 7 -36 17 -20 18
-25 17 -30 -12 -2 -16 3 -21 29 -23 48 -5 73 13 73 51 0 18 5 39 10 47 7 11 9
-1 5 -40 -3 -37 -2 -48 4 -34 10 23 47 38 57 23 3 -5 1 -9 -4 -9 -6 0 -13 -7
-16 -16 -12 -31 2 -25 24 10 l22 36 -22 30 c-26 37 -39 40 -15 4 13 -21 14
-28 4 -34 -17 -11 -39 -1 -39 17 0 8 5 11 10 8 6 -3 10 -1 10 4 0 6 -7 11 -15
11 -14 0 -35 28 -32 42 1 3 -33 29 -76 57 l-78 52 26 -36z"/>
<path d="M2395 2918 c5 -26 4 -30 -5 -18 -8 10 -10 11 -8 2 2 -8 8 -13 13 -13
6 0 15 -10 21 -21 11 -20 12 -20 12 5 0 15 -4 27 -9 27 -5 0 -9 11 -9 25 0 14
-5 25 -11 25 -7 0 -8 -12 -4 -32z"/>
<path d="M400 2892 c0 -7 -11 -12 -24 -12 -21 0 -61 -30 -40 -30 5 0 2 -5 -6
-10 -13 -8 -12 -10 3 -10 15 0 22 11 18 33 0 4 6 7 14 7 8 0 13 -6 11 -12 -1
-7 -1 -10 1 -6 2 4 10 6 16 4 7 -1 8 -1 4 2 -4 2 -3 10 4 18 7 8 9 17 5 21 -3
3 -6 1 -6 -5z"/>
<path d="M420 2875 c0 -8 6 -15 13 -15 12 0 46 19 37 21 -3 0 -15 2 -27 5 -16
3 -23 -1 -23 -11z"/>
<path d="M887 2883 c-11 -10 -8 -61 3 -68 6 -4 10 10 10 34 0 42 -2 46 -13 34z"/>
<path d="M2594 2862 c2 -21 0 -29 -8 -25 -6 3 -5 0 2 -8 11 -12 14 -12 21 0 5
8 14 10 22 6 8 -5 3 5 -11 21 -14 16 -26 31 -27 33 -2 2 -1 -10 1 -27z"/>
<path d="M2763 2857 c-10 -13 -25 -21 -33 -19 -12 4 -13 3 -2 -10 10 -13 10
-17 -1 -21 -15 -5 -77 -150 -77 -177 0 -8 5 -22 11 -30 8 -12 10 -9 6 12 -2
15 -1 25 3 23 4 -2 12 19 19 48 10 47 44 115 87 175 22 29 11 29 -13 -1z"/>
<path d="M1759 2835 c-3 -59 -1 -146 3 -150 3 -3 6 33 7 80 1 47 -1 85 -4 85
-3 0 -5 -7 -6 -15z"/>
<path d="M1075 2791 c5 -24 3 -31 -7 -29 -7 2 -13 -4 -13 -12 0 -9 11 -16 25
-18 18 -2 21 0 11 6 -8 6 -10 12 -3 16 15 9 10 58 -7 64 -10 3 -11 -3 -6 -27z"/>
<path d="M1155 2811 c-4 -7 -2 -18 4 -24 15 -15 14 -49 -4 -73 -27 -39 10 -47
38 -9 17 24 17 26 -6 71 -16 31 -27 43 -32 35z"/>
<path d="M1790 2796 c-5 -15 -10 -39 -9 -54 0 -19 4 -12 14 23 14 55 12 74 -5
31z"/>
<path d="M2570 2791 c0 -6 5 -11 11 -11 8 0 7 -5 -1 -15 -11 -13 -10 -14 6 -8
17 6 17 5 5 -10 -7 -9 -10 -17 -6 -17 13 0 34 34 35 55 0 16 -2 17 -9 6 -8
-12 -12 -12 -25 -2 -11 9 -16 10 -16 2z"/>
<path d="M1110 2746 c3 -22 11 -41 19 -44 14 -5 13 21 -5 63 -7 18 -6 18 9 6
15 -12 17 -11 17 3 0 10 -8 15 -23 14 -21 -2 -22 -6 -17 -42z"/>
<path d="M2426 2739 c-13 -16 -20 -18 -26 -10 -5 9 -9 9 -13 -3 -4 -10 -1 -16
9 -16 8 0 17 -13 21 -30 3 -17 10 -33 14 -36 5 -3 7 -9 4 -14 -3 -4 1 -12 8
-18 9 -8 12 -2 13 24 0 19 -4 34 -10 34 -6 0 -5 5 2 12 7 7 11 21 11 33 -1 16
-2 17 -6 3 -5 -19 -23 -25 -23 -7 0 6 5 19 10 30 14 25 9 24 -14 -2z"/>
<path d="M2722 2734 c-24 -60 -42 -152 -46 -234 -4 -71 -3 -76 3 -30 16 104
32 181 47 226 17 51 14 83 -4 38z"/>
<path d="M2620 2737 c0 -7 9 -20 19 -29 18 -15 19 -15 25 5 3 12 3 23 1 26 -3
2 -5 -1 -5 -7 0 -7 -4 -12 -10 -12 -5 0 -10 7 -10 15 0 8 -4 15 -10 15 -5 0
-10 -6 -10 -13z"/>
<path d="M859 2718 c11 -15 11 -18 -2 -18 -20 0 -36 -27 -30 -49 5 -21 40 -44
54 -35 16 10 4 84 -17 102 -17 16 -17 16 -5 0z"/>
<path d="M1290 2712 c0 -12 -5 -24 -12 -28 -7 -5 -8 -3 -3 6 5 8 -6 4 -23 -8
-17 -13 -34 -27 -37 -32 -4 -6 -11 -10 -17 -10 -6 0 -1 11 11 24 13 14 21 31
19 38 -3 8 -9 4 -18 -12 -7 -14 -20 -30 -28 -36 -13 -9 -5 -15 42 -33 68 -25
82 -26 90 -5 11 30 6 91 -9 104 -13 10 -15 9 -15 -8z m-7 -59 c-3 -7 -19 -13
-35 -13 -23 0 -28 3 -20 13 6 6 21 12 35 12 15 0 23 -5 20 -12z"/>
<path d="M1670 2683 c0 -27 5 -55 10 -63 5 -8 10 -11 10 -6 0 6 6 2 13 -8 12
-17 16 -17 43 -3 l29 15 -42 11 c-44 12 -59 33 -43 59 9 16 9 16 10 0 0 -21
34 -44 75 -53 l30 -6 -25 18 c-14 10 -41 33 -61 51 -20 17 -39 32 -43 32 -3 0
-6 -21 -6 -47z"/>
<path d="M2600 2717 c0 -4 8 -20 19 -37 13 -23 20 -27 24 -17 3 8 -5 25 -19
38 -13 12 -24 20 -24 16z"/>
<path d="M1051 2687 c-11 -17 -9 -18 25 -15 46 4 56 24 16 30 -21 3 -33 -1
-41 -15z"/>
<path d="M2177 2703 c-12 -12 -7 -22 8 -17 18 7 20 -7 3 -24 -9 -9 -9 -12 -1
-12 7 0 14 4 18 10 8 13 35 1 35 -16 0 -19 24 -18 40 2 11 13 10 19 -8 36 -18
19 -23 20 -38 8 -14 -12 -18 -12 -29 3 -13 19 -18 20 -28 10z"/>
<path d="M2296 2685 c13 -12 20 -25 16 -29 -4 -4 -2 -6 3 -4 14 4 49 -22 69
-53 l17 -26 -62 -12 c-43 -9 -58 -15 -48 -21 7 -5 16 -6 19 -2 5 8 17 11 68
19 28 5 32 3 26 -13 -4 -14 -1 -13 15 6 15 18 21 21 21 9 0 -9 -3 -19 -7 -23
-4 -4 -8 -13 -8 -19 0 -7 -4 -31 -9 -55 -7 -37 -10 -41 -24 -30 -13 12 -14 10
-3 -9 10 -21 8 -27 -10 -25 -3 1 -6 -6 -6 -14 0 -7 6 -14 14 -14 20 0 16 -14
-14 -46 -16 -16 -44 -50 -63 -76 -19 -25 -47 -54 -62 -65 -26 -17 -43 -41 -35
-49 2 -2 20 13 40 32 20 20 40 33 46 30 5 -3 26 1 46 10 42 17 68 6 47 -19 -7
-8 -8 -18 -4 -22 4 -5 2 -5 -5 -1 -18 10 -104 -35 -93 -49 6 -7 7 -15 3 -18
-12 -12 -23 -7 -23 10 0 16 -1 16 -17 0 -15 -15 -16 -19 -4 -26 8 -5 20 -7 28
-4 17 7 17 -8 0 -31 -13 -18 -15 -17 -37 14 l-24 33 26 21 c13 12 38 31 54 44
l29 22 -41 -19 c-38 -19 -74 -57 -74 -81 0 -5 9 -20 20 -32 10 -13 26 -32 34
-43 14 -18 15 -18 16 -2 0 27 18 20 36 -15 13 -25 14 -38 5 -68 -14 -48 -14
-51 4 -44 8 4 15 15 15 25 0 12 7 19 19 19 13 0 18 6 16 23 -4 39 -7 42 -15
17 l-8 -25 -1 26 c-1 15 -7 32 -15 38 -26 22 -26 50 1 71 14 11 32 20 40 20 8
0 35 14 60 30 24 17 49 30 54 30 6 0 7 5 3 12 -4 6 1 17 10 24 12 8 14 14 6
19 -6 4 -18 -1 -25 -11 -30 -43 -55 -65 -64 -59 -17 10 -13 38 4 31 8 -3 15
-1 15 5 0 6 3 8 8 5 4 -2 25 17 47 44 65 79 88 77 103 -8 l11 -57 -5 55 c-12
136 -24 190 -43 190 -5 0 -2 -19 6 -41 7 -23 12 -49 10 -58 -1 -9 -11 9 -21
39 -10 30 -25 66 -34 80 l-15 25 23 -20 c61 -53 -82 146 -149 207 -34 30 -61
59 -61 64 0 5 -11 10 -24 10 l-25 2 25 -23z m190 -200 c9 -18 9 -25 0 -30 -8
-3 -7 -7 2 -11 6 -3 12 -12 12 -20 0 -8 7 -17 15 -20 17 -7 21 -34 5 -34 -5 0
-10 -6 -10 -14 0 -7 -12 -22 -27 -32 -16 -9 -42 -33 -60 -52 -30 -32 -35 -34
-65 -26 l-33 10 58 43 c61 44 62 49 41 106 -6 15 -4 16 13 7 11 -6 26 -18 33
-27 11 -13 10 -19 -5 -35 -15 -17 -16 -20 -3 -20 9 0 23 11 31 24 15 22 14 25
-7 45 -12 12 -26 18 -29 14 -4 -3 -7 4 -7 16 0 12 6 24 14 27 8 3 12 12 9 21
-4 11 -8 12 -13 2 -5 -7 -7 -2 -7 13 2 30 18 27 33 -7z m38 -194 c3 -4 -6 -13
-19 -19 -16 -7 -23 -17 -19 -27 7 -18 -7 -20 -26 -2 -13 10 -13 10 -2 -2 19
-23 14 -33 -10 -26 -18 5 -20 4 -8 -4 12 -8 12 -13 2 -23 -9 -9 -15 -9 -23 -1
-18 18 0 52 43 84 43 31 54 34 62 20z m-164 -179 c0 -9 -60 -36 -66 -29 -3 3
7 12 23 21 32 17 43 19 43 8z"/>
<path d="M2598 2634 c42 -50 42 -51 43 -135 l2 -84 8 65 c13 91 5 118 -49 165
l-46 40 42 -51z"/>
<path d="M1863 2641 c-99 -34 -199 -128 -245 -229 -28 -62 -18 -89 11 -32 32
62 84 139 95 140 4 0 5 -7 2 -16 -3 -9 -2 -12 5 -9 5 4 7 14 4 24 -4 13 9 24
52 45 32 16 53 31 46 33 -6 2 -25 -3 -42 -12 -17 -8 -31 -13 -31 -10 0 2 17
14 39 24 43 22 90 28 137 17 24 -5 33 -3 38 9 5 14 1 16 -24 10 -32 -7 -44 10
-12 18 14 4 14 5 -3 6 -11 0 -43 -8 -72 -18z"/>
<path d="M2129 2631 c-31 -32 -37 -62 -15 -80 11 -9 13 -6 10 18 -2 17 2 33 8
37 7 4 8 3 4 -4 -4 -7 -3 -12 3 -12 5 0 13 5 16 10 4 6 16 10 27 8 31 -4 33
19 3 26 -14 4 -23 11 -20 16 12 20 -7 9 -36 -19z"/>
<path d="M732 2639 c2 -9 -7 -12 -29 -10 -45 4 -40 -29 4 -35 17 -3 46 43 33
51 -6 4 -9 1 -8 -6z"/>
<path d="M2463 2638 c-2 -5 -1 -8 4 -7 26 5 33 -4 33 -41 0 -24 -5 -40 -12
-40 -6 0 -8 -3 -5 -6 12 -13 38 19 33 40 -3 11 2 28 11 39 16 17 16 17 0 11
-9 -3 -17 -1 -17 4 0 12 -39 12 -47 0z"/>
<path d="M1353 2607 c-24 -12 -43 -26 -43 -31 0 -5 6 -4 13 1 17 13 59 14 51
2 -15 -24 -49 -27 -84 -6 l-35 20 24 -26 c13 -15 32 -29 42 -32 10 -4 18 -9
16 -13 -1 -5 32 -68 49 -91 7 -9 74 54 74 70 0 25 -12 24 -41 -2 l-24 -20 28
17 c37 22 34 13 -4 -15 -18 -13 -29 -19 -25 -13 3 6 0 12 -6 15 -10 3 -10 10
1 28 13 21 12 23 -1 12 -8 -7 -18 -10 -21 -6 -13 12 -7 21 18 27 21 5 25 12
25 46 0 46 0 46 -57 17z"/>
<path d="M768 2572 c-26 -5 -29 -29 -5 -36 26 -6 30 -3 25 21 -2 11 -10 17
-20 15z"/>
<path d="M800 2568 c0 -7 7 -22 15 -32 12 -16 15 -17 15 -4 0 24 -11 48 -21
48 -5 0 -9 -6 -9 -12z"/>
<path d="M1596 2545 c7 -19 14 -41 14 -50 0 -19 -30 -19 -56 0 -39 29 -48 5
-14 -38 11 -14 20 -33 20 -44 0 -15 2 -16 10 -3 6 9 10 10 10 3 0 -7 -8 -17
-17 -22 -16 -9 -16 -12 -3 -21 27 -18 33 -11 27 34 -5 36 -3 47 14 62 12 11
27 31 35 46 13 25 12 28 -15 47 -39 28 -42 27 -25 -14z"/>
<path d="M379 2554 c-12 -15 -12 -16 0 -9 11 6 13 4 8 -8 -4 -11 -2 -14 9 -10
10 4 17 -2 21 -16 5 -21 33 -30 33 -11 0 6 -4 10 -10 10 -5 0 -10 7 -10 16 0
8 -5 12 -10 9 -6 -3 -14 3 -18 15 -8 21 -9 21 -23 4z"/>
<path d="M2584 2558 c-4 -6 -3 -8 3 -5 6 4 17 -1 24 -10 12 -15 12 -16 -3 -10
-18 6 -24 -3 -11 -17 13 -13 12 -44 -2 -56 -12 -10 -15 -9 -15 4 0 9 -5 16
-10 16 -7 0 -7 -6 -2 -17 5 -10 7 -24 4 -32 -3 -10 2 -11 19 -6 22 6 23 6 6
-7 -17 -12 -17 -16 -2 -51 8 -20 22 -67 31 -105 8 -37 22 -89 31 -115 10 -29
13 -64 10 -90 l-6 -42 18 24 c21 28 21 55 -2 98 -9 17 -21 64 -27 105 -6 40
-15 95 -21 121 -13 57 -15 100 -6 147 6 29 3 37 -13 47 -14 9 -21 10 -26 1z"/>
<path d="M2520 2485 c42 -63 44 -65 35 -35 -4 14 -21 39 -37 55 l-31 30 33
-50z"/>
<path d="M446 2488 c-27 -28 -30 -29 -37 -12 -7 18 -7 18 -14 0 -7 -16 7 -35
25 -36 7 0 63 71 58 75 -1 1 -16 -11 -32 -27z"/>
<path d="M2355 2509 c-38 -6 -38 -6 -7 -8 18 0 32 -6 32 -13 0 -7 5 -5 11 5
14 23 12 24 -36 16z"/>
<path d="M380 2424 c0 -11 5 -14 16 -10 15 6 15 4 0 -19 -9 -14 -12 -25 -7
-25 19 0 34 40 20 56 -15 19 -29 18 -29 -2z"/>
<path d="M510 2387 c0 -18 35 -67 49 -67 11 0 11 3 -2 18 -13 15 -14 21 -4 32
10 12 9 12 -5 1 -14 -10 -18 -9 -27 6 -6 10 -11 14 -11 10z"/>
<path d="M1516 2355 c-8 -23 -8 -25 7 -25 6 0 22 -8 35 -18 20 -16 21 -19 7
-39 -10 -14 -22 -19 -35 -16 -18 5 -20 0 -20 -49 0 -55 0 -55 27 -50 26 5 26
6 6 13 -16 6 -21 16 -21 38 2 55 15 39 66 -79 l11 -25 0 27 c1 15 -8 42 -19
60 -25 41 -25 56 0 83 l20 21 -39 38 c-32 31 -39 35 -45 21z"/>
<path d="M1440 2339 c-14 -4 -21 -7 -16 -8 5 -1 1 -10 -9 -21 -15 -16 -16 -22
-5 -35 11 -14 16 -10 37 26 13 23 22 43 21 44 -2 1 -14 -2 -28 -6z"/>
<path d="M1480 2065 c-4 -236 2 -542 9 -445 7 103 9 538 3 620 -7 79 -9 49
-12 -175z"/>
<path d="M2716 2205 c-21 -33 -11 -53 15 -29 20 18 25 39 10 48 -5 3 -16 -6
-25 -19z"/>
<path d="M2743 2172 c-27 -31 -34 -34 -43 -22 -5 8 -10 10 -10 4 0 -6 7 -17
15 -24 12 -10 20 -7 45 20 16 18 30 38 30 46 0 18 1 18 -37 -24z"/>
<path d="M2186 2135 c-6 -34 5 -95 16 -95 3 0 -1 78 -5 115 -2 11 -6 2 -11
-20z"/>
<path d="M125 2144 c4 -10 16 -41 27 -69 37 -97 192 -432 266 -575 245 -477
462 -796 679 -1001 85 -79 265 -210 348 -252 133 -68 154 -77 176 -76 20 1 21
2 5 6 -11 3 -25 10 -32 17 -35 30 -49 41 -51 39 -8 -8 -23 -2 -18 7 3 6 -1 10
-9 10 -9 0 -16 7 -16 16 0 12 7 15 28 10 15 -3 21 -3 13 1 -8 3 5 15 35 32 86
48 99 56 107 69 5 8 17 10 29 6 14 -4 18 -3 13 5 -4 7 13 29 41 54 48 43 203
197 198 197 -2 0 7 11 19 24 29 31 38 43 99 124 28 37 62 80 76 97 13 16 29
42 34 57 6 16 15 28 21 28 7 1 19 15 28 33 8 18 36 70 60 117 73 139 221 469
234 523 4 15 12 27 19 27 6 0 11 12 10 28 -2 46 64 212 117 290 22 33 24 40
10 33 -25 -14 -89 -141 -149 -296 -56 -147 -223 -502 -302 -645 -101 -182
-262 -403 -366 -501 -119 -112 -345 -279 -378 -279 -20 0 -209 133 -303 213
-48 41 -113 105 -143 141 -30 36 -59 66 -63 66 -5 0 -5 6 -1 13 4 6 4 9 -1 5
-11 -10 -48 39 -39 53 4 7 3 9 -4 5 -5 -3 -20 6 -32 21 l-21 28 20 -40 c10
-23 38 -60 60 -83 23 -23 41 -45 42 -50 1 -8 79 -96 79 -89 0 3 22 -16 48 -41
27 -26 68 -64 91 -84 23 -21 39 -38 34 -38 -5 0 -20 10 -33 22 -14 13 -37 30
-52 38 -15 8 -40 27 -57 42 -16 14 -32 24 -35 21 -3 -4 -6 1 -6 9 0 9 -8 22
-17 29 -16 12 -17 12 -8 -1 12 -19 -12 8 -63 70 -20 25 -36 49 -34 55 2 5 0 7
-4 3 -6 -7 -160 188 -158 201 0 3 -6 12 -13 20 -11 10 -11 16 -2 27 10 12 9
13 -6 8 -15 -6 -17 -3 -12 17 5 20 4 21 -6 7 -9 -14 -18 -4 -60 65 -27 45 -53
93 -58 106 -5 13 -19 37 -30 53 -28 38 -61 101 -160 295 -68 137 -80 165 -69
178 11 13 10 14 -2 10 -10 -4 -23 10 -41 46 -15 28 -25 54 -22 59 3 4 -1 10
-8 13 -23 9 -139 270 -139 315 0 12 -4 22 -8 22 -5 0 -16 3 -26 7 -14 5 -16 3
-9 -13z"/>
<path d="M2781 2132 c-36 -25 -81 -72 -67 -72 3 0 20 14 38 30 18 17 43 30 55
30 13 0 23 2 23 4 0 2 3 11 6 20 9 23 -8 20 -55 -12z"/>
<path d="M2594 2094 c-4 -32 -22 -110 -42 -173 -19 -64 -34 -126 -34 -138 0
-14 -4 -20 -11 -16 -6 4 -8 0 -4 -10 3 -9 3 -17 -1 -19 -15 -6 -49 -75 -73
-146 -13 -41 -32 -82 -41 -92 -9 -10 -14 -20 -11 -23 2 -3 0 -14 -7 -24 -10
-15 -11 -16 -6 -1 3 10 1 20 -4 23 -5 3 -11 -4 -14 -17 -2 -13 -9 -43 -15 -68
-10 -43 -10 -43 -8 -7 2 20 -1 37 -6 37 -5 0 -7 -23 -5 -50 3 -28 3 -48 -1
-45 -3 3 -11 -11 -18 -32 -11 -36 -12 -35 -7 28 5 53 3 69 -11 82 -9 9 -12 17
-6 17 6 0 11 7 11 16 0 14 -2 14 -15 1 -13 -14 -13 -20 0 -57 18 -52 18 -51 0
-44 -12 5 -13 -5 -8 -61 5 -60 4 -67 -16 -82 -12 -8 -27 -25 -32 -37 -6 -11
-19 -37 -29 -56 -27 -51 -24 -61 5 -17 14 20 28 37 31 37 2 0 -8 -18 -22 -40
-15 -22 -25 -43 -22 -46 8 -7 49 68 187 341 121 240 201 425 201 465 0 12 4
19 9 16 5 -4 7 3 4 13 -3 11 0 35 6 53 12 37 34 218 27 225 -2 3 -8 -21 -12
-53z"/>
<path d="M1258 2115 c-3 -6 -9 -23 -13 -40 -7 -27 -8 -28 -16 -10 -7 15 -8 11
-4 -15 3 -19 12 -41 19 -49 12 -11 15 -5 21 42 7 55 4 90 -7 72z"/>
<path d="M1398 2083 c-32 -34 -71 -110 -63 -123 3 -5 -3 -27 -14 -48 -11 -22
-17 -42 -14 -46 3 -3 0 -12 -6 -20 -7 -8 -10 -20 -6 -25 3 -7 0 -8 -9 -5 -11
4 -18 -6 -27 -35 -7 -25 -18 -41 -28 -41 -12 0 -12 -3 -3 -12 16 -16 41 -1 62
38 11 19 26 30 43 32 22 3 27 8 27 33 0 17 5 29 13 29 9 0 14 20 15 66 2 52 9
75 31 111 26 42 31 73 12 73 -4 0 -19 -12 -33 -27z m-68 -237 l-22 -21 13 25
c7 14 12 26 11 28 -1 1 -2 8 -2 15 0 6 5 4 11 -7 9 -15 7 -22 -11 -40z"/>
<path d="M2504 2088 c-10 -13 -12 -17 -4 -10 8 6 17 12 21 12 4 0 6 -42 5 -92
-1 -80 -5 -102 -30 -155 -16 -35 -35 -63 -42 -63 -7 0 -11 -6 -8 -13 5 -14
-31 -67 -47 -67 -5 0 -9 8 -9 18 0 14 -2 15 -9 2 -6 -8 -7 -18 -5 -22 3 -4 -7
-19 -23 -33 -15 -13 -22 -25 -15 -25 18 0 15 -28 -5 -39 -13 -7 -15 -13 -7
-21 17 -18 96 71 143 160 42 81 97 260 79 260 -15 0 -2 92 15 102 7 5 3 8 -14
8 -15 0 -34 -10 -45 -22z m-81 -408 c-8 -17 -19 -28 -24 -24 -11 6 5 40 23 47
7 3 14 6 15 6 1 1 -5 -13 -14 -29z"/>
<path d="M1560 2094 c0 -3 11 -19 25 -35 28 -35 41 -89 27 -116 -6 -10 -13
-48 -16 -83 -6 -64 -3 -70 8 -18 3 15 15 29 26 33 16 5 17 9 8 24 -6 11 -8 26
-3 37 4 11 9 38 10 61 3 39 0 45 -35 73 -37 30 -50 36 -50 24z"/>
<path d="M1693 2035 c0 -33 2 -45 4 -27 2 18 2 45 0 60 -2 15 -4 0 -4 -33z"/>
<path d="M1763 2022 c-15 -47 -9 -53 12 -12 9 18 13 36 8 41 -4 4 -14 -8 -20
-29z"/>
<path d="M2459 2018 c0 -31 -3 -38 -8 -23 -6 14 -9 2 -13 -40 -4 -38 -15 -76
-32 -105 -26 -45 -26 -45 -27 -15 -1 17 -1 38 0 48 2 10 -5 17 -14 17 -12 0
-15 -6 -10 -21 9 -28 -5 -165 -15 -149 -10 16 -30 -19 -30 -52 l0 -23 20 25
c33 41 89 144 107 196 9 27 18 44 20 38 2 -7 -5 -35 -16 -63 -10 -28 -15 -51
-10 -51 9 0 39 93 39 122 0 10 5 17 11 16 6 -2 14 4 16 12 4 12 3 12 -5 1 -20
-28 -21 8 -2 57 l20 52 -25 0 c-23 0 -25 -4 -26 -42z"/>
<path d="M1519 1920 c-2 -41 -4 -88 -6 -105 -9 -92 -14 -785 -5 -785 7 0 11
99 11 283 0 155 3 323 6 372 3 50 7 126 10 170 2 44 1 94 -4 110 -8 25 -10 17
-12 -45z"/>
<path d="M617 1951 c-4 -18 -7 -45 -6 -60 1 -17 4 -11 10 19 5 25 8 52 6 60
-2 8 -6 0 -10 -19z"/>
<path d="M2254 1972 c2 -4 -3 -33 -11 -66 -14 -56 -14 -59 7 -81 19 -21 21
-30 16 -104 -5 -69 -11 -88 -35 -122 l-30 -40 -4 28 -4 28 -2 -27 c-1 -27 -31
-68 -49 -68 -18 0 -92 -61 -92 -75 0 -8 2 -15 5 -15 13 0 115 82 178 143 66
63 68 68 60 99 -4 18 -8 66 -8 106 0 40 -1 68 -3 62 -6 -16 -22 -12 -22 6 0 8
-4 12 -10 9 -5 -3 -10 -1 -10 4 0 6 4 11 10 11 5 0 6 7 3 17 -5 11 -3 14 6 8
10 -6 11 -2 6 15 -5 15 -4 20 4 16 6 -4 11 0 11 11 0 15 2 16 11 3 9 -12 10
-12 5 3 -3 10 -6 22 -6 26 0 4 -9 7 -20 8 -11 1 -18 -1 -16 -5z"/>
<path d="M671 1960 c0 -8 4 -24 8 -35 7 -19 8 -18 21 5 7 14 9 22 5 18 -4 -4
-14 0 -21 10 -11 14 -13 14 -13 2z"/>
<path d="M650 1939 c0 -8 -5 -51 -10 -95 -6 -49 -7 -91 -1 -105 6 -18 10 6 16
89 4 62 4 116 1 119 -3 4 -6 0 -6 -8z"/>
<path d="M1026 1874 c4 -10 13 -28 21 -39 13 -19 13 -19 13 1 0 12 -9 29 -20
39 -20 18 -21 18 -14 -1z"/>
<path d="M1255 1844 c-20 -27 -25 -41 -19 -55 8 -16 12 -10 31 36 11 30 20 55
18 55 -1 0 -15 -16 -30 -36z"/>
<path d="M1630 1855 c-10 -13 -9 -15 9 -15 24 0 39 -43 22 -64 -16 -19 -6 -39
28 -59 37 -21 36 -22 39 7 1 19 -3 24 -24 24 -14 0 -31 5 -37 12 -10 10 -6 11
16 6 22 -5 27 -3 27 12 0 9 -7 28 -16 40 -8 12 -12 27 -8 34 4 6 3 8 -4 4 -6
-3 -13 -2 -17 4 -9 14 -20 12 -35 -5z"/>
<path d="M1914 1705 c0 -66 1 -92 3 -57 2 34 2 88 0 120 -2 31 -3 3 -3 -63z"/>
<path d="M1363 1729 c-7 -39 -8 -81 -4 -93 6 -15 10 -1 15 49 4 39 10 80 13
93 3 12 1 22 -4 22 -5 0 -14 -32 -20 -71z"/>
<path d="M1884 1601 c4 -250 0 -272 -67 -314 -33 -22 -48 -55 -52 -120 -2 -40
0 -46 11 -36 8 7 17 9 20 6 4 -3 17 15 31 41 14 26 36 59 50 73 18 20 21 29
12 34 -15 10 -71 -54 -64 -72 3 -8 -4 -13 -15 -13 -11 0 -20 4 -20 8 0 19 62
93 85 102 l25 10 -1 217 c0 120 -4 227 -9 238 -6 12 -8 -55 -6 -174z"/>
<path d="M1277 1734 c-28 -33 -28 -34 -8 -34 25 0 75 45 66 60 -11 18 -29 9
-58 -26z"/>
<path d="M1222 1605 c0 -55 2 -115 5 -133 5 -33 6 -33 17 -10 7 13 9 29 4 38
-5 8 -12 58 -17 110 l-9 95 0 -100z"/>
<path d="M2061 1649 c-6 -18 -11 -44 -10 -58 0 -16 6 -4 14 29 15 62 13 77 -4
29z"/>
<path d="M1298 1615 c-4 -27 -10 -61 -14 -75 -5 -18 -4 -22 4 -15 15 14 45 88
33 81 -5 -4 -11 8 -13 26 -3 29 -4 26 -10 -17z"/>
<path d="M2293 1601 c-10 -15 -10 -21 0 -24 8 -3 6 -10 -7 -23 -18 -18 -19
-18 -12 -1 4 13 2 17 -6 15 -7 -3 -13 -11 -13 -19 -1 -8 -6 -13 -13 -11 -15 3
-16 -14 -2 -23 6 -4 7 -11 4 -17 -4 -7 -10 -5 -16 6 -11 19 -29 22 -25 4 1 -8
-6 -12 -18 -10 -18 2 -18 2 -2 -8 25 -16 21 -29 -8 -26 -13 2 -22 0 -20 -4 2
-4 -7 -13 -20 -20 -14 -7 -25 -19 -25 -27 0 -15 -16 -17 -25 -3 -9 15 -25 2
-25 -21 0 -11 -4 -17 -10 -14 -5 3 -10 1 -10 -5 0 -7 -7 -9 -15 -6 -21 8 -55
-14 -55 -35 0 -9 -11 -24 -25 -33 -37 -24 -44 -18 -10 9 17 14 25 25 19 25
-18 0 -44 -24 -49 -45 -25 -105 -44 -206 -45 -232 0 -33 -8 -41 -25 -24 -6 6
-15 4 -22 -3 -13 -15 4 -59 22 -58 17 1 18 22 1 22 -9 0 -16 7 -16 15 0 20 2
20 49 -17 22 -18 54 -43 71 -56 16 -13 34 -38 39 -55 10 -32 10 -32 8 10 0 23
-3 41 -6 41 -20 -2 -31 3 -26 12 3 6 -1 10 -9 10 -9 0 -16 5 -16 12 0 6 -3 9
-6 5 -4 -3 -14 1 -23 10 -13 14 -16 35 -14 113 3 121 19 168 65 195 20 11 46
28 59 38 22 16 22 17 2 7 -12 -5 -25 -10 -29 -10 -13 0 30 29 44 30 7 0 40 18
72 40 61 41 76 48 64 28 -4 -7 -3 -8 5 -4 6 4 9 11 6 16 -3 5 7 16 22 24 15 8
51 34 79 58 46 40 50 46 38 63 -10 14 -11 22 -3 32 6 7 7 13 3 13 -5 0 -15 -9
-21 -19z"/>
<path d="M1277 1481 c-25 -38 -27 -47 -27 -156 0 -63 3 -115 8 -115 4 0 8 42
8 93 0 100 7 136 30 173 9 13 14 29 12 35 -2 6 -16 -7 -31 -30z"/>
<path d="M2021 1441 c-8 -10 -34 -29 -58 -41 -41 -20 -62 -44 -51 -56 3 -3 33
12 67 33 45 28 61 44 61 61 0 27 -2 27 -19 3z"/>
<path d="M747 1406 c-4 -27 -6 -79 -6 -115 2 -64 2 -63 10 29 10 106 7 162 -4
86z"/>
<path d="M1694 1250 c0 -80 2 -112 3 -72 2 39 2 105 0 145 -1 39 -3 7 -3 -73z"/>
<path d="M1477 1074 l4 -111 -51 -69 c-29 -38 -64 -78 -77 -90 -22 -17 -24
-23 -14 -42 6 -12 15 -22 19 -22 24 -1 54 -44 62 -87 l8 -48 1 62 c1 67 -11
88 -55 99 -26 7 -33 24 -10 24 8 0 31 23 51 50 20 28 40 50 44 50 4 0 8 6 8
13 1 6 7 26 14 43 9 23 10 54 1 135 l-10 104 5 -111z"/>
<path d="M1251 1099 c0 -20 6 -52 15 -70 l15 -34 -7 35 c-3 19 -10 51 -14 70
l-8 35 -1 -36z"/>
<path d="M2135 1058 c-4 -10 -5 -25 -1 -33 8 -22 -4 -45 -23 -45 -10 0 -12 3
-5 8 9 5 8 11 -2 20 -12 11 -14 3 -14 -48 0 -33 -4 -60 -9 -60 -5 0 -8 8 -6
18 1 9 0 11 -2 4 -3 -7 -9 -10 -14 -7 -13 9 -11 -9 3 -23 9 -9 9 -12 1 -12 -7
0 -15 -10 -19 -22 -4 -13 -15 -33 -25 -46 l-18 -23 -4 28 c-4 25 -4 25 -6 -7
-2 -19 -4 -43 -6 -53 -6 -30 11 -10 88 106 102 154 101 151 83 184 -12 24 -15
26 -21 11z"/>
<path d="M1698 912 c2 -81 6 -149 8 -151 3 -3 4 61 3 142 0 81 -4 149 -8 151
-3 3 -5 -62 -3 -142z"/>
<path d="M1495 928 c-4 -23 -19 -60 -33 -83 -14 -22 -25 -45 -25 -51 0 -7 -6
-10 -13 -7 -10 4 -7 16 13 52 29 50 22 47 -20 -11 l-27 -37 32 -33 c18 -18 34
-41 36 -50 1 -9 8 -34 16 -55 l13 -38 23 78 c13 42 27 77 32 77 5 0 6 -10 3
-22 l-7 -23 16 21 c8 12 34 29 56 38 50 20 51 28 3 24 -37 -3 -38 -2 -70 62
-18 36 -31 70 -28 77 2 7 0 15 -5 18 -4 3 -11 -14 -15 -37z m-4 -220 c-7 -27
-9 -15 -10 63 -1 53 2 99 7 103 11 12 14 -128 3 -166z m48 126 c25 -41 26 -54
7 -54 -8 0 -17 12 -20 28 -4 15 -9 35 -12 45 -8 28 2 20 25 -19z"/>
<path d="M1810 953 c0 -6 9 -18 20 -28 11 -10 20 -14 20 -8 0 16 63 6 78 -14
17 -23 10 -108 -13 -153 -22 -43 -30 -32 -11 15 24 57 21 117 -6 134 -23 14
-23 14 -5 -7 18 -19 18 -23 2 -89 -9 -37 -18 -74 -21 -81 -2 -8 1 -10 7 -6 7
4 10 1 7 -7 -3 -8 -10 -14 -16 -14 -7 0 -39 -31 -71 -68 -42 -48 -57 -74 -54
-88 7 -26 18 -32 32 -15 9 11 8 17 -3 29 -13 13 -12 17 11 38 14 13 38 41 54
62 15 21 30 33 34 27 3 -5 3 -10 -1 -10 -3 0 -1 -7 6 -15 14 -17 30 -20 30 -6
0 5 -6 16 -13 23 -11 11 -9 19 9 46 12 18 24 29 26 25 3 -5 3 -3 2 4 -2 6 1
13 6 15 15 5 23 90 11 120 -13 34 -68 70 -95 64 -11 -3 -26 0 -33 6 -8 6 -13
6 -13 1z"/>
<path d="M1598 760 c-20 -11 -39 -29 -43 -40 -4 -11 -11 -17 -17 -14 -6 4 -8
-1 -3 -16 5 -17 4 -21 -6 -15 -9 6 -11 3 -6 -9 4 -10 7 -53 7 -97 0 -52 4 -79
11 -79 8 0 10 16 6 48 -8 70 10 141 45 176 24 24 32 27 39 15 7 -11 9 -11 9 3
0 9 3 23 6 32 8 21 -3 20 -48 -4z"/>
<path d="M1945 723 c-11 -3 -23 -10 -27 -17 -11 -16 -10 -48 2 -41 9 5 55 66
48 64 -2 -1 -12 -4 -23 -6z"/>
<path d="M1712 630 c-2 -82 -3 -87 -33 -113 -17 -15 -34 -27 -38 -27 -4 0 -18
-11 -31 -25 -20 -22 -21 -25 -6 -25 10 0 40 21 67 48 l50 47 -3 90 -4 90 -2
-85z"/>
<path d="M1850 641 c0 -5 3 -11 8 -14 4 -2 2 -3 -4 -1 -14 3 -34 -16 -34 -30
0 -6 5 -4 10 4 8 13 10 12 10 -4 0 -18 2 -18 25 4 19 18 22 26 14 37 -13 15
-29 17 -29 4z"/>
<path d="M1240 581 c0 -10 67 -71 78 -71 4 1 -8 13 -25 29 -18 15 -33 33 -33
39 0 7 -4 12 -10 12 -5 0 -10 -4 -10 -9z"/>
<path d="M1461 568 c-9 -24 3 -49 23 -47 7 0 6 2 -1 6 -14 5 -17 35 -6 47 4 4
15 -3 24 -15 l17 -23 -5 27 c-7 34 -40 37 -52 5z"/>
<path d="M1277 502 c-7 -10 28 -51 63 -75 13 -9 39 -17 57 -17 30 0 33 3 33
29 l0 30 -36 -15 c-35 -15 -38 -14 -63 8 -14 12 -31 29 -38 36 -6 7 -14 9 -16
4z"/>
<path d="M1680 468 c0 -12 -3 -18 -6 -15 -4 4 -20 -3 -37 -15 -24 -17 -33 -19
-48 -10 -15 10 -19 9 -19 0 0 -9 -3 -9 -9 1 -5 8 -7 20 -4 27 2 6 0 15 -6 19
-7 4 -11 -15 -11 -59 0 -36 3 -66 6 -66 3 0 20 10 37 23 145 106 157 117 117
117 -14 0 -20 -7 -20 -22z"/>
<path d="M1466 456 c-24 -37 -19 -104 10 -122 23 -16 54 -9 54 10 0 21 -12 27
-27 14 -11 -9 -17 -9 -24 3 -16 25 -5 36 33 30 7 -1 -6 49 -19 74 -9 15 -12
13 -27 -9z m31 -40 c-4 -9 -11 -16 -17 -16 -11 0 -14 33 -3 43 11 11 26 -10
20 -27z"/>
</g>
</svg>
