<?xml version="1.0" standalone="no"?>
<!DOCTYPE svg PUBLIC "-//W3C//DTD SVG 20010904//EN"
 "http://www.w3.org/TR/2001/REC-SVG-20010904/DTD/svg10.dtd">
<svg version="1.0" xmlns="http://www.w3.org/2000/svg"
 width="300.000000pt" height="451.000000pt" viewBox="0 0 300.000000 451.000000"
 preserveAspectRatio="xMidYMid meet">
<metadata>
Created by potrace 1.10, written by Peter Selinger 2001-2011
</metadata>
<g transform="translate(0.000000,451.000000) scale(0.100000,-0.100000)"
fill="#000000" stroke="none">
<path d="M880 4503 c0 -16 70 -103 110 -136 18 -16 54 -39 79 -52 55 -29 78
-49 152 -135 76 -88 109 -138 109 -167 0 -28 23 -27 28 2 10 49 -182 264 -291
325 -33 18 -84 62 -122 103 -36 40 -65 67 -65 60z"/>
<path d="M2000 4500 c0 -5 11 -33 25 -62 13 -29 41 -93 61 -143 21 -49 44
-101 53 -114 25 -39 24 -6 -2 46 -13 26 -39 89 -57 138 -18 50 -40 102 -48
118 -16 27 -32 36 -32 17z"/>
<path d="M2226 4108 c-64 -120 -166 -333 -166 -348 0 -6 5 -10 10 -10 15 0 12
-26 -4 -40 -8 -6 -22 -31 -31 -55 -16 -41 -16 -44 3 -63 37 -37 55 -82 49
-128 -3 -26 -33 -102 -75 -186 -90 -182 -261 -510 -272 -522 -5 -4 -6 -22 -4
-40 5 -32 -9 -66 -22 -53 -4 4 -2 13 4 19 7 7 12 21 12 33 0 11 -49 -72 -109
-185 -59 -113 -116 -219 -127 -236 -15 -27 -16 -35 -5 -48 10 -12 16 -13 32
-3 10 6 19 16 19 20 0 5 9 22 21 38 l20 29 -20 0 c-39 0 -19 32 27 43 25 6 29
-5 7 -23 -8 -7 -13 -16 -10 -20 2 -4 -2 -15 -9 -26 -8 -10 -12 -24 -9 -31 3
-7 0 -13 -7 -13 -6 0 -8 -4 -5 -10 3 -6 -3 -10 -14 -10 -25 0 -26 -6 -7 -26
13 -12 33 23 154 259 220 428 221 432 215 458 -3 13 -10 29 -15 36 -6 7 -3 23
7 42 13 27 19 30 35 21 11 -6 20 -16 20 -22 0 -9 -3 -9 -12 0 -7 7 -17 12 -22
12 -6 0 -3 -7 7 -14 17 -13 17 -16 2 -46 -9 -18 -14 -34 -11 -37 2 -3 44 73
93 168 48 96 94 186 102 201 14 26 13 30 -14 58 -22 23 -25 30 -13 30 9 0 20
9 23 20 3 11 11 20 16 20 9 0 12 -21 10 -70 0 -24 0 -24 14 5 19 38 11 87 -23
145 -14 25 -27 52 -28 60 -1 8 -5 24 -9 35 -18 46 44 -31 64 -80 17 -41 20
-45 18 -20 -1 17 -6 34 -12 38 -6 5 -2 6 8 3 22 -7 52 7 60 28 9 24 -20 110
-45 133 -13 11 -38 28 -56 37 -27 14 -31 20 -21 32 15 18 34 18 53 -2 9 -8 16
-12 16 -7 1 4 10 -9 21 -29 11 -21 22 -38 25 -38 3 0 2 5 -1 10 -3 6 -1 10 4
10 6 0 11 -15 11 -32 0 -22 3 -28 9 -20 12 20 1 64 -22 90 -12 12 -42 36 -68
53 -31 20 -46 35 -42 45 3 8 7 14 10 14 18 0 124 -96 130 -118 6 -20 9 -6 13
53 4 57 14 97 33 140 21 47 23 55 7 35 -11 -14 -25 -41 -31 -60 -7 -19 -17
-38 -22 -42 -6 -3 -12 -14 -13 -24 -5 -33 -21 -36 -43 -8 -11 15 -21 35 -21
44 0 23 40 112 55 125 7 6 18 27 25 48 13 42 31 44 41 6 5 -16 7 -18 8 -6 1
10 -6 30 -15 45 -13 22 -10 21 15 -8 17 -19 31 -43 31 -54 0 -14 3 -17 10 -10
7 7 0 38 -23 99 l-34 88 -57 -105z m-44 -435 c10 -11 20 -35 24 -54 l6 -34
-20 31 c-20 31 -82 71 -82 53 0 -5 -4 -9 -10 -9 -15 0 -12 48 3 53 15 5 57
-15 79 -40z m-57 -60 c14 -21 25 -44 25 -53 0 -8 -9 0 -20 18 -19 30 -29 36
-57 33 -7 -1 -13 3 -13 9 0 6 5 8 10 5 6 -3 10 1 10 9 0 27 18 18 45 -21z m41
-24 l4 -44 -14 35 c-18 43 -21 79 -5 63 6 -6 13 -30 15 -54z m-64 -291 c-9 -9
-12 -9 -12 2 0 9 -5 8 -16 -6 -14 -17 -15 -17 -10 -1 3 10 6 28 6 40 l0 21 22
-22 c17 -17 20 -24 10 -34z m-42 -47 c0 -24 -10 -51 -19 -51 -6 0 -7 35 -2 63
3 16 21 6 21 -12z m-34 -75 c7 -18 -14 -58 -27 -51 -10 7 -12 48 -2 58 11 11
23 8 29 -7z m-52 -60 c-3 -8 -1 -17 5 -20 6 -4 6 -17 -1 -37 l-10 -30 -19 20
c-18 19 -19 23 -4 51 15 30 39 43 29 16z m-100 -204 c8 -13 -5 -52 -15 -46
-12 7 -12 54 0 54 6 0 12 -4 15 -8z m-35 -104 c1 -13 -6 -18 -24 -18 -14 0
-25 -5 -25 -12 0 -6 -2 -9 -5 -6 -8 8 6 39 15 33 4 -3 11 3 15 12 3 10 1 19
-5 21 -7 3 -7 9 2 19 11 14 13 13 19 -8 4 -13 7 -32 8 -41z m-29 -69 c-17 -33
-24 -38 -35 -29 -19 15 -1 54 21 46 8 -3 14 1 14 9 0 8 5 15 10 15 6 0 1 -18
-10 -41z m-35 -48 c6 -11 -14 -61 -25 -61 -15 0 -18 13 -8 41 10 29 22 37 33
20z m-46 -63 c19 -12 19 -13 0 -51 -11 -21 -22 -37 -25 -35 -7 7 -14 80 -8 89
7 12 11 11 33 -3z m-31 -104 c10 -7 -70 -133 -84 -134 -15 0 -25 26 -17 46 4
10 13 14 29 10 32 -8 55 29 24 39 -20 6 -25 21 -14 49 5 12 10 13 32 3 15 -6
28 -12 30 -13z"/>
<path d="M2380 4068 c0 -13 -15 -52 -33 -88 -51 -99 -57 -124 -59 -270 l-3
-135 -38 -67 c-41 -73 -57 -90 -57 -59 0 11 4 23 10 26 5 3 15 16 21 28 6 12
-2 6 -19 -13 -24 -29 -29 -41 -25 -71 5 -33 -11 -69 -127 -296 -221 -429 -278
-539 -337 -646 -31 -56 -80 -145 -108 -197 -89 -163 -115 -206 -115 -190 0 12
-2 13 -9 1 -7 -11 -12 -10 -28 6 -20 20 -20 20 4 48 13 15 21 30 18 33 -3 4
-10 0 -14 -7 -6 -9 -14 -10 -22 -5 -15 9 -39 15 -39 9 0 -2 7 -11 16 -20 21
-20 12 -30 -15 -16 -17 9 -20 9 -15 -3 3 -8 1 -17 -5 -21 -15 -9 -14 -38 2
-32 6 2 11 11 9 21 -2 9 4 16 13 16 11 0 14 -6 9 -24 -4 -19 -1 -26 15 -31 12
-3 21 -11 21 -16 0 -15 -32 -10 -45 7 -11 15 -12 15 -10 -2 0 -11 4 -24 7 -30
4 -5 3 -16 -3 -24 -5 -8 -9 -11 -9 -6 0 6 -7 1 -16 -10 -11 -13 -14 -14 -11
-4 6 19 -34 25 -45 8 -12 -21 3 -30 18 -11 14 17 15 17 9 -4 -5 -17 -2 -23 9
-23 8 0 18 5 22 11 3 6 15 8 26 6 17 -5 19 -2 14 18 -3 13 -1 27 6 31 7 4 8 3
4 -4 -4 -7 -3 -12 2 -12 4 0 19 18 31 41 13 22 25 38 28 35 3 -3 -41 -82 -97
-177 -57 -94 -113 -199 -125 -233 -29 -82 -27 -80 -80 -100 -32 -13 -47 -25
-51 -42 -9 -35 -24 -29 -22 9 1 35 -19 107 -31 107 -3 0 -18 -7 -31 -17 -36
-24 -12 1 33 34 24 17 61 65 96 123 37 61 62 94 72 91 7 -1 24 -4 36 -5 13 0
23 -4 23 -8 0 -5 9 -8 19 -8 22 0 35 26 19 36 -7 4 -14 2 -16 -4 -2 -7 -8 -12
-14 -12 -7 0 -9 15 -5 40 5 42 -10 67 -20 31 -3 -12 -9 -21 -14 -21 -13 0 -12
5 12 47 53 94 68 125 74 163 4 23 5 44 2 46 -3 3 -17 -7 -32 -21 -18 -19 -33
-26 -51 -22 -27 5 -31 -5 -9 -23 21 -18 19 -53 -5 -68 -26 -16 -25 -26 3 -41
21 -11 5 -8 -28 5 -11 4 -13 2 -9 -9 3 -9 -5 -30 -19 -49 -14 -18 -48 -79 -77
-134 -28 -56 -76 -129 -106 -163 -49 -57 -70 -92 -44 -76 6 4 7 -1 3 -11 -4
-11 -8 -13 -11 -6 -2 7 -8 10 -13 6 -14 -8 -11 40 6 80 17 39 11 44 -23 20
-21 -14 -22 -14 -23 8 -1 21 -2 20 -14 -7 -19 -40 -19 -97 0 -121 14 -18 14
-16 8 16 -6 33 -6 34 11 17 10 -10 16 -26 13 -37 -4 -15 3 -22 28 -30 44 -14
208 -112 275 -164 30 -23 69 -50 85 -60 l30 -19 -19 22 -19 21 29 -6 c21 -4
37 0 57 16 16 12 26 24 25 26 -2 2 -26 -3 -53 -11 -62 -19 -67 -19 -99 6 l-26
20 26 51 c28 56 41 54 46 -7 l3 -40 24 46 c18 36 22 55 17 83 -4 20 -11 36
-16 36 -18 0 -11 86 8 103 26 24 29 22 36 -23 l6 -39 43 42 c36 35 41 45 32
57 -7 8 -18 32 -26 52 -12 35 -11 39 16 78 39 56 41 77 7 50 l-26 -21 -12 23
c-7 12 -10 27 -7 31 3 5 -4 3 -15 -4 -19 -12 -19 -13 -1 -33 29 -31 20 -53
-10 -23 -8 8 -7 2 3 -17 14 -28 12 -49 -7 -73 -6 -9 -6 -13 1 -13 14 0 23 -27
15 -46 -5 -14 -9 -13 -24 7 -14 18 -19 20 -19 8 0 -9 -9 -24 -20 -34 -24 -22
-27 -9 -3 17 13 15 14 21 4 31 -10 9 -11 8 -6 -5 5 -13 1 -20 -15 -26 -12 -4
-21 -11 -21 -15 3 -21 0 -28 -8 -22 -10 5 -17 -23 -24 -90 -2 -22 -5 -14 -11
28 -8 52 -5 65 19 124 16 35 34 67 41 70 7 2 18 18 25 35 21 51 106 188 113
181 3 -4 6 4 6 16 0 12 9 38 21 59 56 102 79 136 79 121 0 -9 6 -19 14 -22 11
-5 13 1 9 27 -4 24 3 51 22 95 15 33 31 58 35 56 5 -3 13 10 19 28 6 18 26 56
45 84 19 28 40 69 47 90 8 21 52 112 99 201 60 114 87 157 91 145 5 -13 8 -9
14 17 4 19 37 94 73 165 36 72 75 148 85 170 11 22 26 47 33 55 6 8 15 31 19
50 4 19 22 58 40 86 79 121 102 209 92 348 -8 96 3 125 27 77 9 -17 21 -31 27
-31 6 0 1 13 -10 29 -12 16 -21 35 -21 43 0 18 39 120 52 136 16 19 21 7 8
-19 -20 -37 -30 -79 -18 -76 11 2 31 -64 22 -72 -2 -2 -16 6 -31 20 l-26 24
26 -40 c28 -41 36 -72 15 -59 -7 5 -8 3 -3 -7 8 -12 10 -32 6 -70 -1 -5 -4 -8
-8 -6 -5 3 -8 -15 -9 -40 -1 -27 2 -39 7 -31 7 10 9 10 9 0 0 -29 -206 -418
-235 -442 -17 -14 -21 -50 -5 -50 5 0 7 -8 4 -17 -3 -10 19 27 50 82 30 55 56
109 56 119 0 22 58 116 70 116 11 0 -5 -56 -24 -85 -11 -17 -13 -34 -7 -67 8
-47 6 -51 41 70 11 39 25 72 29 72 12 0 43 -68 37 -79 -3 -5 0 -11 8 -14 11
-4 12 2 4 36 -9 41 -30 67 -54 67 -9 0 -10 9 -2 38 15 54 49 132 58 132 5 0
15 -19 24 -42 l15 -43 -6 40 c-3 22 -10 46 -16 53 -6 8 -11 74 -11 156 -1 109
-4 147 -15 160 -13 15 -13 19 0 27 8 5 29 8 47 6 17 -1 32 1 32 5 0 12 -88 98
-100 98 -5 0 -10 -10 -10 -22z m-1284 -2510 c2 -41 1 -42 -13 -20 -9 12 -24
22 -34 22 -25 0 -24 8 3 37 28 30 41 17 44 -39z m250 -39 c8 -8 14 -25 14 -36
0 -16 -5 -20 -20 -16 -26 7 -44 73 -34 122 l7 36 10 -45 c5 -25 15 -52 23 -61z
m-71 -6 c4 -32 3 -58 -4 -70 -9 -15 -10 -13 -6 12 5 26 4 27 -4 8 -12 -27 -17
-28 -37 -8 -9 9 -13 23 -9 35 7 23 -8 26 -52 9 l-28 -11 33 -14 c19 -7 46 -24
62 -37 25 -22 26 -25 10 -35 -14 -8 -26 -4 -61 18 -59 40 -67 65 -29 89 17 10
27 21 23 24 -3 4 4 7 17 7 27 0 60 26 61 49 1 28 16 -20 24 -76z m-187 -4 c18
-17 31 -33 29 -36 -8 -8 -67 34 -59 42 4 5 1 5 -6 1 -7 -4 -22 -4 -33 -1 -17
6 -19 9 -8 16 24 15 43 10 77 -22z"/>
<path d="M1270 3982 c0 -8 -29 -11 -96 -9 -98 3 -133 -6 -66 -17 64 -10 137
-7 158 8 10 8 16 18 11 22 -4 4 -7 2 -7 -4z"/>
<path d="M2450 3908 c11 -26 23 -67 26 -92 4 -26 11 -49 16 -52 6 -4 7 13 3
42 -10 71 -23 109 -46 130 -19 17 -19 17 1 -28z"/>
<path d="M1110 3856 c47 -24 96 -46 110 -50 24 -7 25 -7 5 10 -31 25 -157 84
-180 83 -11 0 18 -19 65 -43z"/>
<path d="M2646 3711 c-5 -7 2 -9 21 -6 15 3 66 -1 113 -9 93 -15 113 -14 53 4
-56 17 -179 25 -187 11z"/>
<path d="M2709 3644 c-1 -5 -1 -13 0 -17 1 -5 -3 -6 -8 -3 -5 4 -12 2 -16 -4
-4 -6 5 -10 19 -10 14 0 26 4 26 9 0 4 10 8 23 8 74 1 76 11 3 19 -25 4 -47 2
-47 -2z"/>
<path d="M2417 3541 c-4 -18 -7 -48 -6 -65 l1 -31 9 34 c6 18 9 47 7 65 l-3
31 -8 -34z"/>
<path d="M1812 3444 c-18 -31 -32 -60 -32 -65 0 -5 -3 -9 -7 -9 -5 0 -13 -10
-19 -23 -16 -32 -53 -98 -116 -207 -30 -52 -81 -144 -113 -205 -31 -60 -65
-121 -75 -135 -10 -14 -21 -36 -24 -50 -7 -23 -6 -22 12 5 19 31 123 215 248
440 39 72 93 168 118 214 26 46 45 85 43 87 -1 2 -17 -22 -35 -52z"/>
<path d="M2371 3400 c0 -14 -13 -61 -27 -104 l-27 -80 -30 34 c-16 19 -27 27
-23 17 3 -10 -5 -44 -19 -77 -27 -64 -31 -97 -17 -150 10 -38 9 -40 41 58 24
71 26 95 10 124 -11 21 -11 21 16 0 l28 -22 29 87 c15 49 27 99 25 113 l-4 25
-2 -25z"/>
<path d="M2191 3136 c-1 -11 -9 -28 -18 -38 -12 -14 -18 -43 -21 -109 -4 -76
-7 -90 -21 -87 -9 2 -21 18 -27 37 l-11 34 -21 -34 c-11 -19 -24 -59 -28 -89
-9 -73 -21 -103 -38 -97 -14 5 -45 -42 -66 -98 l-10 -30 21 25 c11 14 18 20
14 13 -3 -7 1 -26 10 -42 8 -17 15 -40 14 -53 -1 -24 -2 -21 -25 52 -4 11 -7
12 -13 2 -7 -12 12 -108 23 -120 3 -2 13 11 22 30 15 33 15 39 0 92 l-17 57
26 30 c14 17 25 36 25 42 0 7 4 6 10 -3 5 -8 10 -22 10 -30 0 -12 -2 -12 -9
-1 -15 23 -18 -2 -6 -43 l11 -40 32 56 c36 62 38 76 18 140 -17 59 -5 84 24
49 11 -13 20 -29 20 -37 0 -29 16 -12 41 44 24 54 25 61 13 102 -18 59 -17 87
1 97 11 7 12 16 6 38 -6 19 -10 23 -10 11z m-103 -391 c0 -23 -3 -19 -13 20
-7 28 -13 64 -13 80 0 23 3 19 13 -20 7 -27 13 -63 13 -80z"/>
<path d="M2134 3102 c-7 -4 -35 -47 -63 -97 -29 -49 -57 -93 -64 -97 -7 -4 -8
-8 -3 -8 5 0 2 -8 -6 -17 -9 -10 -31 -47 -50 -84 -19 -36 -40 -63 -46 -61 -5
1 -13 -2 -18 -9 -5 -8 1 -10 19 -7 l26 5 -20 -28 c-11 -16 -24 -29 -30 -29 -5
0 -20 -22 -33 -49 -20 -38 -24 -57 -19 -87 l6 -39 9 30 c4 17 5 38 2 48 -4 12
0 17 16 17 17 0 29 18 62 88 22 48 50 101 62 117 18 27 18 29 1 15 -17 -13
-18 -13 -10 0 4 8 15 23 24 34 21 24 156 266 149 266 -2 0 -8 -4 -14 -8z
m-238 -460 c-14 -27 -46 -51 -46 -34 0 10 53 72 58 68 2 -2 -3 -18 -12 -34z"/>
<path d="M2603 3060 c-21 -9 -44 -24 -51 -33 -10 -12 -5 -11 25 4 41 21 92 23
168 7 28 -5 96 -11 153 -12 86 -1 99 1 85 12 -12 9 -45 12 -98 11 -44 -1 -117
5 -162 13 -76 14 -85 14 -120 -2z"/>
<path d="M2847 2943 c-4 -3 -46 -5 -94 -4 -91 2 -105 -7 -28 -19 25 -4 70 -1
106 6 66 14 87 24 47 24 -13 0 -28 -3 -31 -7z"/>
<path d="M2655 2858 c-16 -6 -36 -18 -45 -27 -13 -13 -13 -14 5 -7 11 4 40 14
65 23 25 8 47 17 49 19 9 8 -45 2 -74 -8z"/>
<path d="M1910 2562 c-11 -28 -15 -33 -18 -18 -3 16 -7 14 -18 -13 -8 -18 -14
-42 -14 -53 0 -10 -4 -17 -9 -14 -5 3 -8 -12 -7 -34 0 -21 3 -34 7 -29 3 6 9
0 12 -13 9 -33 7 -58 -3 -28 l-8 25 -1 -28 c-1 -32 -21 -27 -21 5 0 19 -1 19
-20 -3 -23 -28 -26 -18 -5 15 8 12 17 45 20 72 l6 49 -19 -52 c-10 -28 -31
-71 -46 -94 -15 -22 -23 -38 -17 -35 6 4 11 2 11 -3 0 -6 -4 -11 -9 -11 -9 0
-26 -37 -24 -50 8 -58 11 -92 7 -82 -3 6 -13 12 -21 12 -9 0 -13 6 -9 15 18
45 15 45 -14 0 -18 -27 -44 -75 -57 -105 -14 -30 -31 -62 -38 -70 -7 -8 -29
-42 -48 -75 -28 -50 -33 -70 -31 -112 2 -54 19 -97 35 -88 5 4 6 13 0 23 -10
19 -12 97 -4 126 5 16 8 14 19 -13 18 -42 17 -66 -1 -26 -13 29 -13 29 -11
-22 3 -57 12 -77 21 -47 4 10 11 27 16 37 7 12 5 32 -6 63 -19 58 -19 77 3 97
16 15 18 13 36 -29 10 -24 21 -44 24 -44 4 1 18 23 31 50 l24 50 -18 60 c-15
48 -16 62 -5 75 20 25 38 17 51 -22 l12 -36 13 25 c12 22 11 32 -1 62 -8 19
-15 43 -14 53 0 10 9 -4 18 -32 l18 -50 13 27 c10 20 10 34 1 59 -16 47 -14
96 5 103 26 10 32 7 39 -21 6 -27 7 -28 22 -8 8 11 23 36 34 57 17 34 17 40 3
87 -8 28 -12 56 -9 61 10 16 45 11 51 -7 3 -10 8 -25 11 -33 4 -13 5 -13 13 0
7 14 -17 110 -32 125 -2 2 -10 -12 -18 -33z m-243 -494 c0 -13 3 -32 7 -43 5
-11 -1 -6 -13 10 -22 32 -27 50 -11 40 6 -3 10 -1 10 4 0 6 2 11 4 11 2 0 4
-10 3 -22z m-24 -83 l5 -40 -13 30 c-16 33 -21 91 -6 65 5 -8 11 -33 14 -55z"/>
<path d="M2235 2583 c6 -6 37 -13 69 -16 39 -4 56 -3 49 4 -6 6 -37 13 -69 16
-39 4 -56 2 -49 -4z"/>
<path d="M2615 2556 c-79 -25 -141 -70 -181 -131 -17 -26 -28 -148 -12 -139 4
3 8 28 8 55 0 46 4 54 47 100 52 56 114 92 196 114 47 12 49 14 17 14 -19 0
-53 -6 -75 -13z"/>
<path d="M2669 2521 c-35 -28 -20 -32 20 -4 19 13 27 23 19 23 -9 0 -26 -9
-39 -19z"/>
<path d="M2295 2523 c-16 -3 -34 -9 -40 -14 -11 -11 66 -2 100 12 18 7 17 8
-5 7 -14 -1 -38 -3 -55 -5z"/>
<path d="M1547 2445 c-15 -30 -25 -55 -22 -55 7 0 57 101 53 106 -2 2 -16 -21
-31 -51z"/>
<path d="M1760 2424 c-9 -23 -13 -26 -22 -14 -8 13 -9 13 -5 -1 3 -9 -3 -29
-14 -45 -10 -16 -19 -36 -19 -45 0 -9 -10 -23 -21 -31 -17 -11 -22 -25 -23
-60 -1 -25 -4 -44 -9 -41 -4 2 -7 1 -6 -4 1 -4 -1 -16 -6 -26 -4 -10 -5 -20
-2 -23 8 -9 39 55 32 66 -3 6 -2 10 2 10 5 0 14 14 20 30 6 17 7 28 2 24 -19
-11 -8 13 15 35 26 24 82 139 72 148 -3 3 -10 -7 -16 -23z"/>
<path d="M1435 2238 c-14 -30 -18 -43 -8 -29 20 27 45 81 38 81 -3 0 -16 -24
-30 -52z"/>
<path d="M1452 2209 c-13 -21 -12 -21 15 -14 34 8 37 11 28 24 -10 17 -29 13
-43 -10z"/>
<path d="M1504 2199 c-3 -6 0 -15 7 -20 10 -6 8 -9 -8 -9 -25 0 -32 -24 -10
-34 6 -4 2 -4 -11 -2 -14 3 -22 0 -20 -6 5 -14 38 -20 38 -7 0 21 2 25 22 46
11 12 17 26 13 32 -8 14 -22 14 -31 0z"/>
<path d="M1360 2061 c0 -12 -4 -21 -10 -21 -5 0 -10 -7 -10 -16 0 -9 7 -14 16
-12 18 3 29 54 13 63 -5 4 -9 -3 -9 -14z"/>
<path d="M1326 1924 c-10 -26 -7 -30 20 -29 31 2 52 30 29 39 -9 3 -15 0 -15
-9 0 -8 -4 -15 -10 -15 -5 0 -7 7 -4 15 4 8 2 15 -4 15 -5 0 -13 -7 -16 -16z"/>
<path d="M1450 1912 c0 -11 37 -32 44 -25 8 9 -14 33 -30 33 -8 0 -14 -3 -14
-8z"/>
<path d="M1191 1776 c-22 -40 -52 -87 -66 -104 -22 -26 -24 -34 -15 -59 6 -15
13 -33 15 -40 3 -9 13 -9 42 3 53 22 71 41 85 88 7 23 17 50 23 61 63 107 64
111 45 111 -11 0 -16 -5 -12 -15 4 -11 -1 -13 -26 -8 -35 7 -44 -8 -12 -18 25
-8 27 -24 3 -20 -10 1 -12 0 -5 -2 21 -8 14 -32 -8 -26 -11 3 -20 11 -20 19 0
8 -6 11 -15 8 -8 -4 -15 -1 -15 5 0 6 5 11 10 11 6 0 10 9 10 20 0 11 5 20 10
20 6 0 10 5 10 10 0 27 -22 3 -59 -64z m39 -41 c25 -30 -9 -125 -45 -125 -7 0
-18 -7 -25 -15 -19 -23 -27 -18 -32 16 -4 24 1 39 22 63 15 17 30 41 34 54 8
25 28 29 46 7z"/>
<path d="M1190 1687 c0 -8 -12 -25 -26 -36 -15 -12 -22 -21 -16 -21 6 0 14 5
18 12 5 8 10 6 14 -7 5 -15 9 -11 14 19 4 21 5 41 2 44 -3 3 -6 -2 -6 -11z"/>
<path d="M878 1536 c-4 -32 0 -40 30 -63 46 -35 66 -82 45 -105 -8 -9 -13 -21
-10 -25 3 -5 -8 -33 -25 -63 -16 -30 -41 -75 -55 -100 -14 -25 -57 -106 -96
-180 -38 -74 -83 -154 -98 -178 -16 -24 -29 -48 -29 -55 -1 -19 -54 -113 -62
-107 -10 8 -59 -51 -56 -68 5 -28 25 -23 31 7 l6 30 33 -30 c36 -32 105 -69
130 -69 9 0 20 -6 26 -13 16 -19 -103 -4 -146 18 -26 14 -31 21 -26 38 7 22 6
22 -14 3 -26 -23 -24 -27 34 -61 34 -20 66 -29 123 -34 58 -5 87 -13 121 -34
32 -20 38 -26 19 -22 -22 5 -29 0 -52 -34 -27 -41 -23 -50 13 -31 10 6 42 16
70 23 l51 13 -48 32 c-26 17 -72 48 -100 69 l-53 37 21 30 c11 17 27 46 35 64
8 17 29 56 47 85 18 28 38 63 45 77 6 14 17 34 24 45 6 11 15 27 19 35 5 8 46
85 91 170 46 85 93 166 106 181 12 15 22 31 22 36 0 16 47 35 69 28 28 -8 131
-115 131 -135 0 -12 2 -12 9 -2 6 10 10 8 14 -10 5 -16 0 -28 -17 -43 -12 -11
-42 -58 -66 -105 -65 -128 -253 -439 -299 -495 -22 -27 -39 -51 -36 -53 7 -8
100 65 152 121 68 72 134 176 206 327 33 69 62 127 64 129 1 2 13 -4 25 -15
l23 -19 -22 25 c-16 18 -20 33 -16 50 8 29 28 52 37 43 10 -10 7 -25 -4 -18
-18 11 -10 -7 20 -45 33 -41 38 -60 16 -60 -22 0 -101 -80 -134 -135 -35 -57
-75 -160 -70 -176 2 -6 16 20 31 57 49 118 129 220 192 244 l23 9 -20 38 c-38
74 -4 205 73 281 18 17 41 34 52 38 12 4 16 11 12 22 -4 10 -15 40 -25 67 -25
69 -60 145 -67 145 -3 0 -3 -27 -1 -60 2 -33 2 -61 -1 -62 -39 -19 -127 -248
-95 -248 8 0 14 -4 14 -10 0 -18 -31 2 -45 31 -10 18 -47 46 -107 80 -51 28
-124 73 -163 99 -38 26 -103 64 -143 85 -43 22 -78 48 -86 63 l-13 26 -5 -38z
m221 -152 c11 -14 25 -23 30 -20 5 4 22 -5 38 -19 15 -14 23 -24 18 -23 -6 2
-23 -7 -39 -19 -16 -13 -26 -23 -22 -23 4 0 1 -7 -8 -15 -8 -8 -19 -15 -25
-15 -5 0 -11 -15 -13 -32 -4 -47 -30 -43 -44 7 -7 25 -7 42 -1 46 5 4 -10 21
-33 38 -46 33 -39 41 13 15 l32 -15 -32 26 c-45 36 -42 52 4 24 41 -25 35 -8
-9 29 -37 31 -36 47 2 27 36 -18 39 -11 8 16 -22 19 -22 19 19 0 22 -11 50
-32 62 -47z m471 15 c11 -40 10 -41 -30 -80 -23 -23 -52 -63 -65 -90 -18 -40
-24 -46 -28 -29 -3 11 -2 18 3 15 4 -3 27 47 50 110 24 63 47 115 51 115 5 0
13 -18 19 -41z m-562 -186 c11 -45 16 -87 12 -93 -8 -13 -50 123 -50 165 0 49
18 16 38 -72z m-70 41 c-9 -25 -8 -40 7 -80 22 -63 35 -125 24 -118 -5 3 -6
-2 -3 -10 3 -9 11 -13 17 -9 6 3 7 1 3 -5 -11 -17 -51 2 -54 27 -3 15 1 19 12
15 17 -6 14 6 -18 96 -16 42 -16 47 0 83 20 44 29 44 12 1z m405 -24 c26 -19
45 -39 44 -43 -4 -14 -10 -10 -66 44 -57 55 -51 55 22 -1z m101 -63 c3 3 6
-11 6 -33 -1 -34 -2 -37 -12 -19 -6 11 -17 24 -25 28 -7 4 -13 15 -13 23 0 11
4 12 19 5 10 -6 21 -7 25 -4z m-539 -117 c16 -36 25 -44 46 -42 3 1 6 -5 6
-13 0 -10 -5 -11 -18 -4 -27 14 -30 11 -23 -16 4 -15 2 -25 -5 -25 -6 0 -11 7
-11 15 0 8 -4 15 -10 15 -5 0 -10 5 -10 10 0 6 7 10 16 10 13 0 14 3 5 13 -21
26 -41 99 -34 126 7 25 7 24 13 -11 4 -21 15 -56 25 -78z m-55 -57 c16 -53 18
-68 8 -75 -7 -4 -8 -8 -3 -8 6 0 17 4 25 9 26 17 32 -1 8 -26 l-23 -24 28 10
c43 17 46 12 7 -9 -42 -23 -51 -24 -44 -7 2 7 -2 26 -10 41 -8 16 -13 34 -10
40 2 6 -2 29 -10 51 -12 34 -12 65 0 65 2 0 12 -30 24 -67z m0 -173 c0 -5 -7
-7 -15 -4 -8 4 -15 11 -15 18 0 6 -11 34 -25 61 -13 28 -24 61 -25 75 0 17 13
-2 40 -58 22 -46 40 -87 40 -92z m-80 6 c11 -33 20 -67 20 -78 0 -25 9 -23 43
10 l30 27 -18 -28 c-10 -15 -26 -32 -36 -37 -20 -11 -36 -13 -26 -4 3 3 -4 31
-15 62 -26 69 -40 128 -27 115 4 -4 18 -35 29 -67z m489 -6 c-23 -45 -44 -79
-46 -76 -5 4 52 122 69 144 24 29 16 7 -23 -68z m-504 -118 c11 -17 15 -35 11
-39 -9 -10 -58 45 -51 57 3 4 -2 24 -11 45 -8 20 -12 46 -8 58 5 17 10 10 24
-34 9 -31 25 -70 35 -87z m-46 -22 c18 -28 30 -57 27 -65 -2 -7 0 -15 5 -17 6
-2 0 -12 -12 -23 l-22 -20 6 23 c4 17 2 22 -8 18 -16 -6 -27 3 -18 17 12 19
10 64 -2 88 -12 21 -13 17 -10 -39 2 -35 8 -69 14 -75 5 -7 6 -19 2 -26 -7
-10 -17 -7 -49 13 -54 34 -58 43 -31 72 l23 24 11 -27 c10 -24 11 -21 7 30 -6
74 12 76 57 7z"/>
<path d="M117 1305 c-27 -7 -52 -17 -55 -21 -4 -4 4 -4 18 0 45 13 234 19 273
8 20 -6 35 -7 32 -2 -14 23 -199 33 -268 15z"/>
<path d="M390 1250 c-8 -5 -11 -10 -5 -10 5 0 4 -5 -3 -12 -19 -19 -14 -28 12
-18 13 5 27 6 30 3 11 -11 6 -41 -6 -46 -10 -4 -10 -6 0 -6 6 -1 12 -10 12
-21 0 -10 16 -35 35 -54 27 -27 35 -44 35 -71 0 -20 4 -34 9 -30 5 3 12 -3 14
-12 2 -10 2 -2 0 17 -7 57 -23 100 -39 100 -8 0 -16 6 -18 13 -3 6 -14 45 -25
85 -22 74 -26 78 -51 62z"/>
<path d="M237 1239 c-15 -6 -25 -15 -21 -20 3 -5 11 -6 17 -2 6 4 36 7 67 7
30 1 57 6 60 11 7 14 -88 16 -123 4z"/>
<path d="M1303 1155 c1 -19 3 -35 6 -35 4 0 17 -3 30 -7 l24 -6 -23 41 c-29
51 -38 53 -37 7z"/>
<path d="M1768 1130 c51 -10 103 -22 115 -26 22 -6 22 -6 -2 17 -21 19 -36 23
-115 25 l-91 3 93 -19z"/>
<path d="M1284 1094 c3 -8 -1 -26 -10 -40 -15 -22 -15 -24 0 -24 9 0 16 8 16
17 0 9 7 24 15 33 14 16 14 18 -5 23 -16 4 -20 2 -16 -9z"/>
<path d="M2018 908 c-27 -6 -48 -14 -48 -18 0 -10 78 -1 103 12 12 6 25 3 45
-10 49 -34 58 -35 25 -3 -34 33 -48 35 -125 19z"/>
<path d="M1148 903 c18 -7 15 -24 -14 -66 -14 -21 -24 -41 -21 -43 3 -3 15 12
28 33 12 21 29 48 37 61 14 21 13 22 -14 21 -16 0 -23 -3 -16 -6z"/>
<path d="M1877 833 c-4 -3 -7 -25 -6 -47 1 -32 2 -36 8 -17 8 30 15 32 188 36
l143 4 16 -25 c16 -23 16 -26 -2 -39 -17 -13 -16 -13 13 -3 l32 12 -19 26
c-11 15 -26 33 -35 40 -23 19 -105 20 -133 2 -18 -12 -33 -12 -74 -4 -33 6
-63 6 -85 0 -37 -10 -57 -3 -33 12 8 6 10 10 4 10 -6 0 -14 -3 -17 -7z"/>
<path d="M89 791 c-1 -3 -1 -9 0 -13 0 -4 -6 -5 -14 -2 -8 4 -15 1 -15 -5 0
-8 -5 -9 -19 -2 -15 8 -20 7 -25 -6 -4 -9 -4 -18 -1 -21 3 -3 5 0 5 6 0 7 8
11 17 10 26 -3 136 23 128 30 -8 8 -75 10 -76 3z"/>
<path d="M112 752 c-7 -2 2 -15 24 -33 29 -23 40 -27 56 -18 11 6 17 13 14 16
-13 14 -82 39 -94 35z"/>
<path d="M1060 712 c-20 -25 -40 -60 -40 -69 1 -10 28 25 46 60 17 31 15 35
-6 9z"/>
<path d="M82 701 c-11 -7 -11 -9 2 -14 20 -8 48 2 40 14 -7 11 -25 11 -42 0z"/>
<path d="M245 694 c-16 -7 -40 -13 -51 -14 -30 0 -78 -26 -65 -35 12 -7 40 0
89 22 23 11 36 12 45 5 19 -16 38 -1 24 19 -10 13 -16 14 -42 3z"/>
<path d="M2176 695 c-6 -16 3 -19 28 -9 22 8 20 24 -3 24 -10 0 -21 -7 -25
-15z"/>
<path d="M2420 684 c0 -8 5 -12 10 -9 6 3 28 -4 50 -16 22 -12 43 -20 47 -16
3 4 1 7 -5 7 -6 0 -28 11 -48 25 -43 29 -54 31 -54 9z"/>
<path d="M1 678 c-1 -10 4 -18 10 -18 8 0 7 -6 -2 -16 -13 -15 -11 -17 17 -13
28 5 30 3 26 -23 -2 -15 0 -28 4 -28 5 0 21 -11 36 -25 28 -26 34 -24 41 16 5
23 2 24 -34 21 -31 -3 -39 -1 -39 12 0 9 5 16 11 16 5 0 8 4 4 9 -3 5 5 12 17
14 13 3 8 4 -11 4 -19 -1 -36 4 -39 11 -2 6 -10 12 -17 12 -7 0 -16 6 -18 13
-3 7 -6 5 -6 -5z"/>
<path d="M2289 673 c-12 -14 -12 -16 1 -8 8 5 28 8 45 7 23 -2 26 0 15 8 -22
15 -46 12 -61 -7z"/>
<path d="M2761 585 c-2 -49 -5 -107 -6 -127 -3 -29 -1 -36 11 -31 8 3 14 14
14 25 0 10 5 16 10 13 6 -3 10 -2 10 4 0 5 -6 11 -12 13 -8 3 -15 38 -19 99
l-6 94 -2 -90z"/>
<path d="M222 647 l-23 -13 26 -12 c14 -7 38 -12 53 -11 15 0 21 3 13 6 -10 4
-8 9 10 19 l24 14 -26 -6 c-15 -3 -30 -1 -33 5 -9 14 -15 13 -44 -2z"/>
<path d="M1719 639 c-10 -6 -7 -9 12 -9 14 0 34 -7 45 -15 24 -18 36 -19 60 0
18 14 17 14 -13 9 -18 -4 -39 -2 -45 3 -22 17 -44 21 -59 12z"/>
<path d="M2927 643 c-3 -5 -8 -30 -12 -57 -6 -35 -5 -47 4 -42 6 4 11 25 11
47 0 28 4 39 15 39 8 0 15 5 15 10 0 12 -27 14 -33 3z"/>
<path d="M166 594 c-8 -22 -2 -27 23 -19 18 5 19 8 7 21 -19 18 -22 18 -30 -2z"/>
<path d="M427 587 c-15 -12 -36 -35 -47 -51 -17 -26 -17 -32 -5 -56 8 -15 11
-31 7 -35 -4 -5 2 -5 13 0 11 4 47 13 80 20 55 12 57 13 21 14 -28 1 -37 5
-33 15 3 8 3 17 0 20 -9 9 -44 -14 -38 -24 3 -6 -1 -7 -9 -4 -9 3 -16 12 -16
18 0 23 51 61 81 61 34 0 38 -10 7 -19 -18 -5 -20 -8 -9 -15 7 -5 10 -14 7
-20 -4 -6 -3 -11 3 -11 5 0 14 8 20 17 6 12 13 14 23 7 7 -6 27 -16 43 -22
l30 -13 -25 21 c-14 11 -28 20 -31 20 -4 0 -19 18 -34 40 -32 46 -49 49 -88
17z"/>
<path d="M1603 582 c-13 -2 -23 -8 -23 -13 0 -8 67 -3 78 6 6 5 -34 10 -55 7z"/>
<path d="M530 487 c14 -8 34 -18 45 -24 54 -29 74 -35 96 -28 l24 7 -21 -23
c-30 -33 -33 -50 -17 -81 8 -17 9 -28 3 -28 -5 0 -10 5 -10 10 0 7 -6 7 -17 1
-28 -15 -107 -31 -114 -23 -4 4 -10 22 -14 40 -5 27 -4 32 12 32 15 0 16 2 3
10 -12 8 -12 10 -1 10 11 0 11 3 1 15 -10 12 -10 18 0 30 17 21 33 19 21 -2
-6 -12 -5 -22 4 -30 10 -9 15 -6 26 13 11 21 11 27 -1 34 -23 15 -56 12 -70
-5 -11 -13 -15 -13 -21 -3 -15 22 -10 -45 6 -98 8 -27 15 -52 15 -56 0 -3 -38
-9 -85 -13 -47 -4 -84 -10 -81 -12 3 -3 31 -11 63 -18 32 -7 72 -16 88 -20 30
-8 30 -8 12 13 -11 11 -14 23 -9 26 6 3 54 15 107 26 103 21 170 26 147 11
-10 -6 -3 -11 23 -15 21 -4 49 -15 62 -23 20 -13 28 -14 48 -3 13 7 32 10 42
6 10 -3 6 3 -10 15 -15 11 -25 25 -21 30 5 8 -46 14 -108 12 -16 -1 -28 1 -28
3 0 2 16 26 35 53 34 47 43 71 28 71 -16 0 -31 -16 -34 -34 -2 -10 -20 -27
-39 -37 -19 -10 -43 -28 -52 -40 -17 -20 -18 -20 -18 -3 0 46 72 114 121 114
10 0 10 3 1 12 -9 9 -22 9 -57 0 -54 -14 -98 -16 -90 -3 3 5 0 13 -6 17 -8 5
-9 3 -4 -6 5 -9 2 -11 -11 -7 -11 4 -31 9 -46 13 -16 3 -28 10 -28 15 0 5 -10
9 -22 9 -23 0 -23 0 2 -13z"/>
<path d="M2865 460 c21 -9 8 -14 -27 -11 -13 2 -16 -2 -11 -15 4 -12 3 -15 -5
-10 -7 4 -22 0 -34 -8 -12 -9 -33 -16 -45 -16 -31 0 -29 -18 3 -26 17 -4 22
-10 16 -16 -7 -7 -20 -1 -39 16 -15 14 -22 26 -15 26 6 0 12 5 12 10 0 14 -27
13 -36 -1 -3 -6 4 -21 17 -33 32 -28 34 -50 7 -64 -13 -6 -17 -11 -10 -11 7
-1 10 -5 7 -11 -4 -6 6 -10 21 -10 21 0 25 -3 17 -11 -6 -6 -9 -17 -7 -24 3
-7 -10 -24 -28 -39 -18 -14 -30 -26 -26 -26 15 0 58 24 58 33 0 5 10 17 23 28
17 15 19 20 8 28 -8 5 -9 11 -3 15 6 3 12 1 14 -4 2 -7 11 -4 23 5 19 15 16
16 -35 10 -30 -2 -47 -1 -37 3 10 4 17 10 15 13 -7 13 27 40 63 49 22 6 39 15
39 20 0 6 -10 6 -22 2 -27 -10 -61 -4 -53 8 3 4 13 6 23 4 9 -3 28 -1 42 5 14
5 19 10 13 10 -7 1 -13 6 -13 11 0 6 6 10 13 9 6 -1 25 1 40 6 22 6 35 3 57
-14 32 -23 40 -26 40 -12 0 5 -10 11 -22 15 -18 5 -20 8 -9 15 11 7 10 10 -5
15 -34 10 -111 16 -89 6z"/>
<path d="M584 409 c-6 -10 12 -29 29 -29 9 0 9 4 1 24 -7 19 -20 21 -30 5z"/>
<path d="M35 340 c40 -9 122 -13 114 -6 -2 2 -38 6 -79 9 -56 4 -65 3 -35 -3z"/>
<path d="M2785 336 l-30 -13 31 -4 c23 -4 35 0 43 13 14 22 0 23 -44 4z"/>
<path d="M1585 326 c39 -19 125 -46 125 -40 0 8 -82 41 -120 48 l-35 7 30 -15z"/>
<path d="M205 320 c46 -10 121 -13 113 -4 -4 3 -39 7 -80 9 -59 3 -66 2 -33
-5z"/>
<path d="M1292 295 l-22 -35 46 22 c40 20 43 24 28 35 -25 18 -26 17 -52 -22z"/>
<path d="M2953 323 c-21 -8 -15 -18 12 -19 15 -1 25 3 25 12 0 14 -14 17 -37
7z"/>
<path d="M0 311 c0 -9 75 -22 124 -20 23 1 15 5 -29 15 -71 16 -95 17 -95 5z"/>
<path d="M1730 310 c36 -12 62 -12 55 0 -3 6 -23 10 -43 9 -33 -1 -34 -2 -12
-9z"/>
<path d="M1553 255 l88 -43 -48 -4 c-26 -3 -55 -1 -63 3 -13 7 -13 9 0 9 10 1
8 4 -5 9 -37 15 -35 -13 3 -34 64 -36 71 -37 97 -9 23 25 27 26 69 15 55 -14
63 -14 50 -1 -6 6 -37 15 -69 20 -37 6 -80 23 -116 45 -31 19 -65 35 -76 34
-10 0 22 -20 70 -44z"/>
<path d="M970 275 c-10 -13 -9 -19 6 -36 19 -21 19 -21 -6 -18 -15 2 -42 -8
-66 -24 -37 -25 -83 -29 -68 -6 3 5 -1 9 -8 9 -8 0 -20 9 -28 20 -17 23 -43
26 -59 6 -13 -15 4 -26 39 -26 10 0 34 -14 52 -30 18 -17 38 -28 45 -26 7 3
10 -1 7 -7 -2 -7 7 -24 21 -37 26 -25 36 -12 10 14 -8 8 -15 17 -15 20 0 14
39 4 64 -15 14 -11 24 -14 21 -7 -3 7 -21 24 -40 37 -36 25 -49 49 -17 32 23
-12 92 -88 92 -100 0 -5 16 -25 35 -44 30 -30 35 -32 35 -15 0 30 -50 150 -72
173 -19 20 -19 20 -12 0 4 -11 10 -24 14 -30 4 -5 11 -21 15 -35 l7 -25 -20
21 c-12 13 -22 39 -25 63 -2 23 -9 47 -15 53 -16 16 -15 31 1 21 26 -16 39
-12 21 8 -21 23 -19 23 -34 4z"/>
<path d="M2936 275 c4 -8 15 -15 25 -15 23 0 25 16 3 24 -25 10 -34 7 -28 -9z"/>
<path d="M1370 273 c-10 -4 1 -11 30 -19 25 -7 56 -16 70 -20 24 -7 25 -7 9
17 -12 18 -26 25 -55 26 -22 1 -46 -1 -54 -4z"/>
<path d="M1819 254 c18 -8 36 -12 39 -9 10 10 -21 25 -48 24 -23 -1 -22 -2 9
-15z"/>
<path d="M2972 243 c-18 -13 -25 -13 -37 -3 -13 11 -14 10 -9 -4 7 -17 40 -21
63 -7 7 5 12 13 10 19 -2 6 -13 4 -27 -5z"/>
<path d="M605 233 c-49 -7 -94 -18 -99 -23 -6 -6 -38 -10 -73 -10 -66 0 -265
-43 -226 -48 13 -2 62 6 109 18 72 18 108 21 220 18 97 -2 136 -7 146 -17 11
-11 11 -13 0 -6 -9 4 -15 0 -19 -13 -3 -11 -12 -21 -21 -20 -10 0 -71 -5 -136
-10 -100 -8 -122 -8 -134 4 -8 8 -23 12 -33 9 -10 -3 -27 -7 -37 -10 -19 -5
-48 -45 -33 -45 6 0 13 5 16 11 14 21 56 30 71 14 8 -8 29 -13 49 -11 18 1 32
-1 29 -6 -7 -11 3 -10 27 3 15 8 24 7 35 -2 12 -10 13 -9 8 5 -4 11 -1 16 10
16 17 0 15 -22 -6 -79 -5 -13 -6 -26 -4 -28 3 -3 10 13 17 35 9 33 17 42 38
44 14 2 27 9 27 16 3 25 4 25 19 6 15 -19 15 -19 30 0 20 27 19 11 -5 -51 -17
-45 -18 -53 -5 -53 8 0 15 7 15 16 0 11 6 14 23 9 19 -5 20 -4 5 5 -23 14 -23
48 -1 80 26 37 43 53 43 40 0 -6 5 -8 10 -5 20 13 9 33 -27 48 l-38 17 32 -3
c18 -2 30 0 27 5 -3 4 -19 8 -36 8 -43 0 -31 8 16 12 41 2 58 13 23 14 -12 1
-62 -5 -112 -13z"/>
<path d="M1254 221 c-41 -19 -65 -41 -44 -41 6 0 30 9 52 20 23 11 49 20 57
20 14 0 14 1 1 10 -19 13 -18 13 -66 -9z"/>
<path d="M2636 232 c-3 -6 1 -15 9 -22 14 -11 14 -15 -1 -31 -16 -18 -16 -19
7 -19 43 0 69 -12 69 -30 0 -10 9 -20 19 -23 14 -3 21 -18 26 -56 7 -55 11
-58 40 -37 15 11 19 25 17 70 -1 54 0 57 20 50 21 -6 21 -6 5 10 -10 10 -15
28 -13 46 2 17 -1 30 -5 30 -5 0 -9 -18 -9 -40 0 -22 -2 -40 -4 -40 -2 0 -16
7 -32 15 -16 8 -38 12 -50 9 -27 -7 -64 3 -64 18 0 5 10 19 23 30 l22 20 -24
-6 c-14 -3 -30 -1 -37 5 -7 6 -14 6 -18 1z m162 -141 c4 -72 -9 -101 -18 -41
-4 27 -3 48 3 51 14 10 -1 29 -24 29 -10 0 -19 5 -19 11 0 6 12 9 28 7 25 -3
27 -6 30 -57z"/>
<path d="M0 220 c0 -10 178 -4 189 6 2 2 -39 4 -92 4 -60 0 -97 -4 -97 -10z"/>
<path d="M1654 192 c3 -6 0 -12 -6 -15 -7 -2 9 -13 36 -25 54 -25 66 -27 66
-12 0 6 12 8 28 5 23 -5 24 -5 9 5 -10 7 -29 9 -41 6 -14 -3 -35 4 -61 21 -21
14 -35 21 -31 15z"/>
<path d="M1765 190 c-3 -5 -3 -10 2 -10 4 0 30 -7 56 -15 30 -9 45 -10 41 -3
-5 7 7 9 42 3 68 -10 52 0 -29 19 -79 19 -103 20 -112 6z"/>
<path d="M750 183 c0 -5 22 -21 48 -38 52 -33 59 -48 25 -53 -27 -4 -30 -19
-5 -25 9 -3 -5 -4 -33 -2 -27 1 -59 6 -70 11 -18 7 -18 6 -6 -9 11 -14 11 -18
-3 -23 -9 -3 -16 -13 -16 -20 0 -12 4 -12 29 1 17 8 37 12 45 9 9 -3 16 -1 16
5 0 6 12 11 27 11 14 0 34 7 44 16 18 16 44 11 34 -7 -4 -5 -1 -9 4 -9 6 0 11
-9 11 -19 0 -20 17 -37 26 -28 19 19 -105 170 -148 180 -16 4 -28 4 -28 0z"/>
<path d="M1255 174 c-16 -6 -43 -18 -60 -28 -34 -19 -30 -19 75 9 30 8 77 15
105 15 27 0 57 5 65 10 20 14 -144 9 -185 -6z"/>
<path d="M405 170 c-28 -7 -28 -8 12 -9 23 0 45 4 48 9 7 11 -16 11 -60 0z"/>
<path d="M1347 150 c-97 -12 -216 -44 -222 -59 -8 -21 -1 -23 31 -7 16 8 36
16 44 18 8 2 19 8 23 13 6 7 10 6 13 -2 4 -8 13 -9 27 -3 19 7 62 16 164 36
16 3 21 0 17 -10 -4 -11 1 -11 30 -2 69 21 -8 31 -127 16z"/>
<path d="M1638 132 c31 -26 32 -27 12 -40 -11 -6 -36 -12 -56 -12 -36 0 -37 0
-19 -20 10 -11 25 -20 33 -20 13 0 12 3 -4 15 -19 15 -19 16 1 14 39 -3 66 1
62 9 -6 8 -2 8 123 12 47 1 89 5 94 8 5 2 47 4 95 4 l86 -1 -85 14 c-55 9
-105 11 -142 6 -31 -4 -75 -7 -98 -7 -22 1 -42 -3 -43 -9 -2 -5 -20 5 -41 23
-20 17 -40 32 -44 32 -4 0 8 -13 26 -28z"/>
<path d="M139 146 c-2 -2 -33 -6 -69 -9 -36 -3 -66 -6 -67 -7 -2 0 -3 -4 -3
-10 0 -5 16 -10 35 -10 19 0 50 -8 70 -17 28 -14 35 -23 33 -43 -2 -20 -8 -24
-25 -22 -15 2 -23 -2 -23 -12 0 -17 41 -18 52 -1 4 5 8 24 8 42 0 23 6 33 20
38 11 3 24 4 29 1 14 -9 57 10 82 35 l22 22 -24 -8 c-32 -10 -57 -11 -100 -2
-19 4 -37 5 -40 3z"/>
<path d="M2946 125 c-29 -20 -41 -23 -62 -15 -35 14 -36 13 -24 -9 5 -11 7
-27 4 -35 -3 -9 -3 -16 2 -16 18 0 134 75 134 87 0 19 -13 16 -54 -12z"/>
<path d="M2120 130 c-30 -9 -18 -12 70 -14 36 0 74 -5 85 -10 20 -9 20 -9 1
12 -16 18 -29 22 -75 21 -31 -1 -67 -5 -81 -9z"/>
<path d="M2310 131 c-22 -6 -23 -8 -7 -14 29 -11 59 -8 55 5 -5 15 -17 18 -48
9z"/>
<path d="M1495 121 l-30 -7 43 -14 c32 -10 45 -11 54 -2 7 7 26 12 43 13 26 0
27 2 10 9 -24 10 -78 10 -120 1z"/>
<path d="M1360 113 c-44 -8 -50 -26 -6 -20 41 7 82 -8 107 -39 11 -15 7 -14
-21 3 l-36 22 -59 -19 c-33 -10 -53 -19 -45 -20 30 -3 -25 -19 -67 -19 -23 -1
-44 -5 -47 -9 -7 -12 87 -6 112 7 15 8 34 8 63 2 42 -10 149 4 149 19 0 3 14
5 30 2 17 -2 30 0 30 6 0 16 -30 23 -51 12 -14 -8 -27 -6 -50 5 -17 9 -28 19
-25 22 3 3 11 1 19 -5 9 -8 17 -8 27 0 12 8 12 9 -2 4 -10 -3 -18 -2 -18 3 0
5 -9 11 -20 14 -11 3 -18 1 -14 -4 3 -5 0 -9 -6 -9 -6 0 -13 7 -16 15 -6 15
-10 16 -54 8z m43 -67 c26 -20 21 -26 -13 -13 -16 6 -30 15 -30 19 0 12 23 9
43 -6z"/>
<path d="M2556 104 c-3 -8 -16 -14 -29 -14 -16 0 -23 -6 -23 -20 0 -17 2 -18
17 -4 9 8 20 14 25 13 13 -3 44 12 44 21 0 15 -28 19 -34 4z"/>
<path d="M2158 99 c13 -12 74 -29 83 -23 5 3 9 11 9 19 0 9 -14 13 -50 12 -27
-1 -46 -4 -42 -8z"/>
<path d="M953 93 c4 -3 -1 -11 -10 -18 -14 -11 -15 -16 -4 -44 16 -38 29 -40
33 -3 l3 27 28 -27 c15 -16 36 -28 47 -28 15 0 13 5 -13 33 -18 17 -35 28 -38
24 -3 -4 -11 4 -17 18 -6 14 -17 25 -23 25 -7 0 -9 -3 -6 -7z"/>
<path d="M1241 77 c-9 -11 -3 -14 27 -14 20 -1 31 1 24 4 -6 2 -10 9 -6 14 9
14 -32 10 -45 -4z"/>
<path d="M2962 73 c-16 -14 -18 -23 -11 -41 7 -19 12 -21 29 -12 11 6 20 21
20 33 -1 20 -3 19 -17 -8 -9 -17 -18 -25 -20 -18 -2 6 3 23 13 37 19 30 14 33
-14 9z"/>
<path d="M17 59 c-9 -5 -17 -14 -17 -19 0 -12 53 4 58 18 5 15 -17 15 -41 1z"/>
<path d="M2012 50 c-40 -9 -76 -20 -80 -24 -8 -8 123 -7 153 1 20 6 20 6 0 15
-23 10 92 3 118 -8 32 -12 17 -23 -35 -27 -39 -2 -32 -4 30 -5 64 -2 82 1 82
12 0 7 -7 19 -15 26 -8 7 -15 10 -15 7 0 -3 -24 1 -52 9 -66 17 -94 16 -186
-6z"/>
<path d="M246 25 c-13 -19 -13 -25 -3 -25 17 0 37 20 37 37 0 21 -16 15 -34
-12z"/>
<path d="M2872 28 c-24 -13 -38 -24 -32 -26 19 -7 101 20 97 31 -6 19 -21 17
-65 -5z"/>
<path d="M370 20 c-11 -20 -9 -21 56 -18 36 1 61 4 55 6 -6 2 -11 8 -11 13 0
6 5 7 10 4 6 -3 10 -1 10 4 0 6 -14 11 -31 11 -17 0 -28 -4 -24 -10 3 -6 2
-10 -4 -10 -5 0 -13 4 -16 10 -10 17 -34 11 -45 -10z"/>
<path d="M826 21 c-6 -9 26 -21 54 -21 11 1 10 4 -4 15 -22 17 -42 19 -50 6z"/>
<path d="M1835 14 l-50 -13 54 5 c55 5 109 24 66 23 -11 -1 -42 -7 -70 -15z"/>
</g>
</svg>
