<?xml version="1.0" standalone="no"?>
<!DOCTYPE svg PUBLIC "-//W3C//DTD SVG 20010904//EN"
 "http://www.w3.org/TR/2001/REC-SVG-20010904/DTD/svg10.dtd">
<svg version="1.0" xmlns="http://www.w3.org/2000/svg"
 width="300.000000pt" height="169.000000pt" viewBox="0 0 300.000000 169.000000"
 preserveAspectRatio="xMidYMid meet">
<metadata>
Created by potrace 1.10, written by Peter Selinger 2001-2011
</metadata>
<g transform="translate(0.000000,169.000000) scale(0.100000,-0.100000)"
fill="#000000" stroke="none">
<path d="M538 1676 c-15 -8 -35 -16 -45 -19 -15 -4 -15 -5 3 -6 11 0 24 3 30
9 5 5 27 14 49 19 29 6 33 9 15 10 -14 0 -37 -5 -52 -13z"/>
<path d="M1637 1683 c-11 -10 -8 -28 8 -49 14 -18 14 -18 8 4 -3 14 -1 22 7
22 6 0 14 -9 17 -20 5 -21 15 -25 26 -13 4 4 -5 19 -20 35 -28 29 -35 33 -46
21z"/>
<path d="M1753 1666 c-28 -29 -30 -46 -3 -21 15 13 30 16 65 13 48 -6 64 2 41
21 -11 9 -15 9 -19 -1 -4 -10 -7 -11 -18 0 -20 18 -41 14 -66 -12z"/>
<path d="M2142 1667 c-12 -13 -28 -24 -35 -25 -6 -1 -28 -6 -47 -11 l-35 -11
37 4 c23 3 38 0 41 -7 2 -7 19 3 39 25 19 20 46 38 59 41 20 4 19 4 -7 6 -20
1 -38 -7 -52 -22z"/>
<path d="M2567 1681 c-10 -4 -18 -11 -18 -16 0 -6 -12 -14 -28 -20 -35 -12
-50 -25 -30 -25 22 -1 -71 -40 -95 -40 -19 -1 -20 -2 -4 -14 10 -7 15 -16 11
-19 -16 -17 13 -5 41 16 17 13 52 34 79 46 26 13 44 27 41 32 -3 5 5 18 18 29
23 20 17 24 -15 11z"/>
<path d="M2360 1648 l-35 -31 36 22 c42 25 50 26 43 8 -3 -8 -23 -24 -44 -36
-41 -23 -53 -35 -23 -24 11 4 14 3 9 -5 -5 -8 -2 -10 8 -6 9 3 13 11 9 17 -3
6 -1 7 5 3 7 -4 20 -2 29 3 11 6 13 11 5 11 -23 0 -2 20 22 20 30 0 58 29 30
31 -11 1 -23 1 -28 0 -4 -1 -13 3 -20 8 -7 6 -23 -1 -46 -21z"/>
<path d="M1888 1656 c-15 -11 -16 -17 -5 -39 14 -31 25 -33 53 -12 15 11 16
15 4 16 -8 0 -4 5 10 9 25 8 25 8 -5 9 -29 2 -29 2 -11 16 19 15 19 15 -5 15
-13 0 -32 -7 -41 -14z"/>
<path d="M2775 1661 c-35 -9 -79 -31 -72 -37 2 -2 30 4 63 15 32 10 68 21 79
24 14 3 10 5 -10 5 -16 0 -43 -3 -60 -7z"/>
<path d="M1160 1648 c0 -17 39 -37 57 -31 10 4 9 9 -3 20 -8 8 -18 13 -21 9
-3 -3 -12 -1 -20 5 -10 9 -13 8 -13 -3z"/>
<path d="M2625 1615 c-29 -18 -34 -25 -20 -25 11 1 34 12 50 25 39 32 22 32
-30 0z"/>
<path d="M1265 1593 c-18 -16 -22 -24 -12 -20 10 4 30 7 44 7 17 0 24 5 21 17
-5 26 -20 25 -53 -4z"/>
<path d="M1690 1602 c0 -35 27 -92 48 -101 29 -14 52 -14 52 0 0 5 -4 8 -9 4
-16 -9 -61 17 -61 35 0 10 -7 31 -15 46 -8 16 -15 23 -15 16z"/>
<path d="M1963 1598 c-30 -15 -38 -38 -12 -38 11 0 17 -4 14 -10 -3 -5 -17
-10 -31 -10 -13 0 -24 5 -24 10 0 6 -7 10 -15 10 -9 0 -12 -6 -8 -16 4 -12 0
-14 -19 -9 -17 4 -29 1 -39 -11 -12 -15 -11 -16 19 -10 21 5 32 4 32 -4 0 -7
6 -8 19 0 11 5 24 10 30 10 15 0 14 -30 -1 -31 -7 0 -32 -2 -56 -4 -24 -2 -46
-6 -50 -10 -10 -10 20 -25 50 -25 15 0 30 -4 33 -10 3 -5 13 -10 21 -10 8 0
14 5 14 10 0 6 -7 10 -15 10 -8 0 -15 7 -15 16 0 13 3 14 14 5 11 -10 21 -9
43 2 15 8 41 17 57 21 21 5 26 10 17 15 -10 7 -10 14 3 39 15 29 15 30 -7 26
-12 -2 -16 -2 -10 2 10 4 10 9 -1 20 -17 16 -32 17 -63 2z m42 -88 c-3 -5 -12
-10 -20 -10 -7 0 -15 -6 -18 -12 -2 -7 -7 -10 -11 -7 -14 13 7 39 31 39 13 0
21 -4 18 -10z"/>
<path d="M1366 1588 c3 -10 -1 -18 -13 -21 -15 -4 -15 -5 3 -6 24 -1 74 -37
74 -53 0 -6 -8 -17 -17 -24 -17 -12 -17 -13 0 -20 11 -4 24 0 35 10 9 9 26 24
37 32 19 15 12 15 -28 -1 -13 -5 -18 -3 -17 6 5 34 -2 47 -27 54 -15 3 -33 14
-40 23 -12 16 -13 16 -7 0z"/>
<path d="M2908 1530 c-27 -27 -44 -50 -38 -50 6 0 22 11 36 25 13 13 27 25 29
25 3 0 4 2 3 4 -2 2 6 13 16 25 39 43 2 19 -46 -29z"/>
<path d="M2983 1557 c-7 -15 -13 -34 -13 -41 0 -8 -7 -19 -15 -26 -8 -7 -15
-18 -15 -24 0 -6 14 4 31 22 23 25 30 40 27 64 l-3 33 -12 -28z"/>
<path d="M991 1551 c-22 -6 -22 -7 -7 -21 15 -12 19 -12 27 1 8 13 12 30 7 28
-2 -1 -14 -4 -27 -8z"/>
<path d="M2453 1497 c-31 -62 -53 -91 -53 -68 0 6 -5 11 -11 11 -8 0 -8 -5 1
-15 7 -8 9 -23 6 -32 -3 -11 4 -6 17 10 28 33 41 35 32 5 -9 -30 -45 -68 -63
-68 -12 0 -12 2 -1 17 13 15 12 15 -6 6 -11 -6 -29 -20 -39 -32 -10 -11 -23
-18 -27 -15 -5 3 -9 0 -9 -5 0 -6 -5 -11 -11 -11 -6 0 -1 13 10 29 28 38 26
46 -3 24 -13 -10 -22 -21 -20 -25 4 -6 -48 -39 -61 -38 -22 1 -25 -1 -20 -10
7 -12 84 -2 103 13 8 6 17 5 27 -3 14 -12 29 -11 69 6 13 5 17 4 13 -3 -4 -6
0 -13 8 -17 14 -5 19 5 16 32 -1 6 5 12 14 12 9 0 13 4 10 10 -4 6 -13 5 -25
-2 -11 -7 -22 -9 -26 -6 -10 11 6 28 27 28 10 0 19 7 19 15 0 21 1 27 11 53 6
17 5 22 -6 22 -15 0 -21 16 -7 22 23 10 48 55 43 77 -6 21 -10 16 -38 -42z
m-74 -181 c9 -11 6 -15 -14 -18 -28 -6 -27 -6 -19 16 8 20 18 20 33 2z"/>
<path d="M2545 1533 c4 -10 10 -28 12 -40 3 -12 11 -24 19 -27 11 -4 12 -1 4
14 -5 10 -10 30 -10 44 0 17 -5 26 -16 26 -12 0 -14 -5 -9 -17z"/>
<path d="M2405 1522 c-22 -8 -41 -16 -43 -17 -6 -5 22 -55 30 -55 5 0 4 9 -2
21 -13 24 -15 21 28 43 17 9 32 19 32 21 0 3 -1 5 -2 4 -2 -1 -21 -8 -43 -17z"/>
<path d="M1516 1501 c-3 -5 3 -11 14 -14 22 -6 39 -39 23 -44 -6 -2 -9 -13 -6
-23 4 -14 0 -20 -12 -20 -14 0 -15 -3 -5 -15 20 -24 27 -18 33 27 3 24 11 44
16 46 6 2 11 8 11 13 0 6 -4 8 -9 5 -5 -3 -20 3 -34 14 -14 11 -28 16 -31 11z"/>
<path d="M2297 1493 c-9 -2 -15 -9 -12 -14 4 -5 1 -9 -6 -9 -7 0 -10 -2 -7 -5
2 -3 22 4 43 15 36 19 28 25 -18 13z"/>
<path d="M2094 1469 c-4 -7 -21 -9 -46 -5 -39 6 -98 -10 -98 -26 0 -13 19 -9
46 8 19 13 28 14 37 5 9 -9 9 -14 -2 -20 -11 -7 -9 -10 8 -16 31 -9 26 -27 -6
-23 -22 2 -27 -1 -25 -14 2 -11 -3 -18 -13 -18 -8 0 -15 7 -15 15 0 8 -5 15
-11 15 -6 0 -17 -7 -25 -15 -16 -16 -49 -21 -40 -6 3 5 -2 12 -12 16 -22 8
-27 7 -27 -5 0 -6 -7 -15 -15 -20 -10 -6 0 -9 30 -8 30 0 47 -5 56 -16 7 -10
13 -13 16 -6 4 13 69 29 121 30 20 0 37 5 37 10 0 6 -12 8 -27 5 l-28 -6 30
25 30 26 -30 0 -30 1 28 15 c15 8 27 21 27 29 0 18 -6 19 -16 4z"/>
<path d="M256 1462 c-3 -6 2 -8 13 -5 10 3 29 0 41 -7 19 -10 41 -7 29 4 -10
11 -77 17 -83 8z"/>
<path d="M1630 1461 c0 -16 49 -26 63 -12 8 8 6 11 -10 11 -12 0 -28 3 -37 6
-9 3 -16 1 -16 -5z"/>
<path d="M2969 1443 c-27 -29 -44 -63 -31 -63 12 0 64 70 60 81 -2 5 -15 -3
-29 -18z"/>
<path d="M2703 1453 c-7 -3 -13 -16 -13 -29 0 -16 -6 -24 -17 -24 -13 0 -11
-4 7 -13 26 -14 51 0 27 15 -9 6 -9 12 1 29 15 23 13 29 -5 22z"/>
<path d="M1453 1431 c-26 -22 -29 -31 -9 -31 7 0 19 -7 26 -15 7 -8 20 -15 29
-15 14 1 14 2 -2 14 -17 13 -17 15 5 30 26 18 17 21 -14 5 -18 -9 -19 -8 -13
10 8 25 6 25 -22 2z"/>
<path d="M2791 1426 c-14 -14 -21 -29 -17 -33 9 -9 49 32 44 47 -2 6 -13 1
-27 -14z"/>
<path d="M2863 1428 c-30 -33 -65 -98 -52 -98 6 0 9 -7 5 -15 -6 -18 -2 -19
25 -4 13 6 18 16 15 26 -4 9 0 26 9 39 8 13 22 35 31 49 14 21 14 25 2 25 -8
0 -24 -10 -35 -22z"/>
<path d="M584 1413 c14 -14 30 -23 34 -19 3 4 -4 16 -18 26 -37 29 -47 24 -16
-7z"/>
<path d="M2502 1413 c-13 -11 -19 -24 -14 -27 11 -6 46 29 41 41 -2 4 -14 -2
-27 -14z"/>
<path d="M2627 1421 c3 -12 -8 -33 -31 -58 -20 -22 -33 -43 -29 -47 4 -3 -3
-15 -15 -26 -12 -12 -22 -25 -22 -30 0 -5 -10 -10 -22 -12 -27 -4 -36 -28 -11
-28 17 -1 17 -1 -1 -11 -14 -9 -20 -8 -26 1 -10 15 -81 -5 -77 -22 1 -6 -15
-16 -35 -22 -20 -6 -40 -14 -44 -18 -3 -4 7 -3 25 2 37 10 39 1 7 -29 -18 -17
-31 -21 -48 -16 -15 5 -20 4 -13 -3 18 -18 69 -21 95 -6 l25 15 -25 -6 c-24
-6 -24 -5 -6 9 11 9 25 16 30 16 6 0 4 5 -4 10 -12 7 -7 12 21 24 20 8 46 12
59 9 15 -4 21 -2 16 5 -8 13 2 19 37 26 14 2 34 9 44 15 14 8 11 9 -16 4 -33
-6 -33 -6 -15 16 10 11 23 21 29 21 5 0 3 -5 -5 -10 -8 -5 -10 -10 -5 -10 6 0
17 5 25 10 11 7 11 10 2 10 -7 0 -11 4 -8 9 4 5 -4 7 -16 3 -14 -3 -19 -1 -14
6 3 6 32 18 63 27 41 12 53 19 42 26 -12 7 -12 9 0 9 8 0 12 3 8 6 -3 4 -18
-3 -33 -15 -32 -25 -53 -28 -31 -3 8 9 18 29 22 44 4 15 13 33 21 39 12 10 12
14 2 20 -21 13 -27 10 -21 -10z"/>
<path d="M1603 1390 c-19 -23 -20 -30 -9 -46 7 -10 18 -32 24 -49 9 -25 11
-26 11 -8 1 28 -19 73 -32 73 -6 0 0 11 13 25 13 14 22 27 19 29 -2 2 -14 -9
-26 -24z"/>
<path d="M1673 1414 c4 -4 22 -13 40 -19 22 -7 31 -16 30 -29 0 -10 3 -14 8
-9 13 13 -1 53 -20 53 -9 0 -27 3 -41 7 -14 3 -21 2 -17 -3z"/>
<path d="M2542 1393 c-15 -26 -15 -53 -2 -53 11 0 24 43 18 62 -3 8 -9 5 -16
-9z"/>
<path d="M1059 1360 c-34 -17 -60 -25 -68 -20 -8 5 -21 0 -32 -11 -11 -11 -25
-19 -33 -19 -8 0 -18 -9 -21 -20 -3 -11 -11 -20 -16 -20 -5 0 -9 -7 -9 -15 0
-10 -6 -12 -17 -8 -16 6 -16 5 -4 -10 7 -9 10 -24 7 -33 -3 -8 1 -22 9 -31 8
-8 12 -20 8 -26 -5 -8 -9 -6 -11 6 -3 14 -7 16 -18 6 -7 -6 -11 -16 -7 -22 3
-5 1 -7 -4 -4 -6 4 -56 -24 -111 -61 -72 -49 -98 -72 -92 -82 9 -15 61 7 146
63 40 26 56 32 70 25 11 -5 8 -1 -6 10 -13 11 -28 18 -32 16 -4 -3 -5 2 -2 10
9 23 21 20 52 -11 15 -15 29 -26 32 -25 3 0 16 -2 29 -5 29 -7 43 13 28 39 -8
12 -20 18 -34 15 -19 -3 -23 0 -23 19 0 28 16 40 34 25 7 -6 16 -8 19 -4 4 3
7 -3 7 -15 0 -11 5 -24 10 -27 6 -4 10 -16 8 -28 -2 -16 3 -23 24 -27 14 -3
72 -39 128 -80 56 -41 131 -96 166 -122 36 -27 72 -48 81 -48 9 0 13 -6 10
-14 -4 -10 -1 -13 7 -10 7 3 19 -2 26 -11 7 -8 18 -15 25 -15 8 0 23 -12 35
-27 12 -16 25 -28 28 -28 15 0 102 -67 102 -77 0 -6 3 -9 6 -5 4 3 53 -29 110
-73 57 -44 104 -78 104 -76 0 1 -7 23 -16 49 -12 36 -26 52 -62 76 -79 50
-147 105 -150 121 -2 10 5 7 20 -8 30 -29 93 -79 151 -119 38 -26 49 -41 62
-85 21 -70 91 -128 153 -128 22 0 76 -5 119 -11 79 -11 106 -24 171 -87 l27
-26 -30 19 c-16 10 -46 30 -65 45 -22 17 -54 30 -85 34 l-50 7 45 -29 c25 -16
56 -41 69 -56 23 -24 31 -26 104 -26 l80 0 -88 61 c-69 49 -101 64 -149 74
-45 8 -76 22 -116 53 -30 23 -58 40 -62 39 -4 -1 -14 7 -23 18 -9 11 -13 14
-10 6 5 -9 -1 -8 -19 4 -27 18 -36 31 -13 20 18 -10 -33 31 -78 62 -22 15 -79
56 -127 91 -48 35 -92 61 -97 58 -5 -4 -13 -1 -17 5 -5 8 -2 10 7 5 8 -4 5 -1
-5 8 -10 8 -22 13 -27 11 -4 -3 -11 0 -15 6 -5 8 -3 9 7 4 32 -18 -10 15 -99
79 -93 66 -115 78 -93 52 7 -8 11 -32 8 -53 l-4 -38 -1 42 c-2 36 -6 45 -31
58 -17 8 -33 21 -37 27 -5 7 4 5 20 -5 15 -10 30 -17 32 -14 3 2 -11 14 -31
26 -20 11 -33 17 -30 11 3 -5 2 -10 -3 -10 -12 0 -39 41 -47 71 -10 38 -36 63
-135 132 -90 63 -93 64 -111 46 -11 -11 -28 -19 -38 -19 -11 0 -26 -3 -34 -6
-25 -9 -29 47 -5 73 12 12 25 20 30 17 5 -3 7 -1 6 4 -2 5 8 18 22 30 20 16
26 17 35 6 8 -11 21 -7 68 22 31 20 57 40 57 45 0 11 5 13 -61 -21z m23 -235
c4 0 13 -7 20 -16 7 -9 28 -26 46 -38 27 -19 72 -81 58 -81 -18 0 -62 24 -73
40 -8 11 -21 20 -29 20 -8 0 -14 9 -14 20 0 11 -6 20 -12 21 -7 0 -20 2 -28 4
-8 3 -22 6 -30 7 -24 6 -40 18 -40 33 0 20 31 23 65 6 17 -8 33 -15 37 -16z"/>
<path d="M1109 1347 c-19 -17 -52 -45 -73 -62 l-37 -30 117 -80 c95 -65 120
-87 134 -120 15 -33 43 -58 159 -140 78 -55 265 -188 416 -296 248 -177 280
-197 326 -203 42 -6 74 -23 182 -95 73 -49 152 -105 176 -125 51 -43 88 -65
76 -45 -5 7 -1 17 10 26 17 12 16 13 -14 13 -25 0 -32 4 -27 15 3 10 -1 15
-12 15 -22 0 -72 22 -72 32 0 4 4 10 10 13 20 13 9 21 -22 17 -28 -4 -30 -3
-25 17 4 18 2 21 -14 16 -13 -4 -35 5 -68 28 -26 19 -58 38 -70 42 -13 4 -20
12 -17 20 4 12 -26 27 -64 30 -71 6 -140 33 -93 36 12 1 10 4 -7 8 -40 11
-110 45 -110 54 0 4 11 7 25 7 31 0 33 19 3 22 -52 3 -108 18 -108 28 0 5 17
10 38 12 l37 4 -40 18 c-22 11 -58 21 -80 23 -21 2 -49 12 -60 23 -12 11 -26
20 -32 20 -7 0 -15 9 -18 20 -4 13 -15 20 -31 20 -13 0 -24 5 -24 10 0 6 11
10 25 10 14 0 25 -4 25 -9 0 -9 114 -27 140 -22 8 2 40 6 70 10 l55 8 -48 2
c-27 0 -58 -4 -70 -10 -16 -9 -22 -9 -25 0 -2 6 -14 11 -27 11 -13 0 -27 5
-30 11 -4 6 -32 9 -64 8 -62 -2 -94 8 -130 40 -13 12 -30 21 -38 21 -8 0 -11
5 -8 10 3 6 -2 10 -11 10 -16 0 -16 1 2 14 14 11 16 18 8 26 -8 8 -14 9 -18 1
-11 -17 -44 -13 -55 8 -6 10 -8 21 -5 23 2 3 -7 3 -21 1 -18 -4 -25 -1 -25 11
0 9 7 16 16 16 8 0 12 5 9 10 -5 8 -11 7 -21 -1 -24 -20 -128 38 -118 66 4 8
-6 16 -25 20 -17 4 -31 13 -31 21 0 8 -4 14 -10 14 -5 0 -10 5 -10 10 0 6 12
8 28 5 22 -4 20 -2 -12 14 -21 10 -33 20 -26 23 20 6 2 48 -21 48 -10 0 -19
-4 -19 -10 0 -10 15 -14 35 -10 6 1 4 -4 -2 -11 -20 -20 -107 32 -111 66 -3
19 -11 27 -32 32 -30 6 -64 33 -41 33 6 0 11 7 11 15 0 9 10 20 23 26 16 7 66
70 54 69 -1 0 -18 -15 -38 -33z"/>
<path d="M2710 1342 c-24 -13 -24 -14 -2 -9 17 4 22 2 19 -8 -4 -9 1 -11 14
-8 27 7 31 17 11 29 -12 7 -24 6 -42 -4z"/>
<path d="M2143 1333 c-18 -9 -33 -20 -33 -25 0 -12 29 -22 38 -13 4 4 1 10 -7
13 -10 3 -3 11 20 23 42 22 26 24 -18 2z"/>
<path d="M2925 1336 c-16 -6 -41 -22 -55 -35 l-25 -24 25 14 c14 7 28 12 31
11 4 0 22 3 40 8 32 9 33 8 14 -6 -19 -16 -19 -16 5 -9 37 11 45 22 27 39 -18
18 -21 18 -62 2z"/>
<path d="M2005 1329 c-4 -5 -16 -9 -27 -9 -21 0 -20 -2 7 -30 29 -30 77 -41
90 -20 3 6 2 10 -3 10 -14 0 -10 34 5 45 11 8 4 11 -26 12 -22 1 -43 -2 -46
-8z"/>
<path d="M664 1304 c3 -9 6 -18 6 -20 0 -2 9 -4 19 -4 11 0 23 -5 26 -10 4 -6
10 -8 14 -5 5 2 15 -3 23 -13 21 -23 32 -62 19 -62 -6 0 -20 10 -32 23 l-21
22 8 -25 c4 -14 8 -33 8 -42 0 -15 2 -16 16 -3 9 8 22 15 29 15 7 0 3 -9 -10
-20 l-24 -21 32 15 c17 9 35 20 38 26 14 22 -95 123 -122 113 -7 -3 -13 2 -13
11 0 9 -5 16 -11 16 -6 0 -8 -7 -5 -16z"/>
<path d="M2777 1294 c-6 -7 -74 -25 -97 -26 -8 -1 -24 -7 -35 -14 -15 -11 -16
-14 -4 -14 9 0 18 3 22 6 3 4 25 8 49 9 37 3 40 2 26 -9 -9 -7 -42 -19 -72
-26 -58 -14 -67 -33 -13 -26 38 5 87 26 87 38 0 4 6 8 14 8 7 0 19 7 26 15 10
12 9 15 -6 15 -16 1 -15 3 6 15 14 8 20 14 14 15 -6 0 -13 -3 -17 -6z"/>
<path d="M976 1275 c-9 -9 -16 -13 -16 -9 0 4 -13 -5 -30 -21 -33 -32 -41 -54
-12 -33 42 29 84 69 79 74 -2 3 -12 -2 -21 -11z"/>
<path d="M810 1251 c0 -10 11 -26 25 -35 27 -17 35 -7 11 14 -8 6 -12 18 -9
26 3 8 -1 14 -11 14 -9 0 -16 -8 -16 -19z"/>
<path d="M1278 1253 c-18 -5 -23 -15 -12 -26 7 -7 44 14 44 25 0 8 -4 9 -32 1z"/>
<path d="M2797 1236 c-61 -30 -69 -38 -26 -26 19 6 46 10 61 10 16 0 28 5 28
10 0 6 -6 10 -12 10 -9 0 -8 4 2 10 28 18 -5 9 -53 -14z"/>
<path d="M1950 1227 c-25 -7 -46 -18 -48 -26 -2 -9 3 -11 14 -7 9 3 28 9 42
12 15 4 32 11 38 16 13 9 44 1 44 -13 0 -4 -12 -19 -26 -32 l-26 -24 48 12
c29 7 51 9 55 3 3 -5 15 -5 30 1 l24 9 -24 9 c-23 9 -22 10 18 17 50 8 64 0
38 -19 -17 -12 -16 -13 2 -18 26 -6 61 19 61 44 0 12 -4 17 -11 13 -6 -3 -32
-8 -58 -9 -25 -2 -64 -6 -86 -11 -35 -6 -38 -5 -27 8 10 13 9 17 -10 22 -30 8
-44 7 -98 -7z"/>
<path d="M2934 1230 c-28 -4 -60 -12 -71 -18 -11 -6 -23 -9 -26 -6 -3 3 -36
-11 -73 -31 -38 -20 -62 -34 -54 -32 44 13 129 41 155 52 38 17 86 25 79 14
-7 -12 13 -11 37 1 18 10 27 31 12 29 -5 -1 -31 -5 -59 -9z"/>
<path d="M1460 1221 c-8 -6 -18 -7 -22 -5 -4 3 -16 0 -25 -5 -16 -9 -15 -10 7
-10 23 0 87 28 65 28 -5 1 -17 -3 -25 -8z"/>
<path d="M2918 1183 c-10 -2 -18 -8 -18 -13 0 -4 -16 -11 -36 -15 -20 -3 -43
-13 -51 -21 -8 -8 -26 -17 -41 -20 -47 -10 -72 -24 -32 -17 44 6 120 35 120
46 0 4 5 7 11 7 5 0 7 -4 4 -10 -10 -17 49 -15 75 2 11 7 7 8 -12 3 -21 -4
-28 -2 -28 10 0 8 6 15 14 15 8 0 18 5 21 10 6 10 2 11 -27 3z"/>
<path d="M29 1172 c11 -8 9 -11 -10 -15 -16 -3 -11 -5 16 -6 30 -1 36 -4 25
-11 -11 -7 -8 -10 16 -10 44 0 49 12 12 25 -18 7 -42 16 -53 20 -15 5 -16 4
-6 -3z"/>
<path d="M2621 1163 c-13 -3 -31 -12 -40 -21 -15 -15 -14 -15 4 -8 11 5 35 12
53 16 62 15 49 25 -17 13z"/>
<path d="M2960 1130 c-19 -11 -43 -19 -52 -20 -10 0 -18 -5 -18 -11 0 -8 15
-9 48 -4 26 4 48 8 48 8 4 5 15 47 12 47 -2 -1 -19 -9 -38 -20z"/>
<path d="M714 1113 c-7 -25 -8 -25 -20 -8 -12 16 -14 16 -14 3 0 -9 -12 -19
-27 -24 -21 -5 -24 -8 -10 -11 19 -5 24 -23 5 -23 -6 0 -9 -2 -6 -5 6 -7 118
65 118 75 0 7 -24 20 -36 20 -2 0 -7 -12 -10 -27z"/>
<path d="M2461 1119 c-13 -5 -21 -12 -18 -15 3 -3 14 -1 25 5 29 16 37 14 21
-6 -10 -11 -10 -14 -1 -9 6 4 12 3 12 -3 0 -5 -16 -15 -35 -22 -46 -17 -37
-24 12 -9 21 7 46 23 56 36 14 19 15 23 2 18 -8 -3 -15 -2 -15 3 0 12 -30 13
-59 2z"/>
<path d="M2240 1093 c0 -22 -2 -25 -10 -13 -5 8 -10 10 -10 4 0 -6 7 -17 15
-24 12 -10 15 -10 15 1 0 8 3 24 6 37 4 13 2 22 -5 22 -6 0 -11 -12 -11 -27z"/>
<path d="M256 1095 c4 -8 12 -15 20 -15 26 0 14 -17 -18 -28 -31 -9 -29 -10
27 -10 44 0 53 2 35 8 -14 4 -21 8 -16 9 11 1 -12 29 -35 42 -15 7 -17 6 -13
-6z"/>
<path d="M2640 1098 c-24 -10 -24 -10 -5 -18 16 -6 13 -9 -20 -15 -66 -11 -76
-16 -73 -33 2 -9 -5 -18 -15 -20 -11 -2 -27 -12 -38 -23 -21 -21 -18 -24 9
-10 9 5 32 15 51 22 19 7 29 15 23 17 -21 7 10 28 60 40 59 15 78 16 58 1 -11
-8 -9 -9 10 -3 45 12 58 23 28 24 -35 0 -59 10 -52 21 7 11 -4 11 -36 -3z"/>
<path d="M2153 1081 c-17 -11 -35 -17 -39 -13 -4 4 -5 0 -1 -9 4 -13 -7 -21
-49 -35 -59 -20 -73 -36 -21 -25 46 11 99 40 92 51 -4 6 0 10 8 10 8 0 22 9
32 20 23 25 18 25 -22 1z"/>
<path d="M1730 1072 c0 -6 6 -13 13 -16 6 -3 0 -4 -15 -1 -37 7 -88 -5 -88
-20 0 -8 -6 -16 -12 -19 -7 -3 -4 -4 7 -3 11 2 19 9 17 16 -1 7 1 10 6 7 14
-8 124 12 136 25 8 8 5 9 -12 4 -13 -4 -29 -2 -37 5 -9 8 -15 8 -15 2z"/>
<path d="M2310 1072 c-26 -4 -40 -18 -40 -41 0 -10 8 -7 25 9 20 19 28 21 38
11 9 -9 9 -14 -3 -21 -13 -9 -13 -11 0 -20 12 -8 13 -11 1 -19 -11 -7 -11 -9
0 -13 10 -3 8 -11 -7 -30 -21 -29 -52 -41 -81 -32 -15 5 -15 4 -3 -5 20 -14
90 -14 90 0 0 8 4 8 14 0 19 -16 72 -17 90 -2 8 7 20 11 28 10 27 -3 49 1 44
10 -6 10 16 21 42 21 30 0 -24 -39 -69 -49 -23 -5 -46 -15 -53 -21 -8 -10 -6
-10 11 -1 12 6 30 11 40 11 17 -1 16 -2 -2 -16 -12 -10 -32 -14 -51 -11 -17 3
-37 1 -45 -4 -10 -6 -10 -9 -1 -9 22 0 12 -20 -10 -20 -13 0 -29 -4 -36 -9
-10 -6 -8 -10 10 -14 36 -10 46 -8 50 9 2 10 24 24 55 34 38 12 50 13 46 4 -3
-7 -13 -16 -23 -19 -12 -4 -16 -12 -13 -24 3 -13 -2 -21 -16 -26 -12 -3 -21
-11 -21 -16 0 -15 32 -10 52 8 12 10 22 13 26 8 12 -17 71 -33 94 -27 21 5 22
4 9 -12 -9 -11 -23 -15 -35 -12 -20 5 -46 -9 -46 -25 0 -5 13 -6 30 -3 46 10
123 -5 116 -21 -9 -24 13 -27 40 -6 23 18 24 21 8 22 -13 0 -9 4 11 11 17 6
32 14 35 18 3 5 16 10 30 12 25 3 25 3 -5 14 -36 13 -90 0 -65 -16 19 -12 13
-17 -34 -25 -37 -7 -38 -7 -27 14 6 11 23 24 36 27 13 3 28 11 34 17 13 17
-55 20 -116 7 -33 -8 -49 -8 -51 -1 -2 6 -14 8 -28 5 -28 -7 -31 3 -6 23 15
12 14 13 -13 8 -16 -3 -24 -2 -17 1 6 3 10 9 7 14 -3 4 2 13 10 20 18 15 20
44 3 35 -7 -4 -4 0 6 9 10 8 24 13 30 9 6 -3 8 -3 4 1 -13 15 57 63 102 72
l45 8 -35 6 -35 6 43 5 c32 3 41 1 38 -8 -7 -17 4 -16 47 2 20 8 51 15 69 16
27 0 29 2 13 8 -11 5 -49 7 -85 5 -36 -1 -53 0 -37 2 15 3 27 10 27 15 0 15
-26 10 -53 -11 -14 -11 -33 -20 -43 -20 -16 0 -16 1 1 20 10 11 13 20 7 20
-14 0 -62 -47 -62 -61 0 -19 -46 -32 -69 -20 -16 9 -21 9 -21 0 0 -7 -8 -18
-17 -25 -21 -16 -57 -19 -48 -4 9 14 -7 12 -30 -4 -11 -7 -31 -16 -45 -20
l-25 -7 25 22 25 22 -27 -7 c-16 -3 -28 -2 -28 2 0 12 34 42 46 42 6 0 19 7
30 16 18 14 18 15 -4 4 -12 -6 -32 -8 -44 -4 -19 6 -18 8 17 39 l37 33 -35 -8
c-20 -4 -39 -4 -44 -1 -4 4 -19 5 -33 3z m370 -295 c0 -12 -50 -60 -56 -54 -4
4 -2 7 6 7 10 0 10 3 1 14 -10 11 -8 17 6 25 17 10 43 15 43 8z"/>
<path d="M2813 1070 c-24 -4 -46 -10 -50 -14 -5 -4 6 -5 22 -1 19 4 25 3 17
-3 -20 -14 88 -35 119 -22 20 8 18 9 -16 5 l-40 -5 47 17 c26 10 50 21 54 26
15 15 -42 6 -85 -13 -51 -23 -63 -25 -37 -5 26 19 20 22 -31 15z"/>
<path d="M903 1054 c20 -21 228 -159 238 -159 5 0 15 -9 24 -20 9 -11 13 -13
9 -5 -7 13 -5 13 9 1 9 -7 14 -17 11 -22 -5 -8 9 -13 28 -10 4 0 23 -15 42
-34 20 -19 44 -35 55 -35 28 0 91 -57 84 -76 -4 -10 2 -14 22 -14 18 0 24 -4
19 -12 -4 -7 -4 -10 1 -6 10 9 27 -3 250 -177 224 -174 254 -198 235 -190 -8
4 -6 -1 4 -9 11 -9 34 -16 50 -16 18 0 26 -4 19 -8 -8 -5 2 -15 28 -30 21 -12
39 -20 39 -17 0 8 -66 65 -108 94 -78 53 -227 175 -224 183 1 5 -2 7 -7 4 -5
-4 -26 11 -47 31 -20 21 -34 31 -30 23 5 -8 -4 -1 -19 15 -14 17 -23 24 -20
17 6 -11 3 -11 -13 -1 -12 7 -19 16 -16 20 5 8 -207 164 -257 190 -17 8 -29
18 -27 22 1 3 -29 28 -69 56 -39 28 -74 55 -78 60 -3 6 -12 8 -19 5 -7 -3 -19
3 -27 13 -13 17 -13 17 6 3 11 -8 7 0 -8 17 -34 36 -117 79 -171 87 -21 3 -36
3 -33 0z"/>
<path d="M870 1043 c0 -5 7 -21 15 -37 13 -24 13 -31 3 -38 -8 -4 6 -8 34 -8
26 0 50 5 53 10 4 6 -8 10 -28 10 -30 0 -34 3 -30 20 4 14 0 20 -11 20 -9 0
-16 7 -16 15 0 8 -4 15 -10 15 -5 0 -10 -3 -10 -7z"/>
<path d="M2185 1031 c-22 -10 -46 -25 -54 -34 -12 -15 -10 -17 18 -17 17 0 31
4 31 9 0 5 -9 7 -20 4 -11 -3 -20 -3 -20 1 0 10 60 37 70 31 9 -5 26 13 18 20
-2 2 -21 -4 -43 -14z"/>
<path d="M807 1008 c-6 -41 5 -62 14 -28 l7 25 7 -22 c4 -13 11 -23 16 -23 12
0 11 5 -5 45 -19 44 -32 45 -39 3z"/>
<path d="M55 1020 c-3 -5 3 -10 14 -10 10 0 25 -2 33 -3 7 -2 10 -2 5 0 -4 3
-5 9 -1 14 3 5 -6 9 -20 9 -14 0 -28 -4 -31 -10z"/>
<path d="M300 1017 c19 -7 34 -18 33 -24 -1 -6 9 -13 22 -16 l25 -4 -24 23
c-13 13 -38 26 -57 29 l-34 6 35 -14z"/>
<path d="M545 1010 c8 -13 45 -13 65 0 11 7 3 10 -28 10 -26 0 -41 -4 -37 -10z"/>
<path d="M2948 1012 c21 -14 -60 -33 -128 -31 -69 2 -88 -5 -37 -15 44 -8 179
11 189 26 7 12 -8 28 -27 28 -5 0 -4 -4 3 -8z"/>
<path d="M1647 981 c-44 -15 -46 -17 -25 -26 13 -6 22 -17 20 -24 -2 -10 4
-11 25 -6 15 4 46 9 68 9 54 3 137 17 131 23 -3 3 -30 11 -60 18 -44 10 -54
10 -50 0 3 -7 -5 -14 -20 -17 -19 -4 -24 -1 -21 13 5 25 -14 28 -68 10z"/>
<path d="M100 981 c-22 -4 -29 -9 -20 -12 8 -3 33 0 55 6 42 14 24 17 -35 6z"/>
<path d="M515 970 l40 -7 -40 -2 c-38 -3 -39 -3 -12 -11 17 -5 40 -4 60 2 27
10 29 12 11 19 -10 4 -37 7 -59 7 l-40 -1 40 -7z"/>
<path d="M368 963 c-25 -4 -40 -22 -20 -24 4 0 14 -2 22 -4 45 -11 63 -14 50
-9 -29 13 -30 29 -2 35 26 6 26 7 2 6 -14 0 -37 -2 -52 -4z"/>
<path d="M30 954 c8 -3 25 -10 37 -16 13 -6 26 -8 30 -5 10 11 -2 18 -43 23
-22 2 -32 2 -24 -2z"/>
<path d="M2655 953 c-48 -7 -54 -23 -9 -23 l39 -1 -45 -25 -45 -24 80 4 c44 2
94 6 112 9 33 6 73 24 73 33 0 2 -9 0 -21 -6 -11 -6 -39 -13 -62 -15 -23 -2
-60 -7 -82 -10 -39 -6 -39 -5 -15 9 14 9 36 16 50 16 20 0 22 2 10 10 -8 5
-10 10 -5 11 6 0 1 4 -10 9 -21 9 -24 9 -70 3z"/>
<path d="M633 933 c-29 -2 -53 -7 -53 -11 0 -13 91 -10 118 4 21 11 23 13 7
12 -11 -1 -44 -3 -72 -5z"/>
<path d="M1550 930 l-35 -7 35 -1 c19 0 44 3 55 8 20 9 20 9 0 8 -11 0 -36 -4
-55 -8z"/>
<path d="M2900 928 l-25 -10 29 -9 c17 -5 32 -6 35 -4 2 3 -2 5 -10 5 -8 1 0
7 16 15 29 13 29 13 5 14 -14 0 -36 -5 -50 -11z"/>
<path d="M310 920 c19 -9 21 -13 10 -20 -10 -6 -3 -10 24 -15 20 -4 40 -5 43
-1 4 3 -4 6 -17 6 -23 0 -23 0 -4 15 16 12 16 14 3 15 -9 0 -32 2 -50 5 -31 5
-32 5 -9 -5z"/>
<path d="M1935 916 c11 -8 16 -16 10 -17 -5 0 22 -9 60 -20 76 -20 215 -26
215 -8 0 7 -16 8 -45 3 -26 -3 -51 -2 -58 3 -6 6 -32 10 -57 10 -25 0 -63 8
-85 19 -60 27 -62 28 -40 10z"/>
<path d="M1000 900 l-35 -7 35 -3 c45 -3 63 -1 75 11 10 10 -22 10 -75 -1z"/>
<path d="M713 893 c-22 -8 -14 -23 11 -23 13 0 26 7 30 15 5 15 -15 19 -41 8z"/>
<path d="M2845 881 c-25 -5 -27 -8 -12 -14 22 -8 67 1 67 14 0 10 -10 10 -55
0z"/>
<path d="M540 871 c25 -5 61 -12 80 -15 27 -6 31 -5 18 3 -9 6 -45 13 -80 16
-55 3 -57 3 -18 -4z"/>
<path d="M1077 873 c-16 -15 -5 -24 22 -18 25 5 30 3 33 -16 4 -26 17 -33 38
-19 13 8 10 14 -15 35 -29 23 -65 32 -78 18z"/>
<path d="M1705 871 c-27 -6 -28 -8 -9 -14 23 -8 54 0 54 14 0 10 -1 10 -45 0z"/>
<path d="M384 854 c-18 -15 -18 -15 11 -9 37 8 57 25 29 25 -11 0 -29 -7 -40
-16z"/>
<path d="M2667 850 c-6 -24 -52 -28 -65 -4 -8 14 -10 14 -22 -1 -11 -13 -10
-15 3 -10 8 4 18 2 22 -4 11 -19 53 -12 82 14 26 23 27 24 7 25 -13 0 -24 -8
-27 -20z"/>
<path d="M2805 853 c-33 -8 -42 -23 -13 -23 14 0 31 7 38 15 13 15 10 16 -25
8z"/>
<path d="M410 829 c0 -14 100 -13 114 1 6 6 -12 9 -52 7 -34 -1 -62 -5 -62 -8z"/>
<path d="M695 830 c-4 -7 12 -10 44 -9 28 1 48 6 45 11 -7 12 -82 10 -89 -2z"/>
<path d="M1748 832 c-10 -2 -18 -10 -18 -17 0 -15 44 -12 85 5 11 5 29 11 40
14 24 5 -82 4 -107 -2z"/>
<path d="M1945 820 c17 -7 17 -9 3 -9 -10 -1 -18 -6 -18 -12 0 -8 -15 -9 -45
-5 -41 7 -45 5 -45 -13 0 -14 6 -21 18 -21 28 1 113 26 112 33 -1 21 2 26 18
30 9 3 -1 5 -23 5 -31 0 -35 -1 -20 -8z"/>
<path d="M2080 820 c-14 -5 -43 -12 -65 -16 l-40 -7 34 -9 c22 -6 37 -6 44 1
6 6 19 11 29 11 10 0 18 4 18 10 0 5 7 7 15 4 8 -4 15 -1 15 5 0 13 -14 13
-50 1z"/>
<path d="M296 804 c-4 -11 4 -12 38 -8 27 4 46 2 50 -5 5 -7 -6 -11 -34 -11
-26 0 -39 -4 -35 -10 4 -6 15 -8 25 -5 11 3 36 1 57 -4 22 -6 39 -7 43 -1 3 4
14 8 24 7 10 -1 21 4 23 11 3 7 -5 12 -22 12 -14 0 -34 4 -44 10 -31 16 -119
19 -125 4z"/>
<path d="M1203 803 c-7 -3 -13 -9 -13 -15 0 -6 7 -8 15 -4 9 3 15 0 15 -9 0
-9 10 -15 24 -15 27 0 42 -15 26 -25 -5 -3 -10 -13 -10 -22 0 -14 3 -14 20 2
19 18 20 17 20 -3 0 -11 -4 -24 -10 -27 -5 -3 -10 -11 -10 -17 0 -6 8 -4 18 5
28 25 45 21 40 -8 -3 -14 -1 -28 3 -31 5 -3 9 4 9 15 0 12 5 21 12 21 23 0 79
-45 85 -68 4 -18 11 -22 26 -18 14 3 29 -5 48 -26 16 -16 29 -34 29 -39 0 -5
7 -9 16 -9 33 0 84 -40 84 -66 0 -15 7 -27 18 -30 9 -3 25 -10 34 -15 10 -5
24 -9 32 -9 17 0 39 -33 56 -85 7 -22 20 -49 30 -60 9 -11 25 -42 35 -70 10
-27 26 -61 37 -74 22 -29 23 -20 1 22 -9 18 -18 45 -20 61 -1 16 -9 37 -16 45
-33 42 -46 81 -27 81 17 0 110 -71 110 -84 0 -6 16 -20 36 -31 20 -11 43 -30
51 -42 9 -13 22 -23 30 -23 8 0 20 -6 27 -13 9 -8 44 -12 115 -11 56 0 104 -3
107 -8 7 -11 44 -10 44 2 0 6 12 10 28 10 21 0 24 -2 12 -10 -17 -11 -5 -40
20 -48 7 -3 10 0 6 7 -4 6 -2 11 3 11 6 0 10 6 8 13 -1 8 19 13 70 15 48 2 73
7 76 16 8 21 -68 27 -273 20 l-185 -6 -150 113 c-288 218 -429 324 -539 409
-164 127 -210 158 -223 153z"/>
<path d="M2788 803 c6 -2 10 -9 6 -14 -3 -5 2 -9 10 -9 9 0 16 4 16 9 0 5 10
12 23 14 12 2 2 5 -23 5 -25 0 -39 -2 -32 -5z"/>
<path d="M615 781 c-25 -7 -27 -9 -7 -10 13 0 20 -5 17 -11 -3 -5 -1 -10 4
-10 6 0 11 5 11 10 0 6 5 10 11 10 5 0 8 -4 5 -9 -5 -8 155 -23 163 -15 2 2
-13 11 -35 20 -45 20 -125 26 -169 15z"/>
<path d="M2888 776 c-10 -7 -14 -16 -10 -21 4 -4 -9 -5 -28 -1 -29 5 -32 4
-14 -5 16 -8 32 -7 65 5 35 12 39 15 19 16 -23 1 -23 2 -5 10 13 6 15 9 5 9
-8 0 -23 -6 -32 -13z"/>
<path d="M857 767 c14 -6 31 -6 50 1 26 9 24 10 -22 10 -41 -1 -46 -3 -28 -11z"/>
<path d="M2170 769 c0 -4 15 -6 33 -4 l32 4 -28 -15 c-16 -9 -36 -13 -45 -9
-13 5 -14 3 -6 -5 14 -14 96 8 91 24 -4 12 -77 17 -77 5z"/>
<path d="M473 728 c12 -9 24 -13 25 -8 2 6 18 10 35 11 76 2 75 15 0 14 -80 0
-82 -1 -60 -17z"/>
<path d="M2360 740 c-15 -5 -18 -8 -8 -9 9 -1 23 -4 31 -7 8 -3 17 2 20 10 7
17 -3 19 -43 6z"/>
<path d="M350 725 c19 -22 6 -29 -31 -16 -18 6 -41 11 -53 10 -20 0 -20 -1 2
-10 13 -5 21 -13 18 -18 -3 -5 3 -11 14 -14 11 -3 20 -1 20 5 0 5 9 6 20 3 12
-4 20 -2 20 5 0 6 8 10 18 9 41 -4 45 2 14 21 -39 24 -60 27 -42 5z"/>
<path d="M2956 733 c-4 -5 -22 -13 -39 -19 l-32 -11 41 -4 c32 -3 40 -1 36 9
-3 8 1 18 9 23 8 5 9 9 3 9 -6 0 -14 -3 -18 -7z"/>
<path d="M2783 723 c9 -2 14 -9 11 -15 -5 -7 -2 -8 6 -3 7 4 16 2 20 -5 4 -7
16 -9 29 -5 33 10 4 31 -44 32 -22 0 -32 -2 -22 -4z"/>
<path d="M798 708 c19 -12 20 -15 7 -28 -13 -13 -9 -15 31 -15 30 0 50 6 58
16 7 11 27 16 61 17 28 0 57 0 65 1 8 1 24 0 35 -1 11 -2 20 2 20 7 0 6 -24 9
-55 8 -30 -1 -79 -2 -109 -2 -47 0 -52 -2 -41 -16 11 -13 9 -15 -14 -15 -16 0
-26 5 -26 15 0 8 -4 15 -9 15 -5 0 -18 3 -28 6 -12 3 -10 1 5 -8z"/>
<path d="M36 685 c-3 -10 1 -15 13 -15 10 0 24 7 31 15 11 13 9 15 -13 15 -14
0 -27 -7 -31 -15z"/>
<path d="M440 685 c0 -11 20 -60 44 -110 46 -97 96 -237 96 -272 0 -26 20 -75
34 -85 6 -4 16 -2 23 4 10 8 13 6 14 -8 1 -11 5 -6 12 14 12 39 6 48 -22 32
-16 -8 -21 -8 -21 3 0 7 6 19 13 26 7 9 7 11 1 8 -14 -8 -24 14 -24 48 0 13
-4 26 -9 29 -4 3 -11 23 -15 43 -3 21 -12 50 -20 65 -8 15 -13 39 -10 52 3 21
1 23 -18 18 -17 -4 -20 -2 -15 12 4 10 1 19 -8 22 -27 11 -16 26 14 22 38 -6
30 8 -9 17 -16 4 -29 10 -29 13 3 20 -3 32 -16 32 -7 0 -19 8 -24 18 -10 16
-10 15 -11 -3z"/>
<path d="M610 693 c8 -3 18 -10 21 -15 7 -10 39 0 39 13 0 5 -17 9 -37 8 -21
0 -31 -3 -23 -6z"/>
<path d="M2489 666 c-15 -17 -33 -26 -53 -27 -30 0 -31 0 -7 -10 28 -11 92 8
70 21 -8 6 -6 11 7 18 10 6 16 14 12 17 -4 4 -17 -5 -29 -19z"/>
<path d="M382 668 c-19 -19 -15 -40 6 -34 14 5 20 -2 29 -34 7 -26 7 -40 0
-40 -5 0 2 -11 17 -25 14 -13 26 -32 27 -42 5 -92 26 -180 51 -208 4 -5 8 -27
9 -50 1 -43 16 -104 18 -72 1 14 8 18 33 15 24 -2 39 -12 56 -38 l24 -35 -7
40 c-7 39 -25 72 -25 46 0 -7 -5 -9 -12 -4 -7 4 -26 6 -42 4 -26 -3 -28 -1
-22 22 4 16 -5 59 -23 114 -16 48 -32 108 -36 132 -4 24 -18 59 -31 79 -13 19
-24 43 -24 52 0 17 -27 90 -33 90 -2 0 -8 -5 -15 -12z"/>
<path d="M249 655 c-8 -30 22 -55 65 -55 20 1 20 2 -6 24 -15 13 -24 27 -21
30 4 3 -3 6 -15 6 -12 0 -23 -2 -23 -5z"/>
<path d="M2063 636 c-29 -11 -53 -27 -53 -33 0 -18 11 -16 40 7 14 11 43 20
65 21 24 1 31 3 17 6 -12 2 -20 9 -17 14 4 5 5 8 3 8 -2 -1 -27 -11 -55 -23z"/>
<path d="M2793 654 c-7 -3 -10 -11 -7 -19 3 -7 -7 -21 -25 -31 -16 -10 -28
-21 -25 -26 3 -4 -2 -11 -10 -14 -9 -3 -16 -13 -16 -21 0 -8 -10 -28 -21 -45
-17 -24 -27 -29 -50 -26 -16 3 -29 1 -29 -4 0 -4 9 -8 19 -8 11 0 22 -4 25 -9
8 -13 66 40 66 59 0 17 51 60 71 60 8 0 9 3 0 13 -14 18 11 42 54 53 26 6 27
8 10 15 -23 9 -45 10 -62 3z"/>
<path d="M885 638 c-2 -7 -9 -33 -14 -57 l-9 -43 28 33 c23 28 25 35 13 42
-11 7 -12 12 -2 23 8 10 9 14 0 14 -6 0 -14 -6 -16 -12z"/>
<path d="M2637 629 c-27 -11 -55 -26 -64 -34 -8 -8 -22 -15 -32 -15 -10 0 -35
-16 -57 -35 -28 -25 -34 -35 -21 -35 9 0 17 4 17 8 0 5 11 14 24 20 18 8 27 7
40 -6 14 -14 16 -14 16 -1 0 8 13 30 28 48 25 30 31 32 50 22 12 -6 22 -17 22
-24 0 -7 12 -12 28 -11 18 0 27 6 27 17 0 9 9 23 20 32 18 14 16 14 -19 0 -22
-8 -40 -14 -42 -12 -5 5 11 24 31 35 20 11 20 11 0 11 -11 0 -42 -9 -68 -20z"/>
<path d="M200 620 c0 -5 9 -24 20 -42 l20 -33 0 30 c0 19 -7 35 -20 43 -11 7
-20 8 -20 2z"/>
<path d="M353 605 c-9 -10 -8 -17 8 -31 18 -16 19 -16 19 9 0 31 -11 40 -27
22z"/>
<path d="M2827 568 c-32 -17 -57 -32 -55 -33 6 -7 138 19 138 26 0 4 -7 10
-16 13 -8 3 -12 10 -9 16 8 12 11 14 -58 -22z"/>
<path d="M285 528 c4 -35 20 -97 34 -138 36 -98 45 -134 31 -125 -5 3 0 -11
12 -31 12 -20 27 -66 33 -102 12 -79 32 -94 27 -22 -4 47 -2 50 20 51 23 1 23
1 -3 10 -28 10 -40 31 -74 126 l-23 62 26 -17 c22 -14 20 -8 -18 52 -29 45
-39 70 -32 75 8 5 9 17 1 44 -5 21 -7 47 -4 57 5 16 2 20 -15 20 -21 0 -22 -3
-15 -62z"/>
<path d="M180 574 c0 -4 8 -13 18 -20 14 -10 15 -15 5 -25 -19 -19 -16 -29 7
-29 12 0 20 -7 20 -17 1 -17 1 -17 11 0 8 14 5 27 -15 58 -23 34 -46 51 -46
33z"/>
<path d="M2227 531 c-2 -10 3 -23 14 -29 26 -17 48 -15 27 2 -10 7 -18 18 -18
24 0 20 -18 22 -23 3z"/>
<path d="M36 522 c-3 -4 7 -8 22 -8 16 1 26 -4 25 -11 -2 -7 4 -13 12 -13 20
0 19 26 -1 34 -22 8 -52 7 -58 -2z"/>
<path d="M920 521 c-15 -4 -20 -10 -13 -14 6 -4 26 0 44 8 36 15 16 19 -31 6z"/>
<path d="M688 508 c-16 -5 -28 -17 -28 -26 0 -9 -3 -28 -6 -42 -5 -24 -5 -24
10 -6 9 11 16 27 16 36 0 25 73 45 100 28 30 -19 36 -49 14 -65 -21 -16 -25
-34 -9 -46 5 -5 -4 -6 -22 -3 -25 4 -33 2 -33 -9 0 -8 -10 -20 -22 -26 -38
-20 -50 -36 -33 -43 8 -3 21 4 29 16 8 11 19 17 24 14 6 -3 12 1 16 9 3 8 12
12 20 9 8 -3 17 -1 21 5 19 31 30 3 45 -109 5 -36 12 -80 16 -97 5 -29 4 -33
-15 -33 -12 0 -21 6 -21 14 0 8 -5 18 -11 22 -8 5 -10 -1 -6 -18 8 -31 -9 -84
-29 -92 -8 -3 -14 -15 -14 -26 0 -22 28 -26 65 -10 16 7 12 9 -20 9 l-39 1 24
17 c13 9 40 20 59 24 l36 7 -40 1 c-30 1 -36 4 -25 11 8 5 29 10 45 10 17 0
37 5 45 11 11 8 9 9 -10 3 -22 -6 -23 -5 -11 10 11 13 11 16 0 17 -8 1 4 7 26
14 28 9 33 14 18 14 -23 1 -27 19 -8 33 6 5 5 8 -2 8 -26 0 -12 19 22 30 19 6
33 16 30 21 -3 4 15 14 40 20 31 8 42 15 34 20 -10 6 -9 10 5 15 13 5 14 9 5
15 -8 5 0 13 26 23 20 9 43 16 50 16 6 0 15 3 19 8 12 11 150 9 159 -3 4 -6
10 -5 17 5 6 10 6 16 0 18 -6 2 -8 8 -4 13 7 12 54 12 54 -1 0 -5 21 -7 50 -3
46 5 50 4 50 -16 0 -18 6 -21 40 -21 27 0 39 -4 37 -12 -1 -9 14 -13 47 -14
39 -1 50 -4 52 -18 3 -23 7 -27 33 -29 21 -1 21 -2 5 -14 -17 -12 -16 -13 3
-13 35 0 35 16 2 55 -17 20 -31 47 -31 61 -1 30 -22 27 -26 -4 -4 -26 -19 -28
-50 -6 -20 14 -22 41 -2 29 5 -3 11 -1 15 5 6 9 -8 14 -28 11 -4 -1 -10 6 -13
14 -5 12 -12 9 -30 -16 l-23 -32 -12 26 c-15 33 -24 36 -80 28 -26 -4 -56 -4
-68 1 -13 5 -31 4 -42 -3 -15 -7 -24 -7 -35 2 -9 8 -14 8 -14 0 0 -13 -55 -43
-73 -39 -6 1 -23 -2 -36 -6 -16 -5 -26 -4 -31 4 -12 19 -39 5 -50 -25 -6 -15
-15 -23 -21 -20 -6 4 -17 -2 -25 -14 -8 -12 -23 -21 -33 -21 -10 0 -21 -9 -24
-20 -3 -11 -12 -20 -21 -20 -9 0 -16 -5 -16 -11 0 -6 -8 -21 -18 -34 l-19 -23
-16 28 c-27 44 -23 62 11 50 l27 -10 -22 19 c-13 11 -23 23 -23 28 0 4 -10 14
-21 21 -19 12 -21 20 -16 72 3 40 1 60 -6 63 -9 3 -9 9 -1 23 10 18 7 19 -45
21 -31 1 -68 -3 -83 -9z"/>
<path d="M1785 486 c60 -52 190 -150 176 -133 -7 9 -48 43 -89 75 -90 68 -129
94 -87 58z"/>
<path d="M2810 458 c0 -20 5 -40 10 -43 13 -8 13 45 0 65 -7 11 -10 6 -10 -22z"/>
<path d="M155 457 c54 -21 62 -31 73 -92 7 -33 19 -66 27 -74 17 -18 21 -1 6
27 -4 9 -11 37 -15 61 -6 39 -5 43 12 39 15 -4 18 -1 15 13 -3 10 -11 15 -19
12 -8 -3 -25 2 -39 11 -13 9 -39 16 -57 15 l-33 -1 30 -11z"/>
<path d="M1169 439 c-25 -25 -17 -39 9 -16 10 10 24 17 30 17 6 0 14 5 17 10
12 19 -35 10 -56 -11z"/>
<path d="M907 443 c-4 -3 -19 -6 -35 -5 -26 0 -27 -2 -24 -38 4 -34 7 -38 38
-43 45 -8 101 2 116 20 10 12 7 13 -18 8 -16 -4 -34 -8 -40 -10 -6 -2 -24 3
-39 11 -32 17 -38 17 -30 4 3 -5 1 -10 -4 -10 -6 0 -11 4 -11 9 0 13 22 29 53
36 15 4 30 11 33 16 6 10 -29 12 -39 2z"/>
<path d="M2553 413 c3 -10 8 -30 11 -45 4 -16 10 -28 15 -28 4 0 4 20 -2 45
-6 25 -14 45 -19 45 -5 0 -7 -8 -5 -17z"/>
<path d="M165 385 c4 -11 11 -35 17 -52 5 -18 11 -33 13 -33 10 0 -9 77 -23
90 -13 13 -14 13 -7 -5z"/>
<path d="M2783 375 c-39 -17 -45 -29 -7 -15 14 6 37 10 50 10 14 0 22 4 19 10
-8 13 -23 12 -62 -5z"/>
<path d="M1974 372 c4 -6 39 -34 78 -62 59 -41 79 -50 112 -49 36 0 39 2 23
12 -10 7 -46 32 -79 56 -39 27 -76 45 -101 49 -28 3 -38 2 -33 -6z"/>
<path d="M80 361 c0 -4 11 -13 25 -19 27 -12 28 -15 25 -79 -1 -24 2 -43 7
-43 4 0 9 26 11 58 2 58 2 58 -33 75 -19 9 -35 13 -35 8z"/>
<path d="M1983 333 c4 -6 29 -28 57 -49 27 -21 50 -44 50 -51 0 -10 33 -13
143 -14 78 0 159 -2 180 -5 33 -3 49 7 29 20 -4 2 -84 7 -177 11 -142 5 -173
8 -190 23 -36 32 -99 76 -92 65z"/>
<path d="M316 238 c1 -51 9 -122 17 -158 14 -62 15 -63 17 -25 1 22 1 54 0 70
-2 36 -29 197 -34 202 -1 2 -2 -38 0 -89z"/>
<path d="M735 314 c-18 -13 -14 -51 4 -39 12 7 23 -28 15 -49 -4 -11 -1 -16
11 -16 9 0 13 5 9 11 -3 6 -1 15 6 19 16 10 4 87 -14 87 -7 0 -21 -6 -31 -13z"/>
<path d="M1420 298 c-14 -5 -56 -11 -94 -13 -65 -4 -106 -15 -55 -15 47 0 65
-36 23 -46 -30 -8 -44 3 -24 17 12 9 11 10 -4 5 -11 -4 -35 -9 -55 -12 -20 -3
-43 -10 -51 -16 -10 -6 25 -8 103 -4 64 2 117 2 117 0 0 -3 -10 -9 -22 -14
-23 -9 -23 -9 3 -9 14 -1 30 -6 36 -12 8 -8 17 -8 33 1 15 8 20 8 16 1 -4 -6
0 -11 8 -11 9 0 16 4 16 8 0 13 117 35 154 28 20 -4 37 -2 41 4 3 5 0 10 -7
10 -10 0 -10 2 -1 8 7 5 -10 13 -44 21 -40 9 -58 10 -66 2 -8 -8 -4 -11 13
-11 32 0 17 -12 -33 -27 -32 -9 -43 -10 -49 0 -6 9 -12 9 -28 0 -24 -16 -60
-17 -60 -3 0 6 -10 15 -22 20 -22 8 -22 9 5 9 27 1 40 21 12 21 -8 0 -15 4
-15 9 0 5 21 9 46 8 25 0 49 5 52 10 4 6 16 13 27 16 12 3 6 5 -15 5 -19 0
-46 -4 -60 -10z"/>
<path d="M1165 283 c-17 -2 -36 -12 -42 -22 -10 -16 -8 -17 13 -13 13 2 21 8
18 13 -3 5 5 9 18 9 13 0 30 5 38 10 17 11 16 11 -45 3z"/>
<path d="M1427 243 c-9 -2 -15 -9 -11 -14 4 -6 11 -6 20 2 9 7 30 9 57 5 29
-4 38 -3 27 4 -15 10 -60 11 -93 3z"/>
<path d="M1016 218 c-19 -21 -19 -21 10 -13 16 4 47 11 69 15 22 4 30 8 19 9
-12 0 -34 3 -50 6 -21 3 -34 -2 -48 -17z"/>
<path d="M1692 225 c-11 -13 -10 -15 7 -15 11 0 21 -4 23 -9 2 -4 13 -11 24
-15 19 -6 21 -3 17 19 -3 13 -9 22 -14 19 -5 -3 -7 -10 -4 -15 4 -5 2 -9 -4
-9 -5 0 -13 9 -16 20 -7 24 -15 25 -33 5z"/>
<path d="M186 188 c-9 -31 -2 -48 21 -48 11 0 13 3 5 13 -5 6 -12 23 -14 37
l-4 25 -8 -27z"/>
<path d="M1135 181 c-6 -6 -30 -11 -54 -13 -43 -3 -72 -27 -34 -29 10 0 13 -3
5 -6 -6 -2 -10 -8 -7 -13 5 -9 -7 -14 -62 -25 -18 -4 -33 -11 -33 -17 0 -6 13
-8 35 -4 40 8 46 0 13 -14 -17 -7 -11 -9 27 -5 48 4 49 4 15 -6 -19 -6 -48
-17 -65 -24 -16 -7 -39 -16 -50 -19 -11 -3 -4 -4 15 -2 37 3 131 36 140 48 7
9 34 12 70 9 23 -2 23 -3 5 -11 -19 -7 -19 -8 -1 -15 11 -5 21 -3 26 4 12 21
61 41 99 41 20 0 43 5 51 11 11 7 -3 9 -50 4 -178 -15 -240 -17 -240 -6 0 6 7
11 16 11 8 0 13 4 10 8 -6 9 143 37 152 28 11 -11 -6 -17 -54 -19 -30 -1 -49
-7 -52 -16 -3 -10 2 -11 19 -6 13 4 43 8 68 9 47 1 62 16 41 41 -11 13 -6 15
31 14 24 0 37 -3 29 -7 -8 -4 -16 -12 -17 -19 -2 -9 4 -10 23 -3 14 6 37 10
52 10 25 0 25 0 6 -16 -18 -15 -18 -15 10 -9 18 4 37 0 53 -10 30 -20 134 -26
140 -8 3 8 -12 10 -54 7 -55 -5 -57 -4 -33 10 28 17 106 21 115 6 3 -6 0 -10
-7 -10 -9 0 -9 -3 2 -10 22 -14 26 -12 26 10 0 11 -6 20 -13 20 -7 0 -13 5
-13 10 0 6 16 10 35 10 19 0 35 4 35 10 0 5 -6 7 -13 4 -8 -3 -20 2 -27 11
-14 16 -45 21 -35 5 4 -6 -9 -10 -32 -10 -53 0 -83 -10 -83 -26 0 -9 -12 -14
-35 -14 -19 0 -35 5 -35 10 0 6 -11 10 -24 10 -27 0 -89 24 -81 32 3 2 -34 -6
-82 -18 -91 -24 -148 -30 -139 -15 3 4 28 11 56 15 28 4 48 11 45 16 -8 13
-28 13 -40 1z"/>
<path d="M2895 179 c-23 -5 -16 -7 28 -8 31 0 57 1 57 3 0 8 -56 11 -85 5z"/>
<path d="M1350 81 c0 -16 68 -33 100 -26 19 4 36 2 45 -5 10 -8 15 -9 15 -2 0
14 -23 19 -85 21 -27 0 -51 5 -53 11 -5 13 -22 13 -22 1z"/>
<path d="M2770 44 l-45 -14 55 6 c30 3 59 9 65 15 13 13 -21 10 -75 -7z"/>
</g>
</svg>
