<?xml version="1.0" standalone="no"?>
<!DOCTYPE svg PUBLIC "-//W3C//DTD SVG 20010904//EN"
 "http://www.w3.org/TR/2001/REC-SVG-20010904/DTD/svg10.dtd">
<svg version="1.0" xmlns="http://www.w3.org/2000/svg"
 width="300.000000pt" height="300.000000pt" viewBox="0 0 300.000000 300.000000"
 preserveAspectRatio="xMidYMid meet">
<metadata>
Created by potrace 1.10, written by Peter Selinger 2001-2011
</metadata>
<g transform="translate(0.000000,300.000000) scale(0.100000,-0.100000)"
fill="#000000" stroke="none">
<path d="M1559 2886 c-2 -3 -48 -7 -101 -10 -53 -2 -106 -10 -118 -16 -12 -6
-36 -10 -53 -9 -18 2 -42 -3 -54 -9 -12 -7 -30 -12 -40 -12 -11 0 -45 -15 -76
-34 -31 -19 -57 -32 -57 -30 0 3 -34 -14 -76 -37 -64 -35 -80 -40 -95 -31 -31
20 -82 14 -121 -13 -21 -14 -86 -51 -145 -81 -93 -49 -115 -56 -160 -55 -40 1
-58 -4 -80 -22 -15 -13 -50 -30 -78 -37 -27 -8 -72 -23 -100 -35 -56 -24 -97
-24 -121 0 -10 10 -29 15 -48 13 -26 -3 -31 -7 -34 -33 l-3 -30 20 25 c17 21
23 23 47 15 38 -14 40 -28 6 -67 -35 -40 -62 -90 -62 -115 0 -10 14 6 30 35
18 30 35 50 41 46 7 -4 9 1 5 13 -9 27 20 51 75 62 94 20 199 57 221 79 28 25
82 39 92 23 4 -6 0 -11 -8 -11 -8 0 -31 -14 -50 -31 -20 -17 -41 -29 -48 -27
-15 5 -37 -20 -38 -41 0 -11 4 -10 19 3 30 27 44 11 38 -42 -4 -38 -1 -51 24
-85 16 -22 29 -44 29 -50 0 -18 150 -175 196 -205 25 -17 64 -34 87 -37 46 -8
67 -20 67 -40 0 -9 -16 -12 -52 -11 -42 2 -53 6 -59 24 -4 11 -21 28 -37 36
-28 15 -28 14 -28 -15 0 -24 6 -32 43 -50 30 -14 57 -20 88 -17 27 2 44 -1 42
-7 -2 -5 -35 -10 -73 -10 -74 0 -107 -11 -83 -26 17 -11 62 -12 56 -1 -3 4 17
7 45 8 65 1 82 18 73 73 -6 37 -10 41 -43 46 -96 15 -113 25 -214 124 -54 54
-98 105 -98 115 0 9 9 26 20 38 24 26 25 44 3 52 -14 6 -12 11 13 35 16 15 39
33 51 39 27 15 113 16 113 2 0 -5 7 -10 15 -10 21 0 19 16 -2 25 -57 23 -76
24 -113 5 -79 -40 -136 -110 -89 -110 10 0 19 -3 19 -8 0 -8 -36 -42 -45 -42
-13 0 -35 65 -35 104 0 37 5 48 27 67 l28 21 -25 -6 -25 -7 25 21 c24 20 221
124 310 164 25 11 54 28 64 38 26 24 69 23 91 -2 17 -19 19 -19 124 36 202
107 193 104 234 94 21 -4 35 -4 31 1 -3 5 -12 9 -20 9 -8 0 -14 5 -14 10 0 14
33 13 48 -2 9 -9 17 -9 34 0 57 29 110 41 134 30 16 -8 27 -8 36 -1 19 15 428
9 501 -7 45 -11 59 -18 63 -35 3 -14 21 -30 45 -40 43 -20 71 -45 49 -45 -7 0
-28 9 -46 21 -32 19 -34 20 -34 2 0 -26 26 -39 122 -63 75 -18 87 -25 123 -65
22 -25 69 -64 105 -88 53 -34 66 -47 68 -72 2 -16 -3 -38 -11 -49 -12 -17 -22
-18 -91 -11 l-77 7 -102 100 c-120 118 -148 138 -202 139 -30 0 -35 2 -20 8
14 6 2 9 -41 13 -41 3 -70 11 -91 26 -40 28 -63 29 -37 1 15 -16 16 -22 4 -29
-8 -5 -19 -2 -29 7 -11 11 -16 12 -19 4 -2 -7 -2 -15 1 -18 15 -14 131 -33
209 -33 l87 0 83 -80 83 -80 -65 6 c-96 9 -131 20 -167 53 -18 17 -33 26 -33
21 0 -5 5 -12 10 -15 6 -4 8 -10 6 -14 -3 -4 18 -19 45 -34 27 -16 78 -57 114
-93 36 -36 65 -60 65 -54 0 11 -34 62 -58 89 -12 12 -11 16 1 23 20 11 61 -5
103 -40 18 -15 48 -38 66 -51 l33 -25 -29 32 -29 31 29 -5 c111 -21 128 -22
150 -5 24 17 34 40 34 83 0 19 -11 35 -39 57 -21 17 -44 31 -51 31 -6 0 -35
24 -64 53 -76 76 -91 87 -122 93 -49 8 -64 15 -64 28 0 14 -110 114 -148 135
-14 7 -32 15 -41 16 -9 2 -16 4 -16 5 0 4 -411 10 -416 6z"/>
<path d="M1418 2820 c-11 -13 -14 -22 -7 -26 8 -4 7 -9 -2 -14 -7 -5 -23 -1
-38 8 -14 10 -22 12 -18 5 4 -6 1 -14 -5 -16 -8 -3 -6 -6 5 -6 15 -1 16 -4 7
-21 -11 -21 -6 -40 11 -40 6 0 8 4 4 10 -6 10 51 44 64 36 4 -3 22 4 40 15 23
14 49 19 89 18 65 -1 122 9 122 22 0 9 -47 13 -162 14 -55 0 -70 -6 -48 -20
25 -15 7 -24 -21 -10 -25 13 -28 19 -18 31 6 8 7 14 2 14 -5 0 -16 -9 -25 -20z"/>
<path d="M1765 2775 c-61 -12 -115 -31 -115 -39 0 -2 77 -4 171 -3 144 1 168
3 153 14 -10 7 -29 13 -43 13 -14 1 -37 7 -51 15 -30 17 -37 17 -115 0z"/>
<path d="M1315 2761 c3 -5 1 -12 -5 -16 -5 -3 -10 -1 -10 6 0 8 -3 9 -14 0 -7
-6 -24 -10 -36 -9 -13 2 -25 -3 -28 -11 -3 -11 2 -12 24 -7 16 4 40 8 54 9 24
2 43 37 20 37 -6 0 -9 -4 -5 -9z"/>
<path d="M1192 2710 c-1 -19 -3 -45 -4 -57 -3 -24 -54 -68 -62 -54 -4 5 3 12
14 16 24 7 26 21 5 29 -8 3 -14 1 -12 -4 1 -5 -11 -21 -28 -35 -21 -18 -24
-23 -8 -16 12 6 24 7 27 2 3 -4 -6 -13 -19 -19 -27 -12 -33 -36 -12 -48 6 -4
9 -4 5 0 -6 8 14 29 78 81 35 27 44 31 44 14 0 -13 -92 -120 -98 -114 -3 3 3
15 14 27 10 12 14 18 7 14 -7 -3 -22 -21 -35 -39 -15 -21 -17 -27 -5 -18 22
18 22 9 -3 -31 -11 -18 -20 -46 -19 -63 1 -29 1 -29 8 -5 19 61 44 94 136 176
17 14 21 21 10 13 -17 -11 -18 -11 -7 1 7 8 17 16 23 16 5 1 13 2 18 3 5 0 24
15 42 32 31 29 34 30 46 13 7 -10 13 -28 13 -41 0 -13 6 -23 13 -23 8 0 7 -4
-3 -10 -14 -9 -7 -14 15 -11 6 1 -1 -7 -15 -18 -22 -18 -23 -20 -7 -26 9 -4
24 -5 32 -1 9 3 15 0 15 -8 0 -7 10 -18 23 -25 13 -7 31 -25 40 -39 8 -15 26
-38 39 -52 13 -13 23 -29 23 -34 0 -5 9 -12 20 -17 11 -4 14 -8 7 -8 -20 -1
29 -61 50 -61 10 0 18 -7 18 -17 0 -13 -3 -14 -12 -5 -14 14 -58 16 -58 3 0
-6 5 -13 10 -16 6 -3 10 -1 10 4 0 14 30 14 31 1 1 -5 2 -14 3 -19 0 -5 4 -13
9 -17 18 -18 4 -23 -24 -9 -31 16 -59 14 -59 -4 0 -5 -4 -21 -9 -34 l-9 -24
-88 29 c-48 16 -95 33 -105 39 -11 5 -19 7 -19 5 0 -10 97 -55 144 -67 25 -6
46 -15 46 -19 0 -5 -20 -2 -44 5 -34 10 -46 11 -49 2 -3 -9 -7 -9 -18 -1 -26
21 -69 26 -85 9 -18 -18 -11 -19 19 -3 19 9 20 9 10 -3 -9 -12 -1 -14 51 -17
34 -1 102 -11 151 -21 52 -11 94 -15 99 -10 13 12 2 21 -28 23 -14 0 -26 5
-26 9 0 5 -9 5 -20 2 -16 -5 -20 -2 -20 18 0 39 54 51 86 20 9 -9 25 -18 36
-18 10 -1 27 -10 36 -20 16 -16 16 -17 -5 -6 -12 6 -26 11 -32 11 -19 0 -12
-39 9 -50 11 -6 18 -15 16 -19 -3 -4 9 -8 25 -8 17 0 34 -4 37 -9 4 -6 35 -31
70 -58 68 -52 71 -61 48 -146 -10 -39 -10 -48 5 -70 9 -14 19 -34 22 -45 4
-11 4 -4 1 15 -14 90 5 153 51 164 14 4 45 20 67 36 31 23 52 30 85 30 33 0
50 6 68 25 32 31 31 51 -5 108 -16 26 -32 58 -36 72 -3 14 -17 34 -30 44 -32
25 -31 51 0 51 14 0 28 -4 31 -10 3 -5 19 -10 34 -10 30 0 61 -27 61 -51 0
-45 125 -108 175 -89 40 15 50 50 30 96 -30 68 -35 79 -56 104 -12 14 -19 21
-16 15 40 -85 50 -116 51 -150 1 -34 -2 -40 -21 -43 -13 -2 -49 9 -82 23 -49
22 -60 32 -65 57 -8 40 -23 58 -50 58 -26 0 -114 50 -140 79 -19 21 -19 22 4
45 22 24 22 25 1 19 -11 -3 -21 -1 -21 4 0 6 -9 20 -20 33 -11 13 -20 20 -20
17 0 -11 31 -90 46 -119 21 -38 17 -66 -12 -95 -28 -28 -27 -28 28 -58 15 -8
34 -12 42 -9 20 8 21 -10 1 -26 -20 -16 -19 -27 3 -34 31 -10 72 -56 72 -81 0
-40 -40 -59 -110 -52 -58 5 -60 4 -60 -18 0 -29 -35 -55 -73 -55 -23 0 -27 3
-22 19 4 13 -3 27 -22 45 -24 23 -28 24 -34 9 -4 -14 -9 -11 -24 15 -11 18
-22 32 -26 32 -4 0 -17 16 -29 35 -12 19 -41 49 -64 65 -39 28 -83 86 -74 96
3 2 23 -12 45 -31 39 -33 63 -44 63 -27 -1 13 -24 38 -47 51 -13 6 -23 21 -23
31 0 11 -3 19 -7 19 -22 -4 -25 2 -8 14 14 11 15 16 5 22 -8 5 -11 4 -7 -2 9
-15 -14 -22 -38 -12 -18 7 -18 8 -2 8 27 1 17 34 -13 41 -15 4 -26 14 -26 25
-1 11 -2 26 -3 32 -1 7 -11 12 -23 10 -19 -2 -23 3 -23 26 1 30 -11 37 -18 10
-3 -13 -5 -11 -6 6 -1 17 -5 21 -17 17 -8 -3 -13 -2 -9 3 3 5 -8 20 -25 34
-19 16 -25 27 -17 30 7 3 4 6 -6 6 -18 1 -41 46 -32 61 3 5 2 10 -2 12 -10 4
-58 69 -66 88 -4 12 -6 11 -6 -3 -1 -10 -6 -15 -11 -12 -6 4 -7 11 -4 17 4 7
-2 8 -17 3 -33 -10 -30 -10 -66 -3 -18 4 -33 15 -36 25 -2 10 -4 2 -5 -17z"/>
<path d="M1515 2691 c-3 -6 -3 -15 0 -21 3 -5 -2 -10 -12 -10 -17 -1 -17 -1 0
-11 9 -5 22 -7 27 -4 6 3 10 1 10 -6 0 -7 8 -5 20 6 21 19 27 55 10 55 -5 0
-10 -7 -10 -17 0 -15 -2 -15 -19 1 -12 11 -21 14 -26 7z"/>
<path d="M834 2662 c-11 -7 -28 -246 -24 -356 1 -32 10 -92 21 -134 21 -83 85
-221 106 -229 7 -3 11 -9 8 -13 -3 -5 0 -12 6 -16 8 -5 9 -3 4 6 -5 8 -4 11 3
6 6 -4 9 -13 6 -20 -7 -17 12 -30 21 -16 4 6 -5 29 -19 51 -15 21 -23 39 -20
39 4 0 -1 9 -11 20 -10 11 -21 18 -25 15 -9 -6 -60 119 -60 149 0 13 -7 43
-15 66 -16 45 -19 142 -6 175 7 17 10 13 20 -24 16 -56 20 -49 11 19 -8 59 -3
93 11 84 14 -8 11 4 -7 31 -9 14 -13 32 -9 45 8 25 29 15 22 -10 -3 -13 0 -17
10 -13 8 3 13 14 10 24 -3 11 -1 19 3 19 5 0 11 -8 13 -17 3 -11 5 -7 6 10 1
30 -24 87 -38 87 -5 0 -15 2 -23 5 -7 3 -18 1 -24 -3z m56 -52 c0 -9 -6 -17
-13 -17 -9 0 -14 11 -13 28 1 21 4 25 14 17 6 -6 12 -18 12 -28z"/>
<path d="M1420 2646 c0 -2 27 -14 60 -26 33 -12 57 -26 54 -31 -3 -5 -9 -7
-14 -4 -5 3 -11 1 -15 -5 -3 -5 2 -10 12 -10 15 0 16 -2 3 -10 -21 -14 -53
-13 -44 2 4 7 3 8 -5 4 -9 -6 -7 -16 8 -39 18 -29 25 -32 61 -29 42 4 71 -9
120 -53 14 -13 76 -49 139 -80 119 -60 181 -106 181 -133 0 -14 2 -14 18 2 16
17 16 18 -8 39 l-25 22 30 27 c27 24 28 26 7 21 -12 -3 -24 -9 -27 -13 -7 -11
-45 0 -45 12 0 5 -6 8 -12 6 -7 -3 -19 1 -26 8 -7 8 -32 19 -55 25 -23 7 -47
19 -54 26 -6 8 -13 14 -15 13 -7 -4 -78 34 -78 41 0 4 -16 13 -35 19 -36 12
-45 25 -22 33 6 3 -1 10 -17 16 -22 9 -32 9 -44 -1 -13 -11 -15 -10 -9 4 11
32 -20 74 -73 97 -46 20 -70 26 -70 17z"/>
<path d="M2120 2642 c0 -11 150 -85 158 -77 3 3 3 7 1 9 -3 3 -125 62 -151 74
-5 2 -8 -1 -8 -6z"/>
<path d="M756 2578 c-8 -12 -12 -26 -9 -32 4 -6 8 -4 11 4 3 8 11 19 18 23 8
4 14 12 14 17 0 17 -18 11 -34 -12z"/>
<path d="M1930 2540 c0 -5 5 -12 10 -15 21 -13 8 -25 -27 -26 l-38 -2 35 -6
c19 -4 43 -3 52 1 15 7 16 12 6 28 -14 22 -38 35 -38 20z"/>
<path d="M632 2533 c-10 -4 -9 -8 5 -18 13 -10 14 -13 3 -12 -8 2 -20 6 -26
10 -11 7 -24 0 -24 -13 0 -9 92 -20 104 -13 5 3 -6 12 -23 19 -18 8 -30 18
-26 24 7 11 6 11 -13 3z"/>
<path d="M920 2515 c-1 -27 -2 -28 -11 -10 -8 17 -9 17 -4 -5 2 -14 5 -32 5
-40 0 -12 2 -12 9 -1 5 8 11 -11 16 -55 4 -37 11 -77 16 -88 11 -27 1 75 -16
164 -9 43 -14 55 -15 35z"/>
<path d="M742 2506 c-46 -33 -51 -40 -22 -31 25 7 83 55 65 55 -6 -1 -25 -11
-43 -24z"/>
<path d="M1030 2496 c-4 -13 -7 -35 -6 -50 2 -14 -1 -26 -5 -26 -5 0 -9 -7 -9
-15 0 -18 30 -20 31 -2 1 6 3 23 5 37 2 14 5 34 6 45 2 11 8 23 13 27 6 4 2 8
-8 8 -10 0 -22 -11 -27 -24z"/>
<path d="M510 2464 c-65 -43 -78 -54 -64 -54 6 0 39 20 74 45 76 54 68 61 -10
9z"/>
<path d="M754 2456 c-8 -35 -1 -60 18 -64 16 -3 16 -1 1 29 -12 24 -13 34 -5
37 14 4 16 22 2 22 -5 0 -12 -11 -16 -24z"/>
<path d="M1065 2437 c-23 -56 -19 -83 20 -125 l36 -37 -23 40 c-12 22 -26 42
-30 43 -13 6 -9 41 8 73 8 17 13 33 10 36 -3 4 -13 -10 -21 -30z"/>
<path d="M2325 2463 c15 -15 65 -25 65 -13 0 5 -6 10 -12 10 -7 0 -24 3 -38 6
-17 5 -22 3 -15 -3z"/>
<path d="M1245 2413 c2 -10 4 -22 4 -26 1 -5 6 -5 13 -1 7 4 8 3 4 -5 -4 -6
-1 -17 6 -24 16 -16 99 -50 105 -43 2 2 -5 7 -16 11 -12 3 -21 10 -21 15 0 4
-9 10 -21 13 -13 4 -18 10 -14 17 5 7 -4 22 -21 36 -35 28 -43 30 -39 7z"/>
<path d="M2090 2409 c0 -9 17 -23 38 -33 20 -10 33 -14 27 -9 -5 4 -22 19 -37
32 -21 18 -28 21 -28 10z"/>
<path d="M558 2388 c-29 -10 -35 -22 -18 -33 10 -6 59 24 60 38 0 9 -8 8 -42
-5z"/>
<path d="M220 2377 c-6 -7 -18 -21 -26 -32 -15 -19 -15 -19 -10 10 l6 30 -16
-30 c-12 -20 -13 -30 -5 -33 6 -2 11 -10 11 -18 0 -9 -5 -12 -11 -8 -7 4 -9 0
-5 -14 7 -22 -12 -74 -25 -66 -5 3 -9 1 -9 -4 0 -6 7 -13 16 -16 11 -4 13 -13
9 -27 -6 -19 -4 -21 19 -17 21 4 26 1 27 -16 0 -11 3 -15 6 -8 2 6 9 10 13 7
5 -3 7 -12 4 -19 -3 -8 -1 -17 5 -21 19 -11 12 25 -10 55 -12 16 -28 26 -35
23 -15 -6 -19 12 -5 21 5 3 7 24 4 47 -3 23 -2 44 3 48 5 3 18 23 28 44 11 20
22 37 26 37 3 0 14 -34 24 -75 19 -79 31 -102 21 -37 -5 27 -4 33 4 22 17 -25
12 4 -9 53 -21 48 -43 64 -60 44z"/>
<path d="M592 2359 c-23 -17 -40 -35 -36 -40 3 -5 0 -9 -5 -9 -6 0 -11 -5 -11
-11 0 -6 7 -5 18 3 20 14 87 88 80 88 -2 0 -23 -14 -46 -31z"/>
<path d="M993 2360 c-2 -8 -8 -22 -12 -30 -3 -8 -4 -28 -1 -45 l5 -30 33 16
c30 16 31 18 17 33 -9 9 -22 16 -30 16 -8 0 -11 7 -8 19 3 12 11 17 22 14 11
-3 18 1 18 11 0 19 -38 16 -44 -4z"/>
<path d="M746 2354 c-4 -11 -2 -15 8 -11 8 3 17 1 19 -6 2 -7 8 -9 12 -5 8 8
-12 38 -25 38 -4 0 -11 -7 -14 -16z"/>
<path d="M2060 2365 c0 -6 76 -45 87 -45 10 1 -69 50 -79 50 -5 0 -8 -2 -8 -5z"/>
<path d="M720 2324 c0 -3 11 -15 25 -25 15 -13 22 -26 18 -37 -4 -13 -2 -13
10 3 14 18 13 21 -9 42 -24 22 -44 30 -44 17z"/>
<path d="M350 2316 c0 -4 9 -21 21 -38 22 -30 20 -46 -2 -32 -17 10 -69 11
-69 1 0 -17 54 -113 84 -149 30 -36 62 -52 54 -25 -3 6 -11 12 -19 12 -8 0
-13 9 -12 20 2 24 -14 55 -29 55 -6 0 -4 -8 5 -18 19 -20 23 -37 7 -27 -14 9
-64 114 -57 121 8 8 67 -22 101 -52 31 -27 27 -46 -5 -25 -12 7 -23 10 -25 8
-9 -8 77 -58 89 -51 7 4 9 4 5 -1 -4 -4 0 -14 10 -21 29 -23 34 -15 10 16 -12
17 -28 28 -35 26 -7 -3 -15 0 -19 6 -5 7 -2 8 5 3 10 -6 11 -3 2 11 -24 39
-47 73 -75 110 -41 54 -46 59 -46 50z"/>
<path d="M855 2290 c4 -19 8 -44 9 -56 1 -11 6 -21 13 -21 6 0 11 9 10 19 -1
10 -5 18 -10 18 -5 0 -7 8 -5 18 3 10 -1 27 -10 38 -13 18 -14 16 -7 -16z"/>
<path d="M590 2295 c-14 -8 -33 -14 -43 -15 -10 0 -15 -5 -12 -10 4 -6 15 -8
26 -5 11 4 19 2 19 -4 0 -18 45 -12 101 13 43 20 49 25 28 25 -14 1 -34 -6
-45 -14 -10 -8 -23 -15 -28 -15 -6 0 -1 6 10 14 10 8 16 18 12 22 -5 4 -16 0
-25 -8 -32 -27 -49 -33 -29 -10 22 26 20 27 -14 7z"/>
<path d="M946 2259 c7 -11 10 -29 13 -74 1 -15 3 -17 10 -7 10 16 -7 92 -21
92 -5 0 -6 -5 -2 -11z"/>
<path d="M1013 2254 c-18 -8 -33 -18 -33 -23 0 -21 13 -41 27 -41 10 0 14 -7
10 -20 -4 -17 0 -20 24 -20 31 0 35 10 18 41 -7 13 -18 19 -36 17 -15 -2 -28
3 -31 11 -2 8 0 11 6 7 16 -10 39 3 45 25 3 10 4 19 4 18 -1 0 -17 -7 -34 -15z"/>
<path d="M730 2242 c0 -16 33 -62 45 -62 2 0 -4 18 -13 40 -18 42 -32 52 -32
22z"/>
<path d="M688 2245 c-9 -9 4 -55 13 -49 11 7 12 54 1 54 -5 0 -11 -2 -14 -5z"/>
<path d="M200 2219 c0 -5 5 -7 10 -4 6 3 10 -4 10 -16 0 -17 3 -20 11 -12 7 7
9 19 6 27 -7 18 -37 22 -37 5z"/>
<path d="M508 2223 c-10 -3 -18 -8 -18 -11 0 -8 81 -44 87 -39 8 9 -54 53 -69
50z"/>
<path d="M644 2215 c-5 -11 -11 -12 -24 -5 -29 15 -31 13 -26 -27 3 -21 5 -42
5 -46 2 -15 51 46 51 62 0 14 2 14 10 1 11 -18 25 -7 17 15 -8 19 -26 19 -33
0z"/>
<path d="M2315 2222 c6 -5 26 -15 45 -21 30 -10 33 -10 20 2 -8 8 -28 18 -45
21 -19 5 -26 4 -20 -2z"/>
<path d="M296 2175 c5 -42 60 -165 88 -200 9 -11 -2 16 -24 60 -23 44 -48 103
-55 130 -14 46 -14 47 -9 10z"/>
<path d="M1851 2158 c-39 -36 -42 -43 -32 -65 9 -20 14 -22 31 -13 11 6 20 16
20 21 0 6 6 9 14 6 7 -3 26 3 42 14 16 10 36 16 45 14 12 -4 15 1 11 26 -7 48
-27 46 -88 -10 -31 -29 -59 -50 -62 -47 -3 3 12 26 32 51 21 25 36 45 34 45
-2 0 -23 -19 -47 -42z"/>
<path d="M116 2182 c-3 -5 -28 -15 -56 -22 -27 -7 -50 -15 -51 -18 0 -4 -2
-15 -4 -24 -4 -22 2 -22 37 -4 14 8 42 19 62 26 38 12 41 17 27 39 -5 8 -11 9
-15 3z"/>
<path d="M790 2142 c0 -21 8 -48 17 -61 9 -14 11 -21 5 -17 -20 12 -13 -10 8
-29 11 -10 20 -31 20 -47 0 -23 6 -31 30 -39 17 -6 30 -15 30 -20 0 -5 4 -9 9
-9 5 0 -2 20 -16 45 -13 25 -29 45 -34 45 -5 0 -9 9 -9 19 0 11 -5 23 -10 26
-6 4 -7 11 -4 17 4 6 -4 19 -17 29 -17 14 -21 21 -12 27 7 4 10 17 6 30 -9 35
-23 26 -23 -16z"/>
<path d="M1180 2170 c0 -10 18 -14 58 -10 13 1 29 -3 35 -9 7 -5 19 -6 26 -2
9 6 4 12 -20 19 -46 13 -99 15 -99 2z"/>
<path d="M973 2133 c6 -27 -9 -31 -17 -5 -3 9 -3 4 1 -13 3 -16 5 -54 4 -83
-1 -53 22 -122 41 -122 6 0 5 7 -2 15 -15 18 -11 24 18 30 19 3 21 -1 20 -38
-1 -23 2 -52 6 -64 5 -14 3 -23 -3 -23 -6 0 -11 5 -11 11 0 5 -4 8 -9 4 -5 -3
-13 0 -17 6 -4 8 -3 9 4 5 17 -10 15 9 -2 23 -10 9 -16 9 -21 1 -8 -13 21 -60
36 -60 7 0 9 -11 6 -29 -4 -20 -1 -33 10 -42 14 -12 15 -10 9 19 -5 21 -4 32
3 32 14 0 15 159 2 179 -8 12 -12 12 -25 2 -34 -28 -75 16 -44 47 9 9 16 8 32
-6 11 -9 16 -11 12 -4 -11 19 12 14 33 -7 11 -11 22 -17 24 -15 3 3 4 -2 4
-11 -2 -22 85 -72 146 -84 51 -9 56 3 5 14 -17 4 -50 25 -74 47 -24 22 -47 37
-52 34 -6 -3 -9 2 -8 12 1 11 -5 16 -16 14 -9 -1 -19 2 -23 8 -3 6 0 7 9 4 9
-3 16 -1 16 5 0 6 -4 11 -9 11 -5 0 -17 3 -27 7 -12 4 -15 3 -10 -5 4 -7 2
-12 -6 -12 -25 1 -48 27 -48 56 0 16 -5 36 -11 44 -9 12 -10 11 -6 -7z"/>
<path d="M1740 2146 c0 -3 12 -13 26 -22 21 -15 27 -15 34 -4 5 8 6 18 3 23
-3 5 -9 4 -13 -3 -6 -9 -13 -9 -29 -1 -11 7 -21 9 -21 7z"/>
<path d="M1009 2129 c-8 -5 -12 -9 -9 -10 34 -6 43 -9 48 -15 4 -4 -1 -4 -10
-1 -19 7 -26 -17 -8 -28 6 -3 10 -1 10 5 0 6 8 4 17 -6 12 -12 18 -13 21 -4 3
8 14 2 29 -16 l25 -29 -20 35 c-10 19 -24 34 -31 33 -6 -2 -11 1 -11 6 0 17
-46 40 -61 30z"/>
<path d="M2025 2104 c5 -16 8 -38 8 -50 -1 -16 4 -20 22 -17 12 3 39 0 61 -6
21 -6 42 -7 46 -3 11 11 -14 31 -86 72 l-59 33 8 -29z"/>
<path d="M175 2078 c9 -28 77 -130 83 -124 5 6 -15 71 -36 114 -18 38 -58 47
-47 10z"/>
<path d="M475 2069 c17 -13 32 -26 35 -29 20 -21 82 -70 89 -70 5 0 7 9 4 19
-3 12 -11 17 -19 14 -9 -3 -14 0 -12 8 2 8 -4 13 -14 13 -10 -1 -18 2 -18 6 0
5 8 10 18 12 10 2 0 10 -28 19 -25 9 -54 20 -65 24 -12 5 -8 -1 10 -16z"/>
<path d="M1840 2064 c0 -12 42 -64 51 -64 6 0 7 5 4 10 -3 6 0 10 7 10 9 0 9
3 -2 10 -12 8 -13 12 -2 19 10 6 8 10 -10 14 -29 8 -48 9 -48 1z"/>
<path d="M450 2058 c0 -4 19 -25 43 -49 41 -41 42 -42 14 -37 -26 5 -27 4 -13
-10 12 -12 18 -13 30 -3 8 7 20 10 27 6 8 -6 7 -10 -2 -16 -10 -6 -8 -9 9 -9
13 0 22 -6 22 -15 0 -8 8 -15 18 -15 18 0 54 20 36 20 -17 0 -105 60 -146 99
-21 19 -38 32 -38 29z"/>
<path d="M320 2037 c0 -9 40 -79 55 -97 7 -8 22 -35 34 -60 12 -25 19 -36 16
-26 -6 20 -6 20 17 0 l22 -19 -17 25 c-9 14 -25 36 -35 50 -9 14 -34 49 -54
79 -21 30 -38 51 -38 48z"/>
<path d="M1203 2033 c14 -4 15 -8 7 -18 -9 -11 -7 -12 9 -8 12 3 33 -4 51 -17
18 -13 39 -20 50 -17 11 3 23 1 26 -4 3 -5 10 -7 15 -4 5 4 9 2 9 -3 0 -6 15
-16 33 -22 47 -18 56 -19 64 -8 3 7 1 8 -5 4 -7 -4 -12 -3 -12 2 0 9 -76 52
-92 52 -6 0 -17 8 -24 18 -9 11 -13 12 -14 4 0 -9 -5 -10 -19 -3 -10 6 -21 8
-23 5 -3 -2 -11 2 -18 11 -7 8 -27 14 -44 14 -18 -1 -23 -3 -13 -6z"/>
<path d="M1605 1984 c-9 -20 -14 -38 -12 -41 3 -2 8 5 12 18 5 15 9 18 15 9 5
-9 9 -9 14 -1 4 6 2 11 -4 11 -7 0 -9 8 -5 20 10 32 -1 23 -20 -16z"/>
<path d="M1514 1992 c-4 -9 -6 -21 -5 -26 1 -5 -5 -6 -13 -3 -9 4 -18 2 -21
-3 -4 -6 -2 -10 3 -10 6 0 13 -11 16 -25 5 -18 23 -33 64 -54 58 -30 110 -74
67 -57 -131 50 -195 64 -309 68 l-118 3 38 -17 c27 -12 65 -18 122 -18 50 0
94 -5 110 -14 26 -13 109 -32 125 -28 4 1 18 -3 30 -10 12 -7 28 -11 35 -10
15 4 16 -10 0 -26 -8 -8 -3 -10 24 -6 40 7 55 -7 38 -33 -10 -16 -11 -16 -7 4
3 15 1 20 -9 16 -18 -7 -18 -13 4 -54 l17 -34 3 28 c4 30 11 33 31 15 11 -11
13 -10 8 5 -4 9 -2 17 3 17 6 0 10 -7 10 -16 0 -9 5 -14 12 -12 23 8 18 25
-11 38 -17 7 -39 27 -50 46 -16 26 -27 34 -50 34 -35 0 -90 59 -92 100 -1 20
-3 18 -9 -10 -6 -30 -8 -32 -15 -15 -5 11 -13 23 -19 28 -7 5 -6 10 4 17 12 8
11 10 -7 10 -12 0 -23 -7 -26 -17 -4 -17 -5 -16 -12 1 -6 14 -2 25 17 41 19
16 22 24 12 33 -9 8 -14 7 -20 -6z"/>
<path d="M281 1941 c-1 -21 57 -93 96 -118 18 -12 33 -20 33 -17 0 12 -76 104
-86 104 -6 0 -19 10 -27 23 -10 14 -16 17 -16 8z"/>
<path d="M1715 1939 c-35 -10 -56 -35 -48 -55 4 -10 10 -8 25 11 22 28 48 33
48 10 0 -8 5 -15 10 -15 6 0 10 -9 10 -19 0 -14 -10 -21 -37 -28 l-37 -8 29
-19 29 -19 23 27 c30 35 29 70 -2 94 -13 11 -21 22 -18 26 7 7 7 7 -32 -5z"/>
<path d="M1081 1850 l2 -75 7 65 c5 37 4 69 -1 75 -5 5 -8 -21 -8 -65z"/>
<path d="M0 1877 c0 -26 97 -138 172 -199 38 -32 72 -58 76 -58 3 0 -32 35
-77 77 -46 43 -103 104 -127 136 -24 33 -44 52 -44 44z"/>
<path d="M562 1878 c2 -8 -16 -19 -44 -28 -48 -15 -60 -34 -37 -57 9 -9 8 -18
-3 -35 -10 -15 -12 -30 -7 -43 11 -29 11 -55 -2 -55 -6 0 -25 10 -42 21 -28
19 -27 17 6 -14 26 -23 45 -33 58 -30 23 6 23 5 4 65 -16 55 -24 46 90 101 64
32 76 41 60 47 -13 4 -26 0 -40 -12 -31 -30 -53 -40 -60 -27 -5 6 -13 3 -22
-10 -16 -24 -33 -19 -33 9 0 13 15 23 57 37 55 19 57 20 35 32 -18 9 -22 9
-20 -1z"/>
<path d="M825 1883 c-43 -11 -40 -24 5 -21 25 2 44 8 43 13 -2 12 -20 15 -48
8z"/>
<path d="M906 1876 c3 -8 17 -16 32 -19 23 -4 24 -4 9 7 -9 7 -14 16 -10 19 3
4 -3 7 -15 7 -14 0 -20 -5 -16 -14z"/>
<path d="M1802 1869 c-1 -9 -5 -32 -8 -50 -4 -28 -3 -31 6 -16 6 9 9 32 7 50
-2 17 -5 25 -5 16z"/>
<path d="M822 1782 c3 -14 12 -16 51 -14 l48 4 -2 -114 c-3 -163 16 -545 28
-560 6 -7 16 -49 23 -94 l12 -81 -42 -149 c-23 -81 -43 -153 -44 -158 -1 -6
-5 -17 -9 -23 -5 -7 -4 -13 1 -13 17 0 104 248 119 338 6 36 -11 134 -32 192
-8 22 -11 72 -10 135 2 55 -3 159 -11 230 -7 72 -13 169 -13 218 -1 86 -1 87
24 87 14 0 25 3 25 8 0 4 -39 8 -86 9 -76 2 -85 1 -82 -15z"/>
<path d="M608 1705 c-39 -36 -75 -65 -79 -65 -17 0 -20 -86 -4 -132 12 -37 14
-56 6 -86 -14 -50 -24 -61 -100 -106 -59 -36 -67 -38 -125 -34 -73 7 -165 42
-246 97 -33 22 -60 36 -60 31 0 -11 39 -38 120 -82 140 -77 226 -88 318 -42
104 53 136 113 113 214 -6 25 -11 64 -11 87 0 39 4 45 39 69 22 14 42 32 45
40 3 8 15 14 26 14 11 0 21 5 21 10 3 20 4 25 12 38 16 25 -4 11 -75 -53z"/>
<path d="M1836 1753 c-7 -16 12 -88 21 -80 2 3 0 22 -6 44 -9 34 -9 36 4 19
19 -25 19 -77 0 -102 -13 -17 -14 -17 -15 -2 0 22 -27 37 -54 30 -28 -7 -36
-22 -29 -50 6 -23 5 -24 -24 -9 -35 18 -49 34 -55 62 -4 18 -6 18 -12 3 -10
-23 21 -68 59 -84 16 -7 23 -13 15 -14 -13 0 -13 -1 0 -10 8 -5 24 -7 35 -4
14 4 16 3 7 -4 -11 -7 -10 -11 4 -16 9 -3 19 -4 22 -1 3 3 0 5 -6 5 -7 0 -11
3 -10 8 1 4 -4 20 -10 35 -22 52 -5 85 26 53 15 -15 15 -18 2 -26 -13 -8 -13
-11 2 -27 14 -14 20 -15 30 -4 11 10 10 11 -4 6 -10 -4 -18 -3 -18 3 0 5 9 12
20 15 10 3 27 21 36 40 16 34 16 39 0 81 -19 49 -30 57 -40 29z"/>
<path d="M994 1725 c-4 -15 1 -63 10 -108 9 -45 16 -106 16 -136 0 -49 3 -57
46 -104 54 -60 84 -115 84 -154 0 -39 -109 -486 -151 -617 -17 -53 -27 -116
-12 -76 3 8 17 38 30 65 13 28 40 111 59 185 20 74 49 187 66 250 18 68 31
143 32 185 1 76 -4 88 -86 184 -32 37 -38 51 -38 90 -1 25 -6 66 -11 91 -21
90 -22 119 -5 126 18 7 13 19 -14 34 -17 9 -21 6 -26 -15z"/>
<path d="M46 1668 c42 -51 129 -126 133 -115 2 6 -2 13 -10 15 -8 3 -40 31
-72 63 -58 59 -87 79 -51 37z"/>
<path d="M1901 1665 c-1 -11 -8 -31 -16 -45 -9 -18 -10 -29 -3 -37 6 -7 6 -13
2 -13 -5 0 -15 -9 -21 -19 -11 -17 -9 -21 15 -29 27 -9 28 -9 27 29 0 27 -4
39 -14 39 -11 0 -12 3 -4 11 24 24 43 2 43 -51 0 -27 5 -50 10 -50 6 0 10 13
10 29 0 30 0 30 55 -26 35 -34 61 -53 70 -49 8 3 14 0 12 -7 -1 -7 6 -11 16
-10 14 1 17 -4 14 -18 -3 -10 0 -22 5 -26 7 -3 8 -1 4 5 -4 7 -3 12 2 12 14 0
72 -68 72 -85 0 -7 12 -27 28 -43 41 -45 52 -60 52 -72 0 -6 5 -8 10 -5 6 3
10 17 10 31 0 28 8 31 25 7 15 -20 7 -49 -25 -93 l-19 -27 52 -7 c29 -3 69 -6
90 -6 33 0 37 3 37 25 0 54 -22 77 -110 117 -107 49 -133 72 -125 110 5 22 3
28 -10 28 -9 0 -40 21 -68 46 -28 25 -65 53 -81 61 -43 22 -121 83 -107 83 6
0 27 -7 46 -14 19 -8 35 -11 35 -5 0 5 -5 9 -11 9 -15 0 -72 49 -81 69 -6 14
-7 14 -7 -1 -2 -32 -30 -20 -34 15 -2 17 -5 23 -6 12z m497 -461 c21 -15 28
-55 10 -54 -5 0 -21 0 -38 0 -26 0 -30 4 -30 28 0 46 19 54 58 26z"/>
<path d="M1960 1663 c0 -5 29 -23 65 -42 l65 -35 23 22 c13 12 29 22 36 22 7
0 47 -18 90 -40 43 -22 100 -46 127 -54 27 -7 90 -25 139 -39 50 -14 121 -33
160 -43 58 -15 79 -26 132 -73 34 -31 78 -69 98 -84 38 -32 46 -52 16 -42 -25
8 -82 -16 -110 -46 -23 -24 -66 -100 -62 -108 2 -2 -3 -8 -11 -12 -10 -7 -10
-9 0 -9 10 0 10 -5 2 -20 -6 -11 -17 -20 -25 -20 -29 0 -25 -20 7 -35 25 -11
27 -14 8 -10 -25 5 -25 5 -2 -7 27 -14 36 -7 27 21 -5 17 -12 20 -33 16 -26
-5 -26 -5 -4 5 13 5 27 8 32 5 10 -6 36 25 45 55 4 14 6 25 4 25 -2 0 12 22
30 48 31 46 107 95 121 78 3 -3 18 -17 33 -30 l27 -24 0 31 c0 27 -4 32 -25
32 -14 0 -25 3 -25 8 0 14 -182 182 -216 200 -11 6 -61 20 -110 32 -49 11 -97
25 -107 31 -10 5 -22 7 -27 4 -6 -4 -10 -2 -10 3 0 5 -6 9 -12 10 -66 5 -172
39 -188 60 -3 4 -32 20 -66 35 -58 28 -61 28 -98 13 -36 -15 -41 -15 -83 4
-47 21 -73 25 -73 13z"/>
<path d="M446 1592 c-10 -19 -20 -31 -23 -28 -4 3 -12 1 -19 -5 -9 -7 -29 -2
-73 21 -34 16 -61 28 -61 25 0 -2 22 -16 48 -29 42 -21 49 -29 50 -56 l1 -31
-57 6 c-60 8 -171 40 -187 56 -12 12 -38 12 -31 0 7 -11 99 -56 155 -76 74
-26 101 -21 143 27 31 36 39 40 48 28 8 -12 10 -11 10 8 0 13 5 32 11 43 6 11
8 25 6 32 -2 7 -12 -3 -21 -21z"/>
<path d="M2050 1571 c0 -6 7 -11 15 -11 8 0 15 -4 15 -10 0 -5 -7 -10 -16 -10
-12 0 -8 -7 12 -22 16 -13 35 -29 42 -38 12 -13 13 -13 8 0 -2 8 -10 32 -17
53 -7 20 -16 37 -20 37 -4 0 -14 3 -23 6 -9 3 -16 1 -16 -5z"/>
<path d="M1617 1533 c-17 -4 -35 -15 -103 -60 -11 -8 -2 -7 21 2 22 9 45 22
51 30 6 8 21 15 32 15 11 0 24 5 27 10 6 10 2 11 -28 3z"/>
<path d="M1772 1525 c4 -4 3 -14 -3 -22 -14 -16 -33 -18 -23 -1 4 7 3 8 -4 4
-16 -10 -15 -14 8 -26 16 -8 20 -8 18 2 -2 8 5 12 17 11 11 -1 14 0 7 3 -6 3
-10 10 -7 14 3 5 0 12 -7 16 -7 4 -10 4 -6 -1z"/>
<path d="M1820 1518 c0 -7 -16 -51 -35 -98 -20 -48 -33 -93 -29 -105 5 -20 5
-20 -10 -1 -15 18 -20 38 -17 59 0 4 -4 7 -10 7 -5 0 -8 4 -5 9 4 5 1 11 -5
13 -5 2 -7 11 -4 21 4 9 11 14 16 11 5 -3 7 -9 5 -13 -3 -4 4 -12 15 -19 28
-18 26 11 -2 30 -14 9 -22 25 -23 45 -1 17 -6 29 -12 26 -6 -2 -10 -16 -9 -31
0 -14 -9 -51 -22 -82 -29 -71 -29 -77 7 -82 27 -4 42 6 21 14 -11 4 -24 78
-13 78 4 0 16 -24 25 -53 14 -44 23 -56 52 -70 47 -23 53 -22 47 8 -3 20 -9
24 -23 20 -15 -5 -19 -1 -19 17 0 38 14 52 39 39 28 -16 27 -23 -4 -15 -20 5
-25 2 -25 -12 0 -13 3 -15 11 -7 6 6 18 9 26 6 13 -5 32 11 33 28 0 3 -9 15
-21 28 -20 21 -20 51 0 51 6 0 17 -12 26 -27 15 -27 15 -27 9 -3 -4 14 -11 26
-15 28 -5 2 -6 15 -3 29 5 19 4 24 -5 19 -8 -6 -10 0 -5 18 4 16 2 26 -5 26
-6 0 -11 -6 -11 -12z"/>
<path d="M1858 1483 c4 -35 22 -46 22 -13 0 11 5 20 11 20 6 0 9 -7 5 -15 -3
-8 0 -15 6 -15 7 0 5 -7 -4 -17 -16 -19 -31 -76 -17 -67 5 2 6 -12 3 -33 -5
-39 -14 -58 -14 -29 0 13 -5 16 -22 10 -31 -9 -31 -9 -20 -41 l10 -28 1 29 c1
24 3 27 16 16 8 -7 15 -19 15 -27 0 -15 47 -63 61 -63 17 0 9 18 -11 23 -11 3
-20 12 -20 21 0 9 -4 16 -9 16 -4 0 -6 12 -3 28 6 26 6 26 19 -13 13 -39 13
-39 8 -5 -14 87 -17 130 -10 147 5 10 9 30 10 44 2 22 -3 28 -29 36 -31 10
-32 10 -28 -24z"/>
<path d="M2175 1500 l-30 -5 39 -12 c32 -10 41 -9 53 3 8 7 10 14 4 14 -5 0
-13 -5 -17 -12 -5 -8 -9 -8 -13 3 -4 10 -15 13 -36 9z"/>
<path d="M1593 1464 c-6 -14 -7 -21 -1 -18 6 4 14 1 18 -7 12 -18 -50 -61 -67
-47 -13 11 -42 -1 -62 -26 -18 -22 -5 -39 19 -24 15 10 22 9 38 -5 20 -19 43
-24 25 -6 -6 6 -9 18 -6 26 5 11 10 8 19 -13 9 -20 12 -22 8 -6 -3 12 -1 22 5
22 6 0 8 7 5 15 -4 9 3 19 20 26 30 14 30 14 8 56 l-17 32 -12 -25z"/>
<path d="M2363 1478 c-9 -15 -10 -20 -12 -49 0 -11 -5 -17 -11 -14 -5 3 -10 2
-10 -3 0 -5 -16 -17 -35 -26 -43 -21 -46 -39 -4 -24 32 11 139 105 139 122 0
5 -11 -1 -25 -14 -21 -20 -27 -21 -38 -10 -7 8 -8 11 -1 7 7 -4 14 0 18 8 7
18 -10 20 -21 3z"/>
<path d="M0 1471 c0 -15 51 -48 152 -96 70 -34 110 -47 154 -50 l59 -5 -70 19
c-83 22 -167 59 -241 106 -30 19 -54 31 -54 26z"/>
<path d="M1353 1453 c-18 -27 -9 -73 15 -81 10 -3 9 3 -4 22 -17 26 -16 28 4
49 16 16 25 18 33 10 8 -8 5 -13 -10 -18 -12 -3 -21 -11 -21 -16 0 -11 33 4
69 32 l24 19 -29 1 c-16 0 -37 2 -47 4 -10 2 -24 -7 -34 -22z"/>
<path d="M1441 1435 c-19 -14 -40 -26 -45 -28 -6 -3 -8 -8 -4 -11 11 -12 76
24 81 45 3 10 4 19 4 19 -1 -1 -18 -12 -36 -25z"/>
<path d="M2432 1413 c-29 -34 -46 -47 -63 -46 -13 1 -33 -5 -44 -13 -20 -15
-20 -15 5 -34 23 -18 34 -21 58 -19 4 0 6 7 4 15 -2 8 1 14 6 14 4 0 17 7 28
15 15 13 12 13 -16 -1 -19 -9 -38 -22 -42 -28 -5 -8 -12 -6 -24 6 -19 19 -10
45 10 28 10 -7 21 -4 42 12 16 13 31 26 32 30 2 5 8 8 13 8 6 0 7 -6 3 -12 -5
-8 -1 -8 10 1 15 13 19 13 28 0 8 -11 9 -11 4 4 -5 17 9 25 16 8 4 -13 37 -18
37 -6 2 16 -59 28 -75 14 -19 -15 -18 -4 2 26 26 40 9 29 -34 -22z"/>
<path d="M645 1390 c-4 -14 -35 -52 -68 -85 -61 -62 -95 -105 -82 -105 13 0
119 113 144 153 12 20 21 43 18 50 -2 6 -7 1 -12 -13z"/>
<path d="M1955 1390 c-3 -10 1 -32 9 -47 10 -19 15 -22 16 -11 0 9 -5 20 -11
23 -7 5 -5 15 6 31 13 20 13 24 1 24 -8 0 -17 -9 -21 -20z"/>
<path d="M2601 1379 c-11 -12 -17 -27 -14 -35 3 -8 1 -14 -5 -14 -5 0 -13 -8
-16 -17 -3 -10 7 -3 24 15 16 17 34 32 39 32 6 0 13 5 17 11 4 8 -1 9 -17 4
-23 -7 -24 -7 -4 9 11 8 15 16 8 16 -7 0 -21 -9 -32 -21z"/>
<path d="M691 1332 c-11 -22 -48 -64 -82 -93 -84 -74 -94 -95 -69 -147 11 -23
20 -48 20 -56 0 -33 88 -63 105 -36 3 6 17 10 30 10 13 0 29 8 34 18 8 15 4
20 -21 31 -30 14 -32 13 -58 -19 -18 -23 -32 -31 -44 -27 -20 8 -21 44 -1 63
8 9 15 21 15 27 0 7 -12 0 -25 -15 -13 -16 -26 -28 -29 -28 -3 0 -8 16 -12 35
-6 33 -2 40 47 93 30 31 65 74 79 95 14 20 31 35 38 32 8 -3 11 3 8 21 -8 40
-13 39 -35 -4z"/>
<path d="M2009 1348 c0 -2 -3 -14 -5 -28 -4 -24 -4 -24 10 -5 8 11 18 16 23
11 4 -5 2 -11 -4 -13 -7 -3 -13 -16 -13 -29 0 -20 5 -24 28 -23 15 0 36 4 47
9 17 7 15 9 -12 9 -40 1 -48 14 -27 46 16 25 16 25 -15 25 -17 0 -31 -1 -32
-2z"/>
<path d="M2762 1337 c0 -6 -2 -21 -4 -32 -2 -15 3 -20 25 -20 16 -1 27 4 27
13 0 9 -7 11 -22 6 -20 -6 -21 -5 -10 8 10 12 10 18 -1 27 -10 8 -14 8 -15 -2z"/>
<path d="M1442 1303 c-33 -48 -36 -72 -12 -98 l22 -23 -22 -19 c-40 -34 -43
-49 -19 -121 26 -83 48 -128 75 -159 12 -13 27 -37 34 -53 7 -16 17 -27 22
-24 6 4 22 -7 36 -22 15 -16 39 -35 54 -43 15 -8 30 -22 34 -33 3 -10 9 -18
14 -18 29 0 -37 81 -102 126 -21 15 -38 33 -38 40 0 8 -16 32 -36 54 -20 22
-42 59 -49 82 -7 24 -21 60 -31 82 l-19 38 24 19 c25 20 56 25 66 9 3 -5 12
-7 20 -4 18 7 37 -4 29 -17 -4 -6 -11 -6 -20 2 -22 18 -18 -14 5 -35 18 -16
19 -15 25 20 9 45 -15 74 -74 94 -60 20 -64 30 -35 84 27 52 26 60 -3 19z"/>
<path d="M1933 1322 c-19 -12 3 -83 28 -89 10 -3 19 -9 19 -13 0 -11 34 -7 42
5 5 6 8 5 8 -2 0 -7 7 -10 15 -7 10 4 15 0 15 -10 0 -12 6 -15 23 -11 13 4 30
-1 42 -10 19 -15 19 -16 -5 -4 -23 11 -24 11 -11 -5 8 -9 19 -15 25 -13 6 2
35 -7 64 -21 29 -13 55 -22 58 -19 9 9 -31 67 -43 62 -15 -5 -17 7 -4 21 6 5
5 16 -4 27 -8 12 -15 14 -20 8 -3 -6 -1 -11 4 -11 6 0 11 -4 11 -10 0 -5 -7
-10 -16 -10 -11 0 -15 -6 -11 -19 3 -14 1 -18 -9 -14 -19 7 -17 26 7 67 12 20
18 36 15 36 -3 0 -25 -13 -48 -30 -46 -34 -78 -39 -78 -12 0 14 -2 15 -10 2
-8 -12 -11 -12 -28 3 -14 13 -21 14 -30 5 -8 -8 -14 -5 -22 16 -5 15 -10 36
-10 47 0 20 -8 23 -27 11z"/>
<path d="M2700 1313 c-14 -9 -40 -30 -57 -46 -39 -37 -43 -27 -8 19 17 23 21
32 10 28 -9 -4 -30 -27 -47 -52 -33 -48 -52 -44 -22 5 l16 28 -21 -25 -22 -25
6 25 c3 15 -4 7 -19 -20 -14 -25 -25 -49 -25 -55 0 -5 9 6 20 25 13 23 18 27
13 11 -4 -16 -3 -21 5 -17 6 4 11 2 11 -5 0 -8 6 -6 18 4 10 10 23 17 29 17 5
0 20 11 33 25 13 14 29 24 36 21 7 -3 24 9 38 25 29 32 23 38 -14 12z"/>
<path d="M2110 1315 c0 -6 7 -19 15 -30 14 -18 16 -18 32 -2 16 16 16 17 -3
17 -11 0 -25 5 -32 12 -7 7 -12 8 -12 3z"/>
<path d="M1024 1219 c6 -114 19 -199 31 -188 2 2 11 46 20 96 15 90 15 93 -5
113 -11 11 -20 26 -20 34 0 7 -7 19 -15 26 -14 12 -15 3 -11 -81z"/>
<path d="M2428 1303 c-10 -2 -18 -9 -18 -14 0 -6 8 -8 19 -4 13 4 20 0 24 -15
3 -11 10 -20 16 -20 15 0 14 16 -4 33 -8 8 -11 17 -8 21 7 7 -2 6 -29 -1z"/>
<path d="M1554 1281 c4 -6 15 -11 24 -11 10 0 27 -7 38 -15 12 -8 24 -11 28
-8 9 9 -24 29 -63 38 -23 5 -31 4 -27 -4z"/>
<path d="M1506 1262 c-9 -9 -7 -24 2 -18 14 8 67 -10 65 -23 -2 -6 2 -11 7
-11 6 0 10 -4 10 -10 0 -5 -12 -10 -27 -10 -25 -1 -26 -2 -9 -11 13 -8 25 -8
42 0 25 11 30 27 16 48 -9 14 -98 44 -106 35z"/>
<path d="M2680 1223 c-19 -14 -28 -24 -20 -21 8 3 26 8 40 12 l25 7 -25 -22
c-14 -12 -19 -20 -11 -17 8 2 25 18 39 36 22 29 23 32 6 31 -11 0 -35 -12 -54
-26z"/>
<path d="M1768 1195 c-39 -45 -45 -55 -28 -55 10 0 74 89 68 95 -1 2 -20 -16
-40 -40z"/>
<path d="M185 1190 c-3 -5 17 -21 45 -35 27 -14 50 -21 50 -16 0 14 -89 61
-95 51z"/>
<path d="M2472 1185 c13 -14 14 -22 5 -36 -9 -14 -9 -21 1 -31 9 -9 12 -8 12
9 0 12 3 28 6 36 3 10 -3 20 -18 27 -22 12 -22 11 -6 -5z"/>
<path d="M2530 1197 c0 -15 40 -26 62 -18 21 9 21 10 3 11 -11 0 -30 3 -42 6
-13 4 -23 4 -23 1z"/>
<path d="M126 1165 c-3 -9 -11 -46 -16 -83 -6 -37 -18 -77 -26 -90 -9 -13 -13
-30 -10 -37 3 -8 1 -17 -3 -20 -5 -2 -18 -25 -30 -50 -12 -25 -26 -43 -31 -40
-6 4 -10 -13 -9 -42 l0 -48 16 40 c10 22 30 65 46 95 16 30 33 71 37 90 4 19
15 70 24 114 16 72 17 109 2 71z"/>
<path d="M1792 1155 c-12 -14 -32 -25 -44 -26 -13 0 -18 -3 -11 -5 7 -3 9 -12
6 -21 -5 -13 -1 -15 20 -11 15 3 27 2 27 -3 0 -9 26 -6 36 4 4 4 2 7 -5 7 -8
0 -11 6 -7 16 5 14 4 15 -9 4 -20 -16 -19 -6 1 26 23 33 13 40 -14 9z"/>
<path d="M2863 1143 c-16 -21 -44 -68 -61 -105 -23 -51 -37 -69 -56 -74 -22
-5 -38 -24 -20 -24 16 0 94 63 115 94 13 20 28 36 32 36 5 0 5 9 2 20 -5 15
-2 20 12 21 10 0 13 3 6 6 -16 6 -17 30 -1 39 8 5 9 2 4 -11 -5 -15 -4 -16 9
-5 12 10 13 16 4 26 -15 18 -13 19 -46 -23z"/>
<path d="M1921 1120 c-14 -28 -31 -50 -38 -50 -7 0 -10 -7 -7 -15 5 -11 10
-13 19 -5 7 6 15 7 17 3 3 -4 3 -2 1 5 -1 7 8 33 22 58 27 48 29 54 18 54 -5
0 -19 -23 -32 -50z"/>
<path d="M1975 1138 c-4 -13 -8 -34 -9 -47 -1 -13 -14 -34 -28 -46 -25 -21
-25 -23 -8 -28 14 -3 27 6 47 31 29 38 41 81 16 61 -10 -9 -12 -5 -7 20 7 36
0 42 -11 9z"/>
<path d="M2513 1120 c-1 -11 1 -21 5 -21 4 -1 23 -3 42 -5 32 -3 33 -2 14 9
-12 7 -19 18 -17 25 3 7 -4 12 -19 12 -17 0 -24 -6 -25 -20z"/>
<path d="M2965 1120 c-5 -8 -2 -16 9 -22 12 -7 14 -14 6 -28 -6 -11 -6 -21 -1
-25 21 -12 23 18 4 64 -7 18 -12 21 -18 11z"/>
<path d="M1600 1073 l0 -50 56 -27 c86 -42 134 -58 134 -43 0 8 4 6 11 -3 9
-13 10 -13 6 0 -2 8 -10 14 -17 12 -20 -4 -37 16 -44 51 -5 27 -15 37 -51 54
l-44 20 -4 -41 -4 -41 -1 41 c-1 27 -9 47 -22 59 -20 18 -20 17 -20 -32z"/>
<path d="M192 1067 c-19 -52 -13 -66 9 -24 19 36 41 47 54 27 3 -5 11 -10 18
-10 19 0 -16 28 -43 35 -22 5 -27 2 -38 -28z"/>
<path d="M796 1089 c-2 -8 -7 -32 -11 -54 -4 -22 -16 -59 -26 -82 l-19 -43
-58 -1 -57 -1 65 -12 c36 -7 68 -10 72 -9 4 2 12 29 18 61 6 31 16 77 21 101
9 40 5 71 -5 40z"/>
<path d="M2085 1091 c-3 -6 -14 -8 -25 -6 -12 2 -18 0 -15 -6 4 -5 11 -7 16
-4 5 4 9 1 9 -5 0 -7 -7 -9 -16 -6 -17 6 -54 -19 -54 -36 0 -5 7 -2 16 6 18
19 38 21 28 4 -5 -8 1 -7 16 3 13 8 27 25 31 37 8 22 5 30 -6 13z"/>
<path d="M2590 1082 c-11 -5 -15 -25 -17 -67 0 -33 -10 -87 -21 -120 -11 -33
-19 -61 -17 -63 2 -2 14 3 26 11 15 11 23 28 25 54 5 58 6 63 23 63 14 0 14 2
1 10 -8 5 -11 12 -7 16 4 4 1 14 -6 22 -10 13 -9 15 6 9 16 -6 16 -5 2 24
l-16 30 33 -4 c18 -2 24 -2 14 0 -16 4 -17 7 -5 14 11 7 10 9 -6 8 -11 0 -27
-3 -35 -7z"/>
<path d="M365 1042 c16 -32 17 -33 35 -17 17 16 20 15 49 -6 17 -12 28 -26 25
-31 -3 -4 -9 -6 -12 -4 -11 7 -58 -32 -49 -40 4 -4 13 1 21 11 16 23 46 13 46
-15 0 -17 3 -18 19 -8 17 11 18 14 4 55 -8 24 -18 41 -22 38 -5 -2 -17 2 -27
10 -10 8 -33 15 -49 15 -17 0 -37 6 -44 13 -8 7 -7 -1 4 -21z"/>
<path d="M2091 1056 c-17 -20 -4 -41 15 -25 8 6 18 9 21 5 4 -4 2 -11 -6 -15
-10 -6 -9 -10 4 -15 19 -7 63 13 48 23 -6 3 -9 14 -7 24 1 9 -2 15 -7 11 -5
-3 -9 -13 -9 -22 0 -13 -2 -13 -15 4 -8 10 -15 15 -15 9 0 -5 -4 -4 -9 3 -6
10 -10 10 -20 -2z"/>
<path d="M1545 1047 c-11 -6 -30 -17 -43 -25 -12 -7 -20 -17 -17 -22 3 -5 20
0 38 10 18 11 40 20 50 20 10 0 17 5 15 12 -6 17 -20 19 -43 5z"/>
<path d="M2280 1042 c-30 -20 -40 -48 -13 -33 23 12 59 51 47 50 -5 0 -20 -8
-34 -17z"/>
<path d="M2315 1025 c-54 -33 -104 -56 -140 -65 l-30 -8 35 -1 c25 -1 52 10
90 34 39 25 56 31 61 23 6 -9 10 -7 15 7 4 11 9 23 11 28 6 11 2 9 -42 -18z"/>
<path d="M229 1008 c-1 -13 -2 -54 -3 -93 -1 -61 -7 -81 -45 -160 -24 -49 -55
-104 -68 -121 -27 -36 -28 -44 -8 -44 8 0 15 4 15 10 0 5 16 12 35 16 42 7 53
20 25 27 -20 5 -18 10 21 89 37 72 43 94 48 168 l6 85 58 -58 c71 -72 72 -78
14 -179 -22 -39 -70 -113 -81 -123 -6 -6 -16 -19 -21 -29 -6 -10 -38 -27 -73
-38 -67 -20 -84 -41 -27 -32 19 3 35 2 35 -2 0 -14 -71 -103 -115 -143 -25
-23 -45 -46 -45 -52 0 -11 149 137 218 216 42 49 86 117 142 220 47 86 47 86
-17 152 -32 32 -66 70 -76 86 -21 33 -37 35 -38 5z"/>
<path d="M1810 1011 c0 -11 6 -26 13 -33 8 -6 12 -21 10 -33 -6 -28 54 -61
127 -71 47 -6 53 -5 43 7 -6 8 -35 23 -62 33 -28 10 -51 24 -51 32 0 8 1 14 3
14 11 0 101 -51 132 -74 46 -35 90 -33 90 4 0 23 -9 28 -120 66 -66 22 -135
48 -152 57 -32 17 -33 17 -33 -2z"/>
<path d="M2344 979 c-48 -50 -32 -51 18 -2 38 37 49 32 26 -10 -10 -19 -9 -20
4 -10 8 7 17 11 20 8 2 -3 5 1 5 8 0 6 3 19 7 27 4 11 -1 15 -18 16 -16 1 -37
-11 -62 -37z"/>
<path d="M2940 1001 c0 -6 5 -13 10 -16 12 -7 4 -25 -11 -25 -5 0 -9 8 -9 17
0 13 -3 14 -11 6 -8 -8 -6 -17 10 -34 17 -19 21 -20 21 -6 0 24 17 21 25 -3 4
-11 11 -18 16 -14 5 3 0 17 -11 31 -11 14 -20 32 -20 39 0 8 -4 14 -10 14 -5
0 -10 -4 -10 -9z"/>
<path d="M2753 942 c-29 -21 -52 -43 -53 -50 0 -15 28 3 90 57 48 41 26 37
-37 -7z"/>
<path d="M161 965 c0 -6 -26 -53 -57 -105 -85 -142 -104 -178 -104 -192 0 -7
25 25 55 71 30 47 63 90 74 96 14 7 17 15 11 24 -5 9 -1 24 12 41 12 16 18 37
15 51 -2 13 -5 19 -6 14z"/>
<path d="M2700 941 c0 -6 -5 -11 -12 -11 -16 0 -101 -51 -95 -57 3 -2 13 0 24
5 10 6 35 18 55 26 41 18 54 31 38 41 -5 3 -10 1 -10 -4z"/>
<path d="M2880 941 c0 -11 29 -35 35 -29 10 9 -7 38 -21 38 -8 0 -14 -4 -14
-9z"/>
<path d="M1610 926 c0 -2 6 -14 13 -27 11 -21 19 -25 43 -20 4 0 -5 12 -20 26
-26 24 -36 30 -36 21z"/>
<path d="M1684 885 c-16 -42 -16 -47 0 -63 9 -10 16 -29 16 -42 0 -19 2 -20
15 -10 11 9 18 10 29 1 8 -6 38 -14 67 -18 30 -3 65 -11 79 -18 23 -11 105
-25 176 -30 16 -1 36 -5 44 -10 7 -4 27 -10 43 -12 29 -3 30 -2 11 11 -10 8
-20 11 -22 6 -2 -5 -14 1 -26 15 -19 20 -28 23 -64 18 -42 -6 -132 13 -143 29
-3 5 -16 10 -27 11 -12 1 -22 5 -22 9 0 4 -9 8 -21 8 -11 0 -17 5 -14 10 7 11
-6 13 -29 4 -9 -3 -14 -10 -11 -14 6 -10 -36 0 -52 13 -16 12 -17 27 -2 27 5
0 7 -5 3 -12 -4 -7 -3 -8 4 -4 9 5 9 12 1 29 l-12 21 -9 -24 c-8 -23 -10 -23
-19 -7 -7 12 -7 29 1 52 6 19 12 35 13 35 1 0 20 -7 42 -15 22 -8 54 -14 70
-14 23 0 16 5 -30 19 -85 28 -91 27 -111 -25z"/>
<path d="M2940 902 c-8 -10 -14 -25 -12 -34 2 -9 -5 -19 -17 -23 -12 -3 -21
-13 -21 -21 0 -12 4 -12 20 -4 11 6 20 15 20 20 0 6 7 10 15 10 17 0 55 39 54
54 0 6 -3 5 -6 -1 -2 -7 -11 -13 -19 -13 -8 0 -11 6 -8 15 8 20 -7 18 -26 -3z"/>
<path d="M2745 886 c-19 -15 -24 -25 -17 -30 15 -9 32 1 32 19 0 9 6 12 15 9
8 -4 15 -1 15 4 0 21 -17 20 -45 -2z"/>
<path d="M477 863 c-4 -3 -7 -12 -7 -19 0 -15 -102 -189 -127 -216 -17 -19
-16 -21 37 -69 30 -26 58 -49 62 -49 4 0 5 15 2 33 -4 27 1 38 31 70 20 20 44
37 53 37 10 0 34 -13 53 -30 35 -28 49 -30 49 -6 0 11 -52 33 -102 43 -21 4
-35 -3 -71 -37 -39 -36 -49 -40 -66 -30 -28 14 -27 23 13 89 58 96 73 126 81
159 7 32 5 38 -8 25z"/>
<path d="M2594 845 c-16 -13 -16 -14 -1 -9 9 3 17 3 17 -1 0 -4 -8 -14 -17
-21 -10 -7 -13 -13 -8 -13 6 -1 20 8 33 17 20 15 21 20 9 30 -10 9 -18 8 -33
-3z"/>
<path d="M2681 839 c-13 -11 -22 -22 -19 -25 7 -6 58 17 58 27 0 17 -16 16
-39 -2z"/>
<path d="M2763 843 c-23 -15 -31 -43 -13 -43 5 0 14 8 19 18 6 9 11 13 11 8 0
-11 30 14 30 25 0 14 -22 10 -47 -8z"/>
<path d="M2265 830 c-4 -6 7 -10 24 -10 17 0 31 5 31 10 0 6 -11 10 -24 10
-14 0 -28 -4 -31 -10z"/>
<path d="M2474 775 c-16 -32 -41 -70 -56 -86 -16 -16 -28 -37 -28 -46 -1 -23
-25 -55 -34 -46 -4 4 -4 0 0 -10 4 -11 0 -19 -10 -23 -9 -3 -13 -11 -9 -16 4
-7 -4 -9 -21 -6 -18 4 -23 2 -17 -6 5 -6 8 -23 6 -38 -4 -36 1 -35 21 4 9 18
28 47 42 65 14 17 26 37 28 45 1 7 22 46 48 85 46 71 70 122 62 130 -2 2 -17
-21 -32 -52z"/>
<path d="M2537 823 c-10 -3 -16 -11 -13 -18 3 -8 1 -15 -4 -17 -5 -2 -6 -8 -2
-15 5 -8 14 -6 32 9 16 13 19 18 8 14 -10 -3 -18 -3 -18 1 0 3 8 12 18 19 17
14 12 15 -21 7z"/>
<path d="M77 714 c-20 -40 -8 -37 23 6 16 22 18 30 8 30 -8 0 -22 -16 -31 -36z"/>
<path d="M2504 742 c-11 -7 -34 -45 -34 -56 0 -18 21 -2 26 19 3 14 14 30 23
35 9 5 12 9 6 10 -5 0 -15 -4 -21 -8z"/>
<path d="M1733 710 c110 -61 239 -97 256 -72 3 5 13 11 21 14 8 3 -16 10 -55
17 -64 12 -196 43 -242 57 -10 3 -1 -4 20 -16z"/>
<path d="M1711 681 c12 -33 79 -112 118 -138 19 -13 53 -19 131 -24 58 -3 113
-9 123 -13 9 -5 17 -4 17 1 0 17 -76 43 -123 43 -26 0 -47 5 -47 10 0 6 -8 10
-17 10 -10 1 -52 18 -93 38 -56 28 -76 43 -78 60 -2 12 -12 27 -22 32 -17 9
-18 8 -9 -19z"/>
<path d="M1631 653 c-1 -24 4 -43 9 -43 12 0 12 24 0 60 -7 21 -8 19 -9 -17z"/>
<path d="M2720 679 c0 -5 -4 -7 -10 -4 -5 3 -10 -1 -10 -10 0 -12 5 -15 16
-11 9 3 18 6 20 6 2 0 4 7 4 15 0 8 -4 15 -10 15 -5 0 -10 -5 -10 -11z"/>
<path d="M2446 645 c-13 -20 -14 -30 -5 -46 8 -16 14 -18 22 -10 8 8 8 14 -1
23 -17 17 -15 29 6 26 9 -2 17 3 17 11 0 25 -22 23 -39 -4z"/>
<path d="M2646 654 c-3 -8 -11 -12 -17 -8 -7 4 -10 2 -8 -5 3 -7 9 -11 14 -10
38 9 43 12 38 25 -7 19 -19 18 -27 -2z"/>
<path d="M1600 618 c0 -28 48 -83 83 -94 9 -3 17 -9 17 -13 0 -4 28 -22 63
-39 58 -29 70 -31 192 -34 105 -3 137 -7 165 -23 19 -10 40 -20 45 -21 6 -1
24 -8 40 -15 17 -7 32 -13 35 -14 3 -1 23 -10 45 -20 24 -11 75 -21 129 -24
83 -6 90 -8 115 -37 14 -17 39 -39 54 -49 16 -10 46 -44 67 -75 35 -52 49 -62
141 -109 56 -28 114 -51 128 -51 26 0 81 45 81 66 0 7 -8 10 -19 7 -14 -3 -22
5 -35 36 -8 23 -18 41 -21 41 -3 0 2 -17 11 -37 29 -67 29 -81 1 -88 -33 -9
-54 -1 -130 44 -34 21 -74 41 -88 44 -19 5 -38 26 -65 72 -22 36 -47 67 -56
71 -10 3 -36 23 -58 44 -40 39 -41 39 -120 38 -73 -1 -84 2 -131 30 -27 18
-55 32 -61 32 -6 0 -45 16 -88 35 -74 33 -83 35 -189 35 -101 0 -117 3 -164
26 -84 43 -156 94 -172 123 l-14 26 -1 -27z"/>
<path d="M2126 621 c18 -11 35 -24 38 -30 4 -6 12 -11 18 -11 7 0 6 6 -2 15
-18 21 -3 19 31 -6 16 -11 34 -17 40 -14 13 9 -26 30 -94 50 -65 19 -69 19
-31 -4z"/>
<path d="M2410 588 c0 -6 -8 -21 -19 -32 -18 -21 -18 -21 0 -40 17 -17 19 -18
19 -3 0 9 -6 17 -12 17 -7 0 -1 11 13 23 14 13 24 28 21 35 -5 15 -22 16 -22
0z"/>
<path d="M501 543 c-8 -21 -18 -41 -24 -44 -15 -10 0 -27 42 -48 20 -11 43
-26 50 -35 7 -8 18 -13 26 -10 16 6 8 44 -10 44 -14 0 -71 47 -65 53 3 2 18 9
34 14 32 10 47 33 23 33 -8 0 -20 7 -27 15 -20 24 -35 17 -49 -22z"/>
<path d="M641 519 l-30 -64 33 38 c19 20 43 37 54 37 12 0 24 5 27 10 3 6 1
10 -6 10 -7 0 -20 7 -30 16 -17 15 -20 12 -48 -47z"/>
<path d="M2540 570 c-11 -7 -12 -12 -3 -21 13 -13 33 -4 33 17 0 16 -9 18 -30
4z"/>
<path d="M2613 573 c-18 -6 -16 -33 1 -33 8 0 17 4 20 8 7 12 -7 30 -21 25z"/>
<path d="M2448 564 c-13 -12 -9 -22 12 -29 11 -3 19 -11 17 -17 -1 -6 4 -13
11 -15 11 -4 12 -1 3 16 -7 11 -16 21 -21 21 -5 0 -10 7 -12 16 -2 9 -6 12
-10 8z"/>
<path d="M280 535 c0 -26 -172 -222 -215 -245 -14 -7 -25 -20 -25 -27 0 -11 9
-10 37 6 21 11 52 26 68 32 25 9 27 12 14 20 -17 9 -13 16 106 146 l40 44 35
-31 c19 -17 54 -45 77 -63 22 -18 46 -40 52 -49 10 -17 4 -18 -84 -18 -52 0
-95 -3 -95 -7 0 -5 35 -7 77 -6 57 1 97 -5 147 -21 66 -22 116 -24 116 -5 0 5
-7 9 -16 9 -22 0 -109 54 -160 99 -152 133 -174 148 -174 116z"/>
<path d="M2617 523 c-3 -5 -2 -15 2 -21 9 -15 43 -4 38 12 -5 14 -33 20 -40 9z"/>
<path d="M2979 513 c-20 -24 -187 -101 -237 -109 -55 -9 -67 -27 -13 -20 23 3
46 8 52 11 5 4 25 9 42 12 18 3 37 9 42 13 6 5 39 23 73 40 45 22 62 36 62 50
0 24 -4 25 -21 3z"/>
<path d="M2359 493 c9 -32 31 -43 31 -14 0 11 -9 25 -19 31 -17 9 -18 7 -12
-17z"/>
<path d="M2169 489 c-6 -3 -4 -11 5 -18 10 -8 16 -9 21 -1 3 5 18 10 32 10 15
0 23 3 19 8 -9 8 -64 10 -77 1z"/>
<path d="M650 362 c0 -9 35 -34 104 -76 19 -12 31 -15 38 -8 15 15 2 29 -34
36 -18 4 -50 18 -70 31 -21 14 -38 21 -38 17z"/>
<path d="M2715 360 c12 -19 -5 -48 -35 -60 -26 -11 -28 -15 -18 -28 11 -13 9
-14 -17 -9 l-30 7 25 -14 c14 -8 27 -11 30 -7 3 5 12 11 20 14 12 4 11 6 -3 6
-24 1 -12 21 13 21 10 0 21 7 24 16 10 25 7 64 -5 64 -5 0 -7 -5 -4 -10z"/>
<path d="M2560 350 c-35 -7 -34 -7 10 -8 25 0 59 4 75 8 28 7 28 8 -10 8 -22
-1 -56 -4 -75 -8z"/>
<path d="M2892 305 c2 -12 14 -21 35 -26 18 -3 40 -12 48 -19 9 -7 18 -11 21
-8 2 3 -11 17 -30 32 -24 18 -36 22 -40 13 -3 -8 -10 -6 -21 8 -16 20 -17 20
-13 0z"/>
<path d="M854 274 c-4 -10 -15 -30 -24 -44 -9 -14 -27 -42 -39 -63 l-23 -37
36 21 c20 11 33 25 30 30 -3 5 -1 9 3 9 10 0 36 90 29 98 -3 3 -9 -4 -12 -14z"/>
<path d="M270 265 c-47 -7 -91 -14 -98 -14 -7 -1 -11 -5 -8 -9 3 -5 29 -9 58
-11 29 -1 60 -4 68 -6 8 -2 32 -6 52 -9 33 -5 106 -29 251 -82 35 -13 41 -13
65 5 15 10 29 18 32 17 6 -1 80 79 80 86 0 10 -120 19 -155 12 -19 -3 -35 -12
-35 -19 0 -34 -73 -59 -109 -36 -19 12 -6 28 35 41 20 7 32 16 27 20 -16 16
-177 19 -263 5z m180 -16 c0 -6 4 -7 10 -4 6 3 7 -1 4 -9 -4 -11 -19 -16 -43
-16 -35 0 -91 19 -91 31 0 3 27 6 60 7 34 0 60 -3 60 -9z m250 -37 c0 -21 -29
-52 -50 -52 -9 0 -25 7 -36 15 -19 14 -18 14 6 32 47 34 80 37 80 5z"/>
<path d="M2739 247 c8 -10 9 -17 3 -17 -6 0 -14 5 -17 10 -3 6 -12 10 -18 10
-7 0 -4 -7 6 -14 13 -10 14 -15 6 -18 -8 -3 -6 -7 6 -12 11 -4 16 -4 12 0 -4
5 1 13 12 19 20 10 20 11 -2 24 -20 13 -21 13 -8 -2z"/>
<path d="M2926 245 c-11 -8 -56 -26 -99 -39 -74 -23 -83 -24 -110 -10 -16 9
-31 13 -34 11 -2 -3 5 -11 17 -17 15 -8 19 -17 15 -31 -8 -24 -7 -24 46 5 24
14 67 30 94 37 28 6 54 16 60 20 16 15 25 10 25 -13 0 -13 5 -30 11 -38 10
-15 8 4 -7 65 -5 20 -5 20 10 1 9 -11 16 -29 16 -40 1 -20 1 -20 11 -3 8 14 7
24 -5 43 -19 28 -24 29 -50 9z"/>
<path d="M15 181 c27 -12 188 -51 211 -51 17 0 16 1 -2 16 -18 15 -18 15 3 5
12 -6 39 -11 60 -11 21 0 44 -4 52 -9 18 -12 5 -32 -16 -24 -11 4 -14 3 -9 -5
11 -18 41 -15 78 8 22 13 27 21 17 24 -40 14 -102 27 -155 32 -33 3 -72 7 -89
9 -77 11 -169 15 -150 6z"/>
<path d="M2821 139 c-30 -10 -57 -22 -60 -25 -10 -11 60 7 103 27 53 24 27 23
-43 -2z"/>
<path d="M14 105 c-3 -14 -3 -33 1 -42 5 -15 9 -12 21 16 17 41 17 38 -1 45
-10 3 -17 -3 -21 -19z"/>
<path d="M450 100 c0 -11 -7 -23 -15 -26 -24 -9 -18 -24 10 -24 18 0 23 4 19
15 -5 11 1 15 24 15 22 0 32 -6 37 -20 5 -17 9 -18 33 -8 48 21 45 26 -25 47
-86 26 -83 26 -83 1z"/>
<path d="M2855 100 c10 -11 13 -20 8 -20 -6 0 -16 7 -23 15 -7 8 -18 15 -24
14 -7 0 -6 -2 2 -6 6 -2 10 -9 6 -14 -3 -5 -2 -8 3 -7 4 1 18 -3 30 -10 17 -9
21 -9 19 1 -6 26 -19 47 -29 47 -5 0 -2 -9 8 -20z"/>
<path d="M91 77 c-11 -16 -15 -17 -22 -6 -7 12 -9 11 -9 -2 0 -28 14 -31 33
-7 l18 23 -6 -24 c-5 -15 -3 -21 3 -17 6 3 22 2 37 -4 22 -8 26 -8 22 4 -4 10
0 12 16 8 32 -7 18 3 -34 25 l-46 20 -12 -20z"/>
</g>
</svg>
