<?xml version="1.0" standalone="no"?>
<!DOCTYPE svg PUBLIC "-//W3C//DTD SVG 20010904//EN"
 "http://www.w3.org/TR/2001/REC-SVG-20010904/DTD/svg10.dtd">
<svg version="1.0" xmlns="http://www.w3.org/2000/svg"
 width="300.000000pt" height="300.000000pt" viewBox="0 0 300.000000 300.000000"
 preserveAspectRatio="xMidYMid meet">
<metadata>
Created by potrace 1.10, written by Peter Selinger 2001-2011
</metadata>
<g transform="translate(0.000000,300.000000) scale(0.100000,-0.100000)"
fill="#000000" stroke="none">
<path d="M325 2975 c0 -30 19 -27 23 3 2 13 -2 22 -10 22 -7 0 -13 -11 -13
-25z"/>
<path d="M710 2978 c-9 -14 -15 -46 -15 -81 l0 -57 -80 -36 c-44 -20 -100 -44
-125 -54 -25 -9 -61 -23 -80 -32 -19 -8 -40 -13 -47 -11 -6 3 -17 43 -24 91
-8 48 -15 78 -17 66 -1 -11 1 -45 6 -75 5 -31 5 -64 1 -75 -4 -10 -8 -15 -8
-10 -2 17 -61 -67 -61 -85 0 -11 -6 -19 -13 -19 -7 0 -28 -13 -45 -28 -33 -29
-43 -74 -21 -88 12 -7 -26 -43 -47 -44 -24 0 -64 -56 -64 -91 0 -42 24 -70
107 -128 68 -48 83 -73 82 -146 0 -76 7 -155 19 -200 5 -22 10 -47 10 -55 0
-8 9 -42 21 -74 22 -63 29 -174 11 -192 -7 -7 -2 -18 14 -33 l24 -23 0 64 c0
35 -13 128 -30 208 -16 80 -31 168 -33 195 -2 28 -7 88 -12 134 l-8 85 -84 66
c-56 43 -87 75 -92 93 -7 25 -3 30 44 57 29 16 57 30 62 30 6 0 16 4 24 9 11
7 10 14 -6 37 -36 53 -35 59 19 80 56 21 65 33 49 63 -10 18 -7 23 36 44 27
13 128 54 225 93 l178 69 -7 73 c-3 41 -2 72 3 72 13 0 86 -50 104 -71 13 -15
28 -17 115 -11 85 5 94 7 60 14 -22 4 -57 5 -78 2 -38 -6 -67 6 -111 48 -11
10 -23 18 -28 18 -4 0 -8 7 -8 15 0 24 -53 19 -70 -7z"/>
<path d="M760 2882 c0 -6 -3 -17 -6 -26 -4 -10 -1 -16 9 -16 21 0 29 26 11 40
-9 8 -14 9 -14 2z"/>
<path d="M1957 2870 c-5 -21 -11 -21 -106 -18 -55 1 -102 0 -106 -4 -6 -6 90
-22 110 -18 6 1 51 2 102 1 l91 -1 35 -49 c27 -38 46 -53 84 -66 26 -9 81 -29
122 -45 l74 -29 52 30 c28 16 54 29 56 29 2 0 3 -25 2 -56 -1 -44 -6 -59 -22
-70 -25 -18 -27 -34 -5 -34 9 0 29 -10 46 -21 19 -14 47 -22 78 -23 67 -2 80
-16 80 -85 0 -44 -5 -64 -24 -89 -16 -22 -22 -40 -18 -60 l5 -27 8 27 c4 15
17 41 29 58 13 18 24 52 27 84 7 69 -21 116 -68 116 -17 0 -53 7 -81 16 -46
16 -49 19 -44 43 4 14 9 37 11 51 3 14 7 30 10 37 5 14 -28 53 -45 53 -7 0
-34 -12 -60 -26 l-47 -25 -84 31 c-122 47 -149 61 -149 76 0 8 -3 13 -7 12 -5
-1 -23 12 -42 30 -18 18 -40 32 -49 32 -9 0 -26 9 -38 21 l-21 20 -6 -21z"/>
<path d="M985 2860 c-3 -5 12 -18 34 -30 46 -23 62 -25 57 -7 -1 6 -1 9 1 5 3
-5 16 -5 29 -2 15 4 24 2 24 -5 0 -6 11 -11 25 -11 13 0 44 -8 67 -19 152 -67
163 -69 258 -37 178 58 269 47 305 -37 14 -31 14 -31 15 -6 0 30 -31 62 -82
84 -50 20 -69 19 -184 -11 -121 -31 -157 -29 -291 19 -56 20 -135 43 -175 52
-87 18 -76 17 -83 5z"/>
<path d="M796 2815 c-11 -8 -15 -15 -8 -15 6 0 14 -11 18 -25 3 -14 13 -25 23
-25 12 0 13 -2 3 -9 -11 -6 -11 -17 -3 -47 6 -22 16 -48 24 -57 12 -17 14 -16
36 14 l23 31 -21 42 c-12 22 -34 55 -49 73 -25 30 -29 31 -46 18z"/>
<path d="M737 2801 c-3 -13 6 -30 29 -52 l34 -33 -9 31 c-19 67 -44 91 -54 54z"/>
<path d="M1995 2785 c10 -16 26 -59 36 -95 13 -48 17 -57 18 -34 1 43 -26 119
-52 140 l-21 19 19 -30z"/>
<path d="M1845 2780 c-3 -6 2 -22 13 -38 10 -15 22 -39 25 -53 4 -14 20 -43
37 -64 16 -20 28 -41 25 -45 -2 -4 -18 -10 -35 -14 -17 -3 -60 -22 -95 -42
l-65 -36 21 -41 22 -41 23 29 c12 17 32 40 42 52 11 12 17 25 13 29 -3 4 -1 4
6 0 7 -4 30 12 55 39 24 25 47 45 52 45 4 0 5 -20 2 -43 -5 -33 -3 -47 9 -57
8 -7 15 -22 15 -34 1 -11 7 -32 15 -46 14 -24 14 -24 9 15 -24 186 -40 225
-95 225 -26 0 -29 3 -29 32 0 17 -3 28 -7 25 -10 -10 -33 13 -33 34 0 28 15
31 46 7 25 -20 27 -20 14 -3 -8 11 -19 23 -25 27 -15 11 -53 10 -60 -2z m-21
-306 c-13 -19 -19 -22 -25 -12 -6 8 -2 18 8 26 27 20 35 14 17 -14z"/>
<path d="M1072 2752 c-111 -115 -172 -206 -146 -216 16 -6 17 -3 33 47 7 20
17 37 22 37 8 0 129 146 129 156 0 10 -13 2 -38 -24z"/>
<path d="M1590 2751 c0 -6 8 -9 18 -9 40 2 79 -13 101 -39 22 -26 23 -27 5
-40 -11 -8 -31 -17 -46 -20 -16 -3 -28 -9 -28 -14 0 -5 -5 -9 -11 -9 -5 0 -8
4 -5 8 3 5 -18 3 -46 -4 -28 -8 -55 -11 -60 -8 -5 3 -25 6 -44 6 -19 0 -37 4
-40 9 -3 5 -22 9 -42 9 -30 0 -44 8 -75 39 -36 37 -76 54 -104 44 -7 -3 -13
-9 -13 -14 0 -9 -9 -21 -55 -72 -13 -14 -25 -31 -27 -38 -5 -14 -38 -22 -38
-9 0 5 5 12 10 15 6 3 10 16 10 28 0 11 12 34 27 49 15 15 22 28 17 28 -6 0
-25 -15 -43 -34 -36 -37 -76 -146 -66 -183 3 -15 0 -23 -12 -27 -10 -4 -47
-33 -83 -65 l-65 -59 30 -23 c16 -13 37 -31 45 -40 152 -159 260 -264 260
-253 0 8 -4 14 -9 14 -5 0 -11 6 -14 14 -5 12 -1 13 24 4 16 -5 29 -14 29 -18
0 -23 34 -17 63 11 30 29 30 30 5 14 -34 -21 -65 -15 -107 21 -17 14 -31 21
-31 15 0 -6 -4 -11 -10 -11 -5 0 -10 6 -10 14 0 8 -8 17 -19 21 -10 3 -27 16
-37 28 -10 12 -15 19 -11 16 9 -7 89 73 81 80 -2 2 -22 -10 -44 -28 -22 -18
-44 -31 -48 -29 -4 2 -23 14 -43 27 l-36 25 48 38 c27 21 49 43 49 48 0 6 -23
-8 -52 -30 -46 -37 -52 -39 -61 -24 -7 12 -6 24 3 38 12 19 12 20 -3 7 -21
-17 -43 -9 -50 18 -5 22 12 44 80 98 l40 32 36 -30 c20 -16 39 -38 42 -49 4
-11 10 -18 15 -15 4 3 13 -2 20 -10 7 -8 18 -15 25 -15 7 0 20 -12 30 -26 13
-21 21 -24 45 -19 36 8 52 -1 122 -65 31 -28 80 -66 108 -84 28 -18 47 -35 43
-40 -4 -4 14 -6 39 -5 26 2 45 6 42 10 -4 8 31 39 122 109 87 67 194 171 194
190 0 9 4 20 9 26 5 5 12 27 16 49 6 39 6 38 -23 -20 -27 -57 -105 -141 -170
-183 -14 -9 -47 -39 -73 -67 -27 -29 -64 -60 -83 -70 l-33 -18 -59 33 c-79 45
-127 83 -144 114 -10 20 -30 31 -79 46 -81 26 -151 70 -195 124 -39 47 -48 77
-26 84 8 3 12 1 8 -3 -13 -13 25 -65 73 -101 60 -44 166 -93 204 -95 17 -1 50
-8 75 -16 69 -22 172 -33 189 -19 11 8 13 8 8 -1 -5 -7 0 -9 13 -6 11 3 20 0
20 -6 0 -6 -5 -11 -11 -11 -6 0 -17 -7 -26 -16 -9 -8 -22 -13 -29 -10 -18 7
-29 -13 -16 -26 8 -8 16 -6 27 6 9 9 22 16 28 16 7 0 21 13 31 29 24 35 72 65
88 55 7 -5 8 -3 3 6 -6 10 -4 12 9 7 11 -4 15 -3 10 4 -4 7 0 9 14 5 26 -9 85
42 113 95 25 51 24 63 -2 19 -23 -39 -89 -110 -101 -110 -4 0 -8 7 -8 16 0 12
-5 14 -17 9 -62 -26 -163 -62 -165 -59 -2 2 -37 8 -78 14 -41 7 -99 23 -129
36 -60 27 -70 29 -53 12 7 -7 12 -16 12 -20 0 -27 -116 22 -197 83 -63 47 -81
75 -60 92 8 7 39 44 70 84 31 39 62 75 68 79 6 3 32 -14 57 -39 59 -56 92 -67
217 -74 118 -7 196 11 235 52 23 24 24 28 9 53 -8 15 -30 35 -49 44 -37 18
-120 24 -120 9z"/>
<path d="M2145 2611 c9 -40 47 -109 53 -93 2 6 -4 24 -12 41 -9 16 -16 36 -16
44 0 8 -7 21 -16 28 -15 12 -16 10 -9 -20z"/>
<path d="M326 2612 c5 -5 29 -17 54 -27 25 -11 78 -42 119 -70 175 -119 196
-132 201 -126 3 4 25 15 50 26 25 10 56 26 70 35 14 9 34 20 45 24 16 6 17 9
5 16 -13 8 -12 10 0 14 45 14 45 14 28 15 -10 1 -39 -14 -65 -33 -27 -18 -70
-43 -96 -55 l-49 -21 -117 85 c-118 85 -194 125 -234 125 -12 0 -17 -4 -11 -8z"/>
<path d="M2370 2582 c-52 -16 -100 -47 -100 -65 0 -18 3 -17 27 7 16 16 29 23
31 16 3 -8 8 -7 19 1 8 7 13 8 12 3 -4 -24 3 -25 26 -4 14 13 25 27 25 31 0
10 -23 17 -40 11z"/>
<path d="M322 2540 c-18 -11 -32 -24 -32 -30 0 -17 14 -11 28 11 17 27 60 20
108 -16 18 -14 37 -25 42 -25 6 0 12 -4 14 -9 2 -4 29 -26 62 -47 32 -22 77
-51 100 -66 43 -29 66 -35 66 -18 0 6 -5 10 -11 10 -6 0 -30 14 -54 30 -24 17
-46 30 -48 30 -2 0 -37 22 -78 48 -41 27 -94 61 -119 75 l-46 26 -32 -19z"/>
<path d="M756 2533 c-23 -12 -33 -13 -55 -3 l-26 11 21 -22 c22 -21 23 -21 68
-4 25 10 43 21 40 26 -7 11 -12 10 -48 -8z"/>
<path d="M1130 2540 c-12 -7 -11 -10 5 -16 11 -4 41 -27 67 -51 26 -23 51 -43
56 -43 12 0 62 65 62 79 0 30 -152 55 -190 31z m133 -35 c19 -8 19 -8 11 -29
-9 -24 -33 -19 -71 14 l-35 31 39 -5 c21 -2 46 -8 56 -11z"/>
<path d="M2361 2494 c-12 -15 -21 -38 -21 -51 0 -16 -4 -22 -12 -17 -6 4 -8 3
-5 -3 3 -5 -7 -26 -24 -46 l-29 -36 -30 17 c-17 9 -30 20 -30 24 0 14 -56 37
-70 28 -10 -6 -5 -13 21 -29 19 -12 39 -21 44 -21 6 0 27 -11 48 -25 20 -14
37 -22 37 -17 0 5 14 27 31 48 49 62 91 154 70 154 -5 0 -19 -12 -30 -26z"/>
<path d="M1350 2504 c0 -7 82 -44 99 -44 8 0 12 2 10 4 -8 8 -109 46 -109 40z"/>
<path d="M2440 2495 c-1 -11 -23 -74 -50 -140 -49 -119 -44 -131 10 -25 38 75
63 161 50 174 -7 7 -10 4 -10 -9z"/>
<path d="M290 2448 c21 -19 27 -29 15 -24 -97 40 -74 20 168 -142 147 -99 213
-139 227 -135 11 3 20 9 20 13 0 9 33 7 67 -4 12 -4 38 -22 59 -41 21 -19 46
-35 55 -35 10 0 21 -5 25 -12 5 -8 2 -9 -9 -5 -11 4 -22 -1 -30 -14 -6 -11
-35 -33 -64 -49 -39 -22 -54 -38 -63 -64 -6 -20 -20 -38 -31 -41 -11 -4 -18
-9 -15 -12 9 -9 54 25 61 47 3 11 25 31 47 44 l41 24 31 -37 c17 -20 37 -53
45 -72 10 -26 27 -41 73 -64 32 -16 64 -32 69 -34 6 -2 -17 25 -51 60 -140
145 -141 146 -134 173 8 35 22 33 64 -9 19 -20 87 -81 150 -137 157 -138 211
-191 201 -197 -15 -11 -23 -61 -9 -61 11 0 34 28 73 89 6 8 16 21 23 29 17 19
15 25 -12 51 -30 28 -46 20 -46 -21 0 -23 4 -29 15 -24 16 6 20 -10 9 -38 -9
-24 -20 -19 -34 14 -10 25 -58 72 -276 273 -82 75 -177 146 -247 182 l-70 37
-17 -22 c-15 -20 -21 -22 -46 -13 -40 14 -184 115 -184 129 0 14 -66 74 -82
74 -5 0 -39 23 -74 50 -71 56 -98 67 -44 18z m725 -450 c7 -7 40 -35 73 -63
56 -46 91 -87 58 -68 -22 13 -161 143 -152 143 4 0 13 -6 21 -12z"/>
<path d="M2050 2462 c0 -6 4 -14 10 -17 5 -3 15 -15 21 -27 8 -15 8 -19 0 -14
-6 4 -11 2 -11 -3 0 -6 5 -11 12 -11 6 0 21 -8 32 -17 21 -18 21 -18 4 2 -9
11 -18 31 -20 44 -3 24 -48 64 -48 43z"/>
<path d="M913 2440 c-18 -11 -68 -53 -110 -93 -43 -40 -92 -83 -108 -94 l-31
-21 -63 49 c-35 27 -70 49 -79 49 -8 0 2 -13 23 -30 21 -16 42 -30 46 -30 5 0
9 -7 9 -15 0 -18 31 -35 66 -35 30 0 83 40 178 135 34 33 74 70 90 83 35 27
22 29 -21 2z"/>
<path d="M2240 2451 c-15 -4 -26 -15 -28 -29 -4 -24 12 -30 25 -9 4 6 24 20
43 29 32 15 33 17 10 16 -14 0 -36 -3 -50 -7z"/>
<path d="M1535 2407 l-49 -32 29 -5 c18 -3 35 0 43 7 18 17 33 16 60 -3 40
-28 44 -10 5 28 l-38 37 -50 -32z"/>
<path d="M210 2396 c0 -6 142 -102 178 -120 44 -23 41 -13 -5 15 -21 13 -64
43 -97 66 -52 38 -76 51 -76 39z"/>
<path d="M2577 2333 c-18 -20 -56 -63 -84 -95 -29 -32 -53 -60 -53 -63 0 -13
63 32 86 60 13 17 28 35 33 41 20 25 61 94 55 94 -3 0 -20 -17 -37 -37z"/>
<path d="M152 2328 c104 -89 286 -206 263 -168 -8 13 -215 155 -255 174 l-35
17 27 -23z"/>
<path d="M2047 2335 c-4 -8 -1 -12 6 -9 13 5 69 -50 79 -77 9 -24 219 -169
246 -169 13 0 21 4 17 9 -3 6 -54 43 -113 85 -59 41 -125 92 -147 114 -52 51
-81 67 -88 47z"/>
<path d="M2015 2312 c-4 -18 -16 -37 -25 -42 -10 -5 -26 -30 -36 -55 -13 -30
-24 -43 -33 -40 -9 4 -11 0 -7 -11 8 -20 -38 -84 -60 -84 -9 0 -28 -10 -42
-21 -26 -21 -26 -21 -3 -14 16 5 21 4 17 -4 -4 -6 -2 -11 3 -11 6 0 11 7 11
15 0 8 5 15 10 15 17 0 11 -18 -12 -34 -16 -11 -26 -12 -40 -5 -11 6 -22 8
-25 5 -3 -3 2 -8 11 -12 18 -7 21 -41 5 -64 -9 -12 -10 -11 -6 7 4 19 2 20
-13 10 -10 -6 -17 -14 -15 -18 3 -3 -2 -15 -11 -25 -14 -19 -15 -18 -30 4 -11
14 -27 22 -44 22 -16 0 -31 6 -33 13 -3 6 -6 7 -6 2 -1 -6 21 -32 47 -58 l49
-48 71 81 c39 45 90 113 113 151 23 38 46 72 51 75 4 3 24 36 42 72 23 47 31
73 26 87 -7 17 -9 16 -15 -13z"/>
<path d="M789 2263 l-44 -47 40 31 c22 16 45 33 51 36 7 4 28 -14 50 -43 21
-28 44 -50 51 -50 7 0 20 -8 30 -19 10 -10 40 -35 66 -54 60 -45 77 -63 72
-71 -3 -3 -2 -4 1 -1 4 2 23 -8 43 -22 23 -17 15 -6 -25 33 -68 67 -259 235
-278 246 -8 4 -29 -10 -57 -39z"/>
<path d="M1456 2239 c40 -42 93 -68 126 -62 15 3 44 21 65 39 l38 34 -48 -31
-49 -32 -59 29 c-33 15 -65 34 -71 41 -6 7 -15 13 -21 13 -6 0 2 -14 19 -31z"/>
<path d="M2557 2237 c-21 -33 -22 -83 -2 -91 22 -8 36 36 27 81 l-8 36 -17
-26z"/>
<path d="M2085 2169 c-41 -83 -111 -172 -231 -298 l-104 -109 14 -38 c20 -56
54 -122 66 -129 18 -11 10 32 -10 50 -22 20 -18 72 8 93 14 11 14 12 0 12 -8
0 -21 -7 -28 -15 -16 -19 -30 -19 -30 0 0 8 18 34 40 56 22 23 40 45 40 50 0
5 6 9 13 9 6 1 29 24 50 53 21 29 56 72 78 97 l39 45 -12 -35 c-6 -19 -47 -81
-90 -137 -43 -57 -78 -106 -78 -109 0 -3 17 12 38 32 20 20 36 40 35 45 -3 8
36 24 43 17 2 -3 5 -23 6 -46 2 -71 18 -71 18 0 0 70 36 206 64 243 9 11 16
27 16 35 1 20 49 119 50 102 0 -15 20 -6 20 9 0 6 -4 8 -9 4 -5 -3 -11 1 -13
9 -2 8 -16 -12 -33 -45z"/>
<path d="M2488 2149 c-24 -34 -28 -49 -27 -107 0 -47 3 -61 9 -47 5 11 9 35 9
54 1 19 4 31 8 28 3 -4 6 -20 5 -37 0 -17 4 -28 9 -25 5 4 9 -1 9 -9 0 -20
-17 -30 -23 -14 -3 7 -6 -9 -6 -35 -1 -35 4 -54 19 -70 l21 -21 -1 44 c0 25
-1 97 -1 160 0 63 -1 116 -2 116 -1 1 -14 -16 -29 -37z"/>
<path d="M1213 2168 c2 -7 12 -13 23 -14 10 -1 27 -5 37 -9 10 -4 23 -3 28 2
7 7 -5 14 -35 22 -56 14 -59 14 -53 -1z"/>
<path d="M1805 2156 c17 -14 39 -25 50 -26 21 0 19 1 -55 39 -22 11 -21 10 5
-13z"/>
<path d="M310 2152 c0 -4 6 -16 13 -27 7 -11 21 -41 31 -67 19 -52 36 -63 36
-23 0 13 7 28 16 33 13 7 8 16 -33 50 -47 41 -63 50 -63 34z"/>
<path d="M2111 2141 c-14 -26 -14 -91 0 -91 5 0 7 5 4 10 -13 21 22 9 58 -21
22 -18 37 -39 37 -52 -1 -26 -41 -81 -92 -126 -20 -17 -46 -48 -58 -69 l-22
-37 23 20 23 20 -21 -35 c-22 -38 -33 -74 -39 -134 -2 -26 -14 -50 -32 -70
-54 -59 -72 -89 -72 -122 0 -35 -13 -46 -24 -19 -4 12 -18 2 -56 -40 -27 -30
-50 -62 -50 -69 0 -8 -3 -23 -6 -33 -6 -18 17 12 58 76 18 29 24 32 32 19 8
-13 15 -9 43 24 18 22 30 44 27 49 -3 5 -2 15 3 22 4 6 8 17 9 24 4 26 97 133
116 133 18 0 18 1 2 28 -15 27 -15 31 2 63 19 34 21 40 23 71 1 16 30 51 98
120 20 20 26 37 27 71 1 37 4 43 19 39 10 -3 21 -11 24 -18 3 -8 10 -14 17
-14 19 0 39 -40 27 -54 -12 -15 -41 -130 -41 -167 0 -14 6 -34 14 -44 13 -18
15 -17 30 19 10 25 16 68 16 120 0 110 -18 147 -105 210 -36 27 -74 60 -85 73
-18 24 -19 24 -29 4z"/>
<path d="M300 2098 c0 -42 8 -68 21 -68 14 0 11 45 -6 76 l-15 29 0 -37z"/>
<path d="M2565 2110 c-11 -36 -9 -100 4 -113 8 -8 11 -6 12 9 0 10 2 30 5 44
2 14 0 39 -4 55 l-9 30 -8 -25z"/>
<path d="M1685 2080 c-27 -7 -26 -8 13 -7 30 0 46 -5 57 -19 11 -15 14 -16 15
-3 0 35 -26 44 -85 29z"/>
<path d="M1418 2073 c37 -5 62 -42 62 -94 0 -23 -4 -30 -15 -25 -10 3 -20 -5
-30 -25 -16 -31 -35 -31 -35 0 0 9 -7 26 -15 37 -13 17 -14 17 -15 2 0 -9 5
-20 10 -23 12 -8 13 -65 1 -65 -5 0 -14 7 -21 15 -7 9 -15 14 -17 11 -2 -2
-24 17 -48 43 -25 25 -45 41 -45 34 0 -16 109 -133 124 -133 6 0 49 38 95 85
77 77 86 84 101 70 15 -13 19 -12 40 10 13 14 18 25 12 25 -6 0 -14 -4 -17
-10 -9 -15 -28 -12 -22 3 4 10 -3 12 -24 9 -16 -2 -26 -8 -23 -13 13 -21 -28
-7 -59 21 -23 20 -44 29 -63 28 -28 -1 -28 -1 4 -5z"/>
<path d="M2402 2068 c-7 -7 -12 -21 -12 -31 0 -11 -8 -26 -17 -34 -14 -10 -14
-13 -3 -11 11 2 15 -6 13 -32 0 -19 -1 -46 -2 -59 -1 -16 -5 -21 -16 -17 -8 3
-15 1 -15 -5 0 -5 7 -12 16 -16 13 -5 15 -21 12 -98 -2 -51 -7 -91 -12 -88 -5
3 -6 32 -3 64 3 33 2 61 -3 64 -10 6 -22 -153 -25 -330 -2 -84 -8 -152 -15
-170 l-13 -30 -7 33 c-8 36 -20 53 -21 31 0 -8 -5 -3 -11 11 -6 16 -12 20 -15
12 -3 -7 1 -21 9 -30 26 -30 29 -52 10 -72 -24 -26 -27 -86 -5 -129 l18 -36 3
54 c2 33 -1 57 -8 61 -9 6 -9 13 -1 29 15 28 18 27 34 -12 16 -37 15 -131 -2
-216 -6 -29 -7 -60 -3 -68 16 -27 33 146 39 377 4 194 8 237 28 310 22 80 35
174 51 368 6 80 1 95 -24 70z"/>
<path d="M515 2045 c39 -34 154 -99 162 -91 3 3 -7 10 -23 16 -15 6 -49 26
-74 44 -26 18 -57 39 -71 45 -20 10 -20 8 6 -14z"/>
<path d="M404 2012 c-1 -32 1 -41 7 -27 4 11 8 15 8 9 1 -5 8 -19 17 -30 15
-18 15 -18 9 11 -7 35 -28 85 -35 85 -3 0 -5 -21 -6 -48z"/>
<path d="M455 2034 c13 -31 18 -137 8 -174 -13 -45 0 -74 44 -101 22 -14 33
-28 33 -44 0 -12 8 -42 17 -66 13 -35 17 -83 18 -229 2 -180 3 -188 33 -276
35 -101 38 -119 20 -108 -8 5 -7 0 2 -11 8 -10 21 -30 28 -44 11 -24 12 -21 7
24 -16 142 -24 313 -25 525 0 277 -5 332 -31 348 -15 10 -17 9 -13 -3 4 -10 0
-15 -12 -15 -14 0 -15 -3 -6 -12 7 -7 12 -20 12 -30 0 -10 4 -18 9 -18 5 0 11
-10 14 -22 2 -13 8 -31 12 -40 5 -13 3 -18 -9 -18 -13 0 -16 -11 -16 -52 0
-28 -3 -48 -7 -44 -8 7 -9 11 -12 37 0 5 -5 7 -11 4 -5 -3 -10 1 -10 9 0 10 6
13 15 10 25 -10 17 23 -11 45 -19 15 -28 33 -32 66 -4 40 -6 43 -17 28 -12
-17 -14 -16 -19 7 -10 49 -14 147 -6 160 4 7 13 9 20 5 26 -16 -1 14 -32 37
-29 20 -31 21 -23 2z m160 -676 c11 -28 21 -133 15 -163 -1 -5 -10 13 -20 40
-17 46 -27 155 -14 155 3 0 11 -15 19 -32z"/>
<path d="M2110 1966 c6 -74 11 -84 31 -59 12 15 12 16 -3 10 -15 -5 -17 0 -14
31 4 41 -2 82 -13 82 -3 0 -4 -29 -1 -64z"/>
<path d="M336 1991 c-3 -4 4 -25 14 -47 l20 -38 0 47 c0 34 -4 47 -14 47 -8 0
-17 -4 -20 -9z"/>
<path d="M574 1955 c20 -14 45 -25 54 -25 10 0 1 11 -23 25 -52 33 -79 32 -31
0z"/>
<path d="M2590 1932 c0 -16 -2 -51 -5 -78 -4 -36 -3 -43 4 -28 14 33 22 122
11 129 -6 4 -10 -6 -10 -23z"/>
<path d="M413 1938 c-7 -8 -10 -59 -10 -133 l2 -120 17 35 c13 25 17 54 16
105 -2 38 1 75 4 81 4 6 2 19 -5 28 -11 15 -15 15 -24 4z"/>
<path d="M1010 1934 c0 -18 61 -80 80 -81 26 -2 21 20 -6 26 -10 2 -31 16 -46
32 -16 16 -28 26 -28 23z"/>
<path d="M650 1913 c0 -10 36 -107 80 -216 44 -109 78 -202 75 -206 -2 -5 11
-46 30 -92 19 -46 35 -97 35 -114 0 -22 3 -26 10 -15 7 11 11 9 19 -13 11 -29
27 -38 17 -9 -6 16 -5 16 8 0 15 -20 31 -25 20 -6 -5 8 0 9 17 5 22 -5 22 -4
5 6 -67 43 -94 68 -99 94 -3 15 -9 37 -13 48 -7 17 -6 18 8 7 13 -11 16 -10
14 5 0 10 -7 24 -14 31 -7 8 -10 18 -7 23 4 5 -1 9 -10 9 -12 0 -14 4 -5 19
13 26 13 31 -4 31 -7 0 -16 10 -19 23 -21 86 -44 152 -84 236 -26 53 -46 103
-46 112 1 8 -7 21 -18 27 -16 10 -19 9 -19 -5z"/>
<path d="M1502 1843 c-87 -95 -99 -139 -17 -61 30 28 57 60 61 70 3 10 11 18
18 18 15 0 66 -62 66 -81 0 -6 9 -27 21 -45 11 -19 18 -38 15 -43 -4 -5 -1
-13 5 -17 6 -3 22 -31 35 -60 13 -30 29 -54 35 -54 9 0 -8 36 -54 110 -6 11
-3 28 12 55 11 22 21 34 21 27 0 -6 5 -12 10 -12 6 0 10 7 10 15 0 8 -6 15
-12 15 -7 0 -45 32 -84 71 l-71 71 -71 -79z"/>
<path d="M2244 1892 c-12 -10 -25 -29 -29 -43 -4 -13 -13 -31 -20 -39 -7 -8
-16 -25 -20 -38 -3 -12 -11 -20 -16 -16 -6 3 -9 -18 -8 -53 1 -32 -1 -73 -6
-92 -7 -35 -28 -65 -38 -55 -6 6 -26 -93 -31 -156 -3 -25 -12 -65 -21 -90 -9
-25 -16 -56 -16 -70 3 -53 1 -97 -4 -138 -5 -35 -10 -42 -23 -37 -14 5 -14 3
1 -13 26 -28 33 -88 15 -110 -9 -9 -21 -28 -28 -42 l-13 -25 25 23 c31 28 33
28 36 -8 1 -17 9 -48 16 -68 44 -117 82 -202 110 -246 18 -28 35 -60 39 -70 4
-10 10 -16 13 -13 3 3 -5 27 -19 54 -33 61 -94 196 -114 248 -20 54 -44 258
-37 320 10 95 45 300 59 345 7 25 25 79 40 120 14 41 31 95 36 120 6 25 24 72
40 105 55 107 57 124 13 87z"/>
<path d="M10 1893 c0 -3 11 -21 24 -38 22 -28 54 -108 69 -170 4 -16 5 -15 6
5 1 35 -28 144 -39 148 -6 2 -10 8 -10 13 0 9 -36 49 -45 49 -3 0 -5 -3 -5 -7z"/>
<path d="M877 1862 c-28 -17 -33 -27 -18 -36 9 -6 57 41 50 48 -2 3 -17 -3
-32 -12z"/>
<path d="M2488 1803 c1 -43 5 -98 9 -123 l6 -45 9 40 c10 41 -7 205 -21 205
-3 0 -5 -35 -3 -77z"/>
<path d="M2531 1853 c1 -10 5 -29 9 -43 7 -21 8 -19 9 18 1 23 -3 42 -9 42 -5
0 -10 -8 -9 -17z"/>
<path d="M0 1807 c0 -13 8 -32 19 -41 18 -16 18 -16 13 11 -3 15 -11 34 -19
41 -11 11 -13 9 -13 -11z"/>
<path d="M1138 1819 c20 -21 15 -26 -37 -44 -68 -22 -77 -36 -45 -66 25 -23
26 -23 22 -3 -4 26 18 54 42 54 51 0 67 35 28 59 -18 10 -20 11 -10 0z"/>
<path d="M351 1790 c0 -14 4 -45 8 -70 l8 -45 2 55 c0 30 -4 62 -9 70 -8 12
-10 10 -9 -10z"/>
<path d="M833 1782 c3 -31 51 -63 135 -88 64 -19 105 -68 121 -145 12 -55 40
-106 51 -90 3 6 21 -4 43 -26 27 -26 41 -33 49 -25 7 7 -2 19 -32 41 -24 17
-48 31 -55 31 -6 0 -18 19 -25 43 -43 137 -89 189 -194 217 -34 10 -62 22 -62
29 -1 6 -2 15 -3 20 0 5 -7 11 -15 14 -11 4 -14 -1 -13 -21z"/>
<path d="M1524 1778 c-30 -32 -44 -62 -44 -93 0 -17 -4 -24 -12 -19 -6 4 -9 3
-6 -2 8 -13 -7 -49 -21 -50 -6 -1 -16 -2 -22 -3 -7 0 -1 -11 12 -24 13 -12 47
-55 74 -95 28 -39 53 -72 58 -72 4 0 4 18 1 40 -4 26 -2 45 6 55 10 12 8 16
-15 25 -14 5 -30 10 -35 10 -5 0 -20 5 -33 11 l-25 11 24 59 c13 32 24 67 24
78 0 10 6 21 14 24 23 9 60 -27 95 -92 17 -33 36 -63 41 -66 20 -12 9 -24 -30
-35 -22 -6 -40 -16 -40 -21 0 -7 10 -9 25 -5 l25 6 -30 -52 c-32 -56 -26 -50
48 41 l33 41 -51 98 c-28 54 -61 111 -73 126 l-22 27 -21 -23z"/>
<path d="M437 1670 c-10 -50 -14 -96 -10 -102 4 -8 10 -1 15 17 9 36 23 175
16 175 -2 0 -12 -41 -21 -90z"/>
<path d="M1155 1711 c28 -11 59 -19 70 -20 25 0 -38 24 -85 33 -28 5 -25 2 15
-13z"/>
<path d="M1959 1700 c61 -34 61 -34 61 -20 0 12 -76 50 -100 50 -8 0 9 -14 39
-30z"/>
<path d="M1727 1713 c-6 -10 27 -109 44 -129 6 -7 4 -16 -6 -24 -18 -15 -20
-34 -2 -24 7 4 9 3 4 -2 -5 -5 -12 -9 -17 -9 -11 0 -90 -91 -90 -104 0 -6 -11
-18 -25 -27 -14 -9 -23 -19 -21 -22 3 -3 25 13 50 34 106 95 130 113 134 109
3 -3 -16 -31 -41 -64 -26 -33 -47 -62 -47 -65 0 -3 -20 -35 -44 -70 -44 -64
-44 -65 -30 -105 7 -22 17 -77 20 -122 5 -60 12 -87 26 -101 14 -14 16 -23 9
-36 -5 -10 -6 -24 -2 -31 6 -9 12 -3 20 20 9 26 8 37 -4 56 -9 13 -23 61 -32
106 -28 148 -28 142 8 191 35 50 44 55 46 29 0 -10 2 -29 3 -43 2 -14 0 -59
-3 -100 -6 -71 -6 -73 8 -45 9 19 14 58 14 105 -1 75 19 177 48 238 16 34 38
45 28 13 -5 -15 -2 -18 14 -14 13 3 21 -1 24 -14 3 -12 5 -13 6 -3 0 8 -14 32
-33 52 -19 21 -38 48 -41 60 -4 13 -15 41 -24 63 -10 22 -22 51 -27 64 -6 14
-13 20 -17 14z"/>
<path d="M1391 1651 c-24 -46 -26 -54 -10 -49 11 4 41 79 34 86 -2 2 -13 -14
-24 -37z"/>
<path d="M208 1645 c11 -22 29 -50 41 -61 11 -12 17 -25 14 -28 -4 -3 -1 -6 5
-6 7 0 12 4 12 8 0 13 -55 96 -75 112 -16 13 -16 11 3 -25z"/>
<path d="M1528 1673 c-5 -23 -2 -91 3 -87 7 4 9 94 2 94 -1 0 -4 -3 -5 -7z"/>
<path d="M150 1657 c0 -16 22 -74 51 -132 5 -11 21 -25 34 -32 29 -13 34 1 7
16 -11 6 -27 32 -37 58 -25 64 -55 114 -55 90z"/>
<path d="M2270 1640 c-12 -17 -20 -35 -18 -41 2 -6 14 8 26 30 27 48 23 54 -8
11z"/>
<path d="M2315 1634 c-4 -10 -13 -34 -21 -52 -18 -42 -18 -50 2 -26 12 15 15
16 10 2 -2 -9 -8 -34 -12 -55 -3 -21 -13 -45 -20 -54 -11 -12 -11 -23 -2 -55
l11 -39 13 60 c26 117 40 286 19 219z"/>
<path d="M1177 1586 c-20 -12 -34 -26 -30 -29 3 -4 12 -2 19 3 6 6 16 10 20 8
5 -1 21 6 37 16 21 14 30 16 41 7 10 -9 16 -8 26 4 21 25 -67 18 -113 -9z"/>
<path d="M1901 1599 c-53 -10 -64 -19 -59 -50 3 -24 3 -24 37 9 19 18 45 32
60 33 14 1 37 5 51 9 23 7 22 8 -10 8 -19 0 -55 -4 -79 -9z"/>
<path d="M393 1575 c18 -93 19 -118 6 -110 -9 6 -11 3 -6 -9 4 -10 7 -27 8
-39 0 -15 2 -17 6 -7 3 8 9 17 14 20 8 5 -16 159 -27 169 -3 3 -4 -7 -1 -24z"/>
<path d="M1305 1580 c-3 -5 -2 -10 3 -10 5 0 23 -13 40 -29 16 -16 33 -27 37
-23 3 3 3 -1 -1 -11 -4 -11 0 -19 10 -23 9 -3 16 -12 16 -18 0 -7 26 -39 58
-72 83 -86 82 -84 88 -181 5 -88 4 -89 -21 -103 -15 -8 -31 -23 -37 -33 -17
-32 -1 -30 22 2 12 17 28 31 36 31 12 0 15 18 13 98 -1 53 -5 102 -10 108 -6
7 -8 18 -7 25 2 7 -4 13 -14 14 -15 0 -98 94 -98 111 0 4 14 -5 32 -22 l32
-29 -35 44 c-19 24 -46 57 -61 73 -14 15 -24 28 -21 28 3 0 0 7 -7 15 -14 17
-66 20 -75 5z"/>
<path d="M460 1535 c-1 -22 -5 -87 -10 -145 -4 -58 -7 -107 -4 -109 8 -8 23
50 25 101 4 68 15 85 42 61 22 -20 23 -22 -21 67 l-32 65 0 -40z"/>
<path d="M1215 1500 l-50 -7 53 -1 c29 -1 52 2 52 8 0 6 -1 9 -2 8 -2 0 -25
-4 -53 -8z"/>
<path d="M1320 1430 c-19 -14 -22 -22 -13 -31 8 -8 14 -6 22 10 19 35 29 24
29 -30 1 -29 6 -57 12 -63 8 -8 10 -4 5 17 -5 20 -3 27 7 27 17 0 48 -31 48
-47 0 -6 7 -14 16 -17 11 -4 15 -2 11 7 -8 22 -98 147 -105 147 -4 0 -18 -9
-32 -20z"/>
<path d="M1128 1415 c-12 -12 12 -120 28 -130 39 -22 94 -79 119 -121 15 -25
29 -43 32 -41 11 11 -111 169 -141 183 -11 5 -21 18 -22 29 -1 11 -3 35 -5 53
-4 35 -3 34 -11 27z"/>
<path d="M1228 1373 c-24 -6 -29 -30 -10 -50 9 -10 14 -14 10 -9 -23 30 38 50
62 20 14 -16 50 -38 50 -30 0 3 -14 21 -31 41 -30 33 -43 38 -81 28z"/>
<path d="M1460 1271 c0 -6 4 -13 10 -16 5 -3 8 -18 6 -33 -2 -15 -1 -20 1 -12
3 8 9 20 13 25 5 6 3 18 -4 28 -14 19 -26 22 -26 8z"/>
<path d="M2837 1173 c-51 -64 -83 -113 -73 -113 5 0 95 114 120 153 32 48 10
29 -47 -40z"/>
<path d="M1791 1188 c-28 -65 -40 -98 -36 -98 9 0 52 76 59 103 9 37 -7 34
-23 -5z"/>
<path d="M907 1170 c4 -25 8 -86 8 -137 -1 -51 2 -87 6 -81 6 9 14 9 36 0 l28
-12 -27 24 c-33 30 -36 46 -7 46 15 0 19 5 16 18 -17 59 -17 92 -3 98 9 3 13
10 10 16 -3 5 -14 2 -25 -8 -18 -16 -19 -16 -19 3 0 12 -7 34 -16 49 -15 29
-15 29 -7 -16z"/>
<path d="M554 1162 c-9 -33 -9 -46 0 -55 7 -7 19 -27 27 -44 16 -37 34 -45 25
-10 -3 12 -6 26 -6 30 0 5 -5 5 -12 1 -8 -5 -9 -2 -5 9 3 10 2 17 -3 17 -5 0
-10 21 -12 47 l-3 48 -11 -43z"/>
<path d="M2262 1012 c11 -135 17 -146 15 -25 -1 56 -7 107 -12 112 -7 7 -8
-20 -3 -87z"/>
<path d="M545 1079 c-7 -10 3 -150 11 -158 2 -2 4 35 4 82 0 86 -2 97 -15 76z"/>
<path d="M1448 1011 c-20 -51 -19 -59 6 -32 10 11 16 31 14 48 -3 27 -4 26
-20 -16z"/>
<path d="M1530 985 c7 -8 16 -30 20 -48 l7 -32 8 39 c8 39 -2 55 -34 56 -11 0
-11 -3 -1 -15z"/>
<path d="M600 931 c17 -33 51 -190 52 -243 2 -91 15 -18 21 119 3 73 2 135 -3
138 -5 3 -10 -18 -12 -47 l-3 -53 -28 53 c-15 28 -30 52 -33 52 -2 0 0 -9 6
-19z"/>
<path d="M1621 904 c-31 -39 -25 -50 9 -17 17 15 30 31 30 35 0 16 -19 7 -39
-18z"/>
<path d="M1442 855 c0 -31 25 -142 26 -115 1 8 -5 44 -13 80 -7 36 -13 52 -13
35z"/>
<path d="M877 787 c-23 -64 -38 -100 -88 -202 -33 -67 -35 -75 -14 -50 14 17
35 41 48 54 12 13 15 20 7 16 -9 -5 -7 1 5 14 11 13 19 25 17 27 -4 6 12 61
37 123 12 30 18 58 14 62 -5 5 -17 -15 -26 -44z"/>
<path d="M1647 706 c-17 -78 -22 -124 -11 -114 3 4 7 17 9 30 2 12 8 49 15 81
17 88 6 91 -13 3z"/>
<path d="M2247 419 c10 -17 27 -38 37 -47 11 -9 5 4 -13 31 -36 53 -52 64 -24
16z"/>
<path d="M0 160 c0 -5 5 -10 10 -10 6 0 10 -32 10 -77 0 -59 3 -74 12 -65 8 8
15 8 24 1 18 -15 49 -3 64 26 19 35 1 68 -57 105 -50 32 -63 36 -63 20z m70
-76 c0 -20 4 -33 10 -29 5 3 7 12 3 20 -3 8 0 15 6 15 18 0 25 -29 11 -45 -7
-8 -21 -15 -31 -15 -16 0 -19 8 -19 45 0 25 5 45 10 45 6 0 10 -16 10 -36z"/>
<path d="M512 122 c8 -12 52 -40 97 -62 44 -22 81 -44 81 -50 0 -5 12 -10 26
-10 l27 0 -24 18 c-13 10 -55 33 -92 50 -38 17 -82 42 -100 54 l-31 22 16 -22z"/>
</g>
</svg>
