<?xml version="1.0" standalone="no"?>
<!DOCTYPE svg PUBLIC "-//W3C//DTD SVG 20010904//EN"
 "http://www.w3.org/TR/2001/REC-SVG-20010904/DTD/svg10.dtd">
<svg version="1.0" xmlns="http://www.w3.org/2000/svg"
 width="1024.000000pt" height="1024.000000pt" viewBox="0 0 1024.000000 1024.000000"
 preserveAspectRatio="xMidYMid meet">
<metadata>
Created by potrace 1.16, written by Peter Selinger 2001-2019
</metadata>
<g transform="translate(0.000000,1024.000000) scale(0.100000,-0.100000)"
fill="#000000" stroke="none">
<path d="M0 7161 l0 -3079 26 -6 c20 -5 25 -12 21 -26 -6 -24 -3 -25 17 -4 9
8 16 11 16 6 0 -26 78 -13 100 18 3 3 27 21 53 39 26 18 65 54 85 80 21 26 42
46 47 44 6 -2 18 14 27 34 22 51 81 130 85 116 2 -6 -4 -21 -13 -32 -19 -21
-30 -71 -17 -71 4 0 23 28 42 62 l34 61 -7 98 c-5 64 -3 106 4 119 13 24 30
26 30 3 0 -9 11 -36 25 -60 31 -52 60 -57 69 -12 13 66 6 220 -14 311 -12 50
-20 98 -18 105 2 8 19 -9 38 -38 67 -99 94 -89 106 39 6 66 4 86 -16 142 -14
40 -21 76 -17 91 10 41 65 109 87 109 11 0 20 5 20 10 0 6 5 10 11 10 16 0 84
71 103 107 29 57 13 141 -42 212 -16 21 -32 61 -39 96 -14 68 -49 162 -70 186
-7 8 -13 19 -13 24 0 4 -24 40 -53 79 -54 72 -87 102 -232 218 -103 82 -173
169 -235 291 -52 102 -64 162 -35 173 8 4 15 13 15 21 0 25 137 269 146 260 2
-2 -3 -37 -12 -78 -20 -92 -14 -190 13 -244 33 -64 102 -135 182 -187 40 -26
77 -48 81 -48 3 0 0 30 -8 68 -20 100 5 284 75 537 20 72 37 158 39 193 3 50
8 69 29 93 14 17 25 28 25 24 0 -6 20 9 50 39 11 11 20 16 20 10 0 -5 4 -2 10
6 17 28 21 2 5 -31 -18 -34 -55 -136 -55 -151 0 -4 5 -8 10 -8 6 0 10 8 10 17
0 9 3 14 6 10 3 -3 3 -15 -1 -27 -5 -15 -12 -19 -23 -15 -14 5 -15 4 -4 -6 15
-16 16 -59 1 -59 -6 0 -9 -6 -6 -14 3 -8 -10 -46 -29 -85 -36 -74 -53 -131
-39 -131 5 0 17 8 28 18 19 16 20 16 15 -8 -3 -14 -9 -34 -13 -45 -6 -15 -2
-13 13 7 23 28 28 53 12 63 -12 8 10 45 27 45 7 0 16 12 19 28 4 15 16 35 27
44 14 13 17 21 10 30 -12 15 11 78 27 78 6 0 10 5 10 10 0 10 10 23 65 82 18
20 40 50 49 67 9 17 21 31 28 31 14 0 58 51 58 68 0 7 5 10 11 7 15 -10 59 35
59 60 0 12 7 36 16 54 9 18 20 66 26 107 9 64 7 86 -12 167 -12 50 -26 105
-31 121 -6 19 -5 33 1 42 8 8 7 13 -1 16 -9 3 -9 9 0 26 7 13 11 60 10 115 0
50 -1 96 0 101 2 20 62 -55 99 -124 29 -55 44 -101 58 -175 10 -55 24 -115 32
-134 l13 -34 14 27 c20 38 28 150 16 229 -16 111 -63 198 -145 270 -102 91
-126 118 -126 141 0 12 -9 27 -20 34 -20 12 -20 13 2 45 13 17 26 34 31 35 4
2 7 24 7 48 0 66 28 168 71 256 39 79 101 158 124 158 7 0 15 6 18 13 2 6 12
-15 21 -48 10 -33 22 -73 28 -90 5 -16 15 -52 20 -80 10 -46 53 -105 78 -105
21 0 16 -32 -10 -67 -26 -34 -29 -46 -30 -113 0 -41 7 -103 15 -138 8 -35 13
-67 10 -72 -3 -5 3 -11 12 -14 10 -4 28 -29 40 -57 26 -58 42 -60 61 -5 24 74
34 303 22 506 0 14 1 58 4 99 3 40 8 105 10 143 3 39 7 72 9 74 2 2 11 -20 20
-49 16 -49 66 -117 85 -117 5 0 12 -32 15 -71 3 -39 15 -103 26 -143 11 -39
23 -84 26 -100 3 -16 14 -30 25 -33 10 -3 21 -11 24 -19 3 -8 17 -14 31 -14
14 0 25 -4 25 -10 0 -5 16 -10 35 -10 19 0 35 5 35 10 0 6 -4 10 -8 10 -16 0
-121 101 -128 123 -4 12 -14 33 -23 47 -10 15 -16 45 -16 72 0 27 -3 48 -7 48
-11 0 -10 118 1 122 4 2 12 14 16 28 7 24 7 24 -8 5 -15 -20 -15 -20 -21 5
-19 77 -33 156 -28 164 7 13 32 -52 32 -85 0 -20 5 -29 16 -29 11 0 14 5 10
16 -7 18 13 84 26 84 4 0 8 11 8 24 0 13 7 26 15 30 8 3 15 12 15 21 0 8 6 15
14 15 7 0 25 11 40 25 15 14 29 25 32 25 3 0 13 7 22 16 24 25 25 5 2 -82 -24
-93 -25 -129 -5 -178 21 -50 53 -68 122 -69 61 -1 122 24 225 89 59 38 173
139 200 177 l21 29 -21 -11 c-12 -6 -25 -17 -29 -24 -4 -6 -19 -13 -33 -14
-14 -1 -39 -5 -57 -9 -30 -6 -33 -4 -42 27 -6 24 -9 28 -10 12 -2 -41 -12 -53
-47 -53 -32 0 -34 2 -33 33 1 43 14 82 25 80 5 -1 8 16 6 36 -3 32 1 44 28 71
18 18 29 38 26 47 -3 8 -1 11 4 8 6 -3 10 5 10 18 0 13 3 26 6 30 8 8 66 -28
83 -52 13 -17 16 -18 30 -4 18 19 27 2 12 -25 -7 -13 -7 -22 2 -31 6 -6 10
-26 9 -44 -2 -31 -1 -32 37 -32 38 -1 41 1 56 41 17 44 22 73 24 134 l1 35 25
-30 c13 -16 24 -36 25 -43 0 -7 6 -20 14 -28 28 -27 31 -102 7 -168 -27 -74
-61 -120 -109 -146 -60 -33 -103 -60 -117 -73 -7 -7 -38 -30 -69 -52 -34 -24
-50 -41 -41 -43 18 -4 21 -72 3 -90 -15 -15 -51 -15 -66 0 -6 6 -15 8 -19 4
-7 -6 21 -30 37 -31 3 0 10 -4 17 -8 17 -10 43 3 54 27 8 18 9 17 4 -6 -4 -23
-2 -28 14 -28 11 0 23 -4 26 -10 17 -28 125 11 125 44 0 12 4 17 8 11 4 -5 21
-10 38 -11 25 -1 30 3 30 20 -1 16 6 22 26 24 38 5 61 64 65 176 2 68 8 97 24
123 11 18 23 33 25 33 3 0 9 -12 15 -27 l10 -26 35 34 c39 38 39 38 63 10 23
-27 34 -27 26 -1 -6 19 5 27 19 13 3 -4 16 -8 28 -10 29 -5 29 -5 32 -50 2
-21 7 -47 11 -58 15 -36 96 -135 106 -130 5 4 9 -6 9 -20 0 -14 4 -24 9 -21 5
3 11 -12 15 -34 3 -22 11 -40 16 -40 5 0 7 15 4 33 l-5 32 16 -30 c14 -27 15
-28 10 -5 -2 14 -5 33 -5 43 0 10 -4 16 -9 12 -12 -7 -31 26 -31 54 0 10 -5
21 -11 23 -6 2 -12 23 -13 46 -2 44 -22 69 -94 121 -28 19 -42 54 -43 104 0 9
-7 17 -15 17 -8 0 -14 7 -14 15 0 8 -5 15 -10 15 -6 0 -15 12 -21 26 -8 22 -6
30 11 46 11 10 20 15 20 11 1 -4 8 1 18 13 9 11 22 20 27 20 6 -1 12 10 13 23
2 13 12 26 23 28 10 3 16 9 13 14 -3 5 1 9 9 9 7 0 19 11 25 25 6 14 15 25 20
25 5 0 22 11 38 25 16 14 35 25 42 25 6 0 12 4 12 8 0 8 60 36 73 33 4 0 7 5
7 12 0 16 47 40 61 31 5 -3 12 2 15 10 3 9 14 16 23 16 9 0 28 11 41 23 14 13
38 27 54 31 59 15 109 99 126 212 7 47 8 79 1 96 -5 14 -7 36 -4 48 4 15 2 21
-4 17 -6 -4 -8 3 -5 19 6 34 14 23 47 -66 36 -100 43 -213 20 -335 -10 -49
-18 -101 -18 -115 -1 -14 -4 -27 -8 -30 -12 -10 -37 -110 -28 -116 5 -3 12 1
15 9 7 18 44 30 99 32 47 1 115 23 115 36 0 5 5 9 11 9 5 0 8 -4 5 -9 -3 -4 6
-6 19 -3 14 2 22 8 20 13 -3 4 2 12 11 17 12 7 17 27 19 79 1 38 8 79 14 91 6
11 11 27 10 34 0 7 -4 4 -8 -7 -6 -14 -10 1 -15 51 -8 77 -23 135 -55 204 -23
51 -27 90 -8 90 8 0 7 3 -3 10 -17 11 -14 14 25 27 l30 11 -29 11 c-23 9 -31
9 -37 -1 -6 -9 -10 -8 -15 5 -9 24 -34 21 -34 -4 0 -11 -4 -18 -10 -14 -5 3
-7 12 -4 20 5 13 -237 15 -1925 15 l-1931 0 0 -3079z m1288 2788 c42 -179 -20
-482 -114 -560 -13 -11 -13 -6 2 27 9 21 23 51 30 65 8 15 15 49 18 76 2 27 8
59 15 71 6 11 8 27 5 36 -3 8 2 38 11 66 13 40 16 77 13 161 -2 60 -1 109 3
109 3 0 11 -23 17 -51z m-332 -626 c-2 -16 -10 -55 -16 -88 -20 -100 -7 -254
30 -348 16 -43 30 -84 30 -90 0 -7 -19 9 -43 34 -23 25 -46 45 -52 45 -5 -1
-22 33 -38 74 -39 102 -36 185 11 285 40 84 59 115 72 115 5 0 8 -12 6 -27z"/>
<path d="M5921 10231 c-9 -6 -11 -18 -8 -33 5 -19 0 -31 -24 -54 -37 -35 -109
-144 -137 -206 -11 -25 -23 -70 -27 -99 -8 -56 -51 -159 -66 -159 -5 0 -8 -6
-7 -12 2 -7 -5 -12 -15 -10 -10 2 -21 -7 -28 -22 -8 -16 -17 -22 -27 -19 -10
4 -13 2 -8 -5 4 -7 2 -12 -3 -12 -6 0 -11 -8 -11 -18 0 -10 -4 -22 -9 -28 -5
-5 -12 -25 -16 -45 -6 -33 -3 -40 39 -83 39 -39 52 -46 86 -46 22 0 40 4 40 9
0 13 58 41 62 30 3 -10 126 64 145 88 6 8 15 14 20 14 17 1 82 43 77 51 -6 9
5 11 57 8 40 -1 151 25 180 43 10 6 22 8 26 3 14 -14 -65 -73 -160 -119 -95
-47 -129 -76 -202 -177 -51 -69 -66 -117 -54 -171 12 -53 33 -84 74 -108 l33
-19 -2 22 c-2 13 -7 29 -12 37 -30 49 -2 57 31 9 16 -22 36 -40 46 -40 19 0
26 -14 12 -23 -5 -2 -3 -2 4 -1 6 2 14 -4 17 -12 3 -8 10 -14 17 -14 6 0 9 7
6 15 -7 17 9 30 18 15 7 -12 26 -14 24 -2 -4 21 2 42 12 42 7 0 9 -10 5 -24
-3 -14 -2 -27 3 -31 5 -3 9 -19 9 -35 -1 -35 13 -58 83 -135 59 -63 132 -105
188 -105 19 0 31 3 28 7 -4 3 -2 12 4 20 6 7 7 13 2 13 -13 0 -12 33 1 42 7 5
4 8 -7 8 -10 0 -15 5 -12 10 3 6 -23 38 -59 73 -56 54 -95 112 -83 124 2 2 26
-12 53 -30 27 -19 66 -40 87 -47 20 -8 37 -18 37 -23 0 -4 4 -6 9 -3 5 3 14
-1 21 -9 7 -8 17 -15 23 -15 5 0 79 -34 164 -76 84 -41 158 -72 163 -69 6 3
13 -1 16 -9 4 -11 11 -13 22 -7 10 5 20 9 25 10 4 1 8 1 10 2 23 7 47 5 76 -6
20 -8 51 -16 69 -19 29 -4 32 -2 32 23 0 24 4 28 30 28 17 0 32 2 35 4 10 10
23 140 18 181 -6 56 -29 115 -59 155 -13 17 -25 42 -26 55 -3 25 -2 25 100 12
36 -5 52 -3 52 5 0 11 33 8 70 -7 27 -10 61 -11 55 -1 -4 5 9 9 28 9 25 0 43
-9 70 -35 20 -19 40 -35 46 -35 5 0 11 -6 14 -12 3 -10 7 -10 19 -1 12 11 17
7 31 -23 9 -19 17 -41 17 -49 0 -8 4 -15 8 -15 4 0 14 -16 21 -35 7 -19 21
-40 32 -45 10 -6 19 -21 19 -33 0 -21 1 -21 13 3 15 30 39 36 61 15 14 -15 16
-15 16 -1 0 9 -4 16 -8 16 -5 0 -6 14 -4 32 5 32 5 32 14 8 17 -46 -2 -169
-33 -222 -16 -27 -29 -53 -29 -58 0 -10 -92 -100 -141 -137 -33 -24 -33 -25
-7 -19 14 3 34 9 45 12 13 4 11 -1 -8 -18 -33 -29 -43 -56 -28 -74 10 -12 8
-13 -6 -7 -15 5 -17 3 -12 -11 4 -10 10 -30 14 -44 3 -14 12 -37 19 -51 8 -14
14 -31 14 -37 0 -6 7 -17 15 -24 10 -9 15 -9 15 -1 0 6 5 11 11 11 8 0 7 -5
-1 -15 -10 -12 -10 -19 -2 -27 9 -9 12 -9 12 1 0 7 5 9 11 5 8 -5 7 -9 -1 -14
-8 -5 -10 -16 -6 -26 6 -16 7 -16 19 1 13 16 15 16 40 -7 15 -14 27 -31 27
-39 0 -15 106 -119 114 -112 3 3 15 -4 27 -15 27 -26 72 -37 97 -23 11 6 55
50 98 97 44 48 94 104 111 123 49 54 41 20 -27 -114 -33 -65 -58 -120 -57
-122 5 -4 77 95 87 120 6 16 9 17 9 5 1 -9 -4 -29 -11 -45 -6 -15 -12 -31 -12
-35 -1 -3 -4 -10 -8 -14 -5 -4 -8 -15 -8 -24 0 -9 -12 -30 -26 -46 -42 -47
-44 -65 -16 -101 19 -26 32 -33 58 -33 18 0 35 -4 39 -9 7 -12 -31 -25 -47
-15 -8 5 -9 2 -5 -9 3 -10 2 -17 -3 -17 -6 0 -10 -6 -10 -13 0 -8 -13 -33 -29
-58 -16 -24 -34 -68 -41 -98 -14 -59 -8 -177 9 -194 6 -6 11 -16 11 -23 0 -7
16 -46 35 -87 19 -41 35 -79 35 -83 0 -5 16 -33 35 -61 19 -29 35 -55 35 -59
0 -14 147 -144 163 -144 5 0 7 -7 3 -15 -3 -8 -2 -15 3 -15 5 0 11 -19 15 -42
5 -32 9 -39 17 -28 6 11 8 5 7 -20 -3 -29 0 -35 17 -35 11 0 25 11 32 25 13
24 13 24 11 -12 -3 -52 5 -55 28 -11 10 21 22 40 25 43 14 11 49 95 49 117 0
12 9 28 19 35 11 6 17 19 14 27 -3 10 -2 12 4 5 4 -6 41 -30 81 -53 39 -23 72
-46 72 -52 0 -6 5 -7 10 -4 6 3 10 2 10 -3 0 -5 18 -35 40 -68 84 -126 92
-288 26 -499 -21 -66 -50 -142 -64 -170 -40 -80 -125 -188 -230 -293 -127
-127 -169 -180 -188 -235 -15 -43 -14 -49 11 -134 14 -48 30 -96 35 -105 8
-13 6 -16 -5 -12 -11 5 -13 2 -9 -10 3 -9 1 -16 -5 -16 -6 0 -11 -8 -11 -18 0
-10 -5 -23 -10 -28 -6 -6 -12 -26 -14 -46 -2 -19 -7 -41 -12 -49 -5 -8 -8 -60
-8 -116 1 -80 5 -106 18 -118 19 -19 20 -32 4 -37 -7 -3 -5 -7 5 -11 32 -12
44 35 26 104 -18 70 -10 95 21 62 l20 -23 21 21 c33 33 44 10 69 -146 27 -169
34 -192 55 -175 19 16 20 -1 3 -81 -13 -66 -8 -76 65 -130 24 -18 33 -29 25
-33 -10 -5 -10 -7 0 -12 6 -3 12 -13 12 -21 0 -9 19 -37 43 -63 23 -26 62 -80
87 -120 25 -39 52 -82 60 -95 8 -13 33 -54 54 -92 46 -80 76 -121 76 -103 0
15 29 -21 56 -70 24 -43 33 -56 62 -85 12 -12 32 -36 45 -53 12 -17 50 -67 85
-112 76 -99 113 -156 105 -164 -3 -3 2 -8 11 -12 9 -3 16 -14 16 -24 0 -11 5
-22 10 -25 6 -3 10 -13 10 -22 0 -8 14 -35 30 -60 17 -24 30 -50 30 -57 0 -8
7 -19 15 -26 8 -7 15 -20 15 -30 0 -10 7 -23 15 -30 9 -7 14 -18 11 -25 -5
-15 29 -60 46 -60 7 0 14 -10 16 -23 2 -13 10 -26 18 -29 8 -3 14 -9 14 -15 0
-15 73 -116 89 -123 8 -3 23 4 34 16 16 17 17 23 6 31 -10 7 -8 8 7 3 18 -5
25 2 42 42 28 68 67 212 87 323 23 130 46 180 81 180 20 0 25 -4 20 -17 -4 -9
-11 -64 -17 -122 -12 -126 -30 -215 -68 -331 -16 -47 -32 -114 -36 -150 -8
-71 -19 -98 -47 -118 -10 -8 -31 -42 -47 -76 -38 -85 -107 -202 -133 -225 -14
-14 -18 -25 -13 -38 7 -16 9 -15 18 10 6 15 14 27 19 27 4 0 15 14 23 30 14
28 17 29 31 15 9 -8 20 -15 25 -15 5 0 50 -41 99 -90 50 -50 95 -88 100 -85 6
4 10 -1 10 -9 0 -9 7 -16 15 -16 8 0 15 -3 15 -7 0 -11 51 -34 61 -28 4 3 11
35 14 71 8 74 19 73 37 -4 7 -29 16 -52 20 -52 5 0 8 -6 8 -13 0 -12 31 -45
73 -76 16 -13 17 177 17 3958 l0 3971 -2065 0 -2064 0 -15 -29 c-19 -36 -74
-83 -88 -75 -9 6 -29 -1 -80 -27 -37 -19 -16 10 36 50 29 23 61 50 71 61 18
20 17 20 -41 20 -32 0 -65 -4 -73 -9z m2177 -53 c4 -56 -43 -127 -95 -143 -13
-3 -23 -9 -23 -13 0 -4 -20 -8 -45 -10 -33 -2 -47 2 -51 13 -10 24 79 120 138
149 64 32 73 32 76 4z m397 -2649 c-16 -31 -22 -175 -6 -150 7 11 11 4 17 -25
4 -21 17 -69 30 -105 21 -59 30 -141 21 -194 -6 -34 -18 -65 -25 -65 -13 1
-42 27 -42 39 0 6 -11 11 -25 11 -14 0 -25 4 -25 9 0 5 -11 11 -25 13 -14 2
-25 6 -25 11 0 4 -15 20 -33 36 -34 30 -41 41 -78 126 -18 40 -20 61 -16 120
5 70 36 151 64 168 7 4 13 14 13 22 0 9 11 12 37 10 20 -1 53 3 73 10 48 17
65 4 45 -36z"/>
<path d="M5170 9427 c-27 -14 -43 -61 -17 -51 8 3 18 1 22 -5 3 -6 -2 -11 -12
-11 -15 0 -15 -2 -3 -14 8 -8 21 -16 29 -18 7 -2 28 -16 45 -31 22 -20 38 -27
56 -23 40 7 79 -4 73 -21 -4 -11 0 -13 21 -7 26 6 38 -10 14 -19 -10 -4 -10
-6 0 -6 19 -1 52 18 52 30 0 6 -5 7 -11 3 -6 -3 -23 3 -39 14 -18 14 -36 19
-50 15 -13 -4 -21 -2 -17 3 3 5 -1 20 -9 34 -7 14 -13 19 -14 13 0 -21 -27
-15 -33 7 -4 18 -2 20 16 14 12 -3 27 -11 32 -18 15 -16 53 -36 70 -36 8 0 14
-5 13 -12 -2 -6 5 -14 15 -16 16 -3 17 -1 5 17 -7 12 -20 24 -29 26 -16 6 -33
40 -29 60 1 6 -1 7 -5 3 -4 -4 -14 -1 -21 7 -7 7 -33 16 -56 20 -24 4 -53 13
-65 21 -27 17 -22 17 -53 1z"/>
<path d="M4015 9310 c-47 -10 -137 -43 -180 -68 -82 -46 -95 -57 -95 -84 0
-17 -7 -29 -19 -33 -29 -9 -156 -136 -174 -174 -15 -31 -15 -36 -1 -67 15 -32
204 -217 225 -221 5 -1 5 1 -1 4 -16 8 -12 23 5 17 15 -6 19 7 16 53 -1 11 6
27 17 35 16 11 18 21 12 83 -7 65 -32 147 -52 170 -4 5 -8 17 -8 27 0 10 -4
18 -10 18 -5 0 -10 7 -10 15 0 8 -6 15 -12 15 -7 1 8 20 33 43 35 33 71 51
160 83 99 36 251 76 329 88 14 2 -24 3 -85 4 -60 0 -128 -4 -150 -8z"/>
<path d="M3286 8984 c3 -21 15 -64 26 -94 11 -30 24 -95 29 -145 5 -49 18
-125 29 -167 23 -88 23 -88 12 -88 -4 0 -14 17 -22 38 -19 54 -23 25 -6 -49
14 -60 13 -71 -16 -237 -27 -161 -28 -176 -14 -205 8 -17 13 -34 10 -36 -12
-12 -62 56 -78 104 -9 30 -22 55 -29 55 -7 0 -48 -9 -93 -20 -93 -22 -254 -40
-359 -40 -78 0 -92 -7 -76 -39 10 -17 22 -19 115 -19 161 1 161 -18 1 -62 -44
-12 -84 -26 -89 -30 -11 -11 37 -113 88 -190 55 -81 105 -191 104 -225 -1 -17
5 -42 12 -55 12 -23 12 -24 -3 -12 -9 8 -19 22 -22 33 -4 11 -10 17 -15 14 -9
-6 19 -105 61 -215 15 -41 49 -133 74 -205 26 -71 53 -146 61 -165 12 -31 12
-33 -1 -16 -8 11 -35 74 -61 140 -136 357 -180 463 -190 453 -3 -3 9 -34 27
-68 25 -49 33 -78 34 -124 1 -57 1 -59 -11 -30 -7 17 -13 38 -14 48 0 16 -63
125 -79 137 -4 3 -15 16 -24 30 -29 42 -19 7 28 -99 52 -116 87 -213 80 -219
-2 -3 -9 6 -14 19 -35 93 -46 116 -56 129 -7 8 -28 47 -47 85 -19 39 -69 129
-110 200 -41 72 -94 165 -118 208 -24 42 -47 77 -52 77 -5 0 -13 12 -18 26 -6
14 -15 22 -21 18 -6 -3 -7 -9 -2 -13 13 -9 45 -62 40 -67 -5 -5 -26 19 -71 83
-44 64 -47 90 -5 43 17 -19 27 -28 23 -20 -12 26 -47 60 -55 54 -5 -3 -9 2 -9
10 0 8 -5 18 -12 22 -7 5 -8 3 -3 -7 8 -12 6 -12 -8 0 -10 8 -15 16 -13 18 3
3 1 10 -5 17 -5 6 -18 22 -30 36 l-20 25 17 -30 17 -30 -26 30 c-28 32 -35 50
-14 40 6 -4 -1 5 -17 19 -17 14 -33 23 -38 20 -4 -3 -6 1 -3 8 3 7 -27 48 -67
91 l-73 77 -54 0 c-47 0 -57 -4 -87 -34 -24 -24 -32 -39 -27 -52 4 -11 2 -15
-4 -11 -20 13 -53 -87 -53 -164 0 -25 9 -72 20 -104 23 -68 25 -101 5 -135 -8
-14 -14 -32 -14 -40 1 -13 1 -13 6 0 3 8 13 26 23 40 9 14 27 50 39 80 45 106
78 132 115 91 16 -17 17 -33 11 -132 l-8 -112 42 7 c58 9 51 -7 -11 -28 -29
-9 -59 -20 -66 -23 -11 -4 -12 -1 -5 13 13 25 31 116 38 186 4 43 1 60 -11 72
-36 36 -48 19 -148 -227 -8 -20 -23 -40 -33 -44 -17 -7 -35 -20 -79 -60 -14
-13 -34 -23 -45 -23 -10 0 -27 -4 -37 -9 -9 -6 -34 -13 -55 -16 -42 -7 -41
-20 2 -30 16 -3 39 -15 51 -25 l23 -20 -27 -55 c-31 -67 -32 -71 -5 -78 12 -3
18 -3 15 0 -3 3 6 19 19 35 14 16 25 36 25 44 0 8 4 14 9 14 14 0 33 -28 26
-40 -4 -6 -1 -9 6 -8 22 5 30 -54 14 -99 -16 -40 -17 -41 -46 -31 -16 5 -29
16 -29 24 0 18 -14 18 -30 0 -6 -8 -19 -17 -28 -19 -9 -2 -5 -3 9 -1 14 2 30
-1 35 -6 5 -4 20 -11 34 -14 14 -2 -4 -3 -40 -1 -45 2 -56 1 -35 -5 29 -7 29
-8 5 -10 -14 -2 10 -6 52 -10 114 -11 122 -15 143 -60 17 -38 44 -69 105 -120
l25 -21 -35 5 c-19 4 -68 13 -107 22 -71 16 -74 17 -115 75 -24 32 -55 63 -70
70 -25 10 -95 16 -103 8 -2 -2 3 -21 10 -42 7 -20 9 -40 4 -43 -14 -8 -10 -24
6 -24 8 0 15 -7 15 -15 0 -8 -6 -15 -12 -15 -7 0 -26 -7 -42 -15 -16 -9 -30
-14 -32 -13 -30 32 -104 135 -105 147 0 10 -2 12 -6 3 -5 -12 45 -100 75 -132
31 -33 98 -59 146 -58 33 0 56 -6 81 -23 37 -26 50 -50 60 -117 7 -45 30 -77
47 -66 15 9 56 -16 61 -37 3 -10 13 -22 24 -25 10 -3 27 -10 38 -15 l20 -10
-20 6 c-19 5 -19 4 -2 -9 9 -7 17 -18 17 -23 0 -5 30 -22 66 -38 78 -34 92
-57 57 -94 -12 -14 -23 -30 -23 -35 0 -10 31 13 43 32 5 7 12 10 18 7 5 -4 9
2 9 11 0 10 3 15 6 11 3 -3 0 -23 -7 -44 -7 -21 -12 -41 -11 -45 3 -12 -27
-10 -41 2 -39 34 -154 99 -227 128 -47 19 -87 38 -90 42 -10 15 -50 31 -50 20
0 -5 6 -10 14 -10 8 0 17 -7 20 -16 5 -13 2 -15 -11 -9 -72 30 -191 57 -275
62 -88 5 -103 3 -172 -22 -62 -23 -79 -34 -101 -66 -14 -22 -30 -39 -36 -39
-5 0 -7 -5 -4 -10 9 -15 41 5 61 39 16 27 24 30 111 41 203 27 351 -18 599
-184 49 -34 100 -67 112 -74 25 -14 27 -30 11 -86 l-11 -39 -41 40 c-89 85
-123 102 -258 128 -82 15 -145 30 -293 69 -71 19 -121 26 -180 25 -106 -2
-139 -9 -126 -29 8 -12 10 -12 10 -1 0 9 4 10 12 3 7 -5 22 -12 33 -15 11 -3
4 -5 -15 -4 -28 2 -34 -1 -32 -15 2 -10 -2 -19 -8 -19 -5 -1 -14 -2 -19 -3
-19 -2 -24 -16 -6 -16 14 0 7 -10 -25 -37 -42 -36 -100 -108 -100 -125 0 -4 6
-8 13 -8 7 0 27 -14 46 -30 18 -17 36 -28 41 -25 12 7 72 -30 63 -39 -4 -4 0
-4 9 -1 24 9 128 -47 128 -69 0 -3 -10 -6 -22 -6 -17 0 -19 -3 -10 -9 11 -6
10 -10 -3 -15 -14 -5 -15 -9 -6 -20 9 -11 9 -15 0 -18 -14 -5 172 -138 242
-174 33 -16 49 -31 49 -43 0 -11 -21 -63 -46 -118 -72 -152 -91 -196 -161
-368 -36 -88 -87 -212 -113 -275 -55 -134 -109 -245 -155 -315 -89 -138 -166
-285 -229 -442 -24 -59 -78 -169 -121 -243 -43 -74 -112 -196 -154 -270 -42
-74 -102 -172 -132 -216 -29 -45 -114 -171 -188 -280 -73 -110 -151 -234 -172
-276 l-39 -78 0 -297 0 -298 80 -55 c53 -37 77 -60 74 -70 -3 -8 -2 -11 2 -8
8 9 93 -49 101 -68 3 -8 14 -14 24 -14 10 0 19 -4 19 -9 0 -4 28 -18 63 -29
34 -11 101 -41 150 -65 48 -25 87 -42 87 -39 0 3 6 -3 14 -13 12 -17 15 -12
26 53 6 39 9 104 6 144 -3 40 -6 84 -7 97 0 14 -4 19 -8 13 -5 -8 -18 2 -37
28 -33 44 -36 46 -54 25 -10 -12 -48 -22 -51 -12 0 1 -4 45 -8 98 -6 86 -12
105 -49 179 -23 45 -42 85 -42 88 0 3 15 -8 32 -25 18 -17 51 -42 73 -55 45
-29 95 -76 95 -91 0 -5 7 -3 16 4 15 12 16 11 10 -8 -5 -15 8 -75 35 -170 36
-127 42 -162 43 -248 1 -55 -1 -117 -4 -139 -5 -37 -4 -38 35 -51 49 -15 277
-65 300 -65 15 0 15 -2 1 -15 -8 -8 -31 -15 -51 -15 -20 0 -48 -6 -63 -14 -29
-15 -95 -13 -191 5 -142 28 -350 134 -431 218 -61 64 -122 103 -145 94 -9 -3
-39 10 -70 31 -30 20 -59 36 -65 36 -15 0 -13 -173 2 -189 10 -11 10 -14 1
-18 -9 -3 -13 -34 -13 -105 0 -97 1 -101 28 -124 27 -24 103 -64 122 -64 5 0
29 -11 52 -24 24 -12 75 -40 113 -61 39 -21 95 -54 125 -73 60 -38 210 -150
210 -157 0 -2 -42 22 -92 55 -94 60 -190 115 -308 178 -36 19 -107 56 -158 83
l-92 50 0 -646 c0 -620 1 -645 18 -645 11 0 27 -9 36 -19 15 -16 16 -31 10
-105 -4 -54 -11 -86 -18 -85 -47 6 -46 8 -46 -151 l0 -150 745 0 c612 0 745 2
745 13 0 8 11 24 25 37 32 30 31 38 -2 50 -16 6 -37 14 -48 19 -11 5 -38 16
-60 24 -22 9 -58 23 -80 33 -22 9 -49 18 -60 20 -12 1 -36 9 -55 18 -26 12
-28 15 -10 11 14 -2 35 -5 48 -5 15 0 21 -4 16 -11 -4 -7 -1 -10 7 -7 8 3 25
1 39 -5 14 -5 34 -11 45 -12 47 -6 105 -27 105 -36 0 -6 6 -9 14 -6 8 3 53 -1
101 -9 101 -18 388 -15 515 5 41 6 120 13 175 15 114 4 216 31 264 71 l29 25
42 -27 41 -27 -35 -32 c-20 -18 -36 -38 -36 -45 0 -7 -3 -9 -6 -6 -4 4 -19 -4
-35 -17 -30 -25 -115 -44 -209 -45 -30 0 -98 -12 -150 -25 l-95 -25 1331 -1
1331 0 60 30 c61 30 70 42 103 133 13 38 35 29 34 -14 -1 -28 -19 -77 -52
-141 -2 -5 291 -8 652 -8 361 0 656 2 656 5 0 3 -4 14 -10 25 -5 11 -14 29
-20 40 -18 37 -35 65 -52 88 -9 13 -14 30 -11 38 3 7 -2 17 -11 20 -9 3 -16
15 -16 25 0 19 -30 90 -42 99 -10 8 -88 168 -88 181 0 6 -6 23 -14 37 -27 50
-156 320 -156 327 0 3 -18 47 -39 98 -38 89 -112 329 -127 412 -6 36 -6 39 9
26 10 -7 17 -20 17 -27 0 -8 29 -76 65 -153 35 -76 81 -185 101 -242 51 -147
124 -330 141 -358 12 -19 17 -21 24 -10 7 12 9 11 10 -1 2 -16 5 -32 9 -40 1
-3 3 -14 4 -25 7 -47 54 -159 123 -293 95 -185 121 -225 139 -218 67 26 455
57 539 43 70 -11 303 -19 343 -12 21 4 36 14 41 28 8 21 8 21 34 -6 34 -38 75
-48 186 -47 94 0 165 12 176 30 12 19 26 9 56 -40 l31 -50 1294 0 1294 0 -1
878 c0 482 -2 873 -4 867 -2 -5 -6 -27 -10 -47 -9 -56 -43 -52 -108 12 -61 61
-94 70 -89 25 2 -16 17 -54 33 -84 l31 -53 -30 21 c-75 53 -231 278 -355 511
-93 176 -196 382 -195 388 1 6 -20 58 -29 71 -1 2 -24 -17 -50 -43 -26 -25
-54 -46 -61 -46 -7 0 -10 -4 -7 -10 3 -6 2 -10 -2 -10 -5 0 -21 -11 -36 -26
-15 -14 -31 -23 -36 -20 -9 6 -26 -22 -22 -38 1 -5 -5 -6 -14 -2 -13 5 -14 2
-4 -15 6 -11 9 -22 7 -23 -8 -4 -123 -101 -128 -107 -11 -13 -71 -40 -80 -34
-5 3 -15 -3 -22 -12 -7 -10 -24 -24 -38 -32 -14 -8 -35 -20 -47 -28 -20 -13
-21 -13 -16 6 5 18 72 82 127 121 12 8 84 71 162 140 189 169 320 274 300 242
-4 -7 -2 -12 3 -12 6 0 11 6 11 14 0 7 8 20 17 27 15 13 16 12 10 -9 -5 -20 1
-17 36 18 32 34 38 45 30 58 -13 21 -1 68 39 147 29 56 29 60 13 70 -10 5 -48
35 -84 66 -52 45 -76 75 -115 147 -55 102 -90 147 -219 283 -51 52 -116 123
-146 157 -30 34 -57 60 -59 57 -4 -4 18 -147 39 -253 6 -30 27 -87 46 -128 31
-64 33 -75 20 -88 -11 -11 -17 -12 -26 -3 -8 8 -11 8 -11 -2 0 -7 -4 -9 -10
-6 -5 3 -10 -3 -10 -14 0 -12 -6 -21 -12 -21 -7 0 -26 -20 -43 -45 -28 -42
-113 -119 -179 -160 l-28 -19 7 34 c11 48 23 64 64 86 49 26 96 69 122 111 21
33 21 38 9 125 -7 50 -16 104 -21 122 -20 65 -48 234 -65 396 -5 42 -19 82
-37 105 -4 6 -36 47 -70 91 -34 45 -83 106 -108 135 -25 30 -76 95 -113 144
-37 50 -73 98 -81 107 -7 9 -44 63 -81 120 -79 120 -174 328 -267 583 -36 99
-89 238 -118 310 -72 180 -155 517 -125 512 5 -1 11 7 13 18 3 11 7 27 10 35
3 8 5 21 4 28 -1 6 4 12 11 12 10 0 9 3 -1 9 -12 8 -9 11 12 16 15 4 24 11 21
16 -3 5 14 26 37 46 23 21 64 59 91 85 27 26 58 50 69 53 10 4 19 10 19 15 0
8 85 70 97 70 3 0 28 13 54 30 27 16 49 27 49 23 0 -4 7 2 15 13 20 30 3 85
-41 134 -40 44 -59 51 -198 80 -124 25 -207 25 -288 0 -34 -11 -72 -20 -83
-20 -11 0 -44 -11 -74 -25 -35 -17 -49 -20 -41 -10 7 8 19 15 26 15 12 0 12 4
2 22 -7 13 -20 28 -28 35 -22 18 2 16 28 -3 13 -9 26 -14 29 -11 2 3 -5 10
-16 17 -33 17 -26 25 39 45 52 16 65 16 100 5 28 -9 52 -10 82 -4 40 9 43 12
40 39 -1 17 -2 38 -3 49 0 18 -7 18 -117 13 -130 -7 -221 -31 -251 -68 l-18
-22 -46 33 c-42 30 -60 52 -39 49 4 -1 10 0 15 1 19 6 31 8 80 9 32 1 47 4 39
10 -11 7 -10 10 3 15 24 9 27 8 19 -6 -5 -8 0 -9 17 -5 13 4 39 7 57 7 18 0
31 3 29 8 -3 4 7 7 21 8 101 1 122 5 122 19 0 8 -4 15 -10 15 -5 0 -10 5 -10
11 0 18 -59 131 -85 163 l-23 29 -29 -22 c-15 -13 -44 -37 -63 -55 -42 -38
-60 -50 -60 -39 0 4 36 37 80 73 44 36 80 68 80 71 0 4 -13 9 -28 12 -35 7
-39 39 -10 80 17 24 18 31 7 38 -62 40 -260 45 -389 11 -203 -55 -283 -129
-407 -380 -14 -29 -27 -51 -30 -49 -7 7 115 236 149 279 34 44 59 67 112 103
38 26 44 49 57 230 8 124 15 159 34 200 14 28 31 73 39 100 16 58 21 25 5 -45
-5 -25 -11 -54 -13 -65 -6 -37 -17 -65 -25 -61 -4 3 -8 -5 -8 -17 -1 -12 -7
-60 -12 -107 -11 -92 -20 -220 -14 -181 4 22 8 23 53 17 29 -4 72 -1 111 9 35
8 98 15 139 15 57 0 71 3 62 12 -7 7 -12 21 -12 32 0 26 -48 231 -65 280 -8
21 -12 44 -8 50 3 6 3 8 -2 4 -5 -5 -16 5 -26 22 -10 16 -47 50 -81 75 -123
89 -125 91 -131 137 -4 24 -9 54 -12 68 l-6 25 15 -25 c20 -32 20 -8 1 48 -16
46 -73 152 -82 152 -3 0 -3 -14 1 -32 15 -74 36 -281 31 -298 -6 -20 -74 -65
-83 -55 -3 3 -1 5 5 5 6 0 9 9 6 19 -4 16 -9 18 -30 10 -56 -21 -36 5 25 33
58 27 61 31 55 82 -16 145 -49 263 -76 274 -4 2 -26 32 -49 65 -48 71 -62 87
-77 87 -14 0 -15 4 18 -97 20 -58 33 -128 41 -204 14 -145 15 -582 2 -629
l-10 -35 -1 32 c-1 24 -5 31 -16 27 -8 -4 -15 -1 -15 5 0 6 -7 11 -15 11 -8 0
-15 6 -16 13 -2 33 -86 -249 -98 -328 -7 -52 -9 -55 -10 -20 0 23 6 68 15 100
38 141 44 184 55 382 14 260 7 435 -25 631 -15 84 -26 154 -26 157 0 2 17 -6
37 -18 35 -20 108 -33 97 -16 -5 8 -64 24 -77 21 -4 -1 -10 5 -13 13 -3 8 -10
13 -14 10 -5 -3 -11 -1 -15 4 -3 6 -13 7 -22 4 -12 -5 -15 -2 -11 8 4 9 -7 23
-28 37 -40 26 -42 22 -9 -22 37 -48 52 -102 75 -257 28 -199 24 -585 -9 -829
l-7 -55 -9 80 c-5 53 -10 73 -15 60 -15 -39 -20 68 -18 325 3 245 -6 372 -33
485 -14 59 -40 115 -54 115 -15 0 -134 76 -158 101 -18 19 -62 26 -71 11 -8
-13 41 -56 109 -95 55 -32 95 -68 95 -83 0 -4 -7 -1 -15 6 -12 10 -19 10 -27
2 -9 -9 -7 -17 9 -34 27 -30 36 -63 24 -86 -10 -19 -27 -24 -125 -39 -59 -8
-211 16 -306 49 -47 17 -104 37 -127 45 -25 9 -40 20 -36 26 4 6 0 8 -9 4 -29
-11 -58 34 -58 89 l0 50 35 -4 c65 -8 69 2 29 58 -20 28 -44 56 -54 63 -14 9
-19 29 -22 79 l-3 67 22 -27 c12 -15 29 -47 39 -72 16 -43 74 -110 95 -110 11
0 7 9 -25 55 -47 68 -78 160 -37 111 13 -16 82 -51 93 -48 4 1 5 -5 2 -13 -4
-9 0 -15 10 -15 9 0 16 -7 16 -15 0 -8 5 -15 11 -15 5 0 27 -13 47 -29 40 -33
94 -63 100 -56 4 3 -21 28 -102 104 -20 18 -34 36 -31 39 7 8 -117 73 -130 68
-6 -2 -17 4 -25 12 -13 14 -12 15 5 9 11 -4 -4 15 -33 43 -55 52 -67 58 -75
38 -4 -10 -7 -10 -18 0 -7 6 -23 12 -36 12 -12 0 -26 8 -32 17 -5 10 -12 15
-16 11 -4 -3 9 -55 29 -115 39 -116 54 -217 55 -388 1 -94 -1 -109 -48 -250
-27 -82 -50 -145 -50 -140 -1 6 3 25 9 44 7 27 5 40 -11 70 -11 20 -18 28 -15
19 6 -20 -4 -24 -20 -8 -6 6 -10 3 -12 -10 -1 -11 -3 -29 -4 -39 -1 -11 -6
-17 -10 -15 -10 7 -36 -102 -43 -183 -3 -25 0 -30 12 -26 11 4 14 2 11 -8 -3
-8 -11 -13 -18 -11 -9 2 -10 -5 -6 -24 4 -16 3 -30 -4 -34 -7 -4 -8 -18 -4
-36 l8 -29 7 25 c6 23 7 23 8 3 1 -12 -19 -75 -43 -140 -24 -65 -47 -134 -51
-153 -4 -19 -16 -53 -26 -74 -11 -22 -19 -46 -19 -53 0 -7 -4 -13 -10 -13 -5
0 -7 -7 -4 -15 4 -8 2 -21 -4 -28 -6 -6 -11 -15 -11 -20 -4 -42 -15 -88 -22
-93 -5 -3 -9 -16 -9 -30 0 -13 -4 -24 -8 -24 -5 0 -7 -15 -6 -32 1 -18 -6 -51
-16 -73 -16 -35 -35 -98 -45 -145 -2 -8 -9 -37 -15 -65 -16 -68 -38 -224 -32
-230 3 -2 13 0 24 6 38 20 29 0 -11 -27 -38 -25 -52 -44 -33 -44 4 0 29 14 55
30 26 17 50 30 53 30 3 0 22 8 42 17 21 10 37 13 39 7 2 -5 19 -8 38 -6 56 7
41 -16 -22 -33 -130 -36 -267 -89 -292 -112 -11 -10 -25 -30 -31 -43 -9 -21
-9 -19 -4 15 3 22 11 47 17 55 7 8 -6 0 -28 -16 -22 -17 -60 -44 -85 -60 -25
-17 -46 -38 -48 -48 -5 -22 45 -76 64 -69 26 10 14 -15 -18 -41 -52 -41 -23
-30 35 13 29 21 98 66 154 100 101 60 126 69 309 106 17 4 22 14 27 52 14 116
185 554 240 619 11 12 47 69 82 126 95 155 133 205 215 288 120 119 218 202
302 256 27 16 45 34 41 38 -4 5 -1 6 7 4 18 -6 61 14 80 37 11 13 10 15 -4 9
-9 -3 -16 -1 -16 5 0 14 37 15 45 1 4 -6 16 -4 31 6 23 16 24 15 24 -5 0 -15
-64 -88 -200 -227 -110 -113 -227 -239 -260 -280 -33 -41 -60 -71 -60 -65 0 5
7 17 16 25 8 9 12 16 8 16 -5 0 -3 5 4 12 17 17 15 29 -3 22 -18 -7 -20 7 -3
24 10 10 7 12 -12 8 -14 -2 -31 -5 -38 -5 -9 -1 -11 -8 -7 -21 6 -19 3 -22
-27 -24 -23 -2 -192 -251 -182 -268 4 -6 3 -8 -2 -5 -5 3 -36 -46 -69 -108
-57 -110 -59 -115 -45 -144 l15 -30 25 26 c14 15 20 24 13 20 -6 -4 -15 -2
-19 5 -4 7 -3 9 1 5 5 -4 18 12 29 35 14 28 27 43 39 42 9 -1 17 4 17 12 0 8
3 14 8 14 4 0 16 18 26 40 11 22 21 38 24 35 3 -2 -17 -42 -44 -87 -81 -139
-138 -259 -158 -335 -16 -62 -22 -73 -40 -73 -14 0 -17 3 -9 8 7 4 15 32 19
61 5 40 3 52 -5 46 -7 -3 -9 -15 -6 -26 4 -11 2 -19 -4 -19 -9 0 -13 9 -13 30
0 3 2 23 6 45 l6 40 -16 -38 c-13 -30 -14 -44 -6 -63 10 -21 9 -24 -8 -24 -11
0 -20 -5 -20 -11 0 -6 9 -8 20 -4 26 8 25 2 -3 -29 -13 -14 -28 -46 -34 -71
l-10 -45 61 0 c33 -1 71 -6 84 -13 20 -12 15 -14 -60 -25 -130 -19 -201 -48
-269 -109 -60 -54 -111 -163 -76 -163 8 0 8 -3 -2 -9 -12 -8 -1 -23 50 -72 95
-92 138 -124 209 -160 56 -28 78 -33 156 -37 92 -4 198 15 298 54 21 8 40 13
43 11 9 -10 -66 -94 -104 -115 -49 -27 -173 -45 -223 -32 -142 36 -201 59
-275 109 -45 31 -175 162 -192 195 -15 29 -15 124 1 159 7 13 3 17 -15 17 -19
0 -21 -2 -9 -10 13 -9 7 -14 -12 -11 -5 0 -8 -3 -8 -7 0 -5 -6 -9 -12 -9 -7
-1 -28 -4 -47 -9 -24 -5 -32 -4 -27 4 5 8 -1 8 -24 1 -35 -13 -41 -24 -7 -14
21 7 21 6 -2 -11 -18 -12 -26 -14 -29 -6 -3 9 -12 7 -30 -6 -55 -39 -155 -83
-164 -74 -10 10 27 42 48 42 12 0 54 34 54 44 0 10 -35 7 -77 -8 -25 -9 -45
-11 -54 -5 -9 6 -10 9 -2 9 7 0 28 14 48 31 32 28 35 35 29 68 -4 20 -10 40
-14 44 -4 5 -49 -19 -100 -52 -81 -54 -98 -61 -141 -61 -27 0 -77 9 -110 20
-40 14 -72 19 -94 14 -27 -5 -45 0 -81 21 -56 33 -52 44 6 15 23 -12 44 -19
46 -17 9 9 -17 101 -39 138 -24 40 -65 72 -145 114 l-47 24 44 -5 c68 -7 129
-48 206 -137 76 -88 109 -107 216 -127 74 -13 105 -4 158 47 l26 25 -25 -12
c-20 -10 -18 -5 12 24 20 21 35 43 32 50 -6 17 112 68 246 106 80 23 97 32
108 54 17 33 13 37 -29 39 -26 2 -36 -3 -45 -22 l-13 -25 -9 25 c-64 162 -94
230 -138 319 -63 129 -167 315 -227 407 -24 37 -50 79 -57 93 -13 25 -97 156
-112 175 -4 6 -40 53 -79 105 -77 101 -142 174 -173 191 -14 8 -17 8 -11 -1
15 -24 -31 9 -101 72 -90 83 -146 127 -216 172 -32 20 -58 41 -58 46 0 6 -4
10 -10 10 -5 0 -65 37 -132 82 -68 44 -161 106 -207 137 -74 49 -241 199 -241
217 0 3 11 -1 25 -10 45 -29 47 -17 4 22 -134 117 -172 152 -246 230 -45 47
-90 102 -100 121 -10 20 -29 54 -43 76 -13 22 -26 49 -27 60 -2 11 -10 26 -18
34 -12 13 -14 9 -9 -25z m2927 -879 c51 -42 60 -47 80 -36 22 11 22 11 -3 6
l-25 -5 25 12 c40 20 51 33 37 47 -14 14 83 -20 113 -40 23 -15 23 -15 -13
-11 -20 2 -37 1 -37 -3 0 -7 108 -122 221 -236 25 -25 74 -61 107 -79 34 -18
59 -36 57 -41 -3 -4 -22 -13 -43 -19 -20 -7 -59 -29 -87 -49 -27 -20 -68 -48
-90 -63 -95 -63 -213 -184 -287 -293 -33 -49 -75 -108 -93 -130 -18 -22 -41
-58 -53 -80 -25 -49 -122 -186 -157 -221 l-26 -26 8 29 c12 43 8 76 -23 197
-23 94 -26 119 -17 147 l11 34 1 -31 c1 -17 14 -74 30 -125 16 -52 32 -109 36
-127 8 -39 10 -37 63 58 16 30 42 75 56 100 14 25 26 50 26 55 0 6 -26 25 -58
42 -32 18 -70 46 -85 62 l-26 30 14 68 c7 37 18 82 23 98 13 41 142 302 142
290 1 -5 12 11 25 37 23 43 24 52 14 97 -6 28 -15 53 -20 57 -13 8 -11 34 2
34 17 0 131 -74 243 -157 99 -74 173 -119 189 -115 5 1 22 -7 38 -19 16 -11
35 -19 42 -16 7 2 1 9 -13 17 -14 7 -38 24 -55 37 -16 13 -34 27 -40 31 -216
165 -445 372 -445 402 0 10 4 10 18 -2 9 -8 43 -36 75 -63z m-4004 -452 c43
-65 143 -273 138 -286 -4 -11 -73 -37 -164 -62 -45 -12 -24 -34 57 -60 83 -27
180 -75 152 -75 -13 0 -32 5 -42 10 -10 6 -88 28 -172 51 -84 22 -155 43 -158
46 -3 3 16 3 43 1 l47 -6 -6 37 c-3 20 -10 52 -15 71 -16 62 -8 77 11 21 27
-81 31 -83 124 -61 44 11 83 25 87 31 15 24 -41 166 -84 211 -14 15 -27 24
-31 21 -3 -3 -11 6 -17 21 -9 19 -20 26 -43 27 l-31 1 28 10 c32 12 34 19 7
43 -31 28 -23 38 11 13 16 -12 43 -42 58 -65z m1692 -163 c5 0 9 -7 9 -15 0
-7 7 -18 15 -22 13 -8 12 -16 -10 -58 -27 -56 -163 -233 -242 -319 -61 -66
-88 -74 -157 -53 -28 9 -71 19 -96 22 l-45 6 55 -30 c30 -17 65 -30 78 -31 13
0 20 -4 17 -10 -3 -5 0 -7 7 -5 8 3 22 -1 33 -10 20 -15 20 -15 0 -9 l-20 7
20 -16 c23 -19 39 -22 30 -7 -4 6 17 -4 45 -21 72 -44 255 -193 255 -206 0 -7
19 -28 43 -48 23 -20 42 -43 42 -51 0 -9 5 -12 12 -8 7 4 8 3 4 -4 -4 -6 1
-28 11 -49 9 -21 19 -42 21 -48 3 -5 -17 11 -44 36 -27 25 -83 72 -124 104
-41 33 -82 66 -91 75 -9 8 -40 31 -68 50 -28 19 -69 47 -90 62 -21 15 -87 53
-146 83 -204 105 -259 174 -138 175 54 0 183 35 231 62 39 22 132 107 132 120
0 4 13 30 30 57 16 28 33 66 38 83 4 18 12 33 18 33 17 0 104 56 105 68 1 7 3
4 6 -5 2 -10 9 -18 14 -18z m98 -171 c6 -18 11 -49 11 -70 0 -35 6 -43 71 -96
77 -63 165 -172 210 -261 40 -80 37 -110 -4 -41 -99 162 -122 191 -191 238
-97 67 -119 61 -181 -50 -14 -26 -23 -54 -19 -62 3 -9 36 -38 72 -65 37 -28
103 -88 147 -135 88 -93 92 -98 119 -147 l18 -35 -26 30 c-15 17 -49 56 -77
88 -28 32 -77 75 -109 97 -32 22 -65 47 -74 55 -9 9 -16 13 -16 8 0 -4 -6 -1
-13 8 -15 20 -55 30 -63 17 -4 -6 -1 -14 6 -18 7 -5 -1 -7 -20 -5 -18 1 -35 8
-39 14 -5 7 -12 11 -17 9 -14 -4 -55 28 -46 37 4 5 1 5 -6 1 -13 -8 -68 21
-58 31 3 3 -1 12 -9 19 -19 19 -12 33 34 69 21 17 65 64 97 105 102 129 154
190 163 190 5 0 14 -14 20 -31z m3572 -364 c-3 -5 -6 -32 -6 -59 0 -30 -5 -51
-13 -54 -6 -2 -12 -8 -12 -14 0 -10 -40 -50 -84 -85 -18 -16 -46 -17 -46 -3 0
6 9 39 21 73 22 64 75 146 112 172 20 14 22 13 28 -2 4 -10 4 -22 0 -28z m-21
-255 c7 -17 11 -32 9 -33 -2 -2 -21 -15 -41 -30 -20 -15 -41 -27 -46 -27 -5 0
-17 -10 -26 -22 -9 -13 -14 -17 -10 -9 6 11 3 13 -11 7 -11 -4 -38 -10 -62
-13 -34 -4 -51 -15 -85 -51 -86 -91 -111 -113 -124 -108 -7 3 -15 0 -18 -7 -2
-7 -5 7 -5 30 -1 33 3 43 19 48 11 3 25 3 31 -1 8 -4 9 -3 5 5 -5 7 4 13 24
17 20 5 29 11 26 20 -3 8 0 11 9 8 8 -4 39 19 76 55 33 33 65 58 70 55 5 -3 9
0 9 6 0 6 4 9 9 5 13 -7 82 32 99 56 18 26 28 24 42 -11z m-4918 -270 c64 -24
130 -55 146 -69 28 -24 59 -71 48 -71 -8 0 -106 40 -166 67 -30 14 -65 29 -77
34 -13 5 -23 13 -23 18 0 6 -17 18 -37 28 -21 9 -49 28 -63 40 -14 13 -33 26
-42 29 -10 3 -18 9 -18 13 0 4 26 -4 58 -19 31 -15 109 -46 174 -70z m-1106
-381 c67 -44 134 -97 219 -172 11 -10 -17 -1 -66 21 -47 22 -106 43 -130 46
-42 6 -41 5 26 -24 66 -29 117 -63 70 -46 -173 63 -204 79 -214 109 -12 34
-15 100 -4 110 11 12 18 8 99 -44z m4660 -48 c-14 -16 -15 -20 -2 -30 12 -10
31 -10 85 -2 38 6 77 14 88 17 43 14 -31 -36 -82 -55 -195 -73 -410 -86 -376
-22 7 13 26 20 68 24 84 8 159 34 196 67 35 31 51 32 23 1z m-960 -91 c5 -5
27 -18 49 -29 39 -19 39 -20 16 -29 -13 -5 -37 -8 -53 -7 -35 2 -35 -8 -1 -54
46 -62 95 -101 181 -142 45 -23 82 -42 82 -44 0 -7 -144 55 -185 80 -35 21
-159 140 -178 172 -5 8 6 21 30 37 44 29 46 29 59 16z m-208 -46 c12 -4 22
-13 22 -21 0 -10 6 -12 20 -8 15 5 18 3 14 -9 -4 -12 -2 -15 9 -11 15 6 61
-41 52 -55 -2 -4 -39 -1 -82 7 -91 16 -146 11 -256 -24 -44 -13 -81 -22 -84
-19 -8 8 12 37 43 57 28 20 28 20 4 14 -38 -9 34 31 91 50 36 12 59 14 105 6
67 -10 82 -7 33 8 -37 10 -10 15 29 5z m-1924 -641 c53 -53 88 -121 134 -254
22 -64 54 -144 71 -177 40 -79 97 -254 117 -357 8 -44 24 -111 34 -150 10 -38
26 -113 34 -166 18 -106 14 -130 -28 -180 -41 -48 -55 -107 -76 -319 -26 -267
-26 -260 11 -300 28 -29 31 -36 24 -74 -4 -22 -10 -59 -14 -81 -6 -37 -8 -40
-34 -37 -71 9 -167 -36 -154 -71 3 -8 1 -19 -5 -25 -7 -7 -6 -17 2 -31 14 -28
7 -38 -41 -58 -47 -19 -135 -112 -162 -172 -24 -54 -18 -94 29 -179 19 -35 31
-69 27 -75 -17 -29 -156 -199 -219 -268 -246 -271 -315 -350 -359 -418 -38
-58 -55 -76 -71 -74 -14 2 -25 -6 -33 -23 -13 -30 -14 -45 -1 -24 5 8 10 11
10 5 0 -5 -9 -23 -20 -40 -33 -48 -56 -107 -96 -235 -20 -67 -47 -144 -61
-173 -26 -54 -94 -125 -167 -174 -22 -15 -88 -61 -146 -102 -278 -198 -424
-290 -437 -277 -4 4 -1 11 7 16 8 6 10 10 4 10 -6 0 -33 -17 -60 -38 -51 -38
-87 -70 -249 -222 -49 -47 -116 -109 -149 -137 l-58 -51 28 -15 c16 -8 35 -12
42 -10 6 3 12 0 12 -6 0 -6 19 -11 44 -11 25 0 48 -5 52 -11 4 -8 -3 -9 -25
-4 -47 10 -122 8 -156 -5 -37 -14 -80 -54 -107 -100 -21 -34 -66 -79 -80 -80
-14 0 -8 20 23 86 32 65 111 157 180 206 54 40 193 180 208 211 8 15 19 27 24
27 5 0 6 12 3 28 -5 19 -4 23 3 12 6 -8 13 -11 18 -7 4 5 1 12 -7 17 -10 7
-19 5 -27 -6 -6 -9 -16 -13 -22 -10 -13 8 -81 -34 -137 -86 l-44 -41 0 27 c0
37 -29 125 -52 159 -21 30 -48 36 -48 10 0 -9 -3 -13 -6 -10 -4 3 -16 -5 -26
-19 -27 -34 -35 -23 -10 13 10 15 32 54 47 85 26 54 27 61 18 120 -6 35 -10
64 -8 66 1 1 33 -4 71 -12 60 -13 95 -13 270 -1 410 29 484 44 655 129 58 30
115 60 127 67 39 24 105 170 137 303 17 69 24 128 46 376 6 69 12 126 13 127
1 2 10 -25 20 -58 28 -92 40 -63 47 114 3 84 9 159 12 167 4 8 8 33 11 55 2
22 13 63 25 92 33 85 99 321 173 623 38 157 84 335 103 397 40 133 82 338 129
633 44 277 44 278 56 525 5 116 14 237 20 270 5 33 17 107 25 165 23 146 30
165 73 191 20 12 46 31 58 41 21 18 54 16 54 -4 0 -6 -7 -8 -15 -4 -17 6 -21
-9 -5 -19 6 -3 10 -20 10 -36 0 -18 4 -28 10 -24 6 3 10 -1 10 -9 0 -22 19
-30 27 -11 3 10 1 20 -5 24 -10 6 -21 52 -25 102 -1 10 -7 15 -17 11 -12 -4
-13 -2 -2 9 6 7 12 28 12 46 0 44 17 42 64 -4z m3830 -948 c9 -38 38 -162 66
-275 27 -113 71 -290 96 -395 25 -104 72 -271 104 -370 32 -99 80 -247 106
-330 26 -82 64 -185 86 -227 61 -123 98 -225 98 -271 1 -23 7 -69 15 -102 8
-33 15 -85 15 -115 1 -70 16 -110 68 -187 47 -69 93 -106 200 -158 94 -45 167
-60 372 -75 140 -10 187 -18 308 -52 102 -29 155 -39 183 -35 38 5 39 4 48
-31 5 -21 12 -53 16 -72 6 -33 5 -34 -9 -16 -26 32 -29 10 -5 -32 18 -30 21
-45 13 -61 -9 -21 -12 -20 -74 35 -96 83 -195 151 -256 173 -64 24 -112 37
-102 27 8 -10 -57 -68 -102 -91 -19 -10 -62 -20 -97 -23 -39 -3 -63 -9 -63
-17 0 -19 56 -96 120 -165 39 -42 59 -71 56 -82 -2 -10 0 -21 5 -24 5 -3 7 -9
4 -14 -3 -4 -31 17 -62 47 -32 31 -74 67 -93 82 -60 45 -122 112 -155 169 -11
17 -25 32 -32 32 -7 0 -13 7 -13 15 0 8 -6 15 -12 15 -29 1 -137 131 -286 345
-61 88 -135 192 -165 230 -50 65 -137 222 -137 248 0 6 -23 59 -50 118 -73
153 -90 220 -100 391 -5 85 -14 157 -22 170 -7 13 -13 57 -13 105 0 75 -2 84
-27 110 -25 26 -26 31 -17 83 20 117 -21 229 -103 282 -28 18 -64 37 -81 43
-20 7 -31 16 -28 25 2 8 5 82 6 164 3 140 29 323 68 471 l10 40 12 -65 c7 -36
20 -96 29 -135z m-1244 -1061 c63 -71 146 -160 185 -198 38 -38 59 -61 45 -50
-14 10 -27 21 -30 24 -24 24 -79 58 -85 52 -5 -4 -4 -1 0 7 6 11 4 13 -8 8
-10 -4 -31 10 -63 41 -26 26 -51 46 -56 44 -5 -1 -7 1 -5 5 3 5 -11 26 -30 48
-19 22 -30 30 -23 18 17 -36 4 -27 -19 13 -12 19 -26 32 -31 29 -6 -3 -10 1
-10 10 0 12 -6 15 -20 10 -12 -4 -20 -2 -20 5 0 6 4 8 10 5 6 -3 7 1 4 9 -3 9
-10 14 -15 11 -4 -3 -6 16 -4 42 2 26 -2 55 -7 63 -17 24 59 -57 182 -196z
m3363 -271 c-97 -102 -119 -131 -89 -120 9 4 38 -16 73 -48 68 -64 93 -68 143
-24 19 16 49 37 65 45 27 14 28 14 11 -1 -30 -23 -6 -18 43 10 48 28 59 31 39
13 -27 -26 -76 -57 -135 -86 -92 -47 -210 -141 -286 -228 -98 -112 -136 -136
-50 -31 45 54 77 103 83 128 6 22 14 47 17 55 3 8 -1 14 -11 14 -11 0 -16 9
-16 32 0 31 -23 68 -43 68 -5 0 -36 -18 -69 -40 -33 -22 -64 -40 -69 -40 -5 0
16 26 46 57 30 32 55 60 55 64 0 4 39 34 88 67 48 33 96 69 106 81 11 12 21
19 23 17 2 -2 -8 -17 -24 -33z m-3492 -251 c9 -4 43 -31 75 -61 73 -66 146
-109 201 -117 66 -10 53 -28 -13 -19 -92 11 -149 33 -215 82 -83 61 -117 60
-230 -9 -70 -42 -77 -34 -20 23 28 28 55 47 61 44 6 -4 9 -1 8 7 -2 7 3 12 10
10 7 -1 15 5 19 14 10 27 67 41 104 26z m1276 -363 c61 -43 91 -52 109 -35 7
8 23 12 34 9 19 -5 16 -9 -20 -29 -23 -13 -44 -24 -47 -24 -2 0 -24 -14 -49
-30 -28 -20 -44 -26 -44 -18 0 8 -20 49 -45 92 -25 44 -45 83 -45 88 0 10 50
-15 107 -53z m-6718 -324 c39 -19 73 -35 75 -35 2 0 56 -25 121 -55 64 -31
147 -67 184 -80 79 -29 241 -104 225 -104 -20 -1 -158 37 -212 58 -114 45
-472 232 -472 246 0 8 4 6 79 -30z m4136 -122 c-53 -42 -56 -47 -40 -59 17
-13 17 -14 1 -20 -10 -4 -21 -2 -25 5 -4 6 -16 9 -27 5 -36 -12 -84 -39 -84
-47 0 -5 -6 -7 -14 -4 -8 3 -17 -1 -20 -9 -3 -8 -12 -14 -21 -14 -8 0 -15 -8
-15 -17 0 -12 -3 -14 -8 -6 -5 8 -42 -10 -122 -62 -63 -41 -119 -75 -123 -75
-5 0 -5 -4 -2 -10 3 -6 -5 -10 -18 -10 -14 0 -27 -7 -31 -15 -3 -8 -13 -15
-22 -15 -10 0 -14 5 -10 15 3 8 -2 19 -12 24 -16 9 -15 10 3 17 11 4 22 10 25
14 3 3 56 32 118 63 62 31 179 95 259 143 138 82 218 123 236 124 5 0 -17 -21
-48 -47z m-823 -280 l28 -8 -50 -77 c-28 -43 -50 -82 -50 -87 0 -15 73 -23
103 -12 36 14 34 7 -5 -17 -18 -12 -65 -42 -103 -69 -39 -26 -83 -56 -98 -66
l-28 -18 6 28 c6 28 51 158 85 245 15 40 16 47 3 52 -8 4 -20 3 -26 -1 -6 -3
-38 -9 -71 -12 l-61 -6 -28 -165 c-30 -181 -56 -373 -51 -379 1 -1 9 2 16 9
22 19 226 148 269 170 78 40 49 13 -63 -60 -196 -127 -220 -144 -250 -174 -22
-22 -28 -35 -23 -53 4 -19 -1 -30 -26 -51 -39 -33 -59 -45 -65 -39 -3 2 11 40
30 83 35 79 40 99 71 249 10 44 21 89 25 100 5 11 14 52 21 90 6 39 21 94 31
123 13 34 18 65 14 84 -4 20 0 38 12 54 17 25 18 25 137 20 66 -3 132 -9 147
-13z m2049 -241 c12 -37 25 -69 28 -72 3 -3 7 -16 9 -29 1 -14 9 -38 17 -54 8
-17 15 -36 15 -44 0 -7 5 -13 10 -13 15 0 12 27 -6 44 -17 17 -14 19 10 10 10
-4 16 -18 16 -38 1 -47 17 -110 31 -115 8 -2 8 -5 -1 -11 -9 -5 -8 -11 2 -21
17 -17 55 -189 42 -189 -8 0 -100 203 -135 296 -40 108 -63 190 -74 268 -9 67
8 52 36 -32z m-2885 -703 c11 -22 14 -43 9 -67 -9 -50 -73 -176 -111 -221 -39
-45 -159 -127 -200 -136 -23 -5 -26 -4 -14 5 13 11 13 11 0 7 -8 -2 -59 -12
-112 -22 -80 -15 -107 -17 -150 -7 -29 6 -77 16 -105 22 -29 6 -69 18 -90 27
-33 15 -35 18 -15 21 12 2 22 7 22 12 0 4 54 8 120 8 118 0 123 1 198 37 l77
37 -30 26 c-16 14 -22 23 -12 19 9 -3 17 -3 17 2 0 5 -12 12 -27 17 l-28 7 29
6 c29 6 29 6 11 25 -19 18 -19 18 3 12 17 -6 21 -4 16 8 -7 19 -3 20 30 5 14
-7 23 -15 21 -20 -3 -4 3 -5 14 -2 10 3 22 0 25 -6 12 -18 47 -12 81 14 18 13
35 21 39 18 3 -4 6 -1 6 5 0 7 15 12 36 12 41 0 90 41 98 84 4 14 8 37 11 51
7 32 11 32 31 -6z m6301 -97 c32 -27 77 -70 101 -96 l43 -47 -7 -62 c-4 -34
-10 -73 -14 -86 -11 -43 -25 -33 -28 21 -2 57 -27 106 -87 176 -26 30 -44 42
-59 40 -19 -3 -21 2 -24 50 -2 30 1 52 7 52 5 0 36 -22 68 -48z m-8673 -177
c25 -23 26 -29 26 -120 0 -52 2 -95 5 -95 12 0 75 35 75 41 0 4 -8 10 -18 13
-17 6 -49 72 -39 82 3 3 23 -4 45 -15 26 -13 43 -31 51 -51 17 -51 -6 -88 -78
-125 -28 -14 -38 -15 -62 -4 -17 6 -34 20 -39 30 -12 22 -13 269 -1 269 4 0
20 -11 35 -25z"/>
<path d="M6201 7624 c-13 -9 -29 -30 -36 -47 -12 -29 -11 -33 13 -54 15 -13
32 -23 38 -23 15 0 34 22 34 40 0 8 4 22 10 30 7 12 12 12 29 -4 12 -11 21
-26 21 -34 0 -24 -66 -82 -93 -82 -33 0 -65 41 -73 91 -4 21 -11 36 -16 33 -6
-4 -8 -19 -6 -35 3 -15 1 -26 -3 -23 -4 2 -10 -18 -14 -46 -8 -55 -1 -70 53
-115 l32 -27 43 49 c86 95 104 118 121 150 21 41 21 77 1 69 -8 -3 -15 -1 -15
5 0 13 -62 39 -92 39 -13 0 -34 -7 -47 -16z"/>
<path d="M3136 8755 c8 -108 -9 -233 -39 -293 -31 -61 -17 -68 27 -15 17 20
49 54 71 76 22 22 35 41 30 45 -6 4 -16 30 -23 57 -7 28 -20 63 -28 79 -8 16
-14 36 -14 45 -1 9 -7 30 -15 46 -13 28 -13 26 -9 -40z"/>
<path d="M3175 8472 c-12 -30 -15 -71 -5 -77 6 -3 10 -11 10 -17 0 -7 -5 -6
-14 1 -11 9 -16 9 -21 0 -4 -6 -1 -15 6 -20 23 -14 -58 -76 -109 -84 -35 -5
-41 -9 -32 -20 8 -10 7 -15 -2 -19 -7 -3 42 -4 110 -2 109 4 122 3 123 -12 0
-11 4 -8 11 8 16 40 3 151 -23 196 -34 57 -46 67 -54 46z"/>
<path d="M6575 62 c-49 -1 -99 -6 -110 -11 -11 -6 -49 -14 -85 -20 -155 -26
-120 -29 299 -30 l424 -1 -27 21 c-20 15 -49 23 -123 29 -120 11 -259 16 -378
12z"/>
</g>
</svg>
