<?xml version="1.0" standalone="no"?>
<!DOCTYPE svg PUBLIC "-//W3C//DTD SVG 20010904//EN"
 "http://www.w3.org/TR/2001/REC-SVG-20010904/DTD/svg10.dtd">
<svg version="1.0" xmlns="http://www.w3.org/2000/svg"
 width="300.000000pt" height="300.000000pt" viewBox="0 0 300.000000 300.000000"
 preserveAspectRatio="xMidYMid meet">
<metadata>
Created by potrace 1.10, written by Peter Selinger 2001-2011
</metadata>
<g transform="translate(0.000000,300.000000) scale(0.100000,-0.100000)"
fill="#000000" stroke="none">
<path d="M2668 2760 c-41 -28 -69 -60 -50 -60 11 1 115 90 105 90 -5 0 -30
-14 -55 -30z"/>
<path d="M1343 2741 c-24 -4 -45 -10 -49 -13 -8 -9 78 3 96 13 17 9 13 9 -47
0z"/>
<path d="M2687 2719 c-47 -31 -65 -49 -50 -49 16 0 103 59 103 70 0 14 -1 14
-53 -21z"/>
<path d="M1807 2653 c-25 -84 -69 -189 -87 -208 -12 -13 -36 -26 -54 -29 -18
-4 -33 -12 -33 -19 0 -6 -23 -82 -51 -167 -55 -166 -83 -275 -74 -284 11 -12
20 -5 26 18 10 41 56 76 56 42 0 -7 9 -24 19 -38 13 -16 18 -33 14 -49 l-6
-24 27 24 c23 22 38 60 18 47 -13 -8 -35 11 -27 23 5 9 10 9 21 0 10 -9 14 -9
14 0 0 6 -7 14 -15 17 -18 7 -10 24 11 24 8 0 14 -8 14 -17 1 -37 88 78 151
198 35 68 65 126 67 130 2 4 -6 7 -17 6 -11 0 -18 -4 -15 -8 2 -4 -3 -12 -11
-19 -8 -7 -15 -18 -15 -25 0 -23 -29 -25 -41 -3 -10 18 -9 20 7 14 18 -6 18
-5 0 9 -19 14 -19 15 -2 34 10 11 23 19 30 18 6 -1 10 7 8 19 -1 11 7 29 18
39 21 19 21 19 15 -7 -13 -52 32 -47 58 7 19 40 7 46 -21 11 l-19 -24 0 29 c0
19 3 25 8 17 5 -8 8 2 7 24 l-1 38 -24 -35 c-12 -18 -23 -38 -23 -44 0 -5 -6
-14 -14 -18 -7 -4 -21 -23 -30 -40 -21 -42 -28 -42 -14 -2 6 17 8 48 5 70 -3
21 -1 39 4 39 5 0 9 9 9 19 0 11 5 23 10 26 6 4 10 -6 10 -24 0 -42 18 -48 28
-9 6 23 5 41 -4 60 -8 15 -14 35 -14 44 0 10 -20 -23 -44 -73 -24 -50 -49 -94
-56 -98 -8 -5 -5 -17 10 -41 22 -38 26 -54 9 -37 -13 13 -62 -3 -76 -26 -67
-109 -79 -147 -23 -69 24 33 30 37 30 20 0 -49 -45 -157 -82 -198 -19 -21 -19
-21 12 -28 31 -6 31 -6 13 -30 -14 -18 -22 -22 -35 -15 -10 6 -18 17 -18 25 0
10 -6 14 -15 10 -25 -9 -18 28 32 178 44 132 49 143 98 191 55 52 90 109 80
125 -4 6 0 13 8 16 19 7 36 51 33 81 -3 30 -12 38 -19 16z m-17 -235 c-1 -35
-3 -40 -11 -25 -10 17 -5 67 6 67 3 0 5 -19 5 -42z m-12 -100 c2 -10 -2 -18
-9 -18 -7 0 -21 -7 -31 -17 -20 -18 -23 -8 -12 35 8 28 47 27 52 0z m0 -60
c23 -46 18 -71 -25 -140 l-23 -37 -25 23 c-22 21 -23 26 -13 57 19 57 52 119
64 119 6 0 16 -10 22 -22z m-78 -173 c6 -8 9 -19 5 -25 -14 -23 -62 -2 -52 24
8 20 31 21 47 1z"/>
<path d="M1167 2623 c-4 -3 -7 -16 -6 -27 0 -21 1 -21 9 -1 5 11 9 14 9 7 2
-27 65 -142 72 -131 4 8 9 4 14 -10 3 -11 17 -33 29 -49 21 -24 115 -266 130
-334 3 -14 9 -34 12 -45 6 -17 6 -17 -8 1 -14 18 -16 18 -41 -8 -15 -15 -27
-33 -27 -40 0 -20 -11 -26 -31 -15 -32 17 -11 -21 42 -76 26 -27 64 -68 84
-90 l36 -40 50 55 c65 71 73 85 48 87 -10 1 -19 -2 -19 -7 0 -5 -12 -22 -27
-37 -20 -21 -24 -23 -19 -8 29 74 44 125 36 120 -11 -7 -52 -112 -55 -140 -1
-11 -8 -20 -15 -20 -7 0 -14 9 -15 20 -3 36 -29 99 -57 140 -19 26 -25 41 -17
44 18 6 47 -35 55 -75 6 -32 24 -49 24 -21 -1 34 -35 167 -77 297 -25 80 -45
155 -45 167 1 16 -6 23 -27 28 -18 4 -39 22 -59 51 -18 24 -32 47 -32 49 0 2
-9 29 -21 60 -19 50 -35 66 -52 48z m259 -702 c9 -33 22 -57 27 -54 6 4 7 1 2
-7 -6 -10 -17 -4 -43 26 -19 21 -31 33 -27 27 11 -22 -9 -14 -23 8 -11 17 -10
23 10 44 12 13 25 22 29 19 4 -2 15 -31 25 -63z"/>
<path d="M1744 2604 c-3 -10 -12 -30 -20 -44 -9 -14 -21 -37 -27 -52 -6 -16
-18 -28 -26 -28 -12 0 -13 -2 -2 -12 10 -11 17 -7 37 17 25 32 60 122 50 132
-3 3 -8 -3 -12 -13z"/>
<path d="M2399 2612 c-18 -8 -85 -82 -73 -82 8 0 114 80 114 86 0 6 -23 3 -41
-4z"/>
<path d="M444 2588 c-3 -5 11 -8 30 -8 42 0 89 -17 82 -29 -3 -4 6 -13 21 -20
21 -10 28 -9 34 1 5 8 3 15 -4 17 -6 2 -20 14 -29 27 -16 19 -27 22 -74 21
-31 -1 -58 -5 -60 -9z"/>
<path d="M1151 2556 c-16 -19 -10 -68 8 -74 9 -3 11 2 6 17 -4 12 -2 21 4 21
6 0 11 -9 11 -21 0 -11 5 -17 10 -14 6 4 10 -13 10 -45 0 -28 5 -60 10 -71 18
-32 -4 -21 -23 12 -13 23 -15 35 -6 45 6 7 9 21 6 31 -3 14 -6 12 -11 -9 -5
-16 -11 -28 -15 -28 -3 1 -17 24 -31 52 l-24 50 -9 -33 c-5 -19 -14 -37 -20
-41 -18 -11 14 -63 38 -63 15 0 19 6 17 25 -3 20 -2 22 11 12 8 -7 20 -26 27
-42 7 -17 16 -30 21 -30 5 0 9 -8 10 -17 0 -11 3 -13 6 -5 2 6 13 12 23 12 14
0 21 -10 26 -37 4 -21 20 -72 35 -113 17 -44 25 -76 19 -78 -6 -2 -17 -10 -25
-18 -13 -13 -18 -9 -44 33 -17 26 -33 60 -36 74 -7 32 11 83 26 73 7 -4 10 -1
7 7 -7 22 -40 23 -56 3 -12 -15 -14 -16 -9 -2 6 17 -33 68 -53 68 -14 0 -16 6
42 -121 53 -119 75 -156 116 -201 l24 -27 25 27 c14 15 30 27 36 28 7 0 16 2
20 2 4 1 -3 17 -17 35 -23 30 -89 187 -82 194 8 9 38 -12 51 -36 8 -14 14 -21
15 -15 0 6 -13 28 -30 49 -16 20 -27 41 -24 46 3 5 1 9 -5 9 -6 0 -8 6 -5 13
2 7 -7 29 -21 48 -14 18 -40 64 -57 101 -18 37 -36 67 -39 68 -4 0 -12 -6 -18
-14z m117 -175 c17 -30 8 -38 -23 -21 -19 10 -22 16 -13 27 8 11 7 12 -6 7
-11 -4 -16 -1 -16 13 0 43 25 32 58 -26z m71 -295 c9 -10 6 -17 -13 -29 -22
-15 -25 -15 -30 0 -6 15 9 43 24 43 4 0 13 -6 19 -14z"/>
<path d="M2477 2551 c-10 -4 -19 -11 -19 -16 -1 -6 -8 -15 -17 -22 -14 -11
-13 -12 9 -13 24 -1 24 -2 -14 -35 -54 -48 -41 -53 23 -8 36 25 48 39 39 44
-16 10 -18 29 -5 47 11 13 10 14 -16 3z"/>
<path d="M436 2529 c10 -12 31 -27 46 -35 33 -17 39 -55 8 -49 -11 2 -20 0
-20 -6 0 -5 17 -10 38 -11 22 -1 9 -4 -33 -8 -137 -14 -173 -22 -178 -39 -6
-23 12 -69 21 -54 7 11 74 -62 147 -161 l30 -41 -49 40 c-27 22 -64 54 -82 71
-18 17 -35 29 -37 27 -3 -2 -22 7 -42 22 -21 14 -50 25 -64 25 -24 -1 -25 -1
-6 -12 11 -6 43 -30 70 -53 28 -23 62 -50 77 -59 15 -10 25 -23 23 -29 -2 -7
12 -25 31 -41 39 -32 54 -31 24 2 -12 12 -17 22 -12 22 18 0 58 -39 80 -78
l23 -41 -72 -34 -72 -34 44 -15 c24 -9 52 -19 62 -23 12 -5 17 -2 17 10 0 9
-4 14 -9 11 -5 -3 -14 1 -21 9 -10 13 -8 19 16 38 36 28 62 39 69 27 11 -18
15 -81 5 -75 -5 3 -10 2 -10 -4 0 -5 10 -13 21 -16 17 -6 18 -9 8 -16 -7 -4
-11 -10 -9 -12 7 -7 50 -19 50 -14 0 19 -56 160 -81 205 -77 137 -195 282
-229 282 -5 0 -10 3 -10 8 0 4 35 8 77 9 42 2 81 7 86 12 5 5 -3 6 -19 3 -19
-3 -25 -1 -20 7 9 14 71 14 112 -1 25 -9 39 -9 56 0 13 6 32 12 43 14 14 2 4
11 -37 31 -31 15 -58 34 -61 41 -5 12 -108 66 -125 66 -3 0 3 -9 14 -21z"/>
<path d="M2583 2543 c-13 -2 -23 -11 -23 -20 0 -12 7 -14 31 -9 17 3 50 6 72
6 27 0 38 3 31 10 -11 11 -79 19 -111 13z"/>
<path d="M1283 2514 c9 -17 22 -36 30 -42 12 -10 12 -7 3 22 -6 19 -12 33 -15
30 -2 -2 -11 2 -19 9 -13 10 -13 7 1 -19z"/>
<path d="M2631 2481 c-8 -5 -30 -7 -50 -4 -34 4 -35 4 -17 -11 11 -9 32 -16
47 -16 31 0 82 24 72 33 -9 10 -35 8 -52 -2z"/>
<path d="M1984 2443 c-3 -10 -22 -53 -41 -96 -19 -43 -33 -80 -30 -83 3 -3 22
30 42 73 20 43 41 86 46 95 5 10 5 19 -1 23 -6 4 -13 -2 -16 -12z"/>
<path d="M2479 2443 c-12 -15 -12 -16 4 -10 10 4 25 7 33 7 8 0 14 5 14 10 0
16 -36 11 -51 -7z"/>
<path d="M951 2439 c-18 -6 -31 -12 -29 -14 2 -3 19 0 38 5 18 5 36 7 40 5 4
-3 22 -41 40 -85 18 -44 36 -83 41 -86 5 -3 0 19 -12 48 -12 29 -29 72 -38 96
-17 44 -23 47 -80 31z"/>
<path d="M2538 2410 c-2 -8 -24 -13 -58 -14 -33 -1 -55 -6 -58 -13 -3 -10 23
-13 110 -13 62 0 124 -3 136 -7 22 -5 21 -8 -22 -34 -85 -53 -213 -239 -271
-393 -24 -65 -23 -72 9 -60 12 5 14 10 6 19 -8 9 -8 15 0 20 5 3 10 13 10 22
0 9 10 30 23 47 12 17 28 43 36 57 7 15 24 38 37 52 29 32 99 54 118 37 8 -6
20 -8 29 -4 10 3 18 -2 22 -15 4 -13 24 -27 56 -38 27 -10 49 -21 49 -24 0
-23 -161 -125 -256 -164 -34 -14 -51 -25 -42 -29 7 -3 3 -4 -10 -2 -12 2 -20
1 -17 -4 7 -12 -38 -21 -77 -15 -27 4 -29 3 -8 -3 23 -8 22 -9 -18 -16 -23 -4
-40 -12 -36 -17 6 -10 83 -1 100 13 6 4 19 5 28 2 10 -4 22 0 29 8 7 8 28 21
47 28 44 17 198 107 228 133 12 11 22 26 22 34 0 23 20 14 21 -9 1 -21 2 -20
12 5 10 26 15 28 47 23 32 -5 33 -4 16 9 -10 8 -47 24 -82 35 -35 12 -74 30
-88 41 -13 11 -44 26 -68 34 -24 9 -49 17 -56 20 -8 3 7 28 44 72 77 93 77 93
72 61 -7 -38 -1 -35 17 8 24 58 -6 87 -103 100 -36 4 -51 3 -54 -6z"/>
<path d="M912 2333 c6 -21 17 -47 24 -58 13 -18 14 -18 14 10 0 34 -19 77 -37
82 -9 3 -9 -5 -1 -34z"/>
<path d="M2067 2352 c-16 -18 -35 -82 -24 -82 8 0 50 90 45 96 -3 2 -12 -4
-21 -14z"/>
<path d="M652 2337 c-10 -23 -9 -33 2 -55 23 -45 113 -102 161 -102 18 0 29
-8 38 -27 12 -29 25 -43 41 -43 5 0 3 6 -3 13 -6 8 -12 24 -15 38 -2 13 -9 23
-15 22 -14 -4 -14 10 0 24 7 7 24 8 47 2 20 -4 38 -6 40 -4 10 10 -45 26 -95
29 -36 2 -60 8 -67 18 -6 9 -34 22 -61 30 -46 12 -50 17 -55 48 l-5 34 -13
-27z m137 -126 c-7 -2 -15 1 -17 8 -2 6 -15 11 -28 11 -15 0 -24 6 -24 16 0
13 7 11 41 -8 22 -12 35 -24 28 -27z"/>
<path d="M2317 2334 c-15 -8 -27 -22 -27 -32 0 -15 -2 -15 -10 -2 -7 11 -10
12 -10 2 0 -9 -7 -11 -19 -7 -11 3 -22 1 -26 -4 -6 -10 -50 -32 -87 -45 -21
-6 -23 -25 -5 -50 11 -15 19 -16 51 -8 21 6 69 29 107 52 52 31 69 46 69 63 0
38 -12 47 -43 31z m-26 -67 c-22 -21 -23 -21 -17 -2 6 18 5 19 -7 3 -8 -10
-17 -15 -20 -11 -4 3 -7 -1 -7 -11 0 -9 -4 -14 -10 -11 -5 3 -10 1 -10 -5 0
-7 -7 -10 -15 -7 -8 4 -17 2 -20 -4 -4 -5 -11 -7 -16 -3 -15 9 10 34 27 27 7
-3 16 2 20 10 5 15 48 32 72 28 6 -1 12 4 12 10 0 7 3 9 7 5 4 -3 -4 -17 -16
-29z"/>
<path d="M2381 2291 c-1 -17 -62 -94 -69 -87 -2 3 -13 -5 -23 -18 -12 -16 -34
-26 -64 -30 -24 -4 -47 -12 -51 -17 -11 -19 4 -21 35 -4 32 16 42 7 15 -16 -8
-7 -22 -26 -31 -43 -8 -17 -38 -57 -66 -90 -30 -35 -42 -54 -29 -47 20 11 20
9 -6 -36 -30 -51 -45 -93 -33 -93 15 0 38 36 96 145 32 61 75 133 96 162 40
53 115 113 143 113 8 0 17 4 20 9 3 4 -6 7 -19 5 -27 -2 -32 5 -14 23 6 6 9
17 6 25 -4 11 -6 11 -6 -1z"/>
<path d="M523 2231 c18 -26 34 -46 37 -44 5 5 -31 76 -45 85 -24 18 -21 5 8
-41z"/>
<path d="M620 2227 c73 -64 136 -145 190 -247 64 -119 79 -144 93 -155 6 -5
18 -22 26 -37 22 -42 22 -29 1 32 -10 30 -19 51 -19 45 -1 -11 -25 22 -34 48
-4 9 -2 17 4 17 18 0 68 -59 104 -124 26 -46 44 -67 72 -80 l38 -18 -46 49
c-26 26 -58 67 -73 90 -14 24 -50 66 -79 95 -72 73 -152 168 -139 168 5 0 13
7 16 15 4 12 -6 21 -37 34 -23 10 -51 29 -62 41 -24 28 -94 80 -107 80 -5 0
18 -24 52 -53z"/>
<path d="M970 2266 c0 -18 60 -98 78 -104 27 -9 10 29 -33 72 -25 26 -45 40
-45 32z"/>
<path d="M1980 2238 c-19 -21 -41 -45 -47 -55 -12 -15 -13 -14 -13 10 0 15 5
27 11 27 5 0 7 5 4 10 -12 19 -33 10 -40 -17 -6 -27 -85 -149 -163 -256 -24
-32 -51 -57 -64 -60 -20 -4 -20 -4 4 -6 30 -1 78 18 78 31 0 4 32 61 71 126
66 109 73 117 101 117 26 0 37 8 66 47 43 60 38 75 -8 26z"/>
<path d="M2449 2230 c-21 -31 -45 -53 -65 -60 -16 -6 -46 -24 -65 -41 -32 -29
-32 -30 -4 -13 17 10 50 29 74 41 28 15 56 41 78 73 18 27 29 50 25 50 -5 0
-25 -22 -43 -50z"/>
<path d="M169 2253 c-2 -4 -41 -26 -87 -48 -56 -26 -82 -44 -82 -56 0 -15 15
-10 86 27 l85 45 56 -26 c64 -29 63 -29 63 -12 0 28 -111 93 -121 70z"/>
<path d="M1081 2218 c-16 -45 -14 -61 5 -50 13 7 25 -9 66 -87 28 -53 59 -108
69 -123 21 -29 25 -43 9 -33 -5 3 -10 2 -10 -3 0 -8 45 -22 71 -22 4 0 -16 34
-46 76 -31 42 -77 120 -104 174 l-49 99 -11 -31z"/>
<path d="M2096 2145 c-14 -21 -14 -25 -2 -25 13 0 36 28 36 44 0 15 -19 4 -34
-19z"/>
<path d="M1951 2096 c-18 -35 -31 -68 -27 -74 8 -13 -12 -53 -70 -142 -23 -36
-48 -84 -55 -107 -6 -23 -31 -65 -55 -95 -48 -58 -47 -56 -35 -111 6 -24 5
-62 -2 -102 -8 -46 -8 -68 -1 -75 8 -8 13 13 18 70 4 47 19 119 37 173 34 102
44 123 114 247 26 47 56 108 65 135 10 28 25 67 35 88 27 65 12 60 -24 -7z"/>
<path d="M158 2144 c-4 -3 -21 -8 -40 -11 -35 -5 -88 -33 -108 -58 -21 -25 -7
-25 42 0 50 25 121 40 138 30 7 -4 3 -19 -10 -39 -11 -19 -20 -49 -19 -67 0
-33 1 -33 14 12 14 43 17 46 72 63 54 17 56 19 38 33 -43 33 -112 53 -127 37z"/>
<path d="M1000 2143 c0 -14 51 -129 94 -213 44 -86 114 -281 124 -350 8 -50 9
-52 16 -25 4 17 11 45 16 63 7 28 5 35 -15 48 -24 15 -65 99 -65 131 0 10 3
14 8 8 10 -15 80 -55 96 -55 6 0 17 -5 24 -12 9 -9 5 -17 -15 -34 -46 -39 -18
-37 41 2 l56 38 -78 26 c-91 29 -149 71 -169 120 -8 19 -20 42 -27 50 -7 8
-20 42 -30 74 -16 53 -76 154 -76 129z"/>
<path d="M2718 2133 c26 -18 184 -84 189 -79 2 2 -8 11 -22 20 -14 9 -25 14
-25 11 0 -3 -13 1 -28 9 -16 8 -53 24 -83 35 -41 15 -48 16 -31 4z"/>
<path d="M790 2130 c0 -5 4 -10 10 -10 5 0 20 -11 34 -25 14 -14 23 -25 20
-25 -3 0 2 -7 10 -16 9 -8 16 -21 16 -29 0 -20 83 -96 91 -83 7 10 -44 75
-127 164 -32 34 -54 43 -54 24z"/>
<path d="M2096 2086 c-50 -61 -45 -69 9 -16 25 24 45 48 45 52 0 19 -20 5 -54
-36z"/>
<path d="M590 2114 c0 -3 13 -30 29 -58 34 -61 47 -102 56 -178 l6 -58 -28 0
c-56 0 -238 64 -228 80 7 11 -24 22 -38 13 -7 -3 -9 -2 -4 2 7 8 -83 64 -109
69 -7 1 -28 14 -48 29 -41 32 -47 25 -13 -15 24 -29 197 -124 290 -158 31 -12
57 -25 57 -29 0 -5 22 -11 49 -15 l49 -6 -30 -30 c-16 -17 -26 -35 -22 -41 9
-16 38 21 70 88 20 41 23 57 15 72 -16 29 -13 39 4 17 8 -11 15 -16 15 -10 0
5 -7 18 -15 28 -8 11 -15 32 -15 47 0 15 -16 55 -36 88 -34 57 -54 81 -54 65z"/>
<path d="M2377 2098 c-57 -91 -97 -164 -97 -177 0 -14 2 -14 11 -1 7 11 8 0 4
-40 -7 -69 10 -47 19 25 4 28 25 85 47 129 38 74 48 115 16 64z"/>
<path d="M398 2082 c-21 -4 -23 -13 -6 -30 19 -19 38 -14 35 8 -4 24 -8 27
-29 22z"/>
<path d="M947 2028 c50 -49 75 -82 105 -147 60 -124 136 -379 136 -451 0 -47
22 -233 32 -271 13 -46 77 -186 89 -194 5 -3 1 13 -10 35 -39 81 -79 218 -79
272 0 86 -27 278 -49 343 -10 33 -29 94 -41 135 -22 77 -86 210 -123 256 -24
32 -95 84 -113 84 -7 0 17 -28 53 -62z"/>
<path d="M2027 2063 c-19 -16 -41 -39 -47 -53 -8 -18 2 -12 42 25 29 27 55 50
57 52 2 2 0 3 -6 3 -5 0 -26 -12 -46 -27z"/>
<path d="M2072 2021 c-30 -21 -65 -56 -79 -77 -27 -41 -29 -42 122 98 31 29
15 21 -43 -21z"/>
<path d="M2508 2044 c-16 -8 -28 -17 -28 -20 0 -3 6 -2 13 2 7 5 6 0 -3 -10
-8 -11 -13 -30 -11 -44 1 -13 -2 -28 -8 -31 -6 -4 -6 -12 -1 -21 7 -11 20 -9
77 15 44 19 61 31 49 33 -10 2 -22 -2 -26 -8 -6 -10 -17 -7 -44 9 l-36 23 47
23 c48 25 69 24 59 -1 -5 -12 3 -14 38 -12 24 2 42 6 40 10 -2 3 2 8 8 11 11
3 -118 38 -139 37 -4 -1 -20 -8 -35 -16z"/>
<path d="M295 2031 c-9 -16 37 -41 77 -41 46 0 58 16 17 24 -17 3 -28 10 -24
16 4 6 -8 10 -29 10 -19 0 -37 -4 -41 -9z"/>
<path d="M2775 1961 c-6 -5 -37 -26 -69 -45 -39 -24 -53 -36 -39 -36 21 0 87
44 112 73 14 18 11 23 -4 8z"/>
<path d="M170 1955 c0 -3 10 -10 23 -15 24 -11 45 -23 92 -55 17 -12 42 -26
57 -32 21 -9 26 -18 23 -35 -4 -22 -4 -22 10 -4 23 31 18 40 -33 60 -26 11
-72 35 -102 53 -53 32 -70 39 -70 28z"/>
<path d="M1946 1927 c-36 -47 -129 -247 -159 -342 -29 -94 -47 -201 -47 -286
0 -71 -19 -152 -55 -233 -32 -71 -32 -83 -1 -29 44 77 67 158 76 276 5 62 16
145 24 184 20 93 125 359 166 418 36 52 33 61 -4 12z"/>
<path d="M1994 1874 c-44 -47 -80 -91 -82 -98 -4 -13 117 114 149 157 38 50
12 28 -67 -59z"/>
<path d="M996 1865 c49 -57 66 -71 40 -34 -8 12 -12 27 -10 34 3 7 -8 22 -24
34 -52 37 -55 23 -6 -34z"/>
<path d="M2177 1831 c-19 -67 -17 -95 2 -40 15 43 21 34 22 -37 1 -41 8 -73
25 -106 26 -52 29 -62 14 -53 -14 9 -12 -7 6 -51 34 -80 37 -89 40 -104 6 -28
146 -394 168 -440 12 -25 33 -80 47 -122 13 -43 27 -78 32 -78 4 0 7 5 7 10 0
6 6 10 14 10 7 0 19 7 26 15 12 14 9 15 -18 10 -30 -5 -31 -4 -58 68 -15 39
-31 76 -36 82 -4 5 -8 22 -8 37 0 16 -4 36 -9 46 -38 77 -60 134 -55 146 3 8
0 17 -7 22 -9 5 -10 2 -6 -10 4 -11 3 -15 -4 -11 -6 4 -8 14 -5 22 4 9 -7 44
-24 79 -16 35 -30 74 -30 87 0 12 -8 36 -18 52 -28 45 -32 62 -16 62 7 0 11
-4 8 -8 -3 -5 7 -11 21 -15 13 -3 23 -9 20 -13 -6 -11 81 -91 99 -91 9 0 31
-13 49 -30 67 -61 141 -120 151 -120 13 1 -9 20 -125 110 -46 36 -105 87 -131
113 -27 26 -53 45 -58 42 -6 -3 -7 1 -4 9 4 10 1 16 -7 16 -14 0 -49 72 -49
98 0 30 120 -30 180 -90 25 -25 38 -34 31 -20 -6 12 -9 22 -5 22 13 0 -21 33
-58 56 -21 13 -57 31 -80 41 -24 9 -51 23 -60 31 -17 14 -64 144 -70 192 -2
18 -8 7 -21 -39z"/>
<path d="M2255 1842 c6 -50 34 -109 61 -133 11 -9 42 -28 69 -42 28 -14 59
-34 69 -46 25 -28 40 -27 25 2 -16 29 -35 44 -85 66 -47 22 -98 82 -125 149
l-20 47 6 -43z"/>
<path d="M2598 1864 c-16 -8 -28 -16 -28 -18 0 -2 18 -50 39 -107 24 -64 35
-106 29 -110 -6 -4 0 -13 12 -22 16 -11 20 -21 15 -37 -5 -17 -4 -20 5 -15 9
5 11 4 6 -4 -4 -6 1 -23 12 -39 11 -15 22 -36 26 -48 7 -24 56 -73 56 -57 0 6
-6 16 -14 22 -8 7 -24 37 -36 69 -13 31 -33 80 -46 107 -13 28 -39 91 -57 142
l-34 91 23 11 c13 6 24 15 24 21 0 12 1 12 -32 -6z"/>
<path d="M756 1847 c-3 -13 -30 -60 -60 -105 -30 -46 -48 -82 -41 -82 7 0 18
7 25 15 7 8 9 15 6 15 -4 0 4 15 16 33 13 17 30 46 38 62 8 17 16 32 17 34 1
2 10 -2 20 -10 15 -12 16 -12 10 4 -4 10 -7 27 -7 38 0 27 -17 24 -24 -4z"/>
<path d="M1265 1861 c3 -5 21 -18 40 -30 33 -19 35 -19 25 -2 -5 10 -23 24
-40 30 -17 5 -28 6 -25 2z"/>
<path d="M1669 1851 c-13 -11 -21 -22 -18 -25 3 -4 17 2 30 13 13 11 21 22 18
25 -3 4 -17 -2 -30 -13z"/>
<path d="M2945 1826 c-50 -23 -83 -51 -72 -62 9 -9 127 60 127 74 0 15 4 16
-55 -12z"/>
<path d="M1951 1780 c-58 -53 -62 -67 -6 -24 27 20 74 75 63 74 -2 -1 -27 -23
-57 -50z"/>
<path d="M2530 1768 c0 -18 5 -28 15 -28 19 0 19 11 0 36 -14 18 -14 18 -15
-8z"/>
<path d="M2922 1758 c-18 -11 -32 -21 -32 -23 0 -2 25 -3 55 -2 46 2 55 5 55
20 0 10 -5 15 -10 12 -6 -4 -16 -2 -23 4 -9 7 -22 4 -45 -11z"/>
<path d="M1370 1714 c-29 -31 -29 -57 2 -158 27 -91 48 -132 90 -179 l34 -37
34 35 c38 39 59 112 58 195 0 41 -2 38 -13 -25 -19 -114 -16 -111 -85 -110
-58 0 -60 1 -60 26 0 15 -7 40 -15 55 -8 16 -15 37 -15 46 0 9 -4 19 -9 22 -5
4 -12 24 -16 45 -5 32 -3 43 13 59 14 14 24 17 36 10 12 -7 16 -5 16 8 0 16 2
16 20 -1 16 -15 20 -15 20 -3 0 16 -40 38 -68 38 -9 0 -28 -12 -42 -26z m149
-303 c11 -7 10 -11 -7 -20 -22 -12 -39 0 -27 19 8 12 16 12 34 1z"/>
<path d="M1552 1713 c-8 -3 -2 -19 20 -50 18 -24 36 -47 40 -49 5 -3 8 20 8
50 0 55 -1 56 -27 55 -16 0 -34 -3 -41 -6z"/>
<path d="M533 1683 c-10 -10 -36 -40 -56 -67 -62 -82 -43 -102 37 -40 25 21
43 40 40 43 -4 3 -9 0 -11 -7 -3 -6 -8 -10 -12 -7 -5 2 -19 -7 -31 -20 -28
-30 -56 -34 -41 -7 5 10 31 42 56 70 47 52 55 67 18 35z"/>
<path d="M2164 1690 c-5 -8 -9 -23 -10 -32 -1 -10 -2 -25 -3 -34 0 -9 -6 -12
-13 -8 -6 4 -8 3 -5 -3 4 -6 -5 -38 -18 -71 -14 -34 -34 -96 -45 -139 -12 -43
-26 -87 -32 -98 -7 -11 -13 -47 -15 -80 -2 -33 -5 -102 -7 -152 -3 -51 -1 -95
4 -98 13 -8 20 26 25 125 8 170 22 237 105 489 29 88 36 134 14 101z"/>
<path d="M790 1677 c0 -7 -15 -36 -34 -65 -19 -28 -32 -52 -28 -52 3 0 -4 -7
-16 -16 -12 -8 -22 -23 -22 -33 0 -9 -13 -38 -30 -64 -16 -26 -27 -47 -23 -47
4 0 -3 -10 -14 -22 -11 -13 -26 -34 -33 -48 -9 -19 -5 -17 18 10 17 19 32 31
32 25 0 -5 36 59 79 143 43 84 83 158 89 164 13 13 12 15 37 -76 9 -32 18 -56
21 -54 8 9 -19 113 -34 131 -18 20 -42 23 -42 4z"/>
<path d="M1927 1670 c-9 -11 -17 -24 -17 -29 0 -5 -8 -12 -17 -15 -15 -4 -15
-5 1 -3 10 1 28 14 39 29 24 32 19 47 -6 18z"/>
<path d="M1478 1636 c-3 -24 -2 -61 2 -82 6 -31 8 -23 9 44 1 90 -4 106 -11
38z"/>
<path d="M1280 1641 c0 -22 36 -35 44 -15 3 8 -3 18 -14 24 -26 14 -30 13 -30
-9z"/>
<path d="M1949 1613 c-7 -16 -15 -31 -17 -35 -2 -5 1 -8 6 -8 11 0 37 58 30
65 -3 3 -11 -7 -19 -22z"/>
<path d="M557 1559 c-32 -27 -66 -49 -76 -49 -10 0 -26 -9 -36 -20 -21 -23 -9
-26 19 -5 11 8 30 15 42 15 14 0 38 19 69 55 25 30 45 55 43 54 -2 0 -29 -22
-61 -50z"/>
<path d="M1658 1587 l-26 -20 18 -41 c10 -22 22 -50 26 -61 7 -17 9 -15 12 12
2 18 -2 41 -8 53 -8 14 -8 26 0 41 17 31 8 39 -22 16z"/>
<path d="M1615 1540 c30 -138 50 -197 50 -145 0 12 -3 21 -6 19 -4 -2 -7 6 -7
19 0 12 -10 47 -21 77 -12 30 -19 44 -16 30z"/>
<path d="M1300 1485 c-26 -79 -22 -107 7 -39 26 63 36 104 24 104 -5 0 -19
-29 -31 -65z"/>
<path d="M2496 1541 c9 -10 152 -52 173 -51 18 2 -56 32 -96 40 -27 5 -57 12
-68 16 -15 5 -17 4 -9 -5z"/>
<path d="M871 1525 c0 -18 38 -160 38 -147 1 7 6 10 13 6 8 -5 9 -2 5 10 -4
10 -7 25 -7 34 0 13 -2 14 -9 3 -6 -9 -11 1 -15 30 -6 39 -26 90 -25 64z"/>
<path d="M361 1465 c-28 -20 -30 -24 -12 -22 12 1 31 12 43 24 28 30 12 29
-31 -2z"/>
<path d="M2488 1451 c-3 -19 1 -34 12 -43 53 -44 53 -44 25 12 -15 30 -29 56
-30 58 -1 2 -5 -10 -7 -27z"/>
<path d="M2700 1426 c0 -24 47 -102 84 -139 51 -52 59 -68 22 -43 -17 11 -27
12 -32 5 -3 -6 -17 -8 -33 -4 -52 13 -5 -16 50 -30 93 -25 96 -22 42 48 -26
34 -51 63 -55 65 -4 2 -20 26 -34 53 -15 27 -31 49 -36 49 -4 0 -8 -2 -8 -4z"/>
<path d="M1031 1404 c-1 -29 19 -84 31 -84 10 0 4 25 -17 75 -11 25 -14 26
-14 9z"/>
<path d="M1246 1395 c4 -16 10 -39 14 -49 6 -17 8 -16 14 9 6 22 2 33 -14 49
l-21 21 7 -30z"/>
<path d="M1080 1400 c0 -13 63 -60 72 -54 5 3 6 9 3 14 -9 14 -75 50 -75 40z"/>
<path d="M1570 1402 c0 -18 45 -87 58 -89 17 -4 15 6 -11 51 -21 38 -47 58
-47 38z"/>
<path d="M1846 1387 c-39 -22 -58 -47 -37 -47 11 0 91 69 81 70 -3 0 -23 -10
-44 -23z"/>
<path d="M1372 1362 c-44 -38 -56 -60 -24 -43 13 7 23 6 30 -1 9 -9 12 -9 12
1 0 7 7 19 15 27 12 13 22 55 13 54 -2 0 -22 -17 -46 -38z"/>
<path d="M911 1345 c0 -11 4 -38 9 -60 25 -103 30 -178 19 -293 -9 -89 -16
-122 -30 -138 -30 -33 -22 -99 15 -110 11 -3 39 -23 61 -43 41 -38 39 -32 -15
37 -37 47 -41 79 -22 164 6 26 12 64 14 84 1 20 7 38 13 40 16 7 16 44 0 89
-7 22 -16 56 -19 75 -4 29 1 22 32 -37 20 -40 40 -73 45 -73 4 0 1 10 -7 22
-9 12 -16 30 -16 39 0 9 -7 22 -15 29 -8 7 -13 16 -10 20 3 4 -4 19 -15 33
-11 14 -20 31 -21 39 -1 23 -38 104 -38 83z"/>
<path d="M1971 1323 c-1 -18 -1 -36 -2 -40 0 -4 4 -9 10 -11 13 -4 13 34 1 63
-7 17 -9 15 -9 -12z"/>
<path d="M1272 1308 c3 -7 18 -19 34 -28 16 -9 55 -57 89 -108 33 -50 64 -91
69 -92 4 0 6 6 3 13 -9 23 -137 202 -154 215 -21 15 -46 16 -41 0z"/>
<path d="M1512 1281 c-7 -21 -11 -60 -11 -87 1 -27 3 -38 5 -24 3 14 9 51 16
83 13 67 6 85 -10 28z"/>
<path d="M551 1229 c-34 -44 -61 -84 -61 -89 0 -4 -7 -11 -16 -14 -8 -3 -12
-11 -9 -16 4 -6 3 -10 -2 -9 -18 3 -28 -2 -17 -9 8 -5 2 -26 -17 -67 -16 -33
-29 -68 -29 -78 0 -10 -12 -41 -27 -70 -15 -29 -28 -56 -28 -62 0 -5 -8 -16
-18 -23 -9 -7 -15 -17 -12 -22 3 -5 -1 -14 -8 -22 -7 -7 -21 -32 -31 -55 -10
-23 -22 -41 -25 -39 -3 2 -15 -14 -26 -37 -11 -23 -42 -64 -68 -92 -27 -27
-61 -68 -77 -90 -16 -22 -40 -51 -54 -64 -21 -19 -35 -51 -23 -51 2 0 47 50
102 111 109 124 191 252 292 459 109 223 145 293 178 345 45 72 47 75 41 75
-2 0 -32 -36 -65 -81z"/>
<path d="M1654 1272 c-12 -9 -37 -44 -54 -77 -18 -33 -43 -76 -56 -95 -13 -19
-26 -55 -29 -80 l-6 -45 17 45 c9 25 21 51 27 59 13 16 31 45 50 86 17 34 67
93 67 79 0 -5 5 -1 11 9 6 9 15 14 21 11 6 -4 9 -1 6 7 -7 21 -30 21 -54 1z"/>
<path d="M2680 1225 c27 -29 144 -99 181 -108 13 -4 36 -18 52 -32 31 -29 33
-26 12 19 -13 26 -27 36 -87 56 -39 13 -96 39 -127 58 -52 31 -54 31 -31 7z"/>
<path d="M2902 1210 c3 -10 72 -38 96 -40 1 0 2 6 2 14 0 8 -15 17 -36 20 -19
4 -42 10 -51 13 -10 4 -14 2 -11 -7z"/>
<path d="M1956 1136 c-9 -20 -15 -42 -13 -49 5 -14 39 62 34 76 -2 6 -11 -6
-21 -27z"/>
<path d="M1648 1118 c-14 -18 -31 -44 -38 -58 -7 -14 -38 -61 -68 -104 l-56
-79 -45 49 c-25 28 -64 83 -85 122 -22 40 -47 78 -55 85 -44 35 108 -202 159
-248 19 -17 21 -17 41 1 28 26 107 137 119 169 5 14 22 42 36 61 15 19 24 34
21 34 -2 0 -16 -15 -29 -32z"/>
<path d="M1480 1098 c0 -7 4 -19 9 -27 11 -17 25 3 17 24 -7 18 -26 20 -26 3z"/>
<path d="M406 1061 c-10 -11 -13 -22 -8 -25 9 -6 20 4 36 32 11 19 -9 14 -28
-7z"/>
<path d="M1437 1008 c10 -15 21 -28 26 -28 4 0 7 -6 7 -14 0 -8 5 -18 10 -21
23 -14 7 18 -26 53 -25 26 -30 29 -17 10z"/>
<path d="M2045 970 c-11 -18 -15 -129 -5 -135 25 -15 7 -55 -52 -120 -63 -69
-53 -78 11 -11 20 21 45 36 58 36 16 0 24 7 29 25 4 14 4 29 0 32 -3 3 -1 11
4 18 7 8 2 19 -14 34 -22 20 -24 29 -19 77 6 52 2 66 -12 44z"/>
<path d="M466 939 c2 -4 0 -9 -5 -11 -4 -1 -12 -14 -16 -28 -7 -24 -5 -23 31
10 21 19 41 36 43 38 3 1 -9 2 -26 0 -18 -1 -30 -5 -27 -9z"/>
<path d="M1594 899 c-16 -22 -46 -61 -66 -85 -21 -25 -38 -48 -38 -52 0 -12
89 83 90 96 0 6 4 12 10 12 10 0 44 59 38 66 -3 2 -18 -15 -34 -37z"/>
<path d="M487 880 c-20 -22 -33 -40 -28 -40 15 0 74 57 70 68 -2 7 -21 -6 -42
-28z"/>
<path d="M1372 872 c45 -62 63 -82 71 -82 5 0 -8 19 -27 42 -20 23 -36 45 -36
50 0 4 -5 8 -11 8 -6 0 -5 -7 3 -18z"/>
<path d="M1755 823 c-22 -19 -31 -31 -20 -25 30 16 81 61 70 61 -5 0 -28 -16
-50 -36z"/>
<path d="M407 818 c-31 -31 -61 -88 -47 -88 6 0 19 14 28 32 9 17 25 40 35 50
28 29 12 34 -16 6z"/>
<path d="M2576 781 c-16 -16 -26 -35 -23 -42 4 -10 8 -7 12 8 4 13 11 21 15
18 4 -3 15 6 24 20 22 33 8 31 -28 -4z"/>
<path d="M864 772 c4 -13 1 -22 -9 -26 -11 -4 -15 -20 -15 -60 0 -44 5 -59 22
-76 12 -11 18 -23 14 -27 -4 -4 -11 -1 -16 6 -6 10 -11 -1 -16 -35 -11 -79
-60 -146 -243 -336 -63 -65 -112 -121 -108 -125 4 -3 7 -1 7 6 0 7 3 10 8 7
11 -6 85 62 78 73 -3 5 4 15 17 24 36 24 105 94 131 134 13 21 43 58 67 83 23
25 48 60 56 78 15 36 16 36 46 21 21 -10 21 -9 -1 10 -17 14 -22 27 -17 41 4
11 11 17 17 14 6 -4 6 1 -1 14 -13 24 -15 72 -3 72 4 0 17 -7 28 -15 12 -8 24
-11 28 -8 3 3 6 2 6 -4 0 -5 12 -15 26 -22 43 -19 37 -7 -8 20 -46 26 -108 84
-108 100 0 6 4 8 9 5 5 -4 7 3 4 14 -3 11 -10 23 -15 26 -6 4 -8 -1 -4 -14z"/>
<path d="M2109 758 c-8 -18 -13 -38 -11 -45 1 -6 -8 -15 -20 -19 -25 -8 -86
-51 -105 -74 -7 -8 -13 -10 -13 -5 0 6 -3 5 -8 -1 -17 -27 -101 -59 -215 -83
-49 -11 -63 -26 -17 -18 76 13 128 27 178 48 23 10 45 18 49 18 3 0 9 4 12 9
3 5 37 28 74 51 73 44 71 45 81 -26 7 -48 -8 -90 -36 -98 -10 -4 -18 -11 -18
-16 0 -15 16 -10 34 10 21 23 50 16 43 -10 -3 -11 -1 -19 4 -19 5 0 9 6 9 13
1 6 10 -4 21 -23 17 -29 19 -31 15 -10 -2 14 -9 40 -15 58 -26 76 -29 95 -22
115 10 30 -1 150 -15 154 -6 2 -17 -11 -25 -29z"/>
<path d="M1460 600 c0 -5 -9 -10 -19 -10 -11 0 -23 -5 -26 -10 -4 -7 3 -8 20
-4 15 4 44 7 66 8 40 1 51 9 23 20 -25 9 -64 7 -64 -4z"/>
<path d="M1302 566 c32 -7 64 -18 72 -25 11 -9 15 -8 20 5 4 9 5 18 4 19 -2 2
-37 5 -78 8 l-75 6 57 -13z"/>
<path d="M1439 531 c-44 -23 -59 -26 -82 -19 -33 12 -52 6 -66 -20 -9 -18 -6
-19 54 -20 47 -1 65 2 65 12 0 17 45 37 67 29 11 -4 14 -3 9 5 -5 8 0 12 12
12 11 0 22 7 26 15 9 24 -25 18 -85 -14z"/>
<path d="M262 542 c-17 -12 -152 -194 -152 -207 0 -5 4 -5 8 2 4 7 24 31 44
55 20 24 55 65 77 91 46 54 56 79 23 59z"/>
<path d="M2340 506 c-11 -24 -27 -49 -35 -56 -8 -7 -15 -17 -15 -22 0 -6 -11
-23 -25 -40 l-25 -29 -21 35 c-28 47 -34 46 -11 -1 22 -44 20 -53 -19 -92 -16
-16 -29 -38 -29 -48 1 -15 4 -14 23 8 70 82 145 187 153 213 4 12 15 33 26 49
11 15 14 27 8 27 -6 0 -20 -20 -30 -44z"/>
<path d="M2506 463 c16 -29 33 -53 37 -53 10 0 -22 58 -47 85 -12 13 -8 1 10
-32z"/>
<path d="M2642 439 c17 -33 32 -58 34 -56 6 6 -14 68 -31 93 -31 47 -33 23 -3
-37z"/>
<path d="M2346 400 c-26 -33 -43 -60 -38 -60 12 0 97 109 90 115 -3 3 -26 -22
-52 -55z"/>
<path d="M1360 410 c14 -4 38 -11 53 -14 35 -8 30 -29 -9 -37 -27 -5 -28 -6
-7 -13 24 -8 83 17 83 35 0 6 -4 8 -9 4 -6 -3 -25 4 -43 15 -18 11 -46 20 -63
19 -30 -1 -30 -1 -5 -9z"/>
<path d="M2704 395 c9 -25 69 -104 78 -105 11 0 -49 95 -69 111 -15 12 -16 12
-9 -6z"/>
<path d="M2258 299 c-9 -13 -30 -39 -47 -56 -33 -36 -21 -44 19 -13 17 13 28
15 37 9 8 -8 10 -4 6 12 -4 15 -3 20 5 15 13 -8 15 9 3 38 -7 17 -8 17 -23 -5z"/>
<path d="M2850 234 c0 -5 23 -32 52 -59 35 -35 45 -41 30 -20 -26 38 -82 92
-82 79z"/>
<path d="M2782 212 c17 -25 57 -57 63 -50 2 2 -15 19 -38 38 -30 25 -37 29
-25 12z"/>
<path d="M23 183 c-21 -4 -34 -33 -14 -33 4 0 11 -20 13 -45 6 -51 31 -95 54
-95 8 0 25 12 38 27 21 24 21 28 7 44 -9 10 -22 25 -29 33 -7 9 -24 16 -37 16
-30 0 -35 33 -7 49 18 11 13 11 -25 4z m47 -99 c0 -20 4 -33 10 -29 5 3 7 12
3 20 -3 8 0 15 6 15 18 0 25 -29 11 -45 -7 -8 -21 -15 -31 -15 -16 0 -19 8
-19 45 0 25 5 45 10 45 6 0 10 -16 10 -36z"/>
<path d="M2384 58 c11 -7 30 -23 42 -35 11 -13 30 -23 40 -23 15 1 12 7 -15
30 -19 16 -37 28 -39 25 -3 -2 -14 0 -26 6 -20 9 -20 9 -2 -3z"/>
</g>
</svg>
