<?xml version="1.0" standalone="no"?>
<!DOCTYPE svg PUBLIC "-//W3C//DTD SVG 20010904//EN"
 "http://www.w3.org/TR/2001/REC-SVG-20010904/DTD/svg10.dtd">
<svg version="1.0" xmlns="http://www.w3.org/2000/svg"
 width="300.000000pt" height="300.000000pt" viewBox="0 0 300.000000 300.000000"
 preserveAspectRatio="xMidYMid meet">
<metadata>
Created by potrace 1.10, written by Peter Selinger 2001-2011
</metadata>
<g transform="translate(0.000000,300.000000) scale(0.100000,-0.100000)"
fill="#000000" stroke="none">
<path d="M1043 2844 c-25 -38 -22 -107 6 -172 19 -42 26 -50 37 -41 18 15 18
50 -1 75 -13 16 -14 16 -9 2 12 -34 -5 -18 -27 26 l-22 45 22 41 c25 49 21 65
-6 24z"/>
<path d="M1098 2826 c-19 -50 -15 -75 19 -124 28 -42 28 -46 3 -87 -24 -40
-20 -53 26 -83 33 -21 46 -42 74 -119 14 -38 25 -42 33 -12 8 29 -28 103 -74
151 -35 37 -38 43 -24 58 17 19 20 50 5 50 -5 0 -10 8 -10 18 0 10 -9 35 -19
55 -15 29 -18 51 -14 88 3 27 3 49 1 49 -2 0 -11 -20 -20 -44z"/>
<path d="M1900 2744 c6 -16 28 -52 50 -78 48 -58 50 -80 10 -101 -30 -16 -90
-94 -90 -117 0 -8 4 -7 11 4 9 17 12 17 34 2 25 -16 25 -16 19 14 -5 26 -3 29
17 28 15 -1 24 5 25 14 0 16 10 45 24 71 15 28 -9 81 -61 139 -43 49 -48 51
-39 24z"/>
<path d="M1861 2723 c0 -22 6 -40 20 -54 14 -14 17 -24 11 -28 -7 -4 -7 -12
-2 -20 10 -18 -38 -81 -61 -81 -10 0 -19 -10 -21 -24 -4 -21 -3 -22 16 -12 38
20 116 104 116 124 0 11 -15 31 -34 46 -21 15 -36 37 -39 54 -4 25 -4 25 -6
-5z"/>
<path d="M1710 2679 c0 -24 23 -21 28 4 2 10 -3 17 -12 17 -10 0 -16 -9 -16
-21z"/>
<path d="M1754 2625 c-7 -27 0 -55 13 -55 4 0 9 18 11 40 3 44 -14 55 -24 15z"/>
<path d="M826 2606 c3 -7 -2 -16 -12 -20 -12 -5 -14 -9 -5 -20 6 -7 7 -16 3
-20 -4 -4 0 -6 8 -4 21 4 30 19 30 51 0 17 -5 27 -15 27 -8 0 -12 -6 -9 -14z"/>
<path d="M874 2605 c3 -10 -1 -40 -10 -69 -12 -38 -13 -58 -5 -78 9 -25 13
-26 42 -18 17 5 40 17 49 25 17 15 18 12 14 -52 l-3 -68 15 88 c9 49 13 95 10
102 -3 8 -18 21 -35 29 l-29 16 15 -40 c23 -59 2 -86 -45 -56 -15 9 -10 80 7
100 7 8 3 16 -11 25 -18 11 -20 11 -14 -4z"/>
<path d="M964 2599 c-15 -17 -16 -19 -1 -19 10 0 27 -10 38 -21 18 -18 20 -29
15 -70 -7 -50 4 -76 63 -149 21 -26 25 -61 12 -95 -5 -12 -3 -33 5 -54 17 -42
18 -98 2 -104 -10 -4 -10 -7 0 -18 11 -12 14 -12 22 1 9 13 10 13 10 0 1 -11
4 -10 16 5 17 22 15 45 -10 160 -8 39 -15 92 -16 118 0 69 -23 119 -52 115
-17 -2 -23 2 -23 17 0 12 8 21 20 23 21 3 50 -36 65 -86 l7 -27 8 29 c12 42
-5 75 -50 101 -37 21 -40 26 -38 61 1 35 0 36 -9 17 -11 -22 -28 -31 -28 -15
0 4 -9 13 -19 19 -16 10 -22 8 -37 -8z m130 -171 c20 -28 22 -90 3 -83 -14 6
-47 91 -39 100 10 10 21 5 36 -17z"/>
<path d="M2067 2581 c-22 -38 -22 -48 2 -27 19 18 35 56 22 56 -4 0 -14 -13
-24 -29z"/>
<path d="M2250 2581 c0 -8 5 -29 12 -46 9 -26 8 -51 -5 -120 -9 -49 -21 -93
-26 -98 -5 -5 -21 -9 -35 -9 -30 0 -33 -14 -10 -46 8 -12 14 -32 12 -45 -3
-18 -11 -23 -53 -27 -27 -3 -61 -12 -75 -20 -14 -8 -28 -13 -32 -12 -4 1 -5
-5 -2 -13 7 -18 16 -19 32 -3 8 8 18 9 35 1 14 -6 30 -8 37 -3 10 6 7 10 -13
16 -37 9 -27 18 11 9 25 -5 33 -15 51 -63 11 -32 27 -66 35 -77 28 -36 18 8
-14 68 l-30 56 27 25 c25 24 26 27 14 67 -12 39 -11 43 11 68 35 38 58 77 58
99 0 28 11 34 32 15 24 -22 24 0 -1 35 -10 15 -22 38 -26 51 -11 34 -45 89
-45 72z"/>
<path d="M1375 2542 c-4 -18 -13 -36 -21 -39 -18 -7 -18 -23 1 -23 25 0 49 47
38 73 -10 21 -11 20 -18 -11z"/>
<path d="M2210 2538 c0 -21 -4 -38 -8 -38 -5 0 -8 -17 -7 -38 2 -37 1 -38 -29
-34 -29 4 -30 3 -11 -11 16 -13 17 -17 6 -31 -7 -9 -18 -13 -24 -9 -6 3 -7 1
-3 -5 4 -7 1 -12 -9 -12 -9 0 -23 -7 -31 -15 -9 -8 -20 -15 -26 -15 -5 0 -7 7
-4 15 18 44 18 50 -1 28 -10 -12 -34 -30 -53 -41 -31 -17 -35 -24 -35 -58 0
-34 -5 -41 -43 -67 -47 -32 -77 -70 -67 -87 3 -5 -2 -10 -14 -10 -11 0 -23 -4
-26 -10 -12 -20 37 -9 58 13 48 49 89 104 103 134 16 36 33 47 85 57 21 4 43
14 50 22 7 9 34 27 61 40 36 18 48 30 48 47 0 12 3 45 6 72 4 37 2 55 -10 70
-15 19 -15 18 -16 -17z"/>
<path d="M1560 2532 c0 -11 9 -26 20 -33 17 -11 19 -21 14 -46 -6 -31 -7 -32
-30 -16 -13 8 -24 11 -24 6 0 -5 11 -15 25 -21 23 -11 27 -9 35 12 5 13 10 44
12 68 3 40 1 43 -24 46 -22 3 -28 -1 -28 -16z"/>
<path d="M2064 2468 c3 -13 5 -26 5 -30 1 -5 5 -8 11 -8 5 0 6 7 3 17 -5 12
-3 14 8 8 8 -5 5 1 -5 13 -24 28 -27 27 -22 0z"/>
<path d="M807 2464 c-3 -3 -2 -17 3 -30 5 -13 7 -24 4 -24 -3 0 6 -15 19 -32
14 -18 28 -48 32 -67 5 -24 10 -30 16 -20 16 25 10 54 -21 102 -16 26 -30 54
-30 62 0 15 -12 20 -23 9z"/>
<path d="M1978 2453 c6 -2 12 -9 12 -14 0 -6 -6 -9 -12 -8 -41 5 -41 3 -2 -59
1 -2 19 4 40 13 37 16 38 17 20 31 -11 8 -16 14 -10 14 5 1 -2 7 -16 15 -14 8
-29 14 -35 14 -5 0 -4 -3 3 -6z"/>
<path d="M1282 2438 c-19 -19 -14 -30 7 -18 30 15 36 13 54 -25 24 -49 59 -68
144 -76 72 -7 132 5 147 30 5 8 -108 6 -123 -3 -3 -3 -27 0 -52 5 -34 8 -57
21 -88 54 -44 46 -67 55 -89 33z"/>
<path d="M1684 2426 c-31 -14 -50 -46 -33 -57 13 -8 44 9 34 19 -3 3 2 14 12
24 20 22 15 27 -13 14z"/>
<path d="M1725 2412 c4 -7 6 -49 6 -94 -1 -69 -6 -91 -35 -157 -76 -169 -124
-331 -97 -331 6 0 11 -9 11 -20 0 -11 4 -20 9 -20 9 0 21 48 21 85 0 31 61
196 70 190 8 -5 62 59 107 130 41 63 42 48 3 -27 -17 -32 -27 -58 -23 -58 4 0
30 26 57 58 27 31 35 44 18 28 -33 -31 -43 -25 -17 10 22 29 19 33 -30 45 -51
13 -60 24 -69 90 -4 26 -14 55 -22 65 -9 11 -12 13 -9 6z m80 -182 c3 -5 1
-20 -6 -32 -17 -35 -82 -128 -86 -125 -1 2 8 32 22 67 14 35 25 69 25 76 0 11
14 21 32 23 4 1 10 -3 13 -9z"/>
<path d="M1877 2381 c-9 -41 -33 -71 -59 -71 -10 0 -18 -4 -18 -9 0 -6 12 -6
31 1 32 11 63 64 57 96 -2 10 -7 2 -11 -17z"/>
<path d="M1174 2361 c1 -40 4 -45 29 -52 33 -9 34 1 3 30 -14 13 -27 33 -29
45 -3 11 -4 1 -3 -23z"/>
<path d="M1260 2375 c-2 -16 -2 -42 -1 -56 2 -34 -27 -69 -61 -71 -33 -3 -33
-2 -12 -33 9 -14 20 -57 24 -96 4 -39 12 -75 17 -80 5 -5 33 -10 63 -12 31 -1
62 -7 70 -12 8 -5 25 -15 37 -22 13 -9 24 -10 27 -4 12 19 -162 100 -185 86
-4 -3 -5 12 -2 34 4 30 -1 49 -22 87 l-27 49 55 -60 c30 -33 58 -57 61 -54 3
3 -5 19 -20 35 -37 42 -58 84 -42 84 7 0 31 -33 52 -73 24 -44 59 -90 93 -121
52 -47 83 -98 83 -138 0 -10 4 -17 9 -14 15 9 43 -74 36 -105 -4 -16 -11 -29
-16 -29 -12 0 -12 -37 0 -44 5 -3 11 7 14 23 8 40 57 84 57 51 0 -5 -4 -10 -8
-10 -4 0 -15 -12 -23 -27 -19 -34 -11 -86 18 -115 17 -16 23 -17 46 -7 15 7
27 16 27 20 0 5 -11 3 -25 -3 -21 -9 -28 -8 -45 7 -11 10 -20 25 -20 34 0 12
6 9 20 -9 24 -31 26 -19 3 17 -16 25 -16 26 6 44 13 11 20 19 15 19 -4 0 -16
-7 -26 -17 -10 -9 -18 -12 -18 -6 0 5 8 18 19 27 17 16 20 16 35 1 9 -9 16
-11 16 -5 0 6 -11 21 -24 33 -13 12 -27 33 -31 47 -16 54 -58 139 -66 134 -5
-3 -6 3 -2 12 5 13 3 15 -7 9 -9 -5 -11 -4 -6 4 7 11 -67 115 -75 106 -7 -6
-83 103 -96 138 -14 40 -17 121 -3 112 6 -3 7 1 3 10 -5 13 -7 14 -14 3 -5 -7
-9 -22 -10 -33 -1 -11 -5 -2 -9 20 -7 37 -7 38 -10 10z"/>
<path d="M1931 2339 c-13 -11 -21 -22 -17 -26 3 -3 -2 -15 -11 -25 -16 -18
-16 -18 2 -12 15 6 17 4 12 -10 -4 -10 -3 -15 3 -11 14 9 12 -8 -2 -25 -11
-12 -10 -12 4 -1 12 9 15 21 11 46 -4 23 0 43 11 60 20 30 18 30 -13 4z"/>
<path d="M990 2333 c0 -19 46 -78 60 -78 27 0 22 40 -7 65 -19 18 -23 19 -10
4 28 -34 19 -40 -13 -9 -16 16 -30 24 -30 18z"/>
<path d="M1860 2305 c-23 -24 -23 -25 -3 -25 26 0 50 27 36 41 -6 6 -18 0 -33
-16z"/>
<path d="M2053 2270 c-55 -32 -99 -88 -108 -141 -5 -29 -3 -38 10 -43 9 -3 21
-3 26 0 5 3 32 7 61 10 48 4 50 4 37 -13 -11 -14 -9 -14 10 2 l23 20 -23 3
c-53 6 -70 13 -62 25 4 8 1 7 -10 -2 -9 -7 -14 -17 -11 -22 3 -5 -4 -9 -15 -9
-15 0 -19 6 -19 30 1 16 5 27 9 24 4 -2 14 7 21 20 14 26 74 76 92 76 15 1 64
39 51 41 -5 0 -17 2 -26 4 -9 1 -39 -10 -66 -25z"/>
<path d="M970 2277 c0 -11 14 -32 30 -47 20 -18 27 -31 19 -35 -6 -5 5 -17 30
-32 23 -13 41 -29 41 -35 0 -6 2 -9 5 -6 15 15 -12 62 -54 94 -25 20 -51 45
-58 57 -11 19 -12 20 -13 4z"/>
<path d="M1454 2255 c-3 -19 -4 -40 -1 -47 3 -7 6 -3 7 10 2 12 3 28 4 35 1 6
11 12 23 11 26 -1 22 11 -7 19 -16 4 -21 -1 -26 -28z"/>
<path d="M876 2186 c4 -10 1 -16 -7 -17 -20 0 -89 -95 -89 -121 0 -13 18 -39
46 -65 l46 -43 -15 -37 c-17 -44 -32 -53 -34 -21 -5 55 -35 108 -73 128 -48
24 -105 31 -127 15 -16 -12 -13 -14 22 -20 109 -17 132 -37 141 -125 4 -40 3
-51 -5 -40 -6 8 -11 10 -11 4 0 -6 8 -18 17 -25 11 -10 14 -10 9 -1 -5 9 2 12
27 12 30 0 35 4 41 30 3 17 15 43 27 59 25 34 20 46 -20 54 -19 4 -36 18 -51
42 l-22 36 43 48 c30 32 62 54 99 69 l55 21 -47 0 c-25 1 -54 4 -62 7 -12 5
-15 2 -10 -10z"/>
<path d="M947 2151 c-16 -6 -16 -9 -5 -18 27 -22 96 -52 103 -45 5 4 5 1 1 -5
-4 -7 -3 -13 2 -13 6 0 8 -10 4 -22 -3 -14 -1 -19 6 -14 6 3 16 -2 22 -13 6
-12 20 -26 33 -32 l22 -11 -22 21 c-24 22 -32 48 -12 35 7 -4 2 7 -10 23 -12
16 -23 36 -24 44 -5 28 -19 39 -50 40 -27 0 -29 2 -12 9 17 7 16 9 -10 9 -16
0 -38 -4 -48 -8z"/>
<path d="M910 2126 c14 -18 13 -19 -2 -13 -26 9 -22 -8 9 -40 14 -15 23 -23
20 -17 -5 8 2 11 17 10 13 0 22 -6 19 -12 -5 -13 39 -44 64 -44 12 0 6 11 -23
38 -23 23 -42 35 -46 29 -8 -12 -41 11 -33 23 2 4 -5 16 -18 26 -21 19 -21 19
-7 0z"/>
<path d="M2143 2121 c5 -18 -45 -72 -102 -110 -33 -22 -69 -52 -80 -67 -12
-15 -21 -23 -21 -19 0 14 -97 -50 -192 -126 -53 -44 -99 -79 -102 -79 -3 0 -6
14 -6 30 0 17 -5 30 -10 30 -6 0 -8 -11 -4 -25 3 -14 7 -44 8 -67 1 -33 -4
-44 -25 -60 -31 -24 -57 -15 -79 27 l-14 26 -13 -23 c-7 -13 -12 -38 -13 -56
0 -30 2 -32 21 -22 11 7 23 9 25 7 10 -10 -28 -83 -61 -117 -32 -33 -54 -92
-55 -147 0 -18 6 -23 28 -23 15 0 33 -4 41 -9 9 -6 24 -5 38 2 22 10 24 16 19
46 -14 82 -18 150 -9 165 8 14 12 10 22 -23 15 -51 27 -52 36 -3 7 34 8 35 16
14 6 -17 5 -28 -6 -38 -13 -13 -12 -20 5 -54 11 -22 20 -48 20 -60 0 -11 6
-20 14 -20 8 0 33 -9 57 -20 66 -29 154 -25 128 6 -8 10 -15 11 -24 4 -7 -6
-30 -11 -50 -12 -30 -1 -43 4 -61 25 -12 14 -25 23 -28 20 -3 -4 -6 1 -6 11 0
9 -9 34 -20 56 -22 43 -25 54 -11 45 6 -3 3 15 -5 40 -9 25 -20 42 -25 39 -5
-3 -9 -1 -9 5 0 5 5 11 12 13 6 2 17 22 23 44 6 21 17 38 23 37 14 -3 55 57
78 116 15 37 19 41 25 25 7 -18 8 -18 8 3 1 26 46 65 115 100 28 14 53 28 56
32 3 3 13 7 23 9 27 5 20 -27 -9 -40 -14 -7 -31 -26 -38 -42 -10 -23 -27 -36
-62 -50 -87 -35 -93 -55 -34 -114 22 -21 40 -47 40 -58 0 -24 17 -51 26 -41 4
3 0 21 -9 39 -9 18 -14 35 -11 39 2 3 -8 19 -22 34 -36 39 -29 67 21 83 45 14
65 35 65 69 0 16 7 24 28 29 53 13 62 22 51 50 -11 32 7 50 61 60 59 11 73 22
67 54 -5 24 -3 28 22 33 24 5 28 10 24 31 -3 13 -11 27 -19 30 -8 3 -13 1 -11
-3z m-23 -100 c0 -12 -9 -20 -24 -23 -24 -5 -24 -4 -9 19 18 28 33 30 33 4z
m-597 -419 c-15 -11 -19 -11 -21 3 -2 9 -1 24 3 33 6 15 8 15 21 -3 13 -18 13
-21 -3 -33z m55 -68 c4 -75 -16 -62 -25 16 -5 43 -3 52 8 48 9 -3 15 -24 17
-64z m-60 -90 c0 -25 4 -69 7 -97 7 -47 6 -50 -9 -38 -9 7 -16 25 -17 40 l-1
26 -7 -25 c-5 -18 -14 -25 -31 -25 -29 0 -31 13 -12 70 10 31 46 79 69 94 1 1
1 -20 1 -45z"/>
<path d="M1753 2057 c-21 -42 -42 -136 -24 -107 5 8 12 31 16 50 4 19 14 48
22 63 8 16 13 31 10 33 -2 2 -13 -15 -24 -39z"/>
<path d="M1890 2090 c-8 -6 -31 -10 -51 -10 -23 0 -39 -6 -42 -14 -4 -9 -1
-13 6 -11 7 2 27 6 45 9 l34 6 -26 -31 c-35 -41 -33 -54 2 -21 45 42 68 95 32
72z"/>
<path d="M853 2075 c-13 -9 -23 -20 -23 -25 0 -12 91 -71 100 -65 5 3 6 -32 3
-77 -5 -69 -3 -81 8 -70 8 7 12 29 10 55 -3 60 13 72 65 48 87 -41 136 -60
226 -86 52 -16 58 -21 69 -54 15 -49 34 -66 26 -25 -5 28 -4 31 12 27 26 -7
63 -49 95 -106 l26 -48 -20 -38 c-10 -22 -26 -45 -33 -53 -8 -7 -18 -27 -24
-43 -6 -17 -16 -29 -22 -27 -6 1 -11 -4 -11 -10 0 -7 -7 -25 -14 -40 -28 -52
-5 -28 43 47 26 41 50 72 54 69 10 -10 27 34 20 52 -4 10 -2 15 3 11 5 -3 17
15 26 39 13 36 13 42 2 33 -8 -7 -16 -10 -17 -8 -14 20 -37 59 -37 64 0 4 6 3
13 -1 7 -4 9 -3 4 2 -5 5 -14 9 -20 9 -7 1 -10 7 -9 15 2 8 0 12 -4 8 -4 -5
-22 3 -40 17 -37 28 -171 95 -191 95 -20 0 -133 40 -184 66 -41 21 -99 75
-124 118 -9 15 -12 15 -32 1z"/>
<path d="M1145 2060 c-4 -6 -12 -7 -18 -4 -7 4 10 -16 37 -44 44 -46 55 -52
115 -62 36 -7 80 -10 96 -9 l30 4 -39 40 c-31 32 -35 34 -21 12 9 -16 14 -31
12 -34 -8 -8 -120 17 -143 32 -12 8 -24 27 -27 44 -6 30 -29 42 -42 21z"/>
<path d="M1700 2031 c-5 -11 -9 -41 -9 -68 l1 -48 8 50 c4 28 11 58 15 68 10
23 -2 22 -15 -2z"/>
<path d="M2172 2016 c-13 -28 -6 -59 12 -53 14 5 20 42 8 62 -7 13 -10 12 -20
-9z"/>
<path d="M600 1983 c0 -5 18 -20 39 -35 37 -26 39 -30 45 -100 6 -60 13 -80
37 -110 16 -20 29 -41 29 -47 0 -6 -20 -33 -45 -60 -42 -49 -44 -52 -38 -100
5 -44 2 -55 -32 -111 -20 -33 -35 -63 -32 -66 2 -3 21 14 41 37 38 45 52 90
43 144 -4 27 -1 38 21 58 47 43 82 85 82 97 0 6 -19 30 -41 52 l-41 41 6 78 7
78 -50 26 c-52 26 -71 31 -71 18z"/>
<path d="M2127 1966 c-9 -7 -35 -16 -57 -20 -42 -7 -46 -11 -30 -36 13 -21
-24 -58 -66 -66 -27 -5 -33 -11 -39 -41 -4 -22 -2 -40 5 -47 6 -6 10 -7 9 -1
-4 19 33 82 43 73 9 -8 50 34 63 65 8 20 21 38 28 39 6 0 18 2 26 2 7 1 20 11
29 24 17 25 14 27 -11 8z"/>
<path d="M2432 1947 c15 -12 29 -35 31 -52 3 -26 4 -24 6 9 1 40 -18 65 -49
66 -10 0 -5 -8 12 -23z"/>
<path d="M1165 1940 c22 -11 33 -20 25 -20 -8 -1 8 -10 35 -20 59 -23 70 -25
35 -5 -23 13 -23 14 -4 15 11 0 25 -5 31 -11 7 -7 17 -8 29 -1 15 8 12 11 -17
20 -19 6 -56 16 -84 22 -27 6 -59 13 -70 15 -11 3 -2 -4 20 -15z"/>
<path d="M2390 1906 c0 -29 17 -43 33 -27 8 8 9 16 1 28 -17 27 -34 27 -34 -1z"/>
<path d="M742 1875 c-7 -14 -12 -36 -11 -48 0 -21 1 -21 12 3 6 14 14 27 18
30 8 7 7 40 -1 40 -4 0 -12 -11 -18 -25z"/>
<path d="M888 1875 c-4 -16 -10 -41 -14 -55 -6 -23 -5 -24 10 -9 12 11 16 28
14 55 -3 39 -3 39 -10 9z"/>
<path d="M1366 1879 c18 -20 39 -25 48 -11 3 5 -11 14 -30 20 -35 10 -36 10
-18 -9z"/>
<path d="M2215 1835 c4 -22 11 -42 16 -43 5 -2 7 -7 5 -11 -3 -4 22 -1 55 7
44 11 57 18 49 26 -18 18 -64 13 -83 -9 -12 -14 -17 -16 -15 -5 1 8 -6 29 -15
45 l-18 30 6 -40z"/>
<path d="M2184 1816 c-8 -18 -8 -30 2 -47 16 -31 26 -8 16 38 -7 32 -7 32 -18
9z"/>
<path d="M1263 1814 c-3 -8 -1 -25 5 -37 10 -20 11 -18 11 16 1 39 -5 48 -16
21z"/>
<path d="M784 1757 c15 -19 26 -42 26 -51 0 -9 4 -15 9 -12 13 9 1 47 -22 74
-32 34 -41 26 -13 -11z"/>
<path d="M1306 1716 c6 -57 5 -59 -32 -97 -43 -44 -42 -52 2 -14 36 31 42 31
54 0 16 -42 17 -28 2 53 -18 101 -34 137 -26 58z"/>
<path d="M1936 1721 c-42 -43 -48 -53 -42 -78 7 -24 9 -26 17 -10 6 10 9 25 7
34 -2 10 14 33 37 54 22 21 37 40 34 43 -3 3 -27 -16 -53 -43z"/>
<path d="M1367 1735 c-2 -14 0 -28 4 -31 5 -3 8 -24 8 -47 -2 -50 9 -90 22
-82 5 4 9 19 9 35 0 16 5 32 10 35 6 3 10 14 9 23 0 11 -3 12 -6 5 -8 -22 -23
-14 -23 12 0 14 -4 25 -9 25 -5 0 -7 8 -4 19 3 10 0 21 -5 25 -5 3 -12 -6 -15
-19z"/>
<path d="M2008 1750 c-8 -24 6 -103 20 -108 15 -5 15 -2 -2 68 -7 30 -15 48
-18 40z"/>
<path d="M1853 1743 c-17 -6 -16 -28 1 -42 12 -10 19 -8 36 9 30 30 7 51 -37
33z"/>
<path d="M2226 1727 c-27 -22 -29 -27 -23 -74 5 -42 3 -53 -11 -59 -9 -4 -21
-6 -25 -5 -4 1 -7 -4 -6 -11 4 -32 -1 -42 -13 -30 -20 20 -29 13 -26 -22 1
-19 -4 -41 -11 -49 -6 -8 -14 -28 -17 -43 -4 -24 -3 -26 11 -14 9 8 14 22 12
31 -7 25 21 48 34 28 6 -10 9 -2 9 25 0 31 7 46 38 76 29 29 34 40 25 49 -19
17 -16 49 6 60 10 6 21 22 23 36 3 14 5 25 4 25 0 0 -14 -11 -30 -23z"/>
<path d="M940 1720 c-6 -11 -21 -20 -33 -21 -21 0 -21 -1 2 -10 34 -13 51 -5
44 21 -6 22 -5 22 26 6 28 -15 36 -11 29 11 -2 4 -15 9 -30 11 -19 2 -30 -3
-38 -18z"/>
<path d="M1029 1680 c-4 -51 -5 -53 -16 -29 -13 29 -41 45 -55 31 -5 -5 -2
-14 7 -22 8 -7 15 -20 16 -29 0 -12 2 -11 9 4 6 16 9 17 14 5 3 -8 17 -44 30
-80 l25 -65 0 80 c0 44 -6 98 -13 120 l-13 40 -4 -55z"/>
<path d="M2106 1674 c-4 -27 -10 -60 -13 -73 -5 -22 -4 -23 23 -17 38 10 41
13 47 69 4 40 2 46 -9 36 -16 -13 -16 -13 -31 15 -9 16 -12 11 -17 -30z"/>
<path d="M1968 1699 c-20 -11 -53 -115 -74 -232 -17 -100 -18 -149 -2 -165 7
-7 9 -12 5 -12 -4 0 2 -22 12 -50 16 -42 17 -50 4 -50 -8 0 -12 -3 -10 -7 3
-5 1 -17 -3 -28 -5 -14 1 -30 20 -55 15 -19 30 -48 34 -64 14 -59 100 -250
135 -302 58 -85 173 -215 263 -296 88 -80 245 -188 303 -209 64 -23 43 -31
-117 -43 -57 -4 -233 -45 -226 -51 8 -7 247 9 242 16 -3 5 12 10 33 11 43 1
48 2 85 12 31 9 31 32 0 91 l-22 40 0 -34 c0 -29 -2 -32 -15 -21 -9 7 -13 21
-10 31 5 14 2 17 -9 13 -15 -6 -56 15 -82 40 -6 6 -10 38 -8 71 2 58 2 59 -5
12 -4 -26 -15 -55 -24 -64 -20 -20 -22 -9 -6 36 12 35 -2 88 -21 76 -6 -4 -5
-13 2 -24 15 -25 4 -52 -19 -45 -21 7 -243 233 -243 247 0 5 7 4 15 -3 23 -19
18 -1 -7 29 -13 14 -30 25 -40 23 -10 -2 -31 19 -61 60 -60 86 -88 146 -131
285 -8 23 -23 55 -35 72 -20 27 -21 35 -10 64 10 29 9 43 -10 102 -22 68 -27
171 -9 207 5 10 3 18 -5 21 -9 4 -9 6 1 6 6 1 12 9 12 19 0 9 7 30 15 46 8 15
12 32 9 37 -3 5 0 9 5 9 6 0 11 -3 12 -7 3 -56 16 -104 35 -141 13 -25 24 -51
24 -58 0 -13 69 -164 80 -174 12 -12 59 -251 63 -320 1 -19 6 -38 11 -42 6 -4
5 -12 -3 -21 -10 -12 -7 -20 11 -40 14 -15 23 -37 23 -53 -4 -70 86 -169 154
-169 39 0 141 41 141 57 0 4 5 8 11 8 19 0 104 77 135 122 16 24 45 66 65 93
20 28 34 55 32 62 -3 7 5 22 16 34 44 47 51 140 14 170 -15 12 -16 12 -8 -6 5
-11 10 -39 13 -61 3 -36 -1 -47 -27 -75 -21 -24 -31 -29 -31 -18 0 9 7 22 15
29 21 17 30 77 15 95 -20 25 -25 18 -26 -40 0 -30 -4 -58 -8 -62 -11 -11 -54
46 -68 90 -7 23 -16 36 -24 33 -16 -6 -27 36 -11 46 8 5 9 8 1 8 -17 0 -27 31
-14 44 5 5 10 16 10 24 0 12 -4 12 -24 -2 -24 -15 -26 -14 -53 22 -16 20 -37
57 -48 82 -10 25 -24 52 -31 60 -6 8 -15 25 -19 38 -4 13 -9 22 -11 19 -3 -2
10 -41 27 -86 36 -95 135 -263 220 -373 32 -42 59 -80 59 -85 0 -5 -11 -20
-25 -33 -27 -26 -35 -17 -9 11 9 10 13 23 9 29 -9 15 -69 40 -92 39 -12 -1
-10 -3 6 -8 35 -10 37 -29 4 -37 -15 -4 -30 -11 -33 -15 -3 -5 -16 -10 -28
-12 -12 -2 -25 -7 -29 -12 -5 -4 -2 -5 5 -1 6 4 12 5 12 2 0 -12 -43 -28 -49
-18 -4 6 -17 -6 -31 -26 -13 -20 -48 -67 -77 -103 -32 -40 -53 -76 -52 -90 0
-23 1 -23 12 -5 78 125 205 237 283 252 19 3 34 10 34 15 0 5 8 9 18 9 10 0
13 -3 6 -8 -5 -4 -27 -35 -47 -69 -38 -63 -127 -152 -177 -178 -16 -8 -51 -24
-79 -35 l-51 -20 -38 35 c-37 33 -39 39 -90 247 -28 117 -58 245 -67 283 -8
39 -35 108 -59 155 -24 47 -46 100 -50 119 -3 19 -13 42 -21 52 -10 10 -20 53
-26 110 -6 52 -11 95 -12 96 -1 1 -10 -3 -19 -8z"/>
<path d="M2270 1703 c0 -16 20 -38 32 -38 7 0 24 -20 37 -45 23 -45 23 -45 17
-10 -8 43 -87 128 -86 93z"/>
<path d="M2071 1683 c-5 -10 -16 -44 -26 -75 -15 -52 -15 -59 0 -88 16 -31 34
-32 36 -2 1 11 4 8 9 -8 8 -24 8 -24 9 -2 1 12 -7 34 -16 48 -14 22 -15 35 -7
85 11 63 10 69 -5 42z"/>
<path d="M2236 1671 c-7 -11 3 -41 13 -41 18 0 30 24 20 37 -13 15 -26 17 -33
4z"/>
<path d="M1088 1664 c-5 -4 -8 -30 -8 -58 0 -35 3 -47 11 -39 5 5 9 32 7 58
-2 26 -6 43 -10 39z"/>
<path d="M1743 1639 c-29 -48 -34 -70 -24 -104 l9 -30 1 27 c1 14 10 48 21 74
26 59 21 79 -7 33z"/>
<path d="M2285 1635 c-17 -13 -17 -14 -2 -9 13 5 20 1 24 -15 6 -23 23 -29 23
-8 0 7 -6 21 -13 30 -11 16 -14 16 -32 2z"/>
<path d="M1640 1616 c0 -2 11 -28 25 -58 14 -29 25 -61 25 -70 0 -10 4 -18 9
-18 15 0 4 64 -19 108 -12 23 -26 42 -31 42 -5 0 -9 -2 -9 -4z"/>
<path d="M876 1586 c2 -6 19 -11 37 -12 17 0 40 -4 50 -8 13 -6 16 -5 11 8 -3
9 -10 13 -15 10 -5 -3 -15 -2 -21 3 -20 12 -67 12 -62 -1z"/>
<path d="M1130 1567 c0 -15 39 -54 47 -49 3 2 8 0 11 -4 4 -4 1 -4 -5 0 -19
11 -15 -5 7 -34 11 -14 20 -20 20 -13 0 6 -5 15 -11 18 -6 4 -8 14 -4 23 3 9
-5 27 -22 44 -29 31 -43 35 -43 15z"/>
<path d="M2285 1550 c-22 -16 -56 -41 -77 -54 -20 -14 -40 -31 -44 -38 -5 -7
3 -5 16 5 14 10 40 25 59 33 19 9 40 22 48 30 18 18 30 18 41 -1 5 -11 8 -5 8
20 0 19 -2 35 -5 35 -4 -1 -24 -14 -46 -30z"/>
<path d="M700 1546 c0 -8 15 -16 34 -19 53 -9 114 -52 131 -95 24 -57 58 -102
78 -102 26 0 21 12 -28 78 -25 33 -45 64 -45 69 0 11 -135 83 -156 83 -8 0
-14 -6 -14 -14z"/>
<path d="M917 1514 c19 -24 38 -44 40 -44 3 0 1 6 -4 13 -6 6 -13 24 -17 38
-4 18 -14 28 -30 31 -24 5 -24 3 11 -38z"/>
<path d="M1090 1520 c-13 -25 -29 -49 -37 -55 -10 -7 -11 -18 -4 -41 9 -31 6
-35 -61 -95 -61 -56 -69 -67 -64 -91 3 -16 2 -28 -2 -28 -18 0 -45 -69 -78
-197 -19 -76 -45 -172 -58 -213 -14 -41 -32 -100 -40 -130 -9 -30 -26 -68 -40
-85 -21 -26 -31 -30 -74 -30 -62 0 -89 23 -178 152 -32 47 -74 103 -92 124
l-33 38 51 108 c29 59 63 122 76 140 13 17 24 34 24 37 0 3 14 28 30 56 17 28
30 56 30 63 0 11 -46 -58 -83 -123 -48 -86 -61 -107 -76 -125 -9 -11 -25 -37
-35 -57 -11 -21 -26 -38 -34 -38 -9 0 -12 -3 -9 -6 3 -4 2 -15 -3 -25 -11 -19
-12 -17 138 -220 108 -146 162 -175 249 -131 36 19 83 84 83 116 0 14 45 102
63 124 8 10 7 16 -3 22 -29 18 44 296 97 366 13 17 23 41 23 53 0 13 21 41 56
74 47 44 57 60 65 102 9 51 39 92 57 81 16 -10 35 -103 28 -139 -3 -18 -18
-54 -32 -82 -24 -43 -25 -53 -15 -81 20 -55 -12 -162 -82 -276 -10 -14 -14
-13 -39 14 -15 17 -28 26 -28 20 0 -5 7 -15 15 -22 20 -16 19 -60 -1 -88 -8
-12 -14 -34 -12 -49 2 -14 -2 -28 -8 -30 -20 -7 -25 27 -9 57 20 38 20 96 0
104 -16 6 -21 -9 -6 -18 5 -4 5 -22 -1 -43 -5 -21 -13 -63 -17 -93 -8 -64 -11
-71 -85 -170 -98 -132 -127 -165 -181 -205 -22 -17 -53 -42 -70 -57 -16 -16
-34 -28 -38 -28 -5 0 -28 -13 -52 -30 -42 -29 -44 -29 -79 -15 -59 25 -88 19
-67 -13 6 -11 10 -10 15 3 5 14 9 15 21 5 26 -22 16 -31 -27 -28 -38 3 -43 6
-41 26 2 13 -1 21 -7 17 -27 -17 -2 -64 34 -66 13 -1 6 -6 -19 -15 l-40 -14
56 4 c68 5 141 40 260 125 141 101 346 357 377 473 6 21 24 52 41 68 38 38
121 202 121 239 0 15 3 31 7 35 13 13 11 51 -4 75 -14 21 -13 26 6 52 12 16
24 43 28 59 4 22 10 29 20 26 10 -4 13 -1 9 12 -38 133 -50 166 -65 181 -10
10 -21 25 -23 32 -3 8 -14 -5 -28 -31z"/>
<path d="M863 1509 c20 -13 37 -27 37 -32 0 -4 -5 -5 -12 -1 -7 4 -8 3 -4 -5
4 -6 12 -9 17 -6 5 4 9 1 9 -6 0 -7 6 -20 14 -28 8 -9 22 -30 30 -46 16 -30
16 -30 16 -5 0 28 -70 132 -91 136 -8 1 -23 5 -34 9 -11 4 -3 -4 18 -16z"/>
<path d="M1201 1445 c0 -5 6 -21 14 -35 8 -14 14 -46 15 -72 0 -26 5 -50 10
-53 6 -3 10 -2 10 4 0 6 11 13 25 17 24 6 56 58 54 88 0 6 -4 1 -9 -12 -5 -12
-18 -25 -27 -29 -10 -4 -26 -16 -35 -28 -17 -19 -17 -18 -18 43 0 47 -3 62
-14 62 -8 0 -17 6 -19 13 -3 6 -6 8 -6 2z"/>
<path d="M797 1403 c3 -10 14 -27 23 -38 20 -23 13 -54 -17 -76 -20 -15 -58
-120 -50 -141 2 -7 9 5 16 28 11 41 31 66 63 77 22 8 35 56 18 67 -9 5 -9 9
-1 14 20 12 31 -4 31 -45 0 -34 -4 -41 -27 -50 -43 -16 -61 -37 -68 -79 -8
-45 -36 -75 -65 -67 -13 3 -18 1 -13 -6 4 -7 0 -8 -11 -4 -11 4 -15 3 -11 -4
4 -6 -2 -13 -14 -16 -12 -3 -21 -9 -21 -14 0 -20 -64 -79 -98 -90 -48 -15
-115 -49 -109 -55 2 -2 42 12 88 31 61 26 91 45 109 69 14 19 50 47 80 63 65
33 75 45 89 101 8 31 16 42 30 42 15 0 18 -5 14 -22 -4 -22 -4 -22 11 2 24 39
36 70 36 90 0 10 4 20 10 22 5 2 -19 29 -55 61 -36 32 -62 50 -58 40z"/>
<path d="M2158 1393 c-37 -43 -39 -59 -13 -110 27 -54 39 -104 51 -208 5 -40
10 -58 12 -42 3 28 17 36 25 15 6 -19 0 27 -13 104 -7 37 -16 66 -20 63 -5 -3
-6 4 -3 15 3 11 1 20 -4 20 -27 0 -42 86 -23 134 11 31 9 32 -12 9z"/>
<path d="M720 1370 c16 -10 17 -10 -26 -14 -15 -2 -44 -26 -44 -38 0 -5 4 -7
10 -3 11 7 28 -52 35 -121 4 -43 4 -45 -5 -19 -6 17 -12 38 -13 48 -2 9 -8 22
-14 28 -7 7 -6 -11 3 -48 l14 -58 -29 -25 c-32 -28 -45 -52 -55 -95 -5 -24 -1
-21 19 17 26 50 71 88 103 88 18 0 19 5 15 43 -3 23 -14 64 -24 92 -12 30 -15
53 -9 59 5 5 32 9 59 10 58 1 64 9 21 31 -33 17 -86 22 -60 5z"/>
<path d="M1832 1338 c6 -18 15 -36 20 -39 12 -8 -12 -26 -40 -31 -22 -3 -22
-3 -3 -15 16 -10 23 -9 41 7 21 18 21 21 8 61 -8 24 -19 44 -26 47 -9 3 -9 -5
0 -30z"/>
<path d="M727 1298 c4 -7 6 -26 6 -43 l-2 -30 9 31 c7 22 19 34 42 42 33 10
33 10 -15 11 -36 1 -46 -2 -40 -11z"/>
<path d="M1590 1299 c12 -9 11 -10 -8 -6 -12 3 -20 2 -17 -2 5 -9 -39 -31 -62
-31 -11 0 -13 -3 -5 -12 8 -10 -15 -13 -111 -14 -87 0 -134 -5 -164 -17 -24
-9 -43 -13 -43 -8 0 13 48 49 72 54 22 4 22 4 -2 6 -15 0 -31 6 -38 13 -9 9
-12 9 -12 0 0 -7 -10 -26 -21 -42 -21 -28 -21 -30 -5 -54 19 -30 24 -31 52
-12 11 8 33 16 50 19 22 3 20 4 -8 3 -26 -1 -34 2 -27 9 16 16 280 15 297 -1
7 -8 10 -18 7 -24 -3 -5 -3 -11 2 -11 33 -5 71 -4 88 2 18 7 18 8 -5 8 -33 1
-90 37 -90 56 0 12 9 9 40 -11 l41 -27 26 19 c15 11 28 24 30 30 3 9 -77 64
-93 64 -5 0 -2 -5 6 -11z m44 -35 c21 -8 21 -34 0 -34 -8 0 -12 -4 -9 -10 10
-16 -11 -12 -25 5 -13 16 -7 45 9 45 5 0 16 -3 25 -6z"/>
<path d="M2475 1250 c-6 -9 -4 -11 5 -5 10 6 12 3 7 -15 -4 -16 1 -29 20 -46
35 -32 48 -30 27 4 -34 58 -51 76 -59 62z"/>
<path d="M2640 1210 c-9 -17 -8 -20 10 -20 13 0 20 7 20 20 0 11 -4 20 -10 20
-5 0 -14 -9 -20 -20z"/>
<path d="M613 1203 c-7 -12 -14 -30 -16 -40 -1 -10 -6 -24 -10 -30 -5 -7 -6
-13 -3 -13 3 0 1 -11 -4 -25 -6 -16 -6 -25 0 -25 6 0 10 6 10 13 0 7 9 23 21
35 15 17 19 33 17 65 -3 39 -4 40 -15 20z"/>
<path d="M1821 1203 c14 -24 26 -28 46 -15 7 4 9 13 4 21 -6 10 -10 9 -15 -5
-6 -16 -8 -15 -28 2 -21 19 -21 19 -7 -3z"/>
<path d="M2400 1200 c-6 -11 -19 -20 -30 -20 -11 0 -25 -10 -31 -22 -10 -19
-8 -25 22 -49 33 -27 34 -28 20 -61 -9 -20 -15 -72 -17 -129 -2 -118 -12 -207
-25 -214 -12 -8 -12 -25 1 -25 5 0 12 17 16 37 5 28 24 54 76 106 38 38 67 72
63 75 -3 3 -17 -7 -31 -23 -14 -17 -23 -22 -20 -13 3 12 1 15 -10 11 -7 -3
-14 -8 -14 -12 0 -3 -12 -24 -25 -46 l-26 -40 7 45 c4 25 9 79 10 120 1 41 5
90 9 108 5 21 3 37 -5 47 -17 20 -1 19 24 -2 12 -10 4 1 -17 23 l-38 41 28 19
c15 10 29 25 31 32 3 18 -6 14 -18 -8z"/>
<path d="M1363 1204 c3 -3 24 -8 46 -10 23 -2 52 -11 66 -20 22 -15 25 -15 25
-1 0 10 -15 20 -37 26 -41 12 -110 15 -100 5z"/>
<path d="M2312 1185 c-17 -36 -15 -60 6 -76 15 -13 16 -12 4 3 -22 28 1 86 36
91 26 4 26 4 -4 6 -24 1 -33 -5 -42 -24z"/>
<path d="M1664 1145 c-3 -8 -4 -20 -1 -27 4 -8 6 -6 6 5 1 19 3 19 84 18 71
-1 121 -24 112 -51 -4 -14 2 -23 24 -34 17 -9 35 -16 41 -16 18 0 -52 91 -82
106 -38 20 -177 19 -184 -1z"/>
<path d="M2251 1118 c-1 -20 4 -40 9 -43 12 -7 12 32 0 60 -7 16 -9 13 -9 -17z"/>
<path d="M1804 1115 c3 -11 8 -32 12 -47 3 -16 10 -28 15 -28 5 0 15 -21 23
-47 15 -51 17 -50 20 9 2 30 -3 41 -26 58 -16 12 -26 25 -24 29 3 4 -1 17 -10
27 -15 19 -15 19 -10 -1z"/>
<path d="M2565 1076 c33 -31 51 -54 40 -51 -11 4 -5 -3 13 -15 18 -13 35 -20
39 -17 14 15 -87 120 -127 132 -19 6 -11 -6 35 -49z"/>
<path d="M1210 1111 c-24 -5 -34 -11 -31 -21 2 -8 6 -50 9 -92 3 -59 9 -81 23
-94 11 -10 21 -15 22 -13 5 6 48 169 54 199 2 14 -9 -6 -24 -44 -36 -90 -59
-101 -50 -25 5 41 13 59 32 77 27 23 24 24 -35 13z"/>
<path d="M1360 1089 c0 -12 -23 -93 -50 -180 -56 -176 -55 -172 -42 -177 6 -2
20 30 32 70 12 40 32 109 46 154 13 44 24 88 24 97 0 9 6 17 13 17 8 0 7 4 -3
10 -13 8 -13 10 2 10 9 0 20 5 23 10 4 6 -5 10 -19 10 -20 0 -26 -5 -26 -21z"/>
<path d="M1485 1100 c-54 -5 -61 -7 -30 -9 40 -3 53 -5 68 -11 4 -1 13 -3 20
-4 14 -1 16 -34 4 -96 -25 -133 -34 -404 -17 -500 15 -83 74 -222 102 -239 23
-15 23 -15 6 5 -10 11 -18 30 -18 41 0 29 -20 83 -31 83 -17 0 -37 63 -40 130
-8 129 0 327 16 445 22 158 22 159 5 161 -8 0 -46 -2 -85 -6z"/>
<path d="M1656 1040 c-16 -141 -36 -402 -36 -462 0 -41 -4 -68 -11 -68 -5 0
-7 -4 -4 -10 3 -6 11 -10 16 -10 6 0 7 4 4 10 -10 16 4 12 89 -20 43 -17 82
-28 87 -24 18 10 9 48 -18 76 -24 26 -26 32 -16 58 15 39 -1 39 -17 0 -10 -25
-9 -33 9 -59 37 -52 22 -63 -50 -38 -69 24 -72 31 -64 127 4 47 9 114 10 150
4 100 16 262 21 288 7 36 64 23 64 -16 0 -22 131 -303 168 -359 18 -29 39 -74
47 -101 15 -58 36 -92 75 -122 20 -16 30 -32 30 -50 0 -26 25 -65 77 -124 7
-8 9 -16 6 -20 -4 -3 -1 -6 6 -6 8 0 7 -9 -4 -30 -17 -33 -78 -76 -122 -85
-27 -6 -27 -6 -9 9 25 20 18 20 -27 1 -23 -9 -38 -11 -42 -5 -3 6 0 10 7 10 7
0 33 14 58 30 25 16 41 30 37 30 -12 0 -125 -59 -131 -69 -16 -26 72 -48 129
-32 56 15 103 52 120 94 13 33 13 41 -1 75 -8 22 -28 49 -44 61 -24 17 -30 29
-30 57 0 30 -8 43 -49 80 -36 33 -54 59 -67 97 -9 29 -26 65 -37 81 -17 24
-18 28 -5 23 12 -4 22 5 35 32 l19 38 22 -34 c43 -65 92 -163 82 -163 -5 0
-10 4 -10 9 0 5 -9 12 -20 16 -11 3 -19 9 -19 13 3 18 -2 32 -11 32 -14 0 7
-51 33 -78 12 -13 21 -24 19 -25 -3 -2 1 -13 21 -67 3 -9 6 -6 6 9 1 14 -6 33
-16 43 -9 10 -11 18 -6 18 24 0 38 -36 38 -99 0 -48 4 -65 12 -64 7 2 12 -2
10 -8 -4 -19 153 -98 208 -103 76 -8 216 -13 211 -8 -3 2 -28 15 -57 28 -39
18 -50 21 -45 9 7 -19 -24 -20 -43 -3 -11 10 -13 10 -7 1 18 -32 -154 11 -181
45 -10 12 -13 12 -13 3 0 -11 -3 -11 -15 -1 -8 7 -15 18 -15 25 0 7 -11 21
-25 31 -14 10 -25 25 -25 33 0 11 3 11 14 2 12 -10 14 -7 11 19 -5 38 -70 209
-99 262 -24 42 -174 212 -162 183 5 -11 8 -33 8 -50 0 -28 0 -28 7 -5 l7 24
23 -33 c21 -30 23 -37 12 -72 -21 -69 -41 -53 -106 82 -32 67 -70 153 -85 192
l-27 72 -41 0 -40 0 -6 -55z"/>
<path d="M2331 1046 c-13 -14 -27 -40 -31 -58 l-7 -33 -16 50 -17 50 6 -50 c9
-90 14 -113 28 -124 24 -20 39 13 32 69 -6 42 -3 55 15 80 28 37 20 48 -10 16z"/>
<path d="M565 1041 c-3 -11 -8 -30 -10 -43 -4 -22 -4 -22 10 -4 8 11 15 30 15
43 0 28 -7 30 -15 4z"/>
<path d="M1137 972 c-18 -59 -22 -82 -32 -167 -5 -50 -5 -50 10 -21 9 16 14
35 11 42 -8 21 17 74 35 74 22 0 36 -19 41 -55 l4 -30 11 25 c9 22 7 28 -20
51 -27 22 -32 35 -37 82 l-5 56 -18 -57z"/>
<path d="M1880 1020 c0 -6 9 -18 20 -27 11 -10 20 -23 20 -30 0 -7 5 -13 10
-13 6 0 10 -9 10 -20 0 -14 -5 -18 -17 -13 -10 3 9 -22 42 -56 33 -33 60 -61
62 -61 3 0 -69 154 -85 180 -25 41 -62 65 -62 40z"/>
<path d="M2226 994 c-8 -21 4 -95 15 -88 12 7 12 91 0 98 -5 3 -12 -1 -15 -10z"/>
<path d="M766 958 c-15 -15 -32 -25 -38 -22 -5 3 -24 -6 -43 -21 -19 -14 -47
-31 -63 -38 -24 -10 -27 -16 -21 -37 7 -24 7 -24 8 -2 1 12 7 22 14 22 7 0 32
16 56 36 23 20 44 34 47 31 3 -3 -8 -23 -24 -46 -33 -46 -62 -155 -44 -173 7
-7 12 4 17 38 6 56 41 133 67 152 10 7 16 18 13 23 -4 5 -2 9 3 9 9 0 47 50
40 54 -2 1 -16 -11 -32 -26z"/>
<path d="M630 941 c-36 -10 -72 -20 -80 -23 -8 -3 -31 -11 -50 -17 l-35 -11
42 4 c38 4 42 2 48 -23 l7 -26 12 30 c10 24 26 35 82 57 78 30 69 34 -26 9z"/>
<path d="M1059 856 l-36 -51 2 -104 c2 -104 1 -105 -28 -134 -21 -20 -32 -26
-40 -18 -19 19 -27 12 -25 -18 l2 -29 46 31 c51 35 61 46 58 67 -2 8 0 20 4
26 13 20 21 114 10 114 -6 0 -10 9 -9 20 1 10 3 17 6 15 2 -3 10 3 17 13 11
14 14 14 15 2 1 -8 5 14 9 50 4 36 7 66 6 66 0 1 -17 -21 -37 -50z"/>
<path d="M350 875 c0 -9 8 -18 18 -22 124 -42 218 -117 263 -211 41 -84 38
-81 55 -58 16 22 19 50 5 41 -6 -3 -6 7 0 27 5 18 9 35 9 38 0 3 5 -2 10 -10
9 -13 11 -13 20 0 13 21 13 26 -6 45 -16 15 -15 19 5 46 12 16 19 35 15 41 -5
7 -3 8 6 3 9 -5 10 -2 5 14 -4 12 -2 21 4 21 6 0 11 8 11 17 0 35 -64 -70 -71
-116 -4 -25 -14 -63 -22 -85 l-14 -38 -7 28 c-4 15 -16 40 -27 55 -20 29 -25
44 -10 35 5 -3 15 21 24 55 18 73 -1 78 -21 5 l-14 -48 -31 30 c-70 66 -227
126 -227 87z"/>
<path d="M2260 825 c11 -32 20 -68 21 -79 0 -12 3 -15 6 -8 8 20 33 -6 26 -26
-6 -15 -5 -15 10 -3 25 20 21 41 -15 78 -18 18 -29 33 -26 33 4 0 14 -7 22
-16 9 -8 16 -12 16 -7 -1 10 -19 32 -53 62 l-27 25 20 -59z"/>
<path d="M1185 796 c-5 -6 -11 -17 -13 -24 -3 -18 -52 -91 -84 -126 -35 -38
-37 -58 -2 -25 29 27 116 167 112 179 -2 4 -7 3 -13 -4z"/>
<path d="M1578 788 c7 -9 17 -29 22 -45 8 -27 8 -26 9 11 1 22 -2 36 -6 33 -3
-4 -13 -1 -22 6 -14 10 -14 10 -3 -5z"/>
<path d="M1210 651 c-27 -65 -42 -86 -82 -116 -48 -37 -75 -66 -47 -50 8 4 -2
-6 -21 -24 -75 -66 -189 -103 -262 -83 -26 6 -16 28 12 24 19 -2 21 0 10 13
-11 13 -8 15 21 16 24 0 29 2 16 8 -15 5 -10 10 24 25 30 13 38 21 28 27 -11
7 -12 12 -1 29 6 11 12 26 12 34 0 8 6 17 13 19 6 3 8 6 2 6 -5 1 -24 -8 -41
-18 -23 -14 -33 -29 -37 -56 -7 -40 -20 -54 -85 -86 -53 -26 -44 -44 29 -54
27 -4 49 -11 49 -15 0 -5 -14 -21 -32 -37 -17 -15 -44 -40 -59 -55 -25 -26
-107 -68 -132 -68 -7 0 7 10 31 21 28 14 39 24 31 29 -8 6 -4 12 12 21 13 6
30 18 37 26 8 7 19 10 25 6 7 -3 9 -3 5 2 -4 4 0 14 10 22 32 25 -36 -5 -81
-36 -65 -44 -144 -81 -161 -75 -8 3 -32 -6 -53 -20 -21 -14 -46 -26 -56 -26
-28 0 -11 -17 23 -24 81 -16 400 108 500 194 37 32 19 26 -50 -18 -19 -12 -45
-22 -58 -22 l-23 0 22 29 c15 21 33 31 63 35 23 4 65 18 95 31 29 14 55 25 58
25 3 0 3 -13 0 -29 -5 -26 -4 -28 16 -24 16 4 7 -10 -35 -53 -84 -86 -77 -124
23 -125 68 -1 106 14 120 45 18 39 3 70 -56 115 -34 26 -55 49 -55 61 0 11 4
20 8 20 5 0 15 17 22 39 7 21 23 52 37 67 l24 29 -17 -35 -17 -35 21 19 c21
18 77 128 88 172 3 13 10 22 14 19 5 -3 6 4 3 15 -3 11 -6 20 -7 20 -1 0 -17
-36 -36 -79z m-68 -369 c48 -47 34 -74 -45 -86 -27 -4 -36 -3 -31 5 4 8 1 8
-13 1 -25 -14 -46 -1 -37 24 14 38 52 80 75 81 14 1 35 -9 51 -25z m-582 -97
c0 -2 -18 -14 -40 -25 -48 -25 -53 -18 -7 10 32 20 47 25 47 15z"/>
<path d="M953 667 c-31 -51 -31 -52 -12 -70 10 -10 19 -23 20 -30 1 -7 4 -1 8
13 4 14 4 30 0 36 -5 6 -2 19 6 30 10 14 14 15 15 5 0 -9 3 -11 9 -5 10 10 3
74 -8 74 -3 0 -20 -24 -38 -53z"/>
<path d="M2125 625 c9 -22 19 -45 21 -51 5 -10 47 -34 60 -34 5 0 -25 39 -79
104 -17 20 -17 20 -2 -19z"/>
<path d="M1980 648 c-1 -22 42 -98 62 -108 19 -9 21 -9 7 2 -9 7 -28 36 -42
63 -14 28 -26 47 -27 43z"/>
<path d="M1294 612 c-31 -26 -48 -62 -36 -74 6 -6 8 -26 5 -45 -5 -29 -3 -35
16 -40 19 -5 20 -7 7 -22 -8 -9 -15 -20 -17 -26 -1 -5 -5 -19 -10 -30 -7 -19
-8 -19 -8 3 -1 13 -5 21 -10 17 -5 -3 -16 4 -24 16 -13 17 -13 28 -1 72 7 28
12 52 11 53 -1 1 -9 -3 -18 -9 -24 -18 -39 -52 -39 -91 0 -28 7 -40 37 -65 21
-17 42 -31 48 -30 5 0 23 27 39 61 25 53 27 64 16 82 -49 77 -48 74 -8 111 38
35 31 49 -8 17z"/>
<path d="M1364 613 c-12 -2 -32 -15 -45 -29 l-23 -25 23 -45 c13 -24 26 -42
28 -40 3 2 -3 18 -11 35 -10 19 -12 32 -6 36 6 4 8 11 5 16 -4 5 10 18 29 30
34 20 45 31 29 28 -5 -1 -18 -4 -29 -6z"/>
<path d="M1786 598 c-5 -21 0 -32 39 -84 6 -8 6 -23 -1 -41 -9 -26 -7 -29 20
-43 23 -12 34 -26 44 -64 10 -34 17 -45 22 -35 5 7 6 17 3 23 -3 5 -1 6 6 2 6
-4 8 -13 5 -19 -5 -9 -4 -9 6 -1 18 17 4 49 -42 95 -30 29 -39 45 -35 61 7 23
-8 58 -29 71 -8 4 -14 17 -14 27 0 28 -17 33 -24 8z"/>
<path d="M2178 470 c11 -41 21 -59 29 -56 7 3 13 -1 13 -9 0 -15 30 -49 37
-42 2 3 -10 31 -27 63 -16 32 -30 60 -30 62 0 14 37 -31 62 -75 32 -57 60 -85
34 -34 -9 17 -13 31 -8 31 12 0 78 -72 86 -94 3 -10 9 -16 12 -13 11 11 -48
113 -79 135 -38 28 -137 92 -142 92 -2 0 4 -27 13 -60z"/>
<path d="M1322 406 c-12 -24 -22 -49 -22 -55 0 -7 25 -37 55 -67 30 -30 55
-63 55 -74 0 -10 3 -21 8 -23 4 -3 5 14 4 38 -3 38 -1 43 20 48 13 4 35 4 48
1 l25 -6 -26 23 c-15 13 -29 32 -33 42 -9 26 -26 11 -26 -24 0 -42 -35 -38
-59 9 -6 12 -16 22 -22 22 -6 0 -7 -6 -3 -12 5 -10 4 -10 -5 -2 -14 13 -11 80
4 77 6 -1 10 10 10 23 0 35 -9 30 -33 -20z"/>
<path d="M1775 420 c-18 -20 -18 -21 1 -35 10 -8 22 -15 25 -15 11 0 29 -51
29 -81 0 -31 -35 -110 -48 -107 -4 0 -15 -2 -25 -7 -9 -4 -28 -5 -42 -3 -15 3
-22 1 -18 -5 4 -6 -11 -7 -41 -3 -52 8 -145 55 -111 57 16 0 14 4 -10 14 -69
32 -113 2 -60 -41 34 -27 85 -41 185 -50 127 -11 183 31 184 138 0 38 -6 55
-32 87 -18 22 -28 42 -22 46 5 3 19 -9 30 -27 11 -18 20 -29 20 -24 0 9 -39
76 -44 76 -2 0 -11 -9 -21 -20z"/>
<path d="M1513 363 c-7 -2 -13 -12 -13 -20 0 -13 -3 -13 -16 -3 -13 12 -14 10
-3 -13 7 -15 20 -29 30 -32 10 -4 28 -18 39 -32 28 -36 28 -2 0 36 -12 15 -22
37 -23 49 -1 12 -1 22 -2 21 0 0 -6 -3 -12 -6z"/>
<path d="M685 323 c-37 -32 -37 -34 -9 -20 31 16 60 44 53 51 -2 2 -22 -12
-44 -31z"/>
<path d="M1793 283 c-6 -24 -7 -43 -2 -43 11 0 22 43 17 67 -2 11 -8 2 -15
-24z"/>
<path d="M1927 293 c-4 -3 -7 -15 -7 -27 0 -11 -12 -32 -27 -48 -14 -15 -25
-30 -22 -32 2 -2 27 4 54 13 37 12 51 21 52 37 2 22 -39 69 -50 57z"/>
<path d="M2003 247 c4 -10 2 -17 -5 -17 -6 0 -9 -2 -6 -6 3 -3 21 2 39 10 19
8 26 15 17 15 -9 1 -24 4 -34 8 -13 5 -16 3 -11 -10z"/>
<path d="M1319 233 c-27 -30 -30 -41 -13 -39 18 3 37 31 32 47 -2 6 -11 2 -19
-8z"/>
<path d="M0 166 c0 -9 5 -16 10 -16 6 0 10 -32 10 -75 l0 -75 38 0 c38 0 63
17 74 50 9 25 -21 65 -71 96 -61 38 -61 38 -61 20z m70 -82 c0 -20 4 -33 10
-29 5 3 7 12 3 20 -3 8 0 15 6 15 18 0 25 -29 11 -45 -7 -8 -21 -15 -31 -15
-16 0 -19 8 -19 45 0 25 5 45 10 45 6 0 10 -16 10 -36z"/>
<path d="M1400 157 c0 -22 47 -75 84 -94 27 -14 25 -9 -23 43 -30 33 -56 61
-58 63 -2 2 -3 -3 -3 -12z"/>
<path d="M283 146 c0 -14 26 -22 125 -41 17 -4 32 -13 32 -20 0 -16 18 -23 85
-30 58 -7 142 -32 150 -46 4 -5 183 -9 432 -9 235 0 424 2 421 5 -3 3 -178 7
-389 9 l-384 3 -100 37 c-55 19 -108 36 -118 36 -10 0 -65 16 -123 35 -116 39
-131 41 -131 21z"/>
<path d="M775 131 c-29 -7 -30 -7 -8 -19 27 -15 48 -15 75 -1 17 9 18 13 7 20
-16 10 -30 10 -74 0z"/>
<path d="M975 130 c-5 -9 18 -20 41 -20 8 0 14 4 14 9 0 11 -49 21 -55 11z"/>
<path d="M1828 124 c-3 -3 -28 -9 -55 -14 l-48 -8 51 -1 c68 -1 120 9 102 20
-15 10 -42 12 -50 3z"/>
<path d="M2140 117 c-40 -15 -9 -18 40 -3 39 12 41 13 15 13 -17 0 -42 -4 -55
-10z"/>
<path d="M2395 119 c-132 -31 -192 -44 -295 -60 l-115 -19 127 5 c130 5 172 0
146 -16 -7 -5 -71 -9 -143 -10 -71 0 -150 -4 -175 -9 -31 -5 12 -8 138 -8 172
0 185 1 226 23 24 13 86 33 137 45 168 39 204 49 184 49 -40 2 -229 -41 -330
-74 -17 -6 -18 -5 -5 5 12 9 10 10 -12 6 -16 -4 -28 -2 -28 4 0 5 8 10 18 11
32 1 227 57 197 57 -16 0 -48 -4 -70 -9z"/>
</g>
</svg>
