<?xml version="1.0" standalone="no"?>
<!DOCTYPE svg PUBLIC "-//W3C//DTD SVG 20010904//EN"
 "http://www.w3.org/TR/2001/REC-SVG-20010904/DTD/svg10.dtd">
<svg version="1.0" xmlns="http://www.w3.org/2000/svg"
 width="1024.000000pt" height="1024.000000pt" viewBox="0 0 1024.000000 1024.000000"
 preserveAspectRatio="xMidYMid meet">
<metadata>
Created by potrace 1.16, written by Peter Selinger 2001-2019
</metadata>
<g transform="translate(0.000000,1024.000000) scale(0.100000,-0.100000)"
fill="#000000" stroke="none">
<path d="M0 5375 c0 -4722 1 -4865 18 -4865 11 0 26 -8 36 -18 14 -16 15 -32
10 -104 l-7 -84 -28 4 -29 4 0 -156 0 -156 5120 0 5120 0 0 2175 0 2175 -26 0
c-14 0 -34 -5 -44 -10 -13 -7 -21 -7 -25 0 -7 12 -55 2 -72 -15 -6 -7 -28 -47
-47 -89 -46 -100 -63 -99 -21 2 18 42 36 93 39 112 6 32 5 33 -5 10 -6 -14
-14 -34 -18 -44 -7 -18 -8 -18 -14 -2 -4 11 -3 15 4 10 8 -4 9 1 4 17 -10 32
-6 29 -69 38 -31 4 -62 13 -68 19 -9 9 -9 12 1 12 9 0 11 9 7 28 -5 20 1 39
22 72 15 25 43 74 61 110 18 36 37 69 41 73 4 5 29 -4 56 -18 30 -16 41 -19
28 -8 -29 25 -35 46 -21 85 16 44 15 44 31 23 15 -21 36 -12 36 16 0 11 4 17
10 14 6 -3 7 1 4 9 -3 9 -10 16 -16 16 -5 0 -7 -4 -4 -9 3 -5 -1 -11 -9 -15
-8 -3 -17 -1 -20 4 -9 14 18 51 33 45 8 -3 12 0 9 7 -5 16 10 48 23 48 6 0 10
-4 10 -9 0 -4 13 -37 30 -72 l29 -64 1 209 0 209 -43 -35 c-49 -40 -304 -324
-345 -383 -38 -56 -81 -92 -160 -135 l-69 -38 7 37 c4 20 24 71 45 113 29 58
49 85 79 105 47 32 96 82 166 168 52 65 97 105 117 105 7 0 13 7 13 15 0 15
40 30 73 27 10 0 21 6 24 14 3 9 9 11 12 6 3 -5 22 1 44 14 34 22 37 28 37 70
0 42 -1 45 -23 39 -38 -12 -143 -62 -186 -89 -41 -26 -62 -33 -60 -18 4 23 -3
34 -17 28 -12 -4 -15 -2 -10 9 10 27 -19 16 -55 -21 -40 -42 -102 -84 -124
-84 -9 0 -14 -3 -12 -7 5 -9 -69 -84 -75 -77 -3 2 -5 -2 -5 -9 0 -20 -95 -155
-153 -218 -27 -30 -49 -57 -50 -61 0 -5 -5 -8 -11 -8 -6 0 -9 7 -5 15 3 8 1
15 -4 15 -6 0 -10 9 -10 20 0 11 -5 20 -10 20 -9 0 6 38 21 50 3 3 21 28 40
55 67 99 150 194 221 257 159 139 192 175 191 212 -1 52 -40 101 -108 136 -70
37 -98 53 -105 61 -3 3 -26 5 -52 5 -27 -1 -50 4 -52 9 -3 6 -11 3 -18 -6 -7
-9 -20 -14 -28 -11 -35 11 17 -28 80 -59 78 -38 100 -56 100 -82 0 -17 -5 -19
-37 -13 -21 3 -44 6 -51 6 -7 0 -10 5 -7 10 4 6 -6 10 -22 10 -16 0 -46 9 -68
20 -21 11 -48 17 -60 14 -35 -9 -279 61 -269 77 2 5 -17 2 -43 -6 -81 -25 -81
-24 -76 53 3 37 1 99 -5 137 -7 50 -6 72 2 77 7 5 6 8 -3 8 -8 0 -12 3 -8 6
14 14 -45 56 -145 104 -73 35 -119 64 -143 91 -38 43 -40 51 -24 98 19 53 -2
96 -96 206 -69 81 -98 127 -154 240 -39 77 -77 166 -86 197 -18 65 -81 156
-143 209 -23 20 -42 43 -42 51 0 22 46 72 54 59 4 -6 4 -11 0 -11 -3 0 1 -11
10 -25 9 -14 14 -31 10 -37 -5 -7 -3 -8 6 -3 14 9 82 -59 71 -71 -3 -4 -1 -4
5 -1 23 13 77 -67 89 -133 16 -93 84 -228 134 -268 46 -37 81 -42 81 -12 0 17
5 19 32 15 18 -4 35 -11 39 -16 3 -6 16 5 28 25 22 35 56 51 45 21 -8 -20 22
-31 42 -15 11 10 18 10 26 2 9 -9 6 -22 -12 -54 -16 -28 -20 -43 -12 -46 7 -2
12 -14 12 -27 0 -17 10 -27 38 -40 79 -35 82 -38 76 -58 -5 -17 -2 -18 28 -12
18 4 41 14 50 22 15 14 18 13 24 -12 4 -15 1 -51 -5 -81 -14 -61 -10 -74 24
-74 13 0 30 -9 38 -21 9 -12 34 -25 59 -30 46 -11 71 -33 139 -126 77 -103
229 -241 229 -208 0 15 -36 74 -64 105 -17 19 -22 28 -11 20 37 -27 70 -72 91
-124 11 -28 24 -49 28 -48 5 2 12 -2 17 -9 6 -11 9 -10 15 4 3 9 1 24 -6 32
-22 27 -2 28 24 2 14 -15 26 -24 26 -21 0 3 14 -4 30 -16 17 -12 36 -23 43
-24 20 -4 92 -40 99 -50 4 -6 12 -5 21 2 7 7 17 9 20 5 4 -3 7 0 7 7 0 8 -12
26 -27 42 -14 15 -23 31 -19 35 4 4 11 1 16 -7 6 -9 10 -10 10 -4 0 18 87 -74
100 -105 6 -15 29 -38 50 -50 22 -12 62 -37 91 -56 28 -19 57 -35 65 -35 12 0
14 345 14 2365 l0 2365 -5120 0 -5120 0 0 -4865z m5533 4311 c22 0 23 -5 36
-194 11 -148 10 -155 -11 -204 -17 -40 -38 -63 -107 -118 -87 -69 -103 -84
-155 -154 -34 -46 -24 -64 23 -40 18 9 52 18 75 20 22 2 62 5 88 8 33 2 57 12
80 31 27 23 34 25 42 13 7 -12 17 -6 49 29 22 24 44 43 50 43 6 0 1 -10 -10
-22 -34 -39 -64 -95 -58 -110 6 -15 35 -21 35 -6 0 4 8 8 18 8 14 0 15 -2 2
-10 -13 -9 -13 -10 0 -10 33 0 126 41 147 65 12 14 25 25 28 25 10 0 5 -19
-11 -34 -8 -9 -13 -20 -9 -26 4 -6 -1 -7 -11 -3 -12 4 -15 3 -10 -6 4 -6 4
-11 -1 -10 -18 3 -33 -2 -33 -11 0 -5 16 -10 35 -10 19 0 35 4 35 9 0 5 8 12
18 15 10 4 44 31 76 61 74 71 101 77 50 10 -15 -20 -21 -36 -15 -39 16 -10
127 22 190 54 31 15 71 42 90 60 28 27 37 31 56 22 19 -9 26 -7 43 11 11 12
22 29 25 37 4 10 6 8 6 -7 1 -12 -3 -24 -8 -27 -5 -3 -11 -15 -14 -26 -4 -15
-1 -19 14 -17 10 2 22 6 25 10 14 14 34 6 34 -13 0 -16 4 -19 18 -12 22 12 42
5 42 -15 0 -11 7 -8 27 11 29 29 41 29 22 -1 -10 -16 -7 -24 16 -49 15 -16 30
-37 34 -48 7 -17 8 -17 24 -1 12 12 17 13 17 3 1 -8 6 -6 15 6 19 25 33 12 17
-14 -14 -23 -16 -96 -3 -104 5 -3 33 12 62 34 30 22 57 40 61 40 12 0 118 -82
118 -91 0 -14 -4 -12 -50 25 -24 19 -49 32 -55 30 -13 -5 -35 -47 -35 -65 0
-17 92 -109 109 -109 8 0 44 -28 79 -62 l63 -63 -20 47 c-25 59 -16 68 20 19
37 -52 54 -62 45 -27 -10 40 11 31 25 -11 6 -21 18 -44 26 -51 11 -11 13 -10
13 7 0 16 6 21 28 21 15 0 33 -5 40 -12 9 -9 12 2 12 49 0 34 -4 65 -10 68
-14 9 -12 51 3 64 11 8 16 6 25 -12 6 -12 12 -28 14 -35 2 -9 9 -8 23 6 11 10
25 17 31 15 6 -2 14 10 18 27 3 17 9 29 14 26 4 -2 18 28 31 69 20 67 21 79
11 155 -6 45 -15 93 -21 107 -12 32 -11 36 4 27 10 -6 10 -4 0 7 -7 7 -13 19
-13 27 0 7 6 12 13 10 6 -3 12 -10 12 -17 0 -6 5 -15 10 -19 15 -10 45 -75 39
-84 -3 -4 -1 -8 5 -8 6 0 15 -19 21 -42 10 -34 8 -63 -9 -157 -21 -120 -19
-189 5 -226 8 -11 14 -32 14 -48 0 -38 32 -98 67 -124 16 -11 72 -42 124 -68
52 -26 96 -51 99 -55 3 -4 23 -13 45 -21 55 -18 53 -18 118 -30 59 -11 87 -3
87 26 0 7 7 15 15 19 11 4 15 -1 15 -19 0 -29 4 -32 87 -55 72 -21 96 -16 114
23 9 20 9 20 3 -3 -3 -14 -8 -35 -11 -48 -3 -12 1 -29 8 -38 18 -22 80 -13
110 15 29 27 35 20 14 -13 -28 -42 7 -33 36 9 13 19 27 35 31 35 15 0 18 -20
6 -46 -10 -22 -10 -28 0 -32 6 -2 12 -18 13 -35 0 -18 4 -40 8 -50 6 -17 8
-17 33 2 38 30 75 43 75 26 0 -8 -6 -16 -14 -19 -20 -8 -15 -26 7 -26 11 0 20
-2 20 -5 0 -10 -39 -43 -44 -38 -3 4 -6 -3 -6 -15 0 -11 -7 -27 -15 -36 -20
-20 -3 -29 30 -16 50 19 50 10 0 -37 -27 -26 -53 -46 -56 -46 -3 1 -36 -27
-72 -61 -56 -54 -74 -80 -116 -170 -28 -58 -57 -125 -65 -148 -8 -24 -25 -68
-39 -98 -13 -30 -28 -66 -32 -78 -6 -21 -5 -23 13 -13 10 6 25 30 32 56 7 25
17 48 21 51 5 3 9 14 9 24 0 11 13 32 28 48 29 29 136 174 159 215 7 12 13 18
13 14 0 -5 14 5 31 22 17 17 28 35 24 41 -3 6 0 7 9 4 12 -4 16 0 16 16 0 11
4 19 9 16 5 -3 14 1 22 10 7 8 21 20 31 25 15 8 18 6 18 -11 0 -11 -5 -20 -11
-20 -13 0 -116 -103 -139 -139 -8 -12 -23 -32 -32 -43 -13 -15 -15 -25 -8 -39
15 -26 26 -31 40 -14 21 25 30 17 14 -12 -7 -16 -14 -33 -14 -40 0 -6 -21 -29
-47 -49 -50 -39 -73 -63 -73 -74 0 -11 50 -30 79 -30 45 0 150 39 179 68 22
20 42 14 42 -12 0 -13 6 -27 13 -30 6 -3 -3 -3 -21 0 -34 6 -32 7 -302 -102
-152 -61 -170 -71 -170 -94 0 -25 -34 -51 -124 -89 -41 -19 -75 -36 -74 -40 2
-16 -3 -31 -9 -29 -5 1 -22 -6 -40 -15 -35 -19 -78 -23 -68 -7 4 6 12 7 18 4
9 -5 9 -4 1 5 -8 9 -19 8 -45 -3 -31 -13 -74 -20 -106 -17 -7 1 -13 7 -13 14
0 13 17 30 74 74 23 18 25 24 13 29 -23 8 -52 0 -50 -14 4 -17 -14 -15 -76 8
-53 19 -53 19 -48 0 3 -11 1 -20 -4 -20 -11 0 -12 40 -1 56 4 7 67 16 147 23
232 19 273 27 315 56 50 35 79 80 119 185 18 47 44 110 58 140 40 87 124 320
136 376 13 68 3 124 -24 124 -41 0 -236 -71 -285 -104 -27 -18 -95 -82 -150
-141 -54 -60 -123 -126 -152 -147 -88 -65 -158 -162 -264 -365 -54 -104 -98
-192 -98 -197 0 -4 7 -5 16 -2 9 3 12 2 9 -5 -4 -6 -13 -8 -20 -5 -7 2 -27
-11 -45 -29 -18 -18 -56 -44 -86 -56 -30 -13 -54 -27 -54 -31 0 -4 7 -5 15 -2
30 12 15 -30 -22 -63 -40 -35 -63 -42 -63 -19 0 30 -24 34 -70 11 -100 -50
-150 -83 -220 -145 -231 -205 -282 -248 -325 -280 -26 -19 -57 -53 -69 -75
-87 -163 -126 -225 -187 -297 -85 -103 -137 -206 -155 -313 -8 -44 -18 -81
-23 -83 -24 -8 -56 -48 -134 -167 -113 -172 -128 -190 -138 -173 -5 7 -6 28
-3 46 5 28 3 32 -15 32 -11 0 -21 5 -21 11 0 5 -4 8 -9 5 -12 -8 -22 20 -15
39 8 20 77 20 94 0 10 -12 15 -13 28 -3 8 7 18 12 21 10 3 -2 8 5 10 15 2 10
23 46 47 80 24 34 44 64 44 67 0 3 -35 3 -77 -1 l-78 -6 27 22 c14 11 30 21
35 21 24 0 83 93 83 130 0 10 11 25 25 34 31 20 32 43 2 80 l-24 29 -7 -34 -8
-34 -10 28 c-5 15 -14 24 -20 21 -6 -4 -8 13 -4 49 5 49 4 55 -14 60 -20 5
-19 8 12 66 35 65 48 76 40 35 -6 -30 26 -104 45 -104 7 0 21 8 32 19 10 10
49 28 86 40 76 25 137 62 160 97 9 14 21 22 27 18 8 -5 9 -1 5 10 -4 10 -3 15
3 11 10 -6 35 42 31 59 -1 4 6 14 16 21 10 7 15 17 10 21 -4 4 -7 2 -7 -4 0
-7 -5 -12 -10 -12 -12 0 5 36 27 58 7 7 13 19 13 26 0 8 6 19 14 25 12 10 13
8 9 -9 -3 -11 -9 -23 -14 -26 -5 -3 -9 -10 -9 -16 0 -6 13 7 29 28 15 22 41
48 57 58 33 21 106 95 211 213 83 93 146 137 258 182 113 45 150 65 148 79 -2
6 4 9 11 6 8 -3 27 3 43 14 15 10 48 32 71 47 48 32 112 101 112 122 0 7 4 13
10 13 5 0 7 6 5 13 -3 6 11 37 30 67 18 30 31 57 29 60 -3 3 -12 -3 -19 -13
-9 -13 -14 -14 -17 -5 -6 18 125 148 135 134 5 -6 6 -3 3 8 -4 12 0 26 11 36
25 24 44 48 81 101 17 26 48 60 69 78 l38 31 -59 -30 c-33 -17 -63 -35 -67
-41 -5 -8 -8 -8 -14 0 -4 7 -1 18 5 26 10 12 10 15 -1 15 -8 0 5 12 28 26 23
13 45 25 48 24 10 -1 64 30 71 41 5 9 -1 10 -20 5 -25 -6 -27 -5 -21 16 6 19
32 54 65 88 3 3 18 22 33 43 16 20 55 60 88 87 66 55 69 63 9 25 -21 -14 -45
-22 -53 -20 -7 3 -23 -6 -36 -21 -13 -15 -28 -23 -37 -20 -8 3 -13 2 -10 -3 5
-8 -43 -35 -51 -28 -6 6 14 52 29 68 22 24 50 70 44 76 -3 3 -22 -3 -42 -13
-33 -17 -47 -37 -110 -159 -69 -132 -149 -253 -161 -242 -3 3 -1 12 3 19 5 7
9 27 11 43 1 17 9 44 17 60 16 30 16 30 -11 33 -33 4 -60 -25 -98 -107 -14
-29 -29 -51 -32 -48 -6 7 68 169 103 227 11 19 58 77 103 129 59 68 78 97 71
106 -7 9 -6 16 5 25 23 19 18 37 -12 52 -15 7 -41 31 -58 54 -16 23 -45 47
-62 53 -19 7 -33 19 -33 29 0 15 -2 15 -10 2 -9 -13 -11 -13 -20 0 -20 31 -10
-12 17 -68 25 -52 44 -75 113 -131 l25 -20 -55 15 c-78 21 -166 28 -174 15 -5
-7 -14 -8 -24 -2 -9 4 -44 11 -77 15 -80 10 -76 9 -105 2 -22 -6 -28 -2 -40
23 -11 22 -19 28 -29 22 -11 -7 -10 -13 4 -34 9 -15 14 -31 10 -37 -3 -5 -2
-10 4 -10 6 0 7 -7 4 -17 -5 -12 -3 -14 7 -8 8 5 11 3 8 -6 -7 -19 -56 -9
-108 23 -8 5 -27 14 -42 21 -22 9 -28 19 -29 42 0 25 -2 27 -9 10 -7 -19 -8
-19 -15 -2 -4 10 -13 16 -21 13 -8 -3 -22 14 -37 45 -14 27 -27 44 -30 37 -3
-8 -9 -3 -16 12 -10 23 -11 22 -5 -10 4 -26 3 -31 -5 -20 -8 12 -11 7 -11 -22
0 -20 -4 -39 -9 -42 -5 -4 -7 4 -4 16 4 19 3 20 -6 8 -6 -8 -11 -23 -11 -33 0
-11 -5 -15 -11 -11 -7 4 -8 19 -5 37 6 29 5 30 -8 12 -9 -11 -16 -24 -16 -29
0 -5 -14 -39 -31 -75 -21 -43 -31 -80 -31 -106 1 -29 -1 -36 -8 -25 -5 8 -10
11 -10 5 0 -32 17 -29 40 6 13 21 28 39 32 39 13 0 -26 -89 -45 -101 -13 -9 7
-68 40 -116 42 -62 41 -100 -3 -164 -20 -31 -52 -65 -70 -77 -19 -13 -31 -28
-28 -35 3 -8 0 -26 -6 -41 -5 -15 -6 -25 -1 -22 5 3 11 -6 14 -19 2 -14 0 -28
-4 -31 -5 -3 -9 -15 -9 -27 1 -20 2 -20 23 8 53 72 63 73 16 2 -57 -86 -68
-95 -134 -104 -54 -7 -76 8 -107 75 -17 35 -18 47 -9 70 11 26 161 185 161
170 0 -4 -6 -13 -12 -20 -35 -37 -80 -101 -107 -152 -28 -52 -30 -71 -4 -45 5
5 24 11 40 11 34 1 39 7 99 128 23 47 58 101 78 119 36 35 47 33 23 -4 -7 -11
-18 -33 -25 -50 -11 -28 -11 -28 3 -11 8 11 15 26 15 33 0 7 6 10 17 6 10 -4
14 -2 10 4 -4 6 0 24 8 39 21 40 19 78 -6 100 -39 35 -85 144 -115 273 -24
104 7 106 40 4 10 -29 22 -53 28 -53 7 0 7 4 0 13 -5 6 -12 28 -14 47 -3 19
-8 42 -12 51 -6 13 1 18 32 23 27 4 41 12 45 25 6 23 2 77 -8 115 l-8 30 28
-22 c37 -29 51 -16 35 32 -6 19 -40 78 -76 130 -35 52 -64 102 -64 110 0 9 -4
16 -8 16 -9 0 -88 129 -130 213 -34 67 -65 95 -87 77 -8 -7 -15 -7 -19 -1 -11
18 -36 0 -36 -26 0 -25 50 -312 70 -403 34 -149 62 -316 67 -390 5 -73 3 -92
-15 -130 -18 -40 -20 -42 -25 -20 l-4 25 -2 -26 c0 -15 -8 -44 -17 -65 -9 -21
-17 -46 -19 -56 -5 -23 -40 -69 -48 -62 -3 3 1 20 8 37 7 18 13 34 13 37 1 3
6 19 12 35 19 49 30 123 32 209 1 57 3 66 5 32 3 -27 11 -59 19 -70 14 -19 15
-14 9 64 -4 47 -11 99 -15 115 -8 27 -27 134 -90 505 -12 69 -24 132 -27 140
-4 8 -6 18 -5 22 5 22 -28 -9 -46 -43 -25 -46 -28 -107 -11 -191 16 -80 99
-445 115 -508 19 -72 18 -167 -2 -221 -9 -24 -17 -56 -18 -71 -2 -40 -63 -108
-169 -187 -51 -38 -103 -79 -116 -92 -13 -13 -48 -40 -76 -59 -109 -73 -241
-177 -365 -286 -19 -18 -48 -43 -65 -57 -30 -26 -30 -26 -6 -27 22 0 23 -1 7
-24 -15 -24 -15 -26 16 -50 l32 -25 12 28 c9 22 24 31 80 49 38 11 83 24 99
28 44 10 146 74 139 86 -4 7 -2 8 5 4 11 -7 67 22 109 58 38 33 24 66 -28 66
-14 0 -17 -6 -13 -22 4 -20 3 -21 -7 -5 -9 13 -15 15 -31 7 -15 -9 -17 -15 -9
-31 12 -21 5 -43 -11 -34 -5 4 -9 1 -9 -6 0 -7 -3 -9 -6 -6 -4 4 -1 14 7 23
12 15 12 17 -1 12 -8 -3 -20 2 -27 11 -16 22 0 47 47 71 43 22 49 29 24 26 -9
0 -19 5 -22 13 -3 9 0 12 10 8 9 -3 21 0 28 6 7 7 10 7 7 2 -3 -6 -2 -17 4
-25 7 -13 9 -12 9 3 0 9 5 17 10 17 6 0 10 -5 10 -10 0 -6 12 -8 28 -4 21 4
24 3 12 -5 -12 -9 -11 -11 8 -11 13 0 20 -4 17 -10 -3 -6 4 -14 17 -19 13 -6
18 -10 12 -10 -6 -1 -14 -20 -16 -44 -7 -63 -53 -133 -121 -186 -33 -25 -69
-54 -80 -64 l-20 -17 26 -28 c27 -29 64 -118 53 -129 -3 -4 -6 1 -6 10 0 9
-14 24 -30 32 l-31 16 7 -28 c4 -15 11 -29 15 -31 5 -2 5 -11 0 -20 -5 -9 -10
-69 -10 -132 -1 -63 -5 -118 -9 -121 -6 -6 -214 -69 -226 -69 -2 0 9 35 25 77
17 42 27 83 24 91 -3 8 3 20 12 28 14 10 16 15 6 25 -11 11 -13 10 -13 -3 0
-9 -7 -18 -15 -22 -17 -6 -20 5 -6 20 14 14 -11 42 -45 49 -26 6 -27 5 -11 -8
25 -20 21 -46 -8 -53 -52 -13 -165 85 -212 184 -21 45 -35 48 -102 27 -81 -25
-138 -57 -199 -109 -30 -25 -58 -46 -63 -46 -6 0 -8 -4 -5 -9 5 -7 -25 -20
-51 -22 -14 -1 -43 -32 -43 -46 0 -7 -4 -13 -10 -13 -34 0 7 47 124 144 107
88 156 116 239 135 87 20 115 15 158 -28 21 -21 40 -36 43 -34 5 5 53 -24 74
-44 20 -20 56 -37 48 -24 -5 7 3 9 22 5 16 -3 40 -1 52 6 15 8 20 8 16 1 -4
-6 -2 -11 3 -11 6 0 11 7 11 15 0 21 20 19 21 -2 1 -17 2 -17 6 0 2 9 9 17 14
17 14 0 11 28 -3 34 -9 3 -8 8 5 16 43 27 5 52 -103 67 -25 3 -51 10 -58 16
-7 5 -15 7 -19 3 -3 -3 -1 -6 5 -6 9 0 41 -42 76 -98 14 -22 -45 12 -74 43
-29 31 -96 79 -125 88 -20 7 -20 7 -1 -8 13 -9 15 -15 7 -15 -8 0 -20 -8 -27
-17 -12 -17 -13 -17 -14 -1 0 14 -8 16 -42 14 -67 -5 -144 -23 -190 -46 l-43
-21 25 21 c14 12 19 19 13 15 -16 -8 -17 21 -1 31 6 4 8 3 5 -3 -4 -6 -1 -13
7 -16 8 -3 17 2 21 11 3 9 3 13 -1 10 -3 -4 -14 2 -23 13 -12 15 -29 20 -73
20 -73 1 -131 -27 -178 -85 -31 -38 -187 -153 -195 -144 -2 2 20 21 50 42 64
47 129 122 119 138 -4 6 -3 8 3 5 6 -4 19 3 29 14 10 12 32 28 49 37 16 8 24
17 18 19 -17 6 -67 -30 -131 -94 -59 -60 -168 -121 -185 -104 -7 7 -7 21 0 45
10 32 9 35 -11 34 -36 -2 -46 -18 -45 -69 2 -56 33 -95 69 -86 27 7 16 -10
-19 -27 -33 -18 -46 -11 -66 37 -20 49 -19 95 5 134 18 31 31 37 90 47 37 6
96 32 105 46 8 13 -65 249 -77 250 -4 0 -13 -20 -19 -45 -11 -44 -12 -45 -26
-25 -8 11 -12 28 -8 38 7 19 81 82 98 82 5 0 32 -22 59 -49 46 -46 77 -57 78
-27 0 6 7 3 14 -7 8 -10 20 -16 27 -15 8 2 15 -7 17 -19 2 -11 20 -38 40 -59
25 -26 31 -36 17 -31 -17 6 -17 4 4 -13 23 -20 77 -29 66 -11 -3 5 -1 12 4 16
16 9 8 48 -19 85 -13 19 -28 37 -32 38 -4 2 -8 8 -8 13 0 6 4 7 10 4 6 -3 7 1
4 10 -4 8 -17 18 -30 21 -13 3 -24 9 -24 13 0 3 -34 45 -75 91 -109 123 -122
155 -85 203 11 14 20 35 20 48 0 22 0 22 16 3 16 -19 16 -17 -1 35 -5 17 -4
21 5 16 16 -10 8 15 -40 119 -66 142 -80 124 -39 -49 16 -66 28 -127 28 -135
1 -15 -83 -133 -97 -137 -12 -4 -102 279 -102 320 0 47 34 115 102 204 28 37
67 97 85 133 19 36 31 53 27 38 -4 -18 -2 -28 5 -28 6 0 11 6 11 13 0 9 3 8 9
-2 7 -11 10 -9 16 8 3 11 3 26 -1 32 -4 7 -3 9 3 6 13 -8 30 52 43 151 20 143
68 331 117 450 4 10 -2 9 -20 -3 -15 -9 -31 -14 -37 -10 -5 3 -10 1 -10 -5 0
-6 -4 -9 -9 -6 -12 8 -94 -63 -121 -104 -8 -12 -36 -43 -61 -69 -100 -101
-226 -289 -254 -381 -4 -14 -21 -53 -36 -88 -16 -35 -29 -80 -29 -101 0 -52
-95 -239 -155 -306 -25 -27 -45 -55 -45 -61 0 -6 11 -21 25 -34 32 -30 32 -40
-1 -40 -29 0 -63 35 -64 65 0 11 7 41 14 66 13 44 13 46 -4 42 -10 -3 -21 0
-24 6 -7 10 65 163 90 192 8 8 22 40 33 70 10 30 23 63 27 74 7 18 6 18 -9 6
-14 -11 -17 -11 -18 0 0 10 -2 11 -6 2 -2 -7 -10 -13 -17 -13 -19 0 -91 -37
-106 -54 -7 -9 -19 -16 -26 -16 -8 0 -14 -4 -14 -10 0 -5 -13 -10 -29 -10 -16
0 -31 -6 -34 -12 -2 -7 -8 -10 -13 -5 -4 4 -2 23 5 43 14 39 9 53 -12 36 -16
-13 -94 -32 -101 -24 -3 3 -2 10 3 16 4 6 11 19 14 28 4 13 2 15 -11 11 -9 -3
-22 -10 -29 -15 -7 -5 -14 -5 -18 2 -3 6 -10 8 -15 5 -5 -3 -11 -1 -15 5 -3 5
-17 10 -31 10 -14 0 -38 7 -55 15 -27 14 -32 14 -59 -2 -21 -12 -32 -28 -37
-53 -16 -87 43 -417 96 -532 24 -54 27 -71 7 -43 -18 26 -63 134 -71 171 -4
16 -13 58 -21 94 l-13 65 3 -57 c2 -49 1 -55 -10 -40 -12 16 -13 16 -15 -3 -1
-11 -1 -25 0 -32 1 -6 -2 -14 -7 -17 -8 -5 11 -134 24 -159 3 -7 -4 -1 -15 12
-12 13 -24 41 -27 63 -6 32 -10 38 -28 36 -20 -3 -21 1 -21 107 0 106 -1 110
-22 113 -13 2 -23 9 -24 15 0 7 -5 -1 -10 -18 -5 -19 -5 -52 2 -90 7 -33 13
-84 14 -113 3 -57 21 -92 106 -199 40 -50 150 -249 187 -338 20 -49 42 -85 52
-85 5 0 14 9 20 20 6 11 7 20 3 20 -4 0 1 6 10 13 20 15 35 77 18 77 -6 0 -11
7 -11 16 0 32 26 -5 74 -103 26 -54 61 -123 77 -153 52 -95 107 -214 114 -244
5 -26 4 -28 -9 -17 -9 8 -16 19 -17 25 0 21 -86 188 -94 186 -5 -1 -13 7 -17
17 -11 24 -4 -12 18 -97 12 -45 15 -81 10 -113 -7 -47 -21 -61 -32 -32 -5 12
-10 10 -25 -9 -27 -34 -24 -58 14 -107 23 -31 40 -43 60 -44 26 -1 27 1 28 55
1 30 4 69 8 85 l7 30 8 -32 c4 -18 6 -52 5 -75 -3 -30 1 -43 11 -46 22 -7 30
-23 30 -62 0 -20 4 -40 9 -45 15 -16 25 -125 12 -125 -6 0 -14 13 -17 30 -4
16 -13 35 -20 41 -8 6 -14 18 -14 25 0 8 -4 14 -10 14 -5 0 -10 -6 -10 -12 0
-9 -4 -8 -11 2 -10 13 -10 13 -6 0 9 -30 47 -206 52 -243 5 -28 9 -36 18 -29
7 5 22 12 33 16 20 6 21 3 18 -39 -2 -32 1 -45 9 -42 7 2 13 13 15 25 2 12 7
22 12 22 5 0 7 17 5 38 -3 20 -2 29 1 20 14 -44 42 6 50 88 5 54 1 61 -25 45
-12 -8 -12 -12 -2 -25 22 -27 14 -105 -10 -91 -5 4 -5 13 1 24 6 12 6 30 0 51
-10 34 -2 54 28 73 6 4 12 25 13 45 l0 37 26 -52 c15 -31 32 -53 42 -54 11 0
9 -3 -6 -9 -13 -5 -23 -17 -23 -26 0 -10 -3 -14 -7 -10 -4 3 -15 -26 -26 -66
-23 -90 -46 -140 -93 -197 -29 -36 -35 -51 -30 -75 4 -28 4 -29 -6 -8 -6 12
-17 22 -24 22 -7 0 -18 19 -24 43 -6 23 -13 49 -16 57 -3 8 -9 60 -14 116 -8
106 -38 190 -105 294 -49 75 -54 88 -70 181 -20 116 -26 131 -89 214 -29 39
-68 95 -88 126 -19 30 -68 89 -107 129 -40 42 -69 80 -66 88 2 7 0 10 -5 7 -6
-3 -10 0 -10 7 0 7 -12 38 -26 68 -15 30 -48 125 -75 212 -26 86 -66 199 -88
251 -23 53 -53 138 -67 189 -14 51 -33 117 -41 146 -8 29 -26 66 -40 83 -22
26 -31 30 -66 27 -36 -3 -42 -7 -49 -33 -9 -34 -12 -270 -4 -283 5 -9 35 -164
41 -212 7 -59 27 -176 32 -190 3 -8 6 -17 5 -20 0 -3 8 -7 19 -7 10 -1 19 2
19 8 0 5 -4 9 -9 9 -5 0 -11 9 -14 20 -3 11 -1 20 4 20 5 0 9 -7 9 -16 0 -8 4
-13 8 -10 8 5 160 -28 168 -36 2 -2 -44 -4 -101 -5 -104 -1 -105 -1 -125 27
-11 15 -20 33 -20 39 0 6 -5 11 -11 11 -5 0 -8 4 -5 8 8 13 -16 84 -31 89 -7
3 -13 16 -13 29 0 13 -10 32 -21 43 -30 28 -87 53 -101 45 -7 -4 -8 -3 -4 4 4
7 3 12 -2 12 -4 0 -17 8 -28 18 -24 22 -120 56 -133 47 -6 -3 -9 0 -6 7 2 7
-16 26 -43 43 -45 29 -46 30 -21 35 28 5 29 13 13 103 -4 24 -2 37 5 37 6 0
11 6 11 14 0 8 7 17 16 20 8 3 13 10 9 15 -3 5 -1 13 5 16 6 4 8 15 5 26 -7
21 10 27 18 7 3 -8 6 -6 6 5 1 9 7 17 15 17 21 0 31 21 15 31 -7 4 -10 11 -7
15 4 4 19 -1 32 -10 32 -20 31 -20 33 4 1 11 -2 20 -5 20 -4 0 -23 14 -42 31
-19 17 -28 27 -20 22 22 -14 59 -22 64 -14 5 8 43 7 104 -4 39 -6 40 -5 34 17
-5 22 -5 22 19 7 30 -19 60 -14 52 8 -4 11 -2 14 5 9 8 -5 12 0 12 13 0 12 6
21 13 21 7 0 14 12 15 27 1 15 5 29 10 32 4 3 9 24 11 46 4 54 10 60 31 35 25
-28 28 -26 33 23 3 41 4 40 5 -10 1 -28 6 -54 11 -57 13 -9 55 35 86 90 16 27
33 54 39 59 6 6 19 27 28 47 16 34 88 98 111 98 5 0 -5 -16 -22 -35 -33 -38
-34 -39 -25 -72 l6 -22 19 22 c15 18 18 19 19 5 0 -9 5 -18 12 -20 6 -2 11
-18 11 -36 0 -46 24 -23 32 31 9 58 36 117 53 117 11 0 13 -8 7 -37 -4 -21 -9
-62 -11 -91 -4 -57 -5 -57 51 -17 17 12 63 32 103 45 40 12 75 27 78 31 3 5 9
7 14 4 13 -8 1 -35 -15 -35 -18 0 -100 -99 -113 -137 -6 -20 -7 -33 -1 -33 5
0 9 6 9 13 0 8 4 7 11 -3 8 -11 12 -12 16 -2 2 6 9 12 14 12 6 0 7 -4 4 -10
-3 -5 1 -10 9 -10 9 0 16 5 16 11 0 6 7 8 16 5 8 -3 12 -2 9 4 -3 6 6 11 22
12 15 0 39 2 53 2 50 3 120 62 104 87 -3 6 -25 19 -48 30 l-41 19 40 -6 c63
-8 102 14 130 73 15 34 41 65 75 92 28 23 55 41 59 41 4 0 14 11 21 25 12 22
11 30 -9 68 l-23 42 24 -25 c24 -25 58 -36 58 -18 0 5 5 6 10 3 11 -7 100 79
100 95 0 6 5 10 10 10 17 0 12 -10 -28 -59 -106 -127 -132 -182 -118 -255 5
-25 11 -34 21 -29 10 3 15 -1 15 -12 0 -12 -5 -15 -16 -11 -13 5 -15 1 -12
-19 3 -13 0 -26 -5 -28 -7 -2 -4 -13 6 -27 9 -14 17 -19 17 -13 0 7 7 10 15 7
16 -7 101 34 153 73 55 41 74 80 69 141 -2 28 -2 52 0 52 9 0 43 -87 43 -109
0 -20 2 -21 15 -11 11 9 15 32 15 79 0 80 -12 127 -45 175 -13 20 -21 36 -16
36 10 0 41 -43 57 -80 l12 -25 11 28 c6 16 11 39 11 52 0 13 5 27 10 30 6 4
10 -6 10 -22 0 -50 14 -59 46 -29 36 32 38 32 62 -1 l20 -28 46 23 c26 12 53
22 61 22 26 0 16 16 -20 33 -19 9 -35 21 -35 26 0 9 104 28 123 23 13 -4 7 45
-7 57 -8 7 -21 32 -29 56 -13 38 -13 45 -1 56 11 9 14 8 14 -2 0 -11 12 2 35
38 1 2 19 -6 40 -17 43 -22 141 -27 191 -10 16 5 43 11 59 13 25 2 35 12 58
57 23 46 27 63 22 100 -10 74 -46 220 -61 248 -25 48 -13 66 36 55 14 -3 33
-6 43 -7z m3583 -870 c121 -42 121 -42 76 -74 l-27 -20 -74 24 c-40 13 -82 24
-93 24 -27 0 -33 27 -14 66 15 33 17 34 39 19 13 -8 55 -26 93 -39z m-4609
-1115 c35 -18 80 -77 98 -127 9 -27 21 -58 25 -69 5 -11 11 -28 14 -37 7 -24
23 -23 36 2 12 22 40 27 40 7 0 -18 -49 -87 -62 -87 -6 0 -17 8 -24 18 -12 15
-13 15 -14 -10 0 -15 -4 -29 -9 -33 -5 -3 -13 -20 -17 -38 l-7 -32 -14 40 c-8
22 -29 58 -47 79 l-33 39 -38 -42 c-20 -22 -41 -41 -46 -41 -14 0 -10 82 6
136 8 27 15 75 15 107 0 40 4 57 13 57 21 0 47 -67 54 -136 5 -54 10 -66 31
-80 23 -15 29 -15 51 -3 14 8 25 23 25 35 0 26 -34 104 -46 104 -4 0 -8 4 -8
10 0 9 -44 53 -100 100 l-25 21 31 -5 c17 -2 40 -9 51 -15z m2761 -396 c-6
-14 -16 -25 -21 -25 -6 0 -7 -3 -4 -7 4 -3 2 -12 -4 -20 -8 -9 -8 -13 -1 -13
7 0 4 -12 -6 -30 -9 -16 -25 -30 -36 -30 -12 0 -16 -5 -12 -15 3 -10 -3 -17
-19 -21 -13 -3 -23 -11 -22 -16 1 -6 -4 -13 -12 -16 -9 -3 -11 0 -7 7 4 6 -14
-2 -40 -19 -26 -16 -54 -30 -61 -30 -7 0 -13 -6 -13 -14 0 -10 -7 -12 -22 -8
-14 3 -19 2 -14 -6 4 -7 3 -12 -3 -12 -5 0 -23 -13 -39 -29 -22 -22 -37 -29
-58 -27 -35 4 -67 -11 -116 -56 -20 -18 -42 -34 -49 -36 -7 -2 -42 -32 -78
-67 -37 -35 -85 -82 -109 -104 -24 -22 -41 -45 -37 -51 3 -6 -1 -13 -9 -16 -9
-3 -16 -13 -16 -20 0 -8 -7 -17 -15 -21 -9 -3 -23 -19 -31 -36 -12 -23 -18
-27 -25 -16 -7 11 -9 11 -9 -3 0 -10 -7 -18 -16 -18 -11 0 -14 -5 -10 -16 4
-12 1 -14 -14 -9 -13 4 -20 2 -20 -7 0 -9 -3 -9 -10 2 -5 8 -7 23 -4 33 3 9 1
17 -5 17 -6 0 -11 -5 -11 -11 0 -6 -7 -9 -15 -5 -19 7 -19 1 1 -19 9 -9 14
-19 10 -22 -3 -4 -14 3 -23 14 l-17 21 -31 -20 c-16 -12 -54 -44 -84 -72 -49
-46 -52 -48 -35 -18 24 42 118 138 164 167 19 12 62 36 95 53 33 18 108 71
166 119 59 49 137 110 175 138 38 27 80 59 93 70 35 30 103 124 96 134 -7 12
-57 -2 -94 -26 -16 -10 -52 -33 -80 -52 -32 -20 -50 -39 -47 -47 3 -7 0 -11
-7 -9 -12 5 -77 -46 -77 -59 0 -4 5 -4 10 -1 6 3 10 2 10 -4 0 -16 -22 -25
-30 -12 -5 9 -10 8 -20 -4 -11 -13 -10 -14 5 -9 24 9 11 -12 -25 -42 -14 -12
-48 -45 -77 -73 -63 -61 -84 -66 -52 -11 41 68 144 175 229 236 45 32 109 83
142 111 33 29 64 50 70 47 8 -5 43 8 101 38 25 13 21 4 -15 -39 -19 -21 -26
-34 -17 -31 10 4 34 12 56 18 47 14 58 23 108 84 22 28 46 57 53 65 7 9 4 -2
-8 -24 -27 -53 -26 -68 3 -59 23 7 113 83 135 115 19 27 24 24 10 -6z m-4907
-647 c7 -17 15 -25 19 -19 4 7 15 2 30 -14 13 -14 31 -25 39 -25 9 0 21 -10
26 -22 11 -26 67 -40 100 -25 17 6 20 16 18 50 -2 40 -2 41 9 15 14 -33 51
-38 80 -11 17 15 18 14 24 -16 4 -17 11 -34 17 -38 6 -3 7 -1 3 5 -4 7 -1 12
6 12 7 0 27 14 45 30 30 29 61 41 48 20 -3 -6 1 -17 10 -26 15 -15 20 -14 65
14 28 17 50 29 50 25 0 -3 -18 -24 -41 -46 -39 -40 -40 -41 -33 -94 4 -35 3
-53 -4 -53 -6 0 -13 4 -16 9 -4 5 -26 19 -50 31 l-44 21 -45 -21 c-42 -20 -45
-24 -56 -78 -6 -31 -15 -119 -21 -194 -6 -75 -15 -150 -22 -165 -6 -15 -11
-31 -10 -35 1 -5 -1 -8 -5 -9 -39 -2 -104 -12 -128 -19 -69 -19 -106 -20 -160
-5 -45 13 -62 14 -91 5 -48 -16 -64 -8 -64 35 0 31 -3 35 -26 35 -14 0 -34 5
-45 11 -16 8 -30 3 -82 -34 -34 -25 -78 -59 -97 -76 -19 -17 -56 -45 -81 -62
-55 -37 -55 -35 -3 -210 33 -113 58 -262 35 -214 -5 11 -10 15 -10 9 -2 -18
-74 -47 -128 -50 -57 -3 -62 2 -43 51 6 16 6 32 0 43 -5 9 -12 31 -16 47 l-7
30 -7 -25 c-5 -14 -8 -19 -9 -11 -1 11 -4 11 -16 1 -8 -7 -15 -9 -15 -5 0 5
-8 -1 -17 -12 -10 -11 -26 -22 -36 -26 -15 -6 -17 -13 -12 -39 4 -18 13 -45
21 -59 8 -16 11 -41 7 -63 -5 -30 -3 -36 12 -36 13 0 16 -5 11 -22 -3 -13 -6
-30 -6 -38 0 -8 -11 -27 -25 -42 -15 -16 -21 -29 -15 -33 6 -4 8 -23 5 -43 -3
-20 -2 -31 1 -24 9 20 36 -36 29 -59 -4 -11 7 -46 24 -81 16 -35 39 -88 51
-118 12 -30 26 -60 31 -66 15 -18 59 -143 59 -168 0 -13 7 -37 15 -52 19 -36
19 -67 2 -62 -8 2 -34 27 -58 57 -24 30 -49 56 -55 58 -7 2 -6 -35 3 -119 14
-134 25 -453 15 -443 -3 3 -8 18 -9 33 -2 15 -10 74 -18 132 -8 58 -19 146
-25 197 -5 50 -13 99 -16 107 -8 21 -28 20 -60 -1 -35 -23 -185 -20 -277 6
-37 10 -67 15 -67 11 0 -3 -26 -14 -57 -24 -54 -17 -93 -47 -120 -91 -6 -11
-12 -15 -12 -9 -3 46 113 132 189 139 56 5 82 16 76 32 -3 8 -1 11 4 8 6 -3
10 -2 10 4 0 5 16 15 35 22 19 7 35 16 35 19 0 4 18 15 40 26 22 10 40 22 40
27 0 4 5 7 12 7 13 0 89 49 100 65 25 34 -8 33 -44 -2 -37 -35 -36 -15 2 40
l30 44 -15 54 c-25 91 -45 198 -45 247 -1 80 -56 323 -104 453 -24 68 -130
225 -173 259 -28 22 -58 26 -68 10 -5 -8 -12 -7 -23 2 -12 10 -14 10 -8 1 4
-8 1 -13 -9 -13 -9 0 -13 -4 -10 -10 3 -5 -3 -10 -14 -10 -12 0 -36 -21 -63
-57 -24 -32 -52 -59 -62 -61 -10 -2 -31 -19 -47 -37 -35 -39 -114 -65 -135
-43 -22 23 -27 63 -9 78 14 12 15 10 6 -13 -19 -50 48 -64 77 -16 12 19 11 24
-9 45 l-23 25 29 24 c17 13 33 24 36 25 4 0 14 16 23 35 9 19 35 56 57 81 22
26 47 58 56 71 30 46 25 13 -8 -52 -48 -93 -28 -105 36 -20 49 65 72 82 39 28
-12 -19 -2 -12 29 20 26 26 50 47 54 47 5 0 19 20 32 45 30 56 45 59 24 5 -13
-33 -14 -43 -3 -53 10 -9 13 -9 17 1 3 6 9 12 15 12 5 0 16 7 24 15 9 8 25 15
37 15 11 0 35 13 52 29 46 45 145 101 179 101 48 0 109 82 93 124 -8 19 17 53
27 38 11 -18 26 -14 26 7 0 25 25 34 41 14 41 -48 97 -31 129 40 l18 41 1 -64
c0 -35 4 -67 9 -72 5 -5 20 8 36 33 34 51 44 44 21 -16 -10 -25 -16 -48 -13
-50 11 -12 101 26 125 52 16 16 28 23 30 16 7 -21 -17 -53 -40 -54 -12 0 -17
-3 -11 -5 14 -6 114 20 152 40 43 22 109 103 127 155 23 68 19 147 -11 211
l-25 55 40 -39 c22 -21 45 -52 52 -68z m3052 15 c4 -21 2 -39 -3 -41 -5 -2 -5
-13 1 -28 13 -36 11 -47 -6 -40 -11 4 -15 -1 -15 -17 0 -17 2 -19 10 -7 14 22
23 5 10 -19 -7 -14 -7 -21 0 -21 15 0 12 -36 -5 -69 -20 -39 -188 -174 -255
-205 -82 -38 -167 -36 -231 5 -70 45 -93 86 -86 158 3 37 0 69 -9 91 -17 38
-11 49 16 32 26 -16 31 -15 23 4 -6 16 34 52 51 46 5 -2 26 4 47 12 44 18 46
14 23 -39 -12 -29 -18 -35 -24 -24 -7 11 -12 11 -21 2 -10 -10 -9 -14 4 -19
23 -9 21 -29 -5 -54 -21 -19 -22 -19 -38 -2 -9 9 -22 26 -29 37 -7 11 -10 13
-8 5 2 -8 -2 -30 -9 -49 -8 -19 -11 -37 -8 -40 4 -3 9 0 11 7 8 21 68 13 124
-18 30 -16 69 -30 87 -30 39 0 101 30 158 76 40 32 41 35 47 107 6 89 25 157
43 157 8 0 11 -6 8 -15 -4 -8 -1 -15 6 -15 6 0 8 -5 4 -11 -4 -8 1 -9 17 -4
13 4 27 12 30 18 4 5 9 1 12 -9 4 -14 5 -13 6 7 0 14 -4 30 -11 37 -9 9 -9 12
4 12 10 0 17 -13 21 -37z m-163 -609 c0 -30 -12 -89 -30 -142 -32 -98 -36
-117 -20 -107 6 3 10 4 10 1 0 -2 3 -12 7 -22 4 -11 3 -15 -4 -11 -10 6 -20
-23 -26 -77 -2 -20 -2 -20 86 -62 31 -15 62 -33 68 -41 6 -7 -15 1 -47 17 -62
31 -79 36 -69 20 7 -12 3 -12 -19 -4 -9 3 -16 12 -16 20 0 16 -35 54 -50 54
-5 0 -10 5 -10 10 0 12 -67 14 -73 3 -2 -5 -7 -36 -11 -69 -6 -52 -4 -65 11
-80 17 -17 17 -18 -1 -11 -17 7 -18 3 -14 -53 4 -55 -2 -74 -17 -51 -3 6 -6
48 -7 95 l-2 85 -125 -3 c-70 -2 -135 -8 -146 -13 -11 -6 -51 -26 -89 -44 -38
-17 -83 -41 -100 -53 -77 -52 -180 -142 -195 -168 -32 -59 -38 -63 -33 -22 5
43 39 81 174 198 76 65 162 112 246 135 l42 12 2 92 2 92 3 -93 c3 -80 6 -93
19 -88 9 3 58 6 110 6 91 0 94 1 100 25 5 20 -3 35 -40 77 -26 29 -46 63 -46
75 0 13 2 23 4 23 3 0 29 -25 58 -56 76 -82 168 -120 168 -71 0 12 7 54 16 92
35 154 38 173 33 220 -1 11 -1 34 0 50 2 29 2 29 16 11 9 -12 15 -42 15 -72z
m-3955 -805 c-14 -41 -33 -112 -41 -159 -27 -152 -45 -224 -55 -209 -7 12 -9
12 -9 0 0 -11 -22 -12 -118 -8 -95 3 -126 9 -161 26 -37 19 -42 25 -35 44 4
12 8 51 9 87 2 88 3 91 26 47 11 -21 32 -42 47 -48 32 -13 101 -5 142 16 42
22 150 114 157 133 21 63 57 151 61 148 2 -2 -8 -37 -23 -77z m3907 -36 c5
-43 -4 -52 -102 -111 -86 -53 -107 -62 -159 -72 -110 -21 -291 73 -289 150 1
17 5 33 9 36 5 3 6 -3 2 -12 -4 -12 -3 -15 5 -10 7 4 12 2 12 -3 0 -6 -4 -11
-10 -11 -5 0 -10 -6 -10 -12 1 -7 9 -3 19 10 24 28 27 28 45 -7 20 -38 73 -61
163 -72 67 -9 79 -7 136 15 45 19 76 40 112 80 28 29 53 54 56 55 4 0 9 -16
11 -36z m488 -85 c0 -6 -3 -8 -7 -5 -3 4 -11 3 -17 -2 -6 -4 -51 -21 -101 -36
-49 -16 -91 -32 -93 -37 -2 -4 -8 -8 -14 -8 -13 0 -80 -41 -76 -46 2 -1 30 6
62 17 33 10 61 17 63 15 2 -1 -31 -18 -72 -36 -42 -18 -115 -56 -163 -84 -48
-28 -108 -63 -134 -76 -51 -27 -59 -43 -30 -59 14 -7 36 -1 93 28 82 42 173
75 191 69 6 -2 -11 -12 -38 -23 -27 -10 -86 -38 -132 -62 -76 -40 -135 -55
-130 -34 3 10 -6 12 -24 7 -7 -3 -19 -6 -26 -8 -8 -2 2 -18 25 -43 21 -22 39
-39 41 -37 2 2 15 -9 30 -24 19 -19 22 -25 9 -21 -11 4 -16 3 -12 -3 9 -15 21
-12 41 8 17 16 18 16 11 -2 -4 -10 -2 -26 5 -35 12 -14 11 -15 -5 -2 -15 12
-20 12 -30 1 -8 -8 -8 -11 -1 -7 22 13 29 -19 23 -113 -3 -52 -6 -79 -7 -59
-6 117 -48 213 -129 299 -18 19 -33 38 -33 43 0 5 -7 7 -15 3 -27 -10 -16 22
19 56 19 18 53 44 76 58 23 14 72 47 109 74 79 59 157 95 294 137 56 17 120
37 142 44 51 17 55 17 55 3z m-1300 -190 c177 -52 375 -81 428 -63 16 6 16 8
-13 -61 -15 -34 -24 -47 -22 -31 3 18 0 26 -7 24 -6 -2 -12 -13 -14 -25 -2
-12 -7 -22 -12 -22 -5 0 -16 -3 -26 -7 -14 -5 -16 -2 -10 20 4 16 2 27 -4 27
-43 0 -226 35 -270 51 -58 21 -100 53 -100 75 0 8 -12 21 -27 29 -16 9 -19 13
-8 9 11 -4 49 -15 85 -26z m561 -129 c-25 -43 -49 -78 -52 -79 -4 0 -9 10 -13
23 l-6 22 -18 -23 -18 -23 -11 34 c-8 28 -7 42 7 73 21 44 36 52 106 52 l50
-1 -45 -78z m2259 -292 c0 -5 15 -29 33 -54 l32 -46 5 64 5 64 13 -45 c22 -78
74 -194 96 -214 11 -10 20 -22 19 -26 -1 -5 4 -14 12 -20 8 -7 15 -9 15 -5 0
5 9 0 20 -10 29 -26 99 -26 114 0 6 11 19 26 29 33 9 7 17 21 17 31 0 43 16
28 27 -26 8 -44 8 -61 0 -72 -19 -23 -89 -51 -129 -51 -21 0 -38 -4 -38 -10 0
-5 6 -10 13 -10 8 0 8 -3 1 -8 -5 -4 -10 -36 -10 -72 0 -36 -6 -86 -14 -113
-13 -43 -13 -50 2 -75 10 -15 24 -26 32 -26 8 1 12 -4 10 -11 -5 -12 23 -14
43 -2 6 4 18 5 26 1 11 -4 19 10 32 53 26 91 44 138 60 159 13 18 14 16 21
-24 7 -47 24 -67 24 -29 0 14 7 30 15 37 8 7 15 21 15 32 0 12 4 17 12 12 7
-5 9 -2 5 9 -3 9 0 18 9 21 23 9 46 75 42 118 -2 21 -1 38 2 38 17 -1 190
-279 190 -306 0 -6 6 -17 14 -23 8 -7 33 -44 57 -84 79 -135 144 -232 207
-310 77 -95 108 -155 117 -227 13 -111 68 -255 117 -307 42 -45 139 -54 208
-18 26 14 75 65 62 65 -4 0 0 4 8 10 8 5 11 12 7 16 -4 4 -14 -1 -21 -12 -8
-10 -17 -16 -20 -13 -4 3 3 17 14 30 11 13 42 93 70 177 43 131 152 407 166
421 3 3 14 0 25 -7 11 -7 23 -10 28 -8 18 12 43 119 38 164 -4 37 0 57 20 96
24 47 164 229 238 308 49 53 54 82 20 115 -44 44 -48 60 -20 65 13 3 22 1 19
-3 -3 -5 2 -6 10 -3 9 3 16 10 16 16 0 5 5 6 12 2 6 -4 17 1 25 12 12 16 15
17 24 4 8 -11 12 -12 16 -2 2 6 9 12 14 12 13 0 -7 -36 -49 -87 l-34 -43 22
-92 c12 -51 31 -107 42 -125 27 -46 117 -123 149 -130 15 -3 43 -24 65 -50 55
-64 168 -141 247 -167 11 -3 15 -11 11 -17 -5 -8 -3 -9 5 -5 7 5 20 1 29 -7 9
-8 55 -22 102 -32 96 -19 108 -24 89 -37 -18 -11 -139 0 -209 19 -64 18 -114
50 -240 152 -102 83 -237 165 -243 147 -3 -8 -9 -7 -20 3 -19 15 -23 1 -6 -16
12 -12 8 -20 -48 -80 -29 -31 -38 -34 -80 -33 -109 4 -114 -1 -54 -69 22 -23
41 -57 43 -73 5 -34 -36 -128 -55 -128 -13 1 -67 45 -67 55 0 3 6 5 14 5 22 0
66 40 66 60 0 52 -96 44 -155 -13 -42 -41 -85 -119 -85 -157 0 -25 7 -32 54
-55 39 -19 61 -24 82 -19 49 12 92 47 126 102 92 149 121 193 125 188 2 -2 -7
-26 -21 -53 -13 -27 -35 -84 -47 -127 -25 -86 -54 -117 -119 -131 -19 -4 -52
-17 -75 -29 -46 -24 -58 -27 -100 -31 -34 -2 -79 -38 -89 -72 -9 -27 -21 -29
-34 -7 -28 51 -50 -146 -34 -308 7 -68 12 -142 12 -166 0 -24 11 -76 24 -115
13 -40 26 -97 29 -128 6 -62 37 -133 62 -143 11 -4 24 2 36 16 35 43 19 4 -28
-65 -26 -38 -49 -65 -51 -59 -2 6 4 23 14 39 l17 28 -24 -26 c-28 -31 -107
-49 -121 -27 -6 10 -8 10 -8 1 0 -8 -13 -13 -30 -13 -16 0 -30 5 -30 11 0 6 9
8 20 4 11 -4 20 -2 20 4 0 6 -7 11 -15 11 -17 0 -20 25 -5 35 18 11 10 44 -15
61 -15 10 -38 15 -60 12 -19 -2 -35 0 -35 5 0 12 -62 -2 -81 -19 -8 -8 -21
-14 -28 -14 -18 0 -61 -30 -111 -78 -51 -48 -116 -82 -228 -118 -91 -29 -152
-56 -152 -67 0 -21 23 -47 42 -47 12 0 51 16 87 36 116 64 184 81 406 99 48 4
65 2 55 -5 -13 -8 -12 -10 3 -10 35 0 -22 -57 -86 -85 -55 -23 -92 -27 -57 -5
20 13 3 12 -21 0 -13 -7 -25 -7 -38 -1 -10 6 -48 11 -84 13 -36 1 -63 6 -60
11 9 15 -37 -1 -128 -46 -48 -23 -85 -37 -82 -31 3 7 -8 10 -31 8 -20 -1 -36
1 -36 5 0 10 -54 5 -78 -8 -11 -6 -30 -11 -41 -11 -10 0 -39 -8 -63 -19 -24
-10 -69 -22 -98 -26 l-55 -7 19 21 c11 11 29 21 41 21 13 0 29 7 36 16 12 15
11 16 -6 11 -26 -8 -90 -12 -91 -7 0 3 -6 16 -13 29 -11 19 -11 25 0 32 11 6
11 11 1 21 -12 12 -16 0 -15 -40 1 -8 -5 -11 -14 -8 -11 5 -13 2 -9 -10 3 -8
-1 -25 -9 -37 -8 -12 -15 -29 -15 -39 0 -14 5 -15 30 -8 39 11 38 5 -1 -16
-22 -11 -30 -21 -26 -34 3 -11 0 -26 -7 -34 -11 -16 -97 -34 -186 -40 -25 -1
-65 -10 -90 -18 -25 -9 -57 -14 -72 -11 -31 6 -233 -31 -305 -57 -29 -10 -65
-27 -80 -38 -16 -10 -68 -41 -118 -67 -114 -61 -224 -134 -295 -195 -92 -78
-201 -146 -280 -173 -145 -49 -182 -66 -227 -104 -24 -21 -54 -44 -66 -50 -12
-7 -18 -13 -14 -13 19 0 -31 -37 -131 -97 -138 -82 -176 -117 -167 -152 4 -14
9 -28 12 -31 2 -3 35 -5 71 -4 84 1 171 39 258 112 65 54 90 68 54 30 l-21
-23 35 -3 c19 -2 44 2 55 7 11 6 29 11 40 11 10 0 21 4 23 8 5 13 108 82 122
82 6 0 0 -10 -14 -21 -58 -47 -107 -72 -184 -95 -44 -13 -104 -40 -132 -58
-121 -81 -129 -83 -347 -89 -268 -8 -377 13 -445 87 -17 19 -21 30 -14 43 5
10 12 42 15 71 8 72 50 164 72 156 8 -4 22 -1 29 5 11 9 23 7 52 -9 49 -25 61
-25 123 3 49 21 57 30 66 77 5 27 -13 22 -109 -26 l-68 -35 -39 18 c-21 9 -39
20 -39 25 0 14 -55 36 -126 51 l-69 14 62 7 c81 10 135 30 144 52 4 11 8 15 8
9 1 -5 5 -3 11 5 5 9 5 19 -2 27 -6 7 -8 22 -5 33 3 11 2 18 -2 16 -4 -3 -15
8 -24 24 -10 16 -31 39 -47 50 -17 12 -28 25 -25 30 8 13 -40 20 -109 15 -85
-6 -207 -63 -301 -140 -104 -85 -164 -111 -245 -106 -36 2 -85 4 -108 5 -24 0
-38 2 -31 5 7 2 -11 10 -39 17 -79 20 -152 58 -200 104 -24 22 -48 38 -54 34
-6 -4 -8 -3 -5 3 10 16 -120 132 -173 156 -82 36 -113 47 -160 53 -19 2 -43 7
-52 10 -33 10 -9 -21 38 -51 45 -29 124 -103 124 -117 0 -16 -22 -7 -88 33
-37 23 -80 49 -97 58 -36 20 -201 88 -242 100 -31 9 -147 -6 -233 -29 -42 -11
-43 -13 -25 -26 11 -8 58 -26 105 -40 105 -31 287 -121 293 -145 3 -11 25 -24
61 -34 60 -18 70 -29 34 -39 -19 -5 -20 -8 -8 -15 10 -7 18 -4 28 10 12 17 21
19 68 14 30 -3 64 -10 76 -15 16 -6 5 -7 -35 -3 -47 5 -61 2 -77 -12 -11 -10
-17 -21 -15 -26 21 -33 229 -117 354 -142 78 -15 88 -32 25 -41 -117 -16 -135
-10 -267 85 -63 45 -98 52 -84 15 10 -25 -1 -19 -34 19 -73 82 -214 167 -308
185 -70 13 -113 -1 -134 -45 -24 -51 -21 -76 17 -158 52 -112 53 -117 18 -117
-16 0 -60 15 -98 34 -38 18 -103 49 -144 69 -41 19 -140 78 -220 130 -80 52
-149 93 -154 90 -4 -3 -11 -1 -15 4 -3 6 -25 20 -48 32 -43 21 -198 133 -265
191 -22 18 -44 51 -54 78 -10 26 -22 53 -27 60 -6 7 -6 12 0 12 5 0 19 -24 32
-54 16 -40 30 -57 49 -64 27 -9 126 -81 215 -155 25 -21 68 -47 95 -57 l50
-19 -10 40 c-6 22 -8 42 -5 46 3 3 51 0 107 -7 55 -7 103 -10 108 -6 12 13
-48 55 -148 103 -138 67 -262 138 -286 165 -25 27 -44 79 -44 121 0 43 38 117
67 130 23 10 28 8 54 -21 16 -18 29 -39 29 -47 0 -7 13 -22 29 -31 39 -23 31
-34 -17 -21 -21 5 -55 7 -75 3 -30 -6 -37 -11 -37 -31 0 -35 19 -49 153 -115
123 -61 159 -73 121 -42 -32 25 -51 62 -57 107 -3 22 -3 32 -1 23 3 -10 9 -18
13 -18 4 0 13 -17 20 -37 14 -37 49 -78 59 -68 3 3 -3 14 -13 25 -22 25 -9 26
19 2 23 -20 70 -37 129 -48 34 -6 40 -3 72 31 19 20 35 43 35 52 0 11 7 14 28
10 15 -3 45 -8 67 -12 l40 -7 -49 47 c-28 26 -60 51 -73 56 -13 5 -23 16 -23
25 0 16 -52 74 -67 74 -4 0 -14 9 -21 21 -8 12 -19 18 -28 15 -8 -3 -14 1 -14
8 0 8 -4 16 -8 18 -15 5 -59 111 -73 171 -12 54 -14 58 -51 69 -51 15 -84 47
-97 94 -13 49 -8 54 12 12 18 -37 23 -24 7 18 -8 19 -8 30 0 38 7 7 10 1 10
-18 0 -15 3 -25 8 -23 4 3 6 25 4 49 -1 23 -2 51 -3 61 0 20 -15 23 -23 5 -3
-7 -4 -4 -1 8 3 13 -2 28 -16 40 -43 39 -41 58 2 21 23 -21 47 -36 53 -34 5 2
20 34 32 71 12 37 42 97 68 134 25 37 46 73 46 80 0 8 5 10 12 6 8 -5 9 -2 5
11 -4 9 -3 23 2 29 15 18 18 102 4 93 -5 -3 -8 92 -8 210 0 118 -3 217 -7 220
-10 6 -10 33 0 33 4 0 15 -14 25 -31 10 -19 23 -29 31 -26 12 5 12 -2 0 -46
-41 -153 4 -257 110 -257 30 0 37 4 42 25 7 29 20 32 44 10 15 -14 18 -14 30
0 10 13 11 32 2 97 -17 114 -41 184 -77 221 -33 35 -50 67 -35 67 6 0 10 5 10
11 0 5 -4 7 -10 4 -5 -3 -10 1 -10 9 0 22 5 20 41 -16 l31 -33 -6 30 c-6 29
-6 29 10 10 9 -11 29 -46 44 -79 l29 -58 21 73 c12 41 24 82 26 92 3 10 28 43
55 74 27 31 49 61 49 66 0 6 2 8 5 5 3 -3 -8 -41 -25 -84 -16 -43 -30 -82 -30
-86 0 -11 33 -43 64 -63 27 -18 66 -12 66 9 0 8 6 19 14 25 10 9 16 8 26 -4
16 -19 30 -19 30 0 0 8 9 15 19 15 27 0 61 63 72 133 6 33 8 61 5 64 -2 2 -19
-16 -37 -41 -37 -52 -49 -57 -49 -21 0 33 48 84 85 91 25 4 36 0 58 -22 15
-14 27 -38 27 -51 0 -24 -84 -255 -164 -453 -24 -58 -46 -125 -50 -150 -4 -24
-12 -50 -18 -57 -6 -7 -8 -13 -5 -13 3 0 -8 -37 -24 -82 -17 -50 -29 -104 -29
-134 0 -33 -5 -56 -15 -64 -13 -11 -11 -18 18 -52 53 -66 69 -84 61 -68 -8 16
30 -11 52 -38 7 -7 27 -14 46 -15 19 -1 44 -12 56 -23 35 -33 111 -67 135 -60
14 3 41 -4 73 -21 46 -24 53 -25 66 -12 20 19 42 63 58 114 7 22 22 59 32 82
18 37 23 42 44 37 19 -5 33 1 57 24 17 16 52 48 77 70 l45 41 -65 30 c-36 17
-71 31 -78 31 -17 0 -7 38 17 63 15 16 26 17 88 9 l71 -8 13 45 c6 25 27 101
45 167 19 67 45 193 59 280 29 174 61 311 107 449 48 144 61 156 28 27 -10
-43 -26 -120 -35 -172 -22 -132 -77 -350 -87 -344 -4 3 -5 -1 -2 -9 5 -14 -69
-327 -82 -348 -3 -5 -1 -9 3 -9 5 0 7 -16 5 -35 -5 -41 8 -61 55 -80 54 -23
82 -5 84 55 1 31 2 32 8 10 9 -34 21 -5 14 34 -6 28 8 87 34 141 13 29 13 29
7 -20 -4 -27 -10 -54 -14 -60 -12 -16 -19 -55 -10 -55 4 0 16 30 25 68 9 37
20 74 23 82 3 8 11 35 18 60 l12 45 3 -40 c1 -22 1 -57 0 -79 -2 -27 1 -36 9
-31 6 4 9 13 6 21 -3 7 -1 16 4 19 6 4 11 16 11 28 1 17 2 18 6 5 6 -22 23
-24 23 -3 0 9 7 15 17 13 12 -2 19 9 28 47 6 28 19 67 28 88 9 20 24 53 33 73
12 27 16 73 17 185 1 82 5 149 9 149 4 0 10 26 14 58 4 31 11 67 15 80 7 17 6
21 -3 16 -8 -5 -9 2 -4 27 4 19 13 66 20 104 7 39 20 84 29 100 l15 30 7 -28
c8 -31 8 -31 -31 -277 -27 -173 -40 -310 -25 -275 4 11 18 83 30 160 12 77 37
196 54 265 l32 125 6 -75 c4 -41 14 -113 22 -160 8 -47 20 -137 27 -200 6 -63
15 -148 21 -188 5 -40 9 -117 9 -170 0 -53 7 -144 15 -201 15 -102 25 -139 25
-90 0 13 5 31 10 39 7 12 10 8 10 -15 0 -16 3 -41 7 -54 4 -17 3 -22 -5 -17
-8 5 -12 -1 -12 -16 0 -18 2 -20 10 -8 5 8 10 11 10 5 0 -5 5 -3 10 5 6 10 10
11 10 3 0 -7 7 -13 15 -13 8 0 15 -4 15 -8 0 -5 10 -8 21 -8 12 1 24 -5 27
-13 2 -8 0 -11 -5 -8 -5 3 -10 0 -10 -8 0 -22 15 -18 22 6 4 12 12 18 21 15
10 -4 14 3 14 22 0 15 5 34 10 42 17 26 12 -126 -5 -167 -17 -41 -20 -135 -5
-164 6 -10 11 -36 12 -56 0 -21 3 -41 5 -45 2 -4 23 0 46 9 77 28 111 35 202
42 89 6 90 6 88 32 -1 14 -20 65 -43 113 -34 73 -44 87 -61 83 -10 -3 -19 -1
-19 4 0 5 -4 9 -9 9 -6 0 -30 14 -54 30 -25 17 -49 30 -55 30 -5 0 -12 9 -15
20 -7 28 15 25 94 -13 60 -30 65 -30 62 -12 -1 11 -12 85 -24 165 -26 183 -45
262 -75 306 -29 43 -29 46 -3 70 18 16 20 26 14 69 -3 27 -10 54 -14 60 -20
24 -32 159 -37 410 -4 183 -3 267 4 260 21 -21 32 -156 26 -303 -10 -233 25
-411 140 -703 51 -132 78 -231 101 -369 20 -116 38 -175 81 -262 49 -97 46
-114 -18 -133 -29 -9 -86 -21 -125 -27 -69 -10 -73 -12 -74 -37 -1 -25 -1 -25
-7 -3 -8 27 -5 27 -63 12 -46 -12 -107 -56 -93 -69 4 -3 9 0 11 7 3 6 10 9 15
6 7 -4 8 -2 4 5 -8 12 22 8 72 -11 13 -4 27 -6 30 -4 10 6 206 -21 285 -39 82
-19 195 -59 262 -93 39 -19 209 -127 301 -190 12 -8 66 -38 107 -59 27 -15 29
-14 103 53 42 37 87 85 101 107 32 51 164 188 175 181 4 -3 8 0 8 7 0 7 8 9
21 6 14 -4 19 -2 15 8 -4 12 20 30 36 27 4 -1 24 7 43 18 41 23 45 24 45 9 0
-5 -6 -7 -12 -4 -7 3 -6 0 3 -6 14 -10 8 -16 -41 -41 -54 -26 -63 -37 -138
-152 -45 -69 -114 -162 -155 -208 -91 -103 -130 -154 -160 -207 l-24 -42 -59
48 c-32 26 -63 53 -69 60 -15 19 -146 113 -215 156 -34 21 -64 47 -67 57 -4
16 -78 58 -130 74 -13 4 -23 12 -23 17 0 5 -8 9 -18 9 -10 0 -26 6 -37 13 -29
19 -125 57 -145 57 -9 0 -27 11 -40 25 -13 14 -31 25 -41 25 -10 0 -21 5 -24
10 -3 6 -18 10 -33 11 -24 0 -25 1 -7 9 15 6 9 8 -22 7 -28 -1 -43 -6 -43 -14
0 -7 -7 -13 -15 -13 -8 0 -15 -5 -15 -11 0 -5 -5 -7 -10 -4 -6 3 -13 -1 -16
-9 -3 -9 -15 -16 -25 -16 -10 0 -19 -4 -19 -10 0 -5 -8 -10 -17 -10 -23 -1
-53 -23 -53 -40 0 -8 7 -21 16 -31 15 -17 18 -17 32 -2 23 22 138 11 239 -23
87 -30 117 -49 66 -42 -18 3 -29 0 -26 -5 3 -5 20 -7 38 -4 18 3 44 -1 58 -8
14 -7 42 -18 64 -25 21 -7 54 -27 73 -45 19 -18 62 -52 95 -76 33 -24 62 -47
65 -50 17 -19 332 -230 364 -243 98 -40 172 2 311 179 21 28 44 55 50 60 6 6
26 33 45 60 52 76 145 199 161 212 8 6 95 52 195 102 115 57 199 106 230 134
27 24 60 52 74 63 37 28 200 194 200 203 0 12 -38 21 -89 21 -32 0 -42 4 -38
13 8 22 151 208 195 254 l40 43 44 -45 c25 -25 52 -45 60 -45 17 0 98 78 98
95 0 17 -54 97 -84 124 -14 13 -35 44 -47 68 -19 40 -39 57 -39 32 0 -5 -5 -7
-11 -4 -12 8 -78 -63 -79 -85 0 -21 -50 -78 -50 -57 0 8 6 22 14 30 11 11 12
17 3 26 -14 14 -30 14 -21 -1 5 -8 0 -9 -17 -5 -13 4 -31 7 -39 7 -8 1 2 8 23
17 20 8 37 21 37 28 0 7 5 15 12 17 6 2 13 29 16 60 l4 56 -62 59 c-35 32 -97
103 -138 158 -42 55 -81 105 -88 112 -11 11 -44 86 -149 336 -18 42 -31 77
-28 77 3 0 16 -12 29 -27 19 -22 24 -24 24 -10 0 9 -5 17 -11 17 -6 0 -8 7 -5
15 3 9 0 25 -6 35 -10 15 -10 22 0 32 16 16 55 -19 48 -45 -2 -10 1 -29 8 -41
11 -22 13 -18 30 53 19 86 15 116 -21 173 -12 21 -23 44 -23 52 0 8 -4 17 -9
20 -4 3 -9 31 -10 62 0 31 -4 61 -7 67 -3 7 2 3 10 -7 9 -11 16 -24 16 -29z
m-2094 -256 c-20 -159 -20 -333 -1 -481 8 -63 18 -146 23 -185 5 -38 6 -90 3
-115 -6 -44 -7 -43 -19 40 -7 47 -12 113 -12 147 0 34 -4 106 -10 160 -32 318
-31 391 6 517 8 27 15 75 16 105 l2 56 3 -58 c2 -32 -3 -116 -11 -186z m3748
-214 c7 25 9 26 68 20 61 -5 93 -21 72 -35 -6 -4 -25 -29 -43 -55 -42 -62 -90
-117 -102 -117 -5 0 -14 10 -19 23 -5 12 -23 54 -39 94 -17 39 -31 86 -31 105
l1 33 43 -47 44 -48 6 27z m409 -864 c16 -5 18 -18 14 -157 -2 -83 -7 -162
-11 -176 -6 -19 -5 -21 3 -10 6 8 11 10 11 4 0 -5 -7 -19 -15 -30 -14 -19 -14
-19 -16 1 0 11 -7 -2 -14 -28 -7 -27 -20 -56 -29 -66 -9 -10 -16 -22 -16 -28
0 -6 -7 -16 -15 -23 -16 -13 -17 -19 25 109 25 79 34 206 23 329 -8 82 -7 92
7 86 8 -3 23 -9 33 -11z m-3692 -35 c0 -13 3 -17 6 -11 6 17 82 -41 117 -89
30 -41 46 -108 27 -108 -6 0 -11 -8 -11 -17 0 -12 -21 4 -63 47 -34 36 -72 72
-85 80 -21 13 -22 18 -13 43 6 16 8 39 5 53 -4 14 -2 24 5 24 6 0 11 -10 12
-22z m1833 -149 c-3 -5 0 -9 7 -9 7 0 9 -3 6 -6 -3 -4 -2 -15 4 -25 7 -15 6
-17 -6 -13 -11 5 -13 2 -9 -10 10 -27 -80 -135 -114 -136 -8 0 -10 -5 -6 -12
5 -8 2 -9 -10 -5 -11 4 -15 3 -10 -4 9 -16 -17 -29 -43 -22 -21 5 -33 -10 -15
-20 4 -2 1 -2 -6 0 -8 2 -27 -6 -43 -18 -16 -11 -33 -18 -37 -15 -5 3 -9 0 -9
-7 0 -7 -4 -21 -9 -32 -7 -20 -7 -20 14 -1 28 25 28 13 0 -19 -12 -14 -28 -23
-36 -20 -15 6 -65 -29 -55 -38 3 -4 14 3 25 15 10 12 21 19 24 16 5 -5 -32
-46 -70 -77 -15 -12 -16 -12 -10 5 6 16 5 17 -7 7 -18 -18 -34 -16 -19 2 6 8
9 22 6 33 -4 11 2 28 15 43 12 13 26 31 33 39 22 29 176 141 186 135 6 -4 7 1
3 11 -5 13 -2 15 17 9 19 -6 22 -4 17 9 -5 14 -3 15 12 6 15 -7 21 -6 27 8 4
9 6 25 5 34 -2 19 25 64 37 61 4 -1 6 7 4 19 -2 12 0 18 7 14 7 -5 11 4 11 23
0 20 6 31 18 34 18 4 45 -21 36 -34z m2413 -473 c2 -2 -3 -18 -12 -35 -15 -30
-15 -31 9 -43 41 -18 20 -28 -61 -28 l-76 0 7 63 c4 34 10 74 13 88 l5 26 55
-33 c31 -18 58 -35 60 -38z m-8282 -316 c24 -27 14 -55 -43 -119 -42 -47 -51
-53 -75 -47 -15 3 -27 11 -27 16 0 38 89 170 114 170 7 0 21 -9 31 -20z m5455
-629 c0 -6 -5 -13 -10 -16 -8 -5 -8 -11 0 -20 15 -18 -7 -31 -60 -34 -61 -3
-242 -46 -317 -76 -34 -14 -71 -25 -83 -25 -11 0 -61 -27 -110 -60 -49 -33
-93 -60 -97 -60 -4 0 2 6 13 14 10 8 16 18 12 22 -13 12 97 95 132 99 3 0 12
5 20 10 39 25 270 128 315 140 57 16 185 20 185 6z m-76 -300 l61 -6 -27 -19
c-16 -10 -74 -34 -130 -53 -99 -34 -109 -36 -258 -38 -99 -1 -167 -6 -188 -14
-62 -25 -42 -5 43 43 95 53 221 86 337 86 37 0 70 5 73 10 4 6 11 7 17 3 7 -3
39 -9 72 -12z m-6700 -917 c13 -13 15 -32 9 -116 -3 -59 -2 -99 3 -97 45 21
84 44 84 51 0 4 -9 12 -19 17 -18 10 -46 69 -37 78 7 7 70 -28 83 -46 34 -44
5 -109 -66 -145 -28 -15 -38 -16 -62 -5 -17 6 -34 20 -39 30 -6 10 -10 74 -10
144 0 121 1 125 19 115 11 -5 27 -17 35 -26z"/>
<path d="M5475 8929 c-33 -5 -76 -6 -97 -3 -20 3 -57 2 -82 -1 -36 -6 -46 -11
-46 -26 0 -17 8 -19 63 -19 35 0 108 7 163 15 71 11 193 15 429 16 182 1 322
3 313 6 -10 2 -18 9 -18 15 0 8 -27 8 -87 3 -96 -9 -454 -11 -530 -3 -26 3
-75 2 -108 -3z"/>
<path d="M5677 8883 c-1 0 -87 -4 -192 -8 -104 -3 -200 -9 -212 -12 -16 -4
-26 -17 -34 -47 -6 -22 -19 -68 -28 -101 -10 -33 -21 -78 -25 -100 -5 -34 -4
-37 7 -21 22 35 45 49 140 87 52 20 112 48 133 62 87 55 170 91 209 93 22 0
76 4 120 8 59 5 95 3 139 -9 32 -8 61 -13 64 -10 3 2 11 -3 18 -13 10 -14 15
-15 25 -4 7 6 20 12 28 12 11 0 10 -4 -5 -15 -22 -16 -19 -17 54 -20 42 -2 52
1 48 12 -3 8 -1 11 4 8 6 -3 10 3 10 14 0 12 5 21 10 21 6 0 10 7 10 15 0 7 8
19 18 24 12 8 -13 10 -90 10 -60 0 -108 -5 -108 -10 0 -5 -5 -9 -11 -9 -5 0
-7 5 -4 10 4 7 -50 9 -160 8 -92 -2 -167 -4 -168 -5z"/>
<path d="M5216 8861 c-6 -18 -10 -21 -17 -10 -7 12 -9 11 -9 -1 0 -13 -1 -13
-10 0 -8 13 -11 12 -25 -5 -28 -36 -42 -69 -84 -190 -31 -93 -41 -140 -45
-210 -6 -104 -36 -221 -73 -285 -30 -50 -26 -46 -109 -117 -33 -28 -72 -74
-87 -101 l-27 -49 25 -82 c13 -45 31 -89 40 -98 9 -8 14 -21 11 -28 -3 -8 4
-10 19 -7 13 2 26 9 28 16 2 6 3 4 2 -5 -1 -9 1 -23 6 -30 11 -18 6 29 -16
145 -9 49 -14 99 -11 112 3 12 32 56 64 96 132 167 164 233 227 474 20 77 52
185 71 242 20 56 34 115 32 130 l-3 27 -9 -24z"/>
<path d="M3032 8050 c3 -8 13 -42 23 -75 9 -33 20 -67 24 -75 11 -21 86 -61
103 -55 15 6 21 65 6 65 -4 0 -8 6 -8 14 0 12 -41 51 -134 126 -17 13 -19 13
-14 0z"/>
<path d="M3714 7379 c3 -17 19 -47 36 -66 33 -37 38 -53 15 -53 -8 0 -15 -5
-15 -10 0 -17 88 -107 110 -113 24 -6 34 29 16 63 -44 86 -79 146 -90 155 -7
6 -15 17 -19 25 -3 9 -6 10 -6 3 -1 -17 -31 -4 -31 13 0 8 -5 14 -11 14 -8 0
-9 -11 -5 -31z"/>
<path d="M2354 6562 c-7 -17 -8 -54 -3 -97 4 -39 8 -79 9 -90 0 -15 2 -17 9
-6 7 11 10 11 17 -2 7 -10 15 -12 32 -6 19 7 22 15 22 66 0 69 -9 105 -22 97
-6 -4 -8 1 -4 13 4 14 -2 23 -22 35 -28 17 -28 16 -38 -10z"/>
<path d="M2523 6323 c-7 -29 -14 -38 -31 -38 -29 -1 -80 -60 -88 -104 -9 -46
13 -109 48 -134 26 -20 27 -20 60 -1 43 25 65 73 85 178 20 109 15 131 -31
134 -32 2 -34 0 -43 -35z"/>
<path d="M5307 6439 c-26 -17 -47 -35 -47 -40 0 -6 -13 -15 -29 -20 -20 -7
-28 -15 -24 -25 3 -8 0 -14 -6 -14 -7 0 -25 -10 -41 -21 -16 -12 -35 -19 -43
-16 -8 3 -18 3 -22 -1 -4 -4 -10 -7 -13 -8 -30 -2 -72 -18 -72 -26 0 -6 -13
-8 -30 -6 -16 3 -30 1 -30 -3 0 -23 104 -26 176 -4 27 8 73 34 104 60 30 25
76 62 103 82 45 35 62 73 34 73 -8 0 -35 -14 -60 -31z"/>
<path d="M3250 3616 c-13 -36 -13 -86 2 -144 18 -73 58 -120 58 -68 0 14 6 31
14 38 27 28 27 54 0 93 -14 22 -34 55 -45 74 l-18 34 -11 -27z"/>
<path d="M3045 3203 c-92 -21 -98 -30 -66 -105 31 -73 94 -97 116 -45 6 12 20
23 33 25 12 2 22 5 22 7 0 6 -51 98 -63 113 -5 6 -12 11 -16 11 -3 -1 -15 -3
-26 -6z"/>
<path d="M4246 2848 c-9 -14 -21 -53 -26 -86 -6 -33 -25 -111 -44 -173 -18
-63 -36 -127 -39 -144 l-5 -30 148 0 c82 0 152 3 156 8 4 4 1 18 -6 32 -11 21
-11 28 1 42 20 24 37 65 49 117 5 23 12 51 16 61 5 11 4 16 -3 12 -17 -11 -53
23 -54 51 l-1 27 -8 -25 -8 -25 -1 28 c-1 31 -8 34 -27 10 -12 -16 -13 -16
-14 8 0 33 -9 42 -27 27 -11 -9 -15 -7 -20 10 -3 12 -12 22 -19 22 -8 0 -14 7
-14 15 0 8 -6 15 -14 15 -8 0 -16 6 -18 12 -3 8 -11 2 -22 -14z"/>
<path d="M3192 2679 c-44 -86 -44 -101 0 -115 12 -3 71 -39 132 -78 61 -40
138 -84 171 -98 80 -35 421 -148 447 -148 18 0 19 4 13 38 -4 20 -9 51 -12 67
-7 43 -19 53 -69 61 -24 3 -47 10 -50 15 -3 5 -17 9 -31 9 -15 0 -23 3 -20 7
8 8 -48 43 -69 43 -8 0 -26 7 -39 16 -14 9 -25 12 -25 6 0 -5 14 -15 30 -22
56 -23 25 -20 -42 4 -88 32 -107 43 -153 84 -7 6 -19 12 -25 12 -6 0 -8 5 -4
12 4 6 3 8 -3 5 -13 -8 -73 37 -143 107 -30 31 -57 56 -60 56 -4 0 -25 -37
-48 -81z"/>
<path d="M8296 2574 c-3 -9 -6 -28 -6 -42 0 -21 -2 -24 -10 -12 -8 12 -10 9
-10 -11 0 -15 -7 -32 -15 -39 -8 -7 -15 -16 -15 -21 0 -16 -63 -139 -71 -139
-4 0 -6 -11 -5 -25 1 -28 3 -28 66 -14 90 20 181 52 177 63 -2 6 -13 15 -25
21 -14 6 -22 19 -22 35 0 27 -18 81 -39 120 -8 13 -14 37 -13 52 1 32 -3 35
-12 12z"/>
<path d="M7906 2365 c-16 -25 -44 -37 -30 -12 9 15 -33 -19 -65 -53 -83 -88
-87 -120 -16 -120 45 0 80 14 109 43 17 16 16 17 -1 17 -15 0 -14 2 5 16 12 8
22 22 22 30 0 8 7 17 15 20 14 6 13 8 -2 19 -10 7 -21 11 -25 9 -5 -3 -8 -1
-8 4 0 5 9 12 21 15 12 3 19 11 17 18 -8 23 -25 20 -42 -6z"/>
<path d="M4103 2338 c-14 -19 -38 -82 -35 -92 2 -5 -2 -13 -9 -17 -7 -4 -9
-15 -5 -25 4 -11 10 -14 14 -8 31 43 110 55 197 29 44 -14 51 -14 65 1 13 14
13 15 0 14 -34 -5 -41 -1 -30 19 6 13 18 18 35 16 14 -1 28 1 30 5 8 13 -27
35 -51 32 -13 -2 -24 1 -24 6 0 5 -6 9 -12 10 -7 0 -31 5 -53 11 -55 14 -111
14 -122 -1z"/>
</g>
</svg>
