<?xml version="1.0" standalone="no"?>
<!DOCTYPE svg PUBLIC "-//W3C//DTD SVG 20010904//EN"
 "http://www.w3.org/TR/2001/REC-SVG-20010904/DTD/svg10.dtd">
<svg version="1.0" xmlns="http://www.w3.org/2000/svg"
 width="300.000000pt" height="300.000000pt" viewBox="0 0 300.000000 300.000000"
 preserveAspectRatio="xMidYMid meet">
<metadata>
Created by potrace 1.10, written by Peter Selinger 2001-2011
</metadata>
<g transform="translate(0.000000,300.000000) scale(0.100000,-0.100000)"
fill="#000000" stroke="none">
<path d="M1217 2978 c-30 -16 -43 -18 -61 -10 -24 11 -53 -1 -103 -41 -116
-95 -139 -117 -150 -148 -25 -76 -40 -109 -57 -127 -11 -13 -16 -32 -14 -58 3
-37 2 -39 -32 -44 -62 -9 -144 -4 -185 13 -49 19 -71 9 -97 -46 -18 -37 -37
-47 -97 -52 -82 -8 -127 -19 -143 -36 -29 -30 -22 -67 22 -115 25 -27 37 -49
34 -59 -4 -8 -1 -21 5 -29 6 -8 16 -50 21 -95 6 -52 18 -100 35 -132 14 -28
25 -59 25 -70 0 -10 -13 -55 -30 -100 -16 -46 -28 -84 -26 -87 7 -6 36 65 55
133 13 46 21 59 34 57 22 -4 22 12 0 29 -9 8 -27 38 -40 67 -19 43 -23 69 -23
150 l0 97 -55 50 c-45 41 -54 54 -49 73 6 20 13 22 73 23 39 0 92 9 131 22
l65 22 0 40 c0 37 2 40 25 37 14 -2 32 -10 40 -17 28 -25 71 -37 87 -24 7 7
35 13 61 14 26 2 69 10 96 19 74 24 79 22 74 -21 -5 -34 -2 -40 25 -58 35 -23
44 -41 25 -48 -7 -2 -6 -3 3 -2 9 1 16 -4 16 -11 0 -28 -39 -12 -51 21 -7 19
-8 19 -20 3 -24 -33 -35 -20 -32 36 2 38 -1 53 -9 50 -16 -7 -7 -125 12 -144
8 -8 13 -10 12 -5 -8 44 17 46 72 6 22 -17 47 -27 55 -24 10 4 12 0 8 -11 -4
-10 10 -31 40 -62 25 -25 46 -53 46 -61 0 -11 -4 -13 -12 -6 -18 14 -59 23
-52 12 3 -5 13 -9 23 -9 24 0 64 -39 57 -56 -3 -8 -1 -14 4 -14 6 0 10 6 10
13 1 6 10 -6 21 -28 29 -59 43 -67 19 -10 -12 27 -25 54 -29 60 -4 5 -20 42
-35 80 -45 112 -54 126 -106 170 -15 13 -21 15 -16 5 4 -8 1 -6 -8 4 -8 10
-13 23 -10 27 2 5 -7 27 -21 49 -14 22 -23 45 -19 51 8 14 -16 41 -32 35 -19
-7 -46 41 -38 67 4 12 8 27 8 32 2 20 59 106 77 116 11 5 17 14 14 19 -6 9 73
80 89 80 6 0 19 14 29 31 19 35 36 34 17 0 -10 -20 -9 -21 17 -15 15 3 48 14
73 24 36 14 88 19 261 25 153 5 219 4 223 -4 4 -7 -1 -11 -13 -11 -10 0 -41
-11 -68 -24 -26 -13 -68 -30 -93 -37 -25 -7 -49 -17 -55 -23 -5 -6 -19 -12
-30 -14 -56 -9 -75 -15 -86 -28 -28 -34 -58 -7 -34 30 12 18 13 26 4 32 -8 4
4 14 32 25 32 13 38 18 21 18 -27 1 -74 -27 -66 -40 7 -12 -15 -51 -37 -67
-39 -28 -160 -85 -166 -79 -3 4 6 23 20 44 14 20 24 41 20 46 -5 9 -27 -7 -29
-21 0 -4 -6 -20 -12 -35 -7 -16 -12 -39 -12 -51 0 -35 -21 -87 -32 -80 -18 12
-30 57 -16 66 9 5 9 8 1 8 -6 0 -14 8 -16 18 -3 10 -5 6 -6 -10 0 -16 -5 -27
-10 -25 -13 3 -13 -11 -1 -26 57 -67 199 -280 212 -317 6 -17 8 -48 5 -68 -3
-22 0 -49 8 -67 13 -28 13 -26 14 49 1 58 -9 122 -35 235 -20 86 -41 162 -47
169 -7 8 -7 16 -1 20 5 4 16 18 24 30 15 23 128 70 223 93 38 9 244 4 282 -7
33 -10 5 12 -37 30 -21 8 -38 11 -38 6 0 -4 -9 -6 -20 -3 -11 3 -17 9 -14 14
3 5 9 7 14 4 5 -3 11 -1 15 5 3 5 25 10 48 10 35 1 39 2 23 11 -14 9 -31 7
-68 -5 -78 -25 -79 -18 -3 20 76 39 58 38 250 15 l50 -6 -77 -33 c-42 -17 -94
-32 -115 -32 -31 -1 -35 -3 -20 -11 26 -15 93 -42 85 -34 -19 20 69 75 121 75
39 0 171 -47 206 -74 17 -13 45 -53 63 -89 18 -36 40 -71 48 -77 26 -23 16 24
-23 101 -40 78 -81 115 -156 140 -20 7 -42 18 -48 26 -6 7 -23 13 -37 13 -14
0 -33 7 -42 15 -9 8 -55 21 -104 28 -48 8 -93 20 -99 26 -7 7 -83 11 -241 10
-214 0 -234 -2 -269 -21z m-71 -293 c-1 -19 3 -35 8 -35 9 0 1 -84 -10 -101
-5 -9 -44 31 -44 46 0 5 8 14 18 21 16 12 15 13 -5 14 -20 0 -20 3 -11 33 6
17 12 38 14 45 2 6 10 12 18 12 10 0 13 -11 12 -35z m-259 -85 c17 -21 31 -29
43 -25 11 3 20 -1 24 -10 4 -11 2 -14 -6 -8 -7 4 -20 8 -29 8 -26 2 -69 34
-69 50 0 22 8 18 37 -15z m297 -89 c-5 -13 -8 -10 -14 9 -9 35 1 60 12 30 5
-13 6 -31 2 -39z m-806 -264 c2 -10 -3 -17 -11 -17 -16 0 -30 24 -19 34 10 10
27 1 30 -17z"/>
<path d="M1252 2895 c-28 -30 -30 -35 -12 -32 12 2 30 18 40 35 26 42 13 40
-28 -3z"/>
<path d="M1363 2883 c-16 -13 -14 -14 22 -8 58 10 77 23 33 23 -21 0 -45 -7
-55 -15z"/>
<path d="M1865 2824 c22 -9 54 -22 70 -29 17 -7 39 -16 51 -19 32 -10 75 -59
65 -75 -8 -12 -16 -10 -48 8 l-38 22 33 -28 c31 -27 42 -53 23 -53 -5 0 -12
-12 -15 -26 -4 -16 -18 -30 -36 -37 -17 -6 -30 -17 -30 -23 0 -7 -7 -14 -15
-18 -8 -3 -15 -1 -15 4 0 5 -8 10 -17 12 -13 2 -24 -9 -37 -37 -23 -51 -32
-32 -13 32 7 26 12 56 9 66 -4 21 -32 23 -32 1 0 -9 5 -12 12 -8 7 4 2 -6 -10
-23 -24 -34 -28 -48 -12 -38 7 5 10 -9 8 -39 -2 -25 -6 -46 -10 -46 -5 0 -25
-16 -47 -35 -43 -39 -51 -42 -51 -19 0 14 -3 14 -15 4 -27 -22 -17 7 15 43 17
19 30 38 30 42 0 3 13 25 28 48 47 70 49 74 22 54 -14 -9 -39 -24 -55 -33 -17
-8 -36 -27 -42 -41 l-13 -26 25 23 c15 14 25 18 25 11 0 -18 -32 -71 -43 -71
-4 0 -5 -5 -2 -10 3 -6 -4 -14 -17 -19 -13 -5 -30 -17 -38 -27 -13 -17 -12
-17 8 0 l23 20 -10 -25 c-5 -13 -16 -23 -25 -23 -10 1 -16 -6 -16 -20 -1 -20
-1 -20 -15 4 l-14 25 -1 -31 c0 -17 3 -33 6 -37 10 -10 62 21 74 44 7 13 17
18 27 15 19 -8 120 46 223 119 107 75 135 105 152 167 16 55 21 52 34 -17 3
-22 9 -34 11 -27 3 7 -1 35 -7 62 -14 56 -57 110 -89 110 -12 0 -36 6 -54 14
-18 7 -55 16 -82 20 l-50 6 40 -16z"/>
<path d="M1072 2767 c-25 -27 -28 -37 -9 -37 7 0 18 14 24 30 14 36 13 36 -15
7z"/>
<path d="M1465 2780 c-133 -13 -205 -43 -205 -84 0 -34 25 -50 78 -50 26 -1
50 -5 53 -10 4 -4 76 -3 163 4 136 10 162 15 203 37 27 14 55 35 65 47 15 19
15 21 0 32 -45 31 -190 41 -357 24z m290 -23 c11 -2 21 -10 23 -18 3 -19 -61
-59 -96 -59 -16 0 -54 -5 -86 -11 -39 -7 -62 -7 -69 0 -6 6 -18 6 -36 -1 -35
-13 -161 -2 -180 16 -30 30 24 58 144 76 48 7 259 5 300 -3z"/>
<path d="M1871 2754 c6 -16 11 -62 11 -103 0 -68 1 -73 14 -50 7 13 13 41 14
62 0 38 8 45 28 25 6 -6 14 -10 16 -7 2 2 -18 26 -45 53 -44 44 -49 46 -38 20z"/>
<path d="M960 2672 c0 -5 5 -13 12 -20 18 -18 1 -27 -20 -11 -10 8 -7 4 6 -8
31 -31 39 -29 34 6 -3 26 -32 54 -32 33z"/>
<path d="M2140 2671 c0 -5 -3 -18 -6 -28 -6 -17 -6 -17 8 1 14 18 38 15 38 -5
0 -5 25 -39 55 -76 31 -38 55 -78 55 -91 0 -13 14 -44 31 -69 27 -39 30 -48
20 -70 -15 -33 -7 -43 35 -43 26 0 34 -4 34 -18 0 -11 14 -25 35 -35 33 -16
36 -15 77 8 24 14 48 25 53 25 10 0 46 -71 59 -117 7 -22 56 -43 98 -43 10 0
38 -5 62 -12 38 -10 54 -9 99 5 30 9 66 17 80 17 17 0 27 5 27 15 0 12 -15 15
-77 14 -43 -1 -85 -5 -94 -10 -22 -11 -139 9 -160 28 -9 8 -24 34 -34 59 -23
60 -55 77 -108 58 -54 -19 -65 -18 -99 11 -16 14 -36 25 -44 25 -11 0 -13 6
-9 20 4 14 -3 36 -23 68 -16 26 -33 60 -36 75 -4 15 -20 47 -36 69 -17 23 -30
46 -30 52 0 10 -92 76 -105 76 -3 0 -5 -4 -5 -9z m733 -537 c9 -10 -4 -34 -19
-34 -8 0 -14 6 -14 13 0 22 19 35 33 21z"/>
<path d="M1040 2614 c0 -3 19 -43 43 -87 63 -120 109 -228 103 -243 -3 -7 2
-15 10 -18 17 -6 19 17 4 45 -6 10 -14 45 -19 77 -7 52 -9 55 -18 32 -10 -25
-10 -25 -18 10 -4 19 -27 70 -52 113 -41 71 -53 87 -53 71z"/>
<path d="M1236 2594 c3 -10 12 -33 20 -51 8 -17 14 -35 13 -40 -3 -20 2 -34
10 -28 5 3 13 0 17 -6 6 -11 8 -22 13 -69 1 -13 2 -13 11 0 5 8 10 45 10 83 0
53 3 67 15 67 8 0 15 7 15 14 0 11 -11 14 -41 13 -33 -1 -37 -3 -25 -13 18
-12 34 -74 20 -74 -20 0 -32 17 -45 58 -7 23 -18 47 -26 54 -11 9 -12 7 -7 -8z"/>
<path d="M1627 2560 c-21 -4 -43 -12 -49 -18 -6 -6 -16 -8 -23 -6 -7 3 -16 1
-19 -5 -4 -6 -14 -8 -24 -5 -16 5 -16 5 1 -9 9 -8 17 -19 17 -26 0 -19 17 -12
33 13 19 28 83 55 73 31 -7 -20 4 -18 32 4 37 32 31 35 -41 21z"/>
<path d="M2143 2563 c-15 -5 -17 -39 -4 -47 5 -3 11 7 14 22 6 31 6 31 -10 25z"/>
<path d="M1410 2515 c-27 -44 -49 -134 -49 -200 -1 -67 15 -40 18 31 2 62 43
185 49 146 l3 -23 21 26 c21 27 18 55 -6 55 -8 0 -24 -16 -36 -35z"/>
<path d="M2088 2532 c-3 -10 -29 -31 -59 -45 -29 -15 -54 -33 -55 -41 -1 -10
4 -13 14 -8 33 12 82 44 82 53 0 16 16 10 50 -21 37 -33 51 -39 28 -12 -8 9
-18 24 -22 32 -4 8 -13 25 -20 38 -12 21 -14 22 -18 4z"/>
<path d="M1993 2508 c1 -7 -5 -12 -13 -11 -9 2 -30 -11 -48 -27 -18 -17 -45
-37 -60 -45 -15 -8 -22 -14 -17 -14 14 0 102 48 90 49 -5 1 5 9 24 18 34 17
53 42 32 42 -6 0 -10 -6 -8 -12z"/>
<path d="M2220 2498 c0 -13 -4 -29 -9 -37 -9 -14 25 -58 37 -46 4 3 0 10 -7
14 -10 6 -12 19 -7 44 4 21 2 38 -4 42 -6 3 -10 -4 -10 -17z"/>
<path d="M1466 2475 c-3 -10 1 -15 13 -15 22 0 36 -26 18 -34 -7 -3 -6 -5 3
-5 26 -2 40 -53 23 -85 -17 -33 -9 -47 13 -24 23 23 9 121 -21 154 -26 28 -40
30 -49 9z"/>
<path d="M1567 2463 c-12 -11 -8 -20 11 -25 12 -3 24 2 31 13 10 17 8 19 -12
19 -13 0 -27 -3 -30 -7z"/>
<path d="M2004 2413 c-32 -13 -60 -20 -62 -15 -1 5 -29 -1 -60 -14 -31 -13
-66 -24 -77 -24 -23 -1 -97 -39 -77 -40 7 0 10 -5 6 -12 -5 -8 -2 -9 10 -5 10
4 30 10 44 13 15 3 85 26 156 50 126 43 131 44 184 33 58 -14 106 -44 96 -61
-5 -7 4 -9 24 -6 25 4 32 1 35 -16 3 -19 5 -18 17 7 11 22 11 33 2 48 -7 10
-12 26 -12 34 0 8 -4 15 -10 15 -16 0 -12 -40 5 -46 8 -4 12 -10 9 -15 -10
-17 -53 -9 -80 16 -14 13 -36 27 -48 31 -11 4 -27 11 -34 17 -23 18 -68 15
-128 -10z"/>
<path d="M1417 2423 c-3 -5 -7 -30 -11 -58 -8 -61 8 -40 18 23 6 39 3 52 -7
35z"/>
<path d="M1275 2405 c22 -61 26 -87 27 -160 2 -93 15 -59 17 43 1 53 -3 69
-25 100 -15 20 -23 28 -19 17z"/>
<path d="M802 2355 c-1 -29 9 -47 51 -95 29 -34 40 -41 49 -32 9 9 2 20 -31
48 -23 20 -48 50 -56 68 -10 23 -13 26 -13 11z"/>
<path d="M2034 2346 c-13 -11 -48 -26 -77 -34 -91 -24 -282 -60 -291 -55 -10
7 -126 -47 -126 -59 0 -4 -7 -8 -16 -8 -9 0 -28 -8 -42 -19 -15 -10 -49 -30
-77 -44 -27 -14 -56 -35 -63 -47 -12 -19 -11 -20 7 -11 10 6 21 14 23 18 5 13
160 90 218 108 30 10 60 21 65 25 18 13 88 22 80 11 -8 -14 -4 -14 39 4 33 14
40 13 37 -7 0 -4 23 0 52 9 56 16 147 63 147 76 0 4 8 7 18 7 9 0 30 10 46 23
26 21 26 23 7 23 -12 0 -33 -9 -47 -20z"/>
<path d="M547 2326 c-12 -13 -32 -26 -44 -30 -26 -8 -31 -26 -7 -26 9 0 12 5
8 11 -5 8 1 10 20 7 17 -3 26 -1 26 7 0 8 8 11 20 8 14 -4 20 0 20 10 0 8 -3
17 -7 20 -5 2 -3 2 4 1 7 -2 15 1 18 6 13 21 -37 9 -58 -14z"/>
<path d="M686 2338 c4 -7 14 -21 22 -30 14 -17 12 -18 -26 -18 -23 0 -42 4
-42 10 0 5 -7 7 -15 4 -33 -13 -12 -24 45 -24 64 0 66 1 50 31 -9 16 -7 19 12
20 22 1 22 1 -2 9 -38 12 -52 11 -44 -2z"/>
<path d="M395 2312 c6 -7 26 -15 45 -18 26 -5 32 -4 25 4 -6 7 -26 15 -45 18
-26 5 -32 4 -25 -4z"/>
<path d="M784 2277 c6 -46 25 -75 37 -55 4 7 4 15 -1 18 -5 3 -16 21 -25 40
l-16 35 5 -38z"/>
<path d="M2265 2270 c-16 -4 -53 -17 -80 -27 -29 -11 -65 -18 -86 -15 -19 2
-87 -5 -150 -16 -62 -11 -150 -23 -194 -27 -105 -8 -218 -40 -280 -77 -30 -19
-51 -26 -53 -19 -4 13 -22 5 -22 -10 0 -6 4 -8 9 -4 5 3 12 1 15 -3 13 -21
101 -9 151 19 52 29 102 31 91 3 -3 -8 -1 -14 5 -14 6 0 9 -7 5 -15 -3 -9 0
-15 10 -15 19 0 9 47 -17 76 -11 11 -19 24 -19 28 0 4 65 6 144 4 104 -2 139
0 125 7 -15 8 -1 11 59 13 110 3 223 21 252 41 14 9 41 23 60 31 69 26 52 40
-25 20z m-710 -157 c-29 -16 -71 -26 -59 -14 7 7 65 29 79 30 6 0 -3 -7 -20
-16z"/>
<path d="M423 2225 c6 -22 13 -31 18 -24 4 8 12 -5 19 -32 6 -24 20 -61 31
-81 11 -21 18 -42 14 -47 -3 -5 5 -20 17 -33 13 -13 33 -37 46 -52 13 -15 26
-26 29 -23 2 3 -5 15 -17 27 -24 24 -75 128 -67 136 2 3 12 -13 20 -35 18 -44
50 -71 85 -71 19 0 22 -4 17 -22 l-6 -23 14 23 c7 12 16 20 20 16 4 -4 2 -13
-5 -21 -9 -11 -4 -13 33 -8 24 4 54 8 67 11 20 4 22 2 13 -15 -10 -18 -9 -18
26 -8 35 11 35 12 12 18 -24 7 -24 7 4 8 15 1 27 -4 27 -10 0 -5 5 -7 12 -3
11 7 78 12 78 6 0 -7 -34 -37 -44 -38 -6 -1 -15 -2 -20 -3 -5 0 -3 -8 4 -15
10 -13 16 -10 40 18 22 25 38 33 66 34 21 1 43 -3 49 -8 7 -6 21 -2 39 9 l28
19 -128 8 c-71 5 -138 7 -149 6 -18 -3 -168 13 -221 24 -14 2 -27 19 -40 51
-10 27 -18 53 -19 58 -1 20 -26 55 -40 55 -8 0 -15 5 -15 11 0 5 4 8 9 5 5 -3
14 1 22 10 27 33 48 36 80 13 37 -26 31 -37 -8 -13 l-28 18 23 -26 c35 -38
120 -89 126 -75 2 7 5 2 5 -10 1 -15 6 -21 15 -17 8 3 17 1 20 -4 3 -5 -3 -12
-14 -15 -27 -7 -25 -25 5 -39 30 -13 43 -5 26 16 -7 8 -10 19 -7 24 6 10 -61
79 -72 75 -4 -2 -7 1 -7 6 0 5 -19 27 -43 50 -45 44 -77 51 -122 28 -19 -10
-27 -10 -35 -1 -5 6 -22 14 -37 18 -26 6 -26 6 -15 -29z"/>
<path d="M736 2243 c-3 -3 -1 -12 5 -20 15 -17 -4 -18 -23 0 -7 6 -26 13 -42
15 -28 3 -27 1 22 -37 28 -22 55 -48 61 -58 8 -13 10 -14 11 -4 0 8 -10 25
-22 38 -38 40 -2 25 50 -22 53 -47 68 -55 58 -30 -5 14 -4 14 16 0 29 -20 47
-20 22 1 -18 14 -18 15 -1 10 11 -3 31 -9 45 -13 24 -6 26 -5 13 10 -9 12 -29
17 -63 17 -46 0 -53 3 -97 49 -27 28 -51 47 -55 44z"/>
<path d="M925 2225 c0 -16 6 -25 16 -25 8 0 25 -11 37 -25 12 -14 27 -25 34
-25 7 0 -10 23 -37 50 -27 28 -49 50 -50 50 0 0 0 -11 0 -25z"/>
<path d="M2557 2213 c-22 -41 -22 -42 9 -53 32 -13 51 -3 28 14 -9 7 -15 17
-12 22 3 5 2 18 -2 29 -6 18 -8 17 -23 -12z"/>
<path d="M2352 2215 c-76 -33 -113 -81 -111 -144 1 -20 3 -27 6 -16 9 42 44
105 57 105 8 0 16 6 19 14 3 7 28 16 57 19 71 9 81 19 30 31 -14 3 -40 -1 -58
-9z"/>
<path d="M1000 2206 c0 -10 62 -48 91 -56 37 -11 34 -5 -13 20 -18 10 -32 23
-30 29 1 6 -9 11 -23 11 -14 0 -25 -2 -25 -4z"/>
<path d="M1224 2195 c2 -11 14 -45 26 -75 19 -51 20 -52 15 -15 -4 21 -16 55
-26 75 -11 19 -18 26 -15 15z"/>
<path d="M540 2196 c0 -22 35 -68 63 -82 31 -16 31 -15 -13 32 -25 27 -46 51
-47 53 -2 2 -3 1 -3 -3z"/>
<path d="M2521 2134 c-6 -15 -9 -29 -6 -32 2 -3 -1 -12 -8 -20 -10 -13 -9 -15
8 -8 11 4 34 13 50 18 33 12 66 38 48 38 -6 0 -14 -6 -16 -12 -4 -10 -6 -10
-6 0 -1 9 -9 9 -36 -2 -19 -8 -35 -11 -35 -5 0 5 4 9 8 9 4 0 8 9 9 20 2 27
-1 25 -16 -6z"/>
<path d="M1718 2118 c17 -17 99 -37 147 -37 l40 1 -40 9 c-22 5 -63 16 -91 24
-62 18 -72 19 -56 3z"/>
<path d="M1026 2095 c-3 -9 -19 -15 -41 -15 -23 0 -34 -4 -30 -10 4 -7 -2 -9
-17 -6 -12 3 -41 8 -63 11 -22 4 -50 9 -62 12 -21 5 -23 1 -23 -32 0 -21 4
-34 10 -30 6 3 10 15 10 26 0 21 26 25 50 8 13 -9 13 -10 -1 -6 -9 3 -22 1
-30 -3 -24 -15 -4 -20 36 -9 51 14 130 7 153 -15 12 -10 35 -16 63 -15 l44 0
-30 14 c-16 8 -48 17 -70 21 -40 7 -40 7 -12 16 15 5 24 14 21 20 -4 6 2 8 15
4 11 -3 30 -9 42 -12 l21 -6 -21 21 c-25 25 -56 27 -65 6z"/>
<path d="M2206 2101 c-4 -7 -26 -26 -48 -42 -39 -28 -46 -29 -143 -29 -101 0
-102 0 -98 -22 4 -21 9 -23 52 -20 42 3 49 1 54 -17 3 -12 0 -21 -5 -21 -6 0
-3 -9 7 -20 34 -37 45 -23 19 26 -40 75 -24 88 32 28 29 -30 34 -32 34 -15 0
11 -8 25 -17 30 -15 9 -13 10 12 11 36 0 89 31 105 60 13 24 9 53 -4 31z"/>
<path d="M2410 2104 c0 -5 64 -34 77 -34 4 0 -5 9 -22 20 -29 19 -55 26 -55
14z"/>
<path d="M2674 2101 c3 -5 -8 -11 -25 -15 -16 -3 -37 -13 -46 -22 -9 -8 -25
-13 -37 -11 -12 3 -30 1 -41 -3 -20 -8 -20 -9 1 -9 11 -1 24 -4 28 -8 18 -19
52 -12 82 18 23 23 39 30 54 26 21 -5 21 -5 4 14 -18 20 -29 26 -20 10z"/>
<path d="M2901 2016 c-92 -92 -93 -94 -65 -98 21 -2 30 -9 32 -25 2 -13 9 -23
17 -23 18 0 75 -49 75 -65 0 -7 7 -18 15 -25 11 -9 15 -32 15 -80 0 -73 -7
-103 -21 -94 -5 3 -9 0 -9 -6 0 -6 -11 -22 -25 -36 -14 -14 -28 -37 -32 -52
l-6 -27 28 30 c73 79 75 84 75 190 0 90 -2 102 -26 137 -15 20 -35 40 -45 43
-11 4 -27 17 -35 30 -15 23 -14 26 5 54 12 16 40 45 62 64 30 24 40 39 37 56
-3 19 -16 9 -97 -73z"/>
<path d="M2380 2096 c0 -3 16 -24 36 -45 l35 -40 -31 -16 c-17 -9 -35 -13 -40
-10 -5 3 -12 0 -15 -6 -13 -20 3 -20 44 0 22 12 42 21 45 21 2 0 17 -18 33
-39 26 -35 30 -38 40 -22 9 14 -2 28 -68 90 -44 40 -79 70 -79 67z"/>
<path d="M2031 2079 c-89 -11 -88 -19 2 -19 64 0 75 2 71 15 -4 8 -7 14 -8 14
0 -1 -30 -5 -65 -10z"/>
<path d="M2875 2060 c-16 -17 -16 -20 -2 -20 14 0 47 25 47 36 0 12 -29 2 -45
-16z"/>
<path d="M452 2050 c-1 -14 3 -32 8 -40 7 -12 11 -10 18 10 11 28 5 42 -8 21
-6 -11 -9 -8 -13 10 l-4 24 -1 -25z"/>
<path d="M2790 2052 c-44 -17 -60 -28 -60 -45 0 -5 7 -1 16 8 12 11 20 13 27
6 6 -6 18 -11 27 -11 13 0 13 1 0 10 -13 8 -13 10 1 10 9 0 24 9 34 20 21 24
15 24 -45 2z"/>
<path d="M2325 2034 c-16 -9 -42 -23 -57 -31 l-27 -14 21 -34 c21 -37 32 -46
21 -20 -3 11 10 31 41 58 61 57 62 74 1 41z"/>
<path d="M1290 2021 c0 -16 26 -31 36 -21 6 6 26 4 54 -5 25 -7 41 -14 35 -14
-5 -1 -3 -6 5 -11 8 -6 38 -8 65 -5 l50 5 -29 -16 c-15 -9 -38 -13 -50 -10
-20 5 -20 5 -2 -9 11 -8 29 -15 40 -15 18 0 19 2 6 11 -19 13 48 1 70 -13 11
-6 6 -8 -15 -3 -18 3 2 -11 49 -35 88 -45 92 -46 99 -25 4 9 -3 19 -18 27 -13
7 -60 34 -103 61 -67 40 -96 51 -183 67 -122 23 -109 22 -109 11z"/>
<path d="M1778 2022 c-16 -2 -28 -10 -28 -18 0 -17 -36 -19 -46 -2 -4 6 -3 8
4 4 6 -3 13 -2 17 4 4 6 -15 10 -52 10 -41 0 -54 -3 -43 -10 8 -5 23 -10 33
-10 9 0 17 -4 17 -10 0 -12 53 -13 100 -1 74 19 92 22 86 13 -3 -6 3 -12 14
-15 11 -3 20 -1 20 4 0 5 -6 9 -12 9 -10 0 -9 3 1 9 29 18 -21 24 -111 13z"/>
<path d="M505 1995 c5 -11 13 -40 20 -64 11 -40 12 -42 17 -19 3 17 -4 39 -20
64 -13 22 -21 30 -17 19z"/>
<path d="M1126 1991 c-10 -11 -15 -24 -12 -29 10 -16 -5 -43 -28 -52 -20 -8
-20 -9 -1 -9 14 0 30 16 52 54 32 55 25 76 -11 36z"/>
<path d="M2133 1973 c2 -21 -5 -30 -26 -41 -39 -19 -27 -26 14 -9 36 15 78 54
45 41 -10 -4 -16 -1 -16 9 0 9 -4 18 -9 22 -6 3 -9 -7 -8 -22z"/>
<path d="M2779 1985 c-52 -14 -69 -22 -69 -34 0 -4 29 2 64 13 99 32 102 48 5
21z"/>
<path d="M2220 1973 c0 -6 -19 -25 -42 -42 -36 -27 -39 -31 -19 -31 25 0 91
28 91 39 0 13 -29 46 -30 34z"/>
<path d="M1315 1942 c4 -9 11 -32 17 -50 5 -18 12 -30 16 -28 9 5 13 -22 13
-89 0 -42 2 -46 10 -26 5 14 9 41 7 61 -1 20 5 46 14 59 l16 22 10 -30 c6 -17
8 -46 5 -66 -4 -27 -2 -36 11 -41 9 -4 26 -24 37 -46 28 -54 33 -43 9 18 -10
27 -25 71 -33 97 -14 45 -14 47 3 32 9 -8 23 -15 31 -15 8 0 30 -11 49 -25 19
-14 41 -25 49 -25 9 0 25 -7 35 -15 14 -10 22 -12 27 -4 3 6 60 -43 136 -118
71 -70 149 -139 174 -152 38 -22 42 -22 29 -5 -8 10 -19 22 -25 26 -22 15 -59
46 -129 106 -93 79 -110 111 -41 80 14 -6 25 -15 25 -20 0 -4 6 -8 13 -8 19 0
97 -38 132 -65 17 -12 49 -32 73 -44 36 -19 42 -25 36 -44 -4 -12 -12 -25 -18
-29 -7 -5 -5 -8 6 -8 11 0 20 10 24 25 7 26 18 32 29 14 4 -6 14 -8 22 -5 32
13 4 -19 -36 -41 -42 -22 -43 -22 -16 -29 39 -10 136 -10 245 -1 l95 9 -36
-34 c-20 -18 -51 -46 -70 -61 l-34 -28 34 18 c19 10 57 39 85 66 41 39 56 47
87 47 20 0 50 7 65 15 16 8 37 15 47 15 11 0 30 9 44 20 17 13 41 20 71 20
l44 0 -27 -37 -26 -38 30 34 c16 18 27 39 25 46 -6 13 57 85 74 85 16 0 23
-30 11 -52 -6 -11 -9 -22 -6 -24 2 -3 15 21 28 53 13 32 36 71 52 86 24 24 31
26 45 15 13 -11 13 -9 -1 13 -10 14 -14 29 -10 33 5 4 3 6 -3 4 -6 -2 -21 8
-35 22 -13 15 -18 19 -11 10 25 -33 9 -85 -40 -134 -16 -15 -18 -14 -28 24 -6
22 -20 57 -32 76 -17 28 -19 40 -10 54 7 11 7 21 1 27 -6 6 -5 14 5 22 13 11
21 9 48 -10 l33 -24 -25 32 c-35 45 -49 48 -81 17 -23 -22 -26 -30 -17 -41 6
-8 11 -29 10 -47 -1 -25 4 -35 17 -39 25 -6 49 -91 31 -112 -19 -23 -28 -18
-46 23 -13 27 -18 32 -21 19 -3 -9 -19 -25 -36 -34 -19 -9 -27 -18 -19 -21 7
-2 19 1 27 8 10 9 19 9 36 0 l22 -12 -26 -24 c-14 -13 -32 -24 -40 -24 -8 0
-36 -12 -63 -26 -57 -31 -89 -42 -159 -54 -27 -5 -65 -12 -84 -16 -19 -4 -36
-2 -40 3 -4 7 -23 6 -56 -3 -93 -25 -234 -12 -163 15 35 13 92 32 103 35 54
12 193 63 205 74 12 13 12 14 -5 9 -96 -28 -171 -48 -227 -62 -62 -15 -68 -15
-92 0 -14 9 -30 14 -36 10 -5 -3 -10 -2 -10 2 0 5 -16 15 -36 22 -19 7 -50 25
-67 40 -39 33 -130 91 -143 91 -6 0 -32 14 -59 31 -27 17 -72 38 -99 46 -27 8
-59 21 -71 29 -12 8 -61 29 -109 48 -48 19 -100 43 -114 53 -15 10 -38 23 -51
30 -21 12 -22 11 -16 -5z"/>
<path d="M1930 1950 c0 -13 59 -17 64 -5 2 6 -10 11 -30 12 -19 0 -34 -3 -34
-7z"/>
<path d="M2317 1946 c-23 -18 -22 -21 8 -21 14 0 25 5 25 12 0 19 -14 22 -33
9z"/>
<path d="M1640 1943 c0 -5 19 -20 43 -35 33 -22 43 -24 45 -13 5 23 20 18 84
-22 60 -40 82 -74 32 -51 -22 10 -28 10 -39 -5 -8 -12 -15 -14 -20 -8 -3 6 0
11 7 11 7 0 0 9 -17 20 -38 25 -55 25 -55 2 0 -12 14 -25 40 -37 31 -14 39
-22 34 -37 -13 -42 56 0 91 56 23 36 36 47 64 52 31 6 18 11 -104 40 -136 33
-205 42 -205 27z"/>
<path d="M475 1909 c4 -5 9 -29 12 -52 2 -23 8 -58 13 -77 l8 -35 1 38 c1 38
21 44 21 6 0 -10 4 -19 10 -19 15 0 80 -91 80 -113 0 -11 7 -28 15 -37 10 -11
16 -38 16 -74 1 -31 5 -56 9 -56 4 0 2 -17 -6 -37 -16 -45 -17 -63 -5 -63 5 0
15 15 21 33 l13 32 8 -40 c4 -22 5 -49 3 -60 -2 -11 0 -33 5 -50 l8 -30 7 26
c4 14 1 59 -7 100 -50 248 -71 312 -122 371 -18 22 -41 57 -51 77 -9 20 -23
44 -32 54 -16 18 -37 24 -27 6z"/>
<path d="M1164 1883 c-3 -21 -15 -53 -25 -71 -19 -33 -26 -92 -11 -92 4 0 8
15 9 34 1 52 19 77 48 70 19 -5 25 -2 25 10 0 19 -27 86 -34 86 -3 0 -8 -17
-12 -37z"/>
<path d="M606 1872 c14 -35 19 -39 30 -27 8 7 14 19 14 26 0 7 -3 9 -7 6 -3
-4 -17 3 -30 14 l-23 22 16 -41z"/>
<path d="M2300 1898 c0 -11 23 -12 190 -9 14 0 50 0 80 0 86 -1 104 1 97 8
-10 9 -367 10 -367 1z"/>
<path d="M825 1891 c-6 -10 25 -31 46 -31 8 0 5 7 -6 20 -20 22 -31 25 -40 11z"/>
<path d="M664 1865 c-7 -17 3 -35 19 -35 7 0 6 4 -3 10 -27 17 1 25 30 8 16
-9 31 -14 34 -11 4 5 -60 43 -71 43 -2 0 -6 -7 -9 -15z"/>
<path d="M1260 1856 c0 -13 7 -26 15 -30 16 -6 20 10 9 38 -9 24 -24 19 -24
-8z"/>
<path d="M2060 1870 c-77 -7 -171 -40 -137 -48 9 -2 17 -7 17 -12 0 -4 7 -11
16 -14 8 -3 13 -2 10 3 -8 13 49 31 96 31 24 0 37 4 33 10 -4 6 17 10 57 9 65
-1 141 -15 103 -19 -11 -1 -14 -4 -8 -7 18 -7 87 17 76 27 -12 12 -109 30
-151 28 -20 0 -71 -4 -112 -8z"/>
<path d="M975 1840 c-4 -6 5 -10 19 -10 14 0 26 -6 26 -12 0 -9 3 -8 10 2 6 9
5 17 -3 22 -17 11 -45 10 -52 -2z"/>
<path d="M2345 1841 c-3 -6 2 -11 12 -11 11 -1 4 -8 -19 -21 -21 -11 -38 -21
-38 -23 0 -1 22 2 50 8 29 6 45 13 38 17 -21 13 0 22 37 15 l35 -7 2 -64 c1
-36 2 -73 2 -82 1 -15 -21 -23 -117 -45 -113 -25 -136 -33 -126 -42 5 -5 204
40 240 55 20 8 26 16 22 32 -4 20 -2 19 17 -5 12 -16 26 -28 32 -28 5 0 0 12
-11 26 -27 34 -27 48 -1 34 25 -14 131 6 143 27 10 16 39 17 55 1 17 -17 14 3
-3 26 -13 17 -13 22 0 42 27 42 15 46 -30 9 -29 -24 -29 -24 -5 -19 23 5 24 4
7 -9 -13 -11 -15 -16 -5 -19 15 -5 -107 -46 -137 -46 -26 0 -75 18 -75 28 0 4
12 7 28 7 30 0 128 19 143 28 18 11 9 22 -32 38 -38 15 -42 15 -71 -3 -17 -10
-38 -16 -46 -12 -13 5 -12 7 4 13 16 6 15 8 -8 8 -14 1 -28 5 -30 10 -5 14
-105 24 -113 12z"/>
<path d="M650 1821 c0 -7 -5 -9 -11 -5 -8 4 -8 0 0 -15 14 -25 23 -28 14 -3
-6 15 -5 15 10 3 9 -7 17 -27 17 -45 0 -20 7 -36 20 -44 17 -10 20 -10 20 3 0
8 -7 15 -15 15 -8 0 -15 5 -15 11 0 5 5 7 10 4 14 -9 13 1 -4 34 -18 33 -46
59 -46 42z"/>
<path d="M750 1809 l-25 -20 32 16 c36 17 61 14 128 -16 35 -16 42 -24 53 -66
7 -26 28 -82 47 -125 19 -43 37 -89 39 -103 6 -30 25 -66 26 -47 0 28 -32 129
-62 194 -30 64 -31 69 -15 86 18 20 24 92 7 92 -5 0 -10 -18 -10 -39 0 -22 -5
-43 -11 -47 -9 -5 -10 4 -4 32 4 21 4 36 0 33 -3 -4 -28 2 -56 12 -64 25 -117
24 -149 -2z"/>
<path d="M1079 1789 c-13 -11 -19 -18 -12 -15 7 4 9 -1 6 -15 -5 -16 -8 -18
-15 -7 -8 10 -9 10 -6 -1 8 -27 23 -21 46 19 25 44 17 51 -19 19z"/>
<path d="M1194 1775 c-9 -36 0 -41 26 -15 18 18 20 24 9 31 -22 14 -28 11 -35
-16z"/>
<path d="M2077 1794 c-6 -7 -97 -18 -144 -18 -60 1 -76 -17 -41 -46 25 -20 40
-18 32 4 -4 9 7 16 33 20 21 4 45 9 54 12 11 3 15 -2 15 -17 -1 -17 9 -25 49
-39 28 -10 79 -31 115 -48 35 -17 66 -29 69 -27 6 6 7 5 -62 49 -32 20 -55 41
-52 46 3 6 4 10 0 10 -3 0 -9 -9 -13 -20 -8 -20 -9 -20 -50 10 -53 38 -55 54
-4 47 21 -3 50 0 67 7 l30 13 -47 0 c-26 0 -49 -1 -51 -3z"/>
<path d="M2165 1775 c-33 -13 -55 -24 -49 -24 18 -1 104 30 110 40 6 11 11 12
-61 -16z"/>
<path d="M2196 1751 c-27 -6 -27 -7 -10 -22 29 -25 55 -36 107 -43 39 -6 47
-5 47 9 0 22 -57 44 -100 38 l-35 -4 25 15 c26 16 15 18 -34 7z"/>
<path d="M750 1731 c0 -36 12 -51 39 -50 l26 1 -27 10 c-35 12 -36 27 -3 23
24 -2 25 -1 9 16 -22 24 -44 24 -44 0z"/>
<path d="M1308 1744 c-5 -4 -8 -22 -8 -41 0 -33 0 -33 24 -18 23 15 25 15 29
-2 4 -14 5 -13 6 5 1 15 -5 22 -18 22 -12 0 -21 8 -23 21 -2 11 -6 17 -10 13z"/>
<path d="M2360 1736 c19 -7 43 -17 53 -21 13 -5 17 -2 17 14 0 19 -6 21 -52
21 l-53 -1 35 -13z"/>
<path d="M510 1702 c0 -22 5 -44 10 -47 7 -4 8 8 4 37 -9 57 -14 61 -14 10z"/>
<path d="M351 1723 c1 -5 0 -10 -1 -13 -1 -3 -3 -12 -5 -20 -1 -9 -15 -52 -30
-98 -26 -80 -39 -97 -104 -142 -11 -8 -28 -35 -36 -60 -11 -32 -32 -60 -73
-96 -31 -28 -67 -54 -80 -58 -13 -4 -22 -15 -22 -27 0 -20 1 -20 33 2 17 13
62 52 100 88 50 48 67 71 67 91 0 30 20 51 66 69 33 13 38 26 101 254 2 9 0
17 -6 17 -6 0 -10 -3 -10 -7z"/>
<path d="M426 1642 c-7 -85 -5 -114 9 -100 3 3 4 48 3 99 l-3 94 -9 -93z"/>
<path d="M1440 1703 c0 -38 -3 -40 -30 -13 -27 27 -37 25 -42 -9 l-4 -29 55 5
c31 3 57 7 59 8 2 2 -6 18 -17 36 l-21 34 0 -32z"/>
<path d="M1680 1699 c0 -9 9 -28 20 -42 11 -14 20 -35 20 -46 0 -17 6 -21 33
-21 l32 0 -23 18 c-12 10 -36 38 -52 62 -17 25 -30 38 -30 29z"/>
<path d="M696 1686 c3 -9 12 -16 20 -16 8 0 14 -10 14 -22 0 -19 -2 -20 -10
-8 -17 26 -11 1 9 -38 10 -20 24 -56 31 -80 6 -24 14 -50 17 -59 4 -11 2 -14
-5 -9 -6 3 0 -25 13 -64 23 -67 23 -70 5 -70 -21 0 -24 8 -39 94 -13 73 -13
69 1 60 8 -5 9 -2 3 12 -4 10 -16 41 -26 68 -23 62 -29 67 -29 25 0 -27 3 -31
11 -19 8 12 9 10 5 -10 -3 -14 5 -82 18 -150 13 -69 25 -117 25 -107 1 22 20
21 49 -1 14 -11 29 -40 38 -77 18 -66 43 -121 44 -93 0 9 -14 56 -31 104 -17
48 -32 95 -34 103 -45 221 -82 339 -113 359 -20 13 -22 13 -16 -2z"/>
<path d="M2034 1678 c-11 -11 -28 -24 -39 -29 -15 -7 -11 -8 15 -4 18 3 37 10
41 16 5 8 8 8 13 0 4 -6 4 -11 -1 -11 -4 0 3 -6 17 -13 13 -7 27 -22 30 -34
l5 -22 50 23 49 23 -33 17 c-18 10 -35 15 -38 12 -3 -3 2 -8 11 -12 20 -8 21
-20 1 -28 -28 -10 -45 3 -35 30 5 13 8 24 6 24 -2 0 -19 7 -39 15 -32 13 -36
13 -53 -7z"/>
<path d="M1034 1665 c-8 -20 16 -106 27 -99 4 2 6 11 3 19 -10 25 6 38 22 18
12 -14 12 -11 -1 14 -21 44 -19 57 5 33 11 -11 25 -20 30 -20 6 0 10 -11 10
-24 l0 -24 29 27 29 26 -52 18 c-77 27 -96 30 -102 12z"/>
<path d="M2380 1669 c-14 -6 -38 -8 -55 -5 -22 4 -26 3 -15 -4 8 -5 24 -9 35
-9 28 1 104 27 80 27 -11 1 -31 -4 -45 -9z"/>
<path d="M775 1650 c3 -14 10 -41 15 -60 4 -19 12 -46 18 -60 l10 -25 12 30
c19 48 23 91 10 111 -9 16 -11 13 -6 -18 6 -45 -10 -60 -24 -23 -6 15 -17 37
-26 48 -16 22 -16 22 -9 -3z"/>
<path d="M1238 1643 c-10 -2 -18 -10 -18 -18 0 -13 10 -14 40 -2 8 3 29 10 45
15 30 10 30 10 -10 10 -22 0 -48 -2 -57 -5z"/>
<path d="M882 1605 c-16 -35 -15 -37 8 -23 11 7 20 21 20 30 0 26 -15 22 -28
-7z"/>
<path d="M1357 1619 c-40 -6 -277 -191 -277 -216 0 -14 26 5 157 114 94 79
102 81 219 74 80 -5 106 -10 123 -25 28 -25 27 -39 -4 -34 -14 3 -22 1 -18 -5
7 -11 75 -3 119 13 l29 12 -27 14 c-16 8 -28 18 -28 23 0 5 -10 12 -22 16 -34
10 -231 21 -271 14z m269 -44 c23 -22 6 -40 -17 -19 -10 9 -19 21 -19 26 0 13
20 9 36 -7z"/>
<path d="M2505 1621 c-29 -7 -28 -7 13 -12 25 -3 41 -1 39 5 -4 13 -17 15 -52
7z"/>
<path d="M2617 1601 c-20 -13 -24 -20 -15 -24 8 -2 26 6 41 19 33 28 14 32
-26 5z"/>
<path d="M952 1568 c-6 -6 -12 -19 -12 -27 0 -13 2 -14 9 -2 7 10 11 5 16 -18
8 -38 19 -46 36 -25 10 13 9 16 -10 21 -12 3 -20 11 -18 17 2 6 1 19 -2 29 -5
14 -9 15 -19 5z"/>
<path d="M1320 1539 c-45 -24 -182 -135 -144 -115 16 8 48 -30 40 -49 -4 -11
-2 -15 6 -13 19 7 17 30 -6 55 -10 13 -18 24 -15 26 2 1 30 22 61 45 32 23 69
47 83 54 23 10 28 8 55 -23 16 -19 29 -28 30 -21 0 7 -11 24 -24 37 -15 15
-20 26 -13 29 7 2 6 5 -3 5 -8 0 -40 -13 -70 -30z"/>
<path d="M1452 1557 c14 -6 32 -21 39 -34 7 -12 18 -23 26 -23 18 0 16 -10 -4
-26 -15 -11 -13 -12 15 -2 32 12 43 28 19 28 -7 0 -28 16 -47 35 -19 19 -43
35 -54 34 -18 -1 -17 -3 6 -12z"/>
<path d="M861 1548 c-1 -9 -4 -25 -7 -35 -4 -11 -3 -14 3 -6 5 6 21 17 36 22
16 6 25 15 22 21 -4 7 -12 7 -25 0 -13 -7 -20 -6 -23 3 -3 7 -6 6 -6 -5z"/>
<path d="M2858 1521 c-8 -11 -26 -23 -41 -26 -27 -7 -35 -19 -18 -29 20 -13
91 40 91 68 0 13 -20 5 -32 -13z"/>
<path d="M1785 1519 c-4 -6 -19 -7 -35 -4 -26 6 -146 -18 -159 -31 -8 -7 62
-64 71 -58 4 2 6 -5 5 -16 -1 -23 -53 -46 -60 -27 -2 8 -9 6 -21 -6 -17 -16
-16 -17 21 -17 42 0 84 18 91 38 2 7 -15 31 -37 53 l-42 39 33 2 c18 0 44 0
56 -1 17 -1 22 2 17 11 -3 7 0 5 9 -6 8 -10 20 -15 27 -10 7 4 10 3 6 -3 -4
-6 2 -13 13 -16 13 -3 18 -11 14 -20 -8 -21 42 -28 83 -10 42 17 41 39 -6 70
-36 24 -76 30 -86 12z m60 -32 c20 -16 13 -37 -14 -37 -20 0 -41 19 -41 37 0
17 31 17 55 0z"/>
<path d="M867 1485 c-30 -21 -37 -32 -37 -58 0 -24 3 -28 10 -17 5 8 10 24 10
35 1 35 20 -6 20 -42 0 -23 6 -33 20 -38 11 -3 20 -11 20 -17 0 -6 2 -9 5 -6
3 2 -6 32 -20 66 -30 73 -30 73 -7 69 28 -4 42 -17 42 -39 0 -11 9 -31 20 -45
11 -14 20 -32 20 -39 0 -7 5 -16 10 -19 9 -6 -4 34 -49 148 -13 33 -17 33 -64
2z"/>
<path d="M2705 1450 c-33 -16 -69 -29 -80 -29 -11 -1 -29 -7 -40 -15 -11 -7
-38 -17 -60 -21 -22 -4 -51 -9 -64 -12 -13 -2 -38 -15 -54 -29 -26 -22 -39
-25 -96 -24 -36 0 -83 -2 -103 -6 -48 -8 -51 10 -5 30 62 27 75 46 14 22 -32
-13 -68 -32 -80 -43 -29 -27 -91 -46 -130 -40 -20 3 -46 -3 -69 -14 -21 -11
-50 -19 -66 -19 -16 0 -46 -7 -67 -16 -20 -8 -47 -14 -59 -12 -17 2 -9 11 41
44 34 23 78 45 97 48 20 4 64 20 99 36 34 17 68 30 76 30 8 0 12 3 8 6 -12 12
-230 -70 -283 -106 -28 -19 -104 -70 -168 -114 -64 -43 -116 -79 -116 -81 0
-7 47 9 70 25 73 49 149 84 223 101 45 11 90 18 100 15 9 -2 20 2 25 9 8 14
113 35 155 30 16 -2 34 4 44 13 16 16 64 21 211 21 27 0 58 8 80 22 20 12 66
30 102 39 36 10 85 24 110 31 25 6 52 17 60 24 8 6 34 17 58 25 23 7 42 19 42
27 0 17 -5 16 -75 -17z"/>
<path d="M1413 1460 c-38 -9 -65 -28 -57 -42 3 -5 12 -4 21 4 9 7 24 12 33 10
15 -2 48 24 39 32 -2 1 -19 0 -36 -4z"/>
<path d="M2836 1368 c30 -102 33 -112 39 -107 6 6 -43 171 -54 182 -4 4 2 -29
15 -75z"/>
<path d="M1479 1420 c-37 -20 -153 -139 -171 -175 -9 -20 -9 -20 9 0 26 28
130 81 174 89 29 5 35 11 35 29 -1 17 4 22 24 20 14 -1 19 1 12 3 -22 10 -2
24 33 24 47 0 52 16 7 24 -59 9 -84 7 -123 -14z m39 -30 c-12 -16 -30 -30 -40
-30 -26 0 -22 15 10 39 41 31 56 26 30 -9z"/>
<path d="M1975 1430 c28 -4 68 -10 90 -14 36 -5 35 -4 -10 9 -27 8 -68 14 -90
13 -39 -1 -39 -1 10 -8z"/>
<path d="M1016 1422 c-4 -6 0 -23 9 -36 9 -14 14 -30 10 -36 -3 -5 -1 -10 4
-10 14 0 13 28 -3 65 -8 19 -15 25 -20 17z"/>
<path d="M1805 1385 c-44 -13 -100 -31 -125 -41 -25 -9 -76 -20 -115 -24 -52
-5 -92 -17 -155 -47 -76 -37 -90 -48 -130 -105 -25 -34 -63 -93 -83 -130 -39
-71 -91 -197 -83 -205 2 -2 10 13 16 34 20 61 76 155 136 229 18 23 31 43 29
46 -9 9 67 88 83 88 10 0 33 11 52 23 19 13 56 31 81 39 43 15 46 15 57 -3 17
-26 16 -27 -23 -43 -19 -8 -35 -20 -35 -26 0 -6 -5 -8 -12 -4 -7 4 -8 3 -4 -4
4 -7 3 -12 -2 -12 -12 0 -69 -57 -111 -111 -31 -40 -29 -39 30 17 35 33 96 85
134 114 39 29 81 64 94 77 29 28 51 31 26 3 -10 -11 -16 -20 -13 -20 11 0 127
51 180 78 50 27 65 30 115 26 l58 -5 -40 15 c-52 20 -65 20 -160 -9z"/>
<path d="M1251 1338 c-34 -34 -80 -87 -102 -119 -52 -76 -159 -296 -158 -323
1 -20 1 -20 9 -1 4 11 11 31 15 45 16 48 87 175 113 203 28 29 51 34 71 15 10
-11 14 -9 22 5 6 10 30 47 55 83 45 66 43 88 -4 32 -39 -46 -59 -81 -54 -96 5
-15 1 -15 -33 -2 -22 8 -24 13 -15 30 15 29 130 150 142 150 6 0 5 -7 -2 -15
-7 -9 -11 -17 -9 -19 9 -8 49 15 59 35 9 16 9 20 0 14 -6 -4 -19 0 -29 9 -17
15 -22 12 -80 -46z"/>
<path d="M1172 1367 c-13 -6 -21 -16 -18 -24 3 -7 -4 -25 -16 -38 -20 -23 -23
-24 -45 -10 -27 18 -30 9 -6 -17 15 -17 15 -20 1 -34 -18 -18 -38 -11 -38 12
0 8 -4 14 -9 14 -5 0 -3 -19 4 -42 7 -24 16 -41 21 -38 5 2 25 25 45 50 20 25
43 51 52 59 9 7 14 18 11 23 -3 5 2 18 12 29 21 24 16 30 -14 16z"/>
<path d="M2806 1340 c4 -19 17 -68 30 -109 13 -40 24 -81 24 -90 0 -9 4 -21 9
-26 5 -6 29 -50 54 -99 35 -70 45 -84 50 -67 3 11 1 19 -4 15 -5 -3 -9 1 -9 9
0 7 -19 49 -42 93 -23 43 -59 131 -80 194 -20 63 -35 99 -32 80z"/>
<path d="M698 1212 c-15 -37 -43 -128 -63 -202 -79 -295 -107 -361 -295 -689
-172 -303 -182 -321 -165 -321 8 0 15 5 15 10 0 6 15 32 33 59 50 76 101 160
138 226 18 33 42 73 53 89 11 17 27 44 36 60 45 86 83 152 91 160 15 16 11
-16 -10 -75 -36 -104 -35 -97 -17 -75 8 10 22 44 31 75 10 31 22 68 27 83 5
15 7 32 3 37 -3 6 -2 11 3 11 14 0 21 37 10 48 -7 7 -7 16 0 27 6 12 11 14 16
6 16 -25 21 -6 21 79 0 72 3 93 18 107 17 17 18 17 23 -5 4 -12 11 -22 16 -22
6 0 4 10 -4 23 -13 20 -15 40 -10 101 1 12 7 16 18 12 13 -5 14 -1 9 23 -6 28
5 85 29 143 8 22 13 25 25 15 12 -10 13 -9 7 8 -5 11 -11 28 -13 38 -9 29 -17
20 -45 -51z"/>
<path d="M1665 1256 c-45 -21 -89 -56 -70 -56 11 0 135 70 135 75 0 9 -15 5
-65 -19z"/>
<path d="M1120 1208 c-53 -68 -58 -75 -40 -61 17 13 84 103 77 103 -2 0 -19
-19 -37 -42z"/>
<path d="M1385 1206 c-38 -18 -71 -43 -65 -49 3 -3 30 10 60 29 56 35 58 44 5
20z"/>
<path d="M217 1183 c-14 -28 -30 -93 -23 -93 2 0 13 27 24 60 22 64 21 77 -1
33z"/>
<path d="M643 1198 c-16 -21 -33 -79 -26 -90 3 -6 9 -4 15 6 5 9 6 21 3 26 -3
6 -2 10 3 10 6 0 8 10 4 22 -3 13 -1 19 5 15 6 -4 13 0 17 8 7 18 -8 20 -21 3z"/>
<path d="M1013 1146 c2 -40 4 -44 15 -29 15 21 15 33 -3 56 -12 17 -13 14 -12
-27z"/>
<path d="M780 1124 c0 -16 41 -128 50 -137 4 -5 -3 24 -16 63 -22 70 -34 94
-34 74z"/>
<path d="M1166 1098 c-10 -15 -16 -33 -14 -39 2 -6 12 0 22 15 9 15 16 32 13
39 -2 6 -11 -1 -21 -15z"/>
<path d="M1434 1013 c-63 -74 -71 -91 -21 -43 26 24 47 50 47 58 0 7 5 10 10
7 6 -3 10 1 10 9 0 23 -3 21 -46 -31z"/>
<path d="M2080 1040 c0 -6 8 -24 19 -38 33 -48 80 -161 106 -259 14 -53 29
-101 34 -107 5 -6 17 -38 26 -71 49 -173 56 -192 50 -145 -6 49 -64 242 -75
250 -10 8 -20 81 -10 75 16 -10 -8 58 -61 170 -26 56 -89 145 -89 125z"/>
<path d="M2176 1039 c3 -5 18 -16 35 -24 16 -9 29 -21 29 -27 0 -6 6 -19 14
-27 8 -9 33 -50 55 -91 22 -41 41 -70 41 -65 0 22 -85 178 -113 205 -27 27
-74 49 -61 29z"/>
<path d="M710 1018 c1 -7 26 -40 58 -73 60 -63 55 -52 -15 35 -24 28 -43 46
-43 38z"/>
<path d="M2018 995 c-2 -19 0 -35 4 -35 4 0 8 -6 8 -13 0 -7 10 -18 21 -25 20
-13 21 -19 14 -85 -4 -40 -4 -69 -1 -66 3 3 7 18 8 32 1 15 5 27 9 27 12 0 60
-133 89 -245 15 -60 27 -111 25 -113 -3 -3 -7 0 -81 79 -27 30 -58 65 -67 79
-16 23 -17 23 -17 4 0 -12 31 -56 70 -100 39 -43 70 -83 70 -90 0 -6 23 -42
50 -79 62 -84 67 -115 9 -60 -27 26 -37 32 -30 18 6 -12 15 -25 21 -28 11 -7
32 -53 49 -104 6 -19 19 -43 28 -53 12 -14 14 -21 6 -26 -8 -5 -3 -21 18 -51
16 -24 29 -48 29 -53 0 -4 4 -8 10 -8 6 0 6 10 -1 28 -16 42 -52 168 -108 382
-67 260 -112 394 -172 518 -28 56 -52 102 -54 102 -1 0 -5 -16 -7 -35z"/>
<path d="M910 986 c0 -15 52 -108 57 -102 3 3 -2 17 -11 30 -9 14 -16 32 -16
39 0 8 -7 20 -15 27 -8 7 -15 9 -15 6z"/>
<path d="M2717 854 c14 -25 28 -42 31 -39 8 8 -27 73 -43 79 -7 2 -1 -16 12
-40z"/>
<path d="M843 872 c16 -17 33 -24 201 -77 100 -31 191 -49 210 -42 10 4 13 13
9 23 -6 16 -7 16 -19 -1 -12 -16 -16 -16 -69 -1 -31 9 -59 24 -62 32 -4 11 -8
12 -13 4 -5 -8 -14 -8 -31 -1 -13 6 -56 19 -95 31 -40 11 -77 27 -84 35 -7 8
-24 15 -38 15 -23 0 -24 -1 -9 -18z"/>
<path d="M1997 833 c-4 -3 -7 -18 -7 -33 0 -28 -16 -50 -37 -50 -7 0 -31 -18
-53 -40 -22 -22 -47 -40 -56 -40 -8 0 -12 -4 -9 -10 7 -12 105 50 105 68 0 7
13 12 29 12 25 0 30 5 36 33 4 17 9 40 11 50 5 17 -6 23 -19 10z"/>
<path d="M861 801 c8 -11 23 -21 34 -21 11 -1 45 -10 75 -21 30 -11 69 -24 85
-28 30 -7 30 -7 -22 -25 -28 -9 -57 -24 -63 -31 -7 -8 18 -1 55 16 52 23 76
29 102 24 18 -3 33 -10 33 -15 0 -5 19 -9 43 -9 23 0 68 -4 99 -9 32 -5 63 -5
70 0 8 5 1 8 -19 8 -44 0 -171 27 -213 45 -19 8 -84 28 -145 44 -60 16 -118
32 -128 36 -17 7 -18 6 -6 -14z"/>
<path d="M810 804 c0 -3 6 -18 14 -32 8 -15 19 -39 25 -54 12 -30 35 -39 28
-10 -3 9 -8 29 -11 43 -5 23 -56 71 -56 53z"/>
<path d="M740 746 c25 -28 80 -71 80 -63 0 2 -24 23 -52 47 -30 25 -42 32 -28
16z"/>
<path d="M907 724 c9 -19 21 -34 26 -34 5 0 2 11 -7 25 -22 34 -20 38 10 19
14 -10 23 -23 20 -31 -5 -11 0 -13 17 -8 31 10 49 29 20 22 -13 -3 -23 -1 -23
4 0 5 -12 15 -27 21 -50 20 -53 18 -36 -18z"/>
<path d="M1400 730 c0 -5 21 -10 47 -10 55 0 54 5 -4 14 -27 4 -43 2 -43 -4z"/>
<path d="M1055 670 c-73 -35 -229 -135 -233 -150 -4 -11 -1 -10 12 3 41 41 77
43 170 10 22 -7 48 -10 59 -7 29 9 -80 45 -115 38 -14 -3 -29 0 -33 6 -4 6 6
13 24 16 17 4 31 10 31 15 0 9 104 59 122 59 5 0 6 -4 3 -10 -3 -5 0 -7 8 -4
8 3 47 -4 88 -16 40 -11 83 -20 94 -19 20 1 16 3 -85 30 -45 12 -76 29 -52 29
7 0 12 5 12 10 0 17 -62 11 -105 -10z"/>
<path d="M830 676 c0 -2 17 -14 37 -26 32 -19 35 -23 20 -31 -9 -6 -23 -7 -30
-3 -9 5 -9 4 0 -6 10 -11 17 -10 38 4 15 10 25 19 23 21 -9 7 -88 45 -88 41z"/>
<path d="M1755 635 c-36 -11 -37 -12 -15 -17 21 -4 90 15 90 25 0 7 -39 3 -75
-8z"/>
<path d="M1375 619 c11 -4 47 -8 80 -8 75 1 61 6 -30 12 -41 3 -62 1 -50 -4z"/>
<path d="M1544 608 c-7 -10 60 -9 111 2 34 7 29 8 -33 6 -41 0 -76 -4 -78 -8z"/>
<path d="M1260 566 c0 -2 15 -13 33 -24 27 -17 67 -22 107 -12 8 2 -113 40
-127 40 -7 0 -13 -2 -13 -4z"/>
<path d="M779 512 c12 -17 46 -43 77 -58 55 -27 98 -69 88 -85 -3 -5 1 -9 10
-9 8 0 23 -3 33 -6 14 -5 15 -4 4 4 -8 6 -11 17 -8 25 4 12 15 13 59 5 76 -13
88 -18 63 -28 -15 -7 -10 -9 23 -9 36 -1 42 2 42 19 0 17 -7 20 -42 21 -71 1
-123 14 -120 30 1 8 -7 2 -19 -13 -24 -33 -39 -36 -39 -8 0 14 -16 29 -51 48
-28 15 -72 42 -97 60 l-45 34 22 -30z"/>
<path d="M1150 531 c-14 -4 -49 -19 -78 -34 -44 -23 -51 -31 -42 -43 14 -16
24 -19 15 -4 -8 13 112 70 145 69 l25 0 -25 -11 c-21 -9 -22 -12 -7 -15 18 -5
67 21 67 35 0 9 -65 11 -100 3z"/>
<path d="M1227 436 c-12 -13 -27 -39 -34 -57 l-12 -34 19 23 c11 13 28 36 39
50 11 15 23 24 26 20 11 -11 -2 -52 -27 -83 -18 -23 -32 -65 -22 -65 5 0 63
105 73 133 6 16 7 26 2 22 -5 -3 -12 -1 -16 5 -10 16 -24 12 -48 -14z"/>
<path d="M486 392 c-4 -24 -6 -46 -2 -49 8 -8 18 42 14 68 -3 18 -6 13 -12
-19z"/>
<path d="M845 399 c0 -15 3 -25 8 -22 4 2 7 -1 7 -8 0 -8 4 -8 15 1 12 10 15
10 15 0 0 -8 3 -11 6 -7 4 3 -6 19 -22 35 l-29 29 0 -28z"/>
<path d="M1315 389 c-4 -6 4 -23 18 -37 14 -15 55 -87 91 -161 36 -73 67 -135
69 -138 10 -9 -7 53 -17 67 -6 8 -19 31 -28 50 -9 19 -31 67 -49 105 -19 39
-33 73 -31 78 1 4 -2 7 -8 7 -5 0 -10 5 -10 10 0 6 12 10 27 10 35 0 27 6 -19
14 -23 4 -39 2 -43 -5z"/>
<path d="M783 355 c4 -10 12 -37 18 -62 7 -24 14 -42 16 -39 8 8 -18 105 -30
113 -7 4 -8 0 -4 -12z"/>
<path d="M1710 355 c0 -18 45 -93 53 -88 6 4 8 -1 4 -13 -7 -18 -7 -18 8 0 8
11 15 25 15 30 0 6 -4 5 -9 -3 -7 -12 -15 -6 -33 25 -13 21 -22 42 -20 47 1 4
-2 7 -8 7 -5 0 -10 -2 -10 -5z"/>
<path d="M1075 310 c-6 -9 0 -41 17 -99 9 -29 12 -31 20 -17 6 11 6 21 0 29
-6 7 -13 29 -17 49 l-7 37 44 4 43 4 -47 1 c-26 1 -49 -2 -53 -8z"/>
<path d="M1310 216 c-12 -57 -21 -109 -18 -116 2 -7 10 18 17 55 l14 68 28
-69 c35 -86 38 -69 4 22 -18 49 -23 76 -19 105 13 77 -3 37 -26 -65z"/>
<path d="M877 273 c-32 -37 -31 -43 2 -14 25 21 52 18 77 -10 9 -10 25 -19 35
-19 9 0 34 -20 55 -45 45 -54 56 -52 19 3 -17 27 -47 51 -88 73 -34 18 -64 35
-67 39 -3 3 -18 -9 -33 -27z"/>
<path d="M1228 238 c-8 -24 -19 -51 -23 -61 -6 -13 -4 -16 9 -11 9 3 16 17 16
30 0 13 8 32 18 42 10 10 16 24 14 30 -7 23 -20 12 -34 -30z"/>
<path d="M0 160 c0 -5 5 -10 10 -10 15 0 12 -57 -3 -63 -7 -3 -5 -6 5 -6 9 -1
22 -9 27 -18 8 -15 10 -11 11 20 0 20 5 37 10 37 6 0 10 -7 10 -15 0 -8 7 -15
15 -15 21 0 30 -27 15 -45 -7 -8 -21 -15 -32 -15 -10 0 -16 -4 -13 -10 4 -6
17 -4 36 5 35 19 38 48 6 74 -89 77 -97 82 -97 61z"/>
</g>
</svg>
