<?xml version="1.0" standalone="no"?>
<!DOCTYPE svg PUBLIC "-//W3C//DTD SVG 20010904//EN"
 "http://www.w3.org/TR/2001/REC-SVG-20010904/DTD/svg10.dtd">
<svg version="1.0" xmlns="http://www.w3.org/2000/svg"
 width="300.000000pt" height="513.000000pt" viewBox="0 0 300.000000 513.000000"
 preserveAspectRatio="xMidYMid meet">
<metadata>
Created by potrace 1.10, written by Peter Selinger 2001-2011
</metadata>
<g transform="translate(0.000000,513.000000) scale(0.100000,-0.100000)"
fill="#000000" stroke="none">
<path d="M503 5123 c48 -2 125 -2 170 0 45 1 6 3 -88 3 -93 0 -130 -2 -82 -3z"/>
<path d="M803 5123 c26 -2 68 -2 95 0 26 2 4 3 -48 3 -52 0 -74 -1 -47 -3z"/>
<path d="M1003 5123 c31 -2 83 -2 115 0 31 2 5 3 -58 3 -63 0 -89 -1 -57 -3z"/>
<path d="M1408 5123 c23 -2 59 -2 80 0 20 2 1 4 -43 4 -44 0 -61 -2 -37 -4z"/>
<path d="M1817 5123 c18 -2 50 -2 70 0 21 2 7 4 -32 4 -38 0 -55 -2 -38 -4z"/>
<path d="M1697 5044 c-120 -43 -194 -131 -261 -310 -37 -98 -95 -204 -112
-204 -19 0 -18 -20 3 -35 14 -11 23 3 77 109 34 67 77 154 96 195 86 184 236
265 375 202 l50 -23 -32 -9 c-44 -13 -49 -25 -13 -33 31 -6 79 -50 80 -73 0
-6 5 -15 11 -19 8 -5 10 2 6 22 -9 49 -13 58 -35 93 -27 44 -19 57 18 31 67
-48 128 -167 145 -283 8 -50 19 -110 24 -132 6 -22 11 -74 12 -115 1 -85 6
-83 12 5 5 76 -25 308 -46 357 -20 48 -88 146 -121 178 -16 14 -40 25 -59 25
-18 1 -56 9 -86 18 -63 20 -92 20 -144 1z"/>
<path d="M1718 4985 c-21 -8 -54 -26 -73 -42 -41 -32 -91 -100 -81 -110 8 -9
95 76 106 103 5 13 27 29 54 39 l45 17 23 -25 23 -26 35 19 c28 15 31 19 15
21 -11 1 -25 1 -32 0 -6 -1 -14 3 -18 9 -8 14 -52 11 -97 -5z"/>
<path d="M1971 4945 c48 -85 51 -96 54 -192 2 -72 7 -100 18 -108 13 -9 10
-15 -19 -34 -19 -13 -34 -30 -34 -37 0 -16 16 -19 25 -4 4 6 11 8 16 4 6 -3
17 2 24 12 13 18 14 17 15 -9 0 -19 -4 -26 -12 -21 -8 5 -9 2 -5 -10 6 -14 3
-17 -9 -12 -8 3 -27 6 -40 6 -20 0 -24 5 -24 28 0 17 -9 37 -22 49 -35 32
-117 69 -180 83 -56 11 -70 22 -47 35 18 12 131 16 200 7 36 -4 71 -6 77 -4
20 6 13 20 -8 15 -11 -3 -48 0 -82 5 -35 6 -106 14 -159 17 -78 6 -96 5 -96
-7 0 -18 -33 -68 -44 -68 -5 0 -9 2 -9 4 0 12 65 98 119 156 l60 65 26 -33
c15 -17 36 -37 48 -43 16 -8 12 -1 -13 27 -19 21 -38 41 -41 44 -3 3 -8 12
-11 21 -4 9 -16 19 -28 22 -16 4 -39 -13 -108 -78 -84 -82 -87 -84 -107 -67
-11 9 -17 13 -13 8 4 -5 0 -15 -10 -22 -15 -12 -13 -13 21 -14 l37 0 -16 -37
c-9 -21 -25 -62 -36 -90 -21 -60 -52 -116 -60 -107 -3 3 -16 -16 -28 -41 -12
-25 -25 -44 -27 -41 -3 3 13 36 35 73 50 83 85 160 79 176 -2 7 -19 -20 -37
-60 -18 -40 -37 -70 -41 -67 -5 3 -6 -3 -2 -12 5 -13 3 -15 -7 -9 -9 5 -11 4
-6 -3 4 -7 3 -12 -3 -12 -9 0 -51 -60 -51 -73 0 -4 14 -14 31 -23 24 -12 34
-13 43 -4 8 8 7 9 -7 4 -13 -5 -16 -2 -11 10 4 10 13 15 20 12 9 -3 11 1 7 12
-3 9 -2 14 2 9 10 -8 87 127 91 159 1 11 11 38 22 60 26 50 26 55 10 65 -7 5
-8 9 -2 9 18 0 47 -37 35 -45 -6 -3 -17 -19 -25 -34 -13 -25 -13 -27 7 -29 14
-1 33 11 52 33 17 18 41 37 55 40 23 7 23 5 -11 -31 -44 -47 -90 -119 -82
-128 4 -3 1 -6 -6 -6 -7 0 -10 -4 -7 -9 4 -5 3 -17 0 -26 -5 -11 -9 -13 -14
-5 -4 7 -16 -12 -30 -45 -12 -30 -20 -58 -17 -62 4 -3 0 -15 -8 -27 -9 -11
-14 -40 -14 -66 1 -25 4 -36 6 -25 3 11 10 26 17 34 8 11 8 15 -1 18 -19 7
-16 16 17 53 17 18 30 41 30 51 0 10 9 37 19 61 22 49 90 158 91 144 0 -6 -21
-54 -46 -108 -52 -112 -116 -315 -102 -324 5 -3 12 4 15 16 5 17 8 19 15 8 7
-9 8 -8 4 5 -6 19 19 132 40 182 13 29 13 29 14 5 0 -14 -6 -49 -14 -78 -7
-29 -11 -52 -9 -52 9 0 26 60 34 122 5 37 16 79 25 93 9 14 14 25 11 25 -2 0
1 17 8 38 17 47 39 51 111 18 31 -14 66 -26 78 -26 28 -1 60 -26 51 -40 -9
-15 -51 -6 -100 20 -30 15 -50 19 -79 14 -30 -5 -37 -3 -31 6 5 9 4 11 -3 6
-20 -12 -14 -24 25 -51 42 -28 93 -34 93 -10 0 8 5 15 10 15 6 0 8 -15 6 -35
-4 -32 -3 -34 15 -25 10 6 19 14 19 19 0 4 6 8 13 9 6 0 21 2 32 4 13 2 21 -4
23 -17 3 -11 13 -32 23 -47 11 -14 19 -41 19 -60 1 -29 2 -31 12 -13 6 10 14
33 17 49 4 16 13 32 20 34 17 6 8 -64 -20 -153 -10 -33 -21 -100 -24 -150 -3
-69 -2 -78 4 -40 5 28 22 77 40 110 21 41 29 50 25 30 -4 -16 -13 -41 -20 -55
-7 -14 -15 -44 -19 -65 -4 -22 -11 -55 -17 -73 -5 -18 -7 -41 -3 -50 6 -14 10
-10 21 18 l13 35 -6 -40 c-6 -42 -48 -135 -61 -135 -4 0 -18 -18 -31 -40 -14
-21 -28 -37 -33 -34 -4 3 -8 -4 -8 -16 0 -12 -4 -18 -10 -15 -5 3 -10 1 -10
-5 0 -6 -10 -1 -22 10 -25 23 -128 94 -140 96 -5 1 -13 2 -19 3 -10 1 -39 60
-54 110 -5 16 -4 21 4 17 20 -13 11 18 -14 49 -30 37 -31 25 -5 -57 11 -34 20
-70 20 -78 1 -16 74 -75 178 -143 57 -37 65 -39 73 -24 15 26 107 129 112 125
3 -2 17 8 31 21 25 24 26 27 26 160 0 75 7 177 15 226 17 105 19 214 4 235 -8
11 -9 5 -4 -22 5 -30 3 -38 -10 -38 -12 0 -15 14 -17 63 -1 34 -1 77 1 94 1
18 -5 44 -14 57 -9 14 -15 35 -13 48 l5 23 11 -25 11 -25 0 23 c1 16 -6 26
-19 29 -11 3 -20 13 -20 22 0 38 -23 89 -56 126 l-36 40 23 -40z m-231 -24 c0
-5 -21 -30 -47 -56 -31 -32 -48 -44 -52 -34 -2 7 18 32 45 56 52 46 54 47 54
34z m346 -547 c-4 -19 -16 -50 -28 -67 -21 -34 -21 -31 8 51 22 61 29 67 20
16z"/>
<path d="M1830 4933 c1 -13 38 -58 44 -53 7 8 -17 53 -31 58 -7 2 -13 0 -13
-5z"/>
<path d="M1752 4878 c-18 -18 -14 -31 8 -25 13 3 20 0 20 -9 0 -8 9 -14 20
-14 28 0 25 15 -6 28 -14 7 -22 17 -19 22 9 14 -9 12 -23 -2z"/>
<path d="M1830 4825 c-10 -11 -10 -19 -2 -27 15 -15 44 -2 40 19 -4 23 -22 27
-38 8z"/>
<path d="M1969 4812 c-14 -12 -20 -25 -16 -35 9 -24 34 -21 48 6 11 20 11 21
-5 8 -9 -8 -19 -11 -22 -8 -3 3 3 12 15 19 22 13 28 28 12 28 -5 0 -19 -8 -32
-18z"/>
<path d="M1956 4701 c-17 -18 -16 -21 11 -51 24 -26 29 -29 30 -14 1 11 4 29
8 41 10 32 -26 49 -49 24z"/>
<path d="M1580 4651 c0 -5 5 -13 10 -16 15 -9 12 -28 -4 -22 -10 4 -12 0 -8
-15 4 -16 2 -19 -8 -13 -10 6 -12 4 -7 -9 4 -10 7 -21 7 -24 0 -9 49 71 50 80
0 4 -9 12 -20 18 -12 7 -20 7 -20 1z"/>
<path d="M2812 4630 c0 -14 6 -47 13 -75 7 -29 13 -39 13 -25 0 14 -6 48 -13
75 -7 29 -13 39 -13 25z"/>
<path d="M1283 4543 c-15 -5 -17 -39 -4 -47 5 -3 11 7 14 22 6 31 6 31 -10 25z"/>
<path d="M1525 4515 c-5 -11 -15 -25 -23 -31 -8 -6 -12 -16 -8 -22 11 -18 26
-14 26 7 0 11 5 21 11 23 6 2 9 13 7 23 -5 20 -5 20 -13 0z"/>
<path d="M1176 4487 c-5 -20 -16 -42 -25 -48 -12 -8 -11 -8 9 -3 33 9 32 6 28
50 l-4 39 -8 -38z"/>
<path d="M2841 4484 c-1 -28 38 -146 56 -164 8 -9 2 19 -15 65 -16 44 -32 89
-35 100 -5 20 -5 20 -6 -1z"/>
<path d="M1802 4449 c-31 -29 -41 -49 -24 -49 14 0 74 68 65 73 -5 3 -23 -8
-41 -24z"/>
<path d="M1862 4457 c-12 -13 -22 -30 -22 -38 1 -18 29 -68 30 -51 0 28 26 9
43 -32 22 -52 52 -73 43 -28 -4 18 0 37 14 57 11 17 20 37 19 45 0 8 -4 5 -9
-7 -10 -26 -45 -31 -53 -9 -3 8 -22 16 -42 18 l-37 3 22 28 c28 35 21 45 -8
14z"/>
<path d="M2386 4453 c7 -29 35 -86 54 -113 17 -23 3 25 -26 88 -27 57 -38 67
-28 25z"/>
<path d="M1297 4438 c17 -18 40 -52 52 -75 11 -23 25 -44 29 -47 5 -3 16 21
25 54 18 64 21 87 10 77 -3 -4 -16 1 -27 10 -12 10 -15 11 -8 3 6 -8 12 -30
12 -49 l0 -34 -32 34 c-18 20 -27 27 -19 17 8 -10 12 -21 9 -24 -3 -3 -18 11
-33 30 -15 20 -32 36 -38 36 -6 0 3 -15 20 -32z"/>
<path d="M1034 4451 c4 -5 23 -15 44 -21 46 -12 55 -13 47 0 -3 6 -17 10 -31
10 -14 0 -35 5 -46 11 -14 7 -18 8 -14 0z"/>
<path d="M1220 4443 c0 -6 16 -21 36 -33 19 -12 42 -33 51 -46 18 -28 38 -33
24 -6 -5 9 -12 25 -15 35 -3 9 -15 17 -28 17 -12 0 -32 10 -45 22 -13 12 -23
17 -23 11z"/>
<path d="M2985 4398 c-4 -13 -17 -33 -28 -45 -27 -30 -16 -40 17 -16 18 13 25
27 26 51 0 37 -6 41 -15 10z"/>
<path d="M1424 4355 c-14 -43 -15 -58 -6 -67 10 -10 12 -8 11 7 -1 11 -1 29 0
40 1 17 3 18 11 5 5 -8 10 -27 10 -41 0 -30 10 -40 60 -59 19 -8 55 -30 80
-51 40 -32 80 -47 80 -29 0 10 -40 43 -107 88 -52 35 -62 39 -66 24 -2 -12 -9
-5 -20 22 -25 57 -21 62 19 22 20 -20 39 -35 41 -32 4 4 -86 126 -93 126 -2 0
-11 -25 -20 -55z m198 -166 l33 -30 -42 27 c-24 15 -43 28 -43 30 0 12 24 0
52 -27z"/>
<path d="M1025 4391 c3 -6 19 -11 35 -11 45 0 73 -17 102 -63 31 -47 27 -64
-6 -27 -12 14 -30 32 -41 40 -17 14 -18 13 -12 -3 6 -15 4 -16 -16 -6 -12 6
-31 19 -42 28 -12 9 -15 10 -7 1 21 -24 13 -32 -27 -28 -22 2 -38 0 -35 -3 2
-4 -9 -9 -24 -12 -15 -3 -54 -22 -87 -42 -52 -32 -57 -33 -36 -11 35 37 13 32
-26 -6 -18 -18 -33 -27 -33 -22 0 6 5 15 11 21 6 6 12 18 13 28 1 10 18 26 37
36 19 10 28 18 20 19 -20 0 -76 -39 -91 -64 -12 -19 -12 -20 3 -7 21 17 22 3
2 -23 -11 -14 -15 -16 -15 -5 -1 8 -9 0 -18 -16 -9 -17 -37 -57 -60 -89 -24
-32 -53 -77 -63 -101 -11 -24 -23 -47 -28 -49 -5 -3 -12 -21 -15 -40 -4 -19
-14 -49 -23 -67 -10 -19 -18 -41 -18 -49 -1 -8 -2 -26 -3 -39 -2 -19 -7 -22
-25 -19 -21 4 -22 1 -21 -41 2 -34 -3 -52 -18 -68 -11 -12 -17 -26 -13 -33 13
-21 -94 -175 -133 -190 -12 -5 -11 -8 1 -19 14 -11 25 -1 77 70 77 103 121
189 113 218 -4 14 1 30 14 44 11 12 32 54 47 94 15 39 49 103 76 141 93 132
188 191 323 200 203 12 353 -97 433 -318 15 -41 30 -91 34 -112 6 -32 4 -37
-17 -47 -13 -6 -21 -16 -18 -22 5 -7 11 -6 21 2 8 6 18 9 21 5 8 -8 6 -101 -2
-127 -5 -15 -93 -59 -116 -59 -5 0 -28 -9 -52 -20 -65 -30 -125 -49 -132 -42
-4 4 -5 1 -3 -7 2 -9 -6 -16 -22 -17 -27 -3 -122 -27 -155 -40 -19 -7 -19 -7
-2 13 23 27 6 39 -25 20 -28 -18 -98 -31 -98 -19 0 12 46 125 87 215 40 86 49
90 123 61 29 -12 42 -23 46 -43 15 -71 17 -77 21 -56 2 11 6 30 9 42 2 12 17
29 32 37 l27 15 -24 1 c-14 0 -33 -7 -43 -17 -20 -18 -25 -4 -8 27 13 24 -8
40 -24 17 -11 -14 -17 -13 -61 8 -45 22 -50 23 -62 7 -13 -15 -13 -14 -7 8 6
22 5 23 -9 12 -9 -8 -20 -12 -24 -9 -15 9 -274 39 -288 33 -8 -3 -12 -12 -9
-20 5 -12 11 -13 24 -6 34 18 34 10 2 -23 -17 -18 -36 -47 -43 -65 -6 -17 -15
-29 -20 -26 -5 3 -9 -1 -9 -8 0 -17 -40 -82 -46 -75 -3 3 3 22 14 44 11 21 23
49 27 63 7 23 6 24 -9 11 -10 -8 -27 -32 -38 -54 -11 -22 -31 -50 -44 -62 -21
-20 -22 -23 -6 -18 18 4 90 -6 155 -22 17 -5 27 -3 27 4 0 6 -9 11 -19 11 -12
0 -21 9 -25 25 -4 14 -11 25 -16 25 -18 0 -10 29 16 57 l25 28 -7 -25 c-11
-43 10 -12 36 52 26 64 36 74 59 59 11 -7 8 -21 -18 -75 -17 -36 -31 -71 -31
-78 0 -7 18 25 40 70 21 45 45 82 52 82 19 0 171 -30 176 -34 2 -2 -8 -26 -22
-53 -30 -60 -157 -375 -152 -380 1 -2 13 17 26 42 17 34 28 44 39 39 47 -20
129 -25 194 -11 37 7 70 10 72 6 5 -7 -78 -29 -108 -29 -7 0 -25 -7 -40 -15
-27 -14 -29 -13 -34 5 -6 24 -19 26 -27 3 -11 -27 37 -46 60 -23 5 5 50 19 99
29 129 28 237 68 257 94 16 19 18 20 18 4 0 -12 6 -17 18 -15 9 2 17 11 16 19
-1 9 17 24 42 35 24 12 44 17 44 12 0 -4 9 -8 21 -8 16 0 19 4 14 20 -7 22 10
28 19 8 3 -9 11 -6 25 10 17 19 19 32 14 68 -4 30 -2 44 6 44 6 0 11 -16 11
-37 0 -20 3 -34 6 -30 11 11 -8 158 -20 154 -14 -6 -49 50 -36 58 5 3 13 -3
19 -12 10 -17 10 -17 11 2 0 31 -24 125 -32 125 -5 0 -8 -6 -8 -14 0 -7 -10
-16 -21 -19 -24 -6 -23 -14 9 -107 13 -38 17 -64 11 -85 -4 -16 -10 -47 -14
-67 -6 -38 -6 -38 25 -32 19 4 30 2 30 -5 0 -6 -6 -11 -13 -11 -7 0 -83 -27
-168 -61 -169 -66 -357 -119 -422 -119 -51 0 -117 17 -117 31 0 5 11 6 28 2
15 -4 61 -7 102 -6 88 2 194 31 388 106 l134 52 -5 100 c-14 287 -148 504
-346 562 -85 24 -224 15 -291 -20 -31 -16 -48 -21 -40 -12 7 8 8 15 2 15 -5 0
-15 -7 -22 -15 -7 -8 -9 -15 -4 -15 5 0 -17 -26 -47 -57 -30 -32 -68 -76 -84
-97 -16 -22 -30 -35 -32 -29 -8 22 50 117 103 173 42 45 52 61 48 80 -5 22 -4
23 6 7 11 -18 13 -18 36 4 13 12 24 20 24 16 0 -3 26 6 57 20 48 22 71 26 142
26 147 -1 253 -37 354 -120 139 -115 218 -294 242 -550 5 -53 3 -63 -9 -63
-13 0 -16 -12 -16 -54 l0 -53 -92 -36 c-184 -70 -389 -127 -460 -127 -22 0
-27 -6 -35 -37 -6 -24 -15 -37 -24 -36 -8 1 -61 12 -119 24 -84 17 -113 28
-145 54 -22 17 -58 41 -80 53 -57 30 -254 84 -272 74 -12 -7 -10 -12 10 -25
14 -9 35 -32 47 -52 12 -19 26 -33 31 -29 5 3 9 -2 9 -10 0 -9 6 -16 13 -16
26 0 26 13 2 45 -14 17 -25 35 -25 38 0 17 60 4 124 -28 57 -28 87 -51 151
-122 45 -48 96 -109 115 -135 18 -27 36 -46 38 -43 3 3 -20 42 -51 88 -31 45
-57 86 -57 90 0 21 39 1 78 -39 41 -44 43 -39 6 14 -15 20 -15 22 0 22 10 0
27 -5 39 -12 33 -18 80 -22 217 -22 142 0 225 22 292 75 30 24 39 27 50 16 7
-7 21 -16 31 -20 17 -6 25 -47 8 -47 -4 0 -19 -10 -33 -23 -13 -12 -45 -40
-71 -61 -25 -21 -45 -42 -44 -46 1 -5 -7 -16 -18 -25 -20 -16 -20 -16 1 -6 18
8 23 6 34 -14 13 -24 14 -24 27 -5 15 21 33 27 33 10 0 -5 -5 -9 -11 -7 -6 1
-14 -4 -16 -10 -8 -22 23 -14 43 10 10 12 15 19 10 14 -5 -4 -20 3 -33 15 -19
17 -21 24 -10 36 8 11 4 10 -16 -3 -15 -10 -30 -16 -33 -13 -4 5 70 58 81 58
4 0 3 -5 -1 -12 -4 -7 -3 -8 5 -4 6 4 9 11 7 15 -3 4 17 30 44 56 28 27 50 45
50 40 0 -5 -19 -29 -42 -52 l-42 -43 21 -22 c18 -18 24 -19 37 -8 20 16 20 25
0 45 -16 15 -15 18 4 38 l22 21 23 -22 c13 -12 33 -22 45 -22 12 0 22 -4 22
-9 0 -12 -108 -111 -177 -163 -30 -23 -93 -61 -141 -85 -48 -24 -76 -41 -62
-38 14 4 34 9 45 12 33 9 149 64 167 80 15 13 19 11 44 -29 15 -23 34 -60 43
-82 l15 -39 -39 -33 c-22 -19 -36 -34 -31 -34 5 0 -1 -11 -14 -25 -23 -24 -47
-35 -35 -15 8 13 -1 12 -55 -4 l-45 -14 70 -7 c39 -4 97 -18 129 -31 33 -13
62 -22 64 -19 3 3 0 5 -6 5 -7 0 -12 7 -12 16 0 8 -5 12 -11 8 -6 -3 -14 -2
-18 3 -3 5 -20 13 -38 19 l-32 9 39 42 40 42 55 -56 c56 -55 65 -83 26 -83
-28 0 -35 -17 -11 -25 23 -7 73 31 125 96 31 39 52 51 41 24 -3 -8 -1 -15 5
-15 7 0 9 10 5 25 -5 18 3 38 31 80 20 30 43 55 50 55 7 0 10 7 6 17 -5 12 -3
14 7 8 10 -6 12 1 7 34 -5 37 -3 42 11 36 35 -13 56 -8 91 21 24 20 34 24 45
15 11 -9 14 -8 12 2 -1 17 101 100 114 92 5 -3 7 0 5 7 -3 8 15 35 40 61 37
39 46 45 52 31 8 -20 -23 -304 -42 -389 -8 -33 -13 -80 -13 -105 1 -49 -27
-146 -46 -157 -20 -13 -76 -9 -76 6 0 10 -3 11 -14 2 -9 -7 -25 -9 -43 -4 -15
4 -34 6 -40 5 -17 -4 -16 3 3 23 20 20 11 33 -11 15 -12 -10 -15 -10 -15 1 0
11 -2 11 -10 -1 -8 -13 -9 -13 -14 0 -13 41 -16 41 -12 -2 3 -42 1 -48 -16
-48 -11 0 -35 15 -54 34 -29 29 -34 31 -34 14 0 -24 -26 -18 -83 19 -40 25
-59 25 -37 -2 11 -13 8 -14 -21 -10 -29 5 -31 4 -11 -5 71 -31 224 -63 322
-67 58 -2 119 -4 136 -5 49 -2 94 20 94 48 0 12 -4 25 -9 28 -10 6 -6 49 8
101 5 17 9 46 10 65 1 19 9 73 18 120 9 47 17 145 19 219 3 133 12 167 36 143
9 -9 8 -12 -6 -12 -16 0 -18 -7 -14 -62 6 -67 -5 -212 -25 -352 -7 -47 -11
-86 -8 -85 4 0 15 4 26 9 17 7 17 9 3 9 -21 1 -23 18 -7 58 6 15 12 44 14 63
1 19 8 76 15 125 7 50 12 100 12 113 0 25 20 29 38 7 7 -8 9 -15 5 -15 -4 0
-2 -7 5 -15 7 -8 10 -22 6 -30 -10 -27 3 -16 20 17 12 22 14 44 10 76 -5 35
-2 50 11 65 13 13 19 40 21 91 4 69 -5 130 -45 316 l-16 75 -13 -65 c-13 -61
-38 -110 -60 -117 -13 -4 -35 63 -27 82 2 8 0 20 -6 27 -7 7 -18 22 -26 33 -9
11 -13 13 -11 5 3 -8 19 -59 35 -112 43 -137 48 -192 22 -248 l-21 -45 0 45 0
45 -53 -57 c-28 -32 -88 -85 -132 -118 -44 -33 -87 -72 -96 -87 -10 -17 -24
-28 -36 -27 -24 0 -144 75 -245 153 -39 30 -84 57 -102 61 l-31 6 45 23 c25
13 77 55 117 94 57 56 71 66 67 46 l-5 -24 11 24 10 24 25 -23 c28 -26 31 -41
13 -70 -11 -17 -8 -24 25 -58 21 -22 71 -62 111 -90 l73 -51 75 77 c111 114
136 150 136 196 0 28 -3 35 -10 25 -7 -10 -8 -6 -3 14 4 21 3 27 -6 21 -8 -5
-10 -2 -6 8 6 16 -27 131 -58 202 -9 22 -32 60 -51 84 -21 28 -34 56 -34 76
l-1 31 -13 -24 c-12 -21 -12 -27 0 -39 8 -7 19 -23 25 -35 11 -20 10 -20 -15
3 -22 20 -30 22 -44 12 -92 -66 -121 -68 -235 -11 -45 23 -103 57 -129 75
l-48 34 0 -36 c0 -36 -26 -104 -39 -104 -7 0 -37 128 -33 143 1 4 -2 7 -7 7
-4 0 -23 32 -40 70 -18 39 -36 68 -41 65 -4 -3 -15 12 -23 33 -8 20 -24 48
-36 61 -20 23 -26 42 -21 66 1 5 -2 7 -6 3 -4 -4 -13 -3 -21 3 -10 9 -13 6
-13 -15 0 -14 -3 -26 -7 -26 -10 1 -65 120 -56 120 4 0 18 -10 32 -22 l24 -23
-19 28 c-32 47 -121 94 -189 101 -33 4 -80 9 -104 12 -29 4 -41 2 -36 -5z
m234 -65 c23 -17 71 -88 71 -103 0 -26 -19 -12 -51 40 l-33 52 -6 -30 c-3 -16
-9 -29 -13 -28 -4 1 -23 23 -42 47 l-35 46 48 -7 c26 -3 53 -11 61 -17z m437
-475 c-13 -20 -26 -11 -26 16 0 25 1 26 16 11 9 -9 13 -21 10 -27z m80 -37
c36 -27 141 -71 191 -80 22 -4 37 -14 40 -25 3 -10 11 -15 19 -12 19 7 18 33
-1 33 -24 0 -17 13 25 48 l39 32 36 -47 c24 -32 32 -50 25 -57 -5 -5 -10 -21
-10 -35 l0 -25 16 22 c10 14 14 32 10 48 -8 29 -1 31 14 4 9 -17 7 -28 -10
-54 -11 -19 -27 -37 -36 -40 -23 -9 -67 -7 -83 3 -17 11 -51 -8 -51 -28 0 -11
4 -11 19 3 17 16 19 16 25 -6 11 -41 7 -68 -10 -68 -10 0 -13 6 -9 19 3 12 0
21 -10 25 -19 7 -19 -11 -3 -64 14 -45 28 -52 28 -15 0 14 5 25 11 25 7 0 9
-9 5 -22 -3 -13 -6 -32 -6 -42 0 -19 -1 -18 -23 2 -13 12 -27 19 -31 15 -4 -5
-7 3 -6 17 1 14 2 30 1 37 -1 15 -41 4 -48 -13 -7 -20 -25 -17 -21 3 2 9 14
20 28 23 19 5 24 12 22 31 -2 19 -1 21 7 9 9 -12 11 -9 11 13 0 23 -4 27 -27
27 -16 1 -39 7 -53 15 -33 19 -41 18 -33 -1 3 -8 11 -13 18 -10 12 4 35 -33
35 -57 0 -24 -22 -38 -39 -24 -14 10 -14 10 -3 -5 31 -39 0 -33 -123 27 -109
53 -132 68 -143 94 -15 34 -7 54 40 90 l25 20 90 -39 c82 -35 116 -46 196 -64
24 -6 27 -9 17 -21 -10 -12 -9 -15 3 -15 9 0 18 4 21 8 11 18 -16 37 -73 48
-48 10 -240 84 -261 101 -2 2 1 8 9 12 7 5 13 12 13 17 2 37 22 37 74 -2z
m405 -212 c-8 -15 -7 -23 3 -32 12 -9 13 -7 9 9 -3 12 -1 21 6 21 6 0 11 -7
11 -15 0 -8 5 -15 10 -15 7 0 6 -8 -1 -22 -11 -21 -11 -22 4 -9 10 7 17 9 17
4 0 -12 -115 -123 -127 -123 -17 0 -53 -41 -53 -59 0 -10 12 -26 26 -36 25
-16 25 -16 15 4 -6 11 -11 31 -11 46 0 21 8 29 45 45 24 10 58 34 74 52 30 34
43 34 41 2 0 -11 0 -35 0 -54 0 -19 -5 -42 -10 -50 -6 -10 -10 -11 -10 -2 0 6
-5 12 -11 12 -5 0 -7 -5 -4 -10 9 -14 -14 -42 -27 -34 -6 4 -8 -2 -3 -15 4
-12 2 -21 -4 -21 -6 0 -11 5 -11 10 0 6 -5 10 -10 10 -6 0 -8 -11 -4 -25 3
-14 3 -25 -1 -25 -13 0 -34 28 -27 35 4 5 2 5 -5 2 -6 -4 -9 -17 -5 -29 3 -14
2 -19 -6 -14 -7 4 -12 13 -12 21 0 7 -13 23 -30 35 -16 12 -30 30 -30 39 0 26
-9 32 -180 106 -181 78 -240 110 -240 130 0 21 9 19 87 -16 37 -17 113 -51
168 -76 55 -24 117 -56 138 -70 20 -14 39 -24 42 -21 11 10 22 134 14 150 -19
36 -11 46 30 41 30 -4 43 -1 57 14 23 24 40 13 25 -15z m-385 -128 c8 3 14 3
14 0 0 -11 -89 -100 -135 -134 -86 -64 -89 -64 -136 -33 -38 25 -39 28 -23 40
23 16 34 16 58 -2 41 -31 82 -10 51 25 -21 23 -39 16 -32 -11 7 -26 1 -24 -19
6 -15 23 -15 26 5 54 12 17 27 52 33 79 l12 50 79 -40 c43 -22 85 -37 93 -34z
m576 8 c-8 -33 -7 -42 5 -47 9 -3 13 -13 10 -23 -2 -11 8 -37 24 -61 16 -23
29 -51 29 -62 0 -19 -3 -18 -39 10 -46 36 -51 38 -51 11 0 -12 5 -17 13 -14
19 7 39 -20 35 -47 -3 -22 -3 -23 -22 -3 -19 19 -20 19 -13 -6 4 -14 10 -43
13 -65 6 -48 -10 -29 -21 25 -4 19 -15 40 -24 47 -14 10 -14 15 -2 45 16 41
15 73 -4 129 -14 38 -14 45 0 65 9 14 21 21 30 18 10 -4 15 0 15 12 0 9 2 15
5 12 3 -3 2 -24 -3 -46z m-422 -87 c24 -8 49 -20 56 -26 18 -15 5 -49 -18 -49
-15 0 -19 5 -15 19 8 30 -38 24 -52 -7 -8 -17 -15 -22 -22 -15 -8 8 -8 17 0
31 7 14 8 23 1 27 -12 8 -13 35 -1 35 5 0 28 -7 51 -15z m-480 -34 c0 -18 -94
-112 -129 -131 -64 -32 -154 -50 -255 -50 -53 0 -96 2 -96 5 0 2 5 15 11 27 8
20 23 26 87 37 42 8 94 15 114 16 20 1 43 6 50 11 7 6 53 25 101 44 48 18 90
37 93 42 7 11 24 10 24 -1z m180 -141 c80 -53 180 -117 223 -144 42 -26 77
-54 77 -62 0 -7 43 21 95 62 52 42 92 80 89 85 -3 5 1 6 9 3 10 -3 35 19 71
61 55 65 56 65 56 36 0 -43 -113 -160 -231 -241 l-90 -62 -22 20 c-24 22 -411
273 -458 298 l-30 15 23 19 c13 10 28 15 33 12 6 -4 76 -50 155 -102z m400
103 c-1 -5 -12 -21 -25 -38 -28 -34 -34 -17 -7 20 17 24 32 32 32 18z m-88
-28 c3 -13 3 -27 0 -30 -9 -9 -32 17 -32 36 0 28 27 23 32 -6z m113 -26 c5
-26 10 -37 15 -29 4 7 13 9 19 6 8 -5 7 -12 -4 -22 -8 -9 -19 -12 -25 -9 -5 3
-10 1 -10 -4 0 -16 -16 -13 -34 4 -8 9 -13 22 -10 30 9 22 22 18 28 -7 3 -13
3 -2 2 25 -4 58 10 62 19 6z m-353 -205 l38 -16 -42 -50 c-23 -28 -44 -46 -46
-39 -5 16 -32 14 -32 -3 0 -8 4 -16 9 -18 5 -1 -10 -32 -35 -68 -24 -36 -44
-69 -44 -75 1 -13 43 36 128 147 36 48 69 84 72 80 3 -4 27 -17 54 -30 27 -13
50 -31 53 -42 3 -11 9 -17 14 -14 16 10 9 -9 -23 -60 -46 -73 -109 -156 -116
-154 -14 4 -52 -27 -52 -42 0 -9 9 -4 26 15 25 30 17 6 -10 -28 -11 -15 -19
-16 -34 -8 -32 17 -112 111 -118 140 -10 46 -27 83 -62 134 -19 27 -29 47 -24
43 6 -3 12 -3 15 1 2 5 2 2 0 -5 -1 -7 2 -10 7 -7 6 3 10 14 10 23 0 9 19 33
42 52 42 35 43 30 2 -25 -12 -16 -27 -41 -33 -55 l-12 -25 18 25 c10 14 32 39
49 55 17 17 36 45 43 62 13 32 14 32 40 18 14 -7 43 -21 63 -31z"/>
<path d="M1835 3760 c-3 -5 8 -16 24 -25 33 -17 51 -19 51 -7 0 13 -69 42 -75
32z"/>
<path d="M2086 3719 c-21 -16 -45 -29 -52 -29 -17 0 -18 -22 -2 -38 17 -17 39
-15 32 3 -4 9 4 23 20 36 21 17 54 61 44 58 -2 0 -21 -14 -42 -30z"/>
<path d="M1920 3717 c0 -10 9 -14 29 -13 17 1 28 -2 25 -6 -3 -4 2 -8 10 -8
16 0 22 15 9 23 -5 3 -23 8 -40 12 -26 5 -33 3 -33 -8z"/>
<path d="M1700 3684 c0 -11 -6 -15 -20 -11 -11 3 -20 1 -20 -4 0 -5 11 -9 24
-9 19 0 27 -8 37 -37 12 -36 13 -37 19 -13 3 14 16 29 28 35 34 15 26 28 -13
21 -31 -6 -35 -4 -35 14 0 11 -4 20 -10 20 -5 0 -10 -7 -10 -16z"/>
<path d="M2087 3660 c-3 -13 0 -23 9 -27 23 -8 28 3 11 27 l-14 21 -6 -21z"/>
<path d="M1841 3610 c0 -8 6 -24 14 -34 20 -26 36 -9 23 24 -7 18 -11 21 -17
11 -7 -11 -9 -11 -14 0 -4 11 -6 11 -6 -1z"/>
<path d="M2089 3503 c-13 -35 11 -64 35 -43 21 16 21 31 0 23 -12 -4 -14 0 -8
21 8 35 -13 35 -27 -1z"/>
<path d="M1660 3445 c-1 -19 -4 -23 -7 -12 -2 9 -11 17 -19 17 -18 0 -18 -14
0 -30 8 -6 13 -17 10 -24 -6 -17 22 -41 31 -26 3 5 -1 13 -10 16 -12 5 -13 10
-5 20 7 7 10 25 7 41 l-4 28 -3 -30z"/>
<path d="M2350 3479 c0 -5 -4 -7 -10 -4 -5 3 -10 4 -10 0 0 -12 29 -75 35 -75
3 0 1 9 -5 21 -7 11 -9 32 -6 45 4 13 4 24 1 24 -3 0 -5 -5 -5 -11z"/>
<path d="M1824 2905 c-8 -19 2 -45 17 -45 8 0 8 4 -1 15 -7 9 -10 19 -6 22 4
4 11 1 15 -6 5 -7 11 -9 14 -4 3 5 -3 14 -14 21 -16 10 -21 10 -25 -3z"/>
<path d="M1787 2809 c-3 -12 -10 -18 -16 -14 -6 3 -9 11 -6 16 4 5 1 9 -4 9
-16 0 -14 -25 3 -39 10 -8 16 -8 23 1 19 25 23 37 14 42 -5 3 -11 -4 -14 -15z"/>
<path d="M1793 4362 c-44 -18 -87 -52 -49 -38 18 6 18 5 1 -21 l-18 -28 30 28
c16 15 40 30 53 32 22 4 40 21 40 38 0 10 -9 8 -57 -11z"/>
<path d="M1781 4292 c-23 -11 -38 -27 -43 -46 -10 -40 -3 -44 14 -9 18 38 57
50 116 35 72 -19 96 -41 104 -97 7 -53 18 -71 19 -34 0 13 2 34 5 45 2 12 -3
27 -11 34 -8 7 -15 20 -15 30 0 13 -6 17 -18 13 -11 -2 -32 6 -49 21 -36 30
-74 33 -122 8z"/>
<path d="M2975 4302 c-6 -4 -25 -24 -43 -45 -29 -35 -32 -43 -32 -108 0 -79
-15 -122 -63 -182 -52 -63 -61 -86 -63 -157 -1 -36 -4 -87 -8 -115 l-6 -50 16
40 c9 22 17 75 19 117 2 73 5 81 42 130 66 87 76 115 81 211 4 83 6 88 33 108
16 11 34 29 39 40 11 19 3 25 -15 11z"/>
<path d="M1647 4263 c-11 -11 -7 -37 8 -57 14 -19 15 -18 15 13 0 22 -4 30
-12 25 -8 -5 -9 -2 -5 9 7 18 5 21 -6 10z"/>
<path d="M1016 4253 c-4 -4 -24 -6 -45 -4 -40 2 -92 -15 -126 -43 -19 -16 -18
-16 20 -10 22 4 46 11 52 16 7 6 20 7 29 4 10 -4 26 1 38 11 19 17 20 17 7 1
-17 -22 -8 -23 24 -2 13 8 38 16 55 16 21 1 27 4 18 9 -16 11 -62 12 -72 2z"/>
<path d="M1815 4232 l-30 -17 35 -3 c19 -2 36 1 38 7 2 6 8 11 12 11 5 0 1
-15 -10 -33 -19 -33 -59 -142 -60 -162 0 -5 9 10 20 34 11 24 20 50 20 58 0 8
4 11 10 8 6 -4 9 4 7 17 -2 19 3 23 26 24 35 1 46 13 26 27 -9 7 -14 18 -12
25 3 6 -2 12 -10 12 -9 0 -21 2 -29 5 -7 2 -26 -3 -43 -13z"/>
<path d="M1455 4230 c16 -28 60 -85 72 -93 7 -4 13 -14 13 -20 0 -7 9 -30 20
-52 l20 -39 0 29 c0 17 3 41 5 55 5 21 4 22 -3 5 -9 -20 -9 -20 -16 0 -3 12
-31 45 -62 75 -31 30 -53 48 -49 40z"/>
<path d="M1146 4201 c-4 -6 3 -15 14 -21 16 -9 22 -8 26 5 4 9 4 19 0 22 -3 4
-6 1 -6 -7 0 -10 -3 -10 -14 -1 -9 8 -16 8 -20 2z"/>
<path d="M1690 4178 c0 -13 14 -50 30 -83 16 -33 30 -69 30 -80 1 -16 2 -17 9
-5 14 26 22 70 12 70 -5 0 -12 -10 -14 -22 -2 -13 -5 -2 -6 24 0 26 -7 53 -16
62 -8 8 -15 17 -15 21 0 4 -7 13 -15 21 -13 14 -15 13 -15 -8z"/>
<path d="M977 4141 c-16 -10 -29 -22 -29 -27 1 -15 -28 -42 -50 -47 -18 -5
-18 -4 -6 12 7 9 -1 2 -18 -16 -17 -18 -36 -33 -42 -33 -7 0 -24 -14 -39 -30
-32 -37 -80 -118 -58 -100 20 16 20 -4 0 -24 -8 -8 -15 -20 -15 -27 0 -17 10
-5 40 46 18 29 19 36 7 26 -9 -7 -17 -9 -17 -3 0 13 71 77 151 135 36 26 76
61 88 77 25 35 25 36 -12 11z"/>
<path d="M1280 4150 c-13 -8 -13 -11 0 -25 14 -13 19 -13 34 -2 33 24 1 49
-34 27z"/>
<path d="M1930 4104 c0 -21 5 -46 11 -54 7 -11 8 -1 3 35 -8 62 -14 70 -14 19z"/>
<path d="M849 4104 c-13 -14 -36 -33 -50 -41 -22 -13 -57 -64 -146 -211 -8
-13 -17 -21 -20 -18 -3 3 13 38 36 78 22 40 32 62 20 48 -31 -36 -71 -120 -65
-135 3 -8 -2 -19 -10 -25 -23 -20 -17 -40 14 -40 15 0 34 4 42 10 9 6 17 5 23
-3 7 -9 10 -9 14 1 5 14 33 17 33 3 0 -5 -6 -12 -12 -14 -10 -4 -10 -6 0 -6
18 -1 26 27 13 43 -6 7 -8 16 -4 19 10 10 -6 8 -28 -3 -15 -8 -19 -7 -19 4 0
8 5 18 10 21 16 10 11 28 -6 21 -22 -8 31 83 79 137 79 87 119 137 110 137 -5
0 -20 -12 -34 -26z"/>
<path d="M2454 4072 c-16 -29 -35 -52 -42 -52 -7 0 -10 -4 -7 -10 3 -5 13 -10
21 -10 8 0 13 3 10 8 -2 4 9 27 25 51 17 24 28 48 26 54 -2 6 -17 -12 -33 -41z"/>
<path d="M1310 4098 c0 -7 8 -26 19 -41 15 -24 19 -26 25 -12 9 23 8 27 -5 20
-6 -4 -10 -1 -8 6 3 28 -1 39 -16 39 -8 0 -15 -6 -15 -12z"/>
<path d="M2106 4005 c6 -58 5 -61 -22 -77 -39 -23 -166 -142 -134 -126 14 7
42 28 64 46 22 17 50 32 63 32 17 0 23 6 23 21 0 11 5 17 10 14 6 -4 10 6 10
23 0 16 3 42 6 58 3 18 0 36 -10 49 -14 18 -15 15 -10 -40z"/>
<path d="M1690 4043 c1 -5 12 -28 26 -53 13 -25 22 -34 18 -20 -12 45 -45 101
-44 73z"/>
<path d="M859 3993 c-28 -27 -59 -66 -71 -88 -11 -22 -27 -48 -36 -58 -15 -16
-14 -17 1 -12 9 4 29 30 46 59 16 29 51 74 78 99 26 26 44 47 39 47 -4 0 -30
-21 -57 -47z"/>
<path d="M2133 3970 l-9 -69 44 -33 c42 -32 95 -95 122 -148 20 -37 29 -89 18
-92 -6 -2 -8 -14 -3 -26 5 -19 9 -21 21 -11 8 7 13 18 10 25 -3 7 -1 14 3 16
4 2 11 25 14 51 5 35 4 46 -5 41 -7 -4 -8 -3 -4 4 4 7 0 22 -8 34 -9 12 -16
33 -16 45 0 13 -4 23 -8 23 -13 0 -48 -29 -36 -30 18 0 26 -30 8 -30 -22 0
-29 28 -11 48 8 9 18 31 22 47 l7 30 -22 -34 c-11 -18 -24 -30 -28 -27 -3 4
-1 11 6 15 7 4 15 28 17 52 l5 44 -20 -37 c-20 -38 -40 -57 -40 -39 0 5 5 13
10 16 6 3 10 11 10 18 0 6 -7 2 -15 -10 -17 -24 -38 -22 -66 6 -12 13 -15 31
-11 79 2 34 2 62 0 62 -3 0 -9 -31 -15 -70z"/>
<path d="M549 4008 c-7 -13 -18 -27 -25 -31 -8 -4 -14 -17 -14 -27 0 -11 -6
-20 -14 -20 -8 0 -32 -20 -54 -45 -22 -25 -47 -45 -56 -45 -9 0 -16 -4 -16
-10 0 -9 -92 -89 -140 -122 l-25 -16 26 2 c15 1 39 12 54 24 15 12 31 22 35
22 3 0 13 11 20 25 7 14 17 25 22 25 4 0 18 10 29 21 17 17 23 19 31 8 7 -10
8 -8 3 8 -4 16 2 26 27 44 43 29 96 86 103 110 4 10 11 19 16 19 5 0 9 7 9 15
0 22 -18 18 -31 -7z"/>
<path d="M1354 4019 c-3 -6 -1 -16 5 -22 9 -9 14 -8 21 3 9 14 14 7 11 -12 0
-5 3 -8 7 -8 17 0 21 13 11 31 -11 21 -44 25 -55 8z"/>
<path d="M2168 4007 c-5 -10 -8 -33 -7 -50 0 -31 1 -31 10 -7 5 13 9 36 7 50
-3 21 -4 22 -10 7z"/>
<path d="M2202 3975 c-7 -26 -11 -50 -8 -52 7 -7 28 65 24 84 -2 9 -9 -5 -16
-32z"/>
<path d="M2233 3978 c-6 -24 -13 -52 -17 -63 -5 -14 -3 -13 7 4 11 18 16 20
20 10 3 -8 6 10 6 39 1 28 0 52 -2 52 -2 0 -8 -19 -14 -42z"/>
<path d="M990 3821 c-5 -11 -10 -29 -10 -39 0 -16 -5 -19 -22 -15 -23 6 -23 6
-3 -14 12 -12 23 -16 27 -10 3 6 17 1 34 -12 17 -13 30 -18 32 -12 2 6 14 11
27 11 14 0 29 9 35 19 14 27 12 40 -3 19 -21 -27 -63 -28 -70 0 -4 13 -5 11
-6 -5 -1 -28 -17 -30 -30 -4 -7 11 -7 30 -1 50 10 35 6 40 -10 12z"/>
<path d="M1027 3806 c-4 -10 -1 -13 8 -9 8 3 18 -2 21 -11 7 -18 24 -22 24 -5
0 12 -29 38 -41 39 -4 0 -9 -7 -12 -14z"/>
<path d="M2358 3785 c-4 -4 9 -39 29 -79 20 -40 43 -108 53 -155 9 -46 20 -80
23 -74 4 6 4 21 2 34 -3 13 -7 40 -11 59 -16 101 -76 235 -96 215z"/>
<path d="M557 3716 c3 -13 1 -26 -4 -29 -5 -3 -9 3 -9 15 1 12 -4 23 -11 25
-7 3 -11 -9 -10 -31 1 -20 4 -36 7 -36 11 0 36 25 53 53 17 27 17 27 -6 27
-20 0 -23 -4 -20 -24z"/>
<path d="M1288 3711 c-25 -24 -22 -33 5 -20 13 6 24 17 24 25 0 18 -8 17 -29
-5z"/>
<path d="M305 3690 l-30 -20 26 2 c15 1 32 10 38 20 15 23 3 23 -34 -2z"/>
<path d="M196 3671 c-17 -6 -19 -17 -17 -102 2 -107 -22 -186 -59 -196 -11 -3
-20 -9 -20 -14 0 -5 -5 -9 -11 -9 -6 0 -9 7 -5 15 4 13 2 13 -14 5 -17 -9 -42
-39 -65 -79 -8 -15 91 38 134 71 26 19 81 25 81 8 0 -19 -51 -59 -127 -101
-65 -36 -95 -59 -78 -59 3 0 43 18 87 40 77 39 116 45 105 17 -17 -46 -14 -55
7 -15 14 25 28 64 32 87 6 40 6 40 -35 57 -45 18 -55 44 -17 44 24 0 24 1 11
28 -9 16 -11 28 -5 30 6 2 8 8 4 13 -3 5 0 9 5 9 13 0 14 35 2 58 -5 10 -6 36
-1 60 4 23 7 42 6 41 0 0 -9 -4 -20 -8z"/>
<path d="M1203 3652 c16 -17 23 -42 12 -42 -2 0 -16 5 -29 12 -21 9 -29 8 -45
-6 -23 -21 -34 -86 -14 -86 9 0 11 8 7 24 -6 25 17 56 42 56 8 0 26 -11 40
-25 l26 -26 -3 38 c-2 22 -11 45 -23 56 -25 22 -34 22 -13 -1z"/>
<path d="M1006 3549 c-26 -33 -46 -62 -44 -64 2 -2 29 18 61 45 31 27 53 51
48 54 -5 3 -16 -6 -26 -20 -9 -14 -19 -23 -22 -20 -3 2 5 19 17 35 37 54 15
34 -34 -30z"/>
<path d="M1156 3581 c-4 -5 0 -11 6 -14 19 -6 49 4 42 14 -7 12 -41 12 -48 0z"/>
<path d="M1072 3538 c-17 -17 -15 -29 3 -22 8 4 15 1 15 -5 0 -6 5 -11 10 -11
14 0 13 13 -3 33 -10 14 -15 15 -25 5z"/>
<path d="M429 3481 c-9 -6 -23 -21 -32 -34 l-15 -24 44 1 c27 1 44 6 44 13 0
18 41 28 51 12 4 -7 6 -16 3 -20 -12 -20 18 -17 42 4 24 21 31 22 56 13 19 -7
27 -15 22 -26 -10 -27 -9 -32 9 -43 15 -10 21 -8 35 9 14 18 21 19 39 10 16
-9 19 -16 12 -29 -12 -20 -4 -37 16 -37 23 0 29 22 11 36 -12 8 -13 13 -5 16
7 2 -31 26 -83 52 -80 41 -106 49 -164 53 -38 2 -76 -1 -85 -6z"/>
<path d="M672 3482 c-13 -4 52 -51 71 -52 16 0 6 19 -13 25 -11 3 -26 12 -33
19 -6 7 -18 11 -25 8z"/>
<path d="M266 3342 c11 -59 58 -174 75 -185 24 -15 49 -1 48 25 -1 17 -2 18
-6 6 -2 -10 -11 -18 -19 -18 -19 0 -56 76 -53 108 2 15 0 33 -4 40 -6 9 1 12
24 12 40 0 32 9 -27 31 l-45 17 7 -36z"/>
<path d="M1732 3330 c2 -19 -2 -25 -14 -24 -25 2 -22 -19 6 -61 l25 -36 6 46
c5 30 12 45 22 45 8 0 13 6 10 13 -2 6 -11 11 -18 9 -7 -2 -19 5 -26 15 -13
16 -13 16 -11 -7z"/>
<path d="M250 3278 c0 -6 -27 -57 -60 -114 -81 -135 -102 -198 -108 -311 -3
-71 -1 -98 10 -116 21 -31 68 -163 68 -190 0 -16 5 -12 19 18 33 73 122 140
172 129 13 -3 -9 13 -49 36 -74 42 -223 172 -211 185 4 3 35 -19 70 -50 64
-56 150 -117 180 -128 13 -4 16 -1 12 13 -3 11 -8 19 -12 18 -18 -5 -49 15
-64 42 -10 16 -21 29 -25 29 -17 -2 -51 14 -56 27 -7 18 17 30 88 43 80 15
136 5 137 -23 0 -11 19 -36 40 -55 38 -33 40 -33 54 -15 7 10 20 28 29 39 15
20 15 20 16 0 0 -20 59 -85 78 -85 5 0 25 -18 46 -40 20 -22 41 -40 47 -40 6
0 9 -14 7 -32 -4 -46 -44 -68 -90 -49 -185 74 -269 84 -354 40 -53 -27 -114
-98 -114 -131 0 -19 2 -18 28 8 15 16 26 34 24 40 -2 7 13 25 34 40 35 27 43
29 138 29 89 0 108 -3 159 -27 35 -17 61 -36 66 -50 5 -13 8 -24 7 -25 -1 -2
-27 7 -57 19 -41 17 -76 22 -149 22 -84 1 -101 -2 -151 -27 -31 -15 -69 -37
-83 -48 -27 -21 -36 -52 -13 -43 18 6 37 -57 46 -151 6 -65 5 -73 -16 -95 -29
-31 -29 -40 -1 -37 17 1 24 -4 26 -20 4 -28 7 -28 32 -3 11 11 29 20 39 20 11
0 23 5 27 12 7 11 -10 9 -48 -7 -14 -5 -18 -2 -18 13 0 16 15 26 70 48 57 22
79 26 129 21 66 -6 110 -31 111 -62 0 -17 -2 -17 -10 -5 -7 11 -10 8 -10 -16
0 -18 8 -38 20 -49 30 -28 19 -28 -41 -1 -77 34 -160 41 -227 18 -29 -11 -54
-21 -57 -24 -2 -2 4 -26 14 -54 24 -61 29 -213 8 -195 -9 7 -14 36 -15 83 -1
91 -23 155 -65 190 l-32 27 23 40 c12 22 22 56 22 75 0 56 -20 133 -41 157
-12 14 -19 37 -19 61 0 24 -16 76 -42 136 -42 94 -43 100 -43 202 0 122 18
188 76 283 20 34 36 64 34 65 -8 8 -98 -39 -115 -60 -33 -39 -51 -100 -48
-158 l3 -55 13 41 c16 56 53 137 58 131 3 -2 -8 -51 -22 -108 -26 -100 -35
-192 -22 -234 13 -41 13 -50 0 -47 -6 1 -12 -4 -12 -10 0 -10 -2 -10 -9 0 -7
11 -9 11 -14 -1 -3 -9 1 -18 9 -21 8 -3 14 -15 14 -27 0 -12 25 -51 55 -86 35
-41 55 -74 55 -90 0 -14 11 -38 25 -55 20 -24 25 -40 25 -85 0 -30 -6 -69 -14
-86 -8 -18 -16 -51 -18 -74 -3 -37 -1 -43 19 -48 13 -3 23 -12 23 -21 0 -8 4
-13 10 -9 14 8 34 -71 36 -143 1 -59 0 -62 -20 -56 -37 11 -58 36 -51 61 6 25
-9 63 -25 63 -5 0 -4 -13 2 -31 15 -43 0 -54 -46 -33 -37 18 -49 44 -19 44 27
0 5 14 -43 26 l-45 11 3 -31 c3 -29 12 -36 128 -97 103 -56 128 -65 148 -58
18 7 23 6 20 -3 -3 -7 -18 -55 -33 -105 -25 -83 -27 -95 -13 -110 8 -10 21
-33 28 -51 15 -38 104 -120 140 -129 14 -3 31 -10 37 -16 7 -5 13 -7 13 -4 0
3 15 0 34 -8 27 -11 35 -12 39 -2 3 9 9 9 25 0 12 -7 28 -10 37 -7 8 3 15 3
15 0 0 -8 -79 -45 -132 -61 -30 -10 -36 -14 -19 -14 13 -1 41 4 62 11 45 13
59 6 41 -22 -7 -11 -12 -30 -11 -42 l0 -23 16 22 c8 13 21 23 28 23 7 0 15 20
19 50 4 32 11 48 17 44 10 -6 8 11 -9 54 -4 12 -1 12 17 1 24 -15 25 -22 11
-49 -5 -10 -19 -76 -31 -147 -29 -177 -23 -362 15 -478 23 -69 55 -140 56
-125 0 3 -9 30 -21 60 -32 83 -49 192 -47 293 l1 92 7 -90 c8 -99 26 -179 47
-210 17 -26 17 -17 -3 36 -26 70 -31 317 -9 427 23 108 104 329 113 303 2 -6
10 -11 18 -11 9 0 12 5 8 11 -4 7 2 6 17 -2 21 -11 22 -10 12 3 -7 8 -10 17
-7 20 2 3 -2 8 -11 12 -9 3 -14 2 -11 -2 3 -5 -1 -9 -9 -9 -38 0 -5 32 44 42
l35 7 -17 -25 c-20 -31 -22 -41 -5 -31 7 5 9 2 5 -8 -7 -21 11 -38 41 -38 21
0 23 3 17 27 -9 36 -12 38 -28 25 -14 -12 -27 -7 -27 10 0 5 4 7 9 4 12 -8 34
21 26 34 -3 6 -10 8 -15 5 -19 -12 -27 90 -9 115 8 11 9 7 5 -18 -7 -42 8 -84
29 -76 9 4 22 -3 33 -14 19 -23 221 -116 230 -107 4 3 1 10 -6 14 -7 4 -12 12
-11 17 4 21 -2 28 -11 14 -9 -13 -12 -12 -21 4 -9 15 -13 16 -20 5 -6 -10 -9
-10 -9 -2 0 7 -23 22 -50 34 -28 12 -50 25 -50 30 0 5 -7 5 -17 2 -10 -4 -14
-2 -10 4 4 6 -6 16 -22 23 -18 7 -32 22 -36 38 -3 15 -8 36 -12 46 -4 16 -1
18 17 13 l22 -6 -23 22 c-20 19 -21 22 -6 25 9 2 17 9 17 15 0 7 9 23 20 37
11 14 20 32 20 41 0 9 7 22 15 29 13 11 22 9 51 -6 20 -10 38 -25 41 -31 3 -7
11 -13 19 -13 20 0 84 -32 84 -42 0 -5 5 -6 10 -3 6 3 10 9 10 13 0 10 -100
65 -107 59 -2 -3 -12 1 -21 9 -60 52 -80 64 -90 51 -39 -48 -122 -202 -117
-217 4 -12 -1 -19 -15 -23 -22 -6 -28 -37 -7 -37 6 0 4 -5 -6 -11 -17 -10 -80
-132 -121 -232 -9 -21 -20 -36 -26 -32 -6 4 -5 18 4 39 8 18 17 52 21 75 6 39
8 41 21 24 13 -16 13 -15 4 10 -13 36 -13 40 2 31 8 -5 9 -2 5 9 -3 10 -3 17
2 17 4 0 36 48 71 108 134 228 240 381 278 401 9 5 55 18 101 30 l84 22 22
-21 c27 -25 35 -25 35 0 0 12 -7 20 -16 20 -9 0 -14 6 -11 13 6 16 49 11 63
-9 11 -14 74 -38 81 -30 3 3 -146 94 -171 105 -4 2 -5 -6 -1 -18 3 -11 2 -28
-3 -37 -7 -13 -14 -5 -30 42 -17 49 -21 54 -21 29 -1 -16 5 -42 13 -57 l14
-27 -44 -7 c-24 -3 -59 -3 -77 0 -31 6 -38 2 -84 -46 -79 -84 -238 -331 -299
-466 -22 -47 -33 -62 -46 -59 -11 3 -15 0 -11 -9 3 -9 0 -13 -8 -11 -8 2 -11
2 -6 0 14 -9 7 -62 -10 -72 -17 -10 -17 -10 1 -11 12 0 16 -5 12 -16 -3 -9 -6
-18 -6 -20 0 -12 -29 -1 -45 16 -17 18 -17 27 -8 78 6 31 18 81 26 111 11 38
13 60 6 79 -10 26 -10 26 -30 6 -18 -19 -18 -23 -6 -54 13 -30 12 -39 -6 -90
-20 -53 -20 -63 -8 -124 7 -37 11 -69 9 -72 -3 -2 -24 -2 -47 2 -39 6 -44 11
-71 63 -16 31 -29 50 -30 43 0 -7 11 -35 25 -63 l26 -50 -28 7 c-32 7 -80 50
-105 92 -17 29 -17 29 7 24 14 -2 32 1 40 8 8 6 19 9 25 5 5 -3 10 1 10 9 0
14 9 17 35 16 3 -1 13 6 21 15 9 8 22 15 30 15 8 0 20 11 26 25 6 14 14 25 18
25 9 0 1 115 -9 143 -5 12 -8 -11 -8 -58 0 -84 -4 -92 -77 -131 -24 -13 -30
-14 -37 -2 -6 8 -3 17 8 25 9 7 13 13 7 13 -16 0 -39 -19 -40 -32 0 -7 -2 -23
-2 -35 -3 -35 -29 -28 -74 20 -23 23 -48 42 -57 42 -12 0 -15 8 -12 35 1 19 7
42 12 51 4 9 6 19 3 22 -3 3 -1 22 5 44 10 38 12 39 93 61 107 29 234 29 241
1 3 -11 19 -27 36 -36 33 -19 57 -63 47 -88 -3 -8 0 -14 7 -12 6 1 17 29 24
62 10 48 21 67 54 100 23 22 35 30 28 18 -8 -13 -17 -23 -20 -23 -4 0 -12 -13
-18 -30 -5 -16 -9 -30 -7 -30 4 0 157 244 174 276 19 35 3 34 -48 -4 -39 -29
-59 -56 -101 -137 -29 -55 -61 -106 -72 -114 -13 -9 -17 -21 -13 -40 l6 -26
-14 25 c-8 14 -27 33 -43 43 -15 11 -43 42 -61 70 l-33 52 6 95 c4 59 12 104
22 119 12 18 13 29 4 48 -15 32 -14 90 5 198 26 157 19 144 78 147 35 2 50 7
48 16 -1 7 7 31 19 53 l21 41 -27 28 c-24 25 -26 31 -16 66 6 24 19 43 33 49
12 6 25 22 29 38 4 16 3 25 -2 21 -5 -3 -9 -12 -9 -19 0 -12 -39 -42 -43 -33
-32 64 -51 92 -94 139 -29 31 -53 64 -53 73 0 23 11 20 38 -11 15 -18 20 -21
13 -8 -5 11 -18 28 -29 39 -20 18 -21 17 -46 -32 -24 -47 -32 -117 -12 -104 5
3 7 -5 4 -16 -4 -12 -2 -20 2 -17 13 8 32 -33 24 -48 -4 -6 -3 -9 1 -4 9 8
115 -90 115 -106 0 -5 9 -20 20 -34 11 -14 20 -32 20 -40 0 -8 -20 9 -44 39
-24 29 -68 75 -99 101 -46 39 -60 58 -72 100 -16 54 -13 75 19 149 14 33 14
37 0 42 -9 3 -23 6 -32 6 -14 -1 -13 -3 3 -12 11 -6 21 -12 23 -13 1 -1 -2
-14 -9 -27 l-11 -25 -63 23 c-35 13 -86 26 -113 30 -34 4 -49 10 -46 19 3 7
-4 27 -14 46 -11 19 -27 58 -37 87 -16 50 -25 65 -25 40z m20 -125 c0 -14 4
-21 10 -18 6 3 10 -1 10 -9 0 -10 6 -13 15 -10 23 9 18 -7 -12 -38 l-26 -27
30 11 c37 14 149 -3 202 -31 32 -17 34 -21 37 -77 2 -43 -2 -64 -13 -76 -19
-22 -52 -23 -79 -4 -16 12 -17 18 -7 35 12 18 9 20 -43 27 -70 8 -140 0 -186
-22 -33 -15 -38 -16 -52 -1 -21 20 -20 40 2 68 24 29 52 20 52 -18 0 -15 -4
-23 -8 -17 -4 6 -15 13 -24 17 -13 5 -18 1 -18 -12 0 -23 11 -33 24 -22 6 5
15 9 19 8 5 -1 15 10 24 25 15 24 15 27 0 43 -10 9 -29 20 -43 24 l-25 6 42
83 c34 65 45 79 56 71 7 -6 13 -22 13 -36z m451 -254 c40 -62 39 -142 -1 -94
-7 8 -16 13 -20 10 -9 -6 -71 68 -94 112 -17 35 -22 78 -7 68 5 -3 15 -22 21
-43 13 -41 70 -135 77 -128 2 2 -7 22 -21 43 -20 30 -55 120 -56 142 0 13 75
-70 101 -110z m-573 -86 c80 -77 125 -111 139 -106 11 4 14 2 9 -5 -4 -7 -14
-12 -23 -12 -8 0 -33 -19 -55 -42 -22 -24 -37 -38 -34 -32 3 7 0 17 -8 23 -13
11 -31 66 -39 121 -3 19 -5 16 -6 -10 l-2 -35 -14 25 c-8 14 -14 37 -15 51 0
42 18 51 48 22z m-72 -161 c11 -7 25 -40 30 -72 2 -8 -12 3 -31 25 -19 22 -34
43 -35 48 0 9 22 9 36 -1z m492 -118 c28 -8 52 -19 52 -25 0 -6 -9 -9 -20 -6
-16 4 -20 0 -21 -19 -1 -13 -3 -28 -4 -34 -1 -5 -3 -39 -4 -75 -1 -70 -10 -81
-31 -37 l-13 27 -7 -25 c-6 -22 -2 -27 29 -41 20 -9 41 -26 48 -37 l12 -21
-43 20 c-73 32 -125 34 -203 10 -37 -12 -73 -24 -79 -27 -6 -2 -11 3 -11 12 0
11 21 26 56 41 31 14 57 26 59 28 2 1 -6 36 -18 76 l-20 74 3 -55 c2 -30 7
-63 11 -72 6 -14 3 -18 -13 -18 -12 0 -21 -4 -21 -10 0 -5 -4 -10 -9 -10 -5 0
-12 30 -16 68 -4 37 -11 84 -17 106 -5 21 -7 40 -4 43 2 3 28 11 58 18 60 16
147 11 226 -11z m-294 -46 c6 -30 26 -153 26 -161 0 -4 -7 -7 -15 -7 -8 0 -17
12 -21 28 -3 15 -14 52 -25 82 -18 51 -18 56 -2 68 24 17 32 15 37 -10z m226
-375 c29 -9 55 -24 58 -32 3 -9 12 -24 20 -33 13 -16 12 -17 -19 -8 -52 15
-111 12 -181 -10 -34 -11 -65 -20 -67 -20 -2 0 0 12 3 26 4 15 2 32 -5 40 -18
22 -3 42 33 47 71 9 108 6 158 -10z m33 -90 c27 -4 37 -10 33 -20 -7 -18 21
-73 37 -73 8 0 7 -4 -3 -10 -8 -5 -36 -10 -61 -10 -39 0 -106 -14 -219 -46
-22 -7 -24 -6 -11 9 14 18 126 56 170 58 15 1 19 3 9 6 -9 2 -51 -3 -94 -11
-44 -8 -80 -13 -82 -11 -2 1 1 18 5 36 11 39 32 51 34 17 1 -19 3 -18 8 7 5
25 13 32 51 42 54 14 73 15 123 6z m-177 -421 c10 -14 10 -18 -2 -20 -15 -4
-20 -22 -5 -22 4 0 24 -25 44 -55 19 -30 32 -55 28 -55 -16 0 -115 114 -103
118 8 2 3 11 -13 24 -14 11 -25 24 -25 30 0 16 61 1 76 -20z"/>
<path d="M462 2918 c-16 -16 -15 -35 3 -42 25 -9 46 5 43 28 -3 24 -28 32 -46
14z"/>
<path d="M452 2425 c0 -56 11 -89 30 -93 13 -3 15 2 8 30 -4 18 -14 49 -23 68
l-15 35 0 -40z"/>
<path d="M382 3264 c-8 -17 -9 -31 -2 -42 7 -13 9 -13 10 -3 0 8 7 22 16 32 9
10 13 23 9 28 -10 18 -21 13 -33 -15z"/>
<path d="M568 3275 c6 -11 49 -58 97 -105 81 -79 157 -188 167 -235 2 -13 6
-16 11 -9 14 23 -58 138 -135 220 -74 77 -93 103 -65 89 6 -4 3 1 -7 9 -11 9
-24 16 -30 16 -5 0 -18 8 -29 18 -19 16 -20 16 -9 -3z"/>
<path d="M1843 3260 c-13 -10 -23 -26 -23 -37 -1 -17 -1 -17 -14 0 -27 35 -36
9 -13 -36 l13 -24 18 43 c22 54 36 56 37 7 1 -21 5 -49 9 -63 5 -15 6 6 3 50
-3 41 -6 76 -7 77 0 1 -11 -7 -23 -17z"/>
<path d="M440 3250 c0 -5 3 -10 8 -11 4 -1 25 -3 47 -5 35 -3 49 -13 118 -86
44 -47 97 -119 125 -167 27 -49 48 -77 50 -67 7 32 -69 142 -166 244 -94 97
-101 102 -140 102 -23 0 -42 -4 -42 -10z"/>
<path d="M414 3216 c-3 -8 -4 -25 -2 -37 3 -21 12 -25 73 -35 39 -6 84 -14
100 -18 l30 -8 -30 20 c-17 10 -42 32 -56 49 -32 38 -55 53 -41 26 6 -11 18
-25 26 -33 23 -18 20 -29 -6 -23 -32 8 -59 33 -56 52 4 20 -30 27 -38 7z"/>
<path d="M1951 3131 c-11 -7 -12 -17 -5 -40 9 -30 10 -31 32 -16 26 19 29 50
6 59 -19 7 -16 8 -33 -3z"/>
<path d="M2225 3120 c3 -5 1 -20 -6 -32 -6 -12 -13 -65 -14 -117 -2 -76 0 -89
7 -61 6 19 8 56 5 83 -2 26 -1 47 3 47 4 0 11 11 14 24 3 13 8 31 12 39 3 8
-2 17 -11 21 -9 3 -13 2 -10 -4z"/>
<path d="M2424 3062 c-9 -13 -8 -21 5 -32 8 -8 17 -14 19 -12 1 2 8 2 14 0 7
-3 1 -24 -19 -61 -36 -66 -35 -75 2 -17 27 44 39 49 49 23 8 -19 -33 -82 -103
-158 l-46 -50 47 44 c26 24 62 66 80 93 18 26 36 48 41 48 18 0 4 -42 -28 -84
-19 -25 -31 -46 -26 -46 6 0 13 5 16 10 3 6 11 10 17 10 6 0 4 -8 -5 -18 -13
-14 -14 -21 -5 -30 9 -9 8 -18 -1 -38 -11 -24 -10 -26 3 -14 14 10 16 10 17
-6 0 -13 6 -8 15 15 18 41 12 70 -11 51 -9 -7 -15 -8 -15 -2 0 5 7 12 15 16
11 4 14 13 9 30 -4 16 -1 27 10 33 21 11 49 80 36 88 -6 3 -10 1 -10 -6 0 -7
-3 -9 -7 -5 -5 4 -8 17 -8 29 0 11 -6 22 -14 25 -8 3 -11 0 -7 -7 4 -6 2 -9
-7 -5 -9 3 -12 14 -9 31 4 21 2 25 -11 20 -10 -4 -17 2 -21 19 -7 28 -27 31
-42 6z"/>
<path d="M1241 2933 c-1 -25 18 -30 37 -11 20 20 13 32 -7 14 -18 -17 -19 -17
-24 1 -4 14 -5 14 -6 -4z"/>
<path d="M2121 2897 c7 -15 18 -27 24 -27 15 0 27 38 14 46 -5 3 -9 -3 -9 -12
0 -16 -2 -15 -21 2 -21 19 -21 19 -8 -9z"/>
<path d="M2144 2820 c3 -25 8 -54 10 -65 3 -11 5 -23 5 -27 1 -5 5 -8 11 -8 5
0 9 12 8 28 -1 15 2 36 6 47 8 20 7 20 -8 1 -16 -20 -21 -13 -17 22 1 6 -3 20
-9 30 -9 13 -10 7 -6 -28z"/>
<path d="M2928 2771 c-109 -117 -209 -283 -221 -366 -6 -38 -6 -39 5 -10 6 17
32 61 57 99 25 38 51 76 56 85 63 98 89 133 130 172 34 34 46 52 43 69 -3 21
-10 16 -70 -49z"/>
<path d="M990 2805 c0 -16 -34 -83 -71 -142 l-21 -32 32 11 c22 7 28 13 19 19
-10 6 -6 17 15 47 25 36 47 112 32 112 -3 0 -6 -7 -6 -15z"/>
<path d="M1091 2779 c0 -25 -8 -54 -16 -65 -16 -21 -19 -14 -16 36 1 16 -7 5
-21 -30 -21 -49 -29 -58 -78 -82 -30 -15 -71 -31 -90 -36 l-35 -10 40 -1 c22
0 52 6 68 13 25 14 27 14 27 -7 0 -12 5 -29 11 -37 8 -11 9 -7 4 17 -5 27 -2
34 20 49 20 13 29 14 34 6 5 -8 17 6 33 37 l25 50 24 -25 c13 -14 39 -27 61
-31 42 -6 47 -28 7 -28 -13 0 -29 -7 -36 -15 -10 -13 -12 -11 -13 13 0 15 -4
27 -10 27 -15 0 -12 -48 3 -53 6 -2 20 1 31 7 12 7 20 8 22 1 12 -29 23 -37
43 -30 11 3 21 13 21 21 0 19 -10 18 -26 -3 -11 -15 -13 -15 -13 -3 0 8 6 24
14 34 14 18 20 19 79 8 35 -7 77 -12 94 -12 38 0 44 -9 36 -50 -7 -33 -7 -33
-71 -15 -10 3 0 -3 21 -14 22 -11 61 -19 88 -19 48 -1 48 -1 47 31 -2 30 -2
31 -6 5 -3 -18 -10 -28 -21 -27 -11 0 -12 3 -4 6 15 6 16 39 0 49 -6 4 -8 3
-4 -4 3 -6 -3 -13 -14 -17 -11 -3 -20 -11 -20 -18 0 -8 3 -8 12 1 7 7 16 12
22 12 5 0 1 -6 -9 -14 -11 -8 -23 -12 -27 -10 -15 9 -8 41 12 59 16 15 22 15
35 5 8 -7 15 -10 15 -7 0 3 33 -10 74 -29 41 -19 84 -34 95 -34 11 0 23 -4 26
-10 9 -15 25 -12 25 4 0 8 -24 20 -64 30 -35 8 -92 29 -127 46 -35 16 -79 30
-97 30 -54 0 -231 29 -265 44 -57 25 -70 41 -78 92 l-6 49 -2 -46z"/>
<path d="M2540 2775 c-2 -16 -4 -35 -4 -42 -1 -7 -7 -18 -14 -25 -14 -14 -16
-32 -2 -23 31 19 -32 -113 -82 -172 l-32 -38 36 33 c19 19 47 57 61 86 26 53
53 84 63 73 10 -10 -6 -46 -42 -92 -44 -59 -32 -58 22 2 35 38 46 45 56 35 10
-10 8 -22 -11 -58 -13 -24 -29 -43 -35 -41 -6 2 -38 -11 -71 -28 -33 -18 -73
-36 -90 -39 -48 -11 -83 -27 -89 -41 -4 -11 1 -11 27 -1 18 8 38 11 45 9 7 -3
18 0 25 5 7 6 48 22 92 37 44 14 97 37 117 51 21 13 44 24 52 24 18 0 18 46 0
61 -8 7 -17 9 -21 6 -8 -9 -33 40 -33 65 0 15 -5 18 -20 13 -24 -7 -29 3 -40
78 -6 39 -8 44 -10 22z m84 -236 c-24 -27 -30 -15 -9 18 12 17 20 23 23 15 2
-7 -4 -22 -14 -33z"/>
<path d="M910 2705 c-13 -14 -34 -25 -47 -25 -16 0 -23 -6 -23 -20 0 -11 3
-20 6 -20 11 0 75 54 85 72 13 25 7 23 -21 -7z"/>
<path d="M1292 2720 c6 -21 72 -24 128 -6 l45 14 -70 -5 c-38 -3 -72 -7 -74
-9 -2 -2 -11 2 -19 9 -13 10 -14 9 -10 -3z"/>
<path d="M2952 2675 c-87 -99 -152 -250 -152 -354 0 -63 45 -257 77 -331 19
-43 20 -44 32 -22 9 18 9 22 -2 22 -15 0 -37 41 -37 70 0 10 -4 21 -8 24 -5 3
-19 59 -32 124 -23 118 -24 121 -6 183 24 89 69 177 128 249 59 74 60 103 0
35z"/>
<path d="M567 2687 c-4 -11 10 -21 50 -36 30 -12 63 -21 73 -21 20 0 46 27 36
37 -3 4 -12 -2 -20 -12 -11 -16 -17 -16 -46 -6 -19 6 -42 19 -52 28 -10 9 -18
12 -18 7 0 -5 -4 -3 -9 4 -7 11 -9 11 -14 -1z"/>
<path d="M2277 2689 c-11 -6 -16 -17 -12 -27 2 -10 1 -32 -4 -50 -5 -17 -6
-32 -2 -32 12 0 31 -48 31 -80 0 -17 -4 -30 -10 -30 -5 0 -10 19 -10 43 -1 35
-3 39 -13 26 -7 -8 -21 -21 -32 -28 -18 -11 -18 -12 8 -6 19 4 27 1 27 -9 0
-15 -21 -26 -51 -26 -18 0 -18 -1 -1 -18 15 -16 18 -16 26 -3 5 9 10 17 11 19
1 1 10 0 19 -4 9 -4 17 -19 17 -38 2 -27 2 -28 6 -6 3 14 9 30 14 37 14 16 8
105 -8 121 -18 19 -16 82 4 104 18 20 8 23 -20 7z"/>
<path d="M1026 2587 c-3 -11 5 -24 20 -34 29 -18 32 -17 40 24 6 29 4 30 -24
29 -21 -1 -33 -7 -36 -19z"/>
<path d="M1102 2558 c-6 -17 -9 -34 -7 -37 3 -2 5 0 5 5 1 31 17 34 81 18 63
-15 122 -46 167 -87 16 -15 22 -17 22 -6 0 8 -28 31 -63 52 -67 42 -49 41 53
-3 110 -47 293 -99 471 -136 187 -37 254 -41 344 -19 33 9 67 17 75 19 8 1 16
10 18 18 3 13 -4 12 -40 -5 -58 -30 -244 -32 -275 -4 -11 9 -22 15 -25 12 -9
-9 -191 34 -376 89 -97 30 -220 61 -272 71 -52 9 -110 23 -129 31 -18 8 -34
14 -35 14 -1 0 -7 -14 -14 -32z"/>
<path d="M2680 2519 c-14 -11 -51 -33 -83 -49 -40 -19 -53 -30 -41 -34 26 -10
53 -7 61 8 4 7 19 17 31 21 24 7 24 7 17 -61 -3 -37 -8 -71 -11 -76 -3 -4 0
-8 5 -8 6 0 11 9 11 20 0 26 26 124 40 149 6 12 7 28 3 36 -7 11 -12 10 -33
-6z"/>
<path d="M1790 2527 c0 -3 27 -14 60 -23 59 -16 87 -34 56 -34 -9 0 -16 -4
-16 -10 0 -5 5 -9 11 -7 6 1 14 -4 16 -11 4 -9 -2 -10 -24 -2 l-28 11 23 -23
c23 -23 23 -23 38 -4 8 11 14 32 14 46 0 24 -5 28 -52 39 -29 6 -63 14 -75 17
-13 4 -23 4 -23 1z"/>
<path d="M1147 2509 c-9 -6 -27 -7 -40 -3 -22 6 -22 6 3 -20 17 -19 26 -23 29
-14 2 7 10 21 19 31 17 19 15 21 -11 6z"/>
<path d="M1674 2498 c-11 -37 54 -66 83 -37 9 9 16 8 28 -5 31 -31 27 -16 -6
23 -39 46 -39 45 -65 27 -18 -14 -18 -15 5 -24 14 -5 20 -12 14 -15 -6 -4 -20
2 -31 12 -16 13 -18 21 -10 29 9 9 9 12 1 12 -7 0 -15 -10 -19 -22z"/>
<path d="M1031 2430 l-40 -81 23 -9 c13 -5 60 -14 105 -20 73 -11 84 -11 100
4 17 16 19 16 26 -1 8 -19 11 -28 13 -51 1 -7 7 -10 13 -6 8 4 7 9 -2 15 -7 4
-11 10 -8 14 3 3 37 -13 75 -34 38 -22 83 -43 99 -46 l30 -6 -25 16 c-20 12
-21 15 -5 11 11 -3 49 -12 84 -20 103 -24 102 -18 5 -208 -88 -174 -178 -384
-169 -398 3 -4 -3 -14 -12 -21 -15 -12 -16 -12 -9 6 5 15 4 17 -5 8 -24 -23
-99 23 -99 61 0 15 -3 17 -9 8 -6 -11 -19 -7 -56 17 -27 17 -56 31 -64 31 -9
0 17 -18 57 -40 47 -27 72 -47 71 -58 0 -11 -2 -12 -6 -4 -4 11 -172 102 -189
102 -3 0 9 -12 28 -27 18 -15 35 -30 38 -33 3 -3 11 -5 18 -6 6 -1 19 -2 26
-2 8 -1 27 -13 42 -27 26 -24 27 -28 15 -61 -7 -20 -9 -40 -5 -44 7 -7 399
-160 409 -160 2 0 12 26 23 59 l20 58 -132 44 c-99 33 -130 48 -127 59 12 44
41 112 36 85 -4 -24 1 -19 23 23 24 47 29 52 52 47 14 -4 36 -13 49 -22 l24
-16 -24 -12 c-21 -11 -24 -20 -24 -67 0 -47 2 -53 22 -56 29 -4 59 49 44 77
-14 25 -5 31 45 31 69 0 59 15 -24 39 -89 26 -168 59 -160 67 3 3 34 -4 69
-15 181 -59 560 -144 574 -129 3 3 -1 21 -10 39 -10 22 -14 26 -11 11 7 -36
-17 -37 -114 -8 -80 25 -110 33 -132 35 -13 2 -9 36 7 57 8 10 15 32 15 48 0
25 3 27 23 22 12 -4 45 -9 72 -13 60 -7 69 -13 97 -69 31 -62 34 -47 4 22 -17
42 -29 58 -41 56 -35 -7 -125 20 -140 41 -19 27 -19 74 -1 108 l14 27 -62 12
c-80 15 -216 60 -216 71 0 12 2 12 61 -11 91 -36 263 -67 420 -77 l96 -5 7 32
c3 18 6 49 7 69 0 20 3 30 6 24 3 -10 8 -9 20 2 25 25 33 17 33 -35 0 -48 -1
-51 -30 -56 -33 -7 -41 -24 -10 -24 35 0 70 23 76 49 3 14 7 31 9 36 4 14 35
-59 37 -89 1 -14 7 -22 14 -19 15 5 -10 87 -34 116 -15 16 -16 16 -34 -10
l-18 -28 0 46 c0 33 5 49 15 53 8 3 15 13 15 22 0 15 -3 15 -22 -3 -56 -51
-156 -82 -268 -84 -89 -2 -53 -16 45 -18 59 -1 60 -1 61 -30 l1 -30 -51 6
c-59 7 -96 19 -96 31 0 5 -36 13 -80 16 -54 5 -85 13 -97 24 -13 13 -34 17
-95 17 l-78 -1 6 37 c5 32 3 39 -17 52 -13 9 -42 19 -64 23 -46 8 -140 53
-272 130 -92 55 -109 62 -98 44 4 -6 -7 -16 -24 -23 -29 -12 -30 -14 -13 -31
16 -18 16 -18 -8 -11 -14 3 -33 7 -42 6 -10 0 -18 7 -18 15 0 8 4 14 9 14 14
0 23 32 12 43 -5 5 -14 -5 -22 -27 -7 -20 -17 -36 -21 -36 -21 0 -17 33 13 89
18 34 29 64 26 67 -3 3 -24 -31 -46 -76z m177 -72 c2 -8 -4 -15 -13 -15 -8 0
-15 4 -15 9 0 5 -4 6 -10 3 -5 -3 -10 -2 -10 4 0 23 43 23 48 -1z m556 -264
c9 -3 16 -14 16 -23 -1 -15 -2 -15 -13 0 -7 9 -17 14 -24 12 -7 -3 -20 0 -30
6 -16 9 -15 10 9 11 14 0 33 -3 42 -6z m416 -22 c0 -37 -17 -54 -42 -41 -23
12 -23 45 0 58 29 18 42 12 42 -17z m-467 -43 c94 -30 117 -46 117 -79 0 -11
7 -36 14 -55 19 -45 16 -45 -117 0 -155 51 -205 75 -186 85 8 5 24 27 34 50
14 30 23 39 34 34 9 -4 55 -19 104 -35z m-123 -114 c0 -10 -83 -145 -87 -141
-3 2 0 13 6 25 7 12 7 22 2 26 -12 7 -5 69 8 73 5 2 8 9 5 16 -3 9 5 11 31 8
19 -2 35 -6 35 -7z m130 -44 c30 -11 70 -20 88 -21 17 0 32 -3 32 -6 0 -11
-61 -133 -69 -138 -4 -3 -15 3 -23 14 -14 16 -14 21 -3 37 12 14 15 15 15 3 1
-8 8 3 16 24 16 45 13 57 -6 22 -15 -29 -40 -42 -40 -22 0 8 -6 16 -14 19 -9
4 -12 0 -9 -13 6 -21 -14 -37 -29 -22 -8 8 -7 16 3 28 12 15 12 17 -1 12 -9
-3 -15 -17 -15 -36 0 -36 1 -36 -27 -21 -19 10 -20 13 -6 23 8 6 23 27 32 46
l17 35 -28 -31 c-24 -27 -81 -64 -98 -64 -15 0 -1 41 32 88 40 59 37 59 133
23z m-142 -252 c1 -8 -7 -20 -19 -27 -12 -8 -18 -9 -15 -3 4 5 2 13 -4 16 -8
5 -7 11 1 21 14 17 33 13 37 -7z m-259 -56 c28 -3 51 -8 51 -10 0 -2 -7 -20
-15 -40 -15 -35 -15 -36 -33 -16 -9 11 -23 18 -29 16 -7 -3 -13 0 -13 6 0 6
-7 8 -15 5 -8 -4 -15 -1 -15 5 0 6 -9 11 -20 11 -22 0 -25 12 -9 41 10 19 12
19 28 5 10 -9 41 -19 70 -23z m200 -68 c45 -14 81 -30 81 -35 0 -14 -41 -37
-77 -44 -24 -4 -33 -2 -33 8 0 7 -6 19 -14 26 -8 6 -17 19 -19 28 -2 9 -3 7
-2 -5 2 -16 -3 -23 -14 -23 -13 0 -16 7 -13 35 2 19 6 35 8 35 1 0 39 -11 83
-25z m-109 -27 c0 -10 -11 -10 -29 1 -9 6 -11 16 -7 27 7 18 8 18 22 0 8 -11
14 -23 14 -28z"/>
<path d="M1640 2005 c-16 -19 -6 -45 19 -45 23 0 35 28 20 46 -15 18 -24 18
-39 -1z"/>
<path d="M1692 1975 c-11 -23 -9 -27 14 -35 32 -13 44 -13 44 0 0 6 -9 10 -19
10 -26 0 -36 17 -21 35 7 8 8 15 3 15 -5 0 -15 -11 -21 -25z"/>
<path d="M1166 2481 c-10 -11 -15 -24 -12 -29 6 -11 180 -114 251 -150 l40
-20 -4 45 c-3 42 -4 43 -18 24 -19 -28 -37 -26 -53 4 -11 21 -10 28 4 50 l17
26 37 -22 c20 -12 73 -46 117 -74 44 -29 99 -59 123 -67 23 -8 40 -16 38 -19
-2 -2 10 -4 27 -5 18 0 61 -4 97 -7 55 -5 58 -5 18 2 -55 11 -171 48 -210 67
-18 9 -25 19 -22 29 4 8 1 15 -6 15 -6 0 -8 -5 -4 -11 4 -7 1 -10 -7 -7 -8 3
-13 11 -11 17 1 7 -2 10 -8 6 -6 -4 -53 18 -105 48 -81 48 -95 53 -100 38 -3
-10 -16 -28 -30 -41 l-25 -23 -67 33 c-95 47 -97 49 -77 71 10 11 15 19 12 19
-3 0 -13 -9 -22 -19z"/>
<path d="M1963 2488 c-22 -28 -23 -76 -3 -100 11 -13 19 -19 20 -14 0 5 7 2
17 -5 15 -13 15 -12 4 10 -7 13 -11 43 -9 67 3 39 2 42 -10 27 -9 -12 -11 -32
-8 -58 5 -28 3 -36 -4 -25 -14 21 -12 84 2 98 7 7 9 12 6 12 -3 0 -10 -6 -15
-12z"/>
<path d="M2006 2474 c-11 -28 -6 -71 8 -83 18 -15 27 6 14 32 -5 9 -6 23 -1
30 5 8 9 3 13 -13 8 -33 44 -34 48 -2 2 13 -2 30 -8 38 -17 19 -66 18 -74 -2z"/>
<path d="M2100 2437 c4 -47 5 -48 8 -14 3 34 5 37 29 31 18 -5 24 -3 19 5 -4
6 -15 11 -25 11 -9 0 -21 4 -26 10 -7 6 -8 -10 -5 -43z"/>
<path d="M0 2454 c0 -42 18 -91 36 -98 17 -7 16 -2 -15 79 -19 46 -20 48 -21
19z"/>
<path d="M2450 2414 c-25 -7 -43 -13 -40 -14 3 0 49 -2 102 -3 l98 -2 -48 17
c-55 19 -54 19 -112 2z"/>
<path d="M2351 2386 c-1 -14 4 -17 24 -14 28 6 41 -6 48 -42 4 -23 4 -22 5 5
2 43 -11 59 -41 51 -16 -4 -27 -1 -30 7 -3 7 -6 4 -6 -7z"/>
<path d="M919 2383 c-1 -5 -2 -13 -3 -20 0 -6 -13 -25 -28 -42 -27 -30 -37
-61 -19 -61 5 0 16 10 24 23 14 19 16 20 16 4 1 -11 6 -15 12 -11 17 10 1 -50
-27 -105 -27 -50 -76 -117 -54 -73 6 12 8 27 5 32 -3 5 -1 19 5 31 7 11 9 23
6 26 -2 3 -23 -32 -46 -77 l-41 -82 43 25 c32 19 53 43 80 92 20 36 49 80 63
97 l27 32 -25 9 c-26 8 -44 35 -24 34 7 0 27 1 46 1 33 2 34 3 16 16 -14 10
-25 11 -37 5 -19 -10 -26 5 -8 16 18 11 11 35 -10 35 -11 0 -21 -3 -21 -7z"/>
<path d="M2362 2349 c-13 -5 -21 -13 -17 -18 3 -6 12 -8 19 -5 8 3 16 -4 20
-18 9 -34 8 -38 -9 -32 -10 4 -15 0 -15 -13 0 -22 51 -45 71 -32 10 6 8 9 -8
9 -19 0 -23 6 -24 33 -1 17 -4 44 -8 58 -5 23 -9 25 -29 18z"/>
<path d="M2685 2317 c-4 -23 -2 -72 5 -107 16 -97 51 -252 56 -248 2 2 -8 58
-22 124 -14 65 -27 154 -27 197 -1 42 -3 77 -4 77 -1 0 -5 -19 -8 -43z"/>
<path d="M2319 2299 c-3 -32 0 -46 9 -46 13 0 14 27 3 67 -7 21 -8 18 -12 -21z"/>
<path d="M1786 2314 c-10 -26 4 -37 25 -18 10 9 19 22 18 28 0 6 -3 6 -6 -1
-2 -7 -9 -13 -14 -13 -6 0 -7 5 -4 10 3 6 2 10 -3 10 -6 0 -13 -7 -16 -16z"/>
<path d="M985 2294 c62 -24 166 -29 190 -10 19 14 15 15 -50 16 -38 1 -95 3
-125 5 l-55 5 40 -16z"/>
<path d="M1475 2300 c-8 -13 1 -27 26 -40 13 -8 19 -7 19 1 0 6 -9 13 -21 16
-14 4 -17 8 -9 13 8 5 9 10 2 14 -6 3 -13 2 -17 -4z"/>
<path d="M2650 2294 c0 -8 -7 -22 -15 -31 -19 -18 -15 -26 9 -17 14 5 25 64
11 64 -3 0 -5 -7 -5 -16z"/>
<path d="M2448 2277 c-4 -22 -3 -24 13 -14 10 6 20 9 22 7 3 -3 0 -36 -5 -74
-10 -75 -7 -96 17 -96 17 0 20 23 5 50 -9 17 -3 23 47 49 32 17 53 30 46 31
-6 0 -28 -10 -48 -21 -20 -12 -38 -19 -41 -16 -12 12 14 73 37 84 l24 13 -26
0 c-15 0 -40 3 -56 6 -26 5 -31 3 -35 -19z"/>
<path d="M2906 2281 c-3 -5 7 -11 22 -14 31 -6 37 -3 27 12 -8 13 -42 14 -49
2z"/>
<path d="M975 2243 c-41 -61 -85 -146 -80 -151 3 -3 22 11 43 32 20 21 31 35
23 31 -16 -9 14 45 42 76 15 16 47 27 47 15 0 -2 -16 -23 -35 -46 -39 -46 -41
-53 -22 -68 9 -7 29 8 75 59 l64 69 -40 0 c-22 0 -53 3 -69 6 -25 5 -33 1 -48
-23z"/>
<path d="M2240 2250 c0 -52 -32 -80 -109 -95 -13 -2 -30 -6 -39 -9 -26 -8 -40
6 -45 44 -4 34 -4 34 -5 -7 -2 -44 -18 -65 -28 -38 -6 13 -8 14 -15 3 -7 -10
-9 -10 -9 0 0 6 -8 12 -17 11 -11 0 -13 -3 -5 -6 6 -2 12 -9 12 -14 0 -12 -91
-2 -141 15 -24 9 -51 11 -67 7 -24 -7 -21 -9 31 -20 111 -24 176 -29 245 -21
84 11 174 43 210 77 20 18 22 22 7 14 -19 -9 -20 -7 -17 25 2 19 1 34 -2 34
-3 0 -6 -9 -6 -20z"/>
<path d="M2870 2264 c0 -2 11 -22 25 -44 25 -40 47 -50 61 -28 5 7 3 8 -5 4
-7 -5 -21 0 -32 10 -21 19 -27 43 -6 27 13 -11 57 -24 57 -17 0 2 -22 15 -50
28 -27 13 -50 22 -50 20z"/>
<path d="M2015 2240 l-40 -7 35 -1 c19 0 46 4 60 8 32 10 2 10 -55 0z"/>
<path d="M1711 2217 c-21 -21 -22 -21 -16 -2 6 19 5 19 -7 -1 -7 -12 -20 -19
-28 -17 -10 3 -8 -1 4 -11 27 -22 32 -20 53 14 15 26 19 28 25 13 6 -16 7 -16
7 -1 1 27 -14 29 -38 5z"/>
<path d="M2424 2208 c-18 -8 -20 -16 -16 -61 2 -29 9 -59 14 -67 6 -10 7 9 3
53 -4 45 -2 67 5 67 7 0 10 -26 8 -72 -2 -40 -7 -71 -12 -70 -15 6 -25 -21
-15 -40 12 -23 4 -38 -22 -38 -12 0 -19 -7 -19 -20 0 -26 13 -25 45 3 22 20
26 33 34 122 5 55 12 108 16 118 8 19 -8 22 -41 5z"/>
<path d="M1469 2135 c-19 -36 -38 -63 -43 -62 -5 2 -16 13 -24 25 -13 21 -13
22 9 23 21 1 21 2 -6 10 -49 14 -54 -6 -12 -48 20 -20 38 -35 40 -32 12 15 77
142 74 145 -2 2 -19 -26 -38 -61z"/>
<path d="M1522 2178 c-30 -30 0 -78 37 -58 26 14 27 46 2 60 -24 13 -24 13
-39 -2z m35 -14 c8 -21 -13 -42 -28 -27 -13 13 -5 43 11 43 6 0 13 -7 17 -16z"/>
<path d="M40 2173 c-50 -9 -46 -24 5 -21 28 2 49 8 48 13 -2 12 -19 14 -53 8z"/>
<path d="M1275 2175 c-5 -2 -49 -15 -96 -29 -83 -25 -87 -27 -133 -87 -26 -33
-46 -62 -44 -63 49 -28 125 -68 208 -108 58 -28 106 -52 108 -53 1 -1 -8 -21
-21 -44 -13 -22 -27 -38 -31 -34 -4 4 -4 0 -1 -9 4 -9 1 -26 -5 -38 -9 -16 -9
-20 -1 -15 8 5 10 -1 5 -20 -7 -28 6 -45 36 -45 28 0 41 16 35 42 -7 26 -35
35 -35 11 0 -7 -4 -13 -9 -13 -20 0 -15 37 11 86 52 96 44 124 -45 153 -21 7
-41 19 -44 27 -3 8 -12 13 -21 12 -8 -2 -17 3 -20 11 -3 8 0 11 6 7 10 -6 26
11 62 64 37 55 34 53 58 33 13 -10 24 -26 26 -36 1 -10 7 -22 13 -25 26 -17
34 -51 18 -81 -19 -39 -19 -50 1 -25 14 17 15 17 10 1 -3 -10 -2 -16 3 -13 5
3 9 17 9 30 0 14 9 43 21 66 11 22 21 44 21 49 0 4 -51 30 -112 57 -62 27
-105 50 -96 52 10 2 38 -6 64 -17 26 -12 49 -19 52 -16 3 3 0 5 -7 5 -6 0 -11
8 -9 18 2 9 -4 18 -12 18 -8 1 -19 2 -24 3 -5 0 -3 8 4 16 13 15 12 16 -5 10z
m-52 -66 c12 -7 24 -13 25 -15 4 -3 -109 -154 -115 -154 -3 0 -2 7 1 16 4 12
1 14 -14 9 -11 -4 -20 -2 -20 3 0 6 -13 15 -30 21 -16 5 -30 12 -30 14 0 9 70
81 96 98 33 22 56 24 87 8z m151 -75 c9 -3 16 -15 16 -25 0 -17 -3 -18 -20 -9
-11 6 -20 17 -20 25 0 17 2 17 24 9z"/>
<path d="M2640 2147 c-34 -15 -33 -14 -25 -27 5 -8 13 -6 26 6 11 9 22 14 26
10 9 -9 -38 -41 -61 -41 -11 0 -21 -6 -23 -13 -6 -16 22 -11 65 11 23 13 32
25 32 42 0 28 -4 29 -40 12z"/>
<path d="M66 2109 c-66 -10 -77 -16 -56 -29 9 -6 19 -5 24 0 6 6 22 10 36 10
14 0 35 7 46 15 10 8 17 14 14 13 -3 0 -32 -4 -64 -9z"/>
<path d="M2497 2063 c-10 -10 -8 -66 3 -83 7 -11 10 -6 10 22 0 20 3 43 6 52
6 16 -7 22 -19 9z"/>
<path d="M808 2027 c-28 -18 -44 -35 -39 -40 15 -15 1 -40 -15 -27 -10 9 -15
2 -24 -32 -6 -24 -13 -48 -15 -55 -2 -7 0 -15 4 -18 12 -7 34 22 26 34 -3 7 0
8 9 5 14 -5 21 7 14 20 -2 3 7 15 18 28 20 22 80 119 72 118 -1 -1 -24 -15
-50 -33z"/>
<path d="M2293 2021 c-7 -11 -32 -25 -55 -32 -42 -11 -154 -7 -193 7 -17 6
-18 5 -7 -7 10 -11 44 -14 137 -14 68 0 126 3 130 7 4 3 5 18 3 32 -3 26 -4
26 -15 7z"/>
<path d="M2826 2010 c4 -19 13 -46 21 -60 l14 -25 -7 25 c-4 14 -13 41 -20 60
l-14 35 6 -35z"/>
<path d="M1286 1993 c-7 -18 10 -34 30 -26 10 4 11 10 3 24 -12 23 -25 24 -33
2z"/>
<path d="M1955 1995 c17 -8 38 -14 48 -15 9 0 17 -5 17 -11 0 -8 -17 -10 -55
-5 -45 5 -55 3 -55 -9 0 -8 8 -15 18 -16 15 0 15 -1 -2 -8 -14 -5 -16 -10 -8
-15 7 -4 22 0 34 8 12 9 31 16 41 16 16 0 18 -6 13 -47 l-5 -48 14 40 c29 84
18 106 -55 119 l-35 6 30 -15z"/>
<path d="M1897 1980 c-8 -11 -16 -18 -18 -15 -3 2 -4 -12 -2 -33 2 -36 2 -36
-6 -7 -7 23 -9 25 -10 8 0 -12 2 -28 5 -37 11 -29 24 -17 24 22 0 21 7 48 16
60 8 12 13 22 10 22 -3 0 -11 -9 -19 -20z"/>
<path d="M2348 1957 c-5 -10 -9 -33 -9 -50 -1 -24 -3 -26 -6 -9 -3 12 -12 22
-21 22 -11 0 -13 -3 -5 -8 6 -4 14 -19 18 -34 5 -19 2 -29 -12 -37 -17 -10
-17 -12 0 -21 9 -6 17 -21 17 -34 0 -32 20 -86 32 -86 5 0 7 8 4 18 -13 41
-23 147 -14 153 5 3 8 28 6 55 -2 34 -5 43 -10 31z"/>
<path d="M2047 1953 c-3 -5 -8 -24 -11 -43 l-7 -35 15 31 c7 17 20 33 27 35
14 5 65 4 84 -1 6 -1 30 -1 55 0 l45 3 -55 7 c-74 11 -148 12 -153 3z"/>
<path d="M2890 1933 c1 -11 30 -49 30 -39 0 4 14 -4 31 -18 28 -24 49 -27 49
-6 0 8 -91 70 -103 70 -4 0 -7 -3 -7 -7z"/>
<path d="M0 1910 c0 -13 14 -26 43 -40 101 -49 129 -67 152 -95 13 -17 24 -38
25 -49 0 -15 -5 -17 -27 -11 -27 6 -27 6 -8 -9 11 -8 25 -16 32 -16 11 0 49
97 42 105 -6 5 -250 135 -255 135 -2 0 -4 -9 -4 -20z"/>
<path d="M2116 1914 c-8 -21 -9 -20 19 -38 24 -16 25 -16 25 10 0 23 -2 25
-15 14 -9 -7 -18 -10 -22 -7 -3 4 0 13 7 22 7 8 8 15 2 15 -5 0 -13 -7 -16
-16z"/>
<path d="M2477 1921 c-16 -6 -15 -9 10 -31 24 -22 25 -22 9 -2 -19 22 -19 22
2 22 11 0 24 5 27 10 7 11 -21 12 -48 1z"/>
<path d="M2223 1905 c-13 -9 -27 -24 -32 -33 -8 -15 -5 -17 27 -15 36 2 99 21
74 22 -7 1 -10 6 -6 13 5 7 3 8 -5 4 -7 -5 -17 -1 -24 8 -11 15 -14 15 -34 1z"/>
<path d="M2544 1844 c1 -22 5 -44 9 -50 11 -18 77 -178 77 -186 0 -16 -19 -7
-83 42 -36 28 -72 50 -79 50 -7 0 -29 17 -50 37 l-38 37 0 -27 c0 -20 5 -27
19 -27 11 0 30 -13 43 -29 13 -15 50 -48 83 -71 33 -24 63 -48 67 -54 5 -7 8
-7 8 -1 0 6 8 1 16 -10 11 -14 18 -16 21 -7 3 6 15 12 28 12 12 0 26 7 29 16
3 8 11 12 16 9 6 -4 45 -3 88 1 57 6 69 9 47 14 -16 3 -51 1 -77 -4 -52 -11
-73 -2 -45 19 27 19 138 29 149 13 8 -10 9 -10 5 2 -4 17 -104 21 -146 6 -25
-9 -26 -7 -6 49 3 11 -1 7 -11 -10 -9 -16 -24 -38 -32 -48 -15 -16 -14 -17 4
-12 18 6 18 6 1 -8 -29 -24 -45 -10 -53 41 -3 26 -26 89 -49 141 -39 85 -43
90 -41 55z"/>
<path d="M545 1850 c-14 -16 -16 -25 -8 -42 10 -23 10 -23 26 8 20 39 8 63
-18 34z"/>
<path d="M1109 1809 c24 -22 24 -40 0 -47 -10 -3 -11 -1 -2 5 10 7 8 13 -7 25
-17 15 -20 15 -32 1 -10 -13 -9 -18 11 -34 26 -21 40 -21 54 2 12 20 -8 69
-30 69 -14 0 -13 -3 6 -21z"/>
<path d="M1248 1813 c-10 -2 -18 -9 -18 -14 0 -5 -6 -9 -14 -9 -8 0 -18 -4
-21 -10 -10 -17 62 -11 79 6 29 29 19 39 -26 27z"/>
<path d="M2178 1788 c9 -15 18 -25 21 -23 2 3 -1 11 -8 18 -9 9 -5 14 21 23
l33 11 -42 -1 -41 -1 16 -27z"/>
<path d="M2615 1775 c3 -27 10 -54 15 -59 11 -11 4 37 -12 84 -5 17 -6 9 -3
-25z"/>
<path d="M0 1750 c0 -11 10 -22 23 -26 12 -3 29 -12 37 -18 8 -7 35 -21 60
-31 51 -22 60 -31 60 -62 0 -13 5 -23 10 -23 6 0 10 5 10 10 0 6 9 14 20 18
21 8 21 8 -2 28 -13 12 -67 44 -120 72 -84 43 -98 48 -98 32z"/>
<path d="M2130 1767 c0 -5 6 -20 14 -35 7 -15 16 -39 20 -54 5 -24 3 -28 -14
-28 -11 0 -20 -5 -20 -11 0 -7 9 -9 23 -5 12 3 28 6 34 6 9 0 4 19 -13 58 -24
54 -44 85 -44 69z"/>
<path d="M500 1745 c-10 -12 -9 -20 4 -40 9 -14 20 -25 25 -25 11 0 22 26 14
34 -10 10 -25 7 -18 -4 3 -5 4 -10 1 -10 -3 0 -10 9 -16 20 -9 16 -8 18 5 14
10 -4 15 0 15 10 0 20 -14 21 -30 1z"/>
<path d="M2205 1742 c6 -4 36 -59 69 -122 32 -63 63 -119 68 -125 12 -13 -21
73 -40 102 -12 20 -12 24 2 38 11 11 16 12 16 4 0 -7 2 -10 5 -7 8 8 -16 68
-27 68 -6 0 -8 -6 -5 -14 3 -8 0 -19 -7 -25 -10 -8 -19 1 -40 39 -15 28 -33
50 -39 50 -8 0 -8 -3 -2 -8z"/>
<path d="M1447 1625 c-15 -30 -25 -55 -23 -55 4 0 66 99 66 106 0 2 -4 4 -8 4
-4 0 -20 -25 -35 -55z"/>
<path d="M1691 1658 c-5 -13 -15 -38 -22 -57 -7 -18 -24 -47 -37 -63 -26 -31
-26 -34 1 -40 12 -2 26 14 50 61 17 36 38 67 45 69 9 3 6 -10 -8 -39 -22 -43
-101 -233 -97 -234 1 -1 16 -7 32 -14 87 -38 216 -79 212 -68 -2 6 -10 11 -16
10 -14 -4 -14 -4 4 47 8 24 13 45 11 47 -2 2 -8 -10 -14 -26 -10 -29 -42 -44
-42 -21 0 16 38 88 50 95 5 3 10 18 10 33 0 23 -5 19 -30 -28 -34 -61 -85
-111 -106 -103 -11 4 -12 9 -4 19 7 7 17 11 24 8 7 -3 21 5 32 18 l19 22 -27
-17 c-26 -16 -28 -16 -28 -1 0 12 -5 10 -21 -10 -11 -14 -26 -26 -34 -26 -29
0 -26 52 11 165 37 111 38 113 62 102 l24 -11 -23 -8 c-12 -5 -20 -11 -17 -13
3 -3 21 2 41 10 20 8 49 15 65 15 24 0 29 -4 29 -22 1 -49 3 -60 15 -56 7 3
15 15 18 29 20 76 21 79 5 79 -8 0 -15 -4 -15 -10 0 -14 -43 -12 -124 5 -73
15 -122 43 -56 31 19 -3 49 -8 65 -11 17 -3 3 3 -30 15 -33 11 -61 20 -63 20
-1 0 -6 -10 -11 -22z"/>
<path d="M2380 1640 c0 -32 60 -85 144 -127 39 -19 73 -37 75 -39 2 -2 -4 -13
-14 -24 -18 -20 -18 -21 6 -46 19 -20 21 -27 10 -34 -12 -7 -12 -13 -1 -39 17
-42 31 -49 24 -11 -4 18 -2 30 4 30 15 0 23 -29 13 -49 -9 -16 7 -91 19 -91 6
0 1 153 -6 197 -4 17 -1 48 6 67 9 30 16 36 39 36 26 0 152 -76 158 -95 1 -5
-12 -20 -30 -32 -21 -13 -44 -42 -60 -76 -14 -31 -34 -60 -44 -66 -10 -6 -13
-11 -6 -11 7 0 15 -16 19 -35 3 -20 9 -33 12 -30 8 7 42 -26 42 -41 0 -8 -7
-11 -17 -8 -15 5 -15 4 -3 -4 15 -12 30 -7 30 10 0 6 -13 26 -30 45 -32 36
-36 53 -19 85 10 19 14 17 70 -38 50 -49 56 -60 42 -66 -13 -5 -10 -6 10 -5
15 1 27 4 27 8 0 3 -27 29 -60 58 -62 54 -70 73 -46 106 13 18 14 18 44 -3
l30 -22 6 25 c9 33 38 48 71 35 17 -6 25 -16 22 -24 -4 -10 0 -12 15 -8 21 5
21 5 -3 24 -13 10 -46 38 -72 61 -73 64 -197 137 -233 137 -37 0 -48 -9 -33
-26 11 -14 4 -34 -12 -34 -5 0 -9 7 -9 15 0 8 -6 12 -14 9 -17 -6 -120 61
-183 119 -40 37 -43 38 -43 17z m255 -210 c-3 -11 -1 -28 5 -40 8 -16 8 -20
-4 -20 -14 0 -27 54 -19 77 8 20 24 3 18 -17z m255 -45 c11 -13 10 -18 -8 -31
-12 -8 -22 -22 -22 -30 0 -11 -4 -12 -19 -4 -17 9 -18 13 -8 33 29 53 36 57
57 32z"/>
<path d="M1977 1624 c-4 -4 -7 -18 -7 -31 0 -15 -6 -23 -17 -23 -14 0 -15 -2
-4 -9 8 -5 10 -14 6 -22 -5 -7 -7 -48 -6 -91 1 -43 -3 -86 -7 -96 -5 -9 -12
-38 -16 -63 l-7 -45 103 -39 c57 -21 108 -40 115 -43 9 -3 10 5 3 30 -6 18
-11 98 -12 178 l-2 145 -6 -120 -5 -120 -33 0 c-22 0 -39 7 -48 19 -19 26 -18
13 1 -25 14 -27 17 -28 31 -14 18 18 37 10 32 -13 -6 -29 -49 -21 -70 12 -14
23 -18 25 -13 9 5 -17 2 -23 -9 -23 -44 0 -57 67 -36 180 5 29 11 73 11 99 1
25 6 57 11 70 9 24 -2 48 -15 35z"/>
<path d="M2192 1614 c-11 -11 -10 -14 3 -14 10 0 15 -10 15 -32 1 -33 19 -68
36 -68 5 0 19 -22 31 -48 13 -26 20 -36 17 -22 -3 14 -24 64 -47 112 -35 73
-44 84 -55 72z"/>
<path d="M2376 1543 c32 -115 30 -142 -2 -34 -14 46 -29 91 -35 100 -9 13 -9
12 -4 -4 4 -11 18 -62 33 -112 14 -51 29 -88 33 -82 4 8 8 7 11 -2 3 -9 6 -6
10 7 6 25 -28 168 -42 172 -6 2 -10 10 -10 17 0 8 -4 16 -9 19 -5 3 2 -33 15
-81z"/>
<path d="M936 1568 c4 -38 -14 -68 -42 -68 -8 0 -14 -8 -13 -17 0 -11 3 -13 6
-5 2 6 9 12 14 12 4 0 6 -6 3 -14 -3 -8 -1 -17 5 -21 12 -7 15 -1 26 50 7 30
7 30 16 7 5 -13 6 -28 3 -33 -3 -5 -2 -9 3 -8 20 4 33 -2 33 -15 0 -10 7 -12
23 -9 22 6 21 6 -3 -16 l-25 -22 32 16 c32 15 37 14 157 -29 120 -44 320 -123
381 -151 17 -7 69 -27 116 -43 109 -38 121 -44 155 -84 21 -27 23 -28 10 -6
-19 33 -21 44 -3 29 8 -6 16 -8 19 -5 3 3 24 -25 47 -61 23 -36 46 -65 51 -65
5 0 3 8 -6 18 -8 10 -27 38 -41 63 -22 36 -23 41 -6 26 11 -9 22 -14 26 -11 3
3 19 -16 36 -42 22 -36 27 -51 18 -57 -8 -6 -8 -7 3 -4 8 2 21 -3 29 -10 7 -8
19 -12 27 -9 7 3 14 1 16 -3 2 -5 59 -34 128 -64 111 -49 278 -125 440 -200
55 -26 204 -59 315 -72 l60 -6 -75 47 c-41 26 -109 64 -150 84 -97 49 -401
173 -407 166 -7 -7 231 -121 285 -137 23 -7 47 -18 53 -26 6 -7 18 -13 26 -13
20 0 127 -56 142 -74 12 -14 10 -16 -11 -16 -38 0 -205 53 -288 92 -41 20
-104 48 -140 63 -36 16 -105 47 -155 71 -49 23 -116 51 -149 62 -50 17 -63 26
-87 66 -32 51 -31 53 12 30 17 -8 35 -14 42 -11 6 2 -24 18 -68 36 -43 18 -86
37 -94 42 -9 4 -77 31 -151 60 -74 28 -207 81 -295 117 -88 35 -225 89 -305
119 -125 47 -152 61 -192 100 -26 26 -49 56 -51 67 -2 12 -3 4 -1 -16z m1073
-533 c18 -25 28 -45 23 -45 -12 0 -33 26 -62 75 -30 50 -5 31 39 -30z"/>
<path d="M240 1584 c0 -12 7 -27 15 -34 22 -18 20 -24 -34 -75 -31 -30 -47
-52 -44 -62 4 -11 19 -1 57 36 28 28 58 51 66 51 10 0 8 6 -7 23 -11 12 -28
36 -36 52 -14 26 -16 27 -17 9z"/>
<path d="M991 1560 c19 -24 60 -56 90 -72 30 -16 43 -21 29 -11 -14 10 -38 32
-55 49 -16 17 -46 41 -65 54 l-35 24 36 -44z"/>
<path d="M2086 1585 c-3 -9 0 -15 10 -15 8 0 13 4 9 9 -3 6 12 12 32 14 l38 4
-41 1 c-29 1 -44 -3 -48 -13z"/>
<path d="M1830 1569 c-32 -13 -91 -69 -84 -81 3 -4 10 -6 15 -3 5 4 9 2 9 -4
0 -6 -9 -15 -20 -21 -11 -6 -24 -20 -30 -33 -10 -19 -9 -19 9 3 18 22 23 23
41 12 13 -8 20 -8 20 -2 0 6 21 33 46 60 26 28 44 50 40 50 -23 0 -70 -36 -82
-63 l-15 -32 6 30 c6 30 49 75 72 75 6 0 15 5 18 10 8 12 -12 12 -45 -1z"/>
<path d="M777 1536 c-10 -25 -8 -34 3 -16 5 8 10 10 10 4 0 -7 11 -9 25 -6 27
5 32 -7 13 -26 -15 -15 -32 -16 -23 -2 3 6 -1 10 -10 10 -24 0 -14 -34 10 -38
14 -2 26 7 38 28 22 37 14 53 -24 48 -16 -3 -30 0 -32 6 -2 5 -6 2 -10 -8z"/>
<path d="M2741 1547 c12 -9 119 -67 119 -64 0 10 -91 67 -106 67 -9 0 -15 -1
-13 -3z"/>
<path d="M0 1513 c0 -9 16 -13 54 -13 30 0 66 -4 80 -10 16 -6 27 -6 31 0 9
15 -33 28 -103 32 -46 3 -62 1 -62 -9z"/>
<path d="M2959 1518 c7 -10 19 -35 27 -55 12 -35 13 -36 14 -10 0 17 -10 38
-27 55 -15 15 -21 19 -14 10z"/>
<path d="M857 1490 l-18 -29 28 -7 c46 -11 48 -16 12 -35 -43 -23 -46 -23 -52
1 -6 22 8 28 16 8 3 -10 7 -10 17 -1 13 12 -1 19 -60 25 -16 2 -26 11 -31 28
-4 14 -7 20 -8 13 -1 -6 -4 -18 -7 -27 -4 -11 -1 -16 10 -16 10 0 22 -13 27
-29 8 -21 15 -28 27 -25 13 4 13 3 -1 -6 -21 -13 -33 -5 -39 24 -4 25 -35 29
-41 6 -6 -24 3 -33 18 -20 9 8 14 6 18 -4 8 -21 -8 -29 -32 -17 -30 16 -33
-10 -5 -43 24 -27 26 -28 75 -16 29 7 69 9 97 5 34 -5 44 -4 36 4 -5 6 -35 12
-65 12 -64 1 -91 7 -84 20 4 5 11 9 16 9 6 0 7 -5 3 -11 -4 -8 0 -7 15 1 12 6
19 16 15 22 -4 6 2 8 17 3 13 -3 19 -3 12 2 -7 5 8 17 43 34 30 14 54 22 54
17 0 -4 0 -11 1 -15 0 -5 -19 -13 -43 -20 l-43 -11 43 -1 c24 -1 56 -8 72 -16
17 -9 31 -12 31 -8 1 5 2 13 3 20 0 7 10 19 21 27 17 13 17 15 4 16 -9 0 -22
-6 -28 -14 -7 -8 -20 -13 -29 -12 -9 2 -15 5 -13 7 2 2 -1 14 -7 26 -12 21
-26 24 -49 10 -6 -4 -26 1 -43 12 l-32 19 21 21 c13 13 16 21 8 21 -7 0 -21
-13 -30 -30z"/>
<path d="M2010 1503 c0 -10 9 -33 20 -51 21 -34 27 -82 10 -82 -5 0 -10 -7
-10 -16 0 -14 2 -14 16 1 20 20 26 82 9 89 -7 2 -17 18 -23 35 -10 29 -10 30
8 21 11 -6 25 -20 31 -31 12 -24 23 -20 13 5 -6 14 -52 46 -69 46 -3 0 -5 -8
-5 -17z"/>
<path d="M2178 1463 c-15 -4 -18 -15 -16 -71 l2 -67 3 61 c4 55 6 61 31 71 27
11 13 15 -20 6z"/>
<path d="M2947 1437 c-3 -8 8 -30 23 -48 36 -42 41 -18 6 29 -17 23 -25 29
-29 19z"/>
<path d="M1692 1388 c-7 -9 -6 -17 4 -26 11 -10 15 -9 23 7 15 28 -6 43 -27
19z"/>
<path d="M2424 1386 c-3 -7 6 -38 20 -69 15 -31 26 -65 26 -75 0 -27 -29 -37
-45 -15 -7 9 -20 18 -29 19 -14 2 -15 0 -5 -12 6 -7 8 -25 5 -39 -4 -14 -4
-25 -2 -25 17 0 66 30 96 57 22 21 45 33 63 33 15 0 27 5 27 10 0 12 -50 33
-58 25 -3 -3 -2 -5 2 -5 4 0 2 -9 -4 -20 -6 -11 -15 -20 -20 -20 -17 0 -11 35
10 58 26 28 60 29 60 3 0 -10 7 -22 16 -25 30 -11 26 2 -10 41 l-36 38 -34
-40 -34 -40 -7 30 c-11 51 -14 57 -27 49 -10 -6 -11 -4 0 7 6 7 12 17 12 21 0
13 -20 9 -26 -6z"/>
<path d="M1903 1372 c3 -13 -1 -42 -9 -64 -16 -46 -18 -61 -5 -54 11 7 44 126
37 134 -3 3 -6 -1 -6 -9 0 -12 -2 -11 -11 1 -9 12 -10 10 -6 -8z"/>
<path d="M1051 1367 c7 -9 309 -126 309 -120 0 7 -133 64 -205 88 -38 13 -79
27 -90 31 -11 4 -17 4 -14 1z"/>
<path d="M704 1326 c-10 -26 -1 -38 20 -23 16 12 16 14 2 26 -13 11 -17 11
-22 -3z"/>
<path d="M2411 1320 c-1 -18 22 -87 32 -96 12 -12 8 9 -13 61 -10 28 -19 43
-19 35z"/>
<path d="M2160 1236 l0 -83 70 -31 c121 -55 492 -199 568 -221 70 -21 95 -41
50 -41 -32 0 -138 -23 -138 -30 0 -3 21 -16 47 -29 25 -12 89 -49 141 -82 52
-32 96 -59 98 -59 2 0 4 6 4 14 0 12 -122 97 -190 132 -24 13 -24 13 25 35 47
21 51 21 78 5 16 -9 36 -16 46 -16 9 0 22 -5 29 -12 9 -9 12 -9 12 0 0 6 -17
16 -39 22 -21 5 -55 23 -75 39 -21 17 -58 38 -84 47 -121 44 -198 77 -213 90
-10 9 -19 10 -25 4 -7 -7 -16 -5 -29 4 -18 13 -18 14 3 25 12 6 22 18 22 26 0
20 -19 19 -26 0 -7 -19 -34 -19 -58 -2 -17 13 -16 15 14 41 25 21 39 26 60 21
33 -7 46 7 30 32 -9 16 -10 15 -5 -4 8 -31 -1 -29 -37 7 -33 33 -62 42 -33 10
10 -11 16 -22 13 -25 -3 -3 -11 1 -18 10 -18 22 -28 18 -23 -9 6 -30 -10 -40
-36 -24 -39 24 -34 -3 10 -49 24 -25 37 -43 28 -40 -10 3 -35 11 -57 17 -39
12 -39 13 -58 94 l-19 81 -3 -63 -3 -62 -29 15 c-16 8 -35 14 -41 13 -7 -2
-16 8 -20 22 -6 21 -7 21 -8 5 -1 -12 -4 -16 -9 -9 -4 6 -14 13 -23 16 -12 5
-15 14 -12 32 3 14 1 26 -4 26 -11 0 -11 59 1 78 5 8 0 12 -13 12 -20 0 -21
-6 -21 -84z"/>
<path d="M712 1280 c-11 -11 -25 -37 -29 -57 -13 -63 -9 -303 6 -356 18 -63
33 -47 16 18 -7 28 -9 52 -4 53 5 2 6 8 3 13 -3 5 -10 23 -14 40 -9 30 -8 31
18 24 l27 -6 -22 16 c-19 13 -23 26 -23 65 0 27 5 52 10 55 7 4 7 11 2 18 -11
15 5 77 20 77 6 0 17 8 24 18 13 16 15 16 25 -1 8 -14 14 -16 24 -7 29 24 101
22 160 -5 32 -14 61 -22 66 -19 12 7 12 7 -7 -55 -8 -29 -14 -55 -11 -57 2 -2
11 20 20 50 l17 53 57 -29 c32 -16 60 -34 64 -39 4 -8 8 -7 12 2 4 10 6 10 6
2 1 -7 11 -13 24 -13 12 0 42 -10 67 -22 25 -12 52 -23 60 -24 12 -1 77 -29
123 -52 4 -2 7 5 8 15 0 10 3 13 5 6 7 -16 -88 -468 -100 -481 -3 -3 10 -23
30 -44 20 -23 33 -46 30 -54 -3 -9 2 -18 14 -22 10 -4 43 -41 72 -83 77 -109
183 -240 186 -230 2 5 8 47 15 94 l13 86 -29 -17 c-21 -13 -24 -18 -12 -20 13
-3 15 -12 9 -50 -4 -26 -8 -48 -9 -50 -5 -5 -42 34 -62 65 -10 15 -28 36 -41
46 -12 10 -20 22 -17 27 3 4 -2 14 -11 21 -27 22 -66 97 -62 121 2 18 -5 27
-32 40 -19 10 -40 30 -48 44 -16 30 -15 35 23 209 14 66 27 144 29 174 3 37
10 59 21 67 10 8 14 18 9 25 -5 9 -2 10 12 4 10 -4 34 -13 52 -19 18 -6 35
-19 38 -29 3 -10 16 -23 29 -29 13 -6 29 -23 34 -37 6 -14 27 -44 47 -66 20
-22 35 -35 33 -30 -3 6 -11 22 -19 37 -15 32 -14 34 23 43 l27 7 0 -60 c0 -76
-18 -87 -54 -32 -14 22 -37 47 -51 56 -15 10 -25 26 -25 40 0 29 -26 32 -33 4
-5 -18 -8 -19 -31 -9 -14 7 -23 17 -19 23 3 6 -5 0 -20 -13 -15 -13 -24 -31
-22 -42 3 -13 -2 -19 -14 -19 -28 0 -42 -23 -35 -57 7 -34 31 -49 97 -59 23
-4 63 -17 89 -30 26 -13 61 -24 78 -24 16 0 30 -4 30 -8 0 -4 -23 -30 -51 -57
-66 -66 -87 -101 -36 -62 47 36 48 15 1 -38 -20 -22 -33 -34 -29 -28 3 7 1 13
-5 13 -6 0 -8 4 -5 10 3 5 2 10 -3 10 -15 0 -23 46 -12 74 7 20 6 24 -4 20 -8
-3 -17 -1 -20 5 -4 6 -13 8 -20 5 -16 -6 -46 21 -46 42 0 8 -4 14 -10 14 -5 0
-10 -6 -10 -14 0 -8 5 -18 10 -21 6 -3 10 -11 10 -16 0 -13 -24 10 -39 39 -22
41 -67 21 -56 -26 6 -30 17 -34 43 -18 18 11 83 -52 129 -124 20 -30 52 -72
71 -92 20 -21 32 -38 28 -38 -11 0 -125 68 -150 89 -19 16 -19 15 -3 -10 9
-14 35 -36 58 -48 40 -23 40 -24 18 -35 -12 -6 -24 -18 -26 -26 -3 -10 -2 -11
4 -4 4 6 23 16 42 22 41 14 41 14 41 3 0 -5 -19 -16 -41 -25 -23 -9 -39 -19
-37 -22 3 -2 28 5 56 17 62 26 107 20 152 -18 30 -24 31 -25 50 -8 25 23 25
37 0 53 -15 9 -26 10 -41 1 -11 -6 -23 -8 -26 -5 -3 3 3 9 13 13 10 5 20 14
22 21 2 9 -8 6 -28 -8 -16 -12 -30 -17 -30 -11 0 6 18 22 39 35 49 31 55 40
46 74 l-7 27 -17 -35 c-9 -19 -22 -35 -29 -35 -8 0 -26 -17 -41 -37 -28 -37
-41 -40 -41 -8 0 9 -14 36 -31 59 -29 41 -30 44 -13 62 21 24 31 24 37 2 2
-10 3 -6 1 8 -1 14 8 49 22 78 13 29 24 57 24 63 0 24 -64 98 -114 133 -46 31
-58 36 -71 25 -8 -7 -13 -16 -10 -20 3 -4 -2 -13 -10 -20 -12 -10 -20 -9 -40
4 -13 9 -31 16 -40 16 -19 0 -19 14 -1 29 10 9 19 7 37 -8 23 -19 24 -19 52 5
33 28 59 31 77 9 7 -8 18 -15 24 -15 16 0 58 -45 85 -90 l21 -35 0 66 c0 101
7 127 36 125 17 -1 25 -9 30 -30 l6 -30 19 35 c11 21 18 27 19 17 0 -11 8 -18
20 -18 11 0 23 -7 26 -15 4 -9 19 -15 35 -15 22 0 30 -6 35 -25 5 -22 8 -23
21 -9 13 13 17 11 35 -22 13 -25 18 -47 14 -66 -3 -18 0 -38 9 -51 7 -12 17
-56 21 -98 6 -71 8 -77 40 -98 29 -20 37 -22 68 -11 20 6 36 13 36 15 0 2 -18
3 -41 2 -51 -2 -61 10 -83 101 -20 82 -45 226 -41 230 2 2 12 -1 23 -7 20 -11
31 -55 35 -154 2 -38 2 -39 37 -33 19 3 43 6 53 6 9 0 17 5 17 11 0 5 -3 8 -8
5 -4 -2 -23 -1 -42 3 -28 5 -35 12 -41 39 -4 19 -2 32 3 32 6 0 8 9 5 20 -3
11 -1 20 4 20 5 0 9 -10 9 -21 0 -16 3 -19 13 -11 19 16 64 3 70 -20 4 -13 10
-17 18 -13 6 5 30 -1 53 -12 23 -11 57 -27 76 -36 19 -8 61 -27 92 -41 31 -14
83 -33 115 -42 68 -18 269 -30 336 -20 89 14 47 24 -95 25 -218 0 -237 6 -569
172 -313 156 -370 178 -499 194 -63 8 -118 15 -122 15 -5 0 -8 9 -8 19 0 43
-52 71 -284 155 -50 19 -177 68 -283 110 -195 78 -241 88 -300 65 -19 -7 -29
-7 -31 0 -6 17 -26 13 -50 -9z m960 -510 c26 -17 49 -38 52 -47 6 -15 5 -15
-11 -1 -10 8 -24 13 -32 10 -8 -3 -11 0 -7 6 7 12 -50 46 -63 37 -5 -2 -11 2
-15 10 -9 25 27 18 76 -15z m-194 -103 c2 -10 -3 -17 -12 -17 -18 0 -29 16
-21 31 9 14 29 6 33 -14z m112 -62 c0 -16 -6 -25 -15 -25 -18 0 -20 21 -3 38
17 17 18 16 18 -13z m-113 -118 c-2 -7 -13 -13 -25 -15 -15 -2 -20 1 -17 10 7
17 48 22 42 5z m396 -142 c-4 -15 -36 -12 -41 3 -3 9 3 13 19 10 13 -1 23 -7
22 -13z"/>
<path d="M1160 1296 c0 -7 114 -57 189 -83 42 -14 81 -29 86 -33 19 -13 165
-63 171 -58 2 3 -26 17 -63 31 -37 14 -138 53 -223 87 -161 63 -160 62 -160
56z"/>
<path d="M2915 1225 c21 -27 40 -51 40 -52 1 -1 11 0 23 4 31 8 28 21 -4 15
-19 -3 -27 0 -31 14 -2 11 -19 30 -36 44 -31 24 -30 23 8 -25z"/>
<path d="M2593 1221 c-14 -22 -9 -28 45 -55 43 -22 43 -1 -1 42 -31 30 -33 31
-44 13z"/>
<path d="M513 1208 c-13 -6 -23 -14 -23 -18 0 -8 35 -20 58 -20 6 0 12 11 12
25 0 27 -12 30 -47 13z"/>
<path d="M586 1169 c-3 -17 -20 -47 -37 -67 -25 -28 -30 -41 -25 -65 6 -28 -8
-68 -49 -137 -8 -14 -15 -41 -15 -60 0 -19 -7 -53 -15 -75 -8 -22 -14 -47 -14
-55 -1 -28 17 11 30 65 6 27 27 83 45 123 19 40 37 85 40 98 4 14 8 23 11 20
6 -6 33 -137 33 -162 0 -11 12 -58 26 -103 25 -79 71 -151 98 -151 6 0 33 -12
60 -26 76 -41 62 -23 -22 26 -93 55 -111 86 -143 240 -17 86 -20 128 -16 233
2 70 4 127 2 127 -1 0 -5 -14 -9 -31z"/>
<path d="M1481 1196 c7 -8 372 -146 375 -143 7 7 -93 107 -106 107 -8 0 2 -11
23 -25 20 -14 37 -30 37 -36 0 -13 -21 -7 -230 70 -80 29 -109 37 -99 27z"/>
<path d="M449 1118 c-4 -14 -4 -48 0 -48 3 0 20 11 36 25 l30 24 -32 1 c-18 0
-33 -1 -34 -2z"/>
<path d="M1663 1094 c27 -14 51 -23 54 -20 6 5 -81 47 -95 46 -4 -1 15 -12 41
-26z"/>
<path d="M935 1060 c3 -5 13 -10 21 -10 18 0 18 -17 0 -68 l-14 -40 62 -16
c35 -8 70 -18 78 -21 11 -5 18 6 28 42 7 26 17 52 21 58 13 14 11 -7 -6 -55
-8 -24 -13 -45 -11 -47 2 -3 30 -11 63 -19 32 -8 63 -17 69 -19 8 -2 8 -22 -1
-70 -7 -36 -15 -68 -17 -70 -6 -6 -226 32 -284 50 -56 17 -106 21 -66 5 12 -5
22 -16 22 -25 0 -8 5 -15 11 -15 5 0 7 5 4 10 -3 6 -3 10 0 10 17 0 115 -32
120 -39 2 -5 -3 -27 -12 -50 -15 -38 -19 -42 -42 -36 -66 16 -71 14 -16 -7
l60 -23 7 35 c17 79 16 78 43 72 31 -5 37 -14 42 -63 l5 -37 -41 5 c-52 7 -55
-12 -3 -21 97 -18 112 -25 112 -54 0 -32 -13 -51 -52 -75 -24 -15 -31 -15 -95
3 -37 11 -86 27 -108 36 -33 13 -37 13 -25 1 17 -16 134 -64 178 -73 19 -4 43
1 70 15 23 12 47 21 55 21 18 0 56 -42 114 -126 45 -66 81 -112 160 -203 17
-20 43 -49 57 -66 14 -16 28 -27 30 -24 3 3 -38 57 -90 120 -53 63 -120 146
-150 186 -59 78 -110 133 -125 133 -5 0 -9 7 -9 15 0 22 33 18 64 -6 15 -12
87 -96 160 -188 73 -91 144 -175 156 -186 32 -27 14 1 -30 48 -19 21 -39 46
-44 55 -5 10 -12 19 -16 22 -3 3 -30 34 -59 69 -49 60 -51 64 -36 81 24 27 42
15 86 -54 22 -34 49 -72 62 -86 12 -14 42 -51 67 -82 25 -31 61 -65 80 -76
l35 -20 18 24 c17 23 17 23 0 17 -13 -4 -9 3 10 25 23 24 25 30 11 29 -15 -2
-17 6 -15 58 1 33 6 64 11 69 5 5 25 -1 47 -14 l38 -22 -34 30 c-56 51 -68 48
-76 -17 -4 -31 -9 -83 -11 -116 -1 -33 -7 -61 -11 -62 -26 -9 -273 294 -273
335 0 18 -8 15 -38 -13 -15 -14 -29 -25 -32 -25 -3 0 -22 21 -42 48 -47 62
-86 95 -104 88 -21 -8 -18 17 31 241 25 113 44 208 42 209 -4 5 -346 84 -359
84 -5 0 -6 -4 -3 -10z m125 -34 c37 -14 54 -47 38 -78 -11 -22 -30 -23 -85 -2
-43 17 -49 27 -37 72 7 25 30 27 84 8z m148 -53 c-2 -12 7 -20 30 -26 22 -7
31 -15 27 -24 -3 -8 -5 -23 -5 -33 0 -16 -3 -17 -25 -7 -13 7 -27 23 -30 37
-6 24 -7 24 -21 6 -11 -16 -16 -17 -29 -6 -31 26 -11 70 32 70 17 0 23 -5 21
-17z m-45 -288 c32 -13 36 -13 31 0 -4 8 -1 15 6 15 9 0 11 -10 6 -31 -3 -17
-6 -46 -7 -63 l0 -31 -17 24 c-28 39 -63 101 -59 101 3 0 21 -7 40 -15z"/>
<path d="M1730 1065 c0 -2 16 -12 35 -21 40 -19 44 -30 14 -39 -39 -13 -13
-14 28 -2 51 15 65 27 32 27 -13 0 -41 9 -62 20 -38 20 -47 23 -47 15z"/>
<path d="M443 1030 c-23 -10 -32 -30 -12 -30 17 0 49 20 49 30 0 12 -8 12 -37
0z"/>
<path d="M1823 995 c-29 -13 -53 -27 -53 -30 0 -3 10 -1 21 6 63 33 112 31
207 -12 45 -21 102 -35 102 -26 0 6 -204 87 -217 86 -4 0 -32 -11 -60 -24z"/>
<path d="M403 971 c-3 -12 -9 -21 -14 -21 -16 0 -32 -41 -20 -53 7 -7 7 -16 0
-29 -6 -11 -9 -26 -7 -34 2 -10 17 4 41 36 35 47 37 51 15 45 -12 -4 -25 -8
-28 -9 -3 0 -7 3 -9 9 -3 8 40 36 74 48 13 5 5 13 -23 22 -19 5 -25 2 -29 -14z"/>
<path d="M1291 852 c-33 -134 -40 -194 -16 -132 7 19 14 48 14 64 1 29 1 29
22 10 21 -19 21 -19 45 11 30 38 30 40 -2 42 -14 0 -30 5 -35 10 -15 15 9 111
29 116 13 3 11 5 -5 6 -19 1 -24 -11 -52 -127z m64 -21 c3 -5 2 -12 -3 -15
-13 -8 -53 5 -46 15 7 12 41 12 49 0z"/>
<path d="M965 912 c6 -5 19 -12 29 -14 34 -6 29 -28 -8 -43 -21 -9 -36 -22
-36 -32 0 -15 1 -15 18 0 10 10 21 14 24 11 10 -9 48 16 48 31 0 18 36 20 43
3 4 -9 6 -8 6 3 1 11 -14 19 -46 27 -27 6 -57 14 -68 18 -14 5 -17 4 -10 -4z"/>
<path d="M2561 912 c-1 -7 -5 -10 -11 -7 -5 3 -10 3 -10 0 0 -9 126 -65 145
-65 8 0 15 7 15 15 0 11 -11 15 -35 15 -39 0 -90 22 -98 42 -4 10 -6 10 -6 0z"/>
<path d="M1391 824 c-33 -130 -51 -204 -51 -209 0 -3 -9 -5 -19 -5 -11 0 -23
-4 -26 -10 -9 -14 -55 -12 -56 3 -1 14 -17 -22 -18 -41 -1 -9 6 -9 29 3 16 8
42 15 58 15 16 0 34 6 39 13 11 14 65 258 59 265 -3 2 -9 -13 -15 -34z"/>
<path d="M392 817 c-18 -19 -22 -35 -22 -93 0 -84 -23 -157 -62 -199 -35 -38
-37 -57 -2 -24 46 43 64 84 74 170 6 46 17 101 26 123 18 47 14 53 -14 23z"/>
<path d="M727 810 c-6 -28 0 -51 23 -105 20 -45 29 -58 24 -36 -4 23 -3 31 5
27 6 -4 2 8 -9 27 -12 19 -24 54 -28 78 l-8 44 -7 -35z"/>
<path d="M1143 821 c-21 -34 22 -56 48 -25 11 14 10 18 -6 30 -24 18 -28 18
-42 -5z"/>
<path d="M1807 752 c-10 -37 -29 -94 -42 -127 -14 -34 -21 -61 -15 -63 6 -2
10 -16 10 -30 0 -22 -2 -24 -11 -12 -8 11 -9 2 -5 -34 3 -27 6 -58 6 -70 1
-21 1 -21 12 -1 20 37 41 56 48 44 5 -7 9 -6 13 4 6 16 -9 17 -32 3 -12 -8
-13 7 -8 97 6 111 24 169 59 190 10 7 18 18 18 26 0 12 -3 12 -12 3 -16 -16
-33 -15 -20 1 6 7 8 18 4 24 -5 7 -15 -17 -25 -55z"/>
<path d="M1459 747 c7 -10 19 -17 27 -17 12 0 37 -23 71 -63 6 -8 9 -18 5 -23
-4 -4 -1 -4 6 0 7 5 11 14 8 22 -4 10 2 14 20 14 15 0 27 -7 32 -20 7 -19 8
-19 37 5 28 23 29 24 8 25 -48 0 -143 29 -208 63 -18 9 -19 9 -6 -6z"/>
<path d="M1886 745 c-11 -9 -14 -15 -7 -15 8 0 10 -7 5 -22 -4 -13 -7 -28 -7
-34 0 -7 -7 -7 -23 0 -16 8 -20 14 -12 23 5 7 6 17 2 24 -5 8 -10 6 -18 -7
-12 -21 -14 -34 -21 -114 -5 -56 -2 -58 11 -5 7 29 7 29 25 -25 14 -42 18 -49
18 -27 1 17 5 26 12 22 11 -8 -16 61 -33 82 -6 7 -8 17 -4 21 12 11 45 -36 52
-75 6 -33 8 -35 20 -18 7 10 24 23 36 29 13 6 24 21 26 33 2 12 10 24 18 27
23 9 17 -35 -12 -79 l-26 -40 31 33 c44 46 43 115 -1 91 -14 -7 -23 -7 -33 1
-8 7 -20 10 -27 7 -8 -3 -2 -9 15 -16 31 -12 36 -31 7 -31 -10 0 -24 -8 -30
-17 -9 -15 -10 -14 -6 9 4 15 2 30 -4 33 -16 10 -12 46 8 68 10 13 11 17 3 12
-11 -6 -13 -4 -8 8 8 20 7 20 -17 2z"/>
<path d="M461 693 c-26 -31 -31 -34 -32 -18 -1 16 -2 15 -9 -5 -15 -48 -11
-55 18 -27 27 26 68 87 58 87 -2 0 -18 -17 -35 -37z"/>
<path d="M2685 660 c-4 -6 12 -10 42 -9 39 1 43 3 23 9 -36 11 -58 11 -65 0z"/>
<path d="M1663 642 c-13 -9 -27 -33 -33 -52 l-9 -35 39 45 c52 59 53 81 3 42z"/>
<path d="M2850 632 c42 -14 150 -23 150 -12 0 6 -21 10 -47 10 -27 0 -66 2
-88 5 -30 4 -34 3 -15 -3z"/>
<path d="M464 616 c-24 -26 -46 -66 -36 -66 5 0 20 16 31 36 22 37 25 51 5 30z"/>
<path d="M900 620 c0 -6 7 -10 16 -10 18 0 14 -22 -6 -28 -8 -3 -10 0 -5 8 6
9 4 11 -4 5 -17 -10 1 -27 22 -20 26 11 27 32 1 44 -15 6 -24 7 -24 1z"/>
<path d="M2237 603 c-4 -3 -7 -26 -7 -50 0 -30 4 -43 14 -43 12 0 12 5 3 30
-9 23 -9 35 1 50 11 19 3 28 -11 13z"/>
<path d="M1061 534 c-1 -29 30 -40 46 -18 14 20 9 34 -14 34 -10 0 -14 -6 -10
-20 7 -27 -1 -25 -13 3 -9 22 -9 22 -9 1z"/>
<path d="M1536 538 c21 -35 49 -68 61 -72 8 -3 -2 14 -23 39 -35 43 -53 59
-38 33z"/>
<path d="M1340 501 c0 -20 17 -37 27 -28 7 8 -7 47 -18 47 -5 0 -9 -9 -9 -19z"/>
<path d="M301 440 c-24 -22 -39 -40 -34 -40 5 0 29 18 53 40 24 22 40 40 35
40 -6 -1 -30 -19 -54 -40z"/>
<path d="M1930 328 c-30 -35 -41 -52 -26 -38 29 26 91 100 83 100 -2 0 -28
-28 -57 -62z"/>
<path d="M472 3 c262 -2 694 -2 960 0 266 1 51 2 -477 2 -528 0 -745 -1 -483
-2z"/>
<path d="M2438 3 c106 -2 277 -2 380 0 103 1 16 2 -193 2 -209 0 -293 -1 -187
-2z"/>
</g>
</svg>
