<?xml version="1.0" standalone="no"?>
<!DOCTYPE svg PUBLIC "-//W3C//DTD SVG 20010904//EN"
 "http://www.w3.org/TR/2001/REC-SVG-20010904/DTD/svg10.dtd">
<svg version="1.0" xmlns="http://www.w3.org/2000/svg"
 width="300.000000pt" height="510.000000pt" viewBox="0 0 300.000000 510.000000"
 preserveAspectRatio="xMidYMid meet">
<metadata>
Created by potrace 1.10, written by Peter Selinger 2001-2011
</metadata>
<g transform="translate(0.000000,510.000000) scale(0.100000,-0.100000)"
fill="#000000" stroke="none">
<path d="M92 5080 c-9 -16 -10 -26 -1 -42 9 -16 13 -18 20 -7 4 8 6 24 2 36
-4 20 -1 23 25 23 29 0 31 -3 35 -42 l4 -43 1 43 2 42 111 0 c74 0 108 -3 104
-10 -4 -6 -7 -32 -7 -58 0 -25 -3 -54 -8 -62 -9 -16 4 -49 15 -39 7 7 14 66
14 127 l1 42 45 0 c35 0 45 -4 45 -17 0 -15 87 -173 95 -173 2 0 -12 33 -31
73 -19 39 -40 84 -47 100 l-11 27 -201 0 c-190 0 -201 -1 -213 -20z"/>
<path d="M627 5093 c-13 -3 -18 -13 -16 -31 1 -15 -3 -40 -10 -57 -9 -23 -9
-34 0 -52 7 -13 16 -23 21 -23 4 0 8 -13 8 -28 0 -16 8 -36 18 -46 16 -13 18
-24 11 -64 -4 -26 -8 -53 -8 -60 -1 -16 -26 -10 -26 6 0 6 -6 17 -14 24 -11
11 -13 11 -6 -1 5 -9 3 -12 -6 -9 -8 3 -14 9 -14 14 -1 19 -21 41 -65 70 -94
63 -95 58 -2 -10 34 -25 62 -48 62 -51 0 -3 -12 -2 -26 1 -19 5 -25 3 -20 -4
5 -8 2 -10 -8 -6 -21 8 -20 -6 2 -22 23 -18 30 -17 36 4 2 9 4 1 3 -18 -1 -22
-7 -34 -14 -32 -9 1 -14 -18 -15 -65 -4 -121 -2 -144 16 -161 17 -16 18 -15
14 26 -2 23 -1 42 2 42 3 0 4 16 2 35 -4 36 5 44 26 23 9 -9 12 -9 12 1 0 7
-9 15 -21 18 -17 5 -20 11 -15 36 3 16 6 38 6 47 0 13 6 17 20 13 16 -4 20
-14 22 -52 l1 -46 8 50 c4 29 6 -26 4 -134 -2 -101 -7 -187 -12 -190 -9 -7
-10 -18 -13 -161 -3 -111 6 -196 21 -206 5 -3 36 19 69 49 33 30 90 69 127 88
59 30 76 34 146 34 63 0 73 2 48 9 -17 5 -31 13 -31 17 0 5 6 6 14 3 9 -3 17
3 21 16 12 37 -6 37 -36 0 -16 -19 -29 -28 -29 -21 0 19 58 73 71 65 7 -4 9
-20 6 -39 -5 -29 -2 -34 21 -40 48 -12 130 -56 176 -93 102 -84 212 -259 240
-380 l13 -57 35 3 c26 3 39 -2 48 -15 9 -14 9 -7 4 32 -4 28 -8 62 -8 77 -1
14 -4 24 -8 22 -3 -2 -11 10 -17 26 -5 17 -8 30 -5 30 2 0 -7 21 -20 48 -38
74 -126 181 -215 257 -87 75 -244 175 -275 175 -35 0 -141 -68 -190 -121 -44
-48 -50 -51 -57 -34 -7 18 -8 18 -8 2 -1 -21 -26 -49 -35 -40 -3 3 -15 -6 -27
-20 -11 -15 -25 -27 -31 -27 -6 0 -20 -7 -30 -17 -10 -9 -18 -11 -18 -5 0 6 5
14 10 17 6 3 8 16 5 28 -19 87 -19 103 -6 292 5 72 11 180 12 240 1 61 7 116
13 124 12 15 15 31 17 81 2 37 -27 137 -42 146 -15 9 -10 42 9 49 15 6 15 7 1
15 -14 8 -14 15 -5 45 11 34 12 35 62 35 37 0 67 -9 115 -33 36 -18 66 -28 66
-22 0 7 -5 12 -11 12 -6 0 -31 10 -56 22 l-45 21 47 0 c28 0 48 -5 51 -12 4
-10 6 -10 6 0 1 9 134 12 631 12 l630 0 0 -270 0 -269 31 -16 c31 -17 59 -66
59 -106 0 -11 -27 -77 -60 -146 -59 -123 -79 -196 -45 -162 9 8 17 26 20 39 2
13 14 34 26 47 13 12 20 23 16 23 -3 0 10 30 30 68 28 54 36 81 40 141 3 63 2
73 -11 68 -9 -4 -16 -1 -16 6 -1 15 -35 57 -47 57 -4 0 -8 17 -9 38 0 20 -3
52 -7 70 -7 33 8 46 16 15 2 -10 5 26 5 81 1 54 3 100 5 102 2 3 14 -22 25
-53 20 -54 113 -175 108 -140 -1 8 -18 33 -38 55 -29 32 -46 69 -83 183 -26
78 -47 151 -48 161 -1 17 -31 18 -757 17 -415 -1 -763 -3 -773 -6z m483 -888
c6 3 10 -1 10 -9 0 -9 9 -16 20 -16 11 0 20 -3 20 -8 0 -4 16 -16 35 -26 19
-11 35 -25 35 -33 0 -17 -15 -17 -30 2 -7 8 -19 15 -26 15 -8 0 -14 4 -14 9 0
5 -22 15 -50 22 -42 11 -50 16 -50 36 0 21 3 22 20 13 11 -6 25 -8 30 -5z
m288 -257 c-4 -29 20 -58 40 -50 10 3 13 1 8 -6 -3 -6 -2 -13 3 -17 11 -6 3
-35 -9 -35 -5 0 -12 9 -15 20 -4 11 -18 34 -32 50 -14 17 -22 37 -19 45 9 23
28 18 24 -7z m94 -135 c8 -10 21 -34 28 -53 8 -19 19 -38 24 -42 6 -4 -7 -8
-29 -7 -37 0 -38 1 -19 12 18 10 20 14 8 25 -7 6 -18 12 -24 12 -13 0 -13 17
0 25 6 3 10 11 10 17 0 6 -6 6 -15 -2 -12 -10 -19 -10 -28 -1 -9 9 -9 14 3 21
21 13 25 13 42 -7z"/>
<path d="M2272 5093 c59 -2 158 -2 220 0 62 1 14 3 -107 3 -121 0 -172 -2
-113 -3z"/>
<path d="M2582 5033 c-22 -38 -58 -105 -80 -149 -30 -59 -51 -88 -75 -103 -44
-27 -49 -26 -35 4 6 14 19 25 29 25 16 0 16 3 1 50 -18 56 -32 65 -32 20 0
-16 -7 -62 -16 -103 -20 -92 -9 -292 16 -292 15 0 21 35 7 46 -4 3 10 25 30
50 36 43 36 43 4 14 l-33 -30 7 30 6 30 -15 -25 -15 -25 -1 28 c0 15 5 27 10
27 12 0 33 50 26 58 -3 3 -10 -7 -15 -22 -15 -38 -21 -32 -21 22 0 26 4 42 8
35 6 -9 12 -7 25 7 9 11 17 24 17 28 0 4 11 12 24 18 24 11 24 10 19 -22 -3
-19 -1 -34 4 -34 5 0 10 19 11 42 2 30 9 50 27 68 14 15 23 29 19 33 -3 3 -2
12 2 19 5 7 9 15 9 18 1 10 38 76 59 105 12 17 22 36 22 43 3 43 -2 41 157 45
l152 3 -157 2 -157 2 -39 -67z"/>
<path d="M3 5005 c0 -38 2 -53 4 -32 2 20 2 52 0 70 -2 17 -4 1 -4 -38z"/>
<path d="M130 5031 c0 -25 -4 -32 -15 -27 -10 4 -15 -1 -15 -15 0 -12 -14 -34
-31 -50 l-31 -29 15 -63 c11 -44 14 -85 10 -141 l-6 -79 89 -178 c48 -98 91
-174 94 -169 3 5 6 -6 6 -25 0 -22 8 -43 23 -59 20 -21 21 -27 9 -31 -12 -5
-15 -34 -15 -163 0 -86 2 -139 4 -117 2 22 9 44 14 50 12 12 12 28 -1 20 -17
-10 -12 127 6 180 16 44 16 50 0 75 -9 16 -16 41 -16 58 0 33 -24 62 -33 40
-3 -7 -5 -4 -5 7 2 42 -2 66 -11 60 -12 -7 -33 29 -24 39 3 3 1 6 -5 6 -6 0
-13 13 -17 30 -3 16 -14 39 -24 52 -9 13 -30 52 -45 87 -27 60 -28 67 -18 135
12 90 11 125 -5 119 -16 -6 -16 2 -2 29 8 15 8 19 0 14 -6 -4 -11 -3 -11 2 0
12 67 72 73 66 2 -3 7 3 11 12 5 13 2 15 -16 11 l-23 -6 23 19 c22 18 22 21 8
47 l-15 28 -1 -34z"/>
<path d="M2189 5022 c11 -21 27 -44 36 -52 9 -7 2 10 -16 38 -38 61 -47 68
-20 14z"/>
<path d="M808 5040 c26 -11 29 -22 5 -19 -36 3 -37 -2 -3 -14 38 -14 38 -12
26 -114 -6 -44 -5 -63 3 -63 7 0 11 20 11 49 0 28 4 52 9 55 5 3 7 16 4 29 -4
17 -3 19 6 7 8 -12 11 -12 17 4 9 24 -46 76 -79 75 l-22 0 23 -9z"/>
<path d="M440 5019 c0 -4 38 -42 85 -86 47 -44 85 -77 85 -74 0 3 -38 42 -85
86 -47 44 -85 77 -85 74z"/>
<path d="M757 4983 c-4 -27 -2 -64 2 -83 7 -29 9 -20 10 48 1 45 -1 82 -3 82
-2 0 -6 -21 -9 -47z"/>
<path d="M2810 4984 c-17 -26 -28 -49 -25 -52 6 -7 6 -7 38 51 33 60 27 60
-13 1z"/>
<path d="M2920 4964 c-80 -72 -94 -94 -61 -94 12 0 21 6 21 14 0 8 28 39 61
69 34 30 60 60 58 66 -3 7 -38 -18 -79 -55z"/>
<path d="M240 5000 c-20 -5 1 -6 50 -3 47 3 87 7 89 9 8 7 -103 2 -139 -6z"/>
<path d="M810 4935 c0 -13 -5 -35 -11 -49 -9 -20 -9 -29 0 -40 7 -8 10 -24 6
-36 -4 -11 -2 -20 4 -20 7 0 11 31 11 85 0 47 -2 85 -5 85 -3 0 -5 -11 -5 -25z"/>
<path d="M2650 4859 c0 -41 4 -79 9 -84 5 -6 12 -21 14 -35 3 -14 4 19 3 72
-1 61 -6 102 -14 110 -9 9 -12 -4 -12 -63z"/>
<path d="M2741 4868 c-22 -112 -23 -116 -11 -93 9 17 9 15 5 -9 -33 -166 -59
-274 -71 -291 -21 -29 -17 -42 4 -14 23 32 56 139 82 269 11 58 22 109 23 114
2 5 25 -20 52 -57 27 -36 51 -64 54 -61 3 2 -5 17 -17 32 -12 15 -40 60 -63
100 -22 39 -42 72 -43 72 -1 0 -8 -28 -15 -62z"/>
<path d="M1015 4868 c-6 -44 -97 -294 -158 -437 -10 -24 -12 -43 -6 -65 5 -17
9 -42 9 -56 1 -30 38 -79 48 -63 4 5 14 13 22 16 11 4 9 6 -6 6 -38 2 -61 93
-32 129 6 6 6 12 1 12 -5 0 -15 -6 -22 -12 -15 -15 -16 -15 25 72 17 36 39 89
49 117 10 29 22 48 26 42 3 -6 9 5 13 25 4 21 13 36 21 36 14 0 38 87 28 103
-3 5 -5 36 -4 68 0 33 -1 59 -3 59 -2 0 -7 -24 -11 -52z"/>
<path d="M431 4850 c-1 -32 2 -41 9 -30 7 12 12 12 22 2 9 -9 9 -12 -2 -12
-11 0 -11 -3 -2 -12 10 -10 15 -10 22 2 8 12 10 10 10 -7 0 -27 6 -29 25 -9
12 12 8 18 -26 42 -23 16 -45 37 -49 49 -7 15 -9 9 -9 -25z"/>
<path d="M216 4872 c-3 -5 21 -7 52 -5 81 6 87 11 15 12 -34 1 -64 -3 -67 -7z"/>
<path d="M383 4873 c-26 -5 -27 -12 -12 -84 7 -30 7 -54 2 -58 -5 -3 -9 -58
-10 -121 -1 -63 1 -105 4 -92 6 29 25 24 34 -9 l7 -24 1 26 c1 16 -5 29 -14
33 -8 3 -15 9 -14 13 1 4 0 13 -1 18 -4 22 1 93 12 142 8 36 8 56 1 65 -14 17
-27 78 -17 78 4 0 16 -7 26 -17 17 -15 18 -15 18 0 0 10 -5 17 -11 17 -5 0 -7
5 -4 10 3 6 5 9 3 9 -2 -1 -13 -4 -25 -6z"/>
<path d="M252 4797 c-2 -40 1 -57 7 -48 7 11 10 10 14 -5 2 -10 5 9 6 44 1 44
5 62 14 62 24 0 37 -23 37 -65 0 -33 -5 -44 -22 -54 -14 -7 -16 -9 -5 -6 10 3
25 5 33 5 10 0 14 13 14 45 0 53 -25 85 -67 85 -27 0 -28 -2 -31 -63z"/>
<path d="M2569 4855 c-2 -5 -3 -44 -3 -87 -1 -60 2 -74 12 -66 7 6 11 30 11
57 -1 49 -14 113 -20 96z"/>
<path d="M3 4795 c0 -33 2 -45 4 -27 2 18 2 45 0 60 -2 15 -4 0 -4 -33z"/>
<path d="M206 4835 c-13 -10 -19 -26 -18 -51 2 -45 12 -59 12 -17 0 17 9 42
21 57 22 28 15 34 -15 11z"/>
<path d="M2510 4738 c0 -60 -4 -76 -22 -97 l-23 -24 27 19 c26 18 27 24 28 97
0 42 -2 77 -5 77 -3 0 -5 -32 -5 -72z"/>
<path d="M768 4771 c-5 -18 -2 -24 12 -28 13 -4 18 -13 16 -32 -1 -14 1 -39 5
-56 5 -24 7 -18 8 29 1 47 4 57 16 52 9 -3 15 0 15 10 0 9 -5 12 -11 8 -6 -3
-15 0 -20 7 -8 12 -10 12 -18 0 -7 -11 -10 -9 -13 10 l-3 24 -7 -24z"/>
<path d="M466 4702 c-7 -59 -1 -92 15 -92 5 0 9 15 10 33 0 17 3 51 5 75 4 32
2 42 -9 42 -10 0 -16 -18 -21 -58z"/>
<path d="M755 4711 c2 -10 -3 -31 -11 -46 -16 -31 -19 -91 -4 -100 6 -3 10
-15 10 -26 0 -19 1 -20 17 -3 13 13 14 19 5 22 -6 2 -12 10 -12 19 0 34 25 3
31 -38 l6 -44 1 43 c2 34 -3 48 -20 63 -23 19 -23 19 -4 34 11 8 15 15 9 15
-7 0 -10 15 -8 40 3 29 0 40 -10 40 -8 0 -12 -8 -10 -19z"/>
<path d="M2 4610 l2 -115 6 90 c3 50 7 72 8 50 1 -22 6 -67 12 -100 5 -33 12
-78 16 -100 7 -47 24 -71 24 -34 0 38 -49 288 -60 307 -6 12 -9 -18 -8 -98z"/>
<path d="M255 4654 c-9 -86 -2 -91 11 -8 5 36 7 67 3 70 -4 2 -10 -26 -14 -62z"/>
<path d="M1685 4687 c-58 -15 -86 -29 -106 -53 -13 -16 -12 -16 16 -2 35 18
106 21 153 6 48 -14 51 -3 5 21 -21 11 -32 20 -25 21 7 0 35 -12 63 -26 59
-29 76 -27 27 5 -39 25 -32 27 20 6 20 -9 54 -33 76 -53 l38 -37 -20 41 c-25
49 -45 67 -80 70 -15 1 -47 5 -72 8 -25 3 -67 0 -95 -7z"/>
<path d="M1608 4606 c-51 -39 -82 -81 -72 -98 4 -6 3 -8 -3 -5 -6 4 -16 -6
-22 -24 -6 -17 -20 -33 -31 -36 -11 -3 -20 -10 -20 -15 0 -6 -13 -8 -30 -4
-36 7 -38 2 -5 -20 21 -14 31 -14 80 -3 30 7 55 16 55 21 0 5 10 6 23 3 15 -4
18 -3 9 3 -11 7 -5 15 22 31 48 30 46 39 -1 11 -36 -21 -35 -20 12 24 54 49
155 106 189 106 27 0 51 -15 51 -32 1 -7 7 -12 13 -10 7 1 19 -12 26 -29 12
-30 13 -30 19 -8 9 35 -31 99 -62 99 -10 -1 -6 -6 10 -15 15 -8 30 -22 33 -32
5 -13 0 -11 -19 7 -35 33 -138 37 -205 8 -44 -19 -130 -93 -130 -112 0 -6 24
13 53 41 47 46 111 84 141 82 6 0 -8 -8 -31 -17 -22 -9 -70 -45 -106 -79 -59
-57 -97 -84 -68 -50 6 8 8 17 5 20 -10 10 36 66 90 109 28 23 43 38 32 35 -14
-6 -17 -3 -12 8 8 21 5 20 -46 -19z"/>
<path d="M1953 4623 c9 -11 15 -23 12 -26 -3 -4 -2 -5 2 -2 3 3 17 -5 30 -17
16 -15 20 -25 12 -34 -8 -9 -5 -11 10 -7 12 3 21 7 21 10 0 15 -43 61 -72 77
-33 19 -33 19 -15 -1z"/>
<path d="M2820 4606 c0 -8 7 -17 16 -20 10 -4 14 -14 11 -26 -3 -11 -1 -18 4
-14 5 3 9 18 9 34 0 23 -3 28 -17 23 -11 -4 -14 -3 -9 5 4 7 2 12 -3 12 -6 0
-11 -6 -11 -14z"/>
<path d="M2304 4593 c5 -11 -1 -24 -16 -36 -13 -10 -17 -16 -10 -12 6 3 12 1
12 -4 0 -6 7 -11 15 -11 17 0 20 -16 5 -25 -16 -10 -12 -28 5 -21 13 4 13 2 5
-14 -14 -27 -12 -34 5 -20 8 7 22 10 30 6 19 -7 19 -10 -9 49 -24 50 -24 50
-5 71 26 28 24 34 -12 34 -25 0 -30 -3 -25 -17z"/>
<path d="M1835 4524 c19 -25 35 -51 35 -58 0 -6 14 -20 30 -29 17 -10 30 -22
30 -27 0 -10 28 -3 48 13 9 7 10 13 1 24 -10 11 -14 11 -21 1 -5 -8 -6 6 -3
32 4 35 3 41 -5 25 -9 -16 -10 -14 -6 15 l5 35 -14 -30 c-8 -16 -14 -38 -15
-47 0 -10 -5 -18 -11 -18 -6 0 -8 7 -5 16 3 8 2 12 -3 9 -5 -3 -12 3 -16 14
-8 27 -51 71 -69 71 -11 0 -6 -13 19 -46z"/>
<path d="M1718 4529 c-32 -16 -58 -32 -58 -34 0 -3 27 8 60 25 89 45 73 22
-25 -35 -47 -27 -83 -51 -80 -53 2 -2 26 8 52 23 l48 28 -25 -28 c-34 -36 -85
-62 -145 -71 -27 -4 -55 -13 -63 -20 -7 -8 -21 -18 -30 -23 -28 -15 -5 -25 27
-11 17 6 34 12 38 12 4 0 14 4 20 10 7 6 20 8 28 4 10 -4 14 -2 9 5 -4 8 1 9
15 4 12 -4 21 -2 21 4 0 6 5 11 11 11 8 0 8 -4 0 -14 -10 -11 -8 -17 6 -26 11
-7 12 -10 3 -7 -25 6 -37 -16 -42 -83 -3 -36 -9 -74 -13 -85 -6 -19 -6 -19 8
-2 22 27 29 20 25 -23 -4 -45 -3 -48 11 -21 7 13 7 29 0 50 -24 67 44 241 113
291 46 34 61 36 101 16 39 -21 34 -7 -15 41 l-43 41 -57 -29z"/>
<path d="M2632 4493 c-12 -37 -20 -69 -18 -71 2 -2 14 27 26 63 12 36 20 68
18 70 -2 3 -14 -26 -26 -62z"/>
<path d="M2011 4499 c-17 -17 -31 -34 -31 -39 0 -16 22 -22 33 -11 9 9 8 11
-5 6 -27 -11 -22 5 14 42 18 18 29 33 26 33 -4 0 -20 -14 -37 -31z"/>
<path d="M2893 4522 c-8 -5 -9 -13 -3 -22 8 -12 10 -11 11 5 1 11 5 -5 9 -35
l7 -55 1 58 c2 56 -2 64 -25 49z"/>
<path d="M764 4505 c-4 -8 -3 -23 1 -32 9 -22 6 -75 -4 -86 -5 -5 -15 -1 -24
7 -10 10 -18 12 -22 6 -3 -5 14 -31 38 -56 l44 -47 -5 87 c-3 56 -1 86 6 86 6
0 14 -15 18 -32 4 -18 9 -28 11 -22 8 23 -16 64 -37 64 -17 0 -20 4 -15 20 7
23 -3 27 -11 5z"/>
<path d="M361 4486 c15 -13 90 -45 84 -36 -4 7 -22 18 -41 26 -32 13 -52 18
-43 10z"/>
<path d="M350 4355 c0 -65 3 -116 6 -113 7 7 6 219 -1 226 -3 3 -5 -48 -5
-113z"/>
<path d="M2036 4458 c3 -4 -10 -15 -28 -25 l-33 -18 30 -3 c16 -2 33 -9 37
-15 10 -16 10 -107 1 -107 -5 -1 -27 -5 -50 -9 l-43 -8 0 33 c0 23 5 34 18 37
13 4 11 5 -5 6 -19 1 -23 -4 -23 -31 0 -25 -3 -29 -10 -18 -8 13 -10 12 -10
-2 0 -19 -15 -24 -24 -9 -9 14 -132 81 -149 81 -8 0 -21 -8 -28 -17 -8 -9 -9
-14 -4 -11 6 4 26 -1 45 -10 l35 -16 -40 -5 -40 -6 29 -22 c17 -14 43 -23 62
-23 20 0 42 -8 53 -19 18 -18 19 -18 47 12 l29 31 5 -35 c5 -36 23 -46 66 -35
43 11 81 126 63 189 -10 37 -5 44 18 26 15 -11 15 -10 -1 9 -23 26 -11 29 18
5 21 -18 21 -18 2 4 -12 14 -28 21 -46 20 -15 -1 -26 -5 -24 -9z"/>
<path d="M1794 4431 c-18 -11 -35 -25 -40 -32 -4 -7 8 -3 27 9 19 11 46 26 60
31 21 8 21 10 4 10 -11 1 -34 -8 -51 -18z"/>
<path d="M2953 4420 c-44 -26 -42 -34 3 -15 20 8 38 15 40 15 2 0 4 5 4 10 0
15 -11 12 -47 -10z"/>
<path d="M2090 4378 c0 -18 -5 -50 -9 -72 -5 -21 -6 -35 -1 -30 13 13 29 124
19 130 -5 3 -9 -10 -9 -28z"/>
<path d="M1051 4383 c0 -10 3 -13 5 -7 7 16 44 5 38 -11 -3 -7 -1 -16 5 -20 7
-4 11 3 11 18 0 24 -16 37 -46 37 -8 0 -14 -8 -13 -17z"/>
<path d="M2688 4367 c-29 -29 -56 -102 -44 -114 13 -13 61 22 64 46 2 13 12
26 23 28 21 6 25 18 8 28 -6 4 -13 14 -17 24 -6 14 -11 12 -34 -12z m32 -6 c0
-20 -13 -41 -21 -35 -5 3 -9 -3 -9 -13 -1 -17 -1 -17 -11 0 -8 14 -7 23 7 38
18 20 34 25 34 10z"/>
<path d="M680 4359 c0 -16 4 -28 8 -25 10 6 52 -47 52 -66 0 -10 3 -9 9 1 8
12 11 9 16 -12 4 -15 11 -25 15 -22 4 3 10 -2 13 -9 3 -8 15 -20 27 -26 20
-11 21 -10 9 12 -12 23 -139 178 -146 178 -1 0 -3 -14 -3 -31z"/>
<path d="M2740 4375 c0 -9 5 -13 10 -10 6 3 13 -2 17 -11 4 -10 2 -19 -5 -22
-7 -2 -12 -10 -12 -17 0 -7 -8 -16 -17 -18 -14 -4 -12 -5 5 -6 12 -1 22 -7 22
-16 0 -17 -16 -20 -25 -5 -3 6 -11 10 -17 10 -6 0 -3 -11 6 -25 24 -36 19 -52
-7 -26 -23 21 -57 21 -57 -1 0 -6 6 -8 14 -5 8 3 22 0 33 -8 18 -13 69 -10 87
5 4 5 10 32 12 61 4 54 -8 79 -48 100 -14 7 -18 6 -18 -6z m60 -61 c0 -13 -4
-24 -10 -24 -5 0 -10 14 -10 31 0 17 4 28 10 24 6 -3 10 -17 10 -31z"/>
<path d="M64 4372 c-13 -8 -19 -137 -7 -155 5 -7 10 22 13 68 l5 80 41 -38
c47 -42 50 -43 58 -22 3 10 -10 25 -39 45 -46 32 -53 34 -71 22z"/>
<path d="M1400 4370 c0 -12 27 -12 55 0 16 7 13 9 -17 9 -21 1 -38 -3 -38 -9z"/>
<path d="M1150 4336 c0 -28 -4 -37 -13 -33 -10 4 -13 -2 -9 -21 3 -17 7 -22
10 -12 3 8 11 21 19 28 15 16 17 41 3 62 -7 11 -10 5 -10 -24z"/>
<path d="M464 4341 c11 -11 21 -19 24 -16 3 3 12 -1 21 -8 14 -10 14 -10 4 4
-7 9 -9 19 -5 24 4 4 0 5 -8 3 -8 -3 -24 -1 -35 5 -20 10 -20 10 -1 -12z"/>
<path d="M2556 4329 c-9 -16 -28 -37 -42 -45 -13 -9 -24 -21 -24 -27 0 -5 9
-2 19 7 11 10 25 15 31 11 6 -3 9 -3 8 2 -1 4 6 23 16 41 22 43 16 52 -8 11z"/>
<path d="M432 4308 c-2 -55 30 -124 42 -91 5 11 0 22 -13 33 -13 10 -21 30
-24 60 l-4 45 -1 -47z"/>
<path d="M1021 4339 c-1 -8 -19 -23 -41 -33 -22 -10 -38 -21 -35 -26 3 -5 19
-2 36 7 29 14 54 14 92 -2 10 -4 17 -3 17 4 0 6 -4 10 -9 9 -5 -2 -17 6 -25
17 -12 15 -16 17 -17 5 0 -8 -5 -4 -9 10 -4 14 -8 18 -9 9z"/>
<path d="M1468 4314 c-47 -23 -76 -58 -59 -68 5 -4 16 -3 25 0 22 8 20 -2 -5
-38 -17 -23 -24 -27 -30 -16 -6 9 -9 7 -9 -9 0 -25 -15 -31 -23 -10 -3 6 -6 2
-6 -10 -1 -13 8 -27 22 -34 43 -24 112 -80 135 -112 21 -28 23 -29 16 -7 -4
14 -14 30 -23 37 -14 10 -13 17 13 71 l29 60 -23 36 c-18 30 -21 45 -15 81 3
25 5 45 3 44 -2 -1 -24 -12 -50 -25z m21 -76 c-5 -17 -21 -45 -36 -62 l-28
-31 35 30 c19 17 36 33 38 38 8 16 20 6 25 -20 4 -20 -2 -39 -19 -65 -27 -42
-44 -49 -44 -18 0 13 -5 18 -15 14 -9 -4 -15 0 -15 10 0 9 -6 13 -15 10 -8 -3
3 14 25 38 38 40 52 67 30 53 -14 -9 -13 8 2 23 21 21 27 13 17 -20z"/>
<path d="M86 4244 c1 -19 6 -40 13 -47 10 -9 12 -2 9 32 -4 53 -23 67 -22 15z"/>
<path d="M136 4194 c-5 -46 -3 -60 10 -75 10 -11 20 -19 23 -19 11 0 -4 143
-15 147 -7 2 -14 -18 -18 -53z"/>
<path d="M2057 4237 c-3 -8 -3 -24 0 -35 2 -11 0 -23 -6 -26 -7 -5 -9 0 -5 11
3 10 -1 7 -9 -7 -24 -41 -57 -147 -57 -182 l1 -33 13 30 c7 17 16 52 19 78 10
69 30 98 23 32 -3 -29 -2 -42 2 -31 7 17 11 14 24 -20 8 -21 18 -55 22 -75 7
-42 49 -88 62 -68 4 7 3 14 -4 17 -7 2 -12 14 -12 27 0 13 -5 25 -11 27 -14 5
-59 117 -59 148 l1 25 14 -25 c8 -14 14 -20 14 -15 0 6 -6 21 -13 34 -10 18
-11 31 -2 52 7 21 7 32 -1 40 -7 7 -12 6 -16 -4z"/>
<path d="M419 4218 c-1 -7 -3 -24 -4 -38 -11 -95 -13 -192 -6 -212 6 -13 10
-16 11 -8 10 193 12 270 6 270 -3 0 -7 -6 -7 -12z"/>
<path d="M41 4173 c-1 -23 -4 -48 -7 -57 -4 -11 -1 -16 10 -16 12 0 16 9 15
38 0 20 -4 46 -9 57 -7 16 -9 11 -9 -22z"/>
<path d="M205 4146 c-11 -85 13 -106 33 -31 9 33 9 52 2 65 -18 33 -28 23 -35
-34z"/>
<path d="M440 4151 c0 -17 5 -33 10 -36 6 -4 10 8 10 29 0 20 -4 36 -10 36 -5
0 -10 -13 -10 -29z"/>
<path d="M1837 4173 c-4 -3 -7 -23 -7 -43 0 -21 -6 -43 -13 -49 -21 -17 -29 0
-10 21 20 22 3 24 -37 3 -34 -18 -50 -43 -50 -79 l0 -25 25 24 c19 20 34 25
74 25 27 0 61 -4 76 -10 38 -14 56 -65 46 -129 -11 -69 -27 -84 -24 -23 l2 47
-9 -48 c-11 -64 -22 -74 -14 -14 8 58 -1 61 -16 5 -9 -31 -14 -38 -21 -27 -7
12 -9 12 -9 -1 0 -13 -1 -13 -10 0 -5 8 -9 40 -9 71 1 43 5 58 20 67 15 10 22
9 38 -7 16 -16 21 -17 25 -6 6 16 -30 45 -55 45 -9 0 -23 -7 -30 -16 -14 -17
-14 -20 -17 -94 -2 -33 -5 -41 -12 -30 -7 11 -10 12 -10 2 0 -9 -8 -7 -27 8
-19 15 -28 17 -34 8 -4 -7 -10 4 -15 28 -7 36 -8 37 -17 16 -9 -20 -12 -21
-26 -7 -9 9 -32 26 -51 38 -22 14 -37 34 -41 52 -5 22 -7 25 -9 10 -2 -11 -6
0 -10 25 -7 42 -7 40 -6 -19 l1 -63 71 -49 c39 -28 120 -70 179 -94 l108 -45
23 28 c13 15 24 29 25 32 1 10 7 39 14 69 9 41 -2 40 -14 -1 -7 -27 -9 -28
-10 -10 -1 13 3 31 9 41 11 22 -5 88 -27 113 -13 14 -13 19 3 44 18 27 18 27
-3 16 -16 -9 -24 -8 -33 3 -7 8 -23 15 -37 15 -20 0 -23 4 -18 20 6 20 4 25
-8 13z m39 -85 c4 -13 12 -27 18 -31 7 -6 4 -7 -7 -3 -10 3 -31 7 -45 7 -17 1
-21 3 -9 6 9 2 17 13 17 24 0 26 17 24 26 -3z"/>
<path d="M1349 4084 c123 -114 205 -239 241 -367 l16 -58 33 41 c44 55 64 105
52 129 -17 30 -85 86 -159 131 -39 23 -77 49 -84 58 -11 13 -11 15 2 8 14 -7
-2 8 -81 80 -23 21 -69 44 -86 44 -3 0 27 -30 66 -66z m288 -263 c21 -30 22
-37 9 -55 -20 -30 -29 -26 -46 21 -9 24 -24 48 -33 55 -15 12 -14 13 15 13 26
0 37 -7 55 -34z"/>
<path d="M1100 4115 l25 -14 -35 -2 c-33 -1 -33 -2 -8 -8 15 -3 43 -21 64 -39
20 -18 53 -44 73 -59 41 -29 98 -102 93 -118 -2 -5 0 -7 4 -3 8 9 33 -21 34
-40 0 -7 -4 -10 -10 -7 -5 3 -10 2 -10 -2 0 -5 10 -13 22 -18 25 -12 40 -42
15 -32 -27 10 -13 -66 22 -116 l30 -44 -31 -29 c-25 -23 -30 -25 -23 -9 12 33
11 50 -5 50 -8 0 -16 6 -16 13 -1 6 -2 17 -3 23 0 5 -6 7 -11 4 -6 -4 -8 -11
-4 -16 3 -5 7 -24 9 -42 4 -36 -7 -16 -22 40 -6 25 -11 30 -22 24 -12 -8 -12
-13 3 -36 10 -15 15 -29 13 -32 -3 -2 -10 5 -17 16 -6 12 -17 21 -25 21 -21 0
-19 -8 13 -36 32 -30 88 -56 120 -56 25 -1 29 -23 8 -50 -12 -17 -16 -17 -45
-2 -31 15 -41 26 -20 22 6 -2 13 2 16 9 3 8 -7 11 -29 11 -40 -1 -152 32 -205
59 -48 25 -208 77 -318 104 -136 32 -336 22 -321 -18 3 -7 2 -21 -2 -31 -17
-34 -45 -88 -79 -149 -56 -102 -33 -102 27 -1 47 79 59 93 84 96 l29 4 -28
-48 c-18 -31 -29 -66 -31 -98 -3 -36 -1 -47 6 -36 5 8 10 27 10 41 0 15 12 52
26 83 l25 56 57 -6 c31 -4 65 -13 74 -21 9 -8 22 -12 27 -8 7 4 11 -4 11 -20
0 -23 -3 -25 -27 -19 -27 6 -27 6 -8 -9 24 -18 58 -2 51 26 -4 17 20 25 26 8
2 -6 22 -11 46 -12 23 -2 42 -6 42 -11 0 -4 7 -4 17 -1 12 5 14 3 8 -7 -5 -9
-4 -11 3 -6 6 4 29 -2 50 -13 21 -11 56 -23 77 -26 50 -9 196 -63 213 -79 7
-7 15 -35 18 -63 l6 -50 -32 -7 c-52 -10 -80 -7 -86 9 -5 12 -10 13 -20 4 -7
-6 -19 -7 -25 -3 -8 5 -9 3 -4 -6 7 -11 -3 -12 -46 -6 -30 4 -59 8 -65 8 -8 1
-9 11 -2 35 5 18 6 38 3 44 -4 5 -1 16 5 24 8 10 9 15 2 15 -6 0 -16 -8 -21
-17 -10 -17 -10 -17 -11 0 0 9 9 26 20 37 11 11 15 20 9 20 -15 0 -109 -100
-109 -117 0 -18 -7 -17 -43 11 -18 13 -47 31 -65 41 -32 16 -34 15 -48 -2 -21
-28 -16 -37 11 -19 25 16 28 16 60 -4 19 -12 46 -35 60 -51 22 -27 26 -29 31
-12 22 61 35 84 44 78 5 -3 10 -1 10 6 0 7 3 10 6 6 3 -3 3 -15 -1 -28 -6 -17
-9 -19 -16 -8 -7 11 -9 9 -9 -6 0 -11 -7 -33 -15 -49 -18 -35 -14 -42 15 -26
21 11 91 4 177 -16 17 -5 22 -1 26 18 l4 23 8 -24 c7 -21 12 -23 49 -18 23 3
61 9 86 12 35 5 41 4 27 -5 -9 -6 -49 -14 -87 -17 -39 -3 -70 -9 -70 -12 0 -3
7 -15 16 -26 15 -20 15 -20 34 5 16 20 20 22 20 8 0 -10 5 -18 10 -18 6 0 10
8 11 18 0 9 3 12 5 6 3 -7 20 -3 48 10 l43 20 -14 34 c-18 44 -10 54 12 13 8
-17 21 -31 27 -31 14 0 132 76 149 96 9 11 6 18 -15 35 -27 22 -28 28 -10 86
3 10 -4 1 -15 -19 -12 -21 -31 -43 -43 -49 -33 -18 -103 -4 -212 41 -142 59
-377 135 -480 155 -52 10 -117 16 -157 13 -38 -2 -69 -2 -69 1 0 2 11 19 26
38 27 36 52 46 34 14 -16 -30 -14 -31 50 -31 52 0 59 2 48 14 -7 8 -14 10 -16
5 -7 -17 -34 -9 -30 9 3 14 15 17 71 17 67 1 76 -5 57 -35 -8 -13 -10 -12 -10
3 0 22 -16 22 -24 0 -6 -15 -8 -15 -16 -3 -8 13 -10 13 -10 -1 0 -12 13 -18
46 -23 64 -8 74 -8 74 5 0 5 -4 8 -9 4 -5 -3 -12 -1 -16 5 -4 6 -11 8 -16 5
-5 -3 -6 1 -3 9 8 22 35 20 134 -10 47 -13 96 -27 110 -30 39 -8 49 -24 15
-24 -27 0 -28 -1 -12 -17 15 -16 18 -16 36 1 18 16 21 16 50 1 17 -8 31 -22
31 -30 0 -20 -9 -19 -34 3 -20 16 -20 16 -7 -1 16 -21 113 -69 121 -60 3 3 -1
8 -7 10 -21 7 -15 29 8 30 24 2 113 -40 124 -57 4 -6 4 -14 0 -18 -3 -4 -11 1
-16 11 -6 9 -19 17 -29 17 -11 0 -20 3 -20 8 0 8 -52 34 -57 28 -2 -2 3 -10
11 -19 8 -8 13 -17 10 -19 -8 -9 91 -47 137 -53 34 -5 41 -4 29 5 -12 9 -11
10 9 8 16 -2 30 6 45 25 18 24 21 42 21 120 0 108 -26 197 -81 278 -38 57 -42
68 -16 48 15 -13 16 -12 3 4 -8 9 -16 15 -19 12 -7 -7 -72 55 -72 69 0 5 15
-3 33 -19 17 -17 7 -4 -23 28 -30 31 -56 57 -59 57 -2 0 4 -9 14 -20 10 -11
13 -20 7 -20 -6 0 -14 5 -17 11 -4 6 -13 8 -21 5 -8 -3 -14 -1 -14 5 0 6 -9
22 -20 36 -11 14 -20 23 -20 19 0 -3 -9 3 -20 14 -11 11 -26 20 -32 20 -7 -1
-2 -7 12 -15z m193 -735 c26 0 29 -3 25 -25 -3 -14 -1 -25 3 -25 5 0 9 9 9 20
0 26 28 26 60 -1 14 -11 19 -18 13 -14 -8 4 -13 0 -13 -9 0 -20 -14 -20 -34 0
-15 14 -16 14 -16 -5 0 -12 -3 -21 -6 -21 -8 0 -29 22 -42 45 -10 18 -12 15
-18 -24 -8 -51 -18 -39 -29 34 -5 41 -4 48 6 38 7 -7 26 -13 42 -13z m138 -10
c10 -6 19 -16 19 -22 0 -9 -3 -9 -12 0 -7 7 -20 12 -30 12 -10 0 -18 5 -18 10
0 13 16 13 41 0z"/>
<path d="M507 4066 c-21 -50 -49 -82 -44 -50 1 11 6 25 10 31 5 7 4 20 -1 30
-8 13 -11 8 -17 -25 -3 -23 -4 -46 0 -51 3 -6 1 -20 -5 -31 -8 -16 -8 -18 4
-14 8 3 17 12 20 20 3 8 14 14 25 14 14 0 22 9 27 33 8 36 8 35 24 -47 8 -41
15 -55 23 -47 7 7 7 14 0 23 -6 7 -16 46 -23 86 -7 39 -16 72 -19 72 -3 0 -14
-20 -24 -44z"/>
<path d="M26 4078 c5 -7 8 -35 7 -63 -1 -27 -2 -63 -2 -78 -1 -16 -5 -26 -11
-22 -6 3 -7 -1 -4 -9 3 -9 10 -16 14 -16 5 0 6 -37 3 -82 -3 -46 -6 -94 -7
-108 -1 -17 -6 -24 -16 -22 -10 2 -6 -6 10 -25 14 -15 26 -30 27 -32 1 -2 4
103 5 233 3 225 2 236 -16 236 -13 0 -16 -4 -10 -12z"/>
<path d="M2129 4050 c-10 -34 -10 -43 2 -55 12 -12 14 -7 15 40 1 30 0 55 -2
55 -2 0 -9 -18 -15 -40z"/>
<path d="M790 4053 c-30 -15 -75 -48 -99 -73 l-44 -45 29 -2 c16 -2 62 -8 102
-14 72 -10 73 -10 110 18 20 15 41 27 45 25 5 -1 6 1 4 5 -3 5 1 16 8 26 14
20 19 16 29 -26 4 -15 11 -25 16 -22 6 4 4 18 -5 36 -15 29 -13 49 5 49 5 0
21 -22 36 -50 15 -27 31 -47 35 -44 5 3 -2 20 -16 38 -14 18 -25 42 -25 53 0
19 -4 20 -36 13 -38 -9 -87 -47 -78 -62 3 -5 0 -7 -8 -6 -7 2 -16 10 -20 18
-5 11 -7 10 -7 -5 -1 -25 -44 -48 -60 -32 -8 8 -11 7 -11 -2 0 -7 -4 -10 -10
-6 -5 3 -6 13 -3 23 5 14 3 15 -8 5 -15 -15 -49 -17 -49 -4 0 12 68 66 103 82
25 11 37 29 19 29 -4 0 -33 -12 -62 -27z"/>
<path d="M2468 4064 c-16 -8 -28 -23 -28 -34 0 -17 2 -17 25 5 13 14 29 25 35
25 5 0 10 5 10 10 0 13 -10 12 -42 -6z"/>
<path d="M2035 4031 c-3 -12 -11 -19 -16 -16 -5 4 -9 -6 -9 -22 0 -15 -7 -41
-15 -56 -14 -27 -13 -30 17 -55 56 -49 58 -48 58 10 0 35 -7 63 -19 82 -11 16
-17 35 -14 43 5 12 7 12 14 1 5 -7 9 -8 9 -3 0 6 -4 16 -9 24 -7 11 -10 9 -16
-8z"/>
<path d="M1053 4006 c4 -10 7 -20 7 -22 0 -2 7 -4 15 -4 8 0 27 -14 42 -31 34
-38 75 -60 91 -50 9 5 3 21 -19 54 -32 49 -66 65 -54 26 7 -21 6 -21 -26 3
-54 40 -63 44 -56 24z m126 -57 c13 -22 21 -42 18 -45 -11 -11 -52 36 -52 60
-1 36 8 33 34 -15z"/>
<path d="M2907 3993 c-4 -3 -7 -22 -7 -41 0 -44 10 -36 16 12 4 36 3 41 -9 29z"/>
<path d="M2735 3939 c-5 -8 -4 -10 3 -5 17 10 16 -56 0 -73 -10 -11 -10 -13 0
-7 9 5 12 -4 12 -33 0 -44 5 -48 35 -28 11 8 32 22 48 32 l27 17 0 -51 c0 -39
-4 -51 -15 -51 -17 0 -20 -37 -4 -60 8 -11 9 -7 4 16 -4 23 -2 33 9 37 9 4 16
17 16 30 0 27 19 46 68 71 l32 17 0 -31 c0 -25 -7 -33 -43 -52 -39 -20 -43
-26 -36 -48 l7 -25 1 25 c1 19 12 31 47 49 37 20 44 28 40 45 -3 12 -6 31 -6
44 0 20 -1 21 -17 6 -10 -8 -35 -26 -55 -39 l-38 -24 0 24 c0 13 5 27 10 30 6
3 10 12 10 18 0 9 -3 9 -8 -1 -5 -7 -33 -28 -63 -47 l-54 -34 -3 72 c-3 72
-13 100 -27 76z"/>
<path d="M89 3898 c0 -12 -2 -40 -5 -60 -4 -33 -2 -38 16 -38 19 0 21 5 18 57
-2 34 -8 58 -15 61 -8 2 -13 -6 -14 -20z"/>
<path d="M586 3901 c-4 -6 -6 -11 -4 -12 2 0 21 -2 43 -5 109 -11 229 -40 334
-78 148 -55 174 -68 232 -123 42 -39 69 -49 69 -25 0 32 -259 174 -395 218
-90 29 -267 45 -279 25z"/>
<path d="M2085 3869 c-5 -21 -2 -36 9 -47 28 -32 -10 -133 -66 -175 -48 -36
-111 -27 -220 28 -109 56 -106 54 -89 64 9 6 11 16 5 32 -7 23 -8 23 -21 -11
-8 -19 -32 -53 -54 -76 l-40 -40 -2 -91 c-3 -81 -6 -97 -32 -139 -56 -90 -233
-204 -375 -240 -106 -27 -159 -17 -318 62 -278 137 -353 164 -457 164 -49 0
-78 -15 -56 -29 10 -6 23 -4 38 6 21 14 32 14 81 4 80 -18 235 -105 284 -161
36 -40 39 -41 24 -13 -9 18 -24 37 -33 42 -11 6 -13 11 -5 11 7 0 48 -18 92
-40 44 -22 87 -40 97 -40 20 0 -100 -126 -128 -135 -12 -4 -18 -23 -23 -68 -9
-82 -16 -108 -27 -102 -5 3 -2 -13 6 -35 14 -39 45 -198 45 -230 0 -9 -24 -27
-54 -43 -30 -14 -60 -36 -66 -48 -11 -20 -9 -20 22 5 19 14 40 26 45 26 6 0
24 13 41 28 32 30 32 34 1 222 -7 45 -7 86 0 135 9 64 14 74 53 111 24 22 56
55 71 73 20 23 33 30 48 26 11 -4 19 -2 19 6 0 9 4 9 15 -1 8 -7 48 -13 92
-13 56 -2 81 -6 90 -17 11 -13 12 -12 13 7 0 18 8 24 38 29 20 4 60 18 87 31
28 13 59 26 69 28 11 3 23 10 28 17 9 16 29 5 109 -60 30 -23 69 -54 87 -68
17 -14 32 -32 32 -41 0 -11 -12 -6 -42 19 -70 56 -77 55 -16 -3 l57 -54 6 -80
6 -81 -78 2 c-43 2 -86 3 -95 3 -16 1 -18 14 -20 114 -1 61 -3 91 -5 65 -3
-40 -8 -48 -24 -48 -16 0 -19 7 -19 45 0 32 4 45 14 45 23 0 36 23 23 41 -38
51 -52 7 -52 -158 0 -137 1 -143 20 -142 17 1 17 2 2 6 -9 2 -15 9 -12 14 8
12 55 12 55 -1 0 -5 -4 -10 -10 -10 -5 0 -10 -9 -10 -20 0 -14 -7 -20 -24 -20
-13 0 -27 6 -29 13 -3 6 -6 3 -6 -9 -1 -19 3 -20 37 -15 27 5 36 11 34 23 -5
28 34 41 103 33 34 -3 74 -12 88 -20 22 -11 27 -11 27 -1 0 10 13 13 43 11 36
-3 43 0 43 16 0 22 -1 23 -26 7 -10 -7 -21 -10 -23 -8 -2 3 -7 37 -11 77 l-6
72 32 -18 c18 -10 56 -26 84 -35 l50 -16 0 -82 c-1 -80 -1 -82 26 -89 21 -5
25 -4 21 8 -5 12 -1 14 18 8 53 -15 59 -16 59 -11 0 13 -44 44 -56 39 -10 -4
-14 3 -14 25 0 40 -9 62 -26 62 -8 0 -14 6 -14 14 0 23 17 28 25 8 6 -16 7
-16 16 1 6 9 16 17 23 17 7 0 25 9 40 21 l26 20 0 -28 c0 -15 3 -39 7 -52 6
-23 7 -23 14 -5 10 27 9 -70 -1 -106 -9 -32 10 -70 36 -70 8 0 19 -10 24 -22
5 -13 9 -18 9 -12 1 6 -8 28 -18 50 -18 36 -19 37 -24 14 -2 -14 -4 28 -3 93
1 65 -2 123 -6 130 -4 7 -6 -1 -5 -17 1 -16 -4 -31 -10 -33 -9 -3 -11 4 -6 28
8 43 31 68 69 75 25 5 36 15 53 52 12 26 28 80 35 120 8 40 17 76 20 79 12 12
71 -57 90 -104 11 -26 28 -59 38 -72 24 -31 23 -49 -5 -91 -52 -78 -59 -90
-48 -90 6 0 32 31 57 70 26 38 51 67 55 64 16 -9 10 13 -7 27 -32 26 -66 125
-78 229 -7 50 -15 78 -80 268 -25 73 -46 149 -46 168 0 45 -24 102 -57 137
-34 34 -40 34 -48 -4z m38 -31 c14 -18 28 -44 31 -58 5 -18 1 -15 -13 11 -11
19 -27 41 -35 48 -15 13 -22 31 -12 31 3 0 16 -15 29 -32z m51 -173 c25 -61
47 -123 51 -140 3 -16 -7 4 -23 45 -16 41 -43 109 -61 150 -18 41 -27 70 -21
64 5 -5 30 -59 54 -119z m-59 -49 c5 -28 9 -35 15 -26 11 18 25 -33 14 -52 -4
-7 5 -2 20 12 24 21 22 16 -12 -36 -23 -34 -56 -74 -74 -89 -20 -17 -32 -36
-31 -49 1 -15 0 -16 -3 -3 -3 9 -9 17 -14 17 -12 0 -22 -17 -13 -22 11 -4 53
-65 53 -77 0 -5 -8 -7 -18 -4 -23 6 -71 -32 -57 -45 7 -7 14 -6 23 4 10 11 10
14 0 15 -7 0 -2 5 11 10 17 7 27 6 31 -2 9 -13 42 1 78 34 l22 21 -3 -57 c-2
-31 -6 -59 -9 -63 -4 -3 -4 -13 -1 -22 5 -11 2 -14 -9 -10 -11 5 -14 1 -10
-18 6 -31 10 -30 24 4 10 25 13 49 17 138 0 16 8 39 16 50 14 18 14 17 15 -14
0 -18 -4 -31 -9 -28 -4 3 -8 -18 -8 -47 0 -29 -7 -68 -15 -87 -23 -54 -91
-133 -144 -169 -60 -39 -72 -38 -219 34 -139 68 -374 240 -335 246 17 3 59
-15 57 -25 -1 -6 4 -10 11 -8 6 1 12 -2 12 -8 0 -15 114 -95 208 -146 80 -44
84 -45 98 -27 14 17 15 17 9 -4 -5 -17 0 -25 24 -38 l31 -16 0 30 c0 24 -3 28
-20 24 -11 -3 -20 0 -20 6 0 6 9 11 19 11 14 0 21 9 25 30 3 17 9 44 12 60 7
36 3 37 -22 8 -10 -12 -13 -18 -6 -14 8 5 12 -2 12 -24 0 -23 -6 -33 -25 -40
-14 -5 -32 -7 -40 -4 -15 6 -15 38 0 51 4 5 5 1 1 -7 -4 -8 6 1 22 20 17 19
28 39 25 44 -4 5 -2 6 4 3 6 -4 20 4 32 17 l23 24 -23 7 c-17 6 -27 1 -47 -25
-40 -51 -132 -101 -132 -72 0 11 -40 9 -57 -1 -8 -5 -13 -3 -13 7 0 9 5 16 11
16 8 0 8 4 -1 15 -10 12 -6 24 21 65 33 50 34 51 42 27 4 -14 15 -28 24 -31
23 -9 27 -1 8 17 -8 9 -15 33 -15 56 0 23 -4 41 -8 41 -4 0 -19 -21 -33 -47
-13 -25 -28 -55 -34 -65 -5 -10 -19 -18 -30 -18 -32 1 -101 36 -119 61 -22 33
-20 39 9 26 14 -7 23 -17 21 -24 -9 -22 7 -23 19 0 12 24 53 27 67 5 5 -9 9
-8 14 5 3 9 11 14 18 10 6 -4 5 1 -3 10 -8 10 -11 20 -7 24 3 3 6 0 6 -8 0
-11 2 -11 10 1 14 22 12 33 -5 26 -8 -3 -15 -1 -15 5 0 6 8 9 18 7 13 -3 17
-12 15 -43 -2 -39 -2 -39 7 -10 12 37 7 53 -22 64 -17 6 -25 4 -30 -8 -5 -13
-7 -12 -7 5 -1 29 -10 35 -33 23 -15 -8 -23 -8 -32 2 -8 9 -7 11 7 6 9 -4 17
-2 17 3 0 5 -8 11 -17 13 -14 4 -13 5 4 6 12 0 28 11 34 24 6 12 13 24 15 25
8 10 64 -34 59 -46 -3 -8 -5 -18 -5 -23 0 -6 -5 -7 -12 -3 -7 4 -8 3 -4 -4 11
-18 26 -14 26 7 0 28 12 32 37 11 15 -12 20 -25 17 -41 l-5 -24 10 23 c9 19
13 21 30 10 17 -10 18 -15 7 -37 -8 -15 -10 -35 -6 -46 4 -11 5 -25 3 -31 -3
-7 11 -13 36 -16 38 -3 39 -2 24 14 -9 10 -24 18 -35 18 -24 0 -23 30 1 62
l20 25 -124 74 c-83 49 -125 80 -125 92 0 24 17 21 31 -5 10 -19 12 -19 21 -5
5 10 22 17 41 18 30 1 30 2 -10 10 -39 9 -72 33 -61 44 3 3 31 -7 62 -23 31
-15 54 -31 50 -34 -3 -4 30 -14 75 -24 l80 -17 4 -56 c4 -56 4 -56 3 7 -1 34
3 63 7 65 5 1 5 10 2 19 -8 19 -94 43 -130 35 -18 -3 -25 0 -25 11 0 9 -7 13
-20 9 -12 -3 -20 0 -20 7 0 7 -12 18 -27 25 l-28 12 25 -21 c30 -24 14 -27
-19 -4 -21 15 -22 18 -7 26 14 8 15 12 4 25 -7 9 -8 14 -3 12 6 -3 48 -24 95
-47 59 -29 109 -45 163 -54 72 -11 79 -10 105 9 15 11 34 39 42 62 l15 43 7
-28 c4 -16 10 -47 13 -68z m-265 -41 c0 -8 -9 -15 -20 -15 -11 0 -20 7 -20 15
0 8 9 15 20 15 11 0 20 -7 20 -15z m-197 -82 c-7 -18 -43 -37 -43 -23 0 5 8
10 18 11 10 0 12 3 5 6 -7 2 -13 13 -13 24 0 16 3 17 19 7 10 -6 17 -18 14
-25z m523 -28 c6 -19 7 -38 2 -43 -5 -5 -6 -17 -2 -27 7 -17 8 -17 21 1 7 10
13 26 13 36 0 10 5 18 10 18 18 0 10 -27 -21 -70 -30 -41 -32 -42 -43 -22 -10
19 -12 19 -31 4 -11 -10 -27 -26 -35 -37 -14 -19 -14 -19 5 -5 11 8 24 21 28
28 4 6 13 12 18 12 13 0 7 -40 -6 -42 -5 0 -16 -9 -23 -19 -19 -28 -27 -24
-40 20 -18 59 -15 70 33 119 25 25 45 49 45 54 0 21 16 5 26 -27z m-558 -81
c18 -12 20 -19 12 -34 -11 -21 -46 -23 -66 -5 -17 14 -5 28 11 15 8 -7 19 -9
25 -5 5 3 10 0 11 -7 0 -10 2 -10 6 0 2 7 -6 21 -19 32 -27 23 -12 27 20 4z
m651 -58 c16 -68 5 -90 -28 -57 -15 15 -21 34 -21 64 0 80 29 76 49 -7z m34
-71 c4 -31 3 -41 -2 -25 -4 14 -11 48 -14 75 -4 31 -3 41 2 25 4 -14 11 -48
14 -75z m-710 -18 c-3 -6 -1 -7 6 -3 6 4 18 2 26 -4 17 -15 20 -30 4 -30 -5 0
-7 5 -3 12 5 8 2 9 -10 5 -20 -8 -56 12 -56 31 0 8 -6 12 -15 8 -12 -4 -13 -2
-3 13 11 17 12 17 34 -2 13 -11 21 -25 17 -30z m173 -101 c16 -17 19 -36 4
-36 -5 0 -10 7 -10 15 0 8 -7 15 -15 15 -8 0 -15 5 -15 10 0 15 19 12 36 -4z
m134 -189 c0 -4 -8 -3 -19 2 -10 6 -31 13 -47 15 -52 9 -134 54 -128 70 5 12
25 5 100 -32 52 -25 94 -50 94 -55z m-197 4 c5 -34 6 -68 3 -76 -7 -20 -26
-19 -26 0 0 8 5 15 10 15 6 0 10 9 10 21 0 11 -4 17 -10 14 -6 -4 -10 6 -10
22 0 15 -3 39 -7 52 -4 18 -2 22 8 19 9 -3 17 -28 22 -67z m-233 24 c0 -8 -3
-15 -7 -15 -5 0 -9 -11 -9 -25 -1 -14 2 -25 7 -25 5 0 9 -5 9 -11 0 -6 -6 -9
-12 -7 -13 5 -29 84 -20 93 11 11 32 4 32 -10z"/>
<path d="M2060 3577 c0 -9 -10 -12 -31 -9 -21 3 -30 1 -25 -6 3 -6 2 -13 -4
-17 -5 -3 -10 1 -10 9 0 9 -5 16 -11 16 -6 0 -9 -7 -5 -15 3 -9 0 -15 -9 -15
-14 0 -20 13 -15 35 1 5 -2 7 -6 3 -11 -12 -14 -58 -4 -58 30 0 113 24 125 37
17 17 20 33 5 33 -5 0 -10 -6 -10 -13z"/>
<path d="M1955 3406 c2 -22 11 -44 20 -49 8 -4 13 -12 10 -18 -4 -5 1 -9 10
-9 12 0 15 -5 11 -16 -3 -9 -6 -18 -6 -20 0 -3 -5 -2 -12 2 -7 4 -8 3 -4 -5 6
-9 11 -9 22 0 20 17 17 47 -7 59 -19 11 -19 13 -5 29 9 10 16 21 16 26 0 4 -9
-2 -20 -14 l-19 -23 -6 28 c-11 47 -15 52 -10 10z"/>
<path d="M1885 3354 c-19 -19 -15 -38 9 -42 14 -3 16 1 10 25 -7 25 -6 27 10
14 9 -8 19 -11 22 -8 3 3 -3 10 -14 16 -16 9 -24 7 -37 -5z"/>
<path d="M1940 3309 c-10 -17 -9 -20 2 -13 11 6 11 5 0 -8 -10 -13 -10 -17 4
-22 23 -9 24 -8 24 23 0 38 -16 48 -30 20z"/>
<path d="M1638 3303 c6 -2 12 -13 12 -22 0 -14 6 -17 25 -13 29 5 56 42 31 42
-7 0 -16 -7 -20 -15 -3 -8 -10 -15 -16 -15 -5 0 -10 7 -10 15 0 8 -8 15 -17
14 -11 0 -13 -3 -5 -6z"/>
<path d="M1830 3254 c0 -17 37 -24 50 -9 8 10 3 14 -20 17 -19 3 -30 0 -30 -8z"/>
<path d="M1960 3225 c-7 -9 -14 -30 -15 -48 -1 -18 -5 -65 -10 -104 -7 -68 -7
-73 11 -73 17 0 19 9 19 100 0 118 13 143 40 78 10 -24 19 -47 21 -53 1 -5 5
-19 9 -30 7 -20 6 -20 -9 -1 -9 11 -16 24 -16 29 0 5 -5 7 -11 5 -6 -2 -9 -8
-7 -13 2 -6 7 -9 12 -7 5 2 6 -5 2 -13 -11 -29 4 -37 32 -19 62 40 93 94 53
91 -10 0 -17 -6 -14 -13 2 -7 0 -15 -6 -18 -6 -4 -8 -13 -4 -21 3 -8 0 -15 -6
-15 -6 0 -11 7 -11 16 0 8 -4 12 -10 9 -5 -3 -7 0 -4 8 3 8 1 18 -5 22 -6 3
-11 12 -11 18 0 7 9 -1 20 -18 11 -16 20 -24 20 -17 0 7 -7 20 -15 28 -8 9
-15 30 -15 47 0 24 -3 28 -10 17 -5 -8 -7 -24 -5 -35 3 -11 -2 -5 -12 13 -19
36 -25 39 -43 17z"/>
<path d="M1977 3074 c-3 -4 -2 -15 4 -26 5 -10 7 -24 3 -30 -4 -7 7 -2 24 11
38 27 41 34 7 21 -24 -9 -30 -4 -26 23 1 9 -4 9 -12 1z"/>
<path d="M2159 3882 c6 -12 39 -43 72 -70 99 -80 170 -187 204 -307 10 -33 20
-65 22 -72 3 -6 -17 -26 -44 -45 -33 -22 -48 -39 -45 -51 2 -9 7 -15 12 -12 4
3 6 -4 3 -15 -7 -25 9 -26 30 -2 18 20 23 47 7 37 -6 -3 -7 1 -4 9 3 9 10 14
14 13 5 -1 15 7 24 18 14 18 15 13 12 -60 -2 -54 -9 -92 -21 -115 -25 -48 -20
-101 17 -174 17 -33 32 -63 34 -65 9 -10 37 43 40 73 2 29 2 30 -10 7 -11 -19
-14 -20 -24 -8 -7 8 -20 39 -30 69 -18 53 -18 58 -2 89 22 44 35 142 21 167
-7 12 -7 31 -1 51 5 17 5 33 1 36 -5 2 -11 24 -14 47 -3 23 -12 47 -20 53 -7
5 -22 33 -32 60 -10 28 -25 57 -34 65 -17 17 -37 46 -48 70 -9 21 -48 55 -113
99 -85 57 -84 56 -71 33z"/>
<path d="M607 3866 c-4 -9 -2 -16 4 -16 5 0 2 -14 -6 -30 -9 -17 -20 -28 -24
-26 -8 5 -35 -43 -29 -50 2 -1 59 -4 127 -5 91 -1 126 2 134 12 10 11 9 11 -5
0 -22 -16 -23 -8 -3 22 14 22 11 67 -6 67 -5 0 -6 -7 -2 -16 4 -12 2 -15 -8
-12 -8 3 -29 -8 -47 -26 -20 -19 -36 -27 -40 -20 -4 5 -16 10 -27 11 -43 1
-57 14 -51 47 7 36 -7 69 -17 42z"/>
<path d="M1205 3850 c-4 -6 -12 -8 -18 -4 -7 3 -5 0 4 -8 9 -7 23 -28 33 -45
9 -18 19 -33 22 -33 2 0 0 9 -6 21 -7 11 -10 23 -7 25 2 3 14 -18 26 -47 12
-28 25 -48 28 -45 4 3 13 0 21 -7 21 -17 -36 84 -59 105 -11 9 -19 21 -19 27
0 15 -18 23 -25 11z"/>
<path d="M1709 3831 c11 -20 153 -92 216 -110 56 -15 110 -14 125 4 10 12 5
14 -37 9 -43 -5 -61 1 -177 55 -71 34 -131 61 -133 61 -2 0 1 -8 6 -19z"/>
<path d="M535 3825 c-16 -8 -24 -14 -17 -15 6 0 12 -5 12 -11 0 -5 -9 -9 -20
-7 -10 2 -19 -1 -20 -7 0 -5 5 -11 10 -11 6 -1 13 -2 17 -3 3 0 -4 -12 -17
-26 -22 -23 -18 -34 6 -17 9 6 68 113 62 111 -2 0 -16 -7 -33 -14z"/>
<path d="M163 3793 c-6 -21 -8 -42 -3 -48 4 -5 10 -19 12 -30 7 -33 14 34 8
78 l-5 39 -12 -39z"/>
<path d="M2040 3811 c0 -11 -10 -27 -22 -35 -12 -9 -18 -16 -12 -16 5 0 20 7
32 16 23 16 29 39 12 49 -5 3 -10 -3 -10 -14z"/>
<path d="M213 3620 l0 -195 9 135 c4 74 13 143 19 154 6 11 7 16 0 12 -16 -10
-24 14 -9 31 8 10 8 14 1 10 -7 -5 -13 2 -16 20 -2 16 -4 -60 -4 -167z"/>
<path d="M2247 3745 c17 -23 36 -56 41 -75 l10 -35 1 40 c0 22 -4 47 -9 55 -5
8 -10 11 -10 6 0 -6 -14 3 -32 20 l-32 29 31 -40z"/>
<path d="M1056 3724 c-9 -24 -7 -31 4 -14 7 11 10 6 10 -21 0 -35 2 -37 78
-71 42 -20 90 -38 106 -42 27 -7 28 -6 15 10 -13 15 -72 47 -91 48 -5 1 -8 5
-8 10 1 4 -17 17 -40 28 -22 11 -40 24 -40 30 0 5 -6 16 -14 23 -12 12 -15 12
-20 -1z"/>
<path d="M2763 3715 c-28 -12 -33 -19 -33 -49 0 -19 -5 -37 -10 -39 -6 -3 -5
-4 2 -3 7 1 18 20 24 41 8 31 17 41 45 51 19 7 27 13 19 13 -8 0 -30 -6 -47
-14z"/>
<path d="M392 3694 c-1 -12 -5 -43 -8 -70 -5 -38 -4 -46 5 -38 8 7 11 33 8 70
-2 32 -4 50 -5 38z"/>
<path d="M2534 3692 c-8 -5 -9 -23 -4 -55 10 -66 15 -65 15 4 0 32 0 59 0 59
0 0 -5 -4 -11 -8z"/>
<path d="M2238 3635 c5 -30 13 -37 32 -25 11 7 11 14 3 32 -7 13 -12 17 -12 9
-1 -10 -4 -11 -15 -2 -11 9 -12 6 -8 -14z"/>
<path d="M2947 3638 c-2 -7 -25 -21 -50 -30 l-46 -17 -4 27 c-4 24 -4 24 -6
-6 -1 -29 1 -32 23 -26 18 4 25 1 29 -13 4 -14 5 -13 6 5 1 16 10 26 31 33 17
6 30 17 30 25 0 17 -6 18 -13 2z"/>
<path d="M2 3594 c-2 -33 3 -45 25 -65 20 -18 24 -19 13 -4 -8 11 -18 22 -22
25 -3 3 -8 23 -11 45 l-4 40 -1 -41z"/>
<path d="M176 3599 c-3 -17 -5 -64 -4 -103 1 -68 1 -67 8 29 8 106 7 126 -4
74z"/>
<path d="M2336 3608 c-4 -17 -8 -20 -15 -10 -6 11 -10 10 -15 -3 -3 -9 -6 -25
-6 -36 0 -10 -7 -19 -15 -19 -17 0 -19 -9 -5 -30 6 -10 10 -11 10 -2 0 6 8 20
18 30 17 19 52 75 52 86 0 16 -18 3 -24 -16z"/>
<path d="M87 3588 c-3 -11 0 -30 8 -40 12 -19 13 -18 20 11 10 47 -16 75 -28
29z"/>
<path d="M1490 3561 c0 -21 -5 -52 -11 -70 -13 -37 -12 -39 28 -47 25 -5 33
-2 43 16 10 19 8 26 -19 54 -17 18 -31 37 -31 44 0 16 67 16 73 0 4 -9 6 -8 6
3 1 24 -20 39 -56 39 -32 0 -33 -2 -33 -39z"/>
<path d="M50 3563 c0 -7 11 -23 24 -36 14 -14 34 -56 46 -96 11 -39 23 -71 26
-71 8 0 -7 83 -17 96 -5 6 -6 20 -2 29 5 14 3 16 -7 10 -10 -6 -12 -4 -7 8 3
9 3 16 -2 14 -4 -1 -19 12 -34 28 -14 17 -27 25 -27 18z"/>
<path d="M2364 3519 c5 -30 3 -39 -5 -33 -9 5 -10 2 -6 -10 4 -9 3 -15 -2 -11
-5 3 -12 -1 -14 -7 -4 -8 -8 -4 -12 10 -9 27 -21 29 -21 3 0 -11 5 -17 10 -14
5 4 7 -1 3 -10 -4 -11 -1 -15 14 -12 12 2 19 -2 19 -11 0 -8 -7 -14 -16 -14
-9 0 -14 -7 -12 -17 4 -18 34 -20 50 -4 5 4 10 38 12 75 3 47 1 64 -6 55 -7
-10 -8 -6 -5 14 2 15 0 27 -6 27 -6 0 -7 -16 -3 -41z"/>
<path d="M2658 3511 c3 -24 0 -30 -25 -39 -15 -6 -22 -11 -15 -11 29 -2 52 20
52 49 0 17 -4 30 -8 30 -5 0 -7 -13 -4 -29z"/>
<path d="M2870 3520 c-6 -11 -16 -19 -23 -17 -7 1 -11 -6 -9 -17 2 -11 -6 -28
-20 -38 l-23 -19 23 11 c13 6 27 22 32 35 14 37 30 40 30 5 0 -28 2 -30 28
-24 36 9 44 18 10 12 -26 -5 -28 -3 -28 28 0 18 6 35 13 37 7 3 5 6 -5 6 -10
1 -22 -8 -28 -19z"/>
<path d="M660 3489 c0 -6 -7 -9 -15 -5 -9 3 -19 -3 -25 -15 -6 -11 -15 -17
-21 -14 -5 4 -6 12 -2 18 4 7 0 6 -10 -2 -10 -7 -30 -11 -47 -9 -19 3 -29 1
-27 -6 3 -6 0 -19 -4 -28 -6 -10 -5 -19 1 -23 5 -3 15 6 22 20 10 23 16 26 47
21 20 -2 43 -7 51 -10 10 -4 21 5 32 25 11 18 22 27 29 23 8 -4 9 -3 5 4 -9
15 -36 16 -36 1z"/>
<path d="M667 3450 c-4 -15 -1 -27 6 -32 17 -11 27 -10 27 2 0 20 2 25 12 38
8 9 7 11 -6 6 -9 -3 -16 -11 -17 -18 0 -6 -4 -2 -8 8 -7 19 -8 18 -14 -4z"/>
<path d="M1560 3441 c0 -10 -7 -24 -16 -31 -17 -15 -38 -50 -29 -50 7 0 65 81
65 92 0 4 -4 8 -10 8 -5 0 -10 -8 -10 -19z"/>
<path d="M420 3439 c-12 -9 -10 -10 8 -6 18 4 22 2 18 -9 -3 -8 1 -14 9 -14 8
0 15 9 15 20 0 22 -25 27 -50 9z"/>
<path d="M546 3424 c-8 -22 -8 -26 3 -20 5 4 11 0 14 -6 3 -10 9 -8 24 5 11 9
23 15 26 12 4 -3 3 0 -2 7 -8 8 -14 8 -26 -2 -14 -11 -19 -7 -16 13 2 14 -17
7 -23 -9z"/>
<path d="M1460 3417 c0 -7 8 -17 19 -24 16 -10 22 -8 42 13 l22 24 -41 0 c-27
0 -42 -4 -42 -13z"/>
<path d="M626 3401 c-9 -10 -13 -21 -9 -25 4 -3 12 3 18 15 l12 21 22 -23 c20
-21 23 -22 19 -5 -5 28 -43 39 -62 17z"/>
<path d="M418 3347 c-16 -6 -28 -17 -28 -25 0 -8 -13 -31 -30 -52 -16 -21 -30
-41 -30 -45 0 -5 -18 -25 -41 -46 -40 -37 -79 -56 -79 -37 0 5 -7 2 -16 -6 -8
-9 -21 -16 -29 -16 -7 0 -16 -7 -19 -16 -5 -12 -10 -13 -19 -6 -9 8 -13 7 -13
-6 -1 -9 -5 -25 -9 -36 -6 -13 5 -9 36 15 24 19 71 46 104 61 49 22 67 37 98
83 20 30 37 59 37 64 0 14 77 63 112 71 l33 8 -40 0 c-22 0 -52 -5 -67 -11z"/>
<path d="M2401 3277 c-41 -37 -45 -39 -52 -21 -6 15 -8 13 -8 -11 0 -16 4 -39
9 -50 8 -20 9 -20 9 1 1 11 12 31 26 44 30 28 32 17 4 -29 -13 -21 -19 -45
-16 -65 3 -28 4 -28 5 8 2 28 6 37 16 33 11 -4 20 12 35 61 11 36 19 67 18 68
-1 2 -22 -16 -46 -39z"/>
<path d="M428 3292 c-16 -9 -28 -20 -28 -25 0 -4 10 -2 21 5 12 7 31 19 43 25
14 8 16 13 6 13 -8 0 -27 -8 -42 -18z"/>
<path d="M518 3295 c18 -8 47 -24 63 -35 16 -12 29 -18 29 -13 0 14 -82 63
-105 63 -15 -1 -11 -5 13 -15z"/>
<path d="M626 3282 c12 -8 132 -157 155 -192 l16 -25 -4 35 c-4 27 -23 53 -81
113 -42 42 -81 77 -87 77 -6 0 -6 -3 1 -8z"/>
<path d="M2631 3254 c0 -12 -8 -27 -16 -34 -8 -7 -15 -20 -14 -29 0 -11 3 -9
9 7 6 14 18 22 32 22 14 0 18 3 12 8 -7 4 -14 16 -17 27 -4 19 -5 19 -6 -1z"/>
<path d="M933 3236 c37 -34 136 -64 148 -45 17 28 8 36 -58 48 -38 7 -79 14
-93 17 l-25 5 28 -25z"/>
<path d="M394 3227 c-5 -7 -21 -19 -35 -28 -14 -10 -20 -20 -15 -25 5 -5 11
-3 13 4 3 7 19 20 35 28 30 15 91 14 146 -2 9 -3 1 4 -18 15 -39 22 -109 27
-126 8z"/>
<path d="M603 3191 c29 -27 61 -50 72 -52 13 -3 24 -19 34 -54 18 -60 19 -61
32 -48 17 17 -24 95 -72 133 -102 83 -147 97 -66 21z"/>
<path d="M2838 3161 c29 -29 56 -51 59 -47 3 3 0 13 -8 22 -7 9 -14 23 -15 31
-3 19 -14 30 -14 14 0 -8 -13 -5 -37 10 -36 22 -35 20 15 -30z"/>
<path d="M464 3171 c23 -25 17 -26 -31 -6 -52 22 -75 18 -26 -5 24 -10 64 -33
90 -50 l48 -32 -35 31 c-32 27 -34 31 -19 46 14 14 19 13 60 -16 71 -51 99
-80 132 -144 26 -48 33 -55 35 -37 2 12 -2 39 -8 58 -9 28 -15 33 -22 23 -7
-10 -11 -11 -14 -2 -12 28 -80 105 -108 123 -18 10 -52 22 -76 26 l-45 7 19
-22z"/>
<path d="M328 3148 c-16 -5 -28 -14 -28 -19 0 -6 -4 -8 -9 -5 -14 9 -42 -5
-34 -17 4 -6 0 -8 -11 -4 -11 5 -15 3 -10 -5 5 -8 2 -9 -10 -5 -10 4 -15 3
-11 -3 3 -5 -16 -20 -42 -34 -26 -14 -65 -46 -85 -71 l-37 -46 17 -36 c11 -23
18 -30 20 -20 2 9 -2 25 -8 36 -7 14 -7 21 -1 21 6 0 20 18 31 41 27 51 34 45
20 -13 -7 -25 -10 -56 -8 -69 4 -19 6 -15 13 18 4 24 14 48 21 54 17 14 17 13
-1 -36 -8 -22 -14 -51 -14 -65 1 -18 3 -15 10 13 5 21 16 51 24 67 8 15 11 30
6 32 -5 2 -7 15 -4 30 8 43 23 22 23 -32 0 -27 5 -60 11 -73 9 -21 8 -28 -11
-47 -12 -12 -33 -23 -46 -24 -18 -1 -24 -7 -25 -26 l-1 -25 -8 25 c-8 24 -8
24 -9 -7 l-1 -32 51 35 c28 19 58 34 66 34 12 0 14 7 9 28 -18 81 -29 181 -21
198 6 15 10 6 19 -39 l11 -59 18 31 c11 19 23 28 32 24 8 -3 15 0 15 7 0 6 -4
9 -8 6 -4 -2 -8 10 -8 28 0 24 6 35 23 43 28 14 31 -1 6 -36 -9 -14 -12 -21
-6 -18 6 4 19 -3 29 -15 18 -20 18 -21 1 -15 -11 4 -16 3 -12 -3 3 -5 -15 -29
-40 -53 -37 -36 -45 -50 -45 -80 0 -46 13 -48 25 -4 8 25 15 31 33 30 24 -3
28 7 11 24 -8 8 -6 17 7 32 17 20 19 20 26 4 5 -15 7 -13 7 6 1 24 1 24 23 5
19 -16 20 -16 9 -1 -12 15 -11 20 5 38 16 17 16 19 1 13 -9 -3 -17 -11 -17
-17 0 -6 -3 -8 -6 -5 -3 4 2 20 11 38 9 17 14 38 11 46 -4 11 -2 12 14 4 28
-15 32 -27 19 -52 l-12 -23 26 24 26 23 43 -34 c24 -20 62 -48 86 -63 24 -16
50 -41 58 -57 8 -15 21 -28 29 -28 12 0 14 -9 10 -42 -5 -39 -2 -39 11 2 10
28 24 -15 18 -50 l-7 -31 -28 27 c-19 18 -29 38 -29 57 l0 30 -23 -34 -23 -34
45 -31 c59 -40 65 -41 72 -7 5 21 6 18 4 -12 -1 -22 1 -51 5 -65 5 -14 8 -19
9 -11 1 11 5 10 16 -5 16 -21 20 -38 7 -30 -4 2 -8 -4 -8 -15 0 -10 4 -19 9
-19 5 0 4 -6 -2 -14 -10 -12 -8 -13 9 -9 15 4 19 11 14 25 -3 11 -6 40 -7 66
0 29 -3 39 -7 27 -6 -16 -8 -14 -13 10 -3 17 -8 39 -11 50 -4 11 0 7 8 -10 20
-39 20 -12 1 52 -23 77 -85 144 -215 232 -115 78 -172 112 -187 110 -4 0 -20
-5 -35 -11z m45 -40 c2 -7 0 -26 -6 -41 -7 -21 -12 -25 -22 -17 -10 8 -10 17
-2 40 12 32 23 38 30 18z m-93 -53 c-7 -8 -19 -15 -26 -15 -20 0 -17 27 4 39
23 13 39 -3 22 -24z"/>
<path d="M2729 3132 c21 -12 48 -42 73 -82 44 -74 52 -69 8 6 -31 55 -72 94
-99 94 -8 0 0 -8 18 -18z"/>
<path d="M2254 3069 c-15 -22 -37 -47 -48 -55 -11 -8 -15 -14 -9 -14 12 0 93
88 93 101 0 16 -7 10 -36 -32z"/>
<path d="M2857 3065 c15 -19 29 -32 31 -30 6 6 -38 65 -49 65 -5 0 3 -16 18
-35z"/>
<path d="M2300 3072 c0 -7 -17 -31 -37 -54 -29 -33 -32 -39 -13 -27 28 18 66
76 56 86 -3 4 -6 1 -6 -5z"/>
<path d="M748 3023 c-23 -6 -25 -90 -3 -119 13 -17 14 -13 15 48 0 43 4 68 13
71 15 7 -2 6 -25 0z"/>
<path d="M2547 3000 c-3 -10 1 -27 9 -38 28 -40 75 -209 68 -242 -4 -18 -3
-21 4 -12 7 11 10 10 16 -3 3 -9 6 -25 6 -35 0 -10 9 -20 20 -23 14 -4 20 -13
19 -34 0 -26 -1 -27 -9 -6 -12 31 -57 40 -92 20 -15 -9 -28 -12 -28 -7 0 4 -9
6 -20 3 -14 -4 -20 0 -20 10 0 9 -4 19 -10 22 -7 4 -7 -3 0 -19 7 -19 6 -26
-3 -26 -8 0 -7 -4 3 -11 13 -9 13 -10 -2 -6 -21 7 -31 -3 -17 -19 6 -7 8 -18
4 -24 -10 -16 -33 -12 -44 8 -8 13 -9 10 -5 -14 5 -25 1 -33 -19 -46 -42 -28
-62 -27 -62 5 1 15 -4 26 -9 24 -14 -5 -27 -58 -20 -80 5 -16 8 -17 22 -4 26
23 141 78 202 98 30 9 47 18 38 18 -13 1 -18 9 -18 32 0 29 2 30 38 27 31 -2
40 -9 53 -36 11 -20 19 -28 22 -20 3 7 6 0 6 -17 1 -16 10 -50 21 -74 11 -24
19 -46 17 -47 -2 -2 -24 16 -50 41 -66 63 -94 66 -198 20 -94 -41 -153 -81
-143 -97 4 -6 12 -1 20 13 7 13 13 20 14 15 0 -5 8 -2 18 7 9 8 29 19 45 22
15 4 30 11 33 16 3 5 14 14 24 19 17 9 23 4 45 -37 24 -45 26 -38 9 25 -4 13
-2 22 5 22 11 0 13 -6 15 -75 1 -22 5 -51 10 -64 6 -16 4 -26 -5 -32 -11 -7
-10 -9 4 -9 10 0 22 10 27 23 5 12 9 16 9 9 1 -7 6 -10 11 -7 6 3 9 30 9 58
l-2 52 -7 -40 c-7 -37 -8 -35 -6 18 0 31 4 57 8 57 12 0 28 -37 20 -45 -4 -3
-1 -5 7 -3 22 5 46 -53 72 -167 13 -60 30 -107 41 -118 10 -10 18 -24 18 -32
0 -17 9 -19 29 -6 12 8 10 16 -12 45 -22 29 -27 45 -27 95 0 47 -3 61 -15 61
-8 0 -17 12 -21 28 -3 15 -8 33 -10 41 -5 15 31 77 49 85 7 3 0 3 -14 0 -34
-7 -42 7 -31 50 6 19 6 39 1 47 -6 10 -9 11 -9 2 0 -7 -4 -13 -9 -13 -5 0 -10
24 -13 53 -3 34 -12 64 -28 84 -14 20 -23 45 -22 65 0 18 -3 35 -8 38 -5 3
-11 17 -14 32 -2 14 -9 35 -15 46 -6 11 -8 28 -5 36 3 9 2 16 -4 16 -5 0 -16
20 -23 45 -14 48 -34 65 -42 35z m61 -572 c-1 -63 -2 -66 -5 -20 -2 28 -8 52
-14 52 -5 0 -4 9 3 20 7 11 14 20 15 20 2 0 2 -33 1 -72z"/>
<path d="M436 2995 c-6 -17 17 -31 34 -20 5 3 10 -1 10 -10 0 -13 -6 -15 -29
-10 -23 5 -33 1 -50 -21 -11 -15 -21 -33 -21 -40 0 -22 -18 -16 -26 8 -6 20
-8 20 -19 5 -7 -9 -17 -17 -22 -17 -6 0 -17 -7 -24 -17 -13 -15 -11 -16 16 -8
42 11 115 7 181 -11 62 -16 67 -15 54 6 -7 11 -10 12 -10 2 0 -19 -26 8 -33
34 -4 15 -5 14 -6 -6 l-2 -25 -19 23 c-11 13 -21 18 -25 12 -10 -15 -24 -2
-22 20 1 16 9 20 35 20 29 0 33 3 30 23 -2 14 -9 21 -20 21 -10 -1 -16 2 -13
6 3 5 1 11 -4 14 -5 3 -12 -1 -15 -9z"/>
<path d="M1217 2955 c-4 -26 -2 -42 6 -47 9 -6 9 -10 -1 -16 -7 -5 -10 -16 -7
-25 5 -10 -2 -20 -22 -31 -36 -19 -21 -21 16 -1 16 8 31 11 35 8 8 -8 7 -4 -8
82 -12 69 -12 69 -19 30z"/>
<path d="M2395 2972 c-17 -11 -43 -35 -58 -55 -15 -21 -42 -44 -60 -54 -18 -9
-27 -18 -20 -20 17 -6 31 4 113 80 73 67 81 83 25 49z"/>
<path d="M2520 2956 c0 -7 7 -19 15 -26 9 -8 12 -22 8 -41 -6 -33 12 -41 20
-8 3 11 -3 35 -15 55 -22 37 -28 42 -28 20z"/>
<path d="M2425 2940 c-21 -23 -12 -39 13 -24 19 12 29 44 14 44 -5 0 -17 -9
-27 -20z"/>
<path d="M2461 2921 c-34 -42 -64 -119 -76 -192 -10 -60 2 -45 21 27 16 63 25
83 68 157 34 57 28 61 -13 8z"/>
<path d="M2487 2898 c-3 -10 0 -19 9 -22 23 -9 18 -39 -5 -31 -54 17 -102
-188 -61 -256 15 -24 23 -1 11 29 -16 39 -11 104 9 108 8 1 22 3 30 5 8 2 15
-2 16 -8 7 -55 18 -59 55 -24 19 17 40 31 47 31 6 0 12 7 12 16 0 25 -19 54
-36 54 -12 0 -11 -5 6 -27 l21 -27 -43 -22 c-28 -14 -44 -18 -47 -11 -2 6 1
13 8 15 21 7 11 33 -26 67 -30 28 -34 35 -19 35 10 0 25 -8 32 -17 11 -16 13
-16 19 10 5 19 3 33 -8 45 -8 9 -16 24 -19 31 -4 12 -5 12 -11 -1z m4 -132
c15 -13 25 -27 22 -30 -4 -3 -15 1 -25 11 -12 10 -18 12 -18 4 0 -7 -4 -10 -9
-6 -9 5 -11 45 -3 45 2 0 17 -11 33 -24z"/>
<path d="M2967 2834 c-10 -19 -21 -33 -26 -30 -5 3 -11 -1 -15 -9 -3 -8 -12
-15 -21 -15 -8 0 -15 -7 -15 -15 0 -23 -1 -29 -11 -47 -17 -31 6 -19 25 13 27
45 32 27 6 -23 -22 -43 -22 -43 0 -22 12 12 22 35 23 56 1 19 11 43 20 53 18
17 18 17 12 -17 -8 -42 8 -59 25 -27 7 12 8 19 2 15 -17 -10 -20 57 -4 81 8
13 10 23 5 23 -5 0 -17 -16 -26 -36z"/>
<path d="M2365 2847 c-11 -9 -14 -16 -8 -20 6 -4 22 2 34 13 18 14 20 19 8 20
-8 0 -23 -6 -34 -13z"/>
<path d="M336 2838 c-9 -5 -26 -7 -39 -4 -12 3 -16 3 -9 0 9 -4 -1 -13 -28
-25 -54 -24 -65 -24 -20 1 43 24 33 26 -14 3 -19 -9 -33 -20 -30 -25 3 -4 -2
-5 -10 -2 -9 4 -34 -12 -66 -42 -50 -47 -83 -55 -41 -10 14 15 21 33 19 48 -3
21 -5 20 -25 -15 -30 -49 -29 -65 3 -77 33 -13 34 -13 34 4 0 8 3 17 8 20 4 2
6 -14 5 -37 l-2 -42 8 35 8 35 12 -30 c7 -16 15 -46 18 -65 5 -33 5 -34 -10
-15 -16 19 -16 18 -17 -19 l0 -40 33 31 c50 50 139 86 224 91 48 3 73 9 73 17
0 15 -32 16 -42 1 -5 -6 -8 -2 -8 11 0 12 11 30 25 41 26 20 33 42 14 42 -19
0 -94 -57 -108 -83 l-13 -25 -57 23 c-47 19 -140 45 -103 29 7 -4 12 -25 11
-57 l-1 -52 -15 35 c-26 60 -22 82 15 93 17 6 32 16 32 23 0 16 14 25 56 34
l34 8 0 -53 c0 -61 11 -76 30 -41 7 13 23 30 36 37 14 7 23 18 20 23 -22 55
-27 53 86 31 117 -22 121 -26 114 -107 -4 -40 -2 -68 3 -68 5 0 23 -12 41 -26
l31 -26 -12 26 c-10 20 -10 29 -1 38 15 15 16 38 2 38 -5 0 -12 -11 -16 -25
-6 -26 -7 -26 -21 -6 -9 13 -13 39 -11 67 l3 47 42 -34 c61 -50 67 -70 42
-129 l-21 -49 -32 24 c-60 46 -124 67 -200 68 -101 0 -192 -32 -253 -90 -27
-24 -42 -42 -35 -38 9 5 12 -11 14 -62 l1 -68 6 60 c7 64 31 122 39 95 3 -8
11 -23 19 -32 9 -9 12 -22 7 -30 -4 -7 2 -4 14 6 12 11 22 29 21 40 0 12 -3
15 -6 8 -7 -17 -23 -5 -23 17 0 10 11 23 25 29 34 16 55 15 51 0 -3 -7 -7 -26
-10 -41 -6 -26 -5 -27 15 -17 12 7 47 13 78 13 43 1 55 4 47 13 -6 7 -14 10
-18 7 -5 -2 -8 1 -8 6 0 6 -9 11 -20 11 -11 0 -20 7 -20 15 0 28 -17 15 -25
-17 l-7 -33 -10 28 c-15 41 -1 49 85 55 90 5 117 -5 109 -45 l-6 -28 -7 25
c-6 23 -7 22 -8 -8 -1 -18 3 -31 8 -28 5 4 12 0 14 -6 3 -7 6 4 6 25 1 26 5
37 16 37 23 0 67 -24 89 -49 l19 -21 13 22 c24 42 37 73 41 98 2 13 6 27 9 29
2 3 -13 23 -33 44 -21 22 -32 37 -25 33 6 -4 12 -5 12 -2 0 8 -87 57 -96 55
-19 -5 -63 14 -57 24 3 5 1 7 -4 4 -6 -4 -49 1 -96 11 -54 12 -91 15 -101 10z
m28 -44 c3 -9 6 -25 6 -36 0 -16 -3 -18 -14 -9 -11 10 -16 6 -24 -16 -9 -25
-10 -23 -11 25 -1 45 2 52 18 52 10 0 22 -7 25 -16z m-91 -123 c4 -4 -8 -20
-27 -34 l-34 -26 -4 38 c-3 38 -3 38 27 34 16 -3 34 -8 38 -12z"/>
<path d="M2535 2814 c-11 -17 -13 -30 -7 -36 6 -6 12 1 17 19 3 15 12 31 18
35 9 6 9 8 1 8 -7 0 -19 -12 -29 -26z"/>
<path d="M2190 2814 c0 -12 49 -34 77 -34 35 0 28 17 -9 23 -18 3 -41 8 -50
12 -10 4 -18 3 -18 -1z"/>
<path d="M1503 2794 c9 -9 127 -21 127 -13 0 4 -10 9 -22 13 -30 8 -113 8
-105 0z"/>
<path d="M1730 2792 c0 -5 -6 -16 -13 -27 -11 -14 -16 -15 -22 -5 -5 9 -4 11
3 6 7 -4 12 -3 12 2 0 11 -36 23 -44 14 -3 -3 -6 -15 -6 -26 0 -14 -3 -17 -8
-9 -5 8 -43 12 -117 12 -61 0 -146 1 -190 1 -49 1 -97 -5 -124 -14 -24 -9 -55
-16 -70 -16 -19 0 -22 -3 -12 -9 8 -5 24 -6 37 -1 28 11 140 25 179 22 66 -4
115 -14 115 -23 0 -12 -7 -11 -31 1 -15 8 -19 7 -19 -5 0 -19 -8 -19 -53 0
-20 8 -44 15 -54 14 -10 0 -1 -7 20 -16 26 -11 36 -20 33 -30 -3 -8 -6 -23 -6
-34 0 -11 -7 -19 -17 -19 -14 0 -15 -2 -4 -12 11 -11 14 -10 18 0 3 6 8 10 12
7 5 -2 6 6 4 18 -7 43 9 51 63 32 27 -9 57 -21 66 -26 10 -5 25 -9 33 -9 9 0
13 -5 10 -10 -4 -7 2 -9 19 -4 15 4 26 2 26 -4 0 -12 -57 -19 -231 -28 l-125
-6 -32 27 c-18 15 -32 24 -32 20 0 -4 -6 -2 -14 4 -12 10 -18 7 -30 -18 -22
-42 -20 -46 10 -22 33 26 44 26 44 4 0 -14 2 -15 9 -5 6 10 10 10 21 -3 8 -9
29 -15 56 -15 35 0 44 -4 44 -17 0 -15 2 -14 14 3 13 17 15 18 21 2 4 -9 4
-22 0 -28 -11 -18 -35 -11 -45 13 l-9 22 0 -22 c-1 -13 4 -23 11 -23 9 0 9 -3
0 -12 -7 -7 -12 -20 -12 -30 0 -10 -7 -18 -17 -18 -41 -2 243 -97 341 -116 20
-3 39 -10 42 -15 3 -5 31 -9 64 -9 43 0 59 -4 64 -15 5 -14 9 -14 35 0 40 20
61 19 93 -8 19 -16 28 -36 33 -69 l7 -46 -124 45 c-67 24 -134 48 -148 52 -14
5 -82 29 -152 55 -70 25 -142 46 -160 46 l-33 -1 25 -14 c14 -8 39 -14 57 -15
17 0 35 -4 38 -10 3 -5 -3 -10 -15 -10 -14 0 -25 -10 -33 -29 -11 -25 -15 -28
-32 -18 -18 9 -19 9 -6 -6 20 -26 4 -21 -91 26 -47 23 -82 36 -76 30 8 -10 4
-13 -17 -13 -38 0 -145 -29 -169 -46 -26 -18 -18 -18 27 1 49 20 49 20 25 -20
-29 -50 -15 -56 16 -7 22 36 30 40 78 46 76 10 79 9 128 -13 l45 -20 -41 0
c-31 -1 -56 -11 -98 -38 -74 -50 -170 -143 -190 -185 -16 -31 -14 -30 35 17
28 28 47 41 41 30 -6 -11 -22 -31 -37 -45 -15 -14 -32 -34 -38 -45 -6 -11 31
19 81 66 89 84 229 189 251 189 6 0 11 -7 11 -16 0 -8 4 -13 8 -10 11 6 112
-25 112 -35 0 -8 -53 -55 -90 -81 -14 -9 -20 -17 -13 -17 6 -1 24 10 40 23 23
19 47 26 123 34 52 6 96 9 98 7 6 -6 -131 -271 -199 -385 -37 -63 -88 -159
-113 -212 -39 -83 -43 -98 -28 -98 12 0 23 13 31 38 7 20 51 107 97 194 46 86
111 213 143 283 32 69 61 127 64 128 3 1 24 -10 47 -25 48 -32 53 -33 70 -13
10 13 9 15 -9 15 -28 0 -81 27 -81 41 0 7 11 9 28 6 24 -4 201 -66 211 -74 20
-15 -81 -275 -204 -530 -47 -97 -84 -177 -83 -178 18 -9 173 -63 175 -61 3 3
27 91 92 341 27 101 55 349 41 353 -20 7 -10 32 13 32 20 1 20 2 5 11 -25 14
-22 27 5 31 14 2 -12 14 -68 32 -134 43 -236 83 -249 99 -6 8 -27 20 -46 27
-19 7 -54 24 -77 38 -35 20 -41 27 -33 42 5 9 7 20 3 24 -5 5 92 -24 137 -41
8 -4 21 -5 28 -4 14 2 16 -15 2 -24 -14 -9 -12 -51 3 -62 6 -6 26 -13 42 -17
28 -7 29 -6 10 7 -19 15 -19 16 -1 36 21 23 33 26 54 12 12 -7 12 -12 0 -32
-7 -13 -17 -27 -22 -30 -4 -4 11 -13 35 -22 24 -8 66 -23 93 -32 69 -25 116
-34 116 -24 0 8 -21 13 -42 11 -3 -1 -12 5 -18 14 -10 12 -9 18 5 34 25 28 65
27 66 -2 1 -17 3 -18 6 -6 4 14 8 15 28 6 19 -9 22 -15 15 -29 -19 -35 -11
-50 40 -71 64 -27 58 -34 -11 -14 -64 19 -69 19 -45 1 14 -11 16 -15 5 -15
-11 -1 -10 -4 4 -14 9 -7 28 -11 41 -9 40 8 48 -22 41 -160 -6 -118 -5 -121
10 -82 14 36 22 171 13 215 -7 35 18 19 44 -28 21 -36 31 -73 38 -133 20 -176
6 -643 -21 -659 -5 -4 39 -26 98 -49 60 -24 113 -45 118 -47 15 -6 8 310 -11
456 -9 69 -25 168 -36 220 -26 126 -118 343 -163 389 -36 35 -52 67 -40 79 4
4 10 0 15 -8 4 -8 20 -28 35 -45 14 -16 53 -84 85 -150 98 -201 139 -408 147
-742 l5 -212 94 -37 c52 -20 98 -42 101 -47 4 -7 -3 -7 -18 -2 -13 4 -82 9
-154 11 -151 4 -167 16 135 -108 107 -44 242 -100 298 -124 57 -24 106 -44
108 -44 2 0 4 8 4 18 0 19 -54 46 -180 92 -120 44 -273 114 -271 125 1 6 17
10 36 10 83 0 61 43 -49 99 -57 28 -78 44 -82 63 -4 13 -3 98 1 188 4 90 3
170 -1 177 -12 18 -14 32 -18 117 -2 40 -9 78 -15 84 -6 6 -11 28 -11 49 0 21
-6 53 -13 71 -14 32 -32 106 -29 119 1 3 -5 12 -13 18 -8 7 -15 19 -15 27 0 8
-7 21 -15 29 -8 9 -15 24 -15 35 0 10 -4 19 -8 19 -4 0 -21 25 -37 56 -16 30
-41 64 -56 74 -16 12 -31 37 -39 65 -7 25 -17 48 -21 51 -5 3 -9 10 -9 15 0 6
4 8 8 5 10 -6 50 -84 54 -106 2 -12 8 -10 28 8 24 23 24 23 3 28 -24 7 -37 30
-26 47 3 7 2 9 -2 4 -10 -9 -55 31 -55 50 0 7 -9 13 -20 13 -14 0 -18 -5 -13
-17 4 -11 3 -14 -5 -9 -17 11 -15 -10 4 -28 13 -14 13 -16 0 -16 -15 0 -29 28
-24 51 2 7 11 22 21 33 19 22 23 61 6 72 -7 4 -9 0 -5 -13 10 -32 -3 -53 -33
-53 -33 0 -56 14 -47 29 4 6 0 21 -8 33 -21 29 -20 38 2 39 15 0 15 1 -2 8
-18 7 -18 8 4 29 33 30 39 28 46 -18 4 -22 12 -41 18 -41 6 -1 18 -2 26 -3 9
0 16 -13 18 -33 4 -36 27 -51 35 -22 6 23 -2 59 -14 59 -13 0 -11 98 2 106 8
4 7 9 -2 16 -14 10 22 5 55 -8 13 -5 16 1 16 29 0 20 -4 39 -10 42 -19 12 -11
26 9 16 37 -20 55 -122 24 -139 -14 -9 -14 -12 7 -33 22 -23 22 -23 11 -2 -9
17 -9 27 1 42 12 19 13 19 32 3 19 -17 19 -17 1 11 -14 22 -15 30 -5 43 7 8
19 13 26 10 14 -5 57 60 51 78 -3 6 -25 -10 -51 -37 -25 -26 -46 -42 -46 -35
0 21 -34 98 -44 98 -4 0 -5 -7 -2 -16 3 -8 2 -12 -4 -9 -29 18 -95 -65 -106
-135 -10 -59 -24 -59 -24 -1 0 37 -4 51 -14 51 -8 0 -16 -6 -18 -12 -4 -10
-10 -10 -31 -1 -27 12 -27 12 -27 -26 0 -39 -20 -68 -40 -56 -5 3 -10 1 -10
-4 0 -6 6 -11 14 -11 19 0 35 -22 42 -58 6 -30 4 -33 -32 -48 -22 -9 -42 -21
-46 -28 -6 -8 -8 -7 -8 2 0 6 -12 13 -27 13 -17 1 -9 4 21 9 26 5 54 11 62 14
16 6 19 53 5 75 -7 10 -9 4 -8 -20 2 -28 -2 -35 -20 -37 -17 -3 -22 3 -26 25
l-4 28 -2 -28 -1 -27 -36 15 -37 15 7 -30 c3 -19 2 -29 -4 -25 -6 3 -10 33
-10 66 0 53 2 58 18 50 9 -4 31 -13 48 -18 27 -9 32 -8 30 6 -2 10 -14 17 -32
19 -16 1 -76 11 -134 22 -99 18 -381 39 -370 27 3 -3 41 -14 85 -26 56 -14 81
-17 86 -9 9 14 186 -5 225 -24 23 -11 45 -58 28 -58 -28 0 -275 56 -337 76
-43 14 -81 24 -84 21 -3 -4 6 -9 21 -13 30 -7 29 -6 15 -37 -11 -23 -12 -24
-62 -12 -74 18 -88 25 -85 44 2 11 18 18 48 22 25 3 35 7 23 7 -21 2 -21 3 -6
33 15 31 40 35 35 5 -3 -14 12 -16 133 -16 74 0 135 3 135 8 0 4 -26 7 -58 8
-111 1 -122 3 -122 20 0 9 7 14 18 13 15 -2 39 2 95 18 28 7 17 19 -45 51 -32
16 -53 23 -47 15 14 -16 -3 -17 -19 -1 -15 15 -16 58 -1 58 6 0 36 -7 66 -16
30 -9 66 -14 79 -11 13 2 24 0 24 -4 0 -13 38 -11 45 2 4 6 14 7 24 4 14 -6
49 -15 158 -40 15 -4 20 -10 16 -25 -5 -17 -14 -20 -68 -20 -91 0 -128 9 -120
29 16 39 16 45 1 24 -20 -27 -39 -29 -61 -7 -19 19 -28 14 -19 -10 10 -27 36
-35 141 -46 54 -6 106 -13 116 -16 11 -4 24 2 32 13 13 16 14 16 15 2 0 -22
14 -26 81 -21 52 3 57 6 72 37 l16 34 -43 20 c-23 12 -54 21 -69 21 -14 0 -31
8 -36 18 -10 16 -10 16 -11 0 0 -21 -30 -13 -30 8 0 11 -5 12 -18 5 -11 -6
-44 -4 -94 6 -74 15 -77 17 -72 39 3 13 3 24 0 24 -3 0 -6 -4 -6 -8z m-98 -62
c17 -8 9 -9 -36 -4 -33 3 -69 10 -80 15 -15 7 -4 8 36 4 31 -3 67 -10 80 -15z
m408 -99 l25 -16 -49 -3 c-66 -4 -129 29 -78 41 27 6 74 -4 102 -22z m178 -39
c3 -31 2 -32 -22 -20 -28 12 -33 27 -14 46 19 19 33 9 36 -26z m-649 -153 c22
-7 43 -22 53 -38 l15 -28 -78 20 c-72 18 -77 21 -66 38 14 22 26 23 76 8z
m175 -36 c4 -4 23 -8 43 -10 32 -2 64 -17 52 -26 -2 -2 -44 -1 -92 1 -86 4
-88 5 -71 23 17 19 54 25 68 12z m370 -239 l7 -21 -70 20 -70 21 -12 55 c-6
31 -14 61 -16 68 -4 9 5 13 25 13 17 0 32 -6 34 -12 3 -9 10 -7 23 6 18 18 19
16 45 -55 15 -41 30 -84 34 -95z m-623 66 c54 -24 80 -39 61 -36 -20 4 -31 2
-27 -4 3 -6 -3 -10 -14 -10 -11 0 -23 5 -26 10 -3 6 0 10 7 10 20 1 -34 39
-64 45 -15 4 -30 11 -33 16 -9 14 -5 12 96 -31z m184 4 c0 -12 -8 -20 -22 -22
-26 -4 -28 1 -12 29 13 24 34 20 34 -7z m111 -35 c10 -17 -13 -36 -27 -22 -12
12 -4 33 11 33 5 0 12 -5 16 -11z m61 -30 c0 -28 -3 -30 -26 -24 -36 9 -37 12
-16 35 26 29 42 25 42 -11z m49 10 c8 -14 -18 -31 -30 -19 -9 9 0 30 14 30 5
0 12 -5 16 -11z m261 -81 c12 -11 19 -26 16 -34 -3 -8 0 -14 6 -14 6 0 11 -7
11 -15 0 -8 7 -15 15 -15 8 0 15 -4 15 -10 0 -5 -5 -10 -11 -10 -7 0 -9 -9 -5
-22 3 -13 15 -97 26 -188 17 -143 19 -198 12 -415 -6 -216 -9 -247 -20 -227
-11 20 -12 49 -3 160 22 268 11 513 -27 626 -10 30 -18 64 -17 75 1 17 -3 19
-22 15 -15 -4 -23 -2 -23 6 0 7 7 10 15 6 16 -6 19 3 7 19 -12 16 -32 16 -38
0 -8 -19 -44 -2 -44 20 0 8 -4 15 -10 15 -5 0 -10 -4 -10 -10 0 -5 -4 -10 -10
-10 -5 0 -10 12 -10 26 0 19 4 25 15 20 8 -3 15 -2 15 2 0 15 75 -1 97 -20z
m-261 -180 c-3 -13 -8 -52 -11 -88 -4 -67 -44 -220 -70 -270 -8 -16 -26 -71
-38 -122 l-24 -93 -37 -1 c-20 -1 -43 4 -52 11 -15 10 -13 18 16 81 17 38 59
132 92 209 32 77 65 154 72 170 12 29 28 70 40 108 8 25 19 21 12 -5z m377
-47 c48 -108 92 -367 102 -593 8 -180 5 -186 -66 -152 -41 20 -48 36 -48 114
0 217 0 311 2 345 2 55 -13 293 -20 311 -12 33 15 11 30 -25z"/>
<path d="M2325 2754 c-25 -31 -31 -43 -17 -35 22 12 67 69 60 76 -2 3 -21 -16
-43 -41z"/>
<path d="M2286 2761 c-10 -11 -32 -22 -50 -24 -31 -4 -30 -4 5 -5 25 -2 42 4
54 18 10 11 16 22 13 25 -3 3 -13 -4 -22 -14z"/>
<path d="M535 2694 c2 -19 6 -39 10 -42 4 -4 6 2 4 13 -2 11 0 26 4 33 9 13 1
32 -13 32 -5 0 -7 -16 -5 -36z"/>
<path d="M2975 2692 c-11 -19 -36 -43 -55 -54 -19 -10 -27 -17 -17 -14 20 6
22 -5 5 -22 -7 -7 -9 -12 -5 -12 3 0 27 19 53 43 35 33 45 49 42 68 -3 23 -4
23 -23 -9z"/>
<path d="M2250 2693 c0 -10 45 -23 60 -18 33 10 22 21 -20 20 -22 0 -40 -1
-40 -2z"/>
<path d="M2470 2633 c0 -25 4 -31 15 -27 19 8 19 15 0 40 -14 18 -14 17 -15
-13z"/>
<path d="M1055 2584 c-3 -10 -17 -41 -31 -69 -14 -27 -17 -41 -8 -30 22 27 57
105 50 112 -3 3 -8 -3 -11 -13z"/>
<path d="M596 2521 c-14 -26 -14 -30 1 -35 19 -8 18 -8 27 26 9 38 -10 44 -28
9z"/>
<path d="M929 2528 c-7 -12 -13 -27 -14 -33 0 -5 -13 -33 -28 -62 -34 -67 -35
-88 -2 -88 14 0 25 6 25 13 0 7 -5 10 -10 7 -6 -3 -13 0 -16 8 -9 24 65 134
81 119 3 -4 3 2 -1 12 -6 17 -8 16 -20 -5 -12 -22 -13 -23 -14 -3 0 11 5 25
12 32 6 6 9 14 6 18 -4 3 -12 -5 -19 -18z"/>
<path d="M2170 2541 c0 -5 -3 -18 -6 -28 -5 -17 -5 -17 9 0 8 9 19 17 26 17
17 0 13 -36 -6 -55 -16 -16 -15 -17 3 -13 10 2 23 16 28 31 8 22 6 30 -10 42
-22 16 -44 19 -44 6z"/>
<path d="M535 2489 c52 -25 57 -32 11 -13 -11 4 -15 -7 -17 -45 -4 -58 -1 -74
12 -65 5 3 9 0 9 -5 0 -14 -6 -14 -31 -1 -11 7 -19 7 -19 1 0 -5 6 -11 13 -14
8 -3 6 -10 -8 -21 -16 -12 -17 -15 -4 -16 8 0 37 -11 62 -24 26 -13 47 -20 47
-15 0 4 -8 12 -17 18 -16 8 -16 15 -5 67 18 89 33 87 43 -4 l6 -57 2 56 c1 47
-3 59 -24 79 -13 12 -22 27 -19 31 5 9 -88 59 -108 58 -7 0 14 -14 47 -30z
m55 -61 c0 -4 -4 -19 -10 -33 -14 -36 -30 -22 -30 26 0 37 1 38 20 27 11 -7
20 -16 20 -20z"/>
<path d="M1017 2449 c-21 -39 -37 -78 -36 -88 0 -9 18 22 40 68 22 46 38 85
36 87 -2 2 -20 -28 -40 -67z"/>
<path d="M363 2485 c-60 -14 -119 -51 -151 -95 -27 -36 -28 -49 -3 -26 18 17
19 15 31 -51 l12 -68 65 32 c36 18 75 33 88 33 28 0 38 10 24 26 -6 8 -9 20
-6 27 3 8 1 20 -4 28 -6 10 -9 2 -9 -23 0 -23 -5 -38 -12 -39 -27 -1 -46 -7
-88 -28 -24 -11 -45 -20 -46 -18 -8 8 -6 119 2 127 14 14 44 1 53 -22 6 -17 9
-18 20 -5 10 13 7 18 -19 32 -31 16 -31 17 -13 30 30 21 110 38 145 31 19 -4
28 -3 23 3 -19 16 -60 19 -112 6z"/>
<path d="M437 2464 c-4 -4 -7 -16 -7 -26 0 -20 25 -25 36 -7 8 13 -19 43 -29
33z"/>
<path d="M941 2358 c-21 -46 -37 -85 -35 -87 2 -2 5 -2 7 0 10 14 75 169 71
169 -3 0 -22 -37 -43 -82z"/>
<path d="M1220 2400 c-8 -16 -8 -24 3 -35 12 -12 17 -12 36 1 11 8 21 24 21
35 0 27 -46 26 -60 -1z"/>
<path d="M2173 2356 c-9 -30 -8 -37 9 -53 19 -17 20 -17 13 20 -6 31 -4 37 10
37 9 0 19 -9 22 -20 3 -11 9 -17 14 -14 15 9 10 -23 -6 -36 -8 -7 -15 -18 -15
-24 0 -6 9 0 20 14 l20 25 0 -43 c0 -29 4 -41 11 -36 12 7 7 51 -13 107 -9 26
-19 37 -33 37 -12 0 -26 5 -31 10 -7 7 -14 -1 -21 -24z"/>
<path d="M336 2371 c-3 -5 -15 -7 -26 -4 -11 3 -20 0 -20 -6 0 -6 8 -8 18 -4
15 6 15 5 3 -10 -7 -9 -9 -17 -4 -17 13 0 53 30 53 41 0 12 -17 12 -24 0z"/>
<path d="M1066 2366 c3 -8 1 -17 -5 -21 -17 -10 -13 -25 4 -19 8 4 13 10 10
14 -3 5 0 10 7 12 6 2 8 10 4 16 -10 17 -27 15 -20 -2z"/>
<path d="M2669 2342 c-29 -13 -69 -50 -69 -64 0 -7 9 -31 21 -52 11 -22 19
-50 16 -63 -4 -19 -1 -22 14 -18 11 4 19 2 19 -4 0 -6 -4 -11 -10 -11 -5 0
-10 -9 -10 -20 0 -11 7 -20 15 -20 8 0 15 -5 15 -11 0 -5 -4 -7 -10 -4 -5 3
-10 -3 -10 -13 0 -23 -35 -35 -62 -21 -14 8 -18 6 -18 -9 0 -11 -9 -22 -20
-25 -20 -5 -28 -27 -10 -27 6 0 10 4 10 9 0 10 156 67 177 65 13 -2 7 13 -17
46 -9 12 -10 9 -6 -12 7 -32 -9 -38 -19 -8 -3 11 -7 65 -9 120 -1 55 -6 103
-10 107 -5 5 -5 -3 -2 -17 l7 -25 -15 25 c-13 23 -13 26 12 42 27 18 22 23 -9
10z m-19 -41 c0 -5 -4 -21 -10 -35 -7 -20 -6 -24 5 -19 10 3 15 -1 15 -14 0
-32 -12 -35 -27 -7 -14 28 -17 66 -6 77 9 10 23 8 23 -2z"/>
<path d="M218 2286 c-7 -34 6 -81 16 -56 3 8 2 31 -2 50 l-8 35 -6 -29z"/>
<path d="M971 2276 c-13 -14 -20 -29 -17 -34 3 -5 -13 -52 -35 -103 -23 -52
-54 -143 -69 -204 -33 -128 -68 -225 -80 -225 -6 0 -5 11 0 26 6 14 10 33 9
42 0 9 -11 -12 -24 -48 -16 -42 -21 -68 -14 -75 21 -21 50 35 99 195 61 199
125 385 145 423 17 33 15 34 -14 3z"/>
<path d="M620 2255 c0 -19 -4 -35 -10 -35 -5 0 -10 5 -10 10 0 21 -84 50 -142
50 -66 0 -154 -29 -197 -66 -16 -13 -33 -24 -39 -24 -5 0 -15 -7 -22 -15 -8
-9 -8 -15 -2 -15 6 0 12 6 15 13 2 6 11 -21 20 -62 9 -40 14 -77 11 -82 -3 -5
0 -9 5 -9 6 0 11 -9 11 -21 0 -19 1 -19 34 6 28 21 59 35 144 61 10 3 9 10 -3
33 -11 22 -20 28 -32 24 -14 -6 -15 -7 -1 -12 9 -4 13 -12 9 -22 -4 -10 -12
-14 -23 -10 -15 5 -15 9 -2 39 8 21 18 31 25 26 9 -5 10 2 5 26 -7 39 -11 44
-25 35 -8 -4 -8 -12 -2 -23 8 -13 2 -25 -22 -49 -17 -18 -26 -33 -19 -33 20 0
13 -28 -10 -44 -26 -19 -33 -11 -42 49 -3 22 -8 52 -12 67 -5 23 -1 30 26 47
18 10 61 26 96 35 57 14 68 15 99 2 19 -8 35 -20 35 -26 0 -6 -5 -8 -11 -4 -8
5 -10 -4 -7 -29 2 -24 -1 -38 -9 -41 -18 -7 -17 -26 1 -26 12 0 13 -6 4 -31
-12 -35 -12 -35 26 -45 27 -6 28 -6 16 16 -12 22 -8 145 5 158 20 20 32 -59
25 -158 -4 -47 -8 -77 -8 -68 -2 18 -56 38 -103 38 -43 0 -131 -31 -176 -62
-44 -30 -56 -45 -27 -34 15 6 16 -1 10 -51 l-6 -58 51 -22 51 -23 44 32 c43
31 51 47 26 56 -7 2 -12 -2 -13 -10 0 -7 -14 -24 -30 -37 l-31 -24 -36 21
c-29 16 -38 28 -40 53 -6 54 15 86 67 105 25 9 56 20 69 25 34 13 54 11 98
-11 39 -19 39 -19 7 -13 -21 3 -33 2 -33 -6 0 -6 -9 -20 -20 -31 -18 -18 -18
-20 -2 -20 9 0 35 -3 56 -7 28 -4 37 -3 32 5 -4 7 -22 13 -39 13 -18 1 -24 3
-14 6 14 4 15 8 7 18 -9 10 -4 13 25 12 33 -1 47 -15 50 -52 0 -5 8 -9 18 -7
9 2 17 -3 17 -11 0 -8 12 -19 26 -26 34 -15 25 -25 -10 -11 -62 23 -134 3
-226 -65 l-47 -34 -54 27 c-30 15 -57 32 -61 37 -8 10 -12 0 -9 -18 1 -5 -3
-5 -9 -2 -6 4 -9 13 -6 20 3 8 -4 13 -20 13 -13 0 -39 7 -59 16 -27 13 -35 23
-35 44 -1 25 -2 25 -14 10 -17 -23 -19 -23 -67 8 -23 14 -43 23 -46 20 -15
-15 15 -39 114 -90 59 -31 97 -54 83 -51 -21 5 -22 4 -7 -5 9 -6 22 -8 28 -4
6 3 17 -3 25 -15 17 -24 44 -28 44 -6 0 20 5 19 40 -7 28 -20 29 -22 11 -34
-16 -11 -36 -54 -26 -54 2 0 18 14 37 31 18 17 64 51 102 76 108 71 179 89
223 58 25 -18 39 -70 24 -89 -16 -19 -40 -92 -57 -170 -20 -94 -62 -188 -83
-184 -24 5 -24 35 2 144 12 54 20 110 17 124 l-6 25 -8 -23 c-15 -46 -85 -53
-87 -9 -1 20 -2 21 -6 2 -6 -26 -32 -55 -49 -55 -7 0 -16 15 -19 34 -7 34 -7
34 -26 15 -15 -15 -24 -17 -39 -9 -28 15 -25 0 6 -25 20 -16 25 -30 27 -72 1
-37 6 -53 16 -53 9 0 11 7 7 23 -3 12 -9 40 -12 62 l-7 40 21 -19 c13 -11 30
-16 42 -13 18 5 20 0 20 -48 0 -60 7 -85 23 -85 7 0 7 4 -1 12 -7 7 -12 38
-12 70 0 45 3 56 14 52 8 -3 29 2 46 11 l33 17 -8 -29 c-4 -15 -11 -53 -16
-82 -5 -33 -15 -59 -25 -64 -14 -8 -13 -12 7 -33 23 -25 63 -32 74 -14 5 8 12
7 23 -2 14 -12 15 -8 10 30 -7 46 6 56 24 17 7 -17 8 -28 1 -37 -6 -7 -14 -35
-18 -63 -4 -27 -15 -69 -26 -92 -10 -23 -16 -49 -13 -57 3 -9 2 -16 -4 -16 -6
0 -8 -9 -5 -20 3 -11 1 -26 -4 -33 -5 -6 -9 -25 -8 -42 1 -16 -1 -32 -4 -35
-3 -3 -3 -34 0 -70 5 -55 6 -58 7 -20 3 66 27 192 56 297 14 50 30 129 35 175
7 72 9 76 11 33 l2 -50 12 58 c8 44 18 64 41 83 17 14 23 22 15 18 -12 -6 -13
-4 -2 7 6 7 12 18 12 23 0 6 -14 -6 -31 -27 -17 -21 -34 -36 -37 -33 -3 3 -11
-2 -19 -12 -13 -15 -14 -14 -8 13 3 17 6 39 6 50 0 25 17 45 38 45 15 -1 15
-2 0 -13 -9 -7 -14 -18 -11 -26 3 -8 0 -11 -7 -7 -7 5 -9 1 -5 -9 6 -14 11
-12 35 11 16 15 29 31 29 36 0 4 -19 11 -42 15 -36 5 -39 8 -22 15 14 7 25 30
38 81 10 40 21 78 24 86 3 9 1 12 -6 7 -6 -3 -13 3 -17 14 -4 11 -11 18 -16
15 -5 -4 -9 2 -9 13 0 10 -11 24 -25 30 -14 6 -25 16 -25 20 0 5 -11 21 -24
35 -22 24 -24 33 -20 99 2 40 8 96 14 123 22 98 22 105 11 105 -6 0 -11 -16
-11 -35z m-338 -148 c10 -43 14 -77 8 -86 -7 -13 -10 -11 -19 9 -15 35 -32
140 -25 152 10 16 18 -1 36 -75z"/>
<path d="M823 2267 c-6 -6 -15 -28 -21 -47 -11 -32 -10 -33 3 -16 8 11 15 25
15 32 0 7 7 17 16 22 10 6 12 12 6 16 -5 3 -14 0 -19 -7z"/>
<path d="M2907 2253 c-3 -5 -8 -57 -12 -116 l-7 -108 -25 22 c-13 13 -21 29
-19 36 7 17 -30 18 -40 1 -5 -7 11 -28 41 -54 43 -38 49 -48 50 -86 1 -24 5
-68 9 -98 6 -53 4 -51 -28 43 -37 106 -46 121 -87 143 -25 13 -33 11 -91 -16
-35 -17 -71 -30 -80 -30 -10 0 -18 -2 -18 -5 0 -6 23 -48 30 -55 3 -3 22 -30
42 -60 21 -30 49 -70 64 -87 21 -26 23 -33 10 -33 -9 0 -16 4 -16 10 0 8 -82
50 -98 50 -3 0 2 -8 11 -18 10 -10 14 -22 10 -27 -5 -4 -3 -5 3 -2 7 4 18 0
25 -9 10 -13 10 -17 -2 -25 -11 -7 -10 -9 6 -9 12 0 26 5 33 12 9 9 18 9 39
-1 20 -9 23 -15 14 -20 -11 -7 -11 -10 0 -14 11 -5 10 -9 -4 -20 -11 -10 -15
-21 -10 -33 6 -17 5 -17 -10 -5 -20 16 -22 47 -4 54 6 3 -1 6 -16 6 -23 1 -26
-2 -19 -16 12 -22 9 -62 -5 -71 -5 -4 -13 -19 -17 -34 -4 -20 -11 -26 -24 -22
-14 5 -14 4 -2 -5 12 -8 12 -11 -3 -17 -9 -3 -17 -12 -17 -20 0 -7 -12 -26
-27 -41 -25 -24 -26 -28 -10 -31 25 -5 40 10 67 67 13 28 27 48 31 45 5 -3 6
1 3 9 -3 8 2 14 11 14 18 0 18 -2 5 -28 -6 -10 -8 -19 -6 -19 3 0 12 12 20 28
8 15 15 23 15 17 0 -5 -6 -21 -13 -35 -21 -37 -4 -60 42 -60 20 0 44 -5 52
-11 11 -7 1 -8 -35 -4 -40 5 -46 4 -31 -6 12 -7 40 -9 82 -4 75 8 87 -7 19
-24 -35 -9 -53 -8 -85 3 -39 13 -40 13 -34 -8 3 -14 -1 -28 -12 -37 -15 -12
-16 -12 -10 8 4 12 3 24 -3 27 -5 3 -7 15 -4 26 4 15 0 20 -16 20 -11 0 -21 5
-21 11 0 6 9 8 20 4 25 -8 27 17 3 36 -11 10 -14 10 -9 2 4 -7 3 -13 -2 -13
-13 0 -32 -47 -26 -64 3 -8 12 -17 20 -20 19 -7 18 -26 -1 -26 -8 0 -15 7 -15
15 0 11 -11 15 -39 15 -37 0 -39 -2 -45 -37 -10 -62 -5 -81 9 -33 7 25 13 39
14 31 1 -11 4 -11 17 0 13 10 17 10 24 -1 8 -13 -4 -50 -16 -50 -3 0 -2 5 2
12 4 7 3 8 -4 4 -6 -4 -9 -13 -6 -20 3 -8 0 -17 -7 -22 -8 -5 -10 -3 -4 7 5 8
4 11 0 6 -5 -4 -10 -17 -12 -29 -5 -33 -24 -52 -35 -36 -6 8 -7 5 -3 -11 5
-16 4 -21 -4 -17 -7 5 -9 1 -5 -9 4 -9 -2 -28 -13 -43 -35 -48 -35 -58 -1 -21
18 20 55 72 82 115 37 59 55 79 72 80 13 1 35 11 51 21 17 12 47 21 76 22 98
3 133 70 44 84 -51 9 -117 24 -122 28 -5 6 49 127 62 140 8 8 13 -1 18 -29 6
-36 8 -39 33 -34 47 8 51 17 46 104 -4 63 -1 84 10 97 12 13 15 37 12 111 -2
52 -7 119 -11 148 -7 48 -6 52 13 52 16 0 22 -8 25 -32 4 -32 4 -32 5 5 2 34
0 37 -24 37 l-26 0 7 75 c6 68 4 88 -8 68z m-115 -260 c26 -25 40 -62 18 -48
-6 4 -7 -1 -3 -11 5 -13 2 -15 -15 -9 -13 3 -22 2 -22 -4 0 -23 24 -21 51 5
16 15 29 24 29 18 0 -17 -39 -69 -77 -101 -21 -18 -33 -33 -26 -33 6 0 25 11
41 25 38 32 70 33 76 3 11 -54 13 -124 5 -141 -7 -12 -5 -26 8 -47 13 -22 14
-33 6 -41 -11 -11 -15 -5 -73 101 -8 16 -31 46 -50 67 -23 25 -34 46 -32 61 2
14 8 20 15 15 7 -4 5 4 -4 17 -18 30 -23 118 -8 137 17 19 30 16 61 -14z
m-102 -31 c-4 -16 -4 -36 2 -46 21 -37 0 -36 -26 2 -16 24 -25 46 -20 53 5 9
11 7 21 -6 12 -18 13 -18 13 3 0 12 4 22 9 22 6 0 6 -12 1 -28z m81 -360 c-8
-14 -61 -27 -61 -15 0 22 23 40 45 36 19 -4 23 -9 16 -21z"/>
<path d="M2730 1911 c0 -5 5 -13 11 -16 6 -4 14 -16 18 -27 6 -16 9 -17 18 -6
8 10 3 19 -18 36 -16 13 -29 19 -29 13z"/>
<path d="M2800 1795 c0 -8 8 -28 17 -42 10 -15 18 -32 18 -40 0 -7 5 -12 10
-10 12 2 11 9 -8 62 -15 41 -37 59 -37 30z"/>
<path d="M2691 2249 c-1 -3 6 -30 15 -60 19 -66 58 -134 81 -143 16 -6 16 -6
0 12 -15 16 -77 143 -77 157 0 4 5 3 10 0 6 -3 10 -1 10 4 0 6 -6 11 -14 11
-8 0 -17 6 -19 13 -3 6 -6 9 -6 6z"/>
<path d="M2538 2176 c25 -32 29 -61 8 -53 -10 4 -12 0 -9 -13 5 -18 7 -18 29
-3 l24 15 -20 27 c-10 15 -27 34 -37 42 -12 9 -10 5 5 -15z"/>
<path d="M780 2170 c-1 -8 -2 -19 -1 -24 1 -5 -3 -22 -8 -39 -9 -25 -9 -28 4
-17 8 7 15 19 15 26 0 18 14 18 28 1 7 -8 7 -18 2 -27 -6 -8 -10 -19 -9 -25 0
-5 7 3 15 18 14 26 14 30 -3 43 -10 7 -21 14 -25 14 -4 0 -9 10 -11 23 -2 12
-5 15 -7 7z"/>
<path d="M1760 2092 c0 -6 5 -12 12 -14 8 -3 9 -12 0 -36 -13 -37 -11 -38 23
-16 20 13 28 14 39 5 12 -10 17 -8 26 8 10 19 8 21 -18 21 -16 0 -41 9 -56 21
-14 11 -26 16 -26 11z"/>
<path d="M1957 1933 c-4 -80 -23 -230 -51 -398 -25 -148 -42 -272 -38 -276 8
-7 144 -59 155 -59 17 0 -8 579 -33 768 -6 40 -10 78 -10 83 0 5 -4 9 -8 9 -5
0 -12 -57 -15 -127z m41 -405 c6 -95 9 -184 7 -198 -2 -14 -7 -42 -10 -62 l-6
-37 -30 18 c-53 32 -60 50 -45 114 7 32 11 57 8 57 -3 0 -1 5 6 12 7 7 12 25
12 40 0 43 32 228 40 228 3 0 11 -78 18 -172z"/>
<path d="M736 2042 c-3 -5 6 -17 20 -27 24 -16 26 -16 40 2 7 10 13 23 13 28
0 6 -4 2 -10 -7 -13 -22 -35 -23 -47 -2 -6 10 -12 12 -16 6z"/>
<path d="M429 1975 c-1 -5 -2 -17 -3 -25 -1 -10 -10 -14 -30 -12 -26 3 -28 1
-17 -12 9 -11 23 -14 44 -10 41 7 41 7 23 41 -8 15 -16 24 -17 18z"/>
<path d="M360 1885 c0 -8 9 -15 20 -15 11 0 20 7 20 15 0 8 -9 15 -20 15 -11
0 -20 -7 -20 -15z"/>
<path d="M414 1881 c1 -12 -8 -16 -36 -16 -20 0 -33 -4 -29 -8 15 -15 63 -3
77 19 12 17 12 21 1 21 -8 0 -14 -7 -13 -16z"/>
<path d="M0 1814 c0 -31 2 -35 15 -24 13 10 19 10 33 -2 9 -9 24 -13 32 -10
13 4 13 3 1 -11 -15 -19 -1 -23 17 -5 9 9 12 6 12 -14 0 -14 7 -29 16 -32 21
-8 24 -8 24 4 0 6 -5 9 -11 8 -6 -2 -14 3 -16 10 -8 22 20 8 55 -28 25 -26 35
-31 41 -21 7 11 10 11 14 0 5 -12 7 -12 15 0 12 17 23 -1 11 -19 -11 -18 -11
-78 1 -105 8 -18 9 -18 9 6 1 14 8 34 16 45 8 10 14 30 14 44 0 28 -26 49
-124 101 -33 17 -62 34 -65 38 -8 10 -88 51 -99 51 -6 0 -11 -16 -11 -36z"/>
<path d="M2576 1825 c-10 -28 -6 -89 8 -107 7 -10 25 -22 39 -27 22 -9 27 -8
27 4 0 8 0 18 1 22 0 4 -4 9 -10 11 -6 2 -11 -3 -11 -12 0 -25 -14 -19 -33 13
-20 34 -22 62 -5 79 9 9 9 15 1 23 -7 7 -12 6 -17 -6z"/>
<path d="M0 1750 c0 -5 8 -10 18 -10 10 0 22 -4 28 -8 18 -17 166 -94 160 -83
-6 10 -188 111 -200 111 -3 0 -6 -4 -6 -10z"/>
<path d="M813 1648 c1 -24 5 -42 10 -40 4 1 39 2 79 2 95 0 75 16 -24 19 -23
1 -61 38 -53 51 4 6 2 10 -4 10 -5 0 -9 -19 -8 -42z"/>
<path d="M780 1644 c-8 -8 -14 -29 -14 -47 -1 -30 -29 -95 -46 -107 -9 -7 -21
-54 -27 -114 l-5 -48 41 41 c22 22 53 43 68 47 56 12 59 16 23 28 -30 11 -37
10 -54 -6 -11 -10 -23 -18 -27 -18 -4 0 -11 -9 -14 -21 -4 -11 -9 -18 -12 -15
-3 2 3 30 12 62 12 42 19 54 28 45 19 -19 24 -13 21 24 -1 19 1 35 6 35 13 0
21 -30 14 -54 -4 -16 0 -25 12 -30 23 -9 29 0 14 21 -7 10 0 5 14 -11 15 -15
30 -25 33 -22 4 3 18 -4 31 -16 22 -20 23 -21 13 -3 -6 11 -22 34 -37 50 -20
24 -23 25 -14 7 6 -13 9 -26 7 -28 -7 -7 -44 48 -66 97 -17 38 -18 45 -5 63
24 35 10 53 -16 20z"/>
<path d="M293 1591 c3 -14 3 -30 -2 -35 -4 -6 5 -24 21 -41 l29 -30 -22 60
c-23 64 -36 86 -26 46z"/>
<path d="M830 1581 c0 -35 131 -103 154 -80 6 6 4 9 -7 9 -22 0 -22 13 1 34
18 15 20 15 37 -4 10 -11 22 -17 28 -13 5 3 7 1 3 -5 -3 -6 -2 -13 4 -17 5 -3
10 -16 10 -28 0 -18 4 -15 18 13 12 24 18 30 20 18 2 -9 -1 -26 -7 -36 -10
-19 -6 -32 11 -32 4 0 8 8 8 18 0 9 5 24 11 32 8 11 9 6 5 -21 -5 -28 -3 -38
10 -43 9 -3 21 -3 27 1 6 4 2 10 -12 14 -18 7 -20 11 -10 28 9 14 15 16 25 7
6 -6 10 -15 7 -19 -3 -5 4 -4 15 2 15 8 23 7 31 -3 7 -8 28 -17 49 -21 55 -10
58 -16 21 -36 -19 -10 -28 -18 -21 -19 7 0 23 7 37 16 21 14 29 14 72 1 27 -8
66 -24 87 -35 22 -12 43 -19 48 -16 18 11 29 -8 11 -22 -10 -7 -13 -14 -7 -14
5 0 15 5 20 10 11 11 44 4 44 -9 0 -4 13 -6 29 -3 22 3 32 -1 40 -16 6 -11 7
-23 3 -27 -4 -4 5 -1 20 5 23 11 30 10 51 -7 17 -13 23 -24 17 -33 -7 -12 -13
-12 -34 0 -14 7 -29 10 -32 7 -7 -6 38 -27 57 -27 5 0 12 7 15 15 4 8 15 15
25 15 20 0 26 -15 9 -25 -5 -3 -10 -11 -10 -17 0 -7 9 -2 21 11 19 20 23 21
43 8 12 -8 37 -18 56 -21 19 -4 54 -16 77 -27 24 -10 49 -19 57 -19 7 0 19 -7
26 -15 7 -8 21 -15 31 -15 10 0 22 -6 26 -14 8 -15 168 -66 205 -66 10 0 16
-4 13 -10 -9 -14 -89 -12 -103 2 -9 9 -15 9 -23 1 -9 -9 -2 -16 27 -28 54 -23
120 -32 109 -15 -6 10 9 12 76 6 l84 -6 -60 24 c-143 58 -328 131 -425 166
-58 21 -170 64 -250 95 -80 31 -217 84 -305 116 -232 87 -383 150 -422 176
-29 20 -47 23 -118 23 -47 0 -85 -4 -85 -9z m160 -9 c0 -5 -10 -18 -23 -30
l-23 -22 -44 23 -45 22 30 6 c45 10 105 10 105 1z"/>
<path d="M855 1420 c-3 -4 -17 -11 -32 -15 -30 -7 -87 -45 -80 -52 3 -2 22 4
44 14 50 25 106 28 146 10 79 -38 130 -57 138 -51 16 10 31 -6 19 -21 -9 -11
-1 -13 39 -11 28 2 51 0 51 -4 0 -4 15 -13 33 -20 17 -6 50 -19 72 -28 41 -18
45 -19 71 -21 8 0 12 -5 9 -11 -4 -6 5 -10 19 -10 14 0 26 -4 26 -9 0 -5 14
-13 32 -16 17 -4 38 -14 46 -22 8 -8 24 -12 34 -10 20 6 52 -5 153 -52 139
-64 157 -71 167 -65 6 4 8 3 5 -3 -7 -10 90 -56 109 -52 5 1 36 -10 69 -25 33
-16 71 -30 85 -32 47 -9 65 -16 193 -81 71 -35 142 -66 159 -68 17 -2 34 -8
37 -12 3 -4 15 -8 26 -8 11 0 19 -6 17 -13 -2 -10 4 -11 19 -7 12 4 19 3 16
-2 -3 -5 38 -26 91 -47 53 -20 142 -57 198 -82 106 -46 134 -53 134 -30 0 8
-46 32 -117 61 -65 26 -251 102 -413 170 -162 67 -443 182 -625 253 -979 388
-980 388 -990 372z"/>
<path d="M1371 1351 c-10 -6 -8 -9 6 -13 10 -3 49 -18 88 -32 38 -15 65 -23
60 -18 -6 5 -32 17 -60 27 -27 10 -57 24 -65 31 -9 8 -21 10 -29 5z"/>
<path d="M2547 1304 c-22 -78 -21 -91 3 -34 10 25 19 36 19 26 1 -11 3 -17 6
-14 3 3 2 23 -3 44 l-8 39 -17 -61z"/>
<path d="M709 1324 c-15 -18 -54 -165 -64 -239 -8 -53 0 -61 9 -10 3 17 15 69
27 118 41 158 46 91 9 -116 -24 -135 -20 -163 35 -275 19 -40 35 -75 35 -78 0
-3 11 -29 25 -56 14 -28 24 -53 21 -55 -3 -3 -28 -5 -57 -5 -29 1 -61 -4 -71
-9 -13 -7 -29 -7 -50 0 -34 12 -117 -9 -139 -35 -15 -18 -39 -18 -65 1 -12 8
-41 21 -65 29 -42 15 -44 14 -76 -10 -18 -14 -31 -29 -28 -34 3 -5 -16 -25
-43 -44 -52 -38 -68 -62 -76 -116 -6 -33 -5 -34 5 -7 6 15 15 27 20 27 19 0
128 -116 135 -144 4 -19 9 -24 15 -15 5 9 11 6 19 -13 9 -18 18 -24 31 -21 10
3 19 10 19 17 1 6 11 -7 23 -29 18 -35 22 -37 25 -18 2 12 -4 33 -13 47 -13
20 -23 24 -42 20 -28 -7 -77 31 -69 53 6 16 -53 74 -107 105 -20 12 -36 27
-34 32 2 6 21 19 43 29 22 10 47 31 56 47 9 15 28 36 41 45 25 16 28 15 90
-14 36 -17 69 -31 75 -31 15 0 134 -68 157 -90 11 -11 22 -31 23 -46 2 -27 2
-27 -20 -8 -16 14 -15 9 7 -21 16 -22 30 -42 32 -44 2 -2 6 -2 9 2 4 3 -1 24
-10 47 -9 22 -13 40 -10 40 5 0 81 -57 155 -117 49 -40 159 -156 159 -167 0
-4 17 -28 38 -52 20 -25 36 -50 35 -55 -2 -5 81 -9 198 -9 178 0 200 2 189 15
-7 8 -18 15 -24 15 -6 0 -4 -5 4 -10 11 -7 -4 -10 -49 -10 -47 0 -70 5 -83 17
-18 16 -18 16 -12 0 4 -11 1 -17 -9 -17 -8 0 -17 9 -20 20 -3 13 -11 18 -20
14 -10 -3 -20 3 -28 18 -6 13 -19 31 -28 41 -8 11 -16 24 -17 30 0 7 -2 18 -2
25 -1 6 -9 12 -18 12 -11 0 -15 6 -11 20 3 11 1 22 -3 25 -5 3 -14 21 -20 40
-10 31 -9 39 10 65 12 17 20 38 18 47 -2 11 -14 -2 -36 -36 -28 -46 -36 -52
-57 -47 -19 5 -23 3 -19 -9 7 -18 -12 -20 -23 -2 -8 12 -47 37 -59 37 -4 0 0
-7 7 -17 13 -15 12 -15 -8 -4 -13 6 -23 21 -23 31 0 13 -7 20 -20 20 -11 0
-20 6 -20 13 0 6 -12 20 -26 31 -26 18 -26 18 -22 -5 2 -16 9 -23 19 -21 11 1
18 -8 23 -29 4 -22 10 -30 21 -25 8 3 15 1 15 -5 0 -15 -42 -6 -70 15 -14 10
-17 16 -8 13 15 -5 16 -4 5 13 -13 22 -23 25 -29 11 -1 -6 -25 6 -51 25 -28
20 -45 39 -41 46 4 6 3 8 -4 5 -13 -9 -115 57 -104 67 4 4 2 6 -3 5 -6 -2 -30
8 -54 23 -41 25 -42 26 -20 34 29 9 69 15 89 14 8 0 35 0 60 2 25 1 100 2 168
2 l123 1 52 -55 c142 -153 257 -305 257 -343 0 -10 6 -20 14 -23 8 -3 23 -26
34 -52 24 -54 82 -100 82 -64 0 11 9 30 21 43 18 22 20 22 15 4 -3 -11 2 -31
10 -45 l15 -25 -5 26 c-3 14 -3 29 0 32 8 8 76 -20 86 -36 6 -9 8 -9 8 1 0 7
-15 21 -32 32 -39 23 -30 27 12 5 17 -9 30 -11 30 -6 0 12 -57 32 -74 25 -8
-3 -17 -1 -21 5 -3 6 -21 11 -40 11 -28 0 -32 -3 -28 -19 3 -13 0 -19 -10 -17
-25 3 -45 26 -52 57 -8 37 -1 46 22 28 16 -13 17 -12 4 4 -11 13 -22 16 -44
11 -29 -6 -30 -5 -24 25 6 27 4 31 -11 29 -11 -2 -17 4 -17 17 0 22 46 36 80
24 14 -5 25 0 36 15 16 21 16 21 -40 22 -91 3 -176 41 -115 52 38 7 40 23 1
20 -23 -1 -43 4 -53 14 -15 14 -12 17 25 34 23 10 41 21 41 25 0 4 6 14 13 21
7 7 23 59 37 116 15 66 28 102 37 102 7 0 13 7 13 15 0 8 -4 15 -10 15 -5 0
-10 11 -10 25 0 28 9 31 29 13 12 -11 13 -9 7 7 -5 11 -9 25 -10 30 -1 6 -5
15 -9 21 -4 7 -1 14 7 17 9 3 17 29 21 66 4 34 11 61 16 61 8 0 10 -16 13 -85
1 -11 5 -26 9 -32 5 -7 5 -13 0 -13 -4 0 0 -5 10 -11 24 -14 10 -32 -19 -25
-23 6 -23 5 12 -49 19 -31 38 -73 41 -92 6 -33 7 -34 14 -15 10 25 -2 61 -32
104 -22 30 -20 44 3 35 21 -7 80 -127 75 -149 -4 -15 -3 -17 8 -8 10 8 14 3
19 -22 16 -79 19 -88 29 -88 6 0 7 -3 4 -7 -4 -3 -1 -16 7 -28 8 -12 17 -40
21 -61 18 -119 30 -159 49 -162 20 -4 86 54 86 76 0 10 12 7 45 -12 33 -20 61
-27 111 -30 65 -3 68 -4 85 -37 10 -19 21 -55 25 -81 4 -27 10 -48 14 -48 5 0
6 10 4 23 -5 21 -4 21 8 3 7 -10 21 -28 31 -40 24 -28 -11 45 -59 125 -19 31
-34 69 -34 84 l0 28 -21 -27 c-11 -14 -26 -26 -32 -26 -7 0 -4 5 5 11 10 5 18
15 18 20 0 6 -10 3 -22 -5 -12 -9 -33 -16 -45 -16 -31 0 -103 30 -103 42 0 18
97 142 147 189 58 55 93 96 113 134 8 16 21 30 29 33 12 4 13 -7 7 -64 -6 -55
-12 -75 -33 -97 -15 -15 -22 -27 -17 -27 6 0 24 15 42 33 32 33 32 34 32 135
0 84 3 102 15 102 19 0 19 16 0 24 -11 4 -35 -24 -84 -97 -38 -56 -100 -134
-137 -173 -73 -74 -179 -200 -204 -240 -8 -13 -17 -24 -21 -24 -3 0 -9 32 -13
71 -9 101 -82 305 -156 437 -60 107 -60 109 -54 168 3 32 9 71 14 86 10 30 0
43 -40 53 -24 6 -26 3 -48 -97 -19 -84 -102 -478 -102 -485 0 -1 -25 -22 -56
-47 l-56 -46 -23 34 c-35 52 -107 126 -137 142 -15 8 -49 14 -77 14 -63 0 -72
11 -139 168 -72 166 -73 174 -46 327 13 72 23 147 23 167 1 20 4 44 7 53 6 14
9 14 28 -4 11 -10 48 -29 82 -40 34 -11 75 -28 93 -38 31 -17 32 -20 26 -68
l-5 -50 17 50 c10 28 23 49 28 49 6 -1 21 -5 35 -9 17 -5 22 -4 15 3 -10 11
-308 132 -324 132 -5 0 -14 -7 -22 -16z m700 -328 c-1 -43 -4 -37 -23 38 -6
26 -5 28 8 17 10 -9 16 -29 15 -55z m-435 -778 c-4 -6 -3 -8 4 -4 23 14 178
-110 208 -166 9 -18 20 -25 29 -22 8 4 15 1 15 -5 0 -7 -28 -11 -79 -11 -79 0
-80 0 -102 33 -12 17 -36 47 -52 64 -17 18 -28 36 -24 39 9 10 -12 46 -24 39
-14 -9 -69 50 -69 74 0 21 1 21 50 -4 31 -16 48 -30 44 -37z m84 14 c2 -12 -1
-22 -7 -22 -6 0 -11 4 -11 9 0 5 -3 17 -7 27 -4 12 -2 15 8 12 8 -2 15 -14 17
-26z"/>
<path d="M299 1256 c-15 -17 -43 -58 -63 -91 -42 -67 -25 -50 48 50 51 70 59
94 15 41z"/>
<path d="M1100 1217 c0 -3 24 -13 53 -23 80 -26 85 -27 47 -6 -35 20 -100 38
-100 29z"/>
<path d="M35 1181 c-11 -5 -23 -7 -27 -4 -5 2 -8 -1 -8 -6 0 -14 4 -14 65 3
40 11 44 14 20 14 -16 1 -39 -3 -50 -7z"/>
<path d="M1190 1146 c0 -9 8 -16 20 -16 11 0 20 -4 20 -8 0 -11 78 -37 86 -29
11 11 -6 25 -49 40 -23 8 -50 18 -59 22 -13 5 -18 2 -18 -9z"/>
<path d="M50 1109 l-24 -34 23 20 c13 11 33 18 47 17 13 -2 31 2 41 8 15 9 11
10 -19 5 -24 -4 -38 -1 -40 6 -2 7 -15 -3 -28 -22z"/>
<path d="M959 1079 c0 -2 -6 -30 -13 -62 -7 -31 -9 -54 -6 -50 11 12 32 105
25 111 -3 3 -5 3 -6 1z"/>
<path d="M1476 1073 c-3 -4 35 -24 85 -45 51 -21 94 -36 97 -33 5 5 -83 46
-128 60 -14 4 -30 11 -36 16 -6 5 -14 6 -18 2z"/>
<path d="M1650 933 c-7 -21 -31 -84 -53 -141 l-41 -103 24 -72 c13 -40 25 -67
27 -62 2 6 -6 37 -17 70 -11 32 -16 61 -12 64 5 3 12 21 15 39 4 19 17 55 29
80 11 26 22 49 23 52 1 3 7 16 13 30 9 22 11 23 13 5 1 -11 1 -27 0 -35 -3
-30 16 13 23 54 5 28 4 41 -6 47 -21 14 -26 11 -38 -28z"/>
<path d="M624 840 c0 -69 1 -97 3 -62 2 34 2 90 0 125 -2 34 -3 6 -3 -63z"/>
<path d="M1725 853 c-9 -105 1 -307 19 -365 11 -37 12 -16 8 153 -3 108 -2
209 2 224 7 26 9 27 53 21 26 -3 55 -14 65 -23 10 -9 18 -13 18 -9 0 4 10 1
23 -6 12 -7 26 -11 31 -10 5 2 12 -1 15 -5 15 -20 74 -44 84 -34 6 6 9 13 6
15 -6 6 -301 126 -309 126 -5 0 -11 -39 -15 -87z"/>
<path d="M2111 708 c0 -46 4 -101 8 -123 l9 -40 1 43 c1 25 6 42 13 42 9 0 9
3 0 12 -17 17 -16 98 1 98 34 0 71 -89 38 -91 -9 0 -4 -5 11 -11 18 -6 34 -24
47 -53 26 -60 46 -67 22 -8 -76 191 -73 185 -107 199 -18 8 -36 14 -39 14 -3
0 -5 -37 -4 -82z"/>
<path d="M2243 724 c3 -10 13 -53 23 -94 10 -41 20 -67 22 -56 2 10 -1 38 -7
61 -6 24 -11 48 -11 53 0 10 37 5 55 -8 17 -12 248 -103 264 -104 9 -1 38 -12
65 -24 27 -12 54 -22 60 -22 7 0 30 -9 51 -20 22 -11 58 -25 80 -31 22 -6 48
-18 58 -26 11 -11 17 -12 17 -4 0 8 5 9 19 1 24 -13 61 -13 61 -1 0 5 -26 17
-57 26 -76 21 -362 129 -692 263 -9 3 -12 -1 -8 -14z"/>
<path d="M1370 656 c0 -12 41 -94 55 -111 17 -20 17 -20 9 0 -4 11 -13 39 -21
62 -8 23 -21 44 -29 47 -8 3 -14 4 -14 2z"/>
<path d="M1317 633 c-13 -12 -7 -30 17 -56 29 -32 63 -28 43 4 -6 10 -17 19
-24 19 -7 0 -13 9 -13 20 0 20 -11 26 -23 13z"/>
<path d="M2431 543 c0 -7 -10 -13 -21 -13 -11 0 -34 -14 -52 -31 -18 -18 -25
-26 -15 -19 43 31 185 29 212 -3 33 -37 105 -100 105 -90 0 6 -25 36 -56 66
-54 53 -127 88 -152 73 -6 -3 -13 2 -15 11 -3 10 -5 12 -6 6z"/>
<path d="M623 509 c-13 -5 -23 -14 -23 -20 0 -8 3 -9 13 0 11 8 20 6 37 -9 28
-25 38 -26 18 -2 -9 9 -17 22 -19 28 -3 8 -12 9 -26 3z"/>
<path d="M2015 490 c-10 -11 -15 -23 -11 -27 4 -4 -4 -13 -16 -20 -14 -8 -17
-12 -8 -12 22 -1 34 11 47 47 13 38 12 39 -12 12z"/>
<path d="M1334 485 c-18 -14 -17 -14 12 -15 17 0 47 -2 65 -5 27 -5 30 -4 13
4 -12 5 -25 14 -29 20 -9 15 -38 14 -61 -4z"/>
<path d="M2350 462 c0 -4 4 -23 10 -42 11 -37 -3 -67 -19 -41 -5 8 -11 9 -15
3 -3 -5 1 -15 9 -22 12 -10 18 -10 30 0 11 9 15 9 15 1 0 -7 5 -9 10 -6 6 3
10 -3 10 -13 0 -11 9 -22 19 -25 17 -4 15 1 -10 36 -16 22 -32 58 -35 79 -4
21 -10 38 -15 38 -5 0 -9 -3 -9 -8z"/>
<path d="M2430 465 c0 -2 21 -13 48 -25 26 -12 63 -37 83 -56 38 -37 36 -38
30 19 -1 4 -9 7 -20 7 -10 0 -29 8 -42 18 -22 17 -99 45 -99 37z"/>
<path d="M739 439 c-11 -7 -11 -9 4 -9 9 0 17 -4 17 -9 0 -5 5 -22 11 -38 10
-26 12 -26 19 -8 8 22 -6 61 -25 69 -6 2 -18 0 -26 -5z"/>
<path d="M1303 436 c4 -10 7 -19 7 -21 0 -2 15 -7 33 -10 54 -10 43 -35 -12
-28 -33 3 -51 0 -66 -11 -14 -12 -16 -16 -5 -15 8 1 27 -1 41 -5 40 -11 104
10 117 38 9 20 8 24 -2 20 -6 -2 -23 4 -36 16 -13 11 -29 20 -36 20 -7 0 -20
3 -30 7 -14 5 -16 3 -11 -11z"/>
<path d="M1445 422 c19 -13 44 -59 64 -118 11 -33 20 -51 21 -41 0 10 -9 45
-21 79 -19 58 -41 87 -64 88 -6 0 -6 -3 0 -8z"/>
<path d="M1956 394 c-24 -23 -19 -35 9 -22 14 6 25 17 25 25 0 18 -15 17 -34
-3z"/>
<path d="M2510 385 c0 -6 6 -17 13 -24 10 -10 5 -11 -23 -6 l-35 6 30 -19 c17
-10 36 -26 44 -35 7 -10 23 -17 35 -17 19 1 19 2 4 11 -10 5 -18 15 -18 22 0
15 -49 76 -50 62z"/>
<path d="M522 363 c8 -7 22 -11 31 -7 24 9 12 22 -19 22 -22 0 -24 -2 -12 -15z"/>
<path d="M936 345 c9 -14 23 -25 31 -25 11 0 10 5 -4 25 -25 34 -49 34 -27 0z"/>
<path d="M1769 281 c24 -23 48 -41 53 -41 16 0 2 14 -49 48 l-48 34 44 -41z"/>
<path d="M418 276 c12 -17 37 -38 55 -49 l32 -19 -25 27 c-14 15 -38 37 -55
48 l-30 22 23 -29z"/>
<path d="M1163 279 c-7 -7 -13 -22 -13 -33 0 -17 -2 -18 -10 -6 -5 8 -12 11
-15 8 -8 -8 3 -28 15 -28 5 0 16 7 24 15 14 14 17 11 27 -32 7 -26 14 -43 16
-37 2 5 -5 36 -14 68 -14 46 -20 55 -30 45z"/>
<path d="M1989 272 c33 -75 91 -184 91 -173 0 22 -74 180 -87 185 -8 3 -10 -1
-4 -12z"/>
<path d="M745 185 c50 -47 95 -83 102 -81 7 3 10 0 7 -7 -2 -7 16 -25 41 -40
25 -16 48 -33 51 -38 3 -6 -31 -9 -90 -8 -78 1 -96 4 -99 18 -4 14 -5 14 -6
-1 -1 -15 -17 -18 -138 -21 -76 -1 -12 -3 142 -3 154 0 263 1 242 3 -21 2 -40
10 -43 18 -3 7 -23 26 -45 41 -21 14 -39 33 -39 40 0 7 -13 21 -30 31 -31 18
-37 29 -19 35 5 2 -4 14 -21 27 l-32 23 7 -23 c6 -24 6 -24 -12 -4 -23 26 -89
75 -100 75 -4 0 33 -39 82 -85z"/>
<path d="M1850 261 c0 -6 3 -10 8 -9 14 4 91 -47 101 -67 9 -19 10 -19 10 2 1
16 -11 30 -36 47 -46 29 -83 41 -83 27z"/>
<path d="M441 188 c1 -18 17 -56 18 -41 1 7 13 1 28 -13 15 -14 42 -32 60 -40
18 -9 31 -19 30 -22 -1 -4 6 -18 16 -32 14 -21 17 -22 17 -6 0 16 2 17 17 5 9
-8 4 5 -11 28 -25 37 -88 81 -108 75 -5 -1 -8 2 -8 7 0 5 -13 19 -30 31 -20
14 -30 17 -29 8z"/>
<path d="M1541 160 c-2 -25 -5 -39 -8 -32 -5 14 -23 16 -23 3 0 -5 10 -13 23
-16 12 -4 36 -17 52 -29 51 -38 55 -38 38 -7 -10 16 -21 27 -25 25 -5 -3 -8 0
-8 6 0 6 -4 9 -9 6 -14 -9 -29 16 -34 54 -3 32 -4 32 -6 -10z"/>
<path d="M1935 155 c13 -20 26 -41 28 -48 2 -7 7 -9 11 -6 8 7 -44 88 -56 89
-4 0 3 -16 17 -35z"/>
<path d="M1891 170 c-2 -18 29 -95 37 -93 5 1 8 -6 5 -16 -3 -13 3 -23 17 -31
12 -6 23 -10 25 -8 2 2 -8 27 -23 55 -27 51 -61 102 -61 93z"/>
<path d="M2940 101 c0 -3 -79 -5 -176 -3 -97 1 -191 -2 -209 -7 -21 -5 -37 -5
-43 1 -17 17 -52 -13 -52 -44 0 -41 42 -39 67 2 17 29 43 41 43 19 0 -5 -4 -7
-10 -4 -5 3 -10 2 -10 -4 0 -5 6 -12 13 -15 6 -4 2 -4 -10 -2 -16 3 -23 -1
-23 -11 0 -25 71 -13 81 15 6 16 5 22 -6 22 -7 0 -16 -10 -18 -22 -4 -20 -4
-19 -6 5 -1 27 0 27 59 27 57 0 60 -1 60 -25 0 -14 -4 -25 -10 -25 -5 0 -10 9
-10 20 0 11 -4 20 -10 20 -8 0 -15 -38 -7 -41 26 -8 172 -7 182 1 10 8 14 7
18 -2 4 -8 6 -7 6 5 1 9 -5 17 -11 17 -9 0 -8 4 2 10 13 8 12 10 -2 10 -12 0
-18 -8 -19 -22 0 -13 -3 -17 -6 -10 -2 6 -9 12 -14 12 -6 0 -7 -5 -3 -11 4 -7
1 -10 -7 -7 -8 3 -13 11 -11 17 1 7 -2 9 -9 5 -7 -4 -10 -1 -7 7 3 9 22 15 51
17 46 3 47 3 47 -27 0 -17 5 -31 11 -31 5 0 7 5 4 10 -3 6 -3 19 0 30 5 16 15
20 56 20 54 0 67 15 19 22 -16 3 -30 2 -30 -1z m-430 -41 c0 -11 -2 -20 -4
-20 -2 0 -12 -3 -20 -6 -12 -5 -15 -2 -10 10 3 9 10 13 15 10 5 -3 6 2 3 10
-3 9 -1 16 5 16 6 0 11 -9 11 -20z"/>
<path d="M708 61 c-39 -38 -41 -40 -15 -31 16 6 33 8 38 5 5 -4 6 2 2 11 -4
11 1 22 12 30 10 8 16 17 12 20 -3 3 -25 -13 -49 -35z"/>
<path d="M2343 79 c-25 -7 -30 -13 -26 -29 8 -30 23 -35 23 -7 0 16 7 26 19
30 15 3 20 -2 25 -24 3 -16 10 -29 16 -29 14 0 13 43 -2 58 -14 14 -12 13 -55
1z"/>
<path d="M2419 61 c10 -35 26 -37 26 -3 0 19 -5 28 -16 28 -12 0 -15 -6 -10
-25z"/>
<path d="M1576 45 c9 -14 20 -22 25 -19 12 7 11 10 -7 28 -24 25 -36 19 -18
-9z"/>
<path d="M2940 61 c0 -20 13 -41 21 -35 15 9 10 44 -6 44 -8 0 -15 -4 -15 -9z"/>
<path d="M1508 3 c34 -2 88 -2 120 0 31 2 3 3 -63 3 -66 0 -92 -1 -57 -3z"/>
<path d="M1778 3 c34 -2 88 -2 120 0 31 2 3 3 -63 3 -66 0 -92 -1 -57 -3z"/>
<path d="M2267 3 c133 -2 353 -2 490 0 136 1 28 2 -242 2 -269 0 -381 -1 -248
-2z"/>
</g>
</svg>
