<?xml version="1.0" standalone="no"?>
<!DOCTYPE svg PUBLIC "-//W3C//DTD SVG 20010904//EN"
 "http://www.w3.org/TR/2001/REC-SVG-20010904/DTD/svg10.dtd">
<svg version="1.0" xmlns="http://www.w3.org/2000/svg"
 width="300.000000pt" height="509.000000pt" viewBox="0 0 300.000000 509.000000"
 preserveAspectRatio="xMidYMid meet">
<metadata>
Created by potrace 1.10, written by Peter Selinger 2001-2011
</metadata>
<g transform="translate(0.000000,509.000000) scale(0.100000,-0.100000)"
fill="#000000" stroke="none">
<path d="M69 5018 c0 -40 -6 -149 -12 -241 -7 -95 -8 -171 -3 -174 4 -3 5 -36
2 -73 -4 -38 -3 -70 1 -73 4 -3 10 45 11 106 2 62 6 150 9 197 11 172 12 330
3 330 -6 0 -10 -33 -11 -72z"/>
<path d="M136 5068 c-9 -12 -16 -34 -15 -48 l1 -25 7 26 c5 14 14 35 20 47 15
29 7 28 -13 0z"/>
<path d="M665 5081 c17 -4 45 -15 63 -25 19 -10 36 -15 39 -12 8 8 -85 46
-110 45 -16 -1 -14 -3 8 -8z"/>
<path d="M750 5084 c0 -3 7 -12 15 -21 8 -8 13 -19 10 -23 -3 -5 11 -20 32
-34 46 -30 88 -74 97 -103 4 -11 13 -24 20 -26 18 -7 6 40 -23 86 -37 60 -151
152 -151 121z"/>
<path d="M895 5054 c23 -34 53 -117 56 -153 2 -29 18 63 18 107 1 51 -13 82
-37 82 -11 0 -13 -3 -6 -8 14 -9 28 -52 17 -52 -10 0 -38 42 -35 53 1 4 -7 7
-18 7 -18 0 -18 -2 5 -36z"/>
<path d="M998 5080 c-4 -8 -9 -40 -12 -70 l-5 -55 15 45 c14 43 15 114 2 80z"/>
<path d="M1264 5076 c-7 -7 -10 -27 -8 -44 3 -26 0 -32 -16 -32 -10 0 -22 5
-25 10 -3 6 -1 10 4 10 6 0 11 4 11 9 0 20 -144 -30 -181 -62 -21 -18 -48 -40
-61 -49 -22 -16 -22 -17 15 -6 21 7 50 22 64 36 14 13 34 25 43 27 10 2 27 9
38 16 18 11 24 10 43 -6 22 -20 22 -20 16 0 -6 18 -6 18 6 3 13 -16 44 -18 79
-3 10 4 47 -3 85 -16 37 -12 90 -23 118 -25 27 -2 52 -3 55 -4 3 0 4 -35 3
-77 l-2 -78 9 68 c5 38 11 75 14 83 7 17 -29 38 -55 31 -10 -3 -19 -1 -19 4 0
5 -8 9 -17 9 -15 0 -198 58 -212 67 -2 2 4 12 14 23 14 15 15 20 4 20 -8 -1
-19 -7 -25 -14z"/>
<path d="M1338 5074 c18 -8 38 -11 44 -8 6 4 9 3 5 -2 -3 -5 12 -16 33 -25
l37 -16 -10 33 c-12 39 -24 44 -30 12 -4 -22 -5 -22 -11 -3 -6 16 -17 20 -54
22 l-47 2 33 -15z"/>
<path d="M1500 5076 c0 -7 -3 -28 -7 -46 -4 -24 -3 -31 5 -26 7 4 12 22 12 41
0 27 4 34 23 38 19 4 18 4 -5 6 -18 0 -28 -4 -28 -13z"/>
<path d="M1670 5084 c0 -3 8 -18 18 -32 10 -15 22 -35 26 -46 6 -17 8 -16 26
7 16 20 18 31 10 51 -5 14 -12 26 -16 26 -3 0 -3 -7 0 -15 5 -14 4 -14 -16 0
-23 15 -48 20 -48 9z"/>
<path d="M2537 5013 c-57 -96 -64 -113 -44 -113 13 0 13 -7 0 -57 -16 -66 -26
-420 -12 -429 5 -3 9 12 9 33 0 66 96 223 136 223 8 0 24 21 34 48 11 26 34
73 50 104 17 31 33 79 37 107 4 37 10 51 24 54 10 3 23 17 29 31 12 33 16 33
28 -3 9 -26 7 -34 -25 -70 -30 -35 -32 -41 -15 -41 19 0 18 -5 -13 -89 -17
-49 -42 -101 -54 -116 -27 -35 -19 -46 12 -17 13 12 29 22 35 22 7 0 11 3 10
8 -3 14 14 62 21 58 4 -3 7 3 8 12 9 97 21 152 36 167 21 20 19 60 -5 94 -16
23 -18 23 -43 7 -14 -9 -29 -24 -32 -32 -3 -8 -10 -14 -17 -14 -15 0 -40 -64
-26 -68 10 -4 -14 -71 -29 -82 -4 -3 -20 -36 -37 -74 -17 -40 -36 -71 -46 -74
-10 -2 -18 -11 -18 -18 0 -8 -4 -14 -8 -14 -5 0 -25 -15 -44 -34 l-36 -35 4
95 c2 53 8 113 14 134 6 21 7 45 4 54 -3 9 -1 23 6 31 6 8 9 19 5 25 -3 5 -1
10 4 10 6 0 10 6 9 13 -2 6 3 11 10 10 6 -2 12 3 12 10 0 7 9 32 20 55 24 48
24 52 7 52 -7 0 -34 -35 -60 -77z"/>
<path d="M510 5059 c0 -4 26 -10 58 -14 31 -3 72 -13 90 -21 22 -9 31 -10 26
-3 -14 23 48 -1 76 -29 15 -15 46 -44 69 -65 24 -21 47 -51 53 -68 12 -35 28
-38 28 -6 0 55 -92 144 -199 193 -35 16 -201 26 -201 13z"/>
<path d="M405 5053 c-38 -9 -37 -21 1 -13 22 5 53 10 69 13 24 3 22 4 -10 4
-22 1 -49 -1 -60 -4z"/>
<path d="M146 5005 c-25 -38 -21 -104 9 -140 l24 -30 1 25 c0 14 -6 36 -13 50
-19 36 -26 69 -17 75 7 5 21 45 15 45 -1 0 -10 -11 -19 -25z"/>
<path d="M1670 5000 c-1 -14 -4 -19 -7 -12 -5 12 -33 17 -33 6 0 -3 9 -17 20
-31 l19 -25 6 25 c4 14 5 34 2 44 -4 13 -5 12 -7 -7z"/>
<path d="M433 4989 c-140 -27 -223 -107 -223 -213 l0 -29 45 42 c24 22 50 41
56 41 7 0 10 3 6 6 -3 4 -21 -3 -40 -15 -43 -26 -47 -26 -47 0 0 57 94 141
156 138 16 0 55 2 87 6 36 4 57 2 57 -4 0 -6 6 -8 14 -5 8 3 25 -6 39 -20 15
-14 33 -26 41 -26 9 0 13 -6 11 -12 -3 -8 26 -29 73 -53 63 -33 83 -50 109
-90 17 -28 39 -59 47 -70 15 -19 15 -19 6 9 -7 20 -7 38 1 61 16 44 5 78 -39
121 -93 91 -266 140 -399 113z m278 -82 c20 -9 50 -29 67 -45 17 -16 34 -27
37 -23 4 3 5 -1 3 -9 -2 -8 2 -14 8 -13 7 1 20 -7 29 -17 10 -11 15 -20 10
-20 -4 0 -14 8 -21 18 -12 15 -13 13 -9 -18 5 -32 5 -33 -5 -10 -16 35 -51 71
-63 63 -6 -3 -7 -1 -3 5 4 7 1 12 -8 12 -8 0 -22 7 -30 16 -9 8 -16 12 -16 9
0 -4 -13 4 -30 18 -16 14 -45 31 -65 37 -19 6 -35 15 -35 20 0 8 55 -10 131
-43z"/>
<path d="M1810 4970 c-8 -5 -25 -10 -37 -10 -13 0 -41 -7 -64 -17 l-42 -16 34
-18 c44 -24 89 -61 69 -57 -9 2 -15 -1 -15 -6 0 -5 -13 -15 -30 -22 -29 -12
-29 -13 -5 -14 36 0 14 -16 -49 -34 -31 -9 -59 -12 -63 -8 -12 12 57 72 82 72
10 0 22 5 25 10 8 13 -41 13 -66 -1 -18 -9 -19 -8 -8 10 10 15 21 18 53 15 36
-3 38 -2 21 10 -30 20 -58 27 -75 16 -8 -5 -11 -10 -6 -10 5 0 1 -9 -8 -19
-10 -11 -16 -24 -13 -28 3 -5 1 -15 -5 -23 -8 -12 -8 -11 -3 5 4 14 3 17 -5 9
-6 -6 -13 -35 -17 -65 -3 -30 -11 -65 -18 -79 -11 -21 -10 -25 9 -35 32 -16
33 -53 2 -82 -14 -13 -26 -29 -26 -36 0 -7 9 -1 20 13 10 14 21 22 25 19 9
-10 -18 -100 -30 -96 -19 6 -46 79 -43 115 3 34 -1 41 -45 75 -37 29 -47 43
-42 58 6 17 2 19 -44 17 -52 -2 -62 -18 -11 -18 33 0 50 -17 23 -22 -14 -3
-10 -9 18 -28 26 -17 39 -36 49 -67 8 -27 17 -42 25 -39 8 3 10 -4 7 -20 -3
-18 0 -24 9 -22 10 2 13 -6 11 -28 -2 -17 2 -44 8 -59 l11 -29 21 32 c20 32
38 42 38 21 0 -6 7 -4 15 5 11 11 14 26 9 53 -9 56 29 149 79 194 24 23 35 39
28 43 -14 9 -33 -2 -26 -14 3 -5 0 -12 -6 -16 -8 -4 -9 -3 -5 4 12 19 -1 14
-30 -13 -14 -13 -30 -23 -34 -20 -3 2 -7 -2 -7 -10 0 -8 4 -15 9 -15 5 0 6 -4
3 -10 -3 -5 -11 -10 -16 -10 -6 0 -7 5 -4 10 3 6 1 10 -5 10 -6 0 -8 5 -5 10
3 6 1 10 -5 10 -6 0 1 12 17 26 l28 26 -30 -7 -30 -6 25 15 c30 18 75 23 50 5
-12 -9 -12 -10 3 -5 10 3 22 6 25 6 4 0 0 5 -8 11 -12 9 -12 10 3 5 10 -3 28
-1 39 5 15 8 19 8 14 0 -4 -6 -5 -11 -2 -11 2 0 14 16 27 36 19 31 25 35 48
29 14 -4 42 -8 61 -10 19 -2 55 -15 80 -29 26 -15 61 -26 81 -26 55 0 63 -17
55 -113 -9 -111 -31 -200 -62 -253 -16 -28 -24 -54 -22 -69 3 -13 2 -22 -3
-20 -4 3 -10 -8 -14 -25 -8 -39 -20 -38 -34 1 -14 39 -14 52 -1 44 5 -3 5 7
-1 25 -6 17 -8 47 -5 68 4 20 10 59 13 85 3 34 8 45 16 39 7 -5 24 -12 39 -16
32 -7 53 18 37 47 -8 13 -7 15 7 10 12 -4 15 -2 12 8 -6 17 -80 24 -107 10
-17 -9 -18 -8 -14 12 3 12 2 19 -2 15 -4 -4 -8 -49 -9 -100 -1 -78 -4 -93 -18
-96 -9 -2 -26 6 -37 17 -12 12 -28 21 -37 21 -10 0 -14 6 -10 15 8 23 -18 18
-40 -7 -12 -15 -13 -18 -3 -10 13 10 19 9 29 -3 7 -8 19 -15 27 -15 9 0 13 -9
11 -26 -2 -16 3 -29 11 -32 10 -3 11 2 6 19 -6 19 0 16 28 -16 53 -58 48 -71
-11 -35 -18 11 -39 20 -46 20 -9 0 -12 7 -9 19 7 28 -15 36 -39 14 -17 -15
-20 -15 -16 -2 10 27 -41 10 -60 -20 -9 -14 -20 -28 -24 -31 -9 -7 -4 -38 9
-51 7 -7 12 -3 17 15 10 39 70 54 129 31 56 -21 73 -39 96 -100 10 -28 21 -43
25 -36 16 25 28 10 21 -28 -6 -36 -4 -40 29 -61 20 -12 39 -27 43 -33 5 -7 30
-28 56 -47 101 -74 92 -59 90 -155 -2 -61 -8 -95 -20 -116 -10 -16 -20 -29
-23 -29 -13 1 -28 17 -31 34 -2 11 -26 32 -52 48 l-48 28 -33 -25 c-39 -30
-61 -33 -51 -7 4 9 9 31 12 49 3 18 8 31 12 30 7 -2 71 20 71 25 0 2 -20 2
-44 0 l-45 -4 -11 -70 c-12 -69 -12 -69 -43 -66 l-30 3 2 71 2 70 -43 13
c-132 39 -400 162 -385 178 3 2 20 -5 38 -16 19 -12 38 -21 43 -21 14 0 -35
49 -56 56 -10 3 -23 14 -28 25 -9 15 5 11 67 -21 43 -22 84 -40 91 -40 7 0 10
-5 7 -10 -4 -6 -3 -10 2 -9 20 5 101 -26 96 -35 -4 -6 -3 -8 2 -4 4 4 26 -3
49 -14 22 -12 49 -21 59 -19 10 1 17 -4 17 -13 0 -13 -5 -14 -27 -5 -16 6 -35
12 -43 14 -33 7 -70 25 -70 34 0 5 -9 7 -19 4 -11 -3 -34 2 -52 11 -37 19 -39
19 -39 7 0 -5 57 -32 128 -59 184 -72 172 -70 172 -30 0 33 -2 35 -57 52 -233
73 -500 241 -555 349 -11 22 -22 36 -25 33 -3 -3 0 -13 7 -22 9 -10 10 -18 4
-22 -6 -4 -13 -15 -17 -24 -3 -9 -25 -29 -49 -44 l-43 -28 49 -12 c26 -7 54
-10 61 -8 7 3 16 1 20 -5 4 -7 -1 -9 -12 -5 -17 5 -17 5 0 -6 9 -6 22 -8 29
-4 6 4 8 3 5 -3 -4 -6 0 -14 9 -17 10 -4 13 -2 8 7 -5 6 7 -2 24 -20 18 -17
41 -35 52 -38 11 -4 18 -11 15 -16 -3 -5 0 -6 8 -3 8 3 18 0 23 -7 5 -8 3 -10
-7 -4 -8 5 13 -20 46 -56 33 -36 70 -85 83 -111 26 -53 30 -138 7 -181 -12
-24 -12 -36 0 -95 8 -37 15 -80 15 -97 l1 -30 13 24 c9 16 10 36 5 65 -4 22
-5 98 -2 168 l6 128 -27 21 c-15 12 -25 23 -22 26 10 10 65 -31 70 -53 8 -31
56 -70 167 -137 109 -64 137 -69 191 -32 27 19 35 30 31 45 -5 19 0 17 47 -12
57 -35 77 -68 140 -233 97 -250 31 -497 -162 -611 l-61 -35 -76 34 c-42 19
-139 58 -215 88 -102 40 -132 55 -112 57 16 2 24 8 20 15 -3 7 1 4 9 -6 13
-16 14 -15 12 15 -2 18 -3 35 -4 36 -1 2 -61 -57 -133 -131 -131 -133 -262
-240 -352 -288 -25 -13 -46 -27 -46 -31 0 -12 18 -10 25 3 4 6 19 7 37 4 19
-5 28 -3 25 2 -4 6 4 15 18 21 13 6 65 38 115 71 50 34 96 61 101 61 5 0 9 15
9 34 0 18 7 39 15 46 21 17 31 5 14 -16 -19 -23 -19 -271 -1 -332 18 -58 46
-86 73 -72 29 16 20 45 -14 43 -24 -2 -32 7 -28 30 1 4 -3 17 -9 27 -8 15 -7
27 5 49 19 38 19 39 -7 43 -25 3 -25 3 -14 103 8 69 9 71 67 128 33 32 63 56
67 53 5 -3 9 1 9 8 0 14 -36 14 -59 0 -10 -6 -10 -4 1 9 7 9 23 17 35 17 32 0
107 -25 164 -54 29 -15 54 -26 57 -26 15 0 114 -122 120 -149 4 -17 11 -31 16
-31 28 0 -18 85 -71 129 -68 59 -52 66 42 21 71 -35 122 -39 137 -11 6 10 22
26 37 36 l27 18 -6 -100 c-4 -54 -9 -121 -12 -149 l-5 -49 14 60 c8 33 15 85
15 115 1 78 14 114 57 157 31 32 81 119 91 158 1 6 7 28 12 50 14 52 14 242 1
250 -5 3 -10 19 -10 36 0 16 -4 29 -10 29 -5 0 -10 9 -10 20 0 11 -4 20 -10
20 -5 0 -10 5 -10 11 0 6 -11 33 -25 61 -29 58 -31 76 -9 85 8 3 13 12 10 20
-3 8 -2 12 3 9 18 -12 38 33 50 110 14 95 8 118 -41 160 -39 32 -129 89 -140
86 -13 -3 -36 76 -42 142 -4 38 -9 73 -13 79 -4 6 -1 7 7 2 10 -6 12 -4 7 8
-5 12 -1 17 12 17 12 0 21 -9 25 -24 6 -24 96 -176 96 -163 0 5 -16 40 -36 78
-20 38 -34 72 -31 75 3 3 12 -7 21 -23 8 -15 15 -24 16 -20 0 5 -5 17 -11 28
-6 11 -12 41 -13 67 -2 26 -6 74 -9 107 l-6 60 13 -70 c8 -38 14 -59 16 -45 1
14 5 34 10 45 5 13 7 1 5 -35 -3 -43 -2 -47 3 -20 l8 35 8 -40 c4 -24 3 -52
-4 -69 -6 -16 -8 -31 -6 -33 3 -3 10 13 17 35 10 35 9 53 -10 126 -21 85 -30
226 -11 179 5 -13 11 -23 12 -23 2 0 4 31 6 68 3 56 0 72 -17 94 -12 14 -21
33 -21 41 0 19 -58 69 -71 61 -5 -3 -19 6 -31 21 -18 20 -34 26 -73 28 -27 2
-60 9 -72 15 -26 14 -43 15 -63 2z m32 -56 c8 -5 8 -1 -2 12 -14 18 -14 18 3
5 16 -13 51 -80 45 -87 -4 -4 -117 80 -117 88 -1 7 51 -6 71 -18z m-55 -14
c29 -17 57 -40 64 -51 l11 -21 -39 21 c-46 27 -112 80 -98 81 6 0 33 -14 62
-30z m150 12 c10 2 24 -5 31 -17 12 -19 13 -18 8 10 l-5 30 12 -27 c7 -19 18
-28 34 -28 l23 0 -27 -42 c-26 -39 -28 -40 -32 -17 -3 22 -4 23 -12 4 -6 -15
-8 -11 -9 20 -1 22 -4 34 -7 27 -2 -6 -9 -10 -14 -6 -5 3 -9 -2 -9 -10 0 -25
-14 -19 -33 13 -19 33 -13 69 9 50 7 -6 21 -9 31 -7z m124 -97 c-16 -18 -18
-24 -6 -14 32 25 42 29 43 16 0 -7 4 -22 7 -34 9 -28 0 -29 -51 -4 -21 11 -43
17 -48 14 -12 -8 -6 5 23 48 22 33 26 34 41 20 16 -15 15 -18 -9 -46z m-683
-562 l23 -23 -28 0 c-30 1 -69 42 -58 61 7 11 21 2 63 -38z m36 -58 c11 -8 17
-17 14 -21 -8 -8 -48 14 -48 26 0 14 12 12 34 -5z m323 -236 c110 -38 125 -52
121 -108 l-3 -43 -90 60 c-87 58 -125 92 -125 112 0 13 -3 14 97 -21z"/>
<path d="M1052 4904 c-56 -30 -97 -54 -90 -54 15 0 169 78 188 96 21 20 15 18
-98 -42z"/>
<path d="M1210 4937 c-19 -9 -26 -22 -28 -50 -4 -51 9 -46 35 13 12 28 21 50
20 50 -1 0 -13 -6 -27 -13z"/>
<path d="M528 4910 c-12 -39 -10 -86 3 -73 5 5 9 30 7 54 -3 37 -4 40 -10 19z"/>
<path d="M446 4891 c-17 -11 -33 -18 -38 -15 -4 3 -8 0 -8 -5 0 -6 5 -11 10
-11 18 0 70 30 70 40 0 13 0 13 -34 -9z"/>
<path d="M1130 4870 c-13 -9 -13 -11 0 -19 8 -5 18 -7 22 -5 4 3 8 -5 8 -18 0
-34 15 -55 24 -33 9 26 7 42 -4 25 -8 -12 -10 -11 -10 7 0 26 -10 53 -19 53
-3 0 -13 -5 -21 -10z"/>
<path d="M144 4705 c0 -71 1 -99 3 -62 2 37 2 96 0 130 -2 34 -3 4 -3 -68z"/>
<path d="M450 4805 l-25 -14 24 -1 c17 0 21 -3 13 -12 -6 -8 -11 -98 -12 -218
-6 -421 4 -445 21 -50 6 151 12 276 13 278 2 1 17 -5 35 -14 28 -14 32 -20 27
-44 -4 -25 -1 -30 30 -45 34 -16 74 -13 74 5 0 5 -18 19 -41 30 -58 30 -40 37
25 10 30 -12 60 -19 65 -15 7 4 11 -6 11 -28 0 -25 8 -41 30 -60 21 -19 27
-32 23 -44 -7 -17 -8 -17 -11 0 -6 30 -19 19 -14 -13 5 -34 18 -39 27 -10 3
11 14 24 23 29 16 8 16 0 10 -102 -6 -107 -8 -319 -2 -267 1 14 8 106 15 205
6 99 16 186 22 193 5 6 18 12 28 12 17 0 18 -6 13 -72 -17 -224 -19 -338 -6
-343 7 -3 10 -1 7 5 -3 5 8 16 25 25 36 19 37 22 8 21 -22 -1 -23 2 -23 94 -1
113 3 133 21 126 8 -3 14 2 15 12 1 32 6 57 14 82 l8 25 -20 -23 -19 -24 1 28
c3 54 -126 135 -318 200 -113 39 -104 38 -137 19z m348 -151 c23 -15 23 -16 6
-35 -17 -19 -18 -19 -51 13 -18 17 -33 36 -33 41 0 12 48 0 78 -19z"/>
<path d="M2900 4772 c0 -7 0 -13 1 -14 0 -2 -9 -28 -22 -58 -14 -36 -25 -89
-29 -150 -4 -52 -10 -102 -12 -110 -3 -8 -8 -32 -13 -52 -9 -45 -17 -47 -44
-10 -16 20 -20 22 -15 7 15 -51 27 -74 41 -79 12 -5 13 -9 3 -21 -9 -10 -9
-15 -1 -15 6 0 11 -8 12 -17 0 -10 11 22 24 72 13 49 21 93 18 98 -2 4 1 15 8
23 7 9 11 43 10 93 -1 55 3 91 14 118 16 37 22 109 11 121 -3 3 -6 0 -6 -6z"/>
<path d="M324 4745 c-4 -8 -10 -12 -15 -9 -5 3 -16 -1 -24 -10 -26 -25 -17
-27 25 -6 23 12 38 25 35 30 -9 14 -15 12 -21 -5z"/>
<path d="M1160 4730 c0 -5 9 -12 20 -15 11 -3 20 -10 20 -15 0 -4 7 -10 15
-14 12 -4 13 -2 3 14 -13 21 -58 45 -58 30z"/>
<path d="M1485 4720 c-3 -5 6 -21 20 -37 22 -23 24 -24 15 -5 -6 12 -8 26 -6
31 3 5 -1 11 -9 15 -8 3 -17 1 -20 -4z"/>
<path d="M2936 4480 c6 -336 13 -587 21 -767 6 -143 7 -153 26 -153 14 0 17 4
12 18 -3 9 -9 78 -11 152 -3 74 -9 168 -14 209 -4 41 -6 106 -4 145 13 199 1
560 -20 608 -13 30 -14 9 -10 -212z"/>
<path d="M194 4688 c-16 -12 -31 -23 -33 -25 -3 -2 5 -13 17 -25 12 -12 24
-19 28 -16 7 7 24 81 20 85 -2 2 -16 -7 -32 -19z"/>
<path d="M1777 4684 c4 -12 3 -15 -6 -10 -7 4 -23 5 -37 2 -23 -6 -24 -7 -8
-32 10 -14 22 -23 28 -21 7 3 25 -1 41 -8 30 -13 30 -13 5 -15 -23 -1 -23 -2
-5 -10 27 -11 85 -12 85 -1 0 5 9 11 20 14 11 3 20 13 20 22 0 14 -3 15 -14 6
-10 -9 -25 -3 -66 24 -29 20 -57 38 -61 41 -5 3 -6 -3 -2 -12z"/>
<path d="M352 4682 c-10 -3 -10 -7 -1 -18 11 -14 39 -20 39 -8 0 12 -26 30
-38 26z"/>
<path d="M1311 4650 c-19 -27 -27 -47 -23 -62 3 -14 1 -19 -6 -14 -6 4 -25 9
-42 11 -23 3 -30 0 -30 -13 0 -14 8 -16 50 -14 46 4 50 6 50 29 0 20 4 23 23
18 l22 -6 -22 13 -23 13 25 29 c28 32 29 36 15 36 -5 0 -23 -18 -39 -40z"/>
<path d="M2743 4667 c-36 -39 -85 -127 -79 -142 3 -8 1 -17 -4 -20 -10 -6 -51
-111 -54 -140 -1 -11 -8 -31 -15 -43 -9 -18 -10 -31 -2 -50 7 -18 8 -48 2 -87
-5 -35 -5 -64 0 -69 5 -6 9 -33 10 -60 0 -28 4 -71 8 -96 l7 -45 5 52 c4 29
12 60 20 69 8 9 12 26 11 37 -2 11 11 51 28 89 20 43 30 79 27 94 -3 18 -1 22
6 15 20 -20 25 -12 32 44 8 64 0 83 -16 37 -6 -18 -14 -32 -18 -32 -4 0 -13
-25 -20 -55 -7 -30 -17 -53 -22 -50 -5 4 -9 0 -9 -8 0 -22 -37 -100 -42 -90
-12 21 0 200 16 237 9 22 14 41 12 44 -3 2 9 31 25 64 17 33 24 56 17 52 -7
-4 -1 8 15 28 15 20 27 42 27 48 0 6 9 29 21 51 24 48 21 58 -8 26z"/>
<path d="M678 4620 c-4 -36 -13 -147 -19 -248 -11 -163 -9 -206 5 -191 9 8 28
352 24 429 l-3 75 -7 -65z"/>
<path d="M532 4630 c-1 -25 -4 -63 -7 -85 l-5 -40 11 40 c5 22 8 60 6 85 l-3
45 -2 -45z"/>
<path d="M330 4609 c0 -17 -4 -38 -9 -48 -6 -11 -6 -37 -1 -67 l9 -49 -3 52
c-2 29 1 50 6 47 4 -3 8 18 8 45 0 28 -2 51 -5 51 -3 0 -5 -14 -5 -31z"/>
<path d="M1537 4608 c-6 -43 1 -50 9 -9 6 30 8 31 25 15 21 -19 27 -6 7 14
-21 21 -36 13 -41 -20z"/>
<path d="M203 4578 c-6 -7 -13 -53 -17 -102 -3 -50 -9 -92 -11 -95 -12 -12
-30 24 -36 72 l-6 52 -2 -51 c-1 -39 4 -55 19 -69 11 -10 20 -29 20 -42 0 -12
4 -23 9 -23 4 0 6 -65 4 -143 -2 -79 1 -155 5 -168 7 -17 10 2 11 71 0 52 5
169 11 260 8 139 10 250 4 250 -1 0 -6 -6 -11 -12z"/>
<path d="M1260 4470 c0 -28 36 -74 88 -115 l57 -45 18 21 c18 22 23 41 10 37
-14 -4 -54 23 -48 33 4 5 -1 9 -9 9 -9 0 -16 4 -16 9 0 10 -75 61 -90 61 -5 0
-10 -5 -10 -10z"/>
<path d="M0 4443 c0 -11 10 -27 23 -36 12 -8 31 -24 42 -34 11 -11 33 -28 48
-37 23 -15 27 -16 27 -3 0 8 -26 34 -58 57 -31 24 -63 50 -69 58 -11 14 -13
13 -13 -5z"/>
<path d="M1624 4444 c4 -9 1 -24 -6 -33 -12 -14 -11 -14 5 -2 15 12 17 11 17
-2 0 -21 29 -49 42 -41 6 4 5 10 -3 15 -11 7 -11 9 1 9 13 0 13 1 0 10 -8 5
-12 10 -8 10 8 0 -40 50 -49 50 -3 0 -2 -7 1 -16z"/>
<path d="M1050 4398 c-11 -18 -20 -37 -20 -42 0 -4 -9 -6 -20 -3 -24 6 -27 -8
-4 -17 9 -3 17 -6 20 -6 6 0 64 82 64 92 0 19 -22 6 -40 -24z"/>
<path d="M1485 4411 c-3 -12 -22 -41 -40 -65 l-34 -44 68 -36 c73 -38 264
-115 347 -139 54 -16 74 -10 74 23 0 8 7 24 15 34 8 11 15 27 15 35 0 13 -2
13 -9 2 -7 -11 -9 -11 -14 0 -3 8 -6 4 -6 -8 -1 -13 -6 -23 -12 -23 -5 0 -7
-4 -4 -10 3 -5 -6 -12 -20 -16 -14 -3 -26 -11 -26 -18 -1 -6 -5 3 -9 19 -6 26
-8 27 -9 7 0 -13 -4 -22 -8 -20 -5 3 -23 11 -40 18 -21 9 -33 22 -34 35 0 16
-2 17 -7 4 -4 -9 -16 -15 -26 -13 -21 3 -38 23 -30 36 3 4 1 8 -5 8 -5 0 -15
-8 -20 -17 -10 -17 -10 -17 -11 0 0 10 -4 16 -9 13 -13 -8 -33 20 -29 41 2 10
-2 17 -9 16 -8 -2 -13 7 -13 22 0 14 -4 25 -10 25 -5 0 -6 7 -3 17 4 10 2 14
-4 10 -7 -5 -9 0 -6 13 4 14 0 20 -11 20 -20 0 -21 -26 -1 -63 8 -15 10 -25 4
-21 -5 3 -3 -11 5 -31 30 -71 8 -72 -25 -1 -17 36 -17 30 -2 -24 2 -8 -5 1
-17 20 -12 19 -19 28 -16 18 2 -9 2 -19 -1 -22 -5 -5 -63 21 -63 28 0 3 14 18
30 35 31 30 31 30 39 8 7 -18 9 -14 9 19 0 51 -13 76 -23 45z"/>
<path d="M959 4393 c-1 -10 -1 -21 0 -25 0 -5 -3 -8 -9 -8 -5 0 -9 -12 -9 -27
2 -24 2 -25 6 -5 2 12 8 22 12 22 4 0 8 14 9 30 1 32 -7 43 -9 13z"/>
<path d="M1098 4395 c-8 -8 26 -80 41 -89 10 -6 25 43 16 52 -3 3 -5 0 -5 -6
0 -23 -20 -11 -33 19 -6 17 -15 27 -19 24z"/>
<path d="M1371 4298 c48 -46 98 -80 185 -125 92 -48 312 -143 331 -143 2 0 3
11 3 25 0 14 5 25 11 25 5 0 7 -5 3 -12 -5 -7 -3 -8 6 -3 10 6 12 4 7 -9 -4
-10 -3 -15 3 -11 6 3 10 2 10 -4 0 -5 -4 -13 -10 -16 -5 -3 -10 -11 -10 -18 0
-6 6 -2 14 9 14 18 15 18 21 2 4 -10 11 -15 16 -12 5 3 9 -11 9 -31 0 -30 3
-36 16 -31 9 3 25 6 35 6 12 0 17 4 14 11 -4 6 -13 8 -20 5 -8 -3 -19 2 -25
10 -10 11 -6 17 24 29 44 18 47 27 6 19 -45 -9 -76 3 -89 34 -10 24 -23 31
-104 52 -51 14 -100 24 -110 23 -10 -2 -31 4 -48 12 -16 9 -29 13 -29 10 0 -3
-8 3 -18 13 -10 10 -57 37 -104 60 -47 23 -107 59 -134 80 -79 62 -84 58 -13
-10z"/>
<path d="M2036 4318 c10 -33 35 -80 50 -95 8 -8 11 -25 8 -41 -4 -20 0 -32 13
-43 16 -13 17 -12 5 3 -9 11 -11 28 -7 47 5 22 -2 45 -25 90 -30 60 -59 84
-44 39z"/>
<path d="M1030 4322 c0 -13 36 -39 89 -65 58 -28 55 -14 -9 37 -42 33 -80 47
-80 28z"/>
<path d="M1795 4305 c-31 -25 -29 -28 18 -25 19 1 27 -3 27 -15 0 -12 7 -8 24
12 l24 28 -21 12 c-31 17 -38 16 -72 -12z"/>
<path d="M956 4294 c-8 -22 -2 -27 23 -19 12 3 18 11 15 17 -4 7 -2 8 4 4 22
-13 12 -25 -27 -36 -21 -5 -42 -17 -45 -26 -4 -10 -13 -14 -22 -10 -8 3 -12 2
-9 -3 3 -6 -3 -15 -12 -21 -14 -8 -9 -9 22 -3 22 4 50 7 63 8 24 0 30 11 10
18 -7 2 2 12 20 21 35 18 69 15 56 -5 -4 -8 -3 -9 4 -5 7 4 12 1 12 -8 0 -10
-6 -13 -15 -10 -8 4 -15 1 -15 -5 0 -13 27 -15 35 -2 3 5 21 8 40 6 19 -2 35
-1 35 1 0 2 -18 13 -40 24 -22 11 -40 18 -40 16 0 -3 -15 8 -32 25 -36 32 -72
38 -82 13z"/>
<path d="M1174 4251 c4 -6 25 -20 46 -31 22 -11 64 -40 95 -65 31 -25 60 -43
65 -40 5 3 7 0 5 -7 -3 -8 7 -25 22 -38 l28 -25 -20 25 -20 25 22 -18 c12 -11
19 -24 17 -31 -3 -7 1 -18 9 -25 12 -9 16 -7 21 11 12 43 -169 192 -273 223
-16 5 -21 4 -17 -4z"/>
<path d="M2046 4225 c3 -22 10 -47 15 -55 14 -25 10 20 -7 60 l-14 35 6 -40z"/>
<path d="M444 4095 c0 -71 1 -99 3 -62 2 37 2 96 0 130 -2 34 -3 4 -3 -68z"/>
<path d="M490 4123 c0 -47 2 -84 4 -82 8 8 12 169 4 169 -4 0 -8 -39 -8 -87z"/>
<path d="M748 4137 c-29 -24 -92 -67 -140 -95 -48 -29 -137 -94 -198 -143
-123 -101 -117 -85 -78 -207 11 -34 38 -90 61 -124 l41 -61 28 34 c15 18 28
37 28 41 0 4 7 8 15 8 22 0 19 -14 -11 -50 l-27 -31 52 2 c36 2 51 7 51 17 0
8 -6 12 -15 8 -8 -3 -15 -1 -15 4 0 6 4 10 9 10 5 0 12 7 15 16 5 12 2 15 -11
10 -15 -5 -15 -4 1 9 22 17 46 20 46 5 0 -5 7 -7 15 -4 8 4 15 1 15 -4 0 -7
42 -12 108 -15 88 -3 127 -10 222 -40 131 -41 137 -43 120 -22 -7 8 -19 15
-26 15 -8 0 -14 5 -14 10 0 10 9 9 78 -6 15 -3 41 -8 57 -11 64 -10 78 -12
111 -23 19 -6 34 -17 34 -23 0 -8 3 -8 9 1 6 11 19 7 60 -18 28 -17 51 -39 51
-48 1 -10 7 -4 15 13 22 48 17 6 -7 -65 -27 -76 -95 -155 -143 -165 -16 -3
-43 -10 -60 -14 -29 -9 -29 -9 10 -10 22 0 57 3 78 8 20 5 39 5 42 1 8 -13 -6
-40 -18 -33 -5 3 -7 2 -4 -4 6 -10 -29 -47 -73 -76 l-24 -17 25 0 c28 0 65 36
178 172 l72 86 -12 46 c-6 25 -9 55 -6 65 8 34 -163 101 -378 149 -324 73
-343 76 -471 75 -129 -2 -174 -13 -212 -53 l-20 -22 -31 42 c-17 24 -31 49
-31 56 0 7 -6 19 -12 26 -15 15 -19 28 -25 79 -4 31 0 41 24 63 15 14 36 29
46 32 9 3 15 9 12 14 -3 5 3 11 14 15 10 3 32 19 49 35 34 32 111 75 120 66 3
-3 -2 -14 -11 -24 -10 -10 -17 -29 -17 -41 0 -24 -37 -100 -55 -113 -5 -4 -7
-8 -2 -8 4 0 -1 -17 -12 -37 -14 -29 -16 -42 -8 -55 9 -13 6 -26 -11 -56 -12
-22 -22 -43 -22 -48 0 -14 95 90 112 124 15 28 56 56 67 46 2 -1 -11 -29 -28
-60 -17 -32 -29 -59 -27 -61 2 -2 14 -1 27 2 16 4 25 14 25 28 4 46 23 97 37
99 79 10 216 10 252 -1 47 -13 139 -76 213 -144 105 -97 112 -98 41 -7 -134
172 -304 240 -488 195 -81 -20 -126 -46 -157 -92 -37 -55 -34 -25 3 45 41 77
89 132 114 132 15 0 14 -6 -8 -46 l-26 -46 24 12 c13 7 36 25 50 40 24 26 28
27 105 23 156 -9 314 -114 418 -277 31 -49 79 -86 93 -72 2 2 -9 8 -24 14 -20
7 -41 30 -68 77 -72 123 -213 235 -361 285 -79 27 -187 27 -233 -1 -18 -11
-35 -18 -38 -16 -5 6 55 74 143 163 76 78 107 88 225 74 46 -6 104 -18 129
-26 117 -43 261 -195 316 -333 16 -42 31 -136 26 -168 -3 -23 -39 -37 -66 -27
-9 3 -16 2 -16 -4 0 -5 -12 -8 -27 -5 -27 3 -27 3 -6 -8 14 -8 44 -9 87 -4 61
6 66 8 62 28 -3 12 -8 45 -11 72 -34 271 -237 495 -466 512 -70 5 -106 -1
-199 -33 -8 -3 -1 4 15 15 17 12 25 21 18 21 -7 0 -36 -19 -65 -43z m756 -809
c4 -20 1 -30 -12 -40 -10 -7 -27 -28 -37 -45 -11 -18 -25 -33 -32 -33 -15 0
-15 2 -7 24 3 9 11 16 18 16 6 0 20 27 30 60 20 62 29 66 40 18z"/>
<path d="M1244 4172 c3 -5 -3 -12 -14 -15 -11 -3 -20 -10 -20 -16 0 -15 31
-13 52 2 15 12 15 14 -4 26 -11 7 -17 8 -14 3z"/>
<path d="M1928 4149 c-34 -34 -35 -39 -5 -39 15 0 28 9 34 23 18 38 1 47 -29
16z"/>
<path d="M101 4124 c-7 -27 -15 -55 -17 -62 -2 -7 0 -11 5 -8 5 3 11 24 15 47
6 37 8 40 24 27 15 -11 15 -11 6 2 -6 8 -13 22 -16 29 -2 8 -10 -7 -17 -35z"/>
<path d="M842 4133 c-22 -4 -125 -102 -162 -153 l-19 -26 28 4 c23 3 31 11 40
44 7 22 15 38 17 35 3 -2 23 13 46 34 23 21 44 36 48 34 4 -3 15 4 25 15 10
11 14 19 9 19 -5 -1 -19 -4 -32 -6z"/>
<path d="M1980 4075 c0 -25 2 -45 4 -45 18 0 34 14 29 26 -6 17 8 18 26 2 11
-10 13 -10 7 0 -4 6 -3 12 3 12 15 0 19 -23 9 -44 -7 -13 -6 -26 3 -43 11 -21
11 -32 -3 -69 -8 -24 -14 -44 -13 -44 2 0 14 20 28 44 23 41 23 45 9 69 -27
44 -6 48 48 10 15 -10 7 3 -20 32 -40 45 -103 94 -122 95 -5 0 -8 -20 -8 -45z"/>
<path d="M242 3987 c-2 -67 -2 -120 1 -117 8 7 16 240 8 240 -3 0 -8 -55 -9
-123z"/>
<path d="M1467 4018 c-8 -27 1 -42 17 -29 8 7 17 6 26 -1 12 -8 12 -9 -3 -4
-28 9 -31 -18 -6 -66 12 -23 28 -61 36 -83 13 -38 13 -39 10 -7 -2 18 0 35 5
38 14 9 9 26 -6 21 -22 -9 -28 5 -8 19 15 12 15 12 -5 7 -13 -3 -23 -1 -23 5
0 5 9 12 21 15 13 4 18 10 14 17 -4 7 -10 8 -14 4 -7 -11 -31 -16 -31 -8 0 4
7 12 16 19 14 10 15 14 3 33 -8 12 -20 22 -27 22 -7 0 -10 5 -7 10 3 6 2 10
-3 10 -5 0 -12 -10 -15 -22z"/>
<path d="M1435 3919 c-10 -15 1 -22 24 -14 12 3 19 11 16 16 -8 12 -32 11 -40
-2z"/>
<path d="M2262 3843 c-12 -44 -11 -52 24 -150 19 -57 39 -125 44 -151 l8 -47
1 42 c1 25 -11 72 -28 117 -25 65 -27 76 -13 81 20 7 32 -12 32 -53 0 -22 4
-31 11 -26 8 5 10 -1 6 -18 -5 -19 -1 -29 22 -46 15 -11 38 -37 50 -58 24 -41
18 -39 -43 15 l-28 26 8 -25 c4 -14 7 -42 6 -62 -1 -21 2 -38 8 -38 10 0 28
-37 36 -74 2 -11 12 -29 22 -40 34 -38 37 -51 6 -29 -38 27 -60 52 -74 83
l-11 25 6 -25 c2 -14 5 -69 5 -123 0 -54 4 -96 8 -93 5 3 9 -1 9 -9 0 -8 -7
-15 -16 -15 -14 0 -14 -2 -1 -10 13 -9 13 -10 0 -10 -13 0 -13 -1 0 -10 13 -8
13 -11 -1 -26 -16 -15 -17 -3 -22 167 -5 201 -27 339 -75 458 -20 50 -27 60
-34 47 -6 -11 -6 -22 1 -30 6 -7 15 -37 21 -67 6 -30 14 -61 17 -69 3 -8 7
-22 8 -30 1 -8 12 -56 24 -106 17 -77 20 -114 16 -235 -4 -126 -2 -144 13
-155 9 -8 25 -14 35 -14 10 0 23 -4 30 -10 154 -127 157 -131 137 -180 -7 -16
-21 -32 -31 -35 -10 -4 -19 -10 -19 -16 0 -8 -56 -36 -85 -43 -45 -11 -95 -31
-95 -38 0 -5 -4 -7 -9 -4 -4 3 -18 -3 -30 -13 -12 -11 -32 -26 -44 -35 -20
-15 -18 -15 18 0 22 9 67 25 100 36 96 33 183 78 210 110 18 22 25 41 25 74 0
38 -5 49 -40 83 -22 21 -64 55 -95 76 -30 21 -55 41 -55 44 0 3 11 28 25 55
28 55 31 76 13 94 -10 10 -4 11 26 8 33 -5 37 -3 31 12 -8 22 -45 179 -45 193
0 6 7 8 16 5 13 -5 15 -2 9 11 -21 50 -34 90 -35 106 0 10 -4 16 -9 13 -4 -3
-6 6 -3 21 4 19 2 24 -8 18 -9 -5 -11 -4 -6 4 10 16 -24 102 -37 94 -5 -3 -7
-1 -4 5 10 15 -3 43 -16 35 -5 -3 -7 -1 -3 5 6 10 -43 102 -54 102 -3 0 -11
-21 -18 -47z m158 -390 c0 -16 2 -39 5 -53 3 -14 -1 -7 -9 15 -7 22 -18 41
-24 41 -22 3 -23 4 -17 14 3 6 15 10 26 10 14 0 19 -7 19 -27z m-31 -179 c-9
-11 -9 -14 0 -14 7 0 9 -10 5 -27 -14 -59 -24 -45 -24 33 0 76 1 78 15 50 12
-22 12 -32 4 -42z"/>
<path d="M1700 3783 c-1 -58 -35 -147 -79 -202 -29 -36 -32 -46 -29 -97 2 -33
8 -59 15 -61 9 -3 11 11 8 49 -3 45 0 58 22 87 31 41 83 183 83 229 l0 32 68
-36 c37 -20 73 -41 79 -47 18 -13 5 -29 -18 -22 -18 6 -19 5 -8 -13 13 -20 13
-20 27 -1 18 25 26 24 41 -7 13 -30 8 -42 -26 -55 -23 -9 -24 -11 -11 -31 18
-28 38 -35 38 -14 0 9 5 16 10 16 6 0 10 -5 10 -12 0 -7 16 3 35 22 l35 34
-67 48 c-70 51 -203 128 -222 128 -6 0 -11 -19 -11 -47z"/>
<path d="M1508 3813 c-9 -3 -15 -10 -12 -18 3 -7 -3 -16 -15 -20 -12 -3 -21
-10 -21 -15 0 -14 37 -31 53 -24 23 8 26 -37 5 -60 -20 -22 -23 -36 -8 -36 6
0 10 7 10 15 0 8 5 15 12 15 6 0 8 -3 5 -7 -4 -3 -2 -12 4 -20 9 -10 7 -13 -7
-14 -16 0 -16 -2 4 -9 26 -11 28 -19 7 -34 -12 -9 -11 -14 5 -35 l20 -23 0 55
c0 43 -35 229 -43 233 -1 0 -10 -1 -19 -3z"/>
<path d="M2027 3783 c-4 -4 -5 -21 -1 -38 4 -23 1 -37 -12 -49 -30 -31 -1 -36
33 -6 l33 29 -21 36 c-23 38 -23 38 -32 28z"/>
<path d="M1350 3720 c0 -5 5 -10 10 -10 6 0 10 -7 10 -15 0 -20 -17 -19 -28 1
-8 15 -10 15 -15 0 -4 -11 -3 -15 4 -10 6 3 10 -1 9 -12 -4 -32 -1 -36 15 -20
18 18 40 70 25 61 -6 -3 -10 -1 -10 4 0 6 -4 11 -10 11 -5 0 -10 -4 -10 -10z"/>
<path d="M1766 3713 c-4 -9 -14 -13 -26 -10 -11 3 -20 1 -20 -4 0 -5 7 -10 15
-10 8 -1 20 -2 25 -3 6 -1 10 3 9 9 0 5 7 12 17 15 16 6 16 7 2 13 -10 3 -19
0 -22 -10z"/>
<path d="M11 3690 c0 -19 4 -42 9 -50 8 -12 10 -11 9 5 -1 11 -5 34 -9 50 l-8
30 -1 -35z"/>
<path d="M2077 3687 c-9 -14 -43 -48 -74 -74 l-58 -48 22 -44 c28 -55 29 -56
36 -31 3 11 1 18 -4 14 -5 -3 -9 -2 -9 3 0 13 14 29 30 35 8 3 24 29 34 57 18
51 19 52 34 30 11 -16 12 -24 4 -27 -7 -2 -12 -9 -12 -15 0 -6 -8 -19 -17 -29
-16 -17 -16 -20 0 -35 16 -16 17 -16 17 -1 0 25 22 68 31 62 12 -7 10 44 -4
90 l-12 40 -18 -27z m-46 -80 c-6 -8 -8 -17 -5 -20 3 -3 -3 -16 -15 -28 -12
-13 -21 -27 -21 -33 0 -5 -6 -4 -12 3 -11 10 -9 16 10 31 12 10 22 22 22 27 0
9 20 33 28 33 3 0 -1 -6 -7 -13z"/>
<path d="M68 3681 c11 -7 9 -17 -12 -49 -32 -50 -32 -50 -3 -62 12 -5 33 -18
46 -27 24 -17 24 -17 10 4 -7 12 -21 24 -30 26 -18 5 -19 28 -1 70 13 30 9 47
-11 47 -8 0 -8 -3 1 -9z"/>
<path d="M1793 3666 c26 -20 22 -61 -9 -75 -14 -6 -30 -8 -36 -5 -7 4 -8 2 -4
-4 13 -21 34 -13 78 30 l43 43 -27 3 c-16 2 -28 8 -28 13 0 5 -8 9 -17 9 -17
-1 -17 -1 0 -14z"/>
<path d="M2731 3620 c-14 -33 -12 -46 5 -42 17 4 29 -99 12 -109 -10 -7 -10
-9 0 -9 6 0 12 -11 12 -24 0 -13 -6 -27 -12 -29 -9 -4 -10 -6 -1 -6 13 -1 -18
-61 -78 -150 -21 -31 -36 -57 -34 -59 12 -12 61 41 87 95 21 45 35 62 45 59 8
-3 17 -6 19 -6 10 0 3 -39 -8 -43 -7 -3 -5 -6 6 -6 15 -1 126 -102 126 -115 0
-2 -24 1 -52 6 -81 13 -239 4 -274 -16 -29 -17 -29 -17 31 -11 158 15 271 16
300 5 17 -7 24 -14 18 -17 -7 -3 -12 -17 -12 -31 2 -24 2 -24 6 -4 2 12 14 27
25 33 19 10 18 13 -24 57 -51 53 -148 179 -148 192 0 4 6 11 13 13 7 4 6 6 -5
6 -13 1 -17 19 -23 116 -4 63 -10 117 -14 119 -4 3 -13 -8 -20 -24z"/>
<path d="M1783 3557 c-19 -11 -20 -14 -7 -31 16 -23 3 -46 -27 -46 -11 0 -19
-7 -19 -15 0 -8 5 -15 11 -15 13 0 99 71 99 82 0 16 -29 7 -33 -9 -4 -17 -4
-17 -12 1 -5 12 -3 21 6 26 22 14 6 20 -18 7z"/>
<path d="M2106 3553 c-3 -8 -4 -19 0 -24 3 -5 0 -9 -6 -9 -12 0 -9 -45 5 -57
4 -4 5 -3 2 3 -4 7 0 14 8 17 8 4 23 24 33 45 l19 39 -28 1 c-16 0 -30 -6 -33
-15z"/>
<path d="M1853 3501 c-35 -32 -63 -63 -63 -69 0 -14 25 -22 40 -12 11 7 11 11
1 24 -11 13 -11 16 2 16 9 0 19 -5 22 -11 5 -7 16 -2 32 12 20 20 25 21 33 9
5 -8 10 -25 10 -37 0 -12 3 -28 6 -36 5 -13 9 -12 26 5 16 16 22 18 29 7 10
-17 11 -15 34 46 10 27 20 44 23 37 2 -7 -4 -29 -13 -48 -21 -46 -12 -57 11
-12 9 18 20 35 24 38 5 3 0 15 -11 28 l-18 23 -16 -37 c-8 -20 -15 -40 -15
-45 0 -24 -19 -4 -34 36 -20 52 -26 58 -46 43 -13 -8 -12 -9 2 -5 11 4 19 -3
26 -21 22 -57 22 -67 2 -80 -17 -10 -20 -10 -20 2 0 8 4 17 9 20 14 9 -12 56
-31 56 -10 0 -27 -9 -38 -20 -20 -20 -20 -20 -20 0 0 11 13 29 30 41 28 21 47
49 32 49 -4 0 -35 -27 -69 -59z"/>
<path d="M2960 3496 c0 -29 4 -76 9 -103 6 -28 11 -86 13 -131 1 -44 7 -78 11
-75 5 3 7 86 5 184 -3 162 -5 179 -20 179 -15 0 -18 -9 -18 -54z"/>
<path d="M1539 3535 c-1 -3 -2 -11 -3 -17 -1 -7 -13 -12 -27 -11 -35 2 -35
-31 -1 -53 l27 -17 -23 25 c-14 15 -18 25 -10 26 33 3 52 10 56 20 2 7 -1 12
-8 12 -6 0 -8 5 -5 10 3 6 4 10 1 10 -3 0 -7 -2 -7 -5z"/>
<path d="M432 3493 c-38 -8 -13 -23 39 -23 29 0 49 -4 49 -11 0 -6 -6 -9 -13
-6 -8 3 -34 -12 -58 -33 l-44 -39 35 -1 c19 0 68 -9 108 -19 67 -18 72 -18 56
-3 -10 9 -32 18 -50 19 -18 1 -40 5 -48 10 -13 7 -12 12 7 34 20 23 30 26 102
27 116 3 248 -28 369 -85 56 -26 107 -54 114 -62 6 -8 12 -10 12 -4 0 6 10 10
23 9 12 -1 21 -7 20 -13 -1 -6 4 -17 12 -23 8 -7 15 -16 15 -21 0 -12 -27 -11
-33 1 -3 6 -4 5 -3 -1 1 -7 12 -16 25 -20 14 -6 20 -5 16 1 -3 6 -1 10 4 10
15 0 14 27 -1 33 -7 2 12 3 42 1 61 -3 107 12 116 39 3 11 12 16 22 13 9 -3
24 -1 31 4 12 7 9 10 -11 15 -19 5 -24 11 -21 26 5 17 6 17 24 -4 11 -13 18
-17 19 -9 0 7 -7 20 -15 28 -8 9 -15 25 -16 37 0 12 -6 0 -14 -28 -8 -32 -24
-59 -45 -78 -44 -39 -83 -34 -227 31 -136 61 -270 105 -383 126 -93 16 -242
27 -278 19z"/>
<path d="M2180 3425 c-5 -114 -5 -118 -22 -170 -28 -85 -37 -139 -27 -150 6
-5 9 -3 9 7 0 9 7 24 16 32 8 9 11 16 5 16 -6 0 -11 5 -11 11 0 6 7 9 15 5 9
-3 15 0 15 10 0 10 -6 14 -15 10 -8 -3 -15 -1 -15 4 0 9 32 72 41 80 3 3 5 26
5 52 -1 27 4 50 9 53 6 3 5 7 -3 11 -6 3 -10 9 -8 12 2 4 0 25 -4 47 -7 37 -8
34 -10 -30z"/>
<path d="M1654 3454 c4 -10 -1 -22 -11 -30 -16 -12 -16 -15 -3 -24 19 -13 30
-13 30 0 0 6 -8 10 -17 11 -15 0 -15 2 2 8 11 5 24 6 29 4 4 -3 0 6 -9 21 -19
29 -30 34 -21 10z"/>
<path d="M2041 3390 c-44 -78 -57 -110 -42 -110 5 0 13 10 17 23 3 12 15 34
25 48 10 14 16 29 13 32 -9 8 27 57 42 57 8 0 11 -6 8 -15 -4 -8 -10 -13 -14
-10 -15 10 -18 -23 -4 -44 19 -26 26 -26 42 0 12 18 11 19 -7 10 -29 -16 -31
-14 -14 19 12 25 18 29 29 19 8 -7 17 -9 21 -5 8 7 8 7 -39 28 l-37 17 -40
-69z"/>
<path d="M1326 3438 c3 -4 0 -8 -5 -8 -6 0 -11 -8 -11 -17 0 -10 -9 -33 -20
-51 -18 -30 -24 -33 -53 -27 -18 4 -51 16 -74 26 -23 11 -59 22 -80 25 -32 5
-26 0 41 -32 44 -20 98 -39 121 -42 37 -4 44 -1 68 28 15 17 27 39 27 48 0 9
3 26 6 38 4 14 1 21 -10 21 -8 0 -13 -4 -10 -9z"/>
<path d="M1855 3408 c-22 -21 -41 -47 -41 -58 -2 -25 2 -25 55 5 51 30 51 30
51 7 0 -10 5 -23 12 -30 9 -9 8 -15 -8 -26 -17 -13 -20 -12 -30 6 -11 20 -12
19 -32 -10 -26 -36 -27 -45 -6 -63 13 -10 19 -10 36 0 30 18 45 -1 24 -30 -18
-27 -20 -39 -6 -39 6 0 15 12 21 28 l11 27 11 -24 c9 -19 9 -25 -1 -29 -6 -2
-12 -8 -12 -14 0 -5 9 -6 20 -3 11 4 20 2 20 -4 0 -6 -9 -20 -20 -31 -24 -24
-27 -38 -3 -19 14 12 16 12 11 -1 -4 -11 -18 -14 -47 -13 -36 2 -41 0 -31 -13
7 -7 17 -14 23 -14 28 0 65 -65 58 -103 -1 -5 4 -7 11 -4 22 7 7 93 -16 91
-21 -2 -20 12 4 43 11 14 17 29 14 34 -3 5 -1 9 4 9 5 0 14 -11 22 -24 7 -13
22 -27 34 -31 13 -4 16 -8 8 -12 -7 -3 -19 0 -26 6 -18 15 -26 3 -26 -41 0
-46 9 -48 41 -7 23 30 37 111 16 90 -15 -15 -47 5 -47 29 0 28 15 32 43 10 21
-17 26 -18 31 -5 3 9 0 15 -8 15 -7 0 -21 9 -31 20 l-19 21 -15 -28 c-10 -20
-16 -24 -19 -13 -5 15 -47 74 -70 99 -11 11 -9 16 8 28 26 19 38 10 19 -14
-12 -16 -12 -17 2 -6 13 11 18 9 27 -13 7 -14 12 -31 12 -39 0 -8 5 -15 10
-15 5 0 9 3 8 8 -2 10 35 72 44 72 4 0 5 7 2 15 -4 9 0 15 10 15 18 0 20 8 7
28 -5 9 -17 -3 -37 -42 -16 -31 -31 -56 -34 -55 -3 0 -23 37 -45 83 l-40 83
-39 -29 c-59 -42 -64 -34 -10 15 26 24 43 46 38 48 -5 3 -27 -12 -49 -33z"/>
<path d="M1560 3419 l25 -19 -28 10 c-38 14 -39 13 -31 -12 9 -32 26 -40 40
-20 12 15 13 15 8 -3 -3 -14 6 -33 28 -59 l34 -39 17 27 c14 21 15 26 3 26 -8
0 -16 -10 -19 -22 -3 -22 -4 -22 -12 -3 -4 11 -17 30 -28 42 -16 19 -18 25 -7
38 15 18 1 40 -33 49 -21 5 -21 4 3 -15z"/>
<path d="M1710 3431 c0 -7 -10 -27 -22 -44 -19 -26 -20 -30 -4 -24 10 4 36 10
58 13 25 4 35 10 27 15 -7 4 -21 3 -30 -2 -12 -6 -20 -5 -25 3 -4 6 -3 8 4 4
18 -11 25 15 8 32 -12 12 -16 13 -16 3z"/>
<path d="M0 3411 c0 -5 11 -23 25 -39 20 -24 25 -42 27 -88 l1 -59 6 65 c5 56
3 66 -12 74 -10 5 -16 14 -14 20 5 12 8 12 47 2 20 -5 19 -3 -5 8 -48 22 -75
28 -75 17z"/>
<path d="M1996 3381 c-11 -12 -25 -17 -34 -14 -14 5 -15 3 -5 -7 10 -11 17
-10 37 4 15 9 26 21 26 26 0 14 -5 12 -24 -9z"/>
<path d="M310 3362 c0 -6 21 -13 48 -17 77 -10 112 -16 112 -19 0 -2 -20 -34
-45 -70 -25 -37 -45 -75 -45 -85 0 -9 -5 -22 -10 -27 -8 -8 8 -14 52 -21 85
-15 163 -45 237 -93 76 -49 171 -140 171 -164 0 -9 -4 -15 -9 -12 -5 3 -11 -4
-15 -17 -10 -37 -7 -41 14 -17 33 38 34 58 4 97 -22 29 -24 37 -13 45 10 7 8
8 -7 3 -17 -4 -27 3 -49 36 -35 54 -103 127 -129 141 -12 6 3 -13 32 -41 63
-61 72 -95 13 -53 -21 15 -36 31 -33 36 3 5 0 6 -6 2 -6 -4 -35 5 -63 20 -55
27 -100 40 -158 43 -11 1 -10 5 3 20 10 11 16 23 13 28 -3 4 12 33 32 63 32
48 40 55 66 52 17 -2 39 -7 50 -12 58 -27 208 -83 347 -129 155 -51 158 -52
183 -34 30 23 40 44 23 55 -21 13 -28 9 -28 -17 0 -33 -12 -32 -123 11 -224
88 -357 136 -427 155 -91 24 -240 37 -240 21z"/>
<path d="M1718 3353 c6 -2 12 -16 12 -29 0 -31 14 -31 28 0 13 29 7 36 -27 35
-14 0 -20 -3 -13 -6z"/>
<path d="M1684 3328 c0 -13 -5 -32 -9 -43 -8 -18 -7 -19 8 -6 9 7 17 26 17 42
0 34 -15 40 -16 7z"/>
<path d="M1390 3311 c0 -7 -4 -10 -9 -6 -12 7 -34 -31 -29 -47 2 -6 15 3 27
21 13 18 20 35 17 38 -3 4 -6 1 -6 -6z"/>
<path d="M1760 3305 c0 -11 -17 -37 -37 -58 -30 -32 -33 -37 -13 -26 31 17 43
18 52 4 5 -6 8 -3 8 8 0 9 -5 17 -10 17 -6 0 -3 11 6 26 13 19 14 28 5 37 -8
8 -11 6 -11 -8z"/>
<path d="M1530 3285 c0 -3 12 -16 27 -29 l26 -23 -25 -36 c-14 -20 -28 -34
-32 -29 -4 4 -6 0 -4 -8 2 -10 -4 -15 -20 -14 -12 0 -21 -4 -19 -10 8 -24 38
-8 71 38 25 36 37 45 41 35 7 -18 85 -26 85 -8 0 7 -9 9 -26 5 -21 -6 -33 1
-71 39 -45 44 -53 50 -53 40z"/>
<path d="M1617 3256 c10 -13 20 -20 22 -14 2 6 7 4 12 -3 6 -9 9 -10 9 -2 0
12 -38 43 -53 43 -4 0 0 -11 10 -24z"/>
<path d="M1023 3239 c21 -12 22 -29 2 -29 -8 0 -15 5 -15 11 0 5 -4 7 -10 4
-18 -11 -10 -23 20 -30 16 -4 32 -11 35 -16 4 -5 12 -9 18 -9 7 0 4 5 -5 11
-10 5 -18 18 -18 27 0 20 -18 42 -34 42 -6 0 -3 -5 7 -11z"/>
<path d="M2077 3215 c3 -23 2 -27 -6 -15 -6 8 -11 10 -11 5 0 -13 20 -35 32
-35 4 0 8 11 8 25 0 14 -4 25 -9 25 -5 0 -11 6 -14 13 -2 6 -2 -1 0 -18z"/>
<path d="M1755 3190 c-4 -11 -11 -18 -16 -15 -15 10 -10 -11 5 -24 11 -9 16
-9 21 0 6 8 10 7 16 -2 13 -21 11 -32 -7 -25 -10 4 -14 1 -12 -6 3 -7 11 -13
19 -13 22 0 22 39 0 59 -11 10 -17 24 -14 32 3 8 3 14 0 14 -3 0 -9 -9 -12
-20z"/>
<path d="M671 3153 c1 -12 79 -77 79 -66 0 5 -18 24 -40 42 -22 17 -40 28 -39
24z"/>
<path d="M2651 3092 c-1 -40 3 -61 9 -57 6 3 10 12 10 18 0 7 10 21 23 32 l22
20 -21 3 c-12 2 -26 13 -32 25 -9 18 -11 11 -11 -41z"/>
<path d="M1665 3121 c-3 -12 -12 -21 -18 -21 -15 -1 18 -20 41 -25 14 -2 18 4
17 28 0 38 -29 50 -40 18z"/>
<path d="M278 3100 c-15 -4 -44 -18 -63 -30 -28 -18 -33 -25 -23 -34 7 -6 19
-18 27 -26 12 -13 13 -13 8 2 -4 13 -2 15 10 11 10 -4 14 -2 10 4 -9 15 62 33
129 33 86 0 180 -26 251 -68 63 -36 72 -45 53 -57 -18 -11 0 -25 34 -25 28 0
36 -5 50 -34 20 -43 20 -46 -1 -41 -47 9 -73 18 -73 24 0 4 -7 8 -15 8 -27 0
-16 -12 44 -42 l58 -31 11 41 c11 39 10 41 -34 85 -115 119 -330 193 -449 156
-64 -20 -78 -20 -41 1 17 9 64 19 105 23 l76 7 -70 1 c-38 0 -82 -3 -97 -8z"/>
<path d="M2578 3066 c-20 -7 -28 -17 -28 -33 0 -13 5 -23 10 -23 6 0 10 5 10
10 0 19 32 10 37 -11 4 -15 11 -19 27 -15 11 3 27 6 34 6 7 0 10 5 7 10 -3 6
-16 8 -29 4 -19 -4 -24 0 -32 28 -8 32 -11 33 -36 24z"/>
<path d="M1406 3045 c-4 -11 -17 -14 -45 -12 -27 2 -38 0 -34 -9 9 -23 103 1
103 26 0 16 -17 12 -24 -5z"/>
<path d="M1204 2986 c-26 -25 -51 -43 -56 -40 -4 3 -8 -2 -8 -11 0 -8 -12 -21
-27 -28 -16 -6 -34 -18 -42 -25 -7 -7 -19 -11 -26 -8 -7 2 -15 -4 -18 -14 -5
-19 -4 -19 27 -3 48 24 139 88 191 133 36 31 42 40 26 40 -10 0 -41 -20 -67
-44z"/>
<path d="M1280 2995 c-13 -14 -20 -25 -16 -25 12 0 56 32 56 41 0 16 -16 10
-40 -16z"/>
<path d="M231 2933 c-6 -38 -14 -81 -17 -98 -6 -30 -6 -30 14 -10 15 15 21 39
26 98 3 42 2 77 -3 77 -5 0 -14 -30 -20 -67z"/>
<path d="M1709 2931 c-18 -43 -28 -53 -75 -75 -36 -17 -62 -38 -80 -66 -25
-37 -26 -43 -15 -86 7 -25 30 -74 51 -108 43 -66 52 -69 20 -5 -12 22 -25 52
-31 67 l-10 27 23 -22 c94 -88 248 -35 248 86 0 21 4 29 13 25 8 -3 20 2 27
11 11 14 10 19 -5 33 -18 16 -18 16 -6 0 12 -15 10 -19 -15 -29 -16 -7 -34
-13 -41 -15 -17 -3 -60 -34 -47 -34 5 0 19 7 30 15 12 8 24 11 28 8 10 -10 7
-35 -3 -28 -5 3 -13 0 -17 -6 -4 -8 -3 -9 4 -5 21 13 13 -32 -9 -53 -33 -30
-75 -44 -114 -37 -37 7 -48 26 -16 26 11 0 23 5 27 12 4 7 3 8 -4 4 -7 -4 -12
-3 -12 2 0 5 9 12 20 15 11 3 20 10 20 17 0 11 -54 -22 -65 -40 -4 -6 -17 -10
-31 -10 -14 0 -23 4 -20 9 3 4 -7 14 -22 21 -16 8 -22 14 -14 17 7 3 19 0 26
-6 14 -12 68 -12 60 0 -2 4 3 12 12 19 20 18 -1 32 -36 23 -22 -6 -24 -5 -11
10 14 18 9 47 -9 47 -5 0 -10 -8 -10 -17 0 -14 -2 -15 -9 -4 -14 22 -24 -6
-10 -30 9 -18 17 -20 47 -16 35 6 36 5 17 -9 -21 -16 -71 -12 -89 6 -18 18 20
78 63 100 22 11 47 20 55 20 16 0 48 56 60 103 10 42 -1 32 -25 -22z"/>
<path d="M1670 2931 c0 -10 -7 -24 -15 -31 -9 -7 -13 -15 -11 -18 8 -7 33 21
40 46 5 13 3 22 -3 22 -6 0 -11 -8 -11 -19z"/>
<path d="M2904 2908 c-21 -22 -32 -37 -24 -32 8 5 19 9 24 9 11 0 51 53 45 60
-3 2 -23 -14 -45 -37z"/>
<path d="M1553 2913 l-20 -18 25 -19 c21 -16 24 -17 19 -3 -3 8 -2 17 2 19 5
2 5 11 2 21 -6 17 -7 17 -28 0z"/>
<path d="M2974 2872 l-20 -38 23 10 c16 8 23 20 23 39 0 15 -1 27 -2 27 -2 0
-12 -17 -24 -38z"/>
<path d="M2600 2872 c0 -5 11 -19 25 -32 14 -13 25 -18 25 -12 0 7 10 12 23
13 15 0 17 2 7 6 -8 3 -17 9 -20 13 -8 11 -60 21 -60 12z"/>
<path d="M1406 2859 c-3 -8 -7 -36 -9 -63 -3 -47 -21 -74 -29 -44 -2 9 -10 6
-25 -9 l-22 -23 43 0 43 0 7 71 c7 66 3 100 -8 68z"/>
<path d="M351 2844 c-76 -16 -160 -55 -187 -86 -17 -19 -17 -21 -1 -15 16 6
17 -4 17 -111 l1 -117 18 35 c14 26 16 40 9 54 -7 12 -7 16 0 12 11 -6 10 24
-1 54 -3 8 -8 29 -11 47 -7 41 22 65 110 92 130 41 251 36 361 -14 60 -28 77
-53 70 -106 -3 -21 0 -42 6 -48 9 -9 8 -14 -3 -21 -18 -11 -43 8 -36 27 3 8 1
11 -4 8 -8 -5 -14 13 -12 36 2 12 -24 4 -40 -12 -16 -17 -15 -19 19 -41 20
-12 50 -36 66 -53 l28 -30 -6 99 c-4 62 -3 96 3 92 21 -13 20 25 -1 38 -103
68 -263 91 -406 60z"/>
<path d="M1510 2850 c0 -15 38 -32 45 -20 3 5 3 15 0 20 -8 13 -45 13 -45 0z"/>
<path d="M2562 2826 c-6 -14 -32 -37 -57 -52 -41 -24 -46 -30 -40 -53 4 -14
10 -28 15 -31 5 -3 13 -17 19 -31 7 -20 19 -28 48 -33 21 -3 49 -15 63 -26
l25 -19 -51 16 c-55 17 -89 13 -123 -14 -22 -18 -22 -18 21 -18 24 0 48 5 53
11 18 20 72 -11 80 -45 4 -20 13 -30 31 -34 28 -5 28 -5 9 32 -8 16 -11 31 -8
35 3 3 -1 14 -9 23 -9 10 -23 33 -33 52 -13 26 -19 31 -26 20 -5 -9 -9 -10 -9
-2 0 6 -3 19 -7 29 -3 10 -2 15 3 12 5 -4 9 27 9 73 0 43 0 79 -1 79 0 0 -6
-11 -12 -24z m-36 -97 c3 -6 2 -15 -4 -21 -8 -8 -6 -15 4 -25 16 -17 19 -36 3
-31 -6 2 -10 8 -10 13 0 6 -7 17 -15 27 -11 11 -12 18 -4 23 5 3 8 11 5 16 -4
5 -2 9 4 9 5 0 13 -5 17 -11z"/>
<path d="M1684 2805 c4 -14 3 -25 -1 -24 -29 5 -34 -3 -9 -16 36 -19 35 -20
30 15 -3 17 -1 30 5 30 6 0 11 5 11 10 0 6 -9 10 -21 10 -18 0 -20 -4 -15 -25z"/>
<path d="M2934 2807 c-4 -7 -14 -23 -23 -36 l-15 -24 37 24 c20 13 37 27 37
30 0 13 -30 18 -36 6z"/>
<path d="M1763 2783 c-10 -15 -14 -15 -21 -5 -7 11 -10 11 -15 -2 -5 -12 0
-16 16 -16 23 0 47 17 47 32 0 14 -15 9 -27 -9z"/>
<path d="M1924 2732 l1 -47 40 0 c35 0 40 3 37 21 -1 11 2 32 7 46 9 24 8 25
-38 26 l-48 1 1 -47z"/>
<path d="M2937 2739 c-21 -11 -43 -17 -49 -13 -7 4 -8 3 -4 -4 3 -6 -3 -16
-15 -22 -11 -7 -18 -14 -15 -17 3 -4 14 1 23 10 10 8 43 27 73 41 30 14 48 26
40 25 -8 0 -32 -9 -53 -20z"/>
<path d="M1736 2725 c4 -15 1 -32 -6 -40 -14 -17 0 -21 16 -5 12 12 6 70 -7
70 -5 0 -7 -11 -3 -25z"/>
<path d="M2356 2716 c-19 -9 -25 -16 -17 -21 17 -10 58 2 65 20 6 18 -8 18
-48 1z"/>
<path d="M1210 2690 c-60 -6 -62 -7 -20 -9 127 -9 230 -6 230 7 0 13 -89 14
-210 2z"/>
<path d="M1000 2674 c-46 -15 -66 -19 -157 -30 -38 -5 -53 -3 -53 5 0 7 -4 9
-10 6 -5 -3 -10 -13 -10 -21 0 -21 99 -17 185 7 39 11 86 24 105 28 19 5 30 9
23 10 -6 0 -17 3 -25 5 -7 2 -33 -3 -58 -10z"/>
<path d="M2390 2684 c0 -3 5 -14 11 -25 8 -17 7 -24 -8 -35 -17 -14 -17 -14 4
-4 29 13 36 26 28 50 -6 17 -35 29 -35 14z"/>
<path d="M400 2671 c-83 -27 -144 -75 -201 -158 -22 -32 -29 -51 -25 -69 6
-24 26 -34 26 -13 0 6 9 24 21 40 11 16 18 36 15 44 -13 35 111 111 197 121
46 5 69 2 119 -16 35 -12 68 -27 75 -32 7 -5 17 -7 23 -3 5 3 15 -6 22 -21 10
-22 10 -28 -6 -39 -10 -8 -15 -18 -11 -24 13 -22 -6 -30 -26 -10 -28 28 -79
49 -169 70 -41 9 -66 18 -55 18 18 2 18 3 -5 15 -32 19 -37 14 -35 -31 3 -42
22 -55 41 -28 10 14 22 16 57 11 60 -9 167 -61 167 -81 0 -28 -32 -160 -41
-169 -5 -6 -11 -3 -14 6 -4 10 -14 14 -26 11 -11 -3 -21 1 -25 11 -8 20 -24
21 -24 1 0 -8 16 -19 38 -24 21 -6 46 -17 57 -25 28 -22 35 -20 35 10 0 37 27
136 57 212 l26 65 24 -29 c12 -16 23 -23 23 -15 0 24 -69 80 -146 117 -78 38
-164 52 -214 35z"/>
<path d="M1920 2649 c0 -13 -3 -34 -6 -46 -6 -21 -3 -23 40 -23 25 0 46 4 46
9 0 17 -20 23 -35 11 -18 -15 -35 -5 -35 21 0 28 30 37 46 14 13 -18 14 -18
14 -1 0 14 7 17 43 14 42 -4 42 -4 43 -44 0 -22 6 -49 13 -60 10 -16 11 -8 6
41 -4 33 -10 63 -13 67 -4 4 -42 10 -84 14 -77 7 -78 7 -78 -17z"/>
<path d="M2913 2653 c-10 -24 -48 -56 -120 -99 -35 -20 -63 -41 -63 -45 0 -15
18 -10 28 7 6 11 16 13 35 9 20 -5 27 -14 29 -37 4 -39 50 -70 72 -48 8 8 16
41 18 73 3 32 1 52 -3 45 -5 -7 -9 -32 -9 -55 0 -23 -5 -45 -10 -48 -13 -8
-42 14 -34 26 3 5 1 9 -4 9 -5 0 -14 12 -21 27 -10 22 -9 29 3 42 15 14 16 13
17 -4 0 -15 4 -13 14 10 15 34 42 51 98 60 20 3 37 10 37 16 0 5 -17 7 -40 3
-25 -4 -40 -3 -40 4 0 6 6 13 13 15 9 4 9 6 -1 6 -7 1 -16 -7 -19 -16z"/>
<path d="M2246 2646 c5 -13 4 -17 -4 -12 -6 3 -14 0 -19 -7 -4 -8 -21 -22 -36
-32 -15 -10 -32 -26 -38 -36 -8 -16 -2 -15 41 7 28 14 55 22 60 19 6 -3 10
-24 10 -46 0 -32 6 -45 33 -69 44 -40 82 -53 98 -34 10 13 10 17 0 24 -9 5
-10 10 -3 14 6 3 13 -3 17 -14 6 -20 25 -28 25 -11 0 5 10 7 23 5 20 -4 20 -4
2 5 -11 4 -23 7 -26 5 -4 -2 -12 10 -19 26 -12 30 -13 30 -27 10 -8 -11 -11
-29 -8 -40 10 -31 -19 -25 -49 11 -14 17 -26 27 -26 22 -1 -27 -20 28 -20 57
0 25 -6 39 -21 48 -17 11 -18 16 -8 28 10 12 10 17 0 27 -10 9 -11 8 -5 -7z"/>
<path d="M1110 2629 c0 -17 -4 -19 -22 -13 -13 4 -27 7 -33 6 -22 -2 -41 -8
-55 -17 -8 -5 -19 -10 -25 -10 -5 0 -15 -16 -21 -35 -8 -23 -18 -35 -30 -35
-9 0 -19 -6 -22 -13 -2 -7 2 -10 12 -6 9 4 30 -9 55 -35 22 -23 46 -41 52 -41
7 0 1 10 -12 21 -16 15 -20 23 -11 26 6 3 12 9 12 15 0 6 -7 8 -15 4 -26 -10
-19 51 10 79 18 19 35 25 70 25 41 0 45 2 45 25 0 14 -2 25 -5 25 -3 0 -5 -9
-5 -21z m-139 -94 c-4 -32 -9 -44 -13 -33 -6 15 9 95 16 86 2 -1 0 -25 -3 -53z"/>
<path d="M2823 2623 c-24 -13 -43 -29 -43 -33 0 -7 66 31 99 57 16 12 -22 -3
-56 -24z"/>
<path d="M1379 2606 c-2 -2 -57 -6 -121 -8 -109 -3 -137 -8 -105 -21 6 -2 30
-3 52 -1 210 16 233 15 240 -6 3 -11 17 -33 31 -49 l24 -29 -59 5 c-67 6 -211
-5 -211 -16 0 -5 33 -13 73 -20 70 -11 373 -91 430 -113 19 -8 31 -8 38 -1 18
18 6 48 -20 51 -15 2 -21 0 -17 -7 9 -14 -15 -5 -119 47 -99 49 -136 79 -160
131 -15 33 -23 41 -45 41 -15 0 -29 -2 -31 -4z m205 -186 c6 -6 -4 -5 -25 1
-19 6 -44 13 -56 16 -16 4 -19 8 -11 17 9 9 20 8 47 -6 19 -10 39 -22 45 -28z"/>
<path d="M1852 2590 c18 -28 -4 -50 -32 -32 -15 9 -18 9 -14 -1 2 -7 13 -18
24 -24 16 -11 21 -9 34 19 12 23 13 34 5 44 -18 21 -31 16 -17 -6z"/>
<path d="M2427 2582 c-18 -20 -22 -68 -8 -91 6 -10 8 0 4 27 -4 32 -1 47 12
62 10 11 16 20 13 20 -3 0 -12 -8 -21 -18z"/>
<path d="M2328 2566 c-13 -10 -15 -15 -6 -24 16 -16 26 -15 44 3 9 8 11 15 5
15 -5 0 -13 -5 -16 -10 -4 -6 -11 -8 -16 -4 -6 4 -6 11 2 20 14 17 9 17 -13 0z"/>
<path d="M1093 2558 c-27 -13 -29 -24 -7 -32 22 -9 32 3 14 14 -13 8 -12 10 3
10 9 0 17 5 17 10 0 12 1 12 -27 -2z"/>
<path d="M1900 2557 c0 -28 -43 -66 -116 -105 l-72 -37 129 0 c94 0 130 3 134
12 3 10 -16 13 -77 13 -71 0 -79 2 -68 15 9 11 16 13 24 5 21 -21 46 -11 46
18 0 68 4 71 91 65 56 -4 79 -2 79 6 0 6 -16 11 -39 11 -21 0 -59 3 -85 6 -38
6 -46 4 -46 -9z"/>
<path d="M2240 2535 c0 -8 -4 -15 -9 -15 -5 0 -12 -7 -15 -16 -3 -8 -2 -12 4
-9 6 4 10 -8 10 -29 0 -19 4 -38 10 -41 6 -4 9 19 8 60 -1 36 -4 65 -5 65 -2
0 -3 -7 -3 -15z"/>
<path d="M2517 2520 c-6 -25 7 -34 39 -26 27 7 28 33 0 28 -9 -2 -16 2 -16 8
0 18 -17 11 -23 -10z"/>
<path d="M2080 2505 c0 -9 -9 -19 -21 -22 -15 -4 -17 -8 -8 -14 8 -5 0 -12
-24 -23 -41 -17 -44 -21 -21 -30 10 -4 13 -2 8 7 -4 6 -3 9 1 4 5 -4 21 4 36
19 15 14 35 24 45 22 10 -1 40 -31 68 -65 34 -41 57 -61 69 -58 24 5 22 -16
-3 -22 -21 -6 -26 -18 -11 -28 5 -3 12 -1 16 5 3 5 10 10 16 10 16 0 10 -15
-12 -28 -16 -10 -24 -10 -35 -1 -7 6 -12 15 -9 19 3 4 -2 10 -10 14 -17 6 -20
-9 -4 -20 7 -4 9 -23 5 -50 -5 -36 -3 -44 10 -44 12 0 15 7 11 25 -2 14 -2 23
1 20 3 -2 11 4 19 15 8 11 21 20 30 20 12 0 14 8 10 38 -4 26 -17 47 -43 70
-21 17 -35 34 -33 37 3 2 26 -16 52 -40 67 -64 80 -130 39 -192 -8 -13 -11
-23 -8 -23 4 0 0 -10 -8 -22 -12 -18 -13 -32 -6 -63 5 -22 10 -55 10 -72 0
-18 5 -33 10 -33 12 0 12 -4 1 83 -8 61 -7 74 15 127 13 33 24 74 24 92 0 39
-28 89 -65 114 -15 11 -36 27 -46 37 -11 10 -24 15 -29 12 -6 -4 -10 0 -10 7
0 7 -10 19 -22 27 -13 8 -33 21 -45 29 -21 13 -23 13 -23 -3z"/>
<path d="M1968 2483 c-10 -11 -18 -23 -18 -26 0 -11 48 -8 55 3 3 6 2 10 -4
10 -5 0 -11 7 -13 16 -3 14 -5 14 -20 -3z"/>
<path d="M870 2464 c-13 -33 -13 -54 1 -54 6 0 9 -7 5 -15 -3 -8 -1 -15 4 -15
6 0 9 -10 9 -22 -1 -18 -2 -19 -6 -5 -8 31 -23 7 -23 -37 0 -29 -9 -56 -28
-87 -63 -100 -75 -122 -64 -115 18 11 14 -3 -14 -51 -14 -24 -29 -41 -35 -38
-15 10 -10 -22 6 -35 9 -8 28 -10 50 -6 44 9 55 26 16 26 -54 0 -51 15 20 123
21 31 35 57 31 57 -4 0 -13 -9 -20 -21 -7 -12 -16 -19 -19 -16 -3 3 4 19 16
36 12 17 33 54 46 83 17 37 24 46 24 30 1 -12 -8 -40 -19 -61 -17 -34 -17 -41
-5 -57 12 -14 14 -15 9 -3 -3 9 2 33 10 54 9 21 16 51 16 67 0 32 32 74 49 63
6 -3 11 -2 11 3 0 20 -15 21 -35 2 l-22 -20 -11 52 c-9 35 -9 55 -2 62 7 7 10
5 10 -6 0 -11 6 -15 20 -11 11 3 20 0 20 -6 0 -6 5 -11 10 -11 22 0 8 30 -20
45 -40 21 -49 19 -60 -11z"/>
<path d="M2263 2466 c0 -8 3 -14 6 -12 3 2 15 -8 25 -21 l19 -26 -27 5 c-21 4
-24 3 -15 -8 11 -14 169 -14 202 0 9 5 17 4 17 0 -1 -11 -81 -62 -120 -77 -17
-6 -30 -18 -30 -25 0 -10 17 -4 56 18 38 21 59 28 64 21 7 -12 39 15 38 33 0
12 54 46 75 46 9 0 17 7 17 15 0 12 13 15 56 15 51 0 55 2 43 16 -22 26 -126
15 -177 -19 -53 -35 -122 -50 -159 -36 -15 5 -42 24 -59 40 -21 20 -31 25 -31
15z"/>
<path d="M233 2415 c4 -25 14 -59 22 -75 9 -17 16 -46 17 -65 1 -39 1 -39 26
-25 9 5 43 21 75 34 41 18 57 30 56 43 -1 17 -2 17 -6 1 -7 -29 -23 -20 -23
12 0 17 -4 30 -10 30 -5 0 -10 -11 -10 -24 0 -24 -13 -39 -36 -42 -6 -1 -21
-5 -32 -8 -16 -5 -21 -1 -26 21 -29 127 -66 195 -53 98z"/>
<path d="M1250 2439 c25 -12 65 -23 90 -25 42 -4 40 -3 -20 14 -36 10 -76 21
-90 25 -14 4 -5 -2 20 -14z"/>
<path d="M2050 2425 c-13 -14 -30 -23 -36 -21 -7 3 -14 1 -16 -4 -3 -11 -37
-13 -88 -6 -26 4 -20 1 20 -13 30 -10 89 -22 130 -26 68 -7 73 -8 55 -22 -23
-16 -90 -11 -184 14 -31 8 -65 16 -76 17 -29 2 -32 33 -3 39 22 4 22 4 -2 6
-20 1 -28 -6 -38 -31 -14 -39 -5 -48 50 -48 20 0 72 -7 115 -15 43 -8 102 -15
132 -15 53 0 53 0 46 28 -10 44 -39 94 -61 109 -18 12 -23 10 -44 -12z m35
-35 c18 -19 17 -20 -7 -20 -30 0 -38 7 -31 26 7 19 17 18 38 -6z"/>
<path d="M2968 2433 c6 -2 12 -9 12 -14 0 -4 -6 -6 -14 -3 -8 3 -17 1 -20 -4
-3 -6 -15 -8 -26 -5 -11 3 -20 1 -20 -4 0 -19 11 -20 53 -8 47 14 65 46 25 44
-13 0 -17 -3 -10 -6z"/>
<path d="M1392 2390 c-11 -17 -10 -20 7 -20 11 0 21 4 23 10 2 5 22 1 46 -10
23 -10 42 -15 42 -10 0 6 -5 10 -10 10 -6 0 -30 9 -52 20 -23 11 -42 20 -42
20 -1 0 -7 -9 -14 -20z"/>
<path d="M2565 2400 c-19 -8 -19 -9 2 -9 26 -1 38 -17 19 -24 -12 -5 -13 -11
-3 -37 10 -27 10 -33 -6 -41 -9 -6 -17 -16 -17 -24 0 -10 7 -11 34 -4 19 5 43
6 57 1 21 -8 20 -10 -16 -16 -22 -4 -44 -11 -50 -15 -5 -4 -35 -18 -65 -30
-44 -18 -132 -67 -160 -88 -2 -2 1 -8 8 -12 8 -5 24 3 44 21 16 15 34 28 39
28 5 0 42 16 82 35 39 19 77 35 83 35 6 0 16 -19 23 -42 7 -22 20 -48 28 -57
17 -16 16 -7 -3 92 -4 20 -2 27 10 27 25 0 19 16 -13 39 -19 14 -31 33 -35 58
-14 77 -18 81 -61 63z"/>
<path d="M530 2377 c0 -23 11 -47 21 -47 14 0 10 30 -6 46 -13 14 -15 14 -15
1z"/>
<path d="M1535 2360 c-11 -5 -15 -9 -8 -9 11 -1 10 -29 -4 -76 -10 -37 5 -10
25 43 21 54 20 56 -13 42z"/>
<path d="M2716 2353 c-2 -10 -7 -29 -11 -43 l-6 -25 20 25 c21 26 28 60 12 60
-5 0 -12 -8 -15 -17z"/>
<path d="M1690 2261 c-38 -63 -100 -193 -100 -207 0 -2 21 -3 48 -3 26 1 37 4
25 6 -21 4 -27 12 -20 31 1 4 5 6 8 5 4 -1 6 3 6 10 -2 55 4 67 28 67 32 0 69
-70 59 -112 -5 -27 -4 -28 39 -28 24 0 73 -10 108 -22 35 -11 76 -20 92 -19
15 1 41 -6 57 -14 27 -14 30 -14 40 4 7 13 7 22 0 26 -5 3 -10 -1 -10 -9 0 -9
-4 -16 -10 -16 -5 0 -10 7 -10 15 0 10 -10 15 -28 15 -16 0 -37 6 -48 14 -34
26 5 28 90 6 95 -24 97 -24 90 -5 -3 8 -11 13 -16 12 -6 -1 -13 4 -16 12 -2 8
0 11 5 8 5 -3 8 4 7 16 -1 12 -3 25 -3 30 -2 14 -20 7 -31 -13 -9 -16 -8 -18
5 -14 19 8 19 -3 1 -21 -17 -18 -80 -9 -98 13 -8 10 -9 13 -1 9 7 -5 14 6 18
33 7 42 27 52 55 28 12 -11 12 -10 2 3 -6 9 -9 19 -5 22 3 4 -5 7 -20 7 -21 0
-30 -8 -45 -42 -11 -24 -33 -59 -50 -78 l-30 -35 -59 30 c-66 34 -159 118
-148 134 4 7 -4 11 -19 11 -14 0 -26 2 -26 5 0 3 14 33 31 66 44 89 31 89 -21
0z"/>
<path d="M797 2316 c-3 -8 1 -17 10 -20 20 -8 27 -1 20 19 -8 19 -23 20 -30 1z"/>
<path d="M1061 2326 c9 -10 145 -46 173 -46 13 0 26 -5 28 -10 2 -6 54 -20
116 -32 61 -11 112 -24 112 -27 0 -3 -4 -12 -9 -19 -7 -12 -27 -10 -112 8 -57
12 -148 24 -201 27 -54 3 -98 7 -98 9 0 1 5 15 11 31 16 42 -7 14 -26 -32 -9
-22 -11 -35 -4 -28 15 15 148 8 269 -13 119 -21 153 -33 146 -51 -3 -8 -6 -17
-6 -19 0 -3 -4 -2 -10 1 -5 3 -10 1 -10 -5 0 -8 -6 -8 -20 0 -16 9 -20 8 -20
-5 0 -8 4 -15 9 -15 5 0 17 -3 25 -6 13 -5 24 12 52 71 19 42 34 78 32 79 -3
3 -376 75 -433 84 -16 2 -27 2 -24 -2z"/>
<path d="M1786 2317 c-5 -10 -6 -35 -3 -56 6 -44 0 -57 -28 -63 -18 -4 -16 -6
9 -17 16 -6 31 -10 33 -8 2 3 3 40 1 83 -2 54 -6 73 -12 61z"/>
<path d="M1836 2312 c-2 -4 -6 -44 -7 -87 l-2 -80 43 -33 c48 -37 43 -38 84
23 11 16 16 18 29 7 11 -9 17 -10 22 -2 11 17 3 21 -72 32 -97 15 -94 14 -87
45 4 16 12 31 18 35 8 5 7 8 -1 8 -20 0 -16 48 5 53 13 4 12 5 -5 6 -12 0 -24
-3 -27 -7z m96 -178 c-3 -17 -8 -22 -15 -15 -5 5 -15 7 -22 5 -7 -3 -15 2 -19
11 -3 9 -2 14 2 11 4 -2 14 -1 22 5 26 16 37 10 32 -17z"/>
<path d="M2867 2307 c-10 -27 -9 -347 2 -347 5 0 9 46 9 103 0 207 1 217 17
217 8 0 15 5 15 11 0 6 -6 9 -14 6 -9 -4 -16 1 -18 11 -3 15 -4 15 -11 -1z"/>
<path d="M512 2284 c25 -8 66 -32 90 -54 23 -22 41 -40 38 -40 -3 0 -32 11
-65 25 -33 13 -80 25 -105 25 -57 0 -140 -22 -183 -49 -73 -45 -47 -9 28 40
47 30 16 22 -40 -10 -71 -41 -81 -54 -50 -71 25 -13 44 -47 70 -121 19 -53 19
-93 0 -109 -9 -7 -14 -15 -11 -17 8 -8 -27 -119 -51 -160 -24 -42 -24 -63 1
-63 8 0 19 -7 26 -15 7 -8 16 -13 20 -10 4 3 13 -2 20 -9 13 -17 10 -61 -8
-93 -13 -24 -4 -31 16 -11 8 8 15 8 27 -2 15 -13 14 -15 -7 -33 -17 -14 -19
-17 -5 -13 10 3 24 6 30 6 7 0 17 10 22 22 14 31 27 31 49 2 18 -26 18 -26 -3
-47 -13 -13 -21 -16 -21 -9 0 7 -4 10 -10 7 -16 -10 -12 -22 8 -22 9 0 29 11
44 24 14 14 31 22 36 19 5 -3 18 7 28 22 14 21 14 24 2 14 -14 -11 -18 -6 -29
38 -7 27 -16 50 -21 50 -11 0 -10 -7 6 -62 12 -37 12 -47 2 -51 -16 -6 -66 56
-66 82 0 11 -5 23 -12 27 -8 5 -9 -2 -5 -24 4 -20 1 -34 -8 -42 -26 -21 -45
-4 -45 40 0 52 -24 100 -50 100 -13 0 -20 7 -20 19 0 11 -3 27 -7 37 -4 11 -3
15 4 11 6 -4 13 0 17 8 3 10 19 15 46 15 38 0 40 2 40 29 0 17 -4 32 -9 35 -5
4 -7 -3 -4 -14 3 -13 -1 -22 -11 -26 -24 -9 -32 4 -17 28 11 18 11 20 -3 15
-9 -4 -16 -2 -16 3 0 39 132 86 208 75 62 -9 67 -13 43 -39 -22 -23 -36 -112
-22 -135 12 -18 17 -6 30 63 11 61 33 106 52 106 6 0 3 8 -7 17 -14 15 -16 31
-11 113 7 117 12 133 43 126 22 -6 22 -4 13 23 -6 16 -20 38 -32 49 -20 19
-117 53 -141 51 -6 -1 10 -8 36 -15z m23 -78 c39 -17 42 -28 21 -77 -9 -21
-12 -52 -9 -82 5 -43 4 -47 -13 -40 -17 6 -17 5 -5 -10 11 -14 11 -17 0 -18
-8 0 0 -7 16 -14 17 -8 26 -14 20 -15 -5 0 1 -8 15 -16 15 -9 17 -13 6 -10
-104 33 -166 32 -251 -3 l-50 -21 28 23 c15 12 27 28 27 35 0 7 4 11 9 7 6 -3
15 4 21 15 13 25 4 46 -14 31 -17 -14 -33 -1 -42 34 -4 17 -18 46 -30 67 -28
44 -23 50 69 84 72 27 133 30 182 10z"/>
<path d="M513 2105 c0 -33 2 -45 4 -27 2 18 2 45 0 60 -2 15 -4 0 -4 -33z"/>
<path d="M0 2279 c0 -7 58 -27 95 -33 6 -1 15 -5 22 -9 6 -4 14 -3 17 2 7 11
-12 19 -81 36 -29 7 -53 9 -53 4z"/>
<path d="M2146 2251 c-15 -40 -15 -42 5 -62 15 -15 24 -18 32 -10 8 8 6 11 -6
11 -20 0 -20 4 -8 46 14 50 -4 62 -23 15z"/>
<path d="M1554 2225 c-4 -8 -10 -13 -14 -10 -5 3 -11 1 -14 -4 -7 -10 9 -9 36
3 9 4 25 3 36 -3 11 -6 22 -8 26 -4 6 6 -39 33 -55 33 -6 0 -12 -7 -15 -15z"/>
<path d="M2000 2214 c0 -13 -7 -15 -36 -10 -19 4 -43 10 -52 13 -9 3 -14 3
-11 -1 4 -4 30 -13 58 -21 51 -13 51 -13 51 11 0 13 -2 24 -5 24 -3 0 -5 -7
-5 -16z"/>
<path d="M2740 2220 c-10 -6 -11 -12 -3 -22 6 -7 13 -28 16 -46 9 -57 16 -47
10 15 -3 32 -6 59 -7 60 -1 1 -8 -2 -16 -7z"/>
<path d="M1037 2180 c-14 -11 -29 -20 -35 -20 -5 0 -15 -20 -22 -45 -12 -42
-11 -47 6 -59 10 -8 24 -12 31 -9 7 3 13 0 13 -7 0 -8 9 -10 24 -6 14 3 27 2
30 -3 3 -5 17 -8 31 -8 14 0 31 -8 38 -16 8 -11 35 -19 77 -23 70 -7 84 -14
110 -57 l18 -28 36 58 37 58 -43 6 c-24 4 -124 17 -223 29 -99 13 -181 24
-182 25 -8 5 24 66 37 70 14 5 57 55 47 55 -2 0 -16 -9 -30 -20z"/>
<path d="M2964 2188 c-4 -5 0 -14 7 -19 20 -13 29 -11 29 5 0 18 -27 29 -36
14z"/>
<path d="M1493 2144 c-7 -15 -10 -31 -7 -35 3 -5 1 -9 -5 -9 -15 0 -38 -52
-33 -73 4 -18 5 -18 18 1 17 24 55 142 45 142 -3 0 -11 -12 -18 -26z"/>
<path d="M2616 2161 c-9 -14 15 -81 29 -80 5 1 21 5 35 9 l25 8 -26 1 c-21 1
-30 9 -41 37 -9 23 -18 32 -22 25z"/>
<path d="M2913 2105 c-1 -25 2 -45 6 -45 5 0 9 6 8 13 -2 50 3 57 38 57 19 0
35 5 35 10 0 6 -19 10 -42 10 l-43 0 -2 -45z"/>
<path d="M2514 2131 c4 -5 0 -11 -6 -14 -9 -3 -5 -13 12 -31 21 -23 22 -29 10
-37 -11 -8 -9 -9 10 -4 33 9 49 25 26 25 -10 0 -16 5 -13 13 7 20 -11 57 -28
57 -9 0 -14 -4 -11 -9z"/>
<path d="M1034 2117 c3 -10 6 -21 6 -23 0 -11 36 -2 53 13 18 17 19 17 32 -1
20 -27 93 -41 115 -21 15 13 19 14 29 1 9 -11 9 -15 -1 -19 -8 -3 -8 -6 -2 -6
6 -1 17 6 24 14 17 20 34 19 26 -1 -5 -14 -4 -15 9 -4 11 9 15 9 15 1 0 -8 8
-10 21 -6 14 5 19 3 15 -3 -3 -6 -2 -13 3 -16 5 -3 11 3 14 14 6 22 -20 32
-116 45 -40 5 -51 3 -63 -12 -8 -11 -13 -13 -14 -5 0 6 -9 12 -20 12 -11 0
-20 7 -20 15 0 11 -11 15 -41 15 -24 0 -38 -4 -34 -10 12 -20 -28 -24 -43 -4
-14 18 -14 18 -8 1z"/>
<path d="M1948 2089 c-15 -21 -23 -41 -19 -43 5 -3 20 12 35 34 34 51 19 60
-16 9z"/>
<path d="M2590 2036 c-69 -28 -141 -60 -160 -70 l-35 -19 24 -11 c19 -8 25 -8
29 2 8 26 44 50 84 56 22 4 50 13 61 21 32 22 42 19 55 -19 7 -19 23 -45 37
-58 13 -13 24 -33 24 -44 1 -47 7 -56 43 -75 21 -11 38 -17 38 -13 0 4 -19 63
-41 131 -31 94 -38 127 -29 133 7 4 8 10 4 13 -5 2 -65 -18 -134 -47z m90 -11
c0 -18 4 -23 15 -19 16 7 19 -4 7 -23 -15 -24 -49 21 -43 60 3 19 21 4 21 -18z"/>
<path d="M2225 2043 c2 -12 -3 -24 -11 -27 -8 -3 -14 -11 -14 -17 0 -8 4 -8
15 1 10 9 15 9 15 1 0 -6 5 -11 10 -11 6 0 8 11 4 28 -8 32 -25 55 -19 25z"/>
<path d="M1505 1894 c-42 -86 -83 -158 -90 -160 -12 -5 -75 21 -75 31 0 2 12
0 26 -5 26 -10 44 -6 44 9 0 5 -12 6 -27 3 l-28 -5 28 22 c28 23 37 57 15 58
-7 0 -20 4 -29 7 -11 5 -24 -5 -43 -35 l-28 -41 33 -30 c43 -40 23 -53 -39
-27 -26 11 -49 16 -54 11 -5 -5 10 -14 34 -21 24 -7 57 -21 74 -32 36 -22 54
-24 54 -6 0 17 55 67 74 67 19 0 22 16 4 22 -7 3 7 25 35 55 26 27 47 59 47
70 0 10 5 24 12 31 9 9 7 12 -10 12 -12 0 -22 5 -22 10 0 12 47 14 53 3 3 -5
-9 -53 -27 -108 -18 -55 -50 -169 -71 -254 -29 -118 -41 -151 -49 -140 -20 25
-60 45 -88 43 -19 -2 -29 3 -33 16 -3 10 -11 17 -18 15 -12 -5 -46 11 -37 17
3 2 18 14 34 28 l28 25 -7 -25 c-5 -15 6 -6 27 25 l34 50 -31 17 c-40 23 -179
68 -213 69 -24 0 -25 1 -7 9 14 6 6 8 -25 4 -34 -3 -40 -2 -25 6 15 7 8 8 -28
4 -26 -4 -71 -3 -101 0 -52 7 -54 8 -61 43 -7 37 -13 40 -18 7 -4 -30 -31 -62
-57 -69 -20 -5 -27 -1 -35 17 -9 19 -4 38 23 98 18 41 37 83 42 92 12 21 13
68 3 68 -5 0 -33 -61 -63 -136 -44 -110 -56 -131 -62 -114 -4 12 -5 26 -2 31
3 5 -2 12 -10 15 -9 3 -16 11 -16 18 -1 17 -38 62 -45 54 -4 -4 5 -22 19 -40
45 -60 74 -158 47 -158 -23 0 -41 14 -41 30 0 11 -5 22 -10 25 -6 4 -7 11 -4
17 5 8 -6 9 -34 5 -52 -6 -54 4 -13 90 17 34 26 65 21 68 -13 8 -58 -84 -66
-132 -6 -36 -9 -40 -50 -51 -24 -7 -53 -12 -64 -12 -11 0 -30 -10 -42 -22 -21
-21 -21 -21 0 -16 13 4 23 0 26 -8 3 -8 10 -14 15 -14 6 0 8 6 5 14 -3 8 8 19
29 30 47 22 57 20 57 -10 0 -23 3 -25 28 -20 17 4 35 1 47 -8 11 -9 25 -15 30
-16 6 0 3 5 -5 10 -11 7 -6 9 20 7 l36 -2 -25 -38 c-17 -25 -27 -33 -32 -25
-5 8 -10 1 -14 -18 -13 -56 -16 -61 -28 -35 -9 18 -8 29 6 52 20 36 11 37 -25
2 -25 -24 -42 -21 -18 3 7 7 5 17 -5 30 -13 18 -14 15 -14 -31 0 -50 13 -79
37 -81 6 -1 16 -2 21 -2 4 -1 11 -41 14 -89 3 -49 11 -103 17 -121 l12 -32 33
67 c37 79 57 98 105 106 30 5 32 4 16 -6 -11 -7 -38 -29 -60 -51 l-41 -39 48
38 c27 21 60 39 74 41 14 1 31 8 37 14 6 6 7 11 1 10 -21 -4 -36 0 -30 10 3 5
-8 16 -24 25 -31 16 -34 45 -4 45 9 0 13 -6 9 -15 -6 -18 20 -35 55 -35 5 0 8
-4 4 -9 -3 -5 0 -13 6 -17 8 -5 9 -3 4 6 -5 9 -2 10 14 5 33 -10 25 4 -11 20
-28 11 -30 15 -15 20 10 5 25 1 35 -7 22 -19 42 -31 42 -24 0 3 -27 23 -60 45
-33 22 -60 36 -60 31 0 -5 4 -11 10 -15 11 -7 2 -35 -12 -35 -5 0 -6 5 -2 12
4 6 -1 17 -11 24 -17 12 -16 15 6 41 13 16 28 30 32 31 5 2 26 -22 48 -52 22
-31 42 -56 45 -56 2 0 -10 28 -27 63 -18 34 -35 72 -38 84 -5 20 -11 16 -59
-43 -54 -65 -133 -198 -158 -264 -7 -19 -13 -27 -13 -17 -1 10 4 27 9 37 8 15
7 18 -3 14 -8 -3 -17 1 -20 9 -4 11 0 13 13 10 14 -4 23 3 32 22 11 24 10 29
-7 41 -24 18 -35 18 -35 0 0 -8 9 -16 20 -18 13 -2 17 -7 11 -16 -4 -7 -15
-10 -25 -6 -15 6 -17 15 -12 58 3 28 7 61 7 73 1 12 5 21 9 20 4 -1 24 19 43
44 30 38 50 52 117 79 44 18 83 36 86 41 10 17 22 9 17 -10 -7 -28 62 -99 134
-138 l59 -32 -4 35 c-3 25 -8 32 -15 25 -7 -7 -19 -5 -39 7 -15 9 -28 19 -28
23 0 4 -8 9 -18 11 -10 3 -29 19 -41 37 l-22 31 48 0 c68 0 175 -17 263 -41
113 -30 114 -31 53 -89 -28 -28 -56 -50 -63 -50 -11 0 -34 49 -26 57 2 3 7 -5
11 -16 9 -30 26 -26 69 18 l37 38 -44 13 c-25 6 -55 9 -66 5 -12 -4 -28 -2
-35 4 -11 9 -13 4 -12 -28 0 -27 4 -37 13 -34 7 3 13 -2 13 -10 0 -9 3 -22 6
-31 3 -9 1 -16 -5 -16 -6 0 -11 8 -11 18 0 14 -2 15 -10 2 -7 -11 -10 -11 -10
-2 0 7 -4 10 -10 7 -24 -15 -5 -32 68 -62 94 -39 194 -77 612 -237 345 -131
837 -325 1034 -408 65 -27 121 -47 123 -44 9 9 -7 37 -17 31 -6 -3 -23 3 -39
14 -15 11 -31 18 -34 15 -9 -9 -106 47 -110 64 -4 15 -5 15 -6 0 -1 -25 -22
-23 -28 3 -3 11 -11 18 -19 15 -18 -7 -105 24 -98 35 3 5 -3 10 -13 10 -55 4
-46 -35 -77 327 -8 96 -17 177 -21 180 -4 4 -4 -22 -1 -58 3 -36 8 -110 12
-165 3 -55 8 -116 10 -135 14 -111 13 -120 -7 -120 -25 0 -90 37 -111 63 l-18
22 0 -22 c0 -26 -3 -27 -28 -13 -9 5 -38 18 -64 30 -26 11 -50 25 -53 30 -4 6
-10 8 -15 5 -5 -3 -11 -1 -15 5 -3 5 -17 10 -30 10 -13 0 -25 4 -27 10 -1 5
-15 11 -30 12 -15 1 -30 9 -33 16 -3 9 -13 12 -26 9 -11 -3 -22 0 -25 7 -2 6
-12 12 -22 13 -9 1 -43 13 -74 27 -32 14 -58 24 -58 22 0 -7 -121 44 -134 56
-9 9 -10 26 -4 62 4 28 10 68 13 88 3 20 10 50 16 65 6 15 12 37 14 48 1 11 9
54 18 95 8 41 21 108 27 148 13 80 9 77 110 85 39 3 67 -1 98 -14 24 -11 57
-19 73 -19 l28 0 0 -67 c-1 -38 4 -89 9 -114 6 -25 12 -116 13 -202 1 -86 5
-157 10 -157 15 0 10 367 -6 440 -14 62 -19 129 -8 103 5 -15 39 -17 47 -4 4
6 -105 36 -121 33 -2 -1 -32 7 -68 17 -39 11 -65 14 -65 8 0 -20 -397 7 -419
28 -6 6 38 44 52 45 4 0 6 -5 5 -12 -4 -17 33 -23 43 -6 14 21 10 28 -15 28
-14 0 -36 4 -49 9 -24 9 -27 4 -102 -145z m155 25 c0 -11 -9 -38 -21 -60 -31
-61 -18 -56 30 11 40 58 62 72 76 50 4 -6 15 -8 26 -5 10 4 19 4 19 1 0 -12
-72 -284 -96 -364 -44 -142 -80 -196 -104 -152 -6 12 -21 20 -36 20 -14 0 -23
4 -20 9 4 5 -2 7 -12 4 -47 -12 -39 39 52 342 9 28 18 71 21 98 4 26 10 45 16
42 5 -4 9 0 9 7 0 8 9 14 20 15 14 1 20 -4 20 -18z m190 -98 c-7 -47 -28 -153
-47 -236 -19 -82 -34 -169 -33 -192 0 -24 -4 -43 -10 -43 -5 0 -10 6 -10 13 0
6 -5 4 -11 -6 -12 -21 -41 -15 -72 14 -22 20 -18 57 9 83 8 9 13 20 10 25 -4
5 -2 11 3 13 12 4 58 168 104 368 10 45 16 55 37 60 14 4 27 2 29 -3 2 -6 -2
-49 -9 -96z m-494 -6 c-3 -8 -1 -15 4 -15 6 0 10 7 10 15 0 8 5 15 11 15 15 0
6 -21 -14 -34 -12 -8 -20 -7 -29 2 -10 10 -10 15 2 22 21 13 23 12 16 -5z
m-77 -211 c-25 -27 -44 -32 -36 -9 4 8 1 18 -5 21 -16 10 21 22 45 16 17 -4
16 -6 -4 -28z m-479 -134 c12 -8 11 -10 -6 -10 -12 0 -34 -10 -50 -22 l-29
-23 23 33 c24 34 37 38 62 22z"/>
<path d="M1697 1842 c-9 -23 -17 -47 -17 -52 0 -10 -74 -192 -91 -222 -15 -29
-10 -39 9 -20 10 9 17 23 14 30 -2 6 0 12 6 12 5 0 9 8 8 18 0 9 4 16 9 15 6
-1 12 10 13 23 1 14 6 33 12 44 5 10 21 51 36 90 28 79 30 132 1 62z"/>
<path d="M1687 2013 c-14 -13 -6 -25 8 -13 10 9 15 9 15 1 0 -6 5 -11 10 -11
6 0 10 7 10 15 0 15 -31 21 -43 8z"/>
<path d="M2350 1990 c-12 -8 -12 -10 3 -14 49 -16 48 -16 37 4 -12 22 -18 24
-40 10z"/>
<path d="M2565 1951 c-7 -44 -2 -61 21 -61 13 0 14 8 9 43 -10 59 -22 66 -30
18z"/>
<path d="M2321 1947 c-10 -13 -8 -18 11 -31 21 -15 24 -15 41 3 20 19 16 42
-6 40 -9 0 -9 -2 1 -6 6 -2 12 -9 12 -14 0 -15 -22 -10 -34 7 -11 14 -13 14
-25 1z"/>
<path d="M8 1938 c-3 -8 37 -34 111 -70 123 -62 133 -65 126 -45 -9 21 -83 59
-88 44 -4 -9 -6 -9 -6 1 -1 6 -7 12 -15 12 -8 0 -13 8 -12 18 1 11 -6 17 -20
17 -11 0 -28 6 -36 12 -8 7 -18 10 -21 6 -4 -3 -13 -1 -21 6 -11 9 -15 9 -18
-1z"/>
<path d="M1055 1930 c-4 -6 11 -10 41 -10 54 0 55 4 2 14 -21 4 -39 2 -43 -4z"/>
<path d="M2900 1930 c0 -8 -15 -11 -45 -8 -25 2 -45 0 -45 -4 0 -3 8 -20 18
-37 12 -22 24 -31 44 -31 14 0 33 -3 42 -6 12 -5 16 1 16 24 0 28 4 32 35 38
47 8 45 26 -3 23 -21 -2 -43 0 -50 5 -7 4 -12 2 -12 -4z m14 -36 c8 -21 -1
-34 -19 -29 -53 17 -52 15 -31 31 26 18 42 18 50 -2z"/>
<path d="M2400 1921 c0 -10 19 -17 125 -46 74 -21 80 -25 101 -83 27 -72 37
-75 31 -9 l-6 58 32 -18 c27 -16 32 -26 35 -63 2 -25 8 -51 14 -58 8 -9 8 -16
1 -23 -17 -17 -57 -6 -68 19 -5 12 -17 22 -25 22 -8 0 -26 3 -40 6 -18 4 -21
3 -11 -4 15 -11 -2 -27 -19 -17 -5 3 -10 1 -10 -5 0 -6 -9 -21 -20 -32 -20
-21 -20 -21 -34 -2 -13 17 -14 15 -3 -16 7 -19 18 -45 25 -57 10 -17 9 -24 -1
-35 -8 -7 -12 -19 -9 -26 3 -9 8 -6 16 10 8 14 19 22 31 20 14 -3 12 2 -9 20
-19 16 -25 29 -21 41 10 24 22 22 66 -17 45 -38 74 -38 113 1 13 13 32 23 41
21 19 -3 44 27 32 38 -3 4 -14 1 -23 -7 -19 -15 -19 -19 4 80 4 18 2 22 -8 16
-8 -5 -11 -4 -7 3 4 5 15 8 25 6 9 -3 26 2 37 10 19 15 19 15 -8 16 -15 0 -60
16 -99 36 -40 20 -117 47 -172 61 -56 14 -109 29 -118 34 -12 6 -18 6 -18 0z
m217 -246 c2 -6 -2 -18 -9 -27 -11 -15 -15 -15 -32 -3 -16 12 -17 17 -6 30 14
17 41 17 47 0z m66 -16 c43 -12 46 -21 12 -43 -27 -18 -53 -20 -74 -7 -12 8
-13 14 -3 35 13 30 14 30 65 15z"/>
<path d="M973 1893 c4 -5 69 -13 146 -17 76 -4 154 -11 172 -16 19 -6 37 -6
42 -1 13 13 -103 31 -242 38 -82 4 -122 3 -118 -4z"/>
<path d="M2330 1891 c-45 -6 -46 -6 -33 -31 7 -14 13 -19 13 -12 0 6 5 12 10
12 7 0 7 -7 0 -21 -12 -22 -4 -71 24 -144 8 -22 15 -52 16 -67 0 -16 4 -28 9
-28 5 0 9 -10 9 -22 0 -46 33 -303 41 -310 4 -4 3 32 -1 80 -5 48 -10 111 -12
140 -2 29 -6 55 -9 59 -3 3 -2 16 4 30 5 15 5 22 0 18 -11 -6 -16 10 -27 75
-3 24 -13 49 -20 55 -17 12 -32 115 -17 115 6 0 13 9 16 20 3 12 14 20 26 20
12 0 21 5 21 10 0 6 -6 9 -12 8 -7 0 -33 -4 -58 -7z"/>
<path d="M402 1873 c-8 -16 -9 -23 -2 -23 6 0 8 -4 5 -10 -3 -5 -1 -19 5 -30
9 -16 8 -20 -5 -20 -8 0 -15 -4 -15 -10 0 -11 33 -14 43 -3 4 3 3 11 -2 17 -5
6 -11 32 -13 56 -3 42 -4 44 -16 23z"/>
<path d="M0 1851 c0 -21 8 -36 30 -51 17 -12 30 -18 30 -15 0 3 13 -3 29 -14
16 -12 31 -21 34 -21 3 0 7 18 9 39 3 39 3 39 -16 23 -18 -16 -19 -16 -14 11
6 31 1 34 -19 10 -13 -16 -14 -16 -10 10 4 26 4 27 -14 11 -18 -16 -19 -16
-19 0 0 9 -4 14 -10 11 -5 -3 -10 -1 -10 4 0 6 -4 11 -10 11 -5 0 -10 -13 -10
-29z"/>
<path d="M2022 1848 c6 -18 15 -39 21 -46 5 -7 11 -35 12 -62 2 -27 6 -53 9
-58 3 -5 5 -26 4 -46 -1 -20 2 -39 5 -43 11 -10 8 118 -4 162 -17 64 -41 125
-50 125 -4 0 -3 -15 3 -32z"/>
<path d="M2221 1823 c-1 -17 3 -34 8 -37 4 -3 6 -16 4 -30 -6 -27 7 -39 27
-25 10 6 11 9 3 9 -7 0 -13 5 -13 11 0 6 7 9 14 6 10 -4 13 -1 9 9 -3 7 -11
14 -19 14 -7 0 -16 12 -20 28 -10 45 -12 48 -13 15z"/>
<path d="M147 1803 c-11 -10 -8 -61 3 -68 6 -3 10 5 10 19 0 13 3 31 6 40 6
16 -7 22 -19 9z"/>
<path d="M182 1798 c-17 -17 -15 -66 3 -84 13 -14 15 -13 15 6 0 12 5 30 10
41 7 11 7 19 1 19 -5 0 -12 -6 -15 -12 -3 -7 -4 -1 -2 15 4 31 4 31 -12 15z"/>
<path d="M1107 1794 c-14 -14 -7 -25 13 -22 12 2 21 8 21 13 0 12 -24 18 -34
9z"/>
<path d="M2540 1772 c0 -15 -5 -33 -12 -40 -6 -6 -9 -15 -5 -18 3 -4 12 5 18
20 9 20 15 23 25 15 11 -9 12 -6 3 20 -14 39 -29 40 -29 3z"/>
<path d="M1923 1725 c0 -38 2 -53 4 -32 2 20 2 52 0 70 -2 17 -4 1 -4 -38z"/>
<path d="M2931 1728 c1 -68 6 -61 11 15 2 26 0 47 -4 47 -5 0 -7 -28 -7 -62z"/>
<path d="M2864 1665 c0 -49 1 -71 3 -48 2 23 2 64 0 90 -2 26 -3 8 -3 -42z"/>
<path d="M46 1722 c-3 -9 -2 -37 3 -62 l9 -45 1 63 c1 63 -3 77 -13 44z"/>
<path d="M350 1686 c0 -10 9 -16 21 -16 24 0 21 23 -4 28 -10 2 -17 -3 -17
-12z"/>
<path d="M900 1688 c0 -29 40 -126 74 -177 l33 -49 -43 -6 c-45 -6 -197 -77
-210 -97 -5 -9 -2 -10 12 -5 142 58 143 58 198 40 51 -17 448 -168 690 -263
139 -54 175 -61 77 -15 -33 16 -58 31 -56 34 2 3 -4 7 -13 8 -46 5 -102 23
-102 33 0 5 -3 8 -7 7 -5 -1 -21 3 -38 8 -16 6 -33 12 -38 12 -4 1 -22 9 -40
18 -17 10 -41 18 -52 20 -11 1 -49 16 -85 32 -36 17 -82 33 -103 37 -21 4 -44
14 -52 21 -7 8 -19 14 -26 14 -21 0 -129 44 -129 53 0 18 35 19 86 1 30 -10
54 -21 54 -25 0 -4 8 -7 18 -7 9 1 64 -18 122 -42 58 -23 137 -54 175 -67 39
-14 77 -31 85 -38 15 -14 19 -15 45 -15 8 0 15 -7 15 -16 0 -13 3 -14 13 -5
10 8 17 7 25 -1 7 -7 12 -9 12 -6 0 4 25 -4 55 -17 30 -14 55 -22 55 -19 0 3
17 -4 38 -14 20 -11 67 -30 105 -43 37 -12 67 -27 67 -33 0 -5 3 -6 6 -3 4 4
20 -3 35 -14 16 -11 29 -17 29 -13 0 3 6 2 13 -3 6 -6 34 -15 61 -22 27 -7 66
-21 87 -32 22 -11 39 -17 39 -15 0 3 26 -6 58 -19 31 -12 82 -33 112 -45 101
-41 148 -58 245 -90 39 -13 75 -31 82 -39 7 -9 13 -12 13 -7 0 4 10 2 23 -6
12 -8 45 -22 72 -31 28 -9 68 -24 90 -33 22 -10 43 -17 48 -16 4 1 7 -2 7 -8
0 -5 5 -10 10 -10 14 0 12 37 -2 43 -7 3 -92 37 -188 75 -252 102 -742 293
-1135 443 -187 72 -410 157 -495 190 -151 59 -196 87 -185 117 3 7 1 11 -4 7
-5 -3 -15 12 -21 32 -7 21 -17 44 -22 50 -6 7 -16 30 -24 50 -7 21 -13 30 -14
21z"/>
<path d="M737 1632 c-34 -35 -34 -39 3 -44 20 -3 30 0 30 9 0 7 -10 13 -22 13
-20 0 -21 1 -6 16 14 15 18 15 42 -1 14 -10 26 -15 26 -11 0 6 -37 46 -43 46
-2 0 -15 -13 -30 -28z"/>
<path d="M2310 1641 c0 -5 -7 -8 -16 -7 -9 0 -19 -6 -21 -14 -4 -13 -3 -13 6
0 5 8 13 11 17 7 4 -3 2 -13 -5 -21 -9 -11 -7 -15 14 -18 19 -4 25 -1 25 13 0
11 -4 19 -10 19 -5 0 -7 7 -4 15 4 8 3 15 0 15 -3 0 -6 -4 -6 -9z"/>
<path d="M2923 1605 c0 -11 11 -15 39 -15 27 0 38 4 38 15 0 11 -11 15 -38 15
-28 0 -39 -4 -39 -15z"/>
<path d="M2744 1587 c-9 -25 -56 -44 -102 -43 -36 1 -39 -1 -30 -18 9 -17 7
-18 -21 -14 -17 2 -31 1 -31 -4 0 -14 65 -9 119 9 39 12 56 24 67 46 9 16 13
31 10 34 -3 3 -8 -1 -12 -10z"/>
<path d="M687 1562 c-23 -25 -21 -37 6 -55 22 -14 24 -13 41 16 17 30 17 32 0
44 -23 17 -28 16 -47 -5z m39 -29 c-3 -8 -6 -17 -6 -19 0 -2 -9 1 -19 8 -14 9
-17 16 -10 24 14 17 42 6 35 -13z"/>
<path d="M2861 1523 c-11 -16 -33 -40 -48 -55 -16 -16 -23 -28 -17 -28 5 0 22
12 35 28 27 29 62 82 55 82 -3 0 -14 -12 -25 -27z"/>
<path d="M2923 1495 c0 -33 2 -45 4 -27 2 18 2 45 0 60 -2 15 -4 0 -4 -33z"/>
<path d="M31 1494 c-14 -13 -22 -26 -18 -30 3 -4 9 1 13 10 11 28 84 15 84
-16 0 -4 -12 -14 -27 -23 l-28 -15 30 2 c23 2 31 9 33 26 4 26 -19 57 -46 64
-9 3 -28 -6 -41 -18z"/>
<path d="M646 1503 c-11 -11 -7 -20 12 -26 9 -2 25 -8 35 -12 9 -4 17 -3 17 2
0 12 -56 44 -64 36z"/>
<path d="M530 1480 c-26 -15 -36 -17 -42 -7 -6 9 -8 9 -8 0 0 -7 -11 -15 -25
-19 -35 -9 -31 -24 5 -24 39 0 86 24 100 50 13 24 14 24 -30 0z"/>
<path d="M830 1359 c-41 -16 -84 -29 -96 -29 -41 0 -89 -99 -132 -276 -76
-306 -113 -466 -109 -470 5 -5 116 429 120 469 1 9 5 17 9 17 4 0 4 7 1 17 -4
10 -2 14 4 10 7 -4 10 0 9 10 -4 21 24 105 50 154 14 27 19 30 22 15 4 -16 5
-16 16 5 9 19 19 23 41 21 17 -2 35 -8 41 -13 8 -7 14 -6 19 1 8 13 -3 30 -21
30 -8 0 -14 4 -14 9 0 15 150 25 190 14 19 -6 87 -31 150 -55 63 -25 140 -53
170 -63 30 -10 101 -37 158 -61 88 -38 162 -66 327 -126 17 -6 44 -17 60 -24
134 -57 187 -78 230 -91 28 -8 55 -18 60 -23 6 -4 24 -10 40 -14 17 -4 53 -18
81 -31 53 -25 138 -58 259 -101 38 -13 90 -34 115 -46 25 -12 50 -23 55 -24 6
-1 24 -8 40 -15 17 -6 39 -14 49 -16 11 -2 33 -10 49 -18 17 -8 35 -15 40 -15
6 0 18 -7 28 -16 20 -18 109 -47 109 -35 0 5 -6 11 -12 14 -414 172 -2003 790
-2058 801 -14 2 -57 -8 -100 -25z"/>
<path d="M2232 1340 c-1 -29 1 -40 7 -31 5 7 15 10 22 7 8 -4 7 -1 -3 6 -9 8
-18 25 -21 38 -2 15 -5 7 -5 -20z"/>
<path d="M2931 1305 c0 -55 2 -75 9 -65 11 17 11 71 0 115 -6 22 -8 8 -9 -50z"/>
<path d="M90 1308 c0 -9 7 -21 15 -28 20 -17 19 -30 -6 -56 -11 -12 -16 -24
-11 -28 5 -3 19 8 31 25 l23 31 -24 25 c-12 13 -21 27 -20 30 2 2 1 7 -2 11
-3 3 -6 -2 -6 -10z"/>
<path d="M840 1295 c0 -8 1 -15 3 -15 1 0 27 -9 57 -21 30 -11 65 -22 77 -25
53 -11 110 -44 133 -77 24 -35 25 -35 53 -20 16 8 31 12 34 9 3 -2 -14 -14
-37 -26 -32 -16 -52 -20 -88 -15 -32 3 -41 2 -27 -4 13 -6 -27 -10 -123 -13
-78 -1 -142 0 -142 3 0 4 7 20 15 35 8 16 14 43 14 59 -1 28 -2 27 -9 -7 -4
-21 -14 -46 -22 -55 -13 -16 -13 -23 3 -63 17 -42 18 -43 18 -15 l1 30 161 3
c100 1 167 6 175 13 7 6 28 8 46 5 18 -3 27 -3 21 0 -7 3 -13 9 -13 14 0 14
37 22 57 12 10 -5 32 -16 50 -24 23 -12 34 -13 43 -4 10 8 11 4 6 -19 -3 -16
-13 -97 -21 -180 -8 -82 -17 -168 -20 -190 -4 -30 -3 -35 4 -19 9 20 30 144
37 214 17 191 12 183 80 153 22 -9 41 -17 44 -18 23 -5 87 -29 94 -36 6 -5 16
-9 23 -9 8 0 33 -9 55 -20 23 -11 47 -20 52 -20 6 0 31 -10 56 -22 25 -11 53
-23 64 -25 10 -2 30 -9 45 -17 14 -8 82 -36 151 -62 69 -26 127 -51 128 -56 2
-4 7 -6 12 -3 4 3 33 -6 65 -20 31 -14 61 -23 66 -20 5 4 20 -5 34 -19 14 -14
25 -21 25 -15 0 11 37 -7 59 -28 11 -11 16 -12 22 -2 6 10 13 9 33 -4 14 -10
41 -19 61 -22 42 -5 55 -12 55 -28 0 -7 14 -13 31 -14 17 -1 37 -7 45 -14 7
-6 18 -8 23 -5 5 4 12 2 15 -3 9 -15 79 -48 116 -56 53 -10 100 -28 100 -37 0
-4 11 -8 25 -8 22 0 25 -5 26 -37 1 -24 3 -29 6 -16 3 15 12 23 24 23 10 0 19
4 19 8 0 8 -58 33 -320 139 -74 30 -216 88 -315 129 -177 72 -377 151 -845
334 -129 51 -298 117 -375 147 -150 59 -294 113 -301 113 -2 0 -4 -7 -4 -15z"/>
<path d="M2413 1195 c0 -33 2 -45 4 -27 2 18 2 45 0 60 -2 15 -4 0 -4 -33z"/>
<path d="M2785 1230 c-14 -23 7 -69 41 -89 36 -21 43 -46 24 -82 -6 -11 -7
-19 -1 -19 13 0 21 26 21 66 0 23 -5 34 -14 34 -15 0 -46 37 -46 55 0 5 16 11
35 11 19 1 47 2 63 4 l27 2 -25 7 c-48 15 -119 21 -125 11z"/>
<path d="M2681 1136 c-9 -10 -8 -15 3 -19 7 -3 18 -1 24 5 6 6 12 6 17 -3 6
-8 4 -10 -6 -4 -8 5 -11 4 -6 -1 5 -5 14 -9 20 -9 7 0 13 -9 15 -20 2 -11 8
-24 13 -30 6 -6 7 4 3 25 -6 34 -37 69 -60 70 -6 0 -17 -6 -23 -14z"/>
<path d="M903 1123 c26 -2 68 -2 95 0 26 2 4 3 -48 3 -52 0 -74 -1 -47 -3z"/>
<path d="M2033 989 c30 -17 189 -80 194 -76 6 7 -43 36 -73 43 -16 4 -34 11
-41 16 -7 5 -16 7 -21 4 -5 -3 -18 1 -28 9 -10 8 -26 14 -34 14 -12 0 -11 -2
3 -10z"/>
<path d="M139 900 c-4 -8 0 -31 7 -50 13 -37 16 -17 5 35 -4 20 -8 25 -12 15z"/>
<path d="M93 888 c3 -9 2 -18 -2 -20 -4 -2 3 -13 16 -26 29 -29 30 -8 2 33
-12 17 -19 22 -16 13z"/>
<path d="M440 803 c-28 -13 -31 -17 -16 -20 10 -3 28 4 39 16 25 25 23 25 -23
4z"/>
<path d="M790 811 c0 -5 44 -19 98 -31 144 -33 168 -41 97 -34 -33 3 -81 7
-106 10 -25 2 -58 8 -72 13 -15 6 -27 7 -27 2 0 -5 42 -19 93 -31 50 -13 108
-29 127 -37 24 -10 76 -16 162 -17 147 -1 140 8 -12 18 -58 4 -118 10 -135 14
-27 5 -24 7 30 18 33 6 48 12 33 13 -15 1 -39 6 -55 12 -15 6 -64 17 -108 25
-44 8 -90 19 -102 24 -14 6 -23 6 -23 1z"/>
<path d="M461 488 c-33 -121 -35 -130 -8 -61 22 57 42 143 34 143 -2 0 -14
-37 -26 -82z"/>
<path d="M845 539 c87 -27 172 -41 240 -37 53 3 46 4 -61 16 -66 7 -142 19
-169 27 -26 8 -53 15 -59 14 -6 0 16 -9 49 -20z"/>
<path d="M920 481 c0 -5 12 -12 27 -15 14 -4 46 -21 70 -38 l45 -30 -24 41
c-22 38 -48 55 -48 30 0 -7 -10 -5 -25 5 -27 18 -45 21 -45 7z"/>
<path d="M800 356 c14 -18 13 -18 -8 -12 -15 5 -22 3 -22 -6 0 -17 38 -18 44
-2 3 7 -3 18 -12 26 -16 12 -16 11 -2 -6z"/>
<path d="M407 314 c-12 -38 -13 -44 -1 -32 17 17 36 78 24 78 -4 0 -14 -21
-23 -46z"/>
<path d="M992 326 c-35 -20 -36 -24 -1 -17 18 4 34 12 37 19 5 15 -6 14 -36
-2z"/>
<path d="M1174 157 c-11 -18 -29 -44 -38 -59 -10 -16 -16 -28 -13 -28 7 0 80
111 75 115 -2 2 -13 -11 -24 -28z"/>
</g>
</svg>
