<?xml version="1.0" standalone="no"?>
<!DOCTYPE svg PUBLIC "-//W3C//DTD SVG 20010904//EN"
 "http://www.w3.org/TR/2001/REC-SVG-20010904/DTD/svg10.dtd">
<svg version="1.0" xmlns="http://www.w3.org/2000/svg"
 width="300.000000pt" height="369.000000pt" viewBox="0 0 300.000000 369.000000"
 preserveAspectRatio="xMidYMid meet">
<metadata>
Created by potrace 1.10, written by Peter Selinger 2001-2011
</metadata>
<g transform="translate(0.000000,369.000000) scale(0.100000,-0.100000)"
fill="#000000" stroke="none">
<path d="M2 1863 c2 -1006 4 -1658 5 -1450 l3 379 26 33 c14 19 24 42 22 52
-2 13 -10 5 -26 -27 l-22 -45 0 1438 0 1437 1490 0 1490 0 -2 -877 -3 -878
-30 -44 c-19 -29 -26 -46 -18 -48 14 -5 6 -31 -15 -52 -13 -13 -12 -16 4 -21
11 -4 14 -9 7 -13 -10 -6 -53 -123 -53 -143 0 -4 10 4 23 17 27 28 44 81 52
163 3 32 12 70 20 85 13 23 14 -28 14 -447 l0 -472 -24 0 c-35 0 -31 -17 5
-22 l30 -5 0 1384 0 1383 -1500 0 -1500 0 2 -1827z"/>
<path d="M1986 3606 l-67 -64 -35 35 c-30 30 -40 34 -67 29 -18 -4 -40 -8 -50
-9 -9 -2 -23 -9 -30 -17 -8 -9 -9 -11 0 -6 6 3 16 -1 21 -10 8 -14 12 -12 31
12 17 21 24 25 30 15 6 -9 10 -10 15 -2 10 15 26 4 20 -13 -3 -8 4 -16 15 -19
12 -3 21 -12 21 -19 0 -29 46 -42 107 -31 35 7 62 7 68 2 20 -19 35 -9 15 11
-24 24 -41 25 -81 5 -16 -9 -34 -13 -39 -10 -16 10 -11 45 8 52 24 9 72 56 72
70 0 7 7 13 15 13 8 0 15 5 15 10 0 20 -18 8 -84 -54z"/>
<path d="M1550 3597 c8 -11 13 -33 13 -50 -1 -18 1 -25 4 -17 9 24 35 50 44
44 5 -3 17 -1 26 5 15 8 14 10 -10 16 -17 5 -33 3 -40 -4 -8 -8 -16 -6 -31 7
-20 16 -20 16 -6 -1z"/>
<path d="M84 3548 c8 -18 22 -52 33 -75 10 -24 24 -43 31 -43 16 0 32 -42 32
-87 0 -20 3 -33 7 -29 11 10 42 -76 37 -100 -3 -11 1 -26 9 -32 11 -10 12 -4
5 41 -4 28 -12 70 -17 92 -6 22 -13 53 -17 69 -4 15 -22 43 -40 62 -19 18 -34
37 -34 41 0 3 -9 26 -21 50 -24 50 -46 59 -25 11z"/>
<path d="M1598 3533 c-24 -21 -46 -42 -50 -48 -4 -5 -8 8 -8 30 0 28 -3 36 -9
25 -6 -8 -7 -18 -5 -22 10 -16 -10 -8 -45 19 l-36 26 25 -29 c14 -16 18 -23
10 -16 -17 14 -66 16 -75 2 -3 -6 4 -10 17 -11 21 -1 21 -1 -4 -11 -16 -5 -28
-14 -28 -20 0 -6 6 -6 15 2 18 15 19 3 6 -34 -11 -28 -2 -106 9 -85 4 8 11 34
15 59 4 25 11 53 17 63 8 16 11 16 50 -4 l40 -21 51 21 c81 34 74 41 102 -101
l18 -87 -27 -71 c-20 -54 -23 -71 -12 -67 8 3 17 1 20 -6 2 -7 5 4 6 23 0 28
3 32 10 18 7 -11 7 -26 0 -44 -6 -14 -8 -35 -5 -45 15 -47 14 -72 -5 -110 -20
-38 -23 -40 -53 -33 -64 13 -135 45 -181 81 -25 19 -46 39 -46 43 0 11 -81
100 -91 100 -21 0 -6 -27 49 -85 31 -34 78 -86 103 -116 29 -34 70 -67 108
-88 l61 -32 6 30 c4 17 22 48 40 70 19 21 34 44 34 49 0 6 9 8 19 5 16 -4 26
8 56 67 20 40 35 73 33 75 -2 1 -28 17 -59 34 -46 25 -57 36 -55 55 0 13 4 22
8 20 10 -6 21 82 13 97 -5 6 -7 43 -7 81 2 65 -1 72 -27 99 -39 38 -62 37
-113 -8z m96 -11 c3 -5 -15 -9 -40 -9 -27 0 -40 4 -32 9 17 10 65 10 72 0z
m82 -369 c20 -13 24 -21 19 -42 -7 -29 -23 -51 -36 -51 -17 0 -39 71 -29 91
13 23 14 23 46 2z m-156 -213 c10 0 21 -8 24 -17 8 -20 -11 -44 -22 -27 -4 6
-17 16 -29 23 -26 13 -32 36 -7 27 9 -3 24 -6 34 -6z"/>
<path d="M2162 3538 c-15 -15 -16 -42 -2 -33 6 3 10 -1 10 -9 0 -9 4 -16 9
-16 7 0 6 59 -2 66 -2 2 -9 -2 -15 -8z"/>
<path d="M2267 3524 c-4 -4 -17 -8 -29 -9 -35 -3 -32 -22 4 -27 41 -7 60 0 56
20 -3 17 -21 26 -31 16z"/>
<path d="M1783 3508 c-21 -28 -24 -38 -9 -32 20 8 86 -14 87 -29 1 -7 1 -19 0
-27 -1 -8 7 -2 18 14 18 28 19 31 3 42 -9 7 -29 10 -44 7 -24 -5 -28 -2 -28
16 0 23 -13 27 -27 9z"/>
<path d="M1889 3380 c13 -11 35 -20 50 -20 14 0 44 -11 66 -25 59 -36 75 -42
135 -50 73 -10 59 3 -16 15 -35 6 -65 17 -74 27 -17 21 -70 43 -118 50 -18 3
-35 9 -38 14 -3 5 -11 9 -17 9 -7 -1 -1 -10 12 -20z"/>
<path d="M1450 3375 c0 -4 8 -14 18 -21 16 -13 16 -14 0 -8 -23 8 -23 -8 0
-29 24 -22 38 -21 63 4 l22 22 -34 12 c-19 7 -42 16 -51 20 -10 4 -18 4 -18 0z"/>
<path d="M1611 3358 c-40 -18 -42 -21 -27 -36 14 -14 18 -15 25 -3 5 7 10 9
12 3 5 -12 49 3 49 17 0 5 -10 7 -22 5 l-23 -5 23 12 c12 7 22 16 22 21 0 11
-8 9 -59 -14z"/>
<path d="M2360 3362 c-28 -10 -38 -17 -27 -20 9 -2 17 -6 17 -8 0 -13 -34 -70
-47 -77 -7 -5 -11 -12 -8 -17 7 -12 45 11 45 27 0 6 6 18 14 25 8 8 15 23 18
34 2 10 13 20 25 22 12 2 27 10 33 18 16 19 -9 17 -70 -4z"/>
<path d="M1397 3323 c3 -27 -1 -50 -11 -66 -9 -13 -13 -27 -9 -32 5 -4 3 -5
-3 -2 -22 13 -24 -25 -3 -55 26 -36 36 -28 42 32 3 36 4 32 5 -21 2 -52 6 -70
22 -84 36 -32 52 -28 44 11 -9 48 8 64 67 64 51 0 82 -20 73 -45 -4 -9 0 -15
9 -15 8 0 17 6 20 13 7 20 -22 67 -43 67 -10 0 -23 7 -28 16 -5 9 -24 18 -42
19 -22 2 -29 0 -21 -8 7 -7 2 -16 -19 -29 -17 -10 -30 -22 -30 -28 0 -5 -4
-10 -10 -10 -14 0 -40 96 -40 147 0 25 -4 42 -9 38 -5 -3 -12 3 -14 12 -2 10
-2 -1 0 -24z"/>
<path d="M288 3194 c-16 -8 -28 -16 -28 -18 0 -3 20 -14 45 -26 44 -21 49 -28
46 -60 -2 -12 0 -13 7 -1 7 10 21 -5 53 -60 47 -80 48 -81 35 -262 -3 -41 3
-75 25 -138 16 -46 33 -83 39 -81 5 1 10 -4 10 -11 0 -13 47 -106 61 -122 11
-11 -31 95 -71 180 -30 66 -54 151 -45 166 7 10 18 129 17 173 -1 16 -6 34
-12 40 -5 5 -10 16 -10 23 0 8 -19 39 -42 70 -24 30 -52 68 -63 84 -13 19 -26
27 -37 23 -20 -6 -25 12 -5 19 6 2 10 7 7 10 -3 3 -17 -1 -32 -9z"/>
<path d="M2328 3178 c-16 -5 -28 -14 -28 -19 0 -5 11 -4 25 1 16 6 34 6 50 0
31 -12 32 -7 3 12 -17 11 -30 12 -50 6z"/>
<path d="M2416 3159 c3 -5 35 -9 71 -9 37 0 64 2 62 4 -9 8 -138 13 -133 5z"/>
<path d="M1281 3141 c-11 -7 -7 -12 16 -24 16 -9 35 -23 43 -32 7 -9 27 -25
44 -36 l31 -21 -31 29 c-17 15 -44 43 -60 61 -21 23 -33 29 -43 23z"/>
<path d="M1520 3137 c0 -7 9 -18 20 -25 11 -7 20 -8 20 -2 0 6 9 6 26 0 l27
-10 -24 25 c-25 26 -69 34 -69 12z"/>
<path d="M1845 3131 c-23 -67 -64 -129 -105 -160 -39 -29 -78 -80 -80 -103 0
-13 48 -9 85 6 64 27 120 146 112 236 -3 38 -5 41 -12 21z m-69 -205 c-34 -45
-98 -62 -83 -22 8 20 101 78 105 65 2 -5 -8 -25 -22 -43z"/>
<path d="M2284 3114 c11 -7 28 -14 37 -14 10 0 20 -9 24 -19 6 -19 65 -36 65
-19 0 4 -8 8 -17 8 -9 0 -25 8 -35 17 -10 9 -36 23 -56 29 -33 12 -35 11 -18
-2z"/>
<path d="M1501 3098 c0 -15 -9 -31 -18 -36 -15 -9 -12 -13 18 -31 19 -12 50
-26 69 -32 19 -6 39 -15 45 -20 5 -5 14 -9 20 -9 5 1 0 9 -13 20 l-23 19 45
44 c52 49 60 72 21 54 -14 -7 -27 -19 -30 -27 -3 -8 -21 -25 -41 -38 -36 -23
-62 -24 -94 -2 -12 8 -13 12 -2 19 8 5 12 20 9 37 l-4 29 -2 -27z"/>
<path d="M1180 3074 c19 -8 50 -29 68 -46 17 -18 32 -28 32 -22 0 5 6 -1 13
-12 35 -62 113 -162 122 -158 5 3 -8 -11 -30 -30 -61 -55 -96 -49 -150 24 -38
52 -45 70 -17 49 15 -13 16 -12 3 3 -7 10 -17 16 -20 13 -4 -2 -28 16 -52 41
-24 25 -60 54 -79 64 -19 11 -28 19 -20 20 20 0 53 -22 110 -74 l45 -41 -45
48 c-49 53 -122 97 -128 78 -2 -6 -12 -11 -23 -11 -29 0 -69 -44 -69 -76 l0
-27 23 21 c32 31 53 28 105 -15 107 -88 163 -146 160 -167 -6 -42 -64 -57
-220 -59 -79 -1 -154 2 -168 6 -23 7 -23 7 -7 -6 9 -8 17 -19 17 -26 0 -9 15
-13 50 -13 59 -1 247 15 265 22 16 6 25 6 25 -1 0 -5 14 6 31 26 32 36 69 47
69 20 0 -35 -88 -165 -111 -165 -6 0 -7 6 -3 13 5 9 4 9 -6 0 -7 -6 -18 -22
-24 -35 -6 -12 -20 -24 -31 -26 -27 -5 -71 -48 -85 -83 -14 -34 -18 -35 -36
-11 -11 15 -12 12 -7 -22 5 -32 3 -38 -9 -34 -11 5 -13 -1 -10 -22 6 -43 -22
-46 -47 -4 -11 19 -25 34 -31 34 -13 0 -31 15 -67 53 -15 15 -36 27 -47 27
-19 0 -18 -3 9 -26 21 -18 24 -24 10 -19 -44 16 -52 16 -64 1 -12 -14 -10 -16
13 -16 63 0 209 -94 205 -134 -2 -36 1 -47 11 -41 6 3 10 4 10 0 0 -3 -11 -10
-25 -15 -14 -5 -22 -15 -20 -22 3 -7 -4 -20 -16 -28 -11 -8 -32 -25 -45 -37
-14 -13 -30 -23 -35 -23 -6 0 -7 -4 -4 -10 12 -20 -12 -10 -35 15 -12 13 -45
32 -72 41 -26 8 -45 20 -42 26 3 5 12 7 19 4 9 -3 15 10 20 45 6 42 10 49 29
49 12 0 48 -16 81 -35 74 -45 82 -40 10 7 -61 40 -178 69 -198 49 -8 -8 -3
-11 21 -11 36 0 36 1 22 -35 -5 -14 -14 -23 -20 -20 -6 4 -10 -7 -10 -24 0
-25 -6 -34 -32 -45 l-33 -15 34 6 c26 5 32 3 28 -8 -3 -8 -13 -37 -22 -65 -10
-32 -24 -55 -38 -63 -22 -11 -22 -11 2 -5 20 5 23 3 18 -11 -4 -9 -7 -21 -7
-26 0 -5 -8 -9 -17 -9 -10 0 -25 -5 -33 -11 -11 -8 -9 -9 10 -3 24 7 24 6 7
-19 -22 -34 -22 -37 8 -37 20 0 27 6 32 30 4 23 11 30 28 30 45 0 54 -9 43
-41 -14 -40 -7 -56 15 -34 11 10 15 25 12 36 -7 21 6 24 36 9 15 -8 17 -15 10
-29 -11 -19 -5 -58 12 -79 13 -17 -14 -7 -73 27 -38 22 -55 25 -124 24 -43 -1
-83 -6 -89 -12 -8 -8 -5 -11 10 -11 24 0 45 -21 35 -35 -4 -6 -17 -16 -29 -22
-19 -11 -21 -10 -17 2 3 8 2 20 -2 27 -6 9 -10 4 -14 -16 -4 -21 -12 -30 -29
-33 -22 -3 -23 -1 -18 32 3 19 1 37 -4 40 -5 4 -9 -12 -9 -34 0 -30 -4 -41
-15 -41 -17 0 -22 55 -5 65 10 6 3 35 -9 35 -7 0 -21 -23 -40 -64 -2 -5 3 -6
12 -3 29 11 13 -36 -24 -73 -30 -29 -39 -49 -53 -114 -10 -43 -16 -98 -14
-122 2 -24 0 -44 -4 -44 -8 0 -4 -42 6 -58 4 -7 3 -19 -4 -27 -8 -10 -2 -22
28 -54 34 -36 44 -41 83 -40 34 0 39 2 23 9 -38 15 -82 77 -94 133 -19 81 -9
222 18 275 19 35 27 42 55 43 60 3 65 4 73 12 10 9 36 9 52 -1 9 -6 10 -16 3
-34 -8 -22 -6 -27 15 -37 14 -6 35 -11 48 -11 13 0 29 -7 36 -15 7 -8 24 -14
39 -13 15 1 32 -1 39 -5 14 -10 62 20 62 39 0 8 -4 14 -10 14 -5 0 -10 -4 -10
-9 0 -10 -31 -24 -38 -17 -6 7 70 136 80 136 13 0 9 -39 -6 -69 l-15 -27 61 7
c36 4 70 3 83 -3 l22 -10 -39 -71 c-37 -67 -38 -72 -21 -85 27 -19 64 -26 82
-15 8 5 41 76 72 157 31 81 72 177 90 214 30 60 40 70 89 94 30 15 72 28 93
28 l39 0 -24 -29 c-62 -72 -205 -357 -194 -385 2 -6 10 4 17 23 25 68 122 257
166 324 24 37 45 67 46 67 41 -3 240 -98 350 -167 21 -13 41 -22 44 -20 4 5
-66 49 -180 111 -86 47 -198 94 -214 89 -6 -2 -14 1 -18 6 -4 7 6 11 27 11 19
0 43 7 54 16 18 15 18 15 -5 8 -16 -4 -21 -3 -17 5 4 6 0 11 -10 11 -9 0 -34
5 -55 12 -31 9 -37 14 -28 25 9 10 5 13 -22 13 -54 0 -63 11 -54 66 l7 49 -28
-25 c-61 -54 -100 -112 -89 -130 11 -18 21 -10 43 35 12 25 27 45 33 45 11 0
10 -11 -6 -55 -6 -19 -6 -19 9 -1 12 15 20 16 43 8 16 -6 21 -11 11 -11 -9 -1
-18 -6 -20 -12 -2 -6 -16 -11 -31 -11 -15 0 -27 -3 -27 -7 0 -3 -4 -12 -9 -20
-7 -11 -14 -9 -39 9 l-31 23 21 41 c11 23 27 49 36 59 17 20 14 21 -22 7 -17
-6 -24 -14 -20 -25 3 -8 1 -15 -6 -15 -6 0 -10 -8 -9 -17 1 -10 -1 -26 -6 -36
-4 -10 -2 -23 5 -32 10 -12 10 -18 0 -30 -7 -8 -17 -12 -23 -8 -6 4 -8 0 -4
-10 4 -12 1 -17 -9 -17 -10 0 -14 -6 -11 -15 4 -8 2 -17 -4 -20 -5 -4 -9 -12
-8 -18 3 -27 -2 -36 -18 -31 -16 5 -16 4 1 -10 18 -15 18 -17 -9 -81 -26 -61
-29 -64 -42 -45 -8 11 -19 18 -24 14 -15 -9 20 -44 43 -44 13 0 26 17 43 56
14 31 25 62 25 69 0 12 29 30 36 22 2 -1 -14 -45 -35 -97 -35 -87 -48 -116
-98 -232 -17 -39 -43 -51 -43 -20 0 9 11 39 24 66 26 54 26 119 -1 146 -14 13
-14 12 -3 -8 6 -13 10 -26 7 -28 -8 -8 -27 23 -29 49 -3 33 -18 24 -19 -11 0
-26 -1 -26 -13 7 -10 29 -13 31 -25 17 -23 -27 -31 -8 -27 72 4 99 21 136 110
227 39 40 82 84 94 98 l24 25 -23 31 -23 31 23 24 c14 15 21 31 17 41 -5 13
52 99 104 158 4 5 17 -7 28 -27 l21 -35 -27 -4 -27 -4 26 -2 c18 -1 29 -8 33
-23 9 -34 7 -40 -6 -33 -7 4 5 -9 27 -29 22 -20 33 -36 25 -36 -12 0 -12 -2 0
-15 26 -25 269 -65 397 -65 42 0 45 1 28 14 -14 10 -27 11 -53 4 -27 -8 -43
-6 -73 7 -22 10 -48 15 -61 11 -13 -3 -54 0 -93 6 -56 11 -76 19 -102 46 -18
17 -36 32 -41 32 -12 0 -10 94 2 103 6 4 -2 5 -19 2 -29 -6 -29 -6 -8 7 l22
13 -28 13 c-49 22 -46 39 18 98 39 36 69 77 90 119 23 47 38 65 52 65 10 0 19
-6 19 -12 0 -7 13 2 28 20 l28 34 67 -39 c37 -21 81 -44 97 -52 17 -8 30 -18
30 -22 0 -12 -200 -142 -295 -191 -49 -26 -83 -47 -75 -48 8 0 29 9 46 19 17
10 45 22 62 26 18 3 32 10 32 14 0 9 60 31 60 23 0 -4 12 -15 25 -25 24 -17
25 -17 25 3 0 11 -6 19 -12 18 -25 -5 -13 26 17 47 17 11 32 25 34 30 6 15 63
55 72 50 4 -3 9 1 12 7 3 9 9 7 20 -7 8 -10 13 -25 10 -32 -9 -23 26 -25 57
-3 l31 22 42 -44 c56 -59 82 -99 79 -120 -3 -19 13 -25 22 -9 9 13 -92 151
-120 163 l-25 12 22 11 c15 9 18 14 10 20 -7 4 -20 0 -30 -9 -22 -20 -41 -20
-41 0 0 10 -7 14 -22 12 -28 -4 -72 33 -55 45 8 6 5 7 -6 3 -17 -5 -128 44
-170 76 -17 12 -15 16 28 46 29 20 45 39 45 52 0 12 -4 18 -10 15 -5 -3 -7 0
-4 8 6 15 -23 44 -33 33 -4 -4 -2 -16 5 -26 16 -26 16 -27 -9 -33 -27 -7 -49
1 -49 18 0 8 -4 16 -9 19 -22 14 4 -35 26 -49 22 -15 26 -15 49 0 13 8 24 13
24 10 0 -3 -14 -14 -31 -24 -31 -19 -31 -19 -56 2 -13 12 -38 44 -55 72 -16
27 -41 62 -54 76 -22 23 -23 27 -9 39 8 7 15 17 15 23 0 5 -8 3 -18 -6 -17
-15 -20 -15 -43 1 -13 9 -42 18 -64 19 l-40 2 35 -15z m96 -45 c15 -26 -6 -15
-37 18 l-34 36 32 -22 c18 -12 35 -27 39 -32z m405 -376 c0 -5 2 -16 4 -25 4
-22 -2 -23 -21 -3 -9 8 -12 19 -9 25 7 12 25 13 26 3z m-925 -549 c24 -14 44
-32 44 -41 0 -8 -4 -12 -8 -9 -4 3 -17 -15 -27 -39 -20 -43 -20 -43 -48 -28
-45 23 -43 8 2 -18 39 -21 61 -49 40 -49 -5 0 -26 7 -46 15 -19 8 -51 15 -70
15 -19 0 -32 4 -28 10 3 5 13 6 21 3 14 -5 15 -1 9 26 -4 18 -2 37 3 44 6 7
15 31 21 55 14 50 25 52 87 16z m583 -60 c2 -2 -10 -4 -27 -4 -20 0 -32 -5
-32 -14 0 -8 -17 -15 -50 -19 -28 -3 -58 -11 -68 -17 -14 -9 -13 -10 8 -5 14
3 3 -5 -25 -19 -27 -14 -51 -24 -52 -22 -2 1 24 29 57 60 l60 57 62 -7 c35 -4
65 -8 67 -10z m-239 -18 c0 -19 -22 -56 -34 -56 -12 0 -12 5 -3 30 6 17 17 30
24 30 7 0 13 -2 13 -4z m-33 -83 c6 -16 -28 -53 -49 -53 -11 0 1 43 13 48 5 2
7 8 3 13 -3 5 2 9 11 9 8 0 18 -7 22 -17z m-368 -134 c17 -6 31 -15 31 -19 0
-5 -18 -43 -41 -84 -33 -62 -45 -76 -65 -76 -31 0 -31 18 1 63 13 20 20 39 15
42 -5 3 -18 -15 -29 -40 -11 -25 -27 -45 -35 -45 -20 0 -21 32 -1 70 9 17 11
30 6 30 -6 0 -16 -18 -22 -41 -13 -42 -33 -59 -50 -42 -9 9 17 118 34 141 12
15 112 16 156 1z m91 -69 c0 -5 3 -9 8 -9 18 3 32 -2 32 -12 0 -5 -4 -7 -10
-4 -5 3 -10 0 -11 -7 0 -9 -2 -10 -5 -1 -3 7 -12 9 -20 6 -9 -3 -14 2 -14 16
0 12 5 21 10 21 6 0 10 -4 10 -10z"/>
<path d="M727 2060 c-8 -19 -13 -39 -10 -44 8 -13 35 42 30 62 -3 12 -8 7 -20
-18z"/>
<path d="M1870 3025 c-6 -15 -13 -31 -16 -36 -2 -4 6 -6 20 -3 43 7 39 -28
-13 -111 -10 -16 -16 -33 -14 -37 11 -19 -18 -5 -35 17 -11 14 -23 25 -26 25
-13 0 -5 -30 12 -47 10 -10 29 -35 42 -55 14 -21 44 -52 68 -69 38 -27 42 -34
42 -73 0 -24 -9 -69 -21 -102 -11 -32 -22 -72 -24 -88 -5 -36 -23 -93 -37
-124 -10 -18 -8 -26 10 -45 12 -13 22 -30 22 -38 0 -8 9 -25 20 -39 26 -33 25
-44 -5 -60 -32 -17 -32 -40 0 -70 14 -13 23 -30 21 -37 -6 -13 31 -39 50 -35
9 2 35 -43 40 -68 4 -22 29 -69 47 -88 24 -26 28 -41 27 -99 0 -24 4 -43 10
-43 5 0 10 4 10 9 0 4 10 8 22 7 18 -1 24 7 31 36 7 28 16 39 39 47 47 17 58
14 58 -14 0 -18 7 -28 26 -35 14 -6 27 -10 30 -10 5 0 -26 81 -37 95 -7 10
-34 100 -43 145 -3 14 -10 43 -15 65 -6 22 -10 51 -10 65 0 23 1 24 13 7 12
-15 14 -15 19 -2 9 21 -32 29 -96 20 -29 -4 -63 -8 -76 -9 -13 -2 -27 -10 -32
-19 -5 -9 -23 -26 -40 -38 -29 -21 -31 -21 -44 -3 -9 12 -13 36 -11 64 3 42 7
47 49 72 40 23 135 58 159 58 4 0 8 -7 8 -15 0 -8 -5 -15 -12 -15 -6 0 -8 -3
-5 -6 3 -4 2 -15 -3 -25 -7 -12 -7 -20 0 -24 6 -4 8 -11 5 -16 -4 -5 10 -9 30
-9 30 0 35 3 32 18 -24 86 -42 135 -54 139 -7 3 -13 18 -13 34 0 16 -9 62 -20
101 -25 89 -26 112 -4 104 8 -3 13 -2 10 3 -3 4 -32 18 -65 30 -65 24 -101 61
-101 105 0 15 -8 31 -20 38 -11 7 -20 17 -20 23 0 6 -10 16 -22 24 -22 13 -23
13 -5 -6 21 -24 23 -40 3 -23 -24 19 -56 79 -46 85 16 10 80 131 80 152 0 10
-13 32 -30 48 l-29 28 -11 -28z m215 -525 c4 -25 13 -63 21 -85 12 -36 12 -41
-4 -54 -15 -12 -14 -12 8 -6 22 7 24 6 11 -9 -11 -13 -11 -20 -3 -28 22 -22
12 -37 -25 -44 -21 -4 -59 -22 -85 -41 l-47 -34 -13 23 c-7 13 -12 26 -13 30
0 3 -11 19 -24 34 -23 26 -24 31 -12 78 20 89 29 120 47 171 9 28 19 56 20 62
2 8 22 1 58 -20 50 -29 55 -36 61 -77z m70 -410 c7 -14 16 -42 20 -61 6 -35 5
-36 -26 -43 -18 -3 -33 -5 -33 -4 -28 59 -40 88 -46 108 -7 24 -5 25 32 25 32
0 42 -5 53 -25z m-60 -129 c3 -12 2 -21 -3 -21 -5 0 -13 17 -17 37 -6 31 -8
34 -16 20 -6 -9 -7 -23 -4 -30 4 -6 -7 4 -24 23 -37 42 -37 47 -8 70 l22 18
22 -48 c11 -26 24 -58 28 -69z m104 -39 c14 -29 31 -52 40 -52 11 0 10 -3 -5
-15 -18 -14 -18 -14 6 -15 29 0 17 -13 -25 -28 -16 -5 -38 -13 -47 -17 -13 -5
-18 -2 -18 9 0 9 7 16 15 16 8 0 15 4 15 9 0 5 8 12 18 14 13 4 13 5 2 6 -9 0
-32 -7 -52 -17 -26 -14 -35 -15 -31 -5 3 7 1 13 -4 13 -11 0 -48 68 -40 76 3
3 16 -13 29 -35 25 -44 26 -45 47 -32 11 7 10 18 -7 64 -16 41 -18 57 -9 61
27 11 43 -2 66 -52z"/>
<path d="M1967 3000 c-4 -25 -21 -69 -36 -97 -20 -36 -25 -53 -16 -53 7 0 18
14 24 30 12 36 48 43 47 9 -1 -12 6 -24 14 -26 13 -4 13 -3 0 6 -8 5 -11 13
-7 18 5 4 12 1 16 -6 10 -15 3 -51 -10 -51 -5 0 -9 -7 -9 -15 0 -9 -7 -18 -15
-21 -8 -4 -15 -13 -15 -21 0 -21 65 61 91 115 21 42 21 44 4 60 -17 16 -17 16
-12 0 8 -24 -2 -23 -24 3 -10 12 -15 28 -12 37 6 15 4 15 -9 4 -15 -12 -17 -9
-20 20 -3 32 -4 31 -11 -12z"/>
<path d="M2769 3000 c-19 -16 -41 -30 -49 -31 -10 0 -9 -3 4 -8 14 -5 27 2 52
27 19 19 34 37 34 39 0 7 -9 2 -41 -27z"/>
<path d="M2081 2915 c-7 -23 -36 -74 -66 -113 -53 -70 -62 -111 -11 -51 30 36
36 19 6 -18 -34 -44 -21 -59 18 -22 12 11 20 24 17 30 -4 5 -1 9 4 9 6 0 11
-5 11 -11 0 -5 6 -7 13 -3 6 3 -6 -11 -29 -32 -22 -22 -33 -34 -25 -28 38 26
40 25 30 -8 -12 -43 -12 -61 1 -53 6 4 8 11 5 16 -4 5 -3 9 2 9 41 1 54 72 24
135 -26 55 -27 73 -5 54 14 -11 19 -10 36 11 13 16 17 32 13 49 -4 20 -3 22 5
11 8 -12 10 -12 10 -1 0 7 -11 23 -23 35 l-24 22 -12 -41z"/>
<path d="M1264 2929 c-3 -6 1 -18 10 -27 12 -13 19 -13 28 -4 9 9 8 12 -5 12
-10 0 -14 5 -11 15 7 17 -11 21 -22 4z"/>
<path d="M990 2905 c-16 -17 -34 -25 -57 -25 -18 0 -33 -4 -33 -10 0 -5 7 -7
15 -4 8 4 22 3 31 0 15 -6 15 -8 2 -24 -9 -9 -23 -32 -32 -49 -11 -22 -24 -33
-39 -34 -16 -1 -17 -3 -5 -6 10 -2 15 -10 11 -19 -6 -15 5 -18 23 -6 14 8 69
114 66 125 -3 12 50 -4 88 -26 84 -49 87 -51 55 -23 -16 14 -53 38 -82 53 -28
15 -49 31 -47 35 3 5 14 3 25 -3 12 -6 23 -8 26 -6 2 3 -5 8 -17 12 -17 5 -19
10 -9 21 19 24 4 16 -21 -11z"/>
<path d="M1327 2895 c3 -9 -3 -25 -13 -36 -18 -20 -18 -21 1 -35 24 -18 46
-18 22 0 -10 8 -15 20 -11 30 8 22 15 20 42 -11 15 -18 12 -11 -8 20 -31 47
-44 60 -33 32z"/>
<path d="M2710 2795 c-14 -17 -13 -17 46 -19 53 -2 89 -26 114 -75 21 -43 64
-81 89 -81 11 0 7 6 -11 17 -15 9 -39 40 -54 68 -40 73 -63 91 -115 90 -24 0
-47 3 -50 8 -3 4 -12 1 -19 -8z"/>
<path d="M1680 2796 c0 -4 7 -23 15 -42 10 -23 19 -33 27 -28 9 6 9 9 0 12 -7
2 -12 12 -12 22 0 9 -7 23 -15 30 -8 7 -15 10 -15 6z"/>
<path d="M2640 2774 c-14 -8 -24 -19 -22 -25 1 -6 -3 -17 -9 -25 -9 -11 -7
-14 8 -14 17 0 19 5 15 28 -4 25 -3 26 10 8 8 -10 20 -16 26 -12 17 10 15 26
-3 20 -20 -8 -19 6 3 22 22 17 4 16 -28 -2z"/>
<path d="M2383 2760 c3 -11 2 -18 -3 -15 -4 3 -10 -2 -13 -10 -4 -9 -1 -12 9
-8 7 3 14 0 14 -6 0 -6 -6 -11 -14 -11 -16 0 -31 -18 -23 -26 2 -3 24 12 48
32 24 20 45 31 47 25 2 -6 8 -11 14 -11 12 0 38 -26 38 -38 0 -15 32 -24 44
-12 8 8 6 9 -6 5 -13 -5 -18 -2 -18 10 0 12 6 16 18 13 9 -3 25 3 35 12 17 17
17 18 -8 18 -14 0 -25 -4 -25 -9 0 -18 -37 -8 -61 17 -16 17 -31 24 -47 21
-12 -2 -25 0 -28 4 -10 17 -26 9 -21 -11z"/>
<path d="M997 2753 c-13 -12 -7 -23 13 -23 11 0 20 7 20 15 0 15 -21 21 -33 8z"/>
<path d="M1650 2729 c-7 -11 -10 -22 -8 -25 8 -7 48 27 43 37 -10 15 -24 10
-35 -12z"/>
<path d="M2266 2680 c-84 -42 -126 -72 -64 -46 32 14 37 14 32 1 -3 -8 -14
-17 -25 -20 -31 -10 -22 -24 9 -16 43 13 64 29 100 77 18 24 31 44 30 43 -2 0
-39 -18 -82 -39z"/>
<path d="M1726 2698 c3 -4 0 -8 -5 -8 -6 0 -11 -8 -11 -17 1 -17 1 -17 11 0 7
12 17 15 34 11 12 -3 34 0 48 8 25 12 23 13 -28 14 -30 0 -51 -4 -49 -8z"/>
<path d="M2350 2655 c0 -8 -5 -15 -10 -15 -7 0 -7 -4 0 -12 6 -7 17 -22 24
-33 13 -18 14 -18 9 8 -4 20 -1 27 11 27 19 0 21 11 4 28 -17 17 -38 15 -38
-3z"/>
<path d="M840 2633 c0 -5 14 -24 30 -43 27 -33 29 -33 30 -12 0 34 -18 62 -40
62 -11 0 -20 -3 -20 -7z"/>
<path d="M2070 2625 c-15 -18 -16 -17 30 -40 35 -18 35 -18 18 2 -10 11 -18
27 -18 36 0 21 -14 22 -30 2z"/>
<path d="M1595 2509 c-44 -28 -129 -76 -190 -106 -60 -30 -99 -51 -85 -48 52
14 215 97 285 144 40 28 75 47 79 44 3 -4 6 -38 6 -76 0 -39 3 -67 7 -63 8 8
9 12 12 66 l1 35 55 -60 c30 -33 57 -69 61 -81 5 -21 -25 -104 -38 -104 -5 0
-8 -7 -8 -15 0 -25 -69 -23 -84 2 -7 13 -10 13 -17 2 -5 -8 -9 -22 -9 -33 0
-16 5 -18 43 -12 23 3 53 8 67 12 17 4 21 3 12 -4 -7 -5 -12 -15 -10 -22 2 -7
-8 -16 -21 -19 -14 -4 -26 -12 -29 -19 -5 -15 17 -12 36 6 24 22 32 13 32 -33
0 -43 -1 -45 -29 -45 -17 0 -33 4 -36 10 -4 6 -16 3 -31 -7 -36 -23 -112 -19
-141 9 -27 25 -29 50 -8 68 13 11 14 8 9 -17 -4 -20 -1 -33 10 -42 14 -12 16
-11 10 3 -4 10 5 26 25 45 25 24 36 28 59 22 23 -7 27 -13 27 -43 0 -28 3 -34
13 -26 18 15 15 52 -6 71 -12 11 -36 17 -64 17 -43 0 -46 -2 -41 -22 l5 -23
-20 22 c-17 19 -31 23 -92 25 -39 1 -73 5 -76 10 -3 5 -21 6 -41 2 -25 -5 -38
-3 -45 7 -7 11 -11 11 -15 2 -7 -19 -70 -16 -91 5 -17 17 -18 16 -20 -36 -2
-43 1 -53 12 -49 7 3 19 1 25 -4 8 -6 8 -5 1 3 -5 7 -10 26 -10 43 l1 30 17
-23 c9 -13 28 -35 41 -50 l23 -27 -20 37 c-24 43 -16 50 51 43 53 -6 135 -13
165 -14 17 -1 22 -7 22 -28 0 -14 8 -35 18 -46 17 -19 16 -20 -13 -13 -16 4
-82 9 -145 11 -106 5 -112 4 -74 -8 22 -8 67 -17 100 -20 58 -6 58 -6 24 8
-19 7 -30 14 -25 14 22 2 175 -34 175 -41 0 -4 6 -5 14 -2 10 4 12 -2 9 -20
-3 -14 -10 -26 -15 -26 -5 0 -6 -5 -3 -10 10 -16 25 -2 25 23 0 12 5 29 11 37
9 12 10 10 6 -8 -4 -19 -3 -21 8 -12 8 7 30 20 49 29 32 17 36 17 52 2 9 -9
14 -10 10 -3 -5 8 1 12 20 12 20 0 25 -3 17 -11 -8 -8 -7 -16 5 -28 10 -10 22
-26 28 -37 10 -15 11 -10 6 30 -5 54 11 59 23 6 4 -17 11 -30 16 -30 5 0 6
-38 3 -86 -4 -79 -3 -85 11 -70 9 9 23 16 31 16 26 0 25 25 -2 106 -34 102
-41 114 -65 114 -19 0 -20 5 -16 48 3 26 8 60 12 76 7 26 6 28 -13 22 -21 -7
-21 -6 -8 31 8 21 19 50 26 65 12 25 9 31 -53 105 -36 43 -78 90 -94 105 l-29
28 -79 -51z"/>
<path d="M845 2529 c11 -6 33 -23 50 -38 l29 -26 -26 35 c-14 20 -36 36 -49
38 -23 2 -23 2 -4 -9z"/>
<path d="M797 2523 c-13 -12 -7 -23 11 -23 10 0 27 -7 38 -16 18 -14 18 -15
-6 -8 -39 12 -73 10 -77 -4 -3 -7 1 -10 10 -6 8 3 32 -5 53 -18 30 -17 36 -18
25 -5 -24 31 14 20 56 -15 l38 -32 -25 29 c-14 17 -28 31 -32 33 -5 2 -8 9 -8
15 0 7 -16 22 -35 35 -39 25 -39 25 -48 15z"/>
<path d="M2836 2505 c3 -11 13 -51 20 -90 8 -38 21 -76 30 -85 10 -9 14 -10 9
-2 -4 7 -13 42 -20 77 -8 35 -21 76 -30 92 -9 15 -13 19 -9 8z"/>
<path d="M2667 2493 c-4 -3 -7 -24 -7 -45 0 -34 -6 -43 -31 -40 -3 1 -4 -11
-1 -25 l5 -26 13 24 c14 26 17 21 14 -23 -2 -34 16 -37 26 -5 3 12 12 29 20
37 7 9 13 24 12 35 0 11 2 27 6 36 4 10 2 16 -6 16 -8 0 -14 -14 -15 -35 -1
-19 -7 -40 -14 -46 -9 -8 -10 -2 -6 26 3 21 1 40 -4 44 -6 3 -8 12 -5 20 6 15
3 18 -7 7z"/>
<path d="M2745 2449 c-3 -19 -5 -41 -3 -49 2 -8 -2 -14 -9 -13 -7 2 -15 -16
-19 -42 -3 -25 -10 -43 -14 -40 -10 6 -20 -19 -20 -51 0 -39 -17 -27 -36 26
-10 28 -20 50 -24 50 -3 0 -5 -36 -5 -80 0 -75 1 -79 20 -73 25 7 41 28 55 71
7 17 16 32 21 32 12 0 11 -7 -2 -32 -8 -15 -8 -23 1 -32 8 -8 10 -7 4 7 -5 14
-2 16 12 10 14 -5 16 -3 10 13 -18 47 -18 75 2 116 25 52 33 90 22 108 -6 9
-10 3 -15 -21z"/>
<path d="M746 2372 c-3 -3 -22 -5 -42 -4 -46 2 -59 -5 -43 -24 10 -13 15 -12
32 3 22 19 22 20 1 -31 -5 -13 22 -26 54 -26 18 0 15 27 -4 34 -24 9 -11 30
22 36 26 5 27 6 7 12 -12 3 -24 3 -27 0z"/>
<path d="M315 2342 c3 -15 -3 -23 -23 -31 -26 -10 -26 -10 -3 -8 31 3 50 32
34 48 -10 10 -12 8 -8 -9z"/>
<path d="M142 2337 c1 -10 5 -17 8 -15 3 1 16 -5 30 -15 28 -19 40 -22 40 -7
0 6 -7 10 -15 10 -8 0 -15 5 -15 11 0 7 10 9 25 7 14 -3 28 -1 32 5 4 6 -10 8
-40 5 -27 -3 -50 -1 -57 6 -9 8 -11 6 -8 -7z"/>
<path d="M2926 2324 c-8 -20 -8 -19 21 -28 20 -6 21 -5 10 18 -14 30 -22 32
-31 10z"/>
<path d="M338 2291 c-12 -14 -11 -15 5 -2 14 11 21 11 29 3 7 -7 20 -12 30
-12 10 0 18 -7 18 -15 0 -17 9 -19 28 -6 10 6 6 13 -15 26 -36 24 -79 27 -95
6z"/>
<path d="M355 2250 c3 -5 -1 -10 -9 -10 -9 0 -16 -4 -16 -10 0 -14 23 -13 38
2 17 17 15 28 -4 28 -8 0 -12 -4 -9 -10z"/>
<path d="M2545 2239 c-5 -6 -1 -16 9 -21 11 -6 14 -17 10 -32 -4 -16 0 -25 10
-29 23 -9 28 7 14 49 -14 39 -31 53 -43 33z"/>
<path d="M2747 2205 c-4 -8 -13 -15 -21 -15 -14 0 -31 -29 -21 -38 3 -3 5 0 5
7 0 7 6 11 12 9 12 -4 43 40 34 49 -2 2 -6 -3 -9 -12z"/>
<path d="M110 2201 c0 -6 5 -13 10 -16 7 -4 6 -13 -1 -26 -9 -18 -8 -19 10 -8
24 16 51 -2 51 -35 1 -13 6 -7 15 19 18 49 18 48 3 42 -7 -2 -24 4 -37 14 -25
20 -51 25 -51 10z"/>
<path d="M235 2160 c-8 -13 11 -30 35 -30 8 0 28 -11 44 -25 34 -29 37 -30 30
-10 -4 8 -10 15 -14 15 -5 0 -10 10 -12 23 -2 14 -9 21 -20 21 -10 -1 -15 2
-12 7 3 5 1 9 -5 9 -5 0 -12 -6 -14 -12 -4 -10 -8 -10 -15 1 -7 10 -11 10 -17
1z"/>
<path d="M550 2114 c0 -7 8 -18 18 -23 16 -10 16 -12 0 -25 -22 -16 -23 -26
-4 -26 8 0 19 14 25 31 15 44 14 46 -14 51 -16 4 -25 1 -25 -8z"/>
<path d="M2736 2103 c-4 -5 -11 -8 -14 -9 -9 -1 -40 -13 -67 -25 -15 -6 -12
-7 10 -2 17 3 35 10 41 15 8 5 14 3 18 -8 6 -15 21 -12 21 4 0 4 4 13 8 20 9
13 -5 17 -17 5z"/>
<path d="M2837 2099 c-13 -8 -17 -24 -17 -75 0 -48 3 -65 13 -61 8 2 12 25 12
65 0 58 1 62 22 62 13 0 23 4 23 8 0 11 -33 12 -53 1z"/>
<path d="M2467 2053 c-9 -2 -15 -9 -11 -14 3 -5 9 -7 14 -4 5 3 18 1 29 -4 11
-7 35 -7 62 -2 l44 9 -52 1 c-29 1 -53 6 -53 11 0 10 -3 11 -33 3z"/>
<path d="M450 2039 c0 -5 5 -9 11 -9 23 0 40 -30 37 -67 -2 -29 -7 -38 -20
-37 -10 1 -18 -2 -18 -7 0 -6 -12 -8 -27 -5 -16 2 -28 5 -28 6 0 1 -12 3 -28
5 -41 5 -23 -12 20 -20 54 -10 80 -25 62 -36 -7 -4 -11 -10 -9 -13 3 -2 21 13
41 35 20 21 34 39 32 39 -2 0 3 11 12 24 18 28 10 56 -16 56 -22 0 -24 10 -6
30 10 12 9 12 -4 2 -9 -6 -19 -9 -23 -5 -10 11 -36 12 -36 2z"/>
<path d="M2614 2009 c-7 -12 -13 -109 -6 -109 2 0 12 4 22 10 15 8 17 15 9 50
-5 23 -7 45 -4 51 4 5 2 9 -4 9 -5 0 -13 -5 -17 -11z"/>
<path d="M1800 1973 c0 -18 -4 -33 -10 -33 -5 0 -7 -7 -4 -15 8 -20 4 -19 -62
10 -70 31 -83 27 -15 -5 66 -30 76 -55 42 -99 l-26 -34 -1 -291 0 -291 -38
-120 c-30 -96 -81 -229 -122 -321 -6 -13 38 -34 71 -34 14 0 25 5 25 11 0 7
-12 10 -30 7 -46 -7 -52 11 -26 67 40 85 126 339 126 372 0 20 17 23 46 9 15
-8 56 -18 91 -22 34 -3 63 -11 63 -16 0 -5 4 -6 10 -3 12 7 24 -40 14 -56 -5
-9 -11 -7 -21 6 -7 11 -13 15 -13 9 0 -8 -33 -52 -90 -121 -6 -7 -10 -18 -10
-26 0 -7 -6 -21 -13 -32 -10 -12 -12 -30 -7 -56 6 -34 7 -49 1 -95 -1 -14 -45
-34 -74 -34 -18 0 -19 -2 -7 -10 15 -10 33 -7 82 12 35 13 46 63 29 126 -10
39 -9 48 6 71 10 14 23 39 28 55 8 22 23 33 61 47 60 23 76 49 64 105 -23 113
-23 113 26 136 24 12 46 29 49 39 5 15 -68 285 -80 297 -2 3 -7 -3 -11 -12 -7
-17 -1 -41 40 -175 28 -90 25 -115 -17 -130 -19 -7 -23 -4 -28 18 -5 19 -6 16
-4 -11 6 -76 -13 -45 -25 40 -6 48 -29 178 -51 290 -22 112 -37 207 -34 213 4
5 2 9 -4 9 -5 0 -12 -9 -16 -19 -3 -11 -22 -34 -42 -52 -31 -26 -33 -30 -12
-23 57 18 63 14 75 -61 12 -71 19 -104 28 -133 8 -26 34 -179 42 -247 9 -78 8
-97 -8 -106 -9 -6 -4 -9 14 -9 14 0 29 6 31 13 3 6 4 -3 4 -22 l-2 -33 -65 6
c-36 3 -81 10 -101 16 l-36 10 -6 213 c-3 116 -11 244 -18 283 l-12 72 38 48
c20 27 41 50 46 50 5 1 15 2 22 3 6 1 3 7 -8 13 -11 6 -21 12 -23 13 -1 1 2
14 8 29 7 18 7 33 0 44 -7 14 -9 10 -10 -15z"/>
<path d="M2922 1974 c-7 -8 -17 -12 -22 -9 -4 3 -11 -2 -14 -11 -3 -8 -11 -14
-18 -13 -7 1 -20 0 -28 -4 -29 -11 -90 -13 -90 -2 0 5 -4 4 -8 -3 -5 -7 -16
-10 -24 -7 -9 4 -19 1 -23 -6 -6 -8 1 -10 24 -7 19 3 31 0 31 -7 0 -6 12 -10
28 -9 34 2 165 65 170 82 5 16 -10 15 -26 -4z"/>
<path d="M228 1947 c-16 -6 -28 -14 -28 -19 0 -12 48 -10 55 2 9 15 25 12 25
-5 0 -8 -11 -22 -25 -31 -23 -15 -26 -15 -54 5 -37 27 -43 26 -31 -1 5 -13 14
-75 20 -138 5 -63 13 -133 17 -155 5 -22 3 -102 -3 -181 -12 -157 -29 -208
-98 -298 -35 -44 -36 -48 -15 -41 13 4 72 20 131 35 65 17 127 40 159 60 29
18 58 33 65 34 6 1 28 14 48 29 31 24 36 26 36 10 0 -14 2 -15 9 -5 4 8 12 13
17 12 5 -1 10 2 11 7 5 15 -60 7 -96 -11 -66 -35 -142 -55 -229 -61 -62 -5
-83 -4 -72 4 8 6 12 11 7 11 -4 0 3 19 15 42 15 29 23 38 26 26 3 -16 31 -33
39 -24 3 2 -5 18 -17 34 -17 23 -22 43 -21 88 1 85 18 201 37 259 9 28 17 86
19 130 1 49 8 92 18 111 12 24 13 34 4 44 -10 10 -6 11 16 6 19 -4 26 -3 22 4
-3 5 -15 10 -25 10 -10 0 -22 5 -25 10 -7 12 -21 11 -57 -3z m27 -127 c9 -52
-1 -93 -27 -116 -21 -19 -21 -19 -15 15 4 18 7 58 7 87 0 67 24 77 35 14z m20
-651 c17 0 16 -2 -5 -10 -14 -6 -44 -14 -67 -18 -38 -7 -43 -6 -43 9 0 24 17
30 60 25 19 -3 44 -5 55 -6z"/>
<path d="M1330 1935 c-13 -14 -21 -25 -17 -25 3 0 0 -21 -7 -47 -7 -27 -18
-73 -25 -103 -19 -96 -30 -155 -28 -155 1 0 31 -14 67 -32 70 -35 71 -38 -18
37 -20 17 -22 25 -17 62 9 61 53 229 67 255 17 33 5 37 -22 8z"/>
<path d="M2845 1890 c-16 -16 -25 -30 -20 -30 5 0 0 -7 -11 -16 -18 -14 -18
-15 4 -4 13 7 21 14 19 17 -3 2 9 18 26 34 18 15 27 29 21 29 -5 0 -23 -13
-39 -30z"/>
<path d="M317 1868 c-17 -96 -19 -128 -8 -128 6 0 11 16 11 37 0 24 8 45 22
60 l22 23 -21 21 -20 21 -6 -34z"/>
<path d="M2542 1888 c-7 -7 -16 -14 -20 -14 -25 -5 -52 -18 -52 -24 0 -18 -42
-21 -60 -5 -17 16 -20 15 -39 -4 -12 -12 -28 -21 -37 -21 -9 0 -14 -5 -12 -12
5 -13 48 -22 48 -10 0 5 6 16 13 26 12 16 16 17 35 5 27 -17 28 -26 2 -34 -11
-3 -20 -14 -20 -23 0 -11 17 1 49 36 27 28 56 52 63 52 8 0 23 9 33 20 20 22
17 28 -3 8z"/>
<path d="M2552 1838 c-7 -26 -12 -50 -12 -53 0 -7 26 7 55 29 20 14 20 14 0
13 -14 -2 -21 6 -25 28 -6 29 -6 28 -18 -17z"/>
<path d="M2763 1863 c-13 -2 -23 -11 -23 -19 0 -8 -4 -14 -10 -14 -5 0 -10 5
-10 12 0 6 -6 3 -14 -7 -8 -11 -12 -23 -10 -27 3 -4 -2 -5 -10 -2 -9 3 -16 2
-16 -3 0 -6 -15 -18 -34 -28 -19 -11 -37 -27 -39 -37 -3 -10 -13 -18 -22 -18
-9 0 -13 5 -10 10 11 17 -34 5 -48 -13 -7 -10 -21 -17 -32 -16 -49 5 -66 -4
-21 -10 41 -6 53 -4 68 11 15 15 23 16 39 8 16 -9 26 -8 44 4 14 9 30 16 37
16 19 0 70 68 62 82 -4 6 -3 8 3 5 6 -4 28 7 48 23 21 17 34 29 29 29 -5 -1
-19 -4 -31 -6z"/>
<path d="M1926 1843 c-4 -9 -2 -21 4 -27 5 -5 10 -14 10 -18 0 -14 -28 -9 -44
8 -14 14 -16 14 -16 0 0 -9 12 -19 26 -22 15 -4 35 -15 44 -24 18 -18 22 -29
34 -82 6 -27 83 -88 112 -88 18 0 17 -10 -1 -34 -12 -16 -11 -21 15 -42 15
-13 40 -24 55 -24 23 0 27 -3 23 -24 -4 -20 0 -25 25 -30 55 -11 73 -7 85 19
l11 24 53 -18 c95 -34 90 -29 72 -62 -17 -35 -28 -38 -19 -6 6 20 4 20 -17 -5
-13 -15 -35 -31 -51 -37 -15 -6 -32 -23 -38 -38 -10 -26 -12 -26 -19 -8 -7 19
-7 19 -14 -2 -8 -25 -41 -31 -49 -10 -3 6 -6 1 -6 -13 -1 -19 -11 -31 -38 -45
-20 -11 -39 -20 -42 -21 -20 -3 -41 -18 -41 -30 0 -8 -10 -14 -24 -14 -16 0
-27 -7 -31 -20 -3 -11 -13 -20 -21 -20 -8 0 -14 -7 -14 -15 0 -20 12 -19 43 5
14 11 32 20 41 20 9 0 19 8 22 18 3 9 8 24 11 32 4 12 7 11 19 -5 15 -20 15
-20 35 4 10 12 16 27 13 32 -3 5 2 9 10 9 9 0 16 -5 16 -10 0 -7 8 -6 22 1 14
8 18 14 10 17 -24 8 -12 24 13 18 21 -5 34 2 70 38 25 24 65 53 90 65 25 12
45 24 45 27 0 3 -4 2 -10 -1 -5 -3 -10 4 -10 15 0 17 4 21 18 15 9 -4 41 -16
71 -26 30 -11 74 -31 98 -45 l43 -25 10 26 c6 15 10 35 10 46 0 20 -15 26 -25
9 -4 -6 -19 0 -37 15 -20 17 -33 22 -38 15 -4 -6 -11 -1 -17 13 -8 17 -40 36
-110 67 -54 23 -104 47 -110 53 -22 17 -15 60 13 82 l26 21 -31 32 c-35 34
-83 48 -134 38 -42 -9 -110 -56 -117 -81 -7 -28 -40 -25 -86 8 l-39 27 32 -3
c18 -2 41 -11 51 -20 24 -22 31 -21 25 1 -4 18 -24 32 -111 83 -25 14 -32 24
-27 38 6 19 -13 71 -26 71 -4 0 -10 -8 -13 -17z m394 -138 c33 -17 36 -35 19
-100 -31 -116 -65 -182 -84 -163 -2 2 4 33 15 69 22 71 26 139 9 139 -7 0 -9
-10 -5 -25 5 -20 -27 -171 -39 -183 -2 -2 -8 -1 -14 3 -15 9 -14 44 2 91 8 22
11 50 7 64 l-6 25 -8 -22 c-4 -13 -5 -27 -2 -32 12 -20 -13 -58 -41 -64 -15
-3 -30 -4 -32 -2 -2 2 6 19 18 38 11 19 21 43 20 53 0 12 -8 3 -22 -23 -11
-24 -27 -43 -34 -43 -16 0 -16 5 1 55 8 22 17 53 21 68 4 21 17 33 48 47 52
23 89 25 127 5z m30 -172 c0 -22 -17 -49 -25 -41 -8 8 5 58 16 58 5 0 9 -8 9
-17z m80 -40 c37 -17 105 -73 89 -73 -5 0 -128 62 -148 75 -12 7 -4 29 7 23 4
-2 27 -13 52 -25z m129 -55 c20 -13 39 -23 43 -23 4 0 17 -11 29 -24 l23 -24
-30 7 c-25 7 -114 70 -114 82 0 8 14 3 49 -18z"/>
<path d="M1561 1840 c-1 -9 -10 -103 -21 -210 -21 -200 -24 -247 -15 -238 11
10 49 432 41 451 -3 7 -5 6 -5 -3z"/>
<path d="M2841 1764 c-11 -14 -21 -21 -21 -15 0 8 -14 4 -37 -10 -20 -13 -48
-23 -62 -24 -13 0 -26 -6 -29 -14 -3 -9 1 -11 17 -6 15 4 21 2 21 -8 0 -9 -5
-17 -12 -19 -9 -3 -9 -6 1 -12 8 -5 14 -1 18 12 3 12 22 27 46 36 57 23 98 57
88 74 -6 11 -13 7 -30 -14z"/>
<path d="M2363 1754 c23 -24 42 -19 32 8 -4 9 -17 16 -30 16 l-25 0 23 -24z"/>
<path d="M2795 1691 c-33 -20 -73 -61 -59 -61 8 1 101 80 93 80 -2 0 -17 -8
-34 -19z"/>
<path d="M2631 1682 c-11 -21 -26 -92 -23 -109 2 -7 -4 -26 -13 -42 -23 -45
-19 -57 23 -74 65 -26 107 -31 124 -13 13 12 17 13 21 2 3 -7 39 -23 81 -35
77 -23 88 -35 40 -44 -33 -6 -84 10 -101 31 -11 13 -13 8 -12 -34 0 -27 3 -43
6 -35 5 11 7 11 14 0 7 -11 9 -10 9 4 0 20 2 20 34 6 29 -14 81 3 95 30 11 19
-19 61 -43 61 -8 0 -18 5 -21 10 -3 6 -17 10 -31 10 -13 0 -24 4 -24 8 0 5
-40 7 -90 7 -49 -1 -90 2 -91 7 -5 45 0 61 26 84 30 25 30 25 12 56 -10 17
-15 33 -12 36 9 9 55 -41 55 -60 0 -10 7 -18 15 -18 7 0 19 -8 25 -17 8 -14 9
-12 4 12 -4 17 -13 35 -20 41 -8 6 -14 14 -14 16 0 8 -66 78 -73 78 -3 0 -11
-8 -16 -18z m32 -78 c7 -7 -14 -44 -25 -44 -5 0 -8 8 -8 18 0 27 18 41 33 26z"/>
<path d="M2552 1667 c-13 -12 -44 -30 -70 -40 l-47 -17 44 5 c30 4 52 15 73
36 17 16 29 32 26 34 -2 3 -14 -6 -26 -18z"/>
<path d="M2803 1637 c-18 -28 -33 -61 -33 -72 0 -17 3 -15 14 7 27 51 28 52
42 27 10 -19 13 -20 14 -6 0 9 5 17 11 17 13 0 8 72 -6 76 -5 2 -25 -20 -42
-49z"/>
<path d="M2564 1608 c-22 -24 -59 -112 -44 -103 8 5 70 125 65 125 -1 0 -10
-10 -21 -22z"/>
<path d="M1075 1547 c-134 -34 -160 -53 -109 -76 19 -8 24 -16 18 -29 -4 -9
-9 -33 -12 -53 -3 -33 0 -38 33 -57 20 -12 38 -22 41 -22 2 0 4 20 4 44 0 94
108 156 194 111 41 -22 45 -10 5 14 -43 26 -94 27 -144 1 -43 -22 -50 -21 -41
7 14 44 187 64 254 29 46 -24 144 -113 163 -149 23 -42 96 -114 147 -144 23
-14 42 -30 42 -36 0 -7 5 -5 10 3 14 22 13 24 -20 38 -44 20 -127 98 -156 147
-33 57 -109 127 -173 159 -73 38 -145 41 -256 13z m-25 -54 c-1 -5 -9 -23 -19
-42 l-18 -34 -1 34 c0 18 1 37 4 41 6 10 34 11 34 1z"/>
<path d="M580 1499 c0 -6 7 -8 16 -5 9 3 33 -3 53 -15 l36 -21 -30 26 c-30 26
-75 35 -75 15z"/>
<path d="M666 1418 c-4 -9 -6 -27 -4 -39 2 -18 5 -20 14 -8 6 8 8 25 4 39 -6
21 -8 22 -14 8z"/>
<path d="M711 1421 c-21 -14 -6 -40 19 -34 15 4 18 8 10 13 -7 4 -9 13 -6 19
9 13 -4 14 -23 2z"/>
<path d="M499 1411 c11 -7 10 -11 -5 -20 -16 -9 -13 -10 14 -5 25 5 32 3 32
-10 0 -9 5 -16 10 -16 6 0 10 4 10 8 0 14 -45 52 -61 52 -12 0 -12 -2 0 -9z"/>
<path d="M916 1402 c-15 -18 -15 -19 11 -31 23 -10 25 -10 15 2 -7 8 -10 22
-6 31 8 21 1 20 -20 -2z"/>
<path d="M1210 1403 c0 -17 11 -16 46 2 l28 14 -37 -2 c-22 -1 -37 -7 -37 -14z"/>
<path d="M2752 1410 c-1 -9 -11 -23 -22 -33 -17 -14 -19 -25 -14 -52 5 -28 3
-35 -10 -35 -16 0 -20 -11 -16 -40 2 -18 -20 -90 -34 -109 -6 -7 -28 -25 -49
-38 -37 -23 -40 -24 -65 -7 -15 9 -24 13 -20 9 9 -10 -16 -35 -36 -35 -9 0
-16 5 -16 12 0 8 -5 7 -16 -3 -16 -17 -64 -14 -64 3 0 5 5 19 11 31 10 19 7
18 -18 -6 -20 -18 -36 -25 -47 -21 -14 5 -12 10 16 27 28 17 30 22 14 25 -10
2 -29 -2 -42 -9 -13 -7 -27 -10 -30 -6 -4 3 14 16 39 28 45 22 47 22 67 4 11
-10 20 -13 20 -8 0 6 -7 13 -15 17 -39 14 11 46 73 46 l37 0 21 81 c20 76 20
80 3 58 -10 -13 -19 -39 -19 -57 0 -22 -4 -32 -12 -30 -7 3 -21 -6 -31 -19
-20 -25 -43 -30 -49 -11 -3 9 -21 1 -52 -22 -85 -62 -110 -86 -104 -101 7 -18
117 -58 184 -65 95 -12 195 35 241 111 10 17 12 18 12 3 1 -27 -55 -84 -107
-109 -62 -30 -153 -30 -242 1 -36 12 -76 24 -88 26 -13 1 -27 6 -30 10 -4 4 1
4 11 1 11 -4 16 -3 12 3 -7 12 -45 14 -45 3 1 -20 20 -35 38 -31 12 4 29 -3
45 -18 14 -12 27 -21 30 -18 3 3 25 -1 49 -9 51 -17 164 -22 172 -8 4 6 13 8
20 5 17 -7 102 50 123 83 10 15 19 21 26 14 11 -11 37 -3 37 11 0 6 -6 8 -14
5 -12 -5 -26 11 -26 29 0 9 39 4 45 -6 3 -5 16 -10 28 -10 18 0 23 6 24 28 0
16 -1 19 -4 8 -4 -14 -11 -17 -36 -12 -39 8 -41 10 -28 34 11 21 5 52 -10 52
-5 0 -10 -9 -10 -20 -1 -11 -2 -26 -3 -32 -1 -7 -10 -16 -20 -21 -21 -8 -36 0
-20 11 17 11 26 72 11 73 -6 1 -1 4 13 8 28 8 53 75 47 126 -2 17 -5 23 -5 15z"/>
<path d="M156 1334 c-18 -76 -16 -119 3 -48 13 48 25 124 20 124 -2 0 -12 -34
-23 -76z"/>
<path d="M638 1404 c-5 -4 -8 -21 -8 -38 1 -26 2 -28 11 -13 11 19 8 63 -3 51z"/>
<path d="M2178 1389 c-10 -6 -18 -19 -18 -30 0 -11 -7 -31 -16 -44 -17 -26
-12 -45 12 -45 10 0 14 12 14 43 0 61 14 77 34 41 l16 -29 -6 30 c-9 39 -15
46 -36 34z"/>
<path d="M747 1359 c-10 -14 -16 -16 -19 -8 -3 9 -6 8 -11 -3 -4 -13 -1 -16
16 -12 12 2 23 8 25 14 6 16 22 12 22 -5 0 -8 4 -15 8 -15 13 0 11 34 -2 42
-17 12 -24 10 -39 -13z"/>
<path d="M862 1369 c-13 -5 -20 -14 -17 -20 4 -6 13 -8 21 -5 7 3 28 -7 46
-21 l33 -27 -25 29 c-14 17 -28 31 -33 33 -4 2 -5 8 -1 13 6 11 6 11 -24 -2z"/>
<path d="M1274 1362 c-59 -33 -128 -86 -117 -89 7 -3 22 1 34 8 41 22 119 81
119 90 0 11 1 12 -36 -9z"/>
<path d="M2478 1353 c-14 -16 -23 -34 -21 -40 3 -7 -3 -13 -12 -13 -12 0 -15
-6 -10 -19 4 -14 0 -21 -12 -24 -10 -3 -6 -4 10 -4 21 1 27 6 27 24 0 12 14
38 30 56 17 19 30 37 30 41 0 13 -18 5 -42 -21z"/>
<path d="M1442 1283 c-1 -34 -5 -70 -8 -80 -5 -17 -5 -17 6 -1 6 10 9 45 7 80
l-3 63 -2 -62z"/>
<path d="M1588 1308 c18 -22 112 -71 112 -59 0 6 -6 11 -13 11 -7 0 -35 14
-62 31 -27 17 -44 25 -37 17z"/>
<path d="M440 1301 c0 -5 -12 -12 -27 -14 -23 -3 -21 -4 10 -6 27 -1 37 3 37
14 0 8 -4 15 -10 15 -5 0 -10 -4 -10 -9z"/>
<path d="M805 1290 c21 -23 118 -70 152 -72 14 -2 22 -7 19 -15 -3 -7 1 -13 9
-13 9 0 14 10 12 29 -1 19 -6 26 -13 21 -6 -6 -23 -1 -43 11 -18 11 -36 17
-42 14 -5 -4 -9 -1 -9 4 0 6 -5 11 -12 11 -6 0 -20 8 -30 17 -18 16 -18 16
-12 0 3 -10 1 -17 -5 -17 -7 0 -14 7 -17 15 -4 8 -11 15 -17 15 -5 0 -2 -9 8
-20z"/>
<path d="M2756 1286 c-8 -32 1 -45 45 -63 20 -9 26 -8 26 3 0 7 -9 16 -19 20
-10 3 -24 20 -32 37 l-13 32 -7 -29z"/>
<path d="M2371 1273 c0 -11 -18 -35 -38 -53 -21 -17 -29 -27 -18 -21 34 16 67
58 62 78 -4 15 -5 15 -6 -4z"/>
<path d="M610 1259 c-7 -11 -9 -27 -6 -35 3 -8 1 -14 -5 -14 -6 0 -9 -8 -7
-17 1 -10 -1 -23 -5 -30 -4 -6 -3 -14 2 -17 9 -6 21 26 26 71 2 11 6 30 10 42
8 27 -1 27 -15 0z"/>
<path d="M702 1268 c-7 -7 -12 -9 -12 -5 0 11 -35 -24 -55 -56 -10 -15 -15
-30 -11 -34 3 -3 6 -1 6 6 0 7 17 28 37 47 27 26 39 31 45 22 5 -9 -1 -21 -18
-35 -14 -13 -22 -23 -19 -23 3 0 1 -9 -5 -20 -10 -18 -9 -19 16 -10 25 10 26
9 13 -6 -13 -16 -12 -16 8 -6 28 16 33 15 33 -3 0 -8 4 -15 10 -15 5 0 7 6 4
14 -10 25 30 37 89 28 30 -5 64 -5 78 0 18 7 32 3 65 -21 39 -27 54 -30 54
-10 0 5 -8 5 -17 2 -13 -5 -15 -2 -10 11 4 9 3 15 -1 12 -11 -7 -64 29 -55 37
3 4 -1 7 -10 7 -9 0 -18 -4 -21 -9 -6 -9 -93 -7 -126 4 -12 4 -26 0 -36 -9
-16 -16 -64 -22 -64 -8 0 15 18 34 26 29 5 -3 25 4 44 14 23 13 27 17 11 13
-16 -4 -21 -3 -17 5 4 6 3 11 -3 11 -5 0 -11 -8 -13 -17 -3 -15 -4 -15 -21 1
-9 10 -15 22 -12 27 8 13 1 11 -13 -3z"/>
<path d="M1037 1254 c-15 -15 -6 -54 18 -81 22 -25 24 -26 25 -8 0 11 12 31
26 44 13 13 23 29 21 35 -4 12 -79 21 -90 10z"/>
<path d="M111 1194 l-24 -45 -13 36 c-18 53 -24 54 -24 4 0 -28 3 -39 9 -31 7
11 10 10 15 -3 3 -9 3 -22 -1 -28 -5 -9 -2 -8 8 0 16 13 63 102 57 108 -2 2
-14 -16 -27 -41z"/>
<path d="M567 1226 c-3 -7 -20 -24 -39 -36 -18 -13 -27 -17 -20 -10 15 17 17
39 2 24 -16 -16 -22 -56 -7 -47 7 4 19 8 27 10 15 2 60 51 60 66 0 12 -18 8
-23 -7z"/>
<path d="M470 1187 c0 -9 -9 -21 -19 -27 -12 -6 -17 -17 -14 -28 2 -10 -3 -24
-11 -31 -9 -8 -16 -18 -16 -24 0 -5 10 1 23 15 24 26 53 96 43 105 -3 4 -6 -1
-6 -10z"/>
<path d="M2251 1180 c-1 -14 -55 -44 -73 -41 -4 0 -16 -11 -28 -26 -11 -14
-23 -23 -26 -20 -5 5 -34 -16 -70 -51 -8 -7 -14 -20 -14 -28 0 -8 -4 -14 -10
-14 -5 0 -10 -5 -10 -12 0 -9 3 -9 11 -1 6 6 18 9 27 6 10 -4 13 -2 8 5 -4 7
-2 12 4 12 6 0 9 4 5 9 -15 25 74 46 92 22 11 -15 12 -15 13 0 0 20 -24 42
-34 32 -4 -4 -4 0 0 10 4 12 13 16 25 12 15 -5 17 -3 12 11 -5 14 -3 16 11 11
10 -4 15 -3 11 3 -3 5 4 14 15 20 15 8 20 8 20 -2 0 -9 3 -9 11 -1 6 6 9 21 6
34 -2 13 -5 17 -6 9z"/>
<path d="M940 1146 c0 -13 37 -44 67 -56 10 -4 9 -12 -2 -34 -14 -26 -14 -32
0 -52 22 -34 19 -46 -20 -90 -19 -21 -35 -34 -35 -27 0 6 -9 11 -20 10 -27 -2
-25 -14 3 -22 34 -11 67 -46 67 -72 0 -23 -14 -31 -25 -13 -3 5 -12 7 -20 3
-9 -3 -22 0 -30 7 -12 10 -15 10 -15 -3 0 -19 -27 -30 -36 -15 -4 7 -3 8 4 4
7 -4 12 -2 12 3 0 13 2 13 -37 2 -21 -6 -35 -6 -39 0 -3 6 -12 8 -20 5 -7 -3
-18 4 -24 14 -6 11 -19 20 -29 20 -10 0 -24 7 -31 15 -7 8 -17 12 -22 9 -6 -4
-5 -10 3 -15 11 -7 10 -9 -3 -9 -10 0 -18 5 -18 10 0 6 -3 9 -7 9 -5 -1 -16
-1 -27 0 -15 1 -16 4 -6 16 19 23 1 39 -21 19 -18 -16 -19 -16 -13 -1 8 22
-28 23 -46 2 -7 -9 -15 -13 -18 -11 -2 3 3 12 12 21 9 9 16 22 15 28 0 9 -2 8
-6 0 -2 -7 -13 -13 -24 -13 -10 0 -18 -3 -18 -7 3 -21 -2 -33 -12 -27 -8 4 -7
9 2 15 11 7 10 9 -3 9 -10 0 -18 5 -18 11 0 5 4 7 10 4 6 -3 10 1 10 10 0 12
-4 14 -19 5 -16 -8 -23 -6 -33 9 -13 19 -14 19 -25 2 -7 -11 -9 -28 -6 -40 4
-16 9 -19 23 -11 26 14 30 13 23 -7 -4 -10 -2 -14 4 -10 6 4 13 0 17 -8 3 -9
18 -15 40 -15 36 0 133 -40 148 -62 7 -9 8 -8 4 5 -6 20 -9 20 91 -11 29 -10
53 -21 53 -26 0 -4 -6 -6 -14 -3 -8 3 -20 -1 -28 -10 -11 -15 -10 -16 12 -9
58 16 122 18 165 6 25 -7 48 -10 52 -6 3 3 9 26 13 50 5 33 3 46 -7 50 -21 8
-15 51 11 75 13 13 22 30 19 40 -6 23 34 71 60 71 31 0 48 13 38 29 -17 26
-100 -17 -102 -53 0 -18 -2 -17 -11 6 -8 23 -6 33 11 54 16 20 18 30 10 40 -6
8 -15 11 -20 8 -5 -3 -25 8 -45 25 -39 35 -44 37 -44 17z"/>
<path d="M1091 1120 c-23 -41 -20 -46 24 -34 17 4 20 12 17 40 -2 19 -7 34
-11 34 -4 0 -17 -18 -30 -40z"/>
<path d="M355 1106 c0 -13 4 -28 9 -33 5 -4 6 -3 2 4 -3 6 -2 14 4 18 14 9 12
35 -3 35 -7 0 -13 -11 -12 -24z"/>
<path d="M630 1097 c0 -1 -4 -17 -10 -35 -8 -31 -8 -32 7 -20 15 11 16 11 10
-4 -3 -10 -3 -18 2 -18 5 0 11 9 14 20 3 11 0 18 -7 17 -6 -1 -10 8 -9 21 2
12 1 22 -2 22 -3 0 -5 -1 -5 -3z"/>
<path d="M290 1073 c0 -13 5 -23 11 -23 5 0 8 -4 4 -9 -3 -5 -1 -12 4 -16 6
-3 15 3 21 14 7 13 7 22 0 26 -5 3 -10 3 -10 -1 0 -4 -7 1 -15 12 -14 19 -14
18 -15 -3z"/>
<path d="M2193 1078 c-12 -14 -3 -41 13 -37 5 1 22 -3 37 -9 36 -15 47 -15 47
0 0 6 -3 9 -6 5 -11 -11 -66 15 -73 35 -6 16 -9 17 -18 6z"/>
<path d="M430 1067 c-9 -7 -14 -20 -12 -31 2 -11 0 -16 -7 -12 -6 4 -11 3 -11
-3 0 -24 18 -17 35 15 20 38 18 49 -5 31z"/>
<path d="M207 1057 c-4 -10 -7 -31 -6 -45 l0 -27 10 25 c5 13 8 33 7 45 -3 19
-4 19 -11 2z"/>
<path d="M667 1035 c-21 -43 -21 -51 -3 -36 14 12 31 60 23 67 -2 2 -11 -12
-20 -31z"/>
<path d="M234 1027 c-9 -27 4 -33 22 -11 15 18 15 18 11 -3 -4 -19 -1 -23 19
-23 13 0 24 5 24 10 0 6 -6 9 -12 8 -8 -2 -12 6 -11 18 2 17 -3 22 -22 20 -15
0 -28 -9 -31 -19z"/>
<path d="M446 1025 c-19 -29 -20 -39 -3 -28 6 4 16 8 21 8 5 0 10 10 11 23 2
29 -9 28 -29 -3z"/>
<path d="M1954 1035 c11 -8 29 -12 39 -9 13 4 17 2 13 -5 -4 -6 -2 -11 4 -11
7 0 9 7 6 16 -3 9 -6 18 -6 20 0 3 -9 0 -19 -6 -13 -7 -22 -7 -26 0 -3 5 -12
10 -18 10 -7 0 -3 -7 7 -15z"/>
<path d="M170 1016 c0 -14 -4 -27 -9 -30 -5 -3 -11 -23 -13 -44 -3 -32 0 -38
13 -35 10 3 20 15 23 26 6 20 7 21 17 5 11 -20 40 -25 37 -7 -6 23 19 19 30
-6 7 -15 8 -25 2 -25 -6 0 -10 -9 -10 -21 0 -16 4 -19 21 -14 14 5 25 1 35
-12 9 -10 13 -13 9 -6 -3 7 1 26 10 43 8 16 11 30 6 30 -5 0 -13 -9 -16 -20
-6 -20 -45 -29 -45 -10 0 6 5 10 11 10 8 0 8 5 -1 15 -10 12 -9 16 4 21 9 3
13 11 9 17 -4 6 -11 3 -20 -9 -13 -18 -14 -17 -9 11 4 17 3 24 0 18 -3 -7 -14
-13 -25 -13 -11 0 -22 -7 -26 -17 -5 -14 -8 -13 -14 5 -11 30 -25 28 -38 -5
l-10 -28 2 34 c1 18 7 36 14 38 15 6 18 53 3 53 -5 0 -10 -11 -10 -24z"/>
<path d="M503 1009 c-36 -23 -43 -32 -16 -22 11 4 14 3 9 -5 -5 -8 -2 -10 9
-6 9 4 14 13 11 21 -3 8 -1 11 4 8 6 -3 10 -1 10 6 0 7 3 9 6 6 4 -4 -1 -18
-10 -32 -9 -14 -12 -25 -6 -25 6 0 13 7 17 15 4 11 14 14 34 11 16 -2 31 0 35
5 3 5 -6 9 -21 9 -14 0 -28 7 -31 15 -8 19 -12 19 -51 -6z"/>
<path d="M2131 1011 c-7 -5 -22 -6 -32 -4 -32 9 -22 -21 12 -36 25 -11 33 -11
42 -1 9 10 8 12 -5 7 -21 -7 -22 -3 -8 24 12 21 11 22 -9 10z"/>
<path d="M2173 994 c-3 -9 0 -20 8 -25 21 -13 29 -11 29 7 0 11 -5 14 -16 10
-12 -4 -15 -2 -10 9 3 8 3 15 0 15 -2 0 -7 -7 -11 -16z"/>
<path d="M342 988 c-7 -7 -12 -19 -12 -27 0 -11 4 -10 15 5 15 19 15 19 9 -1
-6 -16 -4 -17 6 -8 8 7 9 17 3 27 -7 13 -12 13 -21 4z"/>
<path d="M742 992 c2 -4 19 -29 38 -54 33 -45 37 -47 80 -46 43 1 43 2 8 5
-29 3 -45 14 -73 45 -19 23 -35 45 -35 50 0 4 -5 8 -11 8 -6 0 -9 -3 -7 -8z"/>
<path d="M52 974 c-6 -7 -12 -19 -12 -26 1 -8 5 -7 14 5 15 19 27 23 24 6 -2
-6 2 -13 9 -16 7 -3 10 3 6 16 -6 25 -25 32 -41 15z"/>
<path d="M595 960 c-16 -17 -23 -30 -17 -30 7 0 15 7 18 15 4 8 9 13 13 11 3
-2 12 2 18 10 26 28 -5 22 -32 -6z"/>
<path d="M1083 963 c-32 -22 -28 -32 10 -24 71 14 130 6 195 -26 34 -17 62
-28 62 -25 0 4 -25 23 -55 41 -30 19 -55 38 -55 42 0 4 -10 6 -22 3 -81 -15
-88 -16 -88 -5 0 15 -21 13 -47 -6z"/>
<path d="M374 959 c-3 -6 -2 -15 2 -19 12 -12 38 5 30 19 -9 14 -23 14 -32 0z"/>
<path d="M630 949 c0 -18 13 -39 25 -39 7 0 18 -7 25 -15 8 -10 31 -15 69 -15
l56 1 -40 20 c-22 11 -58 21 -80 21 -33 0 -36 1 -17 9 12 4 22 11 22 13 0 3
-7 3 -15 0 -8 -4 -15 -2 -15 3 0 5 -7 10 -15 10 -8 0 -15 -4 -15 -8z"/>
<path d="M2003 943 c-7 -2 -13 -12 -13 -21 0 -15 2 -15 10 -2 8 12 10 10 10
-9 l0 -24 21 27 c12 15 19 30 15 33 -3 4 -6 1 -6 -5 0 -7 -5 -12 -11 -12 -5 0
-7 5 -4 10 7 11 -2 12 -22 3z"/>
<path d="M1867 909 c17 -35 25 -40 42 -30 8 5 9 11 3 15 -6 3 -8 14 -5 24 4
15 -1 19 -25 19 -28 0 -29 -1 -15 -28z"/>
<path d="M2100 931 c0 -12 29 -41 41 -41 5 0 9 5 9 10 0 6 -5 10 -11 10 -5 0
-8 4 -5 9 3 5 -1 12 -10 15 -21 8 -24 8 -24 -3z"/>
<path d="M1117 920 c-21 -4 -43 -12 -50 -19 -11 -11 -6 -13 50 -14 12 -1 20
-5 17 -9 -3 -4 6 -8 20 -8 19 0 26 5 26 20 0 11 0 23 1 28 0 10 -20 11 -64 2z"/>
<path d="M2994 640 c0 -151 2 -213 3 -138 2 76 2 200 0 276 -1 75 -3 13 -3
-138z"/>
<path d="M2616 845 c51 -24 105 -47 120 -50 16 -4 -23 16 -85 44 -63 28 -117
51 -120 50 -4 0 35 -20 85 -44z"/>
<path d="M93 855 c-10 -8 -14 -15 -9 -15 5 0 1 -10 -10 -22 -10 -12 -13 -18
-6 -14 7 4 12 2 12 -6 0 -8 5 -6 11 5 6 10 8 24 6 31 -4 9 2 11 19 8 26 -5 31
-17 12 -29 -7 -4 -20 -17 -28 -27 -13 -18 -13 -19 0 -11 8 5 21 17 28 27 18
25 27 23 30 -7 1 -17 -3 -25 -15 -25 -9 0 -14 -3 -10 -6 14 -14 47 8 47 32 0
13 5 24 11 24 5 0 8 4 5 9 -3 5 -15 7 -26 4 -13 -4 -20 -1 -18 7 5 20 -37 31
-59 15z"/>
<path d="M735 863 c36 -31 85 -62 85 -54 0 11 -45 44 -75 55 -12 4 -16 4 -10
-1z"/>
<path d="M2766 840 c3 -19 6 -41 7 -48 0 -8 4 -9 10 -3 6 6 4 23 -7 48 l-17
38 7 -35z"/>
<path d="M228 828 c-7 -13 -13 -27 -13 -33 -2 -20 -17 -45 -25 -40 -4 3 -13
-2 -20 -10 -11 -13 -10 -14 3 -9 12 4 14 1 10 -15 -3 -12 -9 -24 -14 -27 -17
-10 -9 -20 18 -22 15 -1 32 -7 38 -14 7 -8 7 -9 -2 -4 -16 9 -43 -4 -43 -21 0
-12 3 -13 14 -4 7 6 21 9 30 5 9 -3 16 -2 16 4 0 17 69 -4 88 -28 17 -21 21
-21 61 -9 38 11 44 11 53 -4 5 -9 16 -17 23 -17 8 0 15 -7 15 -15 0 -19 -18
-19 -65 1 -20 8 -34 11 -31 6 3 -5 19 -15 36 -22 16 -7 27 -16 24 -21 -6 -10
-117 -12 -127 -3 -6 7 -55 15 -89 15 -10 0 -18 7 -18 16 0 15 -2 14 -18 0 -19
-17 -37 -23 -29 -9 3 4 -8 8 -24 9 -16 1 -29 -1 -29 -6 0 -9 100 -28 195 -37
90 -8 121 -25 35 -18 -36 2 -73 7 -82 10 -13 4 -16 1 -12 -9 9 -25 156 -38
170 -16 3 6 22 17 40 25 19 8 33 20 31 26 -1 7 18 17 43 24 43 10 44 11 22 23
-30 16 -30 45 1 35 39 -14 72 -6 141 31 71 40 86 40 173 8 34 -13 46 -13 58
-3 19 16 10 30 -18 30 -36 0 -147 43 -147 57 0 19 -17 16 -29 -4 -8 -14 -13
-15 -35 -5 -14 6 -26 18 -26 27 0 18 -56 49 -76 41 -8 -3 -13 -2 -10 3 3 5 -2
12 -11 15 -9 4 -20 1 -25 -6 -6 -10 -8 -9 -8 3 0 15 -28 35 -37 26 -6 -7 9
-37 18 -37 5 0 9 -7 9 -16 0 -14 -5 -13 -36 5 -19 12 -40 18 -46 15 -6 -4 -13
-1 -17 5 -5 8 -16 5 -35 -10 -16 -12 -33 -18 -44 -14 -14 5 -14 7 -2 15 8 6
10 10 5 10 -6 0 -17 -6 -23 -12 -10 -10 -15 -10 -20 -1 -10 17 -39 10 -56 -12
-12 -16 -9 -20 28 -41 23 -13 85 -44 139 -70 53 -26 97 -51 97 -55 0 -14 -21
-21 -33 -10 -15 12 -85 16 -107 7 -10 -4 -29 5 -50 24 -18 16 -42 30 -52 30
-30 0 -88 28 -88 42 0 7 9 19 19 25 11 7 22 26 26 43 4 16 10 30 14 30 4 0 7
9 7 20 0 26 -12 25 -28 -2z m126 -69 c22 -17 36 -49 22 -49 -5 0 -76 40 -86
47 -5 4 20 23 31 23 4 0 18 -9 33 -21z m156 -9 c58 -10 134 -30 170 -43 l65
-25 -30 -12 c-16 -7 -43 -13 -60 -14 -16 0 -33 -5 -36 -10 -8 -11 -111 13
-104 24 3 5 1 11 -5 15 -5 3 -10 2 -10 -4 0 -7 -8 -7 -22 -2 -13 5 -22 14 -20
20 1 6 -4 11 -10 11 -9 0 -8 4 2 10 12 8 9 10 -11 10 -14 0 -34 9 -44 20 -23
25 -20 25 115 0z"/>
<path d="M841 837 c-18 -18 -13 -25 14 -19 14 2 25 8 25 12 0 14 -27 19 -39 7z"/>
<path d="M1058 843 c-10 -2 -18 -8 -18 -13 0 -5 7 -7 15 -4 22 9 19 -19 -5
-46 -46 -53 -3 -41 81 22 29 21 53 32 68 30 17 -3 20 -6 11 -12 -10 -6 -1 -24
36 -72 83 -106 84 -110 70 -152 -15 -44 -45 -62 -130 -77 -66 -12 -72 -10
-159 40 -26 15 -44 30 -41 34 4 4 14 1 22 -5 12 -10 13 -8 11 12 -1 14 7 44
19 68 12 23 20 42 16 42 -10 0 -97 -66 -118 -89 -18 -20 -18 -20 38 -48 48
-23 56 -31 56 -54 0 -16 -4 -31 -10 -34 -5 -3 -10 -11 -10 -16 0 -6 5 -7 10
-4 16 10 12 -15 -5 -31 -8 -9 -15 -12 -15 -8 0 4 -7 -1 -16 -12 -8 -10 -13
-14 -10 -8 4 8 -4 9 -26 5 -17 -4 -34 -13 -36 -21 -4 -13 -3 -13 10 -2 11 8
18 9 22 3 4 -6 13 -8 21 -4 17 6 21 -12 5 -22 -5 -3 -10 -12 -10 -18 0 -7 5
-4 11 6 6 9 15 15 20 12 5 -4 6 -12 2 -18 -5 -7 -8 -20 -8 -31 0 -27 -33 -46
-45 -26 -5 8 -12 11 -17 7 -9 -10 10 -42 25 -42 6 0 14 -3 18 -7 4 -5 0 -8 -9
-8 -9 0 -17 -4 -17 -9 0 -4 9 -8 21 -7 15 1 26 16 42 56 25 60 24 87 0 92 -13
2 -11 9 10 34 17 20 25 42 25 63 -1 43 19 63 27 28 4 -14 4 -31 0 -36 -10 -18
7 -12 30 9 l21 20 34 -25 c18 -13 41 -37 51 -52 l18 -27 12 30 c6 16 17 47 24
69 12 38 14 40 61 45 42 4 50 9 58 32 8 23 4 33 -27 74 -20 26 -37 55 -37 65
0 10 -6 22 -14 26 -7 4 -21 23 -30 41 -16 30 -16 32 2 32 9 0 28 -8 41 -17 14
-9 21 -11 17 -4 -4 6 -37 25 -73 41 -63 29 -139 38 -195 23z m138 -381 c-14
-14 -16 -14 -22 3 -5 12 -1 23 12 32 17 12 19 12 22 -3 2 -9 -3 -23 -12 -32z
m36 -3 c-4 -18 -11 -29 -14 -24 -3 6 -1 26 5 45 12 44 21 24 9 -21z"/>
<path d="M1126 774 c-22 -19 -35 -34 -30 -34 6 0 15 5 22 12 18 18 24 4 11
-26 -13 -28 -24 -33 -33 -13 -3 6 -4 0 -2 -15 1 -15 0 -25 -5 -23 -7 5 -20
-29 -32 -82 -10 -45 11 -31 33 23 13 30 27 57 32 60 13 8 -3 -78 -19 -103 -11
-16 -11 -23 -2 -28 16 -10 27 11 39 75 6 30 15 80 21 112 6 31 10 61 8 66 -2
6 -22 -5 -43 -24z"/>
<path d="M1930 790 c0 -13 38 -32 50 -25 11 7 71 -26 108 -58 12 -11 22 -17
22 -12 0 11 -68 74 -73 68 -7 -6 -57 19 -57 29 0 4 -11 8 -25 8 -14 0 -25 -4
-25 -10z"/>
<path d="M2844 751 c4 -5 0 -12 -6 -14 -7 -3 -3 -6 9 -6 12 -1 27 -9 32 -18 6
-10 11 -13 11 -8 0 15 -29 55 -41 55 -6 0 -8 -4 -5 -9z"/>
<path d="M2890 753 c1 -5 7 -19 14 -32 l13 -24 5 26 c3 17 0 28 -9 31 -19 8
-23 7 -23 -1z"/>
<path d="M1337 718 c-2 -18 -3 -36 0 -40 7 -13 98 -9 111 4 21 21 13 25 -45
21 -32 -1 -53 0 -47 3 13 5 7 44 -6 44 -4 0 -10 -15 -13 -32z"/>
<path d="M1760 690 c-4 -72 -4 -73 -14 -88 -4 -7 -2 -20 6 -29 11 -14 10 -15
-7 -10 -11 4 -60 15 -110 27 -119 27 -182 44 -191 53 -4 4 0 7 9 7 9 0 31 9
49 21 27 16 28 19 9 13 -38 -10 -83 -38 -95 -57 -13 -20 5 -37 40 -37 23 0 34
-23 34 -72 0 -32 0 -32 35 -16 30 14 35 49 5 41 -15 -4 -22 2 -30 23 -6 15
-18 33 -28 40 -16 12 -15 13 3 14 12 0 26 -5 33 -12 13 -13 134 -47 170 -47
13 -1 21 -5 17 -10 -3 -5 3 -12 12 -14 15 -4 14 -6 -5 -12 -19 -6 -23 -13 -19
-32 3 -15 -1 -27 -8 -30 -8 -2 -16 -12 -20 -21 -5 -14 -4 -14 12 0 35 30 47
32 27 4 -20 -28 -101 -76 -129 -76 -27 0 -16 17 18 25 l32 8 -30 6 c-37 9 -36
9 -44 -30 -11 -56 -31 -47 -31 14 0 49 3 58 31 81 34 29 24 34 -22 10 l-30
-15 7 -68 c5 -51 3 -70 -6 -76 -9 -6 -11 -4 -5 6 5 8 -1 6 -13 -4 -11 -11 -26
-16 -31 -12 -6 3 -11 4 -11 2 0 -9 29 -72 30 -63 0 5 7 3 16 -5 13 -11 14 -9
8 15 -8 34 14 61 65 77 20 7 57 23 83 36 26 14 53 23 60 20 8 -2 1 -10 -15
-18 -28 -12 -28 -13 -7 -21 11 -4 20 -13 19 -20 -3 -24 1 -38 10 -38 14 0 6
50 -8 60 -9 5 -6 9 9 13 18 4 21 11 17 28 -9 32 18 136 40 157 16 15 17 28 12
102 -5 76 -6 79 -9 30z"/>
<path d="M70 715 c0 -9 6 -12 17 -8 10 4 14 2 10 -4 -4 -6 0 -13 8 -17 16 -6
19 3 9 28 -8 20 -44 21 -44 1z"/>
<path d="M2575 700 c-26 -6 -24 -7 18 -7 26 0 50 3 53 8 6 10 -28 10 -71 -1z"/>
<path d="M2021 641 c-8 -5 -52 -8 -98 -7 -59 2 -83 0 -83 -9 0 -6 -11 -18 -25
-25 -14 -8 -21 -16 -16 -20 9 -5 136 -4 311 4 36 1 72 -3 80 -8 13 -9 13 -9 2
6 -14 18 -18 18 -97 20 -27 0 -44 3 -37 5 6 3 10 9 6 14 -3 5 0 9 5 9 6 0 11
5 11 10 0 12 -40 13 -59 1z"/>
<path d="M820 584 c0 -3 8 -18 18 -32 35 -51 36 -56 5 -34 -30 21 -31 21 -26
2 3 -11 12 -20 20 -20 9 0 13 -6 10 -13 -3 -8 1 -14 8 -14 27 0 27 46 -1 82
-26 34 -34 41 -34 29z"/>
<path d="M2583 583 c-22 -8 -14 -21 11 -19 13 0 22 4 19 9 -2 4 7 7 20 7 18 0
28 -8 37 -29 6 -17 9 -35 5 -40 -3 -6 0 -8 8 -5 13 5 13 11 -2 45 -14 35 -20
39 -51 38 -19 0 -41 -3 -47 -6z"/>
<path d="M703 565 c-9 -10 1 -24 42 -65 34 -34 52 -58 48 -69 -4 -14 -3 -14 6
-1 8 12 12 10 20 -10 5 -14 10 -19 10 -12 1 22 -30 75 -56 96 -14 10 -33 31
-42 46 -13 21 -19 25 -28 15z"/>
<path d="M902 540 c1 -25 -6 -66 -16 -93 -16 -41 -21 -46 -35 -35 -14 11 -14
11 -3 -4 12 -15 28 -15 55 -1 4 3 3 11 -3 18 -13 16 -3 45 16 45 17 0 19 -17
2 -22 -9 -3 -9 -6 0 -12 8 -5 14 3 18 23 4 17 11 31 16 31 6 0 8 -6 5 -14 -4
-10 2 -13 19 -12 18 1 24 7 24 25 0 13 -3 21 -7 18 -3 -4 -12 -2 -20 5 -7 6
-17 8 -20 4 -4 -4 -17 10 -30 31 l-23 38 2 -45z"/>
<path d="M2508 573 c-27 -2 -48 -7 -48 -11 0 -4 22 -5 50 -4 27 2 50 8 50 13
0 5 -1 8 -2 7 -2 -1 -24 -3 -50 -5z"/>
<path d="M2019 556 c-4 -4 -111 -16 -199 -22 -71 -4 -71 -4 -30 -15 19 -4 89
-7 155 -4 66 2 100 1 75 -3 -29 -5 -40 -10 -32 -15 7 -5 22 -5 35 -1 12 4 47
8 77 9 116 4 133 5 128 11 -7 7 -34 12 -65 13 -13 1 -23 5 -23 10 0 5 10 12
23 14 12 2 -14 5 -59 6 -44 0 -83 -1 -85 -3z"/>
<path d="M2342 553 c-6 -3 -9 -10 -5 -16 4 -7 0 -8 -13 -3 -30 13 -46 12 -51
-1 -3 -9 7 -13 29 -14 26 -1 21 -4 -22 -11 -87 -16 -83 -28 9 -24 78 4 82 3
75 -16 -4 -15 -2 -19 7 -16 25 8 22 37 -5 48 -14 5 -26 14 -26 19 0 15 21 25
29 13 3 -6 18 -13 31 -15 14 -2 41 -11 60 -20 41 -18 46 -16 30 13 -6 11 -24
23 -41 27 -16 3 -32 10 -35 14 -3 5 -11 9 -17 9 -7 0 -4 -5 6 -11 9 -5 17 -14
17 -19 0 -5 -15 -1 -32 9 -18 10 -39 16 -46 14z"/>
<path d="M2618 538 c18 -18 15 -26 -10 -31 -17 -3 -14 -5 10 -6 17 0 32 2 32
7 -1 11 -26 42 -36 42 -4 0 -3 -5 4 -12z"/>
<path d="M2512 483 c21 -60 58 -114 43 -63 -4 14 -12 27 -16 28 -5 2 -9 8 -9
13 0 6 5 7 10 4 6 -3 10 -1 10 4 0 6 -7 11 -15 11 -16 0 -16 20 0 32 6 4 1 8
-10 9 -20 0 -20 0 0 9 18 8 17 9 -7 9 l-26 1 20 -57z"/>
<path d="M2550 502 c0 -14 36 -43 43 -35 4 3 0 15 -10 25 -17 19 -33 24 -33
10z"/>
<path d="M624 471 c30 -31 40 -75 22 -94 -12 -12 -46 -75 -46 -86 0 -3 12 12
26 32 14 21 28 36 31 33 3 -3 18 3 33 14 16 11 32 20 37 20 5 0 9 9 10 19 2
18 -1 19 -23 9 -17 -8 -28 -8 -32 -2 -28 41 -66 84 -75 84 -6 0 2 -13 17 -29z"/>
<path d="M2870 471 c7 -14 16 -36 21 -50 5 -19 8 -21 8 -7 1 18 2 18 21 1 37
-34 19 0 -21 40 -31 30 -38 34 -29 16z"/>
<path d="M424 457 c4 -12 15 -53 25 -90 10 -37 23 -73 29 -79 14 -14 16 -5 3
20 -5 9 -17 44 -26 77 -10 33 -19 65 -22 70 -2 7 13 9 39 7 55 -5 47 4 -10 11
-41 5 -44 4 -38 -16z"/>
<path d="M2407 462 c2 -10 13 -18 24 -19 25 -2 25 13 0 27 -27 14 -30 13 -24
-8z"/>
<path d="M2791 470 c-1 -8 -8 -28 -16 -44 -14 -27 -14 -31 0 -45 14 -14 17
-14 25 -1 8 12 11 11 16 -7 4 -13 10 -23 15 -23 5 0 2 15 -8 33 -9 17 -20 48
-24 67 -4 19 -7 28 -8 20z"/>
<path d="M155 453 c-20 -15 -20 -15 1 -9 20 6 94 -18 94 -31 0 -3 -25 -3 -56
0 -41 4 -60 11 -71 26 -14 20 -40 31 -29 12 4 -5 1 -12 -4 -14 -6 -3 -5 -4 2
-3 7 2 20 -2 28 -9 8 -7 29 -17 45 -23 l30 -10 -32 -1 c-18 -1 -33 -4 -33 -9
0 -4 -15 -14 -32 -22 -31 -14 -31 -15 -10 -18 13 -2 37 1 54 7 17 6 61 12 97
12 36 1 53 4 36 6 -16 3 -34 9 -40 15 -7 7 2 8 28 4 20 -3 54 -9 75 -12 44 -7
67 -26 93 -74 17 -32 18 -33 18 -10 0 14 -9 43 -20 65 -11 24 -17 30 -13 15 5
-24 4 -24 -10 -6 -9 11 -16 23 -16 28 0 4 -8 8 -17 8 -15 0 -14 -2 3 -16 18
-14 18 -15 -4 -4 -17 8 -22 18 -19 31 3 10 1 17 -3 14 -5 -3 -33 4 -62 15 -72
28 -109 32 -133 13z"/>
<path d="M566 440 c0 -17 6 -36 12 -42 19 -19 14 -57 -8 -70 -24 -15 -25 -24
-6 -31 9 -4 21 5 31 19 13 21 14 31 4 67 -7 23 -13 51 -14 61 -3 33 -20 28
-19 -4z"/>
<path d="M1300 454 c0 -12 7 -27 15 -34 12 -10 15 -9 16 6 0 14 4 11 13 -10
l13 -29 7 27 c8 34 1 46 -25 39 -12 -4 -25 0 -30 8 -7 11 -9 9 -9 -7z"/>
<path d="M1774 448 c0 -13 -4 -31 -8 -40 -6 -14 -3 -18 13 -18 12 0 21 6 22
13 0 6 5 2 11 -10 15 -32 30 -29 18 3 -11 27 -42 73 -50 74 -3 0 -5 -10 -6
-22z"/>
<path d="M2174 457 c-8 -10 -5 -16 13 -24 12 -6 23 -7 23 -3 0 5 -6 11 -12 13
-7 3 -1 6 14 6 15 1 30 6 33 11 9 15 -58 12 -71 -3z"/>
<path d="M1063 424 c-24 -20 -43 -40 -43 -46 0 -6 7 -4 17 3 15 13 15 12 5 -8
-17 -31 -15 -34 13 -21 18 8 25 19 25 41 0 20 6 30 20 34 11 3 20 12 20 19 0
21 -11 17 -57 -22z"/>
<path d="M1130 448 c0 -9 9 -20 20 -23 11 -4 27 -18 35 -33 8 -16 14 -21 15
-11 0 8 -16 30 -35 49 -25 24 -35 29 -35 18z"/>
<path d="M1394 435 c2 -13 -1 -22 -5 -19 -5 3 -9 -5 -9 -18 0 -13 -3 -41 -7
-62 -4 -28 -3 -37 5 -32 7 4 12 27 12 52 0 25 4 43 9 40 10 -7 21 17 21 45 0
10 -6 19 -14 19 -9 0 -13 -9 -12 -25z"/>
<path d="M1437 453 c-4 -6 -1 -23 7 -37 l13 -26 12 28 c7 15 9 24 5 20 -4 -4
-12 0 -19 9 -8 10 -14 12 -18 6z"/>
<path d="M2566 449 c17 -22 26 -51 13 -43 -7 4 -10 2 -8 -5 7 -21 24 -13 27
13 2 17 -4 28 -20 37 -19 10 -21 10 -12 -2z"/>
<path d="M1907 418 c-8 -38 -22 -43 -51 -19 -10 8 -16 9 -16 3 0 -6 4 -13 9
-16 5 -3 9 -17 9 -31 0 -20 -3 -23 -13 -15 -14 11 -33 -5 -21 -17 3 -4 6 0 6
8 1 9 4 8 11 -5 9 -15 13 -16 20 -5 6 10 9 4 9 -18 0 -24 5 -33 16 -33 12 0
14 3 6 13 -6 6 -13 29 -17 51 -7 36 -6 38 14 31 17 -5 21 -2 21 18 0 14 7 27
15 31 18 6 18 5 5 -28 -6 -17 -6 -26 0 -26 12 0 24 46 15 60 -3 5 -10 8 -15 5
-5 -3 -10 3 -12 12 -2 11 -7 3 -11 -19z"/>
<path d="M2132 429 c-5 -11 -11 -20 -15 -20 -8 1 -9 -8 -1 -32 3 -9 10 -14 16
-11 7 4 7 9 -1 13 -7 5 -4 14 9 29 12 12 16 22 10 22 -6 0 -8 5 -5 10 3 6 4
10 0 10 -3 0 -9 -9 -13 -21z"/>
<path d="M493 375 c0 -38 2 -53 4 -32 2 20 2 52 0 70 -2 17 -4 1 -4 -38z"/>
<path d="M2028 413 c-6 -8 -13 -38 -15 -66 -2 -34 1 -47 6 -38 7 11 11 8 15
-12 6 -29 18 -36 25 -16 2 6 -1 9 -7 5 -12 -7 -26 59 -16 76 4 7 3 8 -4 4 -17
-11 -15 17 4 40 15 18 15 18 9 -5 l-7 -23 31 23 c17 12 31 24 31 25 0 10 -62
-2 -72 -13z"/>
<path d="M2310 426 c0 -4 10 -26 22 -49 13 -27 23 -37 26 -27 3 7 0 16 -6 18
-7 2 -12 12 -12 22 0 9 -7 23 -15 30 -8 7 -15 9 -15 6z"/>
<path d="M2432 388 c12 -34 38 -68 38 -49 0 5 -5 13 -11 17 -6 3 -9 17 -6 30
2 13 0 21 -4 18 -5 -3 -9 0 -9 5 0 6 -4 11 -9 11 -6 0 -5 -13 1 -32z"/>
<path d="M2271 401 c-11 -7 -9 -13 8 -30 21 -21 26 -12 13 21 -5 12 -12 14
-21 9z"/>
<path d="M756 385 c-42 -15 -62 -35 -44 -46 7 -4 3 -11 -11 -18 -11 -7 -21
-17 -21 -23 0 -6 11 -1 25 12 13 12 23 28 22 34 -1 6 5 11 13 11 9 0 29 10 45
22 34 26 26 28 -29 8z"/>
<path d="M1120 381 c0 -19 17 -38 25 -29 7 7 -7 48 -16 48 -5 0 -9 -9 -9 -19z"/>
<path d="M1255 383 c-3 -8 -5 -22 -5 -31 0 -13 3 -12 18 4 10 10 19 24 19 30
0 16 -25 13 -32 -3z"/>
<path d="M517 382 c-8 -12 -4 -82 5 -82 4 0 8 8 8 18 0 11 9 27 20 37 11 10
20 22 20 27 0 5 -11 -4 -25 -19 l-25 -28 6 28 c6 25 1 36 -9 19z"/>
<path d="M812 344 c-16 -33 -20 -50 -12 -62 8 -14 9 -13 10 9 0 14 9 36 20 49
11 13 20 29 20 37 0 26 -16 12 -38 -33z"/>
<path d="M872 373 c-14 -27 -24 -92 -12 -73 5 8 10 25 10 36 0 12 7 24 15 28
8 3 15 10 15 16 0 16 -19 12 -28 -7z"/>
<path d="M2400 364 c-6 -14 -15 -22 -21 -18 -8 4 -9 -1 -4 -16 5 -15 4 -20 -4
-16 -7 5 -9 1 -5 -8 9 -23 13 -20 29 17 9 19 14 25 15 14 0 -10 -6 -30 -14
-45 -12 -24 -12 -30 4 -49 18 -22 18 -22 23 -2 3 11 4 30 1 42 -2 12 -5 41 -6
65 -1 23 -4 42 -5 42 -2 0 -8 -12 -13 -26z"/>
<path d="M1975 354 c4 -16 7 -45 7 -64 0 -28 4 -36 19 -36 13 0 15 3 7 13 -5
7 -8 28 -6 47 2 19 0 32 -4 30 -4 -3 -8 2 -8 10 0 8 -5 18 -11 22 -9 5 -10 -1
-4 -22z"/>
<path d="M2610 364 c0 -8 4 -13 9 -10 12 8 22 -20 15 -39 -4 -8 -1 -15 4 -15
18 0 23 18 11 44 -14 29 -39 43 -39 20z"/>
<path d="M777 346 c-12 -13 -23 -37 -24 -53 -1 -15 1 -22 4 -15 7 19 23 4 23
-23 0 -13 -6 -25 -13 -27 -11 -2 -10 -7 4 -21 17 -18 18 -18 28 2 9 17 7 29
-10 62 -12 24 -17 44 -11 48 12 8 35 51 27 51 -3 0 -16 -11 -28 -24z"/>
<path d="M2166 356 c3 -9 15 -16 25 -16 10 0 19 -4 19 -10 0 -5 10 -18 22 -30
12 -11 18 -20 14 -20 -5 0 -3 -6 3 -14 6 -7 8 -21 5 -31 -6 -15 -4 -16 14 -6
14 8 19 17 15 29 -12 31 -35 62 -43 57 -4 -3 -13 10 -19 28 -9 24 -14 29 -21
18 -7 -12 -11 -13 -24 -1 -14 11 -16 10 -10 -4z"/>
<path d="M1600 344 c-14 -7 -42 -21 -62 -29 -35 -16 -62 -49 -35 -43 6 1 23
-2 36 -6 15 -5 27 -4 35 4 8 10 8 11 -1 6 -6 -3 -14 -2 -17 3 -9 14 22 34 40
27 14 -5 15 -4 4 9 -10 12 -10 15 3 15 8 0 20 7 27 15 15 18 4 18 -30 -1z"/>
<path d="M1081 341 c-23 -6 -82 -71 -65 -71 5 0 24 13 42 29 17 17 32 25 32
18 1 -7 16 -29 34 -50 35 -39 48 -37 51 5 1 13 -3 17 -15 13 -24 -8 -46 20
-31 39 9 11 8 15 -5 20 -8 3 -16 6 -17 5 -1 -1 -13 -4 -26 -8z"/>
<path d="M2085 321 c-8 -39 -1 -51 15 -22 7 14 8 27 2 38 -8 13 -11 10 -17
-16z"/>
<path d="M2570 331 c0 -14 -7 -33 -17 -43 -9 -10 -11 -18 -6 -18 20 0 45 49
34 68 -9 15 -10 14 -11 -7z"/>
<path d="M240 327 c0 -10 6 -17 13 -17 7 0 23 -21 36 -46 l22 -47 -33 7 c-21
4 -28 3 -19 -3 11 -7 9 -10 -8 -16 -11 -3 -25 -4 -29 -1 -5 3 -25 1 -46 -5
-45 -12 -60 -5 -45 22 9 19 9 19 -10 10 -32 -18 -34 -30 -8 -61 16 -19 24 -38
21 -52 l-5 -23 11 23 c5 13 8 27 5 32 -10 16 25 31 64 27 23 -2 41 -1 41 4 0
10 57 29 65 21 4 -4 12 0 19 9 6 9 20 18 31 21 14 2 19 10 17 26 -2 15 2 22
12 22 9 0 16 8 16 19 0 14 -5 18 -20 14 -11 -3 -34 0 -52 6 l-33 11 35 -29
c19 -16 33 -31 30 -33 -3 -2 -17 -9 -32 -16 -26 -11 -29 -10 -42 21 -7 17 -23
41 -35 51 -19 17 -21 17 -21 3z"/>
<path d="M1905 303 c19 -44 23 -49 33 -38 4 4 1 10 -5 12 -7 3 -13 9 -13 14 0
6 5 7 12 3 8 -5 9 -2 5 10 -4 10 -7 21 -7 24 0 4 -5 0 -10 -8 -8 -13 -10 -12
-10 3 0 9 -5 17 -10 17 -6 0 -4 -16 5 -37z"/>
<path d="M2119 313 c-7 -18 -7 -34 0 -48 8 -17 10 -14 11 20 0 33 2 37 11 22
6 -10 8 -25 5 -32 -7 -19 9 -28 22 -12 12 14 -10 77 -28 77 -6 0 -15 -12 -21
-27z"/>
<path d="M2312 323 c-9 -9 -11 -23 -6 -41 7 -26 7 -26 16 12 10 45 8 50 -10
29z"/>
<path d="M1760 327 c0 -4 9 -23 19 -43 18 -34 20 -34 30 -16 15 28 14 32 -9
32 -10 0 -24 8 -29 18 -6 9 -11 14 -11 9z"/>
<path d="M2462 276 c-25 -55 -18 -53 17 6 12 20 18 39 14 41 -4 3 -18 -18 -31
-47z"/>
<path d="M47 304 c-16 -9 -27 -18 -24 -20 6 -6 77 23 77 30 0 10 -24 6 -53
-10z"/>
<path d="M2503 283 c-16 -21 -37 -51 -48 -68 -10 -16 -27 -36 -37 -43 -10 -7
-18 -18 -18 -24 0 -6 10 -2 23 10 13 12 27 19 31 15 4 -4 4 1 0 11 -5 13 -4
17 4 12 6 -4 16 3 23 16 7 13 16 25 20 28 9 6 42 80 35 80 -2 0 -17 -17 -33
-37z"/>
<path d="M1675 290 c-49 -7 -91 -34 -110 -69 -8 -15 -14 -20 -15 -11 0 13 -1
13 -10 0 -5 -8 -10 -21 -10 -29 0 -10 5 -10 25 3 33 22 36 20 25 -10 -15 -39
-11 -64 5 -29 9 19 14 24 15 13 0 -10 4 -18 10 -18 5 0 0 21 -10 46 -11 25
-20 47 -20 50 0 8 57 32 94 38 36 7 39 6 26 -9 -12 -15 -11 -16 13 -10 21 6
27 3 27 -9 0 -8 10 -20 23 -26 19 -9 20 -9 6 2 -9 7 -16 15 -15 18 1 3 -8 17
-19 31 -17 22 -25 25 -60 19z"/>
<path d="M2619 273 c-9 -10 -22 -29 -29 -43 -11 -20 -7 -19 19 9 17 19 30 38
29 43 -2 5 -11 1 -19 -9z"/>
<path d="M847 258 c-8 -12 -17 -45 -20 -72 -3 -30 -1 -43 4 -35 5 8 9 23 9 35
0 21 23 48 48 55 10 3 8 9 -6 23 -20 17 -21 17 -35 -6z"/>
<path d="M1071 271 c4 -10 -15 -24 -53 -44 -32 -15 -58 -33 -58 -38 0 -6 4 -8
9 -5 5 4 7 -4 3 -16 l-5 -22 31 23 c43 30 46 39 14 34 -21 -3 -17 1 16 16 24
11 51 20 60 18 27 -3 29 14 3 32 -19 12 -23 13 -20 2z"/>
<path d="M2341 258 c-1 -27 -21 -41 -21 -15 0 6 -7 3 -16 -8 -8 -11 -20 -19
-25 -18 -5 2 -9 -2 -9 -8 0 -6 7 -9 15 -5 16 6 21 -13 8 -30 -5 -5 10 7 31 28
35 33 38 39 28 60 -11 23 -11 23 -11 -4z"/>
<path d="M68 258 c33 -16 27 -28 -15 -28 -27 0 -34 -3 -26 -11 8 -8 21 -8 47
1 43 14 45 23 11 38 -33 15 -48 14 -17 0z"/>
<path d="M2073 254 c-34 -15 -41 -28 -21 -40 7 -4 8 -3 4 4 -4 7 -2 13 3 13 6
1 15 2 21 3 12 1 35 25 29 29 -2 2 -19 -2 -36 -9z"/>
<path d="M1180 235 c-18 -19 -26 -22 -37 -14 -8 7 -13 8 -13 1 0 -5 7 -15 16
-22 8 -8 14 -25 13 -39 -2 -26 10 -81 17 -81 2 0 13 5 23 12 10 6 26 8 36 4
17 -6 17 -17 -1 -60 -5 -13 -4 -17 4 -13 6 4 13 21 17 37 5 25 2 34 -17 50
-14 11 -27 15 -33 9 -15 -15 -25 -10 -25 11 0 14 5 18 18 13 13 -5 12 -1 -5
19 -13 13 -23 31 -23 39 1 10 5 8 17 -6 15 -19 15 -19 10 12 -4 22 -2 33 8 37
10 3 15 -1 16 -12 0 -10 3 -12 6 -4 2 6 10 10 16 6 7 -3 3 2 -7 10 -26 21 -28
20 -56 -9z"/>
<path d="M2189 243 c-9 -10 -8 -13 5 -13 11 0 15 -5 11 -12 -4 -7 1 -4 9 6 9
11 16 23 16 26 0 12 -30 7 -41 -7z"/>
<path d="M1695 230 c-40 -17 -75 -54 -66 -69 7 -11 13 -7 25 18 9 17 20 31 24
31 5 0 17 7 28 15 21 16 18 18 -11 5z"/>
<path d="M2091 200 c-12 -22 -20 -46 -18 -53 4 -8 6 -7 6 3 1 13 2 13 12 0 8
-12 9 -10 4 7 -4 13 1 32 11 48 9 14 15 28 12 30 -2 3 -15 -13 -27 -35z"/>
<path d="M2360 207 c-14 -17 -33 -44 -42 -61 -12 -21 -17 -25 -18 -13 0 26
-12 21 -38 -17 -20 -30 -22 -37 -10 -55 14 -23 43 -28 54 -10 3 6 0 15 -7 20
-8 4 -16 3 -20 -3 -7 -12 -29 -2 -29 13 0 5 12 14 27 20 22 8 30 7 39 -6 8
-11 14 -13 19 -5 4 6 2 17 -5 24 -8 11 -6 22 8 47 11 19 25 33 31 31 12 -2 25
21 19 36 -1 5 -14 -5 -28 -21z"/>
<path d="M665 211 c-16 -9 -34 -27 -40 -39 -13 -28 -19 -28 -44 5 -12 14 -23
24 -26 21 -7 -6 53 -88 64 -88 12 0 33 59 25 71 -3 5 1 9 8 9 7 0 24 9 38 20
31 24 16 25 -25 1z"/>
<path d="M870 220 c-8 -5 -11 -12 -7 -16 4 -4 13 -2 19 4 15 15 32 16 23 2 -3
-5 -2 -10 4 -10 17 0 21 18 5 24 -21 8 -26 7 -44 -4z"/>
<path d="M1286 202 c-10 -19 -21 -30 -28 -26 -8 5 -9 1 -5 -10 4 -10 7 -21 7
-24 0 -10 28 32 28 42 0 5 6 12 12 16 7 4 10 14 8 21 -3 9 -11 2 -22 -19z"/>
<path d="M1494 203 c3 -19 1 -33 -4 -33 -6 0 -10 -7 -10 -15 0 -19 -9 -19 -31
1 -13 12 -19 12 -25 3 -4 -8 -3 -10 4 -5 7 4 14 -3 18 -19 5 -19 9 -23 19 -15
8 7 14 7 17 1 1 -5 15 -12 31 -15 28 -5 35 7 17 34 -8 12 -10 11 -10 -7 0 -17
-4 -21 -17 -16 -11 4 -13 8 -5 11 10 3 10 7 1 18 -8 10 -8 14 0 14 14 0 14 40
0 60 -8 11 -9 7 -5 -17z"/>
<path d="M708 204 c-31 -16 -34 -24 -15 -43 10 -11 10 -13 0 -7 -7 4 -13 2
-13 -4 0 -18 24 -6 36 18 7 15 13 17 20 9 5 -7 8 -10 7 -8 -2 2 2 10 7 16 18
22 -11 35 -42 19z"/>
<path d="M1083 202 c10 -10 17 -23 17 -28 0 -5 11 -14 25 -21 19 -8 25 -8 25
1 0 19 -31 57 -41 51 -5 -4 -9 -1 -9 4 0 6 -7 11 -17 11 -15 0 -15 -1 0 -18z"/>
<path d="M922 184 c-8 -8 -11 -21 -8 -29 4 -12 1 -12 -21 -2 -22 10 -27 8 -40
-8 -8 -11 -12 -30 -10 -42 2 -12 1 -21 -3 -20 -5 1 -8 -2 -8 -8 0 -5 4 -9 9
-7 5 1 9 -2 9 -8 0 -5 5 -10 10 -10 6 0 10 9 10 19 0 10 8 29 19 42 l18 23 7
-22 c10 -29 20 -28 34 3 15 33 15 47 0 67 -12 15 -15 15 -26 2z"/>
<path d="M1317 193 c-3 -5 -1 -17 4 -28 8 -20 8 -20 8 0 1 15 3 17 10 7 7 -11
10 -10 15 3 3 9 6 19 6 21 0 7 -39 4 -43 -3z"/>
<path d="M1378 178 c-22 -27 -23 -44 -3 -52 16 -6 30 29 23 58 -2 12 -6 11
-20 -6z"/>
<path d="M514 176 c-3 -9 -15 -16 -25 -16 -10 0 -19 -6 -19 -12 0 -8 -3 -9 -8
-3 -4 6 -15 16 -25 24 -15 12 -14 7 5 -21 13 -20 25 -36 28 -35 3 0 12 -3 21
-7 8 -4 26 -3 40 2 21 9 25 6 36 -22 6 -18 12 -23 12 -13 1 24 21 22 21 -2 0
-11 5 -23 11 -26 13 -9 27 4 14 13 -6 4 -18 20 -27 37 -18 31 -59 49 -95 40
-13 -3 -23 -1 -23 4 0 6 19 11 41 13 41 3 41 3 20 22 -19 17 -21 17 -27 2z"/>
<path d="M1276 145 c-3 -8 -1 -17 4 -20 6 -4 10 -11 10 -17 0 -6 -11 -1 -25
12 -21 19 -25 21 -25 7 0 -9 6 -17 14 -17 8 0 17 -8 20 -17 6 -15 8 -15 16 -3
12 19 13 57 1 64 -5 3 -11 -1 -15 -9z"/>
<path d="M386 126 c-22 -34 -20 -46 3 -18 20 23 45 21 55 -4 4 -9 -1 -14 -15
-14 -29 0 -81 -29 -73 -41 4 -6 11 -6 21 2 8 7 33 15 55 18 l39 6 -23 34 c-30
44 -41 47 -62 17z"/>
<path d="M1663 138 c-13 -6 -23 -19 -23 -29 0 -17 3 -16 35 4 51 33 42 51 -12
25z"/>
<path d="M1061 132 c1 -4 1 -14 0 -22 -1 -13 -2 -13 -11 0 -8 11 -9 7 -4 -15
9 -40 12 -42 19 -12 5 17 12 24 21 20 13 -5 12 -8 -2 -24 -16 -18 -16 -19 0
-19 9 0 15 4 12 9 -4 5 -1 11 5 13 9 3 9 9 1 25 -11 20 -43 40 -41 25z"/>
<path d="M1110 127 c0 -14 31 -47 43 -47 13 0 7 29 -9 44 -19 20 -34 21 -34 3z"/>
<path d="M2817 120 c-8 -11 -17 -17 -22 -12 -4 4 0 -8 9 -26 10 -19 20 -31 23
-28 3 3 0 12 -6 20 -14 16 -1 50 21 59 9 4 10 6 1 6 -6 1 -18 -8 -26 -19z"/>
<path d="M61 99 c-26 -21 -21 -25 12 -8 l22 12 -20 -23 -20 -23 23 12 c18 10
26 10 38 0 11 -9 18 -9 26 -1 9 9 8 12 -5 12 -9 0 -24 9 -34 19 -18 19 -18 19
-42 0z"/>
<path d="M1670 89 c-19 -17 -28 -28 -19 -26 13 4 16 1 11 -16 -7 -32 11 -11
23 25 13 41 34 48 28 11 -3 -27 -3 -27 7 -5 10 23 6 42 -8 42 -4 0 -23 -14
-42 -31z"/>
<path d="M470 108 c0 -4 4 -18 10 -32 10 -28 40 -36 40 -11 0 8 -7 15 -15 15
-7 0 -19 8 -24 18 -6 9 -11 14 -11 10z"/>
<path d="M1942 72 c-37 -47 -32 -55 11 -17 16 14 27 33 25 42 -2 13 -12 6 -36
-25z"/>
<path d="M1914 85 c-5 -12 -10 -12 -27 -3 -22 11 -22 11 -3 -11 11 -11 20 -21
21 -21 2 0 10 11 19 25 9 14 12 25 6 25 -6 0 -13 -7 -16 -15z"/>
<path d="M180 67 c0 -9 -8 -17 -17 -18 -10 0 -5 -5 11 -10 38 -11 42 -6 22 23
-13 18 -16 19 -16 5z"/>
<path d="M1312 63 c-11 -11 -11 -17 -1 -29 11 -14 13 -14 21 0 5 9 5 22 1 30
-7 12 -10 12 -21 -1z"/>
<path d="M1139 60 c-1 -5 -1 -17 -1 -25 0 -8 0 -19 1 -25 0 -6 30 -9 69 -8
l67 2 -62 3 c-48 3 -63 8 -63 19 0 9 5 12 11 8 8 -4 8 0 0 15 -13 23 -20 27
-22 11z"/>
<path d="M1383 52 c-17 -9 -36 -25 -42 -35 -10 -16 -3 -17 106 -17 64 0 113 3
110 6 -4 4 -52 7 -107 7 -56 -1 -97 3 -94 8 3 5 11 9 18 9 8 0 24 9 37 20 29
24 15 25 -28 2z"/>
<path d="M403 50 c-24 -10 -32 -30 -10 -26 6 1 26 9 42 19 24 13 26 16 10 16
-11 0 -30 -4 -42 -9z"/>
<path d="M1065 30 c5 -16 2 -20 -15 -20 -12 0 -18 5 -15 10 3 6 1 10 -4 10 -6
0 -11 -4 -11 -9 0 -5 -39 -9 -87 -10 -48 -1 -89 -4 -92 -6 -2 -3 52 -5 121 -5
125 0 126 0 122 23 l-5 22 12 -22 c16 -30 27 -29 21 2 -3 19 -11 25 -29 25
-20 0 -23 -4 -18 -20z"/>
<path d="M545 21 c-6 -6 -32 -12 -60 -14 -31 -2 -16 -4 40 -5 85 -2 89 -1 61
13 -34 18 -30 17 -41 6z"/>
<path d="M103 3 c32 -2 81 -2 110 0 29 2 3 3 -58 3 -60 0 -84 -1 -52 -3z"/>
</g>
</svg>
