<?xml version="1.0" standalone="no"?>
<!DOCTYPE svg PUBLIC "-//W3C//DTD SVG 20010904//EN"
 "http://www.w3.org/TR/2001/REC-SVG-20010904/DTD/svg10.dtd">
<svg version="1.0" xmlns="http://www.w3.org/2000/svg"
 width="300.000000pt" height="368.000000pt" viewBox="0 0 300.000000 368.000000"
 preserveAspectRatio="xMidYMid meet">
<metadata>
Created by potrace 1.10, written by Peter Selinger 2001-2011
</metadata>
<g transform="translate(0.000000,368.000000) scale(0.100000,-0.100000)"
fill="#000000" stroke="none">
<path d="M7 3673 c-4 -3 -6 -43 -5 -87 1 -67 2 -73 7 -34 5 35 13 52 34 68 15
12 27 31 26 43 0 20 -2 19 -10 -5 -6 -14 -17 -29 -25 -32 -17 -6 -29 17 -20
39 6 16 3 19 -7 8z"/>
<path d="M148 3656 c-16 -12 -28 -30 -28 -41 0 -25 -22 -85 -32 -85 -4 0 -5
-7 -2 -15 3 -8 -3 -27 -14 -42 -13 -18 -18 -38 -15 -55 3 -16 -4 -44 -17 -71
-13 -27 -21 -56 -18 -71 3 -15 0 -27 -8 -30 -17 -7 -18 -58 -2 -74 7 -7 28
-12 48 -11 l35 1 -42 15 c-35 12 -43 19 -43 39 0 15 6 24 16 24 25 0 54 -20
54 -37 0 -9 3 -13 6 -10 4 3 19 -11 35 -33 16 -21 37 -44 48 -49 11 -6 27 -18
35 -27 15 -14 18 -14 36 8 18 21 21 22 33 6 15 -19 74 -38 63 -19 -4 6 -16 11
-27 11 -22 0 -27 35 -6 43 9 4 10 6 0 6 -8 1 -13 15 -13 35 0 47 9 66 31 66
23 0 25 13 4 30 -19 16 -19 51 0 96 16 38 31 37 69 -5 23 -26 40 -28 27 -3 -5
10 -26 27 -45 37 -39 21 -44 35 -21 59 8 8 15 26 15 41 0 14 7 28 15 31 10 4
12 11 6 21 -13 24 -1 63 20 63 11 0 19 5 19 10 0 6 -9 10 -20 10 -23 0 -26 19
-7 40 6 8 0 4 -14 -8 -15 -13 -30 -22 -35 -21 -24 4 -26 -2 -6 -17 26 -18 29
-58 7 -111 -13 -32 -17 -34 -33 -22 -14 11 -13 10 2 -9 17 -20 18 -24 4 -39
-9 -10 -13 -24 -11 -30 3 -7 1 -13 -5 -13 -12 0 -36 -75 -28 -88 4 -7 -7 -9
-29 -8 -19 2 -32 -1 -29 -6 3 -5 14 -6 23 -3 10 3 24 -1 30 -9 14 -17 5 -60
-10 -51 -5 4 -9 2 -9 -4 0 -5 5 -13 10 -16 18 -11 11 -46 -17 -86 -16 -21 -31
-39 -34 -39 -4 0 -38 33 -75 74 -38 40 -79 78 -91 85 -38 20 -27 100 11 85 10
-4 22 -16 26 -28 l9 -21 0 22 c1 13 -7 24 -19 28 -23 7 -25 24 -7 49 18 25 50
11 44 -20 -2 -13 0 -21 4 -18 5 3 9 11 9 19 0 15 44 -24 53 -47 4 -9 6 -8 6 3
1 23 30 45 55 41 19 -2 19 -2 3 8 -9 6 -22 8 -27 5 -6 -4 -10 7 -10 24 0 18 7
34 18 40 9 6 11 11 5 11 -7 0 -20 -11 -29 -26 -9 -14 -22 -23 -29 -20 -7 2
-18 -1 -24 -7 -8 -8 -11 -7 -11 5 0 9 4 19 9 22 5 3 7 14 4 24 -2 10 3 31 11
47 9 17 16 41 15 55 0 17 -5 11 -15 -22 -15 -49 -20 -53 -48 -42 -20 8 -20 27
-1 64 12 23 23 30 44 30 17 0 31 6 35 15 4 13 2 13 -14 5 -18 -9 -50 -4 -50 8
0 3 12 18 27 34 33 35 27 44 -9 14z m-10 -211 c5 -22 -9 -36 -40 -39 -19 -2
-24 2 -26 22 -1 14 3 31 9 38 14 17 53 3 57 -21z m62 -70 c10 -12 9 -16 -4
-21 -16 -6 -46 11 -46 27 0 15 37 10 50 -6z"/>
<path d="M707 3674 c-11 -12 -8 -21 9 -28 8 -3 22 1 30 9 9 8 11 15 6 15 -6 0
-17 2 -24 5 -8 3 -17 2 -21 -1z"/>
<path d="M809 3672 c11 -8 11 -11 -3 -19 -14 -8 -9 -16 33 -56 27 -26 52 -47
56 -47 11 0 -24 58 -39 63 -8 3 -16 18 -18 34 -2 19 -10 29 -23 31 -15 2 -17
1 -6 -6z"/>
<path d="M2101 3631 c-21 -28 -42 -47 -46 -43 -5 4 -5 2 -1 -5 4 -7 -17 -28
-54 -54 -33 -23 -60 -49 -60 -57 0 -8 -8 -21 -17 -28 -10 -7 -14 -16 -10 -21
5 -4 27 12 50 37 23 25 47 45 52 46 25 2 65 28 54 35 -6 4 -8 12 -4 19 6 10
11 10 19 -2 10 -14 14 -14 31 -2 17 13 18 16 5 24 -8 5 -22 10 -29 10 -18 0
45 68 74 80 19 8 19 9 -2 9 -15 1 -35 -15 -62 -48z"/>
<path d="M2990 1845 l0 -1835 -491 0 c-484 0 -490 0 -484 20 3 11 2 28 -4 37
-10 17 -11 16 -9 -2 4 -57 12 -54 -174 -58 -95 -1 130 -4 500 -5 l672 -2 0
1840 c0 1012 -2 1840 -5 1840 -3 0 -5 -826 -5 -1835z"/>
<path d="M2183 3617 c-13 -29 -20 -61 -17 -73 3 -12 1 -25 -4 -28 -6 -3 -8
-15 -5 -26 4 -14 0 -20 -11 -20 -9 0 -16 -4 -16 -10 0 -5 7 -10 15 -10 8 0 15
-5 15 -12 0 -9 3 -8 13 1 9 10 9 15 1 18 -7 2 -10 12 -7 23 3 10 11 16 17 14
7 -3 19 3 27 12 12 15 12 16 -10 9 -16 -5 -21 -4 -17 4 4 6 17 11 29 11 17 0
19 2 8 9 -8 5 -11 16 -8 24 4 11 1 14 -9 10 -17 -6 -18 4 -3 45 19 54 5 53
-18 -1z"/>
<path d="M2570 3645 c-8 -14 -21 -25 -29 -24 -32 3 -41 -1 -41 -18 0 -9 3 -13
7 -10 6 7 28 -43 38 -86 2 -9 6 -20 9 -25 2 -4 7 -43 10 -87 7 -95 23 -185 42
-240 7 -22 27 -98 43 -170 39 -168 53 -211 45 -135 -11 99 -11 95 17 95 18 -1
25 4 22 12 -3 7 2 13 11 13 8 0 20 9 26 20 9 17 6 17 -27 -5 -55 -38 -66 -31
-84 55 -9 41 -27 97 -39 124 l-22 49 26 25 c20 21 28 24 38 14 10 -10 7 -18
-17 -37 l-30 -25 30 15 c37 18 56 -1 25 -27 -21 -17 -20 -17 7 -15 23 2 28 -3
34 -28 4 -16 7 -24 8 -17 1 10 5 10 17 -2 19 -20 18 -20 54 -1 35 18 35 17 14
56 -14 28 -14 33 1 55 8 13 11 24 6 24 -5 0 -13 -4 -16 -10 -14 -22 -34 -7
-51 38 -10 26 -35 91 -56 145 -21 53 -38 101 -38 105 0 4 18 16 41 26 22 11
43 24 46 29 8 14 -38 -3 -69 -25 l-27 -18 -38 32 c-21 18 -40 33 -42 35 -2 2
3 11 11 20 22 27 30 43 20 43 -5 0 -15 -11 -22 -25z m67 -183 c29 -59 58 -125
64 -147 7 -22 22 -53 35 -68 13 -16 24 -34 24 -42 0 -7 7 -18 15 -25 19 -16
19 -44 -1 -61 -21 -17 -36 5 -31 45 4 27 3 28 -10 10 -12 -16 -15 -17 -23 -4
-5 8 -10 18 -11 23 -9 48 -29 77 -53 77 -23 0 -24 3 -21 53 3 43 -1 58 -22 85
-20 27 -24 40 -19 67 6 29 4 34 -9 29 -10 -4 -15 0 -15 14 0 25 10 52 19 52 3
0 29 -49 58 -108z m-26 -113 c11 -34 10 -42 -1 -49 -11 -7 -17 2 -27 38 -7 26
-12 48 -13 50 0 1 7 2 15 2 8 0 19 -17 26 -41z"/>
<path d="M2292 3632 c-6 -14 -12 -34 -12 -45 0 -10 -5 -28 -11 -39 -6 -11 -7
-23 -3 -27 11 -7 11 -32 1 -48 -8 -13 1 -43 13 -43 5 0 17 11 28 25 22 28 34
30 61 13 22 -13 51 3 51 28 0 19 -29 18 -36 -1 -8 -20 -24 -19 -24 1 0 13 -3
14 -15 4 -8 -6 -18 -9 -23 -6 -6 3 -13 -5 -16 -19 -4 -14 -11 -25 -16 -25 -13
0 -13 12 0 46 8 20 8 29 -1 35 -10 6 -10 11 0 23 7 8 10 19 7 25 -11 17 6 43
25 38 21 -6 23 1 9 23 -5 8 -10 11 -10 5 0 -5 -4 -5 -8 2 -5 8 -11 3 -20 -15z"/>
<path d="M2761 3641 c-2 -50 22 -207 35 -233 8 -15 14 -41 14 -58 0 -16 5 -30
11 -30 8 0 8 -5 -1 -15 -7 -8 -19 -15 -26 -15 -16 0 -19 -16 -5 -25 5 -3 21 6
35 20 13 13 21 27 16 30 -5 3 -7 25 -4 49 6 38 4 45 -14 50 -22 7 -36 32 -23
40 9 6 2 50 -23 151 -8 33 -15 49 -15 36z"/>
<path d="M274 3625 c-13 -20 -14 -30 -4 -59 6 -20 16 -38 21 -41 15 -10 10 45
-6 61 -13 13 -13 18 1 40 9 13 14 24 10 24 -3 0 -13 -11 -22 -25z"/>
<path d="M1520 3641 c-8 -5 -32 -17 -53 -27 -43 -21 -57 -35 -27 -27 10 3 25
11 31 19 17 20 34 17 47 -8 10 -22 10 -21 9 7 -2 28 0 30 31 29 17 -1 32 2 32
7 0 11 -50 11 -70 0z"/>
<path d="M1620 3578 c0 -13 -9 -38 -21 -57 -11 -18 -18 -35 -15 -38 2 -2 20 0
39 5 21 6 40 6 50 0 21 -11 22 -29 2 -22 -10 4 -15 0 -15 -11 0 -9 -6 -23 -12
-30 -38 -42 -39 -45 -24 -45 8 0 22 10 30 22 11 16 16 18 16 7 0 -8 -6 -21
-12 -28 -11 -11 -10 -13 3 -8 9 3 22 0 29 -6 10 -10 10 -7 1 11 -12 23 -6 66
8 57 5 -2 6 7 3 22 -4 21 -2 25 12 20 21 -8 22 25 1 43 -12 10 -23 9 -56 -4
-23 -9 -44 -14 -47 -11 -3 3 -1 5 4 5 5 0 10 8 10 18 1 9 4 29 9 45 5 18 3 27
-4 27 -6 0 -11 -10 -11 -22z"/>
<path d="M2325 3587 c-11 -13 -14 -62 -3 -72 3 -3 6 0 5 7 -1 36 4 59 13 53 6
-3 10 1 10 9 0 19 -11 20 -25 3z"/>
<path d="M1499 3568 c29 -33 22 -47 -11 -24 -29 21 -47 20 -78 -4 -27 -21 -12
-28 20 -8 15 10 22 9 38 -5 10 -9 23 -17 29 -17 6 0 16 -7 23 -15 10 -12 9
-15 -6 -15 -21 0 -46 14 -45 24 1 3 -2 7 -5 9 -4 1 -8 -16 -10 -38 -2 -22 -6
-58 -10 -79 -5 -34 -4 -37 9 -25 8 8 12 19 9 24 -3 6 2 3 13 -5 17 -14 18 -13
11 33 l-7 48 35 -7 c32 -6 36 -4 30 12 -4 11 -12 25 -17 32 -5 7 -8 15 -5 18
3 3 15 -10 26 -28 21 -32 21 -33 1 -64 -24 -39 -24 -39 1 -41 15 -1 21 7 26
34 8 44 -12 86 -64 135 -26 23 -30 25 -13 6z"/>
<path d="M560 3556 c0 -8 12 -24 28 -36 15 -12 20 -18 12 -14 -8 4 -12 4 -8
-1 5 -5 22 -10 39 -12 l30 -3 -46 40 c-51 44 -55 46 -55 26z"/>
<path d="M1050 3535 c-12 -30 1 -55 27 -55 12 0 14 7 9 32 -9 47 -23 56 -36
23z"/>
<path d="M872 3534 c4 -3 2 -19 -2 -35 -8 -26 -6 -29 15 -29 13 0 26 6 29 13
6 14 51 -40 51 -61 0 -8 15 -20 34 -28 30 -13 27 -7 -39 66 -40 44 -77 80 -83
80 -6 0 -8 -3 -5 -6z"/>
<path d="M677 3496 c-4 -10 4 -17 24 -21 38 -9 50 2 25 21 -25 18 -42 18 -49
0z"/>
<path d="M271 3472 c-1 -13 -5 -21 -10 -18 -5 4 -4 -5 2 -19 7 -14 18 -25 25
-25 7 0 10 5 7 10 -3 6 -1 10 6 10 8 0 7 5 -3 18 -9 9 -18 24 -21 32 -3 10 -6
7 -6 -8z"/>
<path d="M2893 3472 c-18 -9 -33 -25 -33 -34 0 -24 13 -23 35 2 10 11 23 20
30 20 6 0 20 7 31 15 18 14 18 14 -6 14 -14 0 -40 -8 -57 -17z"/>
<path d="M2490 3465 c-7 -8 -18 -15 -24 -14 -35 4 -136 -2 -136 -8 0 -5 36 -8
80 -7 69 0 83 3 100 22 15 16 17 22 7 22 -8 0 -20 -7 -27 -15z"/>
<path d="M400 3460 c-12 -8 -12 -10 4 -16 11 -4 24 0 34 10 15 15 15 16 -3 16
-11 0 -27 -4 -35 -10z"/>
<path d="M647 3427 c38 -60 80 -106 132 -144 35 -25 48 -30 62 -22 13 7 19 6
19 -1 0 -15 61 -50 88 -50 12 0 22 -6 22 -14 0 -7 11 -16 25 -19 25 -4 25 -4
8 17 -26 31 -35 36 -63 36 -34 0 -70 26 -70 51 0 23 -8 24 -32 2 -17 -15 -21
-15 -60 14 -49 35 -56 49 -31 56 14 4 13 5 -4 6 -13 0 -28 10 -35 21 -7 11
-18 20 -25 20 -7 0 -19 13 -28 29 -8 17 -20 33 -26 36 -5 4 2 -13 18 -38z"/>
<path d="M1402 3453 c-14 -28 -3 -48 14 -26 7 10 14 24 14 31 0 18 -18 15 -28
-5z"/>
<path d="M1825 3435 c-27 -13 -45 -23 -40 -24 6 0 33 11 60 24 28 13 46 23 40
24 -5 0 -32 -11 -60 -24z"/>
<path d="M2235 3410 c-3 -5 2 -23 12 -40 19 -33 40 -42 23 -11 -5 11 -10 29
-10 40 0 22 -14 28 -25 11z"/>
<path d="M2139 3373 c-15 -9 -34 -30 -44 -47 -10 -17 -27 -41 -38 -53 l-20
-23 24 0 c21 0 27 7 37 44 9 36 20 49 54 70 24 14 36 26 28 26 -8 0 -27 -8
-41 -17z"/>
<path d="M1543 3363 c2 -9 -13 -12 -30 -6 -22 9 -58 -2 -58 -17 0 -11 9 -14
33 -12 30 3 33 2 23 -15 -5 -11 -17 -26 -26 -33 -14 -12 -18 -11 -26 1 -5 8
-9 20 -9 27 0 6 -4 12 -10 12 -12 0 -12 2 -1 -37 6 -19 6 -35 1 -38 -14 -9 0
-33 18 -31 12 1 16 -5 14 -19 -2 -16 3 -13 23 12 24 29 29 31 81 28 54 -3 58
-6 88 -47 17 -24 41 -54 54 -66 21 -21 31 -49 13 -38 -17 11 -33 -21 -21 -43
15 -29 24 -26 16 4 -5 19 -3 23 9 19 10 -4 15 0 15 15 0 15 4 19 18 14 15 -6
14 -3 -3 17 -18 20 -18 22 -2 13 10 -5 27 -23 38 -39 10 -16 19 -24 19 -17 0
6 -5 15 -10 18 -12 7 -4 25 11 25 5 0 14 -11 21 -25 6 -13 16 -22 21 -18 6 4
8 0 4 -10 -3 -10 -2 -17 2 -17 5 0 11 6 14 13 2 6 9 -8 15 -33 5 -25 10 -37
11 -27 1 25 35 18 39 -8 6 -36 12 -46 22 -40 8 5 7 11 -1 21 -8 10 -9 17 0 28
9 10 3 19 -29 40 -22 14 -48 43 -58 64 -24 52 -59 67 -110 46 -37 -14 -42 -14
-61 2 -11 10 -17 22 -14 27 3 6 1 7 -5 3 -8 -5 -12 5 -12 33 0 22 5 41 13 44
9 4 9 7 -1 18 -11 12 -14 12 -22 -1 -5 -8 -10 -24 -10 -34 0 -28 -16 -9 -35
39 l-15 40 3 -35 c1 -19 -2 -35 -8 -34 -39 3 -95 18 -95 26 0 6 9 23 21 39 22
31 52 34 98 10 19 -10 26 -10 40 3 22 20 37 20 45 1 3 -8 2 -15 -3 -15 -4 0
-5 -15 -2 -32 5 -32 5 -32 22 22 17 55 12 82 -13 63 -18 -13 -145 -16 -153 -3
-7 11 -26 14 -22 3z"/>
<path d="M920 3341 c0 -16 28 -20 47 -6 17 13 16 14 -14 15 -18 0 -33 -4 -33
-9z"/>
<path d="M1364 3300 c2 -28 7 -54 11 -58 4 -4 5 3 2 16 -3 12 -1 22 5 22 14 0
5 63 -9 67 -9 3 -12 -9 -9 -47z"/>
<path d="M571 3308 c-6 -17 -11 -32 -11 -34 0 -2 11 7 25 20 29 27 30 32 11
39 -10 4 -18 -5 -25 -25z"/>
<path d="M418 3285 c-20 -7 -40 -10 -44 -7 -5 4 -2 -1 5 -11 13 -16 15 -16 31
-2 10 9 40 20 67 25 41 6 43 8 13 8 -19 0 -51 -5 -72 -13z"/>
<path d="M1150 3291 c0 -11 25 -21 51 -21 26 0 24 16 -3 24 -32 8 -48 7 -48
-3z"/>
<path d="M2947 3274 c-4 -4 -4 -18 -1 -30 4 -13 3 -31 0 -40 -6 -15 -8 -15
-30 -1 -26 18 -42 11 -25 -10 9 -9 8 -13 0 -13 -6 0 -11 -7 -11 -15 0 -18 12
-19 27 -4 6 6 19 12 29 13 11 2 19 7 19 12 1 5 4 18 8 30 8 23 -5 69 -16 58z"/>
<path d="M726 3256 c18 -8 50 -30 72 -50 46 -42 68 -49 28 -9 -44 43 -89 73
-110 73 -16 -1 -14 -4 10 -14z"/>
<path d="M186 3241 c-10 -11 -29 -22 -43 -26 -19 -4 -23 -9 -15 -17 8 -8 19
-4 40 13 16 13 38 29 48 36 16 10 16 12 3 12 -9 1 -24 -8 -33 -18z"/>
<path d="M592 3248 c-7 -7 -12 -17 -12 -22 0 -6 -16 -31 -35 -55 -27 -34 -32
-47 -24 -57 9 -11 7 -15 -7 -20 -18 -6 -104 -92 -104 -104 0 -3 9 -11 19 -17
15 -10 22 -9 31 2 21 25 40 18 40 -15 0 -37 -14 -44 -69 -31 -31 7 -41 6 -38
-2 2 -7 25 -13 51 -15 l48 -3 -23 -25 c-35 -38 -58 -30 -136 46 -78 76 -110
119 -77 105 11 -4 33 -9 49 -11 26 -4 25 -2 -10 11 -22 9 -43 19 -48 24 -10
10 -47 2 -47 -10 0 -5 8 -9 17 -9 15 0 15 -2 3 -15 -19 -18 -90 -48 -90 -38 0
5 -16 -23 -34 -62 -23 -46 -32 -75 -26 -85 10 -18 -5 -50 -24 -50 -7 0 -21
-10 -32 -22 l-19 -23 22 19 c13 11 31 16 43 13 15 -4 20 0 20 14 0 10 9 28 20
39 20 20 20 20 -6 20 -22 0 -25 2 -14 15 19 23 46 18 83 -15 23 -20 40 -27 55
-23 26 6 30 -15 5 -23 -10 -3 -28 -11 -40 -17 -18 -8 -27 -7 -43 8 -17 16 -20
16 -15 3 4 -11 -1 -21 -15 -28 -28 -15 -20 -23 12 -11 14 5 31 6 39 1 17 -11
9 -19 -24 -22 -22 -2 -24 -5 -15 -21 15 -28 1 -34 -33 -14 -17 9 -38 17 -48
17 -9 0 -22 5 -28 11 -7 7 -10 3 -10 -15 0 -22 2 -24 25 -15 15 6 28 6 31 1 3
-5 16 -12 29 -16 26 -9 30 -28 4 -25 -9 1 -25 -2 -36 -6 -11 -5 -26 -3 -37 4
-11 6 -19 8 -19 3 0 -13 40 -33 52 -26 7 4 8 3 4 -4 -4 -7 -3 -12 3 -12 5 0
13 5 16 10 10 17 44 11 57 -10 19 -30 23 -25 26 33 3 54 11 71 59 123 63 70
64 72 42 79 -19 6 -19 8 -4 25 22 25 72 35 90 20 8 -7 15 -23 15 -36 0 -17 4
-22 15 -18 9 4 15 0 15 -10 0 -17 -53 -49 -65 -38 -4 4 -5 -3 -1 -14 4 -14 1
-28 -10 -38 -9 -10 -13 -20 -9 -24 4 -4 16 4 27 18 48 60 86 98 112 112 15 8
40 34 56 59 17 24 30 38 30 31 0 -22 -29 -69 -55 -90 -21 -17 -23 -24 -16 -43
l10 -24 0 23 c1 13 17 43 37 65 29 34 34 47 30 72 -4 16 -13 33 -21 37 -20 12
4 76 65 174 28 43 50 84 50 91 0 16 -22 17 -38 1z m-333 -252 c10 -11 8 -22
-5 -48 -10 -18 -19 -35 -19 -38 -1 -3 -10 -23 -19 -45 l-18 -40 -19 24 c-23
29 -24 62 -3 104 31 60 58 74 83 43z m-115 -80 c-6 -27 -18 -33 -29 -15 -7 10
24 53 32 45 2 -2 1 -15 -3 -30z"/>
<path d="M1996 3228 c-9 -12 -31 -30 -49 -40 l-32 -17 31 -1 c27 0 35 6 52 40
22 45 21 51 -2 18z"/>
<path d="M1357 3163 c-18 -29 -33 -43 -42 -39 -8 3 -17 0 -21 -6 -5 -7 -2 -8
6 -3 9 5 11 4 6 -3 -4 -7 -14 -12 -22 -12 -28 0 -5 -17 31 -23 37 -6 73 2 74
16 1 4 1 19 2 35 1 24 2 23 11 -11 7 -28 19 -41 44 -53 37 -18 74 -70 79 -109
2 -19 -3 -27 -21 -31 -29 -7 -32 -24 -5 -24 25 0 43 23 35 45 -6 15 -4 16 14
6 12 -6 28 -21 36 -33 9 -12 16 -18 16 -13 0 6 4 16 9 24 8 12 12 12 25 2 11
-10 19 -10 33 -1 12 8 13 10 3 7 -9 -3 -24 1 -35 9 -10 8 -30 14 -44 14 -27 0
-56 14 -56 27 -2 24 -18 53 -30 53 -19 0 -95 94 -109 135 l-12 34 -27 -46z"/>
<path d="M1516 3172 c-3 -5 -2 -19 1 -32 6 -22 7 -23 13 -4 7 17 10 15 24 -16
15 -32 16 -33 12 -7 -2 15 -1 25 2 22 3 -2 12 0 19 7 11 9 17 9 24 -3 7 -12 9
-12 9 0 0 11 4 9 15 -5 8 -11 15 -14 15 -6 0 27 -39 52 -84 52 -25 0 -47 -4
-50 -8z"/>
<path d="M2935 3136 c-11 -12 -19 -30 -17 -40 2 -9 -4 -26 -14 -37 -28 -31 -7
-35 24 -5 21 20 29 37 30 66 1 22 1 40 -1 39 -1 -1 -11 -11 -22 -23z"/>
<path d="M87 3068 c-14 -18 -25 -40 -25 -48 -1 -8 -4 -35 -7 -60 -5 -40 -3
-37 18 25 23 70 50 96 63 61 8 -20 24 -21 24 -2 0 8 -12 17 -26 20 -17 5 -24
12 -20 21 9 24 -1 17 -27 -17z"/>
<path d="M1118 3073 c-10 -2 -18 -8 -18 -13 0 -5 -7 -7 -15 -4 -25 10 -17 -11
16 -41 28 -24 33 -26 41 -11 12 22 35 20 43 -3 15 -49 -25 -125 -94 -176 -39
-28 -57 -35 -92 -34 -46 0 -81 10 -80 22 1 17 -12 36 -22 30 -6 -4 -3 -11 8
-20 15 -10 15 -13 4 -13 -8 0 -20 5 -27 10 -9 7 -9 7 -2 -2 6 -7 10 -20 10
-30 0 -23 30 -38 72 -37 20 1 25 3 13 6 -37 8 -75 25 -75 35 0 5 7 5 18 0 36
-19 106 -23 136 -7 39 20 46 18 17 -5 -13 -11 -31 -20 -42 -20 -10 0 -20 -3
-22 -7 -3 -5 8 -8 23 -8 15 0 26 3 23 8 -2 4 2 7 9 7 7 0 36 23 64 51 29 28
57 48 63 45 14 -9 2 -36 -16 -36 -10 0 -6 -10 13 -36 25 -32 29 -34 43 -19 13
12 13 19 3 35 -15 25 -15 33 0 24 7 -4 8 -3 4 4 -4 6 -4 23 0 37 5 20 11 24
28 20 18 -5 19 -4 4 5 -9 6 -15 17 -12 25 4 8 9 13 13 10 4 -2 8 2 8 10 0 13
-3 13 -18 -1 -22 -20 -59 -3 -59 27 0 11 5 17 10 14 6 -3 10 -2 10 4 0 5 -5
13 -10 16 -8 5 -7 11 1 21 10 12 9 13 -5 8 -9 -3 -16 -1 -16 5 0 15 33 14 49
-1 11 -11 11 -9 2 9 -14 27 -51 50 -51 32 0 -8 -5 -7 -17 2 -15 13 -15 12 -4
-9 16 -31 9 -37 -16 -15 -10 10 -12 14 -3 8 13 -9 13 -8 1 8 -7 9 -14 16 -15
16 0 -1 -9 -3 -18 -6z m109 -168 c0 -8 -5 -15 -11 -15 -6 0 -4 -5 4 -10 12 -7
12 -12 2 -22 -10 -10 -15 -10 -22 2 -6 8 -8 21 -5 28 3 8 5 20 5 28 0 7 6 11
13 8 8 -3 14 -11 14 -19z"/>
<path d="M1264 3050 c31 -37 26 -59 -12 -52 -23 5 -25 3 -11 -9 23 -22 60 -41
67 -35 3 3 0 6 -6 6 -18 0 -15 13 8 37 19 21 19 22 1 28 -11 3 -26 17 -35 30
-9 14 -21 25 -27 25 -6 0 1 -14 15 -30z"/>
<path d="M1380 3033 c-19 -24 -21 -37 -18 -95 3 -44 11 -72 21 -83 21 -20 23
-4 6 43 -6 17 -9 45 -7 64 l3 33 23 -35 c19 -28 22 -30 16 -10 -4 14 -7 38 -5
54 1 25 -1 28 -21 23 -22 -6 -22 -5 -4 8 26 19 33 19 40 -2 4 -14 4 -14 3 2
-3 30 -32 29 -57 -2z"/>
<path d="M1955 3039 c12 -18 105 -60 105 -47 0 26 -18 42 -32 31 -10 -8 -18
-8 -30 1 -10 7 -16 15 -13 17 2 3 -5 5 -16 6 -11 1 -17 -3 -14 -8z"/>
<path d="M2347 3042 c-21 -4 -17 -21 20 -95 l23 -47 -25 -10 c-33 -13 -32 -29
2 -27 24 2 28 -2 35 -42 4 -24 15 -54 23 -68 9 -14 13 -32 10 -44 -6 -18 -4
-19 13 -10 39 21 58 6 27 -21 -9 -7 -24 -21 -34 -31 -12 -12 -21 -15 -26 -8
-3 6 -14 11 -23 11 -12 0 -13 -3 -4 -12 16 -16 15 -48 -1 -48 -7 0 -18 5 -25
12 -7 7 -12 8 -12 2 1 -15 28 -46 56 -65 l27 -17 -26 -24 -26 -24 35 -1 c28
-1 33 2 24 12 -28 33 52 81 88 53 17 -15 -5 -40 -28 -33 -10 3 -20 -1 -23 -9
-4 -10 -1 -13 9 -9 30 11 12 -18 -26 -42 -42 -27 -49 -39 -26 -48 8 -3 13 1
12 10 -2 24 29 39 49 23 25 -21 15 -55 -16 -55 -20 0 -25 -4 -21 -17 2 -10 8
-18 12 -18 19 0 51 38 54 64 3 32 26 49 59 44 15 -2 22 -10 22 -27 0 -13 5
-26 12 -28 7 -3 10 6 8 23 -3 27 -2 27 12 9 14 -18 15 -18 9 -2 -3 10 -6 23
-6 28 0 4 -6 6 -14 3 -8 -3 -19 4 -26 16 -14 26 -6 37 15 20 12 -10 15 -10 15
4 0 9 -7 16 -15 16 -8 0 -19 9 -25 19 -8 16 -5 23 18 41 l27 22 -27 -16 c-37
-22 -41 -21 -36 14 3 17 1 30 -4 30 -4 0 -9 -10 -9 -22 -1 -23 -1 -29 9 -62 5
-18 4 -18 -17 0 -11 10 -21 25 -21 33 0 8 -11 29 -24 46 -23 30 -24 34 -10 54
13 18 13 25 3 37 -10 12 -8 19 12 40 l24 26 6 -29 c6 -25 7 -25 8 -4 1 17 5
22 18 17 16 -6 16 -6 0 12 -16 18 -16 20 7 41 20 19 25 20 35 7 10 -11 7 -17
-11 -31 l-23 -16 26 6 c33 8 57 -16 34 -35 -12 -10 -18 -10 -32 1 -15 11 -16
11 -6 -1 10 -11 7 -18 -17 -35 -16 -12 -27 -25 -24 -28 3 -3 29 12 57 34 37
29 57 39 73 35 18 -5 21 -3 17 14 -4 16 -8 18 -19 9 -16 -13 -48 6 -38 22 3 5
-5 18 -17 28 -20 16 -21 21 -10 35 7 9 21 16 30 17 11 0 12 2 3 6 -7 3 -24 -5
-36 -16 -22 -21 -24 -21 -31 -4 -5 10 -9 20 -9 23 -1 3 -6 14 -12 24 -14 23
-34 13 -27 -13 3 -13 -2 -24 -15 -32 -18 -12 -19 -15 -5 -35 13 -21 13 -25 -8
-53 -45 -60 -65 -39 -34 35 13 32 13 35 0 30 -10 -3 -15 1 -15 11 0 9 -8 26
-18 37 -11 12 -29 50 -42 86 -27 75 -29 78 -53 72z m227 -191 c16 -17 15 -19
-9 -35 -24 -16 -26 -16 -34 6 -5 14 -5 28 1 36 14 16 22 15 42 -7z m-114 -225
c0 -8 -6 -17 -12 -19 -7 -3 2 -3 19 0 39 7 56 -19 30 -44 -13 -14 -19 -14 -32
-3 -13 11 -16 11 -13 0 4 -20 -24 -23 -47 -5 -20 15 -20 15 2 34 17 14 19 21
10 31 -9 10 -9 11 0 6 6 -3 14 -2 18 4 9 15 25 12 25 -4z m110 -142 c0 -7 -10
-19 -22 -25 -13 -7 -25 -16 -28 -20 -3 -4 -12 -4 -19 1 -12 7 -12 11 0 24 8 8
20 22 27 30 14 17 42 11 42 -10z"/>
<path d="M1040 3015 c14 -17 13 -17 -8 -11 -22 8 -23 7 -6 -12 9 -11 23 -18
30 -15 14 5 18 -6 15 -39 -1 -9 2 -19 8 -22 5 -3 7 -21 5 -39 -4 -31 -3 -31 8
-7 17 39 19 61 7 76 -6 8 -9 21 -5 29 3 9 2 13 -4 10 -6 -3 -10 -2 -10 3 0 5
-12 18 -27 28 -27 17 -27 17 -13 -1z"/>
<path d="M1474 3005 c3 -9 0 -15 -9 -15 -8 0 -15 -5 -15 -10 0 -15 29 -25 40
-14 11 11 1 54 -12 54 -6 0 -8 -7 -4 -15z"/>
<path d="M1825 2978 c-27 -22 -53 -48 -57 -57 -9 -23 -9 -53 0 -47 5 3 6 -8 4
-25 -2 -16 -9 -32 -15 -36 -6 -3 -7 -1 -3 5 11 18 -5 14 -19 -5 -14 -18 -51
-11 -39 8 4 8 3 9 -4 5 -6 -4 -9 -13 -5 -21 3 -8 0 -15 -6 -15 -6 0 -33 -15
-60 -33 -79 -54 -146 -74 -112 -33 9 10 8 15 -3 19 -8 3 -18 -4 -25 -19 -9
-19 -8 -24 4 -24 31 0 13 -16 -53 -47 -37 -18 -81 -32 -97 -32 l-30 1 30 7 30
7 -31 6 c-16 4 -53 22 -82 42 -29 19 -52 29 -52 23 0 -7 -5 -29 -11 -49 -12
-45 -26 -47 -84 -13 l-42 24 -27 -28 c-24 -25 -25 -29 -11 -41 8 -7 12 -17 8
-24 -4 -6 1 -5 10 3 14 11 21 11 42 -3 28 -18 35 -20 35 -7 0 6 -13 18 -30 28
-33 19 -38 31 -14 40 8 3 25 -4 38 -16 31 -30 61 -27 82 8 15 25 19 27 31 15
19 -18 37 -18 30 1 -5 12 -2 12 18 3 29 -13 34 -30 8 -23 -10 3 -4 -1 12 -9
63 -31 95 -23 213 59 10 7 16 6 19 -2 2 -6 24 8 49 33 25 24 51 44 56 44 6 0
16 7 22 16 11 14 14 14 36 -4 21 -17 24 -27 21 -73 -1 -30 1 -51 5 -47 4 4 13
3 21 -4 7 -6 16 -8 20 -4 3 3 1 6 -6 6 -6 0 -16 12 -22 26 -12 33 3 83 31 109
11 10 20 25 20 34 0 26 59 91 82 91 16 0 19 5 15 21 -3 12 -4 19 -2 17 1 -1
19 -22 38 -45 23 -28 37 -38 40 -29 3 7 -14 29 -40 51 -31 26 -42 42 -38 54 5
13 4 14 -6 4 -24 -24 -32 -13 -9 12 37 40 19 36 -35 -7z m10 -51 c13 -11 15
-16 6 -22 -8 -4 -21 1 -34 14 -17 16 -18 21 -6 21 8 0 23 -6 34 -13z"/>
<path d="M1645 2989 c-4 -5 -12 -6 -18 -3 -8 5 -9 4 -2 -3 6 -6 24 -15 42 -21
25 -8 33 -8 37 3 6 16 -50 39 -59 24z"/>
<path d="M1978 2994 c-4 -3 0 -17 7 -31 10 -19 11 -32 4 -47 -9 -18 -7 -17 11
3 20 23 20 25 3 45 l-18 21 23 -19 c18 -15 22 -27 17 -50 -5 -30 -5 -30 8 3 8
20 16 30 20 24 4 -6 2 -24 -3 -39 -6 -15 -8 -29 -5 -33 8 -7 25 20 25 41 0 9
5 20 10 23 13 8 13 -16 0 -49 -5 -14 -6 -26 -2 -26 4 0 13 14 20 32 8 23 15
29 22 22 16 -16 -8 -62 -34 -67 -17 -3 -16 -5 6 -6 21 -1 25 -5 21 -22 -5 -17
-11 -19 -37 -13 -17 3 -46 17 -64 31 l-33 25 -67 -69 c-100 -103 -118 -116
-143 -102 -15 8 -24 8 -32 0 -8 -8 -5 -11 11 -11 20 0 27 -11 22 -35 -1 -5 10
2 23 15 30 29 83 70 91 70 3 0 6 -6 6 -14 0 -8 4 -17 8 -20 4 -2 6 11 4 30 -4
29 -1 36 17 41 11 3 21 12 21 19 0 8 4 14 9 14 5 0 13 9 16 20 3 11 12 20 18
20 22 0 96 -76 103 -106 4 -16 12 -32 18 -36 6 -5 1 -8 -11 -8 -29 0 -29 -8
-1 -31 20 -18 20 -19 2 -20 -18 0 -18 -1 1 -8 19 -8 19 -8 0 -19 -15 -8 -17
-14 -9 -22 8 -8 14 -9 18 -1 4 6 12 11 18 11 6 0 8 -3 5 -6 -4 -4 3 -15 15
-26 24 -21 34 -17 23 9 -5 10 -7 21 -7 26 1 4 -6 7 -16 7 -15 0 -15 2 -2 10
13 9 13 12 -2 24 -19 14 -25 32 -8 21 6 -3 10 1 10 9 0 9 -5 16 -11 16 -6 0
-8 8 -5 18 3 9 2 32 -3 49 -7 24 -6 35 5 44 9 7 11 16 4 28 -11 21 3 46 22 39
25 -10 16 67 -12 97 -28 30 -40 32 -33 5 5 -19 4 -19 -48 -4 -30 9 -59 20 -65
25 -6 5 -13 6 -16 3z"/>
<path d="M1007 2983 c-4 -6 -1 -13 5 -16 7 -2 -2 -7 -19 -11 -22 -5 -33 -13
-33 -26 0 -17 -30 -51 -30 -34 0 5 -5 1 -11 -10 -9 -14 -7 -22 5 -34 22 -22
43 -9 80 52 23 37 27 51 19 68 -6 14 -12 18 -16 11z"/>
<path d="M787 2870 c-15 -17 -39 -51 -53 -75 -14 -24 -34 -47 -45 -50 -10 -4
-19 -11 -19 -16 0 -6 -7 -18 -16 -27 -15 -15 -18 -14 -40 12 -29 33 -32 19 -4
-17 l20 -25 -31 -38 c-16 -21 -28 -43 -25 -49 3 -8 -4 -10 -19 -7 -27 5 -40
-11 -27 -34 8 -15 10 -15 15 0 4 9 14 16 24 16 11 0 25 16 36 40 10 22 23 38
28 34 5 -3 9 3 9 13 0 22 45 73 65 73 8 0 15 4 15 9 0 6 14 25 30 43 17 18 30
42 30 55 0 12 9 29 21 37 12 8 19 20 17 27 -2 7 -15 -1 -31 -21z"/>
<path d="M1500 2859 c-14 -18 -40 -34 -60 -39 l-35 -8 32 -1 c35 -1 99 46 92
67 -2 7 -15 -2 -29 -19z"/>
<path d="M1603 2877 c9 -8 17 -27 18 -43 0 -27 1 -28 9 -6 5 12 17 22 26 22
13 0 14 -3 5 -14 -9 -11 -9 -16 0 -22 8 -4 9 -3 5 5 -4 6 0 14 8 17 20 8 20
15 0 40 -8 10 -13 13 -9 7 8 -16 -27 -17 -58 -2 -20 9 -20 9 -4 -4z"/>
<path d="M1351 2805 c0 -85 12 -115 45 -114 16 0 16 2 -3 9 -37 15 -28 32 13
24 27 -5 35 -4 30 5 -4 6 -15 11 -24 11 -26 0 -2 16 52 34 61 20 55 20 66 -6
8 -22 9 -22 9 -2 2 38 -36 44 -107 18 l-63 -23 2 42 c2 23 -3 51 -9 62 -9 16
-11 5 -11 -60z"/>
<path d="M2764 2860 c-21 -8 -37 -34 -27 -43 2 -3 13 3 24 14 10 10 28 19 39
19 11 0 20 5 20 10 0 12 -27 12 -56 0z"/>
<path d="M559 2821 c-26 -20 -54 -51 -63 -69 l-16 -33 -26 20 c-15 12 -32 21
-38 21 -6 0 4 -10 22 -21 17 -12 32 -26 32 -31 0 -6 -24 -38 -52 -71 -30 -34
-44 -55 -31 -49 26 14 74 74 101 127 26 52 67 89 122 113 41 17 42 19 20 24
-18 3 -38 -6 -71 -31z"/>
<path d="M1132 2790 c-9 -16 -9 -18 2 -14 22 8 19 -64 -3 -76 -12 -6 -22 -5
-28 1 -12 12 -53 3 -53 -12 0 -5 11 -7 25 -3 16 4 34 0 50 -10 22 -15 27 -13
24 10 0 3 7 11 17 18 11 8 14 18 9 26 -6 10 -4 12 9 7 12 -5 9 3 -11 31 -15
20 -28 38 -28 39 0 1 -6 -7 -13 -17z"/>
<path d="M1268 2798 c10 -12 11 -22 3 -37 -15 -28 -14 -36 4 -21 20 17 19 44
-2 61 -16 13 -17 12 -5 -3z"/>
<path d="M1812 2790 c-8 -20 -6 -26 7 -31 20 -8 24 1 12 32 l-9 24 -10 -25z"/>
<path d="M1310 2752 c0 -10 -5 -23 -12 -30 -7 -7 -9 -12 -4 -12 13 0 36 28 36
44 0 9 -4 16 -10 16 -5 0 -10 -8 -10 -18z"/>
<path d="M533 2701 c-21 -27 -46 -61 -55 -77 -9 -16 -31 -47 -47 -69 -17 -22
-40 -65 -51 -95 -19 -54 -19 -55 0 -30 11 14 20 33 20 44 0 14 6 17 25 14 14
-3 25 -1 25 3 0 5 -7 9 -15 9 -12 0 -13 4 -3 25 6 13 15 22 19 19 5 -3 9 1 9
9 0 8 10 27 22 43 13 15 23 33 23 39 0 14 28 55 38 55 4 0 5 -4 2 -10 -3 -5
-1 -10 5 -10 7 0 10 6 7 14 -3 7 1 25 8 40 21 39 10 32 -32 -23z"/>
<path d="M880 2723 c0 -7 7 -10 16 -6 12 4 15 2 12 -8 -3 -8 -15 -15 -27 -15
-12 -1 -24 -4 -28 -8 -3 -3 -13 0 -22 6 -10 8 -9 4 3 -10 16 -19 17 -22 3 -22
-9 0 -19 -4 -22 -10 -4 -6 11 -8 42 -5 31 4 64 0 92 -10 54 -19 63 -19 31 1
-19 11 -20 14 -5 10 24 -6 70 28 60 45 -6 8 -9 8 -15 0 -3 -7 -24 -14 -44 -18
-38 -6 -38 -6 -32 24 7 29 5 31 -28 35 -25 3 -36 0 -36 -9z"/>
<path d="M2713 2711 c4 -15 2 -21 -6 -18 -7 2 -23 7 -37 11 -24 7 -24 6 2 -9
41 -23 54 -52 32 -76 -9 -10 -20 -19 -25 -19 -4 0 -21 21 -38 47 -17 25 -31
42 -31 36 0 -6 -3 -20 -6 -30 -5 -15 -4 -15 5 -3 8 12 12 9 17 -17 4 -18 10
-30 15 -28 4 3 13 -4 19 -16 9 -17 8 -25 -7 -41 -18 -20 -18 -21 3 -10 12 6
24 23 28 36 3 14 19 33 35 42 24 14 28 21 20 35 -5 10 -9 29 -9 43 0 14 -5 28
-12 32 -8 5 -9 0 -5 -15z"/>
<path d="M351 2684 c-12 -19 -19 -40 -15 -45 8 -14 26 1 20 17 -3 8 3 20 14
26 11 7 20 18 20 25 0 24 -18 13 -39 -23z"/>
<path d="M1625 2691 c-9 -11 -35 -29 -57 -40 -58 -28 -121 -83 -218 -187 -62
-67 -88 -89 -97 -82 -9 7 -13 7 -13 -1 0 -6 5 -11 10 -11 7 0 7 -6 1 -17 -5
-10 -12 -26 -15 -35 -4 -15 -9 -16 -30 -6 -14 6 -23 15 -20 19 3 5 -5 22 -17
38 -20 28 -23 29 -35 13 -9 -11 -13 -13 -14 -4 0 25 -20 1 -20 -24 0 -19 4
-24 18 -22 9 2 16 9 15 14 -1 6 5 11 13 11 14 0 16 -5 18 -42 1 -14 8 -20 26
-20 15 0 25 -6 25 -15 0 -8 5 -18 10 -22 7 -5 6 -14 -2 -28 -17 -27 -17 -28
11 -23 22 4 23 8 13 24 -27 43 23 67 139 68 71 1 114 -9 114 -26 0 -12 3 -12
16 1 8 9 23 17 32 17 14 1 -81 17 -123 21 -5 1 -47 -2 -92 -6 -79 -7 -83 -6
-83 13 0 11 12 35 28 51 23 27 35 32 87 35 33 2 80 11 105 20 25 9 79 19 120
22 84 5 140 19 140 35 0 6 9 8 21 5 17 -5 18 -3 7 11 -11 13 -11 15 3 10 23
-9 43 7 35 27 -5 15 -11 13 -41 -13 -36 -32 -89 -52 -138 -52 -25 0 -27 2 -16
21 9 17 8 23 -2 30 -8 4 -16 3 -20 -3 -4 -6 -13 -15 -20 -20 -10 -6 -6 -7 11
-2 22 6 23 5 8 -10 -9 -9 -25 -16 -36 -16 -11 0 -35 -7 -55 -15 -19 -8 -54
-17 -77 -20 -23 -3 -54 -8 -68 -11 -23 -5 -18 3 36 57 52 53 64 61 73 49 9
-13 10 -12 5 3 -7 22 30 23 64 1 19 -11 17 -9 -4 10 -17 13 -35 22 -40 19 -6
-4 -7 -2 -3 3 5 5 14 9 20 9 7 1 11 7 9 14 -2 9 3 11 13 7 9 -3 14 -2 11 3 -3
4 14 18 37 31 53 29 112 80 94 80 -8 0 -22 -9 -32 -19z"/>
<path d="M2277 2683 c8 -24 34 -53 46 -53 6 0 1 10 -11 23 -12 13 -22 29 -22
35 0 7 -4 12 -10 12 -5 0 -7 -8 -3 -17z"/>
<path d="M1967 2648 c6 -41 -1 -46 -31 -23 -18 14 -56 21 -56 11 0 -2 -3 -12
-7 -22 -4 -11 -3 -15 5 -10 6 3 29 2 51 -3 57 -13 80 19 46 65 -13 17 -14 16
-8 -18z"/>
<path d="M210 2650 c0 -4 7 -10 15 -14 22 -8 18 -35 -7 -45 -14 -5 -18 -10
-10 -15 15 -9 39 14 47 46 6 21 2 26 -19 30 -14 3 -26 2 -26 -2z"/>
<path d="M2022 2628 c-10 -27 -9 -35 5 -50 9 -10 21 -18 27 -18 6 0 3 5 -7 11
-15 9 -17 18 -12 50 8 47 4 50 -13 7z"/>
<path d="M2803 2653 c-15 -5 -18 -33 -4 -33 6 0 13 5 17 11 3 6 17 8 33 4 17
-4 22 -3 16 3 -14 13 -47 21 -62 15z"/>
<path d="M1636 2635 c-3 -8 -15 -14 -27 -12 -16 1 -24 -5 -29 -24 -4 -15 -3
-33 2 -40 8 -11 9 -10 4 4 -4 11 0 17 12 18 10 0 12 3 5 6 -14 5 -18 33 -6 33
4 0 20 -12 36 -27 l29 -28 -13 27 c-9 22 -9 31 1 43 7 8 8 15 2 15 -5 0 -12
-7 -16 -15z"/>
<path d="M1804 2631 c3 -13 0 -33 -5 -43 -14 -27 -2 -36 16 -12 14 18 14 17
15 -13 0 -18 -4 -33 -10 -33 -19 0 -10 -18 19 -37 16 -10 50 -46 75 -80 25
-35 48 -63 50 -63 2 0 -17 40 -42 90 -37 70 -49 86 -58 75 -7 -9 -15 -11 -25
-4 -12 8 -11 11 4 20 19 11 23 44 6 55 -6 3 -20 20 -31 38 -17 27 -19 28 -14
7z"/>
<path d="M825 2620 c-17 -7 -17 -9 -2 -9 9 -1 17 -6 17 -12 0 -5 -4 -8 -9 -4
-6 3 -9 -18 -8 -49 2 -53 1 -55 -20 -50 -17 5 -32 -3 -59 -30 -20 -20 -40 -36
-46 -36 -5 0 -7 -4 -4 -9 3 -4 37 -11 77 -14 42 -4 87 -14 110 -27 37 -19 41
-19 64 -4 13 9 29 13 35 9 13 -8 13 -55 -1 -55 -5 0 -7 5 -4 10 3 6 1 10 -4
10 -6 0 -11 -7 -11 -15 0 -8 7 -15 15 -15 8 0 15 -9 15 -20 0 -11 4 -20 9 -20
14 0 22 30 16 64 -4 27 2 39 54 94 l58 62 6 -29 c5 -24 12 -29 41 -33 42 -5
61 3 101 38 l30 27 -38 -22 c-50 -28 -63 -27 -98 9 -29 29 -31 29 -60 14 -17
-8 -32 -21 -35 -29 -7 -17 -35 -28 -31 -12 3 18 -38 20 -53 2 -11 -13 -11 -21
-2 -36 16 -25 15 -29 -7 -29 -11 0 -31 15 -46 33 -15 18 -22 22 -16 10 14 -28
14 -36 0 -27 -7 4 -7 -1 1 -16 11 -21 9 -21 -28 6 -23 16 -43 38 -47 49 -5 18
-7 17 -23 -11 -9 -17 -23 -29 -30 -27 -10 4 -9 9 4 24 21 23 7 25 -25 3 -22
-16 -23 -16 -12 5 7 11 20 21 31 21 32 0 50 11 50 32 0 10 5 16 10 13 6 -3 10
-2 10 4 0 5 -4 13 -10 16 -5 3 -10 10 -10 16 0 14 32 10 53 -6 10 -7 41 -19
69 -26 43 -10 53 -10 62 3 6 8 20 20 31 26 18 10 16 11 -16 9 -24 -1 -35 -6
-32 -14 3 -7 1 -13 -5 -13 -5 0 -13 7 -16 17 -6 14 -8 14 -21 -3 -13 -18 -14
-18 -20 -2 -4 10 -11 15 -16 12 -16 -10 -31 6 -19 21 8 9 5 14 -11 18 -15 4
-19 2 -15 -8 3 -9 0 -12 -10 -8 -8 3 -13 12 -10 19 3 8 -1 14 -10 14 -8 0 -12
5 -9 10 7 11 7 11 -20 0z"/>
<path d="M2867 2599 c-11 -13 -25 -18 -37 -14 -10 3 -21 2 -24 -3 -3 -5 8 -12
26 -16 31 -6 57 12 58 42 0 15 -1 15 -23 -9z"/>
<path d="M89 2581 c9 -6 12 -18 7 -37 l-7 -29 19 30 c22 35 20 45 -11 45 -17
0 -19 -2 -8 -9z"/>
<path d="M1613 2549 c-1 -13 4 -18 17 -16 30 5 32 13 7 24 -19 9 -23 8 -24 -8z"/>
<path d="M2084 2549 c-9 -10 -13 -19 -7 -19 12 0 63 -49 63 -61 0 -13 -51 9
-67 29 -13 15 -13 15 -4 -5 6 -12 11 -29 11 -37 0 -30 -17 -16 -34 29 -19 48
-27 53 -46 30 -17 -20 -5 -62 22 -76 l21 -12 -21 28 c-36 46 -25 52 14 7 19
-23 41 -42 47 -42 12 0 67 -39 56 -40 -4 0 -24 7 -45 15 l-39 16 25 -20 c22
-18 23 -21 6 -21 -19 0 -19 -1 -2 -13 10 -7 18 -27 18 -45 1 -18 5 -32 10 -32
4 0 8 -7 8 -15 0 -9 6 -12 18 -8 13 5 11 -1 -8 -21 l-25 -27 -16 20 -17 21
-24 -21 -23 -20 33 4 c19 2 37 -2 44 -10 9 -11 18 -7 50 24 21 20 38 44 38 52
0 12 -3 12 -12 3 -17 -17 -28 -15 -28 4 0 9 -8 18 -19 21 -25 6 -16 40 16 56
l24 13 -22 28 c-20 25 -20 28 -5 45 12 14 13 20 3 30 -13 13 -14 16 -16 55 -1
32 -25 39 -47 15z"/>
<path d="M202 2548 c-6 -7 -14 -27 -18 -43 -4 -17 -17 -52 -29 -80 -13 -27
-30 -72 -39 -100 -9 -27 -30 -94 -47 -147 -17 -53 -29 -105 -26 -115 3 -12 5
-10 6 9 0 15 8 34 17 42 8 9 12 20 9 26 -3 5 -2 10 4 10 6 0 7 7 4 17 -4 10
-2 14 4 10 6 -4 14 0 17 9 4 10 2 13 -6 8 -8 -5 -9 -2 -5 10 4 10 7 22 7 27 0
4 8 6 18 3 14 -5 14 -4 3 4 -12 9 -13 17 -2 51 13 46 20 49 45 22 20 -22 18
-42 -20 -160 -13 -41 -22 -77 -19 -79 7 -7 28 14 31 30 39 194 37 186 56 175
10 -7 18 -19 18 -27 0 -9 3 -11 8 -5 4 6 20 19 35 29 16 9 26 20 24 23 -3 2
-16 -3 -30 -11 -28 -19 -57 -12 -57 13 0 9 9 48 20 86 11 39 22 84 25 100 l5
30 -14 -30 c-8 -16 -22 -59 -32 -95 -21 -80 -28 -89 -53 -66 -19 17 -19 19 10
104 16 48 34 95 40 105 12 23 6 33 -9 15z"/>
<path d="M2190 2539 c-7 -11 -9 -23 -6 -26 8 -9 36 17 36 33 0 21 -18 17 -30
-7z"/>
<path d="M2291 2536 c-13 -15 -4 -38 27 -78 9 -11 12 -27 7 -49 -5 -23 -4 -30
5 -24 19 12 51 -24 40 -45 -12 -23 -2 -32 21 -20 17 10 17 12 -6 47 -14 19
-25 41 -25 48 0 7 -7 18 -16 26 -9 8 -13 21 -10 35 4 13 2 26 -4 29 -5 3 -10
15 -10 26 0 22 -13 25 -29 5z"/>
<path d="M2837 2535 c-18 -13 -16 -14 15 -17 l33 -3 0 -67 c0 -92 12 -96 14
-4 1 56 -2 78 -14 90 -20 19 -25 19 -48 1z"/>
<path d="M1481 2508 c-1 -31 -17 -38 -24 -10 -4 15 -5 15 -6 0 -2 -25 16 -31
41 -14 12 9 17 16 11 16 -6 0 -14 8 -16 18 -3 10 -5 6 -6 -10z"/>
<path d="M530 2479 c0 -10 -6 -22 -13 -26 -8 -4 -22 -24 -33 -43 -10 -19 -27
-45 -38 -57 -16 -18 -17 -25 -6 -38 15 -18 30 -20 30 -2 0 7 20 52 45 98 31
61 40 86 30 86 -8 0 -15 -8 -15 -18z"/>
<path d="M2808 2455 c-4 -37 2 -44 21 -21 9 11 10 20 1 35 -15 28 -17 27 -22
-14z"/>
<path d="M2234 2461 c14 -15 15 -24 6 -40 -13 -25 1 -28 16 -3 14 22 0 62 -22
62 -16 0 -16 -1 0 -19z"/>
<path d="M1698 2439 c-13 -7 -17 -23 -17 -64 1 -30 5 -52 10 -49 5 3 9 19 9
36 0 25 3 29 19 25 25 -6 35 28 14 48 -17 17 -13 17 -35 4z m37 -29 c-5 -9
-45 -21 -45 -13 0 2 5 13 11 24 8 16 13 18 25 9 7 -7 12 -16 9 -20z"/>
<path d="M384 2393 c-17 -27 -34 -59 -38 -73 -4 -14 9 2 29 35 21 33 41 62 46
63 5 2 9 8 9 13 0 20 -17 6 -46 -38z"/>
<path d="M1765 2432 c2 -3 0 -11 -7 -19 -16 -20 0 -31 55 -35 41 -3 47 -1 47
16 0 13 4 16 13 10 7 -5 1 1 -13 13 -26 23 -54 33 -32 11 8 -8 9 -15 1 -25
-15 -17 -62 -18 -56 0 2 6 13 12 25 11 28 -1 19 12 -13 18 -14 3 -23 3 -20 0z"/>
<path d="M1499 2400 c-10 -6 -26 -27 -38 -47 l-21 -38 24 29 25 30 53 -49 c29
-27 55 -50 57 -52 3 -2 -9 -1 -25 3 -44 9 -57 -12 -33 -56 11 -19 19 -30 19
-23 0 6 3 19 7 29 5 13 3 15 -7 9 -8 -5 -11 -3 -8 6 3 8 13 14 23 14 10 0 22
7 28 16 8 12 0 24 -34 57 -24 22 -40 44 -35 49 4 4 23 -9 41 -29 30 -36 65
-50 65 -28 0 6 -5 10 -10 10 -5 0 -9 5 -7 11 1 6 -13 19 -30 28 -32 16 -47 38
-18 27 8 -3 15 -1 15 4 0 13 -70 12 -91 0z"/>
<path d="M316 2369 c-21 -16 -44 -26 -50 -23 -6 3 -2 -2 8 -10 11 -9 20 -15
20 -13 1 1 17 19 35 40 41 44 39 45 -13 6z"/>
<path d="M670 2375 c-12 -14 -11 -37 4 -80 4 -11 0 -8 -9 8 -20 34 -27 34 -48
-2 -21 -36 -21 -45 -1 -37 14 6 16 -1 12 -49 -3 -30 -1 -55 3 -55 13 0 30 38
32 72 1 22 17 47 53 87 l52 55 26 -17 c15 -10 31 -15 36 -12 5 3 12 0 17 -7
11 -19 13 -39 2 -32 -5 3 -7 11 -3 17 3 7 -2 3 -10 -7 -9 -11 -16 -24 -16 -29
0 -5 -9 -21 -20 -37 -11 -15 -17 -30 -13 -34 3 -3 1 -6 -5 -6 -7 0 -11 -3 -11
-7 1 -5 -3 -21 -10 -38 -6 -16 -11 -34 -10 -39 0 -5 -5 -12 -11 -16 -15 -10
-4 -30 16 -30 8 0 12 -5 8 -11 -4 -7 -10 -7 -16 -1 -6 6 -17 8 -25 5 -12 -5
-12 -7 -1 -14 34 -22 72 7 47 37 -8 9 -8 14 -1 14 12 0 42 56 42 78 0 8 6 12
13 9 8 -3 14 4 15 20 1 13 9 31 17 39 8 9 15 20 15 25 0 6 6 17 14 24 12 12
15 11 21 -8 4 -12 7 -31 6 -42 -1 -20 0 -20 7 -1 8 18 10 17 19 -11 9 -25 8
-35 -9 -61 -15 -24 -17 -35 -9 -51 7 -13 8 -22 1 -26 -6 -3 -14 5 -20 19 -5
14 -14 26 -20 26 -7 0 -6 -8 2 -22 17 -31 18 -56 3 -68 -9 -8 -12 -3 -9 20 2
20 0 29 -7 24 -6 -3 -8 -11 -6 -18 7 -18 -11 -56 -27 -56 -8 0 -17 -14 -21
-32 l-7 -32 -22 25 c-30 35 -67 59 -90 59 -13 0 -4 -8 24 -22 45 -24 73 -55
85 -96 6 -22 5 -23 -14 -12 -13 6 -19 16 -15 23 4 7 4 9 -1 5 -4 -4 -24 1 -44
11 -54 27 -128 42 -167 35 -33 -6 -45 -26 -24 -39 5 -3 10 -11 10 -16 0 -6 -4
-7 -10 -4 -5 3 -10 2 -10 -3 0 -17 50 -10 60 8 5 10 7 20 3 23 -15 16 47 17
71 1 15 -9 29 -14 33 -11 3 4 17 0 32 -7 32 -17 77 -64 68 -72 -12 -12 -84 -7
-149 10 -72 20 -140 16 -174 -9 -21 -15 -13 -28 24 -40 16 -5 22 -3 20 7 -4
20 63 22 108 3 20 -8 39 -13 42 -10 3 3 -1 5 -8 5 -10 0 -11 3 -4 10 7 7 19 8
36 1 14 -5 29 -7 32 -4 3 4 6 1 6 -6 0 -6 16 -21 35 -32 29 -18 35 -27 35 -56
0 -29 -5 -37 -28 -45 -26 -10 -27 -14 -18 -34 14 -31 21 -30 43 7 17 28 21 30
61 24 30 -4 46 -2 56 8 12 11 11 15 -4 25 -10 6 -21 19 -23 29 -2 10 -3 0 0
-22 4 -37 3 -39 -11 -20 -9 12 -12 30 -9 44 4 17 2 22 -6 17 -6 -4 -11 -17
-12 -29 -1 -20 -2 -20 -8 3 -4 14 -12 25 -18 25 -20 0 -26 14 -14 29 8 9 10
27 6 45 -10 46 10 101 62 170 66 87 93 130 70 112 -18 -14 -22 -5 -11 23 7 19
30 21 40 4 4 -7 3 -8 -4 -4 -8 5 -10 2 -6 -8 7 -17 24 -12 24 7 0 18 -60 129
-84 155 -29 33 -91 63 -112 55 -12 -4 -15 -3 -10 5 11 19 -98 16 -114 -3z
m136 -544 c-8 -13 -36 -15 -36 -3 0 4 5 13 12 20 14 14 34 0 24 -17z"/>
<path d="M2583 2357 c-22 -12 -22 -13 -2 -25 11 -7 38 -49 59 -94 22 -44 42
-83 45 -87 10 -9 -10 40 -50 123 -20 42 -33 81 -30 86 8 13 5 12 -22 -3z"/>
<path d="M1901 2313 c1 -17 3 -21 6 -10 3 12 15 17 44 17 38 0 39 -1 34 -27
-8 -37 -24 -98 -41 -152 -16 -51 -18 -75 -5 -67 5 3 11 0 14 -8 4 -9 -4 -16
-24 -20 -16 -3 -29 -10 -29 -16 0 -6 5 -8 10 -5 6 4 21 8 33 11 20 3 25 -2 33
-33 5 -20 15 -38 22 -41 10 -3 11 0 3 14 -21 39 -51 117 -51 135 0 11 7 19 18
19 19 1 73 29 56 30 -18 0 -26 32 -12 41 11 7 11 12 0 29 -7 11 -10 25 -7 30
3 5 1 11 -4 15 -6 3 -7 13 -4 22 8 22 -23 43 -64 43 -30 0 -33 -3 -32 -27z"/>
<path d="M417 2294 c-3 -4 -2 -15 3 -25 6 -9 6 -19 2 -21 -12 -4 -65 -119 -58
-125 9 -10 -22 -33 -37 -27 -21 8 -31 -14 -16 -32 10 -12 9 -16 -9 -21 -12 -3
-22 -9 -22 -14 0 -33 100 44 105 81 2 16 29 85 49 127 13 26 22 51 19 56 -5 9
-27 9 -36 1z"/>
<path d="M1629 2297 c-13 -36 -25 -125 -17 -137 7 -11 8 -10 5 7 -3 13 -2 25
3 28 4 3 11 21 15 41 l6 36 77 -4 c42 -3 86 -9 97 -12 15 -6 16 -5 5 2 -13 9
-59 19 -157 36 -18 3 -33 4 -34 3z"/>
<path d="M1890 2255 c0 -14 -5 -25 -11 -25 -5 0 -8 -4 -4 -9 3 -5 -3 -12 -12
-14 -14 -4 -13 -5 4 -6 18 -1 22 -6 20 -31 -1 -16 -8 -30 -14 -30 -7 0 -13 -5
-13 -10 0 -7 6 -7 20 0 17 9 20 21 20 80 0 39 -2 70 -5 70 -3 0 -5 -11 -5 -25z"/>
<path d="M2145 2199 c-24 -22 -35 -39 -34 -58 1 -25 1 -24 10 6 9 30 47 68 58
58 2 -3 -5 -15 -17 -28 -23 -24 -29 -47 -12 -47 5 0 14 8 19 18 10 16 10 16
11 0 0 -10 10 -37 23 -60 28 -52 28 -63 2 -82 -11 -9 -14 -16 -7 -16 6 0 12
-7 12 -15 0 -17 9 -19 30 -5 13 8 12 11 -5 24 -11 9 -14 16 -7 16 14 0 17 70
2 70 -6 0 -6 9 0 26 14 35 13 36 -10 29 -24 -8 -25 1 -5 48 24 57 -13 66 -70
16z"/>
<path d="M2335 2210 c-3 -6 -2 -17 3 -27 9 -15 11 -14 21 4 8 17 8 22 -4 27
-8 3 -17 1 -20 -4z"/>
<path d="M204 2188 c-25 -27 -26 -98 -1 -116 9 -7 17 -22 17 -33 0 -17 2 -18
13 -7 6 7 12 29 12 49 0 28 -4 35 -19 35 -29 -1 -44 30 -24 50 21 22 62 10 55
-17 -5 -18 -4 -18 18 -1 17 12 20 20 13 30 -6 7 -13 10 -16 7 -3 -3 -15 1 -28
9 -20 14 -24 13 -40 -6z"/>
<path d="M2437 2193 c-12 -11 -8 -23 9 -23 11 0 14 -8 12 -24 -1 -13 6 -33 16
-45 11 -12 16 -29 13 -40 -4 -18 -2 -19 14 -10 23 12 24 22 4 39 -8 7 -15 17
-15 23 0 15 -34 86 -41 87 -3 0 -9 -3 -12 -7z"/>
<path d="M1062 2165 c-37 -31 -60 -81 -43 -98 8 -8 11 -4 11 16 0 29 41 79 48
59 5 -16 23 -15 20 1 -2 8 11 12 39 12 23 0 44 3 48 6 6 7 73 -5 83 -15 6 -6
-60 4 -67 10 -2 2 -10 -1 -16 -6 -23 -19 -104 -39 -108 -26 -7 21 -37 -15 -37
-45 0 -40 -29 -121 -49 -136 -9 -7 -13 -13 -9 -13 4 0 -6 -39 -23 -87 -32 -94
-34 -107 -19 -98 6 3 10 -4 11 -17 1 -13 7 4 14 37 l12 60 2 -57 c2 -85 18
-79 18 6 1 61 6 85 29 132 18 35 43 67 63 81 19 13 30 23 25 23 -5 1 2 10 15
21 13 11 21 22 18 25 -7 7 -58 -30 -59 -43 0 -4 -21 -30 -46 -58 l-45 -50 21
41 c11 22 28 46 36 53 9 8 16 18 16 23 0 6 10 24 22 40 l21 31 -26 -18 c-16
-10 -27 -13 -27 -6 0 11 38 33 77 45 16 5 23 2 26 -11 4 -17 5 -17 6 0 0 10
13 22 27 27 36 14 44 13 44 -10 0 -11 3 -20 8 -20 9 1 52 36 52 43 0 11 -131
47 -169 47 -27 0 -48 -8 -69 -25z"/>
<path d="M2240 2175 c0 -8 11 -26 25 -40 28 -27 55 -33 55 -11 0 8 -11 17 -24
20 -13 3 -26 15 -29 26 -6 23 -27 27 -27 5z"/>
<path d="M1340 2145 c21 -22 27 -41 10 -30 -5 3 -10 2 -10 -3 0 -5 15 -9 33
-9 17 -1 25 2 17 5 -8 3 -20 12 -27 21 -10 13 -8 17 10 22 17 4 14 7 -15 10
l-38 5 20 -21z"/>
<path d="M2575 2160 c-55 -49 -57 -52 -50 -78 4 -15 11 -29 16 -31 6 -1 2 -13
-8 -25 -18 -21 -18 -21 2 -6 33 25 82 50 87 44 15 -14 14 40 -1 68 -19 35 -31
42 -46 28z m28 -41 c15 -24 1 -49 -28 -49 -31 0 -41 20 -25 50 13 24 38 23 53
-1z"/>
<path d="M2699 2155 c-2 -21 -1 -41 6 -65 2 -8 4 -18 4 -22 1 -9 31 -11 31 -3
0 3 -4 13 -9 23 -5 9 -14 33 -19 52 -7 24 -11 29 -13 15z"/>
<path d="M2774 2155 c4 -11 12 -42 18 -68 5 -27 12 -47 14 -44 7 7 -16 111
-28 122 -8 7 -9 5 -4 -10z"/>
<path d="M634 2152 c-15 -10 -29 -92 -16 -92 13 0 26 36 18 49 -3 5 1 14 9 21
26 21 16 40 -11 22z"/>
<path d="M1510 2129 c0 -9 8 -27 19 -40 16 -20 21 -21 34 -10 9 7 21 10 27 6
5 -3 10 0 10 9 0 8 3 23 6 33 4 13 0 11 -15 -7 -26 -32 -53 -32 -68 0 -8 16
-12 19 -13 9z"/>
<path d="M1191 2081 c-14 -4 -26 -12 -29 -19 -4 -13 25 -10 76 10 32 11 48 0
25 -18 -17 -13 -17 -13 0 -14 43 0 136 -61 183 -117 26 -32 44 -49 40 -37 -12
38 -90 111 -144 134 -40 18 -51 28 -47 41 8 25 -47 36 -104 20z"/>
<path d="M1370 2065 c0 -3 15 -19 34 -35 18 -17 39 -44 46 -60 7 -17 15 -29
17 -26 3 3 -10 32 -27 65 -22 41 -39 61 -51 61 -11 0 -19 -2 -19 -5z"/>
<path d="M1498 2035 c6 -11 18 -27 29 -36 20 -18 66 -32 57 -18 -3 5 -13 9
-22 9 -9 0 -30 14 -45 32 -16 18 -24 24 -19 13z"/>
<path d="M1793 2028 c6 -4 20 -8 29 -8 9 0 18 -8 20 -17 3 -13 5 -11 9 7 5 23
2 25 -33 25 -22 1 -32 -2 -25 -7z"/>
<path d="M2082 2012 c10 -27 9 -34 -7 -54 l-20 -23 21 18 c11 9 25 17 31 17
16 0 4 36 -18 56 -17 16 -18 15 -7 -14z"/>
<path d="M376 2005 c-10 -8 -24 -16 -30 -18 -14 -5 -7 -13 20 -21 16 -5 23 0
32 19 19 40 12 46 -22 20z"/>
<path d="M2616 2001 c-23 -25 -20 -35 6 -17 12 9 31 16 42 16 24 0 16 9 -12
15 -11 2 -27 -4 -36 -14z"/>
<path d="M442 1962 c-16 -35 -15 -41 8 -35 15 4 19 12 15 30 -6 35 -8 35 -23
5z"/>
<path d="M2669 1980 c-15 -9 -74 -80 -67 -80 2 0 24 20 48 45 45 45 48 52 19
35z"/>
<path d="M1560 1963 c0 -7 5 -15 10 -18 6 -4 31 -37 56 -73 41 -60 52 -56 19
8 -16 31 -85 98 -85 83z"/>
<path d="M2233 1954 c-8 -4 -6 -11 8 -25 21 -21 39 -25 39 -9 0 6 -7 10 -16
10 -10 0 -14 6 -10 15 5 15 1 17 -21 9z"/>
<path d="M2038 1912 c9 -20 19 -39 22 -42 3 -3 6 -18 8 -34 3 -26 1 -28 -22
-22 -17 4 -26 2 -26 -5 0 -7 12 -10 29 -7 28 4 30 2 41 -44 12 -46 22 -58 35
-39 3 5 43 9 89 8 47 -1 82 -4 80 -6 -2 -2 10 -13 27 -23 17 -11 33 -17 36
-14 3 2 -8 11 -24 20 -15 8 -21 15 -13 15 8 0 29 -11 45 -25 17 -14 22 -22 11
-18 -15 6 -17 3 -12 -14 4 -12 3 -37 -3 -57 -5 -21 -6 -37 0 -41 5 -3 9 4 9
15 0 11 13 32 29 48 l28 29 -32 39 c-18 21 -39 40 -46 41 -8 1 -34 7 -59 13
-65 15 -101 13 -143 -8 -37 -19 -50 -14 -22 9 8 7 15 20 14 29 0 13 -2 12 -8
-3 -7 -17 -10 -15 -29 16 -24 38 -28 53 -12 43 5 -3 7 0 4 9 -4 10 5 22 26 34
21 13 28 22 20 27 -7 5 -21 -4 -34 -20 -24 -29 -29 -27 -39 15 -4 14 -15 31
-26 37 -20 13 -20 13 -3 -25z"/>
<path d="M1918 1928 c7 -7 12 -19 12 -27 0 -8 11 -28 24 -46 13 -17 27 -46 29
-64 8 -49 17 -50 17 -2 0 34 -8 53 -41 96 -23 30 -44 55 -47 55 -3 0 -1 -5 6
-12z"/>
<path d="M217 1914 c-15 -16 -5 -24 29 -24 24 0 34 4 32 13 -5 13 -50 22 -61
11z"/>
<path d="M391 1901 c-18 -12 -6 -42 14 -35 8 3 15 15 15 25 0 21 -8 23 -29 10z"/>
<path d="M2240 1888 c-22 -10 -22 -12 -7 -15 11 -3 27 -13 37 -23 17 -17 16
-18 -21 -29 -21 -6 -41 -16 -45 -22 -4 -8 0 -8 14 0 31 16 83 13 105 -6 20
-17 20 -17 14 0 -4 10 -7 23 -7 28 0 5 -6 9 -14 9 -8 0 -17 15 -20 35 -7 37
-16 40 -56 23z"/>
<path d="M1567 1878 c4 -7 14 -29 20 -48 9 -26 11 -28 8 -7 -4 17 -1 27 6 27
7 0 5 8 -6 20 -20 22 -41 28 -28 8z"/>
<path d="M206 1872 c-4 -3 -6 -11 -6 -18 0 -10 12 -12 40 -10 22 2 40 1 40 -3
0 -3 -5 -25 -10 -49 -14 -57 1 -88 19 -40 7 18 17 41 22 50 5 10 9 31 9 48 0
23 -4 30 -20 30 -11 0 -20 -4 -20 -9 0 -5 -15 -5 -34 -1 -19 4 -37 5 -40 2z"/>
<path d="M1081 1849 c-19 -31 -27 -59 -17 -59 7 0 47 82 42 87 -3 3 -14 -10
-25 -28z"/>
<path d="M2682 1860 c0 -14 6 -41 13 -60 18 -46 18 -28 1 35 -9 30 -14 40 -14
25z"/>
<path d="M379 1842 c-3 -22 -6 -51 -7 -85 -2 -30 -7 -40 -29 -50 -16 -6 -30
-15 -33 -18 -3 -4 -25 -3 -50 1 -25 5 -56 9 -70 8 -23 -1 -23 -1 -2 -5 12 -2
22 -8 22 -12 0 -5 10 -6 23 -4 25 5 66 -21 54 -33 -4 -5 -17 -2 -28 5 -12 7
-23 11 -24 9 -2 -2 -13 -55 -24 -118 -12 -63 -23 -128 -26 -145 -5 -23 -3 -26
4 -14 6 9 13 38 17 65 8 69 21 124 24 99 2 -17 3 -16 10 5 4 14 8 40 9 59 1
29 3 32 16 21 12 -10 14 -25 10 -59 -5 -44 -4 -43 10 12 19 76 33 100 52 93 9
-4 17 1 20 14 4 15 14 20 39 20 28 0 35 -4 40 -25 9 -38 18 -21 20 39 1 29 5
62 8 73 5 16 1 22 -18 25 -20 4 -24 1 -23 -16 1 -12 7 -27 15 -35 18 -19 10
-34 -21 -38 -23 -3 -27 0 -25 22 1 14 6 25 10 25 15 0 8 58 -7 64 -8 3 -15 2
-16 -2z"/>
<path d="M1520 1840 c-23 -3 -31 -8 -22 -13 6 -5 16 -5 22 -2 5 3 12 -5 15
-18 9 -32 -9 -123 -23 -120 -6 2 -15 -5 -20 -15 -12 -23 -24 -101 -13 -84 6
10 10 7 13 -12 3 -14 1 -23 -3 -20 -5 3 -9 -9 -9 -26 0 -26 -3 -30 -19 -25
-11 3 -22 1 -26 -5 -3 -5 0 -10 8 -10 8 0 20 -7 27 -15 10 -13 15 -9 32 23 13
25 17 47 13 67 -11 53 -8 73 14 102 12 15 21 39 20 53 -1 14 1 47 6 73 4 26 6
49 4 50 -2 2 -20 0 -39 -3z"/>
<path d="M508 1813 c-27 -4 -28 -7 -28 -58 0 -38 4 -54 15 -59 8 -3 15 -1 15
4 0 17 26 11 45 -10 20 -22 50 -26 61 -9 5 8 -1 10 -18 6 -20 -5 -27 -2 -36
17 -11 25 -5 40 18 48 10 3 8 6 -8 10 -12 4 -20 2 -16 -3 9 -15 -8 -10 -27 7
-17 15 -18 15 -16 -11 1 -15 -3 -30 -9 -32 -7 -2 -11 11 -10 37 1 34 4 40 18
36 10 -2 20 0 23 5 3 4 18 4 33 -2 15 -6 23 -6 17 -1 -14 14 -45 19 -77 15z"/>
<path d="M1673 1647 c-1 -77 -1 -138 1 -136 6 7 16 113 16 180 l0 66 30 1 c16
0 37 6 47 11 15 9 13 10 -9 5 -15 -3 -40 -2 -55 3 l-28 10 -2 -140z"/>
<path d="M705 1728 c-4 -13 -17 -34 -29 -47 l-21 -24 22 14 c17 10 25 11 34 2
19 -19 2 -46 -26 -41 -19 4 -25 1 -23 -11 2 -10 -6 -17 -22 -19 -20 -3 -22 -1
-12 10 10 12 6 15 -19 15 -17 0 -34 4 -37 10 -7 10 -46 33 -55 33 -3 0 -3 -8
0 -17 2 -10 22 -26 44 -36 22 -11 46 -26 54 -34 13 -13 18 -13 32 -1 9 7 24
12 33 10 9 -1 22 4 29 12 6 7 21 12 31 9 25 -7 25 -2 2 39 -10 18 -19 46 -20
62 -3 38 -8 43 -17 14z"/>
<path d="M1931 1698 c-1 -23 -4 -45 -7 -50 -6 -10 6 -78 15 -78 6 0 6 159 -1
166 -2 2 -5 -15 -7 -38z"/>
<path d="M2886 1725 c-5 -13 0 -16 19 -13 32 4 38 22 9 26 -13 2 -24 -4 -28
-13z"/>
<path d="M2558 1709 c13 -5 21 -12 19 -16 -3 -5 11 -9 32 -10 l36 -2 -24 20
c-17 14 -26 16 -31 8 -6 -8 -9 -8 -14 0 -4 6 -15 11 -24 10 -12 0 -10 -3 6
-10z"/>
<path d="M1609 1660 c-4 -30 -5 -57 -3 -59 10 -11 15 12 12 60 l-3 54 -6 -55z"/>
<path d="M2700 1698 c-24 -9 -24 -10 -6 -24 27 -20 46 -18 46 5 0 26 -10 31
-40 19z"/>
<path d="M2527 1669 c-10 -18 -15 -34 -13 -37 9 -8 36 19 30 30 -3 5 0 15 6
23 7 8 9 15 4 15 -5 0 -17 -14 -27 -31z"/>
<path d="M2129 1682 c-1 -4 -1 -14 0 -24 2 -19 -15 -33 -24 -19 -3 6 -12 8
-20 4 -8 -3 -15 0 -15 7 0 6 -5 8 -10 5 -6 -4 -17 -2 -25 5 -18 15 -36 -17
-28 -50 4 -16 3 -21 -6 -16 -6 4 -9 11 -6 16 3 5 2 11 -3 14 -4 2 -7 -50 -6
-117 2 -102 6 -130 25 -172 l22 -50 13 44 c10 34 10 56 2 95 -6 28 -14 74 -19
101 -7 45 -7 43 -4 -20 2 -38 7 -90 10 -115 l6 -45 -20 23 c-22 25 -22 37 -6
227 4 53 10 56 53 29 19 -13 22 -21 16 -49 -5 -28 -3 -35 10 -35 10 0 16 -9
16 -25 0 -17 5 -25 18 -25 10 0 32 -16 50 -36 27 -30 34 -34 52 -24 16 9 25 8
36 -1 11 -9 18 -8 34 6 15 13 28 16 57 10 21 -4 45 -13 53 -20 8 -7 60 -27
115 -45 55 -17 115 -40 133 -50 29 -17 32 -18 32 -3 0 9 5 31 12 49 13 37 52
53 87 35 12 -6 30 -16 41 -21 12 -6 20 -6 20 -1 0 5 -21 17 -47 27 -27 9 -52
21 -57 25 -5 5 -15 1 -21 -8 -11 -14 -16 -15 -44 -3 -37 15 -41 12 -30 -15 4
-11 8 -14 8 -7 1 6 8 12 17 12 9 0 12 -5 8 -12 -4 -7 -3 -8 4 -4 16 10 14 -4
-4 -34 l-15 -25 6 25 6 25 -20 -25 c-11 -14 -21 -20 -21 -13 0 6 -12 13 -27
15 -21 2 -27 8 -25 23 2 18 1 18 -8 3 -12 -19 -54 -13 -46 7 5 15 -26 15 -36
0 -5 -6 -8 -4 -8 5 0 24 29 60 48 60 15 1 14 2 -2 12 -16 9 -23 7 -38 -12 -10
-12 -18 -31 -18 -41 0 -10 -5 -19 -11 -19 -15 0 -2 49 19 75 17 19 16 19 -8 3
-14 -8 -28 -28 -31 -44 -6 -28 -7 -28 -8 7 0 19 5 41 12 49 10 12 9 12 -5 1
-10 -7 -18 -24 -18 -37 0 -13 -4 -24 -10 -24 -16 0 -12 47 6 65 9 9 13 19 9
23 -10 10 -45 -36 -46 -62 0 -11 -3 -15 -6 -8 -2 6 -22 15 -43 18 -25 4 -42
14 -49 28 -10 20 -11 19 -5 -4 4 -14 11 -28 16 -31 7 -4 7 -9 0 -13 -5 -3 -17
6 -27 20 -9 14 -19 23 -22 20 -4 -3 2 -15 12 -26 24 -26 11 -39 -15 -15 -15
14 -23 16 -32 7 -9 -9 -15 -9 -25 0 -11 9 -11 14 2 28 11 12 13 20 6 25 -6 3
-11 1 -11 -4 0 -6 -6 -11 -14 -11 -21 0 -66 40 -66 59 0 16 5 16 53 -7 28 -14
54 -29 57 -33 3 -5 24 1 45 12 46 24 71 46 40 35 -11 -5 -27 -10 -35 -13 -8
-4 1 11 20 32 19 22 41 45 48 53 16 18 15 22 -5 22 -11 -1 -33 -24 -53 -55
-18 -30 -41 -57 -50 -60 -19 -6 -60 10 -103 39 l-28 19 31 25 c16 14 30 31 30
37 0 14 -29 29 -31 17z"/>
<path d="M870 1613 c-19 -36 -45 -75 -57 -87 -21 -19 -31 -46 -18 -46 34 0
123 89 98 97 -7 3 -7 18 3 50 8 26 13 47 11 49 -1 1 -18 -27 -37 -63z"/>
<path d="M1828 1659 c0 -13 -1 -31 0 -39 0 -8 -6 -51 -13 -95 -8 -44 -15 -109
-16 -145 -1 -36 -6 -73 -10 -82 -5 -9 -10 -35 -11 -58 -1 -22 -7 -45 -15 -51
-15 -13 -17 -29 -5 -29 9 0 36 49 47 84 5 18 7 18 30 -4 32 -30 38 -23 18 20
-21 45 -20 43 -33 35 -9 -6 -9 -10 1 -16 10 -6 10 -9 2 -9 -16 0 -28 21 -16
29 5 3 9 35 10 70 1 35 7 117 14 183 6 65 9 121 5 125 -3 3 -7 -5 -8 -18z"/>
<path d="M2813 1645 c-3 -9 -2 -19 1 -23 8 -8 38 10 44 26 6 18 -38 14 -45 -3z"/>
<path d="M2560 1631 c-6 -12 -17 -21 -25 -21 -8 0 -24 -9 -36 -21 -11 -11 -27
-18 -35 -15 -16 6 -29 -17 -19 -34 4 -7 18 1 38 20 17 16 38 30 47 30 9 0 20
4 26 9 5 5 20 11 33 13 l23 3 -20 18 c-20 18 -21 18 -32 -2z"/>
<path d="M1011 1607 c-1 -26 -5 -37 -13 -34 -7 2 -12 12 -12 21 3 35 -14 13
-19 -25 -7 -56 -27 -75 -27 -27 0 47 -16 57 -24 17 -10 -50 -7 -117 5 -125 14
-8 24 7 46 69 10 26 21 47 25 47 10 0 10 -1 -7 -95 -8 -44 -14 -91 -15 -104 0
-22 1 -23 18 -9 9 9 23 17 30 19 10 3 8 11 -8 28 -13 16 -17 28 -11 34 5 5 7
23 5 41 -5 35 27 83 47 70 8 -5 9 -3 4 6 -6 10 -3 12 11 7 18 -7 18 -6 2 7
-25 18 -22 29 3 16 25 -14 65 -6 72 14 4 10 1 13 -9 9 -7 -3 -14 -8 -14 -13 0
-4 -21 -2 -47 5 -36 9 -49 18 -54 36 -6 19 -7 17 -8 -14z"/>
<path d="M2688 1623 c-9 -2 -18 -14 -20 -26 -2 -12 -12 -23 -23 -26 -20 -3
-35 -18 -35 -34 0 -5 6 -7 13 -4 6 2 11 9 10 15 -2 6 3 9 11 6 14 -5 46 20 46
38 0 6 12 7 30 3 31 -7 39 2 18 23 -12 12 -20 13 -50 5z"/>
<path d="M1204 1598 c-3 -5 -14 -6 -24 -3 -14 4 -16 1 -13 -19 l5 -24 43 21
c23 12 40 24 38 26 -7 9 -44 8 -49 -1z"/>
<path d="M1252 1567 c-16 -20 -40 -80 -48 -117 l-6 -35 21 19 c14 13 18 23 11
31 -6 7 -1 23 16 47 23 33 30 36 60 31 27 -5 34 -2 34 11 0 13 -5 16 -20 11
-10 -3 -28 -1 -39 4 -14 8 -22 7 -29 -2z"/>
<path d="M1357 1544 c-13 -14 -7 -26 7 -15 8 7 15 8 18 2 4 -13 58 -26 58 -13
0 5 -11 13 -24 16 -13 3 -30 8 -38 11 -8 3 -17 2 -21 -1z"/>
<path d="M2480 1524 c0 -5 103 -34 107 -30 2 2 1 10 -2 18 -5 11 -21 16 -56
16 -27 0 -49 -2 -49 -4z"/>
<path d="M1931 1442 c-1 -40 -9 -96 -18 -125 -12 -37 -13 -52 -5 -55 8 -2 6
-9 -6 -20 -10 -10 -12 -13 -4 -8 9 7 16 5 23 -5 6 -9 9 4 9 41 1 72 17 47 24
-37 5 -64 28 -133 45 -133 17 0 13 46 -4 60 -13 11 -15 29 -9 107 4 61 3 93
-4 93 -5 0 -12 -7 -16 -15 -3 -8 -2 -15 2 -15 4 0 8 -19 9 -43 l2 -42 -15 40
c-8 22 -15 69 -15 105 0 36 -4 79 -8 95 -8 24 -9 16 -10 -43z"/>
<path d="M1652 1398 c-6 -57 -14 -121 -18 -143 -6 -36 -5 -38 10 -26 8 7 13
18 10 23 -4 6 2 7 17 3 22 -7 23 -6 10 9 -11 13 -14 45 -13 127 0 60 0 109 -2
109 -2 0 -8 -46 -14 -102z"/>
<path d="M1110 1419 c0 -15 44 -89 53 -89 11 0 9 3 -19 54 -26 46 -34 55 -34
35z"/>
<path d="M1046 1389 c-4 -9 -8 -54 -9 -100 -2 -69 1 -91 19 -126 19 -36 20
-44 8 -54 -23 -19 -16 -24 33 -24 42 0 49 -3 61 -27 7 -16 18 -28 23 -28 20 0
-5 -23 -45 -41 l-41 -18 57 2 c32 1 58 5 58 10 0 4 -7 7 -15 7 -16 0 -20 15
-7 24 5 3 22 -8 37 -24 16 -17 31 -30 35 -30 3 0 -20 27 -52 60 -32 32 -58 67
-58 75 0 13 -7 15 -32 10 l-33 -6 25 15 c36 22 47 20 59 -14 13 -38 16 -38 16
3 0 30 2 32 40 34 22 1 46 2 53 2 21 2 13 19 -13 25 -14 4 -40 0 -59 -8 -44
-18 -131 -19 -115 0 7 9 6 20 -6 38 -9 14 -15 40 -14 58 2 18 -1 40 -5 47 -6
10 -5 12 2 7 7 -4 12 -6 12 -4 -1 2 -7 26 -14 53 -9 34 -16 45 -20 34z"/>
<path d="M1364 1388 c-5 -8 -22 -23 -37 -33 -15 -10 -35 -32 -44 -49 l-16 -31
24 21 c13 12 38 29 56 38 39 20 47 31 35 52 -8 15 -11 15 -18 2z"/>
<path d="M1211 1354 c-7 -19 -21 -40 -32 -47 -10 -6 -19 -18 -19 -26 0 -10 9
-6 28 12 33 32 42 34 42 8 0 -10 7 -25 16 -32 15 -12 16 -11 11 6 -3 11 -9 39
-12 62 -9 55 -18 60 -34 17z"/>
<path d="M2393 1355 c-9 -20 -8 -25 2 -25 17 0 38 27 30 40 -10 16 -19 12 -32
-15z"/>
<path d="M1741 1327 c0 -10 -5 -16 -10 -13 -5 4 -4 -7 2 -23 6 -17 14 -28 18
-26 10 7 18 45 9 45 -5 0 -11 8 -13 18 -4 16 -5 16 -6 -1z"/>
<path d="M1477 1317 c-3 -9 -3 -62 0 -117 6 -95 5 -102 -17 -125 -20 -22 -22
-27 -10 -55 7 -16 13 -41 13 -55 0 -14 3 -28 8 -31 5 -3 6 3 2 12 -4 11 -2 15
4 11 23 -14 21 22 -3 54 -29 40 -31 51 -4 21 12 -12 22 -22 23 -22 1 0 3 15 3
33 1 17 4 68 6 112 4 83 -13 194 -25 162z"/>
<path d="M2863 1287 c-30 -50 -29 -63 3 -34 17 16 25 32 22 48 -3 22 -5 21
-25 -14z"/>
<path d="M2670 1290 c0 -13 44 -41 72 -45 13 -2 34 -7 47 -11 17 -5 22 -4 17
4 -5 8 -2 10 8 6 9 -3 16 -2 16 4 0 5 -15 13 -32 16 -18 3 -44 8 -57 11 -14 2
-29 9 -35 15 -13 13 -36 13 -36 0z"/>
<path d="M1543 1277 c4 -10 7 -27 7 -37 0 -25 59 -55 74 -39 8 9 8 10 -1 5
-18 -10 -65 24 -59 41 3 8 -2 22 -11 31 -16 16 -16 16 -10 -1z"/>
<path d="M1121 1256 c-7 -16 -11 -36 -9 -43 3 -12 6 -12 22 0 16 11 17 19 9
43 l-11 29 -11 -29z"/>
<path d="M1700 1261 c0 -16 22 -71 28 -71 4 0 14 5 22 10 11 7 11 10 2 10 -7
0 -18 14 -23 30 -10 27 -29 42 -29 21z"/>
<path d="M118 1198 c-9 -35 -13 -67 -8 -71 4 -5 25 -7 46 -4 l39 4 -43 1 c-40
2 -43 4 -37 25 14 46 35 67 66 67 17 0 28 4 24 9 -3 5 -18 8 -33 7 -16 -2 -29
2 -32 10 -3 8 -13 -14 -22 -48z"/>
<path d="M383 1251 c-69 -12 -64 -23 6 -15 51 5 62 4 56 -6 -5 -9 -4 -11 4 -6
9 6 9 11 0 22 -6 8 -14 13 -18 13 -3 -1 -25 -5 -48 -8z"/>
<path d="M1422 1247 c-6 -7 -16 -35 -23 -62 -7 -28 -19 -60 -27 -73 -12 -19
-12 -30 -2 -66 11 -40 10 -48 -14 -98 -39 -83 -31 -103 10 -23 30 58 35 77 30
111 -4 30 2 63 20 115 37 110 37 109 26 109 -5 0 -14 -6 -20 -13z"/>
<path d="M1136 1183 c-4 -10 -4 -14 0 -11 4 4 15 3 25 -2 11 -6 20 -7 24 -1 3
6 -3 15 -14 20 -26 14 -28 14 -35 -6z"/>
<path d="M1890 1121 c-19 -42 -48 -91 -65 -111 l-30 -35 30 23 c41 33 93 109
101 148 11 60 -1 52 -36 -25z"/>
<path d="M760 1043 c-26 -86 -37 -158 -21 -133 6 8 13 33 16 55 4 22 13 64 21
94 24 84 10 70 -16 -16z"/>
<path d="M1059 1064 c-7 -9 -12 -31 -12 -50 1 -19 -4 -34 -10 -34 -7 0 1 -12
16 -26 l29 -26 -31 -29 c-33 -30 -38 -53 -20 -93 14 -29 8 -41 -65 -126 -50
-58 -58 -81 -26 -73 15 4 20 14 20 37 0 21 3 27 9 18 6 -11 14 -8 35 12 14 15
25 30 25 34 -3 20 2 32 12 26 8 -4 7 -9 -2 -15 -10 -6 -8 -8 8 -6 12 2 26 7
30 12 5 4 2 5 -5 1 -19 -11 -27 23 -9 41 14 14 14 18 -6 35 l-22 19 23 -11
c25 -12 27 -8 11 21 -6 13 -7 25 -1 32 5 7 12 24 15 38 4 14 17 31 29 37 23
11 23 11 -3 11 -35 1 -43 33 -19 76 15 27 16 33 4 28 -10 -4 -12 0 -8 11 8 21
-10 21 -27 0z"/>
<path d="M2305 1070 c17 -4 50 -17 75 -29 29 -13 63 -20 95 -19 l50 1 -50 6
c-27 4 -72 17 -99 29 -27 12 -60 22 -75 21 -25 -1 -25 -1 4 -9z"/>
<path d="M2771 1005 c-7 -44 -14 -106 -13 -137 0 -32 -3 -58 -7 -58 -4 0 -49
13 -101 30 -108 34 -229 99 -318 171 -74 59 -90 63 -37 9 21 -22 43 -40 48
-40 8 0 89 -52 114 -75 36 -30 43 -35 58 -35 9 0 14 -4 11 -8 -2 -4 0 -14 5
-22 7 -13 10 -13 18 -1 22 34 70 -17 72 -77 1 -20 4 -15 13 20 l11 46 40 -14
c22 -7 48 -14 57 -14 22 0 38 30 38 72 0 18 3 47 8 63 4 17 5 57 2 90 l-5 60
-14 -80z"/>
<path d="M2520 977 c0 -14 55 -38 73 -31 17 6 40 44 27 44 -5 0 -10 -5 -10
-11 0 -5 -4 -7 -10 -4 -5 3 -10 -1 -10 -9 0 -22 -17 -20 -37 4 -20 23 -33 26
-33 7z"/>
<path d="M1780 943 c-8 -15 -14 -32 -15 -38 0 -5 -7 -16 -15 -23 -13 -10 -10
-11 14 -6 22 5 27 4 21 -6 -5 -9 -4 -11 3 -6 16 10 26 71 15 91 -8 14 -11 12
-23 -12z"/>
<path d="M1420 908 c0 -31 15 -52 30 -43 7 4 16 2 20 -5 5 -8 9 -7 13 4 4 9 2
16 -3 16 -6 0 -10 9 -10 19 0 34 -19 33 -23 -1 l-4 -33 -1 33 c-2 36 -22 45
-22 10z"/>
<path d="M2650 877 c0 -15 48 -38 55 -27 3 5 -8 15 -25 23 -21 11 -30 12 -30
4z"/>
<path d="M1493 847 c-7 -11 17 -28 32 -24 6 2 11 10 13 18 3 16 -36 21 -45 6z"/>
<path d="M1699 835 c-8 -8 -32 -23 -54 -34 -28 -14 -34 -20 -20 -21 20 -1 20
-1 1 -15 -11 -8 -15 -15 -9 -15 7 0 15 5 18 10 3 6 16 10 28 10 18 0 19 2 7
10 -13 9 -13 11 0 19 34 21 55 40 49 45 -3 3 -12 -1 -20 -9z"/>
<path d="M1138 803 c-16 -4 -16 -6 -4 -19 8 -8 20 -14 26 -14 6 0 8 -5 5 -10
-4 -6 -10 -8 -14 -6 -11 7 -61 -74 -61 -98 0 -16 6 -11 26 19 15 22 38 52 51
66 21 23 22 27 8 33 -10 3 -15 12 -11 21 6 15 4 16 -26 8z"/>
<path d="M1738 796 c-10 -7 -15 -16 -12 -19 3 -3 -3 -3 -15 0 -12 3 -21 1 -21
-6 0 -6 7 -11 15 -11 8 0 15 -4 15 -10 0 -6 10 -5 25 2 13 6 22 15 19 20 -3 4
2 11 10 14 9 3 16 10 16 15 0 13 -32 10 -52 -5z"/>
<path d="M1201 782 c57 -44 89 -63 89 -54 0 6 -21 24 -47 41 -50 33 -81 43
-42 13z"/>
<path d="M1700 701 c-7 -17 -18 -36 -26 -42 -8 -6 -14 -16 -14 -21 0 -5 14 6
30 24 30 32 31 32 36 11 4 -13 10 -23 15 -23 17 0 9 -50 -11 -70 -21 -21 -11
-27 20 -10 42 23 43 46 4 102 -20 29 -37 54 -39 56 -1 1 -8 -11 -15 -27z"/>
<path d="M1770 714 c0 -14 42 -95 47 -90 7 7 -30 96 -39 96 -5 0 -8 -2 -8 -6z"/>
<path d="M1318 699 c-3 -8 -1 -23 5 -33 15 -29 18 -109 4 -118 -7 -4 -39 -8
-73 -8 -33 0 -83 -7 -110 -15 -33 -10 -67 -13 -104 -9 -63 7 -88 18 -113 48
-13 16 -16 17 -11 3 5 -13 2 -16 -9 -11 -9 3 -25 1 -36 -6 -23 -12 -28 -1 -9
18 9 9 9 12 -1 12 -8 0 -19 -7 -25 -16 -6 -8 -19 -16 -28 -18 -37 -5 -70 -56
-37 -56 6 0 8 4 4 9 -3 5 0 13 6 17 17 10 59 14 59 4 0 -24 -71 -46 -100 -30
-12 7 -21 7 -25 0 -3 -5 -1 -10 4 -10 6 0 11 -5 11 -11 0 -5 -6 -7 -12 -3 -8
5 -7 0 2 -11 14 -17 13 -18 -4 -12 -12 5 -23 1 -33 -10 -13 -17 -14 -17 -8 4
4 16 -2 26 -24 42 -36 26 -43 26 -66 1 -10 -11 -13 -20 -7 -20 23 0 11 -18
-15 -23 -16 -3 -37 -12 -48 -20 -19 -14 -18 -15 8 -10 15 3 27 8 27 12 0 4 10
8 22 8 13 1 24 7 26 13 2 5 12 10 22 10 10 0 20 6 23 13 3 9 7 9 17 0 10 -9 5
-16 -24 -30 -30 -14 -34 -18 -19 -24 14 -5 10 -9 -20 -24 -38 -18 -70 -52 -61
-66 2 -4 -18 -37 -46 -74 -27 -36 -50 -71 -50 -78 1 -14 66 58 111 121 16 23
36 42 44 42 20 0 39 37 22 43 -12 5 108 67 130 67 7 0 10 7 7 18 -5 16 -5 16
6 -1 9 -14 15 -15 33 -6 12 7 26 18 30 25 4 8 15 14 22 14 8 0 15 8 15 19 0
29 35 31 84 5 33 -18 61 -24 105 -24 57 0 250 32 271 45 20 13 9 -14 -12 -29
-12 -9 -18 -16 -12 -16 5 0 16 6 23 13 10 10 17 7 35 -13 38 -42 129 -115 118
-93 -6 11 -26 31 -44 45 -64 49 -86 74 -78 89 12 24 21 167 10 174 -6 3 -10
-4 -10 -17 l-1 -23 -13 24 c-10 17 -15 20 -18 10z m-708 -337 c0 -5 -17 -16
-37 -25 l-38 -17 30 25 c31 26 45 31 45 17z"/>
<path d="M1421 623 c-1 -39 3 -63 10 -63 6 0 8 -8 5 -17 -3 -10 3 -29 14 -43
l20 -25 0 28 c0 16 -4 26 -9 23 -18 -12 -18 42 1 55 25 19 22 47 -7 61 -13 6
-26 18 -28 27 -3 9 -5 -12 -6 -46z"/>
<path d="M1261 644 c15 -16 31 -38 37 -49 6 -11 12 -15 12 -9 0 17 -43 77 -60
82 -9 3 -4 -8 11 -24z"/>
<path d="M1008 602 c-3 -11 -1 -25 5 -31 14 -14 67 -14 67 -1 0 9 -22 14 -36
8 -3 -2 -11 8 -18 21 -13 23 -13 23 -18 3z"/>
<path d="M1170 585 l-24 -26 36 16 c20 8 45 12 55 9 15 -6 15 -4 -2 9 -27 22
-38 21 -65 -8z"/>
<path d="M1694 543 c4 -6 -2 -17 -11 -23 -16 -10 -16 -10 2 -5 19 5 21 0 23
-57 2 -51 -1 -65 -19 -85 -13 -12 -18 -23 -13 -23 5 0 2 -5 -6 -10 -13 -8 -12
-10 3 -10 51 0 78 149 36 200 -11 14 -18 20 -15 13z"/>
<path d="M255 490 c-22 -24 -11 -27 13 -3 16 16 17 14 23 -23 l7 -39 -2 39
c-1 46 -15 55 -41 26z"/>
<path d="M151 478 c-26 -42 -42 -100 -30 -114 6 -7 17 -10 25 -7 21 8 17 23
-5 23 -19 0 -19 2 5 56 26 58 28 79 5 42z"/>
<path d="M831 450 c-16 -14 -37 -30 -48 -37 -17 -11 -17 -12 0 -12 10 -1 16
-5 13 -9 -3 -5 2 -9 10 -9 10 0 11 4 4 11 -15 15 -12 26 7 19 11 -4 14 -3 9 5
-7 11 50 18 109 14 15 -2 17 0 6 7 -7 5 -10 14 -7 20 4 6 2 12 -3 12 -51 6
-74 1 -100 -21z m81 -2 c-6 -6 -22 -7 -39 -3 l-28 8 30 7 c35 8 51 2 37 -12z"/>
<path d="M1313 457 c15 -6 27 -14 27 -19 0 -4 7 -8 15 -8 8 0 23 -10 35 -22
21 -23 28 -13 7 12 -22 28 -61 50 -87 49 l-25 -1 28 -11z"/>
<path d="M2500 461 c0 -5 -9 -11 -21 -14 -12 -3 -18 -10 -15 -15 3 -6 0 -12
-6 -15 -10 -4 -10 -7 0 -18 7 -8 12 -9 10 -4 -2 6 7 21 20 35 21 22 28 40 17
40 -3 0 -5 -4 -5 -9z"/>
<path d="M464 445 c-3 -8 -2 -20 2 -27 5 -7 9 -16 9 -20 0 -18 15 -18 15 0 0
11 -4 23 -10 27 -5 3 -7 12 -3 20 3 8 2 15 -1 15 -4 0 -9 -7 -12 -15z"/>
<path d="M1148 410 c-30 -28 -30 -30 -5 -14 15 9 46 20 67 24 36 7 40 5 40
-13 0 -15 -3 -17 -14 -8 -9 8 -21 8 -37 2 -23 -9 -23 -10 7 -10 32 -1 70 -31
57 -46 -5 -4 2 -2 15 4 19 10 27 10 45 -4 12 -8 37 -25 55 -36 18 -12 37 -30
43 -41 6 -11 13 -17 16 -15 19 20 -122 132 -151 121 -8 -3 -16 8 -22 28 -8 28
-15 33 -46 36 -30 3 -42 -3 -70 -28z"/>
<path d="M360 421 c-20 -14 -3 -28 18 -15 23 15 42 7 35 -14 -6 -15 -5 -15 11
-3 9 8 13 18 9 22 -14 14 -58 19 -73 10z"/>
<path d="M705 400 c-3 -6 1 -7 9 -4 17 7 22 -11 6 -21 -5 -3 -10 -10 -10 -15
0 -6 9 -2 20 7 11 10 20 23 20 30 0 15 -36 18 -45 3z"/>
<path d="M348 379 c-10 -5 -18 -14 -18 -19 0 -12 30 -1 48 17 11 11 11 13 0
13 -7 0 -21 -5 -30 -11z"/>
<path d="M474 362 c4 -6 -2 -25 -13 -41 -27 -37 -27 -49 -1 -26 11 10 18 20
15 23 -3 3 0 11 7 19 8 11 8 17 -2 26 -10 9 -11 9 -6 -1z"/>
<path d="M906 333 c-36 -39 -22 -43 17 -5 17 18 26 32 20 32 -7 0 -23 -12 -37
-27z"/>
<path d="M1885 350 c-4 -6 -16 -8 -28 -4 -17 5 -19 4 -10 -6 12 -13 73 -5 73
11 0 12 -27 11 -35 -1z"/>
<path d="M930 315 c-12 -13 -32 -25 -44 -27 -16 -2 -18 -5 -6 -9 17 -7 90 45
79 55 -3 3 -16 -5 -29 -19z"/>
<path d="M1780 329 c-24 -8 -24 -8 5 -7 46 0 48 -1 35 -17 -7 -8 -8 -15 -2
-15 19 0 32 26 20 38 -13 13 -22 14 -58 1z"/>
<path d="M1883 312 c-22 -17 -22 -17 34 -20 58 -3 73 -7 73 -21 0 -4 -15 -6
-32 -4 l-33 4 34 -16 c18 -8 63 -19 100 -25 154 -23 247 -43 261 -57 13 -14
12 -15 -12 -9 -15 3 -30 2 -33 -4 -8 -13 18 -13 86 1 50 10 64 8 147 -17 50
-15 89 -31 87 -35 -3 -4 2 -12 10 -19 9 -8 15 -8 15 -2 0 6 -6 13 -12 15 -36
15 18 4 90 -17 61 -19 88 -22 109 -15 l28 9 -29 -4 c-43 -6 -97 20 -89 42 6
15 5 15 -10 4 -15 -13 -43 -12 -99 4 -16 5 -16 7 -2 30 18 27 4 33 -17 8 -14
-17 -27 -16 -133 14 -51 15 -76 18 -94 11 -17 -6 -29 -6 -36 1 -5 5 -19 10
-29 10 -11 0 -21 9 -24 20 -4 15 -9 18 -18 10 -11 -9 -45 -7 -200 15 -18 2
-50 21 -75 45 -48 44 -64 48 -97 22z"/>
<path d="M2710 320 c0 -5 -11 -10 -24 -10 -14 0 -28 -5 -31 -10 -4 -6 -11 -8
-16 -4 -12 7 -43 -17 -32 -25 5 -3 20 -22 34 -41 22 -30 33 -35 70 -37 35 -2
40 -1 26 8 -9 5 -21 7 -27 4 -5 -3 -24 8 -42 24 -27 25 -31 33 -22 48 14 24
54 30 54 9 0 -9 -6 -16 -12 -16 -7 0 0 -12 16 -26 15 -14 30 -23 32 -21 2 2
-3 21 -11 41 -12 29 -13 41 -4 52 8 10 8 14 0 14 -6 0 -11 -4 -11 -10z"/>
<path d="M326 312 c-3 -5 2 -13 11 -16 15 -6 15 -9 3 -16 -8 -5 -21 -5 -31 1
-23 12 -39 12 -39 -1 0 -5 7 -10 15 -10 8 0 15 -6 15 -12 0 -9 3 -8 10 2 8 12
10 12 15 -2 5 -14 10 -15 20 -5 14 13 14 24 -2 51 -6 11 -13 14 -17 8z"/>
<path d="M1704 306 c-3 -9 1 -27 10 -41 12 -18 13 -25 4 -25 -14 0 34 -31 67
-44 22 -8 25 -12 -38 53 -9 10 -16 28 -15 41 3 27 -19 39 -28 16z"/>
<path d="M2760 288 c0 -15 5 -39 12 -55 10 -25 12 -26 15 -8 2 12 -3 36 -11
55 -15 34 -15 34 -16 8z"/>
<path d="M48 262 c-11 -13 -10 -14 14 -9 17 5 28 3 31 -6 4 -7 6 -6 6 4 1 23
-35 31 -51 11z"/>
<path d="M188 259 c-21 -13 -5 -17 37 -10 l40 7 -32 5 c-18 3 -38 2 -45 -2z"/>
<path d="M1786 261 c-6 -10 28 -28 83 -46 12 -4 20 -9 17 -12 -3 -3 13 -16 36
-28 22 -12 49 -37 60 -56 19 -33 19 -33 15 -6 -3 20 -1 27 9 23 34 -13 84 -18
84 -7 0 6 -7 8 -15 5 -23 -9 -38 5 -24 22 11 13 9 13 -14 3 -20 -9 -33 -9 -49
-1 -22 10 -22 11 6 11 16 1 26 4 23 8 -4 3 -20 6 -37 5 -16 0 -30 3 -30 8 0 4
-10 11 -22 15 -22 7 -21 8 7 13 26 4 27 5 10 12 -11 4 -31 3 -44 -2 -19 -7
-28 -4 -43 12 -10 11 -23 20 -28 20 -4 0 -15 3 -23 6 -8 3 -18 1 -21 -5z"/>
<path d="M628 230 c-9 -17 -14 -30 -10 -30 10 0 39 20 29 20 -4 0 -3 9 3 20
17 32 -3 23 -22 -10z"/>
<path d="M786 223 c-5 -11 -10 -13 -14 -7 -4 7 -16 0 -31 -19 -23 -28 -23 -29
-3 -16 12 8 22 17 22 22 0 4 4 6 9 3 4 -3 16 1 26 8 11 8 14 15 8 19 -6 4 -14
-1 -17 -10z"/>
<path d="M1050 209 c-14 -11 -38 -27 -55 -34 -25 -12 -26 -14 -9 -15 19 0 104
53 104 65 0 10 -16 4 -40 -16z"/>
<path d="M2426 217 c-13 -10 -9 -12 29 -13 42 -1 55 2 30 6 -5 1 -17 6 -26 11
-10 5 -22 4 -33 -4z"/>
<path d="M2850 214 c0 -11 7 -13 28 -8 43 10 47 22 8 22 -24 0 -36 -5 -36 -14z"/>
<path d="M1802 142 c31 -16 64 -35 73 -42 14 -12 18 -12 26 1 14 22 11 26 -17
23 -14 -1 -40 6 -57 16 -18 10 -43 21 -57 24 -14 4 1 -6 32 -22z"/>
<path d="M2117 144 c3 -8 0 -14 -6 -14 -6 0 -11 -4 -11 -9 0 -5 25 -8 55 -5
56 4 67 -3 40 -26 -8 -7 -15 -17 -15 -23 0 -6 10 -1 23 11 25 24 52 27 92 12
15 -6 24 -6 20 -1 -9 15 12 23 76 28 48 4 66 1 95 -16 19 -12 32 -17 29 -11
-10 16 13 12 43 -7 27 -17 27 -17 10 3 -10 11 -42 28 -73 38 -48 15 -67 16
-161 5 -59 -6 -109 -7 -113 -3 -3 5 -13 10 -21 11 -8 1 -32 6 -52 11 -29 8
-35 7 -31 -4z"/>
<path d="M133 3 c75 -2 199 -2 275 0 75 1 13 3 -138 3 -151 0 -213 -2 -137 -3z"/>
<path d="M818 3 c139 -2 364 -2 500 0 136 1 22 2 -253 2 -275 0 -386 -1 -247
-2z"/>
</g>
</svg>
