<?xml version="1.0" standalone="no"?>
<!DOCTYPE svg PUBLIC "-//W3C//DTD SVG 20010904//EN"
 "http://www.w3.org/TR/2001/REC-SVG-20010904/DTD/svg10.dtd">
<svg version="1.0" xmlns="http://www.w3.org/2000/svg"
 width="300.000000pt" height="369.000000pt" viewBox="0 0 300.000000 369.000000"
 preserveAspectRatio="xMidYMid meet">
<metadata>
Created by potrace 1.10, written by Peter Selinger 2001-2011
</metadata>
<g transform="translate(0.000000,369.000000) scale(0.100000,-0.100000)"
fill="#000000" stroke="none">
<path d="M130 3680 c132 -5 134 -5 105 -21 -16 -9 -45 -20 -62 -24 -18 -3 -35
-10 -38 -15 -7 -11 67 0 80 11 5 5 18 9 28 9 10 0 21 9 24 20 5 20 16 20 1127
23 l1121 2 -1260 0 c-693 1 -1199 -2 -1125 -5z"/>
<path d="M2683 3683 c37 -2 96 -2 130 0 34 2 4 3 -68 3 -71 0 -99 -1 -62 -3z"/>
<path d="M2990 1940 l0 -1750 -42 -1 c-24 0 -36 -3 -28 -6 29 -11 65 -45 72
-66 5 -18 6 -17 7 9 1 24 -5 33 -26 42 l-28 12 28 -4 27 -3 0 1758 c0 968 -2
1759 -5 1759 -3 0 -5 -787 -5 -1750z"/>
<path d="M313 3625 c-23 -25 -40 -35 -61 -35 -17 0 -32 -6 -35 -15 -4 -8 -21
-18 -39 -24 -23 -6 -26 -9 -12 -10 29 -1 121 37 161 67 26 19 35 21 53 12 12
-6 38 -8 63 -5 33 5 46 3 56 -9 8 -9 28 -16 47 -16 26 0 42 -10 77 -45 25 -25
51 -45 58 -44 8 0 4 5 -8 11 -13 6 -23 16 -23 23 0 7 -9 20 -21 31 -11 10 -18
25 -16 34 4 14 -4 16 -48 12 -46 -4 -53 -2 -58 17 -6 26 -29 27 -69 4 -30 -18
-31 -18 -45 5 -22 31 -44 28 -80 -13z"/>
<path d="M1507 3635 c-58 -16 -113 -50 -129 -78 -6 -11 -11 -53 -12 -92 -1
-44 -6 -78 -14 -88 -7 -9 -12 -28 -9 -44 4 -26 4 -26 6 6 1 25 5 32 16 27 18
-6 19 0 15 106 -2 74 -1 77 27 94 15 10 37 26 48 36 14 11 46 20 95 25 55 5
68 9 50 14 -32 9 -36 9 -93 -6z"/>
<path d="M1524 3598 c-4 -7 -3 -10 1 -5 5 4 17 -5 27 -20 l18 -28 0 28 c0 16
-4 26 -10 22 -5 -3 -10 -1 -10 4 0 15 -17 14 -26 -1z"/>
<path d="M1620 3599 c0 -5 -4 -7 -10 -4 -5 3 -7 0 -4 -9 6 -15 -24 -65 -39
-66 -15 0 -34 25 -30 40 4 11 2 12 -5 2 -6 -9 -11 -6 -20 13 -12 26 -36 33
-47 14 -4 -6 0 -9 11 -7 12 2 18 -2 16 -10 -1 -8 1 -11 6 -8 5 3 14 -6 21 -20
18 -40 12 -41 -20 -4 -29 34 -31 34 -45 16 -8 -11 -14 -14 -14 -7 0 8 -5 9
-17 2 -12 -6 -17 -22 -18 -54 0 -27 4 -43 10 -39 6 4 6 0 0 -9 -12 -16 -13
-174 -2 -204 6 -13 3 -12 -6 4 -19 32 -23 14 -19 -86 3 -74 6 -83 28 -98 l25
-16 -17 33 c-17 32 -17 33 2 18 10 -8 45 -41 76 -73 31 -32 59 -53 62 -48 4 5
1 28 -6 49 -10 34 -14 38 -24 24 -9 -13 -11 -8 -10 26 0 23 -5 47 -13 54 -11
11 -12 6 -7 -30 5 -33 3 -43 -6 -40 -7 3 -14 14 -16 26 -2 15 -8 19 -19 15
-13 -5 -15 -2 -10 11 4 10 7 22 7 28 0 6 6 6 15 -2 10 -9 15 -9 15 -1 0 25 40
51 81 51 67 0 101 -34 68 -67 -13 -13 -5 -43 11 -43 5 0 10 6 10 14 0 8 8 28
17 44 l17 30 -42 41 c-24 23 -47 39 -52 36 -4 -3 -11 1 -13 7 -4 9 -6 9 -6 1
-1 -6 -10 -9 -23 -5 -13 3 -19 1 -15 -5 4 -6 -4 -14 -18 -17 -15 -4 -31 -19
-39 -39 -8 -17 -15 -25 -15 -17 -1 8 -12 42 -26 75 -21 52 -23 70 -18 140 3
44 9 84 14 89 13 14 40 -14 34 -35 -4 -11 -2 -19 5 -19 16 0 24 30 11 43 -14
14 -15 57 0 57 5 0 9 -8 8 -17 -1 -10 -1 -23 0 -30 1 -17 31 -4 31 14 0 11 15
13 72 11 l72 -3 12 -40 12 -40 -1 63 c0 35 -5 66 -11 70 -6 4 -17 19 -25 35
-14 26 -41 38 -41 16z"/>
<path d="M1722 3500 c3 -8 2 -39 -2 -69 -6 -46 -4 -57 13 -74 19 -19 19 -19
11 14 -4 19 -8 55 -9 81 0 25 -4 50 -9 55 -5 4 -7 2 -4 -7z"/>
<path d="M1536 3472 c-5 -15 -1 -30 13 -48 l21 -27 0 49 c0 31 -3 44 -9 35 -7
-11 -9 -11 -13 0 -3 9 -7 6 -12 -9z"/>
<path d="M1510 3417 c0 -7 -10 -17 -22 -22 -13 -6 -23 -14 -23 -20 0 -5 -4
-16 -8 -22 -6 -9 -2 -13 13 -13 12 0 19 -4 15 -9 -9 -15 38 -18 65 -4 14 7 26
9 28 5 1 -4 26 -5 55 -2 39 4 51 9 48 20 -7 32 -9 46 -10 62 -1 17 -2 17 -21
0 -17 -14 -18 -18 -5 -20 26 -6 17 -18 -24 -32 -32 -10 -48 -10 -90 1 -43 11
-48 15 -32 21 18 6 31 48 16 48 -3 0 -5 -6 -5 -13z"/>
<path d="M1706 3325 c-4 -20 -15 -53 -24 -72 -14 -30 -14 -35 -2 -43 12 -8 17
-1 23 33 4 23 12 55 17 72 6 16 6 33 1 38 -5 5 -12 -8 -15 -28z"/>
<path d="M1730 3306 c0 -13 -3 -33 -6 -43 -5 -13 -4 -15 4 -8 17 15 27 75 13
75 -6 0 -11 -11 -11 -24z"/>
<path d="M1720 3194 c0 -3 5 -14 10 -25 7 -11 7 -19 1 -19 -5 0 -11 6 -14 13
-4 11 -7 -4 -23 -113 -3 -22 -10 -38 -15 -34 -11 7 -12 -7 -1 -24 5 -7 16 -10
24 -7 25 10 38 51 31 105 -5 44 -4 50 11 44 9 -3 16 -15 16 -25 0 -10 5 -19
10 -19 6 0 10 -8 11 -17 0 -12 2 -13 6 -5 3 7 -1 20 -8 28 -12 14 -11 16 6 12
16 -3 19 -10 17 -40 -2 -20 1 -39 7 -43 11 -6 16 19 13 58 -3 33 15 16 22 -20
4 -29 2 -41 -11 -50 -9 -7 -12 -13 -7 -13 6 0 15 5 22 12 9 9 12 3 13 -27 1
-29 3 -33 6 -15 5 24 -12 148 -25 180 -4 11 -7 9 -9 -7 -3 -13 -11 -23 -19
-23 -17 0 -19 16 -1 23 6 3 -3 3 -20 0 -21 -3 -33 -1 -33 6 0 6 -9 20 -20 31
-11 11 -20 17 -20 14z"/>
<path d="M1305 3143 c-64 -45 -66 -47 -32 -41 23 5 28 2 24 -12 -7 -29 20 -54
60 -54 31 -1 38 -5 44 -26 4 -14 7 -20 8 -13 1 16 23 11 56 -15 16 -13 35 -20
42 -18 20 8 16 -45 -7 -100 -11 -26 -23 -45 -26 -42 -2 3 1 17 7 31 12 27 7
57 -10 57 -6 0 -11 -21 -13 -47 l-3 -48 -40 -3 c-27 -2 -36 0 -26 7 8 5 20 7
27 4 6 -2 15 0 19 6 3 6 2 11 -3 11 -16 0 -52 78 -52 113 0 42 -20 62 -52 51
-13 -4 -26 -7 -30 -6 -10 3 -10 -10 1 -26 7 -11 9 -10 15 3 3 10 15 15 28 13
22 -3 23 -7 26 -120 l3 -118 -31 0 c-17 0 -40 5 -50 10 -20 11 -48 85 -36 97
4 4 26 2 49 -4 23 -6 44 -9 46 -7 3 3 -5 7 -17 11 -12 3 -22 13 -22 22 0 13
-2 13 -9 2 -5 -8 -16 -11 -26 -7 -14 5 -15 9 -5 21 6 8 21 17 33 21 26 8 48
29 40 38 -3 3 -12 -2 -20 -12 -10 -12 -16 -13 -19 -5 -4 9 -12 8 -30 -4 -28
-18 -43 -11 -24 12 12 15 10 17 -20 19 -29 2 -52 -89 -31 -123 6 -9 7 3 4 30
-5 51 10 84 27 59 6 -8 8 -24 6 -35 -3 -11 -8 -32 -11 -46 -5 -20 0 -34 24
-61 17 -20 32 -46 32 -59 1 -18 2 -20 6 -6 8 31 35 15 39 -22 6 -47 14 -52 14
-8 0 41 20 58 61 50 20 -4 27 0 32 16 3 11 17 25 31 31 23 9 52 52 48 73 -1 4
2 7 8 7 5 0 7 7 4 15 -4 8 -1 15 5 15 21 0 11 64 -15 95 -17 20 -22 23 -15 8
15 -30 13 -42 -4 -19 -7 10 -18 15 -24 11 -6 -3 -15 5 -21 19 -9 25 -19 30
-47 27 -7 -1 -13 6 -13 15 0 13 -7 15 -35 12 -39 -4 -44 3 -16 23 20 14 41 90
25 88 -5 0 -31 -16 -59 -36z m120 -363 c-14 -15 -21 -17 -31 -9 -19 16 -8 29
23 29 25 0 26 0 8 -20z"/>
<path d="M1550 3160 c0 -5 16 -9 35 -7 45 3 45 17 0 17 -19 0 -35 -4 -35 -10z"/>
<path d="M1230 3130 c-17 -14 -34 -19 -55 -15 -17 3 -54 -2 -83 -10 -97 -29
-215 -176 -229 -285 -4 -25 -18 -54 -41 -81 -27 -31 -37 -52 -38 -83 -1 -23 2
-46 6 -51 14 -17 -48 -101 -140 -191 -31 -31 -40 -44 -27 -44 9 0 17 7 17 15
0 8 9 15 19 15 12 0 29 17 46 45 14 25 36 52 49 60 29 19 70 91 56 100 -13 8
-13 45 0 45 6 0 10 -4 10 -9 0 -6 12 -6 32 0 40 11 40 11 34 0 -3 -4 6 -6 20
-3 24 4 125 -34 132 -51 2 -4 8 -5 13 -1 19 11 8 -13 -15 -35 -32 -30 -51 -30
-129 4 -37 15 -69 26 -71 24 -2 -2 -6 -19 -9 -36 -5 -27 -3 -33 10 -33 9 0 26
-8 37 -17 17 -15 16 -13 -3 12 l-23 30 22 3 c12 2 39 -4 61 -12 55 -22 75 -20
115 11 29 21 37 24 44 13 6 -9 1 -24 -12 -43 -11 -15 -18 -31 -15 -34 3 -2 13
10 22 27 l17 32 22 -21 c22 -21 24 -21 37 -4 10 14 10 16 0 6 -11 -9 -21 -2
-52 37 -21 27 -48 54 -59 60 -10 6 -17 16 -14 24 3 8 -3 16 -16 19 -17 4 -19
3 -9 -9 15 -18 13 -18 -56 6 -32 11 -66 20 -77 20 -23 0 -23 9 3 36 12 12 18
27 14 34 -4 6 -17 -5 -32 -27 -28 -41 -41 -53 -60 -53 -24 0 -13 28 21 58 38
33 60 68 51 82 -3 5 11 45 31 89 27 60 48 90 84 120 80 67 117 85 181 86 50 1
60 4 79 28 25 32 15 35 -20 7z"/>
<path d="M1876 3092 c-6 -10 55 -47 71 -44 6 1 32 -9 59 -23 55 -29 61 -31 43
-9 -23 28 -164 90 -173 76z"/>
<path d="M1255 3079 c-4 -5 1 -20 11 -32 l19 -22 -25 21 c-41 35 -48 35 -31 0
18 -37 33 -41 57 -15 18 20 11 39 -14 39 -15 0 -15 2 -2 10 9 6 10 10 3 10 -6
0 -15 -5 -18 -11z"/>
<path d="M1180 3050 c10 -19 9 -20 -14 -14 -30 7 -34 -7 -10 -30 14 -15 14
-16 -3 -16 -17 -1 -17 -2 1 -15 11 -8 15 -15 10 -15 -13 0 -56 31 -75 54 -16
19 -17 19 -34 3 -14 -14 -15 -20 -5 -32 14 -17 35 -20 25 -4 -4 6 2 5 14 -3
12 -7 21 -17 21 -22 0 -4 -8 -2 -17 5 -16 13 -17 12 -5 -3 7 -9 22 -15 33 -13
11 2 17 0 14 -5 -3 -5 0 -18 6 -28 12 -18 13 -18 30 14 9 19 14 44 11 57 -5
20 -4 20 11 8 20 -16 23 -2 5 19 -11 12 -10 12 5 1 9 -8 21 -11 24 -7 4 4 3
10 -3 14 -6 4 -16 17 -23 30 -6 12 -16 22 -22 22 -6 0 -6 -7 1 -20z"/>
<path d="M1757 3031 c5 -35 -8 -51 -48 -62 l-34 -9 39 5 c46 5 51 10 59 52 4
21 2 33 -7 36 -8 3 -11 -3 -9 -22z"/>
<path d="M1890 3024 c0 -11 5 -26 10 -34 8 -13 10 -12 10 3 0 10 8 17 20 17
12 0 20 -7 20 -17 0 -9 3 -13 6 -10 8 7 88 -37 120 -65 15 -13 24 -16 29 -8 8
13 -27 43 -78 66 -27 13 -34 20 -25 26 9 6 6 7 -8 3 -14 -3 -24 0 -27 9 -4 9
-14 12 -26 9 -12 -3 -28 0 -36 7 -12 10 -15 9 -15 -6z"/>
<path d="M1618 3010 c-15 -5 -30 -5 -34 -1 -4 3 -5 -1 -2 -9 6 -16 46 -16 62
0 14 14 4 18 -26 10z"/>
<path d="M961 2963 c-16 -31 -32 -103 -27 -121 6 -17 56 -25 56 -9 0 4 -8 7
-17 7 -15 0 -16 2 -3 9 8 6 17 8 21 5 10 -6 53 115 44 124 -2 2 -18 -10 -36
-27 -25 -26 -29 -34 -19 -46 10 -12 9 -15 -4 -15 -19 0 -22 40 -6 71 6 10 8
19 6 19 -3 0 -9 -8 -15 -17z"/>
<path d="M1407 2973 c-3 -4 3 -28 13 -52 13 -34 18 -40 22 -25 5 21 -27 91
-35 77z"/>
<path d="M2132 2970 c39 -23 47 -122 13 -160 -12 -13 -13 -23 -6 -41 6 -14 10
-17 10 -9 1 9 10 33 21 55 24 48 25 64 3 112 -19 39 -31 53 -48 53 -5 -1 -2
-5 7 -10z"/>
<path d="M1437 2954 c4 -12 46 -44 57 -44 3 0 -1 12 -9 27 -14 26 -58 42 -48
17z"/>
<path d="M1043 2914 c-7 -27 -15 -58 -19 -69 -4 -12 8 -3 29 20 20 22 36 43
37 46 0 4 -8 17 -18 29 l-18 22 -11 -48z"/>
<path d="M1768 2954 c-12 -11 5 -45 19 -40 8 3 11 2 8 -4 -6 -10 27 -34 63
-45 l23 -7 -20 24 c-11 12 -27 32 -36 43 -16 19 -16 19 -5 -3 19 -38 4 -36
-20 2 -23 38 -24 39 -32 30z"/>
<path d="M2109 2946 c7 -8 13 -33 14 -55 1 -23 4 -35 8 -28 6 10 6 42 1 85 -1
6 -9 12 -18 12 -13 0 -14 -3 -5 -14z"/>
<path d="M1576 2936 c3 -8 16 -22 30 -30 13 -9 21 -22 18 -29 -3 -8 2 -14 10
-14 11 0 10 9 -7 43 -13 26 -29 44 -39 44 -11 0 -15 -5 -12 -14z"/>
<path d="M1986 2922 c-16 -32 -17 -30 37 -71 14 -12 17 -11 17 3 0 10 -4 14
-10 11 -5 -3 -10 -1 -10 5 0 6 -4 9 -9 5 -15 -9 -24 34 -10 51 6 8 9 17 6 20
-3 3 -12 -8 -21 -24z"/>
<path d="M1896 2892 c68 -60 230 -155 222 -132 -2 8 -31 28 -64 45 -32 16 -80
45 -106 63 -42 29 -77 45 -52 24z"/>
<path d="M1120 2860 c-39 -30 -117 -53 -165 -48 -37 5 -42 3 -38 -13 5 -18 15
-19 93 -3 47 10 115 44 128 64 15 25 13 25 -18 0z"/>
<path d="M2080 2860 c15 -27 3 -45 -18 -28 -12 10 -14 10 -8 0 4 -6 20 -19 37
-27 28 -15 29 -15 29 7 -1 22 -31 68 -44 68 -4 0 -2 -9 4 -20z"/>
<path d="M1736 2831 c-14 -15 -14 -20 -4 -25 7 -3 3 -4 -9 -2 -13 2 -23 0 -23
-4 0 -5 -12 -8 -26 -7 -23 2 -26 -2 -29 -33 -3 -36 -5 -38 -109 -119 -32 -25
-65 -58 -74 -73 -9 -15 -20 -28 -25 -28 -20 0 -127 -103 -161 -155 -39 -58
-42 -65 -25 -65 13 0 28 16 52 52 20 32 69 48 144 48 28 0 55 5 58 10 3 6 13
10 22 10 14 0 14 -3 -2 -20 -10 -11 -20 -18 -23 -16 -2 3 -18 -8 -36 -24 -36
-35 -51 -39 -36 -9 7 11 9 23 6 27 -3 3 -6 -1 -6 -9 0 -12 -2 -11 -10 1 -8 12
-10 10 -8 -9 4 -31 -19 -39 -25 -9 -3 17 -4 16 -2 -4 1 -19 -3 -28 -14 -29
-10 0 -11 -3 -4 -5 7 -3 22 0 35 6 22 11 22 10 4 -4 -12 -9 -41 -16 -70 -17
-28 -1 -62 -5 -76 -10 -17 -6 -5 -7 39 -4 35 3 76 5 90 5 16 0 41 14 64 35 43
39 57 43 57 18 0 -10 7 -27 15 -37 13 -17 13 -22 -2 -38 -9 -10 -30 -18 -50
-18 -18 0 -33 -4 -33 -9 0 -4 18 -5 40 -1 36 7 40 5 35 -11 -4 -11 1 -21 12
-28 15 -8 20 -5 29 22 6 18 20 37 32 43 21 10 20 12 -18 27 -46 18 -55 40 -12
32 15 -3 21 -2 12 2 -14 7 -16 14 -11 41 1 4 13 -6 27 -23 l25 -30 -22 42 -22
42 -14 -27 c-22 -43 -33 -49 -33 -19 0 17 9 32 25 43 24 16 27 16 47 -2 11
-11 30 -32 40 -49 11 -16 17 -22 14 -11 -6 16 -2 18 23 13 34 -7 43 6 30 41
-5 14 -5 22 2 22 6 0 7 5 3 11 -5 8 -9 8 -14 -1 -4 -7 -13 -9 -19 -6 -18 12
-12 -9 9 -32 16 -17 17 -22 6 -22 -8 0 -18 5 -21 10 -3 6 -15 10 -26 10 -19 0
-20 1 -3 18 17 16 16 17 -27 24 -24 3 -93 4 -154 1 l-110 -6 34 36 c19 20 38
34 43 31 4 -3 11 2 14 10 3 9 11 13 18 9 6 -3 8 -3 4 2 -4 4 3 16 15 26 12 10
18 18 13 19 -5 0 28 29 74 66 63 50 85 62 92 52 7 -9 8 -2 4 19 -3 18 -2 32 2
31 4 -2 20 10 36 25 34 31 39 32 60 11 9 -8 16 -12 16 -7 0 4 7 -1 15 -11 8
-11 15 -38 15 -60 0 -23 5 -48 10 -56 8 -12 10 -11 10 6 0 12 7 27 15 34 12
10 15 10 15 0 0 -8 3 -11 6 -7 3 3 3 11 -1 17 -5 8 -13 6 -27 -7 -19 -17 -20
-17 -13 17 5 28 2 42 -16 65 -13 17 -29 34 -36 38 -18 11 -16 27 2 27 8 0 15
-7 15 -15 0 -23 16 -18 34 10 9 14 12 25 7 25 -5 0 -13 -5 -16 -10 -4 -7 -12
-7 -25 0 -24 13 -24 13 -44 -9z"/>
<path d="M1906 2830 c35 -43 59 -84 56 -99 -2 -7 1 -10 6 -7 5 3 16 -2 23 -11
10 -12 10 -14 2 -9 -7 4 -13 2 -13 -4 0 -6 8 -10 17 -8 11 2 19 -6 23 -22 8
-30 2 -52 -13 -43 -6 3 -7 1 -3 -6 12 -18 38 7 31 30 -9 27 9 30 36 6 14 -12
20 -19 14 -15 -14 9 -25 0 -25 -19 0 -7 5 -12 12 -10 6 1 18 -19 25 -45 16
-53 36 -66 26 -16 l-6 31 22 -22 c12 -12 26 -19 31 -16 13 8 13 42 1 49 -5 4
-7 -3 -4 -14 3 -11 1 -20 -5 -20 -11 0 -24 31 -27 64 -1 10 -10 25 -20 32 -11
8 -16 14 -12 14 4 0 1 14 -8 30 -14 27 -14 30 0 30 9 0 25 -5 36 -10 10 -6 19
-7 19 -2 0 5 -21 17 -47 27 -27 9 -64 26 -83 37 l-35 19 42 -38 c63 -58 93
-115 44 -84 -8 5 -53 47 -100 93 -47 46 -76 72 -65 58z"/>
<path d="M1090 2792 c-51 -31 -60 -33 -122 -29 -37 2 -65 0 -62 -4 3 -5 14 -9
25 -9 11 0 17 -4 14 -10 -4 -6 2 -7 17 -1 13 4 36 5 52 0 17 -5 46 -4 72 3 60
17 71 3 37 -47 l-26 -38 29 -24 c32 -26 64 -46 64 -40 0 2 -18 17 -40 32 -40
27 -55 53 -24 41 8 -3 12 -2 9 4 -3 5 2 24 11 42 l17 32 28 -34 c16 -19 30
-46 30 -60 2 -23 2 -23 6 -2 5 27 6 27 41 5 26 -17 27 -17 12 2 -8 11 -31 37
-50 58 -19 21 -46 55 -60 76 l-25 37 -55 -34z"/>
<path d="M1492 2764 c2 -11 11 -20 22 -22 13 -3 17 1 14 14 -2 11 -11 20 -22
22 -13 3 -17 -1 -14 -14z"/>
<path d="M1724 2755 c-16 -13 -17 -16 -4 -25 19 -13 40 -13 40 0 0 6 -8 10
-17 10 -15 0 -16 2 -3 10 8 5 12 11 9 14 -3 3 -14 -1 -25 -9z"/>
<path d="M1096 2716 c-24 -18 -26 -24 -13 -29 10 -4 21 3 32 19 22 34 15 38
-19 10z"/>
<path d="M910 2714 c0 -9 5 -12 12 -8 7 4 8 3 4 -4 -4 -6 -13 -9 -20 -6 -8 3
-17 1 -21 -5 -9 -15 30 -14 54 1 18 11 18 13 3 25 -23 17 -32 16 -32 -3z"/>
<path d="M1010 2690 c20 -18 60 -28 60 -15 0 7 -57 35 -71 35 -7 0 -2 -9 11
-20z"/>
<path d="M1680 2677 c0 -35 -10 -58 -23 -50 -6 3 -7 1 -3 -5 4 -6 14 -8 22 -5
13 5 15 1 9 -17 -6 -18 -4 -22 8 -17 9 3 17 0 19 -8 3 -11 6 -11 22 1 11 7 16
17 12 21 -4 4 -11 2 -15 -5 -13 -21 -32 10 -36 59 -5 48 -15 66 -15 26z"/>
<path d="M1956 2602 c2 -55 8 -79 23 -99 12 -14 21 -34 21 -45 0 -29 -20 -11
-21 20 -1 15 -7 1 -13 -32 -8 -41 -18 -63 -33 -73 -14 -10 -23 -11 -28 -4 -3
6 1 11 9 11 35 0 1 113 -53 180 -23 28 -29 14 -6 -16 20 -27 19 -40 -3 -21
-25 23 -36 21 -52 -8 -13 -25 -38 -29 -32 -6 1 7 -2 10 -7 7 -11 -7 -3 -46 9
-46 5 0 17 12 28 27 23 32 44 27 63 -16 12 -26 15 -28 22 -13 5 12 6 9 2 -8
-2 -14 -5 -40 -5 -59 0 -29 -2 -32 -15 -21 -8 7 -15 19 -15 26 0 13 -20 19
-44 15 -5 -1 -6 8 -3 20 4 14 2 18 -4 12 -6 -6 -6 -24 0 -49 5 -23 9 -30 10
-16 1 13 7 22 17 22 8 0 13 -4 10 -9 -3 -5 5 -16 19 -25 14 -9 25 -13 25 -9 1
24 20 -27 20 -52 0 -45 -12 -58 -43 -46 -18 7 -27 7 -29 -1 -3 -8 -21 -8 -67
1 -35 7 -66 10 -69 7 -3 -3 1 -6 9 -7 8 0 41 -6 74 -13 43 -10 64 -10 74 -2
10 8 19 4 37 -19 l23 -29 -1 40 c0 21 5 52 11 68 l12 29 15 -22 c9 -12 18 -50
21 -84 3 -34 12 -73 20 -85 13 -22 12 -27 -11 -62 -14 -21 -34 -40 -45 -42
-16 -2 -18 -6 -10 -18 8 -11 12 -12 16 -2 8 21 21 13 15 -10 -7 -31 -23 -40
-42 -25 -9 7 -1 -3 19 -20 19 -18 29 -33 23 -33 -7 0 -12 -8 -12 -17 0 -15 2
-15 9 -4 7 11 10 10 14 -5 3 -10 3 9 0 43 -4 51 -2 69 18 107 33 67 53 83 84
66 29 -15 31 -38 10 -80 -16 -31 -29 -37 -40 -20 -3 6 -13 10 -21 10 -22 0
-19 -78 4 -99 10 -9 23 -29 29 -46 6 -16 15 -39 19 -50 16 -41 -28 8 -50 55
-14 31 -21 40 -24 27 -2 -10 6 -34 17 -53 25 -42 26 -54 5 -54 -13 0 -15 -12
-14 -72 3 -116 0 -157 -10 -133 -7 16 -9 12 -9 -18 -1 -21 3 -36 8 -32 5 3 13
1 16 -5 4 -6 1 -9 -5 -8 -8 2 -11 -30 -12 -104 -1 -83 -4 -105 -14 -101 -7 2
-15 12 -17 21 -3 10 -5 7 -6 -9 0 -14 6 -34 14 -45 8 -10 14 -28 14 -39 -1
-16 -2 -15 -9 5 -8 24 -8 24 -9 -5 -1 -17 -6 -36 -13 -43 -9 -9 -8 -24 1 -64
17 -80 31 -93 31 -33 0 28 5 84 11 125 6 41 11 104 10 140 0 36 4 81 8 100 7
27 9 12 11 -70 1 -104 12 -162 23 -130 15 42 14 84 -4 175 -10 55 -19 118 -19
139 0 37 1 38 18 23 10 -10 24 -17 30 -17 7 0 12 -15 12 -35 0 -27 8 -44 35
-70 19 -19 39 -35 45 -35 5 0 10 -6 10 -13 0 -8 9 -24 20 -37 15 -18 23 -20
34 -11 7 6 28 10 46 9 18 -2 35 2 37 9 3 7 -3 9 -16 6 -17 -4 -21 -1 -21 18
l0 24 -20 -25 c-17 -22 -24 -21 -22 1 1 4 -8 5 -18 2 -17 -5 -20 0 -20 27 0
24 5 33 22 38 21 5 21 6 2 13 -32 13 -42 10 -37 -10 3 -10 0 -22 -5 -25 -11
-7 -24 24 -20 45 2 9 -5 13 -19 11 -28 -4 -30 16 -8 58 17 32 36 38 54 16 9
-11 8 -15 -6 -21 -16 -7 -15 -9 7 -14 23 -6 26 -2 46 59 12 36 20 67 18 69 -6
6 -34 -65 -34 -86 0 -13 -6 -11 -30 12 l-30 29 -29 -28 c-22 -21 -34 -26 -55
-20 -35 9 -38 15 -43 100 -3 61 -1 74 12 74 8 0 23 -8 33 -18 17 -17 19 -16
57 9 22 15 43 25 47 23 5 -3 8 0 8 5 0 14 -17 14 -25 1 -7 -11 -46 5 -44 18 4
24 -2 35 -12 25 -8 -8 -6 -18 5 -35 17 -25 13 -38 -11 -38 -8 0 -11 5 -7 12 5
7 3 8 -6 3 -10 -6 -12 -4 -7 8 4 10 1 29 -5 42 -9 21 -8 28 4 38 14 11 14 16
1 42 -14 29 -14 30 -8 3 l5 -27 -24 22 c-30 28 -40 77 -15 77 6 0 9 -9 6 -20
-8 -31 10 -14 40 37 l26 46 29 -57 c19 -37 27 -65 22 -78 -4 -13 -1 -24 7 -29
24 -15 27 -10 18 32 -20 87 -105 219 -142 219 -8 0 -18 -8 -23 -17 -5 -12 -10
9 -14 59 -5 69 -9 81 -37 110 -26 28 -29 35 -18 45 11 10 17 9 29 -9 9 -12 17
-17 17 -10 4 35 13 48 39 55 11 3 18 1 14 -4 -3 -5 3 -9 13 -9 12 0 5 -9 -20
-26 -21 -14 -36 -28 -33 -31 3 -3 17 4 31 15 27 22 55 20 55 -3 0 -11 8 -12
40 -5 3 0 -6 10 -19 21 -13 11 -21 22 -18 26 4 3 -13 18 -36 33 -38 24 -44 35
-64 101 -12 41 -26 92 -31 114 -7 33 -8 28 -6 -33z"/>
<path d="M1227 2556 c-16 -35 -37 -72 -47 -81 -17 -15 -20 -15 -44 0 -24 16
-26 16 -48 -5 -12 -11 -24 -16 -26 -10 -2 5 -12 10 -23 10 -10 0 -19 5 -19 10
0 6 7 10 15 10 8 0 15 7 15 15 0 18 -22 10 -37 -14 -10 -17 -8 -22 15 -37 34
-23 44 -24 60 -2 19 26 32 22 32 -8 0 -23 2 -25 15 -14 23 19 29 5 14 -32 -8
-18 -13 -36 -11 -40 4 -14 -10 -8 -22 8 -10 13 -12 10 -14 -15 -3 -34 0 -36
27 -22 13 7 22 4 36 -15 10 -14 29 -24 44 -25 14 0 20 -3 13 -6 -18 -7 -36
-55 -23 -63 18 -11 0 -50 -23 -50 -12 0 -28 -6 -35 -12 -11 -11 -13 -10 -8 5
6 16 5 16 -24 1 -25 -12 -30 -21 -26 -40 2 -13 0 -24 -4 -24 -5 0 -9 9 -9 19
0 14 -5 18 -20 14 -11 -3 -20 -12 -20 -19 0 -8 -4 -14 -10 -14 -14 0 -13 -13
3 -33 11 -16 15 -15 50 14 22 18 37 39 37 52 0 14 3 17 8 10 5 -8 21 -9 56 -2
63 12 136 9 136 -5 0 -6 -9 -25 -19 -43 -16 -26 -17 -32 -5 -37 7 -3 13 -2 12
2 -5 18 15 52 31 52 10 0 43 -13 74 -28 46 -23 54 -25 46 -10 -6 11 -35 25
-69 35 -33 9 -60 20 -60 25 0 4 37 8 81 8 l82 0 -5 -50 c-5 -48 -4 -52 34 -86
22 -20 43 -33 46 -29 4 3 0 10 -7 15 -8 4 -11 15 -8 23 4 10 1 14 -6 12 -7 -3
-20 2 -30 10 -15 11 -18 24 -15 72 l3 58 -145 5 c-90 4 -137 9 -123 14 19 7
20 12 12 33 -8 21 -6 28 11 40 29 20 25 30 -15 37 -38 7 -43 20 -22 51 14 20
28 65 22 65 -2 0 -15 -19 -29 -42 -14 -24 -26 -37 -26 -30 0 7 -4 10 -10 7
-14 -8 -13 27 2 62 6 15 11 31 10 35 -1 4 6 9 16 12 10 3 32 37 49 76 31 67
33 70 57 60 14 -5 26 -7 26 -5 0 6 -56 35 -67 35 -5 0 -21 -29 -36 -64z"/>
<path d="M1364 2594 c-18 -15 -18 -15 9 -9 15 3 27 2 27 -2 -1 -18 -18 -33
-66 -55 -27 -13 -61 -32 -76 -43 -22 -18 -23 -22 -10 -35 14 -13 15 -12 9 2
-5 13 11 26 71 58 95 51 97 53 83 79 -14 25 -21 26 -47 5z"/>
<path d="M1690 2542 c0 -6 -16 -20 -36 -32 -43 -27 -39 -38 6 -15 25 13 35 14
46 4 11 -9 14 -8 14 9 0 11 -7 25 -15 32 -9 8 -15 8 -15 2z"/>
<path d="M2017 2523 c-17 -27 60 -117 90 -106 7 3 11 -3 8 -15 -2 -13 5 -23
21 -31 30 -13 32 4 3 20 -18 9 -19 13 -8 21 11 7 11 11 1 15 -6 2 -10 9 -6 14
3 5 -2 9 -10 9 -9 0 -16 -7 -16 -16 0 -8 -4 -12 -10 -9 -5 3 -10 15 -10 26 0
13 4 18 12 13 7 -5 8 -3 3 5 -5 9 -10 10 -18 2 -16 -16 -26 -13 -20 7 4 19
-31 59 -40 45z"/>
<path d="M772 2483 c-12 -2 -20 -9 -16 -14 3 -5 9 -7 14 -4 4 3 6 -4 3 -15 -3
-11 -12 -20 -20 -20 -8 0 -21 -6 -28 -14 -12 -11 -7 -14 32 -20 25 -3 57 -6
70 -6 14 0 38 -9 54 -21 34 -24 34 -23 14 25 -9 20 -13 41 -10 46 3 5 0 12 -6
15 -6 4 -23 -8 -39 -26 -23 -27 -31 -32 -41 -21 -7 6 -9 12 -3 12 13 0 45 55
37 64 -7 6 -23 6 -61 -1z"/>
<path d="M1714 2472 c-20 -7 -19 -8 12 -29 19 -12 36 -18 39 -13 6 9 -16 51
-25 49 -3 -1 -14 -4 -26 -7z"/>
<path d="M967 2441 c-35 -39 -52 -97 -41 -134 3 -9 10 -14 16 -11 6 4 6 10 -1
17 -21 21 -11 28 14 10 27 -20 33 -36 10 -27 -8 4 -15 4 -15 1 0 -2 7 -24 15
-47 18 -50 21 -94 5 -70 -8 12 -10 11 -10 -7 0 -12 -4 -25 -10 -28 -5 -3 -8 0
-6 7 3 7 7 33 10 58 l6 45 -20 -44 c-11 -23 -31 -56 -44 -72 -13 -15 -27 -34
-30 -41 -3 -9 -16 -1 -37 24 l-32 37 -35 -74 c-34 -71 -37 -75 -69 -75 -18 0
-33 4 -33 10 0 5 17 46 38 90 29 60 35 81 25 85 -14 5 -65 -93 -79 -151 -3
-13 -11 -24 -16 -24 -5 0 -7 6 -4 13 2 6 17 50 32 97 15 47 31 87 35 90 5 3
15 22 23 42 9 20 28 46 43 57 24 20 28 20 42 6 14 -13 14 -18 0 -43 -17 -28
-34 -81 -31 -94 1 -5 -2 -8 -6 -8 -5 0 -9 -6 -9 -12 0 -7 -4 -22 -8 -33 -7
-20 -7 -20 6 0 7 11 16 23 21 26 6 3 9 8 7 10 -1 2 6 29 16 59 19 58 35 85 35
58 0 -9 6 -18 13 -21 10 -4 10 -7 0 -18 -18 -18 -16 -39 3 -39 9 0 14 -6 11
-12 -2 -7 -12 -13 -22 -13 -10 0 -20 -6 -23 -13 -5 -17 19 -15 46 4 14 9 21
22 18 31 -3 8 -2 11 3 8 5 -3 12 -1 16 5 3 5 0 10 -7 10 -9 1 -8 4 3 13 9 7
14 18 12 25 -3 6 0 12 5 12 6 0 13 -6 15 -12 3 -7 6 -8 6 -2 1 15 -63 97 -67
85 -2 -5 -10 -7 -18 -4 -9 3 -14 -1 -14 -11 0 -14 -4 -15 -21 -5 -12 6 -24 19
-26 30 -6 23 -21 15 -33 -17 -13 -33 -27 -30 -26 5 1 18 5 27 14 24 6 -3 12
-1 12 4 0 13 -31 14 -57 1 -15 -7 -23 -21 -24 -37 l-1 -26 -7 25 c-6 20 -9 22
-16 10 -12 -18 -33 -250 -23 -250 4 0 -4 -16 -17 -36 -31 -46 -32 -63 -2 -62
47 3 97 -2 97 -10 0 -5 -6 -16 -13 -26 -18 -24 -57 -13 -57 16 0 17 -3 18 -15
8 -8 -6 -23 -9 -33 -6 -11 4 -24 0 -32 -9 -11 -13 -10 -14 5 -9 15 6 16 3 10
-17 -8 -24 -8 -24 14 -5 17 16 25 17 44 8 40 -20 69 -25 76 -13 9 14 91 -43
91 -63 0 -8 3 -22 6 -31 5 -12 -3 -9 -31 9 -42 29 -152 66 -194 66 -17 0 -43
-13 -66 -33 -48 -42 -45 -69 5 -32 21 16 47 25 70 25 38 0 139 -26 153 -40 13
-12 18 -131 6 -172 -9 -34 -13 -37 -34 -32 -17 4 -25 2 -25 -7 -1 -17 -20 24
-52 106 -21 55 -26 60 -55 63 -27 3 -33 0 -33 -16 0 -16 5 -19 22 -14 14 3 19
2 14 -6 -4 -7 -1 -12 6 -12 13 0 42 -55 39 -73 -1 -4 6 -10 14 -13 25 -10 19
-44 -8 -44 -32 0 -40 10 -23 29 10 11 12 21 6 31 -7 11 -10 12 -10 2 0 -7 -4
-10 -10 -7 -5 3 -10 -3 -10 -14 0 -28 -11 -26 -40 4 l-23 25 33 0 c35 0 37 7
4 13 -10 2 -26 7 -34 10 -37 13 -70 17 -70 7 0 -6 -5 -8 -10 -5 -13 8 -13 72
0 80 6 3 10 3 10 -2 0 -10 57 -43 73 -43 7 0 -3 9 -20 20 -41 25 -42 34 -3 25
19 -4 30 -3 30 4 0 6 -16 11 -35 11 -19 0 -35 5 -35 10 0 6 -13 10 -30 10 -16
0 -30 -4 -30 -10 0 -5 5 -10 10 -10 6 0 10 -21 10 -46 l0 -46 -25 16 c-32 21
-37 20 -33 -6 2 -18 11 -24 36 -26 17 -2 32 -8 32 -13 0 -5 17 -7 39 -3 36 6
39 4 49 -24 6 -17 20 -33 34 -37 12 -4 35 -18 49 -32 23 -21 27 -22 39 -8 9
11 16 12 25 5 9 -8 17 -6 28 5 9 8 22 15 29 15 8 0 31 20 52 45 39 46 70 57
94 33 20 -20 34 5 30 52 -4 53 -28 68 -29 18 -1 -34 -3 -32 -13 14 -4 20 -11
25 -25 21 -10 -3 -30 1 -42 8 -23 12 -24 11 -6 -8 20 -22 22 -50 6 -90 -16
-42 -30 -10 -27 62 1 33 -2 67 -7 75 -5 8 4 5 19 -8 16 -12 32 -22 35 -22 10
0 0 69 -10 76 -14 8 -11 24 5 24 14 0 29 28 25 46 -3 21 2 35 11 29 6 -4 7 1
3 11 -4 11 -3 15 5 10 6 -3 14 -1 18 5 5 8 3 9 -6 4 -8 -5 -11 -3 -8 6 3 8 9
14 14 14 10 0 64 53 107 106 22 25 25 27 13 7 -20 -34 -20 -44 -1 -28 23 19
29 77 13 119 -13 33 -13 42 4 90 10 30 25 63 35 73 15 17 15 19 -3 33 -30 22
-52 24 -67 6z m39 -21 c0 -23 -7 -25 -24 -8 -17 17 -15 28 6 28 11 0 18 -7 18
-20z m-26 -66 c7 -13 10 -27 7 -31 -4 -3 -7 1 -7 10 0 10 -6 17 -14 17 -7 0
-16 9 -19 19 -7 27 17 17 33 -15z m-105 -65 c0 -21 -3 -39 -7 -39 -5 0 -8 5
-8 12 0 6 -8 20 -17 31 -17 18 -17 19 1 33 25 18 31 11 31 -37z m-165 -3 c0
-8 -5 -18 -10 -21 -6 -4 -8 -10 -5 -15 3 -5 0 -12 -6 -16 -9 -5 -10 0 -6 17 4
13 7 30 7 37 0 6 5 12 10 12 6 0 10 -6 10 -14z m209 -158 c-7 -13 -20 -34 -30
-47 -10 -13 -16 -28 -12 -34 3 -6 1 -7 -5 -3 -13 8 -5 28 30 79 23 33 33 36
17 5z m-95 -105 c-35 -64 -45 -75 -58 -66 -7 5 -4 0 6 -9 26 -23 5 -32 -23 -9
-13 10 -31 21 -39 24 -11 4 -10 7 8 12 12 4 22 12 22 17 0 6 7 5 16 -3 13 -10
17 -10 25 2 6 9 3 18 -8 26 -9 7 -13 16 -9 20 4 4 11 1 16 -6 6 -10 14 -3 30
29 18 36 24 41 32 27 6 -12 1 -30 -18 -64z m-168 -134 c38 -11 73 -25 78 -29
5 -5 -26 2 -68 15 -42 13 -84 26 -94 28 -15 4 -15 5 -1 6 9 0 48 -8 85 -20z"/>
<path d="M2070 2280 c-31 -25 -36 -27 -42 -12 -4 11 -7 6 -7 -17 l-1 -33 40
36 c56 50 75 45 22 -5 -26 -25 -40 -45 -34 -51 10 -10 62 10 62 24 0 4 5 8 11
8 5 0 8 -4 5 -9 -4 -5 3 -7 15 -4 11 3 18 11 15 19 -3 7 -1 16 4 19 8 5 -40
56 -51 55 -2 0 -20 -14 -39 -30z m66 -29 c0 -11 -3 -18 -7 -15 -4 2 -25 -5
-46 -17 l-38 -21 39 36 c45 41 52 43 52 17z"/>
<path d="M1621 2248 c1 -44 3 -43 13 4 4 17 14 28 29 31 16 3 13 5 -10 6 -32
1 -33 0 -32 -41z"/>
<path d="M2200 2241 c-8 -6 -18 -7 -22 -5 -4 3 -8 0 -8 -5 0 -12 -42 -57 -50
-54 -3 1 -7 -9 -8 -22 -1 -18 2 -23 13 -19 8 4 15 9 15 13 0 3 9 12 20 19 17
11 20 10 20 -7 0 -11 -7 -27 -16 -36 -23 -23 -9 -31 21 -11 22 15 27 13 24
-11 -1 -5 -5 -7 -9 -6 -5 2 -7 -7 -4 -20 13 -69 20 -104 24 -114 1 -5 3 -12 5
-18 1 -5 3 -12 4 -15 5 -10 13 -46 14 -62 1 -11 9 -18 23 -18 25 0 25 7 -5
130 -12 47 -21 99 -21 117 0 17 -4 34 -9 37 -15 9 -23 87 -10 102 13 16 1 18
-21 5z"/>
<path d="M1834 2225 c-4 -9 -13 -14 -20 -11 -9 3 -14 -2 -14 -14 0 -19 0 -19
34 -1 19 11 37 17 41 13 4 -4 6 0 3 8 -7 21 -37 25 -44 5z"/>
<path d="M1500 2209 c0 -5 -12 -10 -27 -10 -21 -1 -23 -3 -8 -6 11 -2 27 -7
35 -10 8 -3 22 -5 30 -4 12 3 12 -1 -3 -16 -19 -22 -22 -33 -6 -33 5 0 8 4 5
9 -6 9 19 24 43 25 8 1 16 7 19 15 3 9 -2 11 -17 6 -11 -3 -21 -3 -21 2 0 4
-11 13 -25 20 -14 6 -25 7 -25 2z"/>
<path d="M2564 2200 c-18 -42 -65 -187 -70 -215 -8 -47 13 -17 37 50 30 85 44
98 53 47 3 -21 13 -54 23 -73 10 -20 17 -55 16 -87 0 -51 0 -52 18 -36 11 10
19 21 19 26 0 5 -17 53 -37 106 -20 53 -40 122 -43 152 -5 50 -7 53 -16 30z"/>
<path d="M1851 2191 c-17 -11 -7 -45 12 -39 6 3 13 14 13 26 1 24 -4 26 -25
13z"/>
<path d="M1650 2138 c-1 -30 -32 -97 -59 -125 l-21 -22 73 6 c39 3 95 11 123
18 60 14 84 6 84 -30 0 -14 4 -25 9 -25 13 0 -5 61 -20 71 -7 4 -48 12 -93 19
-112 16 -108 14 -94 47 7 15 16 30 19 33 4 3 1 11 -7 18 -12 11 -14 9 -14 -10z
m105 -106 c17 -5 16 -7 -10 -13 -43 -10 -125 -10 -125 -1 0 31 62 38 135 14z"/>
<path d="M1220 2124 c-30 -7 -79 -25 -108 -41 -45 -24 -57 -38 -88 -98 l-37
-70 32 30 c18 17 39 42 47 57 8 15 26 31 39 34 14 3 31 14 38 24 7 10 38 26
70 35 49 14 77 31 66 39 -2 1 -29 -3 -59 -10z"/>
<path d="M1515 2091 c11 -19 24 -34 30 -33 20 1 13 18 -18 42 l-32 25 20 -34z"/>
<path d="M1226 2026 c-77 -12 -79 -13 -133 -69 -31 -32 -53 -51 -50 -42 4 9 1
15 -7 15 -14 0 -21 -12 -145 -272 -82 -173 -84 -186 -22 -154 24 13 29 24 41
88 7 40 19 88 26 108 12 28 13 29 9 7 -35 -178 -40 -267 -15 -282 4 -3 6 5 2
17 -5 21 -4 22 11 9 15 -12 17 -11 17 8 0 11 14 71 31 133 18 62 36 136 41
163 16 84 31 128 55 155 12 15 19 31 15 35 -4 5 -2 5 4 2 6 -4 20 3 30 14 36
40 144 65 205 49 42 -12 143 -86 134 -100 -3 -5 0 -12 6 -16 8 -4 9 -3 5 4 -4
7 -2 12 3 12 11 0 12 -4 15 -53 1 -15 10 -35 21 -45 18 -16 18 -16 6 1 -9 11
-11 31 -8 55 6 35 4 40 -43 80 -46 40 -107 73 -155 85 -11 2 -55 -1 -99 -7z
m-211 -235 c-7 -52 -43 -159 -56 -167 -16 -9 -10 64 8 101 9 19 20 35 24 35 4
0 5 17 2 38 -4 31 -2 39 11 39 14 0 16 -8 11 -46z m-44 -210 c-7 -35 -31 -56
-31 -26 0 15 30 68 36 63 1 -2 -1 -19 -5 -37z"/>
<path d="M1197 1943 c-32 -9 -56 -18 -53 -20 3 -3 27 0 53 7 26 7 80 16 118
20 l70 7 -65 1 c-36 0 -91 -7 -123 -15z"/>
<path d="M1632 1900 c52 -60 66 -72 51 -46 -11 19 -92 106 -99 106 -3 0 19
-27 48 -60z"/>
<path d="M963 1938 c-12 -15 -30 -70 -37 -112 -9 -53 15 -12 34 58 19 68 20
75 3 54z"/>
<path d="M211 1918 c-32 -11 -26 -14 44 -23 44 -5 57 -4 49 4 -17 19 -68 29
-93 19z"/>
<path d="M2465 1904 c-21 -33 -18 -36 24 -18 28 12 31 16 21 29 -17 21 -25 19
-45 -11z"/>
<path d="M1883 1898 c22 -17 36 -93 44 -252 6 -109 9 -123 14 -81 11 77 9 274
-2 250 -7 -15 -8 -8 -6 27 2 41 -1 48 -21 58 -32 14 -49 13 -29 -2z"/>
<path d="M1540 1884 c0 -10 3 -14 7 -11 3 4 12 2 20 -4 9 -8 11 -27 8 -63 -8
-94 -13 -394 -5 -331 4 33 8 107 9 165 1 58 4 129 8 158 l6 53 36 -34 c40 -37
90 -71 97 -64 5 5 -133 119 -164 136 -19 10 -22 9 -22 -5z"/>
<path d="M200 1861 c0 -17 5 -19 36 -14 l37 6 -8 -39 c-20 -102 -22 -114 -15
-114 9 0 30 93 30 135 0 25 -5 34 -22 39 -41 11 -58 7 -58 -13z"/>
<path d="M1092 1832 c-12 -28 -22 -58 -22 -68 0 -23 -59 -206 -72 -221 -5 -7
-8 -17 -6 -23 1 -5 23 9 48 31 25 23 38 36 28 30 -26 -19 -30 3 -9 56 10 27
22 67 25 88 4 22 13 61 22 88 22 67 12 80 -14 19z"/>
<path d="M297 1818 c-3 -29 -9 -67 -12 -83 -6 -27 -3 -32 22 -42 l28 -11 -27
-1 c-16 -1 -28 -5 -28 -11 0 -16 -15 -12 -40 10 -13 11 -28 20 -34 20 -7 0
-10 20 -8 56 3 42 7 54 18 50 8 -3 14 -1 14 4 0 21 -40 10 -44 -12 -19 -91
-18 -98 10 -108 25 -10 26 -13 20 -63 -6 -43 -31 -158 -105 -471 l-10 -39 89
5 c71 4 101 11 154 36 62 29 136 80 136 93 0 11 -52 23 -91 21 -31 -2 -42 4
-67 32 -52 60 -63 166 -32 313 9 41 16 52 33 55 20 3 23 11 29 76 7 79 18 109
18 48 0 -30 2 -35 13 -24 11 9 11 19 2 46 -13 38 -30 52 -61 52 -18 0 -22 -8
-27 -52z m43 -35 c0 -53 -12 -79 -29 -69 -14 9 -14 30 0 79 14 52 29 46 29
-10z m-73 -155 c-24 -95 -25 -97 -26 -35 -1 46 2 57 15 57 12 0 15 -6 11 -22z
m-2 -248 c10 -42 11 -58 2 -69 -9 -11 -9 -13 0 -8 6 4 25 -7 43 -24 24 -24 28
-34 18 -40 -22 -14 15 -11 62 6 52 18 50 18 50 -1 0 -17 -46 -39 -107 -49 -24
-4 -45 -11 -48 -16 -4 -5 9 -6 27 -3 43 7 17 -11 -31 -21 -27 -6 -32 -4 -25 6
6 11 5 12 -7 3 -16 -13 -95 -25 -103 -16 -3 3 0 12 7 20 10 13 9 15 -7 9 -15
-6 -17 -5 -7 7 6 8 14 25 16 37 7 31 8 39 42 201 l28 138 13 -63 c7 -34 19
-87 27 -117z"/>
<path d="M2733 1854 c-3 -9 -1 -25 5 -35 7 -10 12 -25 12 -33 0 -8 5 -18 10
-21 6 -4 10 15 10 49 0 44 -3 56 -15 56 -9 0 -18 -7 -22 -16z"/>
<path d="M1795 1799 c-31 -30 -44 -49 -34 -49 8 0 25 12 38 26 12 14 29 23 37
20 10 -4 14 3 14 24 0 17 -1 29 -2 29 -2 -1 -25 -24 -53 -50z"/>
<path d="M688 1818 c-3 -16 -2 -28 3 -28 4 0 10 -15 12 -32 l4 -33 0 35 c1 19
-2 46 -6 60 l-7 25 -6 -27z"/>
<path d="M2240 1830 c0 -5 9 -10 20 -10 11 0 20 -4 20 -10 0 -5 -14 -10 -30
-10 -17 0 -57 -7 -90 -17 -56 -15 -59 -18 -53 -41 6 -26 7 -26 -52 -8 -11 3 3
-5 30 -18 28 -14 55 -25 61 -25 10 -1 39 47 36 61 -2 9 57 28 90 28 16 0 27
-4 23 -10 -3 -5 3 -15 14 -22 19 -12 19 -12 0 -26 -10 -7 -19 -21 -19 -30 1
-13 3 -12 13 5 13 24 25 21 50 -17 26 -37 23 -62 -7 -54 -19 4 -26 1 -31 -16
-4 -12 -9 -19 -13 -16 -8 9 -62 -45 -62 -61 0 -8 -9 -17 -19 -21 -28 -11 -2
-30 29 -21 14 4 19 7 13 8 -19 1 -16 31 2 31 22 0 95 -38 95 -50 0 -5 -13 -5
-32 1 -18 5 -37 9 -43 9 -18 0 30 -27 70 -40 22 -7 47 -18 55 -24 20 -16 90
-39 97 -32 3 3 18 -1 33 -9 53 -28 136 -56 116 -40 -11 8 -27 15 -35 15 -11 0
-12 3 -4 11 8 8 17 8 33 -1 12 -6 24 -9 27 -7 6 7 -40 30 -92 47 -22 7 -56 20
-75 28 l-35 14 24 19 c22 18 22 19 3 19 -12 0 -30 -14 -43 -32 -14 -18 -25
-26 -27 -19 -2 7 6 23 17 35 19 21 20 24 6 30 -9 3 -13 2 -10 -4 3 -6 0 -13
-8 -15 -14 -6 -167 62 -167 74 1 3 16 13 35 22 32 15 35 15 35 0 1 -10 13 -2
35 24 19 22 35 43 35 46 0 3 -13 18 -28 35 -40 40 -55 72 -48 99 5 18 0 28
-16 39 -25 18 -78 22 -78 6z m-96 -86 c10 -26 7 -46 -6 -42 -7 3 -13 16 -13
31 -2 30 9 36 19 11z"/>
<path d="M1378 1805 c46 -14 94 -32 108 -41 23 -16 24 -21 19 -78 l-5 -61 15
75 c7 41 13 75 12 76 -14 10 -144 45 -182 49 -45 5 -42 3 33 -20z"/>
<path d="M2885 1740 c-18 -20 -18 -20 8 -20 14 0 31 -8 37 -17 8 -15 10 -11 8
17 -4 41 -26 50 -53 20z"/>
<path d="M677 1702 c-10 -10 -17 -23 -17 -28 0 -5 5 -1 11 9 6 9 15 15 21 11
7 -4 6 -9 -3 -15 -7 -4 -10 -11 -7 -14 12 -12 28 6 28 31 0 29 -11 31 -33 6z"/>
<path d="M1490 1604 c0 -9 -5 -12 -12 -8 -7 4 -4 -2 6 -14 25 -28 26 -28 26 8
0 17 -4 30 -10 30 -5 0 -10 -7 -10 -16z"/>
<path d="M1170 1574 c-30 -8 -67 -23 -82 -34 -15 -11 -39 -25 -52 -30 -33 -12
-76 -116 -76 -181 0 -24 0 -24 23 5 14 17 29 26 35 22 8 -5 11 -1 10 11 -6 71
16 101 28 38 3 -19 10 -35 15 -35 6 0 5 -9 -1 -20 -14 -26 3 -118 26 -146 9
-11 13 -13 9 -6 -8 16 5 38 14 23 17 -26 -4 127 -25 192 l-24 72 3 -50 c2 -27
2 -41 0 -30 -3 11 -11 28 -19 39 -19 27 -18 60 0 53 9 -4 28 7 45 22 17 16 43
31 58 34 16 3 38 8 51 12 19 6 22 4 22 -19 0 -31 23 -35 47 -7 16 19 17 19 56
-1 26 -13 42 -16 46 -9 4 6 26 -7 54 -33 46 -42 47 -44 46 -102 l-1 -59 -12
55 c-13 57 -34 105 -42 97 -3 -3 2 -22 10 -42 21 -49 37 -147 23 -138 -6 4 -8
-1 -4 -11 4 -11 -1 -29 -14 -47 -11 -16 -23 -46 -26 -66 -3 -21 -9 -42 -13
-48 -4 -5 -10 -22 -14 -37 -3 -14 -9 -34 -13 -44 -4 -12 -3 -15 5 -10 8 5 12
-3 11 -26 -1 -31 -1 -32 -9 -8 -7 21 -8 16 -10 -25 l-3 -50 -7 40 -7 40 -2
-52 c0 -28 -4 -59 -7 -68 -6 -14 -9 -14 -33 1 -21 15 -24 15 -13 2 7 -9 14
-37 16 -62 1 -25 8 -52 14 -58 7 -7 12 -16 12 -21 0 -5 -20 9 -44 31 -68 62
-127 72 -223 35 -11 -4 -14 -2 -9 5 4 7 3 12 -2 12 -21 0 3 53 32 72 25 15 43
18 91 15 33 -3 69 -8 80 -12 15 -6 17 -5 9 4 -6 7 -45 15 -86 18 -57 4 -81 2
-106 -11 -27 -14 -31 -14 -26 -1 4 8 2 15 -2 15 -11 0 -34 -71 -34 -102 0 -13
4 -29 9 -37 10 -16 -7 -57 -43 -103 -49 -62 -56 -73 -56 -94 0 -13 5 -26 10
-29 6 -3 10 -15 10 -25 0 -25 44 -38 155 -45 85 -6 88 -5 63 9 -15 9 -64 19
-109 23 l-82 8 -3 34 c-5 40 29 106 66 128 15 9 18 12 6 8 -19 -6 -19 -5 -3
13 9 10 17 31 17 46 0 21 7 30 35 42 68 28 146 12 195 -41 13 -14 24 -34 25
-45 1 -10 9 -28 19 -39 16 -18 16 -25 3 -103 -8 -45 -13 -84 -12 -86 1 -1 10
0 19 4 11 4 16 19 17 53 2 69 12 104 31 107 14 2 16 -3 11 -27 -3 -17 0 -35 7
-44 7 -8 10 -21 7 -29 -3 -7 6 -31 20 -51 14 -21 21 -35 15 -31 -8 5 -8 -2 -1
-24 10 -26 15 -30 47 -29 29 2 31 3 10 6 -14 2 -32 12 -40 20 -11 15 -11 16 6
10 15 -6 17 -5 7 7 -9 11 -9 15 1 19 10 5 10 8 -2 16 -24 16 -56 43 -42 36 16
-8 15 4 -3 35 -21 37 -18 95 8 143 12 23 23 43 23 45 3 8 53 -19 56 -30 2 -9
12 -5 31 13 24 22 26 27 12 33 -9 3 -14 2 -11 -3 9 -15 -22 -21 -51 -10 -24 9
-25 10 -8 23 12 9 14 15 7 20 -20 12 -51 -17 -80 -77 -17 -34 -33 -54 -36 -48
-4 6 -11 9 -16 6 -13 -8 -22 25 -26 90 l-3 60 14 -45 13 -45 1 38 c1 20 -5 46
-11 57 -10 16 -8 28 14 72 33 68 41 104 28 127 -7 15 -5 31 10 66 11 26 20 59
20 74 0 15 6 36 14 46 12 17 15 11 21 -59 6 -57 4 -84 -6 -102 -10 -20 -10
-27 0 -37 10 -9 12 -9 11 3 -5 34 0 41 23 35 12 -3 17 -3 11 2 -6 4 -16 46
-23 93 -10 68 -10 94 0 130 7 25 13 71 13 102 1 73 -20 103 -105 145 -78 39
-145 47 -219 27z m-69 -327 c-8 -8 -11 9 -10 59 l1 69 10 -59 c6 -40 6 -62 -1
-69z"/>
<path d="M2561 1476 c3 -3 37 -17 75 -30 52 -17 73 -20 86 -13 13 8 33 6 80
-11 35 -12 71 -22 81 -22 10 0 17 -8 17 -18 0 -29 -10 -32 -32 -10 -20 20 -21
20 -31 2 -6 -11 -12 -53 -12 -94 -1 -50 -7 -83 -17 -100 -20 -31 -31 -78 -22
-92 4 -6 17 21 29 58 11 38 33 89 47 114 14 25 31 64 38 87 12 38 11 45 -4 62
-10 11 -25 20 -34 19 -10 0 -43 7 -74 15 -32 8 -60 12 -62 9 -3 -2 -25 0 -50
7 -60 15 -122 24 -115 17z m290 -192 c-6 -15 -14 -24 -17 -21 -3 3 -1 15 6 27
6 11 9 31 6 43 l-6 22 12 -23 c8 -17 8 -28 -1 -48z"/>
<path d="M1387 1375 c6 -74 8 -84 15 -63 2 7 -2 40 -8 73 l-13 60 6 -70z"/>
<path d="M1316 1407 c-16 -13 -27 -29 -25 -35 2 -7 17 4 32 23 33 41 32 43 -7
12z"/>
<path d="M2726 1414 c-4 -11 -13 -13 -28 -8 -49 15 -52 15 -18 -4 26 -15 39
-17 56 -10 15 7 28 6 44 -2 12 -6 24 -10 26 -7 6 6 -15 20 -48 34 -21 10 -27
9 -32 -3z"/>
<path d="M1328 1369 c-29 -34 -35 -54 -19 -63 12 -8 53 59 49 80 -2 13 -9 9
-30 -17z"/>
<path d="M1554 1344 c4 -27 14 -56 22 -64 13 -13 14 -12 5 13 -6 16 -11 41
-11 57 0 16 -5 32 -11 36 -9 5 -10 -7 -5 -42z"/>
<path d="M1900 1357 c0 -13 -7 -32 -15 -43 -19 -25 -19 -40 1 -23 14 11 15 8
12 -27 -2 -31 -7 -38 -20 -36 -16 3 -17 0 -6 -23 9 -20 9 -34 0 -58 -6 -18
-14 -49 -17 -69 -4 -21 -12 -36 -17 -35 -6 1 -14 -10 -19 -26 -4 -15 -17 -47
-28 -70 -12 -24 -21 -49 -21 -55 0 -7 -9 -17 -20 -24 -11 -7 -20 -16 -20 -20
0 -14 27 -9 40 7 20 24 30 17 24 -17 -5 -32 -5 -32 11 -13 9 12 13 28 10 40
-14 45 -8 93 13 120 12 15 27 46 33 69 6 22 18 59 26 80 14 39 30 246 19 246
-3 0 -6 -10 -6 -23z"/>
<path d="M1775 1303 c-8 -26 -10 -27 -35 -13 -30 16 -35 -7 -8 -45 12 -19 30
-37 38 -40 8 -4 3 7 -13 22 -26 28 -35 53 -19 53 4 0 13 -5 19 -11 8 -8 14 -5
23 10 6 12 9 27 6 34 -2 7 -8 2 -11 -10z"/>
<path d="M1172 1298 c-16 -21 -24 -56 -13 -62 11 -7 24 22 15 35 -3 6 0 16 6
24 7 8 10 15 7 15 -2 0 -9 -6 -15 -12z"/>
<path d="M2680 1301 c0 -4 16 -15 35 -24 42 -20 43 -32 10 -97 -58 -114 -142
-167 -250 -157 -33 3 -86 16 -117 28 -33 12 -65 18 -75 14 -37 -14 139 -152
248 -193 20 -8 25 -7 25 7 0 13 -7 16 -22 13 -14 -2 -36 6 -57 22 -19 14 -37
26 -41 26 -4 0 -14 6 -22 14 -7 8 -26 24 -40 35 -35 27 -24 37 23 23 85 -24
128 -25 179 -3 72 32 126 82 157 144 15 31 27 62 27 70 0 8 10 17 22 21 14 3
19 9 13 14 -16 14 -115 51 -115 43z"/>
<path d="M1616 1203 c-10 -37 -29 -86 -43 -110 -14 -24 -20 -43 -15 -43 20 0
69 105 76 163 3 31 5 57 3 57 -1 0 -11 -30 -21 -67z"/>
<path d="M1238 1237 c-40 -23 -50 -38 -20 -31 22 6 68 41 62 47 -3 3 -22 -5
-42 -16z"/>
<path d="M1036 1210 c13 -46 48 -90 73 -90 23 0 22 1 -8 29 -17 16 -31 35 -31
42 0 7 -3 9 -7 5 -4 -3 -13 4 -20 16 l-14 23 7 -25z"/>
<path d="M1195 1173 c-43 -10 -34 -20 18 -21 31 0 65 -5 76 -12 18 -9 21 -8
21 8 0 13 -9 18 -32 20 -18 1 -40 4 -48 6 -8 2 -24 1 -35 -1z"/>
<path d="M1180 1122 c0 -5 10 -12 23 -16 35 -9 87 -7 87 4 0 6 -12 10 -27 9
-16 -1 -40 2 -55 6 -17 4 -28 3 -28 -3z"/>
<path d="M1054 1096 c-11 -28 1 -71 19 -74 16 -3 17 -1 7 18 -7 12 -10 33 -7
46 5 26 -10 33 -19 10z"/>
<path d="M1116 1102 c5 -5 29 -24 53 -42 42 -32 43 -33 27 -8 -19 29 -58 58
-78 58 -7 0 -8 -3 -2 -8z"/>
<path d="M2769 1053 c0 -5 -2 -15 -4 -24 -1 -9 1 -23 6 -30 7 -11 9 -9 9 8 0
12 3 28 6 37 3 9 1 16 -5 16 -6 0 -11 -3 -12 -7z"/>
<path d="M1445 995 c2 -13 6 -28 9 -34 3 -5 1 -11 -6 -13 -15 -5 -4 -49 21
-79 l19 -23 -2 39 c-1 30 3 39 13 37 11 -2 11 2 -3 20 -9 13 -20 33 -25 45
-14 31 -29 36 -26 8z"/>
<path d="M1562 974 c-12 -25 -18 -43 -12 -39 12 7 44 74 38 80 -2 3 -14 -16
-26 -41z"/>
<path d="M1040 988 c0 -21 5 -23 58 -25 l57 -1 -54 24 c-29 13 -55 24 -57 24
-2 0 -4 -10 -4 -22z"/>
<path d="M1412 860 c3 -30 7 -35 31 -38 35 -4 34 7 -4 44 l-31 29 4 -35z"/>
<path d="M1705 794 c11 -12 19 -13 29 -5 7 6 16 8 19 4 4 -3 7 -1 7 5 0 7 -15
12 -36 12 -32 0 -34 -1 -19 -16z"/>
<path d="M1816 774 c-7 -19 -8 -139 -1 -132 3 2 7 18 9 34 3 16 8 45 11 65 7
37 -8 63 -19 33z"/>
<path d="M1121 759 c-28 -23 -25 -31 8 -22 13 3 20 11 17 19 -6 16 10 19 19 4
3 -5 12 -10 18 -10 7 0 3 7 -7 15 -25 19 -26 19 -55 -6z"/>
<path d="M1605 767 c20 -16 20 -16 -2 -17 -13 0 -23 -4 -23 -10 0 -9 26 -3 45
11 6 4 21 9 35 12 22 4 21 4 -7 6 -17 0 -40 4 -50 7 -16 6 -16 5 2 -9z"/>
<path d="M1730 771 c0 -5 -6 -11 -12 -14 -7 -2 -4 -3 7 -1 17 3 23 -5 31 -39
6 -23 14 -51 18 -62 4 -11 -5 -1 -19 23 -29 45 -39 51 -49 27 -3 -8 -1 -15 5
-15 7 0 8 -17 3 -47 -10 -75 -30 -112 -66 -129 -32 -14 -17 -13 36 3 18 6 18
2 12 -47 -6 -48 -5 -52 11 -46 12 4 10 0 -6 -13 -20 -15 -23 -24 -18 -54 4
-28 2 -37 -11 -40 -14 -4 -14 -5 2 -6 15 -1 16 -4 7 -15 -10 -12 -8 -13 8 -9
26 7 27 -4 4 -30 -10 -11 -13 -17 -6 -14 13 8 73 -41 73 -60 0 -19 19 -26 36
-12 13 10 8 18 -33 55 -45 41 -46 44 -30 62 23 25 21 32 -8 32 -14 0 -25 5
-25 10 0 6 5 10 11 10 6 0 3 7 -5 16 -9 8 -16 20 -16 25 0 6 7 3 16 -5 8 -9
17 -16 18 -16 2 0 3 21 3 48 0 118 2 126 38 164 35 37 35 37 21 78 -10 28 -11
52 -5 78 12 52 12 52 -21 52 -16 0 -30 -4 -30 -9z m26 -147 c5 -19 1 -31 -15
-47 l-21 -21 0 31 c0 61 24 86 36 37z"/>
<path d="M1105 701 c-3 -6 -15 -11 -26 -11 -10 0 -19 -7 -19 -15 0 -18 16 -20
23 -2 4 7 6 6 6 -5 1 -9 -3 -18 -8 -20 -4 -1 -12 -14 -16 -27 -12 -40 15 -13
37 36 18 40 20 71 3 44z"/>
<path d="M1185 700 c-3 -5 -1 -10 5 -10 6 0 9 -4 5 -9 -3 -6 5 -8 17 -6 21 4
22 3 5 -9 -11 -8 -14 -17 -8 -20 5 -4 13 -1 17 5 4 8 9 7 15 -2 6 -10 9 -10 9
-2 0 12 -43 63 -53 63 -3 0 -9 -4 -12 -10z"/>
<path d="M1186 596 c-26 -18 -43 -36 -38 -40 5 -3 17 3 27 14 10 11 23 20 28
20 6 0 0 -11 -13 -25 -13 -14 -19 -25 -13 -25 6 0 18 11 27 25 9 14 13 25 10
25 -4 0 1 9 11 20 26 29 15 25 -39 -14z"/>
<path d="M1605 589 c-8 -37 0 -50 9 -14 4 14 11 25 17 25 6 0 7 5 4 10 -11 18
-23 10 -30 -21z"/>
<path d="M850 541 c8 -6 18 -7 22 -5 4 3 8 0 8 -5 0 -6 7 -11 16 -11 11 0 14
-5 10 -16 -4 -12 -2 -15 9 -11 8 4 17 2 20 -3 8 -12 -13 -23 -27 -14 -7 5 -24
8 -38 8 -14 0 -28 4 -32 10 -5 7 -8 4 -8 -6 0 -13 9 -18 33 -19 27 -2 28 -2 7
-6 -45 -8 -46 -23 -2 -19 28 3 42 1 42 -7 0 -7 4 -6 10 3 5 8 10 11 10 6 0 -5
9 -1 20 9 24 22 28 57 5 48 -10 -3 -15 0 -13 8 2 7 -4 14 -12 14 -8 1 -14 6
-13 11 1 6 -17 11 -40 12 -29 1 -38 -1 -27 -7z"/>
<path d="M694 490 c-22 -11 -55 -33 -74 -49 l-34 -28 34 3 c19 2 29 1 23 -2
-7 -3 -13 -15 -13 -27 0 -13 3 -17 8 -10 10 16 65 4 58 -13 -3 -8 -2 -13 2
-12 4 1 17 -4 30 -11 19 -10 27 -10 45 3 40 27 112 97 89 86 -12 -6 -27 -8
-32 -5 -6 4 -9 2 -8 -3 2 -5 -15 -24 -36 -41 -31 -25 -42 -29 -53 -19 -8 6
-11 18 -8 26 4 11 -2 13 -32 8 -35 -6 -37 -5 -19 9 17 13 18 15 3 15 -26 0
-20 13 14 32 18 11 27 22 23 29 -4 7 -3 9 4 5 6 -3 14 -1 17 5 12 19 0 19 -41
-1z"/>
<path d="M543 493 c-7 -3 -13 -9 -13 -14 0 -6 4 -8 9 -4 5 3 12 1 15 -4 4 -5
2 -12 -4 -16 -6 -4 -8 -11 -5 -16 4 -5 1 -9 -5 -9 -7 0 -10 6 -7 14 3 8 0 17
-8 20 -8 3 -17 -3 -20 -15 -4 -10 -13 -19 -21 -19 -8 0 -14 -4 -14 -10 0 -5
-5 -10 -11 -10 -6 0 -9 7 -5 15 5 13 2 13 -19 -1 -13 -9 -28 -13 -34 -10 -5 3
-7 -2 -4 -13 5 -18 -20 -36 -37 -26 -4 3 -25 -17 -46 -43 -21 -26 -42 -50 -46
-53 -11 -7 1 -39 14 -39 5 0 6 9 3 20 -4 14 -2 20 9 20 9 0 13 6 10 14 -3 7 2
16 10 19 13 5 16 -1 16 -28 0 -27 -6 -37 -29 -51 -24 -14 -27 -19 -16 -31 18
-17 25 -17 25 2 0 8 7 15 15 15 8 0 12 6 9 14 -3 8 -1 17 5 21 6 3 11 15 11
26 0 10 5 19 11 19 8 0 8 5 -1 15 -7 8 -17 12 -22 8 -6 -3 -9 0 -6 7 2 8 22
19 44 25 26 7 38 16 36 26 -1 9 5 16 13 16 8 0 15 -4 15 -9 0 -16 28 -7 44 15
14 19 15 19 7 1 -6 -12 -6 -26 0 -35 7 -11 9 -9 9 9 0 12 6 22 13 22 6 0 25
11 41 25 16 14 35 25 43 25 7 0 13 5 13 11 0 5 -5 7 -11 4 -5 -4 -18 2 -27 13
-9 10 -23 17 -29 15z"/>
<path d="M982 475 c-13 -28 -4 -32 29 -14 16 8 18 13 8 25 -16 20 -24 18 -37
-11z"/>
<path d="M1303 493 c5 -8 -8 -11 -45 -8 -44 2 -46 2 -13 -4 22 -3 39 -11 38
-18 -2 -7 17 -12 47 -15 28 -1 50 0 50 5 0 4 -5 7 -11 7 -6 0 -25 10 -42 22
-17 12 -27 17 -24 11z"/>
<path d="M438 480 c-41 -7 -127 -79 -120 -99 2 -7 23 6 51 32 26 25 62 48 79
52 18 3 34 11 37 16 7 10 6 10 -47 -1z"/>
<path d="M1064 465 c-69 -19 -125 -43 -100 -44 13 -1 16 -6 12 -18 -5 -16 -4
-15 9 1 12 16 17 17 31 5 15 -12 16 -12 10 8 -6 20 -2 24 51 38 77 22 81 23
58 24 -11 0 -43 -7 -71 -14z"/>
<path d="M1225 443 c4 -17 2 -23 -8 -23 -9 0 -17 6 -20 13 -2 7 -8 8 -13 3 -5
-5 -4 -11 4 -13 19 -7 14 -23 -8 -23 -11 0 -20 -4 -20 -9 0 -22 20 -19 57 8
22 16 49 31 59 34 14 4 13 5 -6 6 -15 0 -32 7 -39 14 -11 10 -12 8 -6 -10z"/>
<path d="M1440 421 c13 -45 18 -51 51 -51 40 0 37 16 -6 31 -19 7 -35 19 -35
25 0 7 -4 15 -9 19 -6 3 -6 -6 -1 -24z"/>
<path d="M706 431 c16 -17 90 -26 98 -12 5 7 -6 11 -33 11 -21 0 -48 3 -58 6
-14 5 -15 4 -7 -5z"/>
<path d="M880 410 c-6 -11 -7 -20 -3 -20 4 0 -10 -12 -32 -25 -26 -16 -34 -25
-22 -25 11 0 32 10 49 21 28 21 30 21 26 3 -2 -10 -13 -23 -26 -29 -12 -5 -22
-13 -22 -18 0 -4 -5 -5 -12 -1 -7 4 -8 3 -4 -4 4 -7 14 -12 22 -12 8 0 14 -4
14 -9 0 -5 9 -11 21 -14 14 -4 30 4 52 25 30 28 30 29 3 9 -33 -24 -56 -27
-56 -8 0 19 21 37 43 37 10 0 16 4 12 9 -3 5 -1 12 5 16 6 4 8 11 4 16 -4 6
-11 6 -20 -2 -10 -8 -17 -7 -29 4 -19 20 -19 25 3 29 16 3 16 4 0 10 -12 5
-21 1 -28 -12z"/>
<path d="M1259 404 c-8 -10 -27 -25 -44 -36 -25 -15 -27 -18 -10 -18 11 0 44
-6 73 -14 35 -9 55 -10 59 -3 4 6 1 7 -7 2 -10 -6 -12 -3 -8 13 4 15 2 22 -9
22 -8 0 -12 4 -9 9 3 4 -3 16 -13 25 -17 15 -19 15 -32 0z m16 -35 c10 -15 -1
-22 -24 -14 -12 3 -19 11 -16 16 8 12 32 11 40 -2z"/>
<path d="M1140 370 c0 -5 -13 -7 -30 -4 -27 6 -30 4 -28 -19 2 -28 17 -27 19
1 0 10 3 12 5 5 4 -9 11 -9 30 -1 24 11 33 28 14 28 -5 0 -10 -4 -10 -10z"/>
<path d="M1372 368 c-17 -17 -15 -57 3 -64 8 -4 12 -10 9 -15 -3 -5 0 -9 6 -9
6 0 8 -5 5 -10 -4 -6 -12 -8 -18 -4 -7 3 17 -21 52 -55 60 -58 81 -71 81 -53
0 16 -32 52 -41 47 -5 -4 -9 -2 -9 4 0 6 -7 8 -17 4 -14 -5 -15 -1 -10 25 5
24 2 32 -11 35 -16 4 -16 5 1 6 20 1 23 21 3 21 -8 0 -18 5 -22 12 -4 6 -3 8
2 5 6 -3 16 -1 24 4 13 8 13 10 0 19 -10 6 -11 10 -2 10 20 0 14 17 -9 23 -15
4 -19 2 -15 -9 3 -8 -3 -25 -14 -36 -22 -24 -26 -14 -10 26 11 29 9 31 -8 14z"/>
<path d="M764 301 c0 -16 4 -27 9 -24 5 3 18 -4 30 -15 16 -15 27 -18 37 -12
13 8 12 10 -3 10 -19 0 -56 37 -57 55 0 6 5 3 10 -5 8 -13 10 -12 10 3 0 10
-8 17 -19 17 -14 0 -18 -7 -17 -29z"/>
<path d="M67 313 c-5 -7 -18 -13 -30 -13 -18 0 -19 -2 -7 -10 8 -5 25 -10 38
-10 26 0 29 -15 5 -29 -14 -8 -6 -10 32 -9 30 1 61 9 77 20 14 10 32 18 40 18
8 0 22 6 33 13 16 13 15 14 -16 9 -19 -2 -39 -11 -46 -20 -10 -11 -16 -12 -26
-3 -11 9 -17 8 -27 -4 -7 -8 -18 -15 -24 -15 -6 0 -3 7 7 14 26 20 21 28 -12
21 -23 -5 -30 -3 -33 12 -2 13 -6 15 -11 6z"/>
<path d="M1270 309 c-36 -7 -32 -13 8 -9 12 1 22 -3 22 -9 0 -6 7 -11 15 -11
9 0 20 -10 26 -22 20 -45 37 -70 58 -84 12 -9 28 -28 36 -45 9 -16 23 -29 33
-29 15 1 15 2 -2 15 -15 11 -16 15 -5 15 8 0 -11 27 -44 61 -33 34 -56 66 -54
74 6 14 -17 39 -43 46 -8 3 -31 2 -50 -2z"/>
<path d="M1085 293 c-16 -9 -25 -18 -19 -20 7 -2 27 5 45 16 40 25 18 28 -26
4z"/>
<path d="M2720 280 c0 -5 10 -10 23 -10 12 0 33 -3 47 -5 16 -3 12 0 -10 9
-42 18 -60 19 -60 6z"/>
<path d="M7 273 c-14 -13 -6 -33 13 -33 22 0 23 1 14 24 -7 17 -16 20 -27 9z"/>
<path d="M2255 254 c-6 -8 -20 -16 -32 -17 -26 -1 -20 -17 7 -17 29 0 50 11
50 25 0 21 -15 26 -25 9z"/>
<path d="M2555 259 c-21 -5 -14 -6 24 -2 39 4 56 2 62 -8 4 -7 11 -10 14 -7
25 24 -37 35 -100 17z"/>
<path d="M190 242 l-23 -19 21 -5 c12 -4 20 -2 16 3 -3 5 9 9 26 9 21 0 30 4
28 13 -7 20 -43 19 -68 -1z"/>
<path d="M2465 237 c-17 -13 -17 -14 4 -20 29 -7 51 1 51 19 0 18 -31 18 -55
1z"/>
<path d="M1256 232 c-2 -4 0 -14 5 -22 8 -13 10 -13 18 -1 12 18 36 8 52 -20
10 -20 9 -21 -7 -15 -11 4 -2 -10 21 -33 21 -23 40 -41 40 -41 4 0 -57 120
-63 123 -18 10 -61 16 -66 9z"/>
<path d="M2330 230 c0 -7 -8 -10 -20 -7 -11 3 -22 2 -25 -3 -4 -7 17 -11 125
-25 32 -4 39 -3 25 4 -11 5 -31 10 -44 10 -14 1 -33 8 -43 18 -12 11 -18 12
-18 3z"/>
<path d="M55 210 c-53 -6 -55 -7 -17 -8 46 -2 48 -5 27 -42 -20 -35 -19 -50 2
-20 9 14 27 37 41 53 14 15 22 26 16 25 -5 -1 -36 -4 -69 -8z"/>
<path d="M1810 214 c0 -7 25 -28 53 -45 13 -7 17 -6 17 7 0 10 -5 14 -15 10
-8 -3 -15 -1 -15 4 0 5 -9 14 -20 20 -11 6 -20 8 -20 4z"/>
<path d="M1046 155 c-22 -19 -37 -37 -35 -39 2 -2 24 14 48 35 24 21 40 39 35
39 -5 -1 -27 -16 -48 -35z"/>
<path d="M1163 180 c-37 -15 -115 -97 -111 -117 3 -14 8 -10 26 19 28 45 69
76 125 94 38 12 39 13 12 13 -16 0 -40 -4 -52 -9z"/>
<path d="M1982 163 c-24 -50 -26 -57 -14 -50 6 4 13 -1 15 -10 3 -10 5 -1 6
20 1 41 21 57 46 37 10 -8 15 -9 15 -2 0 6 7 9 15 6 8 -4 15 -14 15 -23 0 -12
2 -13 9 -3 7 11 14 11 42 -4 19 -10 38 -17 42 -16 4 1 33 -4 65 -11 31 -7 73
-10 92 -6 19 3 29 7 21 8 -8 0 -12 3 -10 6 6 5 94 -9 124 -20 11 -4 7 2 -10
14 l-30 21 45 -5 c34 -4 40 -3 23 4 -12 6 -78 9 -145 8 -76 -1 -108 -4 -83 -8
l40 -6 -45 -1 c-25 -1 -58 5 -75 14 -22 11 -24 13 -7 10 12 -2 20 0 17 4 -6 9
-83 27 -153 36 -44 5 -48 3 -60 -23z"/>
<path d="M120 165 c10 -12 8 -16 -13 -24 -26 -10 -57 -47 -57 -67 0 -7 21 8
46 33 38 37 51 44 73 38 26 -6 26 -6 -4 15 -37 24 -64 28 -45 5z"/>
<path d="M1810 164 c0 -8 4 -12 10 -9 5 3 21 -5 35 -19 14 -15 30 -26 35 -26
5 0 13 -6 17 -12 4 -7 17 -18 28 -24 11 -6 25 -20 30 -31 6 -11 16 -18 22 -16
28 10 -33 68 -140 135 -34 22 -37 22 -37 2z"/>
<path d="M1900 170 c-13 -8 -12 -10 3 -10 9 0 16 -4 15 -9 -2 -5 1 -9 6 -9 5
0 12 -5 15 -11 4 -6 12 3 18 20 12 31 12 31 -7 14 -18 -16 -20 -17 -20 -2 0
19 -8 21 -30 7z"/>
<path d="M2405 164 c33 -7 67 -13 75 -12 23 1 -82 26 -110 26 -14 0 2 -6 35
-14z"/>
<path d="M2635 170 c-3 -5 -13 -6 -22 -3 -11 4 -14 3 -9 -5 9 -15 86 -16 86
-1 0 5 -4 8 -9 4 -5 -3 -12 -1 -16 5 -8 13 -22 13 -30 0z"/>
<path d="M2515 138 c11 -6 22 -14 25 -18 6 -9 111 -32 117 -27 2 3 -18 10 -44
18 -26 7 -59 19 -73 26 -31 16 -53 17 -25 1z"/>
<path d="M2845 140 c-4 -6 12 -10 42 -9 36 0 43 3 28 9 -28 12 -63 12 -70 0z"/>
<path d="M2765 120 c-4 -6 -15 -8 -26 -5 -11 4 -19 2 -19 -6 0 -8 10 -9 31 -5
17 3 43 6 57 6 30 0 27 5 -10 14 -15 3 -30 1 -33 -4z"/>
<path d="M2210 80 c51 -44 67 -52 76 -38 4 6 3 8 -3 5 -6 -4 -28 9 -51 28 -22
19 -44 35 -48 35 -5 0 7 -14 26 -30z"/>
<path d="M1166 80 c-28 -11 -57 -26 -65 -35 -19 -19 -2 -19 23 0 10 8 23 12
27 9 5 -3 19 2 31 10 26 19 42 21 32 4 -4 -7 -3 -8 5 -4 6 4 9 12 6 17 -10 16
22 10 91 -16 85 -32 94 -26 14 9 -72 31 -98 32 -164 6z"/>
<path d="M2606 71 c5 -5 25 -12 44 -15 l35 -6 -30 15 c-34 16 -64 20 -49 6z"/>
<path d="M2774 73 c4 -4 32 -13 62 -19 65 -13 59 -2 -8 15 -55 13 -64 14 -54
4z"/>
<path d="M1218 3 c29 -2 74 -2 100 0 26 2 2 3 -53 3 -55 0 -76 -1 -47 -3z"/>
</g>
</svg>
