<?xml version="1.0" standalone="no"?>
<!DOCTYPE svg PUBLIC "-//W3C//DTD SVG 20010904//EN"
 "http://www.w3.org/TR/2001/REC-SVG-20010904/DTD/svg10.dtd">
<svg version="1.0" xmlns="http://www.w3.org/2000/svg"
 width="300.000000pt" height="369.000000pt" viewBox="0 0 300.000000 369.000000"
 preserveAspectRatio="xMidYMid meet">
<metadata>
Created by potrace 1.10, written by Peter Selinger 2001-2011
</metadata>
<g transform="translate(0.000000,369.000000) scale(0.100000,-0.100000)"
fill="#000000" stroke="none">
<path d="M2063 3658 c-18 -5 -33 -11 -33 -13 0 -9 45 -5 60 5 22 14 9 18 -27
8z"/>
<path d="M1595 3631 c-3 -5 0 -13 6 -17 8 -4 9 -3 5 4 -4 7 -1 12 9 12 9 0 13
-4 10 -10 -3 -6 1 -7 12 -4 17 5 17 5 0 -6 -14 -9 -17 -19 -12 -37 3 -14 2
-22 -4 -19 -5 3 -18 -9 -30 -27 -11 -17 -21 -27 -21 -20 0 6 -12 25 -26 42
-14 17 -23 31 -19 31 4 0 1 8 -6 17 -8 10 0 7 18 -7 35 -25 54 -23 28 4 -25
24 -5 19 22 -6 18 -16 23 -18 23 -6 0 37 -58 60 -98 39 -9 -5 -39 -19 -65 -32
-48 -21 -64 -39 -53 -58 4 -6 16 -6 35 0 23 8 37 7 61 -6 27 -14 31 -20 26
-43 -5 -20 -4 -23 4 -12 7 11 10 12 10 2 0 -9 7 -11 22 -7 17 6 20 4 15 -10
-4 -9 -7 -19 -7 -21 0 -2 -7 -4 -15 -4 -8 0 -15 -4 -15 -10 0 -5 7 -10 15 -10
17 0 35 30 35 60 0 27 22 35 62 21 26 -9 35 -9 43 1 12 16 45 20 45 5 0 -6 3
-7 7 -4 3 4 -2 16 -12 27 -13 14 -22 17 -35 10 -15 -8 -17 -6 -13 10 3 11 9
17 14 14 11 -6 11 -1 3 20 -7 18 -34 22 -34 5 0 -5 5 -7 10 -4 14 9 12 -5 -5
-35 -8 -14 -14 -19 -15 -11 0 10 -3 11 -13 2 -14 -11 -27 -5 -27 13 0 6 4 4 9
-3 8 -12 11 -8 17 15 4 16 12 35 18 43 8 10 5 17 -9 27 -22 16 -41 18 -50 5z
m-85 -41 c8 -5 11 -10 7 -10 -5 0 1 -16 13 -36 29 -46 17 -57 -18 -17 -15 17
-36 36 -47 43 -19 11 -19 11 2 7 13 -3 26 0 30 5 3 6 1 8 -5 4 -6 -3 -13 -2
-17 4 -8 13 15 13 35 0z"/>
<path d="M2080 3616 c12 -16 12 -20 -7 -34 -11 -10 -25 -26 -31 -37 -8 -14
-12 -16 -12 -5 0 13 -1 13 -10 0 -6 -9 -5 -17 2 -21 19 -12 38 2 38 27 0 16 6
24 18 24 9 1 28 7 42 15 24 13 24 14 5 20 -11 4 -29 11 -40 17 -18 10 -19 10
-5 -6z"/>
<path d="M1857 3612 c13 -4 31 -14 40 -22 10 -8 27 -15 38 -15 11 0 25 -11 32
-25 9 -17 13 -20 13 -8 0 9 6 18 13 21 6 2 4 3 -5 2 -10 -2 -22 3 -29 11 -6 8
-19 14 -28 14 -10 0 -26 7 -37 15 -10 8 -28 14 -39 14 -18 -1 -18 -2 2 -7z"/>
<path d="M1402 3508 c-15 -15 -16 -32 0 -22 8 5 9 -6 5 -41 -4 -26 -7 -56 -7
-67 0 -12 -6 -19 -17 -17 -41 4 -44 0 -28 -31 9 -17 13 -40 10 -50 -3 -11 -1
-29 5 -41 11 -19 6 -27 -47 -78 -60 -58 -65 -68 -50 -88 4 -6 12 -24 16 -40 4
-15 13 -29 19 -29 7 -1 25 -2 41 -3 28 -1 29 -2 18 -31 -9 -24 -14 -27 -26
-17 -12 10 -13 9 -5 -3 10 -17 12 -35 14 -139 1 -62 -3 -80 -20 -104 -12 -16
-19 -31 -17 -34 3 -2 10 5 17 16 7 14 21 21 40 21 23 0 30 4 30 20 0 15 9 22
30 27 17 3 33 10 36 14 7 12 1 11 -32 -1 -43 -17 -66 -4 -62 35 1 19 -1 37 -5
41 -4 4 -7 26 -7 48 l1 41 14 -39 c15 -43 35 -69 35 -46 0 7 -6 21 -14 29 -26
29 -28 82 -3 131 20 40 25 45 52 42 42 -5 62 -22 41 -38 -14 -10 -13 -13 6
-30 19 -17 21 -17 15 -1 -4 9 -2 17 3 17 15 0 12 -57 -5 -73 -8 -8 -11 -17 -8
-20 3 -4 -1 -17 -9 -29 -8 -13 -18 -32 -22 -43 -14 -38 44 27 71 79 13 27 28
45 33 40 15 -16 63 -158 67 -202 5 -42 -14 -82 -39 -82 -15 0 -8 53 9 74 13
15 10 14 -10 -3 -15 -14 -27 -29 -27 -34 0 -5 -8 -16 -17 -24 -13 -9 -14 -13
-4 -11 23 5 24 -29 2 -42 -18 -9 -21 -8 -22 7 -1 10 -1 22 0 26 1 5 -3 6 -9 2
-6 -4 -8 -14 -5 -24 4 -13 -17 -36 -77 -88 -82 -69 -83 -70 -99 -49 -15 19
-17 19 -40 4 -13 -9 -37 -28 -53 -42 -38 -34 -50 -33 -75 7 l-21 32 0 -31 c0
-19 -9 -39 -24 -53 -26 -25 -41 -91 -20 -91 7 0 16 5 19 10 3 6 17 7 31 4 14
-4 24 -2 24 5 0 6 4 11 10 11 6 0 5 -10 -2 -26 -10 -21 -9 -27 3 -35 12 -7 12
-9 -1 -9 -10 0 -15 -11 -16 -33 -1 -29 0 -30 9 -9 14 31 35 29 29 -4 -2 -14
-7 -21 -11 -16 -4 6 -11 5 -18 -3 -14 -15 -8 -18 59 -30 22 -3 44 -15 53 -28
16 -23 21 -12 6 12 -7 10 -5 19 6 26 13 10 13 14 3 20 -9 5 -11 4 -6 -3 5 -8
-5 -12 -31 -12 -25 0 -33 3 -25 9 11 7 11 9 -2 14 -21 8 -20 41 1 75 l17 27
-22 -19 c-20 -17 -27 -15 -23 7 3 16 -20 47 -34 47 -8 0 -15 6 -15 13 0 8 -4
7 -11 -3 -8 -12 -9 -10 -5 10 3 14 6 30 6 36 0 7 11 9 26 6 17 -3 36 3 56 18
25 18 32 20 39 9 5 -8 9 -20 9 -28 0 -11 3 -11 15 -1 8 7 15 9 15 5 0 -4 19 9
43 29 65 57 64 56 77 41 7 -8 16 -12 21 -9 5 3 6 -2 3 -10 -3 -9 -2 -16 4 -16
14 0 20 32 11 55 -6 17 -8 17 -8 3 -1 -17 -21 -27 -21 -10 0 15 40 72 51 72 8
0 9 -4 0 -13 -8 -11 -5 -19 12 -34 12 -11 29 -24 37 -28 8 -4 0 6 -19 22 l-34
29 27 17 c15 10 24 23 20 29 -5 8 -1 9 10 5 9 -4 15 -3 12 2 -3 4 14 22 38 40
49 34 66 40 45 14 -12 -14 -12 -16 1 -9 8 5 5 -2 -7 -14 -20 -21 -20 -25 -6
-46 10 -16 12 -28 5 -40 -8 -14 -12 -12 -32 15 -12 18 -25 30 -27 27 -3 -3 6
-19 21 -36 25 -30 27 -58 4 -44 -7 4 -8 2 -4 -4 5 -8 2 -10 -8 -6 -9 3 -13 11
-9 18 3 6 3 8 -2 4 -4 -4 -15 -2 -24 4 -10 8 -8 4 3 -10 19 -22 19 -23 -8 -51
-24 -25 -36 -29 -108 -34 -61 -5 -91 -13 -124 -32 -24 -14 -44 -30 -44 -35 0
-10 27 -3 46 11 6 5 13 6 17 3 3 -3 16 1 29 9 24 16 250 52 272 44 15 -6 58
28 48 38 -4 5 2 5 13 1 14 -5 17 -4 9 4 -13 13 -46 2 -37 -13 4 -7 0 -8 -12
-3 -10 3 -34 1 -52 -5 -27 -9 -37 -8 -46 1 -9 10 -9 11 0 6 7 -4 33 10 59 29
32 25 54 35 68 31 38 -9 49 8 22 33 -14 13 -29 20 -35 17 -12 -8 -53 33 -45
46 8 13 24 9 24 -6 0 -8 3 -17 8 -19 4 -3 7 16 7 43 0 26 -3 46 -7 43 -5 -2
-8 11 -8 31 0 19 -3 43 -7 53 -6 16 -5 16 10 4 15 -12 17 -11 17 7 0 11 6 22
13 25 10 4 10 7 0 18 -11 11 -13 10 -13 -4 0 -19 -15 -23 -25 -7 -4 6 -11 8
-16 5 -5 -4 -9 0 -9 7 0 7 10 18 22 23 26 12 39 49 14 39 -9 -3 -14 -10 -11
-14 3 -5 1 -12 -5 -15 -6 -4 -9 -1 -8 6 2 6 -2 13 -9 16 -7 3 -10 -4 -7 -19 5
-20 4 -21 -6 -5 -6 9 -8 27 -5 38 5 15 4 19 -4 15 -15 -10 -14 17 1 32 9 9 6
12 -14 12 -20 0 -44 20 -102 84 -87 95 -106 133 -108 214 -2 92 25 116 36 32
8 -63 21 -65 21 -4 0 36 -4 48 -21 57 -19 11 -20 15 -8 62 6 28 12 41 13 31 1
-18 2 -18 20 -2 11 10 20 13 22 7 2 -6 10 -2 17 9 11 19 10 20 -23 20 -38 0
-46 13 -17 29 9 6 12 11 5 11 -6 0 -17 2 -25 5 -7 3 -19 0 -26 -7z m3 -408
c-3 -6 1 -10 9 -10 9 0 16 -4 16 -10 0 -5 -7 -10 -15 -10 -8 0 -15 -6 -15 -14
0 -7 -6 -18 -12 -23 -16 -13 -90 -4 -82 9 3 5 1 15 -6 23 -16 19 22 39 58 31
21 -5 23 -4 12 4 -13 9 -12 12 5 25 17 14 20 13 28 0 4 -8 5 -20 2 -25z m-72
-641 c-8 -8 -17 -8 -34 1 -22 12 -22 13 -4 26 16 12 21 12 34 -1 11 -11 12
-18 4 -26z"/>
<path d="M2054 3499 c-19 -22 -19 -22 2 -9 33 21 73 5 90 -35 8 -19 19 -35 24
-35 15 0 12 -36 -5 -50 -8 -7 -15 -19 -15 -28 0 -8 16 5 35 29 32 40 33 44 15
47 -22 4 -53 43 -48 61 2 9 -51 37 -78 41 0 0 -9 -10 -20 -21z"/>
<path d="M1880 3492 c0 -5 17 -14 37 -20 31 -9 34 -9 22 2 -18 18 -59 30 -59
18z"/>
<path d="M2290 3414 c-6 -14 -10 -29 -10 -34 0 -5 -15 -20 -32 -34 -18 -14
-28 -26 -23 -26 17 1 52 35 69 69 14 26 21 31 39 25 19 -6 20 -5 8 10 -20 23
-40 20 -51 -10z"/>
<path d="M1652 3414 c-32 -22 -27 -35 8 -17 17 8 28 19 25 24 -8 12 -7 12 -33
-7z"/>
<path d="M2488 3413 c-15 -10 -30 -23 -33 -31 -3 -8 6 -5 21 7 15 12 33 21 40
21 8 0 14 5 14 10 0 14 -11 12 -42 -7z"/>
<path d="M1462 3368 c-25 -25 -13 -38 37 -38 27 0 51 4 53 10 2 6 16 3 33 -6
38 -21 87 -19 122 3 l26 17 -6 -44 c-4 -27 -3 -39 2 -30 16 28 20 100 6 100
-7 0 -17 -6 -23 -12 -15 -18 -248 -16 -237 2 8 14 2 13 -13 -2z"/>
<path d="M2795 3327 c-43 -14 -115 -66 -115 -82 0 -8 -13 -21 -28 -29 -28 -14
-72 -100 -58 -113 3 -3 8 3 11 13 18 57 35 83 57 86 15 2 24 11 26 25 5 37
132 117 147 93 4 -6 14 -5 27 3 16 9 22 9 25 0 3 -7 11 -13 19 -13 8 0 17 -7
20 -15 4 -8 13 -15 22 -15 10 0 7 8 -12 25 -15 14 -30 26 -34 26 -30 6 -82 4
-107 -4z"/>
<path d="M1551 3311 c-11 -19 -11 -25 0 -32 15 -9 23 9 17 39 -3 14 -6 13 -17
-7z"/>
<path d="M1619 3283 c13 -26 17 -25 -69 -28 -36 -1 -72 3 -80 9 -13 10 -13 9
-1 -6 10 -14 11 -21 2 -31 -20 -25 2 -27 34 -3 26 20 34 22 48 11 9 -7 17 -17
17 -24 0 -6 4 -11 9 -11 12 0 32 26 25 32 -2 3 2 8 10 11 10 4 26 -9 47 -38
18 -25 34 -45 35 -45 10 0 -33 82 -58 110 -18 21 -26 26 -19 13z"/>
<path d="M1674 3265 c4 -35 18 -42 37 -18 12 14 12 16 0 8 -11 -6 -13 -4 -8 8
3 9 2 19 -3 22 -6 4 -10 0 -10 -7 0 -9 -3 -9 -10 2 -7 11 -8 7 -6 -15z"/>
<path d="M1596 3181 c-3 -5 -23 -7 -44 -4 -33 4 -38 1 -49 -23 -16 -34 -9 -43
15 -21 23 21 52 22 52 2 0 -11 5 -10 22 7 l21 21 27 -33 c25 -30 27 -31 25
-10 -2 24 -37 70 -54 70 -5 0 -12 -4 -15 -9z"/>
<path d="M1753 3170 c8 -12 13 -29 10 -39 -3 -10 3 -33 11 -50 9 -17 12 -31 7
-31 -5 0 -14 12 -20 28 -7 15 -18 38 -25 50 -13 23 -14 23 -20 -20 -3 -23 -7
-58 -9 -76 -5 -52 -57 -85 -57 -35 0 9 -6 13 -14 10 -7 -3 -18 -1 -23 4 -7 7
-12 5 -16 -4 -3 -8 6 -24 21 -37 16 -15 27 -19 30 -12 2 7 8 10 13 7 16 -10
50 16 61 46 7 21 16 29 35 29 20 0 23 -4 18 -22 -6 -21 -4 -21 19 5 14 15 26
35 26 43 0 9 5 12 12 8 7 -5 9 -2 5 8 -3 9 -1 20 5 26 22 22 -13 56 -81 77
-23 7 -23 6 -8 -15z"/>
<path d="M650 3111 c0 -7 97 -61 120 -66 6 -1 94 -41 133 -61 29 -14 47 -11
47 7 0 5 -8 9 -17 9 -10 0 -56 16 -103 36 -47 19 -94 38 -105 41 -11 3 -32 15
-47 25 -16 11 -28 15 -28 9z"/>
<path d="M1904 3075 c-4 -8 -11 -12 -17 -8 -6 3 -7 1 -3 -5 4 -7 1 -12 -6 -12
-7 0 -23 -16 -36 -35 -14 -22 -29 -35 -40 -33 -9 2 -17 -3 -18 -9 -1 -7 -2
-18 -3 -24 0 -5 -5 -7 -11 -4 -5 3 -10 -1 -10 -9 0 -23 17 -20 31 5 11 21 11
20 31 -12 17 -28 21 -31 30 -16 5 9 13 17 19 17 13 0 -7 -37 -40 -75 -18 -21
-14 -19 14 8 23 20 45 37 50 37 6 -1 26 -14 45 -31 l35 -30 -32 -27 c-17 -15
-43 -35 -58 -45 -14 -11 -39 -36 -54 -58 -28 -38 -29 -38 -46 -19 -19 21 -45
27 -45 9 0 -5 -5 -7 -12 -3 -8 5 -1 12 20 21 28 12 31 16 22 33 -13 25 -22 26
-13 3 6 -16 5 -16 -10 -4 -15 12 -17 11 -17 -3 0 -10 -4 -14 -10 -11 -6 4 -7
-1 -3 -11 4 -11 3 -15 -5 -10 -6 3 -14 2 -17 -4 -4 -6 -3 -10 2 -9 20 3 25 -2
13 -16 -15 -18 -6 -61 16 -69 24 -9 50 9 122 85 65 70 145 136 112 93 -15 -20
-40 -61 -40 -67 0 -2 7 -4 15 -4 8 0 12 4 9 9 -3 5 5 25 18 46 12 20 22 40 20
45 -1 4 3 7 8 7 21 0 8 16 -33 42 -23 15 -55 40 -71 57 -32 33 -52 41 -42 16
6 -17 -9 -21 -19 -5 -3 5 12 28 33 49 22 22 37 42 35 45 -3 3 2 12 11 21 9 9
16 21 16 26 0 14 -10 11 -16 -6z m-137 -382 c-4 -3 -2 -12 4 -20 6 -7 10 -13
8 -14 -42 -8 -45 -6 -33 25 3 9 11 16 17 16 6 0 7 -3 4 -7z"/>
<path d="M1125 3070 c-33 -5 -37 -8 -20 -15 11 -4 24 -10 29 -13 5 -3 6 1 1 9
-8 12 -6 12 8 0 9 -7 17 -22 17 -31 0 -10 4 -20 8 -22 5 -1 12 -16 16 -31 4
-16 3 -26 -2 -23 -11 6 -57 -84 -53 -104 2 -8 0 -12 -4 -8 -4 4 -24 -2 -43
-13 -20 -10 -47 -19 -59 -19 -12 0 -24 -4 -27 -9 -3 -4 13 -5 37 0 58 11 61
11 47 -6 -9 -11 -32 -15 -79 -15 -36 0 -73 -5 -81 -11 -13 -9 -13 -10 2 -6 9
3 18 1 20 -5 3 -9 17 -8 50 1 54 15 76 8 56 -17 -12 -15 -11 -16 4 -4 9 8 27
33 38 57 14 28 26 42 35 39 8 -3 21 6 31 20 13 21 20 24 30 15 8 -6 11 -15 9
-20 -3 -4 0 -11 7 -16 7 -4 14 -17 15 -28 1 -17 -2 -17 -22 8 -24 27 -45 35
-45 17 0 -5 5 -10 10 -10 6 0 23 -14 39 -32 29 -33 51 -32 51 3 0 10 -8 27
-17 37 -10 10 -26 35 -36 55 -16 34 -16 40 -2 67 9 17 20 30 25 30 5 0 7 7 4
15 -4 8 -1 15 5 15 6 0 11 -4 11 -9 0 -5 8 -11 18 -13 14 -4 18 1 20 21 2 25
0 27 -33 23 -24 -3 -35 -9 -35 -21 0 -9 -5 -23 -11 -31 -8 -11 -9 -7 -5 19 5
25 1 40 -11 54 -18 19 -17 19 30 12 29 -5 47 -4 47 3 0 22 -51 27 -135 12z"/>
<path d="M1932 3056 c-20 -26 -23 -36 -8 -30 9 3 15 9 14 12 -2 19 3 26 11 14
4 -7 5 -31 1 -52 -7 -39 3 -77 12 -49 3 8 8 -1 12 -18 11 -49 26 -40 26 17 0
40 -4 51 -21 60 -33 18 -16 22 24 5 21 -9 38 -11 42 -5 3 5 -10 12 -30 16 -19
3 -35 12 -35 19 0 17 -37 26 -48 11z"/>
<path d="M1073 3055 c8 -9 -43 -46 -54 -40 -4 3 -13 -3 -20 -13 -7 -9 -10 -14
-5 -10 5 4 15 0 24 -9 14 -14 17 -14 27 1 8 11 15 12 22 5 15 -15 30 -4 35 26
4 19 0 29 -16 37 -11 6 -18 7 -13 3z"/>
<path d="M1420 3020 c-19 -19 -29 -57 -12 -46 5 3 14 -11 21 -30 9 -25 18 -34
34 -33 15 0 17 2 7 6 -25 9 -40 35 -40 71 0 18 4 31 8 28 5 -3 9 1 9 9 0 19
-3 19 -27 -5z"/>
<path d="M2600 3012 c0 -4 4 -12 9 -17 15 -15 16 -88 2 -112 -6 -13 -21 -23
-33 -23 -21 0 -21 0 -2 -14 17 -13 20 -12 32 10 7 13 16 24 21 24 4 0 8 27 8
60 1 49 -3 62 -18 71 -10 5 -19 6 -19 1z"/>
<path d="M2010 2979 c0 -5 12 -14 26 -19 25 -10 26 -13 20 -60 -4 -32 -3 -50
4 -50 6 0 10 25 10 59 0 57 -1 59 -30 70 -19 6 -30 6 -30 0z"/>
<path d="M960 2943 c-12 -21 -32 -56 -45 -78 -25 -41 -33 -85 -15 -85 6 0 10
4 10 8 0 5 15 7 33 5 l32 -3 -32 12 c-17 7 -35 17 -40 22 -5 5 -3 6 5 2 8 -5
19 -1 27 10 13 18 14 18 20 2 5 -12 18 -18 37 -18 17 0 27 4 23 10 -3 5 0 7 8
4 19 -7 24 19 16 76 -4 29 -7 36 -9 20 -2 -21 -4 -19 -9 10 -9 49 -35 51 -61
3z m20 -12 c-15 -29 -12 -38 5 -15 13 16 16 17 25 4 20 -30 -4 -49 -34 -27
-15 11 -17 17 -7 35 6 12 14 22 17 22 2 0 0 -9 -6 -19z m5 -61 c28 -11 26 -30
-3 -30 -15 0 -15 2 -2 10 12 8 9 10 -12 10 -16 0 -28 5 -28 10 0 13 12 13 45
0z"/>
<path d="M1228 2949 c-24 -14 -23 -39 2 -39 16 0 40 26 40 44 0 9 -23 6 -42
-5z"/>
<path d="M2080 2950 c0 -5 9 -10 20 -10 24 0 26 -22 5 -44 -17 -17 -20 -41 -4
-31 11 7 6 -51 -5 -62 -3 -3 -23 4 -46 15 -47 23 -36 3 17 -29 l35 -22 24 29
c50 59 56 72 49 104 -4 16 -10 28 -15 25 -4 -3 -10 3 -12 13 -5 19 -68 30 -68
12z m62 -103 c-8 -33 -22 -2 -15 34 6 32 7 33 13 9 4 -14 4 -33 2 -43z"/>
<path d="M1410 2924 c0 -6 9 -19 20 -29 24 -22 25 -33 3 -57 -9 -10 -13 -21
-10 -24 3 -4 15 9 26 27 20 32 20 33 1 46 -11 8 -24 21 -29 31 -6 9 -11 12
-11 6z"/>
<path d="M1102 2895 c-18 -38 -15 -41 13 -15 28 26 32 40 12 40 -8 0 -19 -11
-25 -25z"/>
<path d="M1767 2888 c-3 -11 0 -21 9 -25 11 -4 11 -7 -2 -20 -8 -9 -22 -26
-31 -39 -8 -13 -20 -21 -26 -17 -6 4 -7 1 -3 -6 6 -9 12 -8 26 4 11 10 24 14
31 9 8 -5 10 -3 4 5 -4 8 5 25 23 44 l31 32 -29 17 c-27 15 -28 15 -33 -4z"/>
<path d="M2455 2858 c-37 -27 -45 -39 -38 -52 4 -5 10 0 14 12 8 21 72 58 86
49 5 -3 15 -2 23 4 11 6 5 9 -20 9 -20 -1 -48 -10 -65 -22z"/>
<path d="M1275 2788 c9 -16 24 -28 33 -28 12 0 10 -6 -9 -27 -13 -14 -17 -22
-9 -17 8 5 20 9 25 9 6 0 11 10 13 23 2 13 -2 22 -9 22 -7 0 -24 10 -37 23
l-25 22 18 -27z"/>
<path d="M1148 2791 c17 -21 15 -30 -6 -24 -25 6 -67 -29 -59 -51 4 -9 15 -19
24 -23 10 -4 21 -11 25 -17 5 -7 8 -6 8 2 0 22 35 61 47 54 25 -16 25 -60 0
-111 -13 -28 -21 -51 -17 -51 14 0 70 70 70 87 0 12 11 7 38 -20 21 -20 46
-37 55 -37 20 0 162 70 192 95 19 16 19 16 -3 5 -20 -10 -26 -8 -38 7 -7 10
-14 13 -14 6 0 -6 5 -15 11 -19 14 -8 -83 -64 -111 -64 -25 0 -101 37 -97 48
1 4 -1 7 -5 7 -4 0 -36 27 -70 60 -35 33 -57 53 -50 46z m-3 -60 c0 -8 -8 -19
-17 -25 -22 -13 -44 5 -34 29 7 20 51 16 51 -4z"/>
<path d="M1484 2789 c-4 -8 -3 -9 4 -5 7 4 14 -3 18 -19 7 -27 11 -29 34 -15
12 7 12 13 4 27 -13 22 -49 29 -60 12z"/>
<path d="M873 2741 c-3 -11 -11 -17 -19 -14 -7 2 -19 1 -25 -3 -9 -5 -5 -10
10 -16 12 -4 19 -12 16 -18 -4 -6 -10 -8 -15 -5 -4 3 -16 -7 -25 -22 -16 -24
-16 -27 -2 -38 11 -8 13 -15 6 -22 -5 -5 -13 -23 -18 -41 -8 -25 -7 -30 5 -25
8 3 14 0 14 -6 0 -10 -65 -43 -74 -38 -8 4 -45 -36 -41 -44 3 -4 -6 -16 -20
-27 -14 -11 -25 -23 -25 -26 0 -16 24 -1 78 49 79 73 113 73 93 1 -9 -34 -9
-35 35 -53 24 -10 44 -22 44 -26 0 -4 9 -3 21 3 28 16 70 -11 62 -40 -3 -11
-9 -23 -14 -26 -11 -7 -12 -44 -1 -44 5 0 17 9 26 19 13 15 15 24 7 39 -12 22
-2 39 66 116 56 62 69 86 49 86 -8 0 -38 -30 -67 -66 -37 -46 -55 -62 -62 -55
-8 8 -1 20 23 42 l35 30 -38 -27 c-27 -20 -36 -32 -32 -45 9 -28 -7 -23 -40
11 -16 17 -36 30 -44 30 -11 -1 -6 -9 14 -26 l30 -26 -30 7 c-38 8 -43 13 -47
47 -2 15 -7 30 -11 34 -13 14 -7 24 16 24 20 0 19 2 -10 21 -33 21 -36 39 -7
39 8 0 32 -9 54 -20 49 -25 81 -25 111 -1 17 14 29 17 41 10 10 -5 18 -13 18
-17 0 -11 -61 -46 -90 -52 -18 -4 -26 -12 -28 -33 l-3 -27 24 22 c13 13 47 35
75 50 29 16 52 34 52 41 0 7 -16 21 -35 30 -19 9 -35 13 -35 9 0 -4 -13 -16
-30 -25 -29 -17 -31 -17 -75 2 -27 12 -45 26 -45 37 0 10 5 14 15 10 9 -3 15
0 15 9 0 17 -34 7 -84 -26 -30 -20 -30 -20 4 10 27 24 30 31 16 31 -14 0 -16
3 -7 13 6 8 7 17 3 22 -4 4 15 5 41 1 28 -3 92 -27 148 -55 54 -28 99 -48 99
-45 0 20 -123 99 -139 89 -5 -3 -7 4 -4 15 8 29 17 32 39 11 13 -12 26 -15 39
-10 13 5 15 8 5 8 -11 1 -12 3 -2 9 8 5 -7 14 -41 25 -63 20 -67 20 -67 6 0
-6 7 -8 16 -5 9 4 14 1 12 -6 -2 -6 -23 -13 -46 -15 -32 -3 -42 -1 -42 11 0 8
-6 16 -12 19 -7 2 0 4 16 4 19 0 24 -2 15 -8 -8 -5 -9 -9 -4 -9 6 0 16 4 24 9
10 7 4 12 -22 22 -20 7 -34 16 -31 21 3 4 0 8 -6 8 -7 0 -14 -9 -17 -19z"/>
<path d="M2073 2747 c3 -9 11 -34 17 -56 12 -44 30 -64 30 -33 0 26 -27 89
-42 98 -7 5 -9 2 -5 -9z"/>
<path d="M625 2739 c-16 -5 -54 -11 -84 -14 -77 -8 -116 -29 -127 -68 -8 -27
-16 -33 -59 -42 l-50 -12 57 1 56 0 6 37 c3 20 11 41 18 47 20 16 88 26 88 13
0 -7 9 -5 25 5 14 9 32 14 40 10 9 -3 32 3 53 14 38 21 28 25 -23 9z"/>
<path d="M1974 2640 c2 -34 -2 -66 -11 -85 l-14 -30 20 25 c11 14 21 32 21 40
0 13 1 13 10 0 8 -13 10 -13 10 0 0 11 3 11 12 2 19 -19 30 -14 18 8 -6 11
-15 18 -19 15 -10 -5 -36 30 -44 60 -4 11 -5 -5 -3 -35z"/>
<path d="M1093 2661 c-20 -32 8 -43 43 -16 18 14 17 14 -11 4 -24 -8 -28 -8
-17 2 6 7 12 17 12 21 0 14 -15 8 -27 -11z"/>
<path d="M1800 2615 c-13 -16 -4 -39 11 -29 6 3 13 -3 16 -14 3 -13 11 -18 19
-15 16 6 19 -13 4 -22 -5 -3 -10 -11 -10 -16 0 -6 5 -7 10 -4 6 3 10 -1 10
-10 0 -9 -3 -15 -7 -13 -5 2 -25 12 -45 21 -44 20 -49 29 -12 23 19 -4 25 -1
22 11 -5 29 -25 25 -61 -11 -37 -37 -38 -53 -3 -34 20 11 20 10 6 -8 -14 -18
-14 -18 6 -1 27 23 37 22 71 -7 l29 -25 3 44 c1 33 -5 54 -24 85 -29 45 -28
45 -45 25z"/>
<path d="M2090 2590 c7 -14 7 -20 0 -20 -15 0 -12 -36 4 -49 10 -9 16 -8 26 4
10 12 16 13 29 3 8 -7 -2 8 -23 35 -41 50 -53 60 -36 27z"/>
<path d="M2000 2505 c-10 -12 -9 -20 4 -41 23 -33 41 -26 41 17 0 38 -23 51
-45 24z"/>
<path d="M1885 2473 c6 -28 52 -113 60 -113 5 0 -29 91 -46 121 -14 28 -22 23
-14 -8z"/>
<path d="M1956 2465 c3 -22 7 -51 8 -65 4 -38 5 -39 26 -50 17 -9 19 -8 13 7
-3 10 -10 24 -16 30 -12 17 18 29 36 15 6 -6 23 -12 37 -14 31 -4 58 -52 41
-72 -9 -10 -8 -15 5 -20 14 -5 14 -9 3 -23 -12 -15 -12 -16 4 -10 30 11 19
-17 -15 -37 -28 -17 -31 -17 -25 -3 7 18 -8 24 -18 7 -3 -5 -14 -10 -23 -10
-21 0 -48 -17 -41 -25 3 -3 20 0 38 6 22 8 36 8 43 1 6 -6 26 2 60 24 27 19
54 34 59 34 5 0 9 4 9 9 0 4 -9 8 -20 7 -13 -1 -28 11 -41 31 l-21 32 28 26
27 25 -26 0 c-15 0 -49 9 -77 19 -28 11 -58 17 -68 14 -13 -3 -22 7 -35 39
l-17 43 6 -40z"/>
<path d="M2085 2470 c4 -8 15 -23 23 -32 7 -9 11 -22 7 -27 -4 -7 3 -11 17
-11 18 0 20 2 8 10 -12 8 -12 10 -1 10 10 0 11 3 2 13 -6 8 -8 16 -5 19 3 3 0
9 -7 14 -8 4 -10 3 -5 -4 11 -18 -5 -14 -27 6 -15 12 -18 13 -12 2z"/>
<path d="M1815 2448 c-2 -7 -5 -24 -7 -37 -3 -26 -28 -42 -28 -19 0 24 -44 58
-74 58 -27 0 -28 -1 -22 -47 7 -51 -7 -93 -33 -101 -10 -3 -12 0 -7 14 15 37
19 84 8 84 -7 0 -9 -7 -5 -17 4 -11 3 -14 -5 -9 -10 6 -15 -9 -11 -40 1 -11
-35 -32 -48 -27 -7 3 -13 -2 -13 -11 0 -9 6 -16 13 -17 119 -4 229 -19 248
-33 28 -19 46 -21 30 -3 -8 10 -7 17 1 25 7 7 8 12 2 12 -5 0 -14 -4 -20 -10
-6 -6 -27 -4 -58 5 -27 8 -61 15 -76 15 -37 0 -40 6 -23 41 8 17 13 41 10 55
-3 19 -1 24 11 19 12 -4 13 -3 2 10 -21 25 0 17 37 -15 34 -30 61 -38 79 -21
5 5 20 11 33 13 14 1 26 9 29 17 3 9 -1 11 -16 7 -16 -5 -21 -2 -24 15 -3 26
-26 37 -33 17z"/>
<path d="M1484 2389 c-16 -17 -46 -44 -67 -59 l-37 -28 79 -7 c44 -4 85 -4 91
0 7 4 10 20 8 36 -3 20 0 29 9 29 7 0 13 -5 13 -11 0 -8 4 -8 14 0 15 12 16
28 3 49 -10 15 -27 16 -27 1 0 -5 4 -8 9 -4 5 3 12 1 16 -5 3 -5 -9 -9 -30 -8
-25 1 -33 4 -25 12 15 15 12 26 -8 26 -10 0 -31 -14 -48 -31z m51 -54 c17 -14
18 -17 5 -25 -27 -17 -60 -12 -60 9 0 11 -4 22 -9 25 -5 4 -7 -3 -4 -14 4 -17
0 -20 -23 -20 l-29 1 33 29 c34 32 40 31 87 -5z"/>
<path d="M740 2382 c0 -13 9 -22 26 -26 14 -4 37 -19 50 -33 19 -21 23 -22 18
-7 -4 10 -11 25 -17 32 -6 8 -6 12 1 12 5 0 13 -7 16 -16 3 -8 11 -12 17 -8 8
4 9 3 5 -5 -4 -6 -4 -26 -1 -43 l7 -32 19 35 c22 41 25 64 3 29 l-15 -25 5 25
c4 20 -2 29 -31 48 -19 13 -50 26 -69 29 -29 5 -34 3 -34 -15z"/>
<path d="M642 2372 c-10 -7 -52 -78 -52 -90 0 -2 4 0 10 3 5 3 8 0 5 -7 -3 -7
4 -24 15 -38 l19 -25 -5 25 c-5 25 -4 25 7 2 10 -18 9 -35 -5 -85 -10 -34 -22
-73 -28 -87 -5 -14 -9 -26 -9 -28 1 -1 -16 -18 -36 -37 -27 -25 -32 -35 -20
-35 20 0 22 -21 5 -38 -6 -6 -9 -14 -6 -17 10 -11 40 8 49 32 6 17 14 22 31
19 13 -3 35 -7 51 -11 18 -4 32 -16 41 -38 14 -30 14 -31 16 -7 l1 25 19 -24
c13 -14 20 -18 21 -10 0 8 4 5 9 -6 6 -15 9 -16 9 -4 1 8 -9 25 -21 37 -27 25
-111 62 -141 62 -12 0 -29 5 -37 10 -12 8 -9 10 13 10 15 0 27 5 27 11 0 15
26 39 43 39 8 0 31 -11 51 -25 20 -14 41 -25 46 -25 13 0 22 -37 15 -62 l-6
-23 13 22 c12 21 14 16 13 -46 0 -66 -1 -68 -20 -56 -28 18 -194 55 -243 55
-23 0 -44 -5 -48 -12 -5 -8 -1 -9 12 -5 14 5 11 0 -8 -17 -16 -14 -28 -28 -28
-31 0 -13 30 -3 54 20 31 29 60 31 136 10 30 -9 61 -16 68 -17 7 -1 15 -12 18
-25 4 -15 13 -23 28 -23 38 0 49 15 42 52 -4 22 -1 48 9 72 9 20 13 41 9 47
-3 5 6 19 21 30 18 15 24 27 20 40 -5 13 -2 19 10 19 10 0 14 -5 9 -12 -3 -7
8 3 25 22 17 19 31 38 31 43 0 4 7 7 16 7 21 0 53 40 54 66 0 24 -25 62 -35
52 -4 -3 -2 -15 4 -26 6 -12 11 -31 10 -44 -1 -18 -3 -16 -13 12 -17 50 -54
128 -65 135 -12 7 -25 -31 -15 -46 5 -8 3 -9 -6 -4 -9 6 -10 2 -5 -15 6 -18 4
-22 -8 -17 -12 4 -14 2 -10 -10 4 -11 2 -14 -5 -9 -7 4 -12 2 -12 -3 0 -17 14
-13 40 11 24 22 55 34 44 17 -3 -5 0 -9 5 -9 17 0 13 -56 -5 -71 -9 -7 -13
-21 -10 -33 5 -21 5 -21 -10 -1 -8 11 -12 25 -9 33 2 7 0 10 -5 7 -6 -3 -10
-13 -10 -21 0 -8 -4 -14 -9 -14 -6 0 -6 -12 -1 -30 5 -19 5 -28 -1 -25 -5 4
-9 13 -9 21 0 8 -4 14 -9 14 -9 0 -51 -100 -51 -121 0 -20 -24 -3 -31 22 -4
13 -7 21 -8 17 -1 -5 -116 45 -129 57 -3 3 27 55 38 65 3 3 7 14 8 25 5 27 7
28 31 15 12 -6 21 -8 21 -6 0 7 -61 40 -75 41 -5 1 -9 6 -7 13 1 7 -2 12 -7
12 -15 0 -22 32 -10 46 6 8 9 20 6 29 -4 8 -1 17 5 21 6 4 8 3 4 -4 -3 -6 -2
-13 4 -17 16 -10 24 23 10 40 -14 17 -20 18 -38 7z"/>
<path d="M1408 2359 c-10 -5 -18 -7 -18 -3 0 3 -7 1 -15 -6 -8 -7 -15 -16 -15
-21 0 -17 27 -9 50 16 25 27 25 30 -2 14z"/>
<path d="M742 2337 c-12 -14 -34 -67 -28 -67 2 0 15 18 30 40 24 37 23 57 -2
27z"/>
<path d="M1894 2318 c2 -13 -3 -32 -10 -43 -10 -16 -10 -23 0 -37 10 -14 10
-33 -2 -100 -21 -117 -31 -126 -110 -88 -30 15 -61 20 -117 20 -74 0 -133 20
-120 40 3 5 0 12 -7 16 -7 4 -10 4 -6 -1 4 -4 3 -14 -2 -20 -16 -19 15 -38 74
-46 135 -18 156 -23 156 -33 0 -6 4 -5 9 3 6 9 11 10 15 2 4 -6 24 -11 44 -11
31 0 41 5 55 29 9 16 17 41 17 55 0 18 5 26 18 26 12 0 13 3 5 8 -7 4 -12 29
-12 57 0 28 -1 57 -1 65 -2 18 7 56 15 70 3 6 -1 10 -9 10 -11 0 -15 -7 -12
-22z"/>
<path d="M1496 2263 c-4 -10 1 -28 13 -44 18 -24 18 -27 3 -43 -12 -11 -13
-19 -5 -27 8 -8 13 -7 18 2 6 8 4 10 -5 4 -8 -5 -11 -3 -8 6 5 16 58 23 58 8
0 -6 5 -7 11 -3 8 4 9 -1 4 -17 -5 -19 -4 -21 4 -9 9 12 11 11 11 -8 0 -16 -4
-21 -12 -16 -7 4 -10 4 -6 -1 4 -4 3 -14 -3 -22 -7 -8 -8 -13 -1 -13 20 0 34
30 28 61 -5 27 -3 30 17 27 18 -2 23 -11 29 -48 l6 -45 -2 48 -1 49 35 -6 c90
-14 101 -14 50 -1 -30 8 -77 14 -105 13 -41 -2 -51 1 -53 16 -2 10 -9 15 -18
12 -13 -5 -19 6 -15 27 1 5 -3 6 -9 2 -5 -3 -10 2 -11 12 0 16 -1 16 -8 -1 -5
-14 -10 -16 -15 -7 -4 6 -2 18 4 26 7 9 8 15 2 15 -5 0 -13 -8 -16 -17z"/>
<path d="M1453 2231 c-3 -12 -14 -18 -35 -19 -43 -1 -48 -12 -6 -12 20 0 51
-3 69 -6 32 -6 33 -6 14 9 -11 8 -24 13 -28 10 -5 -3 -6 4 -2 16 3 11 3 21 0
21 -4 0 -9 -8 -12 -19z"/>
<path d="M2146 2200 c-32 -34 -46 -58 -46 -77 0 -22 -2 -25 -10 -13 -6 9 -10
10 -10 3 0 -6 5 -15 11 -18 15 -10 40 26 34 51 -3 13 4 29 19 43 l23 22 7 -31
c3 -18 10 -29 16 -25 6 4 10 -6 10 -24 0 -16 4 -32 8 -35 5 -3 9 -29 9 -58 1
-40 0 -46 -6 -23 -4 20 -8 25 -12 15 -9 -24 9 -75 36 -102 l25 -26 -25 -6
c-27 -7 -35 -26 -10 -26 8 0 15 -3 15 -7 0 -5 14 -8 30 -9 17 -1 30 0 30 2 0
2 -12 40 -26 85 -15 47 -27 109 -27 146 -1 34 -5 63 -9 63 -3 0 -9 15 -13 33
-11 52 -16 67 -24 67 -5 0 -29 -22 -55 -50z"/>
<path d="M1094 2186 c-35 -15 -67 -54 -57 -69 3 -6 1 -7 -5 -3 -12 7 -26 -29
-17 -44 3 -5 14 -10 23 -10 13 0 13 -3 -4 -15 -27 -18 -36 -42 -74 -187 -23
-88 -29 -129 -25 -166 4 -34 2 -53 -6 -58 -9 -5 -10 0 -5 20 4 15 2 26 -4 26
-5 0 -10 14 -10 30 0 39 -26 90 -46 90 -8 0 -12 -5 -9 -10 4 -6 11 -8 16 -5
12 8 11 -16 -1 -35 -8 -13 -10 -12 -10 3 0 9 -6 17 -12 18 -7 0 -21 2 -30 4
-14 3 -18 -4 -18 -30 0 -19 -4 -36 -9 -39 -18 -11 -40 6 -45 35 -20 102 -17
95 -30 70 -9 -16 -10 -41 -4 -87 17 -122 -30 -136 -71 -21 -12 36 -33 74 -45
86 -30 28 -45 27 -20 -1 35 -40 56 -104 32 -96 -7 3 -19 -2 -27 -9 -19 -20
-21 -13 -11 32 9 38 6 55 -6 42 -3 -3 -8 -23 -11 -44 -4 -29 -1 -44 12 -56 20
-21 13 -22 -25 -2 -27 14 -30 14 -30 0 0 -8 12 -21 28 -27 15 -7 42 -23 60
-36 25 -19 35 -22 46 -13 7 6 20 9 28 6 8 -3 21 1 28 10 7 8 20 15 29 15 9 0
34 22 54 49 l37 49 40 -10 c35 -9 40 -14 34 -32 -9 -30 -32 -74 -70 -133 -19
-29 -31 -53 -29 -53 3 0 21 6 40 14 24 10 41 29 59 63 14 26 34 61 45 77 l19
29 5 -24 c2 -13 2 -1 -1 26 -9 81 -5 112 22 169 14 30 26 65 26 78 0 25 30 80
63 116 27 29 11 29 -22 0 -24 -21 -24 -21 1 8 20 21 25 33 17 41 -15 15 61 73
97 73 l28 0 -24 -17 c-14 -10 -28 -18 -32 -18 -3 0 -10 -3 -14 -7 -14 -14 21
-8 40 7 24 18 73 20 79 3 3 -10 7 -10 20 0 9 8 22 10 29 6 7 -4 24 -7 38 -7
14 1 54 -13 90 -30 58 -29 74 -44 157 -150 51 -65 93 -114 93 -109 0 5 -7 15
-15 22 -17 14 -21 35 -5 25 6 -3 1 10 -11 29 -12 20 -25 34 -29 31 -4 -3 -14
3 -21 13 -13 16 -13 16 5 2 18 -14 19 -13 14 1 -4 9 -1 23 5 30 10 11 9 11 -5
0 -15 -11 -18 -11 -18 1 0 8 6 20 13 28 6 8 3 7 -9 -3 -11 -9 -24 -17 -29 -17
-5 0 -32 24 -60 53 -52 53 -128 89 -214 101 -19 3 -37 10 -41 16 -7 11 -92 40
-114 40 -6 -1 -25 -7 -42 -14z m-450 -522 c3 -9 6 -27 6 -40 0 -18 -5 -24 -22
-24 -19 0 -20 2 -8 10 13 8 12 10 -2 10 -21 0 -24 30 -6 48 16 16 25 15 32 -4z"/>
<path d="M780 2161 c0 -6 12 -23 28 -39 l27 -28 25 29 c23 29 23 29 2 18 -19
-10 -27 -9 -52 9 -17 12 -30 17 -30 11z"/>
<path d="M1960 2150 c0 -14 -3 -36 -6 -50 l-5 -25 15 27 c12 19 13 33 7 50
l-10 23 -1 -25z"/>
<path d="M2021 2098 c-12 -19 -11 -23 4 -34 15 -11 15 -13 -2 -23 -19 -11 -19
-11 27 -15 9 0 15 -10 14 -23 0 -18 3 -20 18 -12 11 6 18 13 16 17 -22 49 -54
111 -58 112 -3 0 -11 -10 -19 -22z"/>
<path d="M2184 2092 c3 -15 -4 -28 -21 -42 -15 -11 -24 -22 -22 -25 3 -2 18 6
34 19 26 21 28 26 17 47 -12 24 -12 24 -8 1z"/>
<path d="M746 2091 c-3 -5 1 -12 10 -15 8 -3 12 -11 8 -17 -5 -8 1 -10 20 -7
23 5 27 3 23 -13 -3 -11 -2 -17 3 -14 4 3 10 14 13 24 6 23 -17 60 -29 48 -5
-4 -2 -12 6 -17 13 -8 12 -10 -2 -10 -9 0 -23 7 -32 15 -8 8 -17 11 -20 6z"/>
<path d="M1188 2076 c-25 -13 -44 -28 -136 -103 -56 -45 -13 -28 71 28 88 59
130 72 141 44 3 -8 16 -15 28 -15 19 0 20 2 8 10 -12 8 -9 10 12 10 61 0 116
-37 149 -102 27 -54 23 -57 -11 -9 -29 39 -83 81 -105 81 -5 0 -1 -6 10 -12
55 -30 125 -114 130 -154 1 -15 14 -37 29 -50 33 -31 34 -15 1 24 -25 30 -25
31 -5 37 26 8 25 20 -4 81 -43 89 -147 160 -195 135 -13 -8 -28 -8 -46 -1 -35
13 -45 13 -77 -4z m313 -141 c12 -25 19 -48 17 -51 -3 -2 -15 18 -26 46 -26
62 -20 66 9 5z"/>
<path d="M1947 2059 c-9 -5 -22 -7 -27 -4 -6 3 -10 2 -10 -4 0 -5 15 -11 33
-13 26 -2 33 -8 35 -28 2 -14 15 -34 30 -44 l27 -19 -21 24 c-12 13 -25 41
-28 62 -7 40 -11 42 -39 26z"/>
<path d="M1897 2003 c-4 -3 -7 -18 -7 -32 0 -38 -53 -144 -85 -169 -57 -45
-150 -20 -195 52 -12 21 -23 36 -25 34 -1 -2 -5 -21 -8 -43 -4 -22 -4 -34 -1
-27 6 14 34 17 34 3 0 -16 74 -65 96 -63 18 1 24 -8 39 -56 33 -110 33 -112
34 -72 0 19 -6 46 -14 60 -22 38 -18 56 15 70 60 25 129 141 127 213 -1 41 -1
40 -10 30z"/>
<path d="M2091 1983 c-9 -17 -6 -25 14 -46 17 -16 23 -30 18 -42 -4 -12 -3
-16 4 -12 6 4 14 -4 17 -18 4 -14 11 -25 16 -25 5 0 6 -8 3 -17 -5 -13 -2 -15
11 -10 10 4 19 7 22 7 2 0 -4 9 -13 19 -9 11 -22 34 -29 51 -12 27 -11 32 2
37 9 3 20 0 25 -8 5 -8 9 -9 9 -4 0 18 -18 38 -28 31 -6 -3 -22 8 -35 25 -24
31 -25 31 -36 12z"/>
<path d="M1846 1942 c-7 -31 -9 -32 -25 -18 -10 9 -21 16 -26 16 -4 0 2 -8 13
-19 22 -18 31 -37 12 -26 -6 4 -7 -1 -3 -12 5 -14 11 -9 26 25 10 24 16 49 14
55 -2 7 -7 -3 -11 -21z"/>
<path d="M1977 1947 c-8 -22 -4 -30 39 -77 18 -19 41 -46 53 -60 20 -24 27
-18 15 14 -3 9 -10 13 -15 10 -10 -6 -72 78 -79 109 -5 20 -7 20 -13 4z"/>
<path d="M1077 1902 c-18 -20 -40 -72 -33 -79 3 -3 16 18 30 46 28 54 29 62 3
33z"/>
<path d="M197 1880 c-7 -27 -27 -162 -27 -179 0 -6 13 -11 28 -11 16 0 31 -2
34 -6 3 -3 -5 -55 -19 -117 -13 -62 -29 -137 -34 -167 -6 -30 -21 -86 -33
-125 -13 -38 -26 -90 -29 -114 l-5 -44 76 6 c42 4 100 13 127 22 57 17 161 85
154 100 -4 11 -86 11 -97 0 -4 -4 1 -11 11 -16 9 -6 17 -16 17 -24 0 -20 -40
-30 -51 -14 -8 12 -10 12 -18 0 -5 -7 -14 -11 -20 -7 -7 5 -8 1 -4 -10 5 -13
2 -15 -17 -9 -15 5 -20 4 -16 -4 4 -6 1 -11 -6 -11 -7 0 -23 -3 -36 -6 -21 -6
-22 -4 -16 22 4 16 12 32 18 36 8 5 7 8 -2 8 -7 0 -17 -11 -22 -24 -5 -14 -18
-30 -29 -35 -25 -14 -41 -14 -21 -1 13 8 12 10 -2 10 -26 0 -22 31 4 38 21 5
21 6 2 13 -19 7 -19 8 1 8 15 1 17 4 7 10 -11 6 -10 17 7 52 11 24 21 53 21
64 1 54 26 155 39 155 8 0 6 -48 -2 -56 -3 -4 -2 -14 3 -24 5 -9 8 -33 6 -52
-3 -29 0 -34 17 -34 14 1 23 -7 27 -23 3 -13 15 -28 28 -32 25 -10 29 3 6 21
-45 38 -60 186 -31 310 12 48 17 55 40 58 15 2 27 10 27 18 0 24 58 21 77 -3
11 -15 13 -14 19 1 5 13 13 16 31 11 18 -4 29 0 43 17 20 24 27 78 10 78 -5 0
-10 -16 -10 -35 0 -41 -5 -43 -31 -12 -17 20 -18 21 -19 3 0 -11 -3 -16 -7
-13 -3 4 -12 2 -19 -4 -9 -8 -17 -3 -28 18 -11 19 -15 22 -14 9 2 -10 -2 -21
-8 -23 -7 -2 -11 13 -11 40 l0 44 41 -8 c23 -4 43 -7 46 -7 2 0 8 -9 12 -19 6
-14 7 -13 5 6 -2 25 -12 30 -89 45 -36 6 -38 5 -38 -18 0 -14 -5 -48 -11 -76
-10 -46 -13 -51 -33 -45 -29 9 -38 9 -61 -1 -17 -7 -18 -6 -7 8 11 13 11 18 0
24 -7 4 -10 4 -6 -1 4 -4 3 -14 -4 -22 -9 -11 -15 -10 -33 7 -20 19 -21 26
-14 68 5 25 13 50 18 55 16 16 45 3 51 -23 6 -24 7 -23 13 9 9 44 9 53 -2 47
-16 -11 -70 6 -74 23 -3 11 -6 9 -10 -9z"/>
<path d="M339 1872 c8 -6 12 -20 9 -36 -3 -14 -1 -23 3 -20 5 3 9 14 9 25 0
11 5 17 10 14 6 -3 10 -1 10 4 0 6 -4 11 -9 11 -5 0 -18 3 -28 6 -14 4 -15 4
-4 -4z"/>
<path d="M1429 1848 c5 -13 23 -50 41 -83 38 -73 29 -33 -11 48 -29 57 -47 78
-30 35z"/>
<path d="M2127 1804 c23 -32 64 -70 49 -46 -4 7 0 15 11 19 10 3 30 15 45 25
24 17 28 17 36 2 5 -9 21 -17 35 -17 15 -1 29 -8 32 -15 3 -7 10 -10 17 -6 8
5 9 2 4 -12 -4 -10 -4 -15 0 -11 4 4 16 -1 27 -10 17 -15 16 -12 -3 14 -13 18
-27 30 -32 27 -4 -3 -8 6 -8 19 0 42 -65 50 -131 17 l-40 -21 -32 23 -32 23
22 -31z"/>
<path d="M1004 1790 c2 -19 -1 -43 -6 -54 -7 -13 -7 -16 1 -12 6 4 11 2 11 -3
0 -6 -7 -11 -16 -11 -12 0 -15 -5 -9 -22 4 -13 8 -33 9 -45 0 -13 6 -23 11
-23 6 0 4 -4 -3 -9 -11 -7 -11 -9 2 -14 12 -5 15 4 14 51 -2 64 3 87 20 104 7
7 12 21 12 31 0 14 -5 18 -19 14 -13 -3 -22 1 -25 12 -3 9 -4 0 -2 -19z"/>
<path d="M1185 1778 c11 -6 35 -29 54 -50 35 -39 51 -47 51 -27 0 22 -77 89
-101 89 -23 -1 -23 -1 -4 -12z"/>
<path d="M1930 1687 c0 -58 3 -108 8 -110 9 -6 8 200 -1 209 -4 4 -7 -40 -7
-99z"/>
<path d="M2097 1758 c3 -15 -2 -29 -12 -38 -13 -11 -18 -10 -31 6 -15 18 -15
18 -10 -7 4 -19 -2 -34 -26 -59 -29 -32 -31 -39 -29 -105 6 -192 7 -201 28
-228 l20 -26 17 37 c16 35 16 41 -4 117 -11 44 -23 104 -27 134 l-6 54 29 -7
c44 -11 54 -24 43 -52 -13 -36 -11 -54 6 -54 8 0 15 -9 15 -20 0 -16 7 -20 31
-20 24 0 32 -6 40 -30 7 -18 18 -30 30 -31 10 -1 34 -2 52 -3 19 -2 40 5 52
15 18 16 25 17 60 5 22 -8 41 -19 43 -25 2 -6 12 -11 22 -11 10 0 31 -6 47
-14 15 -8 67 -26 116 -41 75 -23 87 -29 87 -48 0 -15 10 -26 30 -35 36 -16 37
-23 6 -88 -56 -121 -140 -171 -261 -158 -33 4 -77 15 -97 25 -38 19 -98 26
-98 11 0 -23 111 -107 213 -161 63 -33 248 -101 276 -101 5 0 11 33 15 73 16
167 58 341 94 388 15 19 52 109 52 126 0 2 -7 3 -15 3 -8 0 -15 -9 -15 -20 0
-11 -4 -20 -9 -20 -17 0 -23 20 -11 35 7 8 7 15 1 19 -8 5 -33 -48 -56 -122
-4 -15 -12 -21 -23 -18 -59 16 -62 18 -62 42 0 13 -4 24 -10 24 -5 0 -10 5
-10 11 0 18 -30 41 -45 36 -10 -4 -12 0 -10 15 6 32 13 33 39 9 21 -20 24 -20
30 -5 4 9 5 18 4 19 -2 1 -46 17 -98 34 -52 18 -102 37 -111 41 -22 11 -29 3
-29 -31 0 -15 -5 -31 -12 -35 -8 -5 -9 2 -5 24 4 19 2 32 -3 32 -6 0 -10 -7
-10 -15 0 -8 -6 -14 -12 -13 -21 5 -27 21 -16 41 11 22 13 20 -28 40 -31 16
-32 16 -43 -11 -10 -24 -17 -27 -56 -27 -25 0 -45 5 -45 10 0 11 26 36 56 53
29 17 -3 14 -37 -4 -17 -8 -39 -24 -50 -35 -22 -22 -48 -24 -72 -6 -12 8 -14
16 -7 27 7 10 13 11 18 5 7 -10 52 -18 52 -10 0 3 -14 12 -31 21 -30 15 -32
15 -46 -5 -18 -27 -33 -18 -33 20 0 21 10 40 30 61 29 29 38 48 22 48 -4 0
-13 -5 -20 -12 -8 -8 -15 -8 -27 2 -12 10 -15 10 -15 -4 0 -20 -17 -21 -36 -2
-20 21 -18 26 15 26 25 0 29 5 34 33 3 19 0 37 -8 45 -10 11 -12 10 -8 -10z
m150 -270 c13 -21 51 -39 57 -27 2 5 3 4 2 -3 -3 -15 -76 -20 -76 -5 0 5 -9 7
-20 4 -22 -6 -27 12 -8 31 16 16 35 15 45 0z m363 -47 c0 -4 -7 -16 -15 -27
-10 -13 -13 -14 -10 -3 4 9 0 16 -10 17 -8 1 -22 3 -30 4 -18 2 -19 10 -4 25
12 12 69 -2 69 -16z m40 -20 c0 -4 -7 -16 -16 -27 -15 -18 -15 -18 -8 5 4 16
3 21 -5 17 -11 -7 -16 6 -5 17 7 7 34 -2 34 -12z m145 -171 c3 -5 16 -10 28
-10 20 0 20 0 1 -15 -11 -8 -14 -14 -6 -15 9 0 10 -5 4 -17 -5 -10 -20 -62
-33 -115 -14 -59 -28 -98 -35 -98 -7 0 -16 -4 -19 -10 -3 -6 1 -7 9 -4 13 5
16 -1 16 -30 0 -28 -4 -36 -17 -36 -13 0 -14 -3 -5 -8 14 -10 6 -72 -10 -72
-6 0 -8 9 -5 20 3 12 1 18 -5 14 -6 -4 -14 0 -20 7 -7 11 -8 9 -6 -6 2 -16 -2
-19 -22 -17 -31 5 -32 6 -24 25 3 9 13 14 22 10 15 -4 15 -3 2 6 -12 8 -18 7
-28 -8 -12 -18 -14 -18 -59 -1 -26 10 -50 26 -54 36 -4 11 -8 13 -8 6 -1 -8
-7 -12 -13 -9 -7 2 -12 10 -10 16 1 7 -2 10 -7 7 -5 -4 -22 -1 -36 4 -27 10
-27 11 -10 30 14 15 21 17 31 9 8 -6 20 -9 28 -6 7 3 19 0 26 -6 9 -8 8 -5 -1
10 -9 16 -16 19 -21 10 -8 -13 -39 0 -45 20 -4 11 3 11 96 -1 37 -5 41 -4 31
9 -11 13 -10 14 5 9 13 -5 16 -4 11 4 -5 8 0 12 14 12 12 0 19 4 15 9 -3 5 3
12 14 16 34 10 121 143 121 183 0 23 14 29 25 12z m-411 -242 c-4 -7 -3 -8 5
-4 21 13 49 -3 44 -25 -3 -11 -9 -16 -12 -11 -3 5 -16 12 -28 16 -23 7 -33 36
-12 36 5 0 7 -5 3 -12z"/>
<path d="M2721 1110 c-22 -28 -27 -40 -17 -40 8 0 17 4 20 9 3 4 18 6 33 4
l28 -4 -30 15 c-24 11 -26 15 -10 15 15 1 17 3 6 10 -11 7 -11 9 0 13 8 3 11
8 8 12 -3 3 -20 -12 -38 -34z"/>
<path d="M2653 1036 c-23 -24 -29 -37 -15 -35 4 1 10 0 15 -1 19 -6 33 -5 39
5 5 6 8 3 8 -7 0 -22 18 -23 45 -2 20 16 20 16 -2 9 -31 -9 -29 1 5 19 24 14
25 15 6 16 -12 0 -27 -7 -34 -15 -7 -9 -15 -13 -18 -11 -2 3 -13 1 -23 -5 -15
-7 -19 -6 -19 6 0 8 8 15 18 15 14 0 14 2 3 9 -11 7 -10 10 5 14 12 3 13 5 4
6 -8 0 -25 -10 -37 -23z"/>
<path d="M2675 943 c-16 -37 -14 -43 18 -43 l32 1 -29 12 c-26 11 -27 14 -12
26 14 12 16 11 16 -5 0 -16 2 -17 10 -4 14 22 12 30 -9 30 -10 0 -22 -8 -26
-17z"/>
<path d="M1348 1759 c-3 -9 -1 -41 7 -70 14 -58 18 -33 7 41 -5 29 -10 39 -14
29z"/>
<path d="M2186 1747 c-44 -15 -29 -24 32 -19 45 3 67 0 97 -17 44 -23 55 -37
55 -69 0 -39 -34 -23 -41 18 -4 19 -7 30 -8 23 0 -7 -14 -27 -29 -45 -16 -18
-32 -42 -36 -52 -6 -17 -4 -17 11 -5 10 7 27 21 39 31 18 16 23 17 33 4 11
-13 17 -12 47 7 18 12 34 29 34 39 0 25 -56 66 -113 83 -56 16 -79 16 -121 2z"/>
<path d="M1826 1693 c16 -54 24 -65 24 -34 0 20 -26 81 -34 81 -2 0 2 -21 10
-47z"/>
<path d="M1522 1671 c-12 -17 -22 -38 -22 -48 0 -12 5 -8 16 12 8 16 20 33 26
36 6 4 9 12 7 18 -3 7 -14 -1 -27 -18z"/>
<path d="M2209 1668 c0 -2 -2 -13 -3 -25 -2 -13 -11 -33 -22 -45 -17 -20 -17
-21 -1 -9 17 13 47 62 47 76 0 5 -19 8 -21 3z"/>
<path d="M1235 1610 c-3 -5 -30 -10 -60 -10 -30 0 -57 -5 -61 -11 -3 -6 -17
-9 -29 -7 -14 3 -22 1 -19 -6 2 -6 0 -16 -4 -23 -11 -17 -52 -4 -52 16 0 13
-2 13 -9 2 -5 -7 -13 -11 -19 -7 -6 3 -15 -9 -22 -29 -17 -52 -31 -53 -24 -1
8 52 -10 65 -20 15 -12 -63 -5 -129 15 -129 12 0 39 54 39 78 0 10 7 27 15 38
15 18 15 18 9 -8 -6 -27 8 -39 21 -18 3 6 16 10 27 10 12 0 37 12 57 28 41 31
61 34 77 13 10 -12 15 -11 34 7 30 27 61 28 91 2 l24 -20 -27 11 c-31 14 -50
3 -72 -40 -16 -31 -32 -99 -21 -89 5 4 13 4 19 -1 8 -7 10 1 8 27 -2 29 3 43
22 64 23 24 29 26 58 17 18 -5 48 -12 67 -15 56 -9 98 -49 136 -130 33 -69 44
-111 28 -101 -5 3 -8 -17 -8 -43 0 -46 1 -48 18 -32 13 11 16 24 12 42 -4 14
-7 66 -7 115 -1 50 -3 78 -5 63 -6 -38 -14 -35 -39 15 -12 23 -25 41 -29 39
-3 -2 -14 5 -23 15 -23 25 -61 45 -72 38 -5 -3 -11 9 -13 27 l-4 33 -1 -33 -2
-33 -55 41 c-56 42 -70 47 -80 30z"/>
<path d="M1866 1509 c-8 -41 -8 -74 0 -66 8 8 18 97 11 97 -2 0 -7 -14 -11
-31z"/>
<path d="M1131 1491 c-25 -48 -27 -69 -6 -47 18 18 40 74 32 82 -3 3 -15 -12
-26 -35z"/>
<path d="M528 1503 c-21 -2 -38 -8 -38 -12 0 -12 66 -7 79 7 7 6 8 11 4 10 -4
-1 -25 -3 -45 -5z"/>
<path d="M1925 1400 c-5 -58 -8 -112 -7 -120 1 -8 3 -40 4 -71 2 -49 4 -54 16
-40 7 9 11 10 7 4 -4 -8 0 -13 9 -13 8 0 17 -6 20 -12 3 -7 3 12 0 42 -4 39
-3 51 5 40 8 -12 11 -12 17 4 5 12 2 22 -9 28 -10 5 -17 14 -17 20 0 6 -8 21
-17 32 -17 20 -17 20 0 6 18 -14 18 -13 3 24 -22 53 -19 80 4 31 12 -27 19
-33 19 -20 1 34 -11 65 -25 65 -8 0 -14 15 -16 43 -2 27 -6 5 -13 -63z"/>
<path d="M643 1474 c15 -8 27 -23 27 -34 0 -13 7 -20 20 -20 12 0 24 -10 30
-24 5 -13 14 -27 20 -31 9 -5 8 -1 0 16 -17 32 -97 109 -113 109 -6 -1 0 -8
16 -16z"/>
<path d="M1050 1484 c-1 -5 -14 -25 -31 -44 l-30 -35 7 30 c4 17 4 28 1 25 -9
-8 -37 -133 -31 -139 2 -3 11 5 20 17 25 36 40 26 54 -35 8 -32 13 -62 12 -67
-2 -4 3 -15 9 -23 16 -18 22 -66 8 -57 -6 3 -3 -8 6 -26 9 -18 12 -29 6 -26
-5 4 -15 -3 -21 -15 -9 -16 -9 -20 0 -14 7 4 5 -6 -4 -24 -15 -29 -15 -32 4
-51 11 -11 20 -17 20 -12 0 4 15 12 33 18 17 6 41 14 52 18 16 6 14 2 -8 -18
-15 -14 -43 -28 -63 -32 -29 -5 -35 -10 -30 -27 3 -12 -5 -32 -20 -53 -20 -26
-24 -40 -19 -64 4 -16 10 -28 15 -25 4 3 4 -12 0 -32 -6 -25 -24 -51 -59 -83
-46 -42 -80 -100 -73 -124 2 -5 -4 -6 -12 -3 -10 4 -13 1 -9 -9 7 -20 -14 -18
-26 3 -13 24 -20 14 -14 -18 4 -24 7 -25 59 -21 36 3 54 1 54 -7 0 -15 92 -14
113 1 15 11 8 13 -40 15 -32 0 -70 1 -85 2 -19 0 -28 6 -28 16 0 9 4 13 10 10
5 -3 7 0 4 8 -3 8 -1 18 5 22 6 3 11 0 12 -7 0 -7 7 4 16 25 8 20 20 37 25 37
6 0 7 7 4 15 -4 11 0 15 11 13 10 -2 18 2 18 7 0 6 8 21 17 35 9 14 22 37 29
52 17 39 48 46 71 18 25 -31 23 -42 -11 -61 -21 -12 -32 -14 -40 -6 -8 8 -11
6 -11 -7 0 -9 4 -15 9 -11 20 12 22 -18 3 -38 -18 -19 -20 -28 -12 -60 10 -45
17 -54 31 -40 7 7 5 14 -6 23 -19 16 -19 44 0 74 9 13 14 30 13 37 -2 8 5 13
15 13 9 -1 17 2 17 7 0 5 7 6 16 2 16 -6 16 4 -4 56 -4 10 -1 12 9 6 8 -5 11
-5 6 1 -5 5 -14 9 -20 9 -5 0 -12 6 -14 13 -3 7 4 12 16 12 32 0 134 -40 159
-63 12 -11 22 -15 22 -9 0 6 5 23 12 39 6 15 12 33 12 38 1 6 13 22 27 36 26
25 26 25 40 5 8 -12 17 -30 20 -41 6 -19 7 -19 14 -1 4 10 4 21 -1 25 -5 3
-15 16 -22 28 -10 19 -9 26 4 40 28 32 74 108 74 123 0 12 -2 12 -9 2 -7 -11
-10 -10 -15 3 -8 22 1 36 19 28 9 -3 15 1 15 8 1 8 7 3 16 -11 l15 -25 -7 25
c-9 33 -11 35 -28 21 -11 -10 -14 -5 -18 28 -2 22 0 51 3 65 5 16 2 26 -6 30
-8 3 -12 15 -9 28 2 13 2 17 -2 10 -3 -6 -9 -10 -13 -8 -3 2 -6 -53 -5 -122 0
-117 -1 -124 -12 -87 l-13 40 1 -47 c1 -36 -5 -56 -27 -90 -57 -85 -93 -113
-81 -63 3 14 9 37 12 51 5 20 4 25 -6 19 -8 -5 -11 -3 -8 6 2 7 15 14 29 14
23 0 24 3 29 85 3 56 12 100 26 131 21 46 29 99 14 99 -5 0 -14 -17 -21 -37
-6 -21 -16 -43 -20 -49 -5 -6 -7 -19 -3 -28 4 -10 0 -18 -10 -22 -10 -4 -16
-18 -16 -36 0 -19 -4 -27 -11 -22 -8 5 -8 1 0 -14 17 -31 13 -63 -9 -87 -11
-12 -21 -33 -22 -48 -2 -25 -3 -26 -22 -9 -18 15 -19 15 -8 0 21 -27 32 -79
21 -99 -7 -15 -6 -17 6 -13 19 7 19 -5 1 -29 -9 -12 -16 -14 -21 -7 -13 21
-105 60 -142 60 -21 0 -51 -7 -67 -15 -15 -8 -29 -15 -30 -15 -7 0 5 64 19 98
17 41 18 42 69 43 50 2 50 2 11 8 l-39 6 27 18 c34 22 60 15 75 -18 6 -14 19
-25 28 -25 14 0 13 4 -5 33 -11 17 -27 31 -36 29 -8 -2 -15 4 -15 11 0 30 -25
38 -65 21 -49 -20 -59 -8 -38 44 l16 43 24 -28 c15 -18 21 -21 14 -8 -5 11
-19 29 -30 39 -23 21 -29 51 -8 41 6 -4 1 2 -12 13 -16 13 -20 21 -12 26 6 4
11 26 10 49 -1 37 -2 39 -10 17 -7 -20 -7 -17 -3 13 3 21 1 37 -5 37 -5 0 -13
20 -17 45 -7 51 -19 65 -29 35 -3 -11 -13 -20 -21 -20 -20 0 -10 34 23 78 14
18 22 36 19 39 -3 4 -6 2 -6 -3z"/>
<path d="M2734 1439 c-3 -5 0 -17 5 -26 7 -12 10 -13 11 -4 0 13 13 12 68 -4
12 -4 22 -3 22 2 0 13 -99 43 -106 32z"/>
<path d="M1421 1395 c-1 -40 -4 -46 -12 -32 -6 9 -15 14 -21 11 -7 -4 -8 -2
-4 5 9 14 -2 51 -15 51 -5 0 -9 -11 -9 -24 0 -14 -17 -44 -40 -71 -48 -55 -51
-66 -9 -31 17 15 44 33 60 42 26 13 29 13 29 -1 0 -8 -5 -15 -11 -15 -5 0 -8
-4 -4 -9 3 -6 -5 -19 -17 -30 -12 -12 -17 -21 -10 -21 6 0 14 5 17 10 10 15
23 12 28 -7 3 -12 5 -9 6 8 0 14 6 40 12 57 6 16 9 47 6 69 -3 34 -4 33 -6
-12z"/>
<path d="M1651 1333 c-19 -115 -21 -123 -41 -123 -14 0 -17 -5 -12 -22 5 -19
7 -20 10 -5 3 15 14 21 33 19 4 -1 9 16 12 36 10 62 20 172 15 172 -2 0 -10
-35 -17 -77z"/>
<path d="M1215 1360 c-27 -52 -57 -90 -72 -90 -15 0 -33 -32 -33 -59 0 -23 8
-26 30 -10 11 8 12 12 3 16 -21 8 -15 28 15 45 15 9 37 26 50 38 20 19 22 19
22 3 0 -10 3 -27 6 -39 4 -14 -4 -32 -21 -55 -22 -28 -20 -27 9 5 40 43 42 57
23 131 l-14 50 -18 -35z"/>
<path d="M1476 1327 c-3 -16 -6 -37 -6 -46 0 -14 2 -14 10 -1 8 12 10 12 10
-5 1 -25 30 38 30 64 0 30 -38 20 -44 -12z"/>
<path d="M1811 1328 c-6 -19 -22 -40 -34 -47 -12 -6 -14 -9 -4 -7 20 6 20 5 5
-31 -6 -15 -10 -32 -9 -36 1 -5 -12 -24 -29 -43 -29 -34 -38 -54 -22 -54 4 0
16 14 25 30 10 17 24 30 31 30 7 0 23 26 36 57 l24 57 14 -43 c10 -30 17 -40
25 -32 7 7 6 16 -6 29 -9 10 -23 42 -30 72 l-14 54 -12 -36z"/>
<path d="M1701 1275 c0 -44 16 -112 18 -77 1 7 6 10 11 7 13 -8 13 -11 -10 60
l-19 60 0 -50z"/>
<path d="M1282 1250 c-13 -16 -20 -30 -16 -30 3 0 19 14 34 30 15 17 23 30 16
30 -7 0 -22 -13 -34 -30z"/>
<path d="M1235 1200 c-3 -6 1 -7 9 -4 11 4 16 0 16 -15 0 -16 -6 -21 -28 -21
-16 0 -37 -9 -47 -20 -22 -24 -14 -25 26 -4 17 8 36 13 43 11 8 -3 13 7 14 29
2 24 -2 34 -12 34 -8 0 -18 -4 -21 -10z"/>
<path d="M1538 1155 c-3 -22 -2 -44 3 -49 14 -16 17 -3 10 44 l-7 45 -6 -40z"/>
<path d="M1860 1078 c-51 -54 -65 -75 -56 -84 14 -15 62 28 102 92 16 24 32
44 36 44 4 0 8 5 8 10 0 24 -27 5 -90 -62z"/>
<path d="M2130 1141 c0 -6 5 -11 11 -11 5 0 7 -4 4 -10 -8 -12 5 -13 25 0 17
10 14 15 -17 24 -14 5 -23 3 -23 -3z"/>
<path d="M1633 1114 c-16 -26 -32 -136 -17 -121 4 4 9 13 10 20 4 24 23 65 33
71 6 4 13 -5 17 -21 11 -52 18 -59 22 -24 4 38 -13 87 -34 95 -8 3 -21 -5 -31
-20z"/>
<path d="M820 1105 l-23 -24 32 12 c31 11 38 21 22 31 -4 3 -18 -6 -31 -19z"/>
<path d="M666 1108 c2 -4 0 -9 -6 -13 -5 -3 -10 -11 -10 -17 0 -6 10 -2 23 9
12 11 29 23 37 26 8 3 1 4 -17 4 -17 -1 -29 -5 -27 -9z"/>
<path d="M1720 1046 c0 -25 -4 -56 -10 -70 -13 -35 -4 -33 15 4 17 32 20 110
5 110 -5 0 -10 -20 -10 -44z"/>
<path d="M57 1063 c-3 -5 7 -14 23 -20 23 -9 32 -8 41 3 7 8 9 17 6 21 -4 3
-9 -1 -13 -10 -5 -15 -8 -15 -29 -1 -13 8 -26 11 -28 7z"/>
<path d="M415 1020 c-3 -5 -19 -10 -34 -10 -16 0 -37 -10 -51 -25 -21 -22 -21
-25 -6 -25 12 0 16 -5 13 -15 -4 -8 -1 -17 5 -21 7 -5 9 2 6 20 -6 32 21 56
64 56 18 0 28 5 28 15 0 17 -16 20 -25 5z"/>
<path d="M229 965 c-5 -17 2 -24 33 -37 21 -9 38 -13 38 -8 0 5 -13 14 -30 21
-16 8 -31 20 -33 29 -2 11 -4 9 -8 -5z"/>
<path d="M1792 942 c-28 -38 -30 -54 -11 -57 12 -2 20 9 28 37 15 50 9 57 -17
20z"/>
<path d="M510 892 c0 -5 9 -17 20 -27 11 -10 17 -22 14 -27 -4 -6 3 -5 15 1
21 12 28 22 14 20 -23 -4 -33 3 -33 21 0 11 -7 20 -15 20 -8 0 -15 -4 -15 -8z"/>
<path d="M1796 854 c-9 -8 -16 -23 -16 -31 0 -13 5 -12 25 7 13 12 22 27 19
31 -7 12 -10 11 -28 -7z"/>
<path d="M1755 784 c-49 -26 -82 -25 -71 1 7 19 4 19 -39 -2 -21 -10 -35 -24
-35 -35 0 -24 25 -23 36 2 8 19 11 19 29 6 15 -12 16 -15 5 -16 -16 0 -44 -68
-55 -130 -3 -19 -8 -44 -11 -55 -3 -12 2 -8 12 9 20 36 30 48 74 93 27 28 36
33 38 20 2 -10 8 -17 13 -17 26 0 -16 -112 -46 -124 -9 -3 -13 -10 -10 -16 3
-5 -7 -22 -22 -36 -21 -21 -23 -24 -6 -16 19 10 22 8 31 -16 7 -21 6 -35 -5
-55 -13 -25 -12 -27 6 -27 11 0 23 6 28 13 10 15 11 67 1 61 -11 -7 -1 71 12
95 6 12 13 21 16 21 3 0 2 -5 -2 -12 -4 -7 -3 -8 4 -4 6 4 9 13 6 20 -3 7 2
19 11 26 25 20 17 54 -20 90 -19 19 -35 41 -35 49 0 9 -11 -7 -24 -34 -14 -28
-35 -60 -48 -70 -18 -16 -20 -16 -9 -2 8 9 11 20 8 23 -8 8 26 76 45 92 8 6
23 11 33 10 11 0 29 3 39 7 15 7 17 5 11 -6 -5 -8 4 -3 18 10 26 24 36 51 18
51 -4 0 -30 -11 -56 -26z"/>
<path d="M1775 722 c-16 -14 -23 -23 -13 -20 11 5 18 0 23 -15 6 -22 6 -22 16
3 5 13 9 32 7 41 -3 15 -7 14 -33 -9z"/>
<path d="M1364 705 c6 -19 12 -31 14 -25 2 5 16 7 30 4 23 -4 24 -4 9 6 -9 6
-15 15 -12 21 4 5 -2 6 -11 2 -11 -4 -15 -2 -11 4 5 9 -12 23 -27 23 -2 0 2
-16 8 -35z"/>
<path d="M1307 660 c3 -11 1 -20 -5 -20 -15 0 5 -59 30 -86 21 -24 21 -25 -56
-68 -27 -16 -46 -23 -42 -17 17 27 -17 7 -66 -40 l-53 -51 46 32 c25 17 59 33
76 36 25 4 32 0 43 -23 8 -17 14 -23 17 -15 3 7 -3 22 -12 32 -16 17 -15 20 5
40 12 12 27 19 34 17 7 -3 19 5 26 16 16 25 22 49 10 42 -14 -9 -33 25 -35 63
-3 58 -4 62 -14 62 -5 0 -7 -9 -4 -20z"/>
<path d="M1514 642 c5 -47 31 -96 46 -87 6 4 3 16 -6 31 -9 13 -23 41 -31 62
l-14 37 5 -43z"/>
<path d="M1356 617 c-5 -21 -6 -41 -2 -44 12 -12 17 5 14 43 l-4 39 -8 -38z"/>
<path d="M1441 624 c-1 -16 6 -39 14 -50 18 -24 18 -20 1 36 -13 41 -15 42
-15 14z"/>
<path d="M1415 610 c3 -14 7 -35 9 -48 4 -27 11 -35 32 -38 8 -1 13 3 11 9 -2
7 -10 12 -18 12 -8 0 -13 8 -11 18 1 9 -4 29 -13 44 -16 27 -16 27 -10 3z"/>
<path d="M1165 580 c-22 -11 -32 -18 -22 -15 10 3 37 8 60 11 59 9 81 23 37
23 -19 0 -53 -8 -75 -19z"/>
<path d="M720 555 c-14 -8 -33 -14 -42 -15 -19 0 -26 -20 -7 -20 5 0 7 -4 4
-10 -8 -13 -52 -13 -60 -1 -3 5 4 12 15 16 19 6 19 25 0 25 -11 0 -30 -33 -35
-62 -3 -11 -6 -21 -7 -22 -2 0 -16 -12 -32 -26 -22 -19 -28 -21 -23 -7 4 9 2
17 -3 17 -6 0 -10 -4 -10 -8 0 -10 -99 -92 -112 -92 -4 0 -1 11 7 24 17 25 6
31 -22 13 -7 -5 -13 -4 -13 0 0 16 38 32 65 27 20 -3 31 2 47 21 11 14 36 34
56 46 26 14 30 18 12 13 -14 -3 -42 -19 -62 -35 -34 -27 -38 -28 -47 -12 -10
17 -13 16 -32 -7 -12 -14 -27 -24 -35 -22 -7 1 -17 -6 -23 -16 -5 -10 -28 -38
-50 -62 -44 -48 -53 -67 -22 -48 15 9 26 9 45 0 24 -11 25 -10 21 20 -2 17 -2
35 1 40 8 13 64 -24 64 -42 0 -9 6 -6 18 11 22 34 42 53 70 68 19 10 22 9 22
-9 0 -11 -6 -20 -13 -20 -18 0 -75 -62 -70 -77 2 -7 19 5 39 27 19 21 59 53
89 71 61 37 76 61 19 28 -46 -25 -70 -11 -37 22 18 18 26 20 51 11 17 -6 35
-6 43 -1 9 5 10 9 2 9 -6 0 -10 7 -9 15 3 18 36 44 51 39 5 -2 24 5 40 16 25
17 27 20 10 20 -20 1 -20 1 -1 15 25 19 9 19 -24 0z"/>
<path d="M1187 534 c-21 -8 -48 -21 -60 -30 -20 -15 -20 -16 -2 -9 11 4 28 8
37 9 9 0 14 5 10 11 -3 5 1 5 9 -1 10 -8 30 -9 66 -4 64 11 81 19 62 31 -20
12 -78 9 -122 -7z"/>
<path d="M750 512 c0 -4 -15 -16 -34 -26 -37 -20 -53 -43 -30 -43 7 0 11 4 8
8 -5 8 14 22 34 25 10 2 10 -1 2 -10 -8 -10 -4 -12 17 -9 27 4 27 4 9 -11 -30
-24 -6 -19 39 9 22 13 48 25 57 25 9 0 20 5 23 10 9 15 -43 1 -75 -19 -13 -9
-21 -11 -17 -4 4 6 4 18 1 26 -6 16 -34 32 -34 19z"/>
<path d="M1460 495 c11 -13 6 -75 -7 -75 -3 0 -23 16 -46 35 -22 19 -45 35
-50 35 -5 0 1 -9 14 -20 13 -10 19 -19 14 -20 -6 0 -17 6 -25 13 -8 6 -4 0 9
-15 28 -32 36 -35 27 -12 -4 10 -1 14 6 12 7 -3 13 -9 13 -14 1 -44 45 -33 65
16 10 24 10 33 0 45 -7 8 -17 15 -22 15 -6 0 -5 -6 2 -15z"/>
<path d="M2098 493 c34 -2 88 -2 120 0 31 2 3 3 -63 3 -66 0 -92 -1 -57 -3z"/>
<path d="M2858 473 c29 -2 74 -2 100 0 26 2 2 3 -53 3 -55 0 -76 -1 -47 -3z"/>
<path d="M2255 460 c5 -8 22 -10 54 -6 25 3 41 3 34 -2 -6 -4 26 -7 70 -7 45
-1 168 -4 272 -9 105 -4 214 -9 243 -10 29 -1 57 1 62 4 12 8 -293 28 -549 36
-153 5 -192 4 -186 -6z"/>
<path d="M815 440 c-10 -11 -35 -23 -55 -26 -21 -3 -42 -9 -47 -13 -18 -11
-53 -81 -52 -104 0 -21 1 -21 10 3 6 13 18 33 27 44 9 11 11 16 5 12 -7 -4
-13 -5 -13 -2 0 3 10 10 21 17 17 9 20 8 13 -3 -5 -8 -1 -7 12 3 21 17 105 59
120 59 5 0 18 7 28 15 19 14 18 15 -16 15 -22 0 -41 -7 -53 -20z"/>
<path d="M882 429 c-59 -35 -64 -47 -9 -24 20 8 48 15 62 15 14 0 25 5 25 10
0 6 -7 10 -16 10 -8 0 -12 5 -9 10 9 14 6 13 -53 -21z"/>
<path d="M690 431 c-63 -16 -243 -161 -224 -180 3 -3 23 14 44 39 37 43 67 50
42 10 -11 -19 -10 -19 28 1 36 19 46 36 41 71 0 4 24 19 54 34 69 33 73 40 15
25z m-80 -80 c0 -15 -28 -33 -40 -26 -7 5 -5 12 7 21 21 16 33 18 33 5z"/>
<path d="M1185 390 c-25 -9 -48 -36 -51 -57 -2 -9 13 0 35 21 44 43 56 45 74
10 9 -17 17 -23 21 -16 5 8 17 5 41 -8 34 -19 35 -19 35 -1 0 21 -19 31 -55
31 -13 0 -30 7 -39 15 -16 17 -31 18 -61 5z"/>
<path d="M2618 383 c17 -2 47 -2 65 0 17 2 3 4 -33 4 -36 0 -50 -2 -32 -4z"/>
<path d="M762 354 c-17 -14 -37 -35 -44 -47 -11 -21 -9 -20 22 4 29 22 69 69
59 69 -2 0 -19 -12 -37 -26z"/>
<path d="M809 344 l-34 -36 37 22 c45 26 67 50 46 50 -8 0 -30 -16 -49 -36z"/>
<path d="M1492 343 c5 -21 14 -42 20 -48 7 -7 8 -2 3 15 -22 72 -41 100 -23
33z"/>
<path d="M1374 358 c-4 -7 -3 -8 4 -4 7 4 12 2 12 -3 0 -22 2 -26 16 -42 8 -9
11 -18 8 -21 -3 -4 2 -19 11 -35 l16 -28 -5 48 c-5 44 -31 96 -48 97 -4 0 -10
-5 -14 -12z"/>
<path d="M2123 363 c20 -2 54 -2 75 0 20 2 3 4 -38 4 -41 0 -58 -2 -37 -4z"/>
<path d="M2278 363 c23 -2 59 -2 80 0 20 2 1 4 -43 4 -44 0 -61 -2 -37 -4z"/>
<path d="M915 345 c-16 -8 -40 -14 -51 -15 -26 0 -50 -25 -34 -35 5 -3 10 -1
10 4 0 6 5 11 10 11 6 0 10 -10 10 -22 0 -23 1 -22 13 2 8 15 29 31 55 40 23
8 42 18 42 22 0 11 -20 9 -55 -7z"/>
<path d="M1803 323 c3 -5 31 -16 62 -23 31 -7 62 -21 68 -30 13 -19 138 -50
277 -71 47 -7 92 -18 101 -26 25 -21 41 -16 22 7 -10 11 -25 20 -34 20 -15 0
-301 69 -307 74 -8 8 170 3 208 -5 78 -18 127 -21 134 -10 4 6 26 11 49 12 33
0 38 2 22 9 -28 12 3 13 41 1 47 -15 154 -22 154 -10 0 5 -4 8 -8 5 -5 -3 -46
2 -93 10 -120 21 -223 29 -216 17 4 -6 -11 -9 -41 -7 -132 9 -273 11 -261 3
10 -6 4 -9 -18 -9 -18 0 -33 4 -33 9 0 4 -15 11 -32 14 -18 3 -48 9 -67 13
-22 4 -32 4 -28 -3z"/>
<path d="M1695 310 c-6 -9 67 -112 97 -137 11 -10 14 -8 15 8 1 10 -4 19 -11
19 -23 0 -40 28 -27 44 9 11 6 15 -15 20 -21 6 -23 10 -14 21 9 11 7 16 -9 24
-24 14 -28 14 -36 1z"/>
<path d="M2660 296 c26 -10 30 -14 16 -17 -10 -2 30 -5 88 -6 59 0 105 1 102
4 -11 11 -134 32 -186 32 l-55 -1 35 -12z"/>
<path d="M290 265 c-9 -11 -16 -12 -31 -2 -16 10 -21 9 -28 -1 -5 -8 -19 -13
-32 -12 -38 3 -49 1 -49 -11 0 -6 -11 -20 -24 -30 -22 -17 -126 -185 -126
-203 0 -4 12 6 26 23 14 17 31 31 38 31 6 0 12 10 13 23 2 25 59 80 76 74 7
-3 11 -9 10 -15 -1 -5 7 -12 18 -15 15 -4 19 -1 14 12 -3 10 -3 26 1 35 5 13
9 14 20 5 8 -6 14 -19 15 -28 0 -12 2 -11 9 4 10 26 -13 45 -54 44 -25 0 -27
-2 -11 -8 16 -6 10 -11 -30 -24 -57 -20 -69 -16 -23 6 18 9 29 17 23 17 -5 0
3 11 20 24 l30 24 45 -25 c25 -14 49 -29 55 -34 15 -14 35 -10 35 7 0 13 -3
14 -14 5 -24 -20 -31 8 -8 32 18 18 23 19 38 6 16 -12 17 -12 11 4 -8 21 3 16
43 -17 l25 -21 -25 30 c-51 60 -66 66 -79 31 -9 -21 -38 -42 -48 -33 -2 2 6
16 18 30 21 28 21 38 -1 12z"/>
<path d="M1320 266 c0 -2 21 -17 48 -34 26 -17 58 -39 72 -48 14 -9 5 1 -19
23 -36 32 -101 70 -101 59z"/>
<path d="M1482 188 c25 -89 32 -100 23 -33 -7 45 -29 105 -39 105 -3 0 5 -33
16 -72z"/>
<path d="M2945 249 c17 -7 36 -16 43 -22 8 -7 12 -5 12 7 0 9 -8 16 -17 16
-10 0 -29 3 -43 5 -19 4 -18 3 5 -6z"/>
<path d="M1786 242 c-3 -5 0 -9 7 -10 7 0 31 -3 55 -5 49 -5 57 8 11 17 -43 8
-67 8 -73 -2z"/>
<path d="M1290 214 c0 -22 -3 -25 -23 -21 -12 4 -29 2 -37 -3 -11 -7 -2 -10
30 -11 38 -1 41 -2 20 -9 -22 -7 -20 -8 11 -7 29 2 35 5 31 19 -2 10 -9 15
-15 11 -6 -4 -8 3 -3 21 4 15 2 26 -4 26 -5 0 -10 -12 -10 -26z"/>
<path d="M2354 209 c15 -12 25 -14 36 -6 12 7 23 6 36 -2 17 -11 16 -12 -8 -8
-43 7 -33 -8 20 -29 44 -17 162 -27 162 -13 0 3 -30 11 -67 17 -36 6 -71 16
-77 23 -8 8 -3 9 23 4 25 -5 32 -4 26 5 -6 10 22 11 126 8 74 -3 143 -9 154
-13 19 -8 19 -7 2 11 -16 18 -35 19 -235 19 -203 0 -217 -1 -198 -16z"/>
<path d="M2944 205 c11 -8 29 -15 40 -15 19 1 19 2 -4 15 -35 20 -62 19 -36 0z"/>
<path d="M360 198 c-18 -7 -21 -11 -11 -17 9 -6 10 -11 3 -15 -13 -8 -5 -36
10 -36 5 0 8 6 7 13 -3 24 1 38 10 32 13 -7 22 8 13 22 -5 7 -15 7 -32 1z"/>
<path d="M1880 200 c0 -5 7 -10 15 -10 8 0 24 -9 35 -20 11 -11 23 -20 28 -20
4 0 7 -3 8 -7 2 -20 17 -43 28 -43 17 0 8 56 -12 72 -14 12 -14 10 -2 -12 13
-25 13 -25 -8 -6 -12 10 -19 24 -15 30 3 6 3 8 -2 4 -4 -4 -17 -1 -29 7 -24
17 -46 19 -46 5z"/>
<path d="M671 177 c-13 -6 -23 -16 -23 -22 1 -5 -6 -21 -15 -34 -8 -13 -10
-20 -3 -16 7 4 17 1 22 -6 7 -10 8 -6 4 13 -5 21 0 31 25 52 33 28 29 33 -10
13z"/>
<path d="M1155 173 c-30 -15 -72 -53 -60 -53 8 0 95 62 95 67 0 5 -2 4 -35
-14z"/>
<path d="M1353 173 c-10 -4 -9 -11 2 -34 16 -31 31 -37 38 -16 2 6 3 4 2 -5
-2 -10 3 -22 11 -29 11 -9 14 -7 14 9 0 12 5 24 11 27 12 8 -21 45 -34 38 -4
-3 -13 0 -20 5 -7 5 -18 7 -24 5z"/>
<path d="M2060 155 c25 -13 54 -24 65 -24 12 0 0 10 -30 25 -65 31 -94 30 -35
-1z"/>
<path d="M1780 143 c0 -10 109 -67 115 -61 2 2 -23 19 -55 37 -33 18 -60 28
-60 24z"/>
<path d="M2020 144 c0 -6 58 -34 72 -34 17 0 -22 26 -49 33 -13 3 -23 3 -23 1z"/>
<path d="M2738 138 c9 -11 10 -17 1 -20 -6 -2 8 -4 30 -5 28 -1 39 2 35 9 -5
8 0 9 17 4 31 -9 37 -10 79 -6 33 2 32 3 -15 11 -27 5 -67 6 -88 3 -24 -4 -44
-1 -55 8 -15 12 -16 11 -4 -4z"/>
<path d="M2336 123 c-2 -3 -36 -5 -74 -6 -50 -1 -68 -5 -61 -13 5 -6 5 -14 1
-19 -4 -4 3 -4 16 0 15 4 32 1 48 -10 24 -15 27 -15 45 1 24 21 182 24 220 3
13 -7 33 -14 44 -16 20 -4 20 -4 0 12 -20 16 -20 16 0 11 11 -3 58 -11 105
-18 65 -9 79 -14 60 -20 -14 -4 9 -5 50 -1 41 3 105 5 143 5 55 -1 67 2 67 15
0 14 -14 15 -115 10 -88 -4 -135 -1 -202 12 -49 10 -96 15 -107 11 -11 -4 -34
1 -55 12 -26 13 -55 18 -108 16 -40 -1 -75 -3 -77 -5z"/>
<path d="M1897 110 c36 -12 87 -66 79 -86 -7 -18 33 -29 48 -14 8 10 7 11 -8
6 -15 -5 -17 -4 -7 8 8 9 8 21 1 40 -13 34 -24 33 -15 -1 6 -27 5 -27 -27 10
-23 26 -44 39 -68 42 l-35 5 32 -10z"/>
<path d="M2165 70 c-11 -17 26 -60 51 -60 34 0 30 9 -13 27 -21 9 -33 18 -26
20 6 2 28 -3 48 -11 42 -18 55 -20 55 -8 0 6 -87 42 -103 42 -3 0 -9 -4 -12
-10z"/>
</g>
</svg>
