<?xml version="1.0" standalone="no"?>
<!DOCTYPE svg PUBLIC "-//W3C//DTD SVG 20010904//EN"
 "http://www.w3.org/TR/2001/REC-SVG-20010904/DTD/svg10.dtd">
<svg version="1.0" xmlns="http://www.w3.org/2000/svg"
 width="300.000000pt" height="508.000000pt" viewBox="0 0 300.000000 508.000000"
 preserveAspectRatio="xMidYMid meet">
<metadata>
Created by potrace 1.10, written by Peter Selinger 2001-2011
</metadata>
<g transform="translate(0.000000,508.000000) scale(0.100000,-0.100000)"
fill="#000000" stroke="none">
<path d="M152 5073 c87 -2 158 -6 158 -9 0 -2 -7 -21 -15 -41 -24 -58 -16 -63
10 -6 l24 53 183 3 c101 1 26 2 -167 3 -192 0 -279 -2 -193 -3z"/>
<path d="M867 5073 l172 -3 -50 -66 c-46 -61 -99 -153 -99 -171 0 -4 16 21 36
57 20 35 56 91 81 122 l44 58 536 -2 535 -3 13 -35 c27 -77 35 -91 46 -84 8 5
8 9 -1 14 -6 4 -11 11 -10 16 0 5 -9 30 -21 57 l-22 47 -716 -2 c-394 -1 -639
-4 -544 -5z"/>
<path d="M2362 5073 l227 -3 -4 -28 c-6 -39 -14 -330 -8 -309 2 9 9 17 14 17
5 0 9 68 9 160 l0 160 203 3 c111 1 6 2 -233 2 -239 0 -333 -1 -208 -2z"/>
<path d="M212 5048 c-37 -46 -91 -243 -75 -273 7 -12 13 2 23 57 7 40 25 108
40 151 15 42 26 77 25 77 -1 0 -7 -6 -13 -12z"/>
<path d="M4 4760 c0 -162 2 -229 3 -147 2 81 2 213 0 295 -1 81 -3 14 -3 -148z"/>
<path d="M681 4948 c-29 -59 -51 -112 -49 -119 6 -17 42 37 58 86 7 22 21 57
32 78 11 21 17 44 15 50 -2 6 -27 -37 -56 -95z"/>
<path d="M2696 4763 c-11 -437 -14 -866 -6 -748 4 55 8 168 9 251 1 203 13
454 20 450 7 -5 -3 322 -11 329 -2 3 -8 -124 -12 -282z"/>
<path d="M1600 4919 c-59 -26 -173 -138 -159 -155 7 -8 7 -14 -1 -19 -18 -11
-61 -85 -55 -95 8 -13 -24 -60 -42 -60 -8 0 -12 -4 -9 -9 7 -11 -20 -34 -71
-60 -24 -12 -43 -24 -43 -26 0 -3 23 6 50 20 53 27 130 90 130 107 0 17 26 36
56 41 l29 4 -32 2 c-45 2 -48 14 -14 52 17 18 28 36 25 40 -6 11 114 72 126
64 5 -3 12 0 16 6 5 8 3 9 -7 4 -11 -6 -11 -5 -2 5 6 7 46 23 88 35 l77 22
-46 6 c-25 4 -53 4 -62 0 -12 -4 -15 -3 -10 5 10 16 73 15 131 -3 29 -8 54
-11 64 -5 18 9 74 -10 86 -31 6 -9 3 -10 -11 -5 -23 9 -12 -3 17 -18 57 -29
78 -91 80 -241 1 -55 4 -91 7 -80 5 21 36 -155 50 -282 4 -39 10 -74 12 -77
15 -14 0 210 -20 299 -15 72 -20 115 -15 153 18 149 -82 315 -180 299 -22 -4
-46 0 -63 9 -41 21 -148 18 -202 -7z m50 -40 c-30 -10 -67 -25 -81 -33 -41
-24 -81 -38 -74 -26 9 14 81 50 130 66 64 20 86 15 25 -7z"/>
<path d="M2186 4931 c-6 -9 26 -101 63 -183 37 -84 44 -114 51 -248 l8 -135
-3 145 c-3 148 -19 221 -68 314 -9 16 -13 34 -10 39 3 6 1 7 -5 3 -11 -7 -16
7 -15 41 1 7 -4 10 -10 6 -6 -4 -8 0 -4 10 7 18 2 23 -7 8z"/>
<path d="M2480 4886 l0 -44 -65 -33 c-36 -19 -65 -37 -65 -41 0 -3 29 3 65 15
49 16 61 23 48 28 -15 7 -15 8 5 8 20 1 22 6 22 56 0 30 -2 55 -5 55 -3 0 -5
-20 -5 -44z"/>
<path d="M1844 4868 c23 -33 20 -40 -11 -25 -61 31 -80 30 -121 -8 -22 -19
-41 -33 -44 -30 -2 3 -22 -14 -44 -37 -21 -24 -29 -34 -16 -24 37 32 25 -1
-19 -49 -22 -24 -51 -47 -62 -51 -21 -7 -21 -8 3 -14 25 -6 24 -7 -16 -33 -40
-27 -41 -29 -47 -99 -3 -39 -10 -75 -15 -80 -6 -6 -22 12 -41 46 -31 54 -33
76 -7 76 7 0 21 7 32 15 17 13 16 14 -21 8 -53 -8 -147 -77 -174 -128 -15 -27
-16 -32 -4 -15 10 13 28 36 40 50 l23 25 -10 -31 c-17 -51 -68 -104 -99 -104
-15 0 -33 6 -41 13 -12 10 -12 9 -1 -5 15 -20 52 -23 84 -7 21 10 21 10 3 -5
-11 -9 -25 -16 -30 -16 -6 0 -22 -10 -36 -21 l-25 -20 32 15 c49 24 51 20 8
-24 -45 -46 -58 -49 -79 -18 -9 12 -19 19 -23 15 -3 -4 -1 -13 5 -19 18 -18
15 -26 -10 -31 -25 -4 -27 -3 62 -32 139 -46 268 -165 354 -325 l31 -58 45 41
45 40 -38 -22 c-21 -11 -40 -21 -41 -21 -2 0 -14 25 -26 55 -12 30 -27 55 -32
55 -5 0 -7 13 -3 29 3 16 2 32 -3 35 -5 3 -9 -2 -8 -11 0 -9 -5 -18 -11 -20
-7 -3 -13 0 -13 5 0 16 -72 92 -87 92 -7 0 -13 4 -13 9 0 12 25 32 32 26 15
-15 31 35 38 122 5 54 7 99 5 101 -4 5 -21 -57 -29 -108 -4 -26 -4 -30 3 -15
9 19 10 18 10 -5 0 -14 -6 -36 -14 -50 -8 -14 -14 -19 -15 -11 0 8 -8 4 -20
-10 -25 -31 -25 -24 5 55 35 94 30 94 -16 1 -21 -44 -39 -72 -39 -62 0 10 -4
15 -10 12 -16 -10 -12 21 5 35 8 7 15 17 15 23 0 5 -9 -2 -20 -15 -11 -14 -29
-28 -41 -31 -18 -5 -20 -2 -15 19 4 14 2 24 -4 24 -5 0 -10 -4 -10 -10 0 -5
-4 -10 -8 -10 -10 0 -9 51 2 68 9 15 1 15 -25 2 -10 -6 2 11 27 37 44 45 70
87 65 107 -2 11 69 86 82 86 6 0 7 -23 4 -52 -5 -52 -5 -52 7 -18 l13 35 7
-32 c4 -18 3 -42 -4 -55 l-11 -23 19 22 c13 15 22 19 29 12 7 -7 19 1 38 25
22 29 30 34 42 25 13 -11 12 -21 -5 -69 -3 -8 4 -4 16 10 l21 25 1 -25 c0 -20
2 -22 10 -10 8 11 9 8 4 -12 -4 -18 -2 -28 5 -28 6 0 11 -7 11 -15 0 -8 5 -15
10 -15 22 0 8 60 -25 110 -19 29 -35 60 -35 69 0 40 32 121 66 165 19 25 41
61 49 79 7 17 30 48 50 69 68 67 131 74 160 18 9 -17 20 -28 25 -25 6 4 10 8
10 11 0 3 -5 2 -11 -2 -9 -5 -10 4 -5 30 5 24 3 43 -5 52 -19 23 -32 16 -15
-8z m-328 -323 c-13 -51 -26 -69 -26 -36 0 20 26 81 34 81 1 0 -2 -20 -8 -45z"/>
<path d="M360 4830 l55 -7 -55 -3 c-30 -3 -69 -4 -86 -4 -20 1 -31 -4 -30 -11
3 -21 27 -45 45 -45 14 -1 14 -2 -2 -11 -14 -8 -24 -5 -48 15 -37 31 -41 32
-57 6 -11 -18 -10 -20 11 -20 33 0 59 -22 51 -43 -3 -9 -12 -17 -19 -17 -21 0
-24 -32 -25 -295 0 -137 -3 -266 -6 -285 -4 -26 -2 -31 5 -20 6 8 11 73 11
146 0 72 3 200 7 284 5 134 8 153 24 157 9 3 20 16 23 29 10 38 63 48 192 37
60 -5 118 -6 129 -2 19 7 19 8 -2 8 -12 1 -24 5 -27 10 -3 5 -33 7 -66 6 -34
-2 -74 0 -89 5 -15 4 -35 4 -43 -1 -17 -9 -78 -1 -78 10 0 12 224 29 231 18 4
-5 16 -7 28 -4 12 3 21 2 21 -2 0 -4 16 -5 35 -3 19 2 35 8 35 13 0 9 -3 10
-50 15 -14 1 -65 7 -115 13 -49 6 -106 10 -125 9 -26 -1 -21 -3 20 -8z"/>
<path d="M2971 4776 c-39 -110 -47 -164 -38 -251 4 -44 6 -136 4 -205 -3 -69
-1 -271 3 -450 7 -307 7 -294 7 235 l0 560 27 83 c32 98 30 121 -3 28z"/>
<path d="M1745 4816 c-52 -23 -93 -79 -173 -236 -1 -3 7 -6 18 -7 11 -1 35
-14 52 -28 27 -23 38 -26 72 -20 53 8 63 19 30 34 -23 10 -26 9 -21 -4 5 -10
0 -15 -15 -15 -20 0 -20 1 -4 19 17 19 17 20 -18 27 -20 3 -50 4 -66 1 l-29
-6 31 45 c17 25 52 67 78 93 51 51 70 56 140 33 19 -6 47 -14 62 -17 36 -7 61
-47 62 -98 1 -40 1 -40 -49 -54 -27 -7 -56 -11 -62 -8 -14 5 -19 -13 -28 -95
-3 -30 -1 -61 4 -69 7 -10 4 -19 -7 -28 -24 -18 -40 -16 -69 7 -28 22 -55 28
-35 8 20 -20 14 -25 -32 -32 -25 -4 -52 -16 -64 -29 -24 -25 -49 -82 -31 -72
6 4 13 -2 16 -14 3 -12 13 -21 24 -21 16 0 16 -4 -6 -42 -14 -24 -25 -50 -24
-58 0 -8 5 -4 10 9 15 38 50 82 60 76 5 -4 15 -3 22 2 22 14 49 13 78 -1 32
-16 39 -13 32 14 -9 35 -76 40 -110 8 -13 -12 -23 -16 -23 -10 0 7 -6 12 -14
12 -21 0 -26 25 -10 49 19 26 39 26 125 1 56 -17 70 -25 75 -45 3 -13 3 -29
-1 -34 -3 -6 -1 -11 6 -11 7 0 21 -7 31 -17 17 -15 18 -15 9 13 -5 16 -12 46
-16 66 -3 21 -17 51 -30 67 -20 23 -22 30 -11 34 12 5 14 20 9 77 l-6 70 38
-15 c20 -9 40 -14 42 -11 3 3 -6 10 -21 15 -14 6 -26 16 -26 22 0 8 5 7 16 -2
13 -10 17 -10 25 2 6 10 9 10 9 2 0 -7 7 -13 16 -13 20 0 8 19 -20 29 -15 6
-10 8 22 7 l44 -1 -7 -54 c-9 -69 -29 -127 -60 -167 -15 -20 -25 -46 -25 -66
l0 -33 30 52 c16 28 34 54 38 57 5 3 12 -33 15 -80 5 -68 3 -92 -11 -122 -9
-20 -20 -39 -24 -43 -5 -3 10 -23 32 -44 22 -22 40 -35 40 -30 1 6 7 -1 15
-15 7 -14 12 -36 9 -50 -2 -14 -1 -19 2 -12 3 6 11 12 16 12 6 0 9 -3 5 -6 -3
-3 1 -27 9 -52 18 -60 18 -73 -1 -66 -23 9 -18 -10 10 -36 13 -12 22 -27 19
-32 -3 -5 0 -7 7 -6 20 4 57 -118 51 -168 -3 -26 0 -44 8 -49 17 -11 25 2 11
19 -9 10 -9 20 -3 32 9 16 10 15 16 -4 4 -11 9 -31 11 -44 3 -13 9 -45 15 -73
18 -83 18 -85 9 -79 -5 3 -9 -20 -9 -50 0 -35 4 -56 11 -56 8 0 10 15 7 45 -7
57 9 59 17 3 5 -32 0 -60 -18 -113 -14 -38 -30 -99 -36 -135 -6 -36 -18 -96
-27 -135 -21 -92 -30 -397 -11 -371 9 12 14 65 16 165 2 128 6 162 37 282 19
75 34 146 34 158 0 20 20 51 34 51 11 0 46 -80 46 -104 0 -14 8 -40 19 -58 10
-19 21 -48 25 -66 3 -17 9 -45 12 -62 4 -17 10 -30 14 -30 5 0 11 -8 14 -18 4
-11 17 -25 30 -32 19 -9 23 -18 20 -39 -9 -47 -34 -71 -107 -105 -71 -33 -121
-65 -102 -65 6 0 55 23 110 52 115 60 130 80 141 188 5 57 4 71 -12 93 -11 14
-22 26 -26 26 -5 0 -8 -35 -8 -77 -1 -75 -1 -77 -14 -47 -8 18 -18 34 -24 38
-5 3 -7 17 -5 31 4 17 0 27 -11 31 -13 5 -15 14 -11 35 5 20 0 36 -16 58 -12
17 -19 36 -15 46 3 9 -5 37 -18 63 -26 52 -56 142 -141 427 -32 105 -68 223
-81 263 -13 40 -23 76 -22 80 6 20 -38 74 -76 97 -43 25 -44 27 -30 53 8 15
14 36 14 47 1 11 10 -2 21 -30 11 -27 25 -54 31 -60 6 -6 6 -1 -1 12 -6 12
-22 64 -36 116 -18 70 -22 102 -15 130 4 20 5 113 2 205 -4 92 -8 156 -10 142
-3 -18 -9 -8 -21 39 -19 76 -38 93 -78 71 -26 -15 -29 -14 -61 17 -37 37 -44
38 -87 19z m74 -516 c25 -15 -16 -11 -64 6 l-40 14 44 -6 c24 -2 51 -9 60 -14z"/>
<path d="M2476 4728 c-6 -68 -16 -331 -17 -468 0 -47 3 -141 8 -210 7 -104 9
-53 13 305 3 237 4 431 3 433 0 2 -4 -25 -7 -60z"/>
<path d="M1695 4692 l-61 -67 67 -33 c76 -38 103 -39 107 -2 2 18 0 21 -6 12
-7 -11 -19 -9 -60 12 -28 14 -54 30 -57 36 -4 6 12 31 34 55 36 39 48 56 39
55 -2 -1 -30 -31 -63 -68z"/>
<path d="M530 4640 c0 -40 2 -71 5 -68 7 7 9 128 1 135 -3 3 -6 -27 -6 -67z"/>
<path d="M650 4689 c0 -17 -40 -64 -41 -48 -1 8 -9 -32 -19 -88 -10 -56 -20
-114 -24 -128 -6 -22 -3 -25 22 -25 27 0 28 3 41 73 8 39 17 99 21 132 4 33
10 68 15 78 4 10 3 17 -4 17 -6 0 -11 -5 -11 -11z m-31 -163 c-7 -43 -15 -73
-19 -66 -8 13 -4 43 12 108 16 65 20 44 7 -42z"/>
<path d="M2623 4450 l1 -245 6 210 c3 116 2 226 -1 245 -4 19 -6 -75 -6 -210z"/>
<path d="M715 4655 c3 -17 2 -87 -2 -157 -5 -71 -5 -128 -1 -128 9 0 11 -214
2 -246 -3 -12 -17 -27 -30 -34 -13 -8 -24 -20 -24 -28 0 -8 -6 -12 -15 -9 -10
4 -25 -11 -47 -48 -18 -30 -37 -55 -42 -55 -10 0 -1 368 9 378 3 4 20 1 37 -6
34 -12 48 -9 48 14 0 18 -85 20 -97 2 -4 -7 -11 -105 -15 -218 -6 -177 -10
-215 -31 -280 -13 -41 -27 -88 -30 -105 -7 -34 -5 -30 39 80 64 159 176 283
333 371 68 38 98 49 143 52 35 3 55 8 52 14 -4 6 -23 7 -45 4 -23 -4 -39 -2
-39 4 0 5 -48 -15 -106 -45 -58 -30 -108 -55 -111 -55 -2 0 -5 44 -5 98 0 197
-9 407 -19 417 -6 6 -7 -1 -4 -20z"/>
<path d="M683 4595 c0 -33 2 -45 4 -27 2 18 2 45 0 60 -2 15 -4 0 -4 -33z"/>
<path d="M2397 4515 c-4 -39 -6 -113 -5 -165 1 -83 2 -75 9 60 9 165 7 221 -4
105z"/>
<path d="M1764 4480 c-4 -16 -11 -30 -17 -30 -7 0 -6 -5 1 -12 16 -16 32 5 32
45 0 36 -9 35 -16 -3z"/>
<path d="M660 4396 c0 -23 -3 -27 -20 -23 -11 3 -20 1 -20 -4 0 -5 11 -9 24
-9 26 0 40 28 25 51 -6 10 -9 5 -9 -15z"/>
<path d="M4 4255 c0 -82 2 -115 3 -72 2 43 2 110 0 150 -1 40 -3 5 -3 -78z"/>
<path d="M1351 4378 c-1 -19 -57 -65 -73 -60 -5 1 -7 -2 -4 -7 4 -5 2 -12 -4
-16 -5 -3 -10 -10 -10 -15 0 -15 70 31 87 56 8 13 13 31 10 41 -4 16 -5 16 -6
1z"/>
<path d="M2028 4343 c5 -76 10 -83 11 -15 0 34 -2 62 -7 62 -4 0 -6 -21 -4
-47z"/>
<path d="M1433 4271 c8 -68 -2 -173 -16 -164 -6 3 -7 1 -3 -6 4 -6 12 -9 17
-6 5 4 9 0 9 -7 1 -14 84 -80 190 -149 36 -23 89 -62 118 -87 33 -27 75 -51
110 -62 l57 -18 12 36 c6 21 12 46 12 57 0 18 -1 18 -11 -3 -11 -21 -17 -23
-69 -18 -49 3 -66 10 -104 41 -25 21 -45 45 -46 54 0 14 -1 13 -7 -2 -7 -15
-12 -13 -47 19 -22 20 -42 36 -45 36 -15 1 -69 46 -62 53 4 4 -1 5 -11 2 -11
-4 -20 -1 -23 8 -4 8 -11 15 -18 15 -6 0 -22 17 -35 37 -22 34 -23 41 -12 83
7 24 20 54 29 65 16 19 16 19 0 6 -16 -12 -18 -11 -18 8 0 13 -8 30 -17 39
-15 16 -16 13 -10 -37z m463 -452 c3 -5 -11 -9 -32 -9 -30 0 -34 2 -25 14 12
14 47 11 57 -5z"/>
<path d="M923 4200 c2 -8 12 -15 23 -16 44 -1 114 -16 114 -23 0 -5 -27 -19
-60 -31 -34 -13 -58 -25 -55 -28 3 -3 -2 -14 -12 -24 -9 -11 -11 -18 -5 -18 7
0 12 5 12 11 0 5 5 7 10 4 6 -3 22 2 38 12 15 11 47 28 72 38 45 20 60 32 60
50 0 6 -4 4 -9 -4 -8 -12 -15 -11 -50 3 -23 9 -53 16 -66 16 -14 0 -25 5 -25
10 0 6 -7 10 -15 10 -8 0 -15 -6 -15 -12 0 -9 -4 -8 -11 2 -9 13 -10 13 -6 0z"/>
<path d="M1556 4156 c-6 -33 14 -106 29 -106 3 0 1 10 -6 21 -6 12 -11 44 -11
70 0 27 -2 49 -3 49 -2 0 -6 -16 -9 -34z"/>
<path d="M1674 4145 c-7 -19 -14 -40 -13 -47 0 -7 4 -4 9 7 7 15 9 10 9 -24 1
-24 3 -42 5 -40 6 6 14 139 9 139 -2 0 -11 -16 -19 -35z"/>
<path d="M2394 4065 c0 -49 1 -71 3 -48 2 23 2 64 0 90 -2 26 -3 8 -3 -42z"/>
<path d="M1148 4107 c8 -9 33 -28 57 -41 45 -27 92 -90 86 -116 -1 -8 0 -12 4
-8 4 4 16 3 26 -3 13 -7 19 -6 19 1 0 6 4 9 9 6 14 -9 41 4 41 20 0 8 -4 14
-10 14 -5 0 -10 -4 -10 -10 0 -5 -5 -10 -11 -10 -6 0 -8 7 -5 16 3 8 2 12 -4
9 -6 -3 -10 -13 -10 -22 0 -9 -25 12 -59 48 -32 35 -78 75 -102 88 -30 17 -40
20 -31 8z"/>
<path d="M827 4061 c-62 -41 -137 -124 -187 -206 -42 -70 -38 -81 6 -15 45 70
161 183 180 176 8 -3 14 -1 14 4 0 6 7 10 16 10 8 0 13 4 9 9 -3 6 11 21 32
35 35 24 36 26 13 26 -14 0 -51 -17 -83 -39z"/>
<path d="M2113 3975 c8 -16 25 -63 37 -102 20 -65 39 -94 40 -60 1 6 12 -8 25
-33 29 -55 33 -45 4 11 -28 56 -17 60 21 7 49 -67 90 -154 107 -227 24 -107
25 -111 33 -111 11 0 -5 -57 -21 -77 -7 -8 -23 -13 -36 -10 -12 2 -20 0 -17
-4 3 -5 15 -9 27 -9 22 -1 22 -1 2 -12 -11 -6 -21 -12 -22 -13 -7 -5 30 -93
48 -115 l21 -25 -17 28 c-9 16 -23 46 -30 67 -13 36 -12 39 5 45 36 12 60 54
60 108 0 28 -4 64 -9 81 -5 17 -19 67 -31 111 -12 44 -36 104 -53 134 -37 63
-217 254 -194 206z"/>
<path d="M2654 3900 c0 -52 1 -74 3 -47 2 26 2 68 0 95 -2 26 -3 4 -3 -48z"/>
<path d="M743 3933 c-16 -16 -44 -53 -62 -83 -80 -130 -83 -133 -93 -119 -7
11 -8 9 -6 -6 3 -17 10 -19 43 -16 41 3 57 15 49 36 -3 6 5 22 16 35 11 13 18
30 15 39 -2 9 5 27 16 41 l21 25 -16 -27 c-9 -16 -12 -28 -7 -28 13 0 19 11
25 42 2 14 11 40 20 57 20 38 16 39 -21 4z"/>
<path d="M1995 3925 c-3 -14 -7 -36 -10 -49 -5 -27 4 -86 14 -86 3 0 6 36 6
80 0 44 -1 80 -2 80 -2 0 -5 -11 -8 -25z"/>
<path d="M1340 3913 c0 -3 7 -15 16 -24 10 -11 17 -37 18 -64 1 -29 5 -45 14
-45 24 0 44 -75 44 -170 0 -75 -12 -85 -62 -50 -24 17 -34 19 -45 10 -7 -6
-12 -17 -9 -25 3 -7 -3 -16 -15 -20 -12 -3 -19 -11 -15 -16 3 -5 10 -6 16 -3
7 4 8 2 4 -4 -9 -15 -9 -15 47 4 25 8 56 14 69 12 17 -3 8 -8 -34 -21 -68 -20
-92 -21 -107 -4 -6 8 -29 19 -52 26 -36 11 -40 16 -36 37 2 13 0 24 -4 24 -5
0 -9 -9 -9 -21 0 -23 2 -24 -110 19 -74 29 -74 29 -90 9 -11 -13 -23 -18 -34
-14 -24 10 -14 33 13 30 13 -2 20 1 16 7 -3 6 -18 10 -32 10 -14 0 -53 8 -87
17 -43 12 -96 16 -180 15 -127 -1 -174 10 -143 33 15 11 13 25 -4 25 -7 0 -49
-83 -49 -97 0 -5 8 4 18 19 16 25 21 26 37 15 17 -13 17 -16 -6 -83 -13 -38
-23 -80 -22 -94 2 -21 1 -22 -6 -6 -7 18 -9 16 -19 -12 -6 -19 -7 -32 -1 -32
5 0 9 6 10 13 0 6 7 -3 15 -21 12 -28 17 -32 29 -22 17 14 20 40 5 40 -5 0 -7
-7 -4 -15 4 -8 2 -15 -4 -15 -12 0 -21 21 -15 38 6 16 30 16 40 -1 10 -16 82
-61 89 -55 2 3 -7 11 -21 18 -14 8 -28 24 -31 37 -4 12 -10 21 -14 18 -13 -8
-25 17 -21 45 1 14 14 40 27 58 14 17 21 32 15 32 -5 0 -20 -18 -32 -40 -13
-22 -26 -40 -29 -40 -7 0 20 86 33 108 10 14 103 17 112 2 3 -5 28 -10 54 -10
64 0 161 -18 188 -36 26 -16 50 -18 55 -4 2 5 41 -4 88 -21 47 -17 105 -37
130 -44 25 -7 59 -20 75 -28 23 -12 41 -13 75 -7 25 5 49 5 53 1 4 -4 -1 -33
-13 -64 -15 -39 -33 -65 -63 -90 -48 -39 -128 -61 -173 -48 -16 4 -35 6 -41 4
-7 -3 -13 3 -13 14 -1 17 -2 17 -15 -2 -19 -24 -85 -24 -120 -1 -25 16 -44 6
-22 -11 36 -29 208 -39 309 -18 40 8 74 15 76 15 1 0 2 -7 2 -15 0 -20 49 -20
57 1 8 22 -13 42 -29 25 -11 -10 -10 -11 5 -6 9 4 17 3 17 -3 0 -18 -20 -24
-35 -12 -17 14 -9 37 15 45 20 6 64 97 79 165 21 89 14 209 -18 302 -15 47
-38 100 -50 117 -22 30 -31 38 -31 24z"/>
<path d="M1630 3880 c0 -21 15 -27 25 -10 7 11 25 4 25 -9 0 -5 -24 -27 -52
-49 -56 -43 -89 -88 -81 -110 3 -7 2 -34 -2 -59 l-7 -46 -16 34 c-9 19 -20 36
-24 37 -4 2 -8 10 -8 19 0 20 -24 11 -28 -10 -2 -11 1 -15 11 -11 12 4 14 -4
11 -49 -3 -42 0 -56 11 -61 8 -3 15 -12 15 -20 0 -21 -28 -27 -39 -8 -9 15
-10 15 -11 1 0 -40 54 -50 63 -12 2 10 2 0 -1 -22 -7 -65 -49 -186 -81 -237
-27 -42 -37 -49 -96 -67 -175 -54 -280 -51 -474 15 -129 44 -343 136 -395 171
-39 26 -40 26 -55 6 -36 -46 -75 -120 -77 -145 -1 -14 -9 -36 -18 -49 -15 -23
-15 -23 74 -70 90 -47 245 -150 328 -217 24 -19 46 -32 49 -28 3 3 -4 32 -16
64 -25 70 -26 92 -5 92 8 0 42 25 74 56 l59 56 26 -49 c40 -74 86 -146 162
-259 20 -30 34 -62 32 -75 -1 -13 8 -44 19 -69 25 -51 27 -73 10 -99 -13 -21
-4 -56 12 -46 5 3 10 1 10 -5 0 -7 -7 -9 -15 -6 -19 7 -108 -71 -98 -87 3 -6
1 -7 -5 -3 -6 3 -16 -2 -21 -13 -14 -26 -14 -34 1 -25 7 4 8 3 4 -5 -4 -6 -11
-9 -16 -6 -4 3 -15 -12 -23 -33 -8 -20 -11 -38 -7 -40 11 -4 5 -24 -31 -94
-17 -32 -26 -63 -23 -72 4 -9 3 -16 -2 -15 -20 3 -28 -2 -16 -10 11 -7 10 -16
-8 -50 -40 -80 -99 -242 -93 -258 4 -10 2 -14 -4 -10 -11 7 -28 -22 -18 -31 3
-3 5 1 5 8 0 7 3 11 6 8 3 -4 -4 -36 -15 -74 -12 -37 -20 -69 -18 -70 2 -2 12
3 23 11 12 8 26 36 34 70 7 31 17 58 21 61 4 2 20 -12 35 -32 30 -39 29 -41
-31 -69 -39 -18 -22 -18 37 0 42 12 50 12 62 -1 21 -20 28 -17 14 6 -7 11 -18
20 -25 20 -7 0 -13 7 -13 15 0 8 -7 15 -16 15 -13 0 -15 7 -10 34 7 35 -13 64
-34 51 -15 -9 -5 30 38 145 19 52 35 101 35 108 0 16 45 8 101 -19 22 -11 41
-19 43 -19 6 0 1 66 -7 90 -6 17 -7 11 -3 -22 l5 -47 -70 31 c-69 30 -69 31
-59 59 6 16 14 24 17 18 4 -5 19 6 34 25 31 41 42 44 51 15 6 -18 9 -19 23 -6
17 15 67 32 112 40 14 2 -9 5 -50 5 -52 1 -70 -1 -60 -8 13 -9 13 -10 0 -10
-8 0 -22 5 -30 10 -10 6 -22 3 -39 -13 l-23 -22 7 25 c29 94 45 126 68 144
l27 20 76 -37 c41 -20 77 -44 80 -51 3 -8 19 -18 35 -21 16 -4 29 -10 29 -15
0 -5 8 -11 18 -14 9 -3 -9 -4 -40 -2 -51 2 -58 0 -58 -16 0 -18 11 -24 24 -11
3 4 30 8 58 10 59 3 56 -4 -16 -40 -27 -14 -43 -27 -37 -31 6 -4 40 9 76 30
l66 36 52 -22 c29 -12 53 -23 55 -25 1 -1 -11 -32 -28 -69 -16 -38 -30 -80
-29 -94 0 -21 3 -16 13 18 18 62 55 140 66 140 16 0 11 -28 -14 -78 -13 -26
-32 -73 -41 -104 -10 -31 -22 -55 -26 -53 -4 3 -5 -4 -2 -15 6 -22 -3 -25 -26
-11 -12 8 -13 14 -3 37 7 14 11 27 10 28 -2 1 -64 21 -139 45 l-136 44 43 34
c43 32 60 41 51 26 -3 -5 12 -8 34 -8 41 0 47 6 26 23 -8 7 -18 7 -27 2 -20
-13 -33 -12 -25 0 3 6 3 10 0 10 -10 0 -97 -60 -127 -88 -29 -27 -40 -54 -13
-32 13 11 22 10 48 -3 17 -9 70 -33 117 -53 47 -21 88 -41 93 -44 4 -4 -10
-51 -32 -106 -22 -54 -54 -151 -71 -214 -43 -160 -40 -152 -53 -142 -7 5 -25
14 -42 20 -16 6 -65 24 -109 41 -76 29 -78 29 -57 7 12 -13 40 -28 62 -35 22
-7 37 -16 35 -20 -5 -8 80 -31 113 -31 14 0 23 18 40 78 53 185 65 221 93 295
16 42 33 75 38 72 5 -3 7 -12 4 -19 -3 -8 0 -17 7 -22 15 -9 55 38 70 84 10
30 14 33 42 28 31 -6 31 -6 7 6 -14 7 -26 13 -28 14 -1 0 11 31 28 68 16 38
30 74 30 82 0 20 11 17 50 -11 l33 -25 17 38 16 37 -88 29 c-48 16 -85 32 -83
36 3 4 -2 11 -11 14 -8 3 -12 2 -9 -4 12 -19 -62 -1 -135 33 -41 19 -114 53
-161 74 -78 37 -116 63 -90 63 10 0 64 51 69 66 2 5 13 7 25 6 57 -9 269 -72
318 -95 30 -14 109 -48 176 -77 l122 -51 28 19 c15 11 44 29 63 41 l35 22 -30
-7 c-16 -4 -33 -11 -36 -17 -4 -5 -11 -7 -17 -3 -5 3 -12 -1 -16 -9 -6 -16
-57 -21 -70 -7 -4 4 -12 8 -17 8 -5 1 -13 2 -19 3 -5 0 -10 8 -10 16 0 8 -5
14 -12 12 -6 -1 -15 9 -19 23 -4 14 -8 21 -8 15 -1 -5 -6 -3 -11 5 -9 13 -12
12 -25 -4 -12 -16 -18 -17 -27 -8 -9 9 -9 12 2 12 7 0 11 2 8 5 -3 3 -17 1
-32 -4 -29 -12 -31 -9 -16 20 8 15 7 19 -4 19 -8 0 -17 -6 -19 -12 -3 -7 -6
-5 -6 6 -1 18 -2 18 -21 1 -11 -10 -20 -13 -20 -7 0 6 6 12 13 15 22 8 -44 29
-180 56 -128 25 -131 27 -140 56 -5 17 -6 47 -3 68 4 20 3 37 -1 37 -4 0 -15
15 -24 33 -15 30 -15 33 0 42 9 6 24 16 33 23 15 11 14 12 -5 3 -28 -14 -53
-14 -53 0 0 5 5 7 10 4 6 -3 10 -2 10 4 0 18 -24 66 -37 74 -7 4 -24 28 -39
52 -14 25 -30 45 -36 45 -6 0 -8 7 -4 15 3 8 1 14 -5 12 -6 -1 -18 8 -26 21
-15 21 -15 22 3 16 19 -7 19 -7 0 14 -10 12 -22 19 -26 17 -4 -3 -14 3 -21 13
-13 15 -12 16 3 3 28 -21 22 4 -8 45 -15 19 -25 36 -23 38 2 2 38 -2 79 -10
92 -16 158 -19 185 -8 20 7 20 7 0 -16 -18 -22 -16 -21 13 3 19 15 41 28 50
29 9 1 24 2 32 3 8 1 25 7 38 13 30 17 27 4 -7 -38 -24 -29 -31 -32 -44 -22
-13 11 -21 8 -49 -17 l-33 -29 28 5 c15 3 27 10 27 15 0 6 8 7 17 4 13 -5 32
9 73 53 31 34 63 61 72 61 8 0 39 -21 69 -47 l54 -47 -125 -126 c-69 -69 -143
-141 -165 -159 -22 -18 -29 -28 -16 -21 13 7 89 74 169 151 103 97 150 135
158 128 6 -5 20 -6 29 -2 15 5 17 3 12 -12 -6 -15 -5 -16 8 -5 10 9 19 10 26
3 11 -11 -128 -149 -246 -243 -44 -35 -79 -67 -78 -71 2 -4 -10 -16 -26 -25
-25 -15 -27 -19 -17 -40 11 -23 52 -44 87 -44 24 0 51 28 47 49 -2 9 3 21 12
28 8 7 10 13 4 13 -20 0 -57 -48 -50 -66 5 -14 2 -16 -25 -10 -17 3 -35 6 -40
6 -4 0 -9 12 -11 28 -3 23 9 38 87 106 50 43 113 93 142 112 53 36 71 53 71
67 0 5 14 24 31 42 l30 34 98 -41 c54 -23 115 -54 137 -71 29 -22 48 -30 76
-29 23 1 43 -4 50 -13 18 -22 30 -18 30 8 0 18 -2 19 -10 7 -14 -22 -13 6 1
33 l12 21 8 -23 c5 -12 13 -20 19 -16 6 4 6 12 -1 23 -9 14 -5 24 19 50 l30
31 12 -45 c7 -24 15 -43 17 -40 2 2 -1 23 -7 46 -9 32 -8 45 1 57 12 13 14 13
20 -4 5 -11 7 -2 6 24 l-2 41 -28 -34 c-16 -19 -58 -59 -93 -89 l-65 -55 -42
27 c-23 15 -118 63 -212 108 -205 99 -311 160 -296 170 6 3 31 -3 54 -14 23
-11 103 -49 178 -84 l137 -65 11 24 c11 26 0 32 -17 11 -9 -11 -44 2 -174 65
-89 44 -164 81 -166 82 -1 2 6 19 17 37 41 70 90 291 91 410 0 31 8 44 51 84
47 44 54 47 92 42 23 -2 51 -8 62 -12 15 -6 14 -3 -5 11 -14 9 -42 32 -63 51
-42 37 -67 42 -67 13z m-1120 -576 c68 -58 154 -125 180 -138 8 -4 -14 19 -50
52 l-65 61 125 -48 c69 -27 134 -52 145 -55 18 -7 14 -13 -35 -57 -30 -27 -62
-56 -71 -63 -14 -11 -24 -3 -74 56 -37 45 -90 91 -147 129 -90 61 -105 77 -94
104 8 23 16 19 86 -41z m-80 -20 c8 -8 45 -33 83 -56 91 -53 184 -148 202
-207 11 -38 -9 -22 -59 46 -52 71 -100 109 -201 160 -84 42 -77 37 -69 57 8
20 28 21 44 0z m105 -119 c28 -19 68 -58 90 -87 22 -29 50 -61 63 -71 12 -10
22 -26 22 -35 0 -12 -8 -8 -32 15 -18 17 -40 30 -48 30 -8 0 -60 28 -115 63
-55 34 -110 68 -121 76 -16 9 -22 23 -22 48 l0 34 57 -19 c31 -11 79 -35 106
-54z m1051 -970 c4 -8 12 -15 20 -15 8 0 14 -7 14 -15 0 -8 -3 -15 -6 -15 -12
0 -63 48 -57 54 11 10 23 7 29 -9z"/>
<path d="M405 3193 c6 -5 35 -25 65 -45 30 -21 71 -52 90 -70 59 -56 76 -65
42 -23 -39 50 -115 109 -168 131 -21 9 -34 12 -29 7z"/>
<path d="M3 3770 c0 -36 2 -50 4 -32 2 17 2 47 0 65 -2 17 -4 3 -4 -33z"/>
<path d="M842 3767 c-30 -32 -27 -47 8 -47 20 0 33 6 37 18 3 9 11 24 17 33 6
8 -1 2 -15 -13 -14 -15 -28 -28 -31 -28 -8 0 -5 22 6 38 14 23 0 23 -22 -1z"/>
<path d="M1456 3775 c-10 -8 -16 -20 -13 -27 4 -9 6 -9 6 -1 1 7 7 10 15 7 17
-6 32 14 20 26 -5 5 -17 2 -28 -5z"/>
<path d="M1669 3744 c-6 -24 -16 -44 -21 -44 -5 0 -8 -6 -7 -12 3 -29 -3 -41
-10 -18 -4 14 -10 20 -14 14 -3 -6 0 -20 8 -30 19 -24 27 -12 45 62 12 51 30
68 45 44 4 -6 11 -8 16 -5 12 8 11 35 -2 35 -5 0 -7 -5 -3 -12 5 -7 3 -8 -7
-2 -29 18 -39 11 -50 -32z"/>
<path d="M1917 3707 c-15 -25 -42 -52 -68 -66 l-43 -24 54 -19 c29 -10 56 -16
58 -13 5 5 -42 25 -61 25 -7 1 2 8 18 17 17 9 33 21 37 27 5 7 8 6 8 -4 0 -11
2 -12 8 -2 6 9 16 10 39 2 25 -9 32 -18 37 -49 3 -21 13 -45 23 -52 15 -13 15
-12 4 9 -6 12 -9 27 -6 32 3 6 1 10 -4 10 -21 0 -10 21 16 31 39 15 49 6 22
-21 -24 -23 -21 -23 26 -4 11 4 15 0 15 -17 -1 -25 -12 -42 -46 -72 -20 -17
-23 -17 -38 -1 -16 15 -17 15 -10 -11 6 -24 4 -26 -14 -21 -19 6 -20 4 -15
-31 7 -46 13 -56 13 -21 0 14 9 33 20 43 19 18 20 17 20 -4 0 -12 4 -19 10
-16 6 4 8 11 4 16 -8 13 25 49 44 49 12 0 10 -6 -7 -24 -19 -20 -20 -27 -10
-49 6 -14 9 -33 5 -43 -6 -15 -9 -15 -32 7 -25 24 -26 24 -40 5 -8 -11 -14
-32 -14 -47 0 -14 -3 -48 -6 -75 l-5 -49 50 53 c58 61 79 116 87 232 6 91 -4
115 -66 147 -25 13 -56 35 -70 48 -15 14 -29 25 -32 25 -3 0 -17 -19 -31 -43z
m38 -10 c-5 -20 -5 -20 8 -5 12 15 14 15 25 -3 18 -29 6 -41 -26 -25 -15 7
-33 11 -40 9 -10 -4 -10 2 3 26 17 34 39 33 30 -2z m95 -318 c7 -11 8 -24 4
-27 -4 -4 -9 -1 -11 6 -6 15 -33 16 -33 1 0 -6 5 -19 10 -29 6 -11 6 -21 1
-24 -15 -9 -24 50 -11 73 14 27 26 27 40 0z"/>
<path d="M2653 3690 c0 -36 2 -50 4 -32 2 17 2 47 0 65 -2 17 -4 3 -4 -33z"/>
<path d="M973 3720 c-26 -20 -29 -30 -10 -30 12 0 42 38 35 45 -2 2 -13 -5
-25 -15z"/>
<path d="M1691 3695 c-18 -70 -52 -146 -62 -139 -5 3 -9 0 -9 -6 0 -6 8 -10
18 -8 18 3 76 156 70 187 -2 9 -10 -6 -17 -34z"/>
<path d="M1720 3727 c0 -17 20 -45 20 -29 0 6 7 12 16 12 20 0 9 16 -16 23
-12 3 -20 0 -20 -6z"/>
<path d="M1262 3715 c4 -4 2 -17 -4 -29 -10 -19 -10 -20 5 -7 15 12 17 11 17
-3 0 -10 5 -14 10 -11 17 11 11 34 -12 46 -13 6 -20 8 -16 4z"/>
<path d="M4 3415 c0 -154 2 -216 3 -137 2 79 2 205 0 280 -1 75 -3 11 -3 -143z"/>
<path d="M45 3665 c4 -16 8 -39 9 -50 3 -25 115 -306 128 -320 16 -17 -4 58
-38 145 -55 140 -106 257 -99 225z"/>
<path d="M1755 3668 c4 -13 11 -27 16 -32 9 -10 35 8 50 36 9 16 5 18 -31 18
-38 0 -41 -2 -35 -22z"/>
<path d="M1145 3650 c4 -6 -6 -10 -22 -11 -27 -1 -26 -2 12 -19 72 -32 80 -33
80 -5 0 14 -4 24 -10 24 -27 -3 -46 2 -40 11 3 6 -1 10 -10 10 -9 0 -13 -4
-10 -10z"/>
<path d="M1966 3574 l5 -61 -50 -46 c-28 -26 -55 -47 -61 -47 -17 0 -11 -26 9
-44 20 -18 41 -14 41 7 0 7 -4 6 -10 -3 -13 -21 -12 -6 2 25 13 30 21 31 44 8
13 -13 16 -14 12 -3 -2 8 -14 19 -25 25 -21 9 -20 10 14 40 l35 30 -10 65 -11
65 5 -61z"/>
<path d="M436 3571 c-9 -29 -15 -55 -13 -58 8 -7 40 84 35 98 -2 7 -12 -11
-22 -40z"/>
<path d="M1703 3604 c-8 -23 54 -147 69 -138 8 5 9 2 5 -10 -4 -10 -3 -15 3
-11 6 3 10 -2 10 -11 0 -10 27 -53 59 -95 l60 -76 -30 -32 c-16 -18 -29 -36
-29 -40 0 -5 -10 -20 -21 -35 -12 -15 -18 -30 -15 -33 11 -11 63 47 82 90 10
23 19 44 21 46 2 3 17 -9 34 -25 24 -23 29 -35 25 -59 -3 -16 -1 -57 3 -90 l8
-60 2 69 c0 38 3 67 5 65 9 -9 12 -148 4 -142 -5 3 -16 -3 -24 -13 -14 -18
-15 -17 -11 9 3 19 0 27 -11 27 -9 0 -13 -7 -9 -19 5 -19 4 -19 -32 -2 -20 10
-47 23 -61 30 -23 10 -23 11 -2 7 27 -5 29 10 3 24 -26 13 -28 13 -33 -8 -4
-15 11 -27 76 -59 80 -40 81 -40 101 -21 11 11 20 23 20 28 0 5 3 11 7 15 4 4
3 18 -3 32 -11 30 -12 93 -1 93 4 0 6 16 4 35 -3 29 3 43 37 86 23 28 41 57
41 63 0 6 -6 2 -12 -9 -17 -32 -91 -105 -105 -105 -20 0 -146 130 -165 170 -9
19 -22 49 -28 65 -8 20 -14 25 -19 17 -9 -16 -53 80 -53 115 0 27 -6 30 -15 7z"/>
<path d="M1770 3610 c0 -5 5 -10 11 -10 5 0 7 -4 4 -10 -3 -5 -1 -29 6 -52 11
-40 12 -41 20 -19 8 19 12 21 24 11 21 -17 19 -27 -7 -34 -13 -3 -19 -9 -13
-13 6 -5 12 -17 13 -28 5 -26 6 -27 26 -19 9 4 23 19 31 35 18 33 19 43 5 34
-5 -3 -10 -1 -10 4 0 6 8 11 18 12 11 0 12 2 4 6 -7 3 -19 -1 -27 -7 -12 -10
-15 -10 -15 2 0 19 -50 44 -51 25 0 -6 -5 -1 -10 12 -5 13 -8 25 -6 27 2 2 22
-5 45 -16 53 -26 74 -25 98 3 l19 22 -22 -19 c-27 -22 -60 -16 -115 20 -42 27
-48 29 -48 14z m110 -122 c0 -5 -10 -19 -21 -31 -18 -18 -21 -19 -15 -4 3 10
6 24 6 31 0 7 7 13 15 13 8 0 15 -4 15 -9z"/>
<path d="M2220 3606 c0 -8 4 -17 9 -20 4 -3 11 -20 15 -38 5 -27 9 -30 17 -18
8 12 10 9 6 -12 -2 -17 0 -25 6 -21 6 4 8 0 4 -11 -9 -23 13 -96 28 -96 7 0
17 6 24 13 13 17 -5 38 -26 30 -11 -4 -14 1 -11 23 3 29 -26 128 -45 152 -13
16 -27 15 -27 -2z"/>
<path d="M1591 3584 c-1 -17 10 -52 24 -78 14 -26 25 -61 26 -79 0 -18 3 -26
6 -19 2 6 9 10 13 7 15 -9 -7 53 -30 85 -11 16 -25 49 -29 72 -8 38 -9 39 -10
12z"/>
<path d="M1225 3550 c-9 -14 -6 -17 25 -22 17 -2 25 2 25 12 0 18 -40 26 -50
10z"/>
<path d="M2125 3435 c-4 -36 -11 -65 -14 -65 -4 0 -6 -13 -3 -29 2 -16 -3 -58
-12 -93 -9 -36 -16 -75 -16 -89 1 -24 1 -23 17 5 8 17 19 72 23 125 5 53 12
122 16 154 4 31 4 57 1 57 -3 0 -9 -29 -12 -65z"/>
<path d="M1443 3403 c-14 -44 -16 -61 -7 -48 8 10 14 27 14 37 0 10 7 18 15
18 8 0 15 6 15 14 0 8 7 16 15 20 8 3 15 11 15 18 0 9 -3 9 -11 -2 -8 -11 -12
-12 -16 -2 -10 24 -19 11 -40 -55z"/>
<path d="M700 3418 c-11 -18 -20 -36 -20 -40 0 -17 11 -6 30 32 25 48 18 53
-10 8z"/>
<path d="M1691 3389 c-22 -18 -22 -21 -8 -37 16 -19 6 -68 -13 -57 -5 3 -10 2
-10 -4 0 -5 5 -11 10 -13 6 -2 4 -11 -5 -23 -14 -17 -16 -17 -11 -3 4 13 -3
22 -24 33 -31 16 -54 48 -43 59 3 3 15 6 25 6 11 0 26 7 34 15 14 13 14 16 0
21 -8 3 -20 2 -27 -2 -8 -4 -9 -3 -5 4 4 7 2 12 -4 12 -6 0 -14 -8 -17 -17 -4
-10 -12 -22 -20 -26 -17 -11 8 -63 46 -94 24 -19 25 -24 14 -53 -11 -28 -10
-30 4 -19 8 7 25 18 36 24 25 12 87 91 87 110 0 8 -15 -1 -35 -21 -19 -19 -35
-31 -35 -26 0 5 11 19 25 32 26 24 37 89 13 74 -6 -4 -8 -3 -4 4 12 20 -9 20
-33 1z"/>
<path d="M1746 3402 c-2 -4 2 -18 10 -32 l13 -25 1 33 c0 29 -12 43 -24 24z"/>
<path d="M1922 3380 c-1 -15 -7 -31 -12 -36 -8 -8 0 -19 25 -38 l35 -27 -2 58
c-1 51 -2 53 -5 15 -5 -56 -26 -51 -34 9 -3 24 -7 33 -7 19z"/>
<path d="M714 3335 c-8 -20 4 -35 26 -35 24 0 36 18 20 33 -9 9 -11 9 -8 -2 2
-8 -5 -17 -15 -19 -15 -3 -18 0 -12 17 7 24 -2 29 -11 6z"/>
<path d="M897 3309 c-9 -6 -22 -7 -27 -4 -6 3 -10 2 -10 -3 0 -13 35 -21 50
-12 20 12 8 30 -13 19z"/>
<path d="M1798 3285 c-3 -3 -1 -22 5 -41 7 -25 7 -38 0 -45 -8 -8 -11 -7 -10
4 1 9 -2 15 -8 14 -19 -4 -11 -34 9 -33 17 1 22 9 24 38 3 37 -9 74 -20 63z"/>
<path d="M881 3259 c-1 -20 22 -31 44 -22 18 6 15 25 -5 31 -7 3 -10 0 -6 -7
4 -6 1 -11 -8 -11 -8 0 -17 6 -19 13 -4 7 -6 6 -6 -4z"/>
<path d="M1581 3233 c0 -11 3 -13 6 -5 7 18 23 15 23 -5 0 -12 3 -14 11 -6 15
15 3 33 -22 33 -12 0 -19 -7 -18 -17z"/>
<path d="M1087 3223 c-12 -20 1 -33 34 -33 19 0 29 5 29 15 0 8 -7 15 -15 15
-8 0 -15 -4 -15 -10 0 -17 -18 -11 -22 8 -3 12 -6 14 -11 5z"/>
<path d="M2134 3150 c-22 -33 -44 -58 -51 -56 -6 3 -14 -2 -17 -10 -7 -17 5
-18 26 -1 20 16 94 127 85 127 -3 0 -22 -27 -43 -60z"/>
<path d="M202 3150 c-2 -47 -1 -50 21 -50 15 0 34 -13 53 -37 28 -36 29 -39
13 -54 -24 -23 -41 -140 -35 -234 5 -86 5 -86 62 -65 23 9 24 14 24 105 0 53
4 104 9 114 5 9 6 23 2 30 -6 9 -13 5 -24 -13 -10 -14 -17 -30 -17 -35 0 -5
-5 -13 -10 -16 -19 -11 -10 41 10 63 11 12 20 28 20 37 0 8 5 15 10 15 11 0
123 -68 175 -106 29 -21 105 -62 95 -51 -7 7 -231 155 -240 159 -5 2 -11 15
-15 29 -11 43 20 45 88 4 46 -28 63 -33 71 -24 8 9 8 10 -1 5 -8 -4 -13 -2
-13 5 0 7 -3 9 -7 6 -7 -8 -36 9 -108 63 -27 21 -77 51 -110 66 -33 15 -62 29
-65 31 -3 2 -6 -20 -8 -47z m112 -13 c12 12 5 -43 -9 -67 l-13 -25 -11 28 c-6
15 -14 39 -17 53 -6 23 -4 24 19 15 14 -5 28 -7 31 -4z m-3 -320 c-3 -64 -9
-89 -22 -82 -12 8 -11 75 2 114 15 44 23 31 20 -32z"/>
<path d="M151 3121 c-15 -12 -22 -24 -18 -34 3 -9 1 -20 -6 -24 -12 -8 -13
-14 -23 -78 -4 -29 -4 -28 10 5 7 20 26 60 40 89 15 29 26 54 24 56 -2 2 -14
-4 -27 -14z"/>
<path d="M200 3076 c0 -7 -3 -29 -6 -47 -9 -45 7 -29 22 22 10 32 9 39 -2 39
-8 0 -14 -6 -14 -14z"/>
<path d="M1324 3024 c-11 -15 -14 -33 -9 -53 8 -37 14 -41 40 -30 16 6 17 8 3
8 -10 1 -22 10 -28 22 -9 16 -8 25 6 40 9 10 23 19 30 19 24 0 22 15 -2 16
-16 1 -30 -6 -40 -22z"/>
<path d="M154 3002 c-17 -2 -25 -15 -35 -50 -17 -60 -21 -82 -11 -59 17 39 26
8 24 -83 -2 -71 0 -91 8 -80 9 12 11 8 8 -17 -3 -18 -1 -30 3 -27 4 2 9 -10
11 -28 2 -24 -3 -40 -21 -60 -16 -19 -21 -32 -16 -45 5 -10 7 -25 6 -33 -2
-12 1 -11 17 4 12 10 26 15 32 11 6 -4 17 -2 24 4 7 6 55 25 105 42 66 22 107
29 149 28 33 -1 64 1 71 5 15 9 101 -21 101 -35 0 -6 5 -7 11 -3 6 3 3 -8 -5
-25 -14 -27 -19 -29 -41 -21 -14 5 -36 16 -49 25 -29 19 -121 31 -130 17 -3
-6 17 -12 52 -17 72 -8 170 -51 155 -66 -8 -8 -27 -6 -69 9 -32 11 -51 22 -43
24 8 3 1 3 -15 0 -21 -3 -26 -1 -21 8 11 19 -137 5 -214 -19 -47 -14 -58 -15
-54 -5 3 8 1 14 -5 14 -5 0 -12 -6 -14 -12 -6 -17 16 -71 25 -62 4 4 7 -2 7
-13 0 -23 38 -174 45 -182 3 -2 9 0 14 5 6 5 0 37 -15 79 -13 39 -22 80 -19
93 3 12 2 22 -3 22 -19 0 -9 38 11 44 96 23 261 13 335 -21 31 -15 47 -38 17
-27 -10 4 -16 -3 -21 -23 -4 -15 -10 -32 -14 -38 -3 -5 -8 -30 -9 -54 -2 -36
0 -43 13 -38 9 4 16 2 16 -2 0 -5 -5 -11 -11 -13 -8 -3 -4 -20 10 -51 20 -44
20 -49 6 -75 -13 -22 -15 -23 -10 -4 4 13 2 22 -4 22 -6 0 -11 -11 -11 -25 0
-15 -7 -39 -15 -55 -11 -22 -12 -30 -2 -34 6 -4 -14 -4 -46 -1 -38 4 -56 2
-52 -5 3 -5 30 -10 58 -10 37 0 48 -3 37 -10 -8 -5 -31 -10 -50 -10 -31 0
-130 -20 -183 -36 -16 -5 -17 -3 -6 14 7 11 27 23 43 27 17 4 26 9 19 11 -6 3
-27 -2 -47 -10 -35 -14 -36 -14 -36 5 0 12 -7 36 -16 54 -15 32 -14 34 7 59
29 33 39 20 39 -53 0 -44 3 -52 16 -47 9 3 21 6 27 6 32 1 38 16 26 69 -8 38
-15 51 -25 47 -8 -3 -14 -2 -14 2 0 13 80 53 92 46 6 -4 42 -7 80 -8 63 -1 67
0 41 11 -77 33 -234 4 -295 -55 -27 -24 -41 -19 -16 6 9 9 8 12 -5 12 -22 0
-22 9 0 26 10 7 16 15 13 18 -3 3 -20 -6 -38 -20 l-32 -25 30 -44 c17 -24 39
-65 50 -91 17 -38 18 -49 8 -62 -8 -10 -9 -17 -3 -19 21 -7 9 -107 -21 -167
-26 -53 -29 -56 -41 -39 -8 10 -17 17 -21 16 -4 -1 -28 6 -54 15 -52 18 -61
37 -25 52 15 6 17 9 6 9 -23 1 -35 -17 -44 -64 -6 -33 -9 -37 -15 -20 -12 27
-11 56 0 30 7 -16 9 -17 9 -3 2 33 -10 47 -36 42 -13 -3 -22 -1 -19 4 2 4 1
14 -3 21 -5 7 -8 1 -9 -18 0 -17 5 -32 14 -35 8 -3 14 -13 13 -23 0 -16 -1
-16 -8 1 -5 14 -10 16 -15 8 -8 -13 0 -32 13 -32 4 0 48 -22 97 -50 49 -27 92
-50 95 -50 4 0 10 19 14 43 5 27 9 35 13 23 4 -19 54 -76 66 -76 14 0 4 20
-28 55 -29 31 -33 40 -23 56 8 13 13 15 19 6 12 -19 28 12 28 56 0 36 1 37 39
37 22 0 62 12 96 29 l58 30 36 -27 c20 -14 38 -27 40 -29 2 -1 -13 -24 -33
-52 -20 -27 -46 -72 -57 -100 -22 -51 -32 -58 -59 -41 -9 6 -19 5 -28 -3 -11
-9 -19 -6 -37 17 -19 24 -23 25 -29 11 -10 -27 -7 -32 24 -45 17 -7 30 -18 30
-24 0 -8 2 -8 8 0 10 15 72 24 72 10 1 -6 11 7 23 30 28 51 76 114 88 114 22
0 7 -41 -21 -55 -16 -8 -37 -29 -46 -46 -18 -37 -27 -139 -12 -156 13 -17 2
-33 -25 -33 -71 -2 -82 -1 -85 9 -2 5 -9 8 -16 5 -18 -7 -66 50 -96 114 -14
28 -28 52 -31 52 -15 0 -17 -45 -4 -60 8 -9 15 -22 15 -28 0 -6 11 -19 25 -28
13 -9 27 -24 30 -35 4 -10 15 -19 25 -19 10 0 21 -7 24 -16 4 -10 12 -14 24
-9 12 4 26 -4 49 -32 29 -35 34 -37 54 -25 18 11 24 11 40 -4 19 -17 21 -17
50 0 17 10 33 16 36 13 3 -3 -25 -92 -61 -198 -37 -105 -64 -194 -62 -196 8
-8 84 159 91 200 4 20 15 48 25 60 13 16 19 42 20 88 1 35 1 69 0 74 -8 38 18
94 34 77 4 -3 4 1 1 9 -4 10 3 22 19 33 31 20 33 32 6 41 -11 3 -20 11 -20 16
0 14 28 11 33 -3 3 -10 7 -10 20 1 20 16 22 31 4 31 -10 0 -5 26 20 98 43 125
180 478 248 642 29 68 95 247 95 255 0 10 -58 -34 -95 -70 -52 -52 -104 -185
-72 -185 27 0 40 -17 28 -36 -10 -18 -10 -18 -11 2 0 14 -8 24 -21 27 -16 4
-20 11 -15 24 5 14 4 15 -4 7 -14 -14 5 -58 21 -49 5 4 9 1 9 -4 0 -6 -6 -11
-14 -11 -8 0 -16 -3 -19 -7 -2 -5 -2 -3 -1 4 2 7 -1 15 -6 18 -6 4 -10 -4 -10
-16 0 -12 -6 -30 -14 -38 -15 -18 -46 -110 -46 -138 0 -15 -2 -16 -11 -3 -9
12 -10 11 -6 -7 3 -13 1 -26 -4 -29 -10 -6 -12 -74 -2 -74 3 0 15 7 25 17 10
9 18 12 18 6 0 -16 -38 -46 -49 -38 -6 3 -11 13 -11 22 0 9 -3 14 -6 10 -4 -3
-3 -14 2 -24 13 -30 12 -52 -2 -64 -11 -9 -14 -8 -14 6 0 10 -2 16 -5 13 -4
-3 -3 -18 1 -32 6 -24 8 -25 19 -10 8 12 14 14 19 6 10 -17 -2 -32 -25 -32
-10 0 -19 5 -19 10 0 6 -5 10 -11 10 -5 0 -7 -5 -3 -11 3 -6 0 -15 -7 -20 -7
-4 -10 -11 -6 -16 5 -4 12 -1 16 6 5 8 11 9 15 3 3 -6 1 -12 -6 -14 -8 -3 -12
-22 -11 -49 1 -32 -1 -39 -7 -24 -5 11 -9 14 -9 8 -2 -22 -29 -14 -35 10 -3
12 -14 32 -25 44 -11 12 -23 33 -27 47 -11 46 -26 48 -88 11 -61 -38 -71 -41
-60 -23 4 7 3 8 -5 4 -6 -4 -8 -12 -5 -18 5 -8 1 -9 -10 -5 -9 4 -15 3 -12 -2
11 -17 -99 -49 -130 -37 -8 3 -12 11 -9 16 5 8 11 7 21 -1 11 -9 24 -9 52 -1
36 11 37 13 34 50 -5 52 22 65 53 26 l21 -27 29 19 29 19 -29 6 c-29 5 -29 5
-7 13 12 4 36 4 54 1 29 -7 31 -6 25 21 -7 37 16 111 42 136 27 25 26 39 -3
67 -20 19 -23 30 -19 60 11 84 26 147 38 167 8 12 11 31 8 43 -7 29 14 52 46
49 23 -3 26 1 27 32 1 28 22 138 48 253 3 12 -13 29 -52 57 -64 46 -87 52 -50
13 15 -16 28 -39 31 -53 4 -23 4 -22 6 5 1 27 3 28 15 12 14 -19 12 -59 -8
-148 -10 -46 -15 -54 -32 -51 -12 1 -27 -5 -34 -13 -12 -15 -9 -21 26 -51 l39
-34 -35 14 c-19 8 -54 24 -77 35 -138 68 -317 47 -426 -49 -20 -17 -37 -27
-37 -21 0 18 5 26 13 23 5 -1 6 2 2 8 -4 6 -2 9 3 8 6 -2 11 2 12 7 0 6 11 21
23 35 12 14 15 19 7 13 -19 -17 -31 -16 -24 2 3 8 1 36 -5 62 -6 27 -12 83
-15 125 l-4 77 44 41 c24 22 44 43 44 45 0 17 -34 -1 -66 -32 -36 -37 -36 -38
-14 -5 25 37 24 48 -6 44z m711 -712 c-4 -6 6 -10 22 -11 28 -1 28 -1 3 -8
-14 -4 -25 -11 -25 -16 -1 -6 -6 -20 -13 -32 -11 -20 -10 -23 5 -24 15 0 14
-2 -5 -11 -33 -16 -36 -5 -13 41 24 47 26 55 9 45 -9 -5 -9 -2 1 9 15 18 26
23 16 7z m-525 -117 c1 -5 5 -27 9 -50 4 -23 5 -47 1 -53 -4 -7 -10 4 -14 27
-4 21 -10 48 -13 61 -3 13 -1 22 6 22 6 0 11 -3 11 -7z m482 -55 c-24 -24 -30
-10 -10 22 8 13 16 16 22 10 7 -7 3 -18 -12 -32z m-222 -163 c7 -8 10 -26 8
-40 -4 -20 -3 -23 8 -14 11 9 14 8 14 -4 0 -9 -10 -21 -21 -28 -15 -8 -19 -8
-15 0 4 6 1 11 -6 11 -8 0 -29 11 -46 24 l-33 24 28 21 c34 25 47 26 63 6z
m-236 -46 c-8 -14 -21 -10 -28 7 -10 25 5 40 20 19 7 -10 11 -22 8 -26z m316
-96 c24 -55 24 -61 4 -103 -14 -27 -14 -34 -3 -42 11 -8 10 -9 -4 -4 -19 6
-22 1 -70 -124 -14 -36 -27 -74 -29 -84 -2 -11 -9 -21 -16 -24 -7 -2 -10 2 -6
12 4 11 -1 15 -23 13 -15 -1 -31 -6 -35 -12 -8 -11 -58 -15 -58 -4 0 4 16 14
35 23 23 11 35 24 35 38 0 11 18 61 41 111 47 105 57 150 39 172 -13 16 -1 38
39 72 19 17 27 10 51 -44z m50 -5 c0 -7 -4 -19 -8 -26 -6 -9 -12 -6 -20 13
-10 22 -9 25 8 25 11 0 20 -6 20 -12z m-510 -81 c0 -7 -4 -18 -9 -25 -7 -11
-9 -10 -14 3 -4 9 -3 13 3 10 6 -3 10 -1 10 5 0 6 -7 13 -15 16 -8 4 -15 10
-15 15 0 6 9 5 20 -1 11 -6 20 -16 20 -23z"/>
<path d="M506 3003 c-12 -12 -6 -22 9 -17 11 5 14 2 9 -12 -6 -15 -4 -17 6 -7
15 13 50 0 50 -19 0 -7 -5 -6 -15 2 -9 7 -18 10 -22 6 -3 -3 -1 -6 6 -6 7 0 9
-5 6 -10 -4 -6 -11 -7 -17 -4 -6 4 -6 -2 1 -15 13 -23 51 -29 51 -7 0 7 9 16
19 19 16 4 18 0 15 -22 -6 -36 34 -77 54 -55 10 11 9 15 -7 23 -10 6 -22 22
-25 36 -4 16 -24 35 -56 53 -28 16 -48 31 -45 33 2 3 -4 5 -14 6 -11 1 -22 -1
-25 -4z"/>
<path d="M1350 2996 c0 -8 4 -17 9 -20 11 -7 33 18 24 27 -12 12 -33 7 -33 -7z"/>
<path d="M1673 2976 c-22 -20 -26 -27 -15 -37 14 -15 22 -7 40 34 14 33 11 34
-25 3z"/>
<path d="M1710 2906 c0 -8 4 -17 9 -20 11 -7 33 18 24 27 -12 12 -33 7 -33 -7z"/>
<path d="M174 2892 c-7 -17 -6 -55 3 -120 7 -54 12 -100 13 -104 0 -5 5 -8 11
-8 8 0 9 13 4 43 -4 23 -10 80 -14 127 -6 69 -9 81 -17 62z"/>
<path d="M1845 2860 c-4 -7 -3 -16 3 -22 14 -14 45 -2 40 15 -6 16 -34 21 -43
7z"/>
<path d="M2533 2785 c-2 -75 11 -213 21 -222 7 -7 76 22 76 33 0 25 -23 27
-40 4 l-18 -23 -8 44 c-4 24 -7 55 -5 69 1 20 0 22 -9 10 -8 -11 -9 1 -5 45 3
33 2 76 -3 95 -6 27 -8 15 -9 -55z"/>
<path d="M450 2836 c-12 -34 -24 -102 -16 -94 8 7 36 118 29 118 -2 0 -8 -11
-13 -24z"/>
<path d="M620 2846 c0 -2 18 -15 40 -30 25 -16 40 -21 40 -14 0 7 -18 21 -40
30 -22 9 -40 15 -40 14z"/>
<path d="M1525 2840 c3 -5 -1 -10 -9 -10 -22 0 -30 -19 -15 -36 14 -18 24 -9
33 29 4 17 2 27 -4 27 -6 0 -8 -4 -5 -10z"/>
<path d="M551 2810 c-6 -16 -16 -43 -22 -59 -23 -63 -1 -51 24 12 30 75 31 77
18 77 -5 0 -14 -13 -20 -30z"/>
<path d="M1642 2828 c-16 -16 -15 -25 5 -32 17 -7 33 9 33 32 0 15 -22 16 -38
0z"/>
<path d="M2001 2819 c-1 -15 -8 -32 -16 -39 -12 -10 -15 -7 -21 14 -3 14 -10
26 -15 26 -13 0 -27 -33 -21 -50 2 -8 1 -12 -3 -8 -9 8 -35 -16 -35 -32 0 -6
12 -2 27 9 25 20 27 21 46 4 19 -17 20 -17 14 0 -4 9 -3 17 1 17 4 0 15 6 24
14 13 10 15 19 8 42 l-8 29 -1 -26z"/>
<path d="M2054 2816 c-6 -17 2 -36 17 -36 12 0 12 37 -1 45 -6 3 -13 -1 -16
-9z"/>
<path d="M2901 2694 c-82 -106 -162 -234 -146 -234 2 0 16 21 29 48 26 50 32
58 145 206 41 53 72 98 70 100 -2 2 -46 -52 -98 -120z"/>
<path d="M2456 2737 c-26 -34 -50 -87 -42 -94 2 -3 14 1 26 7 12 6 24 9 27 6
3 -3 -1 -8 -9 -11 -13 -5 -13 -13 0 -63 9 -31 17 -58 18 -60 1 -2 12 2 24 8
17 9 20 14 10 20 -12 8 -22 85 -24 188 -1 17 -2 32 -3 32 -1 0 -13 -15 -27
-33z"/>
<path d="M2962 2711 c-33 -45 -33 -45 -3 -11 50 55 39 8 -13 -58 -24 -32 -59
-83 -77 -116 -28 -51 -30 -57 -12 -47 12 6 45 50 74 98 28 49 56 91 61 94 5 3
8 24 6 46 l-3 40 -33 -46z"/>
<path d="M1492 2719 c-13 -5 -21 -13 -17 -18 9 -15 -5 -61 -18 -58 -6 1 -13
-6 -15 -15 -2 -11 2 -18 11 -18 9 0 18 13 22 30 3 16 16 41 27 55 24 31 22 36
-10 24z"/>
<path d="M1915 2696 c-20 -47 -19 -49 11 -21 21 20 30 22 41 14 11 -10 12 -8
5 12 -14 38 -40 36 -57 -5z"/>
<path d="M1803 2701 c-10 -10 -28 -24 -40 -30 -23 -12 -32 -41 -13 -41 6 0 10
5 10 10 0 6 5 10 11 10 14 0 59 47 59 61 0 14 -7 11 -27 -10z"/>
<path d="M1560 2689 c0 -24 23 -21 28 4 2 10 -3 17 -12 17 -10 0 -16 -9 -16
-21z"/>
<path d="M1847 2703 c-4 -3 -7 -14 -7 -24 0 -10 -9 -21 -20 -24 -14 -4 -20
-15 -19 -33 0 -24 1 -25 9 -6 4 11 24 32 44 48 20 15 34 32 31 37 -7 10 -29
12 -38 2z"/>
<path d="M285 2685 c-22 -8 -41 -15 -42 -15 -2 0 -3 -4 -3 -9 0 -8 98 23 109
35 9 9 -26 3 -64 -11z"/>
<path d="M411 2696 c2 -2 31 -6 64 -9 36 -3 52 -2 40 3 -19 8 -113 14 -104 6z"/>
<path d="M1690 2672 c-14 -15 -27 -40 -30 -57 -6 -37 -45 -44 -45 -8 0 35 -11
35 -13 -1 -3 -36 -4 -35 153 -71 40 -10 -17 13 -62 25 l-42 11 30 48 c16 27
36 52 44 55 8 3 15 10 15 16 0 19 -25 10 -50 -18z"/>
<path d="M2992 2636 c-1 -15 -16 -49 -33 -74 -17 -26 -24 -40 -15 -33 14 12
16 10 17 -10 0 -16 7 -5 20 31 11 30 18 69 16 85 l-4 30 -1 -29z"/>
<path d="M1526 2626 c-14 -22 -14 -25 0 -30 27 -10 34 -7 34 18 0 35 -15 40
-34 12z"/>
<path d="M2250 2633 c0 -16 22 -31 55 -37 29 -6 29 -6 5 4 -13 6 -33 18 -42
27 -10 9 -18 11 -18 6z"/>
<path d="M2878 2613 c-50 -56 -81 -117 -38 -78 17 15 73 105 66 105 -1 0 -14
-12 -28 -27z"/>
<path d="M1223 2623 c-17 -6 -16 -40 1 -46 8 -3 24 -3 37 0 14 4 20 2 16 -4
-4 -6 11 -15 38 -22 54 -14 76 -14 53 -1 -9 6 -14 18 -11 29 3 12 -2 23 -14
29 -22 11 -103 22 -120 15z m117 -39 c0 -9 -7 -14 -17 -12 -25 5 -28 28 -4 28
12 0 21 -6 21 -16z"/>
<path d="M2352 2618 c-7 -7 -12 -16 -12 -20 0 -12 28 -10 36 3 10 17 -10 31
-24 17z"/>
<path d="M2406 2614 c-19 -14 -19 -14 1 -14 16 0 22 -8 26 -37 4 -21 2 -42 -4
-50 -20 -23 -85 -35 -130 -23 -22 6 -48 10 -58 8 -10 -2 -25 3 -34 11 -15 12
-17 11 -17 -5 -1 -18 -1 -18 -15 0 -13 17 -15 18 -15 3 0 -9 -6 -17 -14 -17
-9 0 -13 10 -12 28 l2 28 -33 -20 c-18 -12 -32 -26 -33 -33 0 -6 -9 -15 -20
-18 -11 -3 -20 -11 -20 -16 0 -5 -7 -9 -15 -9 -8 0 -15 5 -15 10 0 6 6 10 14
10 8 0 17 7 20 16 6 15 4 15 -16 1 -15 -10 -22 -23 -20 -38 3 -29 -13 -39 -65
-39 -37 0 -223 31 -278 47 -15 4 -17 2 -9 -7 6 -6 31 -14 55 -16 58 -6 213
-45 219 -55 3 -4 25 1 49 12 54 24 64 24 56 -1 -4 -14 -2 -20 8 -20 10 0 14
10 13 32 -1 28 4 35 34 50 38 19 54 9 44 -27 -4 -13 6 -6 30 20 37 40 37 40
54 19 14 -16 23 -19 46 -13 20 6 33 4 43 -7 20 -19 29 -18 12 2 -19 23 -52 34
-61 20 -5 -7 -8 -4 -8 7 0 14 5 16 28 10 43 -12 124 -8 157 8 37 17 41 42 18
96 -17 39 -19 41 -37 27z"/>
<path d="M1694 2599 c-19 -21 -19 -21 11 -17 18 2 30 9 30 17 0 23 -20 23 -41
0z"/>
<path d="M2031 2603 c1 -10 5 -29 10 -43 7 -21 8 -18 4 13 -2 22 0 35 6 32 5
-4 9 -1 9 4 0 6 -7 11 -15 11 -8 0 -15 -8 -14 -17z"/>
<path d="M1426 2575 c9 -14 14 -31 11 -39 -3 -8 4 -18 19 -25 15 -6 24 -7 24
-1 0 6 -7 10 -15 10 -10 0 -15 10 -15 34 0 22 -6 36 -16 40 -25 9 -26 8 -8
-19z"/>
<path d="M1770 2576 c0 -22 11 -46 21 -46 5 0 8 14 7 30 -2 29 -28 44 -28 16z"/>
<path d="M1897 2573 c-4 -3 -7 -18 -7 -32 1 -25 1 -25 15 -7 23 30 15 63 -8
39z"/>
<path d="M1992 2568 c-20 -20 -15 -47 8 -41 11 3 20 14 20 24 0 23 -14 31 -28
17z"/>
<path d="M1540 2531 c0 -25 -3 -28 -25 -23 -14 2 -25 2 -25 -1 0 -12 244 -57
259 -47 5 3 15 19 21 35 l11 30 -27 -29 c-24 -26 -31 -28 -73 -22 -25 3 -51
13 -57 21 -8 11 -21 13 -44 8 -33 -6 -33 -6 -27 25 4 19 2 32 -3 32 -6 0 -10
-13 -10 -29z"/>
<path d="M1932 2540 c-11 -18 -10 -20 8 -20 13 0 20 7 20 20 0 11 -3 20 -8 20
-4 0 -13 -9 -20 -20z"/>
<path d="M2600 2551 c0 -22 13 -41 28 -41 13 0 11 -4 -6 -16 -12 -8 -22 -19
-22 -23 0 -9 52 -7 68 3 7 4 12 1 12 -8 0 -8 5 -18 11 -22 20 -12 32 13 25 51
-6 33 -10 37 -32 32 -17 -3 -28 1 -35 14 -10 19 -49 27 -49 10z"/>
<path d="M2529 2522 c-37 -24 -35 -32 58 -173 26 -40 83 -185 82 -209 0 -10
-3 -8 -9 5 -5 11 -9 17 -9 14 -2 -15 22 -125 29 -134 4 -5 11 -39 15 -75 8
-74 45 -233 53 -226 3 3 -2 31 -11 63 -21 74 -36 202 -32 273 1 30 0 36 -2 13
-5 -57 -19 -54 -28 4 -6 42 -4 49 14 62 24 15 28 36 6 27 -10 -4 -15 1 -16 17
-1 12 -2 29 -3 39 -1 9 -4 20 -8 24 -5 4 -8 12 -8 18 0 6 5 3 11 -7 6 -9 14
-15 20 -12 13 9 11 -9 -3 -23 -8 -8 -9 -12 -1 -12 6 0 14 -8 16 -17 3 -12 5
-8 6 9 0 14 4 33 7 42 4 10 1 16 -7 16 -16 0 -89 77 -81 85 3 3 -1 5 -8 5 -7
0 -11 3 -8 6 3 3 -5 17 -19 32 -21 22 -22 28 -9 30 11 3 14 10 10 27 -3 13 -1
31 4 42 7 13 6 23 -3 36 -16 22 -33 22 -66 -1z m42 -32 c5 0 9 -4 9 -10 0 -12
-47 -13 -54 -1 -8 12 6 22 22 16 7 -3 18 -5 23 -5z"/>
<path d="M1850 2490 c6 -11 20 -20 31 -20 14 0 19 -5 16 -14 -7 -19 18 -40 38
-32 40 15 -6 71 -49 60 -26 -6 -38 10 -13 19 6 3 2 6 -11 6 -20 1 -21 -2 -12
-19z"/>
<path d="M2480 2453 c20 -33 20 -38 6 -49 -9 -6 -16 -14 -16 -18 0 -11 28 -6
33 7 9 23 76 -149 121 -313 13 -44 15 -47 10 -15 -7 49 -85 287 -120 366 -15
33 -33 59 -41 59 -12 0 -10 -8 7 -37z"/>
<path d="M310 2455 c0 -28 24 -34 34 -9 8 20 -1 34 -20 34 -8 0 -14 -10 -14
-25z"/>
<path d="M2444 2464 c4 -11 -4 -19 -29 -30 -43 -18 -54 -18 -30 -1 14 11 15
16 5 22 -9 6 -11 4 -5 -5 6 -10 1 -12 -19 -8 -29 6 -30 5 -15 -23 9 -17 17
-19 57 -14 74 10 75 10 57 45 -16 31 -32 42 -21 14z"/>
<path d="M2960 2445 c-8 -2 -55 -9 -103 -15 -48 -7 -86 -15 -83 -17 7 -8 209
19 221 28 9 9 -3 10 -35 4z"/>
<path d="M1353 2430 c18 -11 24 -40 8 -40 -5 0 -17 7 -25 16 -11 10 -16 11
-16 3 0 -6 8 -18 17 -25 20 -14 43 -2 43 22 0 17 3 17 45 0 19 -8 35 -13 35
-10 0 7 -58 30 -95 38 -24 5 -26 4 -12 -4z"/>
<path d="M341 2404 c-14 -18 -19 -34 -14 -52 4 -16 2 -23 -5 -18 -6 4 -8 -2
-4 -16 3 -14 2 -19 -6 -14 -8 5 -12 0 -12 -13 0 -25 6 -26 53 -6 60 25 76 84
33 124 l-24 22 -21 -27z m39 -38 c6 -28 5 -36 -6 -36 -16 0 -29 43 -20 66 9
22 16 13 26 -30z"/>
<path d="M2241 2398 c12 -44 108 -277 109 -263 0 6 -9 34 -20 63 -11 29 -20
62 -19 75 0 14 6 6 17 -25 9 -26 20 -50 25 -54 11 -11 8 15 -4 38 -8 16 -8 24
4 35 13 13 16 7 28 -56 10 -59 10 -76 -1 -97 -12 -21 -12 -27 -1 -34 8 -4 11
-15 8 -24 -4 -9 -2 -16 3 -16 6 0 10 -5 10 -10 0 -6 -11 -8 -24 -6 -22 4 -24
2 -17 -17 9 -25 4 -50 -10 -42 -5 4 -6 -2 -3 -12 9 -25 -99 90 -134 143 -23
36 -61 125 -68 159 -4 21 -12 35 -21 35 -8 0 -13 7 -11 17 5 27 24 25 38 -4 7
-17 14 -23 17 -15 4 9 9 10 18 2 9 -8 14 -6 19 6 4 10 -1 22 -11 30 -15 11
-16 16 -5 33 6 12 12 30 12 42 0 18 -2 19 -15 9 -8 -7 -12 -16 -9 -21 3 -5 1
-16 -4 -26 -9 -14 -11 -14 -22 7 -9 18 -10 25 -1 28 6 2 11 8 11 14 0 6 -6 5
-15 -2 -11 -9 -14 -22 -10 -42 4 -17 2 -28 -5 -28 -11 0 -14 6 -25 55 -7 27
-8 28 -15 10 -9 -20 -9 -20 -10 0 -1 11 -9 -4 -19 -34 l-18 -54 -16 23 -16 23
-83 -38 c-46 -21 -85 -42 -88 -45 -3 -4 -16 -10 -30 -14 -32 -8 -150 -119
-150 -141 0 -9 5 -13 10 -10 6 3 10 -1 10 -10 0 -13 -4 -14 -20 -5 -25 13 -25
2 -1 -27 26 -32 108 -73 145 -73 17 -1 56 -9 86 -20 71 -25 112 -26 103 -3 -5
12 -2 15 8 11 87 -35 99 -42 99 -58 0 -13 6 -16 24 -13 15 3 40 -5 67 -22 23
-15 57 -34 76 -41 18 -8 39 -24 47 -37 26 -40 48 -250 53 -522 5 -249 9 -274
35 -275 7 0 5 114 -7 333 -4 77 -3 87 12 87 13 0 14 3 5 12 -7 7 -12 22 -12
34 0 13 -4 25 -10 29 -5 3 -6 15 -1 28 7 21 -8 177 -23 227 -6 19 -1 16 19
-14 21 -29 29 -35 36 -25 7 11 9 11 9 1 0 -7 4 -11 9 -7 6 3 10 -3 11 -12 0
-10 4 -72 8 -138 l7 -120 5 85 5 85 23 -89 c13 -51 21 -102 17 -120 -5 -29 -5
-30 6 -6 6 14 8 43 5 65 -4 22 -9 70 -12 107 -5 56 -10 70 -30 83 -13 8 -24
21 -24 27 0 6 10 2 23 -10 l22 -21 28 85 28 85 -22 18 c-12 9 -23 31 -25 48
-3 29 0 32 43 47 26 9 53 16 60 16 23 0 14 -27 -14 -45 -16 -10 -32 -24 -36
-32 -5 -8 -17 -12 -30 -8 -16 4 -14 1 6 -10 16 -9 30 -15 31 -13 2 2 20 26 41
53 l38 50 -5 -57 c-2 -32 -1 -59 4 -60 11 -4 59 -220 62 -278 2 -47 29 -100
51 -100 14 0 29 -45 20 -60 -4 -6 4 -6 19 0 14 5 26 6 26 1 0 -9 -45 -31 -65
-31 -8 0 -15 -9 -15 -19 0 -11 -4 -22 -9 -25 -14 -9 -71 27 -71 44 -1 11 -4 9
-12 -5 -7 -11 -13 -24 -14 -30 0 -5 -2 -16 -2 -22 -2 -13 -53 -18 -65 -7 -9
10 12 46 23 39 6 -3 7 1 4 10 -10 24 23 65 51 65 18 0 25 5 25 19 0 11 4 22 9
25 4 3 8 -11 7 -32 -1 -33 2 -37 27 -40 27 -3 28 -1 25 29 -3 29 -11 38 -63
67 -32 18 -84 54 -113 79 -50 43 -53 44 -39 17 14 -27 46 -62 57 -63 3 0 13
-3 22 -6 20 -8 14 -25 -21 -62 -12 -13 -17 -25 -11 -28 19 -12 10 -63 -16 -94
-14 -17 -29 -31 -34 -31 -5 0 -11 18 -15 40 -4 22 -10 38 -14 36 -3 -3 -17 4
-31 14 -22 17 -25 27 -30 132 -8 134 -11 131 -16 -21 -3 -100 -2 -115 14 -127
14 -10 15 -15 5 -25 -15 -15 -17 -69 -3 -69 5 0 0 -16 -11 -35 -25 -42 -20
-53 23 -48 l33 4 -25 -21 c-14 -13 -26 -17 -28 -11 -6 17 -22 2 -22 -20 0 -25
10 -24 59 8 38 25 41 29 41 74 0 51 12 68 35 49 19 -16 186 -5 197 12 15 26
24 35 60 61 26 20 37 24 41 15 3 -7 6 5 6 27 1 23 6 46 12 52 8 8 1 10 -30 6
-29 -4 -42 -2 -45 8 -2 8 -15 50 -29 94 -24 79 -66 256 -88 369 -8 43 -14 55
-21 45 -6 -10 -7 -3 -4 21 3 19 3 29 0 21 -7 -15 -53 81 -54 113 0 11 -5 16
-13 13 -8 -3 -39 -8 -70 -12 -53 -7 -57 -6 -57 13 0 16 10 24 38 31 51 15 63
14 78 -6 23 -31 16 5 -17 79 -17 38 -33 85 -36 102 l-5 33 -45 -11 c-32 -7
-50 -7 -63 2 -17 11 -17 8 2 -26 29 -49 29 -49 26 -23 -3 20 2 24 34 27 36 4
36 4 43 -38 4 -24 16 -58 26 -77 11 -18 18 -35 16 -38 -2 -2 -27 -6 -56 -10
l-51 -6 0 -51 c0 -33 7 -62 20 -84 25 -41 25 -48 0 -55 -29 -7 -36 13 -44 118
-13 172 -64 309 -118 317 l-27 4 19 -25 c10 -14 30 -37 44 -50 24 -22 24 -25
8 -37 -31 -24 -47 -16 -64 34 -9 26 -24 56 -32 67 -14 18 -14 17 -5 -17z
m-141 -70 c0 -35 -2 -39 -15 -28 -8 7 -15 9 -15 4 1 -15 26 -44 38 -44 12 0
32 -31 32 -49 0 -6 -5 -11 -12 -11 -18 0 -47 31 -42 45 3 7 -3 15 -13 17 -16
4 -18 13 -15 48 3 29 7 38 13 29 6 -10 9 -6 9 14 0 16 4 26 10 22 6 -3 10 -24
10 -47z m-80 7 c11 -13 4 -19 -41 -39 -30 -13 -65 -27 -78 -31 -25 -8 -25 -8
10 -26 19 -10 27 -18 19 -19 -8 0 -30 9 -49 21 -18 11 -35 18 -38 16 -4 -5 37
-26 152 -78 28 -13 53 -25 57 -27 4 -2 12 7 18 18 11 21 10 22 -19 15 -18 -4
-39 -1 -53 6 -23 13 -29 15 -48 18 -7 1 -6 9 1 24 7 12 12 24 11 27 -1 3 5 5
13 4 8 0 29 -1 45 -2 17 -1 30 -8 30 -15 0 -7 19 -26 42 -43 57 -40 98 -83 98
-103 0 -9 11 -33 25 -53 30 -44 31 -55 8 -81 -10 -11 -13 -17 -7 -14 7 4 17 1
23 -7 9 -11 9 -15 -1 -19 -9 -4 -8 -6 3 -6 20 -1 31 33 22 69 l-6 25 31 -29
c22 -21 35 -46 45 -90 8 -34 18 -70 22 -81 7 -18 7 -19 -6 -3 -20 25 -177 117
-312 183 -106 51 -116 59 -100 71 22 16 1 19 -27 4 -14 -8 -29 -7 -52 3 -19 8
-42 11 -53 7 -24 -9 -18 -12 75 -35 35 -9 76 -23 90 -30 24 -14 24 -14 -18
-15 -66 0 -198 47 -227 82 -27 31 -31 54 -15 78 9 13 10 13 10 -1 0 -11 16
-19 51 -27 65 -15 76 -15 62 -1 -6 6 -9 19 -6 28 4 14 2 13 -10 -1 -16 -20
-42 -24 -52 -8 -3 6 -1 10 6 10 8 0 9 10 5 32 -6 33 14 68 40 68 17 0 48 14
119 54 72 40 69 40 85 21z m547 -256 c7 -17 16 -28 21 -25 14 9 21 -30 8 -45
-8 -9 -7 -11 6 -6 9 3 19 0 21 -8 4 -9 -8 -17 -38 -24 -60 -15 -85 -14 -85 4
0 8 6 15 13 15 7 0 8 3 2 8 -5 4 -19 25 -30 47 -11 22 -21 43 -23 47 -4 8 23
15 63 17 25 1 33 -4 42 -30z m-118 -108 c13 -1 22 -4 18 -7 -3 -4 3 -24 13
-44 18 -35 18 -41 5 -67 -8 -15 -15 -36 -15 -45 0 -9 -12 -26 -27 -37 l-26
-21 -20 32 c-11 19 -22 56 -24 88 -2 30 -5 60 -8 67 -6 17 21 42 42 38 10 -2
29 -4 42 -4z m71 -217 c-14 -49 -29 -56 -46 -21 -9 21 -7 26 18 40 29 17 37
37 16 37 -9 0 -8 4 2 10 21 13 25 -12 10 -66z m130 -299 c0 -16 -27 -32 -37
-21 -7 7 16 36 28 36 5 0 9 -7 9 -15z m90 -24 c0 -11 -5 -23 -11 -27 -15 -9
-33 12 -26 30 9 23 37 20 37 -3z m-257 -94 c15 -11 16 -15 4 -31 -17 -24 -37
-13 -37 20 0 27 8 30 33 11z m226 -16 c22 -14 4 -31 -23 -21 -13 5 -27 6 -31
2 -3 -3 -3 1 1 11 7 18 31 22 53 8z"/>
<path d="M1793 2235 c-23 -17 -9 -33 16 -18 12 7 23 8 35 1 10 -5 19 -8 21 -6
2 2 -9 11 -25 20 -24 14 -31 14 -47 3z"/>
<path d="M1864 2185 c-17 -18 -18 -25 -8 -29 8 -3 20 7 29 24 19 36 8 39 -21
5z"/>
<path d="M1954 2158 c1 -18 -4 -22 -21 -21 -13 2 -23 -2 -23 -7 0 -6 11 -10
25 -10 25 0 51 32 40 50 -11 17 -22 11 -21 -12z"/>
<path d="M2076 2152 c-3 -5 11 -17 31 -26 32 -15 35 -16 23 -1 -18 22 -48 37
-54 27z"/>
<path d="M2120 2055 c15 -18 3 -38 -18 -30 -14 5 -14 3 1 -13 9 -10 17 -25 18
-33 0 -8 7 6 15 31 17 54 16 53 4 45 -5 -3 -10 -1 -10 4 0 6 -5 11 -11 11 -8
0 -8 -4 1 -15z"/>
<path d="M2215 2398 c3 -16 1 -28 -5 -28 -5 0 -10 -7 -10 -15 0 -8 4 -15 9
-15 5 0 12 -17 16 -37 4 -20 15 -53 24 -73 10 -19 27 -64 39 -100 12 -36 26
-78 32 -95 l10 -30 -4 35 c-2 19 -18 73 -36 120 -17 47 -38 119 -47 160 -8 41
-19 82 -25 90 -7 11 -8 7 -3 -12z"/>
<path d="M467 2395 c-6 -19 6 -91 17 -102 15 -15 17 34 4 75 -12 38 -16 43
-21 27z"/>
<path d="M2966 2362 c-27 -34 -27 -35 -4 -14 19 17 27 20 31 10 3 -7 6 -1 6
15 1 15 0 27 -1 27 -2 0 -16 -17 -32 -38z"/>
<path d="M1099 2340 c-14 -17 -30 -28 -39 -25 -11 3 -15 -3 -15 -20 0 -24 0
-24 33 8 31 30 58 67 48 67 -2 0 -14 -13 -27 -30z"/>
<path d="M1370 2311 c19 -10 46 -21 60 -25 14 -3 3 5 -25 18 -58 29 -87 34
-35 7z"/>
<path d="M1635 2310 c-4 -6 -13 -9 -21 -6 -8 3 -14 0 -14 -6 0 -6 -8 -21 -17
-32 -18 -21 -18 -21 4 -3 13 11 27 16 35 11 7 -4 10 -4 6 1 -4 4 0 14 10 21 9
7 14 15 10 19 -3 3 -9 1 -13 -5z"/>
<path d="M1676 2269 c3 -47 15 -53 35 -20 24 40 24 38 -9 43 -25 4 -28 1 -26
-23z"/>
<path d="M2808 2291 c-79 -8 -84 -21 -7 -20 57 1 132 13 119 19 -12 6 -59 6
-112 1z"/>
<path d="M433 2273 c20 -2 54 -2 75 0 20 2 3 4 -38 4 -41 0 -58 -2 -37 -4z"/>
<path d="M315 2255 c-22 -8 -41 -15 -43 -15 -1 0 3 -8 10 -19 11 -18 12 -18
45 1 18 11 33 26 33 34 0 8 -1 14 -2 14 -2 -1 -21 -7 -43 -15z"/>
<path d="M2201 2248 c-1 -4 6 -25 13 -45 8 -21 20 -56 26 -78 6 -22 21 -53 35
-70 l24 -30 -19 55 c-10 30 -26 82 -35 114 -11 39 -19 55 -25 47 -6 -11 -9
-11 -13 0 -3 8 -6 11 -6 7z"/>
<path d="M2790 2210 c0 -5 13 -10 29 -10 16 0 32 -6 34 -12 3 -8 6 -6 6 4 1
11 6 15 15 12 8 -3 23 -1 33 5 14 8 3 10 -49 11 -39 0 -68 -4 -68 -10z"/>
<path d="M497 2169 c-9 -45 1 -99 19 -99 16 0 20 70 5 86 -5 5 -11 18 -13 29
-3 14 -6 10 -11 -16z"/>
<path d="M4 2100 c0 -52 1 -74 3 -47 2 26 2 68 0 95 -2 26 -3 4 -3 -48z"/>
<path d="M2944 1925 c0 -143 2 -200 3 -127 2 73 2 190 0 260 -1 70 -3 10 -3
-133z"/>
<path d="M1441 2149 c-13 -10 -28 -19 -35 -19 -11 0 -56 -59 -56 -73 0 -4 7
-7 15 -7 8 0 15 5 15 11 0 20 52 62 60 49 5 -8 9 -7 13 5 4 9 3 13 -3 10 -17
-11 -11 7 7 21 10 7 16 15 13 17 -3 3 -16 -3 -29 -14z"/>
<path d="M2994 1890 c0 -146 2 -205 3 -132 2 72 2 192 0 265 -1 72 -3 13 -3
-133z"/>
<path d="M56 2009 c1 -76 -2 -109 -10 -109 -6 0 -3 -5 6 -11 9 -5 15 -16 12
-23 -7 -17 12 -30 21 -15 4 6 2 16 -4 22 -7 7 -11 53 -11 117 0 58 -4 110 -8
117 -4 6 -6 -38 -6 -98z"/>
<path d="M1572 2038 c-49 -100 -124 -330 -151 -468 -16 -80 -28 -146 -27 -147
5 -5 550 -223 552 -220 7 7 34 456 34 569 0 101 3 129 12 120 9 -9 15 -7 25 6
8 9 12 12 9 5 -3 -6 -3 -18 0 -26 6 -17 92 -57 121 -57 10 0 42 -14 72 -30 30
-17 56 -29 57 -27 5 5 -10 22 -31 34 -55 34 -79 44 -111 46 -30 2 -35 6 -41
37 -6 33 -7 33 -16 12 -6 -12 -13 -22 -17 -22 -10 0 -21 30 -15 40 7 11 -47
20 -119 20 -57 0 -307 33 -347 45 -17 6 -17 8 1 48 18 38 22 42 52 40 27 -2
29 -1 13 6 -38 18 -52 12 -73 -31z m20 -131 c-7 -8 -4 -23 8 -47 11 -19 19
-31 20 -27 0 5 -4 16 -9 25 -6 11 -4 29 5 51 13 32 15 33 56 26 24 -4 54 -17
67 -29 17 -15 25 -17 28 -8 3 6 9 9 15 6 6 -4 14 0 19 7 12 20 27 1 37 -46 l8
-40 8 38 c5 26 12 37 25 37 14 0 17 -7 14 -32 -5 -41 -32 -196 -39 -223 -4
-16 -3 -17 4 -5 11 16 37 138 47 211 5 42 8 46 30 41 26 -5 26 -5 4 -92 -14
-55 -12 -65 8 -49 15 13 15 11 7 -26 -4 -22 -8 -58 -7 -80 1 -22 -4 -65 -10
-95 -6 -30 -11 -105 -11 -167 -1 -139 -6 -145 -78 -113 -29 12 -62 26 -73 31
-11 4 -41 17 -67 28 -27 11 -48 18 -48 15 0 -2 -22 7 -48 20 -26 13 -65 27
-85 31 -21 4 -40 11 -43 16 -3 5 -14 9 -26 9 -19 0 -20 4 -13 58 10 89 33 170
73 257 25 54 36 95 37 127 0 25 3 44 8 41 4 -2 7 2 7 9 0 8 6 20 13 27 10 10
13 9 15 -4 2 -9 -1 -21 -6 -28z"/>
<path d="M1796 1842 c13 -19 24 -39 24 -45 0 -6 3 -8 6 -5 3 3 2 22 -1 41 -5
26 -13 36 -29 39 l-23 5 23 -35z"/>
<path d="M1722 1685 c61 -82 60 -78 42 -120 -8 -20 -13 -39 -11 -41 2 -3 12
16 22 42 21 55 15 71 -53 136 l-45 43 45 -60z"/>
<path d="M1595 1570 c17 -17 44 -41 60 -53 26 -17 24 -14 -10 22 -22 23 -49
47 -60 53 -14 7 -11 1 10 -22z"/>
<path d="M1560 1463 c0 -5 14 -16 30 -25 19 -11 29 -13 27 -5 -4 20 -57 47
-57 30z"/>
<path d="M973 2030 c-29 -23 -29 -37 -2 -45 27 -9 31 -3 27 33 -3 30 -3 30
-25 12z"/>
<path d="M1134 1943 c-17 -27 -40 -79 -53 -118 -12 -38 -28 -73 -34 -77 -9 -6
-8 -11 3 -18 20 -13 30 -12 34 3 24 88 52 166 66 182 18 20 40 59 40 69 0 3
-6 6 -14 6 -7 0 -26 -21 -42 -47z"/>
<path d="M941 1906 c-13 -36 -21 -73 -19 -83 2 -10 13 10 27 49 12 37 27 70
32 74 10 6 3 24 -10 24 -4 0 -18 -29 -30 -64z"/>
<path d="M2588 1843 c-12 -23 -33 -82 -63 -179 -2 -6 17 -31 42 -55 l46 -44
-33 48 c-38 54 -38 57 13 190 27 68 24 89 -5 40z"/>
<path d="M2012 1760 c-1 -52 -4 -126 -7 -165 l-4 -70 10 60 c5 33 8 107 6 165
l-3 105 -2 -95z"/>
<path d="M366 1805 c-4 -11 -12 -30 -17 -43 -15 -38 -10 -39 12 -3 11 18 18
41 16 50 -3 13 -5 13 -11 -4z"/>
<path d="M2033 1750 c0 -41 2 -58 4 -37 2 20 2 54 0 75 -2 20 -4 3 -4 -38z"/>
<path d="M2128 1638 c2 -95 -1 -247 -6 -338 -10 -167 -9 -179 25 -180 12 0 16
87 17 457 1 182 0 194 -20 213 l-20 21 4 -173z"/>
<path d="M2094 1684 c-3 -31 -2 -69 4 -87 l10 -32 1 42 c1 23 4 49 8 59 4 11
3 15 -5 10 -7 -4 -9 4 -5 29 3 19 3 35 0 35 -3 0 -9 -25 -13 -56z"/>
<path d="M2277 1680 c3 -30 7 -57 9 -59 9 -10 3 85 -6 99 -6 10 -7 -3 -3 -40z"/>
<path d="M1015 1684 c-8 -20 -15 -44 -14 -53 1 -16 4 -10 23 45 5 15 14 20 27
17 15 -4 18 -2 13 11 -10 27 -33 18 -49 -20z"/>
<path d="M2245 1707 c3 -10 5 -30 5 -45 0 -20 3 -23 12 -14 9 9 8 19 -5 44
-10 18 -15 25 -12 15z"/>
<path d="M2748 1705 c-3 -3 7 -41 23 -83 16 -42 29 -83 29 -89 0 -7 4 -13 9
-13 5 0 -3 36 -19 80 -16 44 -27 86 -24 95 6 14 -7 21 -18 10z"/>
<path d="M855 1671 c-90 -32 -132 -58 -137 -85 -4 -20 -2 -23 11 -16 9 5 45
22 81 38 68 32 136 82 110 81 -8 0 -38 -8 -65 -18z"/>
<path d="M908 1643 c-14 -16 -23 -34 -21 -40 3 -8 -4 -13 -20 -13 -13 0 -32
-10 -43 -22 -16 -20 -17 -21 -1 -9 11 9 44 15 82 15 43 1 66 5 70 14 3 7 1 11
-4 8 -11 -7 -23 22 -14 36 3 6 1 8 -4 5 -6 -4 -14 0 -17 9 -3 8 -2 12 4 9 6
-3 10 -1 10 4 0 18 -15 12 -42 -16z"/>
<path d="M2994 1450 c0 -96 2 -136 3 -87 2 48 2 126 0 175 -1 48 -3 8 -3 -88z"/>
<path d="M1340 1551 c0 -35 -15 -48 -35 -31 -11 9 -15 9 -15 1 0 -21 30 -24
50 -6 21 19 28 65 10 65 -5 0 -10 -13 -10 -29z"/>
<path d="M746 1529 c4 -28 2 -49 -4 -53 -12 -7 -26 48 -17 66 4 7 -2 2 -13
-12 -24 -29 -39 -22 -21 12 11 20 11 22 -3 10 -28 -23 -29 -52 -2 -78 20 -21
27 -23 44 -14 34 18 44 51 26 85 l-16 30 6 -46z"/>
<path d="M2099 1538 c-5 -84 -3 -278 4 -278 4 0 7 68 7 150 0 83 -2 150 -5
150 -3 0 -6 -10 -6 -22z"/>
<path d="M790 1529 c0 -8 -7 -26 -14 -41 -17 -33 -4 -37 18 -6 l15 21 73 -28
c40 -15 91 -37 113 -48 22 -12 49 -22 60 -24 11 -2 42 -8 69 -13 27 -6 51 -9
53 -7 3 3 -251 108 -369 153 -12 4 -18 1 -18 -7z"/>
<path d="M980 1514 c25 -7 54 -13 65 -13 11 0 -2 7 -30 14 -65 18 -93 18 -35
-1z"/>
<path d="M2291 1530 c-7 -10 -10 -295 -4 -315 6 -20 6 -20 12 0 6 19 -2 325
-8 315z"/>
<path d="M1993 1455 c0 -38 2 -53 4 -32 2 20 2 52 0 70 -2 17 -4 1 -4 -38z"/>
<path d="M645 1433 c10 -176 16 -239 23 -268 9 -30 9 -29 25 25 20 67 52 120
72 120 10 0 1 -27 -35 -102 -28 -56 -52 -103 -54 -106 -3 -2 -10 15 -16 39
l-12 43 -49 -145 c-66 -192 -96 -331 -68 -314 6 4 8 13 5 21 -3 8 -2 14 3 14
10 0 25 57 30 115 1 16 21 16 33 0 4 -5 8 0 8 13 0 12 4 22 8 22 5 0 9 6 9 13
0 19 45 151 53 157 4 3 32 56 62 118 43 89 51 115 41 124 -7 5 -20 34 -30 64
-9 30 -20 54 -25 54 -15 0 -8 -45 12 -70 29 -37 24 -50 -5 -15 -13 17 -24 36
-25 44 0 8 -3 11 -7 8 -10 -11 -43 24 -44 47 0 12 -4 30 -9 41 -6 13 -7 -10
-5 -62z m58 -71 c10 -20 11 -36 4 -53 -5 -13 -12 -44 -17 -69 -6 -37 -8 -27
-8 53 0 53 1 97 3 97 2 0 10 -13 18 -28z"/>
<path d="M4 1385 c0 -66 1 -92 3 -57 2 34 2 88 0 120 -2 31 -3 3 -3 -63z"/>
<path d="M777 1398 c20 -70 33 -93 28 -51 -2 18 1 35 6 38 5 3 66 -17 136 -46
71 -28 153 -60 183 -70 30 -10 64 -23 75 -29 11 -5 38 -16 60 -23 91 -32 193
-70 232 -88 23 -11 44 -19 48 -19 3 0 24 -8 48 -19 43 -19 74 -31 190 -75 37
-14 97 -38 135 -52 196 -75 269 -103 292 -109 30 -8 147 -52 175 -66 11 -5
106 -38 210 -73 194 -65 264 -95 324 -140 19 -14 43 -26 52 -26 12 0 19 -10
22 -28 4 -26 4 -26 6 4 1 28 -5 35 -56 66 -134 81 -183 103 -376 168 -198 67
-492 177 -912 340 -115 45 -355 137 -533 206 -178 68 -332 128 -342 134 -18
10 -18 8 -3 -42z"/>
<path d="M2040 1436 c0 -8 -3 -21 -6 -30 -4 -12 0 -16 15 -16 13 0 21 6 21 16
0 14 -3 14 -15 4 -14 -11 -14 -10 -6 14 7 17 7 26 1 26 -6 0 -10 -6 -10 -14z"/>
<path d="M1265 1380 c17 -4 47 -17 68 -30 21 -12 40 -20 44 -17 3 3 12 -1 20
-9 16 -16 34 -15 40 3 2 6 -6 13 -19 16 -28 6 -87 27 -110 38 -10 5 -30 9 -45
8 l-28 -1 30 -8z"/>
<path d="M1980 1311 c0 -38 -3 -83 -7 -101 -4 -22 -3 -31 4 -27 11 7 19 197 8
197 -3 0 -5 -31 -5 -69z"/>
<path d="M1440 1306 c10 -9 198 -86 274 -111 39 -13 114 -41 166 -63 52 -21
149 -60 215 -85 418 -160 622 -240 665 -262 l50 -25 20 40 21 40 -23 9 c-312
127 -340 136 -436 136 -78 0 -96 3 -106 17 -7 10 -25 19 -40 20 -14 1 -26 6
-26 11 0 4 -4 5 -10 2 -5 -3 -10 -1 -10 4 0 6 -8 11 -17 11 -15 0 -16 -2 -3
-10 13 -9 13 -10 0 -10 -22 0 -44 16 -37 27 3 5 -31 18 -76 28 -74 17 -79 20
-47 25 30 4 24 7 -45 18 -45 7 -107 25 -142 42 -34 17 -71 30 -82 30 -12 0
-21 4 -21 9 0 12 -67 34 -79 26 -6 -3 -25 1 -43 9 -31 14 -32 14 -8 16 17 1 7
7 -32 19 -63 21 -136 36 -128 27z m1150 -377 c135 -50 214 -91 218 -113 5 -25
-19 -19 -110 23 -90 41 -256 106 -301 117 -15 3 -30 11 -34 17 -14 22 116 -3
227 -44z"/>
<path d="M830 1248 c-18 -73 -52 -162 -67 -180 -13 -15 -12 -18 11 -33 14 -9
31 -15 38 -12 8 4 6 6 -4 6 -24 1 -22 25 8 96 14 33 26 65 27 72 0 6 10 24 21
38 l21 27 28 -22 c15 -12 34 -19 43 -16 23 9 9 22 -39 39 -23 8 -50 18 -59 22
-13 5 -19 -2 -28 -37z"/>
<path d="M986 1251 c9 -9 159 -72 203 -86 42 -13 13 14 -42 40 -108 48 -188
71 -161 46z"/>
<path d="M2090 1222 c0 -10 -7 -27 -15 -38 -19 -25 -19 -31 5 -37 18 -5 20 0
20 44 0 27 -2 49 -5 49 -3 0 -5 -8 -5 -18z"/>
<path d="M1217 1130 c-5 -13 -29 -137 -57 -285 -5 -27 -12 -79 -15 -115 -4
-36 -9 -73 -12 -84 -3 -11 -1 -16 5 -12 5 3 13 35 17 71 7 67 11 74 35 53 8
-7 4 0 -10 15 -24 27 -24 29 -7 42 13 10 18 24 16 52 -4 66 0 101 16 117 8 8
11 17 6 20 -5 4 -3 30 5 62 14 51 14 101 1 64z"/>
<path d="M1265 1112 c-10 -11 -5 -18 16 -19 43 -4 57 -28 48 -86 -17 -111 -25
-196 -17 -191 4 3 8 20 8 37 0 36 25 194 34 217 5 11 -6 19 -39 31 -24 9 -47
14 -50 11z"/>
<path d="M2220 1100 c0 -8 92 -41 98 -35 12 12 -28 37 -62 39 -20 1 -36 -1
-36 -4z"/>
<path d="M1371 1008 c-6 -35 -23 -157 -37 -272 -25 -212 -48 -344 -62 -358 -4
-4 -50 18 -102 49 -52 31 -142 74 -199 95 -103 37 -135 44 -87 18 l25 -13 -22
-18 c-12 -9 -19 -20 -16 -23 3 -4 18 3 33 15 26 20 29 21 69 5 24 -9 67 -32
97 -51 30 -19 60 -35 68 -35 25 0 92 -41 92 -56 0 -9 5 -12 13 -8 6 4 2 -3
-10 -15 -13 -12 -23 -25 -23 -28 0 -4 5 -2 11 4 6 6 18 9 25 6 8 -3 14 0 14 6
0 5 13 24 29 40 18 19 28 38 26 50 -4 20 11 145 20 170 9 23 33 -6 75 -88 22
-42 49 -87 61 -101 l21 -25 -16 25 c-40 61 -126 249 -126 276 0 22 3 26 10 14
7 -11 10 4 11 50 0 36 5 90 9 120 5 30 12 77 16 103 4 27 12 51 19 53 14 6
122 -33 131 -47 3 -6 -2 -17 -12 -25 -13 -10 -7 -9 20 3 l38 18 23 -27 c13
-16 26 -23 32 -17 8 8 142 -39 202 -70 l24 -13 -7 -223 c-5 -209 -5 -224 13
-247 l19 -23 59 29 c110 54 295 112 316 99 5 -3 -7 -22 -27 -42 -20 -21 -38
-46 -41 -57 -8 -39 -47 -149 -56 -159 -5 -5 -9 -15 -9 -23 0 -8 -8 -21 -17
-28 -11 -8 -13 -13 -6 -14 21 0 53 42 67 90 26 86 57 144 102 192 24 26 44 57
44 68 0 12 -4 19 -8 16 -4 -2 -53 -14 -108 -25 -102 -20 -232 -66 -291 -103
l-33 -20 0 99 c0 81 15 327 23 382 1 9 -85 48 -258 117 -143 57 -263 104 -266
104 -4 0 -12 -28 -18 -62z"/>
<path d="M735 1023 c-9 -26 -5 -38 23 -58 l27 -20 -18 28 c-21 32 -18 33 34 7
22 -12 43 -18 48 -16 5 3 21 -6 35 -19 15 -14 30 -25 34 -26 48 -4 68 -11 88
-30 19 -18 24 -19 24 -7 0 21 -16 32 -75 52 -27 9 -87 36 -132 60 -64 33 -83
40 -88 29z"/>
<path d="M830 1009 c0 -6 73 -39 85 -39 3 0 5 9 5 19 0 15 -9 20 -45 23 -25 2
-45 0 -45 -3z"/>
<path d="M937 976 c-4 -10 5 -18 25 -25 39 -14 61 -14 53 -1 -3 6 -15 10 -25
10 -10 0 -25 7 -33 15 -13 12 -16 12 -20 1z"/>
<path d="M780 905 c0 -9 48 -29 148 -61 56 -17 102 -30 102 -28 0 10 -72 40
-120 50 -30 6 -72 19 -92 28 -21 9 -38 14 -38 11z"/>
<path d="M1098 882 c9 -11 20 -17 25 -15 4 2 7 -7 7 -20 0 -21 -6 -26 -37 -32
l-38 -8 35 -12 c40 -14 48 -5 49 53 1 26 -4 34 -25 42 -35 14 -37 13 -16 -8z"/>
<path d="M418 710 c-43 -129 -53 -170 -42 -174 8 -3 11 0 8 8 -3 8 18 84 46
171 29 86 50 158 48 160 -2 2 -29 -72 -60 -165z"/>
<path d="M780 864 c0 -9 81 -44 137 -58 57 -15 112 -21 102 -12 -6 6 -239 75
-239 70z"/>
<path d="M745 840 c-3 -5 8 -16 26 -25 32 -17 43 -17 31 0 -13 18 -51 35 -57
25z"/>
<path d="M1970 819 c21 -17 42 -28 53 -25 14 3 17 0 13 -17 -3 -12 -3 -16 0
-9 3 6 14 12 25 12 17 0 19 -8 19 -71 0 -53 -3 -68 -12 -63 -7 4 -4 -3 7 -15
11 -13 32 -29 46 -36 22 -12 29 -11 55 7 16 11 20 17 9 13 -42 -16 -60 -11
-63 17 -3 22 0 26 16 21 12 -3 22 1 25 11 7 17 -4 20 -40 10 -19 -5 -21 -11
-16 -37 4 -21 3 -28 -5 -23 -8 5 -12 39 -12 95 l0 88 -68 26 c-86 34 -95 33
-52 -4z"/>
<path d="M2851 814 c-6 -14 -11 -33 -10 -42 0 -11 5 -7 13 11 7 16 18 32 25
37 10 5 9 9 -2 13 -9 3 -19 -4 -26 -19z"/>
<path d="M2900 808 c0 -6 -8 -21 -17 -32 -18 -20 -18 -20 9 -3 15 9 40 17 55
17 l28 1 -34 14 c-40 18 -41 18 -41 3z"/>
<path d="M1067 771 c17 -11 34 -30 38 -42 6 -17 9 -19 16 -8 17 26 9 47 -18
53 -16 4 -37 9 -48 12 -12 3 -7 -3 12 -15z"/>
<path d="M1273 783 c-18 -7 -16 -64 3 -88 14 -19 15 -17 9 25 -4 32 -3 39 4
25 8 -17 10 -16 10 13 1 32 -2 35 -26 25z"/>
<path d="M2100 739 c0 -48 1 -50 23 -43 12 3 22 7 22 8 0 0 5 15 12 33 10 30
9 32 -20 42 -16 6 -32 11 -33 11 -2 0 -4 -23 -4 -51z"/>
<path d="M876 749 c3 -5 11 -9 19 -9 20 0 30 -21 14 -31 -23 -14 12 -11 39 4
22 12 21 14 -28 29 -27 9 -48 12 -44 7z"/>
<path d="M2196 735 c9 -14 19 -23 23 -21 3 1 15 6 26 10 18 7 16 9 -14 22 -47
20 -54 18 -35 -11z"/>
<path d="M1646 681 c-9 -39 -15 -92 -15 -118 1 -40 3 -36 10 27 4 41 15 94 23
118 8 23 11 42 6 42 -4 0 -16 -31 -24 -69z"/>
<path d="M2778 728 l-37 -10 89 -44 c48 -24 91 -44 94 -44 4 0 2 9 -4 20 -12
23 -6 24 38 9 26 -9 32 -17 35 -47 3 -27 4 -24 3 11 l-1 49 -90 34 c-49 18
-90 33 -90 33 0 -1 -17 -5 -37 -11z"/>
<path d="M2264 720 c-5 -5 -27 -15 -47 -23 -37 -12 -36 -13 45 -12 99 1 113
-8 123 -82 6 -43 4 -53 -12 -62 -16 -9 -15 -10 10 -11 16 0 26 4 23 9 -3 5 -7
39 -8 76 l-2 67 -40 18 c-64 27 -81 31 -92 20z"/>
<path d="M1001 706 c27 -15 110 -38 117 -31 2 2 -21 10 -52 19 -30 9 -63 19
-73 22 -10 3 -6 -2 8 -10z"/>
<path d="M1280 654 c0 -11 -8 -30 -17 -43 -9 -14 -12 -21 -6 -18 6 4 13 1 15
-5 3 -7 8 7 12 31 4 24 4 46 1 49 -3 3 -5 -3 -5 -14z"/>
<path d="M601 644 c6 -8 16 -14 21 -14 5 0 27 -9 48 -19 22 -11 42 -16 44 -12
3 4 -24 19 -60 33 -39 15 -60 20 -53 12z"/>
<path d="M2143 569 c-13 -5 -23 -13 -23 -18 0 -5 -3 -18 -6 -28 -4 -14 -2 -13
8 3 7 12 18 19 24 17 6 -2 14 4 18 13 8 22 6 23 -21 13z"/>
<path d="M1410 177 c0 -20 23 -37 37 -29 7 5 2 13 -13 25 -19 14 -24 15 -24 4z"/>
<path d="M1442 111 c-10 -6 -7 -12 11 -24 25 -16 47 -7 47 20 0 14 -38 17 -58
4z"/>
<path d="M2578 66 c3 -5 9 -23 13 -40 l7 -31 1 32 1 32 88 3 87 3 -102 5 c-60
3 -99 1 -95 -4z"/>
<path d="M2355 61 c3 -5 0 -13 -5 -16 -22 -14 21 -45 59 -44 23 1 28 3 14 6
-16 3 -23 11 -23 29 0 30 17 32 23 2 l4 -23 2 23 c1 15 7 22 21 22 13 0 20 -6
19 -17 0 -11 -3 -13 -6 -5 -7 17 -23 15 -23 -3 0 -8 9 -15 19 -15 11 0 21 -4
23 -9 6 -18 40 17 34 36 -5 14 -18 19 -66 21 l-60 3 0 -30 c0 -17 -4 -31 -10
-31 -5 0 -10 13 -10 30 0 17 -5 30 -11 30 -5 0 -8 -4 -4 -9z"/>
<path d="M2530 49 c0 -10 5 -19 10 -19 6 0 10 -7 10 -15 0 -8 5 -15 11 -15 18
0 6 63 -13 66 -12 1 -18 -4 -18 -17z"/>
<path d="M2776 55 c-3 -9 -18 -15 -36 -15 -23 0 -30 -4 -30 -20 0 -23 15 -27
24 -5 3 8 10 15 16 15 5 0 10 -7 10 -15 0 -27 19 -16 22 12 3 27 6 28 68 34
l65 6 -66 1 c-51 2 -68 -1 -73 -13z"/>
<path d="M2610 35 c0 -10 10 -15 30 -15 17 0 30 -4 30 -10 0 -21 18 -9 22 15
5 24 3 25 -38 25 -32 0 -44 -4 -44 -15z"/>
<path d="M2807 43 c-14 -13 -6 -23 18 -23 14 0 25 -4 25 -10 0 -5 7 -10 15
-10 9 0 15 9 15 25 0 22 -4 25 -33 25 -19 0 -37 -3 -40 -7z"/>
</g>
</svg>
